<?xml version="1.0" encoding="utf-8"?>
<!-- Generator: Adobe Illustrator 26.0.1, SVG Export Plug-In . SVG Version: 6.00 Build 0)  -->
<svg version="1.1" xmlns="http://www.w3.org/2000/svg" xmlns:xlink="http://www.w3.org/1999/xlink" x="0px" y="0px"
	 viewBox="0 0 1146.8 506.5" style="enable-background:new 0 0 1146.8 506.5;" xml:space="preserve">
<style type="text/css">
	.st0{fill:none;stroke:#525252;stroke-miterlimit:10;}
	.st1{font-family:'IBMPlexSans';}
	.st2{font-size:14px;}
	.st3{fill:#525252;}
	.st4{fill:none;stroke:#C6C6C6;stroke-miterlimit:10;}
	.st5{fill:#C6C6C6;}
	.st6{fill:none;stroke:#000000;stroke-miterlimit:10;}
	.st7{fill:#A6C8FF;}
	.st8{fill:none;stroke:#525252;stroke-miterlimit:10;stroke-dasharray:4.2808,4.2808;}
	.st9{fill:#FFAFD2;}
	.st10{fill:#D4BBFF;}
</style>
<g id="Background_9_">
</g>
<g id="Manage_drop_down">
</g>
<g id="Left-nav">
	<path class="st0" d="M646.7,62.9H501.6c-8.3,0-15.1-6.8-15.1-15.1V33.4c0-8.3,6.8-15.1,15.1-15.1h145.1c8.3,0,15.1,6.8,15.1,15.1
		v14.4C661.8,56.2,655.1,62.9,646.7,62.9z"/>
	<text transform="matrix(1 0 0 1 536.9809 44.8541)" class="st1 st2">Enterprise</text>
	<g>
		<rect x="505" y="34" class="st3" width="1.7" height="3.3"/>
		<rect x="505" y="39" class="st3" width="1.7" height="3.3"/>
		<rect x="509.9" y="34" class="st3" width="1.7" height="3.3"/>
		<rect x="509.9" y="39" class="st3" width="1.7" height="3.3"/>
		<rect x="505" y="43.9" class="st3" width="1.7" height="3.3"/>
		<rect x="509.9" y="43.9" class="st3" width="1.7" height="3.3"/>
		<path class="st3" d="M523.1,39c0-0.9-0.7-1.7-1.7-1.7h-5v-6.6c0-0.9-0.7-1.7-1.7-1.7h-13.2c-0.9,0-1.7,0.7-1.7,1.7v21.5h23.1V39z
			 M501.6,30.7h13.2v19.8h-13.2V30.7z M516.5,50.5V39h5v11.6H516.5z"/>
	</g>
	<path class="st0" d="M216,166.7H70.9c-8.3,0-15.1-6.8-15.1-15.1v-14.4c0-8.3,6.8-15.1,15.1-15.1H216c8.3,0,15.1,6.8,15.1,15.1v14.4
		C231.1,159.9,224.3,166.7,216,166.7z"/>
	<text transform="matrix(1 0 0 1 106.5804 148.566)" class="st1 st2">Account group</text>
	<path class="st0" d="M646.7,166.7H501.6c-8.3,0-15.1-6.8-15.1-15.1v-14.4c0-8.3,6.8-15.1,15.1-15.1h145.1c8.3,0,15.1,6.8,15.1,15.1
		v14.4C661.8,159.9,655.1,166.7,646.7,166.7z"/>
	<text transform="matrix(1 0 0 1 536.9809 148.5662)" class="st1 st2">Account group</text>
	<path class="st0" d="M1077.5,166.7H932.4c-8.3,0-15.1-6.8-15.1-15.1v-14.4c0-8.3,6.8-15.1,15.1-15.1h145.1
		c8.3,0,15.1,6.8,15.1,15.1v14.4C1092.6,159.9,1085.8,166.7,1077.5,166.7z"/>
	<text transform="matrix(1 0 0 1 968.1506 148.5659)" class="st1 st2">Account</text>
	<g>
		<path class="st3" d="M936.2,142.3h11v2h-11V142.3z M936.2,147.4h13v2h-13V147.4z"/>
		<path class="st3" d="M956.2,132.1h-23.9c-1.1,0-2,0.9-2,2v20.4c0,1.1,0.9,2,2,2h23.9c1.1,0,2-0.9,2-2v-20.4
			C958.2,133,957.3,132.1,956.2,132.1z M956.2,134.2v2h-23.9v-2H956.2z M932.2,154.5v-16.3h23.9v16.3H932.2z"/>
	</g>
	<path class="st0" d="M216,271.6H70.9c-8.3,0-15.1-6.8-15.1-15.1V242c0-8.3,6.8-15.1,15.1-15.1H216c8.3,0,15.1,6.8,15.1,15.1v14.4
		C231.1,264.8,224.3,271.6,216,271.6z"/>
	<text transform="matrix(1 0 0 1 106.5804 253.4753)" class="st1 st2">Account</text>
	<g>
		<path class="st3" d="M74.6,247.2h11v2h-11V247.2z M74.6,252.3h13v2h-13V252.3z"/>
		<path class="st3" d="M94.5,237H70.6c-1.1,0-2,0.9-2,2v20.4c0,1.1,0.9,2,2,2h23.9c1.1,0,2-0.9,2-2v-20.4
			C96.5,237.9,95.6,237,94.5,237z M94.5,239.1v2H70.6v-2H94.5z M70.6,259.4v-16.3h23.9v16.3H70.6z"/>
	</g>
	<path class="st0" d="M434,271.6H288.9c-8.3,0-15.1-6.8-15.1-15.1V242c0-8.3,6.8-15.1,15.1-15.1H434c8.3,0,15.1,6.8,15.1,15.1v14.4
		C449.1,264.8,442.4,271.6,434,271.6z"/>
	<text transform="matrix(1 0 0 1 325.0421 253.475)" class="st1 st2">Account group</text>
	<path class="st0" d="M646.7,271.6H501.6c-8.3,0-15.1-6.8-15.1-15.1V242c0-8.3,6.8-15.1,15.1-15.1h145.1c8.3,0,15.1,6.8,15.1,15.1
		v14.4C661.8,264.8,655.1,271.6,646.7,271.6z"/>
	<path class="st4" d="M861.4,271.6H716.4c-8.3,0-15.1-6.8-15.1-15.1V242c0-8.3,6.8-15.1,15.1-15.1h145.1c8.3,0,15.1,6.8,15.1,15.1
		v14.4C876.5,264.8,869.8,271.6,861.4,271.6z"/>
	<text transform="matrix(1 0 0 1 752.4736 253.4751)" class="st5 st1 st2">Account group</text>
	<path class="st4" d="M337,376.9H191.9c-8.3,0-15.1-6.8-15.1-15.1v-14.4c0-8.3,6.8-15.1,15.1-15.1H337c8.3,0,15.1,6.8,15.1,15.1
		v14.4C352.1,370.1,345.3,376.9,337,376.9z"/>
	<path class="st0" d="M521.7,376.9H376.6c-8.3,0-15.1-6.8-15.1-15.1v-14.4c0-8.3,6.8-15.1,15.1-15.1h145.1c8.3,0,15.1,6.8,15.1,15.1
		v14.4C536.8,370.1,530,376.9,521.7,376.9z"/>
	<text transform="matrix(1 0 0 1 412.6906 358.7763)" class="st1 st2">Account group</text>
	<path class="st4" d="M765.2,376.9H620.1c-8.3,0-15.1-6.8-15.1-15.1v-14.4c0-8.3,6.8-15.1,15.1-15.1h145.1c8.3,0,15.1,6.8,15.1,15.1
		v14.4C780.3,370.1,773.5,376.9,765.2,376.9z"/>
	<text transform="matrix(1 0 0 1 656.2025 358.7759)" class="st5 st1 st2">Account</text>
	<g>
		<path class="st5" d="M624.3,352.5h11v2h-11V352.5z M624.3,357.6h13v2h-13V357.6z"/>
		<path class="st5" d="M644.2,342.3h-23.9c-1.1,0-2,0.9-2,2v20.4c0,1.1,0.9,2,2,2h23.9c1.1,0,2-0.9,2-2v-20.4
			C646.2,343.2,645.3,342.3,644.2,342.3z M644.2,344.4v2h-23.9v-2H644.2z M620.3,364.7v-16.3h23.9v16.3H620.3z"/>
	</g>
	<path class="st4" d="M957.3,376.9H812.2c-8.3,0-15.1-6.8-15.1-15.1v-14.4c0-8.3,6.8-15.1,15.1-15.1h145.1c8.3,0,15.1,6.8,15.1,15.1
		v14.4C972.4,370.1,965.6,376.9,957.3,376.9z"/>
	<text transform="matrix(1 0 0 1 848.3256 358.7761)" class="st5 st1 st2">Account</text>
	<g>
		<path class="st5" d="M816.4,352.5h11v2h-11V352.5z M816.4,357.6h13v2h-13V357.6z"/>
		<path class="st5" d="M836.3,342.3h-23.9c-1.1,0-2,0.9-2,2v20.4c0,1.1,0.9,2,2,2h23.9c1.1,0,2-0.9,2-2v-20.4
			C838.3,343.2,837.4,342.3,836.3,342.3z M836.3,344.4v2h-23.9v-2H836.3z M812.4,364.7v-16.3h23.9v16.3H812.4z"/>
	</g>
	<path class="st0" d="M434.7,485.4H289.6c-8.3,0-15.1-6.8-15.1-15.1v-14.4c0-8.3,6.8-15.1,15.1-15.1h145.1c8.3,0,15.1,6.8,15.1,15.1
		v14.4C449.8,478.6,443.1,485.4,434.7,485.4z"/>
	<text transform="matrix(1 0 0 1 325.7534 467.3204)" class="st1 st2">Account</text>
	<g>
		<path class="st3" d="M293.8,461.1h11v2h-11V461.1z M293.8,466.1h13v2h-13V466.1z"/>
		<path class="st3" d="M313.8,450.9h-23.9c-1.1,0-2,0.9-2,2v20.4c0,1.1,0.9,2,2,2h23.9c1.1,0,2-0.9,2-2v-20.4
			C315.8,451.8,314.9,450.9,313.8,450.9z M313.8,452.9v2h-23.9v-2H313.8z M289.8,473.3V457h23.9v16.3H289.8z"/>
	</g>
	<path class="st0" d="M624.2,485.4H479.1c-8.3,0-15.1-6.8-15.1-15.1v-14.4c0-8.3,6.8-15.1,15.1-15.1h145.1c8.3,0,15.1,6.8,15.1,15.1
		v14.4C639.3,478.6,632.6,485.4,624.2,485.4z"/>
	<text transform="matrix(1 0 0 1 515.2585 467.3202)" class="st1 st2">Account</text>
	<g>
		<path class="st3" d="M483.3,461.1h11v2h-11V461.1z M483.3,466.1h13v2h-13V466.1z"/>
		<path class="st3" d="M503.3,450.9h-23.9c-1.1,0-2,0.9-2,2v20.4c0,1.1,0.9,2,2,2h23.9c1.1,0,2-0.9,2-2v-20.4
			C505.3,451.8,504.4,450.9,503.3,450.9z M503.3,452.9v2h-23.9v-2H503.3z M479.3,473.3V457h23.9v16.3H479.3z"/>
	</g>
	<path class="st4" d="M264.8,333.5v-23.8c0-4.8,3.9-8.7,8.7-8.7h87.1"/>
	<path class="st0" d="M359.9,226.3v-23.8c0-4.8,3.9-8.7,8.7-8.7h205.8"/>
	<path class="st3" d="M509.2,134.3l3.4,3.4l0.6,0.6H526v16h-24v-20H509.2 M509.2,132.3H502c-1.1,0-2,0.9-2,2v20c0,1.1,0.9,2,2,2h24
		c1.1,0,2-0.9,2-2v-16c0-1.1-0.9-2-2-2h-12l-3.4-3.4C510.2,132.6,509.7,132.3,509.2,132.3z"/>
	<path class="st3" d="M296.3,239.2l3.4,3.4l0.6,0.6h12.8v16h-24v-20H296.3 M296.3,237.2h-7.2c-1.1,0-2,0.9-2,2v20c0,1.1,0.9,2,2,2
		h24c1.1,0,2-0.9,2-2v-16c0-1.1-0.9-2-2-2h-12l-3.4-3.4C297.3,237.5,296.8,237.2,296.3,237.2z"/>
	<path class="st3" d="M383.9,344.5l3.4,3.4l0.6,0.6h12.8v16h-24v-20H383.9 M383.9,342.5h-7.2c-1.1,0-2,0.9-2,2v20c0,1.1,0.9,2,2,2
		h24c1.1,0,2-0.9,2-2v-16c0-1.1-0.9-2-2-2h-12l-3.4-3.4C384.9,342.8,384.4,342.5,383.9,342.5z"/>
	<path class="st3" d="M77.8,134.3l3.4,3.4l0.6,0.6h12.8v16h-24v-20H77.8 M77.8,132.3h-7.2c-1.1,0-2,0.9-2,2v20c0,1.1,0.9,2,2,2h24
		c1.1,0,2-0.9,2-2v-16c0-1.1-0.9-2-2-2h-12l-3.4-3.4C78.8,132.6,78.3,132.3,77.8,132.3z"/>
	<path class="st5" d="M723.7,239.2l3.4,3.4l0.6,0.6h12.8v16h-24v-20H723.7 M723.7,237.2h-7.2c-1.1,0-2,0.9-2,2v20c0,1.1,0.9,2,2,2
		h24c1.1,0,2-0.9,2-2v-16c0-1.1-0.9-2-2-2h-12l-3.4-3.4C724.7,237.5,724.2,237.2,723.7,237.2z"/>
	<path class="st0" d="M456.9,333.5v-23.8c0-4.8-3.9-8.7-8.7-8.7h-87.1"/>
	<line class="st0" x1="360.6" y1="301.5" x2="360.6" y2="272.2"/>
	<path class="st4" d="M692.6,332.6v-23.8c0-4.8,3.9-8.7,8.7-8.7h87.1"/>
	<path class="st4" d="M884.8,332.6v-23.8c0-4.8-3.9-8.7-8.7-8.7h-87.1"/>
	<line class="st4" x1="788.5" y1="300.4" x2="788.5" y2="271.1"/>
	<text transform="matrix(1 0 0 1 536.9807 253.4751)" class="st1 st2">Account</text>
	<g>
		<path class="st3" d="M506,247.2h11v2h-11V247.2z M506,252.3h13v2h-13V252.3z"/>
		<path class="st3" d="M525.9,237H502c-1.1,0-2,0.9-2,2v20.4c0,1.1,0.9,2,2,2h23.9c1.1,0,2-0.9,2-2v-20.4
			C527.9,237.9,527,237,525.9,237z M525.9,239.1v2H502v-2H525.9z M502,259.4v-16.3h23.9v16.3H502z"/>
	</g>
	<path class="st4" d="M788.9,226.3v-23.8c0-4.8-3.9-8.7-8.7-8.7H574.4"/>
	<line class="st0" x1="574.2" y1="226.3" x2="574.2" y2="166.7"/>
	<path class="st0" d="M360.9,439.5v-23.8c0-4.8,3.9-8.7,8.7-8.7h87.1"/>
	<path class="st0" d="M553,439.5v-23.8c0-4.8-3.9-8.7-8.7-8.7h-87.1"/>
	<line class="st0" x1="456.7" y1="407.4" x2="456.7" y2="378.1"/>
	<line class="st0" x1="574.2" y1="121.8" x2="574.2" y2="62.1"/>
	<text transform="matrix(1 0 0 1 227.8339 358.7759)" class="st5 st1 st2">Account</text>
	<g>
		<path class="st5" d="M195.9,352.5h11v2h-11V352.5z M195.9,357.6h13v2h-13V357.6z"/>
		<path class="st5" d="M215.8,342.3h-23.9c-1.1,0-2,0.9-2,2v20.4c0,1.1,0.9,2,2,2h23.9c1.1,0,2-0.9,2-2v-20.4
			C217.8,343.2,216.9,342.3,215.8,342.3z M215.8,344.4v2h-23.9v-2H215.8z M191.9,364.7v-16.3h23.9v16.3H191.9z"/>
	</g>
	<text transform="matrix(1 0 0 1 747.636 465.6736)" class="st1 st2">Attachment A</text>
	<text transform="matrix(1 0 0 1 877.5354 465.6735)" class="st1 st2">Attachment B</text>
</g>
<g id="Numbers">
	<circle class="st7" cx="654.3" cy="24.2" r="10.5"/>
	<circle class="st7" cx="651.8" cy="124.5" r="10.5"/>
	<circle class="st7" cx="224.3" cy="124.5" r="10.5"/>
	<circle class="st7" cx="219.4" cy="229.8" r="10.5"/>
	<circle class="st7" cx="438.4" cy="229.8" r="10.5"/>
	<circle class="st7" cx="654.7" cy="229.8" r="10.5"/>
	<circle class="st7" cx="531" cy="337.6" r="10.5"/>
	<circle class="st7" cx="441" cy="443.6" r="10.5"/>
	<circle class="st7" cx="633.7" cy="443.6" r="10.5"/>
	<path class="st0" d="M143.5,122.1v-21.8c0-5.9,4.8-10.8,10.8-10.8h420.5"/>
	<path class="st0" d="M1004.6,122.1v-21.8c0-5.9-4.8-10.8-10.8-10.8H573.3"/>
	<path class="st0" d="M1077.5,271.6H932.4c-8.3,0-15.1-6.8-15.1-15.1V242c0-8.3,6.8-15.1,15.1-15.1h145.1c8.3,0,15.1,6.8,15.1,15.1
		v14.4C1092.6,264.8,1085.8,271.6,1077.5,271.6z"/>
	<text transform="matrix(1 0 0 1 968.3547 253.4752)" class="st1 st2">Resource group</text>
	<g>
		<g>
			<line class="st0" x1="1004.9" y1="226.3" x2="1004.9" y2="224.3"/>
			<line class="st8" x1="1004.9" y1="220" x2="1004.9" y2="170.7"/>
			<line class="st0" x1="1004.9" y1="168.6" x2="1004.9" y2="166.6"/>
		</g>
	</g>
	<circle class="st9" cx="1085.2" cy="229.8" r="10.5"/>
	<circle class="st7" cx="1085.2" cy="124.5" r="10.5"/>
	<line class="st0" x1="143.5" y1="226.3" x2="143.5" y2="166.7"/>
	<circle class="st7" cx="727.4" cy="461.4" r="10.5"/>
	<circle class="st10" cx="857.3" cy="461.4" r="10.5"/>
	<path class="st3" d="M950.4,256.3h-12c-1.1,0-2-0.8-2-1.7v-10.4c0-1,0.9-1.7,2-1.7h12c1.1,0,2,0.8,2,1.7v10.4
		C952.4,255.5,951.5,256.3,950.4,256.3z M938.4,244.2v10.4h12v-10.4H938.4z"/>
	<path class="st3" d="M936.4,261.5h-4c-1.1,0-2-0.8-2-1.7V239c0-1,0.9-1.7,2-1.7h4v1.7h-4v20.7h4V261.5z"/>
	<path class="st3" d="M956.4,261.5h-4v-1.7h4V239h-4v-1.7h4c1.1,0,2,0.8,2,1.7v20.7C958.4,260.7,957.5,261.5,956.4,261.5z"/>
	<text transform="matrix(1 0 0 1 1012.5511 465.6738)" class="st1 st2">Attachment C</text>
	<circle class="st9" cx="992.3" cy="461.4" r="10.5"/>
	<path class="st9" d="M1085.2,113.9c5.8,0,10.5,4.7,10.5,10.5s-4.7,10.5-10.5,10.5"/>
	<path class="st10" d="M531,327.1c5.8,0,10.5,4.7,10.5,10.5s-4.7,10.5-10.5,10.5"/>
	<path class="st10" d="M441,433.1c5.8,0,10.5,4.7,10.5,10.5c0,5.8-4.7,10.5-10.5,10.5"/>
	<path class="st10" d="M634.1,433.1c5.8,0,10.5,4.7,10.5,10.5c0,5.8-4.7,10.5-10.5,10.5"/>
	<path class="st10" d="M438.4,219.3c5.8,0,10.5,4.7,10.5,10.5s-4.7,10.5-10.5,10.5"/>
</g>
</svg>
