<?xml version="1.0" encoding="UTF-8"?>
<svg xmlns="http://www.w3.org/2000/svg" viewBox="0 0 1100 550">
  <defs>
    <style>
      .cls-1 {
        letter-spacing: -.009em;
      }

      .cls-2, .cls-3 {
        fill: #c6c6c6;
      }

      .cls-2, .cls-4 {
        font-family: IBMPlexSans, 'IBM Plex Sans';
        font-size: 14px;
      }

      .cls-5 {
        fill: #ffafd2;
      }

      .cls-6 {
        fill: #a6c8ff;
      }

      .cls-7 {
        fill: #d4bbff;
      }

      .cls-8 {
        fill: #525252;
      }

      .cls-9 {
        letter-spacing: -.006em;
      }

      .cls-10 {
        letter-spacing: -.006em;
      }

      .cls-11 {
        letter-spacing: -.004em;
      }

      .cls-12, .cls-13, .cls-14 {
        fill: none;
        stroke-miterlimit: 10;
      }

      .cls-12, .cls-14 {
        stroke: #525252;
      }

      .cls-13 {
        stroke: #c6c6c6;
      }

      .cls-14 {
        stroke-dasharray: 0 0 4.2808 4.2808;
      }

      .cls-15 {
        letter-spacing: -.005em;
      }

      .cls-16 {
        letter-spacing: -.015em;
      }

      .cls-17 {
        letter-spacing: -.005em;
      }
    </style>
  </defs>
  <g id="Left-nav">
    <rect class="cls-12" x="463.0972" y="40.0745" width="175.2968" height="44.6257" rx="15.1011" ry="15.1011"/>
    <text class="cls-4" transform="translate(513.5637 66.6154)"><tspan x="0" y="0">En</tspan><tspan class="cls-11" x="16.1138" y="0">t</tspan><tspan x="20.9717" y="0">erprise</tspan></text>
    <g>
      <rect class="cls-8" x="481.5359" y="55.7739" width="1.6534" height="3.3067"/>
      <rect class="cls-8" x="481.5359" y="60.734" width="1.6534" height="3.3067"/>
      <rect class="cls-8" x="486.496" y="55.7739" width="1.6534" height="3.3067"/>
      <rect class="cls-8" x="486.496" y="60.734" width="1.6534" height="3.3067"/>
      <rect class="cls-8" x="481.5359" y="65.6941" width="1.6534" height="3.3067"/>
      <rect class="cls-8" x="486.496" y="65.6941" width="1.6534" height="3.3067"/>
      <path class="cls-8" d="M499.7229,60.734c0-.9131-.7402-1.6534-1.6534-1.6534h-4.9601v-6.6134c0-.9131-.7402-1.6534-1.6534-1.6534h-13.2269c-.9131,0-1.6534,.7402-1.6534,1.6534v21.4936h23.147v-13.2269Zm-21.4936-8.2668h13.2269v19.8403h-13.2269v-19.8403Zm14.8802,19.8403v-11.5735h4.9601v11.5735h-4.9601Z"/>
    </g>
    <rect class="cls-12" x="32.3946" y="143.7865" width="175.2968" height="44.6257" rx="15.1011" ry="15.1011"/>
    <text class="cls-4" transform="translate(83.1632 170.3272)"><tspan x="0" y="0">A</tspan><tspan class="cls-10" x="8.9741" y="0">cc</tspan><tspan x="22.8896" y="0">ount g</tspan><tspan class="cls-17" x="62.2432" y="0">r</tspan><tspan x="67.3115" y="0">oup</tspan></text>
    <rect class="cls-12" x="463.0972" y="143.7865" width="175.2968" height="44.6257" rx="15.1011" ry="15.1011"/>
    <text class="cls-4" transform="translate(513.5637 170.3274)"><tspan x="0" y="0">A</tspan><tspan class="cls-10" x="8.9741" y="0">cc</tspan><tspan x="22.8896" y="0">ount g</tspan><tspan class="cls-17" x="62.2432" y="0">r</tspan><tspan x="67.3115" y="0">oup</tspan></text>
    <rect class="cls-12" x="893.8466" y="143.7865" width="175.2968" height="44.6257" rx="15.1011" ry="15.1011"/>
    <text class="cls-4" transform="translate(944.7334 170.3271)"><tspan x="0" y="0">A</tspan><tspan class="cls-10" x="8.9741" y="0">cc</tspan><tspan x="22.8896" y="0">ount</tspan></text>
    <g>
      <path class="cls-8" d="M912.7983,164.0638h10.971v2.0356h-10.971v-2.0356Zm0,5.0889h12.9657v2.0356h-12.9657v-2.0356Z"/>
      <path class="cls-8" d="M932.7455,153.886h-23.9367c-1.1017,0-1.9947,.9114-1.9947,2.0356v20.3556c0,1.1242,.8931,2.0356,1.9947,2.0356h23.9367c1.1017,0,1.9947-.9114,1.9947-2.0356v-20.3556c0-1.1242-.8931-2.0356-1.9947-2.0356Zm0,2.0356v2.0356h-23.9367v-2.0356h23.9367Zm-23.9367,20.3556v-16.2845h23.9367v16.2845h-23.9367Z"/>
    </g>
    <rect class="cls-12" x="32.3946" y="248.6955" width="175.2968" height="44.6257" rx="15.1011" ry="15.1011"/>
    <text class="cls-4" transform="translate(83.1632 275.2365)"><tspan x="0" y="0">A</tspan><tspan class="cls-10" x="8.9741" y="0">cc</tspan><tspan x="22.8896" y="0">ount</tspan></text>
    <g>
      <path class="cls-8" d="M51.1595,268.9728h10.971v2.0356h-10.971v-2.0356Zm0,5.0889h12.9657v2.0356h-12.9657v-2.0356Z"/>
      <path class="cls-8" d="M71.1068,258.795h-23.9367c-1.1017,0-1.9947,.9114-1.9947,2.0356v20.3556c0,1.1242,.8931,2.0356,1.9947,2.0356h23.9367c1.1017,0,1.9947-.9114,1.9947-2.0356v-20.3556c0-1.1242-.8931-2.0356-1.9947-2.0356Zm0,2.0356v2.0356h-23.9367v-2.0356h23.9367Zm-23.9367,20.3556v-16.2845h23.9367v16.2845h-23.9367Z"/>
    </g>
    <rect class="cls-12" x="250.4025" y="248.6955" width="175.2968" height="44.6257" rx="15.1011" ry="15.1011"/>
    <text class="cls-4" transform="translate(301.6249 275.2362)"><tspan x="0" y="0">A</tspan><tspan class="cls-10" x="8.9741" y="0">cc</tspan><tspan x="22.8896" y="0">ount g</tspan><tspan class="cls-17" x="62.2432" y="0">r</tspan><tspan x="67.3115" y="0">oup</tspan></text>
    <rect class="cls-12" x="463.0972" y="248.6955" width="175.2968" height="44.6257" rx="15.1011" ry="15.1011"/>
    <rect class="cls-13" x="677.834" y="248.6955" width="175.2968" height="44.6257" rx="15.1011" ry="15.1011"/>
    <text class="cls-2" transform="translate(729.0565 275.2364)"><tspan x="0" y="0">A</tspan><tspan class="cls-10" x="8.9741" y="0">cc</tspan><tspan x="22.8896" y="0">ount g</tspan><tspan class="cls-17" x="62.2432" y="0">r</tspan><tspan x="67.3115" y="0">oup</tspan></text>
    <rect class="cls-13" x="153.3729" y="353.9962" width="175.2968" height="44.6257" rx="15.1011" ry="15.1011"/>
    <rect class="cls-12" x="338.0509" y="353.9962" width="175.2968" height="44.6257" rx="15.1011" ry="15.1011"/>
    <text class="cls-4" transform="translate(389.2734 380.5375)"><tspan x="0" y="0">A</tspan><tspan class="cls-10" x="8.9741" y="0">cc</tspan><tspan x="22.8896" y="0">ount g</tspan><tspan class="cls-17" x="62.2432" y="0">r</tspan><tspan x="67.3115" y="0">oup</tspan></text>
    <rect class="cls-13" x="581.5628" y="353.9962" width="175.2968" height="44.6257" rx="15.1011" ry="15.1011"/>
    <text class="cls-2" transform="translate(632.7853 380.5372)"><tspan x="0" y="0">A</tspan><tspan class="cls-10" x="8.9741" y="0">cc</tspan><tspan x="22.8896" y="0">ount</tspan></text>
    <g>
      <path class="cls-3" d="M600.8502,374.2735h10.971v2.0356h-10.971v-2.0356Zm0,5.0889h12.9657v2.0356h-12.9657v-2.0356Z"/>
      <path class="cls-3" d="M620.7974,364.0957h-23.9367c-1.1017,0-1.9947,.9114-1.9947,2.0356v20.3556c0,1.1242,.8931,2.0356,1.9947,2.0356h23.9367c1.1017,0,1.9947-.9114,1.9947-2.0356v-20.3556c0-1.1242-.8931-2.0356-1.9947-2.0356Zm0,2.0356v2.0356h-23.9367v-2.0356h23.9367Zm-23.9367,20.3556v-16.2845h23.9367v16.2845h-23.9367Z"/>
    </g>
    <rect class="cls-13" x="773.686" y="353.9962" width="175.2968" height="44.6257" rx="15.1011" ry="15.1011"/>
    <text class="cls-2" transform="translate(824.9084 380.5374)"><tspan x="0" y="0">A</tspan><tspan class="cls-10" x="8.9741" y="0">cc</tspan><tspan x="22.8896" y="0">ount</tspan></text>
    <g>
      <path class="cls-3" d="M792.9733,374.2735h10.971v2.0356h-10.971v-2.0356Zm0,5.0889h12.9657v2.0356h-12.9657v-2.0356Z"/>
      <path class="cls-3" d="M812.9206,364.0957h-23.9367c-1.1017,0-1.9947,.9114-1.9947,2.0356v20.3556c0,1.1242,.8931,2.0356,1.9947,2.0356h23.9367c1.1017,0,1.9947-.9114,1.9947-2.0356v-20.3556c0-1.1242-.8931-2.0356-1.9947-2.0356Zm0,2.0356v2.0356h-23.9367v-2.0356h23.9367Zm-23.9367,20.3556v-16.2845h23.9367v16.2845h-23.9367Z"/>
    </g>
    <rect class="cls-12" x="251.1137" y="462.5407" width="175.2968" height="44.6257" rx="15.1011" ry="15.1011"/>
    <text class="cls-4" transform="translate(302.3362 489.0817)"><tspan x="0" y="0">A</tspan><tspan class="cls-10" x="8.9741" y="0">cc</tspan><tspan x="22.8896" y="0">ount</tspan></text>
    <g>
      <path class="cls-8" d="M270.4011,482.818h10.971v2.0356h-10.971v-2.0356Zm0,5.0889h12.9657v2.0356h-12.9657v-2.0356Z"/>
      <path class="cls-8" d="M290.3483,472.6402h-23.9367c-1.1017,0-1.9947,.9114-1.9947,2.0356v20.3556c0,1.1242,.8931,2.0356,1.9947,2.0356h23.9367c1.1017,0,1.9947-.9114,1.9947-2.0356v-20.3556c0-1.1242-.8931-2.0356-1.9947-2.0356Zm0,2.0356v2.0356h-23.9367v-2.0356h23.9367Zm-23.9367,20.3556v-16.2845h23.9367v16.2845h-23.9367Z"/>
    </g>
    <rect class="cls-12" x="440.6189" y="462.5407" width="175.2968" height="44.6257" rx="15.1011" ry="15.1011"/>
    <text class="cls-4" transform="translate(491.8414 489.0814)"><tspan x="0" y="0">A</tspan><tspan class="cls-10" x="8.9741" y="0">cc</tspan><tspan x="22.8896" y="0">ount</tspan></text>
    <g>
      <path class="cls-8" d="M459.9062,482.818h10.971v2.0356h-10.971v-2.0356Zm0,5.0889h12.9657v2.0356h-12.9657v-2.0356Z"/>
      <path class="cls-8" d="M479.8535,472.6402h-23.9367c-1.1017,0-1.9947,.9114-1.9947,2.0356v20.3556c0,1.1242,.8931,2.0356,1.9947,2.0356h23.9367c1.1017,0,1.9947-.9114,1.9947-2.0356v-20.3556c0-1.1242-.8931-2.0356-1.9947-2.0356Zm0,2.0356v2.0356h-23.9367v-2.0356h23.9367Zm-23.9367,20.3556v-16.2845h23.9367v16.2845h-23.9367Z"/>
    </g>
    <path class="cls-13" d="M241.3916,355.2776v-23.8276c0-4.8227,3.9096-8.7323,8.7323-8.7323h87.0981"/>
    <path class="cls-12" d="M336.4532,248.0893v-23.8276c0-4.8227,3.9096-8.7323,8.7323-8.7323h205.8042"/>
    <path class="cls-8" d="M485.7459,156.0993l3.42,3.41,.58,.59h12.83v16h-24v-20h7.17m0-2h-7.17c-1.1046,0-2,.8954-2,2v20c0,1.1046,.8954,2,2,2h24c1.1046,0,2-.8954,2-2v-16c0-1.1046-.8954-2-2-2h-12l-3.41-3.41c-.3758-.378-.887-.5904-1.42-.59Z"/>
    <path class="cls-8" d="M272.8388,261.0083l3.42,3.41,.58,.59h12.83v16h-24v-20h7.17m0-2h-7.17c-1.1046,0-2,.8954-2,2v20c0,1.1046,.8954,2,2,2h24c1.1046,0,2-.8954,2-2v-16c0-1.1046-.8954-2-2-2h-12l-3.41-3.41c-.3758-.378-.887-.5904-1.42-.59Z"/>
    <path class="cls-8" d="M360.4872,366.3091l3.42,3.41,.58,.59h12.83v16h-24v-20h7.17m0-2h-7.17c-1.1046,0-2,.8954-2,2v20c0,1.1046,.8954,2,2,2h24c1.1046,0,2-.8954,2-2v-16c0-1.1046-.8954-2-2-2h-12l-3.41-3.41c-.3758-.378-.887-.5904-1.42-.59Z"/>
    <path class="cls-8" d="M54.3453,156.0993l3.42,3.41,.58,.59h12.83v16h-24v-20h7.17m0-2h-7.17c-1.1046,0-2,.8954-2,2v20c0,1.1046,.8954,2,2,2h24c1.1046,0,2-.8954,2-2v-16c0-1.1046-.8954-2-2-2h-12l-3.41-3.41c-.3758-.378-.887-.5904-1.42-.59Z"/>
    <path class="cls-3" d="M700.2386,261.0083l3.42,3.41,.58,.59h12.83v16h-24v-20h7.17m0-2h-7.17c-1.1046,0-2,.8954-2,2v20c0,1.1046,.8954,2,2,2h24c1.1046,0,2-.8954,2-2v-16c0-1.1046-.8954-2-2-2h-12l-3.41-3.41c-.3758-.378-.887-.5904-1.42-.59Z"/>
    <path class="cls-12" d="M433.5147,355.2776v-23.8276c0-4.8227-3.9096-8.7323-8.7323-8.7323h-87.0981"/>
    <line class="cls-12" x1="337.222" y1="323.2749" x2="337.222" y2="293.9337"/>
    <path class="cls-13" d="M669.2112,354.3237v-23.8276c0-4.8227,3.9096-8.7323,8.7323-8.7323h87.0981"/>
    <path class="cls-13" d="M861.3344,354.3237v-23.8276c0-4.8227-3.9096-8.7323-8.7323-8.7323h-87.0981"/>
    <line class="cls-13" x1="765.0417" y1="322.2031" x2="765.0417" y2="292.862"/>
    <text class="cls-4" transform="translate(513.5635 275.2363)"><tspan x="0" y="0">A</tspan><tspan class="cls-10" x="8.9741" y="0">cc</tspan><tspan x="22.8896" y="0">ount</tspan></text>
    <g>
      <path class="cls-8" d="M482.56,268.9728h10.971v2.0356h-10.971v-2.0356Zm0,5.0889h12.9657v2.0356h-12.9657v-2.0356Z"/>
      <path class="cls-8" d="M502.5073,258.795h-23.9367c-1.1017,0-1.9947,.9114-1.9947,2.0356v20.3556c0,1.1242,.8931,2.0356,1.9947,2.0356h23.9367c1.1017,0,1.9947-.9114,1.9947-2.0356v-20.3556c0-1.1242-.8931-2.0356-1.9947-2.0356Zm0,2.0356v2.0356h-23.9367v-2.0356h23.9367Zm-23.9367,20.3556v-16.2845h23.9367v16.2845h-23.9367Z"/>
    </g>
    <path class="cls-13" d="M765.5262,248.0893v-23.8276c0-4.8227-3.9096-8.7323-8.7323-8.7323h-205.8042"/>
    <line class="cls-12" x1="550.7456" y1="248.0893" x2="550.7456" y2="188.4384"/>
    <path class="cls-12" d="M337.4532,461.2139v-23.8276c0-4.8227,3.9096-8.7323,8.7323-8.7323h87.0981"/>
    <path class="cls-12" d="M529.5763,461.2139v-23.8276c0-4.8227-3.9096-8.7323-8.7323-8.7323h-87.0981"/>
    <line class="cls-12" x1="433.2836" y1="429.2112" x2="433.2836" y2="399.87"/>
    <line class="cls-12" x1="550.7456" y1="143.5272" x2="550.7456" y2="83.8762"/>
    <text class="cls-2" transform="translate(204.4167 380.5372)"><tspan x="0" y="0">A</tspan><tspan class="cls-10" x="8.9741" y="0">cc</tspan><tspan x="22.8896" y="0">ount</tspan></text>
    <g>
      <path class="cls-3" d="M172.4816,374.2735h10.971v2.0356h-10.971v-2.0356Zm0,5.0889h12.9657v2.0356h-12.9657v-2.0356Z"/>
      <path class="cls-3" d="M192.4289,364.0957h-23.9367c-1.1017,0-1.9947,.9114-1.9947,2.0356v20.3556c0,1.1242,.8931,2.0356,1.9947,2.0356h23.9367c1.1017,0,1.9947-.9114,1.9947-2.0356v-20.3556c0-1.1242-.8931-2.0356-1.9947-2.0356Zm0,2.0356v2.0356h-23.9367v-2.0356h23.9367Zm-23.9367,20.3556v-16.2845h23.9367v16.2845h-23.9367Z"/>
    </g>
    <text class="cls-4" transform="translate(724.2188 486.9854)"><tspan class="cls-11" x="0" y="0">A</tspan><tspan class="cls-1" x="8.918" y="0">t</tspan><tspan x="13.7061" y="0">tachment A</tspan></text>
    <text class="cls-4" transform="translate(854.1182 486.9852)"><tspan class="cls-11" x="0" y="0">A</tspan><tspan class="cls-1" x="8.918" y="0">t</tspan><tspan x="13.7061" y="0">tachment B</tspan></text>
  </g>
  <g id="Numbers">
    <circle class="cls-6" cx="630.9011" cy="45.9663" r="10.5097"/>
    <circle class="cls-6" cx="628.3616" cy="146.2166" r="10.5097"/>
    <circle class="cls-6" cx="200.8391" cy="146.2166" r="10.5097"/>
    <circle class="cls-6" cx="195.9668" cy="251.5254" r="10.5097"/>
    <circle class="cls-6" cx="414.9725" cy="251.5254" r="10.5097"/>
    <circle class="cls-6" cx="631.3072" cy="251.5254" r="10.5097"/>
    <circle class="cls-6" cx="507.5388" cy="357.3825" r="10.5097"/>
    <circle class="cls-6" cx="417.6125" cy="465.3315" r="10.5097"/>
    <circle class="cls-6" cx="610.2877" cy="465.3315" r="10.5097"/>
    <path class="cls-12" d="M120.0366,143.8127v-21.809c0-5.9376,4.8134-10.7509,10.7509-10.7509h420.5154"/>
    <path class="cls-12" d="M981.1593,143.8127v-21.809c0-5.9376-4.8134-10.7509-10.7509-10.7509h-420.5154"/>
    <rect class="cls-12" x="893.8466" y="248.6955" width="175.2968" height="44.6257" rx="15.1011" ry="15.1011"/>
    <text class="cls-4" transform="translate(944.9375 275.2364)"><tspan class="cls-16" x="0" y="0">R</tspan><tspan x="8.75" y="0">esou</tspan><tspan class="cls-15" x="39.0459" y="0">r</tspan><tspan class="cls-9" x="44.1138" y="0">c</tspan><tspan x="51.0718" y="0">e g</tspan><tspan class="cls-15" x="69.4536" y="0">r</tspan><tspan x="74.5215" y="0">oup</tspan></text>
    <g>
      <line class="cls-12" x1="981.495" y1="248.0122" x2="981.495" y2="246.0122"/>
      <line class="cls-14" x1="981.495" y1="241.7314" x2="981.495" y2="192.5017"/>
      <line class="cls-12" x1="981.495" y1="190.3613" x2="981.495" y2="188.3613"/>
    </g>
    <line class="cls-12" x1="120.043" y1="248.0893" x2="120.043" y2="188.4384"/>
    <circle class="cls-6" cx="703.9382" cy="482.7571" r="10.5097"/>
    <path class="cls-8" d="M926.9813,278.0407h-12c-1.1041-.001-1.9988-.7736-2-1.727v-10.3619c.0012-.9534,.8959-1.726,2-1.727h12c1.1041,.001,1.9988,.7736,2,1.727v10.3619c-.0012,.9534-.8959,1.726-2,1.727Zm-12-12.0889v10.3619h12v-10.3619h-12Z"/>
    <path class="cls-8" d="M912.9813,283.2217h-4c-1.1041-.001-1.9988-.7736-2-1.727v-20.7238c.0012-.9534,.8959-1.726,2-1.727h4v1.727h-4v20.7238h4v1.727Z"/>
    <path class="cls-8" d="M932.9813,283.2217h-4v-1.727h4v-20.7238h-4v-1.727h4c1.1041,.001,1.9988,.7736,2,1.727v20.7238c-.0012,.9534-.8959,1.726-2,1.727Z"/>
    <text class="cls-4" transform="translate(989.1339 486.9855)"><tspan class="cls-11" x="0" y="0">A</tspan><tspan class="cls-1" x="8.918" y="0">t</tspan><tspan x="13.7061" y="0">tachment C</tspan></text>
    <polygon class="cls-7" points="395.3656 242.0458 383.8247 242.0458 378.0543 252.0405 383.8247 262.0352 395.3656 262.0352 401.136 252.0405 395.3656 242.0458"/>
    <rect class="cls-5" x="961.5057" y="472.7624" width="19.9894" height="19.9894"/>
    <rect class="cls-5" x="1051.7525" y="242.0458" width="19.9894" height="19.9894"/>
    <rect class="cls-5" x="1049.0318" y="136.737" width="19.9894" height="19.9894"/>
    <circle class="cls-6" cx="1038.5221" cy="146.2166" r="10.5097"/>
    <polygon class="cls-7" points="490.6131 347.3878 479.0722 347.3878 473.3018 357.3825 479.0722 367.3772 490.6131 367.3772 496.3835 357.3825 490.6131 347.3878"/>
    <polygon class="cls-7" points="399.3882 455.8518 387.8474 455.8518 382.0769 465.8465 387.8474 475.8412 399.3882 475.8412 405.1587 465.8465 399.3882 455.8518"/>
    <polygon class="cls-7" points="593.4088 455.8518 581.8679 455.8518 576.0975 465.8465 581.8679 475.8412 593.4088 475.8412 599.1792 465.8465 593.4088 455.8518"/>
    <polygon class="cls-7" points="843.7473 472.7624 832.2064 472.7624 826.436 482.7571 832.2064 492.7517 843.7473 492.7517 849.5177 482.7571 843.7473 472.7624"/>
  </g>
</svg>