<?xml version="1.0" encoding="UTF-8"?><svg xmlns="http://www.w3.org/2000/svg" width="1057.6043" height="398.0324" viewBox="0 0 1057.6043 398.0324"><defs><style>.cls-1{font-size:14px;}.cls-1,.cls-2,.cls-3,.cls-4,.cls-5,.cls-6{font-family:IBMPlexSans-SemiBold, 'IBM Plex Sans';}.cls-2{font-size:12px;}.cls-7{letter-spacing:-.02em;}.cls-8{letter-spacing:-.005em;}.cls-9{letter-spacing:.008em;}.cls-10{letter-spacing:.008em;}.cls-11{letter-spacing:.008em;}.cls-12{letter-spacing:.008em;}.cls-13{stroke:#002d9c;stroke-width:3.8973px;}.cls-13,.cls-14,.cls-15,.cls-16,.cls-17,.cls-18,.cls-19,.cls-20,.cls-21,.cls-22{stroke-miterlimit:10;}.cls-13,.cls-14,.cls-21{fill:none;}.cls-3{font-size:10px;}.cls-23,.cls-16{fill:#001d6c;}.cls-24{fill:#edf5ff;}.cls-25,.cls-15,.cls-17,.cls-19,.cls-20,.cls-22{fill:#fff;}.cls-26,.cls-18{fill:#393939;}.cls-4{font-size:10.5939px;}.cls-27{letter-spacing:-.024em;}.cls-14{stroke:#000;stroke-dasharray:0 4;stroke-width:.25px;}.cls-28{letter-spacing:-.0061em;}.cls-29{letter-spacing:-.006em;}.cls-15{stroke-width:.6795px;}.cls-15,.cls-17,.cls-19,.cls-20,.cls-22{stroke:#fff;}.cls-30{letter-spacing:0em;}.cls-16,.cls-18,.cls-21{stroke:#001d6c;}.cls-5{font-size:10.7224px;}.cls-19{stroke-width:.8336px;}.cls-31{letter-spacing:-.004em;}.cls-20{stroke-width:.8403px;}.cls-32{letter-spacing:-.004em;}.cls-33{letter-spacing:-.008em;}.cls-34{letter-spacing:-.008em;}.cls-35{letter-spacing:-.008em;}.cls-36{letter-spacing:-.011em;}.cls-37{letter-spacing:-.011em;}.cls-22{stroke-width:.7703px;}.cls-38{letter-spacing:-.045em;}.cls-39{letter-spacing:-.005em;}.cls-40{letter-spacing:-.01em;}.cls-41{letter-spacing:-.005em;}.cls-42{letter-spacing:-.004em;}.cls-43{letter-spacing:-.005em;}.cls-6{font-size:11px;}.cls-44{letter-spacing:-.005em;}.cls-45{letter-spacing:-.005em;}</style></defs><g id="Graphics"><rect class="cls-23" x="452.4131" y="164.8724" width="44.5932" height="39.7068"/><g><rect class="cls-23" x="936.9728" y="212.3831" width="61.0884" height="54.3945"/><path class="cls-17" d="M978.0169,242.5803c-.7,0-1.4,.3-1.9,.7l-4.3-2.6c.1-.4,.2-.7,.2-1.1s-.1-.8-.2-1.1l4.3-2.6c.5,.4,1.2,.7,1.9,.7,1.7,0,3-1.3,3-3s-1.3-3-3-3-3,1.3-3,3c0,.2,0,.4,.1,.6l-4.3,2.6c-.7-.8-1.7-1.2-2.8-1.2-.6,0-1.1,.1-1.6,.4l-3.8-4.8c.2-.5,.4-1,.4-1.6,0-1.7-1.3-3-3-3s-3,1.3-3,3,1.3,3,3,3c.3,0,.7-.1,1-.2l3.8,4.8c-.3,.4-.5,.9-.7,1.4h-4.3c-.4-1.2-1.5-2-2.8-2-1.7,0-3,1.3-3,3s1.3,3,3,3c1.3,0,2.4-.8,2.8-2h4.3c.1,.5,.4,1,.7,1.4l-3.8,4.8c-.3-.1-.7-.2-1-.2-1.7,0-3,1.3-3,3s1.3,3,3,3,3-1.3,3-3c0-.6-.2-1.1-.5-1.6l3.8-4.8c.5,.2,1.1,.4,1.6,.4,1.1,0,2.1-.4,2.8-1.2l4.3,2.6c0,.2-.1,.4-.1,.6,0,1.7,1.3,3,3,3s3-1.3,3-3-1.2-3-2.9-3Zm0-10c.6,0,1,.4,1,1s-.4,1-1,1-1-.4-1-1,.4-1,1-1Zm-19-3c0-.6,.4-1,1-1s1,.4,1,1-.4,1-1,1-1-.4-1-1Zm-2,11c-.6,0-1-.4-1-1s.4-1,1-1,1,.4,1,1-.4,1-1,1Zm3,10c-.6,0-1-.4-1-1s.4-1,1-1,1,.4,1,1-.4,1-1,1Zm8-9c-1.1,0-2-.9-2-2s.9-2,2-2,2,.9,2,2-.9,2-2,2Zm10,5c-.6,0-1-.4-1-1s.4-1,1-1,1,.4,1,1-.4,1-1,1Z"/></g><rect class="cls-24" x="247.4181" y="115.2177" width="346.6279" height="176.4025"/><line class="cls-14" x1="628.9808" y1="92.4115" x2="628.9808" y2="380.1173"/><rect class="cls-25" x="282.5022" y="165.3095" width="117.5193" height="39.7068"/><rect class="cls-25" x="443.5025" y="219.0638" width="116.9316" height="40.2106"/><line class="cls-13" x1="249.8863" y1="175.2166" x2="249.8863" y2="115.4852"/><g><g><rect class="cls-23" x="812.1737" y="212.8075" width="61.0884" height="54.3945"/><rect class="cls-23" x="812.1737" y="212.8075" width="61.0884" height="54.3945"/></g><g><path class="cls-17" d="M854.7179,239.0047v6h-24v-16h12v-2h-12c-1.1046,0-2,.8954-2,2v16c0,1.1046,.8954,2,2,2h8v4h-4v2h16v-2h-4v-4h8c1.1046,0,2-.8954,2-2v-6h-2Zm-10,12h-4v-4h4v4Z"/><polygon class="cls-17" points="847.7179 238.0047 842.7179 233.0447 844.3079 231.4747 847.7179 234.8547 855.1279 227.5047 856.7179 229.0847 847.7179 238.0047"/></g><g><rect class="cls-23" x="687.8747" y="213.543" width="61.0884" height="54.3945"/><g><path class="cls-17" d="M730.4189,244.7402h-2v2h2v6h-24v-6h10v-2h-10c-1.104,.0013-1.9987,.896-2,2v6c.0013,1.104,.896,1.9987,2,2h24c1.104-.0013,1.9987-.896,2-2v-6c-.0013-1.104-.896-1.9987-2-2Z"/><circle class="cls-17" cx="709.4189" cy="249.7402" r="1"/><path class="cls-17" d="M732.4189,232.7402h-8v6h-6v8h8v-6h6v-8Zm-8,12h-4v-4h4v4Zm6-6h-4v-4h4v4Z"/><path class="cls-17" d="M720.4189,234.7402h-8v-8h8v8Zm-6-2h4v-4h-4v4Z"/></g></g></g><rect class="cls-25" x="441.0524" y="164.9135" width="117.6943" height="40.2106"/><rect class="cls-23" x="442.3788" y="165.3095" width="47.5925" height="39.7068"/><rect class="cls-24" x="40.5953" y="99.3546" width="172.8421" height="103.0466"/><g><text class="cls-4" transform="translate(146.1667 180.9117)"><tspan x="0" y="0">AP</tspan><tspan class="cls-31" x="13.9102" y="0">I</tspan><tspan x="18.3496" y="0">s</tspan></text><rect class="cls-23" x="137.6273" y="128.9472" width="41.5095" height="36.961"/><rect class="cls-24" x="742.3135" y="117.8439" width="204.8089" height="62.7836"/></g><g><path id="_Path_" class="cls-16" d="M290.8642,142.5288v3.7641c0,1.0266-.6159,1.9163-1.5741,2.3953l-1.1634,.5475-1.1634-.5475c-.9581-.4106-1.5741-1.3688-1.5741-2.3953v-3.7641s5.475,0,5.475,0m1.3688-1.3688h-8.2125v5.1328c0,1.5056,.8897,2.9428,2.3269,3.6272l1.7794,.8213,1.7794-.8213c1.4372-.6844,2.3269-2.0531,2.3269-3.6272v-5.1328h0Z"/><path class="cls-16" d="M281.2829,147.3194h-5.8172c-2.8059,0-5.1328-2.3269-5.1328-5.1328,0-2.5322,1.8478-4.5853,4.2431-5.0644,.6159-3.2166,3.4219-5.5434,6.7069-5.5434,3.7641,0,6.8438,3.0797,6.8438,6.8438h-1.3688c0-3.0113-2.4638-5.475-5.475-5.475-2.8059,0-5.1328,2.1216-5.475,4.8591v.6159s-.6159,0-.6159,0c-1.9847,.1369-3.4903,1.7794-3.4903,3.7641,0,2.0531,1.7109,3.7641,3.7641,3.7641h5.8172s0,1.3688,0,1.3688Z"/></g><g><path class="cls-23" d="M789.4497,144.7994c-1.0355-5.4244-6.2722-8.9823-11.6966-7.9469-4.0278,.7689-7.178,3.919-7.9469,7.9469-4.0756,.728-6.7894,4.6221-6.0615,8.6977,.6388,3.5764,3.7502,6.18,7.3832,6.1783h.5v-2h-.5c-3.0354,.0019-5.4977-2.4572-5.4996-5.4926-.0018-2.8918,2.2375-5.2904,5.1227-5.4869l.8364-.0571,.09-.8335c.4794-4.391,4.4277-7.562,8.8187-7.0826,3.7299,.4072,6.6753,3.3526,7.0826,7.0826l.09,.8335,.8364,.0571c3.0284,.2062,5.3162,2.8284,5.11,5.8568-.1965,2.8853-2.5953,5.1247-5.4872,5.1227h-.5v2h.5c4.1401,.002,7.498-3.3526,7.5001-7.4927,.0018-3.633-2.6018-6.7444-6.1783-7.3833Z"/><path class="cls-23" d="M786.6279,156.6754v-2h-2.1011c-.1289-.6259-.3775-1.2211-.7319-1.7529l1.49-1.49-1.414-1.414-1.49,1.49c-.5318-.3545-1.127-.603-1.753-.732v-2.1011h-2v2.1011c-.6259,.1289-1.2211,.3775-1.7529,.7319l-1.49-1.49-1.414,1.414,1.49,1.49c-.3545,.5318-.603,1.127-.732,1.753h-2.1011v2h2.1011c.1289,.6259,.3775,1.2211,.7319,1.7529l-1.49,1.49,1.414,1.414,1.49-1.49c.5318,.3545,1.127,.603,1.753,.732v2.1011h2v-2.1011c.6259-.1289,1.2211-.3775,1.7529-.7319l1.49,1.49,1.414-1.414-1.49-1.49c.3545-.5318,.603-1.127,.732-1.753h2.1011Zm-7,2c-1.6569,0-3-1.3431-3-3s1.3431-3,3-3,3,1.3431,3,3c-.0018,1.6561-1.3439,2.9982-3,3Z"/></g><g><g><rect class="cls-23" x="84.8648" y="271.8326" width="61.0884" height="54.3945"/><rect class="cls-23" x="84.8648" y="271.8326" width="61.0884" height="54.3945"/></g><g><path class="cls-17" d="M127.409,298.5299v6h-24v-16h7v-2h-7c-1.1046,0-2,.8954-2,2v16c0,1.1046,.8954,2,2,2h8v4h-4v2h16v-2h-4v-4h8c1.1046,0,2-.8954,2-2v-6h-2Zm-10,12h-4v-4h4v4Z"/><path class="cls-17" d="M117.409,300.5299h-.01c-.4426-.0046-.8295-.2997-.9511-.7253l-1.7933-6.2747h-4.2456v-2h5c.4464,0,.8388,.2959,.9615,.7252l1.0742,3.7589,3.0088-9.7783c.133-.4167,.5181-.7012,.9555-.7058,.4325-.0064,.818,.2715,.9487,.6838l1.772,5.3162h5.2793v2h-6c-.4304,0-.8126-.2754-.9487-.6838l-1.0132-3.04-3.0825,10.018c-.1291,.4195-.5167,.7057-.9556,.7058Z"/></g><rect class="cls-24" x="671.404" y="-.3812" width="346.6279" height="55.2275"/></g><g><path class="cls-23" d="M771.0647,20.464v-1.7857h-1.876c-.1151-.5589-.337-1.0903-.6535-1.5651l1.3304-1.3304-1.2625-1.2625-1.3304,1.3304c-.4748-.3165-1.0063-.5384-1.5652-.6536v-1.876h-1.7857v1.876c-.5589,.1151-1.0903,.337-1.5651,.6535l-1.3304-1.3304-1.2625,1.2625,1.3304,1.3304c-.3165,.4748-.5384,1.0063-.6536,1.5652h-1.876v1.7857h1.876c.1151,.5589,.337,1.0903,.6535,1.5651l-1.3304,1.3304,1.2625,1.2625,1.3304-1.3304c.4748,.3165,1.0063,.5384,1.5652,.6536v1.876h1.7857v-1.876c.5589-.1151,1.0903-.337,1.5651-.6535l1.3304,1.3304,1.2625-1.2625-1.3304-1.3304c.3165-.4748,.5384-1.0063,.6536-1.5652h1.876Zm-6.25,1.7857c-1.4793,0-2.6786-1.1992-2.6786-2.6786s1.1992-2.6786,2.6786-2.6786,2.6786,1.1992,2.6786,2.6786c-.0016,1.4787-1.1999,2.6769-2.6786,2.6786Z"/><path class="cls-23" d="M758.5647,38.3211h-1.7857v-4.4643c-.0016-1.4787-1.1999-2.6769-2.6786-2.6786h-3.5714c-1.4787,.0016-2.6769,1.1999-2.6786,2.6786v4.4643h-1.7857v-4.4643c.0029-2.4644,1.9999-4.4614,4.4643-4.4643h3.5714c2.4644,.0029,4.4614,1.9999,4.4643,4.4643v4.4643Z"/><path class="cls-23" d="M752.3147,20.464c1.4793,0,2.6786,1.1992,2.6786,2.6786s-1.1992,2.6786-2.6786,2.6786-2.6786-1.1992-2.6786-2.6786,1.1992-2.6786,2.6786-2.6786m0-1.7857c-2.4656,0-4.4643,1.9987-4.4643,4.4643s1.9987,4.4643,4.4643,4.4643,4.4643-1.9987,4.4643-4.4643-1.9987-4.4643-4.4643-4.4643Z"/></g><line class="cls-13" x1="744.1089" y1="178.7687" x2="744.1089" y2="119.0373"/><rect class="cls-25" x="278.9081" y="223.3436" width="120.5627" height="40.2106"/><line class="cls-13" x1="43.4628" y1="158.8129" x2="43.4628" y2="99.0815"/><text class="cls-5" transform="translate(63.496 180.8723)"><tspan x="0" y="0">Console</tspan></text><rect class="cls-23" x="62.6154" y="128.9472" width="41.5095" height="36.961"/><path class="cls-15" d="M91.5242,139.2737h-16.308c-.7502,.0009-1.3581,.6088-1.359,1.359v13.59c.0009,.7502,.6088,1.3581,1.359,1.359h16.308c.7502-.0009,1.3581-.6088,1.359-1.359v-13.59c-.0009-.7502-.6088-1.3581-1.359-1.359Zm0,1.359v2.718h-16.308v-2.718h16.308Zm-16.308,4.077h4.077v9.513h-4.077v-9.513Zm5.436,9.513v-9.513h10.872v9.513h-10.872Z"/><g><path class="cls-25" d="M151.3195,141.2479h-3.5313c-.9751,0-1.7657,.7905-1.7657,1.7657v10.5939h1.7657v-4.4141h3.5313v4.4141h1.7657v-10.5939c0-.9751-.7905-1.7657-1.7657-1.7657Zm-3.5313,6.1798v-4.4141h3.5313v4.4141h-3.5313Z"/><polygon class="cls-25" points="163.6791 143.0136 166.3275 143.0136 166.3275 151.8418 163.6791 151.8418 163.6791 153.6075 170.7417 153.6075 170.7417 151.8418 168.0932 151.8418 168.0932 143.0136 170.7417 143.0136 170.7417 141.2479 163.6791 141.2479 163.6791 143.0136"/><path class="cls-25" d="M156.6165,153.6075h-1.7657v-12.3596h5.297c.9751,0,1.7657,.7905,1.7657,1.7657v4.4141c0,.9751-.7905,1.7657-1.7657,1.7657h-3.5313v4.4141Zm0-6.1798h3.5313v-4.4141h-3.5313v4.4141Z"/></g><rect class="cls-24" x="116.4926" y="1.7788" width="346.6279" height="55.2275"/><g><path id="_Path_-2" class="cls-16" d="M212.6226,30.0795v3.7641c0,1.0266-.6159,1.9162-1.5741,2.3953l-1.1634,.5475-1.1634-.5475c-.9581-.4106-1.5741-1.3687-1.5741-2.3953v-3.7641h5.475m1.3687-1.3687h-8.2125v5.1328c0,1.5056,.8897,2.9428,2.3269,3.6272l1.7794,.8213,1.7794-.8213c1.4372-.6844,2.3269-2.0531,2.3269-3.6272v-5.1328h0Z"/><path class="cls-16" d="M203.0414,34.8701h-5.8172c-2.8059,0-5.1328-2.3269-5.1328-5.1328,0-2.5322,1.8478-4.5853,4.2431-5.0644,.6159-3.2166,3.4219-5.5434,6.7069-5.5434,3.7641,0,6.8437,3.0797,6.8437,6.8437h-1.3687c0-3.0113-2.4638-5.475-5.475-5.475-2.8059,0-5.1328,2.1216-5.475,4.8591v.6159h-.6159c-1.9847,.1369-3.4903,1.7794-3.4903,3.7641,0,2.0531,1.7109,3.7641,3.7641,3.7641h5.8172v1.3687Z"/></g><g><line class="cls-26" x1="656.4578" y1="153.9233" x2="742.3135" y2="154.5221"/><g><line class="cls-21" x1="656.4579" y1="153.9233" x2="736.9315" y2="154.4846"/><polygon class="cls-23" points="735.8111 158.2166 742.3135 154.5221 735.8633 150.7373 735.8111 158.2166"/></g></g><line class="cls-18" x1="145.621" y1="307.37" x2="656.4578" y2="307.37"/><g><line class="cls-21" x1="218.067" y1="196.6849" x2="264.1022" y2="196.6849"/><polygon class="cls-23" points="219.1612 200.4246 212.6848 196.6849 219.1612 192.9451 219.1612 200.4246"/></g><line class="cls-18" x1="60.7074" y1="190.8624" x2="60.7074" y2="361.7832"/><line class="cls-13" x1="352.6014" y1="55.2275" x2="462.0369" y2="55.2275"/><line class="cls-18" x1="142.8621" y1="323.1198" x2="671.7012" y2="323.1198"/><line class="cls-18" x1="671.7012" y1="236.7402" x2="671.7012" y2="322.7442"/><line class="cls-13" x1="671.7012" y1="54.8463" x2="771.0647" y2="54.8463"/><line class="cls-18" x1="34.9359" y1="305.5693" x2="91.5242" y2="305.5693"/><g><line class="cls-21" x1="671.5306" y1="235.9182" x2="682.4925" y2="235.9182"/><polygon class="cls-23" points="681.3983 239.6579 687.8747 235.9182 681.3983 232.1784 681.3983 239.6579"/></g><line class="cls-18" x1="61.3619" y1="361.7832" x2="779.6273" y2="361.7832"/><line class="cls-18" x1="779.6273" y1="244.7402" x2="779.6273" y2="362.3603"/><line class="cls-18" x1="34.9359" y1="306.4071" x2="34.9359" y2="380.1173"/><g><line class="cls-21" x1="894.3353" y1="247.0047" x2="931.5907" y2="247.0047"/><polygon class="cls-23" points="930.4964 250.7444 936.9728 247.0047 930.4964 243.2649 930.4964 250.7444"/></g><line class="cls-18" x1="656.4578" y1="153.2199" x2="656.4578" y2="307.37"/><rect class="cls-23" x="279.5451" y="224.8477" width="45.9779" height="39.7068"/><line class="cls-18" x1="894.3354" y1="247.0047" x2="894.3354" y2="381.5543"/><g><line class="cls-21" x1="780.7568" y1="245.5803" x2="802.1247" y2="245.5803"/><polygon class="cls-23" points="801.0305 249.32 807.5069 245.5803 801.0305 241.8406 801.0305 249.32"/></g><g><line class="cls-21" x1="200.9883" y1="187.7871" x2="244.5041" y2="187.7871"/><polygon class="cls-23" points="243.4099 191.5269 249.8862 187.7871 243.4099 184.0474 243.4099 191.5269"/></g><line class="cls-18" x1="34.9359" y1="380.1173" x2="894.3354" y2="380.1173"/><rect class="cls-23" x="281.283" y="165.5295" width="44.5932" height="39.7068"/><g><rect class="cls-19" x="469.672" y="191.8431" width="8.6122" height="1.6139"/><path class="cls-19" d="M466.2271,188.6154c-1.8604,.0395-3.4027-1.3415-3.4449-3.0846-.0012-.0477-.0012-.0954,0-.1432-.0422-1.7431,1.4317-3.1883,3.2921-3.2278,.0509-.0011,.1019-.0011,.1528,0,1.8604-.0395,3.4027,1.3415,3.4449,3.0846,.0012,.0477,.0012,.0954,0,.1432h1.7224c0-2.674-2.3135-4.8417-5.1673-4.8417s-5.1673,2.1677-5.1673,4.8417,2.3135,4.8417,5.1673,4.8417v-1.6139Z"/><path class="cls-19" d="M477.6854,181.3882l-2.033-3.2986c-.41-.6668-1.2658-.9691-2.0435-.7219l-2.0963,.6644c-.3612-.228-.7388-.4324-1.1299-.6119l-.4338-2.0324c-.161-.7545-.8681-1.2976-1.6893-1.2975h-4.065c-.8211,0-1.528,.5431-1.6889,1.2975l-.4338,2.0324c-.3956,.1776-.7775,.3807-1.1429,.608l-2.0836-.6605c-.7777-.2472-1.6335,.0551-2.0435,.7219l-2.033,3.2986c-.4104,.6663-.2619,1.5114,.3547,2.0194l1.6629,1.3692c-.0147,.2029-.0328,.4046-.0328,.6107,0,.208,.0086,.4137,.0239,.6178l-1.6541,1.3621c-.6167,.5079-.7651,1.353-.3547,2.0194l2.033,3.2986c.41,.6668,1.2658,.9691,2.0435,.7219l2.0963-.6644c.3611,.2281,.7387,.4326,1.1299,.6119l.4338,2.0324c.161,.7545,.8681,1.2976,1.6893,1.2975h2.0325v-1.6139h-2.0325l-.6115-2.8653c-.8458-.2943-1.6309-.7232-2.3208-1.268l-2.9685,.9409-2.0325-3.2986,2.3463-1.9327c-.1605-.8345-.1626-1.6889-.006-2.5241l-2.3411-1.928,2.0334-3.2986,2.9512,.9353c.6947-.5452,1.4858-.9724,2.3374-1.2624l.612-2.8653h4.065l.6115,2.8653c.8457,.2943,1.6309,.7233,2.3208,1.268l2.9685-.9409,2.0325,3.2986-2.4095,1.9788,1.1355,1.2136,2.4114-1.9799c.6168-.5078,.7655-1.353,.3552-2.0194Z"/></g><g><g><path class="cls-25" d="M302.1196,192.533h-7.2998v-14.5996h17.5195v7.2998h1.46v-7.2998c0-.8063-.6536-1.46-1.46-1.46h-17.5195c-.8063,0-1.46,.6536-1.46,1.46v14.5996c0,.8063,.6536,1.46,1.46,1.46h7.2998v-1.46Z"/><polygon class="cls-25" points="307.9594 192.2337 306.0688 190.3431 305.0395 191.3723 307.9594 194.2922 313.7993 188.4524 312.77 187.4231 307.9594 192.2337"/></g><path class="cls-24" d="M301.1812,189.8601l-2.4687-1.259c-1.4343-.7297-2.3299-2.1574-2.3281-3.7113v-4.9702c.0005-.4221,.3581-.7642,.7995-.7647h7.9947c.4413,.0005,.799,.3425,.7995,.7647v4.9702c.0017,1.5538-.8939,2.9815-2.3281,3.7112l-2.4687,1.259Zm-3.9973-9.9405v4.9702c-.0014,1.2714,.7314,2.4395,1.905,3.0365l2.0924,1.0671,2.0924-1.0671c1.1735-.597,1.9064-1.7652,1.905-3.0365v-4.9702h-7.9947Z"/></g><g><rect class="cls-20" x="302.1395" y="247.5872" width="6.9338" height="1.1053"/><rect class="cls-20" x="302.1395" y="244.2713" width="6.9338" height="1.1053"/><path class="cls-20" d="M305.6064,255.3243l-3.5685-1.8198c-2.0732-1.0548-3.3679-3.1186-3.3653-5.3646v-7.1845c.0007-.6102,.5177-1.1046,1.1556-1.1053h11.5563c.6379,.0007,1.1549,.4951,1.1556,1.1053v7.1845c.0025,2.246-1.2921,4.3097-3.3653,5.3645l-3.5685,1.8199Zm-5.7782-14.369v7.1845c-.002,1.8377,1.0573,3.5263,2.7536,4.3893l3.0245,1.5425,3.0245-1.5425c1.6964-.863,2.7557-2.5516,2.7536-4.3893v-7.1845h-11.5563Z"/><path class="cls-20" d="M300.7159,253.5538h-9.0911v-17.7053h21.8186v8.8527h1.8182v-8.8527c0-.9778-.814-1.7705-1.8182-1.7705h-21.8186c-1.0042,0-1.8182,.7927-1.8182,1.7705v17.7053c0,.9778,.814,1.7705,1.8182,1.7705h9.0911v-1.7705Z"/></g><rect class="cls-23" x="442.521" y="219.9191" width="47.5925" height="39.7068"/><g><rect class="cls-22" x="461.8593" y="240.8127" width="10.6992" height="1.7832"/><rect class="cls-22" x="461.4135" y="234.8687" width="9.8076" height="1.6346"/><path class="cls-22" d="M466.3172,251.2147l-5.0475-2.6913c-2.9325-1.5599-4.7637-4.612-4.7601-7.9336v-10.6249c.001-.9024,.7322-1.6336,1.6346-1.6346h16.346c.9024,.001,1.6336,.7322,1.6346,1.6346v10.6249c.0036,3.3216-1.8276,6.3735-4.7601,7.9334l-5.0475,2.6914Zm-8.173-21.2497v10.6249c-.0029,2.7178,1.4955,5.2149,3.8949,6.4912l4.2781,2.2811,4.2781-2.2811c2.3994-1.2763,3.8978-3.7735,3.8949-6.4912v-10.6249h-16.346Z"/></g></g><g id="Text"><text class="cls-2" transform="translate(702.2977 288.6254)"><tspan x="0" y="0">Cloud </tspan><tspan x="-24.96" y="14.3999">Object </tspan><tspan class="cls-32" x="14.2671" y="14.3999">St</tspan><tspan x="25.9912" y="14.3999">o</tspan><tspan class="cls-37" x="32.7471" y="14.3999">r</tspan><tspan x="37.3311" y="14.3999">a</tspan><tspan class="cls-29" x="44.0391" y="14.3999">g</tspan><tspan x="50.5068" y="14.3999">e</tspan></text><text class="cls-2" transform="translate(799.2363 291.5485)"><tspan x="0" y="0">Activity </tspan><tspan class="cls-38" x="45.2275" y="0">T</tspan><tspan class="cls-37" x="51.6475" y="0">r</tspan><tspan x="56.2314" y="0">ac</tspan><tspan class="cls-27" x="69.0952" y="0">k</tspan><tspan x="75.5518" y="0">er</tspan></text><text class="cls-2" transform="translate(914.7662 291.549)"><tspan x="0" y="0">E</tspan><tspan class="cls-35" x="7.1997" y="0">v</tspan><tspan class="cls-30" x="13.3921" y="0">ent N</tspan><tspan class="cls-32" x="43.0913" y="0">o</tspan><tspan x="49.7993" y="0">tific</tspan><tspan class="cls-32" x="71.2427" y="0">a</tspan><tspan x="77.9028" y="0">tions</tspan></text><text class="cls-6" transform="translate(300.2051 145.219)"><tspan class="cls-7" x="0" y="0">P</tspan><tspan x="6.8311" y="0">o</tspan><tspan class="cls-33" x="13.0234" y="0">s</tspan><tspan x="18.4248" y="0">tu</tspan><tspan class="cls-45" x="29.0068" y="0">r</tspan><tspan x="33.2754" y="0">e </tspan></text><text class="cls-3" transform="translate(336.756 184.9056)"><tspan class="cls-40" x="0" y="0">P</tspan><tspan class="cls-44" x="6.3105" y="0">r</tspan><tspan class="cls-28" x="10.1904" y="0">o</tspan><tspan x="15.7598" y="0">file</tspan></text><text class="cls-3" transform="translate(498.9535 239.8702)"><tspan x="0" y="0">Cont</tspan><tspan class="cls-44" x="21.6699" y="0">r</tspan><tspan x="25.5498" y="0">ol</tspan></text><text class="cls-3" transform="translate(339.4049 239.1422) scale(1.0311 1)"><tspan x="0" y="0">Cont</tspan><tspan class="cls-8" x="21.6699" y="0">r</tspan><tspan x="25.5494" y="0">ol</tspan><tspan x="0" y="12">Lib</tspan><tspan class="cls-36" x="13.9705" y="12">r</tspan><tspan x="17.7903" y="12">a</tspan><tspan class="cls-12" x="23.3804" y="12">r</tspan><tspan x="27.3897" y="12">y</tspan></text><text class="cls-2" transform="translate(85.5411 344.2245)"><tspan x="0" y="0">Moni</tspan><tspan class="cls-32" x="26.916" y="0">t</tspan><tspan x="31.356" y="0">oring</tspan></text><text class="cls-3" transform="translate(499.8983 184.9846) scale(1.0673 1)"><tspan x="0" y="0">Rule</tspan></text><text class="cls-2" transform="translate(806.8712 153.2199)"><tspan x="0" y="0">IBM Cloud Se</tspan><tspan class="cls-10" x="74.7593" y="0">r</tspan><tspan class="cls-30" x="79.5713" y="0">vi</tspan><tspan class="cls-43" x="89.1709" y="0">c</tspan><tspan x="95.2666" y="0">es</tspan></text><text class="cls-1" transform="translate(225.1358 33.5188)"><tspan x="0" y="0">IBM se</tspan><tspan class="cls-9" x="44.729" y="0">r</tspan><tspan x="50.3428" y="0">vi</tspan><tspan class="cls-39" x="61.5425" y="0">c</tspan><tspan x="68.6543" y="0">e a</tspan><tspan class="cls-39" x="87.5957" y="0">cc</tspan><tspan x="101.8193" y="0">ount</tspan></text><text class="cls-1" transform="translate(776.6283 34.8699)"><tspan x="0" y="0">Cu</tspan><tspan class="cls-34" x="17.2197" y="0">s</tspan><tspan class="cls-42" x="24.0938" y="0">t</tspan><tspan x="29.2734" y="0">omer se</tspan><tspan class="cls-11" x="81.0029" y="0">r</tspan><tspan x="86.6172" y="0">vi</tspan><tspan class="cls-41" x="97.8164" y="0">c</tspan><tspan x="104.9287" y="0">e a</tspan><tspan class="cls-41" x="123.8701" y="0">cc</tspan><tspan x="138.0938" y="0">ount</tspan></text></g></svg>