<svg xmlns="http://www.w3.org/2000/svg" viewBox="0 0 1370 620"><defs><style>.cls-1{fill:#171717;}.cls-100,.cls-103,.cls-104,.cls-105,.cls-2,.cls-5,.cls-79{fill:none;}.cls-3,.cls-97{fill:#c6c6c6;}.cls-3,.cls-39,.cls-42,.cls-56,.cls-69,.cls-7{fill-rule:evenodd;}.cls-4{fill:#393939;}.cls-5{stroke:#3d3d3d;stroke-linecap:square;}.cls-6,.cls-78{fill:#f4f4f4;}.cls-107,.cls-27,.cls-7,.cls-98,.cls-99{fill:#fff;}.cls-69,.cls-70,.cls-8,.cls-80,.cls-82,.cls-87{fill:#525252;}.cls-10,.cls-107,.cls-18,.cls-20,.cls-28,.cls-36,.cls-37,.cls-40,.cls-43,.cls-45,.cls-48,.cls-57,.cls-66,.cls-70,.cls-80,.cls-82,.cls-87,.cls-9,.cls-92,.cls-98,.cls-99{isolation:isolate;}.cls-10{font-size:30px;}.cls-10,.cls-18,.cls-20,.cls-28,.cls-40,.cls-43,.cls-45,.cls-48,.cls-56,.cls-57,.cls-66,.cls-73,.cls-92{fill:#161616;}.cls-10,.cls-28,.cls-36,.cls-37,.cls-43,.cls-48,.cls-70,.cls-80,.cls-82,.cls-87,.cls-92,.cls-98,.cls-99{font-family:IBMPlexSans, IBM Plex Sans;}.cls-11{letter-spacing:0.01em;}.cls-12{letter-spacing:0em;}.cls-13{letter-spacing:-0.01em;}.cls-14{letter-spacing:-0.02em;}.cls-15{letter-spacing:-0.01em;}.cls-16{letter-spacing:0em;}.cls-17{fill:#d8d8d8;}.cls-107,.cls-18,.cls-20,.cls-36,.cls-37,.cls-40,.cls-45,.cls-57,.cls-66,.cls-98,.cls-99{font-size:14px;}.cls-107,.cls-18,.cls-20{font-family:IBMPlexSans-Medium, IBM Plex Sans;font-weight:500;}.cls-107,.cls-18,.cls-22,.cls-45,.cls-99{letter-spacing:0.01em;}.cls-19{letter-spacing:0em;}.cls-20,.cls-36,.cls-38,.cls-57,.cls-98{letter-spacing:0.01em;}.cls-21,.cls-66{letter-spacing:0.01em;}.cls-23{letter-spacing:0em;}.cls-24{letter-spacing:0.01em;}.cls-25{letter-spacing:0em;}.cls-26{letter-spacing:0.02em;}.cls-28{font-size:21px;}.cls-29{letter-spacing:0em;}.cls-30{letter-spacing:0em;}.cls-31{letter-spacing:-0.01em;}.cls-32{letter-spacing:0em;}.cls-33{letter-spacing:0.01em;}.cls-34{letter-spacing:0em;}.cls-35{letter-spacing:0em;}.cls-36,.cls-37,.cls-39{fill:#3a6cfc;}.cls-37{letter-spacing:0em;}.cls-40,.cls-45,.cls-57,.cls-66{font-family:IBMPlexSans-SemiBold, IBM Plex Sans;font-weight:600;}.cls-40{letter-spacing:0em;}.cls-41{letter-spacing:0.01em;}.cls-43,.cls-48,.cls-70{font-size:15px;}.cls-43,.cls-51,.cls-70{letter-spacing:0.01em;}.cls-44{letter-spacing:0.01em;}.cls-46{letter-spacing:0.03em;}.cls-47{letter-spacing:0.01em;}.cls-48,.cls-63{letter-spacing:0.01em;}.cls-49{letter-spacing:-0.05em;}.cls-50{letter-spacing:0.02em;}.cls-52{letter-spacing:0.03em;}.cls-53{letter-spacing:0.02em;}.cls-54{letter-spacing:-0.01em;}.cls-55{letter-spacing:0em;}.cls-58{letter-spacing:0em;}.cls-59{letter-spacing:0em;}.cls-60{letter-spacing:-0.07em;}.cls-61{letter-spacing:0em;}.cls-62{letter-spacing:-0.01em;}.cls-64{letter-spacing:0em;}.cls-65{letter-spacing:0.01em;}.cls-67{letter-spacing:0em;}.cls-68{fill:#24a148;}.cls-71{letter-spacing:0.01em;}.cls-72{letter-spacing:0.01em;}.cls-74{letter-spacing:0.01em;}.cls-75{fill:#114afc;}.cls-76{opacity:0.25;}.cls-77{fill:#0f62fe;}.cls-78{stroke:#0f62fe;}.cls-100,.cls-103,.cls-104,.cls-105,.cls-78,.cls-79{stroke-miterlimit:10;}.cls-79{stroke:#525252;}.cls-80,.cls-82,.cls-87,.cls-92{font-size:13px;}.cls-80,.cls-83{letter-spacing:0.01em;}.cls-81{letter-spacing:0.01em;}.cls-82{letter-spacing:0em;}.cls-84{letter-spacing:0.01em;}.cls-85{letter-spacing:0.01em;}.cls-86{letter-spacing:0em;}.cls-87,.cls-92{letter-spacing:0.01em;}.cls-88{letter-spacing:0.01em;}.cls-89{letter-spacing:0.01em;}.cls-90{letter-spacing:-0.01em;}.cls-91{letter-spacing:0em;}.cls-93{letter-spacing:0em;}.cls-94{letter-spacing:0em;}.cls-95{letter-spacing:-0.07em;}.cls-96{fill:#e0e0e0;}.cls-100{stroke:#161616;}.cls-100,.cls-103,.cls-104,.cls-105{stroke-linecap:round;}.cls-101{letter-spacing:-0.05em;}.cls-102{letter-spacing:0.03em;}.cls-103{stroke:#f4f4f4;}.cls-103,.cls-104{stroke-width:3px;}.cls-104{stroke:#a8a8a8;}.cls-105{stroke:#bf0b5f;stroke-width:2px;}.cls-106{fill:#bf0b5f;}</style></defs><g id="Scope_details" data-name="Scope details"><rect id="background" class="cls-1" x="30" y="22.4" width="1312" height="48"/><g id="User"><rect id="background-2" data-name="background" class="cls-2" x="1294" y="22.4" width="48" height="48"/><g id="Icon"><g id="icon-color"><path id="path-6" class="cls-3" d="M1318,38.9a3.13,3.13,0,1,1-3.12,3.12A3.12,3.12,0,0,1,1318,38.9Zm0-1.25a4.38,4.38,0,1,0,4.38,4.37A4.38,4.38,0,0,0,1318,37.65Zm6.25,17.5H1323V52a3.12,3.12,0,0,0-3.12-3.12h-3.76A3.12,3.12,0,0,0,1313,52v3.13h-1.25V52a4.37,4.37,0,0,1,4.37-4.37h3.76a4.37,4.37,0,0,1,4.37,4.37Z"/></g></g></g><g id="cost-estimator"><rect id="background-3" data-name="background" class="cls-2" x="1246" y="22.4" width="48" height="48"/><g id="Icon-2" data-name="Icon"><path id="Fill" class="cls-3" d="M1277.94,49.09l-1.69-1.69V44.52a6.3,6.3,0,0,0-5.63-6.25V37h-1.24v1.25a6.36,6.36,0,0,0-5.63,6.25V47.4l-1.69,1.69a.55.55,0,0,0-.18.43V51.4a.58.58,0,0,0,.62.62h4.38a3.12,3.12,0,1,0,6.24,0h4.38a.58.58,0,0,0,.62-.62V49.52a.55.55,0,0,0-.18-.43ZM1270,53.9a1.88,1.88,0,0,1-1.88-1.88h3.76A1.88,1.88,0,0,1,1270,53.9Zm6.88-3.13h-13.76v-1l1.69-1.68a.56.56,0,0,0,.19-.44V44.52a5,5,0,1,1,10,0v3.13a.56.56,0,0,0,.19.44l1.69,1.68Z"/></g></g><g id="terminal"><rect id="background-4" data-name="background" class="cls-2" x="1198" y="22.4" width="48" height="48"/><g id="Icon-3" data-name="Icon"><path id="Fill-2" data-name="Fill" class="cls-3" d="M1228.25,38.9v15h-12.5v-15Zm0-1.25h-12.5a1.25,1.25,0,0,0-1.25,1.25v15a1.25,1.25,0,0,0,1.25,1.25h12.5a1.25,1.25,0,0,0,1.25-1.25v-15A1.25,1.25,0,0,0,1228.25,37.65Zm-10.63,13.12h1.26V52h-1.26Zm7.5,0h1.26V52h-1.26Zm-7.5-3.12h1.26V48.9h-1.26Zm7.5,0h1.26V48.9h-1.26Zm-7.5-3.13h1.26v1.25h-1.26Zm3.76,6.25h1.24V52h-1.24Zm0-3.12h1.24V48.9h-1.24Zm0-3.13h1.24v1.25h-1.24Zm3.74,0h1.26v1.25h-1.26Zm-7.5-3.75h8.76v1.88h-8.76Z"/></g></g><g id="account-switcher-_placeholder_-copy-2" data-name="account-switcher-(placeholder)-copy-2"><rect id="background-5" data-name="background" class="cls-2" x="1150" y="22.4" width="48" height="48"/><g id="Icon-4" data-name="Icon"><path id="Fill-3" data-name="Fill" class="cls-3" d="M1180.25,38.91h-12.5a1.25,1.25,0,0,0-1.25,1.25v12.5a1.25,1.25,0,0,0,1.25,1.25h12.5a1.25,1.25,0,0,0,1.25-1.25V40.16A1.25,1.25,0,0,0,1180.25,38.91Zm0,1.25v2.5h-12.5v-2.5Zm-12.5,12.5V43.91h12.5v8.75Zm3-6.15,1.77,1.77-1.77,1.77.89.88,2.65-2.65-2.65-2.65-.89.88Z"/></g></g><g id="Actions-_-Navigation-_-chevron--down-_-20" data-name="Actions-/-Navigation-/-chevron--down-/-20"><polygon id="Fill-4" data-name="Fill" class="cls-3" points="988 49.96 981.75 43.71 982.63 42.84 988 48.21 993.38 42.84 994.25 43.71 988 49.96"/></g><g id="Actions-_-Navigation-_-chevron--down-_-20-2" data-name="Actions-/-Navigation-/-chevron--down-/-20"><polygon id="Fill-5" data-name="Fill" class="cls-3" points="1140 49.96 1133.75 43.71 1134.63 42.84 1140 48.21 1145.38 42.84 1146.25 43.71 1140 49.96"/></g><rect id="Rectangle-Copy" class="cls-4" x="324" y="22.4" width="352" height="48"/><g id="search"><rect id="background-6" data-name="background" class="cls-2" x="628" y="22.4" width="48" height="48"/><g id="Icon-5" data-name="Icon"><path id="Fill-6" data-name="Fill" class="cls-3" d="M660.75,54.27,656,49.52a6.87,6.87,0,1,0-.91.91l4.75,4.72Zm-15.63-9.12a5.63,5.63,0,1,1,5.63,5.62A5.63,5.63,0,0,1,645.12,45.15Z"/></g></g><line id="Line" class="cls-5" x1="179.5" y1="34.4" x2="179.5" y2="58.4"/><g id="Group"><path id="Cloud" class="cls-6" d="M113.94,51.66a3.75,3.75,0,0,0,3.61-2.31l-1.49-.88A2.19,2.19,0,0,1,113.94,50c-1.37,0-2.25-1-2.25-2.64V45.85c0-1.66.88-2.66,2.25-2.66a1.94,1.94,0,0,1,2,1.46l1.58-.84a3.56,3.56,0,0,0-3.57-2.25c-2.57,0-4.21,1.83-4.21,5.12S111.37,51.66,113.94,51.66Zm8-.16V50.07h-1V41.14h-1.8v8.59A1.59,1.59,0,0,0,121,51.5Zm4.42.16c2.1,0,3.4-1.48,3.4-3.83s-1.3-3.81-3.4-3.81S123,45.49,123,47.83,124.27,51.66,126.36,51.66Zm0-1.44c-.93,0-1.51-.6-1.51-1.71V47.16c0-1.1.58-1.7,1.51-1.7s1.52.6,1.52,1.7v1.35C127.88,49.62,127.3,50.22,126.36,50.22Zm7.4,1.44a2,2,0,0,0,2-1.38h.07V51.5h1.79V44.19h-1.79V49c0,.78-.71,1.16-1.43,1.16s-1.23-.55-1.23-1.55V44.19h-1.79v4.62C131.42,50.63,132.26,51.66,133.76,51.66Zm8.58,0a2.06,2.06,0,0,0,2-1.38h.07V51.5h1.79V41.14h-1.79v4.25h-.07a2,2,0,0,0-2-1.37c-1.83,0-2.85,1.37-2.85,3.81S140.51,51.66,142.34,51.66Zm.58-1.48a1.55,1.55,0,0,1-1.56-1.71V47.21a1.56,1.56,0,0,1,1.56-1.72c.85,0,1.51.46,1.51,1.18V49C144.43,49.75,143.77,50.18,142.92,50.18Z"/><path id="IBM" class="cls-6" d="M82.76,51.5v-1H81.39V42.7h1.37v-1H78.84v1h1.37v7.82H78.84v1Zm6.74,0A2.63,2.63,0,0,0,92,48.67,2.13,2.13,0,0,0,90.1,46.4v-.08a1.9,1.9,0,0,0,1.58-2.08,2.39,2.39,0,0,0-2.6-2.52h-4V51.5ZM88.94,46h-2.7V42.76h2.7a1.3,1.3,0,0,1,1.48,1.36v.47A1.3,1.3,0,0,1,88.94,46Zm.2,4.51h-2.9V47h2.9a1.43,1.43,0,0,1,1.62,1.51V49A1.43,1.43,0,0,1,89.14,50.46Zm6.37,1V43.28h.07l.83,1.62,2.32,4.26,2.34-4.26.83-1.64H102V51.5h1.14V41.72h-1.54L98.76,47H98.7l-2.8-5.27H94.36V51.5Z"/></g><g id="menu"><rect id="background-7" data-name="background" class="cls-2" x="30" y="22.4" width="48" height="48"/><g id="Icon-6" data-name="Icon"><path id="Fill-7" data-name="Fill" class="cls-7" d="M46,51.2H62v1.2H46Zm0-3.6H62v1.2H46ZM46,44H62v1.2H46Zm0-3.6H62v1.2H46Z"/></g></g><rect id="Rectangle" class="cls-8" x="1015" y="41.9" width="106" height="9"/><g id="tile-_-selectable-_-01-enabled" data-name="tile-/-selectable-/-01-enabled"><rect id="Background-8" data-name="Background" class="cls-6" x="28.83" y="70" width="1312.34" height="548.92"/></g><g id="title" class="cls-9"><text class="cls-10" transform="translate(46 140.24)">ibm<tspan class="cls-11" x="51.09" y="0">-</tspan><tspan x="63.36" y="0">cloud-</tspan><tspan class="cls-12" x="149.82" y="0">t</tspan><tspan x="160.23" y="0">e</tspan><tspan class="cls-13" x="176.7" y="0">s</tspan><tspan class="cls-14" x="191.1" y="0">t</tspan><tspan x="201.03" y="0">-s</tspan><tspan class="cls-15" x="227.61" y="0">c</tspan><tspan class="cls-16" x="242.52" y="0">ope</tspan></text></g><rect id="Rectangle-2" data-name="Rectangle" class="cls-17" x="28.83" y="173.96" width="233.57" height="35.49"/><g id="text" class="cls-9"><text class="cls-18" transform="translate(46 197.11)">Se<tspan class="cls-19" x="16.46" y="0">t</tspan><tspan x="21.63" y="0">tings</tspan></text></g><g id="text-2" data-name="text" class="cls-9"><text class="cls-20" transform="translate(46 232.54)">In<tspan class="cls-21" x="14.25" y="0">t</tspan><tspan class="cls-22" x="19.46" y="0">eg</tspan><tspan class="cls-23" x="35.07" y="0">r</tspan><tspan class="cls-24" x="40.47" y="0">a</tspan><tspan class="cls-22" x="48.27" y="0">tions</tspan></text></g><g id="text-3" data-name="text" class="cls-9"><text class="cls-20" transform="translate(46 267.96)">E<tspan class="cls-23" x="8.46" y="0">v</tspan><tspan class="cls-22" x="15.67" y="0">ent hi</tspan><tspan class="cls-25" x="52.74" y="0">s</tspan><tspan class="cls-21" x="59.71" y="0">t</tspan><tspan class="cls-22" x="64.92" y="0">o</tspan><tspan class="cls-26" x="72.97" y="0">r</tspan><tspan class="cls-22" x="78.61" y="0">y</tspan></text></g><rect id="side-panel-background" class="cls-27" x="281.64" y="173.96" width="507.78" height="236.5"/><rect id="side-panel-background-2" data-name="side-panel-background" class="cls-27" x="816.47" y="173.96" width="507.78" height="236.5"/><rect id="side-panel-background-3" data-name="side-panel-background" class="cls-27" x="281.64" y="433.05" width="1042.61" height="185.87"/><g id="title-2" data-name="title" class="cls-9"><text class="cls-28" transform="translate(300.14 209.71)">C<tspan class="cls-29" x="13.04" y="0">r</tspan><tspan class="cls-30" x="20.64" y="0">edentials</tspan></text></g><g id="title-3" data-name="title" class="cls-9"><text class="cls-28" transform="translate(300.15 464.55)">I<tspan class="cls-31" x="8.4" y="0">nv</tspan><tspan x="30.32" y="0">en</tspan><tspan class="cls-32" x="53.78" y="0">t</tspan><tspan class="cls-30" x="61.07" y="0">o</tspan><tspan class="cls-33" x="72.83" y="0">r</tspan><tspan x="80.74" y="0">y</tspan></text></g><g id="title-4" data-name="title" class="cls-9"><text class="cls-28" transform="translate(835.99 209.96)">Co<tspan class="cls-34" x="24.8" y="0">l</tspan><tspan class="cls-35" x="30.41" y="0">lec</tspan><tspan class="cls-32" x="58.21" y="0">t</tspan><tspan x="65.5" y="0">ors</tspan></text></g><text class="cls-36" transform="translate(720.8 251.86)"><tspan xml:space="preserve">Add    +</tspan></text><g id="Label"><text class="cls-37" transform="translate(1258.68 493.93)">E<tspan class="cls-38" x="8.18" y="0">dit</tspan></text></g><g id="Icon-7" data-name="Icon"><path id="Fill-8" data-name="Fill" class="cls-39" d="M1289.32,495.2h14v1h-14Zm11.7-8.5a1,1,0,0,0,0-1.4l-1.8-1.8a1,1,0,0,0-1.4,0l-7.5,7.5v3.2h3.2Zm-2.5-2.5,1.8,1.8-1.5,1.5-1.8-1.8Zm-7.2,9v-1.8l5-5,1.8,1.8-5,5Z"/></g><rect id="Rectangle-3" data-name="Rectangle" class="cls-17" x="281.64" y="261.63" width="507.78" height="39.7"/><rect id="Rectangle-4" data-name="Rectangle" class="cls-17" x="816.47" y="261.63" width="507.78" height="39.7"/><rect id="Rectangle-5" data-name="Rectangle" class="cls-17" x="281.64" y="509.7" width="1042.61" height="39.7"/><g id="text-4" data-name="text" class="cls-9"><text class="cls-40" transform="translate(300.15 533.63)">R<tspan class="cls-22" x="9.24" y="0">esou</tspan><tspan class="cls-41" x="40.77" y="0">rc</tspan><tspan class="cls-22" x="53.62" y="0">e type</tspan></text></g><g id="Actions-_-Navigation-_-chevron--down-_-20-3" data-name="Actions-/-Navigation-/-chevron--down-/-20"><polygon id="Fill-9" data-name="Fill" class="cls-42" points="328.86 574.3 322.61 568.05 323.49 567.18 328.86 572.55 334.24 567.18 335.11 568.05 328.86 574.3"/></g><g id="text-5" data-name="text" class="cls-9"><text class="cls-43" transform="translate(352.39 575.27)">A<tspan class="cls-44" x="9.78" y="0">cc</tspan><tspan x="25.02" y="0">ount</tspan></text></g><g id="text-6" data-name="text" class="cls-9"><text class="cls-45" transform="translate(1155 533.63)">Detail</text></g><text class="cls-43" transform="translate(1156.15 575.45)">IBMid-0000000<tspan class="cls-46" x="111.55" y="0">AA</tspan><tspan class="cls-47" x="131.56" y="0">A0</tspan></text><g id="text-7" data-name="text" class="cls-9"><text class="cls-45" transform="translate(301.4 285.56)">Name</text></g><g id="text-8" data-name="text" class="cls-9"><text class="cls-40" transform="translate(514.18 285.56)">R<tspan class="cls-22" x="9.24" y="0">esou</tspan><tspan class="cls-41" x="40.77" y="0">rc</tspan><tspan class="cls-22" x="53.62" y="0">e</tspan></text></g><g id="text-9" data-name="text" class="cls-9"><text class="cls-48" transform="translate(302.55 332)">M<tspan class="cls-49" x="12.34" y="0">Y</tspan><tspan class="cls-50" x="20.5" y="0">_</tspan><tspan class="cls-51" x="29.29" y="0">IBM</tspan><tspan class="cls-52" x="57.76" y="0">_</tspan><tspan class="cls-51" x="66.63" y="0">AP</tspan><tspan class="cls-53" x="85.66" y="0">I</tspan><tspan class="cls-47" x="91.98" y="0">_K</tspan><tspan class="cls-54" x="110.29" y="0">E</tspan><tspan class="cls-51" x="118.9" y="0">Y</tspan></text></g><g id="text-10" data-name="text" class="cls-9"><text class="cls-43" transform="translate(515.33 332)">S<tspan class="cls-44" x="8.88" y="0">c</tspan><tspan x="16.5" y="0">ope a</tspan><tspan class="cls-55" x="54.21" y="0">cc</tspan><tspan x="69.45" y="0">e</tspan><tspan class="cls-55" x="77.85" y="0">s</tspan><tspan x="85.23" y="0">s</tspan></text></g><g id="icon-button-3"><rect id="Background-9" data-name="Background" class="cls-2" x="748" y="311.47" width="32" height="32"/><g id="Icon-8" data-name="Icon"><path id="Fill-10" data-name="Fill" class="cls-56" d="M764,323.47a1,1,0,1,0-1-1A1,1,0,0,0,764,323.47Zm0,5a1,1,0,1,0-1-1A1,1,0,0,0,764,328.47Zm0,5a1,1,0,1,0-1-1A1,1,0,0,0,764,333.47Z"/></g></g><g id="text-11" data-name="text" class="cls-9"><text class="cls-45" transform="translate(837.21 285.56)">Name</text></g><g id="text-12" data-name="text" class="cls-9"><text class="cls-57" transform="translate(1049.98 285.56)">Mana<tspan class="cls-58" x="35.92" y="0">g</tspan><tspan x="43.62" y="0">ed </tspan><tspan class="cls-59" x="63.6" y="0">b</tspan><tspan class="cls-22" x="72.03" y="0">y</tspan></text></g><g id="text-13" data-name="text" class="cls-9"><text class="cls-43" transform="translate(838.35 332)">IBM<tspan class="cls-60" x="28.47" y="0">_</tspan><tspan class="cls-61" x="35.91" y="0">C</tspan><tspan x="45.19" y="0">OLLEC</tspan><tspan class="cls-62" x="89.73" y="0">T</tspan><tspan class="cls-63" x="98.17" y="0">OR</tspan></text></g><g id="text-14" data-name="text" class="cls-9"><text class="cls-43" transform="translate(1051.13 332)">Cu<tspan class="cls-64" x="18.16" y="0">s</tspan><tspan class="cls-65" x="25.53" y="0">t</tspan><tspan x="30.9" y="0">omer</tspan></text></g><g id="text-15" data-name="text" class="cls-9"><text class="cls-66" transform="translate(1212.68 285.56)">S<tspan class="cls-38" x="8.65" y="0">t</tspan><tspan x="14.04" y="0">a</tspan><tspan class="cls-22" x="21.97" y="0">tus</tspan></text></g><g id="text-16" data-name="text" class="cls-9"><text class="cls-43" transform="translate(1239.82 332)">Acti<tspan class="cls-67" x="26.83" y="0">v</tspan><tspan x="34.26" y="0">e</tspan></text></g><circle class="cls-68" cx="1227.14" cy="327.47" r="5.77"/><rect id="background-10" data-name="background" class="cls-2" x="279.95" y="222.12" width="48" height="48"/><g id="Icon-9" data-name="Icon"><path id="Fill-11" data-name="Fill" class="cls-69" d="M317.59,253.74l-3.81-3.83a5.55,5.55,0,1,0-.73.73l3.83,3.81ZM305,246.37a4.55,4.55,0,1,1,4.54,4.55A4.54,4.54,0,0,1,305,246.37Z"/></g><g id="text-17" data-name="text" class="cls-9"><text class="cls-70" transform="translate(328.69 252.16)">Sea<tspan class="cls-71" x="25.45" y="0">r</tspan><tspan x="31.05" y="0">ch</tspan></text></g><g id="Icon-10" data-name="Icon"><path id="Fill-12" data-name="Fill" class="cls-69" d="M850.85,253.74,847,249.91a5.59,5.59,0,1,0-.74.73l3.84,3.81Zm-12.62-7.37a4.54,4.54,0,1,1,4.54,4.55A4.54,4.54,0,0,1,838.23,246.37Z"/></g><g id="text-18" data-name="text" class="cls-9"><text class="cls-70" transform="translate(861.94 252.16)">Sea<tspan class="cls-71" x="25.45" y="0">r</tspan><tspan x="31.05" y="0">ch</tspan></text></g><text class="cls-36" transform="translate(1267.88 251.86)">Upda<tspan class="cls-72" x="33.82" y="0">t</tspan><tspan class="cls-22" x="38.84" y="0">e</tspan></text><path class="cls-8" d="M1255.24,248.09v-.93l1.17-1a1.23,1.23,0,0,0,.24-1.56l-1.44-2.44a1.24,1.24,0,0,0-1.06-.61,1.32,1.32,0,0,0-.39.06l-1.48.5a6.3,6.3,0,0,0-.8-.45l-.31-1.54a1.22,1.22,0,0,0-1.22-1h-2.85a1.22,1.22,0,0,0-1.22,1l-.31,1.54a6.41,6.41,0,0,0-.81.45l-1.45-.52a1.29,1.29,0,0,0-.39,0,1.24,1.24,0,0,0-1.06.61l-1.43,2.44a1.21,1.21,0,0,0,.25,1.53l1.15,1.06v.93l-1.15,1a1.21,1.21,0,0,0-.25,1.56l1.43,2.44a1.22,1.22,0,0,0,1.06.61,1.32,1.32,0,0,0,.39-.06l1.48-.5a6.3,6.3,0,0,0,.8.45l.31,1.54a1.22,1.22,0,0,0,1.22,1H1250a1.22,1.22,0,0,0,1.22-1l.31-1.54a5.67,5.67,0,0,0,.8-.45l1.48.5a1.32,1.32,0,0,0,.39.06,1.22,1.22,0,0,0,1.06-.61l1.39-2.44a1.23,1.23,0,0,0-.25-1.53Zm-1.09,4.42-2.09-.71a5.37,5.37,0,0,1-1.65,1L1250,255h-2.87l-.44-2.17a5.5,5.5,0,0,1-1.64-.95l-2.1.68-1.44-2.44,1.66-1.46a5.57,5.57,0,0,1,0-1.91l-1.66-1.51,1.44-2.44,2.09.71a5.37,5.37,0,0,1,1.65-1l.44-2.19H1250l.44,2.17a5.52,5.52,0,0,1,1.64,1l2.1-.69,1.44,2.44-1.66,1.46a5.11,5.11,0,0,1,0,1.91l1.66,1.51Z"/><path class="cls-8" d="M1248.54,251.29a3.62,3.62,0,1,1,.07,0Zm0-6.1a2.38,2.38,0,0,0-2.44,2.33v.11a2.38,2.38,0,0,0,2.32,2.44h.12a2.38,2.38,0,0,0,2.43-2.33.21.21,0,0,0,0-.11,2.37,2.37,0,0,0-2.32-2.44Z"/><path class="cls-8" d="M705.68,248.09v-.93l1.17-1a1.24,1.24,0,0,0,.23-1.56l-1.44-2.44a1.23,1.23,0,0,0-1.44-.55l-1.49.5a5.67,5.67,0,0,0-.8-.45l-.31-1.54a1.22,1.22,0,0,0-1.22-1h-2.85a1.22,1.22,0,0,0-1.22,1l-.31,1.54a6.41,6.41,0,0,0-.81.45l-1.45-.52a1.26,1.26,0,0,0-.39,0,1.24,1.24,0,0,0-1.05.61l-1.44,2.44a1.22,1.22,0,0,0,.25,1.53l1.15,1.06v.93l-1.15,1a1.23,1.23,0,0,0-.25,1.56l1.44,2.44a1.21,1.21,0,0,0,1.05.61,1.23,1.23,0,0,0,.39-.06l1.48-.5a7.07,7.07,0,0,0,.8.45l.31,1.54a1.22,1.22,0,0,0,1.22,1h2.88a1.22,1.22,0,0,0,1.22-1l.31-1.54a6.41,6.41,0,0,0,.81-.45l1.47.5a1.32,1.32,0,0,0,.39.06,1.22,1.22,0,0,0,1.06-.61l1.39-2.44a1.22,1.22,0,0,0-.25-1.53Zm-1.09,4.42-2.1-.71a5.37,5.37,0,0,1-1.65,1l-.43,2.19h-2.88l-.43-2.17a5.54,5.54,0,0,1-1.65-.95l-2.1.68-1.44-2.44,1.66-1.46a5.57,5.57,0,0,1,0-1.91l-1.66-1.51,1.44-2.44,2.09.71a5.3,5.3,0,0,1,1.66-1l.43-2.19h2.88l.43,2.17a5.57,5.57,0,0,1,1.65,1l2.1-.69,1.43,2.44-1.65,1.46a5.57,5.57,0,0,1,0,1.91l1.65,1.51Z"/><path class="cls-8" d="M699,251.29a3.63,3.63,0,1,1,.07,0Zm0-6.1a2.38,2.38,0,0,0-2.44,2.33v.11a2.38,2.38,0,0,0,2.33,2.44H699a2.38,2.38,0,0,0,2.44-2.33v-.11a2.38,2.38,0,0,0-2.33-2.44Z"/><text class="cls-36" transform="translate(46 94.84)">Security and Complian<tspan class="cls-58" x="144.35" y="0">c</tspan><tspan class="cls-22" x="151.46" y="0">e </tspan><tspan class="cls-73" x="162.76" y="0" xml:space="preserve"> / </tspan><tspan x="175.19" y="0" xml:space="preserve"> S</tspan><tspan class="cls-74" x="186.94" y="0">c</tspan><tspan class="cls-22" x="194.05" y="0" xml:space="preserve">opes  </tspan><tspan class="cls-73" x="232.05" y="0">/</tspan></text><rect id="Rectangle-6" data-name="Rectangle" class="cls-75" x="28.83" y="173.96" width="4.37" height="35.49"/><g id="tile-_-selectable-_-01-enabled-2" data-name="tile-/-selectable-/-01-enabled" class="cls-76"><rect id="Background-11" data-name="Background" class="cls-8" x="28.83" y="69.01" width="890.06" height="550.99"/></g><rect id="Rectangle-7" data-name="Rectangle" class="cls-8" x="912.88" y="41.9" width="60.54" height="9"/><rect id="Rectangle-8" data-name="Rectangle" class="cls-8" x="834.35" y="41.9" width="57.19" height="9"/><rect id="Rectangle-9" data-name="Rectangle" class="cls-8" x="775.67" y="41.9" width="33.15" height="9"/><rect id="Rectangle-10" data-name="Rectangle" class="cls-8" x="693.97" y="41.9" width="55.16" height="9"/></g><g id="Mapping"><rect id="side-panel-background-4" data-name="side-panel-background" class="cls-27" x="918.89" y="72.6" width="422.28" height="547.4"/><rect id="side-panel-background-5" data-name="side-panel-background" x="918.89" y="564.35" width="211.14" height="56.18"/><rect id="side-panel-background-6" data-name="side-panel-background" class="cls-77" x="1130.03" y="564.35" width="211.14" height="56.18"/><rect id="side-panel-background-7" data-name="side-panel-background" class="cls-6" x="941.23" y="277.52" width="379.56" height="39.89"/><rect id="side-panel-background-8" data-name="side-panel-background" class="cls-6" x="941.23" y="370.58" width="379.56" height="39.89"/><rect id="side-panel-background-9" data-name="side-panel-background" class="cls-78" x="941.23" y="463.63" width="379.56" height="39.89"/><line class="cls-79" x1="941.23" y1="317.42" x2="1320.79" y2="317.42"/><line class="cls-79" x1="941.23" y1="410.47" x2="1320.79" y2="410.47"/><g id="Actions-_-Navigation-_-chevron--down-_-20-4" data-name="Actions-/-Navigation-/-chevron--down-/-20"><polygon id="Fill-13" data-name="Fill" class="cls-69" points="1303.12 398.06 1294.69 389.63 1295.87 388.45 1303.12 395.7 1310.36 388.45 1311.54 389.63 1303.12 398.06"/></g><g id="Actions-_-Navigation-_-chevron--down-_-20-5" data-name="Actions-/-Navigation-/-chevron--down-/-20"><polygon id="Fill-14" data-name="Fill" class="cls-69" points="1303.12 305.79 1294.69 297.36 1295.87 296.19 1303.12 303.43 1310.36 296.19 1311.54 297.36 1303.12 305.79"/></g><g id="Label-2" data-name="Label"><text class="cls-80" transform="translate(941.23 270.48)">C<tspan class="cls-81" x="8.22" y="0">r</tspan><tspan x="13.06" y="0">edential</tspan></text></g><g id="Label-3" data-name="Label"><text class="cls-82" transform="translate(941.23 364.29)">R<tspan class="cls-83" x="8.27" y="0">emediation c</tspan><tspan class="cls-84" x="85.42" y="0">r</tspan><tspan class="cls-85" x="90.27" y="0">edential</tspan></text></g><g id="Label-4" data-name="Label"><text class="cls-82" transform="translate(941.23 457.43)">R<tspan class="cls-83" x="8.27" y="0">esou</tspan><tspan class="cls-81" x="36.97" y="0">r</tspan><tspan class="cls-86" x="41.82" y="0">c</tspan><tspan class="cls-83" x="48.42" y="0">e</tspan></text></g><g id="Label-5" data-name="Label"><text class="cls-87" transform="translate(941.23 523.19)">En<tspan class="cls-88" x="15.25" y="0">t</tspan><tspan class="cls-83" x="19.9" y="0">er the path </tspan><tspan class="cls-89" x="88.24" y="0">t</tspan><tspan class="cls-83" x="92.9" y="0">o an IP add</tspan><tspan class="cls-84" x="160.38" y="0">r</tspan><tspan class="cls-85" x="165.23" y="0">e</tspan><tspan class="cls-86" x="172.51" y="0">s</tspan><tspan class="cls-81" x="178.9" y="0">s</tspan><tspan class="cls-83" x="185.31" y="0">, machin</tspan><tspan class="cls-90" x="235.91" y="0">e</tspan><tspan class="cls-83" x="242.93" y="0">, or </tspan><tspan class="cls-81" x="265.37" y="0">r</tspan><tspan class="cls-83" x="270.21" y="0">esou</tspan><tspan class="cls-81" x="298.92" y="0">r</tspan><tspan class="cls-86" x="303.77" y="0">c</tspan><tspan class="cls-83" x="310.37" y="0">e that </tspan><tspan class="cls-81" x="348.1" y="0">y</tspan><tspan class="cls-83" x="354.66" y="0">ou</tspan><tspan class="cls-91"><tspan x="0" y="15.6">w</tspan><tspan class="cls-83" x="10.01" y="15.6">ant </tspan><tspan class="cls-89" x="32.54" y="15.6">t</tspan><tspan class="cls-83" x="37.19" y="15.6">o a</tspan><tspan class="cls-86" x="54.91" y="15.6">cc</tspan><tspan class="cls-83" x="68.12" y="15.6">e</tspan><tspan class="cls-86" x="75.4" y="15.6">s</tspan><tspan class="cls-83" x="81.8" y="15.6">s with </tspan><tspan class="cls-81" x="120.44" y="15.6">y</tspan><tspan class="cls-85" x="127.01" y="15.6">our selec</tspan><tspan class="cls-88" x="181.48" y="15.6">t</tspan><tspan class="cls-83" x="186.13" y="15.6">ed c</tspan><tspan class="cls-81" x="210.99" y="15.6">r</tspan><tspan class="cls-83" x="215.84" y="15.6">edentia</tspan><tspan class="cls-50" x="260.79" y="15.6">l</tspan><tspan class="cls-83" x="264.6" y="15.6">.</tspan></tspan></text></g><g id="Label-6" data-name="Label"><text class="cls-92" transform="translate(956.1 488.7)">clu<tspan class="cls-93" x="17.89" y="0">s</tspan><tspan class="cls-88" x="24.27" y="0">t</tspan><tspan class="cls-83" x="28.92" y="0">er=&lt;clu</tspan><tspan class="cls-94" x="74.89" y="0">s</tspan><tspan class="cls-89" x="81.27" y="0">t</tspan><tspan class="cls-83" x="85.93" y="0">e</tspan><tspan class="cls-95" x="93.21" y="0">r</tspan><tspan class="cls-83" x="97.08" y="0">_id&gt;</tspan></text></g><rect id="Rectangle-11" data-name="Rectangle" class="cls-96" x="941.23" y="167.54" width="363.5" height="11"/><rect id="Rectangle-12" data-name="Rectangle" class="cls-97" x="941.23" y="147.54" width="339.63" height="11"/><g id="title-5" data-name="title" class="cls-9"><text class="cls-28" transform="translate(941.23 126.24)">Add a c<tspan class="cls-29" x="69.51" y="0">r</tspan><tspan x="77.11" y="0">edential mapping</tspan></text></g><g id="Label-7" data-name="Label"><text class="cls-98" transform="translate(1149.61 598.49)">Add</text></g><g id="Label-8" data-name="Label"><text class="cls-99" transform="translate(941.23 598.66)">Close</text></g><line class="cls-100" x1="1318.64" y1="116.59" x2="1326.81" y2="108.41"/><line class="cls-100" x1="1318.64" y1="108.45" x2="1326.81" y2="116.63"/><g id="Label-9" data-name="Label"><text class="cls-92" transform="translate(956.71 300.99)">M<tspan class="cls-101" x="10.7" y="0">Y</tspan><tspan class="cls-50" x="17.77" y="0">_</tspan><tspan class="cls-83" x="25.39" y="0">IBM</tspan><tspan class="cls-102" x="50.06" y="0">_</tspan><tspan class="cls-83" x="57.75" y="0">AP</tspan><tspan class="cls-50" x="74.24" y="0">I</tspan><tspan class="cls-83" x="79.71" y="0">_K</tspan><tspan class="cls-90" x="95.59" y="0">E</tspan><tspan x="103.05" y="0">Y</tspan></text></g><line class="cls-103" x1="1339.02" y1="72.6" x2="1339.02" y2="562.22"/><line class="cls-104" x1="1339.02" y1="93.22" x2="1339.02" y2="146.24"/><rect id="Rectangle-13" data-name="Rectangle" class="cls-6" x="941.23" y="188.41" width="276.89" height="11"/></g><g id="Numbers"><line class="cls-105" x1="683.67" y1="246.56" x2="718.72" y2="246.56"/><circle class="cls-106" cx="693.35" cy="246.56" r="14.43"/><line class="cls-105" x1="913.95" y1="297.07" x2="949" y2="297.07"/><circle class="cls-106" cx="923.44" cy="297.07" r="14.43"/><line class="cls-105" x1="913.95" y1="486.46" x2="949" y2="486.46"/><circle class="cls-106" cx="923.44" cy="486.46" r="14.43"/><line class="cls-105" x1="1105.95" y1="594.01" x2="1141" y2="594.01"/><circle class="cls-106" cx="1115.44" cy="594.01" r="14.43"/><g id="text-19" data-name="text" class="cls-9"><text class="cls-107" transform="translate(689.07 250.78)">1</text></g><g id="text-20" data-name="text" class="cls-9"><text class="cls-107" transform="translate(919.62 301.2)">2</text></g><g id="text-21" data-name="text" class="cls-9"><text class="cls-107" transform="translate(919.62 490.6)">3</text></g><g id="text-22" data-name="text" class="cls-9"><text class="cls-107" transform="translate(1110.54 598.14)">4</text></g></g></svg>