<?xml version="1.0" encoding="UTF-8"?>
<svg xmlns="http://www.w3.org/2000/svg" width="844.2062" height="194.8167" viewBox="0 0 844.2062 194.8167"><defs><style>.cls-1{fill:#f6f2ff;}.cls-10,.cls-2{fill:#fff;}.cls-2{stroke:#000;stroke-linecap:round;}.cls-13,.cls-14,.cls-2,.cls-3,.cls-4,.cls-5,.cls-6,.cls-9{stroke-miterlimit:10;}.cls-14,.cls-2,.cls-3,.cls-4,.cls-5,.cls-6{stroke-width:0.7756px;}.cls-14,.cls-3,.cls-4,.cls-5,.cls-6,.cls-9{fill:none;}.cls-3,.cls-4,.cls-5,.cls-6{stroke:#8d8d8d;}.cls-4{stroke-dasharray:3.8209 3.8209;}.cls-5{stroke-dasharray:3.9296 3.9296;}.cls-6{stroke-dasharray:3.8215 3.8215;}.cls-7{fill:#4589ff;}.cls-12,.cls-8{fill:#001d6c;}.cls-8{fill-rule:evenodd;}.cls-13,.cls-9{stroke:#a6c8ff;stroke-width:0.8275px;}.cls-11{fill:#be95ff;}.cls-13,.cls-20{fill:#d0e2ff;}.cls-14{stroke:#6f6f6f;}.cls-15{fill:#6f6f6f;}.cls-16{fill:#a6c8ff;}.cls-17{fill:#0043ce;}.cls-18{fill:#78a9ff;}.cls-19{fill:#002d9c;}</style></defs><g id="Text"><polygon class="cls-1" points="364.581 36.844 243.025 36.844 243.008 158.827 364.581 158.827 364.581 36.844"/><rect class="cls-2" x="466.1805" y="34.6246" width="283.3876" height="76.5981"/><polyline class="cls-3" points="775.134 23.316 775.134 21.388 773.206 21.388"/><line class="cls-4" x1="769.3848" y1="21.3879" x2="450.3386" y2="21.3879"/><polyline class="cls-3" points="448.428 21.388 446.5 21.388 446.499 23.316"/><line class="cls-5" x1="446.4982" y1="27.2457" x2="446.4551" y2="182.4634"/><polyline class="cls-3" points="446.455 184.428 446.454 186.356 448.382 186.356"/><line class="cls-6" x1="452.2038" y1="186.3565" x2="771.295" y2="186.3565"/><polyline class="cls-3" points="773.206 186.356 775.134 186.356 775.134 184.428"/><line class="cls-5" x1="775.134" y1="180.4986" x2="775.134" y2="25.281"/><path d="M676.7567,165.2109a3.7668,3.7668,0,0,1-1.4825-.2822,3.0688,3.0688,0,0,1-1.14-.8277,3.7931,3.7931,0,0,1-.7324-1.3559,6.8839,6.8839,0,0,1,0-3.7325,3.7888,3.7888,0,0,1,.7324-1.3559,3.0743,3.0743,0,0,1,1.14-.8277,4.0323,4.0323,0,0,1,2.9639,0,3.0755,3.0755,0,0,1,1.14.8277,3.79,3.79,0,0,1,.7324,1.3559,6.8839,6.8839,0,0,1,0,3.7325,3.7946,3.7946,0,0,1-.7324,1.3559,3.07,3.07,0,0,1-1.14.8277A3.7648,3.7648,0,0,1,676.7567,165.2109Zm0-1.2a2.2633,2.2633,0,0,0,.8818-.1685,1.8547,1.8547,0,0,0,.6836-.4878,2.274,2.274,0,0,0,.4385-.7768,3.2185,3.2185,0,0,0,.1552-1.0362v-1.3251a3.2153,3.2153,0,0,0-.1552-1.0357,2.2764,2.2764,0,0,0-.4385-.7773,1.8662,1.8662,0,0,0-.6836-.4878,2.41,2.41,0,0,0-1.77,0,1.8775,1.8775,0,0,0-.6777.4878,2.26,2.26,0,0,0-.4385.7773,3.2152,3.2152,0,0,0-.1553,1.0357v1.3251a3.2184,3.2184,0,0,0,.1553,1.0362,2.2577,2.2577,0,0,0,.4385.7768,1.8658,1.8658,0,0,0,.6777.4878A2.2524,2.2524,0,0,0,676.7567,164.0107Z"/><path d="M681.9637,165.0668v-6.24h1.3086v1.2h.06a1.6819,1.6819,0,0,1,.5527-.84,1.7268,1.7268,0,0,1,1.1631-.36h.3486v1.26H684.88a2.3138,2.3138,0,0,0-1.1934.2519.8169.8169,0,0,0-.414.7442v3.9838Z"/><path d="M688.9119,165.2109a2.9976,2.9976,0,0,1-1.1992-.228,2.3825,2.3825,0,0,1-.8887-.6539,2.9584,2.9584,0,0,1-.5517-1.0322,4.8331,4.8331,0,0,1,0-2.7,2.9614,2.9614,0,0,1,.5517-1.0317,2.3812,2.3812,0,0,1,.8887-.6538,2.9873,2.9873,0,0,1,1.1992-.228,2.6176,2.6176,0,0,1,1.5362.42,2.413,2.413,0,0,1,.8759,1.1157l-1.08.5039a1.3547,1.3547,0,0,0-.462-.69,1.3725,1.3725,0,0,0-.87-.2579,1.3194,1.3194,0,0,0-1.0859.4488,1.7876,1.7876,0,0,0-.3652,1.167v1.1128a1.7878,1.7878,0,0,0,.3652,1.167,1.3206,1.3206,0,0,0,1.0859.4482,1.3966,1.3966,0,0,0,.918-.2817,1.9632,1.9632,0,0,0,.5459-.75l.9961.5278a2.4911,2.4911,0,0,1-.9356,1.1836A2.7035,2.7035,0,0,1,688.9119,165.2109Z"/><path d="M692.62,156.187h1.3086v3.6718h.06a2.061,2.061,0,0,1,.6182-.84,1.75,1.75,0,0,1,1.1338-.3359,1.8508,1.8508,0,0,1,1.4941.63,2.6959,2.6959,0,0,1,.5342,1.794v3.96h-1.3076v-3.8042q0-1.4515-1.1768-1.4516a1.918,1.918,0,0,0-.498.0659,1.4066,1.4066,0,0,0-.4375.1978.9786.9786,0,0,0-.3057.3364.94.94,0,0,0-.1143.4678v4.1879H692.62Z"/><path d="M702.0281,165.2109a3.006,3.006,0,0,1-1.2-.228,2.4934,2.4934,0,0,1-.8994-.6539,2.929,2.929,0,0,1-.57-1.0322,4.6974,4.6974,0,0,1,0-2.7,2.9319,2.9319,0,0,1,.57-1.0317,2.492,2.492,0,0,1,.8994-.6538,2.9957,2.9957,0,0,1,1.2-.228,2.8629,2.8629,0,0,1,1.2061.24,2.4037,2.4037,0,0,1,.87.666,2.8968,2.8968,0,0,1,.5225.99,4.1162,4.1162,0,0,1,.1738,1.212v.4917h-4.2842v.2026a1.6563,1.6563,0,0,0,.4258,1.1743,1.58,1.58,0,0,0,1.2178.459,1.7847,1.7847,0,0,0,.9726-.25,2.2,2.2,0,0,0,.6719-.68l.7676.7583a2.4737,2.4737,0,0,1-1.0078.9209A3.29,3.29,0,0,1,702.0281,165.2109Zm0-5.5078a1.5727,1.5727,0,0,0-.6181.12,1.3775,1.3775,0,0,0-.4795.3359,1.5064,1.5064,0,0,0-.3057.5161,1.9323,1.9323,0,0,0-.1084.66v.084h2.9043v-.12a1.7273,1.7273,0,0,0-.372-1.1577A1.2678,1.2678,0,0,0,702.0281,159.7031Z"/><path d="M708.2322,165.2109a3.2034,3.2034,0,0,1-1.4882-.312,3.2669,3.2669,0,0,1-1.044-.8643l.84-.7676a2.6915,2.6915,0,0,0,.7744.6538,2.0271,2.0271,0,0,0,.99.2339,1.3737,1.3737,0,0,0,.8574-.2216.7414.7414,0,0,0,.2823-.6182.7185.7185,0,0,0-.1983-.51,1.1226,1.1226,0,0,0-.6894-.27l-.5762-.0718a2.947,2.947,0,0,1-1.5059-.5581,1.5686,1.5686,0,0,1-.5459-1.3017,1.8629,1.8629,0,0,1,.168-.81,1.6832,1.6832,0,0,1,.4736-.6,2.1873,2.1873,0,0,1,.7325-.3779,3.1689,3.1689,0,0,1,.9414-.1318,3.1033,3.1033,0,0,1,1.374.2636,3.1571,3.1571,0,0,1,.9541.732l-.8037.768a2.1142,2.1142,0,0,0-.63-.498,1.8637,1.8637,0,0,0-.8945-.21,1.2274,1.2274,0,0,0-.7979.2163.7008.7008,0,0,0-.2578.564.6482.6482,0,0,0,.2275.54,1.64,1.64,0,0,0,.7325.2637l.5761.0723a2.7583,2.7583,0,0,1,1.5059.6059,1.5865,1.5865,0,0,1,.4736,1.2061,1.8854,1.8854,0,0,1-.1738.8218,1.8041,1.8041,0,0,1-.4981.63,2.3219,2.3219,0,0,1-.78.4082A3.3682,3.3682,0,0,1,708.2322,165.2109Z"/><path d="M713.824,165.0668a1.3872,1.3872,0,0,1-1.0322-.354,1.3664,1.3664,0,0,1-.3476-1.0019V159.895h-.9727v-1.0684H712a.58.58,0,0,0,.45-.1435.706.706,0,0,0,.126-.4683V157.123h1.1758v1.7036H715.06v1.0684h-1.3086v4.104h1.2119v1.0678Z"/><path d="M716.4754,165.0668v-6.24h1.3086v1.2h.06a1.6825,1.6825,0,0,1,.5527-.84,1.7268,1.7268,0,0,1,1.1631-.36h.3486v1.26h-.5166a2.3134,2.3134,0,0,0-1.1933.2519.8168.8168,0,0,0-.4141.7442v3.9838Z"/><path d="M725.5477,165.0668a1.0338,1.0338,0,0,1-.792-.2939,1.3156,1.3156,0,0,1-.336-.75h-.06a1.5383,1.5383,0,0,1-.66.8882,2.1567,2.1567,0,0,1-1.164.3,2.0646,2.0646,0,0,1-1.4942-.5039,1.7987,1.7987,0,0,1-.5215-1.356,1.5926,1.5926,0,0,1,.6778-1.4043,3.4908,3.4908,0,0,1,1.9853-.4678h1.1289v-.5283a1.2011,1.2011,0,0,0-.3125-.8877,1.3261,1.3261,0,0,0-.9717-.312,1.5568,1.5568,0,0,0-.9.24,2.1432,2.1432,0,0,0-.5879.6123l-.78-.708a2.5,2.5,0,0,1,.876-.87,2.82,2.82,0,0,1,1.4765-.3417,2.748,2.748,0,0,1,1.8594.5639,2.03,2.03,0,0,1,.6484,1.62v3.1324h.66v1.0678Zm-2.64-.852a1.7489,1.7489,0,0,0,1.0078-.27.8381.8381,0,0,0,.3965-.7261v-.9h-1.1045q-1.3565,0-1.3564.84v.2163a.7361.7361,0,0,0,.2822.63A1.271,1.271,0,0,0,722.908,164.2148Z"/><path d="M729.2557,165.0668a1.387,1.387,0,0,1-1.0322-.354,1.366,1.366,0,0,1-.3477-1.0019V159.895h-.9727v-1.0684h.5284a.58.58,0,0,0,.45-.1435.7066.7066,0,0,0,.1259-.4683V157.123h1.1758v1.7036h1.3086v1.0684h-1.3086v4.104h1.2119v1.0678Z"/><path d="M734.3074,165.2109a2.9813,2.9813,0,0,1-1.1816-.228,2.4771,2.4771,0,0,1-.9063-.6539,3,3,0,0,1-.5761-1.0322,4.5674,4.5674,0,0,1,0-2.7,3.0031,3.0031,0,0,1,.5761-1.0317,2.4757,2.4757,0,0,1,.9063-.6538,3.1786,3.1786,0,0,1,2.3643,0,2.4792,2.4792,0,0,1,.9052.6538,3.0016,3.0016,0,0,1,.5762,1.0317,4.5674,4.5674,0,0,1,0,2.7,2.9985,2.9985,0,0,1-.5762,1.0322,2.4806,2.4806,0,0,1-.9052.6539A2.9864,2.9864,0,0,1,734.3074,165.2109Zm0-1.0923a1.4519,1.4519,0,0,0,1.08-.4116,1.6844,1.6844,0,0,0,.4082-1.2349v-1.05a1.6854,1.6854,0,0,0-.4082-1.2353,1.6225,1.6225,0,0,0-2.16,0,1.6894,1.6894,0,0,0-.4073,1.2353v1.05a1.6884,1.6884,0,0,0,.4073,1.2349A1.4532,1.4532,0,0,0,734.3074,164.1186Z"/><path d="M738.6268,165.0668v-6.24h1.3086v1.2h.06a1.6827,1.6827,0,0,1,.5528-.84,1.7268,1.7268,0,0,1,1.1631-.36h.3486v1.26h-.5166a2.3138,2.3138,0,0,0-1.1934.2519.8169.8169,0,0,0-.414.7442v3.9838Z"/><path d="M60.199,146.3139v-3.3l-2.88-5.0762H58.867l2.04,3.732h.0362l2.0283-3.732H64.46L61.5555,142.99v3.3242Z"/><path d="M67.327,146.458a2.98,2.98,0,0,1-1.1817-.2281,2.4746,2.4746,0,0,1-.9062-.6538,3.001,3.001,0,0,1-.5762-1.0322,4.5674,4.5674,0,0,1,0-2.7,3.0024,3.0024,0,0,1,.5762-1.0317,2.4759,2.4759,0,0,1,.9062-.6539,3.1786,3.1786,0,0,1,2.3643,0,2.481,2.481,0,0,1,.9053.6539,3.0022,3.0022,0,0,1,.5761,1.0317,4.5674,4.5674,0,0,1,0,2.7,3.0009,3.0009,0,0,1-.5761,1.0322,2.48,2.48,0,0,1-.9053.6538A2.9845,2.9845,0,0,1,67.327,146.458Zm0-1.0923a1.4513,1.4513,0,0,0,1.08-.4117,1.6842,1.6842,0,0,0,.4083-1.2348v-1.05a1.6859,1.6859,0,0,0-.4083-1.2354,1.6228,1.6228,0,0,0-2.16,0,1.69,1.69,0,0,0-.4072,1.2354v1.05a1.6881,1.6881,0,0,0,.4072,1.2348A1.4531,1.4531,0,0,0,67.327,145.3657Z"/><path d="M75.4276,145.2817H75.38a2.2888,2.2888,0,0,1-.2217.4443,1.4857,1.4857,0,0,1-.3486.3779,1.6539,1.6539,0,0,1-.5039.2579,2.1874,2.1874,0,0,1-.6777.0962,1.8729,1.8729,0,0,1-1.5059-.6241,2.67,2.67,0,0,1-.5342-1.7881v-3.9721h1.3076v3.8042q0,1.4523,1.2,1.4521a1.849,1.849,0,0,0,.4922-.0659,1.3339,1.3339,0,0,0,.4258-.1982,1.0083,1.0083,0,0,0,.3-.336.9651.9651,0,0,0,.1143-.48v-4.1762h1.3086v6.24H75.4276Z"/><path d="M78.6063,146.3139v-6.24h1.3086v1.2h.0595a1.683,1.683,0,0,1,.5528-.84,1.7273,1.7273,0,0,1,1.1631-.36h.3486v1.26h-.5166a2.3138,2.3138,0,0,0-1.1934.252.8168.8168,0,0,0-.414.7441v3.9839Z"/><path d="M85.7713,146.3139V145.21h1.14v-6.168h-1.14v-1.104H89.42v1.104H88.2674v6.168H89.42v1.104Z"/><path d="M94.159,139.1381v7.1758H92.8035v-7.1758H90.3074v-1.2h6.3477v1.2Z"/><path d="M100.7108,146.3139v-6.24h1.3086v1.2h.0595a1.683,1.683,0,0,1,.5528-.84,1.7272,1.7272,0,0,1,1.163-.36h.3487v1.26h-.5166a2.3135,2.3135,0,0,0-1.1934.252.8166.8166,0,0,0-.414.7441v3.9839Z"/><path d="M107.6942,146.458a3.0036,3.0036,0,0,1-1.2-.2281,2.4915,2.4915,0,0,1-.9-.6538,2.93,2.93,0,0,1-.57-1.0322,4.6974,4.6974,0,0,1,0-2.7,2.931,2.931,0,0,1,.57-1.0317,2.4929,2.4929,0,0,1,.9-.6539,2.9967,2.9967,0,0,1,1.2-.228,2.8625,2.8625,0,0,1,1.206.24,2.4026,2.4026,0,0,1,.87.666,2.8942,2.8942,0,0,1,.5225.99,4.116,4.116,0,0,1,.1738,1.2119v.4917h-4.2842v.2027a1.6563,1.6563,0,0,0,.4258,1.1743,1.58,1.58,0,0,0,1.2178.459,1.7851,1.7851,0,0,0,.9727-.25,2.2,2.2,0,0,0,.6718-.68l.7676.7583a2.4737,2.4737,0,0,1-1.0078.9209A3.2892,3.2892,0,0,1,107.6942,146.458Zm0-5.5079a1.5729,1.5729,0,0,0-.6182.12,1.3762,1.3762,0,0,0-.4795.3359,1.5054,1.5054,0,0,0-.3057.5161,1.9319,1.9319,0,0,0-.1084.66v.084h2.9043v-.12a1.7275,1.7275,0,0,0-.372-1.1577A1.2677,1.2677,0,0,0,107.6942,140.95Z"/><path d="M113.8992,146.458a3.2031,3.2031,0,0,1-1.4882-.3121,3.2678,3.2678,0,0,1-1.044-.8642l.84-.7676a2.6915,2.6915,0,0,0,.7744.6538,2.0268,2.0268,0,0,0,.99.2339,1.373,1.373,0,0,0,.8574-.2217.7411.7411,0,0,0,.2823-.6181.7186.7186,0,0,0-.1983-.51,1.1226,1.1226,0,0,0-.6894-.27l-.5762-.0718a2.9479,2.9479,0,0,1-1.5059-.5581,1.5688,1.5688,0,0,1-.5459-1.3018,1.8621,1.8621,0,0,1,.168-.81,1.6815,1.6815,0,0,1,.4736-.6,2.1841,2.1841,0,0,1,.7324-.3779,3.17,3.17,0,0,1,.9415-.1319,3.1032,3.1032,0,0,1,1.374.2637,3.1584,3.1584,0,0,1,.9541.7319l-.8037.7681a2.116,2.116,0,0,0-.63-.4981,1.8651,1.8651,0,0,0-.8945-.21,1.2274,1.2274,0,0,0-.7979.2163.7005.7005,0,0,0-.2578.564.6482.6482,0,0,0,.2275.54,1.6407,1.6407,0,0,0,.7325.2637l.5761.0722a2.7583,2.7583,0,0,1,1.5059.606,1.5863,1.5863,0,0,1,.4736,1.206,1.8851,1.8851,0,0,1-.1738.8218,1.8045,1.8045,0,0,1-.4981.63,2.3219,2.3219,0,0,1-.78.4082A3.3682,3.3682,0,0,1,113.8992,146.458Z"/><path d="M120.2947,146.458a2.98,2.98,0,0,1-1.1816-.2281,2.4746,2.4746,0,0,1-.9062-.6538,2.9994,2.9994,0,0,1-.5762-1.0322,4.5674,4.5674,0,0,1,0-2.7,3.0007,3.0007,0,0,1,.5762-1.0317,2.4759,2.4759,0,0,1,.9062-.6539,3.1786,3.1786,0,0,1,2.3643,0,2.4806,2.4806,0,0,1,.9052.6539,3.0007,3.0007,0,0,1,.5762,1.0317,4.5674,4.5674,0,0,1,0,2.7,2.9994,2.9994,0,0,1-.5762,1.0322,2.4792,2.4792,0,0,1-.9052.6538A2.9846,2.9846,0,0,1,120.2947,146.458Zm0-1.0923a1.4515,1.4515,0,0,0,1.08-.4117,1.6841,1.6841,0,0,0,.4082-1.2348v-1.05a1.6858,1.6858,0,0,0-.4082-1.2354,1.6228,1.6228,0,0,0-2.16,0,1.69,1.69,0,0,0-.4073,1.2354v1.05a1.6881,1.6881,0,0,0,.4073,1.2348A1.4529,1.4529,0,0,0,120.2947,145.3657Z"/><path d="M128.3944,145.2817h-.0479a2.2888,2.2888,0,0,1-.2217.4443,1.4875,1.4875,0,0,1-.3486.3779,1.6539,1.6539,0,0,1-.5039.2579,2.1876,2.1876,0,0,1-.6778.0962,1.8728,1.8728,0,0,1-1.5058-.6241,2.67,2.67,0,0,1-.5342-1.7881v-3.9721h1.3076v3.8042q0,1.4523,1.2,1.4521a1.849,1.849,0,0,0,.4922-.0659,1.3339,1.3339,0,0,0,.4258-.1982,1.0083,1.0083,0,0,0,.3-.336.9651.9651,0,0,0,.1143-.48v-4.1762h1.3085v6.24h-1.3085Z"/><path d="M131.574,146.3139v-6.24h1.3086v1.2h.06a1.6835,1.6835,0,0,1,.5527-.84,1.7273,1.7273,0,0,1,1.1631-.36h.3487v1.26H134.49a2.3135,2.3135,0,0,0-1.1934.252.8167.8167,0,0,0-.4141.7441v3.9839Z"/><path d="M138.5223,146.458a2.9952,2.9952,0,0,1-1.1992-.2281,2.38,2.38,0,0,1-.8887-.6538,2.9611,2.9611,0,0,1-.5518-1.0322,4.8355,4.8355,0,0,1,0-2.7,2.9623,2.9623,0,0,1,.5518-1.0317,2.3809,2.3809,0,0,1,.8887-.6539,2.9883,2.9883,0,0,1,1.1992-.228,2.6182,2.6182,0,0,1,1.5361.42,2.4134,2.4134,0,0,1,.876,1.1158l-1.08.5039a1.3558,1.3558,0,0,0-.4619-.69,1.3733,1.3733,0,0,0-.87-.2578,1.32,1.32,0,0,0-1.086.4487,1.7878,1.7878,0,0,0-.3652,1.167V143.75a1.7876,1.7876,0,0,0,.3652,1.167,1.3207,1.3207,0,0,0,1.086.4483,1.3964,1.3964,0,0,0,.918-.2818,1.9643,1.9643,0,0,0,.5459-.75l.996.5279a2.492,2.492,0,0,1-.9355,1.1836A2.7035,2.7035,0,0,1,138.5223,146.458Z"/><path d="M144.6063,146.458a3.0036,3.0036,0,0,1-1.2-.2281,2.49,2.49,0,0,1-.8994-.6538,2.9285,2.9285,0,0,1-.57-1.0322,4.6974,4.6974,0,0,1,0-2.7,2.93,2.93,0,0,1,.57-1.0317,2.4917,2.4917,0,0,1,.8994-.6539,2.9967,2.9967,0,0,1,1.2-.228,2.8625,2.8625,0,0,1,1.206.24,2.4017,2.4017,0,0,1,.87.666,2.8942,2.8942,0,0,1,.5225.99,4.116,4.116,0,0,1,.1738,1.2119v.4917h-4.2842v.2027a1.6568,1.6568,0,0,0,.4258,1.1743,1.58,1.58,0,0,0,1.2178.459,1.7851,1.7851,0,0,0,.9727-.25,2.2,2.2,0,0,0,.6718-.68l.7676.7583a2.4737,2.4737,0,0,1-1.0078.9209A3.2889,3.2889,0,0,1,144.6063,146.458Zm0-5.5079a1.5729,1.5729,0,0,0-.6182.12,1.3762,1.3762,0,0,0-.48.3359,1.5054,1.5054,0,0,0-.3057.5161,1.9319,1.9319,0,0,0-.1084.66v.084h2.9043v-.12a1.7275,1.7275,0,0,0-.372-1.1577A1.2677,1.2677,0,0,0,144.6063,140.95Z"/><path d="M150.81,146.458a3.2038,3.2038,0,0,1-1.4883-.3121,3.2689,3.2689,0,0,1-1.044-.8642l.84-.7676a2.6915,2.6915,0,0,0,.7744.6538,2.0274,2.0274,0,0,0,.99.2339,1.3734,1.3734,0,0,0,.8575-.2217.7413.7413,0,0,0,.2822-.6181.7181.7181,0,0,0-.1983-.51,1.1226,1.1226,0,0,0-.6894-.27l-.5762-.0718a2.9471,2.9471,0,0,1-1.5058-.5581,1.5685,1.5685,0,0,1-.5459-1.3018,1.8621,1.8621,0,0,1,.1679-.81,1.6829,1.6829,0,0,1,.4737-.6,2.1831,2.1831,0,0,1,.7324-.3779,3.1689,3.1689,0,0,1,.9414-.1319,3.1032,3.1032,0,0,1,1.374.2637,3.1571,3.1571,0,0,1,.9541.7319l-.8037.7681a2.116,2.116,0,0,0-.63-.4981,1.8648,1.8648,0,0,0-.8945-.21,1.2274,1.2274,0,0,0-.7979.2163.7008.7008,0,0,0-.2578.564.648.648,0,0,0,.2276.54,1.64,1.64,0,0,0,.7324.2637l.5762.0722a2.7579,2.7579,0,0,1,1.5058.606,1.5863,1.5863,0,0,1,.4736,1.206,1.8851,1.8851,0,0,1-.1738.8218,1.8053,1.8053,0,0,1-.498.63,2.3224,2.3224,0,0,1-.78.4082A3.3679,3.3679,0,0,1,150.81,146.458Z"/><path class="cls-7" d="M489.78,68.75a6.379,6.379,0,1,1,6.3789-6.379A6.379,6.379,0,0,1,489.78,68.75Zm0-11.1632a4.7842,4.7842,0,1,0,4.7842,4.7842A4.7842,4.7842,0,0,0,489.78,57.5867Z"/><polygon class="cls-7" points="491.048 64.763 488.982 62.698 488.982 59.181 490.577 59.181 490.577 62.044 492.172 63.639 491.048 64.763"/><path class="cls-7" d="M495.3614,49.6131a1.5948,1.5948,0,0,0-1.5947-1.5948h-3.19V46.4236h-1.5947v1.5947h-6.3789V46.4236h-1.5948v1.5947h-3.1894a1.5948,1.5948,0,0,0-1.5948,1.5948V65.56a1.5947,1.5947,0,0,0,1.5948,1.5947h3.1894V65.56h-3.1894V49.6131h3.1894v1.5947h1.5948V49.6131h6.3789v1.5947h1.5947V49.6131h3.19v4.7842h1.5947Z"/><path d="M505.7518,63.2617a3.6131,3.6131,0,0,1-1.74-.39,3.69,3.69,0,0,1-1.2236-1.0737l.7441-.624a3.2583,3.2583,0,0,0,.9844.894,2.5372,2.5372,0,0,0,1.2715.3057,1.9754,1.9754,0,0,0,1.374-.4317,1.4821,1.4821,0,0,0,.4737-1.1523,1.1774,1.1774,0,0,0-.3594-.9238,2.71,2.71,0,0,0-1.1885-.5161l-.6836-.1558a3.9648,3.9648,0,0,1-1.7578-.7983A1.9,1.9,0,0,1,503.04,56.89a2.2816,2.2816,0,0,1,.2041-.9839,1.97,1.97,0,0,1,.57-.72,2.57,2.57,0,0,1,.876-.438,3.9779,3.9779,0,0,1,1.122-.15,3.5243,3.5243,0,0,1,1.626.3481,3.1289,3.1289,0,0,1,1.1455,1.02l-.7559.5517a2.61,2.61,0,0,0-.84-.7558,2.4728,2.4728,0,0,0-1.2236-.2759,2.0871,2.0871,0,0,0-1.2666.3418,1.195,1.195,0,0,0-.4619,1.0259,1.0818,1.0818,0,0,0,.39.9062,3.0249,3.0249,0,0,0,1.1826.4859l.6836.1562a3.5553,3.5553,0,0,1,1.7881.84,2.0512,2.0512,0,0,1,.5518,1.5,2.6584,2.6584,0,0,1-.1973,1.044,2.1489,2.1489,0,0,1-.57.792,2.6435,2.6435,0,0,1-.9063.5039A3.758,3.758,0,0,1,505.7518,63.2617Z"/><path d="M512.58,63.2617a2.8507,2.8507,0,0,1-1.1641-.2281,2.37,2.37,0,0,1-.87-.6479,2.8821,2.8821,0,0,1-.54-1.02,4.959,4.959,0,0,1,0-2.688,2.8856,2.8856,0,0,1,.54-1.02,2.3768,2.3768,0,0,1,.87-.648,2.8523,2.8523,0,0,1,1.1641-.228,2.482,2.482,0,0,1,1.4814.4018,2.4488,2.4488,0,0,1,.834,1.05l-.8037.4077a1.4617,1.4617,0,0,0-.5517-.7441,1.6572,1.6572,0,0,0-.96-.2637,1.92,1.92,0,0,0-.7559.1377,1.469,1.469,0,0,0-.54.3843,1.6123,1.6123,0,0,0-.3242.5879,2.4707,2.4707,0,0,0-.1084.75V60.55a2.0108,2.0108,0,0,0,.4385,1.3379,1.5874,1.5874,0,0,0,1.29.522,1.7413,1.7413,0,0,0,1.68-1.08l.6963.4683a2.4606,2.4606,0,0,1-.8946,1.0679A2.6115,2.6115,0,0,1,512.58,63.2617Z"/><path d="M516.3113,54.2377h.961v3.6846h.0478a2.0072,2.0072,0,0,1,.6416-.8315,1.8151,1.8151,0,0,1,1.11-.3091A1.9423,1.9423,0,0,1,520.59,57.4a2.5156,2.5156,0,0,1,.5586,1.7457v3.9721h-.96v-3.812q0-1.672-1.4043-1.6719a2.15,2.15,0,0,0-.5586.0723,1.6094,1.6094,0,0,0-.4853.2163,1.0621,1.0621,0,0,0-.3418.3667,1.0447,1.0447,0,0,0-.126.5234v4.3052h-.961Z"/><path d="M525.4549,63.2617a2.7776,2.7776,0,0,1-1.1455-.2281,2.4748,2.4748,0,0,1-.876-.6538,2.9988,2.9988,0,0,1-.5644-1.02,4.6165,4.6165,0,0,1,0-2.67,2.9907,2.9907,0,0,1,.5644-1.0259,2.476,2.476,0,0,1,.876-.6538,2.7791,2.7791,0,0,1,1.1455-.228,2.6363,2.6363,0,0,1,1.1162.227,2.47,2.47,0,0,1,.84.628,2.7911,2.7911,0,0,1,.5341.9506,3.75,3.75,0,0,1,.1866,1.2081V60.25h-4.4522v.288a2.1192,2.1192,0,0,0,.126.7383,1.76,1.76,0,0,0,.3594.5938,1.6557,1.6557,0,0,0,.5761.396,1.978,1.978,0,0,0,.7744.144,1.8817,1.8817,0,0,0,1.0254-.2759,1.8136,1.8136,0,0,0,.6787-.792l.6836.4952a2.3882,2.3882,0,0,1-.9355,1.0322A2.826,2.826,0,0,1,525.4549,63.2617Zm0-5.6763a1.8218,1.8218,0,0,0-.72.1377,1.6126,1.6126,0,0,0-.5576.3872,1.814,1.814,0,0,0-.3663.59,2.0469,2.0469,0,0,0-.1318.7456V59.53h3.42v-.1313a1.8847,1.8847,0,0,0-.45-1.3179A1.5357,1.5357,0,0,0,525.4549,57.5854Z"/><path d="M533.6766,62.121h-.0488a1.8889,1.8889,0,0,1-1.8116,1.1407,2.3521,2.3521,0,0,1-1.0439-.2281,2.2556,2.2556,0,0,1-.7979-.6479,2.9443,2.9443,0,0,1-.5039-1.02,5.2543,5.2543,0,0,1,0-2.688,2.9478,2.9478,0,0,1,.5039-1.02,2.2624,2.2624,0,0,1,.7979-.648,2.3534,2.3534,0,0,1,1.0439-.228,2.1107,2.1107,0,0,1,1.11.2793,1.7417,1.7417,0,0,1,.7012.8613h.0488V54.2377h.96v8.88h-.96ZM532.08,62.41a2.2355,2.2355,0,0,0,.6182-.0845,1.5372,1.5372,0,0,0,.51-.247,1.1982,1.1982,0,0,0,.3418-.398,1.1086,1.1086,0,0,0,.127-.5371V58.8276a.9451.9451,0,0,0-.127-.4766,1.1888,1.1888,0,0,0-.3418-.38,1.717,1.717,0,0,0-.51-.247,2.1,2.1,0,0,0-.6182-.09,1.6529,1.6529,0,0,0-1.2842.5127,1.9177,1.9177,0,0,0-.4678,1.3448v1.061a1.92,1.92,0,0,0,.4678,1.3452A1.6543,1.6543,0,0,0,532.08,62.41Z"/><path d="M540.491,62.121h-.0478a3.0186,3.0186,0,0,1-.2344.4219,1.5733,1.5733,0,0,1-.3418.3682,1.5929,1.5929,0,0,1-.4922.2553,2.14,2.14,0,0,1-.6719.0953,1.9606,1.9606,0,0,1-1.5234-.6182,2.4926,2.4926,0,0,1-.5644-1.7461V56.9257h.96v3.812q0,1.6722,1.416,1.6719a2.1332,2.1332,0,0,0,.5577-.0723,1.5281,1.5281,0,0,0,.48-.2163,1.0936,1.0936,0,0,0,.336-.3667,1.07,1.07,0,0,0,.1259-.5351V56.9257h.96v6.1919h-.96Z"/><path d="M544.5115,63.1176a.9791.9791,0,0,1-.7617-.2822,1.0127,1.0127,0,0,1-.2588-.7139V54.2377h.961v8.0279h.9111v.852Z"/><path d="M549.0828,63.2617a2.7779,2.7779,0,0,1-1.1455-.2281,2.4757,2.4757,0,0,1-.876-.6538,2.9988,2.9988,0,0,1-.5644-1.02,4.6165,4.6165,0,0,1,0-2.67,2.9907,2.9907,0,0,1,.5644-1.0259,2.4769,2.4769,0,0,1,.876-.6538,2.78,2.78,0,0,1,1.1455-.228,2.6363,2.6363,0,0,1,1.1162.227,2.4694,2.4694,0,0,1,.84.628,2.7929,2.7929,0,0,1,.5342.9506,3.7523,3.7523,0,0,1,.1865,1.2081V60.25h-4.4522v.288a2.1192,2.1192,0,0,0,.126.7383,1.76,1.76,0,0,0,.3594.5938,1.6551,1.6551,0,0,0,.5762.396,1.9776,1.9776,0,0,0,.7744.144,1.8817,1.8817,0,0,0,1.0254-.2759,1.8142,1.8142,0,0,0,.6787-.792l.6836.4952a2.3878,2.3878,0,0,1-.9356,1.0322A2.826,2.826,0,0,1,549.0828,63.2617Zm0-5.6763a1.8221,1.8221,0,0,0-.72.1377,1.6135,1.6135,0,0,0-.5576.3872,1.8138,1.8138,0,0,0-.3662.59,2.0448,2.0448,0,0,0-.1319.7456V59.53h3.42v-.1313a1.8847,1.8847,0,0,0-.45-1.3179A1.5359,1.5359,0,0,0,549.0828,57.5854Z"/><path d="M557.3035,62.121h-.0488a1.8888,1.8888,0,0,1-1.8115,1.1407,2.3528,2.3528,0,0,1-1.044-.2281,2.2544,2.2544,0,0,1-.7978-.6479,2.9425,2.9425,0,0,1-.5039-1.02,5.2543,5.2543,0,0,1,0-2.688,2.946,2.946,0,0,1,.5039-1.02,2.2612,2.2612,0,0,1,.7978-.648,2.3542,2.3542,0,0,1,1.044-.228,2.1106,2.1106,0,0,1,1.11.2793,1.7412,1.7412,0,0,1,.7012.8613h.0488V54.2377h.96v8.88h-.96Zm-1.5966.2886a2.2348,2.2348,0,0,0,.6181-.0845,1.5387,1.5387,0,0,0,.51-.247,1.1993,1.1993,0,0,0,.3418-.398,1.11,1.11,0,0,0,.1269-.5371V58.8276a.9461.9461,0,0,0-.1269-.4766,1.19,1.19,0,0,0-.3418-.38,1.7188,1.7188,0,0,0-.51-.247,2.1,2.1,0,0,0-.6181-.09,1.6528,1.6528,0,0,0-1.2842.5127,1.9177,1.9177,0,0,0-.4678,1.3448v1.061a1.92,1.92,0,0,0,.4678,1.3452A1.6541,1.6541,0,0,0,555.7069,62.41Z"/><path d="M564.9949,63.2617a2.8961,2.8961,0,0,1-1.4462-.33,3.29,3.29,0,0,1-1.002-.8819l.6846-.5522a2.6943,2.6943,0,0,0,.8037.7022,2.0937,2.0937,0,0,0,1.0322.246,1.5275,1.5275,0,0,0,.9541-.2641.9584.9584,0,0,0,.1074-1.3618,1.4238,1.4238,0,0,0-.8457-.354l-.4922-.0723a4.1182,4.1182,0,0,1-.792-.186,2.1887,2.1887,0,0,1-.63-.336,1.4416,1.4416,0,0,1-.42-.5219,1.6963,1.6963,0,0,1-.15-.7442,1.799,1.799,0,0,1,.1679-.7978,1.6079,1.6079,0,0,1,.4629-.57,2.017,2.017,0,0,1,.7012-.3422,3.26,3.26,0,0,1,.876-.1138,2.7316,2.7316,0,0,1,1.2666.2641,2.8334,2.8334,0,0,1,.8935.732l-.6357.5757a1.9126,1.9126,0,0,0-.6-.522,1.9377,1.9377,0,0,0-.9961-.2339,1.3759,1.3759,0,0,0-.9063.2578.87.87,0,0,0-.3056.7022.7346.7346,0,0,0,.3056.66,2.2823,2.2823,0,0,0,.8819.3l.48.0723a2.5762,2.5762,0,0,1,1.4639.5937,1.5616,1.5616,0,0,1,.4316,1.146,1.7529,1.7529,0,0,1-.6123,1.4161A2.5224,2.5224,0,0,1,564.9949,63.2617Z"/><path d="M571.283,63.2617a2.85,2.85,0,0,1-1.164-.2281,2.3694,2.3694,0,0,1-.87-.6479,2.8821,2.8821,0,0,1-.54-1.02,4.9616,4.9616,0,0,1,0-2.688,2.8856,2.8856,0,0,1,.54-1.02,2.3763,2.3763,0,0,1,.87-.648,2.8515,2.8515,0,0,1,1.164-.228,2.4823,2.4823,0,0,1,1.4815.4018,2.45,2.45,0,0,1,.834,1.05l-.8038.4077a1.4617,1.4617,0,0,0-.5517-.7441,1.6572,1.6572,0,0,0-.96-.2637,1.919,1.919,0,0,0-.7558.1377,1.4693,1.4693,0,0,0-.54.3843,1.6137,1.6137,0,0,0-.3242.5879,2.4707,2.4707,0,0,0-.1084.75V60.55a2.0108,2.0108,0,0,0,.4385,1.3379,1.5876,1.5876,0,0,0,1.29.522,1.7412,1.7412,0,0,0,1.68-1.08l.6963.4683a2.46,2.46,0,0,1-.8945,1.0679A2.6118,2.6118,0,0,1,571.283,63.2617Z"/><path d="M579.5145,63.1176a.9426.9426,0,0,1-.7735-.2881,1.4258,1.4258,0,0,1-.2939-.72h-.0606a1.5979,1.5979,0,0,1-.6718.8638,2.0868,2.0868,0,0,1-1.1162.2881,2.17,2.17,0,0,1-1.5293-.5039,1.77,1.77,0,0,1-.5459-1.3682,1.562,1.562,0,0,1,.6416-1.3438,3.4133,3.4133,0,0,1,1.998-.4682h1.2236v-.6118a1.3383,1.3383,0,0,0-.3593-1.0083,1.5374,1.5374,0,0,0-1.1045-.3477,1.66,1.66,0,0,0-.9414.252,2.0773,2.0773,0,0,0-.63.6718l-.5762-.54a2.1846,2.1846,0,0,1,.8037-.8579,2.5333,2.5333,0,0,1,1.3916-.354,2.56,2.56,0,0,1,1.752.5508,1.9373,1.9373,0,0,1,.624,1.5327v3.4h.708v.852Zm-2.76-.6719a2.4405,2.4405,0,0,0,.66-.0839,1.6142,1.6142,0,0,0,.5156-.24,1.1852,1.1852,0,0,0,.3369-.36.8667.8667,0,0,0,.1191-.4439v-1.02h-1.2714a2.3267,2.3267,0,0,0-1.2061.24.7754.7754,0,0,0-.3779.6963v.252a.8371.8371,0,0,0,.33.708A1.4361,1.4361,0,0,0,576.7547,62.4457Z"/><path d="M581.4227,63.1176V56.9257h.9609v.9966h.0479a2.0055,2.0055,0,0,1,.6416-.8315,1.8146,1.8146,0,0,1,1.11-.3091,1.9421,1.9421,0,0,1,1.5176.6181,2.5151,2.5151,0,0,1,.5586,1.7457v3.9721h-.96v-3.812q0-1.672-1.4043-1.6719a2.15,2.15,0,0,0-.5586.0723,1.6094,1.6094,0,0,0-.4853.2163,1.064,1.064,0,0,0-.3418.3667,1.0447,1.0447,0,0,0-.126.5234v4.3052Z"/><path d="M281.9315,146.458a3.1953,3.1953,0,0,1-2.58-1.11,4.8756,4.8756,0,0,1-.9356-3.2222,6.5094,6.5094,0,0,1,.24-1.86,3.8,3.8,0,0,1,.6953-1.356,2.9212,2.9212,0,0,1,1.11-.834,3.6749,3.6749,0,0,1,1.47-.2822,3.3163,3.3163,0,0,1,1.83.4751,3.1622,3.1622,0,0,1,1.1582,1.4087l-1.14.624a2.0778,2.0778,0,0,0-.666-.9536,2.1112,2.1112,0,0,0-2.7061.3086,2.7748,2.7748,0,0,0-.5527,1.8305v1.2769a2.7775,2.7775,0,0,0,.5527,1.8315,2.1062,2.1062,0,0,0,2.7539.2725,2.3255,2.3255,0,0,0,.7022-1.0024l1.0918.66a3.379,3.379,0,0,1-1.1758,1.4214A3.229,3.229,0,0,1,281.9315,146.458Z"/><path d="M288.7469,146.458a2.9792,2.9792,0,0,1-1.1816-.2281,2.4741,2.4741,0,0,1-.9063-.6538,3.0027,3.0027,0,0,1-.5762-1.0322,4.5674,4.5674,0,0,1,0-2.7,3.004,3.004,0,0,1,.5762-1.0317,2.4755,2.4755,0,0,1,.9063-.6539,3.1784,3.1784,0,0,1,2.3642,0,2.481,2.481,0,0,1,.9053.6539,3.004,3.004,0,0,1,.5762,1.0317,4.5674,4.5674,0,0,1,0,2.7,3.0027,3.0027,0,0,1-.5762,1.0322,2.48,2.48,0,0,1-.9053.6538A2.9841,2.9841,0,0,1,288.7469,146.458Zm0-1.0923a1.4517,1.4517,0,0,0,1.08-.4117,1.6846,1.6846,0,0,0,.4082-1.2348v-1.05a1.6863,1.6863,0,0,0-.4082-1.2354,1.623,1.623,0,0,0-2.16,0,1.69,1.69,0,0,0-.4072,1.2354v1.05a1.6881,1.6881,0,0,0,.4072,1.2348A1.4533,1.4533,0,0,0,288.7469,145.3657Z"/><path d="M294.3992,146.3139a1.3353,1.3353,0,0,1-1.0019-.3418,1.3192,1.3192,0,0,1-.33-.9541v-7.584h1.3086v7.812h.8643v1.0679Z"/><path d="M297.7469,146.3139a1.3353,1.3353,0,0,1-1.002-.3418,1.3191,1.3191,0,0,1-.33-.9541v-7.584h1.3086v7.812h.8642v1.0679Z"/><path d="M302.283,146.458a3.0043,3.0043,0,0,1-1.2-.2281,2.492,2.492,0,0,1-.8994-.6538,2.9283,2.9283,0,0,1-.57-1.0322,4.6974,4.6974,0,0,1,0-2.7,2.93,2.93,0,0,1,.57-1.0317,2.4934,2.4934,0,0,1,.8994-.6539,2.9974,2.9974,0,0,1,1.2-.228,2.8629,2.8629,0,0,1,1.2061.24,2.4026,2.4026,0,0,1,.87.666,2.8976,2.8976,0,0,1,.5225.99,4.116,4.116,0,0,1,.1738,1.2119v.4917h-4.2842v.2027a1.6563,1.6563,0,0,0,.4258,1.1743,1.58,1.58,0,0,0,1.2178.459,1.7847,1.7847,0,0,0,.9726-.25,2.2,2.2,0,0,0,.6719-.68l.7676.7583a2.4743,2.4743,0,0,1-1.0078.9209A3.29,3.29,0,0,1,302.283,146.458Zm0-5.5079a1.5724,1.5724,0,0,0-.6181.12,1.3762,1.3762,0,0,0-.4795.3359,1.5039,1.5039,0,0,0-.3057.5161,1.93,1.93,0,0,0-.1084.66v.084h2.9043v-.12a1.727,1.727,0,0,0-.3721-1.1577A1.2676,1.2676,0,0,0,302.283,140.95Z"/><path d="M308.9188,146.458a2.996,2.996,0,0,1-1.1993-.2281,2.38,2.38,0,0,1-.8886-.6538,2.9579,2.9579,0,0,1-.5518-1.0322,4.8331,4.8331,0,0,1,0-2.7,2.959,2.959,0,0,1,.5518-1.0317,2.3814,2.3814,0,0,1,.8886-.6539,2.9892,2.9892,0,0,1,1.1993-.228,2.6182,2.6182,0,0,1,1.5361.42,2.4134,2.4134,0,0,1,.876,1.1158l-1.08.5039a1.3558,1.3558,0,0,0-.4619-.69,1.3733,1.3733,0,0,0-.87-.2578,1.32,1.32,0,0,0-1.086.4487,1.7878,1.7878,0,0,0-.3652,1.167V143.75a1.7876,1.7876,0,0,0,.3652,1.167,1.3207,1.3207,0,0,0,1.086.4483,1.396,1.396,0,0,0,.9179-.2818,1.9622,1.9622,0,0,0,.5459-.75l.9961.5279a2.492,2.492,0,0,1-.9355,1.1836A2.7035,2.7035,0,0,1,308.9188,146.458Z"/><path d="M314.3553,146.3139a1.3874,1.3874,0,0,1-1.0322-.354,1.366,1.366,0,0,1-.3477-1.0019v-3.816h-.9726v-1.0683h.5283a.58.58,0,0,0,.45-.1436.7057.7057,0,0,0,.1259-.4682V138.37h1.1758v1.7036h1.3086v1.0683H314.283v4.104h1.2119v1.0679Z"/><path d="M319.407,146.458a2.98,2.98,0,0,1-1.1816-.2281,2.4746,2.4746,0,0,1-.9062-.6538,2.9994,2.9994,0,0,1-.5762-1.0322,4.5674,4.5674,0,0,1,0-2.7,3.0007,3.0007,0,0,1,.5762-1.0317,2.4759,2.4759,0,0,1,.9062-.6539,3.1786,3.1786,0,0,1,2.3643,0,2.4806,2.4806,0,0,1,.9052.6539,3.0007,3.0007,0,0,1,.5762,1.0317,4.5674,4.5674,0,0,1,0,2.7,2.9994,2.9994,0,0,1-.5762,1.0322,2.4792,2.4792,0,0,1-.9052.6538A2.9846,2.9846,0,0,1,319.407,146.458Zm0-1.0923a1.4515,1.4515,0,0,0,1.08-.4117,1.6841,1.6841,0,0,0,.4082-1.2348v-1.05a1.6858,1.6858,0,0,0-.4082-1.2354,1.6228,1.6228,0,0,0-2.16,0,1.69,1.69,0,0,0-.4073,1.2354v1.05a1.6881,1.6881,0,0,0,.4073,1.2348A1.4529,1.4529,0,0,0,319.407,145.3657Z"/><path d="M323.7264,146.3139v-6.24h1.3086v1.2h.0595a1.683,1.683,0,0,1,.5528-.84,1.7273,1.7273,0,0,1,1.1631-.36h.3486v1.26h-.5166a2.3138,2.3138,0,0,0-1.1934.252.8168.8168,0,0,0-.414.7441v3.9839Z"/><rect class="cls-2" x="621.43" y="41.9895" width="141.8199" height="35.6486"/><path d="M670.92,64.3427a3.0292,3.0292,0,0,1-2.4843-1.0859,4.958,4.958,0,0,1-.8877-3.1983,5.1693,5.1693,0,0,1,.8877-3.2461,2.9757,2.9757,0,0,1,2.4843-1.1337,2.93,2.93,0,0,1,2.88,1.8242l-.8164.4917a2.3248,2.3248,0,0,0-.7676-1.0381,2.0914,2.0914,0,0,0-1.2959-.39,2.2029,2.2029,0,0,0-.9668.2046,2.0073,2.0073,0,0,0-.72.584,2.7352,2.7352,0,0,0-.45.9033,4.125,4.125,0,0,0-.1552,1.1739V60.685a3.1275,3.1275,0,0,0,.6,2.0352,2.0618,2.0618,0,0,0,1.6923.7343,2.1439,2.1439,0,0,0,1.3438-.414,2.3848,2.3848,0,0,0,.792-1.0977l.8037.5039a3.2154,3.2154,0,0,1-1.14,1.3921A3.1352,3.1352,0,0,1,670.92,64.3427Z"/><path d="M675.3231,64.1987V58.0068h.9609v1.14h.06a1.8751,1.8751,0,0,1,.6-.7925,1.8456,1.8456,0,0,1,1.1885-.3476h.372v.96h-.5644a2.1694,2.1694,0,0,0-1.2178.294.8666.8666,0,0,0-.4375.7378v4.2Z"/><path d="M681.9949,64.3427a2.78,2.78,0,0,1-1.1455-.228,2.4756,2.4756,0,0,1-.8759-.6538,2.9973,2.9973,0,0,1-.5645-1.02,4.6165,4.6165,0,0,1,0-2.67,2.9892,2.9892,0,0,1,.5645-1.0259,2.4744,2.4744,0,0,1,.8759-.6538,2.7779,2.7779,0,0,1,1.1455-.2281,2.6353,2.6353,0,0,1,1.1163.2271,2.4684,2.4684,0,0,1,.84.6279,2.7918,2.7918,0,0,1,.5342.9507,3.7516,3.7516,0,0,1,.1865,1.208v.4541H680.22v.2881a2.1192,2.1192,0,0,0,.126.7383,1.76,1.76,0,0,0,.3594.5937,1.6547,1.6547,0,0,0,.5762.396,1.9776,1.9776,0,0,0,.7744.1441,1.8817,1.8817,0,0,0,1.0254-.2759,1.8153,1.8153,0,0,0,.6787-.792l.6836.4951a2.3873,2.3873,0,0,1-.9356,1.0322A2.8251,2.8251,0,0,1,681.9949,64.3427Zm0-5.6763a1.8221,1.8221,0,0,0-.72.1377,1.6138,1.6138,0,0,0-.5576.3873,1.8117,1.8117,0,0,0-.3662.59,2.0444,2.0444,0,0,0-.1319.7456v.0835h3.42v-.1314a1.8843,1.8843,0,0,0-.45-1.3178A1.536,1.536,0,0,0,681.9949,58.6664Z"/><path d="M690.2156,63.2021h-.0488a1.8889,1.8889,0,0,1-1.8115,1.1406,2.3542,2.3542,0,0,1-1.044-.228,2.2558,2.2558,0,0,1-.7978-.648,2.9416,2.9416,0,0,1-.5039-1.02,5.2543,5.2543,0,0,1,0-2.688,2.9469,2.9469,0,0,1,.5039-1.02,2.26,2.26,0,0,1,.7978-.6479,2.3528,2.3528,0,0,1,1.044-.2281,2.1115,2.1115,0,0,1,1.11.2793,1.7413,1.7413,0,0,1,.7012.8614h.0488V55.3188h.96v8.88h-.96Zm-1.5966.2886a2.2386,2.2386,0,0,0,.6181-.0845,1.5408,1.5408,0,0,0,.51-.2471,1.2,1.2,0,0,0,.3418-.3979,1.1091,1.1091,0,0,0,.1269-.5371V59.9086a.945.945,0,0,0-.1269-.4765,1.189,1.189,0,0,0-.3418-.38,1.7214,1.7214,0,0,0-.51-.2471,2.1028,2.1028,0,0,0-.6181-.09,1.6528,1.6528,0,0,0-1.2842.5127,1.9174,1.9174,0,0,0-.4678,1.3447v1.061a1.92,1.92,0,0,0,.4678,1.3453A1.6541,1.6541,0,0,0,688.619,63.4907Z"/><path d="M695.5428,64.3427a2.7791,2.7791,0,0,1-1.1455-.228,2.4751,2.4751,0,0,1-.876-.6538,2.9988,2.9988,0,0,1-.5644-1.02,4.6165,4.6165,0,0,1,0-2.67,2.9907,2.9907,0,0,1,.5644-1.0259,2.4739,2.4739,0,0,1,.876-.6538,2.7776,2.7776,0,0,1,1.1455-.2281,2.6348,2.6348,0,0,1,1.1162.2271,2.4674,2.4674,0,0,1,.84.6279,2.79,2.79,0,0,1,.5342.9507,3.7516,3.7516,0,0,1,.1865,1.208v.4541h-4.4521v.2881a2.1192,2.1192,0,0,0,.126.7383,1.76,1.76,0,0,0,.3594.5937,1.6543,1.6543,0,0,0,.5761.396,1.978,1.978,0,0,0,.7744.1441,1.8817,1.8817,0,0,0,1.0254-.2759,1.8147,1.8147,0,0,0,.6787-.792l.6836.4951a2.3876,2.3876,0,0,1-.9355,1.0322A2.8251,2.8251,0,0,1,695.5428,64.3427Zm0-5.6763a1.8218,1.8218,0,0,0-.72.1377,1.6132,1.6132,0,0,0-.5577.3873,1.8134,1.8134,0,0,0-.3662.59,2.0444,2.0444,0,0,0-.1318.7456v.0835h3.42v-.1314a1.8843,1.8843,0,0,0-.45-1.3178A1.5358,1.5358,0,0,0,695.5428,58.6664Z"/><path d="M699.8026,64.1987V58.0068h.9609v.9966h.0478a2.0075,2.0075,0,0,1,.6416-.8316,1.8158,1.8158,0,0,1,1.11-.3091,1.9423,1.9423,0,0,1,1.5176.6182,2.5152,2.5152,0,0,1,.5586,1.7456v3.9722h-.96v-3.812q0-1.6722-1.4043-1.6719a2.1456,2.1456,0,0,0-.5586.0723,1.6069,1.6069,0,0,0-.4853.2163,1.0622,1.0622,0,0,0-.3418.3667,1.0445,1.0445,0,0,0-.126.5234v4.3052Z"/><path d="M707.9862,64.1987a.9823.9823,0,0,1-.7618-.2813,1.0476,1.0476,0,0,1-.2578-.7363V58.8588h-1.02v-.852h.5762a.564.564,0,0,0,.4258-.126.6535.6535,0,0,0,.1142-.438V56.2905h.8643v1.7163h1.3554v.852h-1.3554v4.4878h1.26v.8521Z"/><path d="M711.31,56.5546a.5866.5866,0,0,1-.45-.15.5543.5543,0,0,1-.1377-.39v-.1558a.5543.5543,0,0,1,.1377-.39.751.751,0,0,1,.9,0,.5543.5543,0,0,1,.1377.39v.1558a.5543.5543,0,0,1-.1377.39A.5866.5866,0,0,1,711.31,56.5546Zm-.4805,1.4522h.9609v6.1919H710.83Z"/><path d="M718.33,64.1987a.9422.9422,0,0,1-.7734-.2881,1.4259,1.4259,0,0,1-.294-.72h-.0605a1.5983,1.5983,0,0,1-.6719.8637,2.0866,2.0866,0,0,1-1.1162.2881,2.17,2.17,0,0,1-1.5293-.5039,1.7694,1.7694,0,0,1-.5459-1.3682,1.5621,1.5621,0,0,1,.6416-1.3437,3.4132,3.4132,0,0,1,1.998-.4683h1.2237v-.6118a1.3385,1.3385,0,0,0-.3594-1.0083,1.5377,1.5377,0,0,0-1.1045-.3476,1.66,1.66,0,0,0-.9414.2519,2.0777,2.0777,0,0,0-.63.6719l-.5762-.54a2.1844,2.1844,0,0,1,.8038-.858,2.5337,2.5337,0,0,1,1.3916-.354,2.56,2.56,0,0,1,1.7519.5508,1.9373,1.9373,0,0,1,.624,1.5327v3.4h.708v.8521Zm-2.76-.6719a2.436,2.436,0,0,0,.66-.084,1.6109,1.6109,0,0,0,.5156-.24,1.1843,1.1843,0,0,0,.3369-.36.8664.8664,0,0,0,.1192-.4438v-1.02h-1.2715a2.3257,2.3257,0,0,0-1.2061.24.7756.7756,0,0,0-.3779.6963v.2519a.8373.8373,0,0,0,.33.708A1.4363,1.4363,0,0,0,715.57,63.5268Z"/><path d="M721.2586,64.1987a.9792.9792,0,0,1-.7617-.2823,1.012,1.012,0,0,1-.2588-.7138V55.3188h.9609v8.0278h.9112v.8521Z"/><path d="M725.3621,64.3427a2.8957,2.8957,0,0,1-1.4463-.33,3.2888,3.2888,0,0,1-1.0019-.8818l.6846-.5522a2.6939,2.6939,0,0,0,.8037.7021,2.0927,2.0927,0,0,0,1.0322.2461,1.5275,1.5275,0,0,0,.9541-.2642.9584.9584,0,0,0,.1074-1.3618,1.4248,1.4248,0,0,0-.8457-.354l-.4922-.0722a4.1163,4.1163,0,0,1-.792-.1861,2.19,2.19,0,0,1-.63-.3359,1.4417,1.4417,0,0,1-.42-.522,1.6941,1.6941,0,0,1-.15-.7441,1.8,1.8,0,0,1,.168-.7979,1.6076,1.6076,0,0,1,.4629-.57,2.0172,2.0172,0,0,1,.7012-.3423,3.2594,3.2594,0,0,1,.8759-.1138,2.73,2.73,0,0,1,1.2666.2642,2.8334,2.8334,0,0,1,.8936.7319l-.6357.5757a1.9139,1.9139,0,0,0-.6-.522,1.9387,1.9387,0,0,0-.9961-.2338,1.3759,1.3759,0,0,0-.9063.2578.87.87,0,0,0-.3057.7021.735.735,0,0,0,.3057.66,2.2841,2.2841,0,0,0,.8818.3l.4805.0722a2.5762,2.5762,0,0,1,1.4639.5938,1.5615,1.5615,0,0,1,.4316,1.146,1.7525,1.7525,0,0,1-.6123,1.416A2.5226,2.5226,0,0,1,725.3621,64.3427Z"/><path class="cls-8" d="M647.8022,55.6668a5.0894,5.0894,0,0,1,.5484.4154,4.9435,4.9435,0,0,0-1.0245.8418c-.0757-.0593-.1545-.1163-.2373-.17a2.6133,2.6133,0,1,0-2.8435,4.3326,3.1279,3.1279,0,0,0,2.3681.4735,4.173,4.173,0,0,0,.9385,1.1944,4.5143,4.5143,0,0,1-3.3147-.1944l-3.543,5.4,1.5307,1.0045-1.834,2.7942L638.86,70.7535l-.4.6092-1.3406-.88,5.7765-8.8031a4.0711,4.0711,0,0,1-.9366-5.1928,4.1887,4.1887,0,0,1,5.8422-.82Zm2.7319.1036a4.9225,4.9225,0,0,1,2.1056.1744,5.1263,5.1263,0,0,0-8.35-5.4154,4.4667,4.4667,0,0,0-1.032-.5039,6.2142,6.2142,0,0,1,10.3775,6.3669,3.6846,3.6846,0,0,1,1.803,2.6576,4.0721,4.0721,0,0,1-3.1017,4.2691l.8429,6.4033,1.8156-.239.4359,3.3139-1.815.2386.0943.722-1.5891.2091L650.747,63.5282a4.0709,4.0709,0,0,1-4.1008-3.32,4.19,4.19,0,0,1,3.8879-4.4373Zm.17,1.2895a3.2819,3.2819,0,0,1,1.3281.0935,5.1384,5.1384,0,0,1-2.1159,1.784,4.207,4.207,0,0,0-.27-1.0467,2.5035,2.5035,0,0,0-.58.4864,2.1075,2.1075,0,0,0-.4882.9595l-.0011.0065-.001.0025,0,.0023-.003.0169-.0021.0093-.0021.0092-.0009.01-.0007.0018-.001.0075-.0017.01-.0017.0092v0l-.0037.0243,0,.0015V59.45l-.0027.019,0,.0046-.001.0047-.0014.01-.001.0091V59.5l-.0027.0261h0c-.0027.0227-.0043.0448-.0057.0677l-.0007.0094-.0006.0093v0l0,.01,0,.01h0l0,.0094,0,.0009-.0007.0156V59.68l0,.0046v.0535h0l0,.01v.019l.001.02,0,.0049,0,.0046,0,.01,0,.01v.0023l.0006.0072,0,.01.0006.01.0021.0263v.0006l0,.0028.0051.0489,0,.0021.0037.0272v.0019l.0027.0225,0,.0032.001.0046.0013.0076.0014.0076,0,.0058v.0016l.002.0075.0023.0152,0,.0017.0036.0207.0008.0048.0007.0029.003.015.0013.0071h0l.0014.0074.0014.0077.0017.0075.0007.0029.0009.0043.0031.0132.002.0092.0014.0075.002.0071.0021.0072.0016.0077.0021.0071c.0051.0222.0115.0436.0176.0654l.0023.0073.002.0071.0018.0061.0006.001.0024.0075.0021.0072a2.0362,2.0362,0,0,0,.7762,1.0356,3.451,3.451,0,0,0,.4726-1.1824,6.2215,6.2215,0,0,0,3.1394-2.4858,2.4086,2.4086,0,0,1,.9558,1.6028,2.9783,2.9783,0,1,1-3.2661-2.1836Zm-4.7111-3.353a5.053,5.053,0,0,1,.1356.8018,4.9835,4.9835,0,0,0-1.32-.0816,3.2268,3.2268,0,0,0-.0765-.4006A2.6132,2.6132,0,1,0,639.7093,55.3a3.13,3.13,0,0,0,1.4106,1.94,4.0891,4.0891,0,0,0-.1653,1.4942,4.5274,4.5274,0,0,1-2.2467-2.3538l-6.261,1.5867.45,1.7753-3.24.8207-.45-1.7745-.7057.1785-.3939-1.5541,10.206-2.5863a4.0717,4.0717,0,0,1,2.8178-4.462,4.19,4.19,0,0,1,4.8616,3.3423Zm-.1866,2.9961a3.9623,3.9623,0,0,1-1.1766,1.6,5.1232,5.1232,0,0,0,1.59.8474,3.89,3.89,0,0,0-.0148,1.115l0,.002.002.0126a6.2213,6.2213,0,0,1-2.5916-1.411c-.0994.0352-.2014.0665-.3056.0927l-.0148.0034a2.15,2.15,0,0,1-.03-.441h0c0-.0146.0007-.0292.0017-.0439l0-.0028v-.0018l.0014-.0163,0-.0049.001-.0116.0034-.0449.0014-.0122,0-.0074.002-.0155v-.0007l.0017-.0159.0061-.0445.001-.0039,0-.0032.0018-.0121.0023-.0146.0007-.0064.0107-.0575,0-.0011.0034-.0162.0022-.0123.0008-.0028.0024-.0126.0013-.0037.0034-.0155,0-.0032.0034-.0124.0024-.01.0017-.006.0067-.0263.0013-.005.0018-.0071.0027-.0086h0l.0074-.0258.0017-.0053.001-.0046.0071-.0221.0014-.0042.0043-.0151.0008-.0022.0043-.0135.0055-.0142,0-.0006.0051-.0154v0l.0058-.0156,0-.0006.005-.0142.0044-.0128.001-.0028.003-.0064.0074-.0195.0018-.0041.0044-.01.0017-.0051.0064-.0148.0006-.0019.0058-.0134.0038-.0075.01-.0209h0v-.0013l.0179-.0375.0016-.0032.0021-.0036.007-.0144.001-.003.0091-.0176.0018-.0032.0027-.0054.0077-.0148.0008,0,.007-.0142.0034-.0063.0011-.0016.01-.019.001-.0016.0085-.0143.007-.0115.0014-.0029.0061-.01.0024-.0039.0034-.0055.0131-.0215.0007-.0014.0054-.0082.0037-.0058.0088-.0141.0011-.0011.0023-.003.002-.0028.0015-.003.0019-.0032.0024-.0027.0016-.0029.0021-.003.0017-.0021.0007-.0008.0037-.0061.0024-.0027.0017-.0029.002-.0029.002-.003h0l.0034-.0052.0007,0,.002-.0032.0016-.0026.0021-.003.0024-.0026.0016-.0034.0021-.0025.0024-.0029,0-.0008.0018-.0021v0l.0043-.0055.0017-.0027.002-.003.0075-.01.001-.0006.002-.0026.0017-.0032.0128-.0166.0024-.0029.0021-.0024.002-.0032.002-.0023.0024-.0029a2.0142,2.0142,0,0,1,1.324-.7322,2.5241,2.5241,0,0,1,.8186.0216Zm-3.9982-.7618a6.2425,6.2425,0,0,1,.1342-3.7632,2.0058,2.0058,0,0,1,1.0709.2418,5.1023,5.1023,0,0,0-.3226,2.3351q.0172.177.0456.35a3.9177,3.9177,0,0,0-.9281.8364Z"/><path class="cls-9" d="M269.8273,72.6778a3.54,3.54,0,0,0,1.714,2.8667l19.0581,13.15,7.8176-5.3934a7.8922,7.8922,0,0,1,8.3112,0l7.8153,5.3942,19.0574-13.148a3.54,3.54,0,0,0,1.7143-2.8675v-.0147a3.54,3.54,0,0,0-1.714-2.8674L306.73,51.2535a7.8975,7.8975,0,0,0-8.3123,0l-26.875,18.5418a3.5406,3.5406,0,0,0-1.7151,2.8671v.0158Z"/><rect class="cls-10" x="276.3535" y="48.8592" width="37.6878" height="39.3265" rx="3.1982"/><path class="cls-11" d="M314.0413,61.9679H300.9325V48.859h13.1088ZM304.21,58.6906h6.5545V52.1362H304.21Z"/><path class="cls-11" d="M297.6552,67.456V57.6244H284.5464v22.94h22.94V67.456Zm-9.8315-6.5544h6.5544V67.456h-6.5544Zm6.5544,16.3861h-6.5544V70.7333h6.5544Zm9.8315,0h-6.5544V70.7333H304.21Z"/><path class="cls-11" d="M312.4027,88.1856H279.6306a3.2808,3.2808,0,0,1-3.2771-3.2772V52.1363a3.2807,3.2807,0,0,1,3.2771-3.2771h16.3861v3.2771H279.6306V84.9084h32.7721V68.5224H315.68v16.386A3.2811,3.2811,0,0,1,312.4027,88.1856Z"/><rect class="cls-10" x="289.4623" y="63.1772" width="37.6878" height="39.3265" rx="3.1982"/><path class="cls-12" d="M327.15,76.2859H314.0413V63.1771H327.15Zm-9.8316-3.2773h6.5544V66.4542h-6.5544Z"/><path class="cls-12" d="M310.7641,81.774V71.9424H297.6552V94.8829h22.9405V81.774ZM300.9325,75.22h6.5544V81.774h-6.5544Zm6.5544,16.3861h-6.5544V85.0513h6.5544Zm9.8316,0h-6.5544V85.0513h6.5544Z"/><path class="cls-12" d="M325.5115,102.5036H292.74a3.2809,3.2809,0,0,1-3.2772-3.2772V66.4543a3.2808,3.2808,0,0,1,3.2772-3.2771h16.386v3.2771H292.74V99.2264h32.772V82.84h3.2773v16.386A3.2811,3.2811,0,0,1,325.5115,102.5036Z"/><path class="cls-13" d="M269.8273,72.6778a3.54,3.54,0,0,0,1.714,2.8667l26.873,18.5445a7.8909,7.8909,0,0,0,8.3112,0l26.875-18.5418a3.54,3.54,0,0,0,1.7143-2.8674v32.0335a3.54,3.54,0,0,1-1.7143,2.8675l-26.875,18.5418a7.8926,7.8926,0,0,1-8.3112,0l-26.873-18.5449a3.54,3.54,0,0,1-1.714-2.8675Z"/><line class="cls-14" x1="252.3596" y1="89.8958" x2="149.6485" y2="89.8957"/><polygon class="cls-15" points="251.228 86.028 257.925 89.896 251.228 93.763 251.228 86.028"/><polygon class="cls-15" points="150.78 86.028 144.083 89.896 150.78 93.763 150.78 86.028"/><rect class="cls-2" x="471.8005" y="83.7715" width="141.8199" height="35.6486"/><path d="M520.5389,96.8369h2.8076a3.6522,3.6522,0,0,1,1.416.2641,2.8654,2.8654,0,0,1,1.086.7857,3.5789,3.5789,0,0,1,.69,1.3081,7.0915,7.0915,0,0,1,0,3.66,3.5789,3.5789,0,0,1-.69,1.3081,2.8654,2.8654,0,0,1-1.086.7857,3.654,3.654,0,0,1-1.416.2641h-2.8076Zm2.8076,7.4878a2.5126,2.5126,0,0,0,.9482-.1739,2.0448,2.0448,0,0,0,.7442-.51,2.3467,2.3467,0,0,0,.4853-.8223,3.275,3.275,0,0,0,.1748-1.11v-1.3681a3.2746,3.2746,0,0,0-.1748-1.11,2.3467,2.3467,0,0,0-.4853-.8223,2.051,2.051,0,0,0-.7442-.51,2.52,2.52,0,0,0-.9482-.1739h-1.8v6.6Z"/><path d="M530.8221,105.3569a2.7791,2.7791,0,0,1-1.1455-.228,2.4754,2.4754,0,0,1-.876-.6539,2.9979,2.9979,0,0,1-.5644-1.02,4.6165,4.6165,0,0,1,0-2.67,2.9907,2.9907,0,0,1,.5644-1.0259,2.4751,2.4751,0,0,1,.876-.6538,2.7791,2.7791,0,0,1,1.1455-.228,2.6363,2.6363,0,0,1,1.1162.227,2.469,2.469,0,0,1,.84.628,2.79,2.79,0,0,1,.5342.9507,3.7516,3.7516,0,0,1,.1865,1.208v.4541h-4.4521v.2881a2.1191,2.1191,0,0,0,.126.7382,1.7615,1.7615,0,0,0,.3593.5938,1.6557,1.6557,0,0,0,.5762.396,1.9776,1.9776,0,0,0,.7744.144,1.8817,1.8817,0,0,0,1.0254-.2759,1.8139,1.8139,0,0,0,.6787-.7919l.6836.4951a2.3882,2.3882,0,0,1-.9355,1.0322A2.826,2.826,0,0,1,530.8221,105.3569Zm0-5.6763a1.8218,1.8218,0,0,0-.72.1377,1.613,1.613,0,0,0-.5577.3872,1.8155,1.8155,0,0,0-.3662.59,2.0448,2.0448,0,0,0-.1318.7456v.0835h3.42v-.1313a1.8847,1.8847,0,0,0-.45-1.3179A1.5357,1.5357,0,0,0,530.8221,99.6806Z"/><path d="M535.4188,99.873H534.41v-.8521h1.0088v-1.248a1.5549,1.5549,0,0,1,.3359-1.044,1.2615,1.2615,0,0,1,1.0195-.3959h.9366v.852h-1.3321v1.8359h3.4678v6.1919h-.96v-5.34h-2.5078v5.34h-.96Zm3.9472-2.3042a.588.588,0,0,1-.45-.15.5543.5543,0,0,1-.1377-.39V96.873a.5542.5542,0,0,1,.1377-.39.751.751,0,0,1,.9,0,.5542.5542,0,0,1,.1377.39v.1558a.5543.5543,0,0,1-.1377.39A.5866.5866,0,0,1,539.366,97.5688Z"/><path d="M541.8856,105.2128V99.0209h.9609v.9966h.0479a2.0055,2.0055,0,0,1,.6416-.8315,1.8146,1.8146,0,0,1,1.11-.3091,1.9422,1.9422,0,0,1,1.5176.6182,2.5147,2.5147,0,0,1,.5586,1.7456v3.9721h-.96v-3.812q0-1.672-1.4043-1.6719a2.15,2.15,0,0,0-.5586.0723,1.6094,1.6094,0,0,0-.4853.2163,1.0631,1.0631,0,0,0-.3418.3667,1.0451,1.0451,0,0,0-.126.5235v4.3051Z"/><path d="M551.03,105.3569a2.7791,2.7791,0,0,1-1.1455-.228,2.4762,2.4762,0,0,1-.876-.6539,2.9979,2.9979,0,0,1-.5644-1.02,4.6165,4.6165,0,0,1,0-2.67,2.9907,2.9907,0,0,1,.5644-1.0259,2.476,2.476,0,0,1,.876-.6538,2.7791,2.7791,0,0,1,1.1455-.228,2.6363,2.6363,0,0,1,1.1162.227,2.47,2.47,0,0,1,.84.628,2.7916,2.7916,0,0,1,.5341.9507,3.7489,3.7489,0,0,1,.1866,1.208v.4541h-4.4522v.2881a2.1191,2.1191,0,0,0,.126.7382,1.76,1.76,0,0,0,.3594.5938,1.6543,1.6543,0,0,0,.5761.396,1.978,1.978,0,0,0,.7744.144,1.8817,1.8817,0,0,0,1.0254-.2759,1.8139,1.8139,0,0,0,.6787-.7919l.6836.4951a2.3882,2.3882,0,0,1-.9355,1.0322A2.826,2.826,0,0,1,551.03,105.3569Zm0-5.6763a1.8218,1.8218,0,0,0-.72.1377,1.6117,1.6117,0,0,0-.5576.3872,1.814,1.814,0,0,0-.3663.59,2.0469,2.0469,0,0,0-.1318.7456v.0835h3.42v-.1313a1.8847,1.8847,0,0,0-.45-1.3179A1.5357,1.5357,0,0,0,551.03,99.6806Z"/><path d="M559.2508,104.2163h-.0488a1.8889,1.8889,0,0,1-1.8116,1.1406,2.3537,2.3537,0,0,1-1.0439-.228,2.2558,2.2558,0,0,1-.7978-.648,2.9426,2.9426,0,0,1-.504-1.02,5.2543,5.2543,0,0,1,0-2.688,2.9462,2.9462,0,0,1,.504-1.02,2.2612,2.2612,0,0,1,.7978-.648,2.3537,2.3537,0,0,1,1.0439-.228,2.1117,2.1117,0,0,1,1.11.2793,1.7417,1.7417,0,0,1,.7012.8613h.0488V96.333h.96v8.88h-.96Zm-1.5967.2885a2.2393,2.2393,0,0,0,.6182-.0844,1.5393,1.5393,0,0,0,.51-.2471,1.1971,1.1971,0,0,0,.3418-.398,1.1086,1.1086,0,0,0,.127-.5371v-2.3154a.9457.9457,0,0,0-.127-.4766,1.1863,1.1863,0,0,0-.3418-.38,1.7171,1.7171,0,0,0-.51-.2471,2.1,2.1,0,0,0-.6182-.09,1.6529,1.6529,0,0,0-1.2842.5127,1.9178,1.9178,0,0,0-.4677,1.3448v1.061a1.92,1.92,0,0,0,.4677,1.3452A1.6543,1.6543,0,0,0,557.6541,104.5048Z"/><path d="M566.9422,105.3569a2.8965,2.8965,0,0,1-1.4463-.33,3.2889,3.2889,0,0,1-1.0019-.8818l.6845-.5523a2.6955,2.6955,0,0,0,.8037.7022,2.0942,2.0942,0,0,0,1.0323.2461,1.5275,1.5275,0,0,0,.9541-.2642.9584.9584,0,0,0,.1074-1.3618,1.4241,1.4241,0,0,0-.8457-.354l-.4922-.0723a4.1073,4.1073,0,0,1-.792-.186,2.1893,2.1893,0,0,1-.63-.336,1.44,1.44,0,0,1-.42-.5219,1.6945,1.6945,0,0,1-.15-.7442,1.799,1.799,0,0,1,.168-.7978,1.6067,1.6067,0,0,1,.4629-.57,2.0158,2.0158,0,0,1,.7011-.3423,3.2606,3.2606,0,0,1,.876-.1138,2.73,2.73,0,0,1,1.2666.2642,2.8321,2.8321,0,0,1,.8936.7319l-.6358.5757a1.9116,1.9116,0,0,0-.6-.522,1.9375,1.9375,0,0,0-.9961-.2339,1.3762,1.3762,0,0,0-.9062.2578.8705.8705,0,0,0-.3057.7022.7347.7347,0,0,0,.3057.66,2.28,2.28,0,0,0,.8818.3l.4805.0723a2.5762,2.5762,0,0,1,1.4639.5938,1.5616,1.5616,0,0,1,.4316,1.1459,1.7529,1.7529,0,0,1-.6123,1.4161A2.5226,2.5226,0,0,1,566.9422,105.3569Z"/><path d="M573.23,105.3569a2.8523,2.8523,0,0,1-1.1641-.228,2.3712,2.3712,0,0,1-.87-.648,2.8821,2.8821,0,0,1-.54-1.02,4.959,4.959,0,0,1,0-2.688,2.8856,2.8856,0,0,1,.54-1.02,2.3768,2.3768,0,0,1,.87-.648,2.8523,2.8523,0,0,1,1.1641-.228,2.4813,2.4813,0,0,1,1.4814.4019,2.4479,2.4479,0,0,1,.834,1.05l-.8037.4078a1.4615,1.4615,0,0,0-.5517-.7442,1.6572,1.6572,0,0,0-.96-.2637,1.92,1.92,0,0,0-.7559.1377,1.4693,1.4693,0,0,0-.54.3843,1.6123,1.6123,0,0,0-.3242.5879,2.4707,2.4707,0,0,0-.1084.75v1.0562a2.0112,2.0112,0,0,0,.4385,1.3379,1.5875,1.5875,0,0,0,1.29.5219,1.7411,1.7411,0,0,0,1.68-1.08l.6963.4683a2.4606,2.4606,0,0,1-.8946,1.0679A2.6115,2.6115,0,0,1,573.23,105.3569Z"/><path d="M579.23,105.3569a2.795,2.795,0,0,1-1.1406-.228,2.4631,2.4631,0,0,1-.8819-.6539,3.0938,3.0938,0,0,1-.57-1.02,4.49,4.49,0,0,1,0-2.67,3.085,3.085,0,0,1,.57-1.0259,2.4629,2.4629,0,0,1,.8819-.6538,2.795,2.795,0,0,1,1.1406-.228,2.7532,2.7532,0,0,1,1.1338.228,2.532,2.532,0,0,1,.8818.6538,3.0271,3.0271,0,0,1,.5762,1.0259,4.4694,4.4694,0,0,1,0,2.67,3.0353,3.0353,0,0,1-.5762,1.02,2.5322,2.5322,0,0,1-.8818.6539A2.7532,2.7532,0,0,1,579.23,105.3569Zm0-.8521a1.7449,1.7449,0,0,0,1.2715-.48,1.9612,1.9612,0,0,0,.4922-1.4638v-.8882a1.9615,1.9615,0,0,0-.4922-1.4639,1.9254,1.9254,0,0,0-2.544,0,1.9615,1.9615,0,0,0-.4922,1.4639v.8882a1.9612,1.9612,0,0,0,.4922,1.4638A1.7459,1.7459,0,0,0,579.23,104.5048Z"/><path d="M583.6092,99.0209h.9609v.9966h.0479a1.7328,1.7328,0,0,1,.7021-.8613,2.106,2.106,0,0,1,1.1094-.2793,2.3542,2.3542,0,0,1,1.044.228,2.2612,2.2612,0,0,1,.7978.648,2.946,2.946,0,0,1,.5039,1.02,5.2543,5.2543,0,0,1,0,2.688,2.9425,2.9425,0,0,1-.5039,1.02,2.2558,2.2558,0,0,1-.7978.648,2.3542,2.3542,0,0,1-1.044.228,1.8736,1.8736,0,0,1-1.8115-1.1406H584.57v3.3964h-.9609Zm2.5566,5.4839a1.6541,1.6541,0,0,0,1.2842-.5122,1.92,1.92,0,0,0,.4678-1.3452v-1.061a1.9178,1.9178,0,0,0-.4678-1.3448,1.6528,1.6528,0,0,0-1.2842-.5127,2.1,2.1,0,0,0-.6181.09,1.7189,1.7189,0,0,0-.51.2471,1.1886,1.1886,0,0,0-.3418.38.9549.9549,0,0,0-.126.4766v2.3154a1.12,1.12,0,0,0,.126.5371,1.1993,1.1993,0,0,0,.3418.398,1.5408,1.5408,0,0,0,.51.2471A2.2385,2.2385,0,0,0,586.1658,104.5048Z"/><path d="M592.8973,105.3569a2.7791,2.7791,0,0,1-1.1455-.228,2.4754,2.4754,0,0,1-.876-.6539,3,3,0,0,1-.5645-1.02,4.6188,4.6188,0,0,1,0-2.67,2.9925,2.9925,0,0,1,.5645-1.0259,2.4751,2.4751,0,0,1,.876-.6538,2.7791,2.7791,0,0,1,1.1455-.228,2.6363,2.6363,0,0,1,1.1162.227,2.469,2.469,0,0,1,.84.628,2.79,2.79,0,0,1,.5342.9507,3.7516,3.7516,0,0,1,.1865,1.208v.4541h-4.4521v.2881a2.1191,2.1191,0,0,0,.126.7382,1.7615,1.7615,0,0,0,.3593.5938,1.6557,1.6557,0,0,0,.5762.396,1.9776,1.9776,0,0,0,.7744.144,1.8817,1.8817,0,0,0,1.0254-.2759,1.8139,1.8139,0,0,0,.6787-.7919l.6836.4951a2.3882,2.3882,0,0,1-.9355,1.0322A2.826,2.826,0,0,1,592.8973,105.3569Zm0-5.6763a1.8218,1.8218,0,0,0-.72.1377,1.613,1.613,0,0,0-.5577.3872,1.8155,1.8155,0,0,0-.3662.59,2.0448,2.0448,0,0,0-.1318.7456v.0835h3.42v-.1313a1.8847,1.8847,0,0,0-.45-1.3179A1.5357,1.5357,0,0,0,592.8973,99.6806Z"/><rect class="cls-2" x="621.9267" y="83.7715" width="141.3231" height="35.6486"/><path d="M667.1346,105.2128V96.8369h3.3359a2.2667,2.2667,0,0,1,1.7334.642,2.8514,2.8514,0,0,1,0,3.5162,2.2684,2.2684,0,0,1-1.7334.6416h-2.3281v3.5761Zm1.0078-4.4638h2.3281a1.3005,1.3005,0,0,0,.93-.312,1.1647,1.1647,0,0,0,.33-.8882v-.6241a1.164,1.164,0,0,0-.33-.8876,1.3,1.3,0,0,0-.93-.3121h-2.3281Z"/><path d="M674.19,105.2128V99.0209h.9609v1.14h.06a1.8745,1.8745,0,0,1,.6-.7925,1.8453,1.8453,0,0,1,1.1884-.3477h.3721v.96h-.5644a2.1694,2.1694,0,0,0-1.2178.2939.8666.8666,0,0,0-.4375.7378v4.2Z"/><path d="M680.8748,105.3569a2.795,2.795,0,0,1-1.1406-.228,2.4619,2.4619,0,0,1-.8818-.6539,3.0939,3.0939,0,0,1-.57-1.02,4.49,4.49,0,0,1,0-2.67,3.0852,3.0852,0,0,1,.57-1.0259,2.4616,2.4616,0,0,1,.8818-.6538,2.795,2.795,0,0,1,1.1406-.228,2.7525,2.7525,0,0,1,1.1338.228,2.5311,2.5311,0,0,1,.8818.6538,3.0271,3.0271,0,0,1,.5762,1.0259,4.4694,4.4694,0,0,1,0,2.67,3.0353,3.0353,0,0,1-.5762,1.02,2.5313,2.5313,0,0,1-.8818.6539A2.7525,2.7525,0,0,1,680.8748,105.3569Zm0-.8521a1.7448,1.7448,0,0,0,1.2715-.48,1.9612,1.9612,0,0,0,.4922-1.4638v-.8882a1.9615,1.9615,0,0,0-.4922-1.4639,1.9253,1.9253,0,0,0-2.5439,0,1.961,1.961,0,0,0-.4922,1.4639v.8882a1.9608,1.9608,0,0,0,.4922,1.4638A1.7455,1.7455,0,0,0,680.8748,104.5048Z"/><path d="M685.5184,99.873H684.51v-.8521h1.0088v-1.248a1.5549,1.5549,0,0,1,.3359-1.044,1.2615,1.2615,0,0,1,1.0195-.3959h.9366v.852h-1.3321v1.8359h3.4678v6.1919h-.96v-5.34h-2.5079v5.34h-.96Zm3.9472-2.3042a.588.588,0,0,1-.45-.15.5547.5547,0,0,1-.1376-.39V96.873a.5546.5546,0,0,1,.1376-.39.751.751,0,0,1,.9,0,.5542.5542,0,0,1,.1377.39v.1558a.5543.5543,0,0,1-.1377.39A.5864.5864,0,0,1,689.4656,97.5688Z"/><path d="M693.0067,105.2128a.9792.9792,0,0,1-.7618-.2822,1.0127,1.0127,0,0,1-.2587-.7139V96.333h.9609v8.0278h.9111v.852Z"/><path d="M697.5779,105.3569a2.78,2.78,0,0,1-1.1455-.228,2.4759,2.4759,0,0,1-.8759-.6539,2.9964,2.9964,0,0,1-.5645-1.02,4.6165,4.6165,0,0,1,0-2.67,2.9892,2.9892,0,0,1,.5645-1.0259,2.4756,2.4756,0,0,1,.8759-.6538,2.78,2.78,0,0,1,1.1455-.228,2.6368,2.6368,0,0,1,1.1163.227,2.469,2.469,0,0,1,.84.628,2.7918,2.7918,0,0,1,.5342.9507,3.7516,3.7516,0,0,1,.1865,1.208v.4541h-4.4521v.2881a2.119,2.119,0,0,0,.1259.7382,1.76,1.76,0,0,0,.3594.5938,1.6547,1.6547,0,0,0,.5762.396,1.9776,1.9776,0,0,0,.7744.144,1.8817,1.8817,0,0,0,1.0254-.2759,1.8145,1.8145,0,0,0,.6787-.7919l.6836.4951a2.3878,2.3878,0,0,1-.9356,1.0322A2.826,2.826,0,0,1,697.5779,105.3569Zm0-5.6763a1.8221,1.8221,0,0,0-.72.1377,1.6135,1.6135,0,0,0-.5576.3872,1.8155,1.8155,0,0,0-.3662.59,2.0448,2.0448,0,0,0-.1318.7456v.0835h3.42v-.1313a1.8847,1.8847,0,0,0-.45-1.3179A1.5359,1.5359,0,0,0,697.5779,99.6806Z"/><path class="cls-16" d="M504.8668,96.2735h-4.4293v1.7718h4.4293v5.3152h-6.201v1.7717h2.6576V107.03a3.5435,3.5435,0,1,0,1.7717,0v-1.8975h1.7717a1.7741,1.7741,0,0,0,1.7718-1.7717V98.0453A1.7738,1.7738,0,0,0,504.8668,96.2735Zm-.8858,14.1739a1.7718,1.7718,0,1,1-1.7718-1.7717A1.7718,1.7718,0,0,1,503.981,110.4474Z"/><path class="cls-7" d="M496.0082,92.73h-4.4294v1.7718h4.4294V99.817h-6.2011v1.7717h2.6576v5.441a3.5435,3.5435,0,1,0,1.7717,0v-5.441h1.7718A1.7737,1.7737,0,0,0,497.78,99.817V94.5018A1.7738,1.7738,0,0,0,496.0082,92.73Zm-.8859,17.7174a1.7718,1.7718,0,1,1-1.7718-1.7717A1.7718,1.7718,0,0,1,495.1223,110.4474Z"/><path class="cls-17" d="M487.15,89.1866h-5.3153a1.7734,1.7734,0,0,0-1.7717,1.7717v5.3152a1.7736,1.7736,0,0,0,1.7717,1.7718h1.7718V107.03a3.5435,3.5435,0,1,0,1.7717,0V98.0453H487.15a1.7736,1.7736,0,0,0,1.7717-1.7718V90.9583A1.7734,1.7734,0,0,0,487.15,89.1866Zm-.8859,21.2608a1.7718,1.7718,0,1,1-1.7717-1.7717A1.7718,1.7718,0,0,1,486.2636,110.4474Zm-4.4294-14.1739V90.9583H487.15l.0013,5.3152Z"/><path class="cls-12" d="M652.1289,91.2548V87.1184H627.31v10.341h9.307v18.6138h19.6479V91.2548Zm-22.75,4.1364V89.1866h20.6821v2.0682H636.6174v4.1364Zm24.8185,18.6138H638.6856V93.323h15.5115Z"/><rect class="cls-18" x="640.7538" y="96.4253" width="2.0682" height="2.0682"/><rect class="cls-12" x="644.8902" y="96.4253" width="7.2387" height="2.0682"/><rect class="cls-18" x="640.7538" y="102.6299" width="2.0682" height="2.0682"/><rect class="cls-12" x="644.8902" y="102.6299" width="7.2387" height="2.0682"/><rect class="cls-18" x="640.7538" y="108.8345" width="2.0682" height="2.0682"/><rect class="cls-12" x="644.8902" y="108.8345" width="7.2387" height="2.0682"/><rect class="cls-2" x="466.1805" y="141.4783" width="158.1401" height="35.6486"/><path d="M513.3328,162.92H512.325v-8.376h3.336a2.3423,2.3423,0,0,1,1.7216.6118,2.3745,2.3745,0,0,1,.6182,1.7642,2.5469,2.5469,0,0,1-.4258,1.518,2.0434,2.0434,0,0,1-1.2539.7862l1.92,3.6958H517.1l-1.8115-3.6h-1.9561Zm2.3282-4.4639a1.3,1.3,0,0,0,.93-.312,1.1642,1.1642,0,0,0,.33-.8882v-.624a1.1637,1.1637,0,0,0-.33-.8877,1.3,1.3,0,0,0-.93-.312h-2.3282v3.0239Z"/><path d="M522.0565,163.0639a2.7788,2.7788,0,0,1-1.1455-.228,2.4751,2.4751,0,0,1-.876-.6538,2.999,2.999,0,0,1-.5645-1.02,4.6191,4.6191,0,0,1,0-2.6705,2.99,2.99,0,0,1,.5645-1.0258,2.4739,2.4739,0,0,1,.876-.6538,2.7772,2.7772,0,0,1,1.1455-.2281,2.6351,2.6351,0,0,1,1.1162.2271,2.4674,2.4674,0,0,1,.84.6279,2.7918,2.7918,0,0,1,.5342.9507,3.7516,3.7516,0,0,1,.1865,1.208v.4541h-4.4521v.2881a2.1223,2.1223,0,0,0,.1259.7383,1.7613,1.7613,0,0,0,.3594.5937,1.6557,1.6557,0,0,0,.5762.396,1.9776,1.9776,0,0,0,.7744.1441,1.8817,1.8817,0,0,0,1.0254-.2759,1.8147,1.8147,0,0,0,.6787-.792l.6836.4951a2.3876,2.3876,0,0,1-.9355,1.0322A2.8253,2.8253,0,0,1,522.0565,163.0639Zm0-5.6763a1.8226,1.8226,0,0,0-.72.1377,1.6135,1.6135,0,0,0-.5576.3872,1.8149,1.8149,0,0,0-.3662.59,2.0444,2.0444,0,0,0-.1318.7456v.0835h3.42v-.1314a1.8843,1.8843,0,0,0-.45-1.3178A1.5358,1.5358,0,0,0,522.0565,157.3876Z"/><path d="M528.1766,163.0639a2.8965,2.8965,0,0,1-1.4463-.33,3.2891,3.2891,0,0,1-1.002-.8818l.6846-.5523a2.6943,2.6943,0,0,0,.8037.7022,2.093,2.093,0,0,0,1.0322.2461,1.5275,1.5275,0,0,0,.9541-.2642.9585.9585,0,0,0,.1075-1.3618,1.4248,1.4248,0,0,0-.8457-.354l-.4922-.0723a4.1073,4.1073,0,0,1-.792-.186,2.1915,2.1915,0,0,1-.63-.3359,1.4415,1.4415,0,0,1-.42-.522,1.6944,1.6944,0,0,1-.15-.7441,1.7978,1.7978,0,0,1,.168-.7979,1.6076,1.6076,0,0,1,.4629-.57,2.0167,2.0167,0,0,1,.7011-.3423,3.2606,3.2606,0,0,1,.876-.1138,2.73,2.73,0,0,1,1.2666.2642,2.8345,2.8345,0,0,1,.8936.7319l-.6358.5757a1.9116,1.9116,0,0,0-.6-.522,1.9384,1.9384,0,0,0-.9961-.2339,1.3756,1.3756,0,0,0-.9062.2579.87.87,0,0,0-.3057.7021.735.735,0,0,0,.3057.66,2.2835,2.2835,0,0,0,.8818.3l.4805.0722a2.5759,2.5759,0,0,1,1.4638.5938,1.5615,1.5615,0,0,1,.4317,1.146,1.7527,1.7527,0,0,1-.6123,1.416A2.5228,2.5228,0,0,1,528.1766,163.0639Z"/><path d="M535.9764,161.9233h-.0479a3.0076,3.0076,0,0,1-.2343.4219,1.575,1.575,0,0,1-.3418.3681,1.5942,1.5942,0,0,1-.4922.2554,2.14,2.14,0,0,1-.6719.0952,1.96,1.96,0,0,1-1.5234-.6182A2.4918,2.4918,0,0,1,532.1,160.7V156.728h.96v3.812q0,1.672,1.416,1.6719a2.1367,2.1367,0,0,0,.5576-.0723,1.5309,1.5309,0,0,0,.4805-.2163,1.0953,1.0953,0,0,0,.3359-.3667,1.07,1.07,0,0,0,.126-.5352V156.728h.96V162.92h-.96Z"/><path d="M539.9969,162.92a.979.979,0,0,1-.7617-.2823,1.012,1.012,0,0,1-.2588-.7138V154.04h.9609v8.0278h.9112v.8521Z"/><path d="M543.5487,162.92a.9823.9823,0,0,1-.7618-.2813,1.0476,1.0476,0,0,1-.2578-.7363V157.58h-1.02v-.852h.5762a.564.564,0,0,0,.4258-.126.6535.6535,0,0,0,.1142-.438v-1.1523h.8643v1.7163h1.3554v.852h-1.3554v4.4878h1.26v.8521Z"/><path d="M548.2528,163.0639a2.8962,2.8962,0,0,1-1.4463-.33,3.2891,3.2891,0,0,1-1.002-.8818l.6846-.5523a2.6943,2.6943,0,0,0,.8037.7022,2.0927,2.0927,0,0,0,1.0322.2461,1.5275,1.5275,0,0,0,.9541-.2642.9584.9584,0,0,0,.1074-1.3618,1.4245,1.4245,0,0,0-.8457-.354l-.4921-.0723a4.1073,4.1073,0,0,1-.792-.186,2.19,2.19,0,0,1-.63-.3359,1.4415,1.4415,0,0,1-.42-.522,1.6944,1.6944,0,0,1-.15-.7441,1.7992,1.7992,0,0,1,.1679-.7979,1.6076,1.6076,0,0,1,.4629-.57,2.0172,2.0172,0,0,1,.7012-.3423,3.26,3.26,0,0,1,.876-.1138,2.73,2.73,0,0,1,1.2666.2642,2.8331,2.8331,0,0,1,.8935.7319l-.6357.5757a1.9139,1.9139,0,0,0-.6-.522,1.9387,1.9387,0,0,0-.9961-.2339,1.3759,1.3759,0,0,0-.9063.2579.87.87,0,0,0-.3056.7021.7349.7349,0,0,0,.3056.66,2.284,2.284,0,0,0,.8819.3l.48.0722a2.5762,2.5762,0,0,1,1.4639.5938,1.5615,1.5615,0,0,1,.4316,1.146,1.7527,1.7527,0,0,1-.6123,1.416A2.5223,2.5223,0,0,1,548.2528,163.0639Z"/><g id="apps"><path class="cls-12" d="M81.427,91.463v4.1364H77.2906V91.463Zm2.0682-2.0682H75.2224v8.2728h8.2728ZM91.768,91.463v4.1364H87.6316V91.463Zm2.0682-2.0682H85.5634v8.2728h8.2728Zm8.2729,2.0682v4.1364H97.9727V91.463Zm2.0682-2.0682H95.9045v8.2728h8.2728ZM81.427,101.804V105.94H77.2906V101.804Zm2.0682-2.0682H75.2224v8.2728h8.2728Zm8.2728,2.0682V105.94H87.6316V101.804Zm2.0682-2.0682H85.5634v8.2728h8.2728Zm8.2729,2.0682V105.94H97.9727V101.804Zm2.0682-2.0682H95.9045v8.2728h8.2728ZM81.427,112.145v4.1364H77.2906V112.145Zm2.0682-2.0682H75.2224V118.35h8.2728Zm8.2728,2.0682v4.1364H87.6316V112.145Zm2.0682-2.0682H85.5634V118.35h8.2728Zm8.2729,2.0682v4.1364H97.9727V112.145Zm2.0682-2.0682H95.9045V118.35h8.2728Z"/></g><g id="apps-2" data-name="apps"><path class="cls-19" d="M113.0384,91.463v4.1364H108.902V91.463Zm2.0682-2.0682h-8.2728v8.2728h8.2728Zm8.2728,2.0682v4.1364H119.243V91.463Zm2.0683-2.0682h-8.2729v8.2728h8.2729Zm8.2728,2.0682v4.1364h-4.1364V91.463Zm2.0682-2.0682h-8.2728v8.2728h8.2728Zm-22.75,12.4092V105.94H108.902V101.804Zm2.0682-2.0682h-8.2728v8.2728h8.2728Zm8.2728,2.0682V105.94H119.243V101.804Zm2.0683-2.0682h-8.2729v8.2728h8.2729Zm8.2728,2.0682V105.94h-4.1364V101.804Zm2.0682-2.0682h-8.2728v8.2728h8.2728Zm-22.75,12.4092v4.1364H108.902V112.145Zm2.0682-2.0682h-8.2728V118.35h8.2728Zm8.2728,2.0682v4.1364H119.243V112.145Zm2.0683-2.0682h-8.2729V118.35h8.2729Zm8.2728,2.0682v4.1364h-4.1364V112.145Zm2.0682-2.0682h-8.2728V118.35h8.2728Z"/></g><g id="apps-3" data-name="apps"><path class="cls-7" d="M81.427,59.8828v4.1365H77.2906V59.8828Zm2.0682-2.0682H75.2224v8.2729h8.2728Zm8.2728,2.0682v4.1365H87.6316V59.8828Zm2.0682-2.0682H85.5634v8.2729h8.2728Zm8.2729,2.0682v4.1365H97.9727V59.8828Zm2.0682-2.0682H95.9045v8.2729h8.2728ZM81.427,70.2239V74.36H77.2906V70.2239Zm2.0682-2.0682H75.2224v8.2728h8.2728Zm8.2728,2.0682V74.36H87.6316V70.2239Zm2.0682-2.0682H85.5634v8.2728h8.2728Zm8.2729,2.0682V74.36H97.9727V70.2239Zm2.0682-2.0682H95.9045v8.2728h8.2728ZM81.427,80.5649v4.1364H77.2906V80.5649Zm2.0682-2.0682H75.2224V86.77h8.2728Zm8.2728,2.0682v4.1364H87.6316V80.5649Zm2.0682-2.0682H85.5634V86.77h8.2728Zm8.2729,2.0682v4.1364H97.9727V80.5649Zm2.0682-2.0682H95.9045V86.77h8.2728Z"/></g><path class="cls-16" d="M113.0384,59.8828v4.1365H108.902V59.8828Zm2.0682-2.0682h-8.2728v8.2729h8.2728Zm8.2728,2.0682v4.1365H119.243V59.8828Zm2.0683-2.0682h-8.2729v8.2729h8.2729Zm8.2728,2.0682v4.1365h-4.1364V59.8828Zm2.0682-2.0682h-8.2728v8.2729h8.2728Zm-22.75,12.4093V74.36H108.902V70.2239Zm2.0682-2.0682h-8.2728v8.2728h8.2728Zm8.2728,2.0682V74.36H119.243V70.2239Zm2.0683-2.0682h-8.2729v8.2728h8.2729Zm8.2728,2.0682V74.36h-4.1364V70.2239Zm2.0682-2.0682h-8.2728v8.2728h8.2728Zm-22.75,12.4092v4.1364H108.902V80.5649Zm2.0682-2.0682h-8.2728V86.77h8.2728Zm8.2728,2.0682v4.1364H119.243V80.5649Zm2.0683-2.0682h-8.2729V86.77h8.2729Zm8.2728,2.0682v4.1364h-4.1364V80.5649Zm2.0682-2.0682h-8.2728V86.77h8.2728Z"/><line class="cls-14" x1="455.494" y1="89.8958" x2="352.783" y2="89.8957"/><polygon class="cls-15" points="454.362 86.028 461.06 89.896 454.362 93.763 454.362 86.028"/><polygon class="cls-15" points="353.914 86.028 347.217 89.896 353.914 93.763 353.914 86.028"/><line class="cls-14" x1="455.494" y1="159.0835" x2="388.2568" y2="159.0835"/><polygon class="cls-15" points="454.362 155.216 461.06 159.084 454.362 162.951 454.362 155.216"/><line class="cls-14" x1="388.7003" y1="119.1221" x2="388.7002" y2="159.0835"/><path class="cls-18" d="M498.03,170.8316V149.6951h-7.5279v21.1365h-3.764V157.3811H479.21v13.4505h-2.823V145.8521h-1.8819v24.98a1.902,1.902,0,0,0,1.8819,1.9215h24.4658v-1.9215Zm-13.1738,0h-3.764v-11.529h3.764Zm11.2918,0h-3.7639v-19.215h3.7639Z"/><rect class="cls-20" x="223.1094" width="566.5946" height="7.4626"/><rect class="cls-1" x="36.2287" y="0.0821" width="186.8807" height="7.4626"/><path d="M69.3748,26.2392V17.165h5.98v1.521H71.0906v2.1972h3.77v1.521h-3.77v2.314h4.2637v1.521Z"/><path d="M77.07,26.2392V19.4531h1.6641v1.1313H78.8a2.16,2.16,0,0,1,.6563-.9165,1.8931,1.8931,0,0,1,1.2412-.3706,1.956,1.956,0,0,1,1.6123.689,3.0471,3.0471,0,0,1,.5586,1.9629v4.29H81.2039V22.1181a1.8835,1.8835,0,0,0-.26-1.0918.9821.9821,0,0,0-.8584-.3642,1.74,1.74,0,0,0-.5.0717,1.39,1.39,0,0,0-.4288.208,1.0849,1.0849,0,0,0-.3056.3379.9275.9275,0,0,0-.1172.4746v4.4849Z"/><path d="M86.0662,26.2392l-2.2617-6.7861h1.6377l.9492,2.9253.6631,2.4179h.0908l.6631-2.4179.9229-2.9253h1.5859l-2.2754,6.7861Z"/><path d="M92.2537,18.4653a1.0088,1.0088,0,0,1-.747-.2339.82.82,0,0,1-.2276-.5982v-.26a.8191.8191,0,0,1,.2276-.5977,1.2987,1.2987,0,0,1,1.4882,0,.8079.8079,0,0,1,.2334.5977v.26a.8091.8091,0,0,1-.2334.5982A1.0152,1.0152,0,0,1,92.2537,18.4653Zm-.832.9878h1.6641v6.7861H91.4217Z"/><path d="M95.01,26.2392V19.4531h1.6641v1.4043h.0654a2.1553,2.1553,0,0,1,.2012-.5269,1.6085,1.6085,0,0,1,.3574-.4482,1.7227,1.7227,0,0,1,.5263-.312,1.971,1.971,0,0,1,.709-.1172h.3633v1.5732h-.5195a2.611,2.611,0,0,0-1.2744.2471.8569.8569,0,0,0-.4287.8056v4.16Z"/><path d="M102.7449,26.395a3.3011,3.3011,0,0,1-1.3066-.2466,2.7137,2.7137,0,0,1-.9883-.7153,3.2778,3.2778,0,0,1-.6308-1.1246,4.6018,4.6018,0,0,1-.2207-1.4751,4.5461,4.5461,0,0,1,.2207-1.4692,3.2189,3.2189,0,0,1,.6308-1.1113,2.7471,2.7471,0,0,1,.9883-.7085,3.2994,3.2994,0,0,1,1.3066-.2471,3.3422,3.3422,0,0,1,1.3125.2471,2.73,2.73,0,0,1,.9952.7085,3.2171,3.2171,0,0,1,.63,1.1113,4.5461,4.5461,0,0,1,.2207,1.4692,4.6018,4.6018,0,0,1-.2207,1.4751,3.276,3.276,0,0,1-.63,1.1246,2.6971,2.6971,0,0,1-.9952.7153A3.3439,3.3439,0,0,1,102.7449,26.395Zm0-1.3389a1.3572,1.3572,0,0,0,1.04-.4028,1.6735,1.6735,0,0,0,.3769-1.1831V22.2094a1.6542,1.6542,0,0,0-.3769-1.17,1.3572,1.3572,0,0,0-1.04-.4028,1.3384,1.3384,0,0,0-1.0273.4028,1.6542,1.6542,0,0,0-.377,1.17V23.47a1.6735,1.6735,0,0,0,.377,1.1831A1.3384,1.3384,0,0,0,102.7449,25.0561Z"/><path d="M107.3729,26.2392V19.4531h1.664v1.1313h.0655a2.1609,2.1609,0,0,1,.6562-.9165A1.8931,1.8931,0,0,1,111,19.2973a1.9557,1.9557,0,0,1,1.6123.689,3.0471,3.0471,0,0,1,.5586,1.9629v4.29h-1.664V22.1181a1.8834,1.8834,0,0,0-.26-1.0918.982.982,0,0,0-.8584-.3642,1.7405,1.7405,0,0,0-.5.0717,1.3893,1.3893,0,0,0-.4287.208,1.084,1.084,0,0,0-.3057.3379.9275.9275,0,0,0-.1172.4746v4.4849Z"/><path d="M115.0164,26.2392V19.4531h1.6641v1.1313h.0654a2.1977,2.1977,0,0,1,.624-.91,1.7486,1.7486,0,0,1,1.1954-.377,2.1306,2.1306,0,0,1,1.2089.3379,1.9913,1.9913,0,0,1,.7539,1.0269h.0264a1.9037,1.9037,0,0,1,.7217-.9683,2.2332,2.2332,0,0,1,1.3584-.3965,1.84,1.84,0,0,1,1.54.689,3.1177,3.1177,0,0,1,.54,1.9629v4.29h-1.6641V22.1181q0-1.4553-1.0918-1.456a1.567,1.567,0,0,0-.4746.0717,1.2555,1.2555,0,0,0-.4033.208,1.0052,1.0052,0,0,0-.2793.3379,1.0208,1.0208,0,0,0-.1045.4746v4.4849H119.033V22.1181q0-1.4553-1.0918-1.456a1.5256,1.5256,0,0,0-.4609.0717,1.2545,1.2545,0,0,0-.4033.208,1.0745,1.0745,0,0,0-.2862.3379.9771.9771,0,0,0-.11.4746v4.4849Z"/><path d="M129.3035,26.395a3.3875,3.3875,0,0,1-1.3457-.2535,2.7857,2.7857,0,0,1-1.0009-.7148,3.2067,3.2067,0,0,1-.6309-1.1182,5.041,5.041,0,0,1-.0059-2.9311,3.1818,3.1818,0,0,1,.6172-1.1118,2.7324,2.7324,0,0,1,.9883-.7149,3.3055,3.3055,0,0,1,1.3262-.2534,3.23,3.23,0,0,1,1.3779.273,2.6615,2.6615,0,0,1,.9619.7407,3.2115,3.2115,0,0,1,.5654,1.0859,4.5164,4.5164,0,0,1,.1885,1.3194v.5459h-4.5107V23.43a1.6592,1.6592,0,0,0,.416,1.1807,1.6069,1.6069,0,0,0,1.2344.4453,1.8413,1.8413,0,0,0,1.02-.2578,2.91,2.91,0,0,0,.709-.6582l.8965,1.0039a2.7915,2.7915,0,0,1-1.1368.9189A3.963,3.963,0,0,1,129.3035,26.395Zm-.0263-5.85a1.3342,1.3342,0,0,0-1.0528.4418,1.6667,1.6667,0,0,0-.39,1.1441v.104h2.7812v-.1172a1.779,1.779,0,0,0-.3437-1.1372A1.1944,1.1944,0,0,0,129.2772,20.5454Z"/><path d="M133.8143,26.2392V19.4531h1.664v1.1313h.0655a2.1609,2.1609,0,0,1,.6562-.9165,1.8931,1.8931,0,0,1,1.2412-.3706,1.9557,1.9557,0,0,1,1.6123.689,3.0471,3.0471,0,0,1,.5586,1.9629v4.29h-1.664V22.1181a1.8827,1.8827,0,0,0-.26-1.0918.982.982,0,0,0-.8584-.3642,1.7405,1.7405,0,0,0-.5.0717,1.3893,1.3893,0,0,0-.4287.208,1.0852,1.0852,0,0,0-.3057.3379.9275.9275,0,0,0-.1172.4746v4.4849Z"/><path d="M143.5779,26.2392a1.7716,1.7716,0,0,1-1.3066-.4473,1.727,1.727,0,0,1-.4482-1.2778V20.7924h-1.001V19.4531h.5195a.6211.6211,0,0,0,.5137-.1753.8508.8508,0,0,0,.1367-.5264V17.5942h1.4951v1.8589h1.3907v1.3393h-1.3907V24.9h1.2871v1.3389Z"/><path d="M235.9764,26.395a4.3083,4.3083,0,0,1-1.9824-.4165,4.6116,4.6116,0,0,1-1.3975-1.0938l1.1572-1.12a3.3024,3.3024,0,0,0,1.0469.8257,2.8621,2.8621,0,0,0,1.28.2837,1.8061,1.8061,0,0,0,1.1953-.3418,1.1472,1.1472,0,0,0,.4033-.9224,1.0485,1.0485,0,0,0-.26-.7353,1.7485,1.7485,0,0,0-.9746-.4126l-.8584-.1289q-2.7172-.43-2.7168-2.6421a2.6049,2.6049,0,0,1,.2276-1.1065,2.345,2.345,0,0,1,.6562-.8462,3.0506,3.0506,0,0,1,1.0332-.54,4.6128,4.6128,0,0,1,1.3721-.1885,4.4052,4.4052,0,0,1,1.7939.3389,3.5246,3.5246,0,0,1,1.3125,1.0029l-1.17,1.107a2.6872,2.6872,0,0,0-.8193-.67,2.54,2.54,0,0,0-1.209-.2578,1.8486,1.8486,0,0,0-1.1113.2769.9171.9171,0,0,0-.37.78.9272.9272,0,0,0,.2988.7607,2.1147,2.1147,0,0,0,.9619.36l.8447.1562a3.8778,3.8778,0,0,1,2.0352.8784,2.3323,2.3323,0,0,1,.6562,1.7637,2.9481,2.9481,0,0,1-.2275,1.1777,2.5483,2.5483,0,0,1-.6631.9107,3.0131,3.0131,0,0,1-1.0654.5923A4.6336,4.6336,0,0,1,235.9764,26.395Z"/><path d="M243.7381,26.395a3.3872,3.3872,0,0,1-1.3457-.2535,2.7869,2.7869,0,0,1-1.001-.7148,3.2065,3.2065,0,0,1-.6308-1.1182,5.041,5.041,0,0,1-.0059-2.9311,3.18,3.18,0,0,1,.6172-1.1118,2.7307,2.7307,0,0,1,.9883-.7149,3.305,3.305,0,0,1,1.3261-.2534,3.2306,3.2306,0,0,1,1.378.273,2.6632,2.6632,0,0,1,.9619.7407,3.2133,3.2133,0,0,1,.5654,1.0859,4.5164,4.5164,0,0,1,.1885,1.3194v.5459h-4.5107V23.43a1.6588,1.6588,0,0,0,.416,1.1807,1.6067,1.6067,0,0,0,1.2343.4453,1.8414,1.8414,0,0,0,1.0206-.2578,2.91,2.91,0,0,0,.7089-.6582l.8965,1.0039a2.7905,2.7905,0,0,1-1.1367.9189A3.963,3.963,0,0,1,243.7381,26.395Zm-.0264-5.85a1.334,1.334,0,0,0-1.0527.4418,1.6663,1.6663,0,0,0-.39,1.1441v.104h2.7812v-.1172a1.78,1.78,0,0,0-.3437-1.1372A1.1946,1.1946,0,0,0,243.7117,20.5454Z"/><path d="M250.9266,26.395a3.4231,3.4231,0,0,1-1.3389-.2466,2.5865,2.5865,0,0,1-.9814-.7153,3.2128,3.2128,0,0,1-.6045-1.1246,4.8706,4.8706,0,0,1-.208-1.4751,4.8114,4.8114,0,0,1,.208-1.4692,3.1538,3.1538,0,0,1,.6045-1.1113,2.6165,2.6165,0,0,1,.9814-.7085,3.4212,3.4212,0,0,1,1.3389-.2471,2.96,2.96,0,0,1,1.6972.4551,2.5507,2.5507,0,0,1,.9678,1.2607l-1.3642.6109a1.4211,1.4211,0,0,0-.4356-.7085,1.2684,1.2684,0,0,0-.8652-.2793,1.2437,1.2437,0,0,0-1.0459.4419,1.8251,1.8251,0,0,0-.3447,1.1572V23.47a1.7959,1.7959,0,0,0,.3447,1.15,1.2512,1.2512,0,0,0,1.0459.4355,1.2993,1.2993,0,0,0,.9238-.3052,2.1089,2.1089,0,0,0,.5068-.7607l1.2735.6108a2.6649,2.6649,0,0,1-1.0264,1.3457A3.0114,3.0114,0,0,1,250.9266,26.395Z"/><path d="M258.9725,25.1083h-.0645a2.2024,2.2024,0,0,1-.24.4873,1.795,1.795,0,0,1-.377.41,1.7087,1.7087,0,0,1-.5468.2857,2.3654,2.3654,0,0,1-.7344.104,1.9524,1.9524,0,0,1-1.6113-.689,3.04,3.04,0,0,1-.56-1.9629v-4.29h1.6641v4.1211a1.7855,1.7855,0,0,0,.2734,1.0727,1.0094,1.0094,0,0,0,.8711.37,1.86,1.86,0,0,0,.4873-.0649,1.2257,1.2257,0,0,0,.4219-.2012,1.117,1.117,0,0,0,.3-.3384.936.936,0,0,0,.1162-.4741V19.4531h1.664v6.7861h-1.664Z"/><path d="M262.5613,26.2392V19.4531h1.6641v1.4043h.0654a2.1634,2.1634,0,0,1,.2012-.5269,1.61,1.61,0,0,1,.3574-.4482,1.7244,1.7244,0,0,1,.5264-.312,1.971,1.971,0,0,1,.709-.1172h.3633v1.5732h-.52a2.6115,2.6115,0,0,0-1.2744.2471.8571.8571,0,0,0-.4287.8056v4.16Z"/><path d="M268.5018,18.4653a1.0092,1.0092,0,0,1-.7471-.2339.8207.8207,0,0,1-.2275-.5982v-.26a.82.82,0,0,1,.2275-.5977,1.2989,1.2989,0,0,1,1.4883,0,.8083.8083,0,0,1,.2334.5977v.26a.81.81,0,0,1-.2334.5982A1.0153,1.0153,0,0,1,268.5018,18.4653Zm-.8321.9878h1.6641v6.7861H267.67Z"/><path d="M273.3768,26.2392a1.7718,1.7718,0,0,1-1.3067-.4473,1.727,1.727,0,0,1-.4482-1.2778V20.7924h-1.001V19.4531h.5195a.6211.6211,0,0,0,.5137-.1753.8508.8508,0,0,0,.1367-.5264V17.5942h1.4952v1.8589h1.3906v1.3393H273.286V24.9h1.2871v1.3389Z"/><path d="M280.28,19.4531h1.56L279.11,27.4482a3.4371,3.4371,0,0,1-.293.63,1.58,1.58,0,0,1-.3828.4355,1.4382,1.4382,0,0,1-.5332.2471,3.0165,3.0165,0,0,1-.7285.0781h-1.001V27.5h1.2227l.3115-.9477-2.4307-7.1h1.65l1.1836,3.5805.4414,1.7124h.0781l.4688-1.7124Z"/><path d="M290.992,26.2392a1.1661,1.1661,0,0,1-.8642-.3184,1.46,1.46,0,0,1-.3965-.8515h-.0782a1.5952,1.5952,0,0,1-.6894.9946,2.35,2.35,0,0,1-1.2871.3311,2.197,2.197,0,0,1-1.5987-.544,1.9317,1.9317,0,0,1-.5585-1.4516,1.7581,1.7581,0,0,1,.7539-1.5616,3.799,3.799,0,0,1,2.1445-.5117h1.1572V21.832a1.2273,1.2273,0,0,0-.2988-.8838,1.2857,1.2857,0,0,0-.9619-.312,1.5922,1.5922,0,0,0-.9424.2534,2.4976,2.4976,0,0,0-.6055.6045l-.9873-.8892a2.8636,2.8636,0,0,1,1.001-.9477,3.29,3.29,0,0,1,1.65-.36,3.1039,3.1039,0,0,1,2.0937.6226,2.2452,2.2452,0,0,1,.7149,1.79V24.9h.6758v1.3389Zm-2.7558-1.0532a1.7519,1.7519,0,0,0,.9492-.2451.8007.8007,0,0,0,.39-.7232v-.8906h-1.0664q-1.2993,0-1.3.8267v.2192a.7173.7173,0,0,0,.2666.6133A1.2481,1.2481,0,0,0,288.2362,25.186Z"/><path d="M293.2664,26.2392V19.4531h1.6641v1.1313h.0654a2.16,2.16,0,0,1,.6563-.9165,1.8931,1.8931,0,0,1,1.2412-.3706,1.956,1.956,0,0,1,1.6123.689,3.0471,3.0471,0,0,1,.5586,1.9629v4.29H297.4V22.1181a1.8827,1.8827,0,0,0-.26-1.0918.9819.9819,0,0,0-.8584-.3642,1.741,1.741,0,0,0-.5.0717,1.39,1.39,0,0,0-.4287.208,1.0849,1.0849,0,0,0-.3056.3379.9265.9265,0,0,0-.1172.4746v4.4849Z"/><path d="M305.1219,25.1083h-.0645a1.7439,1.7439,0,0,1-.6894.9361,2.0266,2.0266,0,0,1-1.1826.3506,2.2988,2.2988,0,0,1-1.97-.9229,4.381,4.381,0,0,1-.6826-2.6387,4.3251,4.3251,0,0,1,.6826-2.62,2.3052,2.3052,0,0,1,1.97-.9165,2.0553,2.0553,0,0,1,1.1826.3442,1.7117,1.7117,0,0,1,.6894.93h.0645V16.6191h1.6641v9.62h-1.6641Zm-1.4043-.0913a1.6908,1.6908,0,0,0,1.0019-.2856.9463.9463,0,0,0,.4024-.8193V21.7543a.9412.9412,0,0,0-.4024-.7929,1.6374,1.6374,0,0,0-1.0019-.2993,1.3476,1.3476,0,0,0-1.0459.4355,1.6605,1.6605,0,0,0-.3965,1.1636v1.17a1.6368,1.6368,0,0,0,.3965,1.1572A1.3572,1.3572,0,0,0,303.7176,25.017Z"/><path d="M315.4051,26.395a4.2655,4.2655,0,0,1-1.6182-.2925,3.24,3.24,0,0,1-1.2353-.8775,3.9667,3.9667,0,0,1-.7862-1.4492,6.663,6.663,0,0,1-.2734-2.0088,6.9221,6.9221,0,0,1,.2734-2.0341,4.1466,4.1466,0,0,1,.7862-1.4952,3.3442,3.3442,0,0,1,1.2353-.9165,4.036,4.036,0,0,1,1.6182-.312,3.6754,3.6754,0,0,1,2.0283.52,3.5784,3.5784,0,0,1,1.2871,1.5728l-1.47.78a2.063,2.063,0,0,0-.6367-.9815,1.824,1.824,0,0,0-1.209-.3706,1.9211,1.9211,0,0,0-1.5273.65,2.6852,2.6852,0,0,0-.5655,1.82v1.43a2.6277,2.6277,0,0,0,.5655,1.8135,1.9481,1.9481,0,0,0,1.5273.63,1.8652,1.8652,0,0,0,1.2549-.4156,2.3964,2.3964,0,0,0,.708-1.0273l1.3916.8193a4.0013,4.0013,0,0,1-1.3135,1.5791A3.5084,3.5084,0,0,1,315.4051,26.395Z"/><path d="M322.8153,26.395a3.3016,3.3016,0,0,1-1.3067-.2466,2.7137,2.7137,0,0,1-.9883-.7153,3.2778,3.2778,0,0,1-.6308-1.1246,4.6018,4.6018,0,0,1-.2207-1.4751,4.5461,4.5461,0,0,1,.2207-1.4692,3.2189,3.2189,0,0,1,.6308-1.1113,2.7471,2.7471,0,0,1,.9883-.7085,3.3,3.3,0,0,1,1.3067-.2471,3.3429,3.3429,0,0,1,1.3125.2471,2.7305,2.7305,0,0,1,.9951.7085,3.2189,3.2189,0,0,1,.63,1.1113,4.5489,4.5489,0,0,1,.2207,1.4692,4.6046,4.6046,0,0,1-.2207,1.4751,3.2778,3.2778,0,0,1-.63,1.1246,2.6976,2.6976,0,0,1-.9951.7153A3.3446,3.3446,0,0,1,322.8153,26.395Zm0-1.3389a1.357,1.357,0,0,0,1.04-.4028,1.6735,1.6735,0,0,0,.3769-1.1831V22.2094a1.6542,1.6542,0,0,0-.3769-1.17,1.357,1.357,0,0,0-1.04-.4028,1.3386,1.3386,0,0,0-1.0274.4028,1.6542,1.6542,0,0,0-.3769,1.17V23.47a1.6735,1.6735,0,0,0,.3769,1.1831A1.3386,1.3386,0,0,0,322.8153,25.0561Z"/><path d="M327.4432,26.2392V19.4531h1.664v1.1313h.0655a2.1977,2.1977,0,0,1,.624-.91,1.7485,1.7485,0,0,1,1.1953-.377,2.1307,2.1307,0,0,1,1.209.3379,1.9919,1.9919,0,0,1,.7539,1.0269h.0264a1.904,1.904,0,0,1,.7216-.9683,2.2332,2.2332,0,0,1,1.3584-.3965,1.84,1.84,0,0,1,1.54.689,3.1183,3.1183,0,0,1,.54,1.9629v4.29h-1.664V22.1181q0-1.4553-1.0918-1.456a1.566,1.566,0,0,0-.4746.0717,1.255,1.255,0,0,0-.4034.208,1.0063,1.0063,0,0,0-.2793.3379,1.0221,1.0221,0,0,0-.1045.4746v4.4849H331.46V22.1181q0-1.4553-1.0918-1.456a1.5258,1.5258,0,0,0-.461.0717,1.2555,1.2555,0,0,0-.4033.208,1.0729,1.0729,0,0,0-.2861.3379.9771.9771,0,0,0-.11.4746v4.4849Z"/><path d="M338.9871,19.4531h1.6641v1.1181h.0517a1.7076,1.7076,0,0,1,.69-.93,2.0553,2.0553,0,0,1,1.1826-.3442,2.3178,2.3178,0,0,1,1.9824.9165,4.3244,4.3244,0,0,1,.6827,2.62,4.38,4.38,0,0,1-.6827,2.6387,2.3114,2.3114,0,0,1-1.9824.9229,1.9994,1.9994,0,0,1-1.1767-.3506,1.821,1.821,0,0,1-.6954-.9361h-.0517v3.731h-1.6641Zm3.0547,5.5639a1.3814,1.3814,0,0,0,1.0537-.4287,1.6223,1.6223,0,0,0,.4024-1.1572v-1.17a1.6457,1.6457,0,0,0-.4024-1.1636,1.3715,1.3715,0,0,0-1.0537-.4355,1.6058,1.6058,0,0,0-.9941.2993.9431.9431,0,0,0-.3965.7929v2.1578a.9486.9486,0,0,0,.3965.8193A1.6579,1.6579,0,0,0,342.0418,25.017Z"/><path d="M348.451,26.2392A1.6546,1.6546,0,0,1,347.19,25.81a1.6976,1.6976,0,0,1-.4034-1.209V16.6191h1.6641V24.9h.8975v1.3389Z"/><path d="M351.44,18.4653a1.0091,1.0091,0,0,1-.7471-.2339.82.82,0,0,1-.2276-.5982v-.26a.8191.8191,0,0,1,.2276-.5977,1.2989,1.2989,0,0,1,1.4883,0,.8083.8083,0,0,1,.2334.5977v.26a.81.81,0,0,1-.2334.5982A1.0155,1.0155,0,0,1,351.44,18.4653Zm-.8321.9878h1.6641v6.7861h-1.6641Z"/><path d="M359.1883,26.2392a1.1664,1.1664,0,0,1-.8643-.3184,1.46,1.46,0,0,1-.3964-.8515h-.0782a1.5952,1.5952,0,0,1-.6894.9946,2.35,2.35,0,0,1-1.2871.3311,2.197,2.197,0,0,1-1.5987-.544,1.9317,1.9317,0,0,1-.5586-1.4516,1.7583,1.7583,0,0,1,.7539-1.5616,3.7994,3.7994,0,0,1,2.1446-.5117h1.1572V21.832a1.2273,1.2273,0,0,0-.2988-.8838,1.2857,1.2857,0,0,0-.9619-.312,1.592,1.592,0,0,0-.9424.2534,2.4976,2.4976,0,0,0-.6055.6045l-.9873-.8892a2.8636,2.8636,0,0,1,1.001-.9477,3.29,3.29,0,0,1,1.65-.36,3.1039,3.1039,0,0,1,2.0937.6226,2.2452,2.2452,0,0,1,.7149,1.79V24.9h.6758v1.3389Zm-2.7559-1.0532a1.752,1.752,0,0,0,.9493-.2451.8007.8007,0,0,0,.39-.7232v-.8906h-1.0664q-1.2993,0-1.3.8267v.2192a.7173.7173,0,0,0,.2666.6133A1.2479,1.2479,0,0,0,356.4324,25.186Z"/><path d="M361.4637,26.2392V19.4531h1.6641v1.1313h.0654a2.1609,2.1609,0,0,1,.6562-.9165,1.8933,1.8933,0,0,1,1.2412-.3706,1.9557,1.9557,0,0,1,1.6123.689,3.0471,3.0471,0,0,1,.5586,1.9629v4.29h-1.664V22.1181a1.8827,1.8827,0,0,0-.26-1.0918.982.982,0,0,0-.8584-.3642,1.741,1.741,0,0,0-.5.0717,1.39,1.39,0,0,0-.4287.208,1.0852,1.0852,0,0,0-.3057.3379.9274.9274,0,0,0-.1171.4746v4.4849Z"/><path d="M371.785,26.395a3.4231,3.4231,0,0,1-1.3389-.2466,2.5865,2.5865,0,0,1-.9814-.7153,3.2128,3.2128,0,0,1-.6045-1.1246,4.8706,4.8706,0,0,1-.208-1.4751,4.8114,4.8114,0,0,1,.208-1.4692,3.1538,3.1538,0,0,1,.6045-1.1113,2.6165,2.6165,0,0,1,.9814-.7085,3.4212,3.4212,0,0,1,1.3389-.2471,2.96,2.96,0,0,1,1.6972.4551,2.5507,2.5507,0,0,1,.9678,1.2607l-1.3642.6109a1.4211,1.4211,0,0,0-.4356-.7085,1.2684,1.2684,0,0,0-.8652-.2793,1.2437,1.2437,0,0,0-1.0459.4419,1.8251,1.8251,0,0,0-.3447,1.1572V23.47a1.7959,1.7959,0,0,0,.3447,1.15,1.2512,1.2512,0,0,0,1.0459.4355,1.2993,1.2993,0,0,0,.9238-.3052,2.1089,2.1089,0,0,0,.5068-.7607l1.2735.6108a2.6649,2.6649,0,0,1-1.0264,1.3457A3.0114,3.0114,0,0,1,371.785,26.395Z"/><path d="M378.4539,26.395a3.3875,3.3875,0,0,1-1.3457-.2535,2.7869,2.7869,0,0,1-1.001-.7148,3.2065,3.2065,0,0,1-.6308-1.1182,5.041,5.041,0,0,1-.0059-2.9311,3.1818,3.1818,0,0,1,.6172-1.1118,2.7324,2.7324,0,0,1,.9883-.7149,3.3051,3.3051,0,0,1,1.3262-.2534,3.23,3.23,0,0,1,1.3779.273,2.6624,2.6624,0,0,1,.9619.7407,3.2115,3.2115,0,0,1,.5654,1.0859,4.5164,4.5164,0,0,1,.1885,1.3194v.5459h-4.5107V23.43a1.6588,1.6588,0,0,0,.416,1.1807,1.6069,1.6069,0,0,0,1.2344.4453,1.8413,1.8413,0,0,0,1.02-.2578,2.9121,2.9121,0,0,0,.709-.6582l.8964,1.0039a2.7905,2.7905,0,0,1-1.1367.9189A3.963,3.963,0,0,1,378.4539,26.395Zm-.0263-5.85a1.3342,1.3342,0,0,0-1.0528.4418,1.6667,1.6667,0,0,0-.39,1.1441v.104h2.7812v-.1172a1.779,1.779,0,0,0-.3437-1.1372A1.1944,1.1944,0,0,0,378.4276,20.5454Z"/><path d="M389.66,26.395a4.2655,4.2655,0,0,1-1.6182-.2925,3.2388,3.2388,0,0,1-1.2353-.8775,3.9667,3.9667,0,0,1-.7862-1.4492,6.663,6.663,0,0,1-.2734-2.0088,6.9221,6.9221,0,0,1,.2734-2.0341,4.1466,4.1466,0,0,1,.7862-1.4952,3.3434,3.3434,0,0,1,1.2353-.9165,4.036,4.036,0,0,1,1.6182-.312,3.6754,3.6754,0,0,1,2.0283.52,3.5784,3.5784,0,0,1,1.2871,1.5728l-1.47.78a2.063,2.063,0,0,0-.6367-.9815,1.8242,1.8242,0,0,0-1.209-.3706,1.9214,1.9214,0,0,0-1.5274.65,2.6856,2.6856,0,0,0-.5654,1.82v1.43a2.6282,2.6282,0,0,0,.5654,1.8135,1.9484,1.9484,0,0,0,1.5274.63,1.8652,1.8652,0,0,0,1.2549-.4156,2.3964,2.3964,0,0,0,.708-1.0273l1.3916.8193A4.0013,4.0013,0,0,1,391.701,25.83,3.5084,3.5084,0,0,1,389.66,26.395Z"/><path d="M397.1219,26.395a3.3872,3.3872,0,0,1-1.3457-.2535,2.7869,2.7869,0,0,1-1.001-.7148,3.2065,3.2065,0,0,1-.6308-1.1182,5.041,5.041,0,0,1-.0059-2.9311,3.18,3.18,0,0,1,.6172-1.1118,2.7307,2.7307,0,0,1,.9883-.7149,3.305,3.305,0,0,1,1.3261-.2534,3.2309,3.2309,0,0,1,1.378.273,2.6632,2.6632,0,0,1,.9619.7407,3.2133,3.2133,0,0,1,.5654,1.0859,4.5164,4.5164,0,0,1,.1885,1.3194v.5459h-4.5108V23.43a1.6588,1.6588,0,0,0,.4161,1.1807,1.6067,1.6067,0,0,0,1.2343.4453,1.8411,1.8411,0,0,0,1.0205-.2578,2.9085,2.9085,0,0,0,.709-.6582l.8965,1.0039a2.7905,2.7905,0,0,1-1.1367.9189A3.9633,3.9633,0,0,1,397.1219,26.395Zm-.0264-5.85a1.334,1.334,0,0,0-1.0527.4418,1.6663,1.6663,0,0,0-.39,1.1441v.104h2.7813v-.1172a1.779,1.779,0,0,0-.3438-1.1372A1.1943,1.1943,0,0,0,397.0955,20.5454Z"/><path d="M401.6326,26.2392V19.4531h1.6641v1.1313h.0654a2.16,2.16,0,0,1,.6563-.9165,1.8931,1.8931,0,0,1,1.2412-.3706,1.956,1.956,0,0,1,1.6123.689,3.0471,3.0471,0,0,1,.5586,1.9629v4.29h-1.6641V22.1181a1.8835,1.8835,0,0,0-.26-1.0918.9821.9821,0,0,0-.8584-.3642,1.74,1.74,0,0,0-.5.0717,1.39,1.39,0,0,0-.4288.208,1.0849,1.0849,0,0,0-.3056.3379.9275.9275,0,0,0-.1172.4746v4.4849Z"/><path d="M411.3963,26.2392a1.7714,1.7714,0,0,1-1.3066-.4473,1.7266,1.7266,0,0,1-.4483-1.2778V20.7924H408.64V19.4531h.52a.6213.6213,0,0,0,.5137-.1753.8508.8508,0,0,0,.1367-.5264V17.5942h1.4951v1.8589h1.3906v1.3393h-1.3906V24.9h1.2871v1.3389Z"/><path d="M416.83,26.395a3.3872,3.3872,0,0,1-1.3457-.2535,2.7869,2.7869,0,0,1-1.001-.7148,3.2065,3.2065,0,0,1-.6308-1.1182,5.041,5.041,0,0,1-.0059-2.9311,3.18,3.18,0,0,1,.6172-1.1118,2.7307,2.7307,0,0,1,.9883-.7149,3.305,3.305,0,0,1,1.3261-.2534,3.2309,3.2309,0,0,1,1.378.273,2.6632,2.6632,0,0,1,.9619.7407,3.2133,3.2133,0,0,1,.5654,1.0859,4.5164,4.5164,0,0,1,.1885,1.3194v.5459h-4.5107V23.43a1.6588,1.6588,0,0,0,.416,1.1807,1.6067,1.6067,0,0,0,1.2343.4453,1.8408,1.8408,0,0,0,1.02-.2578,2.9085,2.9085,0,0,0,.709-.6582l.8965,1.0039a2.7905,2.7905,0,0,1-1.1367.9189A3.963,3.963,0,0,1,416.83,26.395Zm-.0264-5.85a1.334,1.334,0,0,0-1.0527.4418,1.6663,1.6663,0,0,0-.39,1.1441v.104h2.7812v-.1172a1.78,1.78,0,0,0-.3437-1.1372A1.1946,1.1946,0,0,0,416.8035,20.5454Z"/><path d="M421.3406,26.2392V19.4531h1.6641v1.4043h.0654a2.1634,2.1634,0,0,1,.2012-.5269,1.61,1.61,0,0,1,.3574-.4482,1.7244,1.7244,0,0,1,.5264-.312,1.9706,1.9706,0,0,1,.709-.1172h.3633v1.5732h-.52a2.6113,2.6113,0,0,0-1.2744.2471.8571.8571,0,0,0-.4287.8056v4.16Z"/><line class="cls-14" x1="389.0478" y1="119.4201" x2="320.5957" y2="119.42"/></g></svg>