<?xml version="1.0" encoding="utf-8"?>
<svg id="Graphics" xmlns="http://www.w3.org/2000/svg" width="858" height="231" viewBox="0 0 858 231"><defs><style>.cls-1{fill:none;stroke:#dfe3e6;}.cls-1,.cls-2{stroke-miterlimit:10;}.cls-2{fill:#fff;stroke:#a56eff;stroke-width:0.7946px;}.cls-3{fill:#152935;}.cls-4{fill:#4589ff;}.cls-5{fill:#0db5b3;}.cls-6{fill:#a56eff;}</style></defs><rect class="cls-1" x="63.6746" y="24.0411" width="212.3254" height="193.5289" rx="0.8806"/><circle class="cls-2" cx="63.215" cy="24.3098" r="13.7398"/><path class="cls-3" d="M92.0723,55.7126a1.2017,1.2017,0,0,1-.9453-.3526,1.2664,1.2664,0,0,1-.315-.8769v-.9453a2.6756,2.6756,0,0,1,.0825-.7051,2.9588,2.9588,0,0,1,.2027-.54,2.4154,2.4154,0,0,1,.27-.4268c.1-.125.1948-.2432.2851-.3525a2.3241,2.3241,0,0,0,.3521-.5176,1.1115,1.1115,0,0,0,.0977-.458.8716.8716,0,0,0-.525-.8321,3.569,3.569,0,0,0-1.5449-.2627h-1.17v-.93h1.17a3.569,3.569,0,0,0,1.5449-.2627.872.872,0,0,0,.525-.833,1.1073,1.1073,0,0,0-.0977-.4571,2.3241,2.3241,0,0,0-.3521-.5176q-.1354-.1654-.2851-.3525a2.5,2.5,0,0,1-.27-.42,2.6887,2.6887,0,0,1-.2027-.54,2.7578,2.7578,0,0,1-.0825-.7128v-.9444a1.2689,1.2689,0,0,1,.315-.8779,1.2051,1.2051,0,0,1,.9453-.3525h2.64v.93H91.8472v1.1553a2.0059,2.0059,0,0,0,.18.9453,5.0291,5.0291,0,0,0,.42.6446q.2548.331.48.6826a1.5165,1.5165,0,0,1,.2251.833,1.2942,1.2942,0,0,1-.4428,1.02,2.2306,2.2306,0,0,1-1.2075.4951v.0606a2.2384,2.2384,0,0,1,1.2075.4941,1.2977,1.2977,0,0,1,.4428,1.02,1.5113,1.5113,0,0,1-.2251.8321q-.2249.3529-.48.6826a5.0378,5.0378,0,0,0-.42.6455,2.0041,2.0041,0,0,0-.18.9443v1.1553h2.8647v.93Z"/><path class="cls-4" d="M107.8965,64.6979V60.5427h1.14v4.1552Zm2.6553,0V60.5427h1.14v4.1552Z"/><path class="cls-4" d="M121.7114,71.6432a1.2416,1.2416,0,0,1-1.0049-.36,1.7457,1.7457,0,0,1-.375-.8994h-.0747a2.1719,2.1719,0,0,1-.8178,1.0566,2.6332,2.6332,0,0,1-1.5074.3828,2.8345,2.8345,0,0,1-1.935-.63,2.1729,2.1729,0,0,1-.72-1.7246,1.9492,1.9492,0,0,1,.7871-1.665,4.3188,4.3188,0,0,1,2.5424-.585h1.65v-.7607a1.6138,1.6138,0,0,0-.48-1.2744,1.9952,1.9952,0,0,0-1.3653-.4248,2.3917,2.3917,0,0,0-1.2749.3066,2.313,2.313,0,0,0-.7949.833l-.81-.6006a2.7281,2.7281,0,0,1,.4048-.5869,2.5738,2.5738,0,0,1,.63-.5078,3.4293,3.4293,0,0,1,.855-.3506,4.1094,4.1094,0,0,1,1.0654-.1289,3.2093,3.2093,0,0,1,2.1675.6914,2.4052,2.4052,0,0,1,.8022,1.9239v4.2695h1.08v1.0351Zm-3.57-.8252a2.993,2.993,0,0,0,.8477-.1123,2.4943,2.4943,0,0,0,.6674-.3,1.4069,1.4069,0,0,0,.4424-.45,1.0739,1.0739,0,0,0,.1577-.5625V68.1179h-1.65a3.158,3.158,0,0,0-1.5747.3.96.96,0,0,0-.4951.87v.3154a1.0463,1.0463,0,0,0,.4278.9072A1.9814,1.9814,0,0,0,118.1416,70.818Z"/><path class="cls-4" d="M124.7568,71.6432v-7.74h1.2v1.26h.06a3.1168,3.1168,0,0,1,.3-.5469,1.9218,1.9218,0,0,1,.4429-.458,2.2035,2.2035,0,0,1,.6225-.3145,2.6562,2.6562,0,0,1,.84-.12,2.5631,2.5631,0,0,1,1.95.7725,3.04,3.04,0,0,1,.7353,2.1826v4.9648h-1.2V66.8884a2.313,2.313,0,0,0-.4648-1.583,1.7419,1.7419,0,0,0-1.3652-.5176,2.8014,2.8014,0,0,0-.7051.09,2.0309,2.0309,0,0,0-.6148.27,1.3868,1.3868,0,0,0-.435.4649,1.2909,1.2909,0,0,0-.1651.66v5.37Z"/><path class="cls-4" d="M138.6616,70.3835h-.06a2.507,2.507,0,0,1-2.3848,1.4394,2.6311,2.6311,0,0,1-2.2275-1.0644,5.9522,5.9522,0,0,1,0-5.9707,2.6309,2.6309,0,0,1,2.2275-1.0645,2.5069,2.5069,0,0,1,2.3848,1.44h.06v-4.62h1.2v11.1h-1.2Zm-1.98.375a2.711,2.711,0,0,0,.7652-.1055,1.9628,1.9628,0,0,0,.63-.3076,1.497,1.497,0,0,0,.4272-.4951,1.415,1.415,0,0,0,.1577-.6826v-2.79a1.4134,1.4134,0,0,0-.1577-.6816,1.496,1.496,0,0,0-.4272-.4951,1.9446,1.9446,0,0,0-.63-.3077,2.711,2.711,0,0,0-.7652-.1054,2.0838,2.0838,0,0,0-1.6274.6377,2.4152,2.4152,0,0,0-.5776,1.6875v1.32a2.4152,2.4152,0,0,0,.5776,1.6875A2.0838,2.0838,0,0,0,136.6816,70.7585Z"/><path class="cls-4" d="M143.896,64.6979V60.5427h1.14v4.1552Zm2.6553,0V60.5427h1.14v4.1552Z"/><path class="cls-3" d="M154.7861,65.8376a1.1729,1.1729,0,0,1-.8623-.2549.8875.8875,0,0,1-.2475-.6445v-.27a.8876.8876,0,0,1,.2475-.6446,1.586,1.586,0,0,1,1.7246,0,.8872.8872,0,0,1,.2476.6446v.27a.8872.8872,0,0,1-.2476.6445A1.1726,1.1726,0,0,1,154.7861,65.8376Zm0,5.94a1.1773,1.1773,0,0,1-.8623-.2549.8881.8881,0,0,1-.2475-.6455v-.27a.8913.8913,0,0,1,.2475-.6455,1.586,1.586,0,0,1,1.7246,0,.891.891,0,0,1,.2476.6455v.27a.8878.8878,0,0,1-.2476.6455A1.177,1.177,0,0,1,154.7861,71.778Z"/><path class="cls-3" d="M171.6606,73.7126v-13.47h4.2v.93h-3.165v11.61h3.165v.93Z"/><path class="cls-3" d="M130.5015,89.6432l-.8848-2.9853h-3.6753l-.8848,2.9853h-1.3051l3.21-10.4707h1.6651l3.21,10.4707Zm-2.6548-9.1347h-.1353l-1.47,5.0547h3.0747Z"/><path class="cls-3" d="M136.1416,87.6032h1.9351l-1.7251,4.1553h-1.0049Z"/><path class="cls-3" d="M124.6064,97.1725h3.5552a2.931,2.931,0,0,1,2.1153.7354,2.6,2.6,0,0,1,.7646,1.9648,2.2267,2.2267,0,0,1-.4575,1.4854,2.4647,2.4647,0,0,1-1.1773.7646v.045a2.9594,2.9594,0,0,1,1.4551.788,2.282,2.282,0,0,1,.57,1.6719,3.3336,3.3336,0,0,1-.21,1.1856,2.8494,2.8494,0,0,1-.5928.96,2.8147,2.8147,0,0,1-.9.6377,2.69,2.69,0,0,1-1.1172.2324h-4.0054Zm3.4205,4.5459a1.9743,1.9743,0,0,0,1.2446-.3525,1.2789,1.2789,0,0,0,.45-1.0732v-.585a1.3,1.3,0,0,0-.45-1.08,1.946,1.946,0,0,0-1.2446-.3594h-2.16v3.45Zm.21,4.8291a2.148,2.148,0,0,0,1.3648-.39,1.4341,1.4341,0,0,0,.4951-1.2v-.6143a1.44,1.44,0,0,0-.4951-1.1933,2.1253,2.1253,0,0,0-1.3648-.3975h-2.37v3.7949Z"/><path class="cls-3" d="M136.1416,105.6032h1.9351l-1.7251,4.1553h-1.0049Z"/><path class="cls-3" d="M128.1318,125.8229a3.2077,3.2077,0,0,1-2.8579-1.3945,9.0876,9.0876,0,0,1,0-8.04,3.2062,3.2062,0,0,1,2.8579-1.3955,3.5773,3.5773,0,0,1,1.2447.1953,2.8531,2.8531,0,0,1,.9.5244,3.3246,3.3246,0,0,1,.63.7431,8.0178,8.0178,0,0,1,.45.8321l-1.0795.4951a4.6922,4.6922,0,0,0-.3155-.6524,2.3907,2.3907,0,0,0-.4272-.54,1.8376,1.8376,0,0,0-.585-.3672,2.2066,2.2066,0,0,0-.8174-.1357,2.05,2.05,0,0,0-1.8525.9453,4.6045,4.6045,0,0,0-.6079,2.52v1.71a4.6032,4.6032,0,0,0,.6079,2.5195,2.05,2.05,0,0,0,1.8525.9453,2.2055,2.2055,0,0,0,.8174-.1348,1.8574,1.8574,0,0,0,.585-.3681,2.3672,2.3672,0,0,0,.4272-.54,4.5842,4.5842,0,0,0,.3155-.6523l1.0795.4951a6.7216,6.7216,0,0,1-.45.84,3.3723,3.3723,0,0,1-.63.7353,2.855,2.855,0,0,1-.9.5244A3.5773,3.5773,0,0,1,128.1318,125.8229Z"/><path class="cls-3" d="M110.9116,132.2429v13.47h-4.2v-.93h3.1651v-11.61h-3.1651v-.93Z"/><path class="cls-3" d="M91.502,150.2429a1.2054,1.2054,0,0,1,.9453.3525,1.2693,1.2693,0,0,1,.3149.8779v.9444a2.7754,2.7754,0,0,1-.0825.7128,2.7256,2.7256,0,0,1-.2026.54,2.5068,2.5068,0,0,1-.27.42q-.15.1875-.2851.3525a2.331,2.331,0,0,0-.3521.5176,1.0993,1.0993,0,0,0-.0976.4571.8719.8719,0,0,0,.5249.833,3.5677,3.5677,0,0,0,1.5449.2627h1.17v.93h-1.17a3.5677,3.5677,0,0,0-1.5449.2627.8716.8716,0,0,0-.5249.8321,1.1034,1.1034,0,0,0,.0976.458,2.331,2.331,0,0,0,.3521.5176c.09.1093.185.2275.2851.3525a2.4214,2.4214,0,0,1,.27.4268,3.0035,3.0035,0,0,1,.2026.54,2.6924,2.6924,0,0,1,.0825.7051v.9453a1.2668,1.2668,0,0,1-.3149.8769,1.202,1.202,0,0,1-.9453.3526h-2.64v-.93h2.8648v-1.1553a2.004,2.004,0,0,0-.18-.9443,5.0477,5.0477,0,0,0-.42-.6455q-.255-.33-.48-.6826a1.5113,1.5113,0,0,1-.2251-.8321,1.2961,1.2961,0,0,1,.4428-1.02,2.2387,2.2387,0,0,1,1.2076-.4941v-.0606a2.2309,2.2309,0,0,1-1.2076-.4951,1.2926,1.2926,0,0,1-.4428-1.0195,1.5165,1.5165,0,0,1,.2251-.833q.2248-.3516.48-.6826a5.0389,5.0389,0,0,0,.42-.6446,2.0057,2.0057,0,0,0,.18-.9453v-1.1553H88.8623v-.93Z"/><rect class="cls-1" x="323.6233" y="24.0411" width="212.3254" height="193.5289" rx="0.8806"/><path class="cls-3" d="M351.97,55.7756a1.2037,1.2037,0,0,1-.9453-.3526,1.268,1.268,0,0,1-.3149-.8774v-.9448a2.6688,2.6688,0,0,1,.0825-.7051,2.9561,2.9561,0,0,1,.2026-.54,2.416,2.416,0,0,1,.27-.4272q.15-.1875.2852-.3525a2.32,2.32,0,0,0,.3521-.5176A1.1074,1.1074,0,0,0,352,50.6008a.8727.8727,0,0,0-.5249-.8326,3.5693,3.5693,0,0,0-1.5449-.2627h-1.17v-.93h1.17a3.5618,3.5618,0,0,0,1.5449-.2627A.8718.8718,0,0,0,352,47.4806a1.1091,1.1091,0,0,0-.0976-.4575,2.331,2.331,0,0,0-.3521-.5176q-.1354-.1647-.2852-.3525a2.4924,2.4924,0,0,1-.27-.42,2.6833,2.6833,0,0,1-.2026-.54,2.75,2.75,0,0,1-.0825-.7124v-.9448a1.268,1.268,0,0,1,.3149-.8774,1.2037,1.2037,0,0,1,.9453-.3526h2.64v.93h-2.8648v1.1553a2.0035,2.0035,0,0,0,.18.9448,4.9975,4.9975,0,0,0,.42.645q.2548.33.48.6827a1.5148,1.5148,0,0,1,.2251.8325,1.295,1.295,0,0,1-.4429,1.02,2.2379,2.2379,0,0,1-1.2075.4951v.06a2.2414,2.2414,0,0,1,1.2075.4946,1.2957,1.2957,0,0,1,.4429,1.02,1.5136,1.5136,0,0,1-.2251.8325q-.2249.3531-.48.6827a5.0321,5.0321,0,0,0-.42.645,2.0063,2.0063,0,0,0-.18.9448v1.1553h2.8648v.93Z"/><path class="cls-4" d="M367.7939,64.7609V60.6056h1.14v4.1553Zm2.6553,0V60.6056h1.14v4.1553Z"/><path class="cls-4" d="M378.6841,71.8859a3.6181,3.6181,0,0,1-1.4624-.2851,3.0526,3.0526,0,0,1-1.11-.8174,3.6492,3.6492,0,0,1-.6977-1.2749,5.9276,5.9276,0,0,1,0-3.3379,3.6348,3.6348,0,0,1,.6977-1.2822,3.0515,3.0515,0,0,1,1.11-.8174,3.8919,3.8919,0,0,1,2.9248,0,3.0511,3.0511,0,0,1,1.11.8174,3.6445,3.6445,0,0,1,.6978,1.2822,5.93,5.93,0,0,1,0,3.3379,3.659,3.659,0,0,1-.6978,1.2749,3.0523,3.0523,0,0,1-1.11.8174A3.6188,3.6188,0,0,1,378.6841,71.8859Zm0-1.0351a2.22,2.22,0,0,0,1.62-.6,2.4982,2.4982,0,0,0,.6147-1.86v-1.11a2.4992,2.4992,0,0,0-.6147-1.86,2.4885,2.4885,0,0,0-3.24,0,2.4972,2.4972,0,0,0-.6148,1.86v1.11a2.4962,2.4962,0,0,0,.6148,1.86A2.22,2.22,0,0,0,378.6841,70.8508Z"/><path class="cls-4" d="M384.3389,70.6706h2.2651v-5.67h-2.2651V63.9655h3.4653v1.95h.0747a2.5759,2.5759,0,0,1,.9077-1.4326,2.6992,2.6992,0,0,1,1.7027-.5176h1.0795v1.2h-1.4545a2.3464,2.3464,0,0,0-1.6729.5986,2.0537,2.0537,0,0,0-.6372,1.57v3.336h3v1.0351h-6.4653Z"/><path class="cls-4" d="M394.7939,64.7609V60.6056h1.14v4.1553Zm2.6553,0V60.6056h1.14v4.1553Z"/><path class="cls-3" d="M405.6836,65.9006a1.1748,1.1748,0,0,1-.8623-.2549.8875.8875,0,0,1-.2476-.645v-.27a.8892.8892,0,0,1,.2476-.645,1.586,1.586,0,0,1,1.7246,0,.89.89,0,0,1,.2476.645v.27a.888.888,0,0,1-.2476.645A1.1748,1.1748,0,0,1,405.6836,65.9006Zm0,5.94a1.177,1.177,0,0,1-.8623-.2549.8874.8874,0,0,1-.2476-.645v-.27a.889.889,0,0,1,.2476-.645,1.586,1.586,0,0,1,1.7246,0,.8894.8894,0,0,1,.2476.645v.27a.8878.8878,0,0,1-.2476.645A1.177,1.177,0,0,1,405.6836,71.8405Z"/><path class="cls-3" d="M422.5586,73.7756v-13.47h4.2v.93h-3.165v11.61h3.165v.93Z"/><path class="cls-3" d="M390.3989,89.7057l-.8847-2.9848h-3.6753l-.8848,2.9848h-1.3052l3.21-10.47h1.665l3.21,10.47Zm-2.6548-9.1347h-.1352l-1.47,5.0547h3.0747Z"/><path class="cls-3" d="M396.0391,87.6657h1.935L396.249,91.821h-1.0049Z"/><path class="cls-3" d="M384.5039,97.2355h3.5552a2.9285,2.9285,0,0,1,2.1152.7354,2.5983,2.5983,0,0,1,.7647,1.9648,2.2244,2.2244,0,0,1-.4576,1.4849,2.4684,2.4684,0,0,1-1.1772.7651v.0449a2.9561,2.9561,0,0,1,1.4551.7876,2.2841,2.2841,0,0,1,.57,1.6724,3.3267,3.3267,0,0,1-.21,1.1851,2.8443,2.8443,0,0,1-.5927.96,2.8009,2.8009,0,0,1-.9.6377,2.69,2.69,0,0,1-1.1172.2324h-4.0054Zm3.42,4.5454a1.971,1.971,0,0,0,1.2446-.3525,1.278,1.278,0,0,0,.45-1.0728v-.5849a1.3,1.3,0,0,0-.45-1.08,1.9429,1.9429,0,0,0-1.2446-.36h-2.16v3.45Zm.21,4.83a2.1507,2.1507,0,0,0,1.3647-.39,1.4344,1.4344,0,0,0,.4951-1.2v-.6148a1.4381,1.4381,0,0,0-.4951-1.1928,2.125,2.125,0,0,0-1.3647-.3975h-2.37v3.7949Z"/><path class="cls-3" d="M396.0391,105.6657h1.935l-1.7251,4.1553h-1.0049Z"/><path class="cls-3" d="M388.0293,125.8859a3.2079,3.2079,0,0,1-2.8579-1.395,9.0876,9.0876,0,0,1,0-8.04,3.2069,3.2069,0,0,1,2.8579-1.3951,3.5772,3.5772,0,0,1,1.2446.1949,2.8617,2.8617,0,0,1,.9.5249,3.32,3.32,0,0,1,.63.7426,8.0112,8.0112,0,0,1,.45.8326l-1.08.4951a4.66,4.66,0,0,0-.3154-.6529,2.3994,2.3994,0,0,0-.4273-.54,1.8448,1.8448,0,0,0-.5849-.3672,2.2075,2.2075,0,0,0-.8174-.1352,2.0491,2.0491,0,0,0-1.8525.9453,4.6038,4.6038,0,0,0-.608,2.52v1.71a4.6061,4.6061,0,0,0,.608,2.52,2.05,2.05,0,0,0,1.8525.9448,2.2059,2.2059,0,0,0,.8174-.1348,1.8457,1.8457,0,0,0,.5849-.3676,2.3757,2.3757,0,0,0,.4273-.54,4.6256,4.6256,0,0,0,.3154-.6523l1.08.4946a6.7458,6.7458,0,0,1-.45.84,3.38,3.38,0,0,1-.63.7349,2.8466,2.8466,0,0,1-.9.5249A3.5768,3.5768,0,0,1,388.0293,125.8859Z"/><path class="cls-3" d="M370.8091,132.3058v13.47h-4.2v-.93h3.165v-11.61h-3.165v-.93Z"/><path class="cls-3" d="M351.3994,150.3058a1.2035,1.2035,0,0,1,.9453.3526,1.2676,1.2676,0,0,1,.315.8774v.9448a2.7713,2.7713,0,0,1-.0826.7124,2.7015,2.7015,0,0,1-.2026.54,2.4862,2.4862,0,0,1-.27.42c-.1.1255-.1948.2427-.2852.3525a2.3266,2.3266,0,0,0-.352.5176,1.1013,1.1013,0,0,0-.0977.4575.8718.8718,0,0,0,.5249.8326,3.5608,3.5608,0,0,0,1.545.2627h1.17v.93h-1.17a3.5682,3.5682,0,0,0-1.545.2627.8727.8727,0,0,0-.5249.8326,1.1,1.1,0,0,0,.0977.4575,2.3152,2.3152,0,0,0,.352.5176c.09.11.1851.2275.2852.3525a2.41,2.41,0,0,1,.27.4272,2.9782,2.9782,0,0,1,.2026.54,2.69,2.69,0,0,1,.0826.7051v.9448a1.2676,1.2676,0,0,1-.315.8774,1.2035,1.2035,0,0,1-.9453.3526h-2.64v-.93h2.8647v-1.1553a2.005,2.005,0,0,0-.18-.9448,5.0214,5.0214,0,0,0-.42-.645q-.2549-.33-.48-.6827a1.5136,1.5136,0,0,1-.2251-.8325,1.2945,1.2945,0,0,1,.4429-1.02,2.2417,2.2417,0,0,1,1.2075-.4946v-.06a2.2382,2.2382,0,0,1-1.2075-.4951,1.2938,1.2938,0,0,1-.4429-1.02,1.5148,1.5148,0,0,1,.2251-.8325q.2249-.3523.48-.6827a4.987,4.987,0,0,0,.42-.645,2.0023,2.0023,0,0,0,.18-.9448v-1.1553H348.76v-.93Z"/><rect class="cls-1" x="583.5719" y="24.0411" width="212.3254" height="193.5289" rx="0.8806"/><path class="cls-3" d="M611.97,55.7756a1.2037,1.2037,0,0,1-.9453-.3526,1.268,1.268,0,0,1-.3149-.8774v-.9448a2.6688,2.6688,0,0,1,.0825-.7051,2.9561,2.9561,0,0,1,.2026-.54,2.416,2.416,0,0,1,.27-.4272q.15-.1875.2852-.3525a2.32,2.32,0,0,0,.3521-.5176A1.1074,1.1074,0,0,0,612,50.6008a.8727.8727,0,0,0-.5249-.8326,3.5693,3.5693,0,0,0-1.5449-.2627h-1.17v-.93h1.17a3.5618,3.5618,0,0,0,1.5449-.2627A.8718.8718,0,0,0,612,47.4806a1.1091,1.1091,0,0,0-.0976-.4575,2.331,2.331,0,0,0-.3521-.5176q-.1354-.1647-.2852-.3525a2.4924,2.4924,0,0,1-.27-.42,2.6833,2.6833,0,0,1-.2026-.54,2.75,2.75,0,0,1-.0825-.7124v-.9448a1.268,1.268,0,0,1,.3149-.8774,1.2037,1.2037,0,0,1,.9453-.3526h2.64v.93h-2.8648v1.1553a2.0035,2.0035,0,0,0,.18.9448,4.9975,4.9975,0,0,0,.42.645q.2548.33.48.6827a1.5148,1.5148,0,0,1,.2251.8325,1.295,1.295,0,0,1-.4429,1.02,2.2379,2.2379,0,0,1-1.2075.4951v.06a2.2414,2.2414,0,0,1,1.2075.4946,1.2957,1.2957,0,0,1,.4429,1.02,1.5136,1.5136,0,0,1-.2251.8325q-.2248.3531-.48.6827a5.0321,5.0321,0,0,0-.42.645,2.0063,2.0063,0,0,0-.18.9448v1.1553h2.8648v.93Z"/><path class="cls-4" d="M627.7939,64.7609V60.6056h1.14v4.1553Zm2.6553,0V60.6056h1.14v4.1553Z"/><path class="cls-4" d="M638.6841,71.8859a3.6181,3.6181,0,0,1-1.4624-.2851,3.0526,3.0526,0,0,1-1.11-.8174,3.6492,3.6492,0,0,1-.6977-1.2749,5.9276,5.9276,0,0,1,0-3.3379,3.6348,3.6348,0,0,1,.6977-1.2822,3.0515,3.0515,0,0,1,1.11-.8174,3.8919,3.8919,0,0,1,2.9248,0,3.0511,3.0511,0,0,1,1.11.8174,3.6445,3.6445,0,0,1,.6978,1.2822,5.93,5.93,0,0,1,0,3.3379,3.659,3.659,0,0,1-.6978,1.2749,3.0523,3.0523,0,0,1-1.11.8174A3.6188,3.6188,0,0,1,638.6841,71.8859Zm0-1.0351a2.22,2.22,0,0,0,1.62-.6,2.4982,2.4982,0,0,0,.6147-1.86v-1.11a2.4992,2.4992,0,0,0-.6147-1.86,2.4885,2.4885,0,0,0-3.24,0,2.4972,2.4972,0,0,0-.6148,1.86v1.11a2.4962,2.4962,0,0,0,.6148,1.86A2.22,2.22,0,0,0,638.6841,70.8508Z"/><path class="cls-4" d="M644.3389,70.6706h2.2651v-5.67h-2.2651V63.9655h3.4653v1.95h.0747a2.5759,2.5759,0,0,1,.9077-1.4326,2.6992,2.6992,0,0,1,1.7027-.5176h1.08v1.2h-1.4545a2.3464,2.3464,0,0,0-1.6729.5986,2.0537,2.0537,0,0,0-.6372,1.57v3.336h3v1.0351h-6.4653Z"/><path class="cls-4" d="M654.7939,64.7609V60.6056h1.14v4.1553Zm2.6553,0V60.6056h1.14v4.1553Z"/><path class="cls-3" d="M665.6836,65.9006a1.1748,1.1748,0,0,1-.8623-.2549.8875.8875,0,0,1-.2476-.645v-.27a.8892.8892,0,0,1,.2476-.645,1.586,1.586,0,0,1,1.7246,0,.89.89,0,0,1,.2476.645v.27a.888.888,0,0,1-.2476.645A1.1748,1.1748,0,0,1,665.6836,65.9006Zm0,5.94a1.177,1.177,0,0,1-.8623-.2549.8874.8874,0,0,1-.2476-.645v-.27a.889.889,0,0,1,.2476-.645,1.586,1.586,0,0,1,1.7246,0,.8894.8894,0,0,1,.2476.645v.27a.8878.8878,0,0,1-.2476.645A1.177,1.177,0,0,1,665.6836,71.8405Z"/><path class="cls-3" d="M682.5586,73.7756v-13.47h4.2v.93h-3.165v11.61h3.165v.93Z"/><path class="cls-3" d="M650.3989,89.7057l-.8847-2.9848h-3.6753l-.8848,2.9848h-1.3052l3.21-10.47h1.665l3.21,10.47Zm-2.6548-9.1347h-.1352l-1.47,5.0547h3.0747Z"/><path class="cls-3" d="M656.0391,87.6657h1.935L656.249,91.821h-1.0049Z"/><path class="cls-5" d="M645.7939,100.7609V96.6056h1.14v4.1553Zm2.6553,0V96.6056h1.14v4.1553Z"/><path class="cls-5" d="M659.6089,107.7057a1.2431,1.2431,0,0,1-1.0049-.36,1.7464,1.7464,0,0,1-.375-.9h-.0747a2.1711,2.1711,0,0,1-.8179,1.0571,2.6367,2.6367,0,0,1-1.5073.3828,2.8324,2.8324,0,0,1-1.9351-.63,2.1725,2.1725,0,0,1-.72-1.7246,1.95,1.95,0,0,1,.7871-1.665,4.3229,4.3229,0,0,1,2.5425-.585h1.65V102.52a1.6139,1.6139,0,0,0-.48-1.2744,1.9949,1.9949,0,0,0-1.3652-.4248,2.387,2.387,0,0,0-1.2749.3071,2.3115,2.3115,0,0,0-.7949.8325l-.81-.6a2.7159,2.7159,0,0,1,.4048-.5869,2.5753,2.5753,0,0,1,.63-.5083,3.428,3.428,0,0,1,.8549-.35,4.088,4.088,0,0,1,1.0655-.1294,3.21,3.21,0,0,1,2.1675.6914,2.4058,2.4058,0,0,1,.8022,1.9243v4.2691h1.08v1.0351Zm-3.57-.8252a2.9928,2.9928,0,0,0,.8476-.1123,2.4935,2.4935,0,0,0,.6675-.3,1.403,1.403,0,0,0,.4424-.45,1.0739,1.0739,0,0,0,.1577-.5625v-1.2749h-1.65a3.1536,3.1536,0,0,0-1.5747.3.96.96,0,0,0-.4951.87v.3149a1.0469,1.0469,0,0,0,.4277.9077A1.982,1.982,0,0,0,656.0391,106.8805Z"/><path class="cls-5" d="M662.6538,107.7057v-7.74h1.2v1.26h.06a3.1032,3.1032,0,0,1,.3-.5474,1.9212,1.9212,0,0,1,.4428-.4575,2.2062,2.2062,0,0,1,.6226-.315,2.6558,2.6558,0,0,1,.84-.12,2.5646,2.5646,0,0,1,1.95.7725,3.0411,3.0411,0,0,1,.7353,2.1826v4.9648h-1.2v-4.7548a2.3126,2.3126,0,0,0-.4648-1.5826,1.7407,1.7407,0,0,0-1.3653-.5175,2.778,2.778,0,0,0-.705.09,2.0179,2.0179,0,0,0-.6148.27,1.3827,1.3827,0,0,0-.435.4654,1.2891,1.2891,0,0,0-.1651.66v5.37Z"/><path class="cls-5" d="M676.5586,106.446h-.06a2.5073,2.5073,0,0,1-2.3847,1.44,2.6318,2.6318,0,0,1-2.2276-1.0649,5.9519,5.9519,0,0,1,0-5.97,2.6317,2.6317,0,0,1,2.2276-1.065,2.5072,2.5072,0,0,1,2.3847,1.44h.06v-4.62h1.2v11.1h-1.2Zm-1.98.375a2.7115,2.7115,0,0,0,.7652-.1055,1.9522,1.9522,0,0,0,.63-.3071,1.5061,1.5061,0,0,0,.4273-.4951,1.4179,1.4179,0,0,0,.1577-.6827v-2.79a1.4165,1.4165,0,0,0-.1577-.6821,1.4951,1.4951,0,0,0-.4273-.4951,1.9532,1.9532,0,0,0-.63-.3077,2.73,2.73,0,0,0-.7652-.1049,2.082,2.082,0,0,0-1.6274.6377,2.4152,2.4152,0,0,0-.5777,1.6875v1.32a2.4152,2.4152,0,0,0,.5777,1.6875A2.082,2.082,0,0,0,674.5786,106.821Z"/><path class="cls-5" d="M681.7935,100.7609V96.6056h1.14v4.1553Zm2.6547,0V96.6056h1.14v4.1553Z"/><path class="cls-3" d="M692.6826,101.9006a1.1751,1.1751,0,0,1-.8623-.2549.8876.8876,0,0,1-.2471-.645v-.27a.8892.8892,0,0,1,.2471-.645,1.586,1.586,0,0,1,1.7246,0,.89.89,0,0,1,.2481.645v.27a.8879.8879,0,0,1-.2481.645A1.1748,1.1748,0,0,1,692.6826,101.9006Zm0,5.94a1.1773,1.1773,0,0,1-.8623-.2549.8874.8874,0,0,1-.2471-.645v-.27a.889.889,0,0,1,.2471-.645,1.586,1.586,0,0,1,1.7246,0,.8894.8894,0,0,1,.2481.645v.27a.8878.8878,0,0,1-.2481.645A1.177,1.177,0,0,1,692.6826,107.8405Z"/><path class="cls-3" d="M709.5576,109.7756v-13.47h4.2v.93h-3.165v11.61h3.165v.93Z"/><path class="cls-3" d="M662.5034,115.2355h3.5552a2.9285,2.9285,0,0,1,2.1152.7354,2.5983,2.5983,0,0,1,.7647,1.9648,2.2249,2.2249,0,0,1-.4575,1.4849,2.4691,2.4691,0,0,1-1.1773.7651v.0449a2.9557,2.9557,0,0,1,1.4551.7876,2.2841,2.2841,0,0,1,.57,1.6724,3.3289,3.3289,0,0,1-.21,1.1851,2.8461,2.8461,0,0,1-.5928.96,2.8009,2.8009,0,0,1-.9.6377,2.69,2.69,0,0,1-1.1172.2324h-4.0054Zm3.42,4.5454a1.9713,1.9713,0,0,0,1.2447-.3525,1.278,1.278,0,0,0,.45-1.0728v-.5849a1.3,1.3,0,0,0-.45-1.08,1.9432,1.9432,0,0,0-1.2447-.36h-2.16v3.45Zm.21,4.83a2.15,2.15,0,0,0,1.3647-.39,1.4345,1.4345,0,0,0,.4952-1.2v-.6148a1.4382,1.4382,0,0,0-.4952-1.1928,2.1248,2.1248,0,0,0-1.3647-.3975h-2.37v3.7949Z"/><path class="cls-3" d="M674.0386,123.6657h1.935l-1.7251,4.1553h-1.0048Z"/><path class="cls-3" d="M666.0288,143.8859a3.2079,3.2079,0,0,1-2.8579-1.395,9.0876,9.0876,0,0,1,0-8.04,3.2069,3.2069,0,0,1,2.8579-1.3951,3.5772,3.5772,0,0,1,1.2446.1949,2.8617,2.8617,0,0,1,.9.5249,3.32,3.32,0,0,1,.63.7426,8.0112,8.0112,0,0,1,.45.8326l-1.08.4951a4.66,4.66,0,0,0-.3154-.6529,2.4018,2.4018,0,0,0-.4272-.54,1.8463,1.8463,0,0,0-.585-.3672,2.2075,2.2075,0,0,0-.8174-.1352,2.0492,2.0492,0,0,0-1.8525.9453,4.6038,4.6038,0,0,0-.6079,2.52v1.71a4.6062,4.6062,0,0,0,.6079,2.52,2.05,2.05,0,0,0,1.8525.9448,2.2059,2.2059,0,0,0,.8174-.1348,1.8473,1.8473,0,0,0,.585-.3676,2.378,2.378,0,0,0,.4272-.54,4.6256,4.6256,0,0,0,.3154-.6523l1.08.4946a6.7458,6.7458,0,0,1-.45.84,3.38,3.38,0,0,1-.63.7349,2.8466,2.8466,0,0,1-.9.5249A3.5768,3.5768,0,0,1,666.0288,143.8859Z"/><path class="cls-3" d="M648.8091,150.3058v13.47h-4.2v-.93h3.165v-11.61h-3.165v-.93Z"/><path class="cls-3" d="M630.8091,168.3058v13.47h-4.2v-.93h3.165v-11.61h-3.165v-.93Z"/><path class="cls-3" d="M611.3994,186.3058a1.2035,1.2035,0,0,1,.9453.3526,1.2676,1.2676,0,0,1,.315.8774v.9448a2.7713,2.7713,0,0,1-.0826.7124,2.7015,2.7015,0,0,1-.2026.54,2.4862,2.4862,0,0,1-.27.42c-.1.1255-.1948.2427-.2852.3525a2.3266,2.3266,0,0,0-.352.5176,1.1013,1.1013,0,0,0-.0977.4575.8718.8718,0,0,0,.5249.8326,3.5608,3.5608,0,0,0,1.545.2627h1.17v.93h-1.17a3.5682,3.5682,0,0,0-1.545.2627.8727.8727,0,0,0-.5249.8326,1.1,1.1,0,0,0,.0977.4575,2.3152,2.3152,0,0,0,.352.5176c.09.11.1851.2275.2852.3525a2.41,2.41,0,0,1,.27.4272,2.9782,2.9782,0,0,1,.2026.54,2.69,2.69,0,0,1,.0826.7051v.9448a1.2676,1.2676,0,0,1-.315.8774,1.2035,1.2035,0,0,1-.9453.3526h-2.64v-.93h2.8647v-1.1553a2.005,2.005,0,0,0-.18-.9448,5.0214,5.0214,0,0,0-.42-.645q-.2549-.33-.48-.6827a1.5136,1.5136,0,0,1-.2251-.8325,1.2945,1.2945,0,0,1,.4429-1.02,2.2417,2.2417,0,0,1,1.2075-.4946v-.06a2.2382,2.2382,0,0,1-1.2075-.4951,1.2938,1.2938,0,0,1-.4429-1.02,1.5148,1.5148,0,0,1,.2251-.8325q.2249-.3523.48-.6827a4.987,4.987,0,0,0,.42-.645,2.0023,2.0023,0,0,0,.18-.9448v-1.1553H608.76v-.93Z"/><circle class="cls-2" cx="323.8262" cy="24.3098" r="13.7398"/><circle class="cls-2" cx="585.5282" cy="25.3098" r="13.7398"/><path class="cls-6" d="M60.3091,28.35v-.9864h2.7026V19.7551H62.917l-2.3784,2.2163-.6621-.7163,2.5-2.3379H64.147v8.4467h2.4868V28.35Z"/><path class="cls-6" d="M327.0288,28.35H320.731V27.1882L323.88,24.35a7.1463,7.1463,0,0,0,1.1352-1.2769,2.4217,2.4217,0,0,0,.4458-1.3852v-.1621a1.83,1.83,0,0,0-.4458-1.3179,1.7505,1.7505,0,0,0-1.3242-.4663,1.8679,1.8679,0,0,0-1.3315.4394,2.6694,2.6694,0,0,0-.6958,1.169l-1.0137-.3784a4.01,4.01,0,0,1,.3716-.8179,2.8269,2.8269,0,0,1,.6015-.71,2.861,2.861,0,0,1,.8853-.5,3.5359,3.5359,0,0,1,1.2095-.1889,3.5812,3.5812,0,0,1,1.25.2026,2.5641,2.5641,0,0,1,.9189.5674,2.4579,2.4579,0,0,1,.5679.8652,2.9806,2.9806,0,0,1,.1958,1.0947,3.2317,3.2317,0,0,1-.1553,1.0137,3.9871,3.9871,0,0,1-.4326.9053,5.8912,5.8912,0,0,1-.6621.8447,10.6555,10.6555,0,0,1-.8584.8174l-2.6353,2.2978h5.1221Z"/><path class="cls-6" d="M585.1226,23.904a2.1744,2.1744,0,0,0,1.48-.4375,1.4336,1.4336,0,0,0,.4932-1.1236v-.0942a1.35,1.35,0,0,0-.48-1.13,1.9662,1.9662,0,0,0-1.25-.3769,2.0687,2.0687,0,0,0-1.2231.331,2.5676,2.5676,0,0,0-.7632.8721l-.8516-.6489a3.667,3.667,0,0,1,.4326-.561,2.9678,2.9678,0,0,1,.6011-.4932,3.232,3.232,0,0,1,.7974-.3511,3.61,3.61,0,0,1,1.0342-.1352,3.9966,3.9966,0,0,1,1.1347.1552,2.7647,2.7647,0,0,1,.92.4585,2.163,2.163,0,0,1,.6147.7491,2.4269,2.4269,0,0,1,.0811,1.8349,1.9756,1.9756,0,0,1-.3921.6338,2.3681,2.3681,0,0,1-.5879.459,2.8947,2.8947,0,0,1-.7163.2832v.0542a3.09,3.09,0,0,1,.7568.2637,2.3959,2.3959,0,0,1,.6489.4741,2.18,2.18,0,0,1,.4527.7036,2.4635,2.4635,0,0,1,.1689.94,2.6175,2.6175,0,0,1-.2363,1.1167,2.4918,2.4918,0,0,1-.6626.8662,3.1284,3.1284,0,0,1-1.0269.562,4.1568,4.1568,0,0,1-1.331.2027,4.06,4.06,0,0,1-1.1016-.1353,3.3139,3.3139,0,0,1-.8515-.3647,3.3715,3.3715,0,0,1-.6485-.5137,4.5542,4.5542,0,0,1-.4931-.5947l.851-.6485a4.8068,4.8068,0,0,0,.3921.5137,2.1681,2.1681,0,0,0,1.0674.6621,2.9229,2.9229,0,0,0,.7842.0948,2.2863,2.2863,0,0,0,1.5337-.4595,1.6359,1.6359,0,0,0,.5337-1.3111v-.1084a1.641,1.641,0,0,0-.52-1.2973,2.3,2.3,0,0,0-1.561-.4595H584.082V23.904Z"/></svg>