<svg id="Layer_1" data-name="Layer 1" xmlns="http://www.w3.org/2000/svg" width="1056" height="752" viewBox="0 0 1056 752"><defs><style>.cls-1{fill:#f0f0f0;}.cls-10,.cls-12,.cls-13,.cls-14,.cls-19,.cls-2,.cls-20,.cls-21,.cls-22,.cls-5,.cls-6{fill:none;}.cls-10,.cls-11,.cls-12,.cls-13,.cls-14,.cls-16,.cls-2,.cls-3{stroke:#fff;}.cls-10,.cls-11,.cls-12,.cls-2,.cls-20,.cls-21,.cls-22,.cls-5{stroke-linecap:round;}.cls-14,.cls-16,.cls-19,.cls-2,.cls-20,.cls-21,.cls-22,.cls-3{stroke-miterlimit:10;}.cls-10,.cls-11,.cls-2,.cls-3{stroke-width:1.0318px;}.cls-4{fill:#002d9c;}.cls-5{stroke:#a0a0a0;stroke-dasharray:0 4 0 4 0 4;}.cls-10,.cls-11,.cls-12,.cls-13,.cls-5,.cls-6{stroke-linejoin:round;}.cls-19,.cls-6{stroke:#6f6f6f;}.cls-19,.cls-20,.cls-21,.cls-22,.cls-6{stroke-width:0.5px;}.cls-7{fill:#6f6f6f;}.cls-8{fill:#bebebe;}.cls-11,.cls-9{fill:#757575;}.cls-12,.cls-13,.cls-14{stroke-width:0.72px;}.cls-15{fill:#0f62fe;}.cls-16{fill:#fff;stroke-width:0.25px;fill-rule:evenodd;}.cls-17{fill:#8a3ffc;}.cls-18{fill:#009d9a;}.cls-20,.cls-21,.cls-22{stroke:#a56eff;}.cls-21{stroke-dasharray:2.9782 1.9855 2.9782 1.9855;}.cls-22{stroke-dasharray:2.9782 1.9855 2.9782 1.9855 2.9782 1.9855;}.cls-23{fill:#a56eff;}</style></defs><rect class="cls-1" x="789.1098" y="114.3129" width="146.8902" height="566.7935"/><path d="M829.3359,24.6554l1.837-1.8554a4.178,4.178,0,0,0,3.2148,1.47c1.3594,0,2.0215-.6064,2.0215-1.5435,0-.6982-.294-1.2124-1.4883-1.3779l-1.2676-.165c-2.7012-.3491-3.9316-1.6719-3.9316-3.8213,0-2.2964,1.8008-3.895,4.8135-3.895a5.7077,5.7077,0,0,1,4.4453,1.8l-1.8555,1.874a3.3515,3.3515,0,0,0-2.7559-1.2124c-1.249,0-1.8554.4775-1.8554,1.2495,0,.8818.46,1.2124,1.5254,1.3774l1.2675.2022c2.627.4228,3.8946,1.5986,3.8946,3.8032,0,2.4614-1.8,4.17-4.9971,4.17A6.2345,6.2345,0,0,1,829.3359,24.6554Z"/><path d="M840.7627,21.6794c0-3.0865,1.5986-5.0342,4.501-5.0342a3.7906,3.7906,0,0,1,3.8584,2.5171l-2.2051.9556a1.5962,1.5962,0,0,0-1.6533-1.3233c-1.1016,0-1.6719.79-1.6719,2.0029v1.8c0,1.2124.57,2.0025,1.6719,2.0025a1.814,1.814,0,0,0,1.8008-1.4512l2.1123.9185a3.7782,3.7782,0,0,1-3.9131,2.6635C842.3613,26.7311,840.7627,24.7658,840.7627,21.6794Z"/><path d="M850.17,21.6794c0-3.105,1.6905-5.0342,4.52-5.0342s4.5195,1.9292,4.5195,5.0342-1.69,5.0517-4.5195,5.0517S850.17,24.7839,850.17,21.6794Zm6.21.9917V20.7057c0-1.2128-.625-1.9111-1.69-1.9111s-1.69.6983-1.69,1.9111v1.9654c0,1.2129.625,1.9106,1.69,1.9106S856.38,23.884,856.38,22.6711Z"/><path d="M861.1377,16.8659h2.7187v1.6167h.0918a2.614,2.614,0,0,1,2.5909-1.8374c2.4433,0,3.7109,1.7637,3.7109,5.0342s-1.2676,5.0517-3.7109,5.0517a2.6348,2.6348,0,0,1-2.5909-1.8369h-.0918v5.291h-2.7187Zm6.2832,5.6582V20.8522a1.8123,1.8123,0,0,0-1.7822-2.0024c-1.0283,0-1.7823.5327-1.7823,1.4145V23.112c0,.8818.754,1.415,1.7823,1.415A1.8124,1.8124,0,0,0,867.4209,22.5241Z"/><path d="M871.7012,21.6794c0-3.05,1.6172-5.0342,4.5195-5.0342,3.1973,0,4.4824,2.3149,4.4824,4.9238v.8081h-6.19v.147A1.8949,1.8949,0,0,0,876.6436,24.6a3.058,3.058,0,0,0,2.37-1.1573l1.3593,1.69a5.2272,5.2272,0,0,1-4.0419,1.5981C873.373,26.7311,871.7012,24.7658,871.7012,21.6794Zm2.8115-1.0474v.147h3.38v-.1655c0-1.1758-.5332-1.9654-1.6162-1.9654A1.7631,1.7631,0,0,0,874.5127,20.632Z"/><path d="M881.8428,25.0046l1.5986-1.6167a3.3536,3.3536,0,0,0,2.5537,1.2309c1.0654,0,1.4326-.3491,1.4326-.9189,0-.4776-.2939-.7163-.9736-.8081l-1.0469-.1284c-2.1865-.2759-3.2519-1.231-3.2519-2.9766,0-1.8555,1.4511-3.1416,3.748-3.1416a4.8485,4.8485,0,0,1,3.9317,1.5068L888.2734,19.75a3.2243,3.2243,0,0,0-2.2236-.9922c-.918,0-1.2861.3306-1.2861.8086,0,.5141.2207.79,1.0107.9l1.084.147c2.0947.2758,3.1787,1.2309,3.1787,2.9028,0,1.8555-1.6543,3.2148-4.1338,3.2148A5.0373,5.0373,0,0,1,881.8428,25.0046Z"/><circle cx="158.6251" cy="138.4903" r="37.9116"/><path class="cls-2" d="M169.5527,125.6317a10.21,10.21,0,1,1-10.21-10.21,10.21,10.21,0,0,1,10.21,10.21"/><path class="cls-2" d="M139.4323,161.03a20.4252,20.4252,0,0,1,40.0114-.256"/><circle class="cls-2" cx="159.4654" cy="138.4903" r="30.16"/><circle class="cls-3" cx="139.4323" cy="161.03" r="2.3237" transform="translate(-66.7825 107.6682) rotate(-34.6034)"/><path d="M132.3784,194.4211l.8545-.7163a3.0619,3.0619,0,0,0,2.59,1.3774c1.378,0,2.1221-.7163,2.1221-1.8184,0-.91-.51-1.3642-1.7778-1.6538l-.7852-.1792c-1.75-.3994-2.7143-1.1709-2.7143-2.6455,0-1.7085,1.2949-2.6313,3.1826-2.6313a3.62,3.62,0,0,1,3.1831,1.5708l-.8682.6338a2.7132,2.7132,0,0,0-2.37-1.1851c-1.2261,0-1.9839.5371-1.9839,1.5708,0,.9092.5923,1.3228,1.8052,1.5982l.7852.1792c1.874.4272,2.687,1.2539,2.687,2.687,0,1.7636-1.24,2.8935-3.3072,2.8935A3.9838,3.9838,0,0,1,132.3784,194.4211Z"/><path d="M140.4526,192.382c0-2.26,1.2676-3.72,3.1968-3.72,1.9014,0,3.0728,1.46,3.0728,3.4722v.5234H141.61v.3306a2.0133,2.0133,0,0,0,2.1079,2.1494,2.0607,2.0607,0,0,0,1.9565-1.2261l.7856.5649a2.9842,2.9842,0,0,1-2.811,1.626C141.72,196.1022,140.4526,194.6413,140.4526,192.382Zm1.1578-.6479v.0966h3.9267v-.1518a1.8912,1.8912,0,0,0-1.8877-2.0943A2.0209,2.0209,0,0,0,141.61,191.7341Z"/><path d="M148.0176,192.382c0-2.2739,1.1714-3.72,3.1694-3.72a2.6645,2.6645,0,0,1,2.6592,1.667l-.9233.4683a1.7131,1.7131,0,0,0-1.7359-1.1573,1.9092,1.9092,0,0,0-1.9844,2.1358v1.2124a1.9092,1.9092,0,0,0,1.9844,2.1357,2.0064,2.0064,0,0,0,1.9287-1.24l.7993.5376a2.8034,2.8034,0,0,1-2.728,1.6811C149.189,196.1022,148.0176,194.6554,148.0176,192.382Z"/><path d="M159.8535,194.78h-.0552a1.9758,1.9758,0,0,1-1.9975,1.3227c-1.461,0-2.3975-.9922-2.3975-2.7143v-4.5611h1.1021v4.3677c0,1.2681.5649,1.9155,1.6259,1.9155.8682,0,1.7222-.4272,1.7222-1.3642v-4.919h1.1026v7.11h-1.1026Z"/><path d="M163.2988,195.9367v-7.11h1.1021v1.3091h.0688a2.0425,2.0425,0,0,1,2.0532-1.3091h.4273v1.1026h-.648c-1.185,0-1.9013.51-1.9013,1.1845v4.8228Z"/><path d="M168.2314,186.54v-.1792c0-.372.2066-.62.6748-.62s.6753.2481.6753.62v.1792c0,.3721-.2065.62-.6753.62S168.2314,186.9118,168.2314,186.54Zm.1241,2.2871h1.102v7.11h-1.102Z"/><path d="M173.3711,195.9367a1.0857,1.0857,0,0,1-1.1714-1.1714v-4.9741h-1.1714v-.9644h.6616c.4683,0,.62-.165.62-.6474v-1.3228h.9917v1.97h1.5571v.9644h-1.5571v5.1811h1.4467v.9644Z"/><path d="M181.0181,188.8268h1.0883l-3.1826,8.7632c-.3169.8545-.6064,1.1026-1.6533,1.1026h-.5649v-.9649h1.1157l.5376-1.5156L175.7,188.8268h1.1021l1.7085,4.8365.331,1.1572h.0689l.3857-1.1572Z"/><path d="M143.5464,206.3263h-1.1577v-.9643h1.1577v-1.4331a1.4684,1.4684,0,0,1,1.5566-1.6533h1.0747v.9643h-1.5293v2.1221h1.5293v.9643h-1.5293v6.1456h-1.102Z"/><path d="M147.0459,208.9172c0-2.26,1.3091-3.72,3.21-3.72s3.21,1.46,3.21,3.72-1.3091,3.72-3.21,3.72S147.0459,211.1764,147.0459,208.9172Zm5.2358.51v-1.02a2.0349,2.0349,0,1,0-4.0507,0v1.02a2.0349,2.0349,0,1,0,4.0507,0Z"/><path d="M154.7622,208.9172c0-2.274,1.1714-3.72,3.1694-3.72a2.6644,2.6644,0,0,1,2.6592,1.6669l-.9233.4683a1.713,1.713,0,0,0-1.7359-1.1572,1.9092,1.9092,0,0,0-1.9843,2.1357v1.2124a1.9092,1.9092,0,0,0,1.9843,2.1358,2.0067,2.0067,0,0,0,1.9288-1.24l.7993.5376a2.8035,2.8035,0,0,1-2.7281,1.6812C155.9336,212.6374,154.7622,211.1906,154.7622,208.9172Z"/><path d="M167.3838,212.4719a1.1485,1.1485,0,0,1-1.2266-1.1573h-.0688a2.0087,2.0087,0,0,1-2.0532,1.3228,2.0969,2.0969,0,0,1-2.3833-2.1494c0-1.3369.9643-2.0811,3.0312-2.0811h1.4053v-.7026c0-1.0059-.5513-1.5567-1.6812-1.5567a1.9842,1.9842,0,0,0-1.8047,1.0606l-.6616-.62a2.7024,2.7024,0,0,1,2.5215-1.3916c1.7085,0,2.7285.8955,2.7285,2.3974v3.9131h.8125v.9644Zm-1.2954-2.0669v-1.1709h-1.46c-1.2539,0-1.8188.3857-1.8188,1.0747v.289c0,.7027.5513,1.1026,1.4053,1.1026C165.3032,211.7,166.0884,211.1354,166.0884,210.405Z"/><path d="M170.7456,212.4719a1.0779,1.0779,0,0,1-1.1709-1.1436v-9.0527h1.1021v9.2319h1.0473v.9644Z"/><circle class="cls-4" cx="509.1431" cy="133.6963" r="37.9116"/><path d="M476.8247,189.0876c0-3.21,1.4468-5.0293,3.8716-5.0293a3.3979,3.3979,0,0,1,3.3071,2.1079l-.937.5649a2.416,2.416,0,0,0-2.37-1.64c-1.6533,0-2.6318,1.3091-2.6318,3.2793v1.4331c0,1.97.9785,3.1689,2.6318,3.1689a2.4959,2.4959,0,0,0,2.4526-1.7358l.9234.5786a3.5407,3.5407,0,0,1-3.376,2.1909C478.2715,194.0065,476.8247,192.2975,476.8247,189.0876Z"/><path d="M485.23,190.2863c0-2.26,1.3091-3.72,3.21-3.72s3.21,1.46,3.21,3.72-1.3091,3.72-3.21,3.72S485.23,192.5456,485.23,190.2863Zm5.2358.51v-1.02a2.0349,2.0349,0,1,0-4.0507,0v1.02a2.0349,2.0349,0,1,0,4.0507,0Z"/><path d="M493.47,193.841v-7.11h1.1021v1.1573h.0552a2.0155,2.0155,0,0,1,2.0117-1.3223c1.46,0,2.3838.9917,2.3838,2.7143v4.5606H497.92v-4.3677c0-1.2676-.5508-1.9155-1.6118-1.9155-.8818,0-1.7363.4409-1.7363,1.3506v4.9326Z"/><path d="M501.6821,187.6955h-1.1577v-.9644h1.1577V185.298a1.4684,1.4684,0,0,1,1.5567-1.6533h1.0747v.9644h-1.5293v2.122h3.9819v7.11h-1.102v-6.1455h-2.88v6.1455h-1.1021Zm3.8579-3.2515v-.1792c0-.372.2066-.62.6753-.62s.6748.2481.6748.62v.1792c0,.3721-.2065.62-.6748.62S505.54,184.8161,505.54,184.444Z"/><path d="M511.6577,196.7619c-2.2182,0-3.1279-.6338-3.1279-1.7495a1.333,1.333,0,0,1,1.13-1.3779v-.1519a1.03,1.03,0,0,1-.6338-.9917c0-.7168.51-1.061,1.2265-1.24v-.0552a2.3108,2.3108,0,0,1-1.3364-2.1773,2.4359,2.4359,0,0,1,2.6729-2.4521,3.19,3.19,0,0,1,1.35.2754v-.124c0-.5513.2343-.9507.8271-.9507h1.0606v.9643h-1.35v.4546a2.3632,2.3632,0,0,1,.813,1.8325,2.4411,2.4411,0,0,1-2.6871,2.4527,3.6364,3.6364,0,0,1-.6889-.0689c-.4683.1241-.937.3584-.937.7993,0,.4273.4409.5376,1.0888.5376h1.5157c1.7636,0,2.5214.7164,2.5214,1.8873C515.1025,196.0871,513.9448,196.7619,511.6577,196.7619Zm.937-2.99h-2.37a.992.992,0,0,0-.6611.9644c0,.62.4272,1.13,1.5429,1.13h1.02c1.2265,0,1.9428-.3858,1.9428-1.1572C514.0688,194.1442,513.6968,193.7721,512.5947,193.7721Zm.5371-4.56v-.3862c0-.937-.5922-1.3775-1.5293-1.3775s-1.5293.44-1.5293,1.3775v.3862c0,.9365.5923,1.3774,1.5293,1.3774S513.1318,190.1481,513.1318,189.2116Z"/><path d="M519.6357,193.841v-7.11h1.1021V188.04h.0688a2.0426,2.0426,0,0,1,2.0533-1.3091h.4272v1.1026h-.6479c-1.1851,0-1.9014.51-1.9014,1.1845v4.8228Z"/><path d="M529.0742,192.6838h-.0552a1.9757,1.9757,0,0,1-1.9975,1.3227c-1.461,0-2.3975-.9922-2.3975-2.7143v-4.5611h1.1021v4.3677c0,1.2681.5649,1.9155,1.626,1.9155.8681,0,1.7221-.4272,1.7221-1.3642v-4.919h1.1026v7.11h-1.1026Z"/><path d="M533.69,193.841a1.0779,1.0779,0,0,1-1.1709-1.1436v-9.0527h1.1021v9.2319h1.0474v.9644Z"/><path d="M535.7432,190.2863c0-2.26,1.2675-3.72,3.1967-3.72,1.9014,0,3.0728,1.46,3.0728,3.4722v.5234h-5.1118v.3306a2.0133,2.0133,0,0,0,2.1079,2.1494,2.0606,2.0606,0,0,0,1.9565-1.2261l.7857.5649a2.9843,2.9843,0,0,1-2.8111,1.626C537.0107,194.0065,535.7432,192.5456,535.7432,190.2863Zm1.1577-.6479v.0966h3.9267v-.1518a1.8912,1.8912,0,0,0-1.8877-2.0943A2.0209,2.0209,0,0,0,536.9009,189.6384Z"/><path d="M141.2524,12.675v7.8628c0,1.8008.6617,2.7007,2.315,2.7007s2.3149-.9,2.3149-2.7007V12.675h2.7188v7.5688c0,3.7847-1.3594,5.4746-5.0337,5.4746s-5.0337-1.69-5.0337-5.4746V12.675Z"/><path d="M150.42,23.9919l1.5987-1.6167a3.3541,3.3541,0,0,0,2.5537,1.2309c1.0654,0,1.4326-.3491,1.4326-.9189,0-.4776-.294-.7163-.9737-.8081l-1.0468-.1284c-2.1865-.2759-3.252-1.231-3.252-2.9766,0-1.8555,1.4512-3.1416,3.7476-3.1416a4.8474,4.8474,0,0,1,3.9316,1.5068L156.85,18.7375a3.2234,3.2234,0,0,0-2.2231-.9922c-.9185,0-1.2857.3306-1.2857.8086,0,.5141.22.79,1.01.9l1.0839.147c2.0943.2758,3.1783,1.2309,3.1783,2.9028,0,1.8555-1.6534,3.2148-4.1338,3.2148A5.0363,5.0363,0,0,1,150.42,23.9919Z"/><path d="M159.8633,20.6667c0-3.05,1.6172-5.0342,4.5195-5.0342,3.1968,0,4.4829,2.3149,4.4829,4.9238v.8081h-6.1914v.147a1.895,1.895,0,0,0,2.1314,2.0762,3.0564,3.0564,0,0,0,2.37-1.1572l1.36,1.69a5.2283,5.2283,0,0,1-4.042,1.5981C161.5352,25.7184,159.8633,23.7531,159.8633,20.6667Zm2.811-1.0474v.147h3.38v-.1655c0-1.1758-.5327-1.9654-1.6167-1.9654A1.7631,1.7631,0,0,0,162.6743,19.6193Z"/><path d="M170.7944,25.4982v-9.645h2.7193v2.0942h.0918a2.4179,2.4179,0,0,1,2.4619-2.0942h.4775v2.5352h-.68c-1.58,0-2.3515.3491-2.3515,1.47v5.64Z"/><path d="M371.2637,23.6428l1.8369-1.8555a4.1791,4.1791,0,0,0,3.2153,1.47c1.3594,0,2.0205-.6064,2.0205-1.5434,0-.6983-.2939-1.2124-1.4878-1.378l-1.2675-.165c-2.7007-.3491-3.9317-1.6719-3.9317-3.8213,0-2.2964,1.8-3.895,4.8135-3.895a5.71,5.71,0,0,1,4.4458,1.8l-1.8555,1.874a3.3534,3.3534,0,0,0-2.7558-1.2124c-1.2495,0-1.8555.4775-1.8555,1.25,0,.8818.46,1.2124,1.5249,1.3774l1.2676.2022c2.6269.4228,3.8945,1.5986,3.8945,3.8032,0,2.4614-1.8,4.17-4.9971,4.17A6.2337,6.2337,0,0,1,371.2637,23.6428Z"/><path d="M382.69,20.6667c0-3.05,1.6172-5.0342,4.52-5.0342,3.1967,0,4.4829,2.3149,4.4829,4.9238v.8081h-6.1914v.147a1.895,1.895,0,0,0,2.1313,2.0762,3.056,3.056,0,0,0,2.37-1.1572l1.36,1.69a5.2281,5.2281,0,0,1-4.042,1.5981C384.3623,25.7184,382.69,23.7531,382.69,20.6667Zm2.8111-1.0474v.147h3.38v-.1655c0-1.1758-.5327-1.9654-1.6167-1.9654A1.7631,1.7631,0,0,0,385.5015,19.6193Z"/><path d="M393.0156,20.6667c0-3.0864,1.5987-5.0342,4.5015-5.0342A3.79,3.79,0,0,1,401.375,18.15l-2.2046.9556a1.5972,1.5972,0,0,0-1.6533-1.3233c-1.1025,0-1.6719.79-1.6719,2.0029v1.8c0,1.2124.5694,2.0025,1.6719,2.0025a1.8139,1.8139,0,0,0,1.8-1.4512l2.1128.9185a3.7789,3.7789,0,0,1-3.9131,2.6635C394.6143,25.7184,393.0156,23.7531,393.0156,20.6667Z"/><path d="M408.8159,23.8815h-.0918a2.618,2.618,0,0,1-2.7007,1.8369c-1.9658,0-3.0131-1.3774-3.0131-3.8027V15.8532H405.73v5.8237c0,1.1758.3857,1.8374,1.3779,1.8374a1.5359,1.5359,0,0,0,1.7085-1.3964V15.8532h2.7188v9.645h-2.7188Z"/><path d="M414.07,25.4982v-9.645H416.79v2.0942h.0917a2.418,2.418,0,0,1,2.4615-2.0942h.478v2.5352h-.68c-1.58,0-2.3515.3491-2.3515,1.47v5.64Z"/><path d="M421.2725,13.4831v-.4043c0-.7715.4775-1.3408,1.58-1.3408s1.58.5693,1.58,1.3408v.4043c0,.7715-.4775,1.3413-1.58,1.3413S421.2725,14.2546,421.2725,13.4831Zm.22,2.37h2.7192v9.645h-2.7192Z"/><path d="M430.1274,25.4982a2.5389,2.5389,0,0,1-2.8657-2.811V17.966h-1.36V15.8532h.68c.7344,0,.9551-.3677.9551-1.0288v-1.58h2.4434v2.6089h1.9106V17.966h-1.9106v5.4194h1.7636v2.1128Z"/><path d="M439.6807,15.8532h2.5351l-3.7109,11.1333a2.7463,2.7463,0,0,1-2.958,2.186h-1.69V27.06h1.8189l.3305-1.0654-3.38-10.1411h2.7007l1.4145,4.501.6983,2.7925h.11l.7168-2.7925Z"/><path d="M455.0581,25.4982a1.8362,1.8362,0,0,1-1.8374-1.69h-.11a2.6053,2.6053,0,0,1-2.8292,1.91,2.6871,2.6871,0,0,1-2.9946-2.81c0-2.0391,1.58-3.0132,4.1338-3.0132h1.5249v-.606c0-.937-.4595-1.5249-1.5986-1.5249a2.3806,2.3806,0,0,0-2.0757,1.1392L447.6543,17.47a4.2044,4.2044,0,0,1,3.8945-1.8374c2.7193,0,4.1153,1.25,4.1153,3.5273v4.2256h.9v2.1128Zm-2.1128-2.9209V21.4382h-1.3227c-1.0474,0-1.5987.3857-1.5987,1.0839v.2754c0,.6983.4595,1.0288,1.2681,1.0288C452.1919,23.8263,452.9453,23.4592,452.9453,22.5773Z"/><path d="M458.3833,25.4982v-9.645h2.7192V17.488h.11a2.6307,2.6307,0,0,1,2.6826-1.8555c1.9654,0,3.0127,1.3965,3.0127,3.8213v6.0444H464.189V19.6745c0-1.231-.3492-1.8374-1.3413-1.8374-.8819,0-1.7452.46-1.7452,1.4145v6.2466Z"/><path d="M475.2485,23.8815h-.0918a2.6328,2.6328,0,0,1-2.59,1.8369c-2.4434,0-3.7109-1.7817-3.7109-5.0517s1.2675-5.0342,3.7109-5.0342a2.6121,2.6121,0,0,1,2.59,1.8374h.0918V11.903h2.7193V25.4982h-2.7193Zm0-1.7822V19.2516c0-.8818-.7529-1.4145-1.7817-1.4145a1.8125,1.8125,0,0,0-1.7822,2.0024v1.6719a1.8127,1.8127,0,0,0,1.7822,2.0029C474.4956,23.5143,475.2485,22.9811,475.2485,22.0993Z"/><path d="M484.49,19.1784c0-4.3359,2.2232-6.7241,5.6768-6.7241a4.7526,4.7526,0,0,1,4.7954,3.0132l-2.4067,1.249a2.2739,2.2739,0,0,0-2.3887-1.7818c-1.6348,0-2.7187,1.1021-2.7187,3.1231v2.0576c0,2.021,1.0839,3.1231,2.7187,3.1231a2.6319,2.6319,0,0,0,2.5537-1.9107l2.2783,1.3228a5.0122,5.0122,0,0,1-4.832,3.0678C486.7129,25.7184,484.49,23.5143,484.49,19.1784Z"/><path d="M496.1924,20.6667c0-3.105,1.69-5.0342,4.5195-5.0342s4.5195,1.9292,4.5195,5.0342-1.69,5.0517-4.5195,5.0517S496.1924,23.7712,496.1924,20.6667Zm6.21.9917V19.693c0-1.2128-.625-1.9111-1.69-1.9111s-1.69.6983-1.69,1.9111v1.9654c0,1.2129.6245,1.9106,1.69,1.9106S502.4023,22.8713,502.4023,21.6584Z"/><path d="M507.1606,25.4982v-9.645H509.88V17.488h.11a2.5742,2.5742,0,0,1,2.59-1.8555,2.6677,2.6677,0,0,1,2.7007,1.9478h.0551a2.9966,2.9966,0,0,1,2.9395-1.9478c1.8555,0,2.8843,1.3965,2.8843,3.8213v6.0444h-2.7188V19.6745c0-1.2495-.4223-1.8374-1.3227-1.8374a1.4486,1.4486,0,0,0-1.5987,1.4145v6.2466h-2.7187V19.6745c0-1.2495-.4409-1.8374-1.3228-1.8374a1.4577,1.4577,0,0,0-1.5981,1.4145v6.2466Z"/><path d="M523.585,15.8532h2.7192V17.47h.0918a2.6121,2.6121,0,0,1,2.59-1.8374c2.4434,0,3.711,1.7637,3.711,5.0342s-1.2676,5.0517-3.711,5.0517a2.6328,2.6328,0,0,1-2.59-1.8369h-.0918v5.291H523.585Zm6.2832,5.6582V19.84a1.8126,1.8126,0,0,0-1.7823-2.0024c-1.0288,0-1.7817.5327-1.7817,1.4145v2.8477c0,.8818.7529,1.415,1.7817,1.415A1.8128,1.8128,0,0,0,529.8682,21.5114Z"/><path d="M537.4561,25.4982a2.3629,2.3629,0,0,1-2.7007-2.6455V11.903h2.7192V23.3854h1.2124v2.1128Z"/><path d="M540.1016,13.4831v-.4043c0-.7715.4775-1.3408,1.58-1.3408s1.58.5693,1.58,1.3408v.4043c0,.7715-.4775,1.3413-1.58,1.3413S540.1016,14.2546,540.1016,13.4831Zm.22,2.37h2.7192v9.645h-2.7192Z"/><path d="M552.7046,25.4982a1.8362,1.8362,0,0,1-1.8374-1.69h-.11a2.6051,2.6051,0,0,1-2.8291,1.91,2.6871,2.6871,0,0,1-2.9946-2.81c0-2.0391,1.58-3.0132,4.1338-3.0132h1.5249v-.606c0-.937-.46-1.5249-1.5986-1.5249a2.38,2.38,0,0,0-2.0757,1.1392L545.3008,17.47a4.2044,4.2044,0,0,1,3.8945-1.8374c2.7193,0,4.1152,1.25,4.1152,3.5273v4.2256h.9v2.1128Zm-2.1128-2.9209V21.4382H549.269c-1.0473,0-1.5986.3857-1.5986,1.0839v.2754c0,.6983.46,1.0288,1.2681,1.0288C549.8384,23.8263,550.5918,23.4592,550.5918,22.5773Z"/><path d="M556.03,25.4982v-9.645h2.7192V17.488h.11a2.6307,2.6307,0,0,1,2.6826-1.8555c1.9653,0,3.0127,1.3965,3.0127,3.8213v6.0444h-2.7188V19.6745c0-1.231-.3491-1.8374-1.3413-1.8374-.8818,0-1.7451.46-1.7451,1.4145v6.2466Z"/><path d="M566.373,20.6667c0-3.0864,1.5987-5.0342,4.5015-5.0342a3.79,3.79,0,0,1,3.8579,2.5171l-2.2046.9556a1.5972,1.5972,0,0,0-1.6533-1.3233c-1.1025,0-1.6719.79-1.6719,2.0029v1.8c0,1.2124.5694,2.0025,1.6719,2.0025a1.8139,1.8139,0,0,0,1.8-1.4512l2.1128.9185a3.7789,3.7789,0,0,1-3.9131,2.6635C567.9717,25.7184,566.373,23.7531,566.373,20.6667Z"/><path d="M575.78,20.6667c0-3.05,1.6162-5.0342,4.519-5.0342,3.1968,0,4.4829,2.3149,4.4829,4.9238v.8081h-6.1914v.147a1.895,1.895,0,0,0,2.1314,2.0762,3.0564,3.0564,0,0,0,2.37-1.1572l1.3594,1.69a5.2264,5.2264,0,0,1-4.0415,1.5981C577.4517,25.7184,575.78,23.7531,575.78,20.6667Zm2.81-1.0474v.147h3.38v-.1655c0-1.1758-.5327-1.9654-1.6167-1.9654A1.7631,1.7631,0,0,0,578.5908,19.6193Z"/><path d="M590.6978,19.1784c0-4.3359,2.2231-6.7241,5.6767-6.7241a4.7526,4.7526,0,0,1,4.7954,3.0132l-2.4067,1.249a2.2739,2.2739,0,0,0-2.3887-1.7818c-1.6348,0-2.7187,1.1021-2.7187,3.1231v2.0576c0,2.021,1.0839,3.1231,2.7187,3.1231a2.6319,2.6319,0,0,0,2.5537-1.9107l2.2783,1.3228a5.0122,5.0122,0,0,1-4.832,3.0678C592.9209,25.7184,590.6978,23.5143,590.6978,19.1784Z"/><path d="M602.4,20.6667c0-3.05,1.6172-5.0342,4.5195-5.0342,3.1968,0,4.4829,2.3149,4.4829,4.9238v.8081h-6.1914v.147a1.895,1.895,0,0,0,2.1314,2.0762,3.0564,3.0564,0,0,0,2.37-1.1572l1.36,1.69a5.2283,5.2283,0,0,1-4.042,1.5981C604.0723,25.7184,602.4,23.7531,602.4,20.6667Zm2.811-1.0474v.147h3.38v-.1655c0-1.1758-.5327-1.9654-1.6167-1.9654A1.7631,1.7631,0,0,0,605.2114,19.6193Z"/><path d="M613.332,25.4982v-9.645h2.7193V17.488h.11a2.6308,2.6308,0,0,1,2.6827-1.8555c1.9658,0,3.0126,1.3965,3.0126,3.8213v6.0444h-2.7187V19.6745c0-1.231-.3491-1.8374-1.3413-1.8374-.8818,0-1.7451.46-1.7451,1.4145v6.2466Z"/><path d="M627.6621,25.4982a2.5389,2.5389,0,0,1-2.8657-2.811V17.966h-1.36V15.8532h.68c.7354,0,.9556-.3677.9556-1.0288v-1.58h2.4433v2.6089h1.9107V17.966h-1.9107v5.4194h1.7637v2.1128Z"/><path d="M630.6387,20.6667c0-3.05,1.6162-5.0342,4.519-5.0342,3.1968,0,4.4829,2.3149,4.4829,4.9238v.8081h-6.1914v.147a1.895,1.895,0,0,0,2.1314,2.0762,3.0564,3.0564,0,0,0,2.37-1.1572l1.3594,1.69a5.2264,5.2264,0,0,1-4.0415,1.5981C632.31,25.7184,630.6387,23.7531,630.6387,20.6667Zm2.8105-1.0474v.147h3.38v-.1655c0-1.1758-.5327-1.9654-1.6167-1.9654A1.7631,1.7631,0,0,0,633.4492,19.6193Z"/><path d="M641.57,25.4982v-9.645h2.7193v2.0942h.0918a2.4179,2.4179,0,0,1,2.4619-2.0942h.4775v2.5352h-.68c-1.58,0-2.3515.3491-2.3515,1.47v5.64Z"/><line class="cls-5" x1="298.6023" y1="0.57" x2="298.6023" y2="751.5331"/><line class="cls-6" x1="463.6653" y1="136.8304" x2="196.7898" y2="136.8304"/><polygon class="cls-7" points="462.206 131.844 470.842 136.83 462.206 141.817 462.206 131.844"/><circle class="cls-8" cx="297.928" cy="140.2944" r="12.6372"/><path d="M294.0884,145.5685v-1.6552h3.2754v-8.8394l-3.17,1.8311-.7749-1.4615,3.8033-2.166h2.0957v10.6358h2.9755v1.6552Z"/><line class="cls-5" x1="725.8436" y1="3.1345" x2="725.8436" y2="751.0355"/><circle class="cls-9" cx="859.6299" cy="569.5976" r="37.9116"/><line class="cls-10" x1="847.3106" y1="548.5126" x2="860.0942" y2="570.5934"/><line class="cls-10" x1="838.0134" y1="557.8097" x2="860.0942" y2="570.5934"/><line class="cls-10" x1="834.5269" y1="570.5934" x2="860.0942" y2="570.5934"/><line class="cls-10" x1="860.0942" y1="545.2198" x2="860.0942" y2="570.5934"/><line class="cls-10" x1="872.8778" y1="548.7062" x2="860.0942" y2="570.5934"/><line class="cls-10" x1="882.175" y1="557.8097" x2="860.0942" y2="570.5934"/><line class="cls-10" x1="885.6615" y1="570.5934" x2="860.0942" y2="570.5934"/><path class="cls-10" d="M885.6615,570.5934a25.5673,25.5673,0,0,1-51.1346,0"/><path class="cls-10" d="M834.5269,570.5934a25.5673,25.5673,0,0,1,51.1346,0"/><circle class="cls-11" cx="860.0942" cy="570.5934" r="2.3243"/><circle class="cls-11" cx="860.0942" cy="545.0261" r="2.3243"/><circle class="cls-11" cx="847.3106" cy="548.5126" r="2.3243"/><circle class="cls-11" cx="872.8778" cy="548.5126" r="2.3243"/><circle class="cls-11" cx="882.175" cy="557.8097" r="2.3243"/><circle class="cls-11" cx="838.0134" cy="557.8097" r="2.3243"/><circle class="cls-11" cx="834.5269" cy="570.5934" r="2.3243"/><circle class="cls-11" cx="885.6615" cy="570.5934" r="2.3243"/><path d="M832.6582,626.6637H831.501v-9.6171h3.831a2.75,2.75,0,0,1,.7578,5.373l2.2041,4.2441h-1.3085l-2.0811-4.1337h-2.2461Zm2.6738-5.1259a1.2881,1.2881,0,0,0,1.4463-1.378v-.7158a1.2881,1.2881,0,0,0-1.4463-1.3779h-2.6738v3.4717Z"/><path d="M839.48,623.1091c0-2.26,1.2676-3.7207,3.1973-3.7207,1.9013,0,3.0722,1.4609,3.0722,3.4726v.5235h-5.1123v.331a2.0145,2.0145,0,0,0,2.1084,2.1494,2.0618,2.0618,0,0,0,1.957-1.2265l.7852.5644a2.9832,2.9832,0,0,1-2.8105,1.626C840.7471,626.8288,839.48,625.3688,839.48,623.1091Zm1.1572-.6475v.0957h3.9278v-.1514a1.8909,1.8909,0,0,0-1.8877-2.0937A2.0211,2.0211,0,0,0,840.6367,622.4616Z"/><path d="M846.8926,625.4372l.7851-.6338a2.581,2.581,0,0,0,2.1084,1.0889c.9366,0,1.4883-.4278,1.4883-1.1573,0-.5517-.3037-.9785-1.24-1.1162l-.5654-.083c-1.3086-.1924-2.2872-.73-2.2872-2.0527,0-1.4053,1.0889-2.0947,2.5352-2.0947a2.9633,2.9633,0,0,1,2.4805,1.1435l-.7305.6621a2.1907,2.1907,0,0,0-1.832-.8681c-.91,0-1.3916.4267-1.3916,1.1015,0,.6895.4814.9649,1.3632,1.1026l.5518.083c1.57.2343,2.1768.9228,2.1768,1.998,0,1.3779-1.0059,2.2178-2.6319,2.2178A3.3027,3.3027,0,0,1,846.8926,625.4372Z"/><path d="M853.7539,623.1091c0-2.26,1.31-3.7207,3.2109-3.7207s3.21,1.4609,3.21,3.7207-1.3086,3.72-3.21,3.72S853.7539,625.3688,853.7539,623.1091Zm5.2363.51v-1.0195a2.035,2.035,0,1,0-4.0507,0v1.0195a2.035,2.035,0,1,0,4.0507,0Z"/><path d="M866.376,625.5065h-.0547a1.9773,1.9773,0,0,1-1.9981,1.3223c-1.4609,0-2.3974-.9922-2.3974-2.7139v-4.5605h1.1015v4.3672c0,1.2675.5655,1.915,1.626,1.915.8682,0,1.7227-.4268,1.7227-1.3633v-4.9189h1.1025v7.1093H866.376Z"/><path d="M869.82,626.6637v-7.1093h1.1026v1.3086h.0693a2.0425,2.0425,0,0,1,2.0527-1.3086h.4268v1.1015h-.6475c-1.1846,0-1.9013.51-1.9013,1.1856v4.8222Z"/><path d="M874.2852,623.1091c0-2.2735,1.1709-3.7207,3.1689-3.7207a2.6652,2.6652,0,0,1,2.6592,1.667l-.9229.4687a1.7125,1.7125,0,0,0-1.7363-1.1572,1.9087,1.9087,0,0,0-1.9834,2.1357v1.2129a1.9091,1.9091,0,0,0,1.9834,2.1357,2.0086,2.0086,0,0,0,1.93-1.24l.7988.5371a2.8037,2.8037,0,0,1-2.7285,1.6807C875.4561,626.8288,874.2852,625.3825,874.2852,623.1091Z"/><path d="M881.1328,623.1091c0-2.26,1.2676-3.7207,3.1973-3.7207,1.9013,0,3.0722,1.4609,3.0722,3.4726v.5235H882.29v.331a2.0145,2.0145,0,0,0,2.1084,2.1494,2.062,2.062,0,0,0,1.9571-1.2265l.7851.5644a2.9832,2.9832,0,0,1-2.81,1.626C882.4,626.8288,881.1328,625.3688,881.1328,623.1091Zm1.1572-.6475v.0957h3.9268v-.1514a1.89,1.89,0,0,0-1.8867-2.0937A2.0212,2.0212,0,0,0,882.29,622.4616Z"/><line class="cls-12" x1="489.9095" y1="118.348" x2="500.023" y2="118.348"/><line class="cls-12" x1="518.4882" y1="118.348" x2="528.3932" y2="118.348"/><line class="cls-12" x1="504.4232" y1="118.348" x2="514.3122" y2="118.348"/><line class="cls-13" x1="487.8213" y1="129.0013" x2="500.0227" y2="129.0013"/><line class="cls-12" x1="518.4882" y1="129.0013" x2="528.6017" y2="129.0013"/><line class="cls-12" x1="504.1987" y1="129.0013" x2="513.9442" y2="129.0013"/><line class="cls-13" x1="487.8213" y1="150.4994" x2="501.2167" y2="150.4994"/><line class="cls-12" x1="516.5287" y1="150.4994" x2="528.3932" y2="150.4994"/><line class="cls-12" x1="501.2167" y1="150.4994" x2="516.5287" y2="150.4994"/><line class="cls-13" x1="487.8213" y1="139.7823" x2="501.2167" y2="139.7823"/><line class="cls-12" x1="518.4882" y1="139.7823" x2="528.3932" y2="139.7823"/><line class="cls-12" x1="501.2167" y1="139.7823" x2="513.9442" y2="139.7823"/><circle class="cls-14" cx="502.1107" cy="118.348" r="2.0879"/><circle class="cls-14" cx="487.8213" cy="118.348" r="2.0879"/><circle class="cls-14" cx="516.4002" cy="118.348" r="2.0879"/><circle class="cls-14" cx="530.6897" cy="118.348" r="2.0879"/><circle class="cls-14" cx="516.4002" cy="129.0013" r="2.0879"/><circle class="cls-14" cx="502.1107" cy="129.0013" r="2.0879"/><circle class="cls-14" cx="530.6897" cy="129.0013" r="2.0879"/><circle class="cls-14" cx="516.4002" cy="139.7823" r="2.0879"/><circle class="cls-14" cx="530.6897" cy="139.7823" r="2.0879"/><circle class="cls-14" cx="530.6897" cy="150.4994" r="2.0879"/><line class="cls-6" x1="858.9539" y1="307.4658" x2="858.9539" y2="206.4916"/><polygon class="cls-7" points="861.447 306.736 858.954 311.054 856.461 306.736 861.447 306.736"/><line class="cls-6" x1="858.954" y1="525.4216" x2="858.954" y2="503.5085"/><polygon class="cls-7" points="863.94 523.963 858.954 532.598 853.968 523.963 863.94 523.963"/><line class="cls-6" x1="858.9539" y1="456.0906" x2="858.9539" y2="355.1163"/><polygon class="cls-7" points="861.447 455.361 858.954 459.679 856.461 455.361 861.447 455.361"/><circle class="cls-15" cx="859.6299" cy="134.2549" r="37.9116"/><path d="M829.0947,194.4v-9.6177h5.87v1.0195H830.252v3.004H834.69v1.02H830.252V193.38h4.7128V194.4Z"/><path d="M837.0176,194.4v-7.11H838.12v1.1573h.0547a2.0164,2.0164,0,0,1,2.0117-1.3223c1.461,0,2.3838.9917,2.3838,2.7143V194.4h-1.1015v-4.3677c0-1.2676-.5518-1.9155-1.6124-1.9155-.8818,0-1.7363.4409-1.7363,1.3506V194.4Z"/><path d="M846.415,194.4a1.086,1.086,0,0,1-1.1718-1.1714v-4.9741h-1.1709V187.29h.6611c.4687,0,.62-.165.62-.6474V185.32h.9922v1.97h1.5576v.9644h-1.5576v5.1811h1.4473V194.4Z"/><path d="M849.1016,190.8449c0-2.26,1.2675-3.72,3.1972-3.72,1.9014,0,3.0723,1.46,3.0723,3.4722v.5234h-5.1123v.3306a2.014,2.014,0,0,0,2.1084,2.1494,2.0614,2.0614,0,0,0,1.957-1.2261l.7852.5649a2.9841,2.9841,0,0,1-2.8106,1.626C850.3691,194.5651,849.1016,193.1042,849.1016,190.8449Zm1.1572-.6479v.0966h3.9267v-.1518a1.891,1.891,0,0,0-1.8867-2.0943A2.0214,2.0214,0,0,0,850.2588,190.197Z"/><path d="M857.19,194.4v-7.11h1.1026v1.3091h.0693a2.0423,2.0423,0,0,1,2.0527-1.3091h.4268v1.1026h-.6475c-1.1845,0-1.9013.51-1.9013,1.1845V194.4Z"/><path d="M862.2471,187.29H863.35v1.1573h.0547a2.0769,2.0769,0,0,1,2.0811-1.3223c1.7773,0,2.8935,1.4463,2.8935,3.72s-1.1162,3.72-2.8935,3.72a2.1444,2.1444,0,0,1-2.0811-1.3227H863.35v3.913h-1.1025Zm4.9472,4.1612v-1.2124a1.9407,1.9407,0,0,0-2.0117-2.1221c-1.0058,0-1.833.5786-1.833,1.3642v2.6456c0,.9233.8272,1.4467,1.833,1.4467A1.9407,1.9407,0,0,0,867.1943,191.4509Z"/><path d="M870.2383,194.4v-7.11h1.1025v1.3091h.0694a2.0422,2.0422,0,0,1,2.0527-1.3091h.4267v1.1026h-.6474c-1.1846,0-1.9014.51-1.9014,1.1845V194.4Z"/><path d="M875.1709,185.0026v-.1792c0-.3721.207-.62.6758-.62s.6748.248.6748.62v.1792c0,.3721-.207.62-.6748.62S875.1709,185.3747,875.1709,185.0026Zm.124,2.2871h1.1026v7.11h-1.1026Z"/><path d="M878.0654,193.1735l.7852-.6343a2.5822,2.5822,0,0,0,2.1084,1.0889c.9365,0,1.4883-.4272,1.4883-1.1577,0-.5508-.3037-.978-1.24-1.1157l-.5654-.083c-1.3086-.1929-2.2871-.73-2.2871-2.0528,0-1.4057,1.0889-2.0942,2.5351-2.0942a2.9606,2.9606,0,0,1,2.4805,1.1435l-.7305.6612a2.1919,2.1919,0,0,0-1.832-.8682c-.91,0-1.3916.4273-1.3916,1.1025,0,.689.4815.9644,1.3633,1.1021l.5518.083c1.57.2339,2.1767.9229,2.1767,1.9976,0,1.3779-1.0058,2.2187-2.6318,2.2187A3.3041,3.3041,0,0,1,878.0654,193.1735Z"/><path d="M884.9268,190.8449c0-2.26,1.2675-3.72,3.1972-3.72,1.9014,0,3.0723,1.46,3.0723,3.4722v.5234H886.084v.3306a2.014,2.014,0,0,0,2.1084,2.1494,2.0614,2.0614,0,0,0,1.957-1.2261l.7852.5649a2.9841,2.9841,0,0,1-2.8106,1.626C886.1943,194.5651,884.9268,193.1042,884.9268,190.8449Zm1.1572-.6479v.0966h3.9277v-.1518a1.8917,1.8917,0,0,0-1.8877-2.0943A2.0214,2.0214,0,0,0,886.084,190.197Z"/><path id="Fill-21" class="cls-16" d="M844.1907,116.29h20.4339v34.624h-7.4262V141.88a.4255.4255,0,0,0-.4257-.4257h-4.73a.4255.4255,0,0,0-.4257.4257v9.0344h-7.4262Zm21.2853,7.4262H871.72v-3.8787H865.476Zm13.3388,27.1978H865.476V124.568h13.3388Zm-26.3465,0h3.8787v-8.6087h-3.8787Zm-8.7033.8514h35.4755a.4255.4255,0,0,0,.4257-.4257V124.1423a.4254.4254,0,0,0-.4257-.4257h-6.6694v-4.3044a.4255.4255,0,0,0-.4257-.4257H865.476v-3.1218a.4254.4254,0,0,0-.4257-.4257H843.765a.4254.4254,0,0,0-.4257.4257V151.34a.4255.4255,0,0,0,.4257.4257Zm3.1222-28.8061h.8514v-2.365h-.8514Zm0,7.0951h.8514V127.69h-.8514Zm0,7.0951h.8514v-2.365h-.8514Zm9.46-14.19h.8514v-2.365h-.8514Zm0,7.0951h.8514V127.69h-.8514Zm0,7.0951h.8514v-2.365h-.8514Zm-4.73-14.19h.85v-2.365h-.85Zm0,7.0951h.85V127.69h-.85Zm0,7.0951h.85v-2.365h-.85Zm-4.73,7.0939h.8514v-2.365h-.8514Zm14.19-21.2841h.85v-2.365h-.85Zm0,7.0951h.85V127.69h-.85Zm0,7.0951h.85v-2.365h-.85Zm0,7.0939h.85v-2.365h-.85Zm8.2776-14.189h.8514V127.69h-.8514Zm0,7.0951h.8514v-2.365h-.8514Zm0,7.0951h.8514V141.88h-.8514Zm4.73-14.19h.8515V127.69h-.8515Zm0,7.0951h.8515v-2.365h-.8515Zm0,7.0939h.8515v-2.365h-.8515Z"/><circle class="cls-17" cx="859.4305" cy="281.612" r="37.9116"/><path d="M822.04,341.756l-.9648-2.8383H817.19l-.9639,2.8383h-1.1709l3.3613-9.6176h1.4746l3.3623,9.6176Zm-2.88-8.5429h-.0684l-1.626,4.685h3.32Z"/><path d="M824.2168,338.2013c0-2.2739,1.1709-3.72,3.1689-3.72a2.664,2.664,0,0,1,2.6592,1.667l-.9228.4683a1.7132,1.7132,0,0,0-1.7364-1.1572,1.9087,1.9087,0,0,0-1.9834,2.1357v1.2124a1.9087,1.9087,0,0,0,1.9834,2.1357,2.0078,2.0078,0,0,0,1.93-1.24l.7989.5376a2.8044,2.8044,0,0,1-2.7286,1.6812C825.3877,341.9216,824.2168,340.4748,824.2168,338.2013Z"/><path d="M831.0654,338.2013c0-2.2739,1.1709-3.72,3.169-3.72a2.6641,2.6641,0,0,1,2.6592,1.667l-.9229.4683a1.7132,1.7132,0,0,0-1.7363-1.1572,1.9087,1.9087,0,0,0-1.9834,2.1357v1.2124a1.9087,1.9087,0,0,0,1.9834,2.1357,2.0079,2.0079,0,0,0,1.93-1.24l.7988.5376a2.8042,2.8042,0,0,1-2.7285,1.6812C832.2363,341.9216,831.0654,340.4748,831.0654,338.2013Z"/><path d="M837.9131,338.2013c0-2.26,1.31-3.72,3.2109-3.72s3.21,1.46,3.21,3.72-1.3086,3.72-3.21,3.72S837.9131,340.4606,837.9131,338.2013Zm5.2363.51v-1.02a2.035,2.035,0,1,0-4.0508,0v1.02a2.035,2.035,0,1,0,4.0508,0Z"/><path d="M850.5352,340.5988h-.0547a1.9776,1.9776,0,0,1-1.9981,1.3228c-1.4609,0-2.3974-.9922-2.3974-2.7144v-4.561h1.1025v4.3676c0,1.2681.5645,1.9156,1.625,1.9156.8682,0,1.7227-.4273,1.7227-1.3643v-4.9189h1.1025v7.11h-1.1025Z"/><path d="M853.98,341.756v-7.11h1.1025v1.1572h.0547a2.0166,2.0166,0,0,1,2.0117-1.3223c1.461,0,2.3838.9917,2.3838,2.7144v4.56h-1.1015v-4.3676c0-1.2676-.5518-1.9156-1.6123-1.9156-.8819,0-1.7364.4409-1.7364,1.3506v4.9326Z"/><path d="M863.377,341.756a1.0861,1.0861,0,0,1-1.1719-1.1714v-4.9741h-1.1709v-.9643h.6611c.4688,0,.62-.1651.62-.6475V332.676h.9922v1.97h1.5576v.9643h-1.5576v5.1812h1.4473v.9643Z"/><path d="M872.4443,344.6769c-2.2187,0-3.1279-.6338-3.1279-1.75a1.3328,1.3328,0,0,1,1.13-1.3779v-.1519a1.03,1.03,0,0,1-.6338-.9917c0-.7168.51-1.061,1.2256-1.24v-.0552a2.3118,2.3118,0,0,1-1.336-2.1772,2.4359,2.4359,0,0,1,2.6729-2.4522,3.1917,3.1917,0,0,1,1.3506.2754v-.124c0-.5513.2344-.9507.8262-.9507h1.0615v.9644h-1.3506v.4546a2.3625,2.3625,0,0,1,.8125,1.8325,2.4406,2.4406,0,0,1-2.6865,2.4526,3.6231,3.6231,0,0,1-.6885-.0688c-.4688.124-.9375.3584-.9375.7993,0,.4272.4414.5376,1.0889.5376h1.5156c1.7637,0,2.5215.7163,2.5215,1.8872C875.8887,344.0021,874.7314,344.6769,872.4443,344.6769Zm.9366-2.99h-2.37a.9924.9924,0,0,0-.6611.9643c0,.62.4268,1.13,1.543,1.13h1.0195c1.2266,0,1.9434-.3857,1.9434-1.1572C874.8555,342.0593,874.4834,341.6872,873.3809,341.6872Zm.5371-4.5606V336.74c0-.937-.5918-1.3774-1.5293-1.3774s-1.5293.44-1.5293,1.3774v.3862c0,.9366.5927,1.3775,1.5293,1.3775S873.918,338.0632,873.918,337.1266Z"/><path d="M877.17,341.756v-7.11h1.1026v1.3091h.0693a2.0422,2.0422,0,0,1,2.0527-1.3091h.4268v1.1025h-.6475c-1.1845,0-1.9013.51-1.9013,1.1846v4.8227Z"/><path d="M881.6338,338.2013c0-2.26,1.31-3.72,3.2109-3.72s3.21,1.46,3.21,3.72-1.3086,3.72-3.21,3.72S881.6338,340.4606,881.6338,338.2013Zm5.2363.51v-1.02a2.035,2.035,0,1,0-4.0508,0v1.02a2.035,2.035,0,1,0,4.0508,0Z"/><path d="M894.2559,340.5988h-.0547a1.9776,1.9776,0,0,1-1.9981,1.3228c-1.4609,0-2.3974-.9922-2.3974-2.7144v-4.561h1.1025v4.3676c0,1.2681.5645,1.9156,1.625,1.9156.8682,0,1.7227-.4273,1.7227-1.3643v-4.9189h1.1025v7.11h-1.1025Z"/><path d="M897.7,334.6462h1.1025v1.1572h.0547a2.0771,2.0771,0,0,1,2.0811-1.3223c1.7773,0,2.8935,1.4463,2.8935,3.72s-1.1162,3.72-2.8935,3.72a2.1446,2.1446,0,0,1-2.0811-1.3228h-.0547v3.9131H897.7Zm4.9473,4.1611v-1.2124a1.9408,1.9408,0,0,0-2.0118-2.1221c-1.0058,0-1.833.5786-1.833,1.3643v2.6455c0,.9233.8272,1.4468,1.833,1.4468A1.9408,1.9408,0,0,0,902.6475,338.8073Z"/><path id="Fill-1" class="cls-16" d="M846.8627,298.2826h27.2727a2.6441,2.6441,0,0,0,2.6416-2.64V269.5733H848.0677V295.55a3.6886,3.6886,0,0,1-1.205,2.7327Zm-4.7074-34.6217v31.9812a2.6806,2.6806,0,0,0,.8052,1.9547,2.4669,2.4669,0,0,0,1.7146.6858h.0379c.026,0,.0532,0,.0792-.0012a2.6639,2.6639,0,0,0,2.4229-2.7315V269.1464a.4255.4255,0,0,1,.4257-.4257h23.2238v-2.6949H855.9181a.4278.4278,0,0,1-.2353-.0721l-3.441-2.2928Zm2.53,35.4743a3.3159,3.3159,0,0,1-2.3153-.9247,3.5662,3.5662,0,0,1-1.0678-2.5684V263.234a.4255.4255,0,0,1,.4257-.4257h10.6423a.4152.4152,0,0,1,.2353.0721l3.4422,2.2929H871.29a.4264.4264,0,0,1,.4269.4256v3.1218h5.4855a.4265.4265,0,0,1,.4269.4257v26.4957a3.4978,3.4978,0,0,1-3.4942,3.4931h-29.45Z"/><circle class="cls-18" cx="859.6299" cy="428.9695" r="37.9116"/><path d="M841.7646,489.113l-.9648-2.8389h-3.8857l-.9639,2.8389h-1.1709l3.3613-9.6172h1.4746l3.3623,9.6172Zm-2.88-8.543h-.0684l-1.626,4.6846h3.32Z"/><path d="M843.9414,485.5583c0-2.2735,1.1709-3.7207,3.169-3.7207a2.6651,2.6651,0,0,1,2.6591,1.667l-.9228.4687a1.7127,1.7127,0,0,0-1.7363-1.1572,1.9087,1.9087,0,0,0-1.9834,2.1357v1.2129a1.9092,1.9092,0,0,0,1.9834,2.1358,2.0084,2.0084,0,0,0,1.93-1.24l.7989.5371a2.8038,2.8038,0,0,1-2.7285,1.6807C845.1123,489.278,843.9414,487.8317,843.9414,485.5583Z"/><path d="M850.79,485.5583c0-2.2735,1.1709-3.7207,3.169-3.7207a2.6652,2.6652,0,0,1,2.6592,1.667l-.9229.4687a1.7127,1.7127,0,0,0-1.7363-1.1572,1.9087,1.9087,0,0,0-1.9834,2.1357v1.2129a1.9092,1.9092,0,0,0,1.9834,2.1358,2.0087,2.0087,0,0,0,1.93-1.24l.7988.5371a2.8037,2.8037,0,0,1-2.7285,1.6807C851.9609,489.278,850.79,487.8317,850.79,485.5583Z"/><path d="M857.6377,485.5583c0-2.26,1.31-3.7207,3.2109-3.7207s3.21,1.4609,3.21,3.7207-1.3086,3.72-3.21,3.72S857.6377,487.818,857.6377,485.5583Zm5.2363.51v-1.0195a2.035,2.035,0,1,0-4.0508,0v1.0195a2.035,2.035,0,1,0,4.0508,0Z"/><path d="M870.26,487.9557h-.0547a1.9773,1.9773,0,0,1-1.9981,1.3223c-1.4609,0-2.3974-.9922-2.3974-2.7139v-4.56h1.1025v4.3672c0,1.2676.5645,1.915,1.625,1.915.8682,0,1.7227-.4267,1.7227-1.3633v-4.9189h1.1025v7.1094H870.26Z"/><path d="M873.7041,489.113v-7.1094h1.1025v1.1572h.0547a2.0161,2.0161,0,0,1,2.0117-1.3232c1.461,0,2.3838.9922,2.3838,2.7148v4.5606h-1.1015v-4.3682c0-1.2676-.5518-1.915-1.6123-1.915-.8819,0-1.7364.4414-1.7364,1.3506v4.9326Z"/><path d="M883.1016,489.113a1.086,1.086,0,0,1-1.1719-1.1709v-4.9746h-1.1709v-.9639h.6611c.4688,0,.62-.166.62-.6484v-1.3223h.9922v1.9707H884.59v.9639h-1.5576v5.1806H884.48v.9649Z"/><path id="Fill-13" class="cls-16" d="M882.65,418.457H837.2457v26.797H882.65Zm0-1.1166v-3.5357H837.2457V417.34Zm-32.0069,16.6241h-9.3045a.5583.5583,0,0,1,0-1.1166h9.3045a.5583.5583,0,0,1,0,1.1166Zm32.5652,12.406H836.6858a.5579.5579,0,0,1-.5582-.5583V413.2464a.5578.5578,0,0,1,.5582-.5582h46.5226a.5581.5581,0,0,1,.56.5582v32.5658A.5582.5582,0,0,1,883.2084,446.3705Zm-3.1009-30.7978a.7754.7754,0,1,1-.7753-.7754A.7756.7756,0,0,1,880.1075,415.5727Zm-3.1015,0a.7754.7754,0,1,1-.7754-.7754A.7756.7756,0,0,1,877.006,415.5727Zm-3.1015,0a.7754.7754,0,1,1-.7754-.7754A.7756.7756,0,0,1,873.9045,415.5727ZM850.6432,424.66h-9.3045a.5583.5583,0,1,1,0-1.1166h9.3045a.5583.5583,0,1,1,0,1.1166Zm0,4.6522h-9.3045a.5583.5583,0,1,1,0-1.1165h9.3045a.5583.5583,0,1,1,0,1.1165Z"/><path class="cls-19" d="M158.5144,634.6971v56.4908c0,13.4572,10.4146,24.3663,23.2616,24.3663H834.9268c12.847,0,23.2616-10.9091,23.2616-24.3663V649.3345"/><polygon class="cls-7" points="153.528 636.156 158.514 627.521 163.501 636.156 153.528 636.156"/><line class="cls-19" x1="815.7988" y1="554.7976" x2="192.0813" y2="554.7976"/><polygon class="cls-7" points="814.34 549.811 822.975 554.798 814.34 559.784 814.34 549.811"/><line class="cls-20" x1="508.3514" y1="209.8403" x2="508.3514" y2="211.3403"/><line class="cls-21" x1="508.3514" y1="213.3257" x2="508.3514" y2="222.2603"/><path class="cls-22" d="M508.3514,223.2531V561.9178c0,14.2471,10.4908,25.7966,23.4318,25.7966H823.5444"/><line class="cls-20" x1="824.5371" y1="587.7144" x2="826.0371" y2="587.7144"/><polygon class="cls-23" points="503.365 211.299 508.351 202.664 513.338 211.299 503.365 211.299"/><circle class="cls-8" cx="297.928" cy="554.3739" r="12.6372"/><path d="M302.1182,559.6481h-8.3467v-1.9013l3.9267-3.5049c1.2325-1.1094,1.9371-2.0948,1.9371-3.2217v-.23a1.8221,1.8221,0,0,0-1.99-1.9189,2.2932,2.2932,0,0,0-2.3066,1.9365l-1.7432-.669a4.13,4.13,0,0,1,4.208-2.9931c2.5,0,3.9443,1.5136,3.9443,3.6445,0,1.99-1.32,3.293-2.94,4.6846l-2.8877,2.4824h6.1983Z"/><circle class="cls-8" cx="777.2011" cy="715.7557" r="12.6372"/><path d="M778.1865,721.0309v-2.3945h-5.7051v-1.708l4.9834-8.1885h2.6065v8.3291h1.6728v1.5674h-1.6728v2.3945Zm-4.0146-3.9619h4.0146v-6.5156h-.123Z"/><circle class="cls-8" cx="725.8699" cy="586.9286" r="12.6372"/><path d="M725.1475,584.9655c1.5146,0,2.2363-.7217,2.2363-1.7256v-.123a1.7179,1.7179,0,0,0-1.9541-1.7432,2.817,2.817,0,0,0-2.5361,1.4961l-1.32-1.1445a4.4058,4.4058,0,0,1,3.9092-2.0244c2.3242,0,3.9971,1.18,3.9971,3.1689a2.8231,2.8231,0,0,1-2.3594,2.8174v.0889a2.9736,2.9736,0,0,1,2.57,3.0459c0,2.1484-1.7607,3.5917-4.3847,3.5917a4.6753,4.6753,0,0,1-4.208-2.2011l1.4619-1.1446a2.942,2.942,0,0,0,2.7461,1.6729c1.497,0,2.3252-.7568,2.3252-2.0244v-.1231c0-1.2509-.8809-1.9375-2.4307-1.9375h-1.3027v-1.69Z"/><line class="cls-6" x1="815.7988" y1="135.2994" x2="548.9233" y2="135.2994"/><polygon class="cls-7" points="814.34 130.313 822.975 135.299 814.34 140.286 814.34 130.313"/><circle cx="158.6251" cy="560.4115" r="37.9116"/><path class="cls-2" d="M169.5527,547.5529a10.21,10.21,0,1,1-10.21-10.21,10.21,10.21,0,0,1,10.21,10.21"/><path class="cls-2" d="M139.4323,582.9513a20.4252,20.4252,0,0,1,40.0114-.256"/><circle class="cls-2" cx="159.4654" cy="560.4115" r="30.16"/><circle class="cls-3" cx="139.4323" cy="582.9513" r="2.3237" transform="translate(-306.3882 182.3047) rotate(-34.6034)"/><path d="M126.8462,608.2419h3.2246c2.3975,0,3.94,1.5976,3.94,4.8086s-1.5429,4.8086-3.94,4.8086h-3.2246Zm3.2246,8.5976c1.5845,0,2.7-1.1025,2.7-3.0039v-1.57c0-1.9023-1.1157-3.0039-2.7-3.0039h-2.0669V616.84Z"/><path d="M135.458,614.3044c0-2.26,1.2676-3.7207,3.1968-3.7207,1.9014,0,3.0727,1.4609,3.0727,3.4726v.5235h-5.1118v.331a2.0138,2.0138,0,0,0,2.1079,2.1494,2.0613,2.0613,0,0,0,1.9566-1.2265l.7856.5644a2.9835,2.9835,0,0,1-2.811,1.626C136.7256,618.0241,135.458,616.5641,135.458,614.3044Zm1.1577-.6475v.0957h3.9268v-.1514a1.89,1.89,0,0,0-1.8877-2.0937A2.0207,2.0207,0,0,0,136.6157,613.6569Z"/><path d="M145.0073,617.8591l-2.4941-7.1094h1.102l1.24,3.5273.7715,2.4248h.0688l.772-2.4248,1.2676-3.5273h1.061l-2.5078,7.1094Z"/><path d="M149.5815,614.3044c0-2.26,1.2676-3.7207,3.1968-3.7207,1.9014,0,3.0728,1.4609,3.0728,3.4726v.5235h-5.1118v.331a2.0138,2.0138,0,0,0,2.1079,2.1494,2.0612,2.0612,0,0,0,1.9565-1.2265l.7857.5644a2.9836,2.9836,0,0,1-2.8111,1.626C150.8491,618.0241,149.5815,616.5641,149.5815,614.3044Zm1.1578-.6475v.0957h3.9267v-.1514a1.89,1.89,0,0,0-1.8877-2.0937A2.0206,2.0206,0,0,0,150.7393,613.6569Z"/><path d="M158.8413,617.8591a1.0779,1.0779,0,0,1-1.1709-1.1436v-9.0527h1.1021v9.2314H159.82v.9649Z"/><path d="M160.894,614.3044c0-2.26,1.3091-3.7207,3.21-3.7207s3.21,1.4609,3.21,3.7207-1.309,3.72-3.21,3.72S160.894,616.5641,160.894,614.3044Zm5.2359.51v-1.02a2.035,2.035,0,1,0-4.0508,0v1.02a2.035,2.035,0,1,0,4.0508,0Z"/><path d="M169.1343,610.75h1.102v1.1572h.0552a2.0772,2.0772,0,0,1,2.0806-1.3232c1.7773,0,2.8935,1.4472,2.8935,3.7207s-1.1162,3.72-2.8935,3.72a2.1429,2.1429,0,0,1-2.0806-1.3223h-.0552v3.9131h-1.102Zm4.9463,4.1611v-1.2129a1.94,1.94,0,0,0-2.0118-2.122c-1.0058,0-1.8325.5791-1.8325,1.3642v2.6455c0,.9229.8267,1.4463,1.8325,1.4463A1.94,1.94,0,0,0,174.0806,614.9108Z"/><path d="M176.6021,614.3044c0-2.26,1.2675-3.7207,3.1967-3.7207,1.9014,0,3.0728,1.4609,3.0728,3.4726v.5235H177.76v.331a2.0138,2.0138,0,0,0,2.1079,2.1494,2.0612,2.0612,0,0,0,1.9565-1.2265l.7857.5644a2.9835,2.9835,0,0,1-2.8111,1.626C177.87,618.0241,176.6021,616.5641,176.6021,614.3044Zm1.1577-.6475v.0957h3.9267v-.1514a1.89,1.89,0,0,0-1.8877-2.0937A2.0206,2.0206,0,0,0,177.76,613.6569Z"/><path d="M184.69,617.8591V610.75h1.1021v1.3086h.0688a2.0429,2.0429,0,0,1,2.0533-1.3086h.4272v1.1015h-.648c-1.185,0-1.9013.51-1.9013,1.1856v4.8223Z"/></svg>