<?xml version="1.0" encoding="utf-8"?>
<!-- Generator: Adobe Illustrator 26.0.1, SVG Export Plug-In . SVG Version: 6.00 Build 0)  -->
<svg version="1.1" xmlns="http://www.w3.org/2000/svg" xmlns:xlink="http://www.w3.org/1999/xlink" x="0px" y="0px"
	 viewBox="0 0 858 251" style="enable-background:new 0 0 858 251;" xml:space="preserve">
<style type="text/css">
	.st0{display:none;}
	.st1{display:inline;}
	.st2{fill:none;stroke:#000000;stroke-linecap:round;stroke-linejoin:round;stroke-dasharray:2,2;}
	.st3{fill:none;stroke:#DFE3E6;stroke-width:1.0455;stroke-miterlimit:10;}
	.st4{display:none;fill:#FFB3B8;}
	.st5{fill:#FFFFFF;stroke:#A56EFF;stroke-width:0.7946;stroke-miterlimit:10;}
	.st6{fill:#152935;}
	.st7{font-family:'IBMPlexMono';}
	.st8{font-size:15px;}
	.st9{fill:#0DB5B3;}
	.st10{fill:#4589FF;}
	.st11{fill:#A56EFF;}
	.st12{font-size:13.5145px;}
	.st13{font-family:'IBMPlexSans-Medium';}
</style>
<g id="Graphics">
	<g class="st0">
		<g class="st1">
			<line class="st2" x1="128.6" y1="251.1" x2="315" y2="251.1"/>
			<g>
				<rect x="127" y="249.4" width="3.3" height="3.3"/>
			</g>
		</g>
	</g>
	<g class="st0">
		<g class="st1">
			<line class="st2" x1="128.6" y1="148.1" x2="315" y2="148.1"/>
			<g>
				<rect x="127" y="146.4" width="3.3" height="3.3"/>
			</g>
		</g>
	</g>
	<path class="st3" d="M275.1,235.6H64.6c-0.5,0-0.9-0.4-0.9-0.9V25c0-0.5,0.4-0.9,0.9-0.9h210.5c0.5,0,0.9,0.4,0.9,0.9v209.7
		C276,235.2,275.6,235.6,275.1,235.6z"/>
	<rect x="315.7" y="63.6" class="st4" width="5" height="42"/>
	<ellipse transform="matrix(0.2298 -0.9732 0.9732 0.2298 25.0316 80.2484)" class="st5" cx="63.2" cy="24.3" rx="13.7" ry="13.7"/>
	<text transform="matrix(1 0 0 1 87.2871 64.643)"><tspan x="0" y="0" class="st6 st7 st8">    &quot;</tspan><tspan x="45" y="0" class="st9 st7 st8">and</tspan><tspan x="72" y="0" class="st6 st7 st8">&quot;: [</tspan><tspan x="0" y="18" class="st6 st7 st8">      A,</tspan><tspan x="0" y="36" class="st6 st7 st8">      B,</tspan><tspan x="0" y="54" class="st6 st7 st8">      C</tspan><tspan x="0" y="72" class="st6 st7 st8">    ]</tspan><tspan x="0" y="90" class="st6 st7 st8">  }</tspan></text>
	<path class="st3" d="M535,235.6H324.5c-0.5,0-0.9-0.4-0.9-0.9V25c0-0.5,0.4-0.9,0.9-0.9H535c0.5,0,0.9,0.4,0.9,0.9v209.7
		C535.9,235.2,535.5,235.6,535,235.6z"/>
	<text transform="matrix(1 0 0 1 347.1844 46.7057)"><tspan x="0" y="0" class="st6 st7 st8">{</tspan><tspan x="0" y="18" class="st6 st7 st8">    &quot;</tspan><tspan x="45" y="18" class="st10 st7 st8">or</tspan><tspan x="63" y="18" class="st6 st7 st8">&quot;: [</tspan><tspan x="0" y="36" class="st6 st7 st8">      A,</tspan><tspan x="0" y="54" class="st6 st7 st8">      B,</tspan><tspan x="0" y="72" class="st6 st7 st8">      C</tspan><tspan x="0" y="90" class="st6 st7 st8">    ]</tspan><tspan x="0" y="108" class="st6 st7 st8">  }</tspan></text>
	<path class="st3" d="M795,235.6H584.5c-0.5,0-0.9-0.4-0.9-0.9V25c0-0.5,0.4-0.9,0.9-0.9H795c0.5,0,0.9,0.4,0.9,0.9v209.7
		C795.9,235.2,795.5,235.6,795,235.6z"/>
	<text transform="matrix(1 0 0 1 607.1844 46.7057)"><tspan x="0" y="0" class="st6 st7 st8">{</tspan><tspan x="0" y="18" class="st6 st7 st8">    &quot;</tspan><tspan x="45" y="18" class="st10 st7 st8">or</tspan><tspan x="63" y="18" class="st6 st7 st8">&quot;: [</tspan><tspan x="0" y="36" class="st6 st7 st8">      A,</tspan><tspan x="0" y="54" class="st6 st7 st8">      {</tspan><tspan x="0" y="72" class="st6 st7 st8">        &quot;</tspan><tspan x="81" y="72" class="st9 st7 st8">and</tspan><tspan x="108" y="72" class="st6 st7 st8">&quot;: [</tspan><tspan x="0" y="90" class="st6 st7 st8">          B,</tspan><tspan x="0" y="108" class="st6 st7 st8">          C</tspan><tspan x="0" y="126" class="st6 st7 st8">        ]</tspan><tspan x="0" y="144" class="st6 st7 st8">      }</tspan><tspan x="0" y="162" class="st6 st7 st8">    ]</tspan><tspan x="0" y="180" class="st6 st7 st8">  }</tspan></text>
	
		<ellipse transform="matrix(0.2311 -0.9729 0.9729 0.2311 225.3344 333.7508)" class="st5" cx="323.8" cy="24.3" rx="13.7" ry="13.7"/>
	
		<ellipse transform="matrix(0.6716 -0.7409 0.7409 0.6716 173.5546 442.157)" class="st5" cx="585.5" cy="25.3" rx="13.7" ry="13.7"/>
	<text transform="matrix(1 0 0 1 59.1602 28.3503)" class="st11 st7 st12">1</text>
	<text transform="matrix(1 0 0 1 319.7715 28.3503)" class="st11 st7 st12">2</text>
	<text transform="matrix(1 0 0 1 581.4736 29.3503)" class="st11 st7 st12">3</text>
	<text transform="matrix(1 0 0 1 87.2917 47.1256)"><tspan x="0" y="0" class="st6 st7 st8">{</tspan><tspan x="0" y="18" class="st6 st7 st8">      </tspan></text>
</g>
<g id="Text">
	<text transform="matrix(1 0 0 1 126.9998 237.879)" class="st0 st13 st8">Conditions</text>
	<text transform="matrix(1 0 0 1 127.2416 131.3114)" class="st0 st13 st8">Target</text>
</g>
</svg>
