<?xml version="1.0" encoding="UTF-8"?>
<svg id="Graphics" xmlns="http://www.w3.org/2000/svg" viewBox="0 0 858 214">
  <defs>
    <style>
      .cls-1 {
        letter-spacing: 0em;
      }

      .cls-1, .cls-2 {
        fill: #0db5b3;
      }

      .cls-3, .cls-4 {
        fill: #152935;
      }

      .cls-5 {
        fill: #4589ff;
      }

      .cls-6 {
        fill: #fff;
        stroke: #a56eff;
        stroke-width: .7946px;
      }

      .cls-6, .cls-7 {
        stroke-miterlimit: 10;
      }

      .cls-8 {
        fill: #a56eff;
        font-size: 13.5145px;
      }

      .cls-8, .cls-4, .cls-9 {
        font-family: IBMPlexMono, 'IBM Plex Mono';
      }

      .cls-4 {
        font-size: 15px;
      }

      .cls-7 {
        fill: none;
        stroke: #dfe3e6;
        stroke-width: 1.0455px;
      }

      .cls-9 {
        font-size: 13px;
      }
    </style>
  </defs>
  <rect class="cls-7" x="63.6746" y="17.5411" width="212.3254" height="188.5289" rx=".9206" ry=".9206"/>
  <circle class="cls-6" cx="63.215" cy="17.7916" r="13.7397" transform="translate(31.3755 75.2278) rotate(-76.7174)"/>
  <text class="cls-9"><tspan class="cls-3" x="87.2871" y="55.7431" xml:space="preserve">    &quot;</tspan><tspan class="cls-2" x="126.2866" y="55.7431">and</tspan><tspan class="cls-3" x="149.686" y="55.7431">&quot;: [</tspan><tspan class="cls-3"><tspan x="87.2871" y="71.3432" xml:space="preserve">      A,</tspan></tspan><tspan class="cls-3"><tspan x="87.2871" y="86.9428" xml:space="preserve">      B,</tspan></tspan><tspan class="cls-3"><tspan x="87.2871" y="102.5429" xml:space="preserve">      C</tspan></tspan><tspan class="cls-3"><tspan x="87.2871" y="118.143" xml:space="preserve">    ]</tspan></tspan><tspan class="cls-3"><tspan x="87.2871" y="133.7431" xml:space="preserve">  }</tspan></tspan></text>
  <rect class="cls-7" x="323.6233" y="17.5411" width="212.3254" height="188.5289" rx=".9207" ry=".9207"/>
  <text class="cls-9" transform="translate(347.1844 40.2057)"><tspan class="cls-3"><tspan x="0" y="0">{</tspan></tspan><tspan class="cls-3" x="0" y="15.6001" xml:space="preserve">    &quot;</tspan><tspan class="cls-5" x="38.9995" y="15.6001">or</tspan><tspan class="cls-3" x="54.5991" y="15.6001">&quot;: [</tspan><tspan class="cls-3"><tspan x="0" y="31.2002" xml:space="preserve">      A,</tspan></tspan><tspan class="cls-3"><tspan x="0" y="46.7998" xml:space="preserve">      B,</tspan></tspan><tspan class="cls-3"><tspan x="0" y="62.3999" xml:space="preserve">      C</tspan></tspan><tspan class="cls-3"><tspan x="0" y="78" xml:space="preserve">    ]</tspan></tspan><tspan class="cls-3"><tspan x="0" y="93.6001" xml:space="preserve">  }</tspan></tspan></text>
  <rect class="cls-7" x="583.5719" y="17.5411" width="212.3255" height="188.5289" rx=".9206" ry=".9206"/>
  <text class="cls-9" transform="translate(607.1844 40.2057)"><tspan class="cls-3"><tspan x="0" y="0">{</tspan></tspan><tspan class="cls-3" x="0" y="15.6001" xml:space="preserve">    &quot;</tspan><tspan class="cls-5" x="38.9995" y="15.6001">or</tspan><tspan class="cls-3" x="54.5991" y="15.6001">&quot;: [</tspan><tspan class="cls-3"><tspan x="0" y="31.2002" xml:space="preserve">      A,</tspan></tspan><tspan class="cls-3"><tspan x="0" y="46.7998" xml:space="preserve">      {</tspan></tspan><tspan class="cls-3" x="0" y="62.3999" xml:space="preserve">        &quot;</tspan><tspan class="cls-1" x="70.1987" y="62.3999">and</tspan><tspan class="cls-3" x="93.5986" y="62.3999">&quot;: [</tspan><tspan class="cls-3"><tspan x="0" y="78" xml:space="preserve">          B,</tspan></tspan><tspan class="cls-3"><tspan x="0" y="93.6001" xml:space="preserve">          C</tspan></tspan><tspan class="cls-3"><tspan x="0" y="109.2002" xml:space="preserve">        ]</tspan></tspan><tspan class="cls-3"><tspan x="0" y="124.7998" xml:space="preserve">      }</tspan></tspan><tspan class="cls-3"><tspan x="0" y="140.3999" xml:space="preserve">    ]</tspan></tspan><tspan class="cls-3"><tspan x="0" y="156" xml:space="preserve">  }</tspan></tspan></text>
  <circle class="cls-6" cx="323.8262" cy="17.7916" r="13.7397" transform="translate(231.6761 328.739) rotate(-76.6374)"/>
  <circle class="cls-6" cx="583.5282" cy="17.7916" r="13.7397" transform="translate(178.4683 438.2059) rotate(-47.812)"/>
  <text class="cls-8" transform="translate(59.1602 22.5081)"><tspan x="0" y="0">1</tspan></text>
  <text class="cls-8" transform="translate(319.7715 22.5892)"><tspan x="0" y="0">2</tspan></text>
  <text class="cls-8" transform="translate(579.4736 22.5081)"><tspan x="0" y="0">3</tspan></text>
  <text class="cls-4" transform="translate(87.2917 40.6256)"><tspan x="0" y="0">{</tspan><tspan x="0" y="18" xml:space="preserve">      </tspan></text>
</svg>