<?xml version="1.0" encoding="utf-8"?>
<!-- Generator: Adobe Illustrator 24.2.3, SVG Export Plug-In . SVG Version: 6.00 Build 0)  -->
<svg version="1.1" id="Layer_1" xmlns="http://www.w3.org/2000/svg" xmlns:xlink="http://www.w3.org/1999/xlink" x="0px" y="0px"
	 viewBox="0 0 1056 752" style="enable-background:new 0 0 1056 752;" xml:space="preserve">
<style type="text/css">
	.st0{fill:#F0F0F0;}
	.st1{fill:none;stroke:#FFFFFF;stroke-width:1.0318;stroke-linecap:round;stroke-miterlimit:10;}
	.st2{stroke:#FFFFFF;stroke-width:1.0318;stroke-miterlimit:10;}
	.st3{fill:#002D9C;}
	.st4{fill:none;stroke:#A0A0A0;stroke-linecap:round;stroke-linejoin:round;stroke-dasharray:0,4,0,4,0,4;}
	.st5{fill:none;stroke:#6F6F6F;stroke-width:0.5;stroke-linejoin:round;}
	.st6{fill:#6F6F6F;}
	.st7{fill:#BEBEBE;}
	.st8{fill:#757575;}
	.st9{fill:none;stroke:#FFFFFF;stroke-width:1.0318;stroke-linecap:round;stroke-linejoin:round;}
	.st10{fill:#757575;stroke:#FFFFFF;stroke-width:1.0318;stroke-linecap:round;stroke-linejoin:round;}
	.st11{fill:none;stroke:#FFFFFF;stroke-width:0.72;stroke-linecap:round;stroke-linejoin:round;}
	.st12{fill:none;stroke:#FFFFFF;stroke-width:0.72;stroke-linejoin:round;}
	.st13{fill:none;stroke:#FFFFFF;stroke-width:0.72;stroke-miterlimit:10;}
	.st14{fill:#0F62FE;}
	.st15{fill-rule:evenodd;clip-rule:evenodd;fill:#FFFFFF;stroke:#FFFFFF;stroke-width:0.25;stroke-miterlimit:10;}
	.st16{fill:#8A3FFC;}
	.st17{fill:#009D9A;}
	.st18{fill:none;stroke:#6F6F6F;stroke-width:0.5;stroke-miterlimit:10;}
	.st19{fill:none;stroke:#A56EFF;stroke-width:0.5;stroke-linecap:round;stroke-miterlimit:10;}
	
		.st20{fill:none;stroke:#A56EFF;stroke-width:0.5;stroke-linecap:round;stroke-miterlimit:10;stroke-dasharray:2.9782,1.9855,2.9782,1.9855;}
	
		.st21{fill:none;stroke:#A56EFF;stroke-width:0.5;stroke-linecap:round;stroke-miterlimit:10;stroke-dasharray:2.9782,1.9855,2.9782,1.9855,2.9782,1.9855;}
	.st22{fill:#A56EFF;}
</style>
<rect x="789.1" y="114.3" class="st0" width="146.9" height="566.8"/>
<path d="M834.2,26.7c-1,0-2-0.2-2.9-0.6c-0.8-0.4-1.4-0.9-2-1.5l1.8-1.9c0.8,0.9,2,1.5,3.2,1.5c0.5,0,1.1-0.1,1.5-0.4
	c0.3-0.3,0.5-0.7,0.5-1.1c0-0.3-0.1-0.6-0.3-0.9c-0.3-0.3-0.8-0.5-1.2-0.5l-1.3-0.2c-1.1-0.1-2.2-0.5-3-1.2c-0.7-0.7-1-1.6-0.9-2.6
	c0-0.5,0.1-1.1,0.3-1.6c0.2-0.5,0.5-0.9,0.9-1.2c0.4-0.4,1-0.6,1.5-0.8c0.7-0.2,1.3-0.3,2-0.3c0.9,0,1.7,0.1,2.6,0.5
	c0.7,0.3,1.4,0.8,1.9,1.3l-1.9,1.9c-0.3-0.4-0.7-0.6-1.1-0.9c-0.5-0.2-1.1-0.4-1.6-0.3c-0.5,0-1,0.1-1.4,0.3
	c-0.3,0.2-0.5,0.5-0.5,0.9c0,0.4,0.1,0.7,0.4,0.9c0.3,0.2,0.7,0.4,1.2,0.4l1.3,0.2c1.1,0.1,2.1,0.5,2.9,1.2c0.7,0.7,1,1.6,1,2.6
	c0,0.6-0.1,1.2-0.3,1.7c-0.2,0.5-0.5,1-1,1.3c-0.5,0.4-1,0.7-1.6,0.9C835.6,26.6,834.9,26.7,834.2,26.7z"/>
<path d="M845.3,26.7c-0.7,0-1.3-0.1-1.9-0.4c-0.5-0.2-1-0.6-1.4-1c-0.4-0.5-0.7-1-0.9-1.6c-0.2-0.7-0.3-1.4-0.3-2.1
	c0-0.7,0.1-1.4,0.3-2.1c0.2-0.6,0.5-1.1,0.9-1.6c0.4-0.4,0.9-0.8,1.4-1c0.6-0.2,1.3-0.4,1.9-0.3c0.9,0,1.7,0.2,2.5,0.7
	c0.7,0.4,1.2,1.1,1.4,1.9l-2.2,1c-0.1-0.4-0.3-0.7-0.5-0.9c-0.3-0.3-0.7-0.4-1.1-0.4c-0.5,0-0.9,0.2-1.2,0.5
	c-0.3,0.4-0.5,0.9-0.4,1.5v1.8c0,0.5,0.1,1,0.4,1.5c0.3,0.4,0.8,0.6,1.2,0.5c0.4,0,0.8-0.1,1.2-0.4c0.3-0.3,0.5-0.6,0.6-1l2.1,0.9
	c-0.2,0.8-0.8,1.5-1.5,2C847,26.5,846.1,26.8,845.3,26.7z"/>
<path d="M854.7,26.7c-0.7,0-1.3-0.1-1.9-0.3c-0.5-0.2-1-0.6-1.4-1c-0.4-0.5-0.7-1-0.9-1.6c-0.4-1.4-0.4-2.8,0-4.2
	c0.2-0.6,0.5-1.1,0.9-1.6c0.4-0.4,0.9-0.8,1.4-1c1.2-0.5,2.6-0.5,3.8,0c0.5,0.2,1,0.6,1.4,1c0.4,0.5,0.7,1,0.9,1.6
	c0.4,1.4,0.4,2.8,0,4.2c-0.2,0.6-0.5,1.1-0.9,1.6c-0.4,0.4-0.9,0.8-1.4,1C856,26.6,855.3,26.7,854.7,26.7z M854.7,24.6
	c0.5,0,0.9-0.2,1.2-0.5c0.3-0.4,0.5-0.9,0.4-1.4v-2c0-0.5-0.1-1-0.4-1.4c-0.7-0.7-1.8-0.7-2.5,0c-0.3,0.4-0.5,0.9-0.4,1.4v2
	c0,0.5,0.1,1,0.4,1.4C853.8,24.4,854.2,24.6,854.7,24.6L854.7,24.6z"/>
<path d="M861.1,16.9h2.7v1.6h0.1c0.1-0.5,0.5-1,0.9-1.3c0.5-0.3,1.1-0.5,1.7-0.5c1.1-0.1,2.1,0.4,2.8,1.3c0.7,1.1,1,2.4,0.9,3.7
	c0.1,1.3-0.2,2.6-0.9,3.8c-0.6,0.9-1.7,1.4-2.8,1.3c-0.3,0-0.6,0-0.9-0.1c-0.3-0.1-0.5-0.2-0.8-0.4c-0.2-0.2-0.4-0.4-0.6-0.6
	c-0.2-0.2-0.3-0.5-0.3-0.7h-0.1v5.3h-2.7L861.1,16.9z M865.6,24.5c0.5,0,1-0.2,1.3-0.5c0.4-0.4,0.5-0.9,0.5-1.5v-1.7
	c0-0.5-0.2-1.1-0.5-1.5c-0.3-0.4-0.8-0.6-1.3-0.5c-0.5,0-0.9,0.1-1.3,0.4c-0.3,0.2-0.5,0.6-0.5,1v2.8c0,0.4,0.2,0.8,0.5,1
	C864.7,24.4,865.2,24.5,865.6,24.5z"/>
<path d="M876.3,26.7c-0.7,0-1.3-0.1-2-0.4c-0.6-0.2-1.1-0.6-1.5-1c-0.4-0.5-0.7-1-0.9-1.6c-0.4-1.4-0.4-2.8,0-4.2
	c0.2-0.6,0.5-1.1,0.9-1.6c0.4-0.4,0.9-0.8,1.4-1c0.6-0.2,1.3-0.4,1.9-0.4c0.7,0,1.4,0.1,2,0.4c0.5,0.2,1,0.6,1.4,1.1
	c0.4,0.5,0.6,1,0.8,1.6c0.2,0.6,0.3,1.2,0.2,1.9v0.8h-6.2v0.1c-0.1,1,0.6,2,1.7,2.1c0.2,0,0.3,0,0.5,0c0.5,0,1-0.1,1.4-0.3
	c0.4-0.2,0.7-0.5,1-0.8l1.4,1.7c-0.5,0.5-1,0.9-1.7,1.2C877.9,26.6,877.1,26.7,876.3,26.7z M876.3,18.6c-0.5,0-1,0.2-1.3,0.5
	c-0.3,0.4-0.5,0.9-0.5,1.4v0.1h3.4v-0.2c0-0.5-0.1-1-0.4-1.4C877.2,18.8,876.7,18.6,876.3,18.6z"/>
<path d="M885.9,26.7c-0.8,0-1.6-0.1-2.4-0.5c-0.6-0.3-1.2-0.7-1.7-1.3l1.6-1.6c0.3,0.4,0.7,0.7,1.1,0.9c0.4,0.2,0.9,0.3,1.4,0.3
	c0.4,0,0.8,0,1.1-0.2c0.2-0.2,0.3-0.4,0.3-0.7c0-0.5-0.3-0.7-1-0.8l-1-0.1c-2.2-0.3-3.3-1.3-3.3-3c0-0.4,0.1-0.9,0.3-1.3
	c0.2-0.4,0.4-0.7,0.8-1c0.3-0.3,0.7-0.5,1.2-0.6c0.5-0.2,1-0.2,1.6-0.2c0.4,0,0.9,0,1.3,0.1c0.4,0.1,0.7,0.2,1,0.3
	c0.3,0.1,0.6,0.3,0.8,0.5c0.3,0.2,0.5,0.4,0.7,0.6l-1.6,1.6c-0.3-0.3-0.7-0.5-1-0.7c-0.4-0.2-0.8-0.3-1.2-0.3c-0.3,0-0.7,0-1,0.2
	c-0.2,0.1-0.3,0.4-0.3,0.6c0,0.2,0.1,0.4,0.2,0.6c0.2,0.2,0.5,0.3,0.8,0.3l1.1,0.1c2.1,0.3,3.2,1.2,3.2,2.9c0,0.4-0.1,0.9-0.3,1.3
	c-0.2,0.4-0.5,0.7-0.8,1c-0.4,0.3-0.8,0.5-1.3,0.7C887.1,26.7,886.5,26.7,885.9,26.7z"/>
<ellipse transform="matrix(0.3414 -0.9399 0.9399 0.3414 -25.7021 240.2986)" cx="158.6" cy="138.5" rx="37.9" ry="37.9"/>
<path class="st1" d="M169.6,125.6c0,5.6-4.6,10.2-10.2,10.2c-5.6,0-10.2-4.6-10.2-10.2s4.6-10.2,10.2-10.2S169.6,120,169.6,125.6
	C169.6,125.6,169.6,125.6,169.6,125.6"/>
<path class="st1" d="M139.4,161c2.2-11.1,13-18.2,24-16c8,1.6,14.3,7.8,16,15.8"/>
<circle class="st1" cx="159.5" cy="138.5" r="30.2"/>
<circle class="st2" cx="139.4" cy="161" r="2.3"/>
<path d="M135.8,196.1c-0.7,0-1.4-0.1-2-0.4c-0.6-0.3-1-0.7-1.4-1.2l0.9-0.7c0.3,0.4,0.7,0.8,1.1,1c0.4,0.2,1,0.4,1.5,0.4
	c0.6,0,1.1-0.1,1.6-0.5c0.4-0.3,0.6-0.8,0.5-1.3c0-0.4-0.1-0.8-0.4-1.1c-0.4-0.3-0.9-0.5-1.4-0.6l-0.8-0.2c-0.7-0.1-1.4-0.4-2-0.9
	c-0.5-0.4-0.7-1.1-0.7-1.7c0-0.4,0.1-0.8,0.2-1.1c0.1-0.3,0.4-0.6,0.7-0.8c0.3-0.2,0.6-0.4,1-0.5c0.4-0.1,0.9-0.2,1.3-0.2
	c0.6,0,1.3,0.1,1.9,0.4c0.5,0.3,1,0.7,1.3,1.2l-0.9,0.6c-0.3-0.4-0.6-0.7-1-0.9c-0.4-0.2-0.9-0.3-1.4-0.3c-0.5,0-1,0.1-1.5,0.4
	c-0.4,0.3-0.6,0.7-0.5,1.2c0,0.4,0.1,0.8,0.4,1c0.4,0.3,0.9,0.5,1.4,0.6l0.8,0.2c0.8,0.1,1.5,0.5,2.1,1c0.4,0.5,0.7,1.1,0.6,1.7
	c0,0.4-0.1,0.8-0.2,1.2c-0.1,0.3-0.4,0.7-0.7,0.9c-0.3,0.3-0.7,0.5-1,0.6C136.7,196,136.3,196.1,135.8,196.1z"/>
<path d="M143.6,196.1c-0.5,0-0.9-0.1-1.3-0.3c-0.4-0.2-0.7-0.4-1-0.8c-0.3-0.3-0.5-0.7-0.6-1.2c-0.3-1-0.3-2.1,0-3.1
	c0.1-0.4,0.4-0.8,0.6-1.2c0.3-0.3,0.6-0.6,1-0.8c0.4-0.2,0.9-0.3,1.3-0.3c0.4,0,0.9,0.1,1.3,0.3c0.4,0.2,0.7,0.4,1,0.7
	c0.3,0.3,0.5,0.7,0.6,1.1c0.1,0.4,0.2,0.9,0.2,1.4v0.5h-5.1v0.3c0,0.3,0,0.6,0.1,0.8c0.1,0.3,0.2,0.5,0.4,0.7
	c0.2,0.2,0.4,0.4,0.7,0.5c0.3,0.1,0.6,0.2,0.9,0.2c0.4,0,0.8-0.1,1.2-0.3c0.3-0.2,0.6-0.5,0.8-0.9l0.8,0.6c-0.2,0.5-0.6,0.9-1.1,1.2
	C144.9,196,144.3,196.1,143.6,196.1z M143.6,189.6c-0.3,0-0.6,0-0.8,0.2c-0.2,0.1-0.5,0.3-0.6,0.4c-0.2,0.2-0.3,0.4-0.4,0.7
	c-0.1,0.3-0.2,0.6-0.2,0.9v0.1h3.9v-0.1c0-0.6-0.2-1.1-0.5-1.5C144.7,189.8,144.2,189.6,143.6,189.6L143.6,189.6z"/>
<path d="M151.2,196.1c-0.5,0-0.9-0.1-1.3-0.3c-0.4-0.2-0.7-0.4-1-0.7c-0.3-0.3-0.5-0.7-0.6-1.2c-0.3-1-0.3-2.1,0-3.1
	c0.1-0.4,0.3-0.8,0.6-1.2c0.3-0.3,0.6-0.6,1-0.7c0.4-0.2,0.9-0.3,1.3-0.3c0.6,0,1.2,0.1,1.7,0.5c0.4,0.3,0.8,0.7,1,1.2l-0.9,0.5
	c-0.1-0.3-0.3-0.6-0.6-0.9c-0.3-0.2-0.7-0.3-1.1-0.3c-0.3,0-0.6,0-0.9,0.2c-0.2,0.1-0.4,0.2-0.6,0.4c-0.2,0.2-0.3,0.4-0.4,0.7
	c-0.1,0.3-0.1,0.6-0.1,0.9v1.2c0,0.6,0.2,1.1,0.5,1.5c0.4,0.4,0.9,0.6,1.5,0.6c0.8,0,1.6-0.5,1.9-1.2l0.8,0.5
	c-0.2,0.5-0.6,0.9-1,1.2C152.4,196,151.8,196.1,151.2,196.1z"/>
<path d="M159.9,194.8L159.9,194.8c-0.1,0.2-0.2,0.3-0.3,0.5c-0.1,0.2-0.2,0.3-0.4,0.4c-0.2,0.1-0.4,0.2-0.6,0.3
	c-0.2,0.1-0.5,0.1-0.8,0.1c-0.7,0-1.3-0.2-1.8-0.7c-0.5-0.6-0.7-1.3-0.6-2v-4.6h1.1v4.4c0,1.3,0.5,1.9,1.6,1.9c0.2,0,0.4,0,0.6-0.1
	c0.2-0.1,0.4-0.1,0.6-0.2c0.2-0.1,0.3-0.3,0.4-0.4c0.1-0.2,0.2-0.4,0.1-0.6v-4.9h1.1v7.1h-1.1V194.8z"/>
<path d="M163.3,195.9v-7.1h1.1v1.3h0.1c0.1-0.4,0.4-0.7,0.7-0.9c0.4-0.3,0.9-0.4,1.4-0.4h0.4v1.1h-0.6c-0.5,0-1,0.1-1.4,0.3
	c-0.3,0.2-0.5,0.5-0.5,0.8v4.8L163.3,195.9z"/>
<path d="M168.9,187.2c-0.2,0-0.4,0-0.5-0.2c-0.1-0.1-0.2-0.3-0.2-0.4v-0.2c0-0.2,0-0.3,0.2-0.4c0.3-0.2,0.7-0.2,1,0
	c0.1,0.1,0.2,0.3,0.2,0.4v0.2c0,0.2,0,0.3-0.2,0.4C169.3,187.1,169.1,187.2,168.9,187.2z M168.4,188.8h1.1v7.1h-1.1V188.8z"/>
<path d="M173.4,195.9c-0.3,0-0.6-0.1-0.9-0.3c-0.2-0.2-0.3-0.5-0.3-0.8v-5H171v-1h0.7c0.2,0,0.4,0,0.5-0.1c0.1-0.1,0.1-0.3,0.1-0.5
	v-1.3h1v2h1.6v1h-1.6v5.2h1.4v1H173.4z"/>
<path d="M181,188.8h1.1l-3.2,8.8c-0.1,0.2-0.2,0.4-0.2,0.5c-0.1,0.1-0.2,0.2-0.3,0.3c-0.1,0.1-0.3,0.2-0.4,0.2
	c-0.2,0-0.4,0.1-0.7,0.1h-0.6v-1h1.1l0.5-1.5l-2.7-7.4h1.1l1.7,4.8l0.3,1.2h0.1l0.4-1.2L181,188.8z"/>
<path d="M143.5,206.3h-1.2v-1h1.2v-1.4c0-0.4,0.1-0.9,0.4-1.2c0.3-0.3,0.7-0.5,1.2-0.5h1.1v1h-1.5v2.1h1.5v1h-1.5v6.1h-1.1
	L143.5,206.3z"/>
<path d="M150.3,212.6c-0.4,0-0.9-0.1-1.3-0.3c-0.4-0.2-0.7-0.4-1-0.8c-0.3-0.3-0.5-0.7-0.7-1.2c-0.3-1-0.3-2.1,0-3.1
	c0.1-0.4,0.4-0.8,0.7-1.2c0.3-0.3,0.6-0.6,1-0.8c0.4-0.2,0.9-0.3,1.3-0.3c0.4,0,0.9,0.1,1.3,0.3c0.4,0.2,0.7,0.4,1,0.8
	c0.3,0.3,0.5,0.7,0.7,1.2c0.3,1,0.3,2.1,0,3.1c-0.1,0.4-0.4,0.8-0.7,1.2c-0.3,0.3-0.6,0.6-1,0.8
	C151.1,212.6,150.7,212.6,150.3,212.6z M150.3,211.7c0.5,0,1.1-0.2,1.5-0.6c0.4-0.5,0.6-1.1,0.6-1.7v-1c0-0.6-0.2-1.2-0.6-1.7
	c-0.8-0.7-2.1-0.7-2.9,0c-0.4,0.5-0.6,1.1-0.6,1.7v1c0,0.6,0.2,1.2,0.6,1.7C149.2,211.5,149.7,211.7,150.3,211.7z"/>
<path d="M157.9,212.6c-0.5,0-0.9-0.1-1.3-0.3c-0.4-0.2-0.7-0.4-1-0.7c-0.3-0.3-0.5-0.7-0.6-1.2c-0.3-1-0.3-2.1,0-3.1
	c0.1-0.4,0.3-0.8,0.6-1.2c0.3-0.3,0.6-0.6,1-0.7c0.4-0.2,0.9-0.3,1.3-0.3c0.6,0,1.2,0.1,1.7,0.5c0.4,0.3,0.8,0.7,1,1.2l-0.9,0.5
	c-0.1-0.3-0.3-0.6-0.6-0.9c-0.3-0.2-0.7-0.3-1.1-0.3c-0.3,0-0.6,0-0.9,0.2c-0.2,0.1-0.4,0.2-0.6,0.4c-0.2,0.2-0.3,0.4-0.4,0.7
	c-0.1,0.3-0.1,0.6-0.1,0.9v1.2c0,0.6,0.2,1.1,0.5,1.5c0.4,0.4,0.9,0.6,1.5,0.6c0.8,0,1.6-0.5,1.9-1.2l0.8,0.5
	c-0.2,0.5-0.6,0.9-1,1.2C159.1,212.5,158.5,212.7,157.9,212.6z"/>
<path d="M167.4,212.5c-0.3,0-0.7-0.1-0.9-0.3c-0.2-0.2-0.3-0.5-0.3-0.8h-0.1c-0.1,0.4-0.4,0.8-0.8,1c-0.4,0.2-0.8,0.3-1.3,0.3
	c-0.6,0-1.3-0.2-1.8-0.6c-0.4-0.4-0.7-1-0.6-1.6c0-0.6,0.2-1.2,0.7-1.5c0.7-0.4,1.5-0.6,2.3-0.5h1.4v-0.7c0-0.4-0.1-0.8-0.4-1.2
	c-0.4-0.3-0.8-0.4-1.3-0.4c-0.4,0-0.8,0.1-1.1,0.3c-0.3,0.2-0.5,0.5-0.7,0.8l-0.7-0.6c0.2-0.4,0.5-0.7,0.9-1c0.5-0.3,1-0.4,1.6-0.4
	c0.7,0,1.4,0.2,2,0.6c0.5,0.5,0.8,1.1,0.7,1.8v3.9h0.8v1L167.4,212.5z M164.2,211.7c0.3,0,0.5,0,0.8-0.1c0.2-0.1,0.4-0.1,0.6-0.3
	c0.2-0.1,0.3-0.3,0.4-0.4c0.1-0.2,0.1-0.3,0.1-0.5v-1.2h-1.5c-0.5,0-1,0.1-1.4,0.3c-0.3,0.2-0.4,0.5-0.4,0.8v0.3
	c0,0.3,0.1,0.6,0.4,0.8C163.5,211.6,163.9,211.7,164.2,211.7L164.2,211.7z"/>
<path d="M170.7,212.5c-0.3,0-0.6-0.1-0.9-0.3c-0.2-0.2-0.3-0.5-0.3-0.8v-9.1h1.1v9.2h1v1L170.7,212.5z"/>
<ellipse transform="matrix(0.9274 -0.374 0.374 0.9274 -13.0545 200.1137)" class="st3" cx="509.1" cy="133.7" rx="37.9" ry="37.9"/>
<path d="M480.7,194c-1.1,0.1-2.2-0.4-2.9-1.2c-0.8-1.1-1.1-2.4-1-3.7c-0.1-1.3,0.3-2.6,1-3.7c0.7-0.9,1.7-1.4,2.9-1.3
	c1.4-0.1,2.8,0.8,3.3,2.1l-0.9,0.6c-0.2-0.5-0.5-0.9-0.9-1.2c-0.4-0.3-1-0.5-1.5-0.4c-0.4,0-0.8,0.1-1.1,0.2
	c-0.3,0.2-0.6,0.4-0.8,0.7c-0.2,0.3-0.4,0.7-0.5,1c-0.1,0.4-0.2,0.9-0.2,1.3v1.4c0,0.8,0.2,1.7,0.7,2.3c0.5,0.6,1.2,0.9,1.9,0.8
	c0.6,0,1.1-0.1,1.5-0.5c0.4-0.3,0.7-0.8,0.9-1.3l0.9,0.6c-0.3,0.6-0.7,1.2-1.3,1.6C482.1,193.8,481.4,194,480.7,194z"/>
<path d="M488.4,194c-0.4,0-0.9-0.1-1.3-0.3c-0.4-0.2-0.7-0.4-1-0.8c-0.3-0.3-0.5-0.7-0.7-1.2c-0.3-1-0.3-2.1,0-3.1
	c0.1-0.4,0.4-0.8,0.7-1.2c0.3-0.3,0.6-0.6,1-0.8c0.4-0.2,0.9-0.3,1.3-0.3c0.4,0,0.9,0.1,1.3,0.3c0.4,0.2,0.7,0.4,1,0.8
	c0.3,0.3,0.5,0.7,0.7,1.2c0.3,1,0.3,2.1,0,3.1c-0.1,0.4-0.4,0.8-0.7,1.2c-0.3,0.3-0.6,0.6-1,0.8C489.3,193.9,488.9,194,488.4,194z
	 M488.4,193c0.5,0,1.1-0.2,1.5-0.6c0.4-0.5,0.6-1.1,0.6-1.7v-1c0-0.6-0.2-1.2-0.6-1.7c-0.8-0.7-2.1-0.7-2.9,0
	c-0.4,0.5-0.6,1.1-0.6,1.7v1c0,0.6,0.2,1.2,0.6,1.7C487.4,192.9,487.9,193,488.4,193z"/>
<path d="M493.5,193.8v-7.1h1.1v1.1h0.1c0.2-0.4,0.4-0.7,0.7-1c0.4-0.3,0.8-0.4,1.3-0.4c0.7,0,1.3,0.2,1.7,0.7c0.5,0.6,0.7,1.3,0.6,2
	v4.6h-1.1v-4.4c0-1.3-0.5-1.9-1.6-1.9c-0.2,0-0.4,0-0.6,0.1c-0.2,0.1-0.4,0.1-0.6,0.2c-0.2,0.1-0.3,0.3-0.4,0.4
	c-0.1,0.2-0.1,0.4-0.1,0.6v4.9L493.5,193.8z"/>
<path d="M501.7,187.7h-1.2v-1h1.2v-1.4c0-0.4,0.1-0.9,0.4-1.2c0.3-0.3,0.7-0.5,1.2-0.5h1.1v1h-1.5v2.1h4v7.1h-1.1v-6.1h-2.9v6.1
	h-1.1L501.7,187.7z M506.2,185.1c-0.2,0-0.4,0-0.5-0.2c-0.1-0.1-0.2-0.3-0.2-0.4v-0.2c0-0.2,0-0.3,0.2-0.4c0.3-0.2,0.7-0.2,1,0
	c0.1,0.1,0.2,0.3,0.2,0.4v0.2c0,0.2,0,0.3-0.2,0.4C506.6,185,506.4,185.1,506.2,185.1z"/>
<path d="M515.1,194.6c0,0.7-0.3,1.3-0.9,1.6c-0.8,0.4-1.7,0.6-2.6,0.5c-0.8,0.1-1.7-0.1-2.4-0.5c-0.5-0.3-0.7-0.8-0.7-1.3
	c0-0.3,0.1-0.7,0.3-0.9c0.2-0.2,0.5-0.4,0.8-0.5v-0.2c-0.4-0.2-0.7-0.6-0.6-1c0-0.3,0.1-0.6,0.3-0.8c0.3-0.2,0.6-0.3,0.9-0.4v-0.1
	c-0.4-0.2-0.7-0.5-1-0.9c-0.2-0.4-0.4-0.9-0.4-1.3c0-0.3,0.1-0.7,0.2-1c0.1-0.3,0.3-0.6,0.5-0.8c0.2-0.2,0.5-0.4,0.8-0.5
	c0.8-0.3,1.7-0.2,2.4,0.1v-0.1c0-0.2,0.1-0.5,0.2-0.7c0.2-0.2,0.4-0.3,0.6-0.3h1.1v1h-1.4v0.5c0.3,0.2,0.5,0.5,0.6,0.8
	c0.1,0.3,0.2,0.7,0.2,1c0,0.3-0.1,0.7-0.2,1c-0.1,0.3-0.3,0.6-0.5,0.8c-0.2,0.2-0.5,0.4-0.8,0.5c-0.4,0.1-0.7,0.2-1.1,0.2
	c-0.2,0-0.5,0-0.7-0.1c-0.2,0.1-0.4,0.2-0.6,0.3c-0.2,0.1-0.3,0.3-0.3,0.5c0,0.2,0.1,0.4,0.3,0.4c0.3,0.1,0.5,0.1,0.8,0.1h1.5
	c0.7-0.1,1.4,0.1,1.9,0.5C514.9,193.6,515.1,194.1,515.1,194.6z M514.1,194.7c0-0.3-0.1-0.5-0.3-0.7c-0.3-0.2-0.8-0.3-1.2-0.3h-2.4
	c-0.4,0.1-0.7,0.5-0.7,1c0,0.3,0.1,0.6,0.4,0.8c0.3,0.3,0.8,0.4,1.2,0.3h1c0.5,0,1-0.1,1.4-0.3C513.9,195.4,514.1,195.1,514.1,194.7
	z M511.6,190.6c0.4,0,0.8-0.1,1.1-0.3c0.3-0.3,0.4-0.7,0.4-1v-0.4c0-0.4-0.1-0.8-0.4-1c-0.7-0.5-1.6-0.5-2.2,0
	c-0.3,0.3-0.4,0.7-0.4,1v0.4c0,0.4,0.1,0.8,0.4,1C510.8,190.5,511.2,190.6,511.6,190.6L511.6,190.6z"/>
<path d="M519.6,193.8v-7.1h1.1v1.3h0.1c0.1-0.4,0.4-0.7,0.7-0.9c0.4-0.3,0.9-0.4,1.4-0.4h0.4v1.1h-0.6c-0.5,0-1,0.1-1.4,0.3
	c-0.3,0.2-0.5,0.5-0.5,0.8v4.8L519.6,193.8z"/>
<path d="M529.1,192.7L529.1,192.7c-0.1,0.2-0.2,0.3-0.3,0.5c-0.1,0.2-0.2,0.3-0.4,0.4c-0.2,0.1-0.4,0.2-0.6,0.3
	c-0.2,0.1-0.5,0.1-0.8,0.1c-0.7,0-1.3-0.2-1.8-0.7c-0.5-0.6-0.7-1.3-0.6-2v-4.6h1.1v4.4c0,1.3,0.5,1.9,1.6,1.9c0.2,0,0.4,0,0.6-0.1
	c0.2-0.1,0.4-0.1,0.6-0.2c0.2-0.1,0.3-0.3,0.4-0.4c0.1-0.2,0.2-0.4,0.1-0.6v-4.9h1.1v7.1h-1.1L529.1,192.7z"/>
<path d="M533.7,193.8c-0.3,0-0.6-0.1-0.9-0.3c-0.2-0.2-0.3-0.5-0.3-0.8v-9.1h1.1v9.2h1v1L533.7,193.8z"/>
<path d="M538.9,194c-0.5,0-0.9-0.1-1.3-0.3c-0.4-0.2-0.7-0.4-1-0.8c-0.3-0.3-0.5-0.7-0.6-1.2c-0.3-1-0.3-2.1,0-3.1
	c0.1-0.4,0.4-0.8,0.6-1.2c0.3-0.3,0.6-0.6,1-0.8c0.4-0.2,0.9-0.3,1.3-0.3c0.4,0,0.9,0.1,1.3,0.3c0.4,0.2,0.7,0.4,1,0.7
	c0.3,0.3,0.5,0.7,0.6,1.1c0.1,0.4,0.2,0.9,0.2,1.4v0.5h-5.1v0.3c0,0.3,0,0.6,0.1,0.8c0.1,0.3,0.2,0.5,0.4,0.7
	c0.2,0.2,0.4,0.4,0.7,0.5c0.3,0.1,0.6,0.2,0.9,0.2c0.4,0,0.8-0.1,1.2-0.3c0.3-0.2,0.6-0.5,0.8-0.9l0.8,0.6c-0.2,0.5-0.6,0.9-1.1,1.2
	C540.2,193.9,539.5,194,538.9,194z M538.9,187.5c-0.3,0-0.6,0-0.8,0.2c-0.2,0.1-0.5,0.3-0.6,0.4c-0.2,0.2-0.3,0.4-0.4,0.7
	c-0.1,0.3-0.2,0.6-0.2,0.9v0.1h3.9v-0.1c0-0.6-0.2-1.1-0.5-1.5C540,187.7,539.5,187.5,538.9,187.5z"/>
<path d="M141.3,12.7v7.9c-0.1,0.7,0.1,1.4,0.5,2c1,0.9,2.5,0.9,3.6,0c0.4-0.6,0.6-1.3,0.5-2v-7.9h2.7v7.6c0,0.8-0.1,1.6-0.3,2.5
	c-0.1,0.6-0.4,1.2-0.9,1.7c-0.4,0.5-1,0.8-1.6,1c-1.5,0.4-3.1,0.4-4.7,0c-0.6-0.2-1.1-0.5-1.6-1c-0.4-0.5-0.7-1.1-0.9-1.7
	c-0.2-0.8-0.3-1.6-0.3-2.5v-7.6H141.3z"/>
<path d="M154.5,25.7c-0.8,0-1.6-0.1-2.4-0.5c-0.6-0.3-1.2-0.7-1.7-1.3l1.6-1.6c0.3,0.4,0.7,0.7,1.1,0.9c0.4,0.2,0.9,0.3,1.4,0.3
	c0.4,0,0.8,0,1.1-0.2c0.2-0.2,0.3-0.4,0.3-0.7c0-0.5-0.3-0.7-1-0.8l-1-0.1c-2.2-0.3-3.3-1.3-3.3-3c0-0.4,0.1-0.9,0.3-1.3
	c0.2-0.4,0.4-0.7,0.8-1c0.3-0.3,0.7-0.5,1.2-0.6c0.5-0.2,1-0.2,1.6-0.2c0.4,0,0.9,0,1.3,0.1c0.4,0.1,0.7,0.2,1,0.3
	c0.3,0.1,0.6,0.3,0.8,0.5c0.3,0.2,0.5,0.4,0.7,0.6l-1.6,1.6c-0.3-0.3-0.7-0.5-1-0.7c-0.4-0.2-0.8-0.3-1.2-0.3c-0.3,0-0.7,0-1,0.2
	c-0.2,0.1-0.3,0.4-0.3,0.6c0,0.2,0.1,0.4,0.2,0.6c0.2,0.2,0.5,0.3,0.8,0.3l1.1,0.1c2.1,0.3,3.2,1.2,3.2,2.9c0,0.4-0.1,0.9-0.3,1.3
	c-0.2,0.4-0.5,0.7-0.8,1c-0.4,0.3-0.8,0.5-1.3,0.7C155.6,25.6,155.1,25.7,154.5,25.7z"/>
<path d="M164.5,25.7c-0.7,0-1.3-0.1-2-0.4c-0.6-0.2-1.1-0.6-1.5-1c-0.4-0.5-0.7-1-0.9-1.6c-0.4-1.4-0.4-2.8,0-4.2
	c0.2-0.6,0.5-1.1,0.9-1.6c0.4-0.4,0.9-0.8,1.4-1c0.6-0.2,1.3-0.4,1.9-0.4c0.7,0,1.4,0.1,2,0.4c0.5,0.2,1,0.6,1.4,1.1
	c0.4,0.5,0.6,1,0.8,1.6c0.2,0.6,0.3,1.2,0.2,1.9v0.8h-6.2v0.1c-0.1,1,0.6,2,1.7,2.1c0.2,0,0.3,0,0.5,0c0.5,0,1-0.1,1.4-0.3
	c0.4-0.2,0.7-0.5,1-0.8l1.4,1.7c-0.5,0.5-1,0.9-1.7,1.2C166.1,25.6,165.3,25.7,164.5,25.7z M164.4,17.6c-0.5,0-1,0.2-1.3,0.5
	c-0.3,0.4-0.5,0.9-0.5,1.4v0.1h3.4v-0.2c0-0.5-0.1-1-0.4-1.4C165.4,17.8,164.9,17.6,164.4,17.6L164.4,17.6z"/>
<path d="M170.8,25.5v-9.6h2.7v2.1h0.1c0-0.3,0.1-0.5,0.3-0.8c0.1-0.2,0.3-0.5,0.5-0.7c0.2-0.2,0.5-0.4,0.7-0.5
	c0.3-0.1,0.7-0.2,1-0.2h0.5v2.5h-0.7c-0.6,0-1.2,0.1-1.8,0.3c-0.4,0.2-0.6,0.7-0.6,1.2v5.6L170.8,25.5z"/>
<path d="M376.1,25.7c-1,0-2-0.2-2.9-0.6c-0.8-0.4-1.4-0.9-2-1.5l1.8-1.9c0.8,0.9,2,1.5,3.2,1.5c0.5,0,1.1-0.1,1.5-0.4
	c0.3-0.3,0.5-0.7,0.5-1.1c0-0.3-0.1-0.6-0.3-0.9c-0.3-0.3-0.8-0.5-1.2-0.5l-1.3-0.2c-1.1-0.1-2.2-0.5-3-1.2c-0.7-0.7-1-1.6-0.9-2.6
	c0-0.5,0.1-1.1,0.3-1.6c0.2-0.5,0.5-0.9,0.9-1.2c0.4-0.4,1-0.6,1.5-0.8c0.7-0.2,1.3-0.3,2-0.3c0.9,0,1.7,0.1,2.6,0.5
	c0.7,0.3,1.4,0.8,1.9,1.3l-1.9,1.9c-0.3-0.4-0.7-0.6-1.1-0.9c-0.5-0.2-1.1-0.4-1.6-0.3c-0.5,0-1,0.1-1.4,0.3
	c-0.3,0.2-0.5,0.5-0.5,0.9c0,0.4,0.1,0.7,0.4,0.9c0.3,0.2,0.7,0.4,1.2,0.4l1.3,0.2c1.1,0.1,2.1,0.5,2.9,1.2c0.7,0.7,1,1.6,1,2.6
	c0,0.6-0.1,1.2-0.3,1.7c-0.2,0.5-0.5,1-1,1.3c-0.5,0.4-1,0.7-1.6,0.9C377.6,25.6,376.9,25.7,376.1,25.7z"/>
<path d="M387.3,25.7c-0.7,0-1.3-0.1-2-0.4c-0.6-0.2-1.1-0.6-1.5-1c-0.4-0.5-0.7-1-0.9-1.6c-0.4-1.4-0.4-2.8,0-4.2
	c0.2-0.6,0.5-1.1,0.9-1.6c0.4-0.4,0.9-0.8,1.4-1c0.6-0.2,1.3-0.4,1.9-0.4c0.7,0,1.4,0.1,2,0.4c0.5,0.2,1,0.6,1.4,1.1
	c0.4,0.5,0.6,1,0.8,1.6c0.2,0.6,0.3,1.2,0.2,1.9v0.8h-6.2v0.1c-0.1,1,0.6,2,1.7,2.1c0.2,0,0.3,0,0.5,0c0.5,0,1-0.1,1.4-0.3
	c0.4-0.2,0.7-0.5,1-0.8l1.4,1.7c-0.5,0.5-1,0.9-1.7,1.2C388.9,25.6,388.1,25.7,387.3,25.7z M387.3,17.6c-0.5,0-1,0.2-1.3,0.5
	c-0.3,0.4-0.5,0.9-0.5,1.4v0.1h3.4v-0.2c0-0.5-0.1-1-0.4-1.4C388.2,17.8,387.7,17.6,387.3,17.6L387.3,17.6z"/>
<path d="M397.5,25.7c-0.7,0-1.3-0.1-1.9-0.4c-0.5-0.2-1-0.6-1.4-1c-0.4-0.5-0.7-1-0.9-1.6c-0.2-0.7-0.3-1.4-0.3-2.1
	c0-0.7,0.1-1.4,0.3-2.1c0.2-0.6,0.5-1.1,0.9-1.6c0.4-0.4,0.9-0.8,1.4-1c0.6-0.2,1.3-0.4,1.9-0.3c0.9,0,1.7,0.2,2.5,0.7
	c0.7,0.4,1.2,1.1,1.4,1.9l-2.2,1c-0.1-0.4-0.3-0.7-0.5-0.9c-0.3-0.3-0.7-0.4-1.1-0.4c-0.5,0-0.9,0.2-1.2,0.5
	c-0.3,0.4-0.5,0.9-0.4,1.5v1.8c0,0.5,0.1,1,0.4,1.5c0.3,0.4,0.8,0.6,1.2,0.5c0.4,0,0.8-0.1,1.2-0.4c0.3-0.3,0.5-0.6,0.6-1l2.1,0.9
	c-0.2,0.8-0.8,1.5-1.5,2C399.2,25.5,398.4,25.7,397.5,25.7z"/>
<path d="M408.8,23.9L408.8,23.9c-0.2,0.2-0.3,0.5-0.4,0.7c-0.1,0.2-0.3,0.4-0.5,0.6c-0.2,0.2-0.5,0.3-0.8,0.4
	c-0.3,0.1-0.7,0.2-1,0.1c-0.9,0.1-1.7-0.3-2.2-1c-0.6-0.8-0.8-1.8-0.8-2.8v-6.1h2.7v5.8c0,0.5,0.1,0.9,0.3,1.4
	c0.2,0.3,0.7,0.5,1.1,0.5c0.2,0,0.4,0,0.6-0.1c0.2-0.1,0.4-0.1,0.6-0.3c0.2-0.1,0.3-0.3,0.4-0.4c0.1-0.2,0.2-0.4,0.1-0.6v-6.3h2.7
	v9.6h-2.7L408.8,23.9z"/>
<path d="M414.1,25.5v-9.6h2.7v2.1h0.1c0-0.3,0.1-0.5,0.3-0.8c0.1-0.3,0.3-0.5,0.5-0.7c0.2-0.2,0.5-0.4,0.7-0.5
	c0.3-0.1,0.7-0.2,1-0.2h0.5v2.5h-0.7c-0.6,0-1.2,0.1-1.8,0.3c-0.4,0.2-0.6,0.7-0.6,1.2v5.6L414.1,25.5z"/>
<path d="M422.9,14.8c-0.4,0-0.9-0.1-1.2-0.4c-0.3-0.3-0.4-0.6-0.4-1v-0.4c0-0.4,0.1-0.7,0.4-1c0.7-0.5,1.7-0.5,2.4,0
	c0.3,0.3,0.4,0.6,0.4,1v0.4c0,0.4-0.1,0.7-0.4,1C423.7,14.7,423.3,14.9,422.9,14.8z M421.5,15.9h2.7v9.6h-2.7V15.9z"/>
<path d="M430.1,25.5c-0.8,0.1-1.6-0.2-2.1-0.7c-0.5-0.6-0.8-1.3-0.7-2.1V18h-1.4v-2.1h0.7c0.3,0,0.6-0.1,0.8-0.3
	c0.1-0.2,0.2-0.5,0.2-0.8v-1.6h2.4v2.6h1.9V18H430v5.4h1.8v2.1L430.1,25.5z"/>
<path d="M439.7,15.9h2.5L438.5,27c-0.2,0.6-0.5,1.2-1,1.7c-0.6,0.4-1.2,0.6-1.9,0.5h-1.7v-2.1h1.8L436,26l-3.4-10.1h2.7l1.4,4.5
	l0.7,2.8h0.1l0.7-2.8L439.7,15.9z"/>
<path d="M455.1,25.5c-0.5,0-0.9-0.2-1.2-0.5c-0.3-0.3-0.6-0.8-0.6-1.2h-0.1c-0.1,0.6-0.5,1.1-1,1.4c-0.6,0.3-1.2,0.5-1.9,0.5
	c-0.8,0.1-1.6-0.2-2.2-0.8c-0.5-0.5-0.8-1.3-0.8-2c-0.1-0.9,0.4-1.8,1.1-2.3c0.9-0.5,2-0.8,3-0.7h1.5v-0.6c0-0.4-0.1-0.8-0.4-1.1
	c-0.3-0.3-0.8-0.5-1.2-0.4c-0.5,0-0.9,0.1-1.3,0.3c-0.3,0.2-0.6,0.5-0.8,0.8l-1.6-1.4c0.4-0.6,0.9-1,1.5-1.4
	c0.8-0.4,1.6-0.5,2.4-0.5c1.1-0.1,2.2,0.2,3.1,0.9c0.7,0.7,1.1,1.6,1,2.6v4.2h0.9v2.1L455.1,25.5z M451.3,23.8
	c0.4,0,0.8-0.1,1.2-0.3c0.3-0.2,0.5-0.6,0.5-0.9v-1.1h-1.3c-1.1,0-1.6,0.4-1.6,1.1v0.3c0,0.3,0.1,0.6,0.3,0.8
	C450.6,23.8,451,23.8,451.3,23.8z"/>
<path d="M458.4,25.5v-9.6h2.7v1.6h0.1c0.2-0.5,0.5-1,0.9-1.3c1.3-0.9,3-0.7,4,0.4c0.6,0.8,0.8,1.8,0.8,2.8v6h-2.7v-5.8
	c0-0.5-0.1-1-0.3-1.4c-0.2-0.3-0.6-0.5-1-0.5c-0.2,0-0.4,0-0.6,0.1c-0.2,0.1-0.4,0.1-0.6,0.3c-0.2,0.1-0.3,0.3-0.4,0.5
	c-0.1,0.2-0.2,0.4-0.1,0.6v6.2H458.4z"/>
<path d="M475.2,23.9L475.2,23.9c-0.2,0.3-0.3,0.5-0.4,0.7c-0.2,0.2-0.4,0.4-0.6,0.6c-0.2,0.2-0.5,0.3-0.8,0.4
	c-0.3,0.1-0.6,0.1-0.9,0.1c-1.1,0.1-2.1-0.4-2.8-1.3c-0.7-1.1-1-2.4-0.9-3.8c-0.1-1.3,0.2-2.6,0.9-3.7c0.6-0.9,1.7-1.4,2.8-1.3
	c0.6,0,1.2,0.2,1.7,0.5c0.5,0.3,0.8,0.8,0.9,1.3h0.1v-5.6h2.7v13.6h-2.7V23.9z M473.5,23.5c0.5,0,0.9-0.1,1.3-0.4
	c0.3-0.2,0.5-0.6,0.5-1v-2.8c0-0.4-0.2-0.8-0.5-1c-0.4-0.3-0.8-0.4-1.3-0.4c-0.5,0-0.9,0.2-1.3,0.5c-0.4,0.4-0.5,0.9-0.5,1.5v1.7
	c0,0.5,0.2,1.1,0.5,1.5C472.5,23.3,473,23.5,473.5,23.5z"/>
<path d="M490.2,25.7c-0.8,0-1.6-0.1-2.4-0.4c-0.7-0.3-1.3-0.7-1.8-1.2c-0.5-0.6-0.9-1.3-1.1-2c-0.3-0.9-0.4-1.9-0.4-2.9
	c0-1,0.1-1.9,0.4-2.9c0.2-0.8,0.6-1.5,1.1-2.1c0.5-0.6,1.1-1,1.8-1.3c0.7-0.3,1.5-0.5,2.4-0.4c1,0,2,0.2,2.9,0.7
	c0.8,0.6,1.5,1.4,1.9,2.3l-2.4,1.2c-0.1-0.5-0.4-0.9-0.8-1.3c-0.5-0.4-1-0.5-1.6-0.5c-0.7,0-1.5,0.3-2,0.8c-0.5,0.7-0.8,1.5-0.7,2.3
	v2.1c-0.1,0.8,0.2,1.7,0.7,2.3c0.5,0.5,1.2,0.8,2,0.8c0.6,0,1.2-0.2,1.6-0.6c0.4-0.4,0.7-0.8,0.9-1.4l2.3,1.3
	c-0.4,0.9-1.1,1.7-1.9,2.3C492.2,25.5,491.2,25.8,490.2,25.7z"/>
<path d="M500.7,25.7c-0.7,0-1.3-0.1-1.9-0.3c-0.5-0.2-1-0.6-1.4-1c-0.4-0.5-0.7-1-0.9-1.6c-0.4-1.4-0.4-2.8,0-4.2
	c0.2-0.6,0.5-1.1,0.9-1.6c0.4-0.4,0.9-0.8,1.4-1c1.2-0.5,2.6-0.5,3.8,0c0.5,0.2,1,0.6,1.4,1c0.4,0.5,0.7,1,0.9,1.6
	c0.4,1.4,0.4,2.8,0,4.2c-0.2,0.6-0.5,1.1-0.9,1.6c-0.4,0.4-0.9,0.8-1.4,1C502,25.6,501.4,25.7,500.7,25.7z M500.7,23.6
	c0.5,0,0.9-0.2,1.2-0.5c0.3-0.4,0.5-0.9,0.4-1.4v-2c0-0.5-0.1-1-0.4-1.4c-0.7-0.7-1.8-0.7-2.5,0c-0.3,0.4-0.5,0.9-0.4,1.4v2
	c0,0.5,0.1,1,0.4,1.4C499.8,23.4,500.2,23.6,500.7,23.6L500.7,23.6z"/>
<path d="M507.2,25.5v-9.6h2.7v1.6h0.1c0.2-0.5,0.5-1,0.9-1.3c0.5-0.4,1.1-0.6,1.7-0.5c0.6,0,1.2,0.2,1.7,0.5c0.5,0.4,0.8,0.9,1,1.5
	h0.1c0.2-0.6,0.6-1.1,1-1.4c0.3-0.2,0.6-0.3,0.9-0.4c0.3-0.1,0.7-0.2,1-0.2c0.8,0,1.6,0.3,2.1,1c0.5,0.8,0.8,1.8,0.7,2.8v6h-2.7
	v-5.8c0-1.2-0.4-1.8-1.3-1.8c-0.4,0-0.8,0.1-1.1,0.3c-0.3,0.2-0.5,0.6-0.5,1.1v6.2h-2.7v-5.8c0-1.2-0.4-1.8-1.3-1.8
	c-0.2,0-0.4,0-0.6,0.1c-0.2,0.1-0.4,0.1-0.5,0.3c-0.2,0.1-0.3,0.3-0.4,0.5c-0.1,0.2-0.1,0.4-0.1,0.6v6.2L507.2,25.5z"/>
<path d="M523.6,15.9h2.7v1.6h0.1c0.1-0.5,0.5-1,0.9-1.3c0.5-0.3,1.1-0.5,1.7-0.5c1.1-0.1,2.1,0.4,2.8,1.3c0.7,1.1,1,2.4,0.9,3.7
	c0.1,1.3-0.2,2.6-0.9,3.8c-0.6,0.9-1.7,1.4-2.8,1.3c-0.3,0-0.6,0-0.9-0.1c-0.3-0.1-0.5-0.2-0.8-0.4c-0.2-0.2-0.4-0.4-0.6-0.6
	c-0.2-0.2-0.3-0.5-0.3-0.7h-0.1v5.3h-2.7V15.9z M528.1,23.5c0.5,0,0.9-0.2,1.3-0.5c0.4-0.4,0.5-0.9,0.5-1.5v-1.7
	c0-0.5-0.2-1.1-0.5-1.5c-0.3-0.4-0.8-0.6-1.3-0.5c-0.5,0-0.9,0.1-1.3,0.4c-0.3,0.2-0.5,0.6-0.5,1v2.8c0,0.4,0.2,0.8,0.5,1
	C527.2,23.4,527.6,23.5,528.1,23.5z"/>
<path d="M537.5,25.5c-0.7,0.1-1.5-0.2-2-0.7c-0.5-0.5-0.7-1.3-0.7-2V11.9h2.7v11.5h1.2v2.1L537.5,25.5z"/>
<path d="M541.7,14.8c-0.4,0-0.9-0.1-1.2-0.4c-0.3-0.3-0.4-0.6-0.4-1v-0.4c0-0.4,0.1-0.7,0.4-1c0.7-0.5,1.7-0.5,2.4,0
	c0.3,0.3,0.4,0.6,0.4,1v0.4c0,0.4-0.1,0.7-0.4,1C542.5,14.7,542.1,14.9,541.7,14.8z M540.3,15.9h2.7v9.6h-2.7V15.9z"/>
<path d="M552.7,25.5c-0.5,0-0.9-0.2-1.2-0.5c-0.3-0.3-0.6-0.8-0.6-1.2h-0.1c-0.1,0.6-0.5,1.1-1,1.4c-0.6,0.3-1.2,0.5-1.9,0.5
	c-0.8,0.1-1.6-0.2-2.2-0.8c-0.5-0.5-0.8-1.3-0.8-2c-0.1-0.9,0.4-1.8,1.1-2.3c0.9-0.5,2-0.8,3-0.7h1.5v-0.6c0-0.4-0.1-0.8-0.4-1.1
	c-0.3-0.3-0.8-0.5-1.2-0.4c-0.5,0-0.9,0.1-1.3,0.3c-0.3,0.2-0.6,0.5-0.8,0.8l-1.6-1.4c0.4-0.6,0.9-1,1.5-1.4
	c0.8-0.4,1.6-0.5,2.4-0.5c1.1-0.1,2.2,0.2,3.1,0.9c0.7,0.7,1.1,1.6,1,2.6v4.2h0.9v2.1L552.7,25.5z M548.9,23.8
	c0.4,0,0.8-0.1,1.2-0.3c0.3-0.2,0.5-0.6,0.5-0.9v-1.1h-1.3c-1.1,0-1.6,0.4-1.6,1.1v0.3c0,0.3,0.1,0.6,0.3,0.8
	C548.3,23.8,548.6,23.8,548.9,23.8z"/>
<path d="M556,25.5v-9.6h2.7v1.6h0.1c0.2-0.5,0.5-1,0.9-1.3c1.3-0.9,3-0.7,4,0.4c0.6,0.8,0.8,1.8,0.8,2.8v6h-2.7v-5.8
	c0-0.5-0.1-1-0.3-1.4c-0.2-0.3-0.6-0.5-1-0.5c-0.2,0-0.4,0-0.6,0.1c-0.2,0.1-0.4,0.1-0.6,0.3c-0.2,0.1-0.3,0.3-0.4,0.5
	c-0.1,0.2-0.2,0.4-0.1,0.6v6.2H556z"/>
<path d="M570.9,25.7c-0.7,0-1.3-0.1-1.9-0.4c-0.5-0.2-1-0.6-1.4-1c-0.4-0.5-0.7-1-0.9-1.6c-0.2-0.7-0.3-1.4-0.3-2.1
	c0-0.7,0.1-1.4,0.3-2.1c0.2-0.6,0.5-1.1,0.9-1.6c0.4-0.4,0.9-0.8,1.4-1c0.6-0.2,1.3-0.4,1.9-0.3c0.9,0,1.7,0.2,2.5,0.7
	c0.7,0.4,1.2,1.1,1.4,1.9l-2.2,1c-0.1-0.4-0.3-0.7-0.5-0.9c-0.3-0.3-0.7-0.4-1.1-0.4c-0.5,0-0.9,0.2-1.2,0.5
	c-0.3,0.4-0.5,0.9-0.4,1.5v1.8c0,0.5,0.1,1,0.4,1.5c0.3,0.4,0.8,0.6,1.2,0.5c0.4,0,0.8-0.1,1.2-0.4c0.3-0.3,0.5-0.6,0.6-1l2.1,0.9
	c-0.2,0.8-0.8,1.5-1.5,2C572.6,25.5,571.7,25.7,570.9,25.7z"/>
<path d="M580.4,25.7c-0.7,0-1.3-0.1-2-0.4c-0.6-0.2-1.1-0.6-1.5-1c-0.4-0.5-0.7-1-0.9-1.6c-0.4-1.4-0.4-2.8,0-4.2
	c0.2-0.6,0.5-1.1,0.9-1.6c0.4-0.4,0.9-0.8,1.4-1c0.6-0.2,1.3-0.4,1.9-0.4c0.7,0,1.4,0.1,2,0.4c0.5,0.2,1,0.6,1.4,1.1
	c0.4,0.5,0.6,1,0.8,1.6c0.2,0.6,0.3,1.2,0.2,1.9v0.8h-6.2v0.1c-0.1,1,0.6,2,1.7,2.1c0.2,0,0.3,0,0.5,0c0.5,0,1-0.1,1.4-0.3
	c0.4-0.2,0.7-0.5,1-0.8l1.4,1.7c-0.5,0.5-1,0.9-1.7,1.2C582,25.6,581.2,25.7,580.4,25.7z M580.4,17.6c-0.5,0-1,0.2-1.3,0.5
	c-0.3,0.4-0.5,0.9-0.5,1.4v0.1h3.4v-0.2c0-0.5-0.1-1-0.4-1.4C581.3,17.8,580.8,17.6,580.4,17.6L580.4,17.6z"/>
<path d="M596.4,25.7c-0.8,0-1.6-0.1-2.4-0.4c-0.7-0.3-1.3-0.7-1.8-1.2c-0.5-0.6-0.9-1.3-1.1-2c-0.3-0.9-0.4-1.9-0.4-2.9
	c0-1,0.1-1.9,0.4-2.9c0.2-0.8,0.6-1.5,1.1-2.1c0.5-0.6,1.1-1,1.8-1.3c0.7-0.3,1.5-0.5,2.4-0.4c1,0,2,0.2,2.9,0.7
	c0.8,0.6,1.5,1.4,1.9,2.3l-2.4,1.2c-0.1-0.5-0.4-0.9-0.8-1.3c-0.5-0.4-1-0.5-1.6-0.5c-0.7,0-1.5,0.3-2,0.8c-0.5,0.7-0.8,1.5-0.7,2.3
	v2.1c-0.1,0.8,0.2,1.7,0.7,2.3c0.5,0.5,1.2,0.8,2,0.8c0.6,0,1.2-0.2,1.6-0.6c0.4-0.4,0.7-0.8,0.9-1.4l2.3,1.3
	c-0.4,0.9-1.1,1.7-1.9,2.3C598.4,25.5,597.4,25.8,596.4,25.7z"/>
<path d="M607,25.7c-0.7,0-1.3-0.1-2-0.4c-0.6-0.2-1.1-0.6-1.5-1c-0.4-0.5-0.7-1-0.9-1.6c-0.4-1.4-0.4-2.8,0-4.2
	c0.2-0.6,0.5-1.1,0.9-1.6c0.4-0.4,0.9-0.8,1.4-1c0.6-0.2,1.3-0.4,1.9-0.4c0.7,0,1.4,0.1,2,0.4c0.5,0.2,1,0.6,1.4,1.1
	c0.4,0.5,0.6,1,0.8,1.6c0.2,0.6,0.3,1.2,0.2,1.9v0.8h-6.2v0.1c-0.1,1,0.6,2,1.7,2.1c0.2,0,0.3,0,0.5,0c0.5,0,1-0.1,1.4-0.3
	c0.4-0.2,0.7-0.5,1-0.8l1.4,1.7c-0.5,0.5-1,0.9-1.7,1.2C608.6,25.6,607.8,25.7,607,25.7z M607,17.6c-0.5,0-1,0.2-1.3,0.5
	c-0.3,0.4-0.5,0.9-0.5,1.4v0.1h3.4v-0.2c0-0.5-0.1-1-0.4-1.4C607.9,17.8,607.4,17.6,607,17.6L607,17.6z"/>
<path d="M613.3,25.5v-9.6h2.7v1.6h0.1c0.2-0.5,0.5-1,0.9-1.3c1.3-0.9,3-0.7,4,0.4c0.6,0.8,0.8,1.8,0.8,2.8v6h-2.7v-5.8
	c0-0.5-0.1-1-0.3-1.4c-0.2-0.3-0.6-0.5-1-0.5c-0.2,0-0.4,0-0.6,0.1c-0.2,0.1-0.4,0.1-0.6,0.3c-0.2,0.1-0.3,0.3-0.4,0.5
	c-0.1,0.2-0.2,0.4-0.1,0.6v6.2H613.3z"/>
<path d="M627.7,25.5c-0.8,0.1-1.6-0.2-2.1-0.7c-0.5-0.6-0.8-1.3-0.7-2.1V18h-1.4v-2.1h0.7c0.3,0,0.6-0.1,0.8-0.3
	c0.1-0.2,0.2-0.5,0.2-0.8v-1.6h2.4v2.6h1.9V18h-1.9v5.4h1.8v2.1L627.7,25.5z"/>
<path d="M635.3,25.7c-0.7,0-1.3-0.1-2-0.4c-0.6-0.2-1.1-0.6-1.5-1c-0.4-0.5-0.7-1-0.9-1.6c-0.4-1.4-0.4-2.8,0-4.2
	c0.2-0.6,0.5-1.1,0.9-1.6c0.4-0.4,0.9-0.8,1.4-1c0.6-0.2,1.3-0.4,1.9-0.4c0.7,0,1.4,0.1,2,0.4c0.5,0.2,1,0.6,1.4,1.1
	c0.4,0.5,0.6,1,0.8,1.6c0.2,0.6,0.3,1.2,0.2,1.9v0.8h-6.2v0.1c-0.1,1,0.6,2,1.7,2.1c0.2,0,0.3,0,0.5,0c0.5,0,1-0.1,1.4-0.3
	c0.4-0.2,0.7-0.5,1-0.8l1.4,1.7c-0.5,0.5-1,0.9-1.7,1.2C636.9,25.6,636.1,25.7,635.3,25.7z M635.2,17.6c-0.5,0-1,0.2-1.3,0.5
	c-0.3,0.4-0.5,0.9-0.5,1.4v0.1h3.4v-0.2c0-0.5-0.1-1-0.4-1.4C636.1,17.8,635.7,17.6,635.2,17.6L635.2,17.6z"/>
<path d="M641.6,25.5v-9.6h2.7v2.1h0.1c0-0.3,0.1-0.5,0.3-0.8c0.1-0.2,0.3-0.5,0.5-0.7c0.2-0.2,0.5-0.4,0.7-0.5
	c0.3-0.1,0.7-0.2,1-0.2h0.5v2.5h-0.7c-0.6,0-1.2,0.1-1.8,0.3c-0.4,0.2-0.6,0.7-0.6,1.2v5.6L641.6,25.5z"/>
<line class="st4" x1="298.6" y1="0.6" x2="298.6" y2="751.5"/>
<line class="st5" x1="463.7" y1="136.8" x2="196.8" y2="136.8"/>
<polygon class="st6" points="462.2,131.8 470.8,136.8 462.2,141.8 "/>
<circle class="st7" cx="297.9" cy="140.3" r="12.6"/>
<path d="M294.1,145.6v-1.7h3.5v-9.2h-0.1l-2.9,3l-1.2-1.1l3.1-3.4h3v10.6h3v1.7L294.1,145.6z"/>
<line class="st4" x1="725.8" y1="3.1" x2="725.8" y2="751"/>
<circle class="st8" cx="859.6" cy="569.6" r="37.9"/>
<line class="st9" x1="847.3" y1="548.5" x2="860.1" y2="570.6"/>
<line class="st9" x1="838" y1="557.8" x2="860.1" y2="570.6"/>
<line class="st9" x1="834.5" y1="570.6" x2="860.1" y2="570.6"/>
<line class="st9" x1="860.1" y1="545.2" x2="860.1" y2="570.6"/>
<line class="st9" x1="872.9" y1="548.7" x2="860.1" y2="570.6"/>
<line class="st9" x1="882.2" y1="557.8" x2="860.1" y2="570.6"/>
<line class="st9" x1="885.7" y1="570.6" x2="860.1" y2="570.6"/>
<path class="st9" d="M885.7,570.6c0,14.1-11.5,25.6-25.6,25.5c-14.1,0-25.5-11.4-25.5-25.5"/>
<path class="st9" d="M834.5,570.6c0-14.1,11.5-25.6,25.6-25.5c14.1,0,25.5,11.4,25.5,25.5"/>
<circle class="st10" cx="860.1" cy="570.6" r="2.3"/>
<circle class="st10" cx="860.1" cy="545" r="2.3"/>
<circle class="st10" cx="847.3" cy="548.5" r="2.3"/>
<circle class="st10" cx="872.9" cy="548.5" r="2.3"/>
<path class="st10" d="M882.2,560.1c-1.3,0-2.3-1-2.3-2.3c0-1.3,1-2.3,2.3-2.3c1.3,0,2.3,1,2.3,2.3c0,0,0,0,0,0
	C884.5,559.1,883.5,560.1,882.2,560.1z"/>
<circle class="st10" cx="838" cy="557.8" r="2.3"/>
<circle class="st10" cx="834.5" cy="570.6" r="2.3"/>
<circle class="st10" cx="885.7" cy="570.6" r="2.3"/>
<path d="M832.7,626.7h-1.2V617h3.8c0.7,0,1.4,0.2,2,0.7c0.5,0.5,0.8,1.3,0.7,2c0,0.6-0.1,1.2-0.5,1.7c-0.4,0.5-0.9,0.8-1.4,0.9
	l2.2,4.2H837l-2.1-4.1h-2.2L832.7,626.7z M835.3,621.5c0.4,0,0.8-0.1,1.1-0.4c0.3-0.3,0.4-0.6,0.4-1v-0.7c0-0.4-0.1-0.7-0.4-1
	c-0.3-0.3-0.7-0.4-1.1-0.4h-2.7v3.5L835.3,621.5z"/>
<path d="M842.7,626.8c-0.5,0-0.9-0.1-1.3-0.3c-0.4-0.2-0.7-0.4-1-0.8c-0.3-0.3-0.5-0.7-0.6-1.2c-0.3-1-0.3-2.1,0-3.1
	c0.1-0.4,0.4-0.8,0.6-1.2c0.3-0.3,0.6-0.6,1-0.8c0.4-0.2,0.9-0.3,1.3-0.3c0.4,0,0.9,0.1,1.3,0.3c0.4,0.2,0.7,0.4,1,0.7
	c0.3,0.3,0.5,0.7,0.6,1.1c0.1,0.4,0.2,0.9,0.2,1.4v0.5h-5.1v0.3c0,0.3,0,0.6,0.1,0.8c0.1,0.3,0.2,0.5,0.4,0.7
	c0.2,0.2,0.4,0.4,0.7,0.5c0.3,0.1,0.6,0.2,0.9,0.2c0.4,0,0.8-0.1,1.2-0.3c0.3-0.2,0.6-0.5,0.8-0.9l0.8,0.6c-0.2,0.5-0.6,0.9-1.1,1.2
	C843.9,626.7,843.3,626.8,842.7,626.8z M842.7,620.3c-0.3,0-0.6,0-0.8,0.2c-0.2,0.1-0.5,0.3-0.6,0.4c-0.2,0.2-0.3,0.4-0.4,0.7
	c-0.1,0.3-0.2,0.6-0.2,0.9v0.1h3.9v-0.2c0-0.6-0.2-1.1-0.5-1.5C843.7,620.5,843.2,620.3,842.7,620.3z"/>
<path d="M849.7,626.8c-0.6,0-1.1-0.1-1.7-0.4c-0.4-0.3-0.8-0.6-1.2-1l0.8-0.6c0.3,0.3,0.6,0.6,0.9,0.8c0.4,0.2,0.8,0.3,1.2,0.3
	c0.4,0,0.8-0.1,1.1-0.3c0.5-0.4,0.5-1.1,0.1-1.6c0,0,0,0,0,0c-0.3-0.2-0.6-0.4-1-0.4l-0.6-0.1c-0.3,0-0.6-0.1-0.9-0.2
	c-0.3-0.1-0.5-0.2-0.7-0.4c-0.2-0.2-0.4-0.4-0.5-0.6c-0.1-0.3-0.2-0.6-0.2-0.9c0-0.3,0.1-0.6,0.2-0.9c0.1-0.3,0.3-0.5,0.5-0.7
	c0.2-0.2,0.5-0.3,0.8-0.4c0.3-0.1,0.7-0.1,1-0.1c0.5,0,1,0.1,1.5,0.3c0.4,0.2,0.7,0.5,1,0.8l-0.7,0.7c-0.4-0.6-1.1-0.9-1.8-0.9
	c-0.4,0-0.7,0.1-1,0.3c-0.2,0.2-0.4,0.5-0.4,0.8c0,0.3,0.1,0.6,0.4,0.8c0.3,0.2,0.7,0.3,1,0.3l0.6,0.1c0.6,0,1.2,0.3,1.7,0.7
	c0.3,0.4,0.5,0.8,0.5,1.3c0,0.6-0.2,1.2-0.7,1.6C851.1,626.7,850.4,626.9,849.7,626.8z"/>
<path d="M857,626.8c-0.5,0-0.9-0.1-1.3-0.3c-0.4-0.2-0.7-0.4-1-0.8c-0.3-0.3-0.5-0.7-0.7-1.2c-0.3-1-0.3-2.1,0-3.1
	c0.1-0.4,0.4-0.8,0.7-1.2c0.3-0.3,0.6-0.6,1-0.8c0.4-0.2,0.9-0.3,1.3-0.3c0.4,0,0.9,0.1,1.3,0.3c0.4,0.2,0.7,0.4,1,0.8
	c0.3,0.3,0.5,0.7,0.7,1.2c0.3,1,0.3,2.1,0,3.1c-0.1,0.4-0.4,0.8-0.7,1.2c-0.3,0.3-0.6,0.6-1,0.8C857.9,626.7,857.4,626.8,857,626.8z
	 M857,625.9c0.5,0,1.1-0.2,1.5-0.6c0.4-0.5,0.6-1.1,0.6-1.7v-1c0-0.6-0.2-1.2-0.6-1.7c-0.8-0.7-2.1-0.7-2.9,0
	c-0.4,0.5-0.6,1.1-0.6,1.7v1c0,0.6,0.2,1.2,0.6,1.7C855.9,625.7,856.4,625.9,857,625.9z"/>
<path d="M866.4,625.5L866.4,625.5c-0.1,0.2-0.2,0.3-0.3,0.5c-0.1,0.2-0.2,0.3-0.4,0.4c-0.2,0.1-0.4,0.2-0.6,0.3
	c-0.2,0.1-0.5,0.1-0.8,0.1c-0.7,0-1.3-0.2-1.8-0.7c-0.5-0.6-0.7-1.3-0.6-2v-4.6h1.1v4.4c0,1.3,0.5,1.9,1.6,1.9c0.2,0,0.4,0,0.6-0.1
	c0.2-0.1,0.4-0.1,0.6-0.2c0.2-0.1,0.3-0.3,0.4-0.4c0.1-0.2,0.2-0.4,0.1-0.6v-4.9h1.1v7.1h-1.1V625.5z"/>
<path d="M869.8,626.7v-7.1h1.1v1.3h0.1c0.1-0.4,0.4-0.7,0.7-0.9c0.4-0.3,0.9-0.4,1.4-0.4h0.4v1.1h-0.6c-0.5,0-1,0.1-1.4,0.3
	c-0.3,0.2-0.5,0.5-0.5,0.8v4.8L869.8,626.7z"/>
<path d="M877.5,626.8c-0.5,0-0.9-0.1-1.3-0.3c-0.4-0.2-0.7-0.4-1-0.7c-0.3-0.3-0.5-0.7-0.6-1.2c-0.3-1-0.3-2.1,0-3.1
	c0.1-0.4,0.3-0.8,0.6-1.2c0.3-0.3,0.6-0.6,1-0.7c0.4-0.2,0.9-0.3,1.3-0.3c0.6,0,1.2,0.1,1.7,0.5c0.4,0.3,0.8,0.7,1,1.2l-0.9,0.5
	c-0.1-0.3-0.3-0.6-0.6-0.9c-0.3-0.2-0.7-0.3-1.1-0.3c-0.3,0-0.6,0-0.9,0.2c-0.2,0.1-0.4,0.2-0.6,0.4c-0.2,0.2-0.3,0.4-0.4,0.7
	c-0.1,0.3-0.1,0.6-0.1,0.9v1.2c0,0.6,0.2,1.1,0.5,1.5c0.4,0.4,0.9,0.6,1.5,0.6c0.8,0,1.6-0.5,1.9-1.2l0.8,0.5
	c-0.2,0.5-0.6,0.9-1,1.2C878.6,626.7,878.1,626.9,877.5,626.8z"/>
<path d="M884.3,626.8c-0.5,0-0.9-0.1-1.3-0.3c-0.4-0.2-0.7-0.4-1-0.8c-0.3-0.3-0.5-0.7-0.6-1.2c-0.3-1-0.3-2.1,0-3.1
	c0.1-0.4,0.4-0.8,0.6-1.2c0.3-0.3,0.6-0.6,1-0.8c0.4-0.2,0.9-0.3,1.3-0.3c0.4,0,0.9,0.1,1.3,0.3c0.4,0.2,0.7,0.4,1,0.7
	c0.3,0.3,0.5,0.7,0.6,1.1c0.1,0.4,0.2,0.9,0.2,1.4v0.5h-5.1v0.3c0,0.3,0,0.6,0.1,0.8c0.1,0.3,0.2,0.5,0.4,0.7
	c0.2,0.2,0.4,0.4,0.7,0.5c0.3,0.1,0.6,0.2,0.9,0.2c0.4,0,0.8-0.1,1.2-0.3c0.3-0.2,0.6-0.5,0.8-0.9l0.8,0.6c-0.2,0.5-0.6,0.9-1.1,1.2
	C885.5,626.7,884.9,626.8,884.3,626.8z M884.3,620.3c-0.3,0-0.6,0-0.8,0.2c-0.2,0.1-0.5,0.3-0.6,0.4c-0.2,0.2-0.3,0.4-0.4,0.7
	c-0.1,0.3-0.2,0.6-0.2,0.9v0.1h3.9v-0.2c0-0.6-0.2-1.1-0.5-1.5C885.3,620.5,884.8,620.3,884.3,620.3z"/>
<line class="st11" x1="489.9" y1="118.3" x2="500" y2="118.3"/>
<line class="st11" x1="518.5" y1="118.3" x2="528.4" y2="118.3"/>
<line class="st11" x1="504.4" y1="118.3" x2="514.3" y2="118.3"/>
<line class="st12" x1="487.8" y1="129" x2="500" y2="129"/>
<line class="st11" x1="518.5" y1="129" x2="528.6" y2="129"/>
<line class="st11" x1="504.2" y1="129" x2="513.9" y2="129"/>
<line class="st12" x1="487.8" y1="150.5" x2="501.2" y2="150.5"/>
<line class="st11" x1="516.5" y1="150.5" x2="528.4" y2="150.5"/>
<line class="st11" x1="501.2" y1="150.5" x2="516.5" y2="150.5"/>
<line class="st12" x1="487.8" y1="139.8" x2="501.2" y2="139.8"/>
<line class="st11" x1="518.5" y1="139.8" x2="528.4" y2="139.8"/>
<line class="st11" x1="501.2" y1="139.8" x2="513.9" y2="139.8"/>
<path class="st13" d="M502.1,120.4c-1.2,0-2.1-0.9-2.1-2.1s0.9-2.1,2.1-2.1c1.2,0,2.1,0.9,2.1,2.1
	C504.2,119.5,503.3,120.4,502.1,120.4z"/>
<path class="st13" d="M487.8,120.4c-1.2,0-2.1-0.9-2.1-2.1s0.9-2.1,2.1-2.1c1.2,0,2.1,0.9,2.1,2.1
	C489.9,119.5,489,120.4,487.8,120.4L487.8,120.4z"/>
<path class="st13" d="M516.4,120.4c-1.2,0-2.1-0.9-2.1-2.1s0.9-2.1,2.1-2.1c1.2,0,2.1,0.9,2.1,2.1
	C518.5,119.5,517.6,120.4,516.4,120.4z"/>
<path class="st13" d="M530.7,120.4c-1.2,0-2.1-0.9-2.1-2.1s0.9-2.1,2.1-2.1c1.2,0,2.1,0.9,2.1,2.1
	C532.8,119.5,531.8,120.4,530.7,120.4L530.7,120.4z"/>
<circle class="st13" cx="516.4" cy="129" r="2.1"/>
<circle class="st13" cx="502.1" cy="129" r="2.1"/>
<circle class="st13" cx="530.7" cy="129" r="2.1"/>
<path class="st13" d="M516.4,141.9c-1.2,0-2.1-0.9-2.1-2.1s0.9-2.1,2.1-2.1c1.2,0,2.1,0.9,2.1,2.1
	C518.5,140.9,517.6,141.9,516.4,141.9z"/>
<path class="st13" d="M530.7,141.9c-1.2,0-2.1-0.9-2.1-2.1s0.9-2.1,2.1-2.1c1.2,0,2.1,0.9,2.1,2.1
	C532.8,140.9,531.8,141.9,530.7,141.9C530.7,141.9,530.7,141.9,530.7,141.9z"/>
<path class="st13" d="M530.7,152.6c-1.2,0-2.1-0.9-2.1-2.1s0.9-2.1,2.1-2.1c1.2,0,2.1,0.9,2.1,2.1
	C532.8,151.7,531.8,152.6,530.7,152.6C530.7,152.6,530.7,152.6,530.7,152.6z"/>
<line class="st5" x1="859" y1="307.5" x2="859" y2="206.5"/>
<polygon class="st6" points="861.4,306.7 859,311.1 856.5,306.7 "/>
<line class="st5" x1="859" y1="525.4" x2="859" y2="503.5"/>
<polygon class="st6" points="863.9,524 859,532.6 854,524 "/>
<line class="st5" x1="859" y1="456.1" x2="859" y2="355.1"/>
<polygon class="st6" points="861.4,455.4 859,459.7 856.5,455.4 "/>
<ellipse transform="matrix(0.1583 -0.9874 0.9874 0.1583 590.9776 961.7902)" class="st14" cx="859.6" cy="134.3" rx="37.9" ry="37.9"/>
<path d="M829.1,194.4v-9.6h5.9v1h-4.7v3.2h4.4v1h-4.4v3.3h4.7v1H829.1z"/>
<path d="M837,194.4v-7.1h1.1v1.1h0.1c0.2-0.4,0.4-0.7,0.7-1c0.4-0.3,0.8-0.4,1.3-0.4c0.7,0,1.3,0.2,1.7,0.7c0.5,0.6,0.7,1.3,0.6,2
	v4.6h-1.1V190c0-1.3-0.5-1.9-1.6-1.9c-0.2,0-0.4,0-0.6,0.1c-0.2,0.1-0.4,0.1-0.6,0.2c-0.2,0.1-0.3,0.3-0.4,0.4
	c-0.1,0.2-0.1,0.4-0.1,0.6v4.9H837z"/>
<path d="M846.4,194.4c-0.3,0-0.6-0.1-0.9-0.3c-0.2-0.2-0.3-0.5-0.3-0.8v-5h-1.2v-1h0.7c0.2,0,0.4,0,0.5-0.1c0.1-0.1,0.1-0.3,0.1-0.5
	v-1.3h1v2h1.6v1h-1.6v5.2h1.4v1H846.4z"/>
<path d="M852.3,194.6c-0.5,0-0.9-0.1-1.3-0.3c-0.4-0.2-0.7-0.4-1-0.8c-0.3-0.3-0.5-0.7-0.6-1.2c-0.3-1-0.3-2.1,0-3.1
	c0.1-0.4,0.4-0.8,0.6-1.2c0.3-0.3,0.6-0.6,1-0.8c0.4-0.2,0.9-0.3,1.3-0.3c0.4,0,0.9,0.1,1.3,0.3c0.4,0.2,0.7,0.4,1,0.7
	c0.3,0.3,0.5,0.7,0.6,1.1c0.1,0.4,0.2,0.9,0.2,1.4v0.5h-5.1v0.3c0,0.3,0,0.6,0.1,0.8c0.1,0.3,0.2,0.5,0.4,0.7
	c0.2,0.2,0.4,0.4,0.7,0.5c0.3,0.1,0.6,0.2,0.9,0.2c0.4,0,0.8-0.1,1.2-0.3c0.3-0.2,0.6-0.5,0.8-0.9l0.8,0.6c-0.2,0.5-0.6,0.9-1.1,1.2
	C853.5,194.4,852.9,194.6,852.3,194.6z M852.3,188c-0.3,0-0.6,0-0.8,0.2c-0.2,0.1-0.5,0.3-0.6,0.4c-0.2,0.2-0.3,0.4-0.4,0.7
	c-0.1,0.3-0.2,0.6-0.2,0.9v0.1h3.9v-0.1c0-0.6-0.2-1.1-0.5-1.5C853.3,188.2,852.8,188,852.3,188z"/>
<path d="M857.2,194.4v-7.1h1.1v1.3h0.1c0.1-0.4,0.4-0.7,0.7-0.9c0.4-0.3,0.9-0.4,1.4-0.4h0.4v1.1h-0.6c-0.5,0-1,0.1-1.4,0.3
	c-0.3,0.2-0.5,0.5-0.5,0.8v4.8H857.2z"/>
<path d="M862.2,187.3h1.1v1.1h0.1c0.2-0.4,0.4-0.8,0.8-1c0.4-0.2,0.8-0.3,1.3-0.3c0.4,0,0.8,0.1,1.2,0.3c0.4,0.2,0.7,0.4,0.9,0.7
	c0.3,0.3,0.5,0.7,0.6,1.2c0.3,1,0.3,2.1,0,3.1c-0.1,0.4-0.3,0.8-0.6,1.2c-0.2,0.3-0.6,0.6-0.9,0.7c-0.4,0.2-0.8,0.3-1.2,0.3
	c-0.9,0-1.7-0.5-2.1-1.3h-0.1v3.9h-1.1L862.2,187.3z M865.2,193.6c0.6,0,1.1-0.2,1.5-0.6c0.4-0.4,0.6-1,0.5-1.5v-1.2
	c0-0.6-0.2-1.1-0.5-1.5c-0.4-0.4-0.9-0.6-1.5-0.6c-0.2,0-0.5,0-0.7,0.1c-0.2,0.1-0.4,0.2-0.6,0.3c-0.2,0.1-0.3,0.3-0.4,0.4
	c-0.1,0.2-0.1,0.4-0.1,0.5v2.7c0,0.2,0,0.4,0.1,0.6c0.1,0.2,0.2,0.3,0.4,0.5c0.2,0.1,0.4,0.2,0.6,0.3
	C864.7,193.6,864.9,193.6,865.2,193.6L865.2,193.6z"/>
<path d="M870.2,194.4v-7.1h1.1v1.3h0.1c0.1-0.4,0.4-0.7,0.7-0.9c0.4-0.3,0.9-0.4,1.4-0.4h0.4v1.1h-0.6c-0.5,0-1,0.1-1.4,0.3
	c-0.3,0.2-0.5,0.5-0.5,0.8v4.8H870.2z"/>
<path d="M875.8,185.6c-0.2,0-0.4,0-0.5-0.2c-0.1-0.1-0.2-0.3-0.2-0.4v-0.2c0-0.2,0-0.3,0.2-0.4c0.3-0.2,0.7-0.2,1,0
	c0.1,0.1,0.2,0.3,0.2,0.4v0.2c0,0.2,0,0.3-0.2,0.4C876.2,185.6,876,185.6,875.8,185.6z M875.3,187.3h1.1v7.1h-1.1V187.3z"/>
<path d="M880.9,194.6c-0.6,0-1.1-0.1-1.7-0.4c-0.4-0.3-0.8-0.6-1.2-1l0.8-0.6c0.3,0.3,0.6,0.6,0.9,0.8c0.4,0.2,0.8,0.3,1.2,0.3
	c0.4,0,0.8-0.1,1.1-0.3c0.5-0.4,0.5-1.1,0.1-1.6c0,0,0,0,0,0c-0.3-0.2-0.6-0.4-1-0.4l-0.6-0.1c-0.3,0-0.6-0.1-0.9-0.2
	c-0.3-0.1-0.5-0.2-0.7-0.4c-0.2-0.2-0.4-0.4-0.5-0.6c-0.1-0.3-0.2-0.6-0.2-0.9c0-0.3,0.1-0.6,0.2-0.9c0.1-0.3,0.3-0.5,0.5-0.7
	c0.2-0.2,0.5-0.3,0.8-0.4c0.3-0.1,0.7-0.1,1-0.1c0.5,0,1,0.1,1.5,0.3c0.4,0.2,0.7,0.5,1,0.8l-0.7,0.7c-0.2-0.2-0.4-0.5-0.7-0.6
	c-0.4-0.2-0.7-0.3-1.1-0.3c-0.4,0-0.7,0.1-1,0.3c-0.2,0.2-0.4,0.5-0.4,0.8c0,0.3,0.1,0.6,0.4,0.8c0.3,0.2,0.7,0.3,1,0.3l0.6,0.1
	c0.6,0,1.2,0.3,1.7,0.7c0.3,0.4,0.5,0.8,0.5,1.3c0,0.6-0.2,1.2-0.7,1.6C882.3,194.4,881.6,194.6,880.9,194.6z"/>
<path d="M888.1,194.6c-0.5,0-0.9-0.1-1.3-0.3c-0.4-0.2-0.7-0.4-1-0.8c-0.3-0.3-0.5-0.7-0.6-1.2c-0.3-1-0.3-2.1,0-3.1
	c0.1-0.4,0.4-0.8,0.6-1.2c0.3-0.3,0.6-0.6,1-0.8c0.4-0.2,0.9-0.3,1.3-0.3c0.4,0,0.9,0.1,1.3,0.3c0.4,0.2,0.7,0.4,1,0.7
	c0.3,0.3,0.5,0.7,0.6,1.1c0.1,0.4,0.2,0.9,0.2,1.4v0.5h-5.1v0.3c0,0.3,0,0.6,0.1,0.8c0.1,0.3,0.2,0.5,0.4,0.7
	c0.2,0.2,0.4,0.4,0.7,0.5c0.3,0.1,0.6,0.2,0.9,0.2c0.4,0,0.8-0.1,1.2-0.3c0.3-0.2,0.6-0.5,0.8-0.9l0.8,0.6c-0.2,0.5-0.6,0.9-1.1,1.2
	C889.3,194.4,888.7,194.6,888.1,194.6z M888.1,188c-0.3,0-0.6,0-0.8,0.2c-0.2,0.1-0.5,0.3-0.6,0.4c-0.2,0.2-0.3,0.4-0.4,0.7
	c-0.1,0.3-0.2,0.6-0.2,0.9v0.1h3.9v-0.1c0-0.6-0.2-1.1-0.5-1.5C889.1,188.2,888.6,188,888.1,188z"/>
<path id="Fill-21" class="st15" d="M844.2,116.3h20.4v34.6h-7.4v-9c0-0.2-0.2-0.4-0.4-0.4c0,0,0,0,0,0H852c-0.2,0-0.4,0.2-0.4,0.4
	c0,0,0,0,0,0v9h-7.4L844.2,116.3z M865.5,123.7h6.2v-3.9h-6.2L865.5,123.7z M878.8,150.9h-13.3v-26.3h13.3L878.8,150.9z
	 M852.5,150.9h3.9v-8.6h-3.9V150.9z M843.8,151.8h35.5c0.2,0,0.4-0.2,0.4-0.4c0,0,0,0,0,0v-27.2c0-0.2-0.2-0.4-0.4-0.4c0,0,0,0,0,0
	h-6.7v-4.3c0-0.2-0.2-0.4-0.4-0.4c0,0,0,0,0,0h-6.7v-3.1c0-0.2-0.2-0.4-0.4-0.4c0,0,0,0,0,0h-21.3c-0.2,0-0.4,0.2-0.4,0.4
	c0,0,0,0,0,0v35.5C843.3,151.6,843.5,151.8,843.8,151.8C843.8,151.8,843.8,151.8,843.8,151.8L843.8,151.8z M846.9,123h0.9v-2.4h-0.9
	V123z M846.9,130.1h0.9v-2.4h-0.9V130.1z M846.9,137.1h0.9v-2.4h-0.9V137.1z M856.3,123h0.9v-2.4h-0.9V123z M856.3,130.1h0.9v-2.4
	h-0.9V130.1z M856.3,137.1h0.9v-2.4h-0.9V137.1z M851.6,123h0.8v-2.4h-0.8V123z M851.6,130.1h0.8v-2.4h-0.8V130.1z M851.6,137.1h0.8
	v-2.4h-0.8V137.1z M846.9,144.2h0.9v-2.4h-0.9V144.2z M861.1,123h0.8v-2.4h-0.8V123z M861.1,130.1h0.8v-2.4h-0.8V130.1z
	 M861.1,137.1h0.8v-2.4h-0.8V137.1z M861.1,144.2h0.8v-2.4h-0.8V144.2z M869.4,130.1h0.9v-2.4h-0.9V130.1z M869.4,137.1h0.9v-2.4
	h-0.9V137.1z M869.4,144.2h0.9v-2.4h-0.9V144.2z M874.1,130.1h0.9v-2.4h-0.9V130.1z M874.1,137.2h0.9v-2.4h-0.9V137.2z M874.1,144.2
	h0.9v-2.4h-0.9V144.2z"/>
<circle class="st16" cx="859.4" cy="281.6" r="37.9"/>
<path d="M822,341.8l-1-2.8h-3.9l-1,2.8h-1.2l3.4-9.6h1.5l3.4,9.6H822z M819.2,333.2L819.2,333.2l-1.7,4.7h3.3L819.2,333.2z"/>
<path d="M827.4,341.9c-0.5,0-0.9-0.1-1.3-0.3c-0.4-0.2-0.7-0.4-1-0.7c-0.3-0.3-0.5-0.7-0.6-1.2c-0.3-1-0.3-2.1,0-3.1
	c0.1-0.4,0.3-0.8,0.6-1.2c0.3-0.3,0.6-0.6,1-0.7c0.4-0.2,0.9-0.3,1.3-0.3c1.2-0.1,2.2,0.6,2.7,1.7l-0.9,0.5
	c-0.1-0.3-0.3-0.6-0.6-0.9c-0.3-0.2-0.7-0.3-1.1-0.3c-0.3,0-0.6,0-0.9,0.2c-0.2,0.1-0.4,0.2-0.6,0.4c-0.2,0.2-0.3,0.4-0.4,0.7
	c-0.1,0.3-0.1,0.6-0.1,0.9v1.2c0,0.6,0.2,1.1,0.5,1.5c0.4,0.4,0.9,0.6,1.5,0.6c0.8,0,1.6-0.5,1.9-1.2l0.8,0.5
	c-0.2,0.5-0.6,0.9-1,1.2C828.6,341.8,828,341.9,827.4,341.9z"/>
<path d="M834.2,341.9c-0.5,0-0.9-0.1-1.3-0.3c-0.4-0.2-0.7-0.4-1-0.7c-0.3-0.3-0.5-0.7-0.6-1.2c-0.3-1-0.3-2.1,0-3.1
	c0.1-0.4,0.3-0.8,0.6-1.2c0.3-0.3,0.6-0.6,1-0.7c0.4-0.2,0.9-0.3,1.3-0.3c1.2-0.1,2.2,0.6,2.7,1.7l-0.9,0.5
	c-0.1-0.3-0.3-0.6-0.6-0.9c-0.3-0.2-0.7-0.3-1.1-0.3c-0.3,0-0.6,0-0.9,0.2c-0.2,0.1-0.4,0.2-0.6,0.4c-0.2,0.2-0.3,0.4-0.4,0.7
	c-0.1,0.3-0.1,0.6-0.1,0.9v1.2c0,0.6,0.2,1.1,0.5,1.5c0.4,0.4,0.9,0.6,1.5,0.6c0.8,0,1.6-0.5,1.9-1.2l0.8,0.5
	c-0.2,0.5-0.6,0.9-1,1.2C835.4,341.8,834.8,341.9,834.2,341.9z"/>
<path d="M841.1,341.9c-0.5,0-0.9-0.1-1.3-0.3c-0.4-0.2-0.7-0.4-1-0.8c-0.3-0.3-0.5-0.7-0.7-1.2c-0.3-1-0.3-2.1,0-3.1
	c0.1-0.4,0.4-0.8,0.7-1.2c0.3-0.3,0.6-0.6,1-0.8c0.4-0.2,0.9-0.3,1.3-0.3c0.4,0,0.9,0.1,1.3,0.3c0.4,0.2,0.7,0.4,1,0.8
	c0.3,0.3,0.5,0.7,0.7,1.2c0.3,1,0.3,2.1,0,3.1c-0.1,0.4-0.4,0.8-0.7,1.2c-0.3,0.3-0.6,0.6-1,0.8C842,341.8,841.6,341.9,841.1,341.9z
	 M841.1,340.9c0.5,0,1.1-0.2,1.5-0.6c0.4-0.5,0.6-1.1,0.6-1.7v-1c0-0.6-0.2-1.2-0.6-1.7c-0.8-0.7-2.1-0.7-2.9,0
	c-0.4,0.5-0.6,1.1-0.6,1.7v1c0,0.6,0.2,1.2,0.6,1.7C840.1,340.8,840.6,341,841.1,340.9z"/>
<path d="M850.5,340.6L850.5,340.6c-0.1,0.2-0.2,0.3-0.3,0.5c-0.2,0.3-0.6,0.6-1,0.7c-0.2,0.1-0.5,0.1-0.8,0.1
	c-0.7,0-1.3-0.2-1.8-0.7c-0.5-0.6-0.7-1.3-0.6-2v-4.6h1.1v4.4c0,1.3,0.5,1.9,1.6,1.9c0.2,0,0.4,0,0.6-0.1c0.2-0.1,0.4-0.1,0.6-0.2
	c0.2-0.1,0.3-0.3,0.4-0.4c0.1-0.2,0.2-0.4,0.1-0.6v-4.9h1.1v7.1h-1.1L850.5,340.6z"/>
<path d="M854,341.8v-7.1h1.1v1.1h0.1c0.2-0.4,0.4-0.7,0.7-1c0.4-0.3,0.8-0.4,1.3-0.4c0.7,0,1.3,0.2,1.7,0.7c0.5,0.6,0.7,1.3,0.6,2
	v4.6h-1.1v-4.4c0-1.3-0.5-1.9-1.6-1.9c-0.2,0-0.4,0-0.6,0.1c-0.2,0.1-0.4,0.1-0.6,0.2c-0.2,0.1-0.3,0.3-0.4,0.4
	c-0.1,0.2-0.1,0.4-0.1,0.6v4.9L854,341.8z"/>
<path d="M863.4,341.8c-0.3,0-0.6-0.1-0.9-0.3c-0.2-0.2-0.3-0.5-0.3-0.8v-5H861v-1h0.7c0.2,0,0.4,0,0.5-0.1c0.1-0.1,0.1-0.3,0.1-0.5
	v-1.3h1v2h1.6v1h-1.6v5.2h1.4v1H863.4z"/>
<path d="M875.9,342.5c0,0.7-0.3,1.3-0.9,1.6c-0.8,0.4-1.7,0.6-2.6,0.5c-0.8,0.1-1.7-0.1-2.4-0.5c-0.5-0.3-0.7-0.8-0.7-1.3
	c0-0.3,0.1-0.7,0.3-0.9c0.2-0.2,0.5-0.4,0.8-0.5v-0.2c-0.4-0.2-0.7-0.6-0.6-1c0-0.3,0.1-0.6,0.3-0.8c0.3-0.2,0.6-0.3,0.9-0.4v-0.1
	c-0.4-0.2-0.7-0.5-1-0.9c-0.2-0.4-0.4-0.9-0.4-1.3c0-0.3,0.1-0.7,0.2-1c0.1-0.3,0.3-0.6,0.5-0.8c0.2-0.2,0.5-0.4,0.8-0.5
	c0.8-0.3,1.7-0.2,2.4,0.1v-0.1c0-0.2,0.1-0.5,0.2-0.7c0.2-0.2,0.4-0.3,0.6-0.3h1.1v1h-1.4v0.5c0.3,0.2,0.5,0.5,0.6,0.8
	c0.1,0.3,0.2,0.7,0.2,1c0,0.3-0.1,0.7-0.2,1c-0.1,0.3-0.3,0.6-0.5,0.8c-0.2,0.2-0.5,0.4-0.8,0.5c-0.4,0.1-0.7,0.2-1.1,0.2
	c-0.2,0-0.5,0-0.7-0.1c-0.2,0.1-0.4,0.2-0.6,0.3c-0.2,0.1-0.3,0.3-0.3,0.5c0,0.2,0.1,0.4,0.3,0.4c0.3,0.1,0.5,0.1,0.8,0.1h1.5
	c0.7-0.1,1.4,0.1,1.9,0.5C875.7,341.5,875.9,342,875.9,342.5z M874.9,342.6c0-0.3-0.1-0.5-0.3-0.7c-0.3-0.2-0.7-0.3-1.2-0.3H871
	c-0.4,0.1-0.7,0.5-0.7,1c0,0.3,0.1,0.6,0.4,0.8c0.3,0.3,0.8,0.4,1.2,0.3h1c0.5,0,1-0.1,1.4-0.3C874.7,343.3,874.9,343,874.9,342.6
	L874.9,342.6z M872.4,338.5c0.4,0,0.8-0.1,1.1-0.3c0.3-0.3,0.4-0.7,0.4-1v-0.4c0-0.4-0.1-0.8-0.4-1c-0.7-0.5-1.6-0.5-2.2,0
	c-0.3,0.3-0.4,0.7-0.4,1v0.4c0,0.4,0.1,0.8,0.4,1C871.6,338.4,872,338.5,872.4,338.5z"/>
<path d="M877.2,341.8v-7.1h1.1v1.3h0.1c0.1-0.4,0.4-0.7,0.7-0.9c0.4-0.3,0.9-0.4,1.4-0.4h0.4v1.1h-0.6c-0.5,0-1,0.1-1.4,0.3
	c-0.3,0.2-0.5,0.5-0.5,0.8v4.8L877.2,341.8z"/>
<path d="M884.8,341.9c-0.5,0-0.9-0.1-1.3-0.3c-0.4-0.2-0.7-0.4-1-0.8c-0.3-0.3-0.5-0.7-0.7-1.2c-0.3-1-0.3-2.1,0-3.1
	c0.1-0.4,0.4-0.8,0.7-1.2c0.3-0.3,0.6-0.6,1-0.8c0.4-0.2,0.9-0.3,1.3-0.3c0.4,0,0.9,0.1,1.3,0.3c0.4,0.2,0.7,0.4,1,0.8
	c0.3,0.3,0.5,0.7,0.7,1.2c0.3,1,0.3,2.1,0,3.1c-0.1,0.4-0.4,0.8-0.7,1.2c-0.3,0.3-0.6,0.6-1,0.8
	C885.7,341.8,885.3,341.9,884.8,341.9z M884.8,340.9c0.5,0,1.1-0.2,1.5-0.6c0.4-0.5,0.6-1.1,0.6-1.7v-1c0-0.6-0.2-1.2-0.6-1.7
	c-0.8-0.7-2.1-0.7-2.9,0c-0.4,0.5-0.6,1.1-0.6,1.7v1c0,0.6,0.2,1.2,0.6,1.7C883.8,340.8,884.3,341,884.8,340.9z"/>
<path d="M894.3,340.6L894.3,340.6c-0.1,0.2-0.2,0.3-0.3,0.5c-0.2,0.3-0.6,0.6-1,0.7c-0.2,0.1-0.5,0.1-0.8,0.1
	c-0.7,0-1.3-0.2-1.8-0.7c-0.5-0.6-0.7-1.3-0.6-2v-4.6h1.1v4.4c0,1.3,0.5,1.9,1.6,1.9c0.2,0,0.4,0,0.6-0.1c0.2-0.1,0.4-0.1,0.6-0.2
	c0.2-0.1,0.3-0.3,0.4-0.4c0.1-0.2,0.2-0.4,0.1-0.6v-4.9h1.1v7.1h-1.1L894.3,340.6z"/>
<path d="M897.7,334.6h1.1v1.1h0.1c0.2-0.4,0.4-0.8,0.8-1c0.4-0.2,0.8-0.3,1.3-0.3c0.4,0,0.8,0.1,1.2,0.3c0.4,0.2,0.7,0.4,0.9,0.7
	c0.3,0.3,0.5,0.7,0.6,1.2c0.3,1,0.3,2.1,0,3.1c-0.1,0.4-0.3,0.8-0.6,1.2c-0.2,0.3-0.6,0.6-0.9,0.7c-0.4,0.2-0.8,0.3-1.2,0.3
	c-0.9,0-1.7-0.5-2.1-1.3h-0.1v3.9h-1.1V334.6z M900.6,340.9c0.6,0,1.1-0.2,1.5-0.6c0.4-0.4,0.6-1,0.5-1.5v-1.2
	c0-0.6-0.2-1.1-0.5-1.5c-0.4-0.4-0.9-0.6-1.5-0.6c-0.2,0-0.5,0-0.7,0.1c-0.2,0.1-0.4,0.2-0.6,0.3c-0.2,0.1-0.3,0.3-0.4,0.4
	c-0.1,0.2-0.1,0.4-0.1,0.5v2.7c0,0.2,0,0.4,0.1,0.6c0.1,0.2,0.2,0.3,0.4,0.5c0.2,0.1,0.4,0.2,0.6,0.3
	C900.2,340.9,900.4,340.9,900.6,340.9L900.6,340.9z"/>
<path id="Fill-1" class="st15" d="M846.9,298.3h27.3c1.5,0,2.6-1.2,2.6-2.6v-26.1h-28.7v26C848.1,296.6,847.6,297.6,846.9,298.3
	L846.9,298.3z M842.2,263.7v32c0,0.7,0.3,1.4,0.8,2c0.5,0.4,1.1,0.7,1.7,0.7h0c0,0,0.1,0,0.1,0c1.4-0.1,2.5-1.3,2.4-2.7v-26.4
	c0-0.2,0.2-0.4,0.4-0.4c0,0,0,0,0,0h23.2V266h-14.9c-0.1,0-0.2,0-0.2-0.1l-3.4-2.3L842.2,263.7z M844.7,299.1
	c-0.9,0-1.7-0.3-2.3-0.9c-0.7-0.7-1.1-1.6-1.1-2.6v-32.4c0-0.2,0.2-0.4,0.4-0.4c0,0,0,0,0,0h10.6c0.1,0,0.2,0,0.2,0.1l3.4,2.3h15.2
	c0.2,0,0.4,0.2,0.4,0.4v3.1h5.5c0.2,0,0.4,0.2,0.4,0.4v26.5c0,1.9-1.6,3.5-3.5,3.5L844.7,299.1L844.7,299.1z"/>
<circle class="st17" cx="859.6" cy="429" r="37.9"/>
<path d="M841.8,489.1l-1-2.8h-3.9l-1,2.8h-1.2l3.4-9.6h1.5l3.4,9.6H841.8z M838.9,480.6L838.9,480.6l-1.7,4.7h3.3L838.9,480.6z"/>
<path d="M847.1,489.3c-0.5,0-0.9-0.1-1.3-0.3c-0.4-0.2-0.7-0.4-1-0.7c-0.3-0.3-0.5-0.7-0.6-1.2c-0.3-1-0.3-2.1,0-3.1
	c0.1-0.4,0.3-0.8,0.6-1.2c0.3-0.3,0.6-0.6,1-0.7c0.4-0.2,0.9-0.3,1.3-0.3c0.6,0,1.2,0.1,1.7,0.5c0.4,0.3,0.8,0.7,1,1.2l-0.9,0.5
	c-0.1-0.3-0.3-0.6-0.6-0.9c-0.3-0.2-0.7-0.3-1.1-0.3c-0.3,0-0.6,0-0.9,0.2c-0.2,0.1-0.4,0.2-0.6,0.4c-0.2,0.2-0.3,0.4-0.4,0.7
	c-0.1,0.3-0.1,0.6-0.1,0.9v1.2c0,0.6,0.2,1.1,0.5,1.5c0.4,0.4,0.9,0.6,1.5,0.6c0.8,0,1.6-0.5,1.9-1.2l0.8,0.5
	c-0.2,0.5-0.6,0.9-1,1.2C848.3,489.1,847.7,489.3,847.1,489.3z"/>
<path d="M854,489.3c-0.5,0-0.9-0.1-1.3-0.3c-0.4-0.2-0.7-0.4-1-0.7c-0.3-0.3-0.5-0.7-0.6-1.2c-0.3-1-0.3-2.1,0-3.1
	c0.1-0.4,0.3-0.8,0.6-1.2c0.3-0.3,0.6-0.6,1-0.7c0.4-0.2,0.9-0.3,1.3-0.3c0.6,0,1.2,0.1,1.7,0.5c0.4,0.3,0.8,0.7,1,1.2l-0.9,0.5
	c-0.1-0.3-0.3-0.6-0.6-0.9c-0.3-0.2-0.7-0.3-1.1-0.3c-0.3,0-0.6,0-0.9,0.2c-0.2,0.1-0.4,0.2-0.6,0.4c-0.2,0.2-0.3,0.4-0.4,0.7
	c-0.1,0.3-0.1,0.6-0.1,0.9v1.2c0,0.6,0.2,1.1,0.5,1.5c0.4,0.4,0.9,0.6,1.5,0.6c0.8,0,1.6-0.5,1.9-1.2l0.8,0.5
	c-0.2,0.5-0.6,0.9-1,1.2C855.2,489.1,854.6,489.3,854,489.3z"/>
<path d="M860.8,489.3c-0.5,0-0.9-0.1-1.3-0.3c-0.4-0.2-0.7-0.4-1-0.8c-0.3-0.3-0.5-0.7-0.7-1.2c-0.3-1-0.3-2.1,0-3.1
	c0.1-0.4,0.4-0.8,0.7-1.2c0.3-0.3,0.6-0.6,1-0.8c0.4-0.2,0.9-0.3,1.3-0.3c0.4,0,0.9,0.1,1.3,0.3c0.4,0.2,0.7,0.4,1,0.8
	c0.3,0.3,0.5,0.7,0.7,1.2c0.3,1,0.3,2.1,0,3.1c-0.1,0.4-0.4,0.8-0.7,1.2c-0.3,0.3-0.6,0.6-1,0.8
	C861.7,489.2,861.3,489.3,860.8,489.3z M860.8,488.3c0.5,0,1.1-0.2,1.5-0.6c0.4-0.5,0.6-1.1,0.6-1.7v-1c0-0.6-0.2-1.2-0.6-1.7
	c-0.8-0.7-2.1-0.7-2.9,0c-0.4,0.5-0.6,1.1-0.6,1.7v1c0,0.6,0.2,1.2,0.6,1.7C859.8,488.1,860.3,488.3,860.8,488.3z"/>
<path d="M870.3,488L870.3,488c-0.1,0.2-0.2,0.3-0.3,0.5c-0.1,0.2-0.2,0.3-0.4,0.4c-0.2,0.1-0.4,0.2-0.6,0.3
	c-0.2,0.1-0.5,0.1-0.8,0.1c-0.7,0-1.3-0.2-1.8-0.7c-0.5-0.6-0.7-1.3-0.6-2V482h1.1v4.4c0,1.3,0.5,1.9,1.6,1.9c0.2,0,0.4,0,0.6-0.1
	c0.2-0.1,0.4-0.1,0.6-0.2c0.2-0.1,0.3-0.3,0.4-0.4c0.1-0.2,0.2-0.4,0.1-0.6V482h1.1v7.1h-1.1V488z"/>
<path d="M873.7,489.1V482h1.1v1.1h0.1c0.2-0.4,0.4-0.7,0.7-1c0.4-0.3,0.8-0.4,1.3-0.4c0.7,0,1.3,0.2,1.7,0.7c0.5,0.6,0.7,1.3,0.6,2
	v4.6h-1.1v-4.4c0-1.3-0.5-1.9-1.6-1.9c-0.2,0-0.4,0-0.6,0.1c-0.2,0.1-0.4,0.1-0.6,0.2c-0.2,0.1-0.3,0.3-0.4,0.4
	c-0.1,0.2-0.1,0.4-0.1,0.6v4.9L873.7,489.1z"/>
<path d="M883.1,489.1c-0.3,0-0.6-0.1-0.9-0.3c-0.2-0.2-0.3-0.5-0.3-0.8v-5h-1.2v-1h0.7c0.2,0,0.4,0,0.5-0.1c0.1-0.1,0.1-0.3,0.1-0.5
	V480h1v2h1.6v1H883v5.2h1.4v1L883.1,489.1z"/>
<path id="Fill-13" class="st15" d="M882.7,418.5h-45.4v26.8h45.4V418.5z M882.7,417.3v-3.5h-45.4v3.5L882.7,417.3z M850.6,434h-9.3
	c-0.3,0-0.6-0.2-0.6-0.6c0-0.3,0.2-0.6,0.6-0.6h9.3c0.3,0,0.6,0.2,0.6,0.6C851.2,433.7,851,434,850.6,434z M883.2,446.4h-46.5
	c-0.3,0-0.6-0.2-0.6-0.6c0,0,0,0,0,0v-32.6c0-0.3,0.2-0.6,0.6-0.6c0,0,0,0,0,0h46.5c0.3,0,0.6,0.2,0.6,0.6c0,0,0,0,0,0v32.6
	C883.8,446.1,883.5,446.4,883.2,446.4C883.2,446.4,883.2,446.4,883.2,446.4L883.2,446.4z M880.1,415.6c0,0.4-0.3,0.8-0.8,0.8
	c-0.4,0-0.8-0.3-0.8-0.8c0-0.4,0.3-0.8,0.8-0.8h0C879.8,414.8,880.1,415.1,880.1,415.6L880.1,415.6z M877,415.6
	c0,0.4-0.3,0.8-0.8,0.8c-0.4,0-0.8-0.3-0.8-0.8c0-0.4,0.3-0.8,0.8-0.8l0,0C876.7,414.8,877,415.1,877,415.6L877,415.6z M873.9,415.6
	c0,0.4-0.3,0.8-0.8,0.8c-0.4,0-0.8-0.3-0.8-0.8c0-0.4,0.3-0.8,0.8-0.8l0,0C873.6,414.8,873.9,415.1,873.9,415.6L873.9,415.6z
	 M850.6,424.7h-9.3c-0.3,0-0.6-0.2-0.6-0.6c0-0.3,0.2-0.6,0.6-0.6h9.3c0.3,0,0.6,0.2,0.6,0.6C851.2,424.4,851,424.7,850.6,424.7z
	 M850.6,429.3h-9.3c-0.3,0-0.6-0.2-0.6-0.6c0-0.3,0.2-0.6,0.6-0.6c0,0,0,0,0,0h9.3c0.3,0,0.6,0.2,0.6,0.6
	C851.2,429.1,851,429.3,850.6,429.3C850.7,429.3,850.6,429.3,850.6,429.3z"/>
<path class="st18" d="M158.5,634.7v56.5c0,13.5,10.4,24.4,23.3,24.4h653.2c12.8,0,23.3-10.9,23.3-24.4v-41.9"/>
<polygon class="st6" points="153.5,636.2 158.5,627.5 163.5,636.2 "/>
<line class="st18" x1="815.8" y1="554.8" x2="192.1" y2="554.8"/>
<polygon class="st6" points="814.3,549.8 823,554.8 814.3,559.8 "/>
<line class="st19" x1="508.4" y1="209.8" x2="508.4" y2="211.3"/>
<line class="st20" x1="508.4" y1="213.3" x2="508.4" y2="222.3"/>
<path class="st21" d="M508.4,223.3v338.7c0,14.2,10.5,25.8,23.4,25.8h291.8"/>
<line class="st19" x1="824.5" y1="587.7" x2="826" y2="587.7"/>
<polygon class="st22" points="503.4,211.3 508.4,202.7 513.3,211.3 "/>
<circle class="st7" cx="297.9" cy="554.4" r="12.6"/>
<path d="M302.1,559.6h-8.3v-1.9l3.9-3.5c0.5-0.5,1-1,1.4-1.6c0.3-0.5,0.5-1,0.5-1.6v-0.2c0-0.5-0.2-1-0.5-1.4
	c-0.4-0.4-0.9-0.5-1.5-0.5c-0.3,0-0.6,0-0.9,0.1c-0.2,0.1-0.5,0.2-0.7,0.4c-0.2,0.2-0.3,0.4-0.5,0.6c-0.1,0.2-0.2,0.5-0.3,0.8
	l-1.7-0.7c0.1-0.4,0.3-0.8,0.5-1.1c0.5-0.8,1.2-1.3,2.1-1.6c0.5-0.2,1.1-0.3,1.6-0.2c0.6,0,1.1,0.1,1.7,0.3c0.5,0.2,0.9,0.4,1.2,0.8
	c0.3,0.3,0.6,0.7,0.8,1.2c0.2,0.5,0.3,1,0.3,1.5c0,0.5-0.1,0.9-0.2,1.4c-0.2,0.4-0.4,0.8-0.6,1.2c-0.3,0.4-0.6,0.7-0.9,1.1
	c-0.4,0.3-0.7,0.7-1.1,1l-2.9,2.5h6.2L302.1,559.6z"/>
<circle class="st7" cx="777.2" cy="715.8" r="12.6"/>
<path d="M778.2,721v-2.4h-5.7v-1.7l5-8.2h2.6v8.3h1.7v1.6h-1.7v2.4L778.2,721z M774.2,717.1h4v-6.5h-0.1L774.2,717.1z"/>
<circle class="st7" cx="725.9" cy="586.9" r="12.6"/>
<path d="M725.1,585c0.6,0,1.2-0.1,1.7-0.5c0.4-0.3,0.6-0.8,0.5-1.2v-0.1c0-0.5-0.2-1-0.5-1.3c-0.4-0.3-0.9-0.5-1.4-0.4
	c-0.5,0-1,0.1-1.5,0.4c-0.4,0.3-0.8,0.7-1,1.1l-1.3-1.1c0.2-0.3,0.4-0.5,0.6-0.8c0.2-0.3,0.5-0.5,0.8-0.6c0.3-0.2,0.7-0.3,1.1-0.4
	c0.4-0.1,0.9-0.2,1.4-0.2c0.5,0,1.1,0.1,1.6,0.2c0.5,0.1,0.9,0.3,1.3,0.6c0.3,0.3,0.6,0.6,0.8,1c0.4,0.7,0.4,1.6,0.1,2.4
	c-0.1,0.3-0.3,0.6-0.5,0.8c-0.2,0.2-0.5,0.4-0.8,0.6c-0.3,0.2-0.6,0.3-0.9,0.3v0.1c0.3,0.1,0.7,0.2,1,0.3c0.3,0.2,0.6,0.4,0.8,0.6
	c0.2,0.3,0.4,0.6,0.6,0.9c0.1,0.4,0.2,0.8,0.2,1.2c0,1-0.4,2-1.2,2.6c-0.4,0.3-0.9,0.6-1.4,0.7c-0.6,0.2-1.2,0.3-1.8,0.3
	c-0.5,0-1-0.1-1.5-0.2c-0.4-0.1-0.8-0.3-1.2-0.5c-0.3-0.2-0.6-0.4-0.9-0.7c-0.2-0.3-0.5-0.5-0.7-0.8l1.5-1.1
	c0.1,0.2,0.3,0.5,0.5,0.7c0.2,0.2,0.4,0.4,0.6,0.5c0.2,0.2,0.5,0.3,0.7,0.3c0.3,0.1,0.6,0.1,0.9,0.1c0.6,0,1.2-0.1,1.7-0.5
	c0.4-0.4,0.6-0.9,0.6-1.5v-0.1c0-0.6-0.2-1.1-0.6-1.4c-0.5-0.4-1.2-0.5-1.8-0.5h-1.3V585L725.1,585z"/>
<line class="st5" x1="815.8" y1="135.3" x2="548.9" y2="135.3"/>
<polygon class="st6" points="814.3,130.3 823,135.3 814.3,140.3 "/>
<ellipse transform="matrix(0.7071 -0.7071 0.7071 0.7071 -349.8107 276.3055)" cx="158.6" cy="560.4" rx="37.9" ry="37.9"/>
<path class="st1" d="M169.6,547.6c0,5.6-4.6,10.2-10.2,10.2s-10.2-4.6-10.2-10.2c0-5.6,4.6-10.2,10.2-10.2
	C165,537.3,169.6,541.9,169.6,547.6L169.6,547.6"/>
<path class="st1" d="M139.4,583c2.2-11.1,13-18.2,24-16c8,1.6,14.3,7.8,16,15.8"/>
<ellipse transform="matrix(0.8023 -0.5969 0.5969 0.8023 -302.9993 205.9873)" class="st1" cx="159.5" cy="560.4" rx="30.2" ry="30.2"/>
<path class="st2" d="M140.8,584.9c-1.1,0.7-2.5,0.5-3.2-0.6c-0.7-1.1-0.5-2.5,0.6-3.2c1.1-0.7,2.5-0.5,3.2,0.6
	C142.1,582.7,141.8,584.1,140.8,584.9z"/>
<path d="M126.8,608.2h3.2c0.6,0,1.1,0.1,1.6,0.3c0.5,0.2,0.9,0.5,1.2,0.9c0.4,0.4,0.6,1,0.8,1.5c0.4,1.4,0.4,2.8,0,4.2
	c-0.2,0.6-0.4,1.1-0.8,1.5c-0.3,0.4-0.8,0.7-1.2,0.9c-0.5,0.2-1.1,0.3-1.6,0.3h-3.2V608.2z M130.1,616.8c0.4,0,0.7-0.1,1.1-0.2
	c0.3-0.1,0.6-0.3,0.9-0.6c0.2-0.3,0.4-0.6,0.6-0.9c0.1-0.4,0.2-0.8,0.2-1.3v-1.6c0-0.4-0.1-0.9-0.2-1.3c-0.1-0.3-0.3-0.7-0.6-0.9
	c-0.2-0.3-0.5-0.5-0.9-0.6c-0.3-0.1-0.7-0.2-1.1-0.2H128v7.6L130.1,616.8z"/>
<path d="M138.7,618c-0.5,0-0.9-0.1-1.3-0.3c-0.4-0.2-0.7-0.4-1-0.8c-0.3-0.3-0.5-0.7-0.6-1.2c-0.3-1-0.3-2.1,0-3.1
	c0.1-0.4,0.4-0.8,0.6-1.2c0.3-0.3,0.6-0.6,1-0.8c0.4-0.2,0.9-0.3,1.3-0.3c0.4,0,0.9,0.1,1.3,0.3c0.4,0.2,0.7,0.4,1,0.7
	c0.3,0.3,0.5,0.7,0.6,1.1c0.1,0.4,0.2,0.9,0.2,1.4v0.5h-5.1v0.3c0,0.3,0,0.6,0.1,0.8c0.1,0.3,0.2,0.5,0.4,0.7
	c0.2,0.2,0.4,0.4,0.7,0.5c0.3,0.1,0.6,0.2,0.9,0.2c0.4,0,0.8-0.1,1.2-0.3c0.3-0.2,0.6-0.5,0.8-0.9l0.8,0.6c-0.2,0.5-0.6,0.9-1.1,1.2
	C139.9,617.9,139.3,618,138.7,618z M138.7,611.5c-0.3,0-0.6,0.1-0.8,0.2c-0.2,0.1-0.5,0.3-0.6,0.4c-0.2,0.2-0.3,0.4-0.4,0.7
	c-0.1,0.3-0.2,0.6-0.2,0.9v0.1h3.9v-0.2c0-0.6-0.2-1.1-0.5-1.5C139.7,611.7,139.2,611.5,138.7,611.5L138.7,611.5z"/>
<path d="M145,617.9l-2.5-7.1h1.1l1.2,3.5l0.8,2.4h0.1l0.8-2.4l1.3-3.5h1.1l-2.5,7.1H145z"/>
<path d="M152.8,618c-0.5,0-0.9-0.1-1.3-0.3c-0.4-0.2-0.7-0.4-1-0.8c-0.3-0.3-0.5-0.7-0.6-1.2c-0.3-1-0.3-2.1,0-3.1
	c0.1-0.4,0.4-0.8,0.6-1.2c0.3-0.3,0.6-0.6,1-0.8c0.4-0.2,0.9-0.3,1.3-0.3c0.4,0,0.9,0.1,1.3,0.3c0.4,0.2,0.7,0.4,1,0.7
	c0.3,0.3,0.5,0.7,0.6,1.1c0.1,0.4,0.2,0.9,0.2,1.4v0.5h-5.1v0.3c0,0.3,0,0.6,0.1,0.8c0.1,0.3,0.2,0.5,0.4,0.7
	c0.2,0.2,0.4,0.4,0.7,0.5c0.3,0.1,0.6,0.2,0.9,0.2c0.4,0,0.8-0.1,1.2-0.3c0.3-0.2,0.6-0.5,0.8-0.9l0.8,0.6c-0.2,0.5-0.6,0.9-1.1,1.2
	C154,617.9,153.4,618,152.8,618z M152.8,611.5c-0.3,0-0.6,0.1-0.8,0.2c-0.2,0.1-0.5,0.3-0.6,0.4c-0.2,0.2-0.3,0.4-0.4,0.7
	c-0.1,0.3-0.2,0.6-0.2,0.9v0.1h3.9v-0.2c0-0.6-0.2-1.1-0.5-1.5C153.8,611.7,153.3,611.5,152.8,611.5L152.8,611.5z"/>
<path d="M158.8,617.9c-0.3,0-0.6-0.1-0.9-0.3c-0.2-0.2-0.3-0.5-0.3-0.8v-9.1h1.1v9.2h1v1L158.8,617.9z"/>
<path d="M164.1,618c-0.4,0-0.9-0.1-1.3-0.3c-0.4-0.2-0.7-0.4-1-0.8c-0.3-0.3-0.5-0.7-0.7-1.2c-0.3-1-0.3-2.1,0-3.1
	c0.1-0.4,0.4-0.8,0.7-1.2c0.3-0.3,0.6-0.6,1-0.8c0.4-0.2,0.9-0.3,1.3-0.3c0.4,0,0.9,0.1,1.3,0.3c0.4,0.2,0.7,0.4,1,0.8
	c0.3,0.3,0.5,0.7,0.7,1.2c0.3,1,0.3,2.1,0,3.1c-0.1,0.4-0.4,0.8-0.7,1.2c-0.3,0.3-0.6,0.6-1,0.8C165,617.9,164.6,618,164.1,618z
	 M164.1,617c0.5,0,1.1-0.2,1.5-0.6c0.4-0.5,0.6-1.1,0.6-1.7v-1c0-0.6-0.2-1.2-0.6-1.7c-0.8-0.7-2.1-0.7-2.9,0
	c-0.4,0.5-0.6,1.1-0.6,1.7v1c0,0.6,0.2,1.2,0.6,1.7C163,616.9,163.6,617.1,164.1,617L164.1,617z"/>
<path d="M169.1,610.7h1.1v1.1h0.1c0.2-0.4,0.4-0.8,0.8-1c0.4-0.2,0.8-0.3,1.3-0.3c0.4,0,0.8,0.1,1.2,0.3c0.4,0.2,0.7,0.4,0.9,0.7
	c0.3,0.3,0.5,0.7,0.6,1.2c0.3,1,0.3,2.1,0,3.1c-0.1,0.4-0.3,0.8-0.6,1.2c-0.2,0.3-0.6,0.6-0.9,0.7c-0.4,0.2-0.8,0.3-1.2,0.3
	c-0.9,0-1.7-0.5-2.1-1.3h-0.1v3.9h-1.1V610.7z M172.1,617c0.6,0,1.1-0.2,1.5-0.6c0.4-0.4,0.6-1,0.5-1.5v-1.2c0-0.6-0.2-1.1-0.5-1.5
	c-0.4-0.4-0.9-0.6-1.5-0.6c-0.2,0-0.5,0-0.7,0.1c-0.2,0.1-0.4,0.2-0.6,0.3c-0.2,0.1-0.3,0.3-0.4,0.4c-0.1,0.2-0.1,0.4-0.1,0.5v2.7
	c0,0.2,0,0.4,0.1,0.6c0.1,0.2,0.2,0.3,0.4,0.5c0.2,0.1,0.4,0.2,0.6,0.3C171.6,617,171.8,617,172.1,617L172.1,617z"/>
<path d="M179.8,618c-0.5,0-0.9-0.1-1.3-0.3c-0.4-0.2-0.7-0.4-1-0.8c-0.3-0.3-0.5-0.7-0.6-1.2c-0.3-1-0.3-2.1,0-3.1
	c0.1-0.4,0.4-0.8,0.6-1.2c0.3-0.3,0.6-0.6,1-0.8c0.4-0.2,0.9-0.3,1.3-0.3c0.4,0,0.9,0.1,1.3,0.3c0.4,0.2,0.7,0.4,1,0.7
	c0.3,0.3,0.5,0.7,0.6,1.1c0.1,0.4,0.2,0.9,0.2,1.4v0.5h-5.1v0.3c0,0.3,0,0.6,0.1,0.8c0.1,0.3,0.2,0.5,0.4,0.7
	c0.2,0.2,0.4,0.4,0.7,0.5c0.3,0.1,0.6,0.2,0.9,0.2c0.4,0,0.8-0.1,1.2-0.3c0.3-0.2,0.6-0.5,0.8-0.9l0.8,0.6c-0.2,0.5-0.6,0.9-1.1,1.2
	C181,617.9,180.4,618,179.8,618z M179.8,611.5c-0.3,0-0.6,0.1-0.8,0.2c-0.2,0.1-0.5,0.3-0.6,0.4c-0.2,0.2-0.3,0.4-0.4,0.7
	c-0.1,0.3-0.2,0.6-0.2,0.9v0.1h3.9v-0.2c0-0.6-0.2-1.1-0.5-1.5C180.8,611.7,180.3,611.5,179.8,611.5L179.8,611.5z"/>
<path d="M184.7,617.9v-7.1h1.1v1.3h0.1c0.1-0.4,0.4-0.7,0.7-0.9c0.4-0.3,0.9-0.4,1.4-0.4h0.4v1.1h-0.6c-0.5,0-1,0.1-1.4,0.3
	c-0.3,0.2-0.5,0.5-0.5,0.8v4.8L184.7,617.9z"/>
</svg>
