<?xml version="1.0" encoding="utf-8"?>
<!-- Generator: Adobe Illustrator 26.0.1, SVG Export Plug-In . SVG Version: 6.00 Build 0)  -->
<svg version="1.1" xmlns="http://www.w3.org/2000/svg" xmlns:xlink="http://www.w3.org/1999/xlink" x="0px" y="0px"
	 viewBox="0 0 848.5 488.3" style="enable-background:new 0 0 848.5 488.3;" xml:space="preserve">
<style type="text/css">
	.st0{fill:#FFFFFF;}
	.st1{display:none;fill:none;stroke:#000000;stroke-width:0.75;stroke-linecap:round;stroke-miterlimit:10;}
	.st2{fill:none;stroke:#000000;stroke-width:0.7313;stroke-miterlimit:10;}
	.st3{fill:none;stroke:#000000;stroke-width:0.7313;stroke-miterlimit:10;stroke-dasharray:7.8478,7.8478;}
	.st4{fill:none;stroke:#000000;stroke-width:0.7313;stroke-miterlimit:10;stroke-dasharray:7.894,7.894;}
	.st5{fill:none;stroke:#000000;stroke-width:0.7313;stroke-miterlimit:10;stroke-dasharray:7.8488,7.8488;}
	.st6{fill:none;stroke:#000000;stroke-width:0.748;stroke-linecap:round;stroke-miterlimit:10;}
	.st7{fill:none;stroke:#000000;stroke-width:0.75;stroke-linecap:round;stroke-linejoin:round;stroke-miterlimit:10;}
	.st8{fill:#FFFFFF;stroke:#000000;stroke-width:0.75;stroke-linecap:round;stroke-linejoin:round;stroke-miterlimit:10;}
	.st9{fill:none;stroke:#6F6F6F;stroke-width:0.75;stroke-miterlimit:10;}
	.st10{fill:#6F6F6F;}
	.st11{fill:#F4F4F4;}
	.st12{fill:none;stroke:#000000;stroke-width:0.5;stroke-linecap:round;stroke-linejoin:round;stroke-miterlimit:10;}
	.st13{fill:#002D9C;}
	.st14{fill:none;stroke:#FFFFFF;stroke-width:0.15;stroke-miterlimit:10;}
	.st15{fill:none;stroke:#6F6F6F;stroke-width:0.75;stroke-linejoin:round;stroke-miterlimit:10;}
	.st16{fill:#0F62FE;}
	.st17{fill:none;stroke:#0F62FE;stroke-width:0.533;stroke-miterlimit:10;}
	.st18{fill:none;stroke:#6F6F6F;stroke-width:0.5;stroke-linecap:round;stroke-linejoin:round;stroke-miterlimit:10;}
	.st19{fill:none;stroke:#6F6F6F;stroke-width:0.6;stroke-linecap:round;stroke-linejoin:round;stroke-miterlimit:10;}
	.st20{fill:none;stroke:#000000;stroke-width:0.75;stroke-linecap:round;stroke-miterlimit:10;}
	.st21{fill:none;stroke:#394B54;stroke-width:1.633;stroke-miterlimit:10;}
	.st22{fill:#85CEC7;}
	.st23{fill:#EDC01B;}
	.st24{fill:#F37736;}
	.st25{fill:#8DC63F;}
	.st26{fill:#152935;}
	.st27{fill:none;stroke:#FFFFFF;stroke-width:1.0318;stroke-linecap:round;stroke-linejoin:round;stroke-miterlimit:10;}
	.st28{fill:none;stroke:#FFFFFF;stroke-width:1.0318;stroke-linecap:round;stroke-linejoin:round;}
	.st29{fill:#757575;stroke:#FFFFFF;stroke-width:1.0318;stroke-linecap:round;stroke-linejoin:round;stroke-miterlimit:10;}
	.st30{fill:none;stroke:#FFFFFF;stroke-width:1.0318;stroke-linecap:round;stroke-miterlimit:10;}
	.st31{stroke:#FFFFFF;stroke-width:1.0318;stroke-miterlimit:10;}
	.st32{fill:none;stroke:#FFFFFF;stroke-width:1.032;stroke-linecap:round;stroke-miterlimit:10;}
	.st33{fill:none;stroke:#FFFFFF;stroke-width:1.032;stroke-miterlimit:10;}
	.st34{fill:none;stroke:#6F6F6F;stroke-width:0.75;stroke-linejoin:round;}
	.st35{fill:none;stroke:#0F62FE;stroke-miterlimit:10;}
	.st36{fill:#0F62FE;stroke:#0F62FE;stroke-miterlimit:10;}
	.st37{font-family:'IBMPlexSans-SemiBold';}
	.st38{font-size:16px;}
	.st39{font-family:'IBMPlexSans';}
	.st40{font-size:12px;}
	.st41{font-size:10px;}
	.st42{font-size:14px;}
	.st43{fill:#D0E2FF;stroke:#000000;stroke-width:0.329;stroke-miterlimit:10;}
	.st44{fill:#FFFFFF;stroke:#000000;stroke-width:0.7602;stroke-linecap:round;stroke-linejoin:round;stroke-miterlimit:10;}
</style>
<g id="Graphics">
	<rect x="340.8" y="266.4" class="st0" width="351.5" height="151.2"/>
	<rect x="340.8" y="282.4" class="st1" width="351.5" height="151.2"/>
	<g>
		<polyline class="st2" points="836.3,22.5 836.3,18.7 832.3,18.7 		"/>
		<line class="st3" x1="824.3" y1="18.7" x2="330.3" y2="18.7"/>
		<polyline class="st2" points="326.3,18.7 322.3,18.7 322.3,22.5 		"/>
		<line class="st4" x1="322.3" y1="30.2" x2="322.2" y2="442.8"/>
		<polyline class="st2" points="322.2,446.7 322.2,450.5 326.2,450.5 		"/>
		<line class="st5" x1="334.3" y1="450.5" x2="828.3" y2="450.5"/>
		<polyline class="st2" points="832.3,450.5 836.3,450.5 836.3,446.7 		"/>
		<line class="st4" x1="836.3" y1="438.9" x2="836.3" y2="26.3"/>
	</g>
	<rect x="352.9" y="276.3" class="st0" width="349.8" height="151.2"/>
	<rect x="352.9" y="276.3" class="st6" width="349.8" height="151.2"/>
	<polygon class="st7" points="629.7,64.5 340.8,64.5 340.8,186.1 629.7,186.1 	"/>
	<polygon class="st8" points="637.2,74 348.4,74 348.4,202.6 637.2,202.6 	"/>
	<g>
		<path class="st9" d="M418.6,337.4H384c-2.3,0-4.2-2.6-4.2-5.8v-22.3"/>
		<path class="st10" d="M382.7,309.4c0-1.6-1.3-2.8-2.8-2.8s-2.8,1.3-2.8,2.8s1.3,2.8,2.8,2.8S382.7,311,382.7,309.4"/>
		<path class="st9" d="M477,393.7h-57.3c-3.8,0-6.9-2.7-6.9-6.1l0.1-38.8"/>
		<path class="st11" d="M400.4,321.3h101.5c1.1,0,2,0.8,2,1.9l0,29c0,1-0.9,1.9-2,1.9H400.4c-1.1,0-2-0.8-2-1.9v-29
			C398.4,322.1,399.3,321.3,400.4,321.3"/>
		<path class="st12" d="M400.4,321.3h101.5c1.1,0,2,0.8,2,1.9l0,29c0,1-0.9,1.9-2,1.9H400.4c-1.1,0-2-0.8-2-1.9v-29
			C398.4,322.1,399.3,321.3,400.4,321.3z"/>
		<path class="st13" d="M409.5,337.4c0,6.1-4.9,11-11,11c-6.1,0-11-4.9-11-11c0-6.1,4.9-11,11-11
			C404.6,326.4,409.5,331.3,409.5,337.4"/>
		<polygon class="st0" points="397.8,338 396.9,337.1 396.4,337.6 397.8,339 400.7,336.2 400.2,335.7 		"/>
		<polygon class="st14" points="397.8,338 396.9,337.1 396.4,337.6 397.8,339 400.7,336.2 400.2,335.7 		"/>
		<path class="st0" d="M398.5,342.4l-2.2-1.2c-1.3-0.7-2.1-2-2.1-3.5v-4.6c0-0.4,0.3-0.7,0.7-0.7h7.1c0.4,0,0.7,0.3,0.7,0.7v4.6
			c0,1.5-0.8,2.8-2.1,3.5L398.5,342.4z M394.9,333.1v4.6c0,1.2,0.7,2.3,1.7,2.8l1.9,1l1.9-1c1-0.6,1.7-1.6,1.7-2.8v-4.6H394.9z"/>
		<path class="st14" d="M398.5,342.4l-2.2-1.2c-1.3-0.7-2.1-2-2.1-3.5v-4.6c0-0.4,0.3-0.7,0.7-0.7h7.1c0.4,0,0.7,0.3,0.7,0.7v4.6
			c0,1.5-0.8,2.8-2.1,3.5L398.5,342.4z M394.9,333.1v4.6c0,1.2,0.7,2.3,1.7,2.8l1.9,1l1.9-1c1-0.6,1.7-1.6,1.7-2.8v-4.6H394.9z"/>
	</g>
	<g>
		<path class="st11" d="M540.2,376.2H438.6c-1.1,0-2,0.8-2,1.9l0,29c0,1,0.9,1.9,2,1.9h101.5c1.1,0,2-0.8,2-1.9v-29
			C542.1,377.1,541.3,376.2,540.2,376.2"/>
		<path class="st12" d="M540.2,376.2H438.6c-1.1,0-2,0.8-2,1.9l0,29c0,1,0.9,1.9,2,1.9h101.5c1.1,0,2-0.8,2-1.9v-29
			C542.1,377.1,541.3,376.2,540.2,376.2z"/>
		<path class="st13" d="M447.5,392.6c0,6.1-4.9,11-11,11s-11-4.9-11-11c0-6.1,4.9-11,11-11S447.5,386.5,447.5,392.6"/>
		<polygon class="st0" points="435.8,393.3 434.9,392.3 434.3,392.8 435.8,394.3 438.6,391.4 438.1,390.9 		"/>
		<polygon class="st14" points="435.8,393.3 434.9,392.3 434.3,392.8 435.8,394.3 438.6,391.4 438.1,390.9 		"/>
		<path class="st0" d="M436.5,397.6l-2.2-1.2c-1.3-0.7-2.1-2-2.1-3.5v-4.6c0-0.4,0.3-0.7,0.7-0.7h7.1c0.4,0,0.7,0.3,0.7,0.7v4.6
			c0,1.5-0.8,2.8-2.1,3.5L436.5,397.6z M432.9,388.3v4.6c0,1.2,0.7,2.3,1.7,2.8l1.9,1l1.9-1c1-0.6,1.7-1.6,1.7-2.8v-4.6H432.9z"/>
		<path class="st14" d="M436.5,397.6l-2.2-1.2c-1.3-0.7-2.1-2-2.1-3.5v-4.6c0-0.4,0.3-0.7,0.7-0.7h7.1c0.4,0,0.7,0.3,0.7,0.7v4.6
			c0,1.5-0.8,2.8-2.1,3.5L436.5,397.6z M432.9,388.3v4.6c0,1.2,0.7,2.3,1.7,2.8l1.9,1l1.9-1c1-0.6,1.7-1.6,1.7-2.8v-4.6H432.9z"/>
	</g>
	<line class="st15" x1="542.2" y1="392.7" x2="571.5" y2="392.7"/>
	<path class="st16" d="M236.3,418.4c0,4.3-3.5,7.8-7.8,7.8c-4.3,0-7.8-3.5-7.8-7.8c0-4.3,3.5-7.8,7.8-7.8
		C232.8,410.6,236.3,414.1,236.3,418.4"/>
	<circle class="st17" cx="228.5" cy="418.4" r="7.8"/>
	<path class="st0" d="M236.3,442.6c0,4.3-3.5,7.8-7.8,7.8c-4.3,0-7.8-3.5-7.8-7.8c0-4.3,3.5-7.8,7.8-7.8
		C232.8,434.8,236.3,438.3,236.3,442.6"/>
	<circle class="st17" cx="228.5" cy="442.6" r="7.8"/>
	<g>
		<path class="st11" d="M574,377.3h101.5c1.1,0,2,0.8,2,1.9l0,29c0,1-0.9,1.9-2,1.9H574c-1.1,0-2-0.8-2-1.9v-29
			C572,378.1,572.9,377.3,574,377.3"/>
		<path class="st12" d="M574,377.3h101.5c1.1,0,2,0.8,2,1.9l0,29c0,1-0.9,1.9-2,1.9H574c-1.1,0-2-0.8-2-1.9v-29
			C572,378.1,572.9,377.3,574,377.3z"/>
		<path class="st13" d="M581.2,393.7c0,6.1-4.9,11-11,11c-6.1,0-11-4.9-11-11c0-6.1,4.9-11,11-11
			C576.3,382.7,581.2,387.6,581.2,393.7"/>
		<polygon class="st0" points="569.5,394.3 568.6,393.4 568.1,393.9 569.5,395.3 572.4,392.5 571.9,392 		"/>
		<polygon class="st14" points="569.5,394.3 568.6,393.4 568.1,393.9 569.5,395.3 572.4,392.5 571.9,392 		"/>
		<path class="st0" d="M570.2,398.7l-2.2-1.2c-1.3-0.7-2.1-2-2.1-3.5v-4.6c0-0.4,0.3-0.7,0.7-0.7h7.1c0.4,0,0.7,0.3,0.7,0.7v4.6
			c0,1.5-0.8,2.8-2.1,3.5L570.2,398.7z M566.7,389.4v4.6c0,1.2,0.7,2.3,1.7,2.8l1.9,1l1.9-1c1-0.6,1.7-1.6,1.7-2.8v-4.6H566.7z"/>
		<path class="st14" d="M570.2,398.7l-2.2-1.2c-1.3-0.7-2.1-2-2.1-3.5v-4.6c0-0.4,0.3-0.7,0.7-0.7h7.1c0.4,0,0.7,0.3,0.7,0.7v4.6
			c0,1.5-0.8,2.8-2.1,3.5L570.2,398.7z M566.7,389.4v4.6c0,1.2,0.7,2.3,1.7,2.8l1.9,1l1.9-1c1-0.6,1.7-1.6,1.7-2.8v-4.6H566.7z"/>
	</g>
	<g>
		<line class="st15" x1="504.4" y1="337.4" x2="533.8" y2="337.4"/>
		<path class="st0" d="M528.1,321h101.5c1.1,0,2,0.8,2,1.9l0,29c0,1-0.9,1.9-2,1.9H528.1c-1.1,0-2-0.8-2-1.9v-29
			C526.2,321.8,527,321,528.1,321"/>
		<path class="st18" d="M528.1,321h101.5c1.1,0,2,0.8,2,1.9l0,29c0,1-0.9,1.9-2,1.9H528.1c-1.1,0-2-0.8-2-1.9v-29
			C526.2,321.8,527,321,528.1,321z"/>
	</g>
	<g>
		<polygon class="st19" points="560.5,337.8 560.5,337.8 597.3,337.8 		"/>
	</g>
	<g>
		<g>
			<line class="st9" x1="296.2" y1="292.3" x2="67.7" y2="292.3"/>
			<g>
				<polygon class="st10" points="294.6,286.7 304.3,292.3 294.6,297.9 				"/>
			</g>
		</g>
	</g>
	<g>
		<rect x="715.3" y="277.3" class="st20" width="95" height="149.9"/>
	</g>
	<g>
		<rect x="738.8" y="317.2" class="st0" width="48.1" height="28.6"/>
		<rect x="738.8" y="317.2" class="st21" width="48.1" height="28.6"/>
		<path class="st22" d="M761.4,331.1c0,5.5-4.5,9.9-10.1,9.9c-5.6,0-10.1-4.4-10.1-9.9c0-5.5,4.5-9.9,10.1-9.9
			C756.9,321.2,761.4,325.6,761.4,331.1"/>
		<path class="st23" d="M751.3,331.5l3.9-9.5c2.2,0.9,4,2.6,5.1,4.6L751.3,331.5z"/>
		<path class="st24" d="M751.3,331.5l9-4.8c1.4,2.2,1.5,6.1,0.2,8.6L751.3,331.5z"/>
		<path class="st25" d="M751.4,331.4l-1.4-10.1c2.3-0.1,3-0.1,5.2,0.7L751.4,331.4z"/>
		<rect x="763.9" y="323.9" class="st26" width="19.5" height="1.2"/>
		<rect x="763.9" y="326.8" class="st26" width="19.5" height="1.2"/>
		<rect x="763.9" y="329.7" class="st26" width="19.5" height="1.2"/>
		<rect x="763.9" y="332.6" class="st26" width="19.5" height="1.2"/>
		<rect x="763.9" y="335.5" class="st26" width="19.5" height="1.2"/>
		<rect x="763.9" y="338.3" class="st26" width="19.5" height="1.2"/>
	</g>
	<g>
		<path class="st0" d="M784.4,376.8c0,3.4-9.6,6.2-21.5,6.2c-11.9,0-21.5-2.8-21.5-6.2c0-3.4,9.6-6.2,21.5-6.2
			C774.7,370.6,784.4,373.4,784.4,376.8"/>
		<ellipse class="st20" cx="762.8" cy="376.8" rx="21.5" ry="6.2"/>
		<path class="st0" d="M783.9,394c-2-2.8-10.7-4.9-21.1-4.9c-11.9,0-21.5,2.8-21.5,6.2c0,3.4,9.6,6.2,21.5,6.2
			c11.9,0,21.5-2.8,21.5-6.2C784.4,394.9,784.2,394.4,783.9,394"/>
		<path class="st20" d="M783.9,394c-2-2.8-10.7-4.9-21.1-4.9c-11.9,0-21.5,2.8-21.5,6.2c0,3.4,9.6,6.2,21.5,6.2
			c11.9,0,21.5-2.8,21.5-6.2C784.4,394.9,784.2,394.4,783.9,394z"/>
		<line class="st20" x1="741.3" y1="395.3" x2="741.3" y2="376.8"/>
		<line class="st20" x1="784.4" y1="395.3" x2="784.4" y2="376.8"/>
	</g>
	<g>
		<circle class="st10" cx="45.9" cy="293.6" r="24.8"/>
		<g>
			<line class="st27" x1="37.9" y1="279.9" x2="46.2" y2="294.3"/>
			<line class="st27" x1="31.8" y1="285.9" x2="46.2" y2="294.3"/>
			<line class="st27" x1="29.5" y1="294.3" x2="46.2" y2="294.3"/>
			<line class="st27" x1="46.2" y1="277.7" x2="46.2" y2="294.3"/>
			<line class="st27" x1="54.6" y1="280" x2="46.2" y2="294.3"/>
			<line class="st27" x1="60.6" y1="285.9" x2="46.2" y2="294.3"/>
			<line class="st27" x1="62.9" y1="294.3" x2="46.2" y2="294.3"/>
			<g>
				<path class="st28" d="M62.9,294.3c0,9.2-7.5,16.7-16.7,16.7s-16.7-7.5-16.7-16.7"/>
			</g>
			<g>
				<path class="st28" d="M29.5,294.3c0-9.2,7.5-16.7,16.7-16.7s16.7,7.5,16.7,16.7"/>
			</g>
			<path class="st29" d="M46.2,295.8c-0.8,0-1.5-0.7-1.5-1.5c0-0.8,0.7-1.5,1.5-1.5c0.8,0,1.5,0.7,1.5,1.5
				C47.7,295.1,47,295.8,46.2,295.8z"/>
			<path class="st29" d="M46.2,279.1c-0.8,0-1.5-0.7-1.5-1.5c0-0.8,0.7-1.5,1.5-1.5c0.8,0,1.5,0.7,1.5,1.5
				C47.7,278.4,47,279.1,46.2,279.1z"/>
			<circle class="st29" cx="37.9" cy="279.9" r="1.5"/>
			<path class="st29" d="M54.6,281.4c-0.8,0-1.5-0.7-1.5-1.5c0-0.8,0.7-1.5,1.5-1.5c0.8,0,1.5,0.7,1.5,1.5
				C56.1,280.7,55.4,281.4,54.6,281.4z"/>
			<path class="st29" d="M60.6,287.5c-0.8,0-1.5-0.7-1.5-1.5c0-0.8,0.7-1.5,1.5-1.5c0.8,0,1.5,0.7,1.5,1.5
				C62.1,286.8,61.5,287.5,60.6,287.5z"/>
			<path class="st29" d="M31.8,287.5c-0.8,0-1.5-0.7-1.5-1.5c0-0.8,0.7-1.5,1.5-1.5c0.8,0,1.5,0.7,1.5,1.5
				C33.3,286.8,32.6,287.5,31.8,287.5z"/>
			<path class="st29" d="M29.5,295.8c-0.8,0-1.5-0.7-1.5-1.5c0-0.8,0.7-1.5,1.5-1.5c0.8,0,1.5,0.7,1.5,1.5
				C31,295.1,30.3,295.8,29.5,295.8z"/>
			<path class="st29" d="M62.9,295.8c-0.8,0-1.5-0.7-1.5-1.5c0-0.8,0.7-1.5,1.5-1.5c0.8,0,1.5,0.7,1.5,1.5
				C64.4,295.1,63.7,295.8,62.9,295.8z"/>
		</g>
	</g>
	<g>
		<circle cx="45.9" cy="181.6" r="24.8"/>
		<path class="st30" d="M53,173.2c0,3.7-3,6.7-6.7,6.7c-3.7,0-6.7-3-6.7-6.7c0-3.7,3-6.7,6.7-6.7C50,166.5,53,169.5,53,173.2"/>
		<path class="st30" d="M33.4,196.3c1.2-6.1,6.6-10.7,13.1-10.7c6.4,0,11.8,4.5,13,10.6"/>
		<circle class="st30" cx="46.4" cy="181.6" r="19.7"/>
		<path class="st31" d="M34.2,197.5c-0.7,0.5-1.6,0.3-2.1-0.4c-0.5-0.7-0.3-1.6,0.4-2.1c0.7-0.5,1.6-0.3,2.1,0.4
			C35.1,196.1,34.9,197.1,34.2,197.5z"/>
	</g>
	<g>
		<path d="M70.7,95c0,13.7-11.1,24.8-24.8,24.8c-13.7,0-24.8-11.1-24.8-24.8s11.1-24.8,24.8-24.8C59.6,70.3,70.7,81.4,70.7,95"/>
		<path class="st32" d="M53,86.6c0,3.7-3,6.7-6.7,6.7c-3.7,0-6.7-3-6.7-6.7s3-6.7,6.7-6.7C50.1,80,53,82.9,53,86.6"/>
		<path class="st32" d="M33.4,109.7C34.6,103.6,40,99,46.4,99c6.4,0,11.8,4.5,13,10.6"/>
		<path class="st32" d="M66.1,95c0,10.9-8.8,19.7-19.7,19.7c-10.9,0-19.7-8.8-19.7-19.7c0-10.9,8.8-19.7,19.7-19.7
			C57.3,75.3,66.1,84.1,66.1,95z"/>
		<path d="M34.2,111c-0.7,0.5-1.6,0.3-2.1-0.4c-0.5-0.7-0.3-1.6,0.4-2.1c0.7-0.5,1.6-0.3,2.1,0.4C35.1,109.6,34.9,110.5,34.2,111"/>
		<path class="st33" d="M34.2,111c-0.7,0.5-1.6,0.3-2.1-0.4c-0.5-0.7-0.3-1.6,0.4-2.1c0.7-0.5,1.6-0.3,2.1,0.4
			C35.1,109.6,34.9,110.5,34.2,111z"/>
	</g>
	<line class="st9" x1="318.2" y1="387.6" x2="45.7" y2="387.6"/>
	<g>
		<g>
			<line class="st9" x1="45.9" y1="355.4" x2="45.9" y2="387.6"/>
			<g>
				<polygon class="st10" points="40.3,357.1 45.9,347.4 51.5,357.1 				"/>
			</g>
		</g>
	</g>
	<g>
		<g>
			<line class="st9" x1="296.2" y1="94.4" x2="70.7" y2="94.4"/>
			<g>
				<polygon class="st10" points="294.6,88.8 304.3,94.4 294.6,100.1 				"/>
			</g>
		</g>
	</g>
	<g>
		<g>
			<line class="st9" x1="378.6" y1="254.6" x2="378.6" y2="202.8"/>
			<g>
				<polygon class="st10" points="384.2,253 378.6,262.7 373,253 				"/>
			</g>
		</g>
	</g>
	<g>
		<g>
			<line class="st34" x1="45.9" y1="246.6" x2="45.9" y2="227"/>
			<g>
				<polygon class="st10" points="51.5,245 45.9,254.7 40.3,245 				"/>
			</g>
		</g>
	</g>
	<g>
		<path class="st35" d="M124.6,362.2c0,8.1-6.6,14.7-14.7,14.7c-8.1,0-14.7-6.6-14.7-14.7s6.6-14.7,14.7-14.7
			C118,347.5,124.6,354.1,124.6,362.2z"/>
		<g>
			<path class="st16" d="M110.7,367.8v-2.2h-5.1v-1.8l4.4-7.2h2.6v7.4h1.5v1.6h-1.5v2.2H110.7z M107.4,364h3.3v-5.3h-0.1L107.4,364z
				"/>
		</g>
	</g>
	<g>
		<path class="st36" d="M124.6,265.2c0,8.1-6.6,14.7-14.7,14.7c-8.1,0-14.7-6.6-14.7-14.7s6.6-14.7,14.7-14.7
			C118,250.5,124.6,257.1,124.6,265.2"/>
		<text transform="matrix(1 0 0 1 105.0792 269.8894)" class="st0 st37 st38">3</text>
	</g>
	<g>
		<path class="st36" d="M421.4,239.5c0,8.1-6.6,14.7-14.7,14.7c-8.1,0-14.7-6.6-14.7-14.7s6.6-14.7,14.7-14.7
			C414.9,224.9,421.4,231.4,421.4,239.5"/>
		<g>
			<path class="st0" d="M410.7,245.2H403v-2l3.5-3.1c0.6-0.5,1-1,1.3-1.4c0.3-0.4,0.4-0.9,0.4-1.4v-0.2c0-0.5-0.2-0.9-0.5-1.1
				c-0.3-0.3-0.7-0.4-1.2-0.4c-0.6,0-1,0.2-1.3,0.5c-0.3,0.3-0.5,0.7-0.6,1.2l-1.8-0.7c0.1-0.4,0.3-0.7,0.5-1.1
				c0.2-0.3,0.5-0.6,0.8-0.9c0.3-0.3,0.7-0.5,1.1-0.6c0.4-0.1,0.9-0.2,1.5-0.2c0.6,0,1.1,0.1,1.6,0.2c0.5,0.2,0.8,0.4,1.2,0.7
				c0.3,0.3,0.6,0.7,0.7,1.1c0.2,0.4,0.2,0.8,0.2,1.3c0,0.5-0.1,0.9-0.2,1.3c-0.1,0.4-0.4,0.7-0.6,1.1c-0.3,0.3-0.6,0.7-0.9,1
				c-0.3,0.3-0.7,0.6-1.1,1l-2.4,1.9h5.5V245.2z"/>
		</g>
	</g>
	<g>
		<path class="st36" d="M124.6,68.9c0,8.1-6.6,14.7-14.7,14.7c-8.1,0-14.7-6.6-14.7-14.7c0-8.1,6.6-14.7,14.7-14.7
			C118,54.2,124.6,60.8,124.6,68.9"/>
		<g>
			<path class="st0" d="M106.5,73.6v-1.5h3.1v-8.4h-0.1l-2.6,2.8l-1.1-1l2.8-3.1h2.8v9.7h2.7v1.5H106.5z"/>
		</g>
	</g>
</g>
<g id="Text">
	<text transform="matrix(1 0 0 1 132.8396 365.7123)" class="st16 st39 st40">Allow or block action</text>
	<text transform="matrix(1 0 0 1 742.0972 299.9975)"><tspan x="0" y="0" class="st37 st40">R</tspan><tspan x="7.8" y="0" class="st37 st40">esu</tspan><tspan x="27.5" y="0" class="st37 st40">l</tspan><tspan x="31" y="0" class="st37 st40">ts</tspan></text>
	<text transform="matrix(1 0 0 1 560.4927 340.3794)"><tspan x="0" y="0" class="st10 st39 st41">A</tspan><tspan x="6.4" y="0" class="st10 st39 st41">cc</tspan><tspan x="16.4" y="0" class="st10 st39 st41">ount</tspan></text>
	<text transform="matrix(1 0 0 1 470.9819 395.5981)"><tspan x="0" y="0" class="st39 st41">A</tspan><tspan x="6.4" y="0" class="st39 st41">c</tspan><tspan x="11.4" y="0" class="st39 st41">c</tspan><tspan x="16.4" y="0" class="st39 st41">ount</tspan></text>
	<text transform="matrix(1 0 0 1 589.5688 396.6753)"><tspan x="0" y="0" class="st39 st41">R</tspan><tspan x="6.3" y="0" class="st39 st41">esou</tspan><tspan x="27.9" y="0" class="st39 st41">r</tspan><tspan x="31.5" y="0" class="st39 st41">c</tspan><tspan x="36.5" y="0" class="st39 st41">e g</tspan><tspan x="49.6" y="0" class="st39 st41">r</tspan><tspan x="53.3" y="0" class="st39 st41">oup</tspan></text>
	<text transform="matrix(1 0 0 1 427.938 340.3794)" class="st39 st41">IBM Cloud</text>
	<text transform="matrix(1 0 0 1 430.713 243.1695)" class="st16 st39 st40">Monitor and enforce across a scope</text>
	<text transform="matrix(1 0 0 1 359.9907 97.2099)" class="st37 st40">Config rule</text>
	<text transform="matrix(1 0 0 1 20.4536 332.1201)" class="st39 st41">Application</text>
	<text transform="matrix(1 0 0 1 22.9577 219.0896)" class="st39 st41">Developer</text>
	<text transform="matrix(1 0 0 1 244.0698 445.6528)"><tspan x="0" y="0" class="st39 st41">S</tspan><tspan x="5.8" y="0" class="st39 st41">y</tspan><tspan x="10.8" y="0" class="st39 st41">s</tspan><tspan x="15.6" y="0" class="st39 st41">t</tspan><tspan x="19" y="0" class="st39 st41">em action</tspan></text>
	<text transform="matrix(1 0 0 1 244.0698 421.4331)" class="st39 st41">User action</text>
	<text transform="matrix(1 0 0 1 132.8394 268.8502)" class="st16 st39 st40">Create or update resource</text>
	<text transform="matrix(1 0 0 1 364.9072 297.4936)"><tspan x="0" y="0" class="st37 st40">Attached s</tspan><tspan x="59.7" y="0" class="st37 st40">c</tspan><tspan x="65.8" y="0" class="st37 st40">ope</tspan></text>
	<text transform="matrix(1 0 0 1 132.8394 72.5088)" class="st16 st39 st40">Define rule or template</text>
	<text transform="matrix(1 0 0 1 33.8828 131.6753)"><tspan x="0" y="0" class="st39 st41">F</tspan><tspan x="5.4" y="0" class="st39 st41">ocal</tspan></text>
	<text transform="matrix(1 0 0 1 333.8604 45.9458)"><tspan x="0" y="0" class="st37 st42">Security and Complian</tspan><tspan x="146.5" y="0" class="st37 st42">c</tspan><tspan x="153.6" y="0" class="st37 st42">e Cen</tspan><tspan x="189.8" y="0" class="st37 st42">t</tspan><tspan x="195" y="0" class="st37 st42">er</tspan></text>
	<g>
		<polygon class="st43" points="485.8,108.2 363.7,108.2 363.7,137.8 485.8,137.8 		"/>
		<text transform="matrix(1 0 0 1 368.9939 126.6284)" class="st39 st40">Target resource</text>
		<polygon class="st43" points="485.8,148.8 363.7,148.8 363.7,178.5 485.8,178.5 		"/>
		<text transform="matrix(1 0 0 1 368.9939 167.3002)" class="st39 st40">Additional attributes</text>
		<polygon class="st43" points="615.6,108.2 493.5,108.2 493.5,137.8 615.6,137.8 		"/>
		<text transform="matrix(1 0 0 1 502.7715 126.6284)" class="st39 st40">Required config</text>
		<polygon class="st43" points="615.6,148.8 493.5,148.8 493.5,178.5 615.6,178.5 		"/>
		<text transform="matrix(1 0 0 1 502.7715 167.3001)" class="st39 st40">Enforcement</text>
	</g>
	<polygon class="st7" points="814.4,64.5 647.3,64.5 647.2,202.6 814.4,202.6 	"/>
	<polygon class="st44" points="821.9,74 656.4,74 656.3,229 821.9,229 	"/>
	<text transform="matrix(1 0 0 1 671.1802 95.3399)" class="st37 st40">Template</text>
	<polygon class="st43" points="797,106.3 674.9,106.3 674.9,136 797,136 	"/>
	<text transform="matrix(1 0 0 1 680.1414 124.7584)" class="st39 st40">Target resource</text>
	<polygon class="st43" points="797,147 674.9,147 674.9,176.6 797,176.6 	"/>
	<text transform="matrix(1 0 0 1 680.1414 165.4301)" class="st39 st40">Additional attributes</text>
	<polygon class="st43" points="797,188 674.9,188 674.9,217.6 797,217.6 	"/>
	<text transform="matrix(1 0 0 1 680.1414 206.4071)" class="st39 st40">Customized default</text>
	<g>
		<g>
			<line class="st9" x1="667.7" y1="229" x2="667.7" y2="254.6"/>
			<g>
				<polygon class="st10" points="662,252.9 667.7,262.7 673.3,252.9 				"/>
			</g>
		</g>
	</g>
</g>
</svg>
