<?xml version="1.0" encoding="utf-8"?>
<!-- Generator: Adobe Illustrator 26.0.1, SVG Export Plug-In . SVG Version: 6.00 Build 0)  -->
<svg version="1.1" xmlns="http://www.w3.org/2000/svg" xmlns:xlink="http://www.w3.org/1999/xlink" x="0px" y="0px"
	 viewBox="0 0 1056 752" style="enable-background:new 0 0 1056 752;" xml:space="preserve">
<style type="text/css">
	.st0{fill:#F0F0F0;}
	.st1{fill:none;stroke:#A0A0A0;stroke-linecap:round;stroke-linejoin:round;stroke-miterlimit:10;stroke-dasharray:0,4,0,4,0,4;}
	.st2{fill:none;stroke:#6F6F6F;stroke-width:0.5;stroke-linejoin:round;}
	.st3{fill:#6F6F6F;}
	.st4{fill:none;}
	.st5{fill:none;stroke:#6F6F6F;stroke-width:0.5;stroke-miterlimit:10;}
	.st6{fill:none;stroke:#A56EFF;stroke-width:0.5;stroke-linecap:round;stroke-miterlimit:10;}
	
		.st7{fill:none;stroke:#A56EFF;stroke-width:0.5;stroke-linecap:round;stroke-miterlimit:10;stroke-dasharray:3.0094,2.0063,3.0094,2.0063;}
	
		.st8{fill:none;stroke:#A56EFF;stroke-width:0.5;stroke-linecap:round;stroke-miterlimit:10;stroke-dasharray:3.0094,2.0063,3.0094,2.0063,3.0094,2.0063;}
	.st9{fill:#A56EFF;}
	.st10{fill:#BEBEBE;}
	.st11{font-family:'IBMPlexSans-Medium';}
	.st12{font-size:17.6098px;}
	.st13{fill:#757575;}
	.st14{fill:none;stroke:#FFFFFF;stroke-width:1.0318;stroke-linecap:round;stroke-linejoin:round;stroke-miterlimit:10;}
	.st15{fill:none;stroke:#FFFFFF;stroke-width:1.0318;stroke-linecap:round;stroke-linejoin:round;}
	.st16{fill:#757575;stroke:#FFFFFF;stroke-width:1.0318;stroke-linecap:round;stroke-linejoin:round;stroke-miterlimit:10;}
	.st17{fill:#009D9A;}
	.st18{fill-rule:evenodd;clip-rule:evenodd;fill:#FFFFFF;stroke:#FFFFFF;stroke-width:0.25;stroke-miterlimit:10;}
	.st19{fill:#8A3FFC;}
	.st20{fill:#002D9C;}
	.st21{fill:none;stroke:#FFFFFF;stroke-width:0.72;stroke-linecap:round;stroke-linejoin:round;stroke-miterlimit:10;}
	.st22{fill:none;stroke:#FFFFFF;stroke-width:0.72;stroke-linejoin:round;stroke-miterlimit:10;}
	.st23{fill:none;stroke:#FFFFFF;stroke-width:0.72;stroke-miterlimit:10;}
	.st24{fill:#0F62FE;}
	.st25{fill:none;stroke:#FFFFFF;stroke-width:1.0318;stroke-linecap:round;stroke-miterlimit:10;}
	.st26{stroke:#FFFFFF;stroke-width:1.0318;stroke-miterlimit:10;}
	.st27{font-family:'IBMPlexSans';}
	.st28{font-size:13.7791px;}
	.st29{font-family:'IBMPlexSans-SemiBold';}
	.st30{font-size:18.3722px;}
</style>
<g id="Graphics">
	<rect x="789.1" y="114.3" class="st0" width="146.9" height="566.8"/>
	<line class="st1" x1="298.6" y1="0.6" x2="298.6" y2="751.5"/>
	<g>
		<g>
			<line class="st2" x1="447.8" y1="136.8" x2="196.8" y2="136.8"/>
			<g>
				<polygon class="st3" points="446.4,131.8 455,136.8 446.4,141.8 				"/>
			</g>
		</g>
	</g>
	<line class="st1" x1="725.8" y1="3.1" x2="725.8" y2="751"/>
	<g>
		<g>
			<line class="st2" x1="859" y1="307.5" x2="859" y2="206.5"/>
			<g>
				<polygon class="st3" points="861.4,306.7 859,311.1 856.5,306.7 				"/>
			</g>
		</g>
	</g>
	<g>
		<g>
			<line class="st2" x1="859" y1="515.9" x2="859" y2="503.5"/>
			<g>
				<polygon class="st3" points="863.9,514.4 859,523.1 854,514.4 				"/>
			</g>
		</g>
	</g>
	<g>
		<g>
			<line class="st2" x1="859" y1="456.1" x2="859" y2="355.1"/>
			<g>
				<polygon class="st3" points="861.4,455.4 859,459.7 856.5,455.4 				"/>
			</g>
		</g>
	</g>
	<g>
		<g>
			<path class="st5" d="M158.5,634.7v56.5c0,13.5,10.4,24.4,23.3,24.4h653.2c12.8,0,23.3-10.9,23.3-24.4v-41.9"/>
			<g>
				<polygon class="st3" points="153.5,636.2 158.5,627.5 163.5,636.2 				"/>
			</g>
		</g>
	</g>
	<g>
		<g>
			<line class="st5" x1="800.8" y1="554.8" x2="196.1" y2="554.8"/>
			<g>
				<polygon class="st3" points="799.4,549.8 808,554.8 799.4,559.8 				"/>
			</g>
		</g>
	</g>
	<g>
		<g>
			<line class="st6" x1="508.5" y1="214.2" x2="508.5" y2="215.7"/>
			<line class="st7" x1="508.5" y1="217.8" x2="508.5" y2="226.8"/>
			<path class="st8" d="M508.5,227.8l-0.1,334.1c0,14.2,10.5,25.8,23.4,25.8l273.2,0.4"/>
			<line class="st6" x1="806" y1="588.1" x2="807.5" y2="588.1"/>
			<g>
				<polygon class="st9" points="503.5,215.7 508.5,207.1 513.5,215.7 				"/>
			</g>
		</g>
	</g>
	<g>
		<g>
			<line class="st2" x1="800.8" y1="135.3" x2="552.9" y2="135.3"/>
			<g>
				<polygon class="st3" points="799.4,130.3 808,135.3 799.4,140.3 				"/>
			</g>
		</g>
	</g>
	<g>
		<g>
			<circle class="st10" cx="777.2" cy="715.8" r="12.6"/>
		</g>
		<text transform="matrix(1 0 0 1 771.8652 721.0309)" class="st11 st12">4</text>
	</g>
	<g>
		<g>
			<circle class="st10" cx="725.9" cy="586.9" r="12.6"/>
		</g>
		<text transform="matrix(1 0 0 1 720.5342 592.2028)" class="st11 st12">3</text>
	</g>
	<g>
		<g>
			<circle class="st10" cx="297.9" cy="554.4" r="12.6"/>
		</g>
		<text transform="matrix(1 0 0 1 292.5918 559.6481)" class="st11 st12">2</text>
	</g>
	<g>
		<g>
			<circle class="st10" cx="297.9" cy="140.3" r="12.6"/>
		</g>
		<text transform="matrix(1 0 0 1 292.5918 145.5685)" class="st11 st12">1</text>
	</g>
	<g>
		
			<ellipse transform="matrix(0.1583 -0.9874 0.9874 0.1583 161.1252 1328.2123)" class="st13" cx="859.6" cy="569.6" rx="37.9" ry="37.9"/>
		<g>
			<line class="st14" x1="847.3" y1="548.5" x2="860.1" y2="570.6"/>
			<line class="st14" x1="838" y1="557.8" x2="860.1" y2="570.6"/>
			<line class="st14" x1="834.5" y1="570.6" x2="860.1" y2="570.6"/>
			<line class="st14" x1="860.1" y1="545.2" x2="860.1" y2="570.6"/>
			<line class="st14" x1="872.9" y1="548.7" x2="860.1" y2="570.6"/>
			<line class="st14" x1="882.2" y1="557.8" x2="860.1" y2="570.6"/>
			<line class="st14" x1="885.7" y1="570.6" x2="860.1" y2="570.6"/>
			<g>
				<path class="st15" d="M885.7,570.6c0,14.1-11.4,25.6-25.6,25.6s-25.6-11.4-25.6-25.6"/>
			</g>
			<g>
				<path class="st15" d="M834.5,570.6c0-14.1,11.4-25.6,25.6-25.6s25.6,11.4,25.6,25.6"/>
			</g>
			<circle class="st16" cx="860.1" cy="570.6" r="2.3"/>
			<circle class="st16" cx="860.1" cy="545" r="2.3"/>
			<circle class="st16" cx="847.3" cy="548.5" r="2.3"/>
			<circle class="st16" cx="872.9" cy="548.5" r="2.3"/>
			<path class="st16" d="M882.2,560.1c-1.3,0-2.3-1-2.3-2.3c0-1.3,1-2.3,2.3-2.3c1.3,0,2.3,1,2.3,2.3
				C884.5,559.1,883.5,560.1,882.2,560.1z"/>
			<circle class="st16" cx="838" cy="557.8" r="2.3"/>
			<circle class="st16" cx="834.5" cy="570.6" r="2.3"/>
			<circle class="st16" cx="885.7" cy="570.6" r="2.3"/>
		</g>
	</g>
	<g>
		<g>
			<circle class="st17" cx="859.6" cy="429" r="37.9"/>
		</g>
		<g transform="translate(16.000000, 20.000000)">
			<path id="Fill-13_1_" class="st18" d="M866.7,398.5h-45.4v26.8h45.4V398.5z M866.7,397.3v-3.5h-45.4v3.5H866.7z M834.6,414h-9.3
				c-0.3,0-0.6-0.2-0.6-0.6c0-0.3,0.2-0.6,0.6-0.6h9.3c0.3,0,0.6,0.2,0.6,0.6C835.2,413.7,835,414,834.6,414z M867.2,426.4h-46.5
				c-0.3,0-0.6-0.2-0.6-0.6v-32.6c0-0.3,0.2-0.6,0.6-0.6h46.5c0.3,0,0.6,0.2,0.6,0.6v32.6C867.8,426.1,867.5,426.4,867.2,426.4z
				 M864.1,395.6c0,0.4-0.3,0.8-0.8,0.8c-0.4,0-0.8-0.3-0.8-0.8c0-0.4,0.3-0.8,0.8-0.8C863.8,394.8,864.1,395.1,864.1,395.6z
				 M861,395.6c0,0.4-0.3,0.8-0.8,0.8c-0.4,0-0.8-0.3-0.8-0.8c0-0.4,0.3-0.8,0.8-0.8C860.7,394.8,861,395.1,861,395.6z M857.9,395.6
				c0,0.4-0.3,0.8-0.8,0.8c-0.4,0-0.8-0.3-0.8-0.8c0-0.4,0.3-0.8,0.8-0.8C857.6,394.8,857.9,395.1,857.9,395.6z M834.6,404.7h-9.3
				c-0.3,0-0.6-0.2-0.6-0.6c0-0.3,0.2-0.6,0.6-0.6h9.3c0.3,0,0.6,0.2,0.6,0.6C835.2,404.4,835,404.7,834.6,404.7z M834.6,409.3h-9.3
				c-0.3,0-0.6-0.2-0.6-0.6s0.2-0.6,0.6-0.6h9.3c0.3,0,0.6,0.2,0.6,0.6S835,409.3,834.6,409.3z"/>
		</g>
	</g>
	<g>
		<g>
			<circle class="st19" cx="859.4" cy="281.6" r="37.9"/>
		</g>
		<g transform="translate(16.000000, 16.000000)">
			<path id="Fill-1_3_" class="st18" d="M830.9,282.3h27.3c1.5,0,2.6-1.2,2.6-2.6v-26.1h-28.7v26
				C832.1,280.6,831.6,281.6,830.9,282.3L830.9,282.3z M826.2,247.7v32c0,0.8,0.3,1.5,0.8,2c0.5,0.4,1.1,0.7,1.7,0.7h0h0
				c0,0,0.1,0,0.1,0c1.3-0.1,2.4-1.3,2.4-2.7v-26.4c0-0.2,0.2-0.4,0.4-0.4h23.2V250h-14.9c-0.1,0-0.2,0-0.2-0.1l-3.4-2.3H826.2z
				 M828.7,283.1c-0.9,0-1.7-0.3-2.3-0.9c-0.7-0.7-1.1-1.6-1.1-2.6v-32.4c0-0.2,0.2-0.4,0.4-0.4h10.6c0.1,0,0.2,0,0.2,0.1l3.4,2.3
				h15.2c0.2,0,0.4,0.2,0.4,0.4v3.1h5.5c0.2,0,0.4,0.2,0.4,0.4v26.5c0,1.9-1.6,3.5-3.5,3.5H828.7L828.7,283.1z"/>
		</g>
	</g>
	<g>
		
			<ellipse transform="matrix(0.9274 -0.374 0.374 0.9274 -13.0542 200.1141)" class="st20" cx="509.1" cy="133.7" rx="37.9" ry="37.9"/>
		<g>
			<g>
				<line class="st21" x1="489.9" y1="118.3" x2="500" y2="118.3"/>
				<line class="st21" x1="518.5" y1="118.3" x2="528.4" y2="118.3"/>
				<line class="st21" x1="504.4" y1="118.3" x2="514.3" y2="118.3"/>
			</g>
			<line class="st22" x1="487.8" y1="129" x2="500" y2="129"/>
			<line class="st21" x1="518.5" y1="129" x2="528.6" y2="129"/>
			<line class="st21" x1="504.2" y1="129" x2="513.9" y2="129"/>
			<line class="st22" x1="487.8" y1="150.5" x2="501.2" y2="150.5"/>
			<line class="st21" x1="516.5" y1="150.5" x2="528.4" y2="150.5"/>
			<line class="st21" x1="501.2" y1="150.5" x2="516.5" y2="150.5"/>
			<g>
				<line class="st22" x1="487.8" y1="139.8" x2="501.2" y2="139.8"/>
				<line class="st21" x1="518.5" y1="139.8" x2="528.4" y2="139.8"/>
				<line class="st21" x1="501.2" y1="139.8" x2="513.9" y2="139.8"/>
			</g>
			<path class="st23" d="M502.1,120.4c-1.2,0-2.1-0.9-2.1-2.1s0.9-2.1,2.1-2.1c1.2,0,2.1,0.9,2.1,2.1S503.3,120.4,502.1,120.4z"/>
			<path class="st23" d="M487.8,120.4c-1.2,0-2.1-0.9-2.1-2.1s0.9-2.1,2.1-2.1c1.2,0,2.1,0.9,2.1,2.1S489,120.4,487.8,120.4z"/>
			<path class="st23" d="M516.4,120.4c-1.2,0-2.1-0.9-2.1-2.1s0.9-2.1,2.1-2.1c1.2,0,2.1,0.9,2.1,2.1S517.6,120.4,516.4,120.4z"/>
			<path class="st23" d="M530.7,120.4c-1.2,0-2.1-0.9-2.1-2.1s0.9-2.1,2.1-2.1s2.1,0.9,2.1,2.1S531.8,120.4,530.7,120.4z"/>
			<circle class="st23" cx="516.4" cy="129" r="2.1"/>
			<circle class="st23" cx="502.1" cy="129" r="2.1"/>
			<circle class="st23" cx="530.7" cy="129" r="2.1"/>
			<path class="st23" d="M516.4,141.9c-1.2,0-2.1-0.9-2.1-2.1c0-1.2,0.9-2.1,2.1-2.1c1.2,0,2.1,0.9,2.1,2.1
				C518.5,140.9,517.6,141.9,516.4,141.9z"/>
			<path class="st23" d="M530.7,141.9c-1.2,0-2.1-0.9-2.1-2.1c0-1.2,0.9-2.1,2.1-2.1s2.1,0.9,2.1,2.1
				C532.8,140.9,531.8,141.9,530.7,141.9z"/>
			<path class="st23" d="M530.7,152.6c-1.2,0-2.1-0.9-2.1-2.1s0.9-2.1,2.1-2.1s2.1,0.9,2.1,2.1S531.8,152.6,530.7,152.6z"/>
		</g>
	</g>
	<g>
		<g>
			
				<ellipse transform="matrix(0.1583 -0.9874 0.9874 0.1583 590.9778 961.7898)" class="st24" cx="859.6" cy="134.3" rx="37.9" ry="37.9"/>
		</g>
		<g transform="translate(16.000000, 16.000000)">
			<path id="Fill-21_1_" class="st18" d="M828.2,100.3h20.4v3.1v4.7v26.8h-7.4v-9c0-0.2-0.2-0.4-0.4-0.4H836c-0.2,0-0.4,0.2-0.4,0.4
				v9h-7.4V100.3z M849.5,107.7h6.2v-3.9h-6.2V107.7z M862.8,134.9h-13.3v-26.3h6.7h6.7V134.9z M836.5,134.9h3.9v-8.6h-3.9V134.9z
				 M827.8,135.8h8.3h4.7h8.3h14.2c0.2,0,0.4-0.2,0.4-0.4v-27.2c0-0.2-0.2-0.4-0.4-0.4h-6.7v-4.3c0-0.2-0.2-0.4-0.4-0.4h-6.7v-3.1
				c0-0.2-0.2-0.4-0.4-0.4h-21.3c-0.2,0-0.4,0.2-0.4,0.4v35.5C827.3,135.6,827.5,135.8,827.8,135.8L827.8,135.8z M830.9,107h0.9
				v-2.4h-0.9V107z M830.9,114.1h0.9v-2.4h-0.9V114.1z M830.9,121.1h0.9v-2.4h-0.9V121.1z M840.3,107h0.9v-2.4h-0.9V107z
				 M840.3,114.1h0.9v-2.4h-0.9V114.1z M840.3,121.1h0.9v-2.4h-0.9V121.1z M835.6,107h0.9v-2.4h-0.9V107z M835.6,114.1h0.9v-2.4
				h-0.9V114.1z M835.6,121.1h0.9v-2.4h-0.9V121.1z M830.9,128.2h0.9v-2.4h-0.9V128.2z M845.1,107h0.9v-2.4h-0.9V107z M845.1,114.1
				h0.9v-2.4h-0.9V114.1z M845.1,121.1h0.9v-2.4h-0.9V121.1z M845.1,128.2h0.9v-2.4h-0.9V128.2z M853.4,114.1h0.9v-2.4h-0.9V114.1z
				 M853.4,121.1h0.9v-2.4h-0.9V121.1z M853.4,128.2h0.9v-2.4h-0.9V128.2z M858.1,114.1h0.9v-2.4h-0.9V114.1z M858.1,121.1h0.9v-2.4
				h-0.9V121.1z M858.1,128.2h0.9v-2.4h-0.9V128.2z"/>
		</g>
	</g>
	<g>
		<ellipse transform="matrix(0.2627 -0.9649 0.9649 0.2627 -16.6769 255.1551)" cx="158.6" cy="138.5" rx="37.9" ry="37.9"/>
		<path class="st25" d="M169.6,125.6c0,5.6-4.6,10.2-10.2,10.2s-10.2-4.6-10.2-10.2c0-5.6,4.6-10.2,10.2-10.2S169.6,120,169.6,125.6
			"/>
		<path class="st25" d="M139.4,161c1.9-9.4,10.1-16.4,20-16.4c9.8,0,18,6.9,20,16.2"/>
		
			<ellipse transform="matrix(0.2036 -0.979 0.979 0.2036 -8.5951 266.4138)" class="st25" cx="159.5" cy="138.5" rx="30.2" ry="30.2"/>
		
			<ellipse transform="matrix(0.8809 -0.4732 0.4732 0.8809 -59.6046 85.1595)" class="st26" cx="139.4" cy="161" rx="2.3" ry="2.3"/>
	</g>
	<g>
		<g>
			<ellipse transform="matrix(0.5969 -0.8023 0.8023 0.5969 -385.6773 353.1485)" cx="158.6" cy="560.4" rx="37.9" ry="37.9"/>
			<path class="st25" d="M169.6,547.6c0,5.6-4.6,10.2-10.2,10.2s-10.2-4.6-10.2-10.2c0-5.6,4.6-10.2,10.2-10.2
				S169.6,541.9,169.6,547.6"/>
			<path class="st25" d="M139.4,583c1.9-9.4,10.1-16.4,20-16.4c9.8,0,18,6.9,20,16.2"/>
			
				<ellipse transform="matrix(0.8023 -0.5969 0.5969 0.8023 -302.9993 205.9871)" class="st25" cx="159.5" cy="560.4" rx="30.2" ry="30.2"/>
			<path class="st26" d="M140.8,584.9c-1.1,0.7-2.5,0.5-3.2-0.6c-0.7-1.1-0.5-2.5,0.6-3.2c1.1-0.7,2.5-0.5,3.2,0.6
				C142.1,582.7,141.8,584.1,140.8,584.9z"/>
		</g>
	</g>
</g>
<g id="Text">
	<text transform="matrix(1 0 0 1 834.3789 489.113)" class="st27 st28">Account</text>
	<text transform="matrix(1 0 0 1 814.6201 341.756)" class="st27 st28">Account group</text>
	<text transform="matrix(1 0 0 1 827.7861 194.3996)" class="st27 st28">Enterprise</text>
	<text transform="matrix(1 0 0 1 125.4546 617.8591)" class="st27 st28">Developer</text>
	<text transform="matrix(1 0 0 1 830.04 626.6638)" class="st27 st28">Resource</text>
	<text transform="matrix(1 0 0 1 476.0254 193.841)" class="st27 st28">Config rule</text>
	<text transform="matrix(1 0 0 1 131.7998 195.9367)"><tspan x="0" y="0" class="st27 st28">Security </tspan><tspan x="10.2" y="16.5" class="st27 st28">focal</tspan></text>
	<text transform="matrix(1 0 0 1 833.5415 26.5109)" class="st29 st30">Scope</text>
	<text transform="matrix(1 0 0 1 370.5654 25.4982)" class="st29 st30">Security and Compliance Center</text>
</g>
</svg>
