<?xml version="1.0" encoding="utf-8"?>
<!-- Generator: Adobe Illustrator 26.0.1, SVG Export Plug-In . SVG Version: 6.00 Build 0)  -->
<svg version="1.1" xmlns="http://www.w3.org/2000/svg" xmlns:xlink="http://www.w3.org/1999/xlink" x="0px" y="0px"
	 viewBox="0 0 1231.6 607.3" style="enable-background:new 0 0 1231.6 607.3;" xml:space="preserve">
<style type="text/css">
	.st0{fill:#FFFFFF;}
	.st1{fill-rule:evenodd;clip-rule:evenodd;}
	.st2{fill:#FFFFFF;stroke:#000000;stroke-width:0.8156;stroke-miterlimit:10;}
	.st3{fill:#F1F1F1;stroke:#CFD3DA;stroke-width:0.4647;stroke-miterlimit:10;}
	.st4{fill:none;stroke:#000000;stroke-width:0.5;stroke-miterlimit:10;}
	.st5{fill:#001D6C;stroke:#CFD3DA;stroke-width:0.4647;stroke-miterlimit:10;}
	.st6{fill:#001D6C;stroke:#001D6C;stroke-width:0.5;stroke-miterlimit:10;}
	.st7{fill:#7940F8;}
	.st8{font-family:'IBMPlexMono';}
	.st9{font-size:12px;}
	.st10{font-size:11px;}
	.st11{font-family:'IBMPlexSans';}
	.st12{font-family:'IBMPlexSans-SemiBold';}
	.st13{font-size:13px;}
	.st14{fill:none;}
	.st15{font-family:'IBMPlexSans-LightItalic';}
	.st16{font-size:10px;}
	.st17{fill:#8A3FFC;}
	.st18{font-family:'IBMPlexSans-ExtraLight';}
</style>
<g id="Background">
	<path class="st0" d="M1196.9,592.7H32.6c-9.6,0-17.3-7.7-17.3-17.3V31.8c0-9.6,7.7-17.3,17.3-17.3h1164.3c9.6,0,17.3,7.7,17.3,17.3
		v543.6C1214.2,584.9,1206.4,592.7,1196.9,592.7z"/>
</g>
<g id="Text">
	<path class="st2" d="M774.1,570H418c-9.6,0-17.3-7.7-17.3-17.3V54.5c0-9.6,7.7-17.3,17.3-17.3h356.1c9.6,0,17.3,7.7,17.3,17.3
		v498.2C791.4,562.3,783.7,570,774.1,570z"/>
	<path class="st3" d="M649.2,79.3h-229c-4.9,0-8.8-3.9-8.8-8.8V58.9c0-4.9,3.9-8.8,8.8-8.8h229c4.9,0,8.8,3.9,8.8,8.8v11.6
		C658,75.3,654.1,79.3,649.2,79.3z"/>
	<path class="st2" d="M759.4,443.4H466.2c-7.3,0-13.2-5.9-13.2-13.2V107.5c0-7.3,5.9-13.2,13.2-13.2h293.2c7.3,0,13.2,5.9,13.2,13.2
		v322.7C772.6,437.5,766.7,443.4,759.4,443.4z"/>
	<path class="st3" d="M743.3,156.6h-266c-4.9,0-8.8-3.9-8.8-8.8v-11.6c0-4.9,3.9-8.8,8.8-8.8h266c4.9,0,8.8,3.9,8.8,8.8v11.6
		C752.2,152.6,748.2,156.6,743.3,156.6z"/>
	<path class="st3" d="M744.1,392.1H477.3c-4.9,0-8.8-3.9-8.8-8.8V175.6c0-4.9,3.9-8.8,8.8-8.8h266.7c4.9,0,8.8,3.9,8.8,8.8v207.7
		C752.9,388.1,748.9,392.1,744.1,392.1z"/>
	<path class="st3" d="M743.3,431h-266c-4.9,0-8.8-3.9-8.8-8.8v-11.6c0-4.9,3.9-8.8,8.8-8.8h266c4.9,0,8.8,3.9,8.8,8.8v11.6
		C752.2,427.1,748.2,431,743.3,431z"/>
	<path class="st2" d="M761.7,495.4H460.9c-6,0-10.9-4.9-10.9-10.9v-14.8c0-6,4.9-10.9,10.9-10.9h300.9c6,0,10.9,4.9,10.9,10.9v14.8
		C772.6,490.5,767.7,495.4,761.7,495.4z"/>
	<path class="st2" d="M761.7,547.4H460.9c-6,0-10.9-4.9-10.9-10.9v-14.8c0-6,4.9-10.9,10.9-10.9h300.9c6,0,10.9,4.9,10.9,10.9v14.8
		C772.6,542.5,767.7,547.4,761.7,547.4z"/>
	<g>
		<g>
			<line class="st4" x1="420.9" y1="90.3" x2="420.9" y2="508.2"/>
			<g>
				<path d="M419.1,90.4c0-1,0.8-1.9,1.9-1.9s1.9,0.8,1.9,1.9c0,1-0.8,1.9-1.9,1.9S419.1,91.4,419.1,90.4z"/>
			</g>
		</g>
	</g>
	<g>
		<g>
			<path class="st4" d="M420.9,455.5c0,23.7,4.3,22.4,19.6,22.2"/>
			<g>
				<g>
					<path class="st0" d="M440.5,479.6c1,0,1.9-0.9,1.9-1.9c0-1-0.9-1.9-1.9-1.9c-1,0-1.9,0.9-1.9,1.9S439.5,479.7,440.5,479.6z"/>
					<path d="M440.5,479.9c-1.2,0-2.1-0.9-2.2-2.1c0-1.2,0.9-2.1,2.1-2.2c1.2,0,2.1,0.9,2.2,2.1S441.7,479.9,440.5,479.9
						C439.3,479.9,441.7,479.9,440.5,479.9z M440.4,476.1c-0.9,0-1.6,0.7-1.6,1.6c0,0.9,0.7,1.6,1.6,1.6c0.9,0,1.6-0.7,1.6-1.6
						C442.1,476.8,441.3,476.1,440.4,476.1C439.6,476.1,441.3,476.1,440.4,476.1z"/>
				</g>
			</g>
		</g>
	</g>
	<g>
		<g>
			<path class="st4" d="M420.9,88.5c0,23.7,4.3,22.4,19.6,22.2"/>
			<g>
				<g>
					<path class="st0" d="M440.5,112.6c1,0,1.9-0.9,1.9-1.9c0-1-0.9-1.9-1.9-1.9c-1,0-1.9,0.9-1.9,1.9
						C438.6,111.8,439.5,112.6,440.5,112.6z"/>
					<path d="M440.5,112.9c-1.2,0-2.1-0.9-2.2-2.1c0-1.2,0.9-2.1,2.1-2.2c1.2,0,2.1,0.9,2.2,2.1
						C442.6,111.9,441.7,112.8,440.5,112.9C439.3,112.9,441.7,112.8,440.5,112.9z M440.4,109.1c-0.9,0-1.6,0.7-1.6,1.6
						c0,0.9,0.7,1.6,1.6,1.6c0.9,0,1.6-0.7,1.6-1.6C442.1,109.8,441.3,109.1,440.4,109.1S441.3,109.1,440.4,109.1z"/>
				</g>
			</g>
		</g>
	</g>
	<g>
		<g>
			<path class="st4" d="M420.9,507.3c0,23.7,4.3,22.4,19.6,22.2"/>
			<g>
				<g>
					<path class="st0" d="M440.5,531.5c1,0,1.9-0.9,1.9-1.9c0-1-0.9-1.9-1.9-1.9c-1,0-1.9,0.9-1.9,1.9S439.5,531.5,440.5,531.5z"/>
					<path d="M440.5,531.7c-1.2,0-2.1-0.9-2.2-2.1c0-1.2,0.9-2.1,2.1-2.2c1.2,0,2.1,0.9,2.2,2.1
						C442.6,530.7,441.7,531.7,440.5,531.7C439.3,531.7,441.7,531.7,440.5,531.7z M440.4,528c-0.9,0-1.6,0.7-1.6,1.6
						c0,0.9,0.7,1.6,1.6,1.6c0.9,0,1.6-0.7,1.6-1.6C442.1,528.7,441.3,527.9,440.4,528C439.6,528,441.3,527.9,440.4,528z"/>
				</g>
			</g>
		</g>
	</g>
	<circle class="st4" cx="488" cy="209.6" r="4.1"/>
	<circle class="st4" cx="488" cy="249.8" r="4.1"/>
	<circle class="st4" cx="488" cy="284.2" r="4.1"/>
	<g>
		<path class="st5" d="M459.2,174.7h-89.7c-4.9,0-8.8-3.9-8.8-8.8V147c0-4.9,3.9-8.8,8.8-8.8h89.7c4.9,0,8.8,3.9,8.8,8.8v18.9
			C468.1,170.7,464.1,174.7,459.2,174.7z"/>
		<polyline class="st6" points="459.4,142.2 472.2,179.7 472.3,180 431.4,164.4 		"/>
	</g>
	<text transform="matrix(1 0 0 1 419.9416 69.7661)" class="st7 st8 st9">IBM Cloud for Financial Services</text>
	<text transform="matrix(1 0 0 1 476.7289 145.0718)" class="st7 st8 st10">AC-2</text>
	<text transform="matrix(1 0 0 1 514.3886 145.0723)" class="st11 st10">Account Management</text>
	<text transform="matrix(1 0 0 1 464.9094 115.1656)"><tspan x="0" y="0" class="st12 st13">AC - </tspan><tspan x="28.4" y="0" class="st11 st13">Access Control</tspan></text>
	<text transform="matrix(1 0 0 1 476.7289 184.4872)" class="st7 st8 st10">AC-3</text>
	<text transform="matrix(1 0 0 1 514.3886 184.4876)" class="st11 st10">Access Enforcement</text>
	<text transform="matrix(1 0 0 1 476.7289 419.5224)" class="st7 st8 st10">AC-4</text>
	<text transform="matrix(1 0 0 1 514.3886 419.5229)" class="st11 st10">Information Flow Enforcement</text>
	<text transform="matrix(1 0 0 1 460.9094 481.1354)"><tspan x="0" y="0" class="st12 st13">AU - </tspan><tspan x="29.1" y="0" class="st11 st13">Audit and Accountability</tspan></text>
	<text transform="matrix(1 0 0 1 460.9094 532.9367)"><tspan x="0" y="0" class="st12 st13">SC - </tspan><tspan x="27.7" y="0" class="st11 st13">System and Communications Protection</tspan></text>
	<rect x="506" y="204.4" class="st14" width="233.3" height="41.2"/>
	<text transform="matrix(1 0 0 1 506.0405 212.9043)"><tspan x="0" y="0" class="st15 st16">Check  whether permissions for service ID creation </tspan><tspan x="0" y="12" class="st15 st16">are limited and configured in IAM settings for the </tspan><tspan x="0" y="24" class="st15 st16">account owner</tspan></text>
	<rect x="506" y="245.7" class="st14" width="233.3" height="29.9"/>
	<text transform="matrix(1 0 0 1 506.0405 254.2102)"><tspan x="0" y="0" class="st15 st16">Check whether IAM users are attached to at least one </tspan><tspan x="0" y="12" class="st15 st16">access group</tspan></text>
	<rect x="506" y="279" class="st14" width="231.7" height="29.9"/>
	<text transform="matrix(1 0 0 1 506.0405 287.4734)"><tspan x="0" y="0" class="st15 st16">Check whether IAM pollicies for users are attached </tspan><tspan x="0" y="12" class="st15 st16">only to groups or roles</tspan></text>
	<rect x="506.6" y="302.9" class="st14" width="204" height="99"/>
	<text transform="matrix(1 0 0 1 506.5901 311.3694)"><tspan x="0" y="0" class="st17 st18 st16">{ </tspan><tspan x="0" y="12" class="st17 st18 st16">    Description: Check whether IAM policies for</tspan><tspan x="0" y="24" class="st17 st18 st16">    users are attached only to groups or roles</tspan><tspan x="0" y="36" class="st17 st18 st16">    Parameters: 1</tspan><tspan x="0" y="48" class="st17 st18 st16">    Type: Automated</tspan><tspan x="0" y="60" class="st17 st18 st16">    Method: IBM Cloud rule</tspan><tspan x="0" y="72" class="st17 st18 st16">}</tspan></text>
	<g>
		<path class="st5" d="M407.7,60H318c-4.9,0-8.8-3.9-8.8-8.8V32.3c0-4.9,3.9-8.8,8.8-8.8h89.7c4.9,0,8.8,3.9,8.8,8.8v18.9
			C416.5,56,412.6,60,407.7,60z"/>
		<polyline class="st6" points="407.1,26.9 419.9,64.4 420,64.7 379.2,49 		"/>
	</g>
	<text transform="matrix(1 0 0 1 319.4243 45.5036)" class="st0 st12 st13">Control library</text>
	<g>
		<path class="st5" d="M445.8,583.4h-89.7c-4.9,0-8.8-3.9-8.8-8.8v-18.9c0-4.9,3.9-8.8,8.8-8.8h89.7c4.9,0,8.8,3.9,8.8,8.8v18.9
			C454.6,579.4,450.7,583.4,445.8,583.4z"/>
		<polyline class="st6" points="446.3,579.1 459.1,541.6 459.2,541.3 418.4,556.9 		"/>
	</g>
	<text transform="matrix(1 0 0 1 374.008 568.8828)" class="st0 st12 st13">Category</text>
	<g>
		<path class="st5" d="M831.4,257h-89.7c-4.9,0-8.8-3.9-8.8-8.8v-18.9c0-4.9,3.9-8.8,8.8-8.8h89.7c4.9,0,8.8,3.9,8.8,8.8v18.9
			C840.2,253,836.3,257,831.4,257z"/>
		<polyline class="st6" points="741.8,255.1 729,217.7 728.9,217.4 769.7,233 		"/>
	</g>
	<text transform="matrix(1 0 0 1 747.2623 242.5079)" class="st0 st12 st13">Specification</text>
	<text transform="matrix(1 0 0 1 392.2317 160.2072)" class="st0 st12 st13">Control</text>
	<g>
		<path class="st5" d="M812.7,329.1H723c-4.9,0-8.8-3.9-8.8-8.8v-18.9c0-4.9,3.9-8.8,8.8-8.8h89.7c4.9,0,8.8,3.9,8.8,8.8v18.9
			C821.5,325.1,817.5,329.1,812.7,329.1z"/>
		<polyline class="st6" points="721.5,298.1 708.7,335.6 708.6,335.9 749.4,320.2 		"/>
	</g>
	<text transform="matrix(1 0 0 1 731.2944 314.5813)" class="st0 st12 st13">Assessment</text>
</g>
</svg>
