<?xml version="1.0" encoding="utf-8"?>
<!-- Generator: Adobe Illustrator 26.0.1, SVG Export Plug-In . SVG Version: 6.00 Build 0)  -->
<svg version="1.1" id="Layer_1" xmlns="http://www.w3.org/2000/svg" xmlns:xlink="http://www.w3.org/1999/xlink" x="0px" y="0px"
	 viewBox="0 0 650 247.3" style="enable-background:new 0 0 650 247.3;" xml:space="preserve">
<style type="text/css">
	.st0{fill:none;stroke:#8D8D8D;stroke-width:1.2105;stroke-miterlimit:10;}
	.st1{fill:none;stroke:#8D8D8D;stroke-width:0.6053;stroke-miterlimit:10;}
	.st2{fill:#E0E0E0;stroke:#8D8D8D;stroke-width:0.3026;stroke-miterlimit:10;}
	.st3{fill:none;stroke:#8D8D8D;stroke-width:0.5;stroke-miterlimit:10;}
	.st4{font-family:'IBMPlexSans-Bold';}
	.st5{font-size:10px;}
	.st6{font-family:'IBMPlexSans';}
</style>
<line class="st0" x1="42" y1="28.1" x2="616.2" y2="28.1"/>
<line class="st1" x1="41.8" y1="49.2" x2="616" y2="49.2"/>
<line class="st1" x1="42" y1="70.3" x2="616.2" y2="70.3"/>
<line class="st1" x1="41.9" y1="91.4" x2="616.1" y2="91.4"/>
<line class="st1" x1="41.7" y1="112.5" x2="615.9" y2="112.5"/>
<line class="st1" x1="41.9" y1="133.7" x2="616.1" y2="133.7"/>
<rect x="41.9" y="6.7" class="st2" width="574.3" height="21.3"/>
<line class="st3" x1="168.5" y1="6.7" x2="168.5" y2="239.3"/>
<line class="st1" x1="41.7" y1="154.8" x2="615.8" y2="154.8"/>
<line class="st1" x1="41.9" y1="175.9" x2="616" y2="175.9"/>
<line class="st1" x1="41.8" y1="197" x2="615.9" y2="197"/>
<line class="st1" x1="41.6" y1="218.2" x2="615.7" y2="218.2"/>
<line class="st1" x1="41.8" y1="239.3" x2="615.9" y2="239.3"/>
<line class="st3" x1="318.5" y1="28.1" x2="318.5" y2="239.3"/>
<text transform="matrix(1 0 0 1 47.2999 20.1621)" class="st4 st5">profilename</text>
<text transform="matrix(1 0 0 1 174.9048 20.1621)" class="st4 st5">NIST</text>
<text transform="matrix(1 0 0 1 47.2996 40.9354)" class="st4 st5">profilenumonic</text>
<text transform="matrix(1 0 0 1 174.9046 41.1354)" class="st6 st5">NIST</text>
<text transform="matrix(1 0 0 1 174.905 62.8515)" class="st6 st5">NIST Controls</text>
<text transform="matrix(1 0 0 1 47.2999 62.6514)" class="st4 st5">profiledescription</text>
<text transform="matrix(1 0 0 1 47.2998 84.0564)" class="st4 st5">##METAINFO ENDS##</text>
<text transform="matrix(1 0 0 1 47.2999 104.6323)" class="st4 st5">ExternalControlId</text>
<text transform="matrix(1 0 0 1 174.9048 104.7825)" class="st6 st5">Description</text>
<text transform="matrix(1 0 0 1 322.8655 104.7822)" class="st6 st5">Parent</text>
<line class="st3" x1="375" y1="28.1" x2="375" y2="239.3"/>
<line class="st3" x1="489" y1="27.6" x2="489" y2="238.8"/>
<text transform="matrix(1 0 0 1 380.4656 104.7824)" class="st6 st5">GoalId</text>
<text transform="matrix(1 0 0 1 493.5632 104.7826)" class="st6 st5">Tags</text>
<text transform="matrix(1 0 0 1 47.2997 127.3398)" class="st4 st5">AC</text>
<text transform="matrix(1 0 0 1 47.2997 147.3997)" class="st4 st5">AC-2</text>
<text transform="matrix(1 0 0 1 47.3 169.5558)" class="st4 st5">AC-3</text>
<text transform="matrix(1 0 0 1 47.2998 192.0839)" class="st4 st5">AU</text>
<text transform="matrix(1 0 0 1 47.2999 210.9861)" class="st4 st5">AU-2</text>
<text transform="matrix(1 0 0 1 47.2998 232.0872)" class="st4 st5">AU-3</text>
<text transform="matrix(1 0 0 1 174.9048 127.3396)" class="st6 st5">Access Control</text>
<text transform="matrix(1 0 0 1 174.9048 147.5497)" class="st6 st5">Account Management</text>
<text transform="matrix(1 0 0 1 174.9047 169.7061)" class="st6 st5">Access Enforcement</text>
<text transform="matrix(1 0 0 1 174.9049 190.6169)" class="st6 st5">Audit and accountability</text>
<text transform="matrix(1 0 0 1 174.9047 211.1363)" class="st6 st5">Audit Events</text>
<text transform="matrix(1 0 0 1 174.9049 232.2373)" class="st6 st5">Content of Audit Records</text>
<line class="st3" x1="615.7" y1="28.8" x2="615.7" y2="240"/>
<line class="st3" x1="41.9" y1="27.6" x2="41.9" y2="238.8"/>
<text transform="matrix(1 0 0 1 322.8655 147.5498)" class="st6 st5">AC</text>
<text transform="matrix(1 0 0 1 322.8655 169.7058)" class="st6 st5">AC</text>
<text transform="matrix(1 0 0 1 322.8654 211.136)" class="st6 st5">AU</text>
<text transform="matrix(1 0 0 1 322.8653 232.2376)" class="st6 st5">AU</text>
<text transform="matrix(1 0 0 1 380.4655 147.5496)" class="st6 st5">1401755, 1401747</text>
<text transform="matrix(1 0 0 1 380.4654 169.706)" class="st6 st5">1501061</text>
<text transform="matrix(1 0 0 1 493.5625 147.5497)" class="st6 st5">Audit, Local policies, IBM</text>
<text transform="matrix(1 0 0 1 493.5627 169.7059)" class="st6 st5">Storage, Kubernetes</text>
<text transform="matrix(1 0 0 1 380.4656 211.1364)" class="st6 st5">1800317, 1401010</text>
<text transform="matrix(1 0 0 1 380.4653 232.2373)" class="st6 st5">1401013</text>
<text transform="matrix(1 0 0 1 493.5632 211.1364)" class="st6 st5">Audit, 3-tier, mysql</text>
<text transform="matrix(1 0 0 1 493.5628 232.2377)" class="st6 st5">Audit, SSH, PCI</text>
</svg>
