<?xml version="1.0" encoding="utf-8"?>
<!-- Generator: Adobe Illustrator 27.0.1, SVG Export Plug-In . SVG Version: 6.00 Build 0)  -->
<svg version="1.1" xmlns="http://www.w3.org/2000/svg" xmlns:xlink="http://www.w3.org/1999/xlink" x="0px" y="0px"
	 viewBox="0 0 864.3 699.2" style="enable-background:new 0 0 864.3 699.2;" xml:space="preserve">
<style type="text/css">
	.st0{fill:#F4F4F4;}
	.st1{fill:#FFFFFF;stroke:#C6C6C6;stroke-width:0.25;stroke-miterlimit:10;}
	.st2{fill:#198038;}
	.st3{fill:#FFFFFF;}
	.st4{fill:#C6C6C6;}
	.st5{fill:#525252;}
	.st6{fill:#DA1E28;}
	.st7{fill:#F1C21B;}
	.st8{fill:#0F62FE;}
	.st9{fill:none;stroke:#0F62FE;stroke-width:0.5;stroke-miterlimit:10;}
	.st10{fill:none;stroke:#525252;stroke-miterlimit:10;}
	.st11{fill:#198038;stroke:#FFFFFF;stroke-miterlimit:10;}
	.st12{fill:#DA1E28;stroke:#FFFFFF;stroke-miterlimit:10;}
	.st13{fill:#F1C21B;stroke:#FFFFFF;stroke-miterlimit:10;}
	.st14{fill:#198038;stroke:#C6C6C6;stroke-miterlimit:10;}
	.st15{fill:#DA1E28;stroke:#C6C6C6;stroke-miterlimit:10;}
	.st16{fill:#F1C21B;stroke:#C6C6C6;stroke-miterlimit:10;}
	.st17{fill:#A8A8A8;}
	.st18{font-family:'IBMPlexSans-Bold';}
	.st19{font-size:10px;}
	.st20{font-family:'IBMPlexSans';}
	.st21{font-size:36px;}
	.st22{font-size:13px;}
	.st23{font-family:'IBMPlexSans-Medium';}
	.st24{font-size:12px;}
	.st25{fill:#8D8D8D;}
	.st26{font-size:27px;}
	.st27{font-size:20px;}
	.st28{enable-background:new    ;}
</style>
<g id="Layer_1">
	<rect class="st0" width="864.3" height="699.2"/>
	<rect x="27.4" y="93.8" class="st1" width="262.7" height="299.4"/>
	<g>
		<path class="st2" d="M96.9,298.9c37.5,33.8,95.2,30.8,129-6.7s30.8-95.2-6.7-129c-16.6-14.9-38.1-23.3-60.4-23.5l-0.2,20.1
			c39.3,0.3,71,32.5,70.6,71.8c-0.3,39.3-32.5,71-71.8,70.6c-17.4-0.1-34.2-6.7-47.1-18.3l-13.1,14.5l0,0L96.9,298.9z"/>
		<path class="st0" d="M134.8,163.8c7.6-2.6,15.7-3.9,23.7-3.9l0.2-20.1c-38.6-0.3-73.3,23.7-86.5,60l18.9,6.9
			C98.5,186.5,114.5,170.7,134.8,163.8z"/>
		<path class="st0" d="M86.9,235.1c-0.5-9.7,0.9-19.4,4.2-28.5l-18.9-6.9c-4.3,11.7-6.1,24.1-5.4,36.5L86.9,235.1z"/>
		<path class="st0" d="M96.8,298.9l13.5-14.9c-14-12.6-22.4-30.2-23.4-49l-20.1,1.1C68.1,260.2,78.9,282.8,96.8,298.9z"/>
	</g>
	<rect x="27.8" y="472.2" class="st3" width="804.9" height="207"/>
	<rect x="27.8" y="508.1" class="st4" width="805.8" height="39.6"/>
	<rect x="27.3" y="587.4" class="st4" width="805.8" height="39.6"/>
	<rect x="27.3" y="666.6" class="st4" width="805.8" height="12.6"/>
	<g>
		<path class="st5" d="M302.6,567.2h5.5v1h-5.5V567.2z M302.6,569.7h6.5v1h-6.5V569.7z"/>
		<path class="st5" d="M312.6,562.2h-12c-0.6,0-1,0.4-1,1v10c0,0.6,0.4,1,1,1h12c0.6,0,1-0.4,1-1v-10
			C313.6,562.7,313.1,562.2,312.6,562.2z M312.6,563.2v1h-12v-1H312.6z M300.6,573.2v-8h12v8H300.6z"/>
	</g>
	<rect x="300.8" y="93.8" class="st1" width="262.7" height="299.4"/>
	<g>
		<path class="st2" d="M369.3,298.9c37.5,33.8,95.2,30.8,129-6.7s30.8-95.2-6.7-129c-16.6-14.9-38.1-23.3-60.4-23.5l-0.2,20.1
			c39.3,0.3,71,32.5,70.6,71.8c-0.3,39.3-32.5,71-71.8,70.6c-17.4-0.1-34.2-6.7-47.1-18.3l-13.1,14.5l0,0L369.3,298.9z"/>
		<path class="st6" d="M399.6,145.1c-25,9-45.5,28.7-55,54.6l18.9,6.9c7.3-20.2,23.4-35.9,43.7-42.9"/>
		<path class="st7" d="M407.2,163.8c7.6-2.6,15.7-3.9,23.7-3.9l0.2-20.1c-11-0.1-21.6,1.8-31.5,5.3"/>
		<path class="st6" d="M359.3,235.1c-0.5-9.7,0.9-19.4,4.2-28.5l-18.9-6.9c-4.3,11.7-6.1,24.1-5.4,36.5L359.3,235.1z"/>
		<path class="st6" d="M369.2,298.9l13.5-14.9c-14-12.6-22.4-30.2-23.4-49l-20.1,1.1C340.5,260.2,351.3,282.8,369.2,298.9z"/>
	</g>
	<rect x="307.8" y="347.3" class="st2" width="9.3" height="9.3"/>
	<rect x="376.2" y="347.3" class="st6" width="9.3" height="9.3"/>
	<rect x="463.1" y="347.3" class="st7" width="9.3" height="9.3"/>
	<rect x="571.6" y="93.8" class="st1" width="261.9" height="299.4"/>
	<g>
		<path class="st2" d="M638.9,298.7c37.5,33.8,95.2,30.8,129-6.7s30.8-95.2-6.7-129c-16.6-14.9-38.1-23.3-60.4-23.5l-0.2,20.1
			c39.3,0.3,71,32.5,70.6,71.8c-0.3,39.3-32.5,71-71.8,70.6c-17.4-0.1-34.2-6.7-47.1-18.3l-13.1,14.5l0,0L638.9,298.7z"/>
		<path class="st6" d="M669.2,144.9c-25,9-45.5,28.7-55,54.6l18.9,6.9c7.3-20.2,23.4-35.9,43.7-42.9"/>
		<path class="st6" d="M676.8,163.5c7.6-2.6,15.7-3.9,23.7-3.9l0.2-20.1c-11-0.1-21.6,1.8-31.5,5.3"/>
		<path class="st6" d="M628.9,234.9c-0.5-9.7,0.9-19.4,4.2-28.5l-18.9-6.9c-4.3,11.7-6.1,24.1-5.4,36.5L628.9,234.9z"/>
		<path class="st6" d="M638.8,298.7l13.5-14.9c-14-12.6-22.4-30.2-23.4-49l-20.1,1.1C610.1,260,620.9,282.6,638.8,298.7z"/>
	</g>
	<rect x="604.1" y="347.3" class="st2" width="9.3" height="9.3"/>
	<rect x="661.5" y="347.3" class="st6" width="9.3" height="9.3"/>
	<rect x="710" y="347.3" class="st7" width="9.3" height="9.3"/>
	<g>
		<path class="st8" d="M712.5,43.9c-2.5,0-4.5-2-4.5-4.5s2-4.5,4.5-4.5s4.5,2,4.5,4.5S715,43.9,712.5,43.9z M712.5,36
			c-1.9,0-3.4,1.5-3.4,3.4s1.5,3.4,3.4,3.4c1.9,0,3.4-1.5,3.4-3.4S714.3,36,712.5,36z"/>
		<polygon class="st8" points="713.4,41.1 711.9,39.6 711.9,37.1 713,37.1 713,39.2 714.2,40.3 		"/>
		<path class="st8" d="M716.4,30.4c0-0.6-0.5-1.1-1.1-1.1H713v-1.1h-1.1v1.1h-4.5v-1.1h-1.1v1.1h-2.2c-0.6,0-1.1,0.5-1.1,1.1v11.2
			c0,0.6,0.5,1.1,1.1,1.1h2.2v-1.1h-2.2V30.4h2.2v1.1h1.1v-1.1h4.5v1.1h1.1v-1.1h2.2v3.4h1.1V30.4z"/>
	</g>
	<rect x="602.1" y="19.5" class="st9" width="123.7" height="33.2"/>
	<g>
		<path class="st8" d="M819.8,43.2h-10.4c-0.6,0-1-0.4-1-0.9V33c0-0.5,0.5-0.9,1-0.9h5.2V33h-5.2v9.3h10.4v-4.6h1v4.6
			C820.8,42.8,820.4,43.2,819.8,43.2z"/>
		<polygon class="st8" points="816.7,31.1 816.7,32 820.1,32 815.6,36 816.4,36.7 820.8,32.7 820.8,35.8 821.9,35.8 821.9,31.1 		
			"/>
	</g>
	<circle class="st10" cx="404.1" cy="113.2" r="6.4"/>
	<rect x="639.9" y="562.9" class="st11" width="78.2" height="10.7"/>
	<rect x="718.1" y="562.9" class="st12" width="35.7" height="10.7"/>
	<rect x="753.8" y="562.9" class="st13" width="13.2" height="10.7"/>
	<rect x="640.2" y="601.5" class="st14" width="19.6" height="10.7"/>
	<rect x="659.7" y="601.5" class="st15" width="89.1" height="10.7"/>
	<rect x="748.9" y="601.5" class="st16" width="18.4" height="10.7"/>
	<rect x="639" y="641.3" class="st11" width="105.5" height="10.7"/>
	<rect x="744.5" y="641.3" class="st12" width="19.3" height="10.7"/>
	<rect x="763.3" y="641.3" class="st13" width="2.8" height="10.7"/>
	<g>
		<rect x="302.6" y="602.9" class="st5" width="1" height="2"/>
		<rect x="302.6" y="605.8" class="st5" width="1" height="2"/>
		<rect x="305.6" y="602.9" class="st5" width="1" height="2"/>
		<rect x="305.6" y="605.8" class="st5" width="1" height="2"/>
		<rect x="302.6" y="608.8" class="st5" width="1" height="2"/>
		<rect x="305.6" y="608.8" class="st5" width="1" height="2"/>
		<path class="st5" d="M313.5,605.8c0-0.5-0.4-1-1-1h-3v-4c0-0.5-0.4-1-1-1h-7.9c-0.5,0-1,0.4-1,1v12.9h13.9V605.8z M300.6,600.9
			h7.9v11.9h-7.9V600.9z M309.5,612.8v-6.9h3v6.9H309.5z"/>
	</g>
	<g>
		<path class="st5" d="M302.6,645.7h5.5v1h-5.5V645.7z M302.6,648.2h6.5v1h-6.5V648.2z"/>
		<path class="st5" d="M312.6,640.7h-12c-0.6,0-1,0.4-1,1v10c0,0.6,0.4,1,1,1h12c0.6,0,1-0.4,1-1v-10
			C313.6,641.1,313.1,640.7,312.6,640.7z M312.6,641.7v1h-12v-1H312.6z M300.6,651.7v-8h12v8H300.6z"/>
	</g>
	<path class="st17" d="M53.2,498.4l-4.5-4.5c2.3-2.8,1.9-6.9-0.8-9.2c-2.8-2.3-6.9-1.9-9.2,0.8c-2.3,2.8-1.9,6.9,0.8,9.2
		c2.4,2,5.9,2,8.3,0l4.5,4.5L53.2,498.4z M38.4,489.7c0-2.9,2.4-5.3,5.3-5.3s5.3,2.4,5.3,5.3c0,2.9-2.4,5.3-5.3,5.3
		C40.8,495,38.4,492.7,38.4,489.7z"/>
	<path class="st17" d="M756.5,498.9h-2.6c-0.7,0-1.3-0.6-1.3-1.3v-4.9l-4.8-4.8c-0.2-0.2-0.4-0.6-0.4-0.9v-2.3
		c0-0.7,0.6-1.3,1.3-1.3h12.9c0.7,0,1.3,0.6,1.3,1.3v2.3c0,0.3-0.1,0.7-0.4,0.9l-4.8,4.8v4.9C757.8,498.3,757.2,498.9,756.5,498.9z
		 M748.8,484.8v2.3l5.1,5.1v5.4h2.6v-5.4l5.1-5.1v-2.3H748.8z"/>
	<g>
		<path class="st17" d="M822.8,491.7c0-0.2,0-0.3,0-0.5s0-0.3,0-0.5l1.2-1.1c0.5-0.4,0.6-1.1,0.2-1.6l-1.5-2.6
			c-0.2-0.4-0.7-0.6-1.1-0.6c-0.1,0-0.3,0-0.4,0.1l-1.6,0.5c-0.3-0.2-0.6-0.3-0.8-0.5l-0.3-1.6c-0.1-0.6-0.7-1-1.3-1h-3
			c-0.6,0-1.2,0.4-1.3,1l-0.3,1.6c-0.3,0.1-0.6,0.3-0.8,0.5l-1.5-0.6c-0.1,0-0.3,0-0.4,0c-0.5,0-0.9,0.2-1.1,0.6l-1.5,2.6
			c-0.3,0.5-0.2,1.2,0.3,1.6l1.2,1.1c0,0.2,0,0.3,0,0.5s0,0.3,0,0.5l-1.2,1.1c-0.5,0.4-0.6,1.1-0.3,1.6l1.5,2.6
			c0.2,0.4,0.7,0.6,1.1,0.6c0.1,0,0.3,0,0.4-0.1l1.6-0.5c0.3,0.2,0.6,0.3,0.8,0.5l0.3,1.6c0.1,0.6,0.7,1,1.3,1h3
			c0.6,0,1.2-0.4,1.3-1l0.3-1.6c0.3-0.1,0.6-0.3,0.8-0.5l1.6,0.5c0.1,0,0.3,0.1,0.4,0.1c0.5,0,0.9-0.2,1.1-0.6l1.5-2.6
			c0.3-0.5,0.2-1.2-0.3-1.6L822.8,491.7z M821.7,496.3l-2.2-0.7c-0.5,0.4-1.1,0.8-1.7,1l-0.5,2.3h-3l-0.5-2.3
			c-0.6-0.2-1.2-0.6-1.7-1l-2.2,0.7l-1.5-2.6l1.7-1.5c-0.1-0.7-0.1-1.3,0-2l-1.7-1.6l1.5-2.6l2.2,0.7c0.5-0.4,1.1-0.8,1.7-1l0.5-2.3
			h3l0.5,2.3c0.6,0.2,1.2,0.6,1.7,1l2.2-0.7l1.5,2.6l-1.7,1.5c0.1,0.7,0.1,1.3,0,2l1.7,1.6L821.7,496.3z"/>
		<path class="st17" d="M815.8,495.1c-2.1,0-3.9-1.7-3.9-3.9s1.7-3.9,3.9-3.9c2.1,0,3.9,1.7,3.9,3.9
			C819.6,493.3,817.9,495,815.8,495.1C815.8,495.1,815.8,495.1,815.8,495.1z M815.8,488.6c-1.4,0-2.5,1.1-2.6,2.5c0,0,0,0.1,0,0.1
			c0,1.4,1.1,2.5,2.5,2.6c0,0,0.1,0,0.1,0c1.4,0,2.5-1.1,2.6-2.5c0,0,0-0.1,0-0.1c0-1.4-1.1-2.5-2.5-2.6
			C815.8,488.6,815.8,488.6,815.8,488.6z"/>
	</g>
	<g>
		<path class="st17" d="M782.9,487.3h-3.4c2.1-3.3,6.5-4.2,9.8-2.1c2,1.3,3.2,3.5,3.2,5.9h1.3c0-4.6-3.7-8.4-8.4-8.4
			c-2.5,0-4.9,1.1-6.4,3v-2.4h-1.3v5.1h5.1V487.3z"/>
		<path class="st17" d="M788.1,495.1h3.4c-2.1,3.3-6.5,4.2-9.8,2.1c-2-1.3-3.2-3.5-3.2-5.9h-1.3c0,4.6,3.7,8.4,8.4,8.4
			c2.5,0,4.9-1.1,6.4-3v2.4h1.3v-5.1h-5.1V495.1z"/>
	</g>
	<circle class="st10" cx="124.3" cy="113.2" r="6.4"/>
	<circle class="st10" cx="696.5" cy="113.2" r="6.4"/>
</g>
<g id="Layer_2">
	<text transform="matrix(1 0 0 1 694.0324 116.6795)" class="st5 st18 st19">?</text>
	<text transform="matrix(1 0 0 1 119.6687 242.6481)" class="st20 st21">64%</text>
	<text transform="matrix(1 0 0 1 36.1373 117.7263)" class="st5 st18 st22">Success rate</text>
	<text transform="matrix(1 0 0 1 88.0289 355.1973)" class="st5 st23 st19">419 / 655 evaluations passed</text>
	<text transform="matrix(1 0 0 1 398.3196 242.648)" class="st20 st21">390</text>
	<text transform="matrix(1 0 0 1 310.0695 117.922)" class="st5 st18 st22">Total controls</text>
	<text transform="matrix(1 0 0 1 319.976 354.6337)" class="st5 st20 st19">Compliant</text>
	<text transform="matrix(1 0 0 1 388.4603 354.6337)" class="st5 st20 st19">Non-compliant</text>
	<text transform="matrix(1 0 0 1 475.3569 354.6337)" class="st5 st20 st19">Unable to perform</text>
	<text transform="matrix(1 0 0 1 407.1516 259.9681)" class="st5 st23 st24">Controls</text>
	<text transform="matrix(1 0 0 1 667.6534 242.4322)" class="st20 st21">655</text>
	<text transform="matrix(1 0 0 1 582.2404 117.9802)" class="st5 st18 st22">Total evaluations</text>
	<text transform="matrix(1 0 0 1 616.3239 355.5737)" class="st5 st20 st19">Passed</text>
	<text transform="matrix(1 0 0 1 673.7333 355.5736)" class="st5 st20 st19">Failed</text>
	<text transform="matrix(1 0 0 1 722.2463 354.6332)" class="st5 st20 st19">Unable to perform</text>
	<text transform="matrix(1 0 0 1 667.8093 259.992)" class="st5 st23 st24">Evaluations</text>
	<text transform="matrix(1 0 0 1 780.1035 289.0282)" class="st25 st23 st19">419</text>
	<text transform="matrix(1 0 0 1 600.4442 178.5203)" class="st25 st23 st19">236</text>
	<text transform="matrix(1 0 0 1 512.5092 286.1202)" class="st25 st23 st19">240</text>
	<text transform="matrix(1 0 0 1 327.5924 189.3874)" class="st25 st23 st19">135</text>
	<text transform="matrix(1 0 0 1 408.6336 135.8081)" class="st25 st23 st19">15</text>
	<text transform="matrix(1 0 0 1 24.8878 46.5513)" class="st5 st23 st26">Dashboard</text>
	<text transform="matrix(1 0 0 1 746.5345 40.6947)" class="st8 st23 st24">View docs</text>
	<text transform="matrix(1 0 0 1 608.0308 39.5766)" class="st8 st23 st24">Scan history</text>
	<text transform="matrix(1 0 0 1 26.6397 441.924)" class="st5 st20 st27">Detailed results</text>
	<text transform="matrix(1 0 0 1 26.42 461.4809)" class="st28"><tspan x="0" y="0" class="st5 st20 st19">To view results for scans run prior to the last 30 days, click </tspan><tspan x="264.5" y="0" class="st8 st20 st19">Scan history.</tspan></text>
	<text transform="matrix(1 0 0 1 36.1373 532.3873)" class="st5 st18 st24">Profile</text>
	<text transform="matrix(1 0 0 1 233.2707 532.3875)" class="st5 st18 st24">Version</text>
	<text transform="matrix(1 0 0 1 300.2238 532.0247)" class="st5 st18 st24">Scope</text>
	<text transform="matrix(1 0 0 1 426.4137 531.9533)" class="st5 st18 st24">Type</text>
	<text transform="matrix(1 0 0 1 507.4161 533.0818)" class="st5 st18 st24">Last scan</text>
	<text transform="matrix(1 0 0 1 639.1944 532.3329)" class="st5 st18 st24">Results</text>
	<text transform="matrix(1 0 0 1 36.1375 571.1861)" class="st5 st20 st19">IBM Cloud for Financial Services</text>
	<text transform="matrix(1 0 0 1 232.8384 571.1861)" class="st5 st20 st19">0.6.0</text>
	<text transform="matrix(1 0 0 1 319.5059 571.1863)" class="st5 st20 st19">Account Group B</text>
	<text transform="matrix(1 0 0 1 426.414 571.1862)" class="st5 st20 st19">Scheduled</text>
	<text transform="matrix(1 0 0 1 507.4161 571.1862)" class="st5 st20 st19">09/15/2023, 12:32 PM</text>
	<text transform="matrix(1 0 0 1 784.0196 571.186)" class="st8 st20 st19">View</text>
	<text transform="matrix(1 0 0 1 36.4195 609.769)" class="st5 st20 st19">CIS IBM Cloud Foundations Benchmark</text>
	<text transform="matrix(1 0 0 1 232.929 609.769)" class="st5 st20 st19">1.0.0</text>
	<text transform="matrix(1 0 0 1 319.5059 609.7689)" class="st5 st20 st19">Enterprise</text>
	<text transform="matrix(1 0 0 1 426.696 609.769)" class="st5 st20 st19">Scheduled</text>
	<text transform="matrix(1 0 0 1 507.6981 609.7691)" class="st5 st20 st19">09/15/2023, 9:32 AM</text>
	<text transform="matrix(1 0 0 1 784.0193 609.7689)" class="st8 st20 st19">View</text>
	<text transform="matrix(1 0 0 1 35.2474 649.6141)" class="st5 st20 st19">My custom profile</text>
	<text transform="matrix(1 0 0 1 232.8385 649.6141)" class="st5 st20 st19">0.6.0</text>
	<text transform="matrix(1 0 0 1 425.5239 649.6141)" class="st5 st20 st19">On-demand</text>
	<text transform="matrix(1 0 0 1 506.526 649.6142)" class="st5 st20 st19">09/14/2023, 5:35 PM</text>
	<text transform="matrix(1 0 0 1 784.0201 649.614)" class="st8 st20 st19">View</text>
	<text transform="matrix(1 0 0 1 319.5059 649.6139)" class="st5 st20 st19">Account Group B</text>
	<text transform="matrix(1 0 0 1 67.8375 494.7391)" class="st17 st20 st24">Search</text>
	<text transform="matrix(1 0 0 1 121.8982 116.6794)" class="st5 st18 st19">?</text>
	<text transform="matrix(1 0 0 1 401.6448 116.6794)" class="st5 st18 st19">?</text>
	<rect x="370.6" y="369" class="st25" width="9.3" height="9.3"/>
	<text transform="matrix(1 0 0 1 382.7805 376.3722)" class="st5 st20 st19">User evaluation required</text>
</g>
</svg>
