<?xml version="1.0" encoding="UTF-8"?>
<svg width="1664px" height="872px" viewBox="0 0 1664 872" version="1.1" xmlns="http://www.w3.org/2000/svg" xmlns:xlink="http://www.w3.org/1999/xlink">
    <title>event-notifications</title>
    <defs>
        <rect id="path-1" x="177" y="16" width="1312" height="840"></rect>
        <filter x="-1.1%" y="-1.5%" width="102.2%" height="103.5%" filterUnits="objectBoundingBox" id="filter-2">
            <feMorphology radius="0.5" operator="dilate" in="SourceAlpha" result="shadowSpreadOuter1"></feMorphology>
            <feOffset dx="0" dy="2" in="shadowSpreadOuter1" result="shadowOffsetOuter1"></feOffset>
            <feGaussianBlur stdDeviation="4" in="shadowOffsetOuter1" result="shadowBlurOuter1"></feGaussianBlur>
            <feColorMatrix values="0 0 0 0 0   0 0 0 0 0   0 0 0 0 0  0 0 0 0.5 0" type="matrix" in="shadowBlurOuter1"></feColorMatrix>
        </filter>
        <polygon id="path-3" points="8.5 7.5 8.5 3.5 7.5 3.5 7.5 7.5 3.5 7.5 3.5 8.5 7.5 8.5 7.5 12.5 8.5 12.5 8.5 8.5 12.5 8.5 12.5 7.5"></polygon>
        <filter id="filter-5">
            <feColorMatrix in="SourceGraphic" type="matrix" values="0 0 0 0 0.956863 0 0 0 0 0.956863 0 0 0 0 0.956863 0 0 0 1.000000 0"></feColorMatrix>
        </filter>
        <filter id="filter-6">
            <feColorMatrix in="SourceGraphic" type="matrix" values="0 0 0 0 0.956863 0 0 0 0 0.956863 0 0 0 0 0.956863 0 0 0 1.000000 0"></feColorMatrix>
        </filter>
        <path d="M10,2.5 C11.7258898,2.5 13.125,3.89911016 13.125,5.625 C13.125,7.35088984 11.7258898,8.75 10,8.75 C8.27411016,8.75 6.875,7.35088984 6.875,5.625 C6.87696323,3.89992401 8.27492401,2.50196323 10,2.5 L10,2.5 Z M10,1.25 C7.58375422,1.25 5.625,3.20875422 5.625,5.625 C5.625,8.04124578 7.58375422,10 10,10 C12.4162458,10 14.375,8.04124578 14.375,5.625 C14.375,3.20875422 12.4162458,1.25 10,1.25 Z M16.25,18.75 L15,18.75 L15,15.625 C14.997968,13.8999525 13.6000475,12.502032 11.875,12.5 L8.125,12.5 C6.39995252,12.502032 5.00203196,13.8999525 5,15.625 L5,18.75 L3.75,18.75 L3.75,15.625 C3.75282413,13.209925 5.70992498,11.2528241 8.125,11.25 L11.875,11.25 C14.290075,11.2528241 16.2471759,13.209925 16.25,15.625 L16.25,18.75 Z" id="path-7"></path>
        <filter id="filter-9">
            <feColorMatrix in="SourceGraphic" type="matrix" values="0 0 0 0 0.956863 0 0 0 0 0.956863 0 0 0 0 0.956863 0 0 0 1.000000 0"></feColorMatrix>
        </filter>
        <filter id="filter-10">
            <feColorMatrix in="SourceGraphic" type="matrix" values="0 0 0 0 0.956863 0 0 0 0 0.956863 0 0 0 0 0.956863 0 0 0 1.000000 0"></feColorMatrix>
        </filter>
        <filter id="filter-11">
            <feColorMatrix in="SourceGraphic" type="matrix" values="0 0 0 0 0.956863 0 0 0 0 0.956863 0 0 0 0 0.956863 0 0 0 1.000000 0"></feColorMatrix>
        </filter>
        <filter id="filter-12">
            <feColorMatrix in="SourceGraphic" type="matrix" values="0 0 0 0 0.956863 0 0 0 0 0.956863 0 0 0 0 0.956863 0 0 0 1.000000 0"></feColorMatrix>
        </filter>
        <filter id="filter-13">
            <feColorMatrix in="SourceGraphic" type="matrix" values="0 0 0 0 0.956863 0 0 0 0 0.956863 0 0 0 0 0.956863 0 0 0 1.000000 0"></feColorMatrix>
        </filter>
    </defs>
    <g id="event-notifications" stroke="none" stroke-width="1" fill="none" fill-rule="evenodd">
        <g id="Background">
            <use fill="black" fill-opacity="1" filter="url(#filter-2)" xlink:href="#path-1"></use>
            <use fill="#F3F3F3" fill-rule="evenodd" xlink:href="#path-1"></use>
        </g>
        <g id="card-/-large-heading-/-01-normal" transform="translate(464.000000, 382.500000)">
            <rect id="Rectangle" fill="#FFFFFF" x="0" y="0.5" width="960" height="113"></rect>
            <g id="tile" transform="translate(0.000000, 0.500000)" fill="#FFFFFF">
                <rect id="Background" x="0" y="0" width="1002" height="279"></rect>
            </g>
            <g id="button-/-03-tertiary-/-default-/-02-text-and-icon-/-01-enabled" transform="translate(480.000000, 206.500000)">
                <g id="Button">
                    <path d="M127.5,0.5 L127.5,31.5 L0.5,31.5 L0.5,0.5 L127.5,0.5 Z" id="Background" stroke="#0F62FE"></path>
                    <g id="Spacer" transform="translate(66.865672, 0.000000)">
                        <rect id="spacer" x="-2.86567164" y="0" width="64" height="32"></rect>
                    </g>
                    <text id="Label" font-family="IBMPlexSans, IBM Plex Sans" font-size="14" font-weight="normal" line-spacing="18" letter-spacing="0.159999996" fill="#0F62FE">
                        <tspan x="16" y="21">Connect</tspan>
                    </text>
                </g>
                <g id="Icon" transform="translate(96.000000, 8.000000)">
                    <mask id="mask-4" fill="white">
                        <use xlink:href="#path-3"></use>
                    </mask>
                    <use id="icon-color" fill="#0F62FE" xlink:href="#path-3"></use>
                </g>
            </g>
            <rect id="Rectangle" fill="#D8D8D8" x="480" y="149.5" width="324" height="9"></rect>
            <rect id="Rectangle" fill="#D8D8D8" x="224" y="23.5" width="608" height="9"></rect>
            <rect id="Rectangle" fill="#E5E5E5" x="480" y="166.5" width="268" height="9"></rect>
            <rect id="Rectangle" fill="#E5E5E5" x="224" y="40.5" width="160" height="9"></rect>
            <rect id="Rectangle" fill="#E5E5E5" x="224" y="122.5" width="96" height="9"></rect>
            <text id="Event-Notifications" font-family="IBMPlexSans-SemiBold, IBM Plex Sans" font-size="14" font-weight="500" line-spacing="18" letter-spacing="0.159999996" fill="#161616">
                <tspan x="17" y="33">Event Notifications</tspan>
            </text>
            <text id="You-haven't-connecte" font-family="IBMPlexSans, IBM Plex Sans" font-size="14" font-weight="normal" line-spacing="20" letter-spacing="0.159999996" fill="#161616">
                <tspan x="480" y="130">You haven't connected to Event Notifications yet.</tspan>
            </text>
            <line x1="927.5" y1="100" x2="223.5" y2="100" id="Line" stroke="#E5E5E5" stroke-linecap="square"></line>
            <line x1="448.5" y1="241" x2="448.5" y2="120" id="Line" stroke="#E5E5E5" stroke-linecap="square"></line>
            <g id="tag-/-01-default-/-small-/-gray-/-01-enabled" transform="translate(480.000000, 69.000000)">
                <rect id="Tag-color" fill="#E0E0E0" x="0" y="0" width="113" height="18" rx="9"></rect>
                <g id="Spacer" transform="translate(105.000000, 0.000000)">
                    <rect id="spacer" x="0" y="0" width="8" height="18"></rect>
                </g>
                <text id="Label-text" font-family="IBMPlexSans, IBM Plex Sans" font-size="12" font-weight="normal" line-spacing="16" letter-spacing="0.319999993" fill="#161616">
                    <tspan x="8" y="13">collector created</tspan>
                </text>
            </g>
            <g id="tag-/-01-default-/-small-/-gray-/-01-enabled" transform="translate(601.000000, 69.000000)">
                <rect id="Tag-color" fill="#E0E0E0" x="0" y="0" width="166" height="18" rx="9"></rect>
                <g id="Spacer" transform="translate(158.000000, 0.000000)">
                    <rect id="spacer" x="0" y="0" width="8" height="18"></rect>
                </g>
                <text id="Label-text" font-family="IBMPlexSans, IBM Plex Sans" font-size="12" font-weight="normal" line-spacing="16" letter-spacing="0.319999993" fill="#161616">
                    <tspan x="8" y="13">validation scan completed</tspan>
                </text>
            </g>
            <g id="tag-/-01-default-/-small-/-gray-/-01-enabled" transform="translate(775.000000, 69.000000)">
                <rect id="Tag-color" fill="#E0E0E0" x="0" y="0" width="155" height="18" rx="9"></rect>
                <g id="Spacer" transform="translate(147.000000, 0.000000)">
                    <rect id="spacer" x="0" y="0" width="8" height="18"></rect>
                </g>
                <text id="Label-text" font-family="IBMPlexSans, IBM Plex Sans" font-size="12" font-weight="normal" line-spacing="16" letter-spacing="0.319999993" fill="#161616">
                    <tspan x="8" y="13">config changes detected</tspan>
                </text>
            </g>
            <text id="Security-and-Complia" font-family="IBMPlexSans, IBM Plex Sans" font-size="12" font-weight="normal" line-spacing="16" letter-spacing="0.32" fill="#525252">
                <tspan x="224" y="82">Security and Compliance Center events:</tspan>
            </text>
        </g>
        <text id="card-heading" font-family="IBMPlexSans, IBM Plex Sans" font-size="20" font-weight="normal" line-spacing="28" fill="#161616">
            <tspan x="476" y="366">Notifications</tspan>
        </text>
        <g id="card-/-large-heading-/-01-normal" transform="translate(464.000000, 180.500000)">
            <rect id="Rectangle" fill="#FFFFFF" x="0" y="26.5" width="988" height="113"></rect>
            <g id="tile" transform="translate(0.000000, 26.500000)" fill="#FFFFFF">
                <rect id="Background" x="0" y="0" width="988" height="113"></rect>
            </g>
            <rect id="Rectangle" fill="#D8D8D8" x="18" y="54.5" width="333" height="9"></rect>
            <rect id="Rectangle" fill="#E5E5E5" x="18" y="71.5" width="276" height="9"></rect>
            <rect id="Rectangle" fill="#E5E5E5" x="1.1122825" y="0" width="165.775435" height="9"></rect>
        </g>
        <g id="Header" transform="translate(433.000000, 64.000000)">
            <rect id="Rectangle" fill="#F3F3F3" x="0" y="0" width="910" height="104"></rect>
            <text id="page-title" font-family="IBMPlexSans, IBM Plex Sans" font-size="28" font-weight="normal" line-spacing="36" fill="#161616">
                <tspan x="32" y="63">Global settings</tspan>
            </text>
        </g>
        <g id="_world-page-/-navigation-/-group-/-mixed" transform="translate(177.000000, 63.000000)">
            <rect id="background" fill="#262626" x="0" y="0" width="256" height="793"></rect>
            <g id="collapse" transform="translate(0.000000, 745.000000)">
                <rect id="background" fill="#171717" x="0" y="0" width="256" height="48"></rect>
                <g id="collapse-icon" transform="translate(208.000000, 0.000000)">
                    <rect id="background" x="0" y="0" width="48" height="48"></rect>
                    <g id="Icon" transform="translate(14.000000, 14.000000)" filter="url(#filter-5)">
                        <g>
                            <polygon id="Fill" fill="#C6C6C6" points="6.25 10 12.5 3.75 13.375 4.625 8 10 13.375 15.375 12.5 16.25"></polygon>
                        </g>
                    </g>
                </g>
            </g>
            <g id="page-link-2" transform="translate(0.000000, 580.000000)">
                <rect id="background" fill="#525252" transform="translate(128.000000, 16.000000) scale(-1, 1) translate(-128.000000, -16.000000) " x="0" y="0" width="256" height="32"></rect>
                <rect id="highlight" fill="#0F62FE" transform="translate(2.000000, 16.000000) scale(-1, 1) translate(-2.000000, -16.000000) " x="0" y="0" width="4" height="32"></rect>
                <text id="text" font-family="IBMPlexSans-SemiBold, IBM Plex Sans" font-size="14" font-weight="500" line-spacing="18" letter-spacing="0.159999996" fill="#F4F4F4">
                    <tspan x="16" y="21">Global settings</tspan>
                </text>
            </g>
            <g id="Group" transform="translate(0.000000, 65.000000)">
                <rect id="Background" x="0" y="0" width="256" height="17"></rect>
                <rect id="divider" fill="#525252" x="16" y="8" width="224" height="1"></rect>
            </g>
            <g id="Group" transform="translate(0.000000, 138.000000)">
                <rect id="Background" x="0" y="0" width="256" height="17"></rect>
                <rect id="divider" fill="#525252" x="16" y="8" width="224" height="1"></rect>
            </g>
            <g id="world-name">
                <rect id="Background" fill="#262626" x="0" y="0" width="256" height="64"></rect>
                <text id="world-Name" font-family="IBMPlexSans-SemiBold, IBM Plex Sans" font-size="14" font-weight="500" line-spacing="18" letter-spacing="0.159999996" fill="#C6C6C6">
                    <tspan x="16" y="52">Security and Compliance</tspan>
                </text>
                <g id="scc_icon" transform="translate(16.000000, 16.000000)">
                    <polygon id="Path" fill="#F4F4F4" fill-rule="nonzero" points="7 8.295 5.705 7 5 7.705 7 9.705 11 5.705 10.295 5"></polygon>
                    <path d="M7.99999682,15 L4.9121,13.35355 C3.11808336,12.3991914 1.99781955,10.5320658 1.99999682,8.5 L1.99999682,2 C2.00057874,1.44795515 2.44795515,1.00057874 2.99999682,1 L12.9999968,1 C13.5520449,1.00057874 13.9994213,1.44795515 13.9999968,2 L13.9999968,8.5 C14.0021804,10.5320658 12.8819166,12.3991914 11.0879,13.35355 L7.99999682,15 Z M2.99999746,2 L2.99999746,8.5 C2.9982365,10.1626566 3.91488838,11.6903392 5.3828,12.47115 L7.99999746,13.86665 L10.6172,12.47115 C12.0851116,11.6903392 13.0017635,10.1626566 12.9999975,8.5 L12.9999975,2 L2.99999746,2 Z" id="Shape" fill="#F4F4F4" fill-rule="nonzero"></path>
                    <rect id="_Transparent_Rectangle_" x="0" y="0" width="16" height="16"></rect>
                </g>
            </g>
            <rect id="Rectangle" fill="#525252" x="16" y="94" width="99" height="9"></rect>
            <rect id="Rectangle" fill="#525252" x="16" y="167" width="123" height="9"></rect>
            <rect id="Rectangle" fill="#525252" x="16" y="196" width="103" height="9"></rect>
            <rect id="Rectangle" fill="#525252" x="16" y="225" width="75" height="9"></rect>
            <g id="Group" transform="translate(0.000000, 269.000000)">
                <rect id="Background" x="0" y="0" width="256" height="17"></rect>
                <rect id="divider" fill="#525252" x="16" y="8" width="224" height="1"></rect>
            </g>
            <rect id="Rectangle" fill="#525252" x="16" y="298" width="123" height="9"></rect>
            <rect id="Rectangle" fill="#525252" x="16" y="327" width="103" height="9"></rect>
            <rect id="Rectangle" fill="#525252" x="16" y="356" width="75" height="9"></rect>
            <g id="Group" transform="translate(0.000000, 397.000000)">
                <rect id="Background" x="0" y="0" width="256" height="17"></rect>
                <rect id="divider" fill="#525252" x="16" y="8" width="224" height="1"></rect>
            </g>
            <rect id="Rectangle" fill="#525252" x="16" y="426" width="123" height="9"></rect>
            <g id="Group" transform="translate(0.000000, 522.000000)">
                <rect id="Background" x="0" y="0" width="256" height="17"></rect>
                <rect id="divider" fill="#525252" x="16" y="8" width="224" height="1"></rect>
            </g>
            <rect id="Rectangle" fill="#525252" x="16" y="551" width="123" height="9"></rect>
            <rect id="Rectangle" fill="#525252" x="16" y="455" width="103" height="9"></rect>
            <rect id="Rectangle" fill="#525252" x="16" y="484" width="75" height="9"></rect>
        </g>
        <g id="Navigation-/-1312px" transform="translate(177.000000, 16.000000)">
            <rect id="background" fill="#171717" x="0" y="0" width="1312" height="48"></rect>
            <g id="User" transform="translate(1264.000000, 0.000000)">
                <rect id="background" x="0" y="0" width="48" height="48"></rect>
                <g id="Icon" transform="translate(14.000000, 14.000000)" filter="url(#filter-6)">
                    <g>
                        <mask id="mask-8" fill="white">
                            <use xlink:href="#path-7"></use>
                        </mask>
                        <use id="icon-color" fill="#C6C6C6" xlink:href="#path-7"></use>
                    </g>
                </g>
            </g>
            <g id="cost-estimator" transform="translate(1216.000000, 0.000000)">
                <rect id="background" x="0" y="0" width="48" height="48"></rect>
                <g id="Icon" transform="translate(14.000000, 14.000000)" filter="url(#filter-9)">
                    <g>
                        <path d="M17.9375,12.6875 L16.25,11 L16.25,8.125 C16.2458533,4.91102718 13.8207808,2.21650217 10.625,1.875 L10.625,0.625 L9.375,0.625 L9.375,1.875 C6.19027615,2.2380563 3.77674244,4.91976043 3.75,8.125 L3.75,11 L2.0625,12.6875 C1.93904716,12.7989101 1.8705364,12.9587686 1.875,13.125 L1.875,15 C1.86382379,15.1689394 1.92607409,15.3344873 2.04579337,15.4542066 C2.16551265,15.5739259 2.33106065,15.6361762 2.5,15.625 L6.875,15.625 C6.875,17.3508898 8.27411016,18.75 10,18.75 C11.7258898,18.75 13.125,17.3508898 13.125,15.625 L17.5,15.625 C17.6689394,15.6361762 17.8344873,15.5739259 17.9542066,15.4542066 C18.0739259,15.3344873 18.1361762,15.1689394 18.125,15 L18.125,13.125 C18.1294636,12.9587686 18.0609528,12.7989101 17.9375,12.6875 L17.9375,12.6875 Z M10,17.5 C8.96446609,17.5 8.125,16.6605339 8.125,15.625 L11.875,15.625 C11.875,16.6605339 11.0355339,17.5 10,17.5 L10,17.5 Z M16.875,14.375 L3.125,14.375 L3.125,13.375 L4.8125,11.6875 C4.93595284,11.5760899 5.0044636,11.4162314 5,11.25 L5,8.125 C5,5.36357625 7.23857625,3.125 10,3.125 C12.7614237,3.125 15,5.36357625 15,8.125 L15,11.25 C14.9955364,11.4162314 15.0640472,11.5760899 15.1875,11.6875 L16.875,13.375 L16.875,14.375 Z" id="Fill" fill="#C6C6C6"></path>
                    </g>
                </g>
            </g>
            <g id="terminal" transform="translate(1168.000000, 0.000000)">
                <rect id="background" x="0" y="0" width="48" height="48"></rect>
                <g id="Icon" transform="translate(14.000000, 14.000000)" filter="url(#filter-10)">
                    <g>
                        <path d="M16.25,2.5 L16.25,17.5 L3.75,17.5 L3.75,2.5 L16.25,2.5 L16.25,2.5 Z M16.25,1.25 L3.75,1.25 C3.05964406,1.25 2.5,1.80964406 2.5,2.5 L2.5,17.5 C2.5,18.1903559 3.05964406,18.75 3.75,18.75 L16.25,18.75 C16.9403559,18.75 17.5,18.1903559 17.5,17.5 L17.5,2.5 C17.5,1.80964406 16.9403559,1.25 16.25,1.25 Z M5.625,14.375 L6.875,14.375 L6.875,15.625 L5.625,15.625 L5.625,14.375 Z M13.125,14.375 L14.375,14.375 L14.375,15.625 L13.125,15.625 L13.125,14.375 Z M5.625,11.25 L6.875,11.25 L6.875,12.5 L5.625,12.5 L5.625,11.25 Z M13.125,11.25 L14.375,11.25 L14.375,12.5 L13.125,12.5 L13.125,11.25 Z M5.625,8.125 L6.875,8.125 L6.875,9.375 L5.625,9.375 L5.625,8.125 Z M9.375,14.375 L10.625,14.375 L10.625,15.625 L9.375,15.625 L9.375,14.375 Z M9.375,11.25 L10.625,11.25 L10.625,12.5 L9.375,12.5 L9.375,11.25 Z M9.375,8.125 L10.625,8.125 L10.625,9.375 L9.375,9.375 L9.375,8.125 Z M13.125,8.125 L14.375,8.125 L14.375,9.375 L13.125,9.375 L13.125,8.125 Z M5.625,4.375 L14.375,4.375 L14.375,6.25 L5.625,6.25 L5.625,4.375 Z" id="Fill" fill="#C6C6C6"></path>
                    </g>
                </g>
            </g>
            <g id="account-switcher-(placeholder)-copy-2" transform="translate(1120.000000, 0.000000)">
                <rect id="background" x="0" y="0" width="48" height="48"></rect>
                <g id="Icon" transform="translate(14.000000, 14.000000)" filter="url(#filter-11)">
                    <g>
                        <path d="M16.25,2.50625 L3.75,2.50625 C3.05964406,2.50625 2.5,3.06589406 2.5,3.75625 L2.5,16.25625 C2.5,16.9466059 3.05964406,17.50625 3.75,17.50625 L16.25,17.50625 C16.9403559,17.50625 17.5,16.9466059 17.5,16.25625 L17.5,3.75625 C17.5,3.06589406 16.9403559,2.50625 16.25,2.50625 Z M16.25,3.75625 L16.25,6.25625 L3.75,6.25625 L3.75,3.75625 L16.25,3.75625 Z M3.75,16.25625 L3.75,7.50625 L16.25,7.50625 L16.25,16.25625 L3.75,16.25625 Z M6.725,10.1125 L8.4875,11.88125 L6.725,13.65 L7.60625,14.53125 L10.25625,11.88125 L7.60625,9.23125 L6.725,10.1125 L6.725,10.1125 Z" id="Fill" fill="#C6C6C6"></path>
                    </g>
                </g>
            </g>
            <g id="manage" transform="translate(875.000000, 0.000000)">
                <rect id="background" x="0" y="0" width="71" height="48"></rect>
                <g id="Spacer" transform="translate(55.000000, 0.000000)">
                    <rect id="spacer" x="0" y="0" width="16" height="48"></rect>
                </g>
            </g>
            <g id="Actions-/-Navigation-/-chevron--down-/-20" transform="translate(948.000000, 14.000000)" fill="#C6C6C6">
                <polygon id="Fill" points="10 13.75 3.75 7.5 4.625 6.625 10 12 15.375 6.625 16.25 7.5"></polygon>
            </g>
            <g id="Actions-/-Navigation-/-chevron--down-/-20" transform="translate(1100.000000, 14.000000)" fill="#C6C6C6">
                <polygon id="Fill" points="10 13.75 3.75 7.5 4.625 6.625 10 12 15.375 6.625 16.25 7.5"></polygon>
            </g>
            <rect id="Rectangle-Copy" fill="#393939" x="294" y="0" width="352" height="48"></rect>
            <g id="search" transform="translate(598.000000, 0.000000)">
                <rect id="background" x="0" y="0" width="48" height="48"></rect>
                <g id="Icon" transform="translate(14.000000, 14.000000)" filter="url(#filter-12)">
                    <g>
                        <path d="M18.125,17.2411875 L13.4049375,12.521125 C15.7611113,9.69244599 15.4756484,5.510841 12.7569179,3.02860722 C10.0381874,0.546373439 5.84793173,0.641593278 3.2447625,3.2447625 C0.641593278,5.84793173 0.546373439,10.0381874 3.02860722,12.7569179 C5.510841,15.4756484 9.69244599,15.7611113 12.521125,13.4049375 L17.2411875,18.125 L18.125,17.2411875 Z M2.5,8.125 C2.5,5.01839828 5.01839828,2.5 8.125,2.5 C11.2316017,2.5 13.75,5.01839828 13.75,8.125 C13.75,11.2316017 11.2316017,13.75 8.125,13.75 C5.01982614,13.7465555 2.50344446,11.2301739 2.5,8.125 Z" id="Fill" fill="#C6C6C6"></path>
                    </g>
                </g>
            </g>
            <line x1="149.5" y1="12" x2="149.5" y2="36" id="Line" stroke="#3D3D3D" stroke-linecap="square"></line>
            <g id="Group" transform="translate(48.840000, 18.640000)" fill="#F4F4F4" fill-rule="nonzero">
                <path d="M35.102,10.528 C36.852,10.528 38.014,9.674 38.714,8.218 L37.216,7.336 C36.894,8.218 36.208,8.89 35.102,8.89 C33.73,8.89 32.848,7.938 32.848,6.258 L32.848,4.718 C32.848,3.052 33.73,2.058 35.102,2.058 C36.194,2.058 36.81,2.646 37.09,3.514 L38.672,2.674 C37.986,1.162 36.852,0.42 35.102,0.42 C32.526,0.42 30.888,2.254 30.888,5.544 C30.888,8.834 32.526,10.528 35.102,10.528 Z M43.102,10.36 L43.102,8.932 L42.136,8.932 L42.136,1.0658141e-14 L40.344,1.0658141e-14 L40.344,8.596 C40.344,9.716 40.918,10.36 42.136,10.36 L43.102,10.36 Z M47.518,10.528 C49.618,10.528 50.92,9.044 50.92,6.692 C50.92,4.354 49.618,2.884 47.518,2.884 C45.432,2.884 44.13,4.354 44.13,6.692 C44.13,9.044 45.432,10.528 47.518,10.528 Z M47.518,9.086 C46.594,9.086 46.006,8.484 46.006,7.378 L46.006,6.02 C46.006,4.928 46.594,4.326 47.518,4.326 C48.456,4.326 49.044,4.928 49.044,6.02 L49.044,7.378 C49.044,8.484 48.456,9.086 47.518,9.086 Z M54.916,10.528 C56.12,10.528 56.708,9.87 56.96,9.142 L57.03,9.142 L57.03,10.36 L58.822,10.36 L58.822,3.052 L57.03,3.052 L57.03,7.882 C57.03,8.666 56.316,9.044 55.602,9.044 C54.748,9.044 54.37,8.498 54.37,7.49 L54.37,3.052 L52.578,3.052 L52.578,7.672 C52.578,9.492 53.418,10.528 54.916,10.528 Z M63.504,10.528 C64.47,10.528 65.254,9.968 65.52,9.142 L65.59,9.142 L65.59,10.36 L67.382,10.36 L67.382,1.0658141e-14 L65.59,1.0658141e-14 L65.59,4.256 L65.52,4.256 C65.268,3.416 64.47,2.884 63.504,2.884 C61.67,2.884 60.648,4.256 60.648,6.692 C60.648,9.142 61.67,10.528 63.504,10.528 Z M64.078,9.044 C63.154,9.044 62.524,8.372 62.524,7.336 L62.524,6.076 C62.524,5.04 63.154,4.354 64.078,4.354 C64.932,4.354 65.59,4.816 65.59,5.53 L65.59,7.854 C65.59,8.61 64.932,9.044 64.078,9.044 Z" id="Cloud"></path>
                <path d="M3.92,10.36 L3.92,9.38 L2.548,9.38 L2.548,1.568 L3.92,1.568 L3.92,0.588 L-2.13162821e-14,0.588 L-2.13162821e-14,1.568 L1.372,1.568 L1.372,9.38 L-2.13162821e-14,9.38 L-2.13162821e-14,10.36 L3.92,10.36 Z M10.66,10.36 C12.102,10.36 13.18,9.142 13.18,7.532 C13.18,5.908 11.962,5.306 11.262,5.264 L11.262,5.18 C11.906,5.082 12.844,4.564 12.844,3.108 C12.844,1.582 11.85,0.588 10.24,0.588 L6.222,0.588 L6.222,10.36 L10.66,10.36 Z M10.1,4.816 L7.398,4.816 L7.398,1.624 L10.1,1.624 C11.024,1.624 11.584,2.114 11.584,2.982 L11.584,3.458 C11.584,4.326 11.024,4.816 10.1,4.816 Z M10.296,9.324 L7.398,9.324 L7.398,5.824 L10.296,5.824 C11.304,5.824 11.92,6.356 11.92,7.336 L11.92,7.812 C11.92,8.792 11.304,9.324 10.296,9.324 Z M16.672,10.36 L16.672,2.142 L16.742,2.142 L17.568,3.766 L19.892,8.022 L22.23,3.766 L23.056,2.128 L23.126,2.128 L23.126,10.36 L24.274,10.36 L24.274,0.588 L22.734,0.588 L19.92,5.852 L19.864,5.852 L17.064,0.588 L15.524,0.588 L15.524,10.36 L16.672,10.36 Z" id="IBM"></path>
            </g>
            <g id="menu">
                <rect id="background" x="0" y="0" width="48" height="48"></rect>
                <g id="Icon" transform="translate(14.000000, 14.000000)" filter="url(#filter-13)">
                    <g>
                        <path d="M2,14.8 L18,14.8 L18,16 L2,16 L2,14.8 Z M2,11.2 L18,11.2 L18,12.4 L2,12.4 L2,11.2 Z M2,7.6 L18,7.6 L18,8.8 L2,8.8 L2,7.6 Z M2,4 L18,4 L18,5.2 L2,5.2 L2,4 Z" id="Fill" fill="#FFFFFF"></path>
                    </g>
                </g>
            </g>
            <rect id="Rectangle" fill="#525252" x="662" y="20" width="50" height="9"></rect>
            <rect id="Rectangle" fill="#525252" x="737" y="20" width="50" height="9"></rect>
            <rect id="Rectangle" fill="#525252" x="812" y="20" width="50" height="9"></rect>
            <rect id="Rectangle" fill="#525252" x="985" y="20" width="106" height="9"></rect>
            <rect id="Rectangle" fill="#525252" x="889" y="20" width="50" height="9"></rect>
        </g>
        <g id="Step-indicators" transform="translate(149.000000, 594.000000)">
            <g id="1" transform="translate(0.000000, 55.000000)">
                <g id="Group">
                    <circle id="Oval" fill="#D12771" cx="11.5" cy="11.5" r="11.5"></circle>
                    <polygon id="1" fill="#F4F4F4" fill-rule="nonzero" points="14.714 16 14.714 14.684 12.348 14.684 12.348 6.228 10.682 6.228 7.658 7.95 8.274 9.112 10.794 7.656 10.794 14.684 8.19 14.684 8.19 16"></polygon>
                </g>
                <line x1="20.5" y1="11.5" x2="39.5" y2="11.5" id="Line-2" stroke="#D12771" stroke-width="3" stroke-linecap="round"></line>
            </g>
            <g id="2" transform="translate(766.000000, 0.000000)">
                <g id="Group-2">
                    <circle id="Oval" fill="#D12771" cx="11.5" cy="11.5" r="11.5"></circle>
                    <path d="M14.574,16 L14.574,14.656 L9.646,14.656 L11.942,12.682 C13.23,11.576 14.28,10.54 14.28,8.958 C14.28,7.264 13.132,6.06 11.144,6.06 C9.184,6.06 8.204,7.208 7.798,8.44 L9.184,8.972 C9.422,8.118 9.94,7.432 11.018,7.432 C11.984,7.432 12.6,8.02 12.6,8.958 L12.6,9.14 C12.6,10.036 12.04,10.82 11.06,11.702 L7.938,14.488 L7.938,16 L14.574,16 Z" id="2" fill="#F4F4F4" fill-rule="nonzero"></path>
                </g>
                <line x1="19.5" y1="11.5" x2="39.5" y2="11.5" id="Line-2" stroke="#D12771" stroke-width="3" stroke-linecap="round"></line>
            </g>
        </g>
    </g>
</svg>