<?xml version="1.0" encoding="utf-8"?>
<!-- Generator: Adobe Illustrator 26.0.1, SVG Export Plug-In . SVG Version: 6.00 Build 0)  -->
<svg version="1.1" xmlns="http://www.w3.org/2000/svg" xmlns:xlink="http://www.w3.org/1999/xlink" x="0px" y="0px"
	 viewBox="0 0 1125 614" style="enable-background:new 0 0 1125 614;" xml:space="preserve">
<style type="text/css">
	.st0{fill:none;stroke:#DFE3E6;stroke-width:0.8021;stroke-miterlimit:10;}
	.st1{display:none;}
	.st2{display:inline;}
	.st3{fill:none;stroke:#000000;stroke-linecap:round;stroke-linejoin:round;stroke-dasharray:2,2;}
	.st4{display:none;fill:#FFB3B8;}
	.st5{fill:#0DB5B3;}
	.st6{fill:#6BA5FF;}
	.st7{fill:#A56EFF;}
	.st8{fill:#152935;}
	.st9{font-family:'IBMPlexMono';}
	.st10{font-size:15px;}
	.st11{fill:#78A9FF;}
	.st12{fill:#3C6DF0;}
	.st13{fill:#008673;}
	.st14{fill:#161616;}
	.st15{letter-spacing:27;}
	.st16{fill:#FFFFFF;}
	.st17{fill:#A6C8FF;}
	.st18{font-family:'IBMPlexMono-SemiBold';}
	.st19{font-size:12px;}
	.st20{font-family:'IBMPlexSans';}
	.st21{font-size:16px;}
	.st22{font-family:'IBMPlexSans-Medium';}
</style>
<g id="Graphics">
	<path class="st0" d="M1114,602.6H577.3c-1.3,0-2.4-1.1-2.4-2.4V32.5c0-1.3,1.1-2.4,2.4-2.4H1114c1.3,0,2.4,1.1,2.4,2.4v567.7
		C1116.4,601.5,1115.3,602.6,1114,602.6z"/>
	<g class="st1">
		<g class="st2">
			<line class="st3" x1="128.6" y1="416.1" x2="315" y2="416.1"/>
			<g>
				<rect x="127" y="414.4" width="3.3" height="3.3"/>
			</g>
		</g>
	</g>
	<g class="st1">
		<g class="st2">
			<line class="st3" x1="128.6" y1="274.1" x2="315" y2="274.1"/>
			<g>
				<rect x="127" y="272.4" width="3.3" height="3.3"/>
			</g>
		</g>
	</g>
	<g class="st1">
		<g class="st2">
			<line class="st3" x1="128.6" y1="171.1" x2="315" y2="171.1"/>
			<g>
				<rect x="127" y="169.4" width="3.3" height="3.3"/>
			</g>
		</g>
	</g>
	<path class="st0" d="M551.7,602.6H15c-1.3,0-2.4-1.1-2.4-2.4V32.5c0-1.3,1.1-2.4,2.4-2.4h536.7c1.3,0,2.4,1.1,2.4,2.4v567.7
		C554.1,601.5,553,602.6,551.7,602.6z"/>
	<rect x="315.7" y="86.6" class="st4" width="5" height="42"/>
	<rect x="12.6" y="53.6" class="st5" width="5" height="88"/>
	<rect x="12.6" y="140.6" class="st6" width="5" height="193"/>
	<rect x="12.6" y="269.6" class="st7" width="5" height="184"/>
	<text transform="matrix(1 0 0 1 31.2871 52.5097)"><tspan x="0" y="0" class="st8 st9 st10">{ </tspan><tspan x="0" y="20" class="st11 st9 st10">    </tspan><tspan x="36" y="20" class="st12 st9 st10">&quot;target&quot;</tspan><tspan x="108" y="20" class="st8 st9 st10">: {</tspan><tspan x="0" y="40" class="st11 st9 st10">      </tspan><tspan x="54" y="40" class="st12 st9 st10">&quot;service_name&quot;</tspan><tspan x="180" y="40" class="st8 st9 st10">:</tspan><tspan x="189" y="40" class="st11 st9 st10"> </tspan><tspan x="198" y="40" class="st13 st9 st10">&quot;&lt;target_service&gt;&quot;</tspan><tspan x="360" y="40" class="st8 st9 st10">,</tspan><tspan x="0" y="60" class="st11 st9 st10">      </tspan><tspan x="54" y="60" class="st12 st9 st10">&quot;resource_kind&quot;</tspan><tspan x="189" y="60" class="st8 st9 st10">:</tspan><tspan x="198" y="60" class="st11 st9 st10"> </tspan><tspan x="207" y="60" class="st13 st9 st10">&quot;&lt;target_resource_type&gt;&quot;</tspan><tspan x="423" y="60" class="st8 st9 st10">, </tspan><tspan x="0" y="80" class="st12 st9 st10">      &quot;additional_target_attributes&quot;:</tspan><tspan x="333" y="80" class="st14 st9 st10"> [</tspan><tspan x="0" y="100" class="st14 st9 st10">        {</tspan><tspan x="0" y="120" class="st12 st9 st10">          &quot;name&quot;: </tspan><tspan x="162" y="120" class="st13 st9 st10">&quot;&lt;property&gt;&quot;</tspan><tspan x="270" y="120" class="st8 st9 st10">,</tspan><tspan x="0" y="140" class="st12 st9 st10">          &quot;operator&quot;: </tspan><tspan x="198" y="140" class="st13 st9 st10">&quot;&lt;operator&gt;&quot;</tspan><tspan x="306" y="140" class="st8 st9 st10">,</tspan><tspan x="0" y="160" class="st12 st9 st10">          &quot;value&quot;: </tspan><tspan x="171" y="160" class="st13 st9 st10">&quot;&lt;value&gt;&quot;</tspan><tspan x="0" y="180" class="st12 st9 st10">        </tspan><tspan x="72" y="180" class="st14 st9 st10">}</tspan><tspan x="0" y="200" class="st14 st9 st10">      ],</tspan><tspan x="0" y="220" class="st11 st9 st10">    </tspan><tspan x="36" y="220" class="st12 st9 st10">&quot;required_config&quot;</tspan><tspan x="189" y="220" class="st8 st9 st10">: {</tspan><tspan x="0" y="240" class="st8 st9 st10 st15">	</tspan><tspan x="36" y="240" class="st8 st9 st10">  </tspan><tspan x="54" y="240" class="st12 st9 st10">&quot;description&quot;</tspan><tspan x="171" y="240" class="st8 st9 st10">: </tspan><tspan x="189" y="240" class="st13 st9 st10">&quot;&lt;description&gt;&quot;</tspan><tspan x="324" y="240" class="st8 st9 st10">,</tspan><tspan x="0" y="260" class="st8 st9 st10">      </tspan><tspan x="54" y="260" class="st12 st9 st10">&quot;and&quot;</tspan><tspan x="99" y="260" class="st8 st9 st10">: [ </tspan><tspan x="0" y="280" class="st8 st9 st10">        { </tspan><tspan x="0" y="300" class="st11 st9 st10">          </tspan><tspan x="90" y="300" class="st12 st9 st10">&quot;property&quot;</tspan><tspan x="180" y="300" class="st8 st9 st10">: </tspan><tspan x="198" y="300" class="st13 st9 st10">&quot;&lt;main_property&gt;.&lt;sub_property&gt;&quot;</tspan><tspan x="486" y="300" class="st8 st9 st10">,</tspan><tspan x="0" y="320" class="st11 st9 st10">          </tspan><tspan x="90" y="320" class="st12 st9 st10">&quot;operator&quot;</tspan><tspan x="180" y="320" class="st8 st9 st10">: </tspan><tspan x="198" y="320" class="st13 st9 st10">&quot;&lt;operator&gt;&quot;</tspan><tspan x="306" y="320" class="st8 st9 st10">, </tspan><tspan x="0" y="340" class="st13 st9 st10 st15">		</tspan><tspan x="72" y="340" class="st13 st9 st10">  </tspan><tspan x="90" y="340" class="st12 st9 st10">&quot;value&quot;</tspan><tspan x="153" y="340" class="st13 st9 st10">: &quot;&lt;value&gt;&quot;</tspan><tspan x="0" y="360" class="st8 st9 st10">    </tspan><tspan x="36" y="360" class="st8 st9 st10 st15">	</tspan><tspan x="72" y="360" class="st8 st9 st10">} </tspan><tspan x="0" y="380" class="st8 st9 st10">      ] </tspan><tspan x="0" y="400" class="st8 st9 st10">    },</tspan><tspan x="0" y="420" class="st11 st9 st10">    </tspan><tspan x="36" y="420" class="st12 st9 st10">&quot;enforcement_actions&quot;</tspan><tspan x="225" y="420" class="st8 st9 st10">: [ </tspan><tspan x="0" y="440" class="st8 st9 st10">      {</tspan><tspan x="0" y="460" class="st11 st9 st10">        </tspan><tspan x="72" y="460" class="st12 st9 st10">&quot;action&quot;</tspan><tspan x="144" y="460" class="st8 st9 st10">: </tspan><tspan x="162" y="460" class="st13 st9 st10">&quot;&lt;action&gt;&quot;</tspan><tspan x="0" y="480" class="st8 st9 st10">      }</tspan><tspan x="0" y="500" class="st8 st9 st10">    ] </tspan><tspan x="0" y="520" class="st8 st9 st10">  } </tspan><tspan x="0" y="540" class="st8 st9 st10">}</tspan></text>
	<g>
		<g>
			<circle class="st5" cx="15.1" cy="61.3" r="10"/>
		</g>
		<g>
			<path class="st16" d="M12.6,65.4v-1.1h2.2v-6l-2.2,1.2l-0.5-1l2.6-1.5h1.4v7.2h2v1.1H12.6z"/>
		</g>
	</g>
	<g>
		<circle class="st6" cx="15.1" cy="130.5" r="10"/>
		<g>
			<path class="st16" d="M18,134.7h-5.7v-1.3L15,131c0.8-0.8,1.3-1.4,1.3-2.2v-0.2c0-0.8-0.5-1.3-1.4-1.3c-0.9,0-1.4,0.6-1.6,1.3
				l-1.2-0.5c0.3-1.1,1.2-2,2.9-2c1.7,0,2.7,1,2.7,2.5c0,1.4-0.9,2.2-2,3.2l-2,1.7H18V134.7z"/>
		</g>
	</g>
	<g>
		<circle class="st7" cx="15.1" cy="270.7" r="10"/>
		<g>
			<path class="st16" d="M15,270c1,0,1.5-0.5,1.5-1.2v-0.1c0-0.8-0.5-1.2-1.3-1.2c-0.8,0-1.3,0.4-1.7,1l-0.9-0.8
				c0.5-0.7,1.3-1.4,2.7-1.4c1.6,0,2.7,0.8,2.7,2.2c0,1.1-0.7,1.7-1.6,1.9v0.1c0.9,0.2,1.8,0.9,1.8,2.1c0,1.5-1.2,2.4-3,2.4
				c-1.6,0-2.3-0.7-2.9-1.5l1-0.8c0.4,0.7,0.9,1.1,1.9,1.1c1,0,1.6-0.5,1.6-1.4v-0.1c0-0.9-0.6-1.3-1.7-1.3h-0.9V270H15z"/>
		</g>
	</g>
	<rect x="574.9" y="52.4" class="st5" width="5" height="88"/>
	<rect x="574.9" y="129.4" class="st6" width="5" height="193"/>
	<text transform="matrix(1 0 0 1 593.5496 52.5095)"><tspan x="0" y="0" class="st8 st9 st10">{ </tspan><tspan x="0" y="20" class="st11 st9 st10">    </tspan><tspan x="36" y="20" class="st12 st9 st10">&quot;target&quot;</tspan><tspan x="108" y="20" class="st8 st9 st10">: {</tspan><tspan x="0" y="40" class="st11 st9 st10">      </tspan><tspan x="54" y="40" class="st12 st9 st10">&quot;service_name&quot;</tspan><tspan x="180" y="40" class="st8 st9 st10">:</tspan><tspan x="189" y="40" class="st11 st9 st10"> </tspan><tspan x="198" y="40" class="st13 st9 st10">&quot;&lt;target_service&gt;&quot;</tspan><tspan x="360" y="40" class="st8 st9 st10">,</tspan><tspan x="0" y="60" class="st11 st9 st10">      </tspan><tspan x="54" y="60" class="st12 st9 st10">&quot;resource_kind&quot;</tspan><tspan x="189" y="60" class="st8 st9 st10">:</tspan><tspan x="198" y="60" class="st11 st9 st10"> </tspan><tspan x="207" y="60" class="st13 st9 st10">&quot;&lt;target_resource_type&gt;&quot;</tspan><tspan x="423" y="60" class="st8 st9 st10">, </tspan><tspan x="0" y="80" class="st12 st9 st10">      &quot;additional_target_attributes&quot;: </tspan><tspan x="342" y="80" class="st14 st9 st10">[</tspan><tspan x="0" y="100" class="st14 st9 st10">        {</tspan><tspan x="0" y="120" class="st12 st9 st10">          &quot;name&quot;: </tspan><tspan x="162" y="120" class="st13 st9 st10">&quot;&lt;property&gt;&quot;</tspan><tspan x="270" y="120" class="st8 st9 st10">,</tspan><tspan x="0" y="140" class="st12 st9 st10">          &quot;value&quot;: </tspan><tspan x="171" y="140" class="st13 st9 st10">&quot;&lt;value&gt;&quot;</tspan><tspan x="0" y="160" class="st12 st9 st10">        </tspan><tspan x="72" y="160" class="st14 st9 st10">}</tspan><tspan x="0" y="180" class="st14 st9 st10">      ]</tspan><tspan x="0" y="200" class="st14 st9 st10">    },</tspan><tspan x="0" y="220" class="st11 st9 st10">    </tspan><tspan x="36" y="220" class="st12 st9 st10">&quot;customized_defaults&quot;</tspan><tspan x="225" y="220" class="st8 st9 st10">: { </tspan><tspan x="0" y="240" class="st8 st9 st10">      { </tspan><tspan x="0" y="260" class="st11 st9 st10">        </tspan><tspan x="72" y="260" class="st12 st9 st10">&quot;property&quot;</tspan><tspan x="162" y="260" class="st8 st9 st10">: </tspan><tspan x="180" y="260" class="st13 st9 st10">&quot;&lt;main_property&gt;.&lt;sub_property&gt;&quot;</tspan><tspan x="468" y="260" class="st8 st9 st10">, </tspan><tspan x="0" y="280" class="st13 st9 st10 st15">		</tspan><tspan x="72" y="280" class="st12 st9 st10">&quot;value&quot;</tspan><tspan x="135" y="280" class="st13 st9 st10">: &quot;&lt;value&gt;&quot;</tspan><tspan x="0" y="300" class="st8 st9 st10">   	   } </tspan><tspan x="0" y="320" class="st8 st9 st10">    } </tspan><tspan x="0" y="340" class="st8 st9 st10">  } </tspan><tspan x="0" y="360" class="st8 st9 st10">}</tspan></text>
	<g>
		<g>
			<circle class="st5" cx="577.4" cy="61.3" r="10"/>
		</g>
		<g>
			<path class="st16" d="M574.9,65.4v-1.1h2.2v-6l-2.2,1.2l-0.5-1l2.6-1.5h1.4v7.2h2v1.1H574.9z"/>
		</g>
	</g>
	<g>
		<circle class="st6" cx="577.4" cy="130.5" r="10"/>
		<g>
			<path class="st16" d="M580.3,134.7h-5.7v-1.3l2.7-2.4c0.8-0.8,1.3-1.4,1.3-2.2v-0.2c0-0.8-0.5-1.3-1.4-1.3
				c-0.9,0-1.4,0.6-1.6,1.3l-1.2-0.5c0.3-1.1,1.2-2,2.9-2c1.7,0,2.7,1,2.7,2.5c0,1.4-0.9,2.2-2,3.2l-2,1.7h4.2V134.7z"/>
		</g>
	</g>
	<rect x="574.8" y="263.9" class="st7" width="5" height="144"/>
	<g>
		<circle class="st7" cx="577.3" cy="270.7" r="10"/>
		<g>
			<path class="st16" d="M577.1,270c1,0,1.5-0.5,1.5-1.2v-0.1c0-0.8-0.5-1.2-1.3-1.2c-0.8,0-1.3,0.4-1.7,1l-0.9-0.8
				c0.5-0.7,1.3-1.4,2.7-1.4c1.6,0,2.7,0.8,2.7,2.2c0,1.1-0.7,1.7-1.6,1.9v0.1c0.9,0.2,1.8,0.9,1.8,2.1c0,1.5-1.2,2.4-3,2.4
				c-1.6,0-2.3-0.7-2.9-1.5l1-0.8c0.4,0.7,0.9,1.1,1.9,1.1c1,0,1.6-0.5,1.6-1.4v-0.1c0-0.9-0.6-1.3-1.7-1.3h-0.9V270H577.1z"/>
		</g>
	</g>
	<rect x="12.6" y="458" class="st17" width="5" height="98.6"/>
	<circle class="st17" cx="15.1" cy="461.9" r="10"/>
	<text transform="matrix(1 0 0 1 11.5221 465.3962)" class="st16 st18 st19">4</text>
	<text transform="matrix(1 0 0 1 12.1274 20.1345)" class="st20 st21">Rule</text>
	<text transform="matrix(1 0 0 1 574.2474 20.0304)" class="st20 st21">Template</text>
</g>
<g id="Text">
	<text transform="matrix(1 0 0 1 127.0001 402.3156)" class="st1 st22 st10">Enforcement actions</text>
	<text transform="matrix(1 0 0 1 126.9998 260.879)" class="st1 st22 st10">Conditions</text>
	<text transform="matrix(1 0 0 1 127.2416 154.3114)" class="st1 st22 st10">Target</text>
</g>
</svg>
