<?xml version="1.0" encoding="utf-8"?>
<!-- Generator: Adobe Illustrator 26.0.1, SVG Export Plug-In . SVG Version: 6.00 Build 0)  -->
<svg version="1.1" xmlns="http://www.w3.org/2000/svg" xmlns:xlink="http://www.w3.org/1999/xlink" x="0px" y="0px"
	 viewBox="0 0 1370 620" style="enable-background:new 0 0 1370 620;" xml:space="preserve">
<style type="text/css">
	.st0{fill-rule:evenodd;clip-rule:evenodd;fill:#171717;}
	.st1{fill:none;}
	.st2{fill-rule:evenodd;clip-rule:evenodd;fill:#C6C6C6;}
	.st3{fill-rule:evenodd;clip-rule:evenodd;fill:#393939;}
	.st4{fill:none;stroke:#3D3D3D;stroke-linecap:square;}
	.st5{fill:#F4F4F4;}
	.st6{fill-rule:evenodd;clip-rule:evenodd;fill:#FFFFFF;}
	.st7{fill-rule:evenodd;clip-rule:evenodd;fill:#525252;}
	.st8{fill-rule:evenodd;clip-rule:evenodd;fill:#F4F4F4;}
	.st9{fill:#C6C6C6;}
	.st10{font-family:'IBMPlexSans';}
	.st11{font-size:16px;}
	.st12{fill:#D8D8D8;}
	.st13{fill:#161616;}
	.st14{font-size:30px;}
	.st15{fill-rule:evenodd;clip-rule:evenodd;fill:#161616;stroke:#FFFFFF;stroke-width:0.25;stroke-miterlimit:10;}
	.st16{fill-rule:evenodd;clip-rule:evenodd;fill:#0F62FE;}
	.st17{fill:#FFFFFF;}
	.st18{font-size:14px;}
	.st19{fill:#3A6CFC;}
	.st20{fill-rule:evenodd;clip-rule:evenodd;fill:#3A6CFC;}
	.st21{font-family:'IBMPlexSans-Medium';}
	.st22{fill-rule:evenodd;clip-rule:evenodd;fill:#272CD3;}
	.st23{fill-rule:evenodd;clip-rule:evenodd;fill:#161616;}
	.st24{fill-rule:evenodd;clip-rule:evenodd;fill:#E5E5E5;}
	.st25{fill-rule:evenodd;clip-rule:evenodd;fill:#D8D8D8;}
	.st26{enable-background:new    ;}
	.st27{fill-rule:evenodd;clip-rule:evenodd;fill:#2B2B2B;}
	.st28{fill:none;stroke:#E5E5E5;stroke-miterlimit:10;}
	.st29{font-size:15px;}
	.st30{fill:none;stroke:#E5E5E5;stroke-width:0.5;stroke-miterlimit:10;}
	.st31{fill:#E5E5E5;}
	.st32{font-size:13px;}
	.st33{fill-rule:evenodd;clip-rule:evenodd;fill:#FFFFFF;stroke:#DFDFDF;stroke-miterlimit:10;}
	.st34{fill-rule:evenodd;clip-rule:evenodd;fill:#DFDFDF;}
	.st35{fill-rule:evenodd;clip-rule:evenodd;fill:#FFFFFF;stroke:#DFDFDF;stroke-width:0.935;stroke-miterlimit:10;}
	.st36{fill:none;stroke:#E5E5E5;stroke-width:0.9733;stroke-miterlimit:10;}
	.st37{fill:#393939;}
	.st38{fill:#6F6F6F;}
	.st39{fill-rule:evenodd;clip-rule:evenodd;fill:#FFFFFF;stroke:#DFDFDF;stroke-width:0.4312;stroke-miterlimit:10;}
	.st40{fill-rule:evenodd;clip-rule:evenodd;fill:#24A148;}
</style>
<g id="Background_9_">
	<rect id="background_19_" x="30" y="22" class="st0" width="1312" height="48"/>
	<g id="User" transform="translate(1264.000000, 0.000000)">
		<rect id="background_20_" x="30" y="22.1" class="st1" width="48" height="48"/>
		<g id="Icon_8_" transform="translate(14.000000, 14.000000)">
			<g id="icon-color_1_">
				<path id="path-6_1_" class="st2" d="M40,24.6c1.7,0,3.1,1.4,3.1,3.1c0,1.7-1.4,3.1-3.1,3.1s-3.1-1.4-3.1-3.1
					C36.9,26,38.3,24.6,40,24.6L40,24.6z M40,23.4c-2.4,0-4.4,2-4.4,4.4s2,4.4,4.4,4.4s4.4-2,4.4-4.4S42.4,23.4,40,23.4z M46.2,40.9
					H45v-3.1c0-1.7-1.4-3.1-3.1-3.1h-3.8c-1.7,0-3.1,1.4-3.1,3.1v3.1h-1.2v-3.1c0-2.4,2-4.4,4.4-4.4h3.8c2.4,0,4.4,2,4.4,4.4V40.9z"
					/>
			</g>
		</g>
	</g>
	<g id="cost-estimator" transform="translate(1216.000000, 0.000000)">
		<rect id="background_21_" x="30" y="22.1" class="st1" width="48" height="48"/>
		<g id="Icon_9_" transform="translate(14.000000, 14.000000)">
			<path id="Fill_14_" class="st2" d="M47.9,34.8l-1.7-1.7v-2.9c0-3.2-2.4-5.9-5.6-6.2v-1.2h-1.2V24c-3.2,0.4-5.6,3-5.6,6.2v2.9
				l-1.7,1.7c-0.1,0.1-0.2,0.3-0.2,0.4v1.9c0,0.2,0.1,0.3,0.2,0.5c0.1,0.1,0.3,0.2,0.5,0.2h4.4c0,1.7,1.4,3.1,3.1,3.1
				s3.1-1.4,3.1-3.1h4.4c0.2,0,0.3-0.1,0.5-0.2c0.1-0.1,0.2-0.3,0.2-0.5v-1.9C48.1,35.1,48.1,34.9,47.9,34.8L47.9,34.8z M40,39.6
				c-1,0-1.9-0.8-1.9-1.9h3.8C41.9,38.8,41,39.6,40,39.6L40,39.6z M46.9,36.5H33.1v-1l1.7-1.7c0.1-0.1,0.2-0.3,0.2-0.4v-3.1
				c0-2.8,2.2-5,5-5s5,2.2,5,5v3.1c0,0.2,0.1,0.3,0.2,0.4l1.7,1.7V36.5z"/>
		</g>
	</g>
	<g id="terminal" transform="translate(1168.000000, 0.000000)">
		<rect id="background_22_" x="30" y="22.1" class="st1" width="48" height="48"/>
		<g id="Icon_10_" transform="translate(14.000000, 14.000000)">
			<path id="Fill_15_" class="st2" d="M46.2,24.6v15H33.8v-15H46.2L46.2,24.6z M46.2,23.4H33.8c-0.7,0-1.2,0.6-1.2,1.2v15
				c0,0.7,0.6,1.2,1.2,1.2h12.5c0.7,0,1.2-0.6,1.2-1.2v-15C47.5,23.9,46.9,23.4,46.2,23.4z M35.6,36.5h1.2v1.2h-1.2V36.5z
				 M43.1,36.5h1.2v1.2h-1.2V36.5z M35.6,33.4h1.2v1.2h-1.2V33.4z M43.1,33.4h1.2v1.2h-1.2V33.4z M35.6,30.2h1.2v1.2h-1.2V30.2z
				 M39.4,36.5h1.2v1.2h-1.2V36.5z M39.4,33.4h1.2v1.2h-1.2V33.4z M39.4,30.2h1.2v1.2h-1.2V30.2z M43.1,30.2h1.2v1.2h-1.2V30.2z
				 M35.6,26.5h8.8v1.9h-8.8V26.5z"/>
		</g>
	</g>
	<g id="account-switcher-_x28_placeholder_x29_-copy-2" transform="translate(1120.000000, 0.000000)">
		<rect id="background_23_" x="30" y="22.1" class="st1" width="48" height="48"/>
		<g id="Icon_11_" transform="translate(14.000000, 14.000000)">
			<path id="Fill_16_" class="st2" d="M46.2,24.6H33.8c-0.7,0-1.2,0.6-1.2,1.2v12.5c0,0.7,0.6,1.2,1.2,1.2h12.5
				c0.7,0,1.2-0.6,1.2-1.2V25.9C47.5,25.2,46.9,24.6,46.2,24.6z M46.2,25.9v2.5H33.8v-2.5H46.2z M33.8,38.4v-8.7h12.5v8.7H33.8z
				 M36.7,32.2l1.8,1.8l-1.8,1.8l0.9,0.9l2.6-2.7l-2.6-2.6L36.7,32.2L36.7,32.2z"/>
		</g>
	</g>
	<g id="Actions-_x2F_-Navigation-_x2F_-chevron--down-_x2F_-20" transform="translate(948.000000, 14.000000)">
		<polygon id="Fill_17_" class="st2" points="40,28.6 46.2,34.8 45.4,35.7 40,30.3 34.6,35.7 33.8,34.8 		"/>
	</g>
	<g id="Actions-_x2F_-Navigation-_x2F_-chevron--down-_x2F_-20_1_" transform="translate(1100.000000, 14.000000)">
		<polygon id="Fill_18_" class="st2" points="40,35.7 33.8,29.4 34.6,28.6 40,33.9 45.4,28.6 46.2,29.4 		"/>
	</g>
	<rect id="Rectangle-Copy" x="324" y="22" class="st3" width="352" height="48"/>
	<g id="search" transform="translate(598.000000, 0.000000)">
		<rect id="background_24_" x="30" y="22" class="st1" width="48" height="48"/>
		<g id="Icon_12_" transform="translate(14.000000, 14.000000)">
			<path id="Fill_19_" class="st2" d="M48.8,39.9L44,35.1c2.3-2.8,2.1-7-0.7-9.5c-2.7-2.5-6.9-2.4-9.5,0.2s-2.7,6.8-0.2,9.5
				c2.5,2.7,6.6,3,9.5,0.7l4.7,4.7L48.8,39.9z M33.1,30.8c0-3.1,2.5-5.6,5.6-5.6s5.6,2.5,5.6,5.6s-2.5,5.6-5.6,5.6
				S33.1,33.9,33.1,30.8z"/>
		</g>
	</g>
	<line id="Line" class="st4" x1="179.5" y1="34" x2="179.5" y2="58"/>
	<g id="Group_2_" transform="translate(48.840000, 18.640000)">
		<path id="Cloud" class="st5" d="M65.1,32.5c1.8,0,2.9-0.9,3.6-2.3l-1.5-0.9c-0.3,0.9-1,1.6-2.1,1.6c-1.4,0-2.3-1-2.3-2.6v-1.5
			c0-1.7,0.9-2.7,2.3-2.7c1.1,0,1.7,0.6,2,1.5l1.6-0.8c-0.7-1.5-1.8-2.3-3.6-2.3c-2.6,0-4.2,1.8-4.2,5.1S62.5,32.5,65.1,32.5z
			 M73.1,32.4v-1.4h-1V22h-1.8v8.6c0,1.1,0.6,1.8,1.8,1.8H73.1z M77.5,32.5c2.1,0,3.4-1.5,3.4-3.8c0-2.3-1.3-3.8-3.4-3.8
			c-2.1,0-3.4,1.5-3.4,3.8C74.1,31,75.4,32.5,77.5,32.5z M77.5,31.1c-0.9,0-1.5-0.6-1.5-1.7V28c0-1.1,0.6-1.7,1.5-1.7
			c0.9,0,1.5,0.6,1.5,1.7v1.4C79,30.5,78.5,31.1,77.5,31.1z M84.9,32.5c1.2,0,1.8-0.7,2-1.4H87v1.2h1.8v-7.3H87v4.8
			c0,0.8-0.7,1.2-1.4,1.2c-0.9,0-1.2-0.5-1.2-1.6v-4.4h-1.8v4.6C82.6,31.5,83.4,32.5,84.9,32.5z M93.5,32.5c1,0,1.7-0.6,2-1.4h0.1
			v1.2h1.8V22h-1.8v4.3h-0.1c-0.3-0.8-1-1.4-2-1.4c-1.8,0-2.9,1.4-2.9,3.8C90.6,31.1,91.7,32.5,93.5,32.5z M94.1,31
			c-0.9,0-1.6-0.7-1.6-1.7v-1.3c0-1,0.6-1.7,1.6-1.7c0.9,0,1.5,0.5,1.5,1.2v2.3C95.6,30.6,94.9,31,94.1,31z"/>
		<path id="IBM" class="st5" d="M33.9,32.4v-1h-1.4v-7.8h1.4v-1H30v1h1.4v7.8H30v1H33.9z M40.7,32.4c1.4,0,2.5-1.2,2.5-2.8
			c0-1.6-1.2-2.2-1.9-2.3v-0.1c0.6-0.1,1.6-0.6,1.6-2.1c0-1.5-1-2.5-2.6-2.5h-4v9.8H40.7z M40.1,26.8h-2.7v-3.2h2.7
			c0.9,0,1.5,0.5,1.5,1.4v0.5C41.6,26.3,41,26.8,40.1,26.8z M40.3,31.3h-2.9v-3.5h2.9c1,0,1.6,0.5,1.6,1.5v0.5
			C41.9,30.8,41.3,31.3,40.3,31.3z M46.7,32.4v-8.2h0.1l0.8,1.6l2.3,4.3l2.3-4.3l0.8-1.6h0.1v8.2h1.1v-9.8h-1.5l-2.8,5.3h-0.1
			l-2.8-5.3h-1.5v9.8H46.7z"/>
	</g>
	<g id="menu">
		<rect id="background_25_" x="30" y="22" class="st1" width="48" height="48"/>
		<g id="Icon_13_" transform="translate(14.000000, 14.000000)">
			<path id="Fill_20_" class="st6" d="M32,36.8h16V38H32V36.8z M32,33.2h16v1.2H32V33.2z M32,29.6h16v1.2H32V29.6z M32,26h16v1.2H32
				V26z"/>
		</g>
	</g>
	<rect id="Rectangle_4_" x="766" y="41.6" class="st7" width="44.8" height="9"/>
	<rect id="Rectangle_5_" x="828.1" y="41.6" class="st7" width="63.9" height="9"/>
	<rect id="Rectangle_7_" x="1015" y="41.6" class="st7" width="106" height="9"/>
	<g id="tile-_x2F_-selectable-_x2F_-01-enabled">
		<rect id="Background_12_" x="29.7" y="71.1" class="st8" width="1312.3" height="548.9"/>
	</g>
	<text transform="matrix(1 0 0 1 913 51.5503)" class="st9 st10 st11">Manage</text>
	<text transform="matrix(1 0 0 1 693.0444 51.55)" class="st12 st10 st11">Catalog</text>
	<rect id="side-panel-background_1_" x="76" y="181.1" class="st6" width="1218" height="354.2"/>
	<rect id="side-panel-background_2_" x="77" y="565" class="st6" width="759.7" height="55"/>
	<rect id="side-panel-background_3_" x="864.4" y="565" class="st6" width="429.6" height="55"/>
	<text transform="matrix(1 0 0 1 78.84 135.781)" class="st13 st10 st14">Dashboard</text>
	<g id="Actions-_x2F_-Navigation-_x2F_-chevron--down-_x2F_-20_2_" transform="translate(1100.000000, 14.000000)">
		<g>
			<polygon id="Fill_30_" class="st15" points="-853.7,117.5 -862.1,109.1 -860.9,107.9 -853.7,115.2 -846.4,107.9 -845.2,109.1 			
				"/>
		</g>
	</g>
	<rect id="side-panel-background_4_" x="1093" y="106.6" class="st16" width="161.2" height="40.3"/>
	<text transform="matrix(1 0 0 1 1104.9248 130.9485)" class="st17 st10 st18">Create resource</text>
	<text transform="matrix(1 0 0 1 1233.8137 130.9487)" class="st17 st10 st18">+</text>
	<text transform="matrix(1 0 0 1 968.9097 130.9487)" class="st19 st10 st18">Upgrade account</text>
	<text transform="matrix(1 0 0 1 837.1765 130.9485)" class="st19 st10 st18">Edit dashboard</text>
	<g id="Icon_7_" transform="translate(8.000000, 8.000000)">
		<path id="Fill_12_" class="st20" d="M929.8,124.2h14v1h-14V124.2z M941.5,115.7c0.4-0.4,0.4-1,0-1.4l-1.8-1.8
			c-0.4-0.4-1-0.4-1.4,0l-7.5,7.5v3.2h3.2L941.5,115.7z M939,113.2l1.8,1.8l-1.5,1.5l-1.8-1.8L939,113.2z M931.8,122.2v-1.8l5-5
			l1.8,1.8l-5,5H931.8z"/>
	</g>
	<text transform="matrix(1 0 0 1 92.0201 205.2512)" class="st13 st21 st18">For you</text>
	<rect id="side-panel-background_5_" x="98.6" y="223.1" class="st22" width="218.6" height="291.9"/>
	<text transform="matrix(1 0 0 1 93.2242 589.2035)" class="st13 st21 st18">Resource summary</text>
	<text transform="matrix(1 0 0 1 872.656 589.203)" class="st13 st21 st18">Planned maintenance</text>
	<g id="icon-button-3" transform="translate(26.000000, 8.000000)">
		<rect id="Background" x="1236.1" y="102.7" class="st1" width="32" height="32"/>
		<g id="Icon" transform="translate(8.000000, 8.000000)">
			<path id="Fill_4_" class="st23" d="M1244.1,106.7c0.6,0,1-0.4,1-1c0-0.6-0.4-1-1-1c-0.6,0-1,0.4-1,1
				C1243.1,106.3,1243.6,106.7,1244.1,106.7z M1244.1,111.7c0.6,0,1-0.4,1-1c0-0.6-0.4-1-1-1c-0.6,0-1,0.4-1,1
				C1243.1,111.3,1243.6,111.7,1244.1,111.7z M1244.1,116.7c0.6,0,1-0.4,1-1s-0.4-1-1-1c-0.6,0-1,0.4-1,1S1243.6,116.7,1244.1,116.7
				z"/>
		</g>
	</g>
	<rect id="side-panel-background_7_" x="336.3" y="223.1" class="st8" width="218.6" height="291.9"/>
	<rect id="side-panel-background_8_" x="574" y="223.1" class="st8" width="218.6" height="291.9"/>
	<rect id="side-panel-background_9_" x="811.8" y="223.1" class="st8" width="218.6" height="291.9"/>
	<rect id="side-panel-background_10_" x="1049.5" y="223.1" class="st8" width="218.6" height="291.9"/>
	<text transform="matrix(1 0 0 1 774.8267 589.2946)" class="st19 st10 st18">View all</text>
	<text transform="matrix(1 0 0 1 1232.4517 589.2946)" class="st19 st10 st18">View all</text>
	<rect id="Rectangle_28_" x="346" y="330.7" class="st24" width="185" height="11"/>
	<rect id="Rectangle_29_" x="346" y="310.7" class="st25" width="120" height="11"/>
	<rect id="Rectangle_30_" x="346" y="350.7" class="st24" width="162.6" height="11"/>
	<path d="M377.6,259.8c-2.5-4.7-8.4-6.5-13.2-4c-3,1.6-4.9,4.6-5.1,7.9c-3.7,0.4-6.4,3.7-6,7.4c0.4,3.4,3.3,6,6.7,6h16
		c4.8,0,8.7-3.9,8.8-8.7C384.8,264.2,381.7,260.6,377.6,259.8z M376,275.7h-16c-2.9,0-5.2-2.3-5.2-5.2c0-2.6,1.9-4.9,4.6-5.2
		c0.1,1.3,0.5,2.6,1.1,3.8c0.2,0.4,0.6,0.5,1,0.3s0.5-0.6,0.3-1c0,0,0,0,0,0c-2.1-4-0.6-9,3.4-11.2c3.7-2,8.2-0.9,10.6,2.5
		c-2.4,0.1-4.7,1.1-6.3,3c-0.3,0.3-0.3,0.8,0,1.1c0.3,0.3,0.8,0.3,1.1,0c0,0,0,0,0,0c2.6-3,7.2-3.3,10.2-0.6c3,2.6,3.3,7.2,0.6,10.2
		C380.1,274.8,378.1,275.7,376,275.7z"/>
	<path d="M384.9,256.4c-0.2-0.4-0.7-0.5-1-0.3c0,0,0,0,0,0l-3,1.7c-0.4,0.2-0.5,0.7-0.3,1s0.7,0.5,1,0.3c0,0,0,0,0,0l3-1.7
		C385,257.3,385.1,256.8,384.9,256.4z"/>
	<path d="M375.7,254.1c0.4,0.2,0.8,0.1,1-0.3c0,0,0,0,0,0l1.7-3c0.2-0.4,0.1-0.8-0.3-1c-0.4-0.2-0.8-0.1-1,0.3l-1.7,3
		C375.2,253.4,375.3,253.9,375.7,254.1z"/>
	<path d="M369,252.3c0.4,0,0.8-0.3,0.8-0.8V248c0-0.4-0.3-0.8-0.8-0.8c-0.4,0-0.8,0.3-0.8,0.8c0,0,0,0,0,0v3.5
		C368.2,251.9,368.6,252.3,369,252.3z"/>
	<path d="M361.3,253.8c0.2,0.4,0.7,0.5,1,0.3c0.4-0.2,0.5-0.7,0.3-1l-1.7-3c-0.2-0.4-0.7-0.5-1-0.3c-0.4,0.2-0.5,0.7-0.3,1
		c0,0,0,0,0,0L361.3,253.8z"/>
	<path d="M357.2,257.9l-3-1.7c-0.4-0.2-0.8-0.1-1,0.3c-0.2,0.4-0.1,0.8,0.3,1c0,0,0,0,0,0l3,1.7c0.4,0.2,0.8,0.1,1-0.3
		C357.7,258.6,357.5,258.1,357.2,257.9C357.2,257.9,357.2,257.9,357.2,257.9L357.2,257.9z"/>
	<rect id="Rectangle_24_" x="586.9" y="330.7" class="st24" width="196.1" height="11"/>
	<rect id="Rectangle_6_" x="586.9" y="310.7" class="st25" width="120" height="11"/>
	<rect id="Rectangle_3_" x="586.9" y="350.7" class="st24" width="162.6" height="11"/>
	<path d="M616.5,259.8c-2.5-4.7-8.4-6.5-13.2-4c-3,1.6-4.9,4.6-5.1,7.9c-3.7,0.4-6.4,3.7-6,7.4c0.4,3.4,3.3,6,6.7,6h16
		c4.8,0,8.7-3.9,8.8-8.7C623.7,264.2,620.7,260.6,616.5,259.8z M614.9,275.7h-16c-2.9,0-5.2-2.3-5.2-5.2c0-2.6,1.9-4.9,4.6-5.2
		c0.1,1.3,0.5,2.6,1.1,3.8c0.2,0.4,0.6,0.5,1,0.3c0.4-0.2,0.5-0.6,0.3-1c0,0,0,0,0,0c-2.1-4-0.6-9,3.4-11.2c3.7-2,8.2-0.9,10.6,2.5
		c-2.4,0.1-4.7,1.1-6.3,3c-0.3,0.3-0.3,0.8,0,1.1c0.3,0.3,0.8,0.3,1.1,0c0,0,0,0,0,0c2.6-3,7.2-3.3,10.2-0.6c3,2.6,3.3,7.2,0.6,10.2
		C619,274.8,617,275.7,614.9,275.7z"/>
	<path d="M623.8,256.4c-0.2-0.4-0.7-0.5-1-0.3c0,0,0,0,0,0l-3,1.7c-0.4,0.2-0.5,0.7-0.3,1s0.7,0.5,1,0.3c0,0,0,0,0,0l3-1.7
		C623.9,257.3,624,256.8,623.8,256.4z"/>
	<path d="M614.6,254.1c0.4,0.2,0.8,0.1,1-0.3c0,0,0,0,0,0l1.7-3c0.2-0.4,0.1-0.8-0.3-1c-0.4-0.2-0.8-0.1-1,0.3l-1.7,3
		C614.1,253.4,614.2,253.9,614.6,254.1z"/>
	<path d="M607.9,252.3c0.4,0,0.8-0.3,0.8-0.8V248c0-0.4-0.3-0.8-0.8-0.8c-0.4,0-0.8,0.3-0.8,0.8c0,0,0,0,0,0v3.5
		C607.2,251.9,607.5,252.3,607.9,252.3z"/>
	<path d="M600.2,253.8c0.2,0.4,0.7,0.5,1,0.3c0.4-0.2,0.5-0.7,0.3-1l-1.7-3c-0.2-0.4-0.7-0.5-1-0.3c-0.4,0.2-0.5,0.7-0.3,1
		c0,0,0,0,0,0L600.2,253.8z"/>
	<path d="M596.1,257.9l-3-1.7c-0.4-0.2-0.8-0.1-1,0.3c-0.2,0.4-0.1,0.8,0.3,1c0,0,0,0,0,0l3,1.7c0.4,0.2,0.8,0.1,1-0.3
		C596.6,258.6,596.5,258.1,596.1,257.9C596.1,257.9,596.1,257.9,596.1,257.9L596.1,257.9z"/>
	<rect id="Rectangle_37_" x="826.1" y="330.7" class="st24" width="196.1" height="11"/>
	<rect id="Rectangle_36_" x="826.1" y="310.7" class="st25" width="120" height="11"/>
	<rect id="Rectangle_35_" x="826.1" y="350.7" class="st24" width="147.1" height="11"/>
	<path d="M856,259.8c-2.5-4.7-8.4-6.5-13.2-4c-3,1.6-4.9,4.6-5.1,7.9c-3.7,0.4-6.4,3.7-6,7.4c0.4,3.4,3.3,6,6.7,6h16
		c4.8,0,8.7-3.9,8.8-8.7C863.2,264.2,860.1,260.6,856,259.8z M854.4,275.7h-16c-2.9,0-5.2-2.3-5.2-5.2c0-2.6,1.9-4.9,4.6-5.2
		c0.1,1.3,0.5,2.6,1.1,3.8c0.2,0.4,0.6,0.5,1,0.3c0.4-0.2,0.5-0.6,0.3-1c0,0,0,0,0,0c-2.1-4-0.6-9,3.4-11.2c3.7-2,8.2-0.9,10.6,2.5
		c-2.4,0.1-4.7,1.1-6.3,3c-0.3,0.3-0.3,0.8,0,1.1c0.3,0.3,0.8,0.3,1.1,0c0,0,0,0,0,0c2.6-3,7.2-3.3,10.2-0.6c3,2.6,3.3,7.2,0.6,10.2
		C858.5,274.8,856.5,275.7,854.4,275.7z"/>
	<path d="M863.3,256.4c-0.2-0.4-0.7-0.5-1-0.3c0,0,0,0,0,0l-3,1.7c-0.4,0.2-0.5,0.7-0.3,1s0.7,0.5,1,0.3c0,0,0,0,0,0l3-1.7
		C863.4,257.3,863.5,256.8,863.3,256.4z"/>
	<path d="M854.1,254.1c0.4,0.2,0.8,0.1,1-0.3c0,0,0,0,0,0l1.7-3c0.2-0.4,0.1-0.8-0.3-1c-0.4-0.2-0.8-0.1-1,0.3l-1.7,3
		C853.6,253.4,853.7,253.9,854.1,254.1z"/>
	<path d="M847.4,252.3c0.4,0,0.8-0.3,0.8-0.8V248c0-0.4-0.3-0.8-0.8-0.8c-0.4,0-0.8,0.3-0.8,0.8c0,0,0,0,0,0v3.5
		C846.6,251.9,847,252.3,847.4,252.3z"/>
	<path d="M839.7,253.8c0.2,0.4,0.7,0.5,1,0.3c0.4-0.2,0.5-0.7,0.3-1l-1.7-3c-0.2-0.4-0.7-0.5-1-0.3c-0.4,0.2-0.5,0.7-0.3,1
		c0,0,0,0,0,0L839.7,253.8z"/>
	<path d="M835.6,257.9l-3-1.7c-0.4-0.2-0.8-0.1-1,0.3c-0.2,0.4-0.1,0.8,0.3,1c0,0,0,0,0,0l3,1.7c0.4,0.2,0.8,0.1,1-0.3
		C836.1,258.6,835.9,258.1,835.6,257.9C835.6,257.9,835.6,257.9,835.6,257.9L835.6,257.9z"/>
	<rect id="Rectangle_40_" x="1060.7" y="330.7" class="st24" width="185.3" height="11"/>
	<rect id="Rectangle_39_" x="1060.7" y="310.7" class="st25" width="120" height="11"/>
	<rect id="Rectangle_38_" x="1060.7" y="350.7" class="st24" width="162.6" height="11"/>
	<path d="M1090.3,259.8c-2.5-4.7-8.4-6.5-13.2-4c-3,1.6-4.9,4.6-5.1,7.9c-3.7,0.4-6.4,3.7-6,7.4c0.4,3.4,3.3,6,6.7,6h16
		c4.8,0,8.7-3.9,8.8-8.7C1097.5,264.2,1094.5,260.6,1090.3,259.8z M1088.7,275.7h-16c-2.9,0-5.2-2.3-5.2-5.2c0-2.6,1.9-4.9,4.6-5.2
		c0.1,1.3,0.5,2.6,1.1,3.8c0.2,0.4,0.6,0.5,1,0.3s0.5-0.6,0.3-1c0,0,0,0,0,0c-2.1-4-0.6-9,3.4-11.2c3.7-2,8.2-0.9,10.6,2.5
		c-2.4,0.1-4.7,1.1-6.3,3c-0.3,0.3-0.3,0.8,0,1.1c0.3,0.3,0.8,0.3,1.1,0c0,0,0,0,0,0c2.6-3,7.2-3.3,10.2-0.6c3,2.6,3.3,7.2,0.6,10.2
		C1092.8,274.8,1090.8,275.7,1088.7,275.7z"/>
	<path d="M1097.6,256.4c-0.2-0.4-0.7-0.5-1-0.3c0,0,0,0,0,0l-3,1.7c-0.4,0.2-0.5,0.7-0.3,1s0.7,0.5,1,0.3c0,0,0,0,0,0l3-1.7
		C1097.7,257.3,1097.9,256.8,1097.6,256.4z"/>
	<path d="M1088.4,254.1c0.4,0.2,0.8,0.1,1-0.3c0,0,0,0,0,0l1.7-3c0.2-0.4,0.1-0.8-0.3-1c-0.4-0.2-0.8-0.1-1,0.3l-1.7,3
		C1087.9,253.4,1088.1,253.9,1088.4,254.1z"/>
	<path d="M1081.7,252.3c0.4,0,0.8-0.3,0.8-0.8V248c0-0.4-0.3-0.8-0.8-0.8c-0.4,0-0.8,0.3-0.8,0.8c0,0,0,0,0,0v3.5
		C1081,251.9,1081.3,252.3,1081.7,252.3z"/>
	<path d="M1074,253.8c0.2,0.4,0.7,0.5,1,0.3c0.4-0.2,0.5-0.7,0.3-1l-1.7-3c-0.2-0.4-0.7-0.5-1-0.3c-0.4,0.2-0.5,0.7-0.3,1
		c0,0,0,0,0,0L1074,253.8z"/>
	<path d="M1069.9,257.9l-3-1.7c-0.4-0.2-0.8-0.1-1,0.3c-0.2,0.4-0.1,0.8,0.3,1c0,0,0,0,0,0l3,1.7c0.4,0.2,0.8,0.1,1-0.3
		C1070.4,258.6,1070.3,258.1,1069.9,257.9C1069.9,257.9,1069.9,257.9,1069.9,257.9L1069.9,257.9z"/>
	<text transform="matrix(1 0 0 1 113.641 275.691)" class="st17 st10 st14">Build</text>
	<text transform="matrix(1 0 0 1 116.4305 321.6771)" class="st26"><tspan x="0" y="0" class="st17 st10 st18">Explore IBM Cloud with this</tspan><tspan x="0" y="16.8" class="st17 st10 st18">selection of easy starter</tspan><tspan x="0" y="33.6" class="st17 st10 st18">tutorials and services.</tspan></text>
	<rect id="Rectangle_41_" x="586.9" y="370.7" class="st24" width="178.9" height="11"/>
	<rect id="Rectangle_42_" x="826.1" y="370.7" class="st24" width="90.8" height="11"/>
	<rect id="Rectangle_43_" x="1060.7" y="370.7" class="st24" width="196.1" height="11"/>
	<rect id="Rectangle_44_" x="1060.7" y="390.7" class="st24" width="175.2" height="11"/>
	<rect id="Rectangle_45_" x="346" y="370.7" class="st24" width="196.1" height="11"/>
	<rect id="Rectangle_46_" x="586.9" y="390.7" class="st24" width="170.2" height="11"/>
	<path class="st25" d="M415.4,499.3h-62.2c-3.9,0-7.1-3.2-7.1-7.1l0,0c0-3.9,3.2-7.1,7.1-7.1h62.2c3.9,0,7.1,3.2,7.1,7.1l0,0
		C422.5,496.1,419.3,499.3,415.4,499.3z"/>
	<path class="st25" d="M496.3,499.3H434c-3.9,0-7.1-3.2-7.1-7.1l0,0c0-3.9,3.2-7.1,7.1-7.1h62.2c3.9,0,7.1,3.2,7.1,7.1l0,0
		C503.4,496.1,500.2,499.3,496.3,499.3z"/>
	<path class="st25" d="M656.3,499.3H594c-3.9,0-7.1-3.2-7.1-7.1l0,0c0-3.9,3.2-7.1,7.1-7.1h62.2c3.9,0,7.1,3.2,7.1,7.1l0,0
		C663.4,496.1,660.2,499.3,656.3,499.3z"/>
	<path class="st25" d="M895.5,499.3h-62.2c-3.9,0-7.1-3.2-7.1-7.1l0,0c0-3.9,3.2-7.1,7.1-7.1h62.2c3.9,0,7.1,3.2,7.1,7.1l0,0
		C902.6,496.1,899.4,499.3,895.5,499.3z"/>
	<rect id="Rectangle_47_" x="1060.7" y="410.7" class="st24" width="107" height="11"/>
</g>
<g id="Manage_drop_down">
	<rect id="background_26_" x="904.4" y="70" class="st0" width="213.9" height="266.2"/>
	<rect id="Rectangle_33_" x="904.4" y="305.5" class="st27" width="213.9" height="26.1"/>
	<rect id="background_27_" x="905.1" y="23" class="st28" width="101" height="47.1"/>
	<text transform="matrix(1 0 0 1 913.3057 323.1306)" class="st12 st10 st29">Security and Compliance</text>
	<line class="st30" x1="913.3" y1="240.8" x2="1109.5" y2="240.8"/>
	<rect id="Rectangle_23_" x="913.3" y="283.5" class="st7" width="196.1" height="11"/>
	<rect id="Rectangle_25_" x="913.3" y="253.8" class="st7" width="101.7" height="11"/>
	<text transform="matrix(1 0 0 1 913.3054 232.1599)" class="st31 st10 st32">Security and access</text>
	<rect id="Rectangle_26_" x="913.3" y="88.1" class="st7" width="80.9" height="11"/>
	<rect id="Rectangle_27_" x="913.3" y="121.5" class="st7" width="127.6" height="11"/>
	<rect id="Rectangle_31_" x="913.3" y="154.9" class="st7" width="98.1" height="11"/>
	<rect id="Rectangle_32_" x="913.3" y="188.4" class="st7" width="109" height="11"/>
</g>
<g id="Left-nav">
	<rect id="side-panel-background_11_" x="29" y="70" class="st33" width="203.6" height="549.8"/>
	<rect id="background_18_" x="30" y="406" class="st34" width="202.6" height="32"/>
	<rect id="side-panel-background_6_" x="228.4" y="101.3" class="st35" width="203.6" height="480.7"/>
	<rect id="background_28_" x="228.9" y="244.8" class="st34" width="202.6" height="32"/>
	<text transform="matrix(1 0 0 1 57.1012 106.3911)" class="st13 st21 st18">Dashboard</text>
	<text transform="matrix(1 0 0 1 55.8969 136.1199)" class="st13 st21 st18">Resource list</text>
	<rect id="Rectangle_34_" x="37.2" y="173.3" class="st24" width="185" height="11"/>
	<rect id="Rectangle_48_" x="37.2" y="206.2" class="st24" width="185" height="11"/>
	<rect id="Rectangle_49_" x="37.2" y="239.1" class="st24" width="185" height="11"/>
	<rect id="Rectangle_50_" x="37.2" y="272" class="st24" width="185" height="11"/>
	<rect id="Rectangle_51_" x="37.2" y="304.9" class="st24" width="185" height="11"/>
	<rect id="Rectangle_52_" x="37.2" y="337.8" class="st24" width="185" height="11"/>
	<rect id="Rectangle_53_" x="37.2" y="370.7" class="st24" width="185" height="11"/>
	<rect id="Rectangle_55_" x="37.2" y="462.4" class="st24" width="185" height="11"/>
	<rect id="Rectangle_54_" x="37.2" y="495.3" class="st24" width="185" height="11"/>
	<rect id="Rectangle_57_" x="37.2" y="563.5" class="st24" width="185" height="11"/>
	<rect id="Rectangle_56_" x="37.2" y="596.4" class="st24" width="185" height="11"/>
	<line class="st36" x1="36.5" y1="154.9" x2="222.3" y2="154.9"/>
	<g>
		<rect x="41.4" y="127.4" width="8.2" height="0.9"/>
		<rect x="41.4" y="135.6" width="8.2" height="0.9"/>
		<rect x="41.4" y="131.5" width="8.2" height="0.9"/>
		<rect x="38.7" y="131.5" width="0.9" height="0.9"/>
		<rect x="38.7" y="127.4" width="0.9" height="0.9"/>
		<rect x="38.7" y="135.6" width="0.9" height="0.9"/>
	</g>
	<line class="st36" x1="36.5" y1="537" x2="222.3" y2="537"/>
	<g id="Actions-_x2F_-Navigation-_x2F_-chevron--down-_x2F_-20_3_" transform="translate(948.000000, 14.000000)">
		<polygon id="Fill_11_" class="st3" points="-736.5,407.7 -742.8,413.9 -743.7,413.1 -738.3,407.7 -743.7,402.3 -742.8,401.4 		"/>
	</g>
	<text transform="matrix(1 0 0 1 45.3876 426.6903)" class="st37 st21 st32">Security and Compliance</text>
	<line class="st36" x1="237.4" y1="134" x2="423.2" y2="134"/>
	<text transform="matrix(1 0 0 1 237.3583 192.6438)" class="st13 st21 st18">Dashboard</text>
	<text transform="matrix(1 0 0 1 237.3583 161.4653)" class="st13 st21 st18">Overview</text>
	<text transform="matrix(1 0 0 1 237.3586 124.3396)" class="st38 st10 st32">Getting started</text>
	<line class="st36" x1="237.4" y1="239" x2="423.2" y2="239"/>
	<text transform="matrix(1 0 0 1 237.3585 294.4788)" class="st13 st21 st18">Configure</text>
	<text transform="matrix(1 0 0 1 237.3585 265.8005)" class="st13 st21 st18">Assess</text>
	<text transform="matrix(1 0 0 1 237.3584 229.3142)" class="st38 st10 st32">Manage posture</text>
	<line class="st36" x1="237.4" y1="347.8" x2="423.2" y2="347.8"/>
	<text transform="matrix(1 0 0 1 237.3585 405.827)" class="st13 st21 st18">Configure</text>
	<text transform="matrix(1 0 0 1 237.3585 375.1819)" class="st13 st21 st18">Results</text>
	<text transform="matrix(1 0 0 1 237.3584 338.0562)" class="st38 st10 st32">Govern resources</text>
	<line class="st36" x1="237.4" y1="460.6" x2="423.2" y2="460.6"/>
	<text transform="matrix(1 0 0 1 237.3583 519.2321)" class="st13 st21 st18">Findings</text>
	<text transform="matrix(1 0 0 1 237.3583 488.0536)" class="st13 st21 st18">Insights</text>
	<text transform="matrix(1 0 0 1 237.3586 450.9279)" class="st38 st10 st32">Gain insight</text>
	<text transform="matrix(1 0 0 1 237.3585 548.9365)" class="st13 st21 st18">Configure</text>
	<line class="st36" x1="237.3" y1="570.6" x2="423.1" y2="570.6"/>
	<g id="Actions-_x2F_-Navigation-_x2F_-chevron--down-_x2F_-20_5_" transform="translate(948.000000, 14.000000)">
		<polygon id="Fill_24_" class="st3" points="-531.7,247.7 -537.9,253.9 -538.8,253 -533.4,247.7 -538.8,242.3 -537.9,241.4 		"/>
	</g>
	<g id="Actions-_x2F_-Navigation-_x2F_-chevron--down-_x2F_-20_6_" transform="translate(948.000000, 14.000000)">
		<polygon id="Fill_25_" class="st3" points="-531.7,276.3 -537.9,282.6 -538.8,281.7 -533.4,276.3 -538.8,271 -537.9,270.1 		"/>
	</g>
	<g id="Actions-_x2F_-Navigation-_x2F_-chevron--down-_x2F_-20_7_" transform="translate(948.000000, 14.000000)">
		<polygon id="Fill_26_" class="st3" points="-531.7,387.7 -537.9,393.9 -538.8,393.1 -533.4,387.7 -538.8,382.3 -537.9,381.4 		"/>
	</g>
	<g id="Actions-_x2F_-Navigation-_x2F_-chevron--down-_x2F_-20_8_" transform="translate(948.000000, 14.000000)">
		<polygon id="Fill_27_" class="st3" points="-531.7,530.8 -537.9,537 -538.8,536.2 -533.4,530.8 -538.8,525.4 -537.9,524.5 		"/>
	</g>
	<rect id="side-panel-background_13_" x="423.2" y="239" class="st39" width="203.6" height="102.3"/>
	<text transform="matrix(1 0 0 1 437.1403 296.8424)" class="st13 st21 st18">Remediation</text>
	<text transform="matrix(1 0 0 1 437.1403 265.6639)" class="st13 st21 st18">Validation scan results</text>
	<rect id="background_30_" x="423.2" y="305.7" class="st34" width="202.6" height="32"/>
	<text transform="matrix(1 0 0 1 437.1405 325.5469)" class="st13 st21 st18">Inventory</text>
	<g>
		<path d="M43.9,102.9v3.6h-4.8v-3.6H43.9 M43.9,102h-4.8c-0.5,0-1,0.4-1,0.9v3.6c0,0.5,0.4,0.9,1,0.9h4.8c0.5,0,1-0.4,1-0.9v-3.6
			C44.9,102.4,44.5,102,43.9,102z"/>
		<path d="M49.2,97.9v2.3h-4.8v-2.3H49.2 M49.2,97h-4.8c-0.5,0-1,0.4-1,0.9v2.3c0,0.5,0.4,0.9,1,0.9h4.8c0.5,0,1-0.4,1-0.9v-2.3
			C50.2,97.4,49.8,97,49.2,97z"/>
		<path d="M49.2,102.9v2.3h-2.4v-2.3H49.2 M49.2,102h-2.4c-0.5,0-1,0.4-1,0.9v2.3c0,0.5,0.4,0.9,1,0.9h2.4c0.5,0,1-0.4,1-0.9v-2.3
			C50.2,102.4,49.8,102,49.2,102z"/>
		<path d="M41.5,97.9v2.3h-2.4v-2.3H41.5 M41.5,97h-2.4c-0.5,0-1,0.4-1,0.9v2.3c0,0.5,0.4,0.9,1,0.9h2.4c0.5,0,1-0.4,1-0.9v-2.3
			C42.5,97.4,42.1,97,41.5,97z"/>
	</g>
</g>
<g id="Numbers">
	<circle class="st40" cx="28.4" cy="67.5" r="21.2"/>
	<text transform="matrix(1 0 0 1 24.1414 71.6348)" class="st17 st21 st18">1</text>
	<circle class="st40" cx="899.8" cy="67.2" r="21.2"/>
	<text transform="matrix(1 0 0 1 895.5635 71.3809)" class="st17 st21 st18">3</text>
	<circle class="st40" cx="682" cy="67.2" r="21.2"/>
	<text transform="matrix(1 0 0 1 677.7172 71.3809)" class="st17 st21 st18">2</text>
</g>
</svg>
