<svg id="Layer_1" data-name="Layer 1" xmlns="http://www.w3.org/2000/svg" width="250" height="100" viewBox="0 0 250 100"><defs><style>.cls-1{fill:#242b66;}.cls-2{fill:#525352;}.cls-3{fill:none;stroke:#242b66;stroke-miterlimit:10;stroke-width:1.968px;}</style></defs><path class="cls-1" d="M19,38a1,1,0,0,1-.92-.62L13.33,26H9V24h5a1,1,0,0,1,.92.62L19,34.28l8.06-21.63a.99.99,0,0,1,1.87.03L32.72,24H37v2H32a1,1,0,0,1-.95-.68L28,16,19.94,37.35A1,1,0,0,1,19,38Z"/><path class="cls-1" d="M51.8789,22.584l-.7275-2.314H47.9277l-.7148,2.314H45.4707l3.041-9.0742h2.1328L53.66,22.584ZM49.5654,15.07H49.5l-1.1562,3.731h2.3916Z"/><path class="cls-1" d="M57.5732,22.74a3.416,3.416,0,0,1-1.3388-.2465,2.59,2.59,0,0,1-.9824-.7154,3.2278,3.2278,0,0,1-.6036-1.1245,4.8729,4.8729,0,0,1-.2089-1.4751,4.8131,4.8131,0,0,1,.2089-1.4692,3.17,3.17,0,0,1,.6036-1.1113,2.619,2.619,0,0,1,.9824-.7085,3.4141,3.4141,0,0,1,1.3388-.2471,2.9537,2.9537,0,0,1,1.6963.4551,2.5525,2.5525,0,0,1,.9688,1.2607l-1.3653.6109a1.4133,1.4133,0,0,0-.4355-.7085,1.2657,1.2657,0,0,0-.8643-.2793,1.2456,1.2456,0,0,0-1.0468.4419,1.8312,1.8312,0,0,0-.3448,1.1572v1.2348a1.8014,1.8014,0,0,0,.3448,1.15,1.2529,1.2529,0,0,0,1.0468.4356,1.2968,1.2968,0,0,0,.9229-.3052,2.0849,2.0849,0,0,0,.5068-.7607l1.2744.6108A2.6662,2.6662,0,0,1,59.25,22.2915,3.0093,3.0093,0,0,1,57.5732,22.74Z"/><path class="cls-1" d="M63.6836,22.584a1.7714,1.7714,0,0,1-1.3066-.4473,1.727,1.727,0,0,1-.4493-1.2778V17.1372h-1V15.7979h.52a.6236.6236,0,0,0,.5136-.1753.85.85,0,0,0,.1368-.5264V13.939h1.4941v1.8589h1.3906v1.3393H63.5918v4.1079h1.2871V22.584Z"/><path class="cls-1" d="M67.2578,14.81a1.0134,1.0134,0,0,1-.748-.2339.8237.8237,0,0,1-.2266-.5982v-.26A.8225.8225,0,0,1,66.51,13.12a1.3,1.3,0,0,1,1.4892,0,.8118.8118,0,0,1,.2334.5977v.26a.813.813,0,0,1-.2334.5982A1.0156,1.0156,0,0,1,67.2578,14.81Zm-.832.9878H68.09V22.584h-1.664Z"/><path class="cls-1" d="M71.47,22.584,69.207,15.7979h1.6387l.9492,2.9252.6621,2.418h.0918l.6631-2.418.9229-2.9252h1.5859L73.4453,22.584Z"/><path class="cls-1" d="M77.6582,14.81a1.0118,1.0118,0,0,1-.748-.2339.82.82,0,0,1-.2276-.5982v-.26A.8191.8191,0,0,1,76.91,13.12a1.2982,1.2982,0,0,1,1.4882,0,.8087.8087,0,0,1,.2344.5977v.26a.81.81,0,0,1-.2344.5982A1.0129,1.0129,0,0,1,77.6582,14.81Zm-.832.9878H78.49V22.584h-1.664Z"/><path class="cls-1" d="M82.5322,22.584a1.7731,1.7731,0,0,1-1.3066-.4473,1.727,1.727,0,0,1-.4483-1.2778V17.1372H79.7764V15.7979h.52a.6214.6214,0,0,0,.5127-.1753.8508.8508,0,0,0,.1367-.5264V13.939h1.4951v1.8589H83.832v1.3393H82.4414v4.1079h1.2871V22.584Z"/><path class="cls-1" d="M89.4355,15.7979h1.5606l-2.73,7.9951a3.4361,3.4361,0,0,1-.2929.63,1.565,1.565,0,0,1-.3829.4356,1.445,1.445,0,0,1-.5332.2471,3.016,3.016,0,0,1-.7285.0781h-1V23.8452h1.2207l.3125-.9477-2.4306-7.1H86.082l1.1826,3.58.4424,1.7124h.0782l.4668-1.7124Z"/><path class="cls-1" d="M94.8818,22.584V21.2061h1.1963V14.8882H94.8818V13.51h4.1211v1.3784h-1.209v6.3179h1.209V22.584Z"/><path class="cls-1" d="M100.6543,22.584V15.7979h1.6641v1.1313h.0644a2.1682,2.1682,0,0,1,.6563-.9165,1.8941,1.8941,0,0,1,1.2421-.3706,1.9553,1.9553,0,0,1,1.6114.689,3.0417,3.0417,0,0,1,.5586,1.9628v4.29h-1.6631V18.4629a1.8742,1.8742,0,0,0-.2608-1.0918.98.98,0,0,0-.8574-.3643,1.7361,1.7361,0,0,0-.5.0718,1.3849,1.3849,0,0,0-.43.208,1.08,1.08,0,0,0-.3047.3379.9274.9274,0,0,0-.1171.4746V22.584Z"/><path class="cls-1" d="M110.5215,22.74a3.645,3.645,0,0,1-1.6387-.331,3.785,3.785,0,0,1-1.17-.9165l1.0137-.9883a3.0916,3.0916,0,0,0,.8261.6763,2.1059,2.1059,0,0,0,1.0332.2466,1.4129,1.4129,0,0,0,.8643-.208.6848.6848,0,0,0,.2666-.5718.6165.6165,0,0,0-.1885-.4746,1.2037,1.2037,0,0,0-.6435-.24l-.6758-.0913a3.2149,3.2149,0,0,1-1.6836-.63,1.7559,1.7559,0,0,1-.5781-1.4233,2.1144,2.1144,0,0,1,.1816-.8906,1.8914,1.8914,0,0,1,.5195-.6758,2.38,2.38,0,0,1,.8125-.4292,3.5234,3.5234,0,0,1,1.0606-.1494,4.8523,4.8523,0,0,1,.8769.0713,3.2056,3.2056,0,0,1,.6954.208,2.715,2.715,0,0,1,.5722.3379,5.4442,5.4442,0,0,1,.5069.4487l-.9756.9751a2.5725,2.5725,0,0,0-.7149-.52,2.0039,2.0039,0,0,0-.91-.208,1.2516,1.2516,0,0,0-.7852.1948.6211.6211,0,0,0-.2412.5073.6426.6426,0,0,0,.2021.5132,1.3857,1.3857,0,0,0,.6817.2534l.6894.0913q2.1974.312,2.1973,2.002a2.0251,2.0251,0,0,1-.2021.9033,2.0606,2.0606,0,0,1-.5655.7022,2.6738,2.6738,0,0,1-.8769.455A3.8235,3.8235,0,0,1,110.5215,22.74Z"/><path class="cls-1" d="M115.6172,14.81a1.0123,1.0123,0,0,1-.7481-.2339.8207.8207,0,0,1-.2275-.5982v-.26a.82.82,0,0,1,.2275-.5977,1.2984,1.2984,0,0,1,1.4883,0,.8087.8087,0,0,1,.2344.5977v.26a.81.81,0,0,1-.2344.5982A1.0129,1.0129,0,0,1,115.6172,14.81Zm-.832.9878h1.664V22.584h-1.664Z"/><path class="cls-1" d="M124.4961,23.1558a2.2273,2.2273,0,0,1-.1895.9428,1.5931,1.5931,0,0,1-.6171.6822,3.3324,3.3324,0,0,1-1.1055.416,9.6285,9.6285,0,0,1-3.1065.0327,3.4961,3.4961,0,0,1-.9814-.312,1.31,1.31,0,0,1-.5527-.5,1.3545,1.3545,0,0,1-.169-.6758,1.2016,1.2016,0,0,1,.3194-.8906,1.5625,1.5625,0,0,1,.8906-.41v-.143a1.1066,1.1066,0,0,1-.6446-.41,1.1767,1.1767,0,0,1-.2265-.7222.9837.9837,0,0,1,.1035-.4624,1.08,1.08,0,0,1,.2793-.3452,1.7287,1.7287,0,0,1,.3965-.24,2.306,2.306,0,0,1,.4687-.15v-.0523a2.0313,2.0313,0,0,1-.93-.7925,2.2392,2.2392,0,0,1-.3066-1.1821,2.1142,2.1142,0,0,1,.7158-1.6689,3.0772,3.0772,0,0,1,2.0928-.63,4.7875,4.7875,0,0,1,.6172.0391,2.7782,2.7782,0,0,1,.5664.13V15.59a.8615.8615,0,0,1,.9609-.9877h1.0537V15.876h-1.4433v.1821a1.9615,1.9615,0,0,1,.7929.78,2.2927,2.2927,0,0,1,.2608,1.105,2.0905,2.0905,0,0,1-.709,1.6509,3.0922,3.0922,0,0,1-2.1.624,4.0876,4.0876,0,0,1-1.04-.1167,1.1144,1.1144,0,0,0-.3379.24.5157.5157,0,0,0-.1436.3706q0,.5069.8848.5069h1.82a2.6483,2.6483,0,0,1,1.8125.5136A1.8271,1.8271,0,0,1,124.4961,23.1558Zm-1.5606.1953a.5836.5836,0,0,0-.26-.5073,1.636,1.636,0,0,0-.8965-.1817h-2.3145a.8278.8278,0,0,0-.3515.7017.7.7,0,0,0,.3252.6113,2.0526,2.0526,0,0,0,1.1045.2207h.832a2.5429,2.5429,0,0,0,1.1895-.208A.6815.6815,0,0,0,122.9355,23.3511Zm-2.0019-4.2769q1.2216,0,1.2226-1.0342v-.22q0-1.0341-1.2226-1.0342T119.7109,17.82v.22Q119.7109,19.0743,120.9336,19.0742Z"/><path class="cls-1" d="M125.457,12.9639h1.6641v3.9653h.0654a2.1618,2.1618,0,0,1,.6573-.9165,1.89,1.89,0,0,1,1.24-.3706,1.9567,1.9567,0,0,1,1.6133.689,3.0476,3.0476,0,0,1,.5586,1.9628v4.29h-1.6641V18.4629a1.8824,1.8824,0,0,0-.26-1.0918.9831.9831,0,0,0-.8584-.3643,1.7468,1.7468,0,0,0-.5009.0718,1.4009,1.4009,0,0,0-.4288.208,1.0827,1.0827,0,0,0-.3056.3379.9275.9275,0,0,0-.1172.4746V22.584H125.457Z"/><path class="cls-1" d="M135.2207,22.584a1.7714,1.7714,0,0,1-1.3066-.4473,1.7266,1.7266,0,0,1-.4483-1.2778V17.1372h-1.001V15.7979h.52a.621.621,0,0,0,.5136-.1753.8442.8442,0,0,0,.1368-.5264V13.939H135.13v1.8589h1.3906v1.3393H135.13v4.1079h1.2861V22.584Z"/><path class="cls-1" d="M140.1865,22.74a3.6434,3.6434,0,0,1-1.6377-.331,3.7734,3.7734,0,0,1-1.17-.9165l1.0137-.9883a3.0727,3.0727,0,0,0,.8252.6763,2.112,2.112,0,0,0,1.0342.2466,1.4093,1.4093,0,0,0,.8632-.208.6854.6854,0,0,0,.2676-.5718.6174.6174,0,0,0-.1894-.4746,1.1967,1.1967,0,0,0-.6426-.24l-.6758-.0913a3.2084,3.2084,0,0,1-1.6836-.63,1.7537,1.7537,0,0,1-.5791-1.4233,2.1009,2.1009,0,0,1,.1826-.8906,1.8805,1.8805,0,0,1,.52-.6758,2.37,2.37,0,0,1,.8125-.4292,3.5207,3.5207,0,0,1,1.0595-.1494,4.8579,4.8579,0,0,1,.878.0713,3.2387,3.2387,0,0,1,.6953.208,2.74,2.74,0,0,1,.5722.3379,5.4219,5.4219,0,0,1,.5059.4487l-.9746.9751a2.571,2.571,0,0,0-.7149-.52,2.0036,2.0036,0,0,0-.91-.208,1.255,1.255,0,0,0-.7862.1948.6211.6211,0,0,0-.2412.5073.6423.6423,0,0,0,.2022.5132,1.39,1.39,0,0,0,.6826.2534l.69.0913q2.1957.312,2.1962,2.002a2.01,2.01,0,0,1-.2021.9033,2.0577,2.0577,0,0,1-.5645.7022,2.678,2.678,0,0,1-.8779.455A3.8188,3.8188,0,0,1,140.1865,22.74Z"/><path class="cls-2" d="M49.3135,38.1387a3.1021,3.1021,0,0,1-2.5264-1.11,4.9464,4.9464,0,0,1-.918-3.2222,4.9471,4.9471,0,0,1,.918-3.2221,3.1021,3.1021,0,0,1,2.5264-1.11,3.2114,3.2114,0,0,1,1.7939.4746,3.1362,3.1362,0,0,1,1.1338,1.3736l-.96.5517a2.2334,2.2334,0,0,0-.7265-.9961,2.2173,2.2173,0,0,0-2.8555.3389,2.9878,2.9878,0,0,0-.582,1.9512v1.2763a2.9878,2.9878,0,0,0,.582,1.9512,1.9726,1.9726,0,0,0,1.6143.71,2.02,2.02,0,0,0,1.29-.4018,2.3437,2.3437,0,0,0,.75-1.05l.9356.564a3.309,3.309,0,0,1-1.1582,1.41A3.1514,3.1514,0,0,1,49.3135,38.1387Z"/><path class="cls-2" d="M56.0938,38.1387a2.8618,2.8618,0,0,1-1.1583-.2281,2.5079,2.5079,0,0,1-.8945-.6538,3.0267,3.0267,0,0,1-.5762-1.0263,4.5485,4.5485,0,0,1,0-2.688,3.03,3.03,0,0,1,.5762-1.0259,2.5079,2.5079,0,0,1,.8945-.6538,3.0534,3.0534,0,0,1,2.3155,0,2.4947,2.4947,0,0,1,.8935.6538,3.01,3.01,0,0,1,.5762,1.0259,4.5061,4.5061,0,0,1,0,2.688,3.0067,3.0067,0,0,1-.5762,1.0263,2.4947,2.4947,0,0,1-.8935.6538A2.86,2.86,0,0,1,56.0938,38.1387Zm0-.96a1.6068,1.6068,0,0,0,1.1874-.456,1.859,1.859,0,0,0,.4561-1.3682v-.936a1.8584,1.8584,0,0,0-.4561-1.3677,1.7751,1.7751,0,0,0-2.3759,0,1.8588,1.8588,0,0,0-.4561,1.3677v.936a1.8594,1.8594,0,0,0,.4561,1.3682A1.6064,1.6064,0,0,0,56.0938,37.1787Z"/><path class="cls-2" d="M60.4492,37.9946V31.7788h1.1162v1.0083h.06a2.0307,2.0307,0,0,1,.6309-.8315,1.7826,1.7826,0,0,1,1.1211-.3208,1.8944,1.8944,0,0,1,1.5058.624,2.5924,2.5924,0,0,1,.5469,1.7637v3.9721H64.3135V34.1821q0-1.5871-1.3076-1.5874a1.9706,1.9706,0,0,0-.5352.0723,1.5535,1.5535,0,0,0-.4609.21,1.0334,1.0334,0,0,0-.3243.3487.99.99,0,0,0-.12.499v4.27Z"/><path class="cls-2" d="M68.85,37.9946a1.1514,1.1514,0,0,1-.8769-.3174,1.1966,1.1966,0,0,1-.2989-.8559V32.7388h-.9961v-.96H67.23a.5664.5664,0,0,0,.4316-.1323.6543.6543,0,0,0,.12-.4439v-1.14h1.0079v1.7163h1.332v.96h-1.332v4.2959h1.2363v.96Z"/><path class="cls-2" d="M72.1729,30.4824a.6808.6808,0,0,1-.51-.1679.6105.6105,0,0,1-.1621-.4439v-.168a.61.61,0,0,1,.1621-.4438.8589.8589,0,0,1,1.02,0,.6144.6144,0,0,1,.1621.4438v.168a.6147.6147,0,0,1-.1621.4439A.6832.6832,0,0,1,72.1729,30.4824Zm-.5635,1.2964h1.1152v6.2158H71.6094Z"/><path class="cls-2" d="M74.6934,37.9946V31.7788h1.1152v1.0083h.0605a2.03,2.03,0,0,1,.63-.8315,1.7859,1.7859,0,0,1,1.1221-.3208,1.8974,1.8974,0,0,1,1.5059.624,2.5977,2.5977,0,0,1,.5459,1.7637v3.9721H78.5566V34.1821q0-1.5871-1.3076-1.5874a1.9639,1.9639,0,0,0-.5342.0723,1.5617,1.5617,0,0,0-.4619.21,1.0311,1.0311,0,0,0-.3232.3487.99.99,0,0,0-.1211.499v4.27Z"/><path class="cls-2" d="M85.373,36.9863h-.0605a2.1167,2.1167,0,0,1-.2217.4336,1.5206,1.5206,0,0,1-.3476.3682,1.6763,1.6763,0,0,1-.4981.2554,2.1493,2.1493,0,0,1-.6728.0952,1.915,1.915,0,0,1-1.5118-.6241,2.58,2.58,0,0,1-.5517-1.7641V31.7788H82.625v3.8125q0,1.5872,1.32,1.5874a2.0768,2.0768,0,0,0,.5215-.0664,1.3223,1.3223,0,0,0,.4561-.21,1.173,1.173,0,0,0,.3242-.36.9875.9875,0,0,0,.1259-.5054V31.7788h1.1153v6.2158H85.373Z"/><path class="cls-2" d="M90.8447,38.1387a2.8651,2.8651,0,0,1-1.1582-.2281,2.5034,2.5034,0,0,1-.8935-.6538,3.0067,3.0067,0,0,1-.5762-1.0263,4.5272,4.5272,0,0,1,0-2.688,3.01,3.01,0,0,1,.5762-1.0259,2.5034,2.5034,0,0,1,.8935-.6538,3.0534,3.0534,0,0,1,2.3155,0,2.4992,2.4992,0,0,1,.8945.6538,3.03,3.03,0,0,1,.5762,1.0259,4.5272,4.5272,0,0,1,0,2.688,3.0267,3.0267,0,0,1-.5762,1.0263,2.4992,2.4992,0,0,1-.8945.6538A2.86,2.86,0,0,1,90.8447,38.1387Zm0-.96a1.61,1.61,0,0,0,1.1885-.456,1.8634,1.8634,0,0,0,.4551-1.3682v-.936a1.8627,1.8627,0,0,0-.4551-1.3677,1.7765,1.7765,0,0,0-2.377,0,1.8585,1.8585,0,0,0-.455,1.3677v.936a1.8591,1.8591,0,0,0,.455,1.3682A1.6079,1.6079,0,0,0,90.8447,37.1787Z"/><path class="cls-2" d="M99.0049,36.9863h-.06a2.1669,2.1669,0,0,1-.2226.4336,1.5211,1.5211,0,0,1-.3477.3682,1.6992,1.6992,0,0,1-.498.2554,2.1478,2.1478,0,0,1-.6719.0952,1.912,1.912,0,0,1-1.5117-.6241,2.57,2.57,0,0,1-.5528-1.7641V31.7788h1.1162v3.8125q0,1.5872,1.3194,1.5874a2.0832,2.0832,0,0,0,.5224-.0664,1.3214,1.3214,0,0,0,.4561-.21,1.1605,1.1605,0,0,0,.3242-.36.9876.9876,0,0,0,.126-.5054V31.7788h1.1162v6.2158H99.0049Z"/><path class="cls-2" d="M103.9961,38.1387a3.0008,3.0008,0,0,1-1.457-.3242,3.2954,3.2954,0,0,1-1.0264-.876l.7559-.648a2.5513,2.5513,0,0,0,.7861.6841,2.0709,2.0709,0,0,0,1.0137.24,1.4488,1.4488,0,0,0,.9121-.246.8917.8917,0,0,0,.1015-1.254,1.3228,1.3228,0,0,0-.7851-.312l-.5283-.084a4.0266,4.0266,0,0,1-.8155-.1923,2.103,2.103,0,0,1-.6367-.3477,1.5254,1.5254,0,0,1-.4141-.5283,1.708,1.708,0,0,1-.15-.7437,1.8766,1.8766,0,0,1,.1679-.81,1.6154,1.6154,0,0,1,.4688-.5884,2.09,2.09,0,0,1,.7138-.354,3.2564,3.2564,0,0,1,.9053-.12,2.939,2.939,0,0,1,1.32.2636,2.8968,2.8968,0,0,1,.9239.7325l-.7071.6718a2.006,2.006,0,0,0-.6191-.5219,1.8978,1.8978,0,0,0-.9531-.2222,1.3,1.3,0,0,0-.8584.24.792.792,0,0,0-.2823.6358.6966.6966,0,0,0,.2705.6118,1.9279,1.9279,0,0,0,.81.2764l.5283.0839a2.6422,2.6422,0,0,1,1.4815.6,1.5592,1.5592,0,0,1,.4511,1.1636,1.7732,1.7732,0,0,1-.6367,1.44A2.6418,2.6418,0,0,1,103.9961,38.1387Z"/><path class="cls-2" d="M109.1328,37.9946a1.1428,1.1428,0,0,1-.8711-.312,1.16,1.16,0,0,1-.2929-.8281v-7.74h1.1152v7.92h.8887v.96Z"/><path class="cls-2" d="M115.0254,31.7788h1.08l-2.7012,7.5718a3.1315,3.1315,0,0,1-.2275.4922,1.0169,1.0169,0,0,1-.294.3237,1.177,1.177,0,0,1-.414.1743,2.8123,2.8123,0,0,1-.6.0537h-.6123v-.96h1.02l.42-1.1983-2.3047-6.4575h1.1162l1.38,3.9639.3242,1.1616h.06l.3594-1.1616Z"/><path class="cls-2" d="M124.625,37.9946a.9877.9877,0,0,1-.7744-.2881,1.3408,1.3408,0,0,1-.3174-.7441h-.06a1.6024,1.6024,0,0,1-.66.8765,2.0707,2.0707,0,0,1-1.14.3,2.15,2.15,0,0,1-1.5127-.4981,1.7628,1.7628,0,0,1-.5391-1.3618,1.5882,1.5882,0,0,1,.6543-1.374,3.4123,3.4123,0,0,1,1.9971-.4741h1.1767v-.564a1.3049,1.3049,0,0,0-.3359-.96,1.4257,1.4257,0,0,0-1.0449-.3359,1.6155,1.6155,0,0,0-.918.2456,2.03,2.03,0,0,0-.6055.6421l-.6719-.6118a2.3557,2.3557,0,0,1,.834-.8579,2.6094,2.6094,0,0,1,1.4219-.354,2.6488,2.6488,0,0,1,1.8.5566,1.9824,1.9824,0,0,1,.6358,1.5747v3.2686h.6962v.96Zm-2.7-.7558a1.8681,1.8681,0,0,0,1.0918-.3.9026.9026,0,0,0,.4326-.7681v-.96h-1.1885a2.13,2.13,0,0,0-1.122.2281.7369.7369,0,0,0-.3535.66v.24a.7876.7876,0,0,0,.3056.6655A1.3393,1.3393,0,0,0,121.9248,37.2388Z"/><path class="cls-2" d="M126.5918,37.9946V31.7788h1.1172v1.0083h.06a2.0283,2.0283,0,0,1,.63-.8315,1.7859,1.7859,0,0,1,1.1221-.3208,1.8972,1.8972,0,0,1,1.5059.624,2.5926,2.5926,0,0,1,.5459,1.7637v3.9721H130.457V34.1821q0-1.5871-1.3086-1.5874a1.9675,1.9675,0,0,0-.5341.0723,1.5729,1.5729,0,0,0-.462.21,1.0341,1.0341,0,0,0-.3242.3487.989.989,0,0,0-.1191.499v4.27Z"/><path class="cls-2" d="M137.9922,37.9946a.9852.9852,0,0,1-.7734-.2881,1.348,1.348,0,0,1-.3184-.7441H136.84a1.5972,1.5972,0,0,1-.66.8765,2.0674,2.0674,0,0,1-1.1387.3,2.1486,2.1486,0,0,1-1.5127-.4981,1.76,1.76,0,0,1-.54-1.3618,1.5906,1.5906,0,0,1,.6543-1.374,3.4134,3.4134,0,0,1,1.998-.4741h1.1758v-.564a1.3008,1.3008,0,0,0-.3359-.96,1.4248,1.4248,0,0,0-1.044-.3359,1.6109,1.6109,0,0,0-.9179.2456,2.0327,2.0327,0,0,0-.6065.6421l-.6719-.6118a2.363,2.363,0,0,1,.834-.8579,2.6117,2.6117,0,0,1,1.4219-.354,2.65,2.65,0,0,1,1.8008.5566,1.9824,1.9824,0,0,1,.6357,1.5747v3.2686h.6963v.96Zm-2.6992-.7558a1.8724,1.8724,0,0,0,1.0918-.3.9038.9038,0,0,0,.4316-.7681v-.96h-1.1875a2.1338,2.1338,0,0,0-1.123.2281.739.739,0,0,0-.3536.66v.24a.7858.7858,0,0,0,.3067.6655A1.3371,1.3371,0,0,0,135.293,37.2388Z"/><path class="cls-2" d="M141.124,37.9946a1.14,1.14,0,0,1-.87-.312,1.161,1.161,0,0,1-.2939-.8281v-7.74h1.1162v7.92h.8877v.96Z"/><path class="cls-2" d="M147.0156,31.7788h1.08l-2.6992,7.5718a3.2213,3.2213,0,0,1-.2285.4922,1.0055,1.0055,0,0,1-.294.3237,1.177,1.177,0,0,1-.414.1743,2.822,2.822,0,0,1-.6006.0537h-.6114v-.96h1.02l.42-1.1983-2.3027-6.4575H143.5l1.38,3.9639.3242,1.1616h.06l.36-1.1616Z"/><path class="cls-2" d="M148.6729,37.9946v-.936l3.4443-4.32h-3.336v-.96h4.668v.8638l-3.5039,4.3921h3.6v.96Z"/><path class="cls-2" d="M157.1924,38.1387a2.8368,2.8368,0,0,1-1.17-.2339,2.5344,2.5344,0,0,1-.8877-.6543,2.9326,2.9326,0,0,1-.5645-1.02,4.6548,4.6548,0,0,1,0-2.6817,2.9311,2.9311,0,0,1,.5645-1.0263,2.5319,2.5319,0,0,1,.8877-.6538,2.8272,2.8272,0,0,1,1.17-.2339,2.7591,2.7591,0,0,1,1.1582.2329,2.4691,2.4691,0,0,1,.8584.64,2.7641,2.7641,0,0,1,.5273.9688,3.9314,3.9314,0,0,1,.18,1.2075V35.15h-4.3789v.2524a1.8193,1.8193,0,0,0,.4551,1.2779,1.6708,1.6708,0,0,0,1.2969.498,1.8573,1.8573,0,0,0,1.0078-.2641,1.9,1.9,0,0,0,.6719-.7442l.72.6162a2.4175,2.4175,0,0,1-.9717.9839A3.0376,3.0376,0,0,1,157.1924,38.1387Zm0-5.604a1.6762,1.6762,0,0,0-.666.1313,1.5909,1.5909,0,0,0-.5284.3633,1.6139,1.6139,0,0,0-.3418.5547,1.9955,1.9955,0,0,0-.1191.7031v.0835h3.1914v-.1191a1.82,1.82,0,0,0-.414-1.2456A1.4176,1.4176,0,0,0,157.1924,32.5347Z"/><path class="cls-2" d="M168.1,31.7788h1.08l-2.6992,7.5718a3.2213,3.2213,0,0,1-.2285.4922,1.0055,1.0055,0,0,1-.294.3237,1.1767,1.1767,0,0,1-.4141.1743,2.82,2.82,0,0,1-.6005.0537h-.6114v-.96h1.02l.42-1.1983-2.3027-6.4575h1.1152l1.38,3.9639.3242,1.1616h.06l.36-1.1616Z"/><path class="cls-2" d="M172.66,38.1387a2.8644,2.8644,0,0,1-1.1582-.2281,2.5074,2.5074,0,0,1-.8946-.6538,3.0082,3.0082,0,0,1-.5752-1.0263,4.5272,4.5272,0,0,1,0-2.688,3.0119,3.0119,0,0,1,.5752-1.0259,2.5074,2.5074,0,0,1,.8946-.6538,3.0557,3.0557,0,0,1,2.3164,0,2.5034,2.5034,0,0,1,.8935.6538,3.0121,3.0121,0,0,1,.5762,1.0259,4.5272,4.5272,0,0,1,0,2.688,3.0083,3.0083,0,0,1-.5762,1.0263,2.5034,2.5034,0,0,1-.8935.6538A2.8651,2.8651,0,0,1,172.66,38.1387Zm0-.96a1.6043,1.6043,0,0,0,1.1875-.456,1.8559,1.8559,0,0,0,.457-1.3682v-.936a1.8553,1.8553,0,0,0-.457-1.3677,1.7739,1.7739,0,0,0-2.375,0,1.8549,1.8549,0,0,0-.4571,1.3677v.936a1.8556,1.8556,0,0,0,.4571,1.3682A1.6025,1.6025,0,0,0,172.66,37.1787Z"/><path class="cls-2" d="M180.82,36.9863h-.06a2.1167,2.1167,0,0,1-.2217.4336,1.5191,1.5191,0,0,1-.3477.3682,1.6745,1.6745,0,0,1-.498.2554,2.15,2.15,0,0,1-.6729.0952,1.9149,1.9149,0,0,1-1.5117-.6241,2.5793,2.5793,0,0,1-.5517-1.7641V31.7788h1.1162v3.8125q0,1.5872,1.32,1.5874a2.0768,2.0768,0,0,0,.5215-.0664,1.3218,1.3218,0,0,0,.456-.21,1.17,1.17,0,0,0,.3242-.36.9876.9876,0,0,0,.126-.5054V31.7788h1.1152v6.2158H180.82Z"/><path class="cls-2" d="M183.9043,37.9946V31.7788H185.02v1.188h.0606a1.7224,1.7224,0,0,1,.2158-.4443,1.5368,1.5368,0,0,1,.36-.378,1.844,1.844,0,0,1,.51-.2636,2.0247,2.0247,0,0,1,.666-.1021h.3721v1.1157h-.5518a2.1823,2.1823,0,0,0-1.207.2823.8537.8537,0,0,0-.4258.7378v4.08Z"/><path class="cls-2" d="M195.76,37.9946a.9856.9856,0,0,1-.7735-.2881,1.3486,1.3486,0,0,1-.3183-.7441h-.0606a1.5972,1.5972,0,0,1-.66.8765,2.0676,2.0676,0,0,1-1.1387.3,2.1484,2.1484,0,0,1-1.5127-.4981,1.76,1.76,0,0,1-.54-1.3618,1.59,1.59,0,0,1,.6543-1.374,3.4134,3.4134,0,0,1,1.998-.4741h1.1758v-.564a1.3,1.3,0,0,0-.336-.96,1.4245,1.4245,0,0,0-1.0439-.3359,1.6113,1.6113,0,0,0-.918.2456,2.0324,2.0324,0,0,0-.6064.6421l-.6719-.6118a2.363,2.363,0,0,1,.834-.8579,2.6117,2.6117,0,0,1,1.4219-.354,2.65,2.65,0,0,1,1.8008.5566,1.9824,1.9824,0,0,1,.6357,1.5747v3.2686h.6963v.96Zm-2.6993-.7558a1.872,1.872,0,0,0,1.0918-.3.9037.9037,0,0,0,.4317-.7681v-.96h-1.1875a2.1345,2.1345,0,0,0-1.1231.2281.7392.7392,0,0,0-.3535.66v.24a.7858.7858,0,0,0,.3067.6655A1.337,1.337,0,0,0,193.0605,37.2388Z"/><path class="cls-2" d="M200.08,38.1387a2.9136,2.9136,0,0,1-1.1885-.2281,2.4235,2.4235,0,0,1-.876-.6479,2.8272,2.8272,0,0,1-.5459-1.0259,4.591,4.591,0,0,1-.1865-1.35,4.5319,4.5319,0,0,1,.1865-1.3442,2.8969,2.8969,0,0,1,.5459-1.0259,2.4,2.4,0,0,1,.876-.6538,2.9136,2.9136,0,0,1,1.1885-.228,2.5458,2.5458,0,0,1,1.5.4077,2.42,2.42,0,0,1,.8515,1.08l-.9238.456a1.4376,1.4376,0,0,0-.5215-.72,1.5114,1.5114,0,0,0-.9062-.2637,1.4687,1.4687,0,0,0-1.2071.4917,1.9309,1.9309,0,0,0-.4013,1.26v1.08a1.9281,1.9281,0,0,0,.4013,1.26,1.4675,1.4675,0,0,0,1.2071.4922,1.5991,1.5991,0,0,0,.959-.2759,1.9924,1.9924,0,0,0,.625-.78l.8154.5039a2.455,2.455,0,0,1-.8994,1.11A2.6421,2.6421,0,0,1,200.08,38.1387Z"/><path class="cls-2" d="M205.3115,37.9946a1.1494,1.1494,0,0,1-.876-.3174,1.1975,1.1975,0,0,1-.3-.8559V32.7388H203.14v-.96h.5518a.5664.5664,0,0,0,.4316-.1323.654.654,0,0,0,.1211-.4439v-1.14h1.0079v1.7163h1.332v.96h-1.332v4.2959h1.2363v.96Z"/><path class="cls-2" d="M208.6348,30.4824a.6808.6808,0,0,1-.51-.1679.6147.6147,0,0,1-.1621-.4439v-.168a.6144.6144,0,0,1,.1621-.4438.8589.8589,0,0,1,1.02,0,.61.61,0,0,1,.1621.4438v.168a.6105.6105,0,0,1-.1621.4439A.6817.6817,0,0,1,208.6348,30.4824Zm-.5635,1.2964h1.1162v6.2158h-1.1162Z"/><path class="cls-2" d="M212.5117,37.9946l-2.1484-6.2158H211.48l1.02,2.9756.6475,2.1484h.0713l.66-2.1484,1.0332-2.9756H215.98l-2.16,6.2158Z"/><path class="cls-2" d="M217.7188,30.4824a.6808.6808,0,0,1-.51-.1679.6147.6147,0,0,1-.1621-.4439v-.168a.6144.6144,0,0,1,.1621-.4438.8589.8589,0,0,1,1.02,0,.61.61,0,0,1,.1621.4438v.168a.6105.6105,0,0,1-.1621.4439A.6817.6817,0,0,1,217.7188,30.4824Zm-.5635,1.2964h1.1162v6.2158h-1.1162Z"/><path class="cls-2" d="M221.7637,37.9946a1.1518,1.1518,0,0,1-.877-.3174,1.197,1.197,0,0,1-.2988-.8559V32.7388h-.9961v-.96h.5518a.5665.5665,0,0,0,.4316-.1323.6543.6543,0,0,0,.12-.4439v-1.14h1.0078v1.7163h1.3321v.96h-1.3321v4.2959H222.94v.96Z"/><path class="cls-2" d="M228.3516,31.7788h1.08l-2.7011,7.5718a3.1221,3.1221,0,0,1-.2276.4922,1.0155,1.0155,0,0,1-.2939.3237,1.1767,1.1767,0,0,1-.4141.1743,2.8113,2.8113,0,0,1-.6.0537h-.6123v-.96h1.02l.42-1.1983-2.3046-6.4575h1.1162l1.38,3.9639.3243,1.1616H226.6l.3594-1.1616Z"/><path class="cls-2" d="M47.3457,52.3945a1.1428,1.1428,0,0,1-.8711-.312,1.16,1.16,0,0,1-.293-.8281v-7.74h1.1153v7.92h.8886v.96Z"/><path class="cls-2" d="M51.9053,52.5386a2.8648,2.8648,0,0,1-1.1582-.2281,2.5038,2.5038,0,0,1-.8936-.6538,3.01,3.01,0,0,1-.5762-1.0263,4.5272,4.5272,0,0,1,0-2.688,3.0138,3.0138,0,0,1,.5762-1.0259,2.505,2.505,0,0,1,.8936-.6538,3.0532,3.0532,0,0,1,2.3154,0,2.5,2.5,0,0,1,.8945.6538,3.0271,3.0271,0,0,1,.5762,1.0259,4.5272,4.5272,0,0,1,0,2.688,3.0233,3.0233,0,0,1-.5762,1.0263,2.4983,2.4983,0,0,1-.8945.6538A2.86,2.86,0,0,1,51.9053,52.5386Zm0-.96a1.61,1.61,0,0,0,1.1885-.456,1.8633,1.8633,0,0,0,.455-1.3682v-.936a1.8627,1.8627,0,0,0-.455-1.3677,1.7765,1.7765,0,0,0-2.377,0,1.8585,1.8585,0,0,0-.4551,1.3677v.936a1.8592,1.8592,0,0,0,.4551,1.3682A1.6079,1.6079,0,0,0,51.9053,51.5786Z"/><path class="cls-2" d="M61.6016,53.0239a1.5864,1.5864,0,0,1-.75,1.4453,4.5191,4.5191,0,0,1-2.334.4693,4.2562,4.2562,0,0,1-2.1309-.3965,1.2455,1.2455,0,0,1-.6416-1.1172,1.1141,1.1141,0,0,1,.27-.7925,1.4918,1.4918,0,0,1,.75-.4087v-.1323a.9026.9026,0,0,1-.6123-.916.8794.8794,0,0,1,.3115-.7227,1.9043,1.9043,0,0,1,.7686-.3618v-.0483a1.9742,1.9742,0,0,1-.8525-.7476,2.1094,2.1094,0,0,1-.2989-1.1308,2.1545,2.1545,0,0,1,.168-.8614,1.9327,1.9327,0,0,1,.4727-.6757,2.1585,2.1585,0,0,1,.75-.4371,3.052,3.052,0,0,1,1.0087-.1552,3.004,3.004,0,0,1,.6124.06,3.566,3.566,0,0,1,.539.1558v-.1318a.9874.9874,0,0,1,.1807-.6182.68.68,0,0,1,.5752-.2339h.9492v.936H60.1133v.335a1.9026,1.9026,0,0,1,.78,1.627,2.1724,2.1724,0,0,1-.168.8618,1.8436,1.8436,0,0,1-.48.67,2.2507,2.2507,0,0,1-.7558.4307,3.03,3.03,0,0,1-1.0079.1557c-.12,0-.24-.0063-.36-.0181a2.73,2.73,0,0,1-.3359-.0542,1.6743,1.6743,0,0,0-.4922.24.493.493,0,0,0-.2159.42.3647.3647,0,0,0,.2461.3721,1.8812,1.8812,0,0,0,.6661.0957h1.416a2.5326,2.5326,0,0,1,1.6738.4516A1.5454,1.5454,0,0,1,61.6016,53.0239Zm-1.045.1148a.671.671,0,0,0-.27-.5581,1.6032,1.6032,0,0,0-.9531-.21H57.2451a.8649.8649,0,0,0-.1982,1.4458,1.5725,1.5725,0,0,0,1.039.27h.84a2.5308,2.5308,0,0,0,1.2109-.2339A.7635.7635,0,0,0,60.5566,53.1387Zm-2.0634-3.6963a1.4679,1.4679,0,0,0,.9423-.2744,1.021,1.021,0,0,0,.3418-.8482v-.31a1.021,1.021,0,0,0-.3418-.8482,1.7553,1.7553,0,0,0-1.8847,0,1.0239,1.0239,0,0,0-.3418.8482v.31a1.0239,1.0239,0,0,0,.3418.8482A1.4682,1.4682,0,0,0,58.4932,49.4424Z"/><path class="cls-2" d="M64.5645,52.5386a3.0013,3.0013,0,0,1-1.4571-.3242,3.2939,3.2939,0,0,1-1.0263-.876l.7558-.648a2.5536,2.5536,0,0,0,.7861.6841,2.0712,2.0712,0,0,0,1.0137.24,1.4488,1.4488,0,0,0,.9121-.246.8919.8919,0,0,0,.1016-1.254,1.3234,1.3234,0,0,0-.7852-.312l-.5283-.0839a4.0323,4.0323,0,0,1-.8154-.1924,2.1006,2.1006,0,0,1-.6367-.3477,1.5242,1.5242,0,0,1-.4141-.5283,1.708,1.708,0,0,1-.15-.7437,1.8766,1.8766,0,0,1,.168-.81,1.616,1.616,0,0,1,.4687-.5884,2.09,2.09,0,0,1,.7139-.354,3.2559,3.2559,0,0,1,.9053-.12,2.9393,2.9393,0,0,1,1.32.2636,2.8989,2.8989,0,0,1,.9238.7325l-.707.6718a2.0065,2.0065,0,0,0-.6192-.5219,1.8973,1.8973,0,0,0-.9531-.2222,1.3,1.3,0,0,0-.8584.24.792.792,0,0,0-.2822.6358.6964.6964,0,0,0,.2705.6118,1.9279,1.9279,0,0,0,.81.2764l.5283.0839a2.6415,2.6415,0,0,1,1.4814.6,1.5593,1.5593,0,0,1,.4512,1.1636,1.7735,1.7735,0,0,1-.6367,1.44A2.6418,2.6418,0,0,1,64.5645,52.5386Z"/><path class="cls-2" d="M75.8926,52.3945a.9856.9856,0,0,1-.7735-.2881,1.3483,1.3483,0,0,1-.3183-.7441H74.74a1.5972,1.5972,0,0,1-.66.8765,2.0674,2.0674,0,0,1-1.1387.3,2.1486,2.1486,0,0,1-1.5127-.4981,1.76,1.76,0,0,1-.54-1.3618,1.59,1.59,0,0,1,.6543-1.374,3.4134,3.4134,0,0,1,1.998-.4741h1.1758v-.564a1.3008,1.3008,0,0,0-.3359-.96,1.4249,1.4249,0,0,0-1.044-.3359,1.6115,1.6115,0,0,0-.918.2456,2.0335,2.0335,0,0,0-.6064.6421l-.6719-.6118a2.363,2.363,0,0,1,.834-.8579,2.6117,2.6117,0,0,1,1.4219-.354,2.65,2.65,0,0,1,1.8008.5566,1.9824,1.9824,0,0,1,.6357,1.5747v3.2686h.6963v.96Zm-2.6992-.7558a1.8724,1.8724,0,0,0,1.0918-.3.9038.9038,0,0,0,.4316-.7681v-.96H73.5293a2.1346,2.1346,0,0,0-1.1231.228.7392.7392,0,0,0-.3535.66v.24a.7858.7858,0,0,0,.3067.6655A1.3371,1.3371,0,0,0,73.1934,51.6387Z"/><path class="cls-2" d="M83.2012,53.0239a1.5864,1.5864,0,0,1-.75,1.4453,4.5188,4.5188,0,0,1-2.334.4693,4.2562,4.2562,0,0,1-2.1309-.3965,1.2455,1.2455,0,0,1-.6416-1.1172,1.1141,1.1141,0,0,1,.27-.7925,1.4918,1.4918,0,0,1,.75-.4087v-.1323a.9026.9026,0,0,1-.6123-.916.8792.8792,0,0,1,.3116-.7227,1.9033,1.9033,0,0,1,.7685-.3618v-.0483a1.9742,1.9742,0,0,1-.8525-.7476,2.1094,2.1094,0,0,1-.2989-1.1308,2.1545,2.1545,0,0,1,.168-.8614,1.9327,1.9327,0,0,1,.4727-.6757,2.1585,2.1585,0,0,1,.75-.4371,3.0522,3.0522,0,0,1,1.0088-.1552,3.0038,3.0038,0,0,1,.6123.06,3.5626,3.5626,0,0,1,.539.1558v-.1318a.9874.9874,0,0,1,.1807-.6182.68.68,0,0,1,.5752-.2339h.9492v.936H81.7129v.335a1.9026,1.9026,0,0,1,.78,1.627,2.1724,2.1724,0,0,1-.168.8618,1.8436,1.8436,0,0,1-.48.67,2.2507,2.2507,0,0,1-.7558.4307,3.03,3.03,0,0,1-1.0078.1557c-.12,0-.24-.0063-.36-.0181a2.73,2.73,0,0,1-.3359-.0542,1.6743,1.6743,0,0,0-.4922.24.4929.4929,0,0,0-.2158.42.3646.3646,0,0,0,.2461.3721,1.88,1.88,0,0,0,.666.0957h1.416a2.5324,2.5324,0,0,1,1.6738.4516A1.5454,1.5454,0,0,1,83.2012,53.0239Zm-1.045.1148a.671.671,0,0,0-.2695-.5581,1.6032,1.6032,0,0,0-.9531-.21H78.8447a.8649.8649,0,0,0-.1982,1.4458,1.5725,1.5725,0,0,0,1.039.27h.84a2.5308,2.5308,0,0,0,1.2109-.2339A.7635.7635,0,0,0,82.1562,53.1387Zm-2.0634-3.6963a1.4684,1.4684,0,0,0,.9424-.2744,1.0213,1.0213,0,0,0,.3418-.8482v-.31a1.0213,1.0213,0,0,0-.3418-.8482,1.7555,1.7555,0,0,0-1.8848,0,1.0242,1.0242,0,0,0-.3418.8482v.31a1.0242,1.0242,0,0,0,.3418.8482A1.4682,1.4682,0,0,0,80.0928,49.4424Z"/><path class="cls-2" d="M88.7441,52.3945a.9855.9855,0,0,1-.7734-.2881,1.3555,1.3555,0,0,1-.3184-.7441h-.0595a1.6071,1.6071,0,0,1-.66.8765,2.0707,2.0707,0,0,1-1.14.3,2.1443,2.1443,0,0,1-1.5118-.4981,1.7609,1.7609,0,0,1-.541-1.3618,1.593,1.593,0,0,1,.6543-1.374,3.4139,3.4139,0,0,1,1.9981-.4741h1.1758v-.564a1.2968,1.2968,0,0,0-.336-.96,1.4219,1.4219,0,0,0-1.0429-.3359,1.6088,1.6088,0,0,0-.918.2456,2.0216,2.0216,0,0,0-.6065.6421l-.6728-.6118a2.3792,2.3792,0,0,1,.834-.8579,2.6173,2.6173,0,0,1,1.4228-.354,2.6453,2.6453,0,0,1,1.8.5566,1.9827,1.9827,0,0,1,.6367,1.5747v3.2686h.6954v.96Zm-2.6992-.7558a1.87,1.87,0,0,0,1.0918-.3.9016.9016,0,0,0,.4317-.7681v-.96H86.3809a2.13,2.13,0,0,0-1.1221.228.74.74,0,0,0-.3545.66v.24a.7884.7884,0,0,0,.3066.6655A1.3413,1.3413,0,0,0,86.0449,51.6387Z"/><path class="cls-2" d="M91.2764,44.8823a.6808.6808,0,0,1-.51-.1679.6105.6105,0,0,1-.1621-.4439v-.168a.61.61,0,0,1,.1621-.4438.8589.8589,0,0,1,1.02,0,.6144.6144,0,0,1,.1621.4438v.168a.6147.6147,0,0,1-.1621.4439A.6832.6832,0,0,1,91.2764,44.8823Zm-.5635,1.2964h1.1152v6.2158H90.7129Z"/><path class="cls-2" d="M93.7969,52.3945V46.1787h1.1152V47.187h.0606a2.0292,2.0292,0,0,1,.63-.8315,1.7861,1.7861,0,0,1,1.1221-.3208,1.8972,1.8972,0,0,1,1.5059.624,2.5972,2.5972,0,0,1,.5459,1.7637v3.9721H97.66V48.582q0-1.5872-1.3077-1.5874a1.9627,1.9627,0,0,0-.5341.0723,1.5612,1.5612,0,0,0-.462.21,1.0311,1.0311,0,0,0-.3232.3487.99.99,0,0,0-.1211.499v4.27Z"/><path class="cls-2" d="M102.58,52.5386a3.0015,3.0015,0,0,1-1.4571-.3242,3.2962,3.2962,0,0,1-1.0263-.876l.7558-.648a2.5528,2.5528,0,0,0,.7862.6841,2.0708,2.0708,0,0,0,1.0136.24,1.4493,1.4493,0,0,0,.9122-.246.8917.8917,0,0,0,.1015-1.254,1.3231,1.3231,0,0,0-.7851-.312l-.5284-.0839a4.0323,4.0323,0,0,1-.8154-.1924,2.103,2.103,0,0,1-.6367-.3477,1.5242,1.5242,0,0,1-.4141-.5283,1.708,1.708,0,0,1-.15-.7437,1.8766,1.8766,0,0,1,.168-.81,1.6162,1.6162,0,0,1,.4688-.5884,2.09,2.09,0,0,1,.7138-.354,3.2564,3.2564,0,0,1,.9053-.12,2.9393,2.9393,0,0,1,1.32.2636,2.8978,2.8978,0,0,1,.9238.7325l-.707.6718a2.006,2.006,0,0,0-.6191-.5219,1.8979,1.8979,0,0,0-.9532-.2222,1.3,1.3,0,0,0-.8584.24.7923.7923,0,0,0-.2822.6358.6966.6966,0,0,0,.27.6118,1.9279,1.9279,0,0,0,.81.2764l.5283.0839a2.6422,2.6422,0,0,1,1.4815.6,1.56,1.56,0,0,1,.4511,1.1636,1.7735,1.7735,0,0,1-.6367,1.44A2.6418,2.6418,0,0,1,102.58,52.5386Z"/><path class="cls-2" d="M107.9922,52.3945a1.1494,1.1494,0,0,1-.876-.3174,1.1932,1.1932,0,0,1-.3-.8559V47.1387H105.82v-.96h.5527a.5681.5681,0,0,0,.4317-.1323.6547.6547,0,0,0,.1191-.4439v-1.14h1.0088v1.7163h1.3311v.96h-1.3311v4.2959h1.2354v.96Z"/><path class="cls-2" d="M113.584,46.1787H114.7V47.187h.0478a1.6907,1.6907,0,0,1,.6778-.8613,2.0422,2.0422,0,0,1,1.11-.291,2.3983,2.3983,0,0,1,1.05.2216,2.1494,2.1494,0,0,1,.7862.648,3.0353,3.0353,0,0,1,.4922,1.0264,5.5592,5.5592,0,0,1,0,2.7119,3.0281,3.0281,0,0,1-.4922,1.0259,2.1392,2.1392,0,0,1-.7862.6479,2.397,2.397,0,0,1-1.05.2222,2.043,2.043,0,0,1-1.11-.291,1.6893,1.6893,0,0,1-.6778-.8614H114.7v3.4082H113.584Zm2.6279,5.4a1.5321,1.5321,0,0,0,1.1943-.4824,1.83,1.83,0,0,0,.4376-1.2788V48.7559a1.8294,1.8294,0,0,0-.4376-1.2788,1.5322,1.5322,0,0,0-1.1943-.4825,2.0048,2.0048,0,0,0-.5879.0845,1.4875,1.4875,0,0,0-.48.2412,1.2475,1.2475,0,0,0-.3242.3618.89.89,0,0,0-.12.4585v2.292a.89.89,0,0,0,.12.4585,1.2475,1.2475,0,0,0,.3242.3618,1.4855,1.4855,0,0,0,.48.2412A2.0048,2.0048,0,0,0,116.2119,51.5786Z"/><path class="cls-2" d="M120.6035,52.3945V46.1787h1.1172v1.188h.06a1.7554,1.7554,0,0,1,.2158-.4443,1.5311,1.5311,0,0,1,.3594-.378,1.8625,1.8625,0,0,1,.5107-.2636,2.029,2.029,0,0,1,.666-.1021h.3721v1.1157h-.5527a2.1728,2.1728,0,0,0-1.2051.2823.8494.8494,0,0,0-.4258.7378v4.08Z"/><path class="cls-2" d="M127.42,52.5386a2.8341,2.8341,0,0,1-1.17-.2339,2.5482,2.5482,0,0,1-.8887-.6543,2.9323,2.9323,0,0,1-.5634-1.02,4.6324,4.6324,0,0,1,0-2.6817,2.9309,2.9309,0,0,1,.5634-1.0263,2.5457,2.5457,0,0,1,.8887-.6538,2.8246,2.8246,0,0,1,1.17-.2339,2.7588,2.7588,0,0,1,1.1582.2329,2.4552,2.4552,0,0,1,.8574.64,2.7645,2.7645,0,0,1,.5284.9688,3.9314,3.9314,0,0,1,.1806,1.2075V49.55h-4.3808v.2524a1.816,1.816,0,0,0,.457,1.2779,1.665,1.665,0,0,0,1.2949.498,1.85,1.85,0,0,0,1.0078-.2641,1.8947,1.8947,0,0,0,.6729-.7442l.72.6162a2.4136,2.4136,0,0,1-.9726.9839A3.0344,3.0344,0,0,1,127.42,52.5386Zm0-5.604a1.6731,1.6731,0,0,0-.666.1313,1.5667,1.5667,0,0,0-.8691.918,1.9934,1.9934,0,0,0-.1211.7031v.0835h3.1924v-.1191a1.8149,1.8149,0,0,0-.4141-1.2456A1.4176,1.4176,0,0,0,127.42,46.9346Z"/><path class="cls-2" d="M135.6035,51.3862h-.0469a1.69,1.69,0,0,1-.6787.8614,2.0407,2.0407,0,0,1-1.11.291,2.3864,2.3864,0,0,1-1.0488-.2222,2.15,2.15,0,0,1-.7872-.6479,3.0638,3.0638,0,0,1-.4921-1.0259,5.556,5.556,0,0,1,0-2.7119,3.0711,3.0711,0,0,1,.4921-1.0264,2.16,2.16,0,0,1,.7872-.648,2.3877,2.3877,0,0,1,1.0488-.2216,2.04,2.04,0,0,1,1.11.291,1.6916,1.6916,0,0,1,.6787.8613h.0469V43.5146h1.1172v8.88h-1.1172Zm-1.5117.1924a2,2,0,0,0,.5879-.0845,1.5,1.5,0,0,0,.4805-.2412,1.262,1.262,0,0,0,.3242-.3618.8892.8892,0,0,0,.1191-.4585v-2.292a.8894.8894,0,0,0-.1191-.4585,1.262,1.262,0,0,0-.3242-.3618,1.5021,1.5021,0,0,0-.4805-.2412,2,2,0,0,0-.5879-.0845,1.5291,1.5291,0,0,0-1.1934.4825,1.8257,1.8257,0,0,0-.4384,1.2788v1.0615a1.826,1.826,0,0,0,.4384,1.2788A1.529,1.529,0,0,0,134.0918,51.5786Z"/><path class="cls-2" d="M141.0645,52.5386a2.8343,2.8343,0,0,1-1.17-.2339,2.5387,2.5387,0,0,1-.8886-.6543,2.9326,2.9326,0,0,1-.5645-1.02,4.6548,4.6548,0,0,1,0-2.6817,2.9311,2.9311,0,0,1,.5645-1.0263,2.5362,2.5362,0,0,1,.8886-.6538,2.8247,2.8247,0,0,1,1.17-.2339,2.7627,2.7627,0,0,1,1.1582.2329,2.4653,2.4653,0,0,1,.8574.64,2.7481,2.7481,0,0,1,.5273.9688,3.9015,3.9015,0,0,1,.1807,1.2075V49.55h-4.38v.2524a1.82,1.82,0,0,0,.4561,1.2779,1.6671,1.6671,0,0,0,1.2959.498,1.8525,1.8525,0,0,0,1.0078-.2641,1.8922,1.8922,0,0,0,.6718-.7442l.7207.6162a2.4253,2.4253,0,0,1-.9726.9839A3.0342,3.0342,0,0,1,141.0645,52.5386Zm0-5.604a1.67,1.67,0,0,0-.6661.1313,1.58,1.58,0,0,0-.5283.3633,1.5989,1.5989,0,0,0-.3418.5547,1.9933,1.9933,0,0,0-.12.7031v.0835H142.6v-.1191a1.8149,1.8149,0,0,0-.4141-1.2456A1.4153,1.4153,0,0,0,141.0645,46.9346Z"/><path class="cls-2" d="M145.6475,47.1387h-.9952v-.96h.9952V45.0264a1.6119,1.6119,0,0,1,.36-1.0977,1.3682,1.3682,0,0,1,1.0918-.4141h.9727v.96h-1.3086v1.7041h3.5644v6.2158h-1.1172V47.1387h-2.4472v5.2558h-1.1162Zm4.1279-2.2564a.6779.6779,0,0,1-.51-.1679.6147.6147,0,0,1-.1621-.4439v-.168a.6144.6144,0,0,1,.1621-.4438.8575.8575,0,0,1,1.02,0,.61.61,0,0,1,.1621.4438v.168a.6105.6105,0,0,1-.1621.4439A.678.678,0,0,1,149.7754,44.8823Z"/><path class="cls-2" d="M152.2949,52.3945V46.1787h1.1172V47.187h.06a2.0285,2.0285,0,0,1,.63-.8315,1.7858,1.7858,0,0,1,1.122-.3208,1.8972,1.8972,0,0,1,1.5059.624,2.5921,2.5921,0,0,1,.5459,1.7637v3.9721H156.16V48.582q0-1.5872-1.3086-1.5874a1.9687,1.9687,0,0,0-.5342.0723,1.5711,1.5711,0,0,0-.4619.21,1.0344,1.0344,0,0,0-.3243.3487.99.99,0,0,0-.1191.499v4.27Z"/><path class="cls-2" d="M161.5469,52.5386a2.8368,2.8368,0,0,1-1.17-.2339,2.5435,2.5435,0,0,1-.8877-.6543,2.9308,2.9308,0,0,1-.5635-1.02,4.6324,4.6324,0,0,1,0-2.6817,2.9294,2.9294,0,0,1,.5635-1.0263,2.541,2.541,0,0,1,.8877-.6538,2.8272,2.8272,0,0,1,1.17-.2339,2.7562,2.7562,0,0,1,1.1582.2329,2.4608,2.4608,0,0,1,.8584.64,2.782,2.782,0,0,1,.5283.9688,3.9619,3.9619,0,0,1,.18,1.2075V49.55h-4.38v.2524a1.8154,1.8154,0,0,0,.4561,1.2779,1.6686,1.6686,0,0,0,1.2959.498,1.8549,1.8549,0,0,0,1.0078-.2641,1.902,1.902,0,0,0,.6728-.7442l.7188.6162a2.4058,2.4058,0,0,1-.9717.9839A3.0378,3.0378,0,0,1,161.5469,52.5386Zm0-5.604a1.6794,1.6794,0,0,0-.666.1313,1.5665,1.5665,0,0,0-.8692.918,1.9933,1.9933,0,0,0-.12.7031v.0835h3.1924v-.1191a1.82,1.82,0,0,0-.4141-1.2456A1.42,1.42,0,0,0,161.5469,46.9346Z"/><path class="cls-2" d="M169.7314,51.3862h-.0478a1.6886,1.6886,0,0,1-.6777.8614,2.0434,2.0434,0,0,1-1.11.291,2.3939,2.3939,0,0,1-1.05-.2222,2.1381,2.1381,0,0,1-.7861-.6479,3.0281,3.0281,0,0,1-.4922-1.0259,5.556,5.556,0,0,1,0-2.7119,3.0353,3.0353,0,0,1,.4922-1.0264,2.1482,2.1482,0,0,1,.7861-.648,2.3952,2.3952,0,0,1,1.05-.2216,2.0425,2.0425,0,0,1,1.11.291,1.69,1.69,0,0,1,.6777.8613h.0478V43.5146h1.1163v8.88h-1.1163Zm-1.5117.1924a2.0048,2.0048,0,0,0,.5879-.0845,1.4835,1.4835,0,0,0,.48-.2412,1.2475,1.2475,0,0,0,.3242-.3618.89.89,0,0,0,.12-.4585v-2.292a.89.89,0,0,0-.12-.4585,1.2475,1.2475,0,0,0-.3242-.3618,1.4855,1.4855,0,0,0-.48-.2412,2.0048,2.0048,0,0,0-.5879-.0845,1.5309,1.5309,0,0,0-1.1943.4825,1.8294,1.8294,0,0,0-.4375,1.2788v1.0615a1.83,1.83,0,0,0,.4375,1.2788A1.5308,1.5308,0,0,0,168.22,51.5786Z"/><path class="cls-2" d="M175.6465,52.3945V46.1787h1.1172v1.188h.06a1.7592,1.7592,0,0,1,.2159-.4443,1.5325,1.5325,0,0,1,.3593-.378,1.8646,1.8646,0,0,1,.5108-.2636,2.0286,2.0286,0,0,1,.666-.1021h.3721v1.1157h-.5528a2.1727,2.1727,0,0,0-1.205.2823.8494.8494,0,0,0-.4258.7378v4.08Z"/><path class="cls-2" d="M183.9512,51.3862h-.0606a2.1092,2.1092,0,0,1-.2217.4336,1.5206,1.5206,0,0,1-.3476.3682,1.6763,1.6763,0,0,1-.4981.2554,2.1489,2.1489,0,0,1-.6728.0952,1.9149,1.9149,0,0,1-1.5117-.624,2.58,2.58,0,0,1-.5518-1.7642V46.1787h1.1162v3.8125q0,1.5872,1.32,1.5874a2.0768,2.0768,0,0,0,.5215-.0664,1.3223,1.3223,0,0,0,.4561-.21,1.173,1.173,0,0,0,.3242-.36.9876.9876,0,0,0,.126-.5054V46.1787h1.1152v6.2158h-1.1152Z"/><path class="cls-2" d="M188.1992,52.3945a1.14,1.14,0,0,1-.87-.312,1.1566,1.1566,0,0,1-.2939-.8281v-7.74h1.1162v7.92h.8877v.96Z"/><path class="cls-2" d="M192.7471,52.5386a2.8376,2.8376,0,0,1-1.17-.2339,2.535,2.535,0,0,1-.8876-.6543,2.9326,2.9326,0,0,1-.5645-1.02,4.6548,4.6548,0,0,1,0-2.6817,2.9311,2.9311,0,0,1,.5645-1.0263,2.5324,2.5324,0,0,1,.8876-.6538,2.828,2.828,0,0,1,1.17-.2339,2.7591,2.7591,0,0,1,1.1582.2329,2.47,2.47,0,0,1,.8584.64,2.7641,2.7641,0,0,1,.5273.9688,3.9314,3.9314,0,0,1,.18,1.2075V49.55h-4.3789v.2524a1.8193,1.8193,0,0,0,.4551,1.2779,1.6708,1.6708,0,0,0,1.2969.498,1.8573,1.8573,0,0,0,1.0078-.2641,1.899,1.899,0,0,0,.6718-.7442l.72.6162a2.4181,2.4181,0,0,1-.9717.9839A3.0378,3.0378,0,0,1,192.7471,52.5386Zm0-5.604a1.6762,1.6762,0,0,0-.666.1313,1.5909,1.5909,0,0,0-.5284.3633,1.6139,1.6139,0,0,0-.3418.5547,1.9955,1.9955,0,0,0-.1191.7031v.0835h3.1914v-.1191a1.82,1.82,0,0,0-.4141-1.2456A1.4173,1.4173,0,0,0,192.7471,46.9346Z"/><path class="cls-2" d="M46.1816,60.5786h1.1153v1.0083h.0488a1.68,1.68,0,0,1,.6777-.8613,2.0392,2.0392,0,0,1,1.1094-.291,2.4,2.4,0,0,1,1.0508.2216,2.1463,2.1463,0,0,1,.7852.648,3,3,0,0,1,.4921,1.0264,5.556,5.556,0,0,1,0,2.7119,2.9931,2.9931,0,0,1-.4921,1.0259,2.1362,2.1362,0,0,1-.7852.6479,2.3984,2.3984,0,0,1-1.0508.2222,2.04,2.04,0,0,1-1.1094-.291,1.6789,1.6789,0,0,1-.6777-.8614h-.0488v3.4082H46.1816Zm2.627,5.4a1.5344,1.5344,0,0,0,1.1953-.4824,1.8344,1.8344,0,0,0,.4375-1.2788V63.1558a1.834,1.834,0,0,0-.4375-1.2788,1.5345,1.5345,0,0,0-1.1953-.4825,2.013,2.013,0,0,0-.5879.0845,1.4968,1.4968,0,0,0-.48.2412,1.2437,1.2437,0,0,0-.3232.3618.8911.8911,0,0,0-.1211.4585v2.292a.8906.8906,0,0,0,.1211.4585,1.2437,1.2437,0,0,0,.3232.3618,1.4947,1.4947,0,0,0,.48.2412A2.01,2.01,0,0,0,48.8086,65.9785Z"/><path class="cls-2" d="M57.7246,66.7944a.9854.9854,0,0,1-.7734-.2881,1.3548,1.3548,0,0,1-.3184-.7441h-.06a1.6064,1.6064,0,0,1-.66.8765,2.0709,2.0709,0,0,1-1.14.3,2.1442,2.1442,0,0,1-1.5117-.4981,1.7609,1.7609,0,0,1-.541-1.3618,1.593,1.593,0,0,1,.6543-1.374,3.4136,3.4136,0,0,1,1.998-.4741h1.1758v-.564a1.2968,1.2968,0,0,0-.3359-.96,1.4222,1.4222,0,0,0-1.043-.3359,1.6087,1.6087,0,0,0-.9179.2456,2.0216,2.0216,0,0,0-.6065.6421l-.6728-.6118a2.3781,2.3781,0,0,1,.8339-.8579,2.6177,2.6177,0,0,1,1.4229-.354,2.6453,2.6453,0,0,1,1.8.5566,1.983,1.983,0,0,1,.6367,1.5747v3.2686h.6953v.96Zm-2.6992-.7558a1.87,1.87,0,0,0,1.0918-.3.9015.9015,0,0,0,.4316-.7681v-.96H55.3613a2.13,2.13,0,0,0-1.122.228.74.74,0,0,0-.3545.66v.24a.7884.7884,0,0,0,.3066.6655A1.3411,1.3411,0,0,0,55.0254,66.0386Z"/><path class="cls-2" d="M62.0449,66.9385a2.912,2.912,0,0,1-1.1875-.2281,2.4259,2.4259,0,0,1-.8769-.6479,2.8243,2.8243,0,0,1-.545-1.0259,4.5581,4.5581,0,0,1-.1865-1.35,4.5,4.5,0,0,1,.1865-1.3442,2.8938,2.8938,0,0,1,.545-1.0259,2.4035,2.4035,0,0,1,.8769-.6538,2.912,2.912,0,0,1,1.1875-.228,2.5415,2.5415,0,0,1,1.5.4077,2.4131,2.4131,0,0,1,.8516,1.08l-.9238.456a1.433,1.433,0,0,0-.5215-.72,1.5119,1.5119,0,0,0-.9063-.2637,1.4676,1.4676,0,0,0-1.206.4917,1.9249,1.9249,0,0,0-.4014,1.26v1.08a1.9221,1.9221,0,0,0,.4014,1.26,1.4661,1.4661,0,0,0,1.206.4922,1.6,1.6,0,0,0,.96-.2759,1.99,1.99,0,0,0,.624-.78l.8164.5039a2.4506,2.4506,0,0,1-.9,1.11A2.6421,2.6421,0,0,1,62.0449,66.9385Z"/><path class="cls-2" d="M65.7529,57.9146h1.1162v5.5317H66.93l.8867-1.0918,1.6211-1.7759h1.3193l-2.208,2.4,2.4961,3.8159H69.7012l-1.9444-3.0962-.8877.9483v2.1479H65.7529Z"/><path class="cls-2" d="M76.6719,66.7944a.9856.9856,0,0,1-.7735-.2881,1.3554,1.3554,0,0,1-.3183-.7441h-.06a1.6064,1.6064,0,0,1-.66.8765,2.0711,2.0711,0,0,1-1.14.3A2.1442,2.1442,0,0,1,72.209,66.44a1.7606,1.7606,0,0,1-.541-1.3618,1.5928,1.5928,0,0,1,.6543-1.374,3.4134,3.4134,0,0,1,1.998-.4741h1.1758v-.564a1.2968,1.2968,0,0,0-.3359-.96,1.4223,1.4223,0,0,0-1.043-.3359,1.6091,1.6091,0,0,0-.918.2456,2.0224,2.0224,0,0,0-.6064.6421l-.6729-.6118a2.3792,2.3792,0,0,1,.834-.8579,2.6177,2.6177,0,0,1,1.4229-.354,2.6457,2.6457,0,0,1,1.8.5566,1.983,1.983,0,0,1,.6367,1.5747v3.2686h.6953v.96Zm-2.6992-.7558a1.87,1.87,0,0,0,1.0918-.3.9017.9017,0,0,0,.4316-.7681v-.96H74.3086a2.1305,2.1305,0,0,0-1.1221.228.74.74,0,0,0-.3545.66v.24a.7884.7884,0,0,0,.3067.6655A1.3411,1.3411,0,0,0,73.9727,66.0386Z"/><path class="cls-2" d="M83.9805,67.4238a1.5864,1.5864,0,0,1-.75,1.4453,4.5166,4.5166,0,0,1-2.334.4693,4.2518,4.2518,0,0,1-2.13-.3965,1.2455,1.2455,0,0,1-.6416-1.1172,1.1137,1.1137,0,0,1,.2695-.7925,1.4918,1.4918,0,0,1,.75-.4087v-.1323a.9018.9018,0,0,1-.6113-.916.8766.8766,0,0,1,.3115-.7227,1.8918,1.8918,0,0,1,.7686-.3618v-.0483a1.9688,1.9688,0,0,1-.8526-.7476,2.1019,2.1019,0,0,1-.3-1.1308,2.1718,2.1718,0,0,1,.168-.8614,1.9233,1.9233,0,0,1,.4736-.6757,2.1421,2.1421,0,0,1,.75-.4371,3.0446,3.0446,0,0,1,1.0088-.1552,2.9948,2.9948,0,0,1,.6114.06,3.5792,3.5792,0,0,1,.54.1558v-.1318a.9812.9812,0,0,1,.1807-.6182.679.679,0,0,1,.5752-.2339h.9482v.936H82.4922v.335a1.9009,1.9009,0,0,1,.7812,1.627,2.19,2.19,0,0,1-.1679.8618,1.8674,1.8674,0,0,1-.4805.67,2.27,2.27,0,0,1-.7559.4307,3.037,3.037,0,0,1-1.0078.1557c-.1211,0-.24-.0063-.36-.018a2.7863,2.7863,0,0,1-.3369-.0542,1.6539,1.6539,0,0,0-.4912.24.493.493,0,0,0-.2159.42.3647.3647,0,0,0,.2461.3721,1.8772,1.8772,0,0,0,.666.0957h1.4161a2.5344,2.5344,0,0,1,1.6738.4516A1.5479,1.5479,0,0,1,83.9805,67.4238Zm-1.044.1148a.6694.6694,0,0,0-.27-.5581,1.6014,1.6014,0,0,0-.9531-.21H79.625a.8649.8649,0,0,0-.1982,1.4458,1.5676,1.5676,0,0,0,1.038.27h.84a2.5379,2.5379,0,0,0,1.2119-.2339A.7652.7652,0,0,0,82.9365,67.5386ZM80.873,63.8423a1.4636,1.4636,0,0,0,.9415-.2744,1.0211,1.0211,0,0,0,.3417-.8482v-.3105a1.0212,1.0212,0,0,0-.3417-.8482,1.7538,1.7538,0,0,0-1.8838,0,1.0239,1.0239,0,0,0-.3418.8482V62.72a1.0238,1.0238,0,0,0,.3418.8482A1.4643,1.4643,0,0,0,80.873,63.8423Z"/><path class="cls-2" d="M87.34,66.9385a2.8359,2.8359,0,0,1-1.17-.2339,2.5454,2.5454,0,0,1-.8877-.6543,2.9323,2.9323,0,0,1-.5634-1.02,4.6324,4.6324,0,0,1,0-2.6817,2.9309,2.9309,0,0,1,.5634-1.0263,2.5428,2.5428,0,0,1,.8877-.6538,2.8279,2.8279,0,0,1,1.17-.2339,2.7556,2.7556,0,0,1,1.1582.2329,2.459,2.459,0,0,1,.8584.64,2.7822,2.7822,0,0,1,.5284.9688,3.9619,3.9619,0,0,1,.18,1.2075V63.95h-4.38v.2524a1.8154,1.8154,0,0,0,.456,1.2779,1.6687,1.6687,0,0,0,1.2959.498,1.8546,1.8546,0,0,0,1.0078-.2641,1.9022,1.9022,0,0,0,.6729-.7442l.7187.6162a2.405,2.405,0,0,1-.9716.9839A3.0382,3.0382,0,0,1,87.34,66.9385Zm0-5.604a1.68,1.68,0,0,0-.666.1313,1.5667,1.5667,0,0,0-.8691.918,1.9933,1.9933,0,0,0-.12.7031V63.17H88.877v-.1191a1.82,1.82,0,0,0-.4141-1.2456A1.42,1.42,0,0,0,87.34,61.3345Z"/><path class="cls-2" d="M93.4961,66.9385a3.0008,3.0008,0,0,1-1.457-.3242,3.2954,3.2954,0,0,1-1.0264-.876l.7559-.648a2.5513,2.5513,0,0,0,.7861.6841,2.0709,2.0709,0,0,0,1.0137.24,1.4488,1.4488,0,0,0,.9121-.246.8917.8917,0,0,0,.1015-1.254,1.3228,1.3228,0,0,0-.7851-.312l-.5283-.0839a4.0333,4.0333,0,0,1-.8155-.1924,2.103,2.103,0,0,1-.6367-.3477,1.5254,1.5254,0,0,1-.4141-.5283,1.708,1.708,0,0,1-.15-.7437,1.8766,1.8766,0,0,1,.1679-.81,1.6162,1.6162,0,0,1,.4688-.5884,2.09,2.09,0,0,1,.7138-.354,3.2564,3.2564,0,0,1,.9053-.12,2.939,2.939,0,0,1,1.32.2636,2.8981,2.8981,0,0,1,.9239.7325l-.7071.6718a2.006,2.006,0,0,0-.6191-.5219,1.8978,1.8978,0,0,0-.9531-.2222,1.3,1.3,0,0,0-.8584.24.792.792,0,0,0-.2823.6358.6965.6965,0,0,0,.2705.6118,1.9279,1.9279,0,0,0,.81.2764l.5283.0839a2.6422,2.6422,0,0,1,1.4815.6A1.5592,1.5592,0,0,1,95.873,64.97a1.7732,1.7732,0,0,1-.6367,1.44A2.6418,2.6418,0,0,1,93.4961,66.9385Z"/><path class="cls-2" d="M101.8242,66.7944a1.1519,1.1519,0,0,1-.8769-.3173,1.1971,1.1971,0,0,1-.2989-.856V61.5386h-.9961v-.96h.5518a.5664.5664,0,0,0,.4316-.1323.6543.6543,0,0,0,.12-.4439v-1.14h1.0078v1.7163h1.332v.96h-1.332v4.2959H103v.96Z"/><path class="cls-2" d="M106.9238,66.9385a2.8685,2.8685,0,0,1-1.1582-.2281,2.5034,2.5034,0,0,1-.8935-.6538,2.9884,2.9884,0,0,1-.5752-1.0263,4.5061,4.5061,0,0,1,0-2.688,2.9921,2.9921,0,0,1,.5752-1.0259,2.5046,2.5046,0,0,1,.8935-.6538,3.0557,3.0557,0,0,1,2.3164,0,2.5086,2.5086,0,0,1,.8946.6538,3.0286,3.0286,0,0,1,.5761,1.0259,4.5463,4.5463,0,0,1,0,2.688,3.0248,3.0248,0,0,1-.5761,1.0263,2.5074,2.5074,0,0,1-.8946.6538A2.8644,2.8644,0,0,1,106.9238,66.9385Zm0-.96a1.6064,1.6064,0,0,0,1.1885-.456,1.8594,1.8594,0,0,0,.4561-1.3682v-.936a1.859,1.859,0,0,0-.4561-1.3677,1.7752,1.7752,0,0,0-2.376,0,1.8548,1.8548,0,0,0-.456,1.3677v.936a1.8553,1.8553,0,0,0,.456,1.3682A1.604,1.604,0,0,0,106.9238,65.9785Z"/><path class="cls-2" d="M114.6758,59.2822a.6779.6779,0,0,1-.51-.1679.6147.6147,0,0,1-.1621-.4439v-.168a.6144.6144,0,0,1,.1621-.4438.8573.8573,0,0,1,1.02,0,.61.61,0,0,1,.1622.4438v.168a.6106.6106,0,0,1-.1622.4439A.6776.6776,0,0,1,114.6758,59.2822Zm-.5645,1.2964h1.1172v6.2158h-1.1172Z"/><path class="cls-2" d="M121.1318,65.7861h-.0478a1.6883,1.6883,0,0,1-.6778.8614,2.0428,2.0428,0,0,1-1.11.291,2.3939,2.3939,0,0,1-1.05-.2222,2.1381,2.1381,0,0,1-.7861-.6479,3.0263,3.0263,0,0,1-.4922-1.0259,5.556,5.556,0,0,1,0-2.7119,3.0334,3.0334,0,0,1,.4922-1.0264,2.1482,2.1482,0,0,1,.7861-.648,2.3952,2.3952,0,0,1,1.05-.2216,2.0419,2.0419,0,0,1,1.11.291,1.69,1.69,0,0,1,.6778.8613h.0478V57.9146h1.1162v8.88h-1.1162Zm-1.5117.1924a2.0048,2.0048,0,0,0,.5879-.0845,1.4835,1.4835,0,0,0,.48-.2412,1.2475,1.2475,0,0,0,.3242-.3618.89.89,0,0,0,.12-.4585v-2.292a.89.89,0,0,0-.12-.4585,1.2475,1.2475,0,0,0-.3242-.3618,1.4855,1.4855,0,0,0-.48-.2412,2.0081,2.0081,0,0,0-.5879-.0845,1.5309,1.5309,0,0,0-1.1943.4825,1.8294,1.8294,0,0,0-.4375,1.2788v1.0615a1.83,1.83,0,0,0,.4375,1.2788A1.5308,1.5308,0,0,0,119.62,65.9785Z"/><path class="cls-2" d="M126.5918,66.9385a2.8322,2.8322,0,0,1-1.17-.2339,2.5382,2.5382,0,0,1-.8887-.6543,2.934,2.934,0,0,1-.5644-1.02,4.6548,4.6548,0,0,1,0-2.6817,2.9325,2.9325,0,0,1,.5644-1.0263,2.5357,2.5357,0,0,1,.8887-.6538,2.8242,2.8242,0,0,1,1.17-.2339,2.7624,2.7624,0,0,1,1.1582.2329,2.4653,2.4653,0,0,1,.8574.64,2.75,2.75,0,0,1,.5274.9688,3.9015,3.9015,0,0,1,.1806,1.2075V63.95h-4.38v.2524a1.82,1.82,0,0,0,.4561,1.2779,1.6673,1.6673,0,0,0,1.2959.498,1.8525,1.8525,0,0,0,1.0078-.2641,1.8925,1.8925,0,0,0,.6719-.7442l.7207.6162a2.4256,2.4256,0,0,1-.9727.9839A3.0337,3.0337,0,0,1,126.5918,66.9385Zm0-5.604a1.67,1.67,0,0,0-.666.1313,1.5794,1.5794,0,0,0-.5283.3633,1.5974,1.5974,0,0,0-.3418.5547,1.9933,1.9933,0,0,0-.12.7031V63.17h3.1915v-.1191a1.8149,1.8149,0,0,0-.4141-1.2456A1.4155,1.4155,0,0,0,126.5918,61.3345Z"/><path class="cls-2" d="M130.84,66.7944V60.5786h1.1153v1.0083h.0605a2.0294,2.0294,0,0,1,.63-.8315,1.7859,1.7859,0,0,1,1.1221-.3208,1.897,1.897,0,0,1,1.5058.624,2.5972,2.5972,0,0,1,.5459,1.7637v3.9721h-1.1162V62.9819q0-1.5872-1.3076-1.5874a1.9634,1.9634,0,0,0-.5342.0723,1.5617,1.5617,0,0,0-.4619.21,1.0311,1.0311,0,0,0-.3232.3487.99.99,0,0,0-.1211.499v4.2695Z"/><path class="cls-2" d="M139.2393,66.7944a1.15,1.15,0,0,1-.876-.3173,1.198,1.198,0,0,1-.3-.856V61.5386h-.9961v-.96h.5517a.5668.5668,0,0,0,.4317-.1323.654.654,0,0,0,.1211-.4439v-1.14H139.18v1.7163h1.332v.96H139.18v4.2959h1.2363v.96Z"/><path class="cls-2" d="M142.5635,59.2822a.6808.6808,0,0,1-.51-.1679.6105.6105,0,0,1-.1621-.4439v-.168a.61.61,0,0,1,.1621-.4438.8589.8589,0,0,1,1.02,0,.6144.6144,0,0,1,.1621.4438v.168a.6147.6147,0,0,1-.1621.4439A.6832.6832,0,0,1,142.5635,59.2822ZM142,60.5786h1.1152v6.2158H142Z"/><path class="cls-2" d="M145.4189,61.5386h-.9951v-.96h.9951V59.4263a1.612,1.612,0,0,1,.36-1.0977,1.3681,1.3681,0,0,1,1.0918-.414h.9727v.96h-1.3086v1.7041h1.3086v.96h-1.3086v5.2558h-1.1163Z"/><path class="cls-2" d="M153.0039,60.5786h1.08L151.3828,68.15a3.1224,3.1224,0,0,1-.2275.4922,1.0158,1.0158,0,0,1-.294.3237,1.177,1.177,0,0,1-.414.1743,2.8119,2.8119,0,0,1-.6.0537h-.6123v-.96h1.02l.42-1.1983-2.3047-6.4575h1.1162l1.38,3.9639.3242,1.1616h.0606l.3593-1.1616Z"/><path class="cls-2" d="M161.8828,65.7861h-.06a2.1087,2.1087,0,0,1-.2216.4336,1.5387,1.5387,0,0,1-.3477.3682,1.6992,1.6992,0,0,1-.498.2554,2.1544,2.1544,0,0,1-.6729.0952,1.9152,1.9152,0,0,1-1.5117-.624A2.5747,2.5747,0,0,1,158.02,64.55V60.5786h1.1153v3.8125q0,1.5872,1.32,1.5874a2.0768,2.0768,0,0,0,.5215-.0664,1.3335,1.3335,0,0,0,.457-.21,1.1719,1.1719,0,0,0,.3242-.36.9872.9872,0,0,0,.125-.5054V60.5786h1.1162v6.2158h-1.1162Z"/><path class="cls-2" d="M164.9668,66.7944V60.5786h1.1162v1.0083h.06a2.0313,2.0313,0,0,1,.6308-.8315,1.783,1.783,0,0,1,1.1211-.3208,1.8944,1.8944,0,0,1,1.5059.624,2.5929,2.5929,0,0,1,.5469,1.7637v3.9721h-1.1162V62.9819q0-1.5872-1.3077-1.5874a1.97,1.97,0,0,0-.5351.0723,1.5553,1.5553,0,0,0-.461.21,1.0341,1.0341,0,0,0-.3242.3487.9892.9892,0,0,0-.12.499v4.2695Z"/><path class="cls-2" d="M176.3672,66.7944a.9875.9875,0,0,1-.7744-.2881,1.34,1.34,0,0,1-.3174-.7441h-.0606a1.6018,1.6018,0,0,1-.66.8765,2.0709,2.0709,0,0,1-1.14.3,2.15,2.15,0,0,1-1.5127-.4981,1.7631,1.7631,0,0,1-.539-1.3618,1.5882,1.5882,0,0,1,.6543-1.374,3.412,3.412,0,0,1,1.997-.4741h1.1768v-.564a1.3049,1.3049,0,0,0-.3359-.96,1.4258,1.4258,0,0,0-1.045-.3359,1.6154,1.6154,0,0,0-.9179.2456,2.03,2.03,0,0,0-.6055.6421l-.6719-.6118a2.3557,2.3557,0,0,1,.834-.8579,2.6094,2.6094,0,0,1,1.4219-.354,2.6488,2.6488,0,0,1,1.8.5566,1.9824,1.9824,0,0,1,.6357,1.5747v3.2686h.6963v.96Zm-2.7-.7558a1.8681,1.8681,0,0,0,1.0918-.3.9026.9026,0,0,0,.4326-.7681v-.96h-1.1885a2.13,2.13,0,0,0-1.122.228.7371.7371,0,0,0-.3536.66v.24a.7877.7877,0,0,0,.3057.6655A1.3393,1.3393,0,0,0,173.667,66.0386Z"/><path class="cls-2" d="M182.1387,65.7861h-.0606a2.1092,2.1092,0,0,1-.2217.4336,1.5206,1.5206,0,0,1-.3476.3682,1.6763,1.6763,0,0,1-.4981.2554,2.1489,2.1489,0,0,1-.6728.0952,1.9149,1.9149,0,0,1-1.5117-.624,2.58,2.58,0,0,1-.5518-1.7642V60.5786h1.1162v3.8125q0,1.5872,1.32,1.5874a2.0768,2.0768,0,0,0,.5215-.0664,1.32,1.32,0,0,0,.4561-.21,1.1719,1.1719,0,0,0,.3242-.36.9876.9876,0,0,0,.126-.5054V60.5786h1.1152v6.2158h-1.1152Z"/><path class="cls-2" d="M186.7461,66.7944a1.1474,1.1474,0,0,1-.875-.3173,1.1941,1.1941,0,0,1-.3008-.856V61.5386h-.9961v-.96h.5528a.568.568,0,0,0,.4316-.1323.6543.6543,0,0,0,.12-.4439v-1.14h1.0088v1.7163h1.3311v.96h-1.3311v4.2959h1.2354v.96Z"/><path class="cls-2" d="M189.5059,57.9146h1.1171v3.6723h.06a2.0294,2.0294,0,0,1,.63-.8315,1.7859,1.7859,0,0,1,1.1221-.3208,1.897,1.897,0,0,1,1.5058.624,2.5921,2.5921,0,0,1,.5459,1.7637v3.9721h-1.1152V62.9819q0-1.5872-1.3086-1.5874a1.9687,1.9687,0,0,0-.5342.0723,1.5711,1.5711,0,0,0-.4619.21,1.0341,1.0341,0,0,0-.3242.3487.989.989,0,0,0-.1192.499v4.2695h-1.1171Z"/><path class="cls-2" d="M198.7705,66.9385a2.8648,2.8648,0,0,1-1.1582-.2281,2.5025,2.5025,0,0,1-.8935-.6538,3.0067,3.0067,0,0,1-.5762-1.0263,4.5272,4.5272,0,0,1,0-2.688,3.01,3.01,0,0,1,.5762-1.0259,2.5037,2.5037,0,0,1,.8935-.6538,3.0532,3.0532,0,0,1,2.3154,0,2.5,2.5,0,0,1,.8946.6538,3.0286,3.0286,0,0,1,.5761,1.0259,4.5272,4.5272,0,0,1,0,2.688,3.0248,3.0248,0,0,1-.5761,1.0263,2.4987,2.4987,0,0,1-.8946.6538A2.86,2.86,0,0,1,198.7705,66.9385Zm0-.96a1.61,1.61,0,0,0,1.1885-.456,1.8634,1.8634,0,0,0,.4551-1.3682v-.936a1.8629,1.8629,0,0,0-.4551-1.3677,1.7765,1.7765,0,0,0-2.377,0,1.8587,1.8587,0,0,0-.455,1.3677v.936a1.8591,1.8591,0,0,0,.455,1.3682A1.6079,1.6079,0,0,0,198.7705,65.9785Z"/><path class="cls-2" d="M203.127,66.7944V60.5786h1.1152v1.188h.06a1.7261,1.7261,0,0,1,.2159-.4443,1.535,1.535,0,0,1,.36-.378,1.844,1.844,0,0,1,.51-.2636,2.0243,2.0243,0,0,1,.666-.1021h.3721v1.1157h-.5518a2.1821,2.1821,0,0,0-1.207.2823.8538.8538,0,0,0-.4258.7378v4.08Z"/><path class="cls-2" d="M208.19,59.2822a.6807.6807,0,0,1-.51-.1679.6105.6105,0,0,1-.1621-.4439v-.168a.61.61,0,0,1,.1621-.4438.8589.8589,0,0,1,1.02,0,.6144.6144,0,0,1,.1621.4438v.168a.6147.6147,0,0,1-.1621.4439A.6833.6833,0,0,1,208.19,59.2822Zm-.5634,1.2964h1.1152v6.2158H207.627Z"/><path class="cls-2" d="M210.1348,66.7944v-.936l3.4433-4.32h-3.3359v-.96h4.668v.8638l-3.504,4.3921h3.6v.96Z"/><path class="cls-2" d="M218.6543,66.9385a2.8322,2.8322,0,0,1-1.17-.2339,2.5473,2.5473,0,0,1-.8887-.6543,2.9325,2.9325,0,0,1-.5635-1.02,4.6346,4.6346,0,0,1,0-2.6817,2.931,2.931,0,0,1,.5635-1.0263,2.5448,2.5448,0,0,1,.8887-.6538,2.8242,2.8242,0,0,1,1.17-.2339,2.7591,2.7591,0,0,1,1.1582.2329,2.4561,2.4561,0,0,1,.8574.64,2.7659,2.7659,0,0,1,.5283.9688,3.9284,3.9284,0,0,1,.1807,1.2075V63.95H216.998v.2524a1.8161,1.8161,0,0,0,.4571,1.2779,1.6649,1.6649,0,0,0,1.2949.498,1.85,1.85,0,0,0,1.0078-.2641,1.8947,1.8947,0,0,0,.6729-.7442l.72.6162a2.4133,2.4133,0,0,1-.9727.9839A3.0337,3.0337,0,0,1,218.6543,66.9385Zm0-5.604a1.6731,1.6731,0,0,0-.666.1313,1.5665,1.5665,0,0,0-.8692.918,1.9957,1.9957,0,0,0-.1211.7031V63.17H220.19v-.1191a1.8153,1.8153,0,0,0-.414-1.2456A1.4176,1.4176,0,0,0,218.6543,61.3345Z"/><path class="cls-2" d="M226.8379,65.7861H226.79a1.68,1.68,0,0,1-.6787.8614,2.04,2.04,0,0,1-1.1093.291,2.3916,2.3916,0,0,1-1.05-.2222,2.1462,2.1462,0,0,1-.7861-.6479,3.0281,3.0281,0,0,1-.4922-1.0259,5.5592,5.5592,0,0,1,0-2.7119,3.0353,3.0353,0,0,1,.4922-1.0264,2.1564,2.1564,0,0,1,.7861-.648,2.3929,2.3929,0,0,1,1.05-.2216,2.0387,2.0387,0,0,1,1.1093.291,1.6815,1.6815,0,0,1,.6787.8613h.0479V57.9146h1.1162v8.88h-1.1162Zm-1.5117.1924a2.0048,2.0048,0,0,0,.5879-.0845,1.5089,1.5089,0,0,0,.48-.2412,1.272,1.272,0,0,0,.3233-.3618.89.89,0,0,0,.12-.4585v-2.292a.89.89,0,0,0-.12-.4585,1.272,1.272,0,0,0-.3233-.3618,1.511,1.511,0,0,0-.48-.2412,2.0081,2.0081,0,0,0-.5879-.0845,1.5325,1.5325,0,0,0-1.1944.4825,1.83,1.83,0,0,0-.4384,1.2788v1.0615a1.83,1.83,0,0,0,.4384,1.2788A1.5325,1.5325,0,0,0,225.3262,65.9785Z"/><path class="cls-2" d="M48.5693,81.3389a2.8651,2.8651,0,0,1-1.1582-.2281,2.5034,2.5034,0,0,1-.8935-.6538,3.0067,3.0067,0,0,1-.5762-1.0263,4.5272,4.5272,0,0,1,0-2.688,3.01,3.01,0,0,1,.5762-1.0259,2.5034,2.5034,0,0,1,.8935-.6538,3.0534,3.0534,0,0,1,2.3155,0,2.4992,2.4992,0,0,1,.8945.6538,3.03,3.03,0,0,1,.5762,1.0259,4.5272,4.5272,0,0,1,0,2.688,3.0267,3.0267,0,0,1-.5762,1.0263,2.4992,2.4992,0,0,1-.8945.6538A2.86,2.86,0,0,1,48.5693,81.3389Zm0-.96a1.61,1.61,0,0,0,1.1885-.456,1.8634,1.8634,0,0,0,.4551-1.3682v-.936a1.8627,1.8627,0,0,0-.4551-1.3677,1.7764,1.7764,0,0,0-2.3769,0,1.8581,1.8581,0,0,0-.4551,1.3677v.936a1.8588,1.8588,0,0,0,.4551,1.3682A1.6077,1.6077,0,0,0,48.5693,80.3789Z"/><path class="cls-2" d="M52.9258,81.1948V74.979H54.041v1.188h.0606a1.7224,1.7224,0,0,1,.2158-.4443,1.5368,1.5368,0,0,1,.36-.378,1.844,1.844,0,0,1,.51-.2636,2.0247,2.0247,0,0,1,.666-.1021h.3721v1.1157h-.5518a2.1823,2.1823,0,0,0-1.207.2823.8536.8536,0,0,0-.4258.7377v4.08Z"/><path class="cls-2" d="M62.165,81.3389a3.0068,3.0068,0,0,1-1.458-.3243,3.28,3.28,0,0,1-1.0254-.8759l.7559-.648a2.5612,2.5612,0,0,0,.7852.6841,2.0757,2.0757,0,0,0,1.0136.24,1.4462,1.4462,0,0,0,.9121-.2461.8932.8932,0,0,0,.1026-1.2539,1.324,1.324,0,0,0-.7862-.312l-.5273-.084a4.0341,4.0341,0,0,1-.8164-.1923,2.104,2.104,0,0,1-.6367-.3477,1.536,1.536,0,0,1-.4141-.5283,1.7082,1.7082,0,0,1-.1494-.7437,1.8621,1.8621,0,0,1,.168-.81,1.623,1.623,0,0,1,.4677-.5884,2.1037,2.1037,0,0,1,.7149-.354,3.2508,3.2508,0,0,1,.9053-.12,2.9452,2.9452,0,0,1,1.32.2636,2.9084,2.9084,0,0,1,.9238.7325l-.708.6718a2.002,2.002,0,0,0-.6182-.5219,1.8986,1.8986,0,0,0-.9541-.2222,1.2967,1.2967,0,0,0-.8574.24.792.792,0,0,0-.2822.6358.6964.6964,0,0,0,.2705.6118,1.9162,1.9162,0,0,0,.81.2763l.5283.084a2.6479,2.6479,0,0,1,1.4814.6,1.5624,1.5624,0,0,1,.45,1.1636,1.7706,1.7706,0,0,1-.6367,1.44A2.6409,2.6409,0,0,1,62.165,81.3389Z"/><path class="cls-2" d="M69.9414,80.1865h-.0605a2.1726,2.1726,0,0,1-.2227.4336,1.5019,1.5019,0,0,1-.3477.3682,1.6745,1.6745,0,0,1-.498.2554,2.143,2.143,0,0,1-.6719.0952,1.9121,1.9121,0,0,1-1.5117-.6241,2.5745,2.5745,0,0,1-.5527-1.7641V74.979h1.1172v3.8125q0,1.5871,1.3193,1.5874a2.0846,2.0846,0,0,0,.5225-.0664,1.3083,1.3083,0,0,0,.455-.21,1.1608,1.1608,0,0,0,.3243-.36.989.989,0,0,0,.1269-.5054V74.979h1.1152v6.2158H69.9414Z"/><path class="cls-2" d="M74.9336,81.3389a3.0106,3.0106,0,0,1-1.459-.3243,3.29,3.29,0,0,1-1.0254-.8759l.7559-.648a2.5756,2.5756,0,0,0,.7861.6841,2.0737,2.0737,0,0,0,1.0137.24,1.45,1.45,0,0,0,.9121-.2461A.8955.8955,0,0,0,76.02,78.915a1.33,1.33,0,0,0-.7871-.312l-.5273-.084a4.05,4.05,0,0,1-.8164-.1923,2.0989,2.0989,0,0,1-.6358-.3477,1.5357,1.5357,0,0,1-.414-.5283,1.694,1.694,0,0,1-.1494-.7437,1.8621,1.8621,0,0,1,.1679-.81,1.6036,1.6036,0,0,1,.4678-.5884,2.1078,2.1078,0,0,1,.7139-.354,3.2578,3.2578,0,0,1,.9062-.12,2.6933,2.6933,0,0,1,2.2442.9961l-.709.6718a1.9988,1.9988,0,0,0-.6172-.5219,1.9015,1.9015,0,0,0-.9541-.2222,1.3,1.3,0,0,0-.8584.24.7943.7943,0,0,0-.2813.6358.6983.6983,0,0,0,.27.6118,1.9213,1.9213,0,0,0,.81.2763l.5274.084a2.6547,2.6547,0,0,1,1.4824.6,1.5617,1.5617,0,0,1,.4492,1.1636,1.77,1.77,0,0,1-.6357,1.44A2.6413,2.6413,0,0,1,74.9336,81.3389Z"/><path class="cls-2" d="M78.9043,74.979h1.1172v1.0083h.0469a1.6916,1.6916,0,0,1,.6787-.8613,2.04,2.04,0,0,1,1.11-.291,2.3938,2.3938,0,0,1,1.0488.2216,2.16,2.16,0,0,1,.7872.648,3.0711,3.0711,0,0,1,.4921,1.0264,5.556,5.556,0,0,1,0,2.7119,3.0638,3.0638,0,0,1-.4921,1.0259,2.15,2.15,0,0,1-.7872.6479,2.394,2.394,0,0,1-1.0488.2222,2.0407,2.0407,0,0,1-1.11-.291,1.69,1.69,0,0,1-.6787-.8614h-.0469v3.4082H78.9043Zm2.6289,5.4a1.53,1.53,0,0,0,1.1934-.4824,1.826,1.826,0,0,0,.4384-1.2788V77.5562a1.8261,1.8261,0,0,0-.4384-1.2789,1.5306,1.5306,0,0,0-1.1934-.4824,1.9951,1.9951,0,0,0-.5879.0845,1.5,1.5,0,0,0-.4805.2412,1.2475,1.2475,0,0,0-.3242.3618.8894.8894,0,0,0-.1191.4585v2.292a.8892.8892,0,0,0,.1191.4585,1.2475,1.2475,0,0,0,.3242.3618,1.5,1.5,0,0,0,.4805.2412A1.9951,1.9951,0,0,0,81.5332,80.3789Z"/><path class="cls-2" d="M86.4883,73.6826a.6775.6775,0,0,1-.51-.168.6143.6143,0,0,1-.1621-.4438v-.168a.6144.6144,0,0,1,.1621-.4438.8573.8573,0,0,1,1.02,0,.61.61,0,0,1,.1622.4438v.168a.61.61,0,0,1-.1622.4438A.6772.6772,0,0,1,86.4883,73.6826Zm-.5645,1.2964H87.041v6.2158H85.9238Z"/><path class="cls-2" d="M91.36,81.3389a2.9162,2.9162,0,0,1-1.1885-.2281,2.4268,2.4268,0,0,1-.875-.6479A2.8409,2.8409,0,0,1,88.75,79.437a4.6254,4.6254,0,0,1-.1855-1.35,4.5658,4.5658,0,0,1,.1855-1.3442,2.9114,2.9114,0,0,1,.5469-1.0259,2.4033,2.4033,0,0,1,.875-.6538,2.9162,2.9162,0,0,1,1.1885-.228,2.5415,2.5415,0,0,1,1.5.4077,2.4288,2.4288,0,0,1,.8525,1.08l-.9238.456a1.4452,1.4452,0,0,0-.5225-.72,1.51,1.51,0,0,0-.9062-.2637,1.4665,1.4665,0,0,0-1.2061.4917,1.9307,1.9307,0,0,0-.4023,1.26v1.08a1.928,1.928,0,0,0,.4023,1.26,1.4653,1.4653,0,0,0,1.2061.4922,1.6019,1.6019,0,0,0,.96-.2759,1.9894,1.9894,0,0,0,.624-.78l.8155.5039a2.45,2.45,0,0,1-.8994,1.11A2.6381,2.6381,0,0,1,91.36,81.3389Z"/><path class="cls-2" d="M95.6328,73.6826a.6776.6776,0,0,1-.51-.168.61.61,0,0,1-.1621-.4438v-.168a.61.61,0,0,1,.1621-.4438.8575.8575,0,0,1,1.02,0,.6144.6144,0,0,1,.1621.4438v.168a.6143.6143,0,0,1-.1621.4438A.6788.6788,0,0,1,95.6328,73.6826Zm-.5644,1.2964h1.1162v6.2158H95.0684Z"/><path class="cls-2" d="M100.541,81.3389a2.8617,2.8617,0,0,1-1.1582-.2281,2.507,2.507,0,0,1-.8945-.6538,3.0233,3.0233,0,0,1-.5762-1.0263,4.5485,4.5485,0,0,1,0-2.688,3.0271,3.0271,0,0,1,.5762-1.0259,2.507,2.507,0,0,1,.8945-.6538,3.0532,3.0532,0,0,1,2.3154,0,2.4942,2.4942,0,0,1,.8936.6538,3.0138,3.0138,0,0,1,.5762,1.0259,4.5082,4.5082,0,0,1,0,2.688,3.01,3.01,0,0,1-.5762,1.0263,2.4942,2.4942,0,0,1-.8936.6538A2.86,2.86,0,0,1,100.541,81.3389Zm0-.96a1.6072,1.6072,0,0,0,1.1875-.456,1.8594,1.8594,0,0,0,.4561-1.3682v-.936a1.8588,1.8588,0,0,0-.4561-1.3677,1.7752,1.7752,0,0,0-2.376,0,1.8588,1.8588,0,0,0-.456,1.3677v.936a1.8594,1.8594,0,0,0,.456,1.3682A1.6064,1.6064,0,0,0,100.541,80.3789Z"/><path class="cls-2" d="M108.7,80.1865h-.06a2.1669,2.1669,0,0,1-.2226.4336,1.521,1.521,0,0,1-.3477.3682,1.6992,1.6992,0,0,1-.498.2554,2.1478,2.1478,0,0,1-.6719.0952,1.9121,1.9121,0,0,1-1.5117-.6241,2.57,2.57,0,0,1-.5528-1.7641V74.979h1.1162v3.8125q0,1.5871,1.3194,1.5874a2.0832,2.0832,0,0,0,.5224-.0664,1.3214,1.3214,0,0,0,.4561-.21,1.1605,1.1605,0,0,0,.3242-.36.9876.9876,0,0,0,.126-.5054V74.979h1.1162v6.2158H108.7Z"/><path class="cls-2" d="M113.6924,81.3389a3.0065,3.0065,0,0,1-1.458-.3243,3.279,3.279,0,0,1-1.0254-.8759l.7558-.648a2.5623,2.5623,0,0,0,.7852.6841,2.0764,2.0764,0,0,0,1.0137.24,1.4462,1.4462,0,0,0,.9121-.2461.893.893,0,0,0,.1025-1.2539,1.3233,1.3233,0,0,0-.7861-.312l-.5274-.084a4.0373,4.0373,0,0,1-.8164-.1923,2.1052,2.1052,0,0,1-.6367-.3477,1.5345,1.5345,0,0,1-.414-.5283,1.7068,1.7068,0,0,1-.15-.7437,1.8621,1.8621,0,0,1,.168-.81,1.6233,1.6233,0,0,1,.4678-.5884,2.1041,2.1041,0,0,1,.7148-.354,3.2513,3.2513,0,0,1,.9053-.12,2.9449,2.9449,0,0,1,1.32.2636,2.9062,2.9062,0,0,1,.9238.7325l-.708.6718a2.0016,2.0016,0,0,0-.6181-.5219,1.8991,1.8991,0,0,0-.9541-.2222,1.297,1.297,0,0,0-.8575.24.7923.7923,0,0,0-.2822.6358.6966.6966,0,0,0,.27.6118,1.9162,1.9162,0,0,0,.81.2763l.5283.084a2.6483,2.6483,0,0,1,1.4815.6,1.5624,1.5624,0,0,1,.45,1.1636,1.7707,1.7707,0,0,1-.6368,1.44A2.6408,2.6408,0,0,1,113.6924,81.3389Z"/><path class="cls-2" d="M120.4961,72.3149h1.1152v3.6724h.0489a1.68,1.68,0,0,1,.6777-.8613,2.0388,2.0388,0,0,1,1.1094-.291,2.3992,2.3992,0,0,1,1.0507.2216,2.1446,2.1446,0,0,1,.7852.648,2.9984,2.9984,0,0,1,.4922,1.0264,5.556,5.556,0,0,1,0,2.7119,2.9914,2.9914,0,0,1-.4922,1.0259,2.1346,2.1346,0,0,1-.7852.6479,2.3994,2.3994,0,0,1-1.0507.2222,2.04,2.04,0,0,1-1.1094-.291,1.6784,1.6784,0,0,1-.6777-.8614h-.0489v1.0083h-1.1152Zm2.6269,8.064a1.5347,1.5347,0,0,0,1.1954-.4824,1.8344,1.8344,0,0,0,.4375-1.2788V77.5562a1.8344,1.8344,0,0,0-.4375-1.2789,1.535,1.535,0,0,0-1.1954-.4824,2.0085,2.0085,0,0,0-.5878.0845,1.4937,1.4937,0,0,0-.48.2412,1.2427,1.2427,0,0,0-.3233.3618.8909.8909,0,0,0-.1211.4585v2.292a.8906.8906,0,0,0,.1211.4585,1.2427,1.2427,0,0,0,.3233.3618,1.4937,1.4937,0,0,0,.48.2412A2.0085,2.0085,0,0,0,123.123,80.3789Z"/><path class="cls-2" d="M129.8916,81.3389a2.8371,2.8371,0,0,1-1.17-.2339,2.5344,2.5344,0,0,1-.8877-.6543,2.9326,2.9326,0,0,1-.5645-1.02,4.6571,4.6571,0,0,1,0-2.6817,2.9311,2.9311,0,0,1,.5645-1.0263,2.5334,2.5334,0,0,1,.8877-.6539,2.8291,2.8291,0,0,1,1.17-.2338,2.7591,2.7591,0,0,1,1.1582.2329,2.4691,2.4691,0,0,1,.8584.64,2.7632,2.7632,0,0,1,.5273.9688,3.9284,3.9284,0,0,1,.18,1.2075v.4663h-4.3789v.2524a1.82,1.82,0,0,0,.4551,1.2779,1.6708,1.6708,0,0,0,1.2969.498,1.8564,1.8564,0,0,0,1.0078-.2642,1.899,1.899,0,0,0,.6719-.7441l.72.6162a2.4169,2.4169,0,0,1-.9717.9839A3.0376,3.0376,0,0,1,129.8916,81.3389Zm0-5.604a1.6762,1.6762,0,0,0-.666.1313,1.59,1.59,0,0,0-.5283.3633,1.6109,1.6109,0,0,0-.3418.5547,1.9932,1.9932,0,0,0-.1192.7031v.0835h3.1914v-.1191a1.82,1.82,0,0,0-.414-1.2456A1.4176,1.4176,0,0,0,129.8916,75.7349Z"/><path class="cls-2" d="M134.14,72.3149h1.1163v3.6724h.06a2.0272,2.0272,0,0,1,.6289-.8315,1.789,1.789,0,0,1,1.1231-.3208,1.9,1.9,0,0,1,1.5058.624,2.597,2.597,0,0,1,.5449,1.7637v3.9721h-1.1152V77.3823q0-1.5871-1.3086-1.5874a1.9576,1.9576,0,0,0-.5332.0723,1.577,1.577,0,0,0-.4629.21,1.0311,1.0311,0,0,0-.3232.3487.9892.9892,0,0,0-.12.499v4.27H134.14Z"/><path class="cls-2" d="M145.5391,81.1948a.9856.9856,0,0,1-.7735-.2881,1.3558,1.3558,0,0,1-.3183-.7441h-.06a1.6061,1.6061,0,0,1-.66.8765,2.0705,2.0705,0,0,1-1.14.3,2.1441,2.1441,0,0,1-1.5117-.4981,1.7606,1.7606,0,0,1-.541-1.3618,1.5928,1.5928,0,0,1,.6543-1.374,3.4134,3.4134,0,0,1,1.998-.4741h1.1758v-.564a1.2964,1.2964,0,0,0-.336-.96,1.4219,1.4219,0,0,0-1.0429-.3359,1.6091,1.6091,0,0,0-.918.2456,2.0213,2.0213,0,0,0-.6064.6421l-.6729-.6118a2.3792,2.3792,0,0,1,.834-.8579,2.6173,2.6173,0,0,1,1.4228-.354,2.6458,2.6458,0,0,1,1.8.5566,1.983,1.983,0,0,1,.6367,1.5747v3.2686h.6953v.96ZM142.84,80.439a1.87,1.87,0,0,0,1.0918-.3.9016.9016,0,0,0,.4317-.7681v-.96h-1.1875a2.13,2.13,0,0,0-1.1221.2281.74.74,0,0,0-.3545.66v.24a.7884.7884,0,0,0,.3067.6655A1.341,1.341,0,0,0,142.84,80.439Z"/><path class="cls-2" d="M148.7676,81.1948l-2.1485-6.2158h1.1172l1.02,2.9756.6484,2.1484h.0713l.66-2.1484,1.0323-2.9756h1.0683l-2.16,6.2158Z"/><path class="cls-2" d="M153.9756,73.6826a.68.68,0,0,1-.51-.168.61.61,0,0,1-.1621-.4438v-.168a.61.61,0,0,1,.1621-.4438.8589.8589,0,0,1,1.02,0,.614.614,0,0,1,.1621.4438v.168a.6139.6139,0,0,1-.1621.4438A.6828.6828,0,0,1,153.9756,73.6826Zm-.5635,1.2964h1.1152v6.2158h-1.1152Z"/><path class="cls-2" d="M158.8828,81.3389a2.8682,2.8682,0,0,1-1.1582-.2281,2.5034,2.5034,0,0,1-.8935-.6538,2.9884,2.9884,0,0,1-.5752-1.0263,4.5061,4.5061,0,0,1,0-2.688,2.9921,2.9921,0,0,1,.5752-1.0259,2.5034,2.5034,0,0,1,.8935-.6538,3.0557,3.0557,0,0,1,2.3164,0,2.5062,2.5062,0,0,1,.8945.6538,3.0271,3.0271,0,0,1,.5762,1.0259,4.5485,4.5485,0,0,1,0,2.688,3.0233,3.0233,0,0,1-.5762,1.0263,2.5062,2.5062,0,0,1-.8945.6538A2.8648,2.8648,0,0,1,158.8828,81.3389Zm0-.96a1.6064,1.6064,0,0,0,1.1885-.456,1.8594,1.8594,0,0,0,.456-1.3682v-.936a1.8588,1.8588,0,0,0-.456-1.3677,1.7752,1.7752,0,0,0-2.376,0,1.8546,1.8546,0,0,0-.456,1.3677v.936a1.8553,1.8553,0,0,0,.456,1.3682A1.604,1.604,0,0,0,158.8828,80.3789Z"/><path class="cls-2" d="M163.2393,81.1948V74.979h1.1162v1.188h.06a1.7221,1.7221,0,0,1,.2149-.4443,1.5536,1.5536,0,0,1,.36-.378,1.8363,1.8363,0,0,1,.5108-.2636,2.0243,2.0243,0,0,1,.666-.1021h.3711v1.1157h-.5518a2.1767,2.1767,0,0,0-1.2061.2823.8516.8516,0,0,0-.4257.7377v4.08Z"/><path class="cls-2" d="M167.4629,81.3389a.6917.6917,0,0,1-.791-.7442v-.18a.7923.7923,0,1,1,1.584,0v.18a.6934.6934,0,0,1-.793.7442Z"/><rect class="cls-3" x="1" y="1" width="248" height="98"/></svg>