<?xml version="1.0" encoding="utf-8"?>
<!-- Generator: Adobe Illustrator 26.0.1, SVG Export Plug-In . SVG Version: 6.00 Build 0)  -->
<svg version="1.1" id="Layer_1" xmlns="http://www.w3.org/2000/svg" xmlns:xlink="http://www.w3.org/1999/xlink" x="0px" y="0px"
	 viewBox="0 0 250 100" style="enable-background:new 0 0 250 100;" xml:space="preserve">
<style type="text/css">
	.st0{fill:#242B66;}
	.st1{font-family:'IBMPlexSans-SemiBold';}
	.st2{font-size:13px;}
	.st3{fill:#525352;}
	.st4{font-family:'IBMPlexSans-Text';}
	.st5{font-size:12px;}
	.st6{fill:none;stroke:#242B66;stroke-width:1.968;stroke-miterlimit:10;}
</style>
<path class="st0" d="M19,38c-0.4,0-0.8-0.2-0.9-0.6L13.3,26H9v-2h5c0.4,0,0.8,0.2,0.9,0.6l4.1,9.7l8.1-21.6c0.1-0.4,0.5-0.7,0.9-0.6
	c0.4,0,0.8,0.3,0.9,0.7L32.7,24H37v2h-5c-0.4,0-0.8-0.3-1-0.7L28,16l-8.1,21.3C19.8,37.7,19.4,38,19,38z"/>
<text transform="matrix(1 0 0 1 45.1973 22.584)" class="st0 st1 st2">Activity Insights</text>
<text transform="matrix(1 0 0 1 45.1973 37.9945)"><tspan x="0" y="0" class="st3 st4 st5">Continuously analyze your activity</tspan><tspan x="0" y="14.4" class="st3 st4 st5">logs against predefined rule</tspan><tspan x="0" y="28.8" class="st3 st4 st5">packages to identify unauthorized</tspan><tspan x="0" y="43.2" class="st3 st4 st5">or suspicious behavior.</tspan></text>
<rect x="1" y="1" class="st6" width="248" height="98"/>
</svg>
