<?xml version="1.0" encoding="utf-8"?>
<svg xmlns="http://www.w3.org/2000/svg" width="181.1086" height="47.8204" viewBox="0 0 181.1086 47.8204"><defs><style>.cls-1{fill:#002d9c;}.cls-2{fill:#a6c8ff;}</style></defs><g id="Text"><path class="cls-1" d="M50.6339,18.8233v6.64a3.9734,3.9734,0,0,0,.5684,2.3281,2.9078,2.9078,0,0,0,3.9893,0A3.9734,3.9734,0,0,0,55.76,25.463v-6.64H57.049v6.3223a8.741,8.741,0,0,1-.2071,2.0254,3.556,3.556,0,0,1-.6679,1.4267,2.7416,2.7416,0,0,1-1.2041.8448,5.2719,5.2719,0,0,1-1.8194.2763,5.1336,5.1336,0,0,1-1.8027-.2763,2.6467,2.6467,0,0,1-1.1738-.8448,3.5127,3.5127,0,0,1-.6367-1.4267,9.3833,9.3833,0,0,1-.1915-2.0254V18.8233Z"/><path class="cls-1" d="M62.0812,29.7188a3.7033,3.7033,0,0,1-1.8486-.4228,4.2093,4.2093,0,0,1-1.2813-1.1279l.875-.7051a3.4476,3.4476,0,0,0,1.0274.8974,2.6772,2.6772,0,0,0,1.32.3145,1.9517,1.9517,0,0,0,1.22-.3379,1.2248,1.2248,0,0,0,.1377-1.7412,1.8257,1.8257,0,0,0-1.0811-.4531l-.63-.0918a5.2378,5.2378,0,0,1-1.0127-.2383,2.8283,2.8283,0,0,1-.8057-.4287,1.8662,1.8662,0,0,1-.5371-.668,2.1773,2.1773,0,0,1-.1914-.9517,2.2828,2.2828,0,0,1,.2148-1.02,2.0431,2.0431,0,0,1,.5908-.729,2.5767,2.5767,0,0,1,.8975-.4375,4.1526,4.1526,0,0,1,1.12-.1455,3.4962,3.4962,0,0,1,1.6192.3374,3.6416,3.6416,0,0,1,1.1435.9361l-.8135.7363a2.4448,2.4448,0,0,0-.7675-.6675,2.4732,2.4732,0,0,0-1.2735-.2988,1.7576,1.7576,0,0,0-1.1582.33,1.1111,1.1111,0,0,0-.3916.8979.9378.9378,0,0,0,.3916.8438,2.92,2.92,0,0,0,1.127.3838l.6142.0917a3.2939,3.2939,0,0,1,1.8721.76,1.9994,1.9994,0,0,1,.5527,1.4658,2.2405,2.2405,0,0,1-.7832,1.8106A3.2311,3.2311,0,0,1,62.0812,29.7188Z"/><path class="cls-1" d="M70.1535,29.7188a3.5513,3.5513,0,0,1-1.4659-.292,3.1633,3.1633,0,0,1-1.12-.8359,3.8137,3.8137,0,0,1-.7207-1.3047,5.8668,5.8668,0,0,1,0-3.4145,3.8069,3.8069,0,0,1,.7207-1.312,3.1707,3.1707,0,0,1,1.12-.836,3.5528,3.5528,0,0,1,1.4659-.2915,3.3637,3.3637,0,0,1,1.4267.29,3.1555,3.1555,0,0,1,1.0742.8028,3.5632,3.5632,0,0,1,.6827,1.2158,4.7818,4.7818,0,0,1,.2382,1.5449v.58H67.882v.3691a2.7115,2.7115,0,0,0,.1611.9434,2.2281,2.2281,0,0,0,.461.76,2.0847,2.0847,0,0,0,.7363.5058,2.5189,2.5189,0,0,0,.9892.1846,2.4019,2.4019,0,0,0,1.3125-.3535,2.3126,2.3126,0,0,0,.8672-1.0127l.874.6338a3.057,3.057,0,0,1-1.1962,1.32A3.6179,3.6179,0,0,1,70.1535,29.7188Zm0-7.2588a2.3346,2.3346,0,0,0-.9209.1758,2.073,2.073,0,0,0-.7139.4956,2.3256,2.3256,0,0,0-.4678.7544,2.6193,2.6193,0,0,0-.1689.9532v.1074h4.374v-.168a2.4077,2.4077,0,0,0-.5762-1.6851A1.9628,1.9628,0,0,0,70.1535,22.46Z"/><path class="cls-1" d="M84.9767,29.5343a1.2084,1.2084,0,0,1-.99-.3682,1.837,1.837,0,0,1-.376-.9209h-.0762a2.0474,2.0474,0,0,1-.8594,1.1045,2.6661,2.6661,0,0,1-1.4267.3691,2.7769,2.7769,0,0,1-1.957-.6445,2.263,2.263,0,0,1-.6983-1.75,1.998,1.998,0,0,1,.8213-1.7187,4.3676,4.3676,0,0,1,2.5547-.5987h1.5654v-.7822a1.7094,1.7094,0,0,0-.4609-1.2891,1.964,1.964,0,0,0-1.4111-.4448,2.1249,2.1249,0,0,0-1.2051.3223,2.6559,2.6559,0,0,0-.8057.8594l-.7363-.6905a2.7952,2.7952,0,0,1,1.0283-1.0971,3.2376,3.2376,0,0,1,1.78-.4527,3.2764,3.2764,0,0,1,2.24.7041,2.48,2.48,0,0,1,.7979,1.96v4.3481h.9052v1.09Zm-3.5293-.8594a3.1367,3.1367,0,0,0,.8438-.1074,2.0717,2.0717,0,0,0,.66-.3067,1.52,1.52,0,0,0,.43-.4609,1.1037,1.1037,0,0,0,.1533-.5674V25.9278H81.9074a2.9621,2.9621,0,0,0-1.542.3076.99.99,0,0,0-.4834.89v.3223a1.0732,1.0732,0,0,0,.4219.9052A1.8383,1.8383,0,0,0,81.4474,28.6749Z"/><path class="cls-1" d="M87.4162,29.5343v-7.918h1.2275v1.2744h.0615a2.5849,2.5849,0,0,1,.8213-1.0635,2.32,2.32,0,0,1,1.419-.395,2.4845,2.4845,0,0,1,1.9414.79,3.2178,3.2178,0,0,1,.7138,2.2329v5.0791H92.3732v-4.875q0-2.1379-1.7959-2.1377a2.7417,2.7417,0,0,0-.7129.0923,2.0781,2.0781,0,0,0-.6221.2768,1.3738,1.3738,0,0,0-.4375.4693,1.3339,1.3339,0,0,0-.1611.6689v5.5054Z"/><path class="cls-1" d="M99.1251,29.7188a3.5661,3.5661,0,0,1-1.458-.292,3.131,3.131,0,0,1-1.1279-.8359,3.9292,3.9292,0,0,1-.7295-1.3047,5.72,5.72,0,0,1,0-3.4145,3.9208,3.9208,0,0,1,.7295-1.312,3.1382,3.1382,0,0,1,1.1279-.836,3.5676,3.5676,0,0,1,1.458-.2915,3.52,3.52,0,0,1,1.45.2915,3.2425,3.2425,0,0,1,1.128.836,3.8667,3.8667,0,0,1,.7363,1.312,5.72,5.72,0,0,1,0,3.4145,3.8748,3.8748,0,0,1-.7363,1.3047,3.2348,3.2348,0,0,1-1.128.8359A3.5187,3.5187,0,0,1,99.1251,29.7188Zm0-1.09a2.229,2.229,0,0,0,1.626-.6143,2.5054,2.5054,0,0,0,.63-1.872V25.0069a2.5066,2.5066,0,0,0-.63-1.8716,2.4621,2.4621,0,0,0-3.2529,0,2.5063,2.5063,0,0,0-.6289,1.8716v1.1358a2.5052,2.5052,0,0,0,.6289,1.872A2.2329,2.2329,0,0,0,99.1251,28.629Z"/><path class="cls-1" d="M106.4757,29.5343a1.2589,1.2589,0,0,1-.9746-.3594,1.341,1.341,0,0,1-.33-.9424V22.7057h-1.3037V21.6163h.7364a.7233.7233,0,0,0,.5449-.1611.8393.8393,0,0,0,.1455-.56V19.422h1.1045v2.1943h1.7344v1.0894h-1.7344v5.7387H108.01v1.09Z"/><path class="cls-1" d="M110.1124,18.1788H111.34v4.7119h.0615a2.5746,2.5746,0,0,1,.82-1.0635,2.3231,2.3231,0,0,1,1.42-.395,2.486,2.486,0,0,1,1.9415.79,3.2175,3.2175,0,0,1,.7128,2.2329v5.0791h-1.2275v-4.875q0-2.1379-1.7949-2.1377a2.7493,2.7493,0,0,0-.7139.0923,2.0611,2.0611,0,0,0-.6211.2768,1.3642,1.3642,0,0,0-.4375.4693,1.3339,1.3339,0,0,0-.1611.6689v5.5054h-1.2276Z"/><path class="cls-1" d="M121.8048,29.7188a3.5574,3.5574,0,0,1-1.4658-.292,3.1624,3.1624,0,0,1-1.12-.8359,3.8456,3.8456,0,0,1-.7207-1.3047,5.889,5.889,0,0,1,0-3.4145,3.8385,3.8385,0,0,1,.7207-1.312,3.17,3.17,0,0,1,1.12-.836,3.5589,3.5589,0,0,1,1.4658-.2915,3.3609,3.3609,0,0,1,1.4268.29,3.1565,3.1565,0,0,1,1.0742.8028,3.5816,3.5816,0,0,1,.6836,1.2158,4.8066,4.8066,0,0,1,.2373,1.5449v.58h-5.6934v.3691a2.7116,2.7116,0,0,0,.1612.9434,2.2436,2.2436,0,0,0,.4609.76,2.0938,2.0938,0,0,0,.7363.5058,2.5276,2.5276,0,0,0,.99.1846,2.3985,2.3985,0,0,0,1.3115-.3535,2.3126,2.3126,0,0,0,.8672-1.0127l.875.6338a3.06,3.06,0,0,1-1.1973,1.32A3.613,3.613,0,0,1,121.8048,29.7188Zm0-7.2588a2.3349,2.3349,0,0,0-.9209.1758,2.0615,2.0615,0,0,0-.7129.4956,2.3109,2.3109,0,0,0-.4687.7544,2.6193,2.6193,0,0,0-.169.9532v.1074h4.3741v-.168a2.4118,2.4118,0,0,0-.5752-1.6851A1.9652,1.9652,0,0,0,121.8048,22.46Z"/><path class="cls-1" d="M127.2531,29.5343v-7.918h1.2275v1.4575h.0762a2.3965,2.3965,0,0,1,.7676-1.0127,2.3592,2.3592,0,0,1,1.5195-.4448h.4756v1.2275h-.7217a2.7744,2.7744,0,0,0-1.5576.376,1.1089,1.1089,0,0,0-.56.9439v5.3706Z"/><path class="cls-1" d="M139.4523,29.7188a3.6507,3.6507,0,0,1-1.4893-.292,3.0405,3.0405,0,0,1-1.1123-.8291,3.6769,3.6769,0,0,1-.69-1.3037,6.3431,6.3431,0,0,1,0-3.4375,3.6888,3.6888,0,0,1,.69-1.3042,3.046,3.046,0,0,1,1.1123-.8286,3.6523,3.6523,0,0,1,1.4893-.2915,3.1761,3.1761,0,0,1,1.8945.5137,3.14,3.14,0,0,1,1.0664,1.3428l-1.0273.5219a1.8677,1.8677,0,0,0-.7061-.9516,2.1237,2.1237,0,0,0-1.2275-.3374,2.463,2.463,0,0,0-.9668.1762,1.8845,1.8845,0,0,0-.69.4913,2.0737,2.0737,0,0,0-.4151.7519,3.1792,3.1792,0,0,0-.1377.9585V26.25a2.57,2.57,0,0,0,.56,1.7109,2.0329,2.0329,0,0,0,1.65.668,2.2285,2.2285,0,0,0,2.1484-1.3809l.89.5987a3.1475,3.1475,0,0,1-1.1436,1.3652A3.3387,3.3387,0,0,1,139.4523,29.7188Z"/><path class="cls-1" d="M145.5275,29.5343a1.2572,1.2572,0,0,1-.9746-.36,1.3011,1.3011,0,0,1-.3291-.9131V18.1788h1.2275V28.4444h1.166v1.09Z"/><path class="cls-1" d="M151.39,29.7188a3.5658,3.5658,0,0,1-1.458-.292,3.131,3.131,0,0,1-1.1279-.8359,3.9293,3.9293,0,0,1-.7286-1.3047,5.72,5.72,0,0,1,0-3.4145,3.9209,3.9209,0,0,1,.7286-1.312,3.1382,3.1382,0,0,1,1.1279-.836,3.5673,3.5673,0,0,1,1.458-.2915,3.5208,3.5208,0,0,1,1.45.2915,3.2422,3.2422,0,0,1,1.1279.836,3.8667,3.8667,0,0,1,.7363,1.312,5.7184,5.7184,0,0,1,0,3.4145,3.8748,3.8748,0,0,1-.7363,1.3047,3.2345,3.2345,0,0,1-1.1279.8359A3.5193,3.5193,0,0,1,151.39,29.7188Zm0-1.09a2.2293,2.2293,0,0,0,1.626-.6143,2.5054,2.5054,0,0,0,.63-1.872V25.0069a2.5066,2.5066,0,0,0-.63-1.8716,2.4622,2.4622,0,0,0-3.253,0,2.5063,2.5063,0,0,0-.6289,1.8716v1.1358a2.5052,2.5052,0,0,0,.6289,1.872A2.2333,2.2333,0,0,0,151.39,28.629Z"/><path class="cls-1" d="M161.8712,28.26H161.81a3.6806,3.6806,0,0,1-.3.539,2.0014,2.0014,0,0,1-.4375.4717,2.0366,2.0366,0,0,1-.6289.3262,2.7451,2.7451,0,0,1-.8594.122,2.5053,2.5053,0,0,1-1.9482-.791,3.1887,3.1887,0,0,1-.7217-2.2324V21.6163h1.2275v4.875q0,2.1372,1.8106,2.1377a2.7539,2.7539,0,0,0,.7139-.0928,1.957,1.957,0,0,0,.6142-.2763,1.4019,1.4019,0,0,0,.43-.4688,1.3683,1.3683,0,0,0,.1611-.6846v-5.49h1.2276v7.918h-1.2276Z"/><path class="cls-1" d="M170.7707,28.26h-.0616a2.4159,2.4159,0,0,1-2.3164,1.4589,3.0122,3.0122,0,0,1-1.3359-.292,2.9,2.9,0,0,1-1.02-.8291,3.7707,3.7707,0,0,1-.6436-1.3037,6.7467,6.7467,0,0,1,0-3.4375,3.783,3.783,0,0,1,.6436-1.3042,2.9051,2.9051,0,0,1,1.02-.8286,3.0133,3.0133,0,0,1,1.3359-.2915,2.6962,2.6962,0,0,1,1.419.3569,2.2231,2.2231,0,0,1,.8974,1.1016h.0616V18.1788h1.2275V29.5343h-1.2275Zm-2.0411.3691a2.832,2.832,0,0,0,.79-.1084,1.9607,1.9607,0,0,0,.6523-.3154,1.54,1.54,0,0,0,.4375-.5088,1.4341,1.4341,0,0,0,.1612-.6865V24.0484a1.2209,1.2209,0,0,0-.1612-.6093,1.518,1.518,0,0,0-.4375-.4859,2.2018,2.2018,0,0,0-.6523-.3159,2.6644,2.6644,0,0,0-.79-.1157,2.1128,2.1128,0,0,0-1.6416.6552,2.45,2.45,0,0,0-.5986,1.72V26.254a2.4477,2.4477,0,0,0,.5986,1.72A2.1129,2.1129,0,0,0,168.73,28.629Z"/><path class="cls-2" d="M41.7169,24.3314a7.4461,7.4461,0,0,0-5.9265-7.254,10.2525,10.2525,0,0,0-20.0628,0A7.4458,7.4458,0,0,0,9.8,24.3314,7.3569,7.3569,0,0,0,11.7251,29.29a6.82,6.82,0,0,0,4.9136,11.5694H29.1775a6.8126,6.8126,0,0,0,6.3942-9.235A7.4151,7.4151,0,0,0,41.7169,24.3314ZM29.1775,38.58H16.6387a4.551,4.551,0,0,1-.7672-9.0384l.7558-.1286.1662-.748a6.2649,6.2649,0,0,1,12.23,0l.1662.748.7553.1286a4.551,4.551,0,0,1-.7679,9.0384Zm5.13-9.1191h-.0632a6.7891,6.7891,0,0,0-3.187-2.0022,8.5438,8.5438,0,0,0-16.2987,0,6.8333,6.8333,0,0,0-1.1758.4643,5.0667,5.0667,0,0,1-1.5033-3.5911,5.1492,5.1492,0,0,1,4.7238-5.1079l.9295-.0728.113-.9256a7.9722,7.9722,0,0,1,15.8261,0l.1123.9256.9295.0728a5.1267,5.1267,0,0,1-.4062,10.2374Z"/></g></svg>