<svg id="Layer_1" data-name="Layer 1" xmlns="http://www.w3.org/2000/svg" width="250" height="100" viewBox="0 0 250 100"><defs><style>.cls-1,.cls-4{fill:none;}.cls-2{fill:#242b66;}.cls-3{fill:#525352;}.cls-4{stroke:#242b66;stroke-miterlimit:10;stroke-width:1.968px;}</style></defs><rect id="_Transparent_Rectangle_" data-name=" Transparent Rectangle " class="cls-1" x="7" y="9" width="32" height="32"/><polygon class="cls-2" points="37 39 31 39 31 37 35 37 35 13 31 13 31 11 37 11 37 39"/><path class="cls-2" d="M31.6788,28.59a4.5026,4.5026,0,0,0-6.16-3.24,4.9432,4.9432,0,0,0-.64.35l-2.81-2.81a4.53,4.53,0,1,0-1.41,1.41l2.81,2.81a4.4828,4.4828,0,0,0,2.05,6.54,4.5026,4.5026,0,0,0,6.16-3.24A4.6494,4.6494,0,0,0,31.6788,28.59ZM18.2688,23a2.5,2.5,0,1,1,2.5-2.5A2.5,2.5,0,0,1,18.2688,23Z"/><polygon class="cls-2" points="15 39 9 39 9 11 15 11 15 13 11 13 11 37 15 37 15 39"/><path class="cls-2" d="M49.7861,22.74a4.265,4.265,0,0,1-1.6181-.2924,3.24,3.24,0,0,1-1.2354-.8775,3.9651,3.9651,0,0,1-.7861-1.4492,6.6918,6.6918,0,0,1-.2735-2.0088,6.9533,6.9533,0,0,1,.2735-2.0342,4.1453,4.1453,0,0,1,.7861-1.4951,3.3437,3.3437,0,0,1,1.2354-.9165,4.0355,4.0355,0,0,1,1.6181-.312,3.6726,3.6726,0,0,1,2.0284.52,3.5724,3.5724,0,0,1,1.2871,1.5728l-1.4688.78a2.0712,2.0712,0,0,0-.6377-.9815,1.8233,1.8233,0,0,0-1.209-.3706,1.9211,1.9211,0,0,0-1.5273.65,2.685,2.685,0,0,0-.5654,1.82v1.43a2.6277,2.6277,0,0,0,.5654,1.8135,1.9481,1.9481,0,0,0,1.5273.63,1.8668,1.8668,0,0,0,1.2549-.4156,2.4042,2.4042,0,0,0,.708-1.0273l1.3916.8193a4.0013,4.0013,0,0,1-1.3135,1.5791A3.5081,3.5081,0,0,1,49.7861,22.74Z"/><path class="cls-2" d="M58.5615,21.4531h-.0654a2.2068,2.2068,0,0,1-.24.4873,1.7749,1.7749,0,0,1-.377.41,1.7123,1.7123,0,0,1-.5459.2856,2.366,2.366,0,0,1-.7344.104,1.9559,1.9559,0,0,1-1.6123-.6889,3.04,3.04,0,0,1-.5586-1.9629v-4.29h1.6641v4.121a1.7922,1.7922,0,0,0,.2725,1.0728,1.0117,1.0117,0,0,0,.8711.37,1.8536,1.8536,0,0,0,.4873-.0649,1.239,1.239,0,0,0,.4228-.2012,1.1112,1.1112,0,0,0,.2988-.3384.9259.9259,0,0,0,.1172-.4741V15.7979h1.6641V22.584H58.5615Z"/><path class="cls-2" d="M64.3721,22.74a3.6434,3.6434,0,0,1-1.6377-.331,3.7723,3.7723,0,0,1-1.17-.9165l1.0136-.9883a3.0743,3.0743,0,0,0,.8252.6763,2.1123,2.1123,0,0,0,1.0342.2466,1.41,1.41,0,0,0,.8633-.208.6856.6856,0,0,0,.2676-.5718.6171.6171,0,0,0-.1895-.4746,1.1964,1.1964,0,0,0-.6426-.24l-.6758-.0913a3.2076,3.2076,0,0,1-1.6835-.63,1.7534,1.7534,0,0,1-.5791-1.4233,2.0994,2.0994,0,0,1,.1826-.8906,1.88,1.88,0,0,1,.52-.6758,2.3709,2.3709,0,0,1,.8125-.4292,3.5209,3.5209,0,0,1,1.06-.1494,4.8568,4.8568,0,0,1,.8779.0713,3.237,3.237,0,0,1,.6953.208,2.7438,2.7438,0,0,1,.5723.3379,5.421,5.421,0,0,1,.5058.4487l-.9746.9751a2.572,2.572,0,0,0-.7148-.52,2.0043,2.0043,0,0,0-.91-.208,1.2546,1.2546,0,0,0-.7861.1948.6211.6211,0,0,0-.2412.5073.6426.6426,0,0,0,.2021.5132,1.39,1.39,0,0,0,.6826.2534l.6895.0913q2.1959.312,2.1963,2.002a2.0105,2.0105,0,0,1-.2022.9033,2.0563,2.0563,0,0,1-.5644.7022,2.68,2.68,0,0,1-.8779.455A3.8188,3.8188,0,0,1,64.3721,22.74Z"/><path class="cls-2" d="M70.6514,22.584a1.7732,1.7732,0,0,1-1.3067-.4473,1.727,1.727,0,0,1-.4482-1.2778V17.1372h-1.001V15.7979h.52a.6214.6214,0,0,0,.5127-.1753.8508.8508,0,0,0,.1367-.5264V13.939h1.4951v1.8589h1.3907v1.3393H70.5605v4.1079h1.2872V22.584Z"/><path class="cls-2" d="M76.0332,22.74a3.2942,3.2942,0,0,1-1.3066-.2465,2.7123,2.7123,0,0,1-.9883-.7154,3.2766,3.2766,0,0,1-.6309-1.1245,4.63,4.63,0,0,1-.2207-1.4751,4.5731,4.5731,0,0,1,.2207-1.4692,3.2191,3.2191,0,0,1,.6309-1.1113,2.7442,2.7442,0,0,1,.9883-.7085,3.2924,3.2924,0,0,1,1.3066-.2471,3.3457,3.3457,0,0,1,1.3125.2471,2.7165,2.7165,0,0,1,.9941.7085,3.2032,3.2032,0,0,1,.6309,1.1113,4.5457,4.5457,0,0,1,.2207,1.4692,4.6018,4.6018,0,0,1-.2207,1.4751,3.26,3.26,0,0,1-.6309,1.1245,2.6853,2.6853,0,0,1-.9941.7154A3.3474,3.3474,0,0,1,76.0332,22.74Zm0-1.3388a1.3532,1.3532,0,0,0,1.0391-.4029,1.669,1.669,0,0,0,.3769-1.1831V18.5542a1.65,1.65,0,0,0-.3769-1.17,1.3531,1.3531,0,0,0-1.0391-.4028,1.3394,1.3394,0,0,0-1.0273.4028,1.65,1.65,0,0,0-.377,1.17v1.2607a1.6686,1.6686,0,0,0,.377,1.1831A1.3394,1.3394,0,0,0,76.0332,21.4009Z"/><path class="cls-2" d="M80.66,22.584V15.7979h1.664v1.1313H82.39a2.1979,2.1979,0,0,1,.6241-.91,1.7513,1.7513,0,0,1,1.1963-.3769,2.1327,2.1327,0,0,1,1.2089.3379,1.9976,1.9976,0,0,1,.754,1.0268h.0263a1.907,1.907,0,0,1,.7207-.9682,2.2342,2.2342,0,0,1,1.3594-.3965,1.8427,1.8427,0,0,1,1.54.689,3.1238,3.1238,0,0,1,.54,1.9628v4.29H88.6953V18.4629q0-1.4553-1.0928-1.4561a1.5558,1.5558,0,0,0-.4736.0718,1.2606,1.2606,0,0,0-.4043.208.98.98,0,0,0-.3828.8125V22.584H84.6777V18.4629q0-1.4553-1.0918-1.4561a1.5273,1.5273,0,0,0-.4619.0718,1.2659,1.2659,0,0,0-.4033.208,1.0694,1.0694,0,0,0-.2852.3379.9663.9663,0,0,0-.1113.4746V22.584Z"/><path class="cls-2" d="M94.9473,22.74a3.39,3.39,0,0,1-1.3457-.2534,2.7728,2.7728,0,0,1-1-.7148,3.191,3.191,0,0,1-.6309-1.1182,5.041,5.041,0,0,1-.0059-2.9311A3.166,3.166,0,0,1,92.582,16.61a2.7227,2.7227,0,0,1,.9883-.7149,3.3005,3.3005,0,0,1,1.3252-.2534,3.2288,3.2288,0,0,1,1.3779.2729,2.658,2.658,0,0,1,.9629.7408,3.2115,3.2115,0,0,1,.5645,1.0859A4.483,4.483,0,0,1,97.99,19.061v.5459H93.4785v.168a1.6594,1.6594,0,0,0,.416,1.1807,1.6094,1.6094,0,0,0,1.2354.4453,1.8421,1.8421,0,0,0,1.02-.2578,2.945,2.945,0,0,0,.709-.6582l.8965,1.0039a2.7892,2.7892,0,0,1-1.1377.9189A3.9633,3.9633,0,0,1,94.9473,22.74Zm-.0254-5.85a1.3328,1.3328,0,0,0-1.0528.4419,1.6673,1.6673,0,0,0-.3906,1.1441v.104h2.7822v-.1172a1.7794,1.7794,0,0,0-.3447-1.1372A1.1912,1.1912,0,0,0,94.9219,16.89Z"/><path class="cls-2" d="M99.459,22.584V15.7979h1.664v1.4042h.0645a2.1642,2.1642,0,0,1,.2012-.5268,1.6424,1.6424,0,0,1,.3574-.4482,1.73,1.73,0,0,1,.5273-.3121,1.968,1.968,0,0,1,.708-.1171h.3643v1.5732h-.5195a2.6084,2.6084,0,0,0-1.2744.2471.857.857,0,0,0-.4288.8056v4.16Z"/><path class="cls-2" d="M104.2812,19.4512V17.8H108v1.6514Z"/><path class="cls-2" d="M109.7148,22.584V15.7979h1.6641v1.1313h.0654a2.1979,2.1979,0,0,1,.6241-.91,1.7512,1.7512,0,0,1,1.1962-.3769,2.1328,2.1328,0,0,1,1.209.3379,1.9969,1.9969,0,0,1,.7539,1.0268h.0264a1.907,1.907,0,0,1,.7207-.9682,2.2342,2.2342,0,0,1,1.3594-.3965,1.8427,1.8427,0,0,1,1.54.689,3.1238,3.1238,0,0,1,.54,1.9628v4.29H117.75V18.4629q0-1.4553-1.0928-1.4561a1.5558,1.5558,0,0,0-.4736.0718,1.26,1.26,0,0,0-.4043.208.98.98,0,0,0-.3828.8125V22.584h-1.6641V18.4629q0-1.4553-1.0918-1.4561a1.5273,1.5273,0,0,0-.4619.0718,1.2649,1.2649,0,0,0-.4033.208,1.0694,1.0694,0,0,0-.2852.3379.9663.9663,0,0,0-.1113.4746V22.584Z"/><path class="cls-2" d="M126.252,22.584a1.1686,1.1686,0,0,1-.8653-.3184,1.4663,1.4663,0,0,1-.3965-.8515h-.0781a1.5884,1.5884,0,0,1-.6894.9946,2.3468,2.3468,0,0,1-1.2862.331,2.1953,2.1953,0,0,1-1.5986-.5439,1.9321,1.9321,0,0,1-.56-1.4517,1.7583,1.7583,0,0,1,.7539-1.5615,3.8051,3.8051,0,0,1,2.1455-.5117h1.1563v-.4941a1.2273,1.2273,0,0,0-.2988-.8838,1.283,1.283,0,0,0-.962-.312,1.5959,1.5959,0,0,0-.9423.2534,2.5094,2.5094,0,0,0-.6045.6045l-.9873-.8892a2.8512,2.8512,0,0,1,1-.9477,3.2934,3.2934,0,0,1,1.6513-.36,3.1,3.1,0,0,1,2.0928.6225,2.2455,2.2455,0,0,1,.7148,1.79v3.1909h.6758V22.584Zm-2.7559-1.0532a1.747,1.747,0,0,0,.9482-.2452.7984.7984,0,0,0,.39-.7231v-.8906h-1.0654q-1.2995,0-1.3.8266v.2193a.7165.7165,0,0,0,.2657.6133A1.251,1.251,0,0,0,123.4961,21.5308Z"/><path class="cls-2" d="M128.5264,22.584V15.7979h1.664v1.1313h.0655a2.1679,2.1679,0,0,1,.6562-.9165,1.8931,1.8931,0,0,1,1.2412-.3706,1.9557,1.9557,0,0,1,1.6123.689,3.0411,3.0411,0,0,1,.5586,1.9628v4.29H132.66V18.4629a1.8755,1.8755,0,0,0-.26-1.0918.9813.9813,0,0,0-.8574-.3643,1.7419,1.7419,0,0,0-.501.0718,1.38,1.38,0,0,0-.4287.208,1.071,1.071,0,0,0-.3057.3379.9275.9275,0,0,0-.1172.4746V22.584Z"/><path class="cls-2" d="M141.1621,22.584a1.17,1.17,0,0,1-.8652-.3184,1.4718,1.4718,0,0,1-.3965-.8515h-.0772a1.5918,1.5918,0,0,1-.6894.9946,2.349,2.349,0,0,1-1.2861.331,2.2,2.2,0,0,1-1.6-.5439,1.9318,1.9318,0,0,1-.5585-1.4517,1.758,1.758,0,0,1,.7539-1.5615,3.799,3.799,0,0,1,2.1445-.5117h1.1572v-.4941a1.2233,1.2233,0,0,0-.3-.8838,1.2816,1.2816,0,0,0-.9609-.312,1.5974,1.5974,0,0,0-.9434.2534,2.4892,2.4892,0,0,0-.6035.6045l-.9883-.8892a2.8636,2.8636,0,0,1,1.001-.9477,3.2909,3.2909,0,0,1,1.6514-.36,3.0992,3.0992,0,0,1,2.0918.6225,2.2464,2.2464,0,0,1,.7158,1.79v3.1909h.6758V22.584Zm-2.7559-1.0532a1.7488,1.7488,0,0,0,.9493-.2452.8005.8005,0,0,0,.39-.7231v-.8906H138.68q-1.3008,0-1.3008.8266v.2193a.7173.7173,0,0,0,.2666.6133A1.2479,1.2479,0,0,0,138.4062,21.5308Z"/><path class="cls-2" d="M149.5605,23.1558a2.2273,2.2273,0,0,1-.1894.9428,1.5933,1.5933,0,0,1-.6172.6822,3.3324,3.3324,0,0,1-1.1055.416,9.6278,9.6278,0,0,1-3.1064.0327,3.4969,3.4969,0,0,1-.9815-.312,1.3113,1.3113,0,0,1-.5527-.5,1.3545,1.3545,0,0,1-.1689-.6758,1.2015,1.2015,0,0,1,.3193-.8906,1.5625,1.5625,0,0,1,.8906-.41v-.143a1.106,1.106,0,0,1-.6445-.41,1.1762,1.1762,0,0,1-.2266-.7222.9837.9837,0,0,1,.1035-.4624,1.0826,1.0826,0,0,1,.2793-.3452,1.7309,1.7309,0,0,1,.3965-.24,2.3089,2.3089,0,0,1,.4688-.15v-.0523a2.0308,2.0308,0,0,1-.93-.7925,2.2392,2.2392,0,0,1-.3066-1.1821,2.1139,2.1139,0,0,1,.7158-1.6689,3.0769,3.0769,0,0,1,2.0927-.63,4.7863,4.7863,0,0,1,.6172.0391,2.7782,2.7782,0,0,1,.5664.13V15.59a.8615.8615,0,0,1,.961-.9877h1.0537V15.876h-1.4434v.1821a1.9618,1.9618,0,0,1,.793.78,2.2938,2.2938,0,0,1,.2607,1.105,2.0907,2.0907,0,0,1-.7089,1.6509,3.0923,3.0923,0,0,1-2.1.624,4.0882,4.0882,0,0,1-1.04-.1167,1.1144,1.1144,0,0,0-.3379.24.5156.5156,0,0,0-.1435.3706q0,.5069.8847.5069h1.82a2.648,2.648,0,0,1,1.8125.5136A1.8268,1.8268,0,0,1,149.5605,23.1558Zm-1.56.1953a.5834.5834,0,0,0-.26-.5073,1.6358,1.6358,0,0,0-.8965-.1817h-2.3144a.8277.8277,0,0,0-.3516.7017.7.7,0,0,0,.3252.6113,2.0528,2.0528,0,0,0,1.1045.2207h.8321a2.5427,2.5427,0,0,0,1.1894-.208A.6814.6814,0,0,0,148,23.3511Zm-2.002-4.2769q1.2218,0,1.2227-1.0342v-.22q0-1.0341-1.2227-1.0342T144.7754,17.82v.22Q144.7754,19.0743,145.998,19.0742Z"/><path class="cls-2" d="M153.1875,22.74a3.3838,3.3838,0,0,1-1.3457-.2534,2.7907,2.7907,0,0,1-1.002-.7148,3.2047,3.2047,0,0,1-.63-1.1182,5.03,5.03,0,0,1-.0069-2.9311A3.1962,3.1962,0,0,1,150.82,16.61a2.7466,2.7466,0,0,1,.9883-.7149,3.3085,3.3085,0,0,1,1.3262-.2534,3.2259,3.2259,0,0,1,1.3779.2729,2.656,2.656,0,0,1,.9619.7408,3.2134,3.2134,0,0,1,.5664,1.0859,4.5162,4.5162,0,0,1,.1875,1.3193v.5459h-4.5107v.168a1.6589,1.6589,0,0,0,.416,1.1807,1.6077,1.6077,0,0,0,1.2353.4453,1.8417,1.8417,0,0,0,1.02-.2578,2.8888,2.8888,0,0,0,.7081-.6582l.8974,1.0039a2.8011,2.8011,0,0,1-1.1377.9189A3.9583,3.9583,0,0,1,153.1875,22.74Zm-.0264-5.85a1.3361,1.3361,0,0,0-1.0537.4419,1.6667,1.6667,0,0,0-.39,1.1441v.104H154.5v-.1172a1.7794,1.7794,0,0,0-.3447-1.1372A1.1927,1.1927,0,0,0,153.1611,16.89Z"/><path class="cls-2" d="M161.91,21.4531h-.0645a1.7446,1.7446,0,0,1-.6895.9361,2.0279,2.0279,0,0,1-1.1835.3505,2.298,2.298,0,0,1-1.9688-.9228,4.38,4.38,0,0,1-.6826-2.6387,4.3242,4.3242,0,0,1,.6826-2.62,2.3044,2.3044,0,0,1,1.9688-.9165,2.0552,2.0552,0,0,1,1.1835.3442,1.7124,1.7124,0,0,1,.6895.93h.0645V12.9639h1.664v9.62H161.91Zm-1.4043-.0913a1.693,1.693,0,0,0,1.0019-.2856.9463.9463,0,0,0,.4024-.8194V18.0991a.9412.9412,0,0,0-.4024-.7929,1.6388,1.6388,0,0,0-1.0019-.2994,1.3472,1.3472,0,0,0-1.0459.4356,1.6605,1.6605,0,0,0-.3965,1.1636v1.17a1.6368,1.6368,0,0,0,.3965,1.1572A1.3571,1.3571,0,0,0,160.5059,21.3618Z"/><path class="cls-3" d="M52.7334,31.2266h-.06l-.6845,1.38-1.92,3.5162-1.92-3.5162-.6846-1.38h-.0595v6.768h-1.128V29.6187h1.4639l2.3281,4.4038h.0479l2.3281-4.4038h1.416v8.3759H52.7334Z"/><path class="cls-3" d="M58.3135,38.1387a2.8648,2.8648,0,0,1-1.1582-.2281,2.5038,2.5038,0,0,1-.8936-.6538,3.01,3.01,0,0,1-.5762-1.0263,4.5272,4.5272,0,0,1,0-2.688,3.0138,3.0138,0,0,1,.5762-1.0259,2.5038,2.5038,0,0,1,.8936-.6538,3.0532,3.0532,0,0,1,2.3154,0,2.4983,2.4983,0,0,1,.8945.6538,3.0271,3.0271,0,0,1,.5762,1.0259,4.5272,4.5272,0,0,1,0,2.688,3.0233,3.0233,0,0,1-.5762,1.0263,2.4983,2.4983,0,0,1-.8945.6538A2.86,2.86,0,0,1,58.3135,38.1387Zm0-.96a1.61,1.61,0,0,0,1.1885-.456,1.8633,1.8633,0,0,0,.455-1.3682v-.936a1.8627,1.8627,0,0,0-.455-1.3677,1.7765,1.7765,0,0,0-2.377,0,1.8585,1.8585,0,0,0-.4551,1.3677v.936a1.8592,1.8592,0,0,0,.4551,1.3682A1.6079,1.6079,0,0,0,58.3135,37.1787Z"/><path class="cls-3" d="M62.6689,37.9946V31.7788h1.1163v1.0083h.06a2.0272,2.0272,0,0,1,.6289-.8315,1.789,1.789,0,0,1,1.1231-.3208,1.9,1.9,0,0,1,1.5058.624,2.597,2.597,0,0,1,.5449,1.7637v3.9721H66.5332V34.1821q0-1.5871-1.3086-1.5874a1.9615,1.9615,0,0,0-.5332.0723,1.577,1.577,0,0,0-.4629.21,1.0311,1.0311,0,0,0-.3232.3487.9892.9892,0,0,0-.12.499v4.27Z"/><path class="cls-3" d="M70.1094,30.4824a.6779.6779,0,0,1-.51-.1679.6105.6105,0,0,1-.1621-.4439v-.168a.61.61,0,0,1,.1621-.4438.8573.8573,0,0,1,1.02,0,.614.614,0,0,1,.1621.4438v.168a.6143.6143,0,0,1-.1621.4439A.6791.6791,0,0,1,70.1094,30.4824Zm-.5645,1.2964h1.1162v6.2158H69.5449Z"/><path class="cls-3" d="M74.1523,37.9946a1.1472,1.1472,0,0,1-.875-.3174,1.1936,1.1936,0,0,1-.3007-.8559V32.7388h-.9961v-.96h.5527a.5679.5679,0,0,0,.4316-.1323.6543.6543,0,0,0,.12-.4439v-1.14h1.0087v1.7163h1.3311v.96H74.0937v4.2959h1.2354v.96Z"/><path class="cls-3" d="M79.2529,38.1387a2.8651,2.8651,0,0,1-1.1582-.2281,2.5034,2.5034,0,0,1-.8935-.6538,3.0067,3.0067,0,0,1-.5762-1.0263,4.5272,4.5272,0,0,1,0-2.688,3.01,3.01,0,0,1,.5762-1.0259,2.5034,2.5034,0,0,1,.8935-.6538,3.0534,3.0534,0,0,1,2.3155,0,2.4992,2.4992,0,0,1,.8945.6538,3.03,3.03,0,0,1,.5762,1.0259,4.5272,4.5272,0,0,1,0,2.688,3.0267,3.0267,0,0,1-.5762,1.0263,2.4992,2.4992,0,0,1-.8945.6538A2.86,2.86,0,0,1,79.2529,38.1387Zm0-.96a1.61,1.61,0,0,0,1.1885-.456,1.8634,1.8634,0,0,0,.4551-1.3682v-.936a1.8627,1.8627,0,0,0-.4551-1.3677,1.7764,1.7764,0,0,0-2.3769,0,1.8581,1.8581,0,0,0-.4551,1.3677v.936a1.8588,1.8588,0,0,0,.4551,1.3682A1.6075,1.6075,0,0,0,79.2529,37.1787Z"/><path class="cls-3" d="M83.6094,37.9946V31.7788h1.1152v1.188h.0606a1.7224,1.7224,0,0,1,.2158-.4443,1.5368,1.5368,0,0,1,.36-.378,1.844,1.844,0,0,1,.51-.2636,2.0247,2.0247,0,0,1,.666-.1021h.3721v1.1157h-.5518a2.1821,2.1821,0,0,0-1.207.2823.8537.8537,0,0,0-.4258.7378v4.08Z"/><path class="cls-3" d="M94.77,31.7788h1.08l-2.7012,7.5718a3.1224,3.1224,0,0,1-.2275.4922,1.0166,1.0166,0,0,1-.2939.3237,1.1783,1.1783,0,0,1-.4141.1743,2.8119,2.8119,0,0,1-.6.0537H91.001v-.96h1.02l.42-1.1983-2.3047-6.4575h1.1162l1.38,3.9639.3242,1.1616h.0606l.3594-1.1616Z"/><path class="cls-3" d="M99.3291,38.1387a2.8648,2.8648,0,0,1-1.1582-.2281,2.5038,2.5038,0,0,1-.8936-.6538,3.0082,3.0082,0,0,1-.5761-1.0263,4.5272,4.5272,0,0,1,0-2.688,3.0119,3.0119,0,0,1,.5761-1.0259,2.5038,2.5038,0,0,1,.8936-.6538,3.0532,3.0532,0,0,1,2.3154,0,2.4987,2.4987,0,0,1,.8946.6538,3.0286,3.0286,0,0,1,.5761,1.0259,4.5272,4.5272,0,0,1,0,2.688,3.0248,3.0248,0,0,1-.5761,1.0263,2.4987,2.4987,0,0,1-.8946.6538A2.86,2.86,0,0,1,99.3291,38.1387Zm0-.96a1.61,1.61,0,0,0,1.1885-.456,1.8634,1.8634,0,0,0,.4551-1.3682v-.936a1.8627,1.8627,0,0,0-.4551-1.3677,1.7765,1.7765,0,0,0-2.377,0,1.8585,1.8585,0,0,0-.4551,1.3677v.936a1.8592,1.8592,0,0,0,.4551,1.3682A1.6079,1.6079,0,0,0,99.3291,37.1787Z"/><path class="cls-3" d="M107.4883,36.9863h-.06a2.1167,2.1167,0,0,1-.2217.4336,1.54,1.54,0,0,1-.3476.3682,1.701,1.701,0,0,1-.4981.2554,2.1533,2.1533,0,0,1-.6728.0952,1.9146,1.9146,0,0,1-1.5117-.6241,2.5743,2.5743,0,0,1-.5518-1.7641V31.7788H104.74v3.8125q0,1.5872,1.32,1.5874a2.0762,2.0762,0,0,0,.5215-.0664,1.3359,1.3359,0,0,0,.4571-.21,1.173,1.173,0,0,0,.3242-.36.9872.9872,0,0,0,.125-.5054V31.7788h1.1162v6.2158h-1.1162Z"/><path class="cls-3" d="M110.5723,37.9946V31.7788H111.69v1.188h.0595a1.7588,1.7588,0,0,1,.2158-.4443,1.533,1.533,0,0,1,.3594-.378,1.8632,1.8632,0,0,1,.5108-.2636,2.0281,2.0281,0,0,1,.666-.1021h.372v1.1157H113.32a2.173,2.173,0,0,0-1.2051.2823.85.85,0,0,0-.4257.7378v4.08Z"/><path class="cls-3" d="M117.6162,37.9946v-.9839H118.78V30.6025h-1.1641v-.9838h3.4922v.9838h-1.1641v6.4082h1.1641v.9839Z"/><path class="cls-3" d="M122.8848,29.6187h3.5644a2.25,2.25,0,0,1,1.6436.5878,2.1042,2.1042,0,0,1,.6006,1.5723,2.0248,2.0248,0,0,1-.1387.792,1.7271,1.7271,0,0,1-.3418.5337,1.4164,1.4164,0,0,1-.4561.3184,1.68,1.68,0,0,1-.48.1318v.0718a1.8453,1.8453,0,0,1,.5332.12,1.76,1.76,0,0,1,.5586.3423,1.8525,1.8525,0,0,1,.4375.6,2.0822,2.0822,0,0,1,.1739.894,2.6351,2.6351,0,0,1-.168.9541,2.4441,2.4441,0,0,1-.4561.7622,2.1072,2.1072,0,0,1-.6835.51,2.0086,2.0086,0,0,1-.8643.186h-3.9238Zm1.164,3.5878h2.22a1.242,1.242,0,0,0,.8642-.2817,1.0362,1.0362,0,0,0,.3125-.81v-.3959a1.0362,1.0362,0,0,0-.3125-.81,1.2422,1.2422,0,0,0-.8642-.2822h-2.22Zm0,3.78h2.4121a1.3532,1.3532,0,0,0,.9356-.3,1.1255,1.1255,0,0,0,.3359-.8877v-.42a1.1269,1.1269,0,0,0-.3359-.8877,1.3532,1.3532,0,0,0-.9356-.3h-2.4121Z"/><path class="cls-3" d="M137.2246,31.2266h-.0605l-.6836,1.38-1.92,3.5162-1.92-3.5162-.6836-1.38h-.06v6.768h-1.1279V29.6187h1.4638l2.3281,4.4038h.0479l2.3281-4.4038h1.416v8.3759h-1.1279Z"/><path class="cls-3" d="M146.3809,38.1387a3.1021,3.1021,0,0,1-2.5264-1.11,4.9407,4.9407,0,0,1-.918-3.2222,4.9413,4.9413,0,0,1,.918-3.2221,3.1021,3.1021,0,0,1,2.5264-1.11,3.2114,3.2114,0,0,1,1.7939.4746,3.1368,3.1368,0,0,1,1.1338,1.3736l-.96.5517a2.231,2.231,0,0,0-.7256-.9961,2.2185,2.2185,0,0,0-2.8564.3389,2.9934,2.9934,0,0,0-.582,1.9512v1.2763a2.9934,2.9934,0,0,0,.582,1.9512,1.9713,1.9713,0,0,0,1.6143.71,2.017,2.017,0,0,0,1.289-.4018,2.33,2.33,0,0,0,.75-1.05l.9365.564a3.3134,3.3134,0,0,1-1.1572,1.41A3.1544,3.1544,0,0,1,146.3809,38.1387Z"/><path class="cls-3" d="M151.9365,37.9946a1.14,1.14,0,0,1-.87-.312,1.161,1.161,0,0,1-.2939-.8281v-7.74h1.1162v7.92h.8877v.96Z"/><path class="cls-3" d="M156.4961,38.1387a2.8682,2.8682,0,0,1-1.1582-.2281,2.5038,2.5038,0,0,1-.8936-.6538,2.9917,2.9917,0,0,1-.5752-1.0263,4.5082,4.5082,0,0,1,0-2.688,2.9954,2.9954,0,0,1,.5752-1.0259,2.5038,2.5038,0,0,1,.8936-.6538,3.0557,3.0557,0,0,1,2.3164,0,2.5062,2.5062,0,0,1,.8945.6538,3.0271,3.0271,0,0,1,.5762,1.0259,4.5485,4.5485,0,0,1,0,2.688,3.0233,3.0233,0,0,1-.5762,1.0263,2.5062,2.5062,0,0,1-.8945.6538A2.8651,2.8651,0,0,1,156.4961,38.1387Zm0-.96a1.6064,1.6064,0,0,0,1.1885-.456,1.8594,1.8594,0,0,0,.456-1.3682v-.936a1.8588,1.8588,0,0,0-.456-1.3677,1.7752,1.7752,0,0,0-2.376,0,1.8546,1.8546,0,0,0-.4561,1.3677v.936a1.8553,1.8553,0,0,0,.4561,1.3682A1.604,1.604,0,0,0,156.4961,37.1787Z"/><path class="cls-3" d="M164.6562,36.9863h-.0605a2.1167,2.1167,0,0,1-.2217.4336,1.5206,1.5206,0,0,1-.3476.3682,1.6763,1.6763,0,0,1-.4981.2554,2.1493,2.1493,0,0,1-.6728.0952,1.915,1.915,0,0,1-1.5118-.6241,2.58,2.58,0,0,1-.5517-1.7641V31.7788h1.1162v3.8125q0,1.5872,1.32,1.5874a2.0768,2.0768,0,0,0,.5215-.0664,1.3223,1.3223,0,0,0,.4561-.21,1.173,1.173,0,0,0,.3242-.36.9875.9875,0,0,0,.1259-.5054V31.7788h1.1153v6.2158h-1.1153Z"/><path class="cls-3" d="M171.6758,36.9863h-.0469a1.69,1.69,0,0,1-.6787.8614,2.0408,2.0408,0,0,1-1.11.291,2.3867,2.3867,0,0,1-1.0488-.2222,2.1493,2.1493,0,0,1-.7871-.6479,3.0658,3.0658,0,0,1-.4922-1.0259,5.556,5.556,0,0,1,0-2.7119,3.0732,3.0732,0,0,1,.4922-1.0264,2.16,2.16,0,0,1,.7871-.648,2.388,2.388,0,0,1,1.0488-.2216,2.04,2.04,0,0,1,1.11.291,1.6916,1.6916,0,0,1,.6787.8613h.0469V29.1147h1.1172v8.88h-1.1172Zm-1.5117.1924a2,2,0,0,0,.5879-.0845,1.5,1.5,0,0,0,.48-.2412,1.2591,1.2591,0,0,0,.3242-.3618.8892.8892,0,0,0,.1192-.4585v-2.292a.89.89,0,0,0-.1192-.4585,1.2591,1.2591,0,0,0-.3242-.3618,1.5016,1.5016,0,0,0-.48-.2412,2,2,0,0,0-.5879-.0845,1.5292,1.5292,0,0,0-1.1934.4824,1.8257,1.8257,0,0,0-.4385,1.2789v1.0615a1.8256,1.8256,0,0,0,.4385,1.2788A1.5289,1.5289,0,0,0,170.1641,37.1787Z"/><path class="cls-3" d="M177.5918,37.9946V31.7788h1.1162v1.188h.06a1.76,1.76,0,0,1,.2168-.4443,1.5144,1.5144,0,0,1,.3593-.378,1.8727,1.8727,0,0,1,.51-.2636,2.029,2.029,0,0,1,.666-.1021h.3731v1.1157H180.34a2.1786,2.1786,0,0,0-1.206.2823.8515.8515,0,0,0-.4258.7378v4.08Z"/><path class="cls-3" d="M184.4082,38.1387a2.8338,2.8338,0,0,1-1.17-.2339,2.5473,2.5473,0,0,1-.8887-.6543,2.9325,2.9325,0,0,1-.5635-1.02,4.6346,4.6346,0,0,1,0-2.6817,2.931,2.931,0,0,1,.5635-1.0263,2.5448,2.5448,0,0,1,.8887-.6538,2.8242,2.8242,0,0,1,1.17-.2339,2.7591,2.7591,0,0,1,1.1582.2329,2.4561,2.4561,0,0,1,.8574.64,2.7659,2.7659,0,0,1,.5283.9688,3.9284,3.9284,0,0,1,.1807,1.2075V35.15H182.752v.2524a1.816,1.816,0,0,0,.457,1.2779,1.6649,1.6649,0,0,0,1.2949.498,1.85,1.85,0,0,0,1.0078-.2641,1.8947,1.8947,0,0,0,.6729-.7442l.72.6162a2.4133,2.4133,0,0,1-.9727.9839A3.0337,3.0337,0,0,1,184.4082,38.1387Zm0-5.604a1.6731,1.6731,0,0,0-.666.1313,1.5665,1.5665,0,0,0-.8692.918,1.9957,1.9957,0,0,0-.121.7031v.0835h3.1923v-.1191a1.8153,1.8153,0,0,0-.414-1.2456A1.4176,1.4176,0,0,0,184.4082,32.5347Z"/><path class="cls-3" d="M190.5645,38.1387a3.0117,3.0117,0,0,1-1.459-.3242,3.2919,3.2919,0,0,1-1.0254-.876l.7558-.648a2.5757,2.5757,0,0,0,.7862.6841,2.0735,2.0735,0,0,0,1.0136.24,1.4511,1.4511,0,0,0,.9122-.246.8956.8956,0,0,0,.1025-1.254,1.33,1.33,0,0,0-.7871-.312l-.5274-.084a4.0518,4.0518,0,0,1-.8164-.1923,2.0974,2.0974,0,0,1-.6357-.3477,1.536,1.536,0,0,1-.4141-.5283,1.694,1.694,0,0,1-.1494-.7437,1.8621,1.8621,0,0,1,.168-.81,1.6026,1.6026,0,0,1,.4678-.5884,2.1064,2.1064,0,0,1,.7138-.354,3.258,3.258,0,0,1,.9063-.12,2.9481,2.9481,0,0,1,1.32.2636,2.9183,2.9183,0,0,1,.9238.7325l-.709.6718a1.9965,1.9965,0,0,0-.6172-.5219,1.9012,1.9012,0,0,0-.9541-.2222,1.3,1.3,0,0,0-.8584.24.7942.7942,0,0,0-.2812.6358.6982.6982,0,0,0,.27.6118,1.9226,1.9226,0,0,0,.8106.2764l.5273.0839a2.6544,2.6544,0,0,1,1.4824.6A1.5618,1.5618,0,0,1,192.94,36.17a1.77,1.77,0,0,1-.6358,1.44A2.6408,2.6408,0,0,1,190.5645,38.1387Z"/><path class="cls-3" d="M196.9238,38.1387a2.8651,2.8651,0,0,1-1.1582-.2281,2.507,2.507,0,0,1-.8945-.6538,3.0049,3.0049,0,0,1-.5752-1.0263,4.5272,4.5272,0,0,1,0-2.688,3.0086,3.0086,0,0,1,.5752-1.0259,2.507,2.507,0,0,1,.8945-.6538,3.0557,3.0557,0,0,1,2.3164,0,2.5038,2.5038,0,0,1,.8936.6538,3.0138,3.0138,0,0,1,.5762,1.0259,4.5272,4.5272,0,0,1,0,2.688,3.01,3.01,0,0,1-.5762,1.0263,2.5038,2.5038,0,0,1-.8936.6538A2.8644,2.8644,0,0,1,196.9238,38.1387Zm0-.96a1.604,1.604,0,0,0,1.1875-.456,1.8556,1.8556,0,0,0,.4571-1.3682v-.936a1.8549,1.8549,0,0,0-.4571-1.3677,1.7739,1.7739,0,0,0-2.375,0,1.8549,1.8549,0,0,0-.457,1.3677v.936a1.8555,1.8555,0,0,0,.457,1.3682A1.6026,1.6026,0,0,0,196.9238,37.1787Z"/><path class="cls-3" d="M205.084,36.9863h-.0606a2.1113,2.1113,0,0,1-.2216.4336,1.5211,1.5211,0,0,1-.3477.3682,1.6757,1.6757,0,0,1-.498.2554,2.15,2.15,0,0,1-.6729.0952,1.9148,1.9148,0,0,1-1.5117-.6241,2.5793,2.5793,0,0,1-.5518-1.7641V31.7788h1.1162v3.8125q0,1.5872,1.32,1.5874a2.0762,2.0762,0,0,0,.5215-.0664,1.3214,1.3214,0,0,0,.4561-.21,1.173,1.173,0,0,0,.3242-.36.9876.9876,0,0,0,.126-.5054V31.7788h1.1152v6.2158H205.084Z"/><path class="cls-3" d="M208.168,37.9946V31.7788h1.1152v1.188h.0605a1.7261,1.7261,0,0,1,.2159-.4443,1.535,1.535,0,0,1,.36-.378,1.844,1.844,0,0,1,.51-.2636,2.0247,2.0247,0,0,1,.666-.1021h.3721v1.1157h-.5518a2.1821,2.1821,0,0,0-1.207.2823.8537.8537,0,0,0-.4258.7378v4.08Z"/><path class="cls-3" d="M214.96,38.1387a2.9162,2.9162,0,0,1-1.1885-.2281,2.4268,2.4268,0,0,1-.875-.6479,2.8409,2.8409,0,0,1-.5469-1.0259,4.6254,4.6254,0,0,1-.1855-1.35,4.5658,4.5658,0,0,1,.1855-1.3442,2.9114,2.9114,0,0,1,.5469-1.0259,2.4033,2.4033,0,0,1,.875-.6538,2.9162,2.9162,0,0,1,1.1885-.228,2.5415,2.5415,0,0,1,1.5.4077,2.4294,2.4294,0,0,1,.8525,1.08l-.9238.456a1.4452,1.4452,0,0,0-.5225-.72,1.51,1.51,0,0,0-.9062-.2637,1.4665,1.4665,0,0,0-1.2061.4917,1.9308,1.9308,0,0,0-.4023,1.26v1.08a1.928,1.928,0,0,0,.4023,1.26,1.4653,1.4653,0,0,0,1.2061.4922,1.6019,1.6019,0,0,0,.96-.2759,1.9887,1.9887,0,0,0,.624-.78l.8155.5039a2.4486,2.4486,0,0,1-.8994,1.11A2.6381,2.6381,0,0,1,214.96,38.1387Z"/><path class="cls-3" d="M220.9717,38.1387a2.8368,2.8368,0,0,1-1.17-.2339,2.5344,2.5344,0,0,1-.8877-.6543,2.9326,2.9326,0,0,1-.5645-1.02,4.6548,4.6548,0,0,1,0-2.6817,2.9311,2.9311,0,0,1,.5645-1.0263,2.5319,2.5319,0,0,1,.8877-.6538,2.8272,2.8272,0,0,1,1.17-.2339,2.7591,2.7591,0,0,1,1.1582.2329,2.4691,2.4691,0,0,1,.8584.64,2.7641,2.7641,0,0,1,.5273.9688,3.9314,3.9314,0,0,1,.18,1.2075V35.15h-4.3789v.2524a1.8193,1.8193,0,0,0,.4551,1.2779,1.6708,1.6708,0,0,0,1.2969.498,1.8573,1.8573,0,0,0,1.0078-.2641,1.899,1.899,0,0,0,.6718-.7442l.72.6162a2.4175,2.4175,0,0,1-.9717.9839A3.0376,3.0376,0,0,1,220.9717,38.1387Zm0-5.604a1.6762,1.6762,0,0,0-.666.1313,1.5909,1.5909,0,0,0-.5284.3633,1.6139,1.6139,0,0,0-.3418.5547,1.9955,1.9955,0,0,0-.1191.7031v.0835h3.1914v-.1191a1.82,1.82,0,0,0-.4141-1.2456A1.4173,1.4173,0,0,0,220.9717,32.5347Z"/><path class="cls-3" d="M227.127,38.1387a3.0013,3.0013,0,0,1-1.4571-.3242,3.2939,3.2939,0,0,1-1.0263-.876l.7558-.648a2.5536,2.5536,0,0,0,.7861.6841,2.0712,2.0712,0,0,0,1.0137.24,1.4488,1.4488,0,0,0,.9121-.246.8919.8919,0,0,0,.1016-1.254,1.3234,1.3234,0,0,0-.7852-.312l-.5283-.084a4.0256,4.0256,0,0,1-.8154-.1923,2.1006,2.1006,0,0,1-.6367-.3477,1.5242,1.5242,0,0,1-.4141-.5283,1.708,1.708,0,0,1-.15-.7437,1.8766,1.8766,0,0,1,.168-.81,1.6151,1.6151,0,0,1,.4687-.5884,2.09,2.09,0,0,1,.7139-.354,3.2559,3.2559,0,0,1,.9053-.12,2.9393,2.9393,0,0,1,1.32.2636,2.8975,2.8975,0,0,1,.9238.7325l-.707.6718a2.0065,2.0065,0,0,0-.6192-.5219,1.8973,1.8973,0,0,0-.9531-.2222,1.3,1.3,0,0,0-.8584.24.792.792,0,0,0-.2822.6358.6964.6964,0,0,0,.27.6118,1.9279,1.9279,0,0,0,.81.2764l.5283.0839a2.6415,2.6415,0,0,1,1.4814.6,1.5593,1.5593,0,0,1,.4512,1.1636,1.7735,1.7735,0,0,1-.6367,1.44A2.6418,2.6418,0,0,1,227.127,38.1387Z"/><path class="cls-3" d="M46.5176,47.1387h-.9961v-.96h.9961V45.0264a1.611,1.611,0,0,1,.3594-1.0977,1.3693,1.3693,0,0,1,1.0917-.4141h.9727v.96H47.6328v1.7041h1.3086v.96H47.6328v5.2558H46.5176Z"/><path class="cls-3" d="M52.4932,52.5386a2.8648,2.8648,0,0,1-1.1582-.2281,2.5038,2.5038,0,0,1-.8936-.6538,3.01,3.01,0,0,1-.5762-1.0263,4.5272,4.5272,0,0,1,0-2.688,3.0138,3.0138,0,0,1,.5762-1.0259,2.505,2.505,0,0,1,.8936-.6538,3.0532,3.0532,0,0,1,2.3154,0,2.5,2.5,0,0,1,.8945.6538,3.0271,3.0271,0,0,1,.5762,1.0259,4.5272,4.5272,0,0,1,0,2.688,3.0233,3.0233,0,0,1-.5762,1.0263,2.4983,2.4983,0,0,1-.8945.6538A2.86,2.86,0,0,1,52.4932,52.5386Zm0-.96a1.6091,1.6091,0,0,0,1.1884-.456,1.8629,1.8629,0,0,0,.4551-1.3682v-.936a1.8623,1.8623,0,0,0-.4551-1.3677,1.7764,1.7764,0,0,0-2.3769,0,1.8585,1.8585,0,0,0-.4551,1.3677v.936a1.8592,1.8592,0,0,0,.4551,1.3682A1.6079,1.6079,0,0,0,52.4932,51.5786Z"/><path class="cls-3" d="M56.85,52.3945V46.1787h1.1152v1.188h.0606a1.7224,1.7224,0,0,1,.2158-.4443,1.5354,1.5354,0,0,1,.36-.378,1.8419,1.8419,0,0,1,.51-.2636,2.0247,2.0247,0,0,1,.666-.1021h.3721v1.1157h-.5517a2.1825,2.1825,0,0,0-1.2071.2823.8537.8537,0,0,0-.4258.7378v4.08Z"/><path class="cls-3" d="M64.1816,52.3945V46.1787h1.1153v1.188h.0605a1.7289,1.7289,0,0,1,.2158-.4443,1.5372,1.5372,0,0,1,.36-.378,1.8425,1.8425,0,0,1,.51-.2636,2.0243,2.0243,0,0,1,.666-.1021h.372v1.1157H66.93a2.1821,2.1821,0,0,0-1.207.2823.8537.8537,0,0,0-.4258.7378v4.08Z"/><path class="cls-3" d="M69.2451,44.8823a.6805.6805,0,0,1-.51-.1679.6106.6106,0,0,1-.1622-.4439v-.168a.61.61,0,0,1,.1622-.4438.8589.8589,0,0,1,1.02,0,.6144.6144,0,0,1,.1621.4438v.168a.6147.6147,0,0,1-.1621.4439A.6833.6833,0,0,1,69.2451,44.8823Zm-.5635,1.2964h1.1153v6.2158H68.6816Z"/><path class="cls-3" d="M73.6729,52.5386a3.0081,3.0081,0,0,1-1.4581-.3242,3.2814,3.2814,0,0,1-1.0253-.876l.7558-.648a2.561,2.561,0,0,0,.7852.6841,2.076,2.076,0,0,0,1.0136.24,1.4469,1.4469,0,0,0,.9121-.246.8933.8933,0,0,0,.1026-1.254,1.3239,1.3239,0,0,0-.7861-.312l-.5274-.0839a4.0423,4.0423,0,0,1-.8164-.1924,2.103,2.103,0,0,1-.6367-.3477,1.536,1.536,0,0,1-.4141-.5283,1.7082,1.7082,0,0,1-.1494-.7437,1.8621,1.8621,0,0,1,.168-.81,1.6231,1.6231,0,0,1,.4678-.5884,2.1023,2.1023,0,0,1,.7148-.354,3.2508,3.2508,0,0,1,.9053-.12,2.9452,2.9452,0,0,1,1.32.2636,2.9087,2.9087,0,0,1,.9238.7325l-.708.6718a2.0009,2.0009,0,0,0-.6182-.5219,1.8986,1.8986,0,0,0-.9541-.2222,1.2967,1.2967,0,0,0-.8574.24.792.792,0,0,0-.2822.6358.6964.6964,0,0,0,.2705.6118,1.9175,1.9175,0,0,0,.81.2764l.5283.0839a2.6479,2.6479,0,0,1,1.4814.6,1.5624,1.5624,0,0,1,.45,1.1636,1.7706,1.7706,0,0,1-.6367,1.44A2.6408,2.6408,0,0,1,73.6729,52.5386Z"/><path class="cls-3" d="M77.6445,43.5146h1.1162v5.5318h.06l.8887-1.0918,1.6191-1.7759h1.32l-2.208,2.4,2.4961,3.8159H81.5928l-1.9444-3.0962-.8877.9483v2.1479H77.6445Z"/><path class="cls-3" d="M86.92,43.5146h1.1172V47.187h.0469a1.6916,1.6916,0,0,1,.6787-.8613,2.04,2.04,0,0,1,1.11-.291,2.394,2.394,0,0,1,1.0489.2216,2.16,2.16,0,0,1,.7871.648,3.0732,3.0732,0,0,1,.4922,1.0264,5.5592,5.5592,0,0,1,0,2.7119,3.0658,3.0658,0,0,1-.4922,1.0259,2.1493,2.1493,0,0,1-.7871.6479,2.3927,2.3927,0,0,1-1.0489.2222,2.0407,2.0407,0,0,1-1.11-.291,1.69,1.69,0,0,1-.6787-.8614h-.0469v1.0083H86.92Zm2.6289,8.064a1.53,1.53,0,0,0,1.1934-.4824,1.8256,1.8256,0,0,0,.4385-1.2788V48.7559a1.8253,1.8253,0,0,0-.4385-1.2788,1.53,1.53,0,0,0-1.1934-.4825,1.9951,1.9951,0,0,0-.5879.0845,1.5016,1.5016,0,0,0-.48.2412,1.2464,1.2464,0,0,0-.3243.3618.89.89,0,0,0-.1191.4585v2.292a.89.89,0,0,0,.1191.4585,1.2464,1.2464,0,0,0,.3243.3618,1.5,1.5,0,0,0,.48.2412A1.9951,1.9951,0,0,0,89.5488,51.5786Z"/><path class="cls-3" d="M97.6973,46.1787h1.08l-2.7011,7.5718a3.1221,3.1221,0,0,1-.2276.4922,1.0155,1.0155,0,0,1-.2939.3237,1.1767,1.1767,0,0,1-.4141.1743,2.8113,2.8113,0,0,1-.6.0537h-.6123v-.96h1.02l.42-1.1983-2.3046-6.4575h1.1162l1.38,3.9639.3243,1.1616h.0605l.3594-1.1616Z"/><path class="cls-3" d="M105.125,52.5386a2.9136,2.9136,0,0,1-1.1885-.2281,2.4235,2.4235,0,0,1-.876-.6479,2.8272,2.8272,0,0,1-.5459-1.0259,4.591,4.591,0,0,1-.1865-1.35,4.5319,4.5319,0,0,1,.1865-1.3442,2.8969,2.8969,0,0,1,.5459-1.0259,2.4012,2.4012,0,0,1,.876-.6538,2.9136,2.9136,0,0,1,1.1885-.228,2.5458,2.5458,0,0,1,1.5.4077,2.42,2.42,0,0,1,.8516,1.08l-.9239.456a1.4376,1.4376,0,0,0-.5215-.72,1.5114,1.5114,0,0,0-.9062-.2637,1.4684,1.4684,0,0,0-1.207.4917,1.93,1.93,0,0,0-.4014,1.26v1.08a1.9276,1.9276,0,0,0,.4014,1.26,1.4669,1.4669,0,0,0,1.207.4922,1.5991,1.5991,0,0,0,.959-.2759,1.9924,1.9924,0,0,0,.625-.78l.8154.5039a2.455,2.455,0,0,1-.8994,1.11A2.6421,2.6421,0,0,1,105.125,52.5386Z"/><path class="cls-3" d="M108.832,52.3945V46.1787h1.1162v1.188h.06a1.76,1.76,0,0,1,.2168-.4443,1.5148,1.5148,0,0,1,.3594-.378,1.8706,1.8706,0,0,1,.51-.2636,2.0292,2.0292,0,0,1,.6661-.1021h.373v1.1157H111.58a2.1788,2.1788,0,0,0-1.2061.2823.8515.8515,0,0,0-.4258.7378v4.08Z"/><path class="cls-3" d="M115.6484,52.5386a2.8341,2.8341,0,0,1-1.17-.2339,2.5491,2.5491,0,0,1-.8887-.6543,2.9323,2.9323,0,0,1-.5634-1.02,4.6324,4.6324,0,0,1,0-2.6817,2.9309,2.9309,0,0,1,.5634-1.0263,2.5466,2.5466,0,0,1,.8887-.6538,2.8246,2.8246,0,0,1,1.17-.2339,2.7588,2.7588,0,0,1,1.1582.2329,2.4565,2.4565,0,0,1,.8575.64,2.7659,2.7659,0,0,1,.5283.9688,3.9314,3.9314,0,0,1,.1806,1.2075V49.55h-4.3808v.2524a1.816,1.816,0,0,0,.457,1.2779,1.6652,1.6652,0,0,0,1.2949.498,1.85,1.85,0,0,0,1.0079-.2641,1.8945,1.8945,0,0,0,.6728-.7442l.72.6162a2.4136,2.4136,0,0,1-.9726.9839A3.0344,3.0344,0,0,1,115.6484,52.5386Zm0-5.604a1.6731,1.6731,0,0,0-.666.1313,1.5667,1.5667,0,0,0-.8691.918,1.9934,1.9934,0,0,0-.1211.7031v.0835h3.1924v-.1191a1.8149,1.8149,0,0,0-.4141-1.2456A1.4176,1.4176,0,0,0,115.6484,46.9346Z"/><path class="cls-3" d="M124.42,52.3945a.9855.9855,0,0,1-.7734-.2881,1.3484,1.3484,0,0,1-.3184-.7441h-.0605a1.5978,1.5978,0,0,1-.66.8765,2.0674,2.0674,0,0,1-1.1387.3,2.1481,2.1481,0,0,1-1.5126-.4981,1.76,1.76,0,0,1-.54-1.3618,1.5906,1.5906,0,0,1,.6543-1.374,3.4139,3.4139,0,0,1,1.9981-.4741h1.1757v-.564a1.3008,1.3008,0,0,0-.3359-.96,1.4247,1.4247,0,0,0-1.0439-.3359,1.6113,1.6113,0,0,0-.918.2456,2.0327,2.0327,0,0,0-.6065.6421l-.6718-.6118a2.363,2.363,0,0,1,.834-.8579,2.6114,2.6114,0,0,1,1.4218-.354,2.65,2.65,0,0,1,1.8008.5566,1.9824,1.9824,0,0,1,.6358,1.5747v3.2686h.6962v.96Zm-2.6992-.7558a1.8722,1.8722,0,0,0,1.0918-.3.9038.9038,0,0,0,.4316-.7681v-.96h-1.1875a2.134,2.134,0,0,0-1.123.228.739.739,0,0,0-.3535.66v.24a.7857.7857,0,0,0,.3066.6655A1.3373,1.3373,0,0,0,121.7207,51.6387Z"/><path class="cls-3" d="M127.9,52.3945a1.1518,1.1518,0,0,1-.877-.3174,1.197,1.197,0,0,1-.2988-.8559V47.1387h-.9961v-.96h.5518a.5665.5665,0,0,0,.4316-.1323.6543.6543,0,0,0,.12-.4439v-1.14H127.84v1.7163h1.3321v.96H127.84v4.2959h1.2364v.96Z"/><path class="cls-3" d="M131.2246,44.8823a.678.678,0,0,1-.51-.1679.6105.6105,0,0,1-.1621-.4439v-.168a.61.61,0,0,1,.1621-.4438.8575.8575,0,0,1,1.02,0,.6144.6144,0,0,1,.1621.4438v.168a.6147.6147,0,0,1-.1621.4439A.6792.6792,0,0,1,131.2246,44.8823Zm-.5644,1.2964h1.1162v6.2158H130.66Z"/><path class="cls-3" d="M133.7441,52.3945V46.1787h1.1153V47.187h.0605a2.0294,2.0294,0,0,1,.63-.8315,1.7859,1.7859,0,0,1,1.1221-.3208,1.897,1.897,0,0,1,1.5058.624,2.5972,2.5972,0,0,1,.5459,1.7637v3.9721h-1.1162V48.582q0-1.5872-1.3076-1.5874a1.9634,1.9634,0,0,0-.5342.0723,1.5606,1.5606,0,0,0-.4619.21,1.0311,1.0311,0,0,0-.3232.3487.99.99,0,0,0-.1211.499v4.27Z"/><path class="cls-3" d="M145.96,53.0239a1.5884,1.5884,0,0,1-.75,1.4453,4.5216,4.5216,0,0,1-2.334.4693,4.2493,4.2493,0,0,1-2.13-.3965,1.2464,1.2464,0,0,1-.6426-1.1172,1.1141,1.1141,0,0,1,.2695-.7925,1.5,1.5,0,0,1,.75-.4087v-.1323a.903.903,0,0,1-.6113-.916.8744.8744,0,0,1,.3125-.7227,1.8813,1.8813,0,0,1,.7676-.3618v-.0483a1.9667,1.9667,0,0,1-.8516-.7476,2.0945,2.0945,0,0,1-.3007-1.1308,2.1894,2.1894,0,0,1,.1679-.8614,1.9388,1.9388,0,0,1,.4746-.6757,2.126,2.126,0,0,1,.75-.4371,3.0347,3.0347,0,0,1,1.0078-.1552,2.9871,2.9871,0,0,1,.6114.06,3.5588,3.5588,0,0,1,.541.1558v-.1318a.9871.9871,0,0,1,.18-.6182.681.681,0,0,1,.5761-.2339h.9473v.936h-1.2236v.335a1.9,1.9,0,0,1,.78,1.627,2.19,2.19,0,0,1-.168.8618,1.8436,1.8436,0,0,1-.4805.67,2.2507,2.2507,0,0,1-.7558.4307,3.03,3.03,0,0,1-1.0079.1557c-.12,0-.24-.0063-.3593-.0181a2.7136,2.7136,0,0,1-.3369-.0542,1.6465,1.6465,0,0,0-.4913.24.4916.4916,0,0,0-.2168.42.3647.3647,0,0,0,.2461.3721,1.8812,1.8812,0,0,0,.6661.0957h1.416a2.5344,2.5344,0,0,1,1.6738.4516A1.5483,1.5483,0,0,1,145.96,53.0239Zm-1.044.1148a.6693.6693,0,0,0-.27-.5581,1.6029,1.6029,0,0,0-.9541-.21h-2.0879a.8474.8474,0,0,0-.5039.792.8381.8381,0,0,0,.3066.6538,1.5632,1.5632,0,0,0,1.0372.27h.84a2.54,2.54,0,0,0,1.2129-.2339A.767.767,0,0,0,144.916,53.1387Zm-2.0644-3.6963a1.4641,1.4641,0,0,0,.9423-.2744,1.0239,1.0239,0,0,0,.3418-.8482v-.31a1.0239,1.0239,0,0,0-.3418-.8482,1.7536,1.7536,0,0,0-1.8837,0,1.021,1.021,0,0,0-.3418.8482v.31a1.021,1.021,0,0,0,.3418.8482A1.4614,1.4614,0,0,0,142.8516,49.4424Z"/><path class="cls-3" d="M154.3711,52.3945a.9852.9852,0,0,1-.7734-.2881,1.3548,1.3548,0,0,1-.3184-.7441h-.06a1.6064,1.6064,0,0,1-.66.8765,2.0711,2.0711,0,0,1-1.14.3,2.1442,2.1442,0,0,1-1.5117-.4981,1.7609,1.7609,0,0,1-.541-1.3618,1.5928,1.5928,0,0,1,.6543-1.374,3.4134,3.4134,0,0,1,1.998-.4741h1.1758v-.564a1.2968,1.2968,0,0,0-.3359-.96,1.4223,1.4223,0,0,0-1.043-.3359,1.6093,1.6093,0,0,0-.918.2456,2.0224,2.0224,0,0,0-.6064.6421l-.6729-.6118a2.3792,2.3792,0,0,1,.834-.8579,2.6177,2.6177,0,0,1,1.4229-.354,2.6455,2.6455,0,0,1,1.8.5566,1.983,1.983,0,0,1,.6367,1.5747v3.2686h.6953v.96Zm-2.6992-.7558a1.87,1.87,0,0,0,1.0918-.3.9015.9015,0,0,0,.4316-.7681v-.96h-1.1875a2.1305,2.1305,0,0,0-1.1221.228.74.74,0,0,0-.3545.66v.24a.7884.7884,0,0,0,.3067.6655A1.3411,1.3411,0,0,0,151.6719,51.6387Z"/><path class="cls-3" d="M156.34,52.3945V46.1787h1.1153V47.187h.0605a2.0294,2.0294,0,0,1,.63-.8315,1.7859,1.7859,0,0,1,1.1221-.3208,1.897,1.897,0,0,1,1.5058.624,2.5972,2.5972,0,0,1,.5459,1.7637v3.9721h-1.1162V48.582q0-1.5872-1.3076-1.5874a1.9634,1.9634,0,0,0-.5342.0723,1.5617,1.5617,0,0,0-.4619.21,1.0311,1.0311,0,0,0-.3232.3487.99.99,0,0,0-.1211.499v4.27Z"/><path class="cls-3" d="M167.1514,51.3862h-.0479a1.6886,1.6886,0,0,1-.6777.8614,2.0434,2.0434,0,0,1-1.11.291,2.3939,2.3939,0,0,1-1.05-.2222,2.1381,2.1381,0,0,1-.7861-.6479,3.0281,3.0281,0,0,1-.4922-1.0259,5.556,5.556,0,0,1,0-2.7119,3.0353,3.0353,0,0,1,.4922-1.0264,2.1482,2.1482,0,0,1,.7861-.648,2.3952,2.3952,0,0,1,1.05-.2216,2.0425,2.0425,0,0,1,1.11.291,1.69,1.69,0,0,1,.6777.8613h.0479V43.5146h1.1162v8.88h-1.1162Zm-1.5118.1924a2.0038,2.0038,0,0,0,.5879-.0845,1.4835,1.4835,0,0,0,.48-.2412,1.2461,1.2461,0,0,0,.3242-.3618.89.89,0,0,0,.12-.4585v-2.292a.89.89,0,0,0-.12-.4585,1.2461,1.2461,0,0,0-.3242-.3618,1.4855,1.4855,0,0,0-.48-.2412,2.0038,2.0038,0,0,0-.5879-.0845,1.531,1.531,0,0,0-1.1943.4825,1.8294,1.8294,0,0,0-.4375,1.2788v1.0615a1.83,1.83,0,0,0,.4375,1.2788A1.531,1.531,0,0,0,165.64,51.5786Z"/><path class="cls-3" d="M173.6309,44.8823a.6808.6808,0,0,1-.51-.1679.6147.6147,0,0,1-.1621-.4439v-.168a.6144.6144,0,0,1,.1621-.4438.8589.8589,0,0,1,1.02,0,.61.61,0,0,1,.1621.4438v.168a.6105.6105,0,0,1-.1621.4439A.6817.6817,0,0,1,173.6309,44.8823Zm-.5635,1.2964h1.1162v6.2158h-1.1162Z"/><path class="cls-3" d="M176.15,52.3945V46.1787h1.1172V47.187h.06a2.0294,2.0294,0,0,1,.63-.8315,1.7859,1.7859,0,0,1,1.1221-.3208,1.8974,1.8974,0,0,1,1.5059.624,2.5926,2.5926,0,0,1,.5459,1.7637v3.9721h-1.1153V48.582q0-1.5872-1.3086-1.5874a1.9675,1.9675,0,0,0-.5341.0723,1.5729,1.5729,0,0,0-.462.21,1.0341,1.0341,0,0,0-.3242.3487.989.989,0,0,0-.1191.499v4.27Z"/><path class="cls-3" d="M184.9355,52.5386a3.0113,3.0113,0,0,1-1.4589-.3242,3.2919,3.2919,0,0,1-1.0254-.876l.7558-.648a2.5757,2.5757,0,0,0,.7862.6841,2.0733,2.0733,0,0,0,1.0136.24,1.4508,1.4508,0,0,0,.9121-.246.8955.8955,0,0,0,.1026-1.254,1.33,1.33,0,0,0-.7871-.312l-.5274-.0839a4.0585,4.0585,0,0,1-.8164-.1924,2.0974,2.0974,0,0,1-.6357-.3477,1.536,1.536,0,0,1-.4141-.5283,1.694,1.694,0,0,1-.1494-.7437,1.8621,1.8621,0,0,1,.168-.81,1.6042,1.6042,0,0,1,.4677-.5884,2.1078,2.1078,0,0,1,.7139-.354,3.258,3.258,0,0,1,.9063-.12,2.6929,2.6929,0,0,1,2.2441.9961l-.709.6718a1.9965,1.9965,0,0,0-.6172-.5219,1.9012,1.9012,0,0,0-.9541-.2222,1.3,1.3,0,0,0-.8584.24.7942.7942,0,0,0-.2812.6358.6982.6982,0,0,0,.2695.6118,1.9226,1.9226,0,0,0,.8106.2764l.5273.0839a2.6547,2.6547,0,0,1,1.4824.6,1.5617,1.5617,0,0,1,.4492,1.1636,1.77,1.77,0,0,1-.6357,1.44A2.6409,2.6409,0,0,1,184.9355,52.5386Z"/><path class="cls-3" d="M190.3477,52.3945a1.1518,1.1518,0,0,1-.877-.3174,1.197,1.197,0,0,1-.2988-.8559V47.1387h-.9961v-.96h.5517a.5668.5668,0,0,0,.4317-.1323.6543.6543,0,0,0,.12-.4439v-1.14h1.0078v1.7163h1.332v.96h-1.332v4.2959h1.2363v.96Z"/><path class="cls-3" d="M197.6309,52.3945a.9856.9856,0,0,1-.7735-.2881,1.3476,1.3476,0,0,1-.3183-.7441h-.0606a1.5972,1.5972,0,0,1-.66.8765,2.0676,2.0676,0,0,1-1.1387.3,2.1482,2.1482,0,0,1-1.5127-.4981,1.76,1.76,0,0,1-.54-1.3618,1.59,1.59,0,0,1,.6542-1.374,3.4139,3.4139,0,0,1,1.9981-.4741h1.1758v-.564a1.3,1.3,0,0,0-.336-.96,1.4245,1.4245,0,0,0-1.0439-.3359,1.6113,1.6113,0,0,0-.918.2456,2.0324,2.0324,0,0,0-.6064.6421l-.6719-.6118a2.363,2.363,0,0,1,.834-.8579,2.6117,2.6117,0,0,1,1.4219-.354,2.65,2.65,0,0,1,1.8007.5566,1.9821,1.9821,0,0,1,.6358,1.5747v3.2686h.6963v.96Zm-2.6993-.7558a1.872,1.872,0,0,0,1.0918-.3.9039.9039,0,0,0,.4317-.7681v-.96h-1.1875a2.1346,2.1346,0,0,0-1.1231.228.7392.7392,0,0,0-.3535.66v.24a.7858.7858,0,0,0,.3067.6655A1.337,1.337,0,0,0,194.9316,51.6387Z"/><path class="cls-3" d="M200.7627,52.3945a1.14,1.14,0,0,1-.87-.312,1.161,1.161,0,0,1-.294-.8281v-7.74h1.1162v7.92h.8877v.96Z"/><path class="cls-3" d="M204.0273,52.3945a1.1429,1.1429,0,0,1-.8711-.312,1.16,1.16,0,0,1-.2929-.8281v-7.74h1.1152v7.92h.8887v.96Z"/><path class="cls-3" d="M206.7627,44.8823a.6808.6808,0,0,1-.51-.1679.6105.6105,0,0,1-.1621-.4439v-.168a.61.61,0,0,1,.1621-.4438.8589.8589,0,0,1,1.02,0,.614.614,0,0,1,.1621.4438v.168a.6143.6143,0,0,1-.1621.4439A.6832.6832,0,0,1,206.7627,44.8823Zm-.5635,1.2964h1.1153v6.2158h-1.1153Z"/><path class="cls-3" d="M209.2832,52.3945V46.1787h1.1152V47.187h.0606a2.0285,2.0285,0,0,1,.63-.8315,1.7856,1.7856,0,0,1,1.122-.3208,1.8972,1.8972,0,0,1,1.5059.624,2.5972,2.5972,0,0,1,.5459,1.7637v3.9721h-1.1162V48.582q0-1.5872-1.3076-1.5874a1.9634,1.9634,0,0,0-.5342.0723,1.5594,1.5594,0,0,0-.4619.21,1.03,1.03,0,0,0-.3233.3487.9905.9905,0,0,0-.1211.499v4.27Z"/><path class="cls-3" d="M221.499,53.0239a1.5884,1.5884,0,0,1-.75,1.4453,4.5213,4.5213,0,0,1-2.334.4693,4.2491,4.2491,0,0,1-2.13-.3965,1.2462,1.2462,0,0,1-.6426-1.1172,1.1137,1.1137,0,0,1,.27-.7925,1.5,1.5,0,0,1,.75-.4087v-.1323a.903.903,0,0,1-.6113-.916.8744.8744,0,0,1,.3125-.7227,1.8813,1.8813,0,0,1,.7676-.3618v-.0483a1.9661,1.9661,0,0,1-.8516-.7476,2.0936,2.0936,0,0,1-.3008-1.1308,2.1894,2.1894,0,0,1,.168-.8614,1.9388,1.9388,0,0,1,.4746-.6757,2.1242,2.1242,0,0,1,.75-.4371,3.0343,3.0343,0,0,1,1.0078-.1552,2.9868,2.9868,0,0,1,.6113.06,3.5555,3.5555,0,0,1,.541.1558v-.1318a.9871.9871,0,0,1,.18-.6182.6812.6812,0,0,1,.5762-.2339h.9473v.936h-1.2237v.335a1.9,1.9,0,0,1,.78,1.627,2.1882,2.1882,0,0,1-.168.8618,1.8434,1.8434,0,0,1-.48.67,2.2512,2.2512,0,0,1-.7559.4307,3.0291,3.0291,0,0,1-1.0078.1557c-.12,0-.24-.0063-.3594-.0181a2.7166,2.7166,0,0,1-.3369-.0542,1.6459,1.6459,0,0,0-.4912.24.4916.4916,0,0,0-.2168.42.3646.3646,0,0,0,.2461.3721,1.8806,1.8806,0,0,0,.666.0957h1.416a2.5345,2.5345,0,0,1,1.6739.4516A1.5485,1.5485,0,0,1,221.499,53.0239Zm-1.0439.1148a.67.67,0,0,0-.27-.5581,1.6029,1.6029,0,0,0-.9541-.21h-2.0879a.8473.8473,0,0,0-.5039.792.8378.8378,0,0,0,.3066.6538,1.5627,1.5627,0,0,0,1.0371.27h.84a2.54,2.54,0,0,0,1.2129-.2339A.767.767,0,0,0,220.4551,53.1387Zm-2.0645-3.6963a1.4644,1.4644,0,0,0,.9424-.2744,1.0242,1.0242,0,0,0,.3418-.8482v-.31a1.0242,1.0242,0,0,0-.3418-.8482,1.7538,1.7538,0,0,0-1.8838,0,1.0213,1.0213,0,0,0-.3418.8482v.31a1.0213,1.0213,0,0,0,.3418.8482A1.4616,1.4616,0,0,0,218.3906,49.4424Z"/><path class="cls-3" d="M50.7051,66.7944a.9856.9856,0,0,1-.7735-.2881,1.3483,1.3483,0,0,1-.3183-.7441h-.0606a1.5972,1.5972,0,0,1-.66.8765,2.0674,2.0674,0,0,1-1.1387.3,2.1486,2.1486,0,0,1-1.5127-.4981,1.76,1.76,0,0,1-.54-1.3618,1.59,1.59,0,0,1,.6543-1.374,3.4134,3.4134,0,0,1,1.998-.4741h1.1758v-.564a1.3008,1.3008,0,0,0-.3359-.96,1.4249,1.4249,0,0,0-1.044-.3359,1.6113,1.6113,0,0,0-.918.2456,2.0335,2.0335,0,0,0-.6064.6421l-.6719-.6118a2.363,2.363,0,0,1,.834-.8579,2.6117,2.6117,0,0,1,1.4219-.354,2.65,2.65,0,0,1,1.8008.5566,1.9824,1.9824,0,0,1,.6357,1.5747v3.2686h.6963v.96Zm-2.6992-.7558a1.8724,1.8724,0,0,0,1.0918-.3.9038.9038,0,0,0,.4316-.7681v-.96H48.3418a2.1346,2.1346,0,0,0-1.1231.228.7393.7393,0,0,0-.3535.66v.24a.7858.7858,0,0,0,.3067.6655A1.3371,1.3371,0,0,0,48.0059,66.0386Z"/><path class="cls-3" d="M57.8574,66.9385a2.9136,2.9136,0,0,1-1.1885-.2281,2.4223,2.4223,0,0,1-.8759-.6479,2.8242,2.8242,0,0,1-.5459-1.0259,4.5876,4.5876,0,0,1-.1866-1.35,4.5286,4.5286,0,0,1,.1866-1.3442,2.8937,2.8937,0,0,1,.5459-1.0259,2.4,2.4,0,0,1,.8759-.6538,2.9136,2.9136,0,0,1,1.1885-.228,2.5453,2.5453,0,0,1,1.5.4077,2.42,2.42,0,0,1,.8516,1.08l-.9238.456a1.4388,1.4388,0,0,0-.5215-.72,1.5119,1.5119,0,0,0-.9063-.2637,1.4684,1.4684,0,0,0-1.207.4917,1.93,1.93,0,0,0-.4014,1.26v1.08a1.9276,1.9276,0,0,0,.4014,1.26,1.4669,1.4669,0,0,0,1.207.4922,1.5991,1.5991,0,0,0,.959-.2759,1.9915,1.9915,0,0,0,.625-.78l.8154.5039a2.455,2.455,0,0,1-.8994,1.11A2.6421,2.6421,0,0,1,57.8574,66.9385Z"/><path class="cls-3" d="M63.8809,66.9385a2.8644,2.8644,0,0,1-1.1582-.2281,2.5074,2.5074,0,0,1-.8946-.6538,3.0082,3.0082,0,0,1-.5752-1.0263,4.5272,4.5272,0,0,1,0-2.688,3.0119,3.0119,0,0,1,.5752-1.0259,2.5086,2.5086,0,0,1,.8946-.6538,3.0557,3.0557,0,0,1,2.3164,0,2.5046,2.5046,0,0,1,.8935.6538,3.0121,3.0121,0,0,1,.5762,1.0259,4.5272,4.5272,0,0,1,0,2.688,3.0083,3.0083,0,0,1-.5762,1.0263,2.5034,2.5034,0,0,1-.8935.6538A2.8651,2.8651,0,0,1,63.8809,66.9385Zm0-.96a1.6043,1.6043,0,0,0,1.1875-.456,1.8559,1.8559,0,0,0,.457-1.3682v-.936a1.8555,1.8555,0,0,0-.457-1.3677,1.7739,1.7739,0,0,0-2.375,0,1.8551,1.8551,0,0,0-.4571,1.3677v.936a1.8556,1.8556,0,0,0,.4571,1.3682A1.6025,1.6025,0,0,0,63.8809,65.9785Z"/><path class="cls-3" d="M69.4,66.7944a1.1384,1.1384,0,0,1-.8692-.312,1.1576,1.1576,0,0,1-.2949-.8281v-7.74h1.1172v7.92H70.24v.96Z"/><path class="cls-3" d="M72.665,66.7944a1.14,1.14,0,0,1-.87-.312,1.161,1.161,0,0,1-.2939-.8281v-7.74h1.1162v7.92h.8877v.96Z"/><path class="cls-3" d="M77.2129,66.9385a2.8319,2.8319,0,0,1-1.17-.2339,2.5473,2.5473,0,0,1-.8887-.6543,2.9325,2.9325,0,0,1-.5635-1.02,4.6346,4.6346,0,0,1,0-2.6817,2.931,2.931,0,0,1,.5635-1.0263,2.5448,2.5448,0,0,1,.8887-.6538,2.8239,2.8239,0,0,1,1.17-.2339,2.76,2.76,0,0,1,1.1582.2329,2.4561,2.4561,0,0,1,.8574.64,2.7659,2.7659,0,0,1,.5283.9688,3.9284,3.9284,0,0,1,.1807,1.2075V63.95H75.5566v.2524a1.8161,1.8161,0,0,0,.4571,1.2779,1.6649,1.6649,0,0,0,1.2949.498,1.85,1.85,0,0,0,1.0078-.2641,1.8947,1.8947,0,0,0,.6729-.7442l.72.6162a2.4139,2.4139,0,0,1-.9727.9839A3.0337,3.0337,0,0,1,77.2129,66.9385Zm0-5.604a1.6731,1.6731,0,0,0-.666.1313,1.5665,1.5665,0,0,0-.8692.918,1.9957,1.9957,0,0,0-.1211.7031V63.17H78.749v-.1191a1.8153,1.8153,0,0,0-.414-1.2456A1.4178,1.4178,0,0,0,77.2129,61.3345Z"/><path class="cls-3" d="M83.8125,66.9385A2.9117,2.9117,0,0,1,82.625,66.71a2.4271,2.4271,0,0,1-.877-.6479,2.8256,2.8256,0,0,1-.5449-1.0259,4.5581,4.5581,0,0,1-.1865-1.35,4.5,4.5,0,0,1,.1865-1.3442,2.8952,2.8952,0,0,1,.5449-1.0259,2.4047,2.4047,0,0,1,.877-.6538,2.9117,2.9117,0,0,1,1.1875-.228,2.5415,2.5415,0,0,1,1.5.4077,2.4131,2.4131,0,0,1,.8516,1.08l-.9239.456a1.4318,1.4318,0,0,0-.5215-.72,1.5114,1.5114,0,0,0-.9062-.2637,1.4679,1.4679,0,0,0-1.2061.4917,1.9254,1.9254,0,0,0-.4013,1.26v1.08a1.9226,1.9226,0,0,0,.4013,1.26,1.4664,1.4664,0,0,0,1.2061.4922,1.6,1.6,0,0,0,.96-.2759,1.99,1.99,0,0,0,.624-.78l.8164.5039a2.4506,2.4506,0,0,1-.9,1.11A2.6421,2.6421,0,0,1,83.8125,66.9385Z"/><path class="cls-3" d="M89.0449,66.7944a1.1519,1.1519,0,0,1-.8769-.3173,1.1971,1.1971,0,0,1-.2989-.856V61.5386H86.873v-.96h.5518a.5664.5664,0,0,0,.4316-.1323.6543.6543,0,0,0,.12-.4439v-1.14h1.0078v1.7163h1.332v.96h-1.332v4.2959h1.2363v.96Z"/><path class="cls-3" d="M94.1445,66.9385a2.8651,2.8651,0,0,1-1.1582-.2281,2.507,2.507,0,0,1-.8945-.6538,3.0049,3.0049,0,0,1-.5752-1.0263,4.5272,4.5272,0,0,1,0-2.688,3.0086,3.0086,0,0,1,.5752-1.0259,2.5082,2.5082,0,0,1,.8945-.6538,3.0557,3.0557,0,0,1,2.3164,0,2.505,2.505,0,0,1,.8936.6538,3.0138,3.0138,0,0,1,.5762,1.0259,4.5272,4.5272,0,0,1,0,2.688,3.01,3.01,0,0,1-.5762,1.0263,2.5038,2.5038,0,0,1-.8936.6538A2.8644,2.8644,0,0,1,94.1445,66.9385Zm0-.96a1.604,1.604,0,0,0,1.1875-.456,1.8556,1.8556,0,0,0,.4571-1.3682v-.936a1.8551,1.8551,0,0,0-.4571-1.3677,1.7739,1.7739,0,0,0-2.375,0,1.855,1.855,0,0,0-.457,1.3677v.936a1.8555,1.8555,0,0,0,.457,1.3682A1.6026,1.6026,0,0,0,94.1445,65.9785Z"/><path class="cls-3" d="M98.5,66.7944V60.5786h1.1172v1.188h.06a1.7554,1.7554,0,0,1,.2158-.4443,1.5311,1.5311,0,0,1,.3594-.378,1.8625,1.8625,0,0,1,.5107-.2636,2.029,2.029,0,0,1,.666-.1021h.3721v1.1157h-.5528a2.1727,2.1727,0,0,0-1.205.2823.85.85,0,0,0-.4258.7378v4.08Z"/><path class="cls-3" d="M108.2207,66.9385a2.8651,2.8651,0,0,1-1.1582-.2281,2.5062,2.5062,0,0,1-.8945-.6538,3.0049,3.0049,0,0,1-.5752-1.0263,4.5272,4.5272,0,0,1,0-2.688,3.0086,3.0086,0,0,1,.5752-1.0259,2.5074,2.5074,0,0,1,.8945-.6538,3.0557,3.0557,0,0,1,2.3164,0,2.505,2.505,0,0,1,.8936.6538,3.0119,3.0119,0,0,1,.5761,1.0259,4.5272,4.5272,0,0,1,0,2.688,3.0082,3.0082,0,0,1-.5761,1.0263,2.5038,2.5038,0,0,1-.8936.6538A2.8651,2.8651,0,0,1,108.2207,66.9385Zm0-.96a1.604,1.604,0,0,0,1.1875-.456,1.8555,1.8555,0,0,0,.457-1.3682v-.936a1.855,1.855,0,0,0-.457-1.3677,1.7739,1.7739,0,0,0-2.375,0,1.855,1.855,0,0,0-.457,1.3677v.936a1.8555,1.8555,0,0,0,.457,1.3682A1.6025,1.6025,0,0,0,108.2207,65.9785Z"/><path class="cls-3" d="M112.5762,66.7944V60.5786h1.1162v1.0083h.06a2.03,2.03,0,0,1,.6308-.8315,1.7828,1.7828,0,0,1,1.1211-.3208,1.8946,1.8946,0,0,1,1.5059.624,2.5928,2.5928,0,0,1,.5468,1.7637v3.9721H116.44V62.9819q0-1.5872-1.3076-1.5874a1.9694,1.9694,0,0,0-.5351.0723,1.5553,1.5553,0,0,0-.461.21,1.0341,1.0341,0,0,0-.3242.3487.9892.9892,0,0,0-.12.499v4.2695Z"/><path class="cls-3" d="M126.1123,60.5786h1.08l-2.7,7.5718a3.2213,3.2213,0,0,1-.2285.4922,1.0143,1.0143,0,0,1-.293.3237,1.1847,1.1847,0,0,1-.4141.1743,2.82,2.82,0,0,1-.6.0537h-.6124v-.96h1.0206l.42-1.1983-2.3037-6.4575h1.1152l1.3809,3.9639.3242,1.1616h.06l.36-1.1616Z"/><path class="cls-3" d="M130.6719,66.9385a2.8678,2.8678,0,0,1-1.1582-.2281,2.5038,2.5038,0,0,1-.8936-.6538,2.9917,2.9917,0,0,1-.5752-1.0263,4.5061,4.5061,0,0,1,0-2.688,2.9954,2.9954,0,0,1,.5752-1.0259,2.505,2.505,0,0,1,.8936-.6538,3.0557,3.0557,0,0,1,2.3164,0,2.5082,2.5082,0,0,1,.8945.6538,3.0271,3.0271,0,0,1,.5762,1.0259,4.5485,4.5485,0,0,1,0,2.688,3.0233,3.0233,0,0,1-.5762,1.0263,2.507,2.507,0,0,1-.8945.6538A2.8651,2.8651,0,0,1,130.6719,66.9385Zm0-.96a1.6065,1.6065,0,0,0,1.1885-.456,1.8594,1.8594,0,0,0,.456-1.3682v-.936a1.8589,1.8589,0,0,0-.456-1.3677,1.7752,1.7752,0,0,0-2.376,0,1.8548,1.8548,0,0,0-.4561,1.3677v.936a1.8553,1.8553,0,0,0,.4561,1.3682A1.604,1.604,0,0,0,130.6719,65.9785Z"/><path class="cls-3" d="M138.832,65.7861h-.0595a2.1142,2.1142,0,0,1-.2217.4336,1.5387,1.5387,0,0,1-.3477.3682,1.6992,1.6992,0,0,1-.498.2554,2.154,2.154,0,0,1-.6729.0952,1.9152,1.9152,0,0,1-1.5117-.624,2.5747,2.5747,0,0,1-.5518-1.7642V60.5786h1.1153v3.8125q0,1.5872,1.32,1.5874a2.0768,2.0768,0,0,0,.5215-.0664,1.3327,1.3327,0,0,0,.457-.21,1.1719,1.1719,0,0,0,.3242-.36.9872.9872,0,0,0,.125-.5054V60.5786h1.1162v6.2158H138.832Z"/><path class="cls-3" d="M141.916,66.7944V60.5786h1.1162v1.188h.06a1.76,1.76,0,0,1,.2168-.4443,1.513,1.513,0,0,1,.3594-.378,1.8706,1.8706,0,0,1,.51-.2636,2.029,2.029,0,0,1,.666-.1021h.3731v1.1157h-.5527a2.1788,2.1788,0,0,0-1.2061.2823.8517.8517,0,0,0-.4258.7378v4.08Z"/><path class="cls-3" d="M151.6367,66.9385a2.8617,2.8617,0,0,1-1.1582-.2281,2.507,2.507,0,0,1-.8945-.6538,3.0233,3.0233,0,0,1-.5762-1.0263,4.5485,4.5485,0,0,1,0-2.688,3.0271,3.0271,0,0,1,.5762-1.0259,2.5082,2.5082,0,0,1,.8945-.6538,3.0532,3.0532,0,0,1,2.3154,0,2.4954,2.4954,0,0,1,.8936.6538,3.0138,3.0138,0,0,1,.5762,1.0259,4.5082,4.5082,0,0,1,0,2.688,3.01,3.01,0,0,1-.5762,1.0263,2.4942,2.4942,0,0,1-.8936.6538A2.86,2.86,0,0,1,151.6367,66.9385Zm0-.96a1.6072,1.6072,0,0,0,1.1875-.456,1.8594,1.8594,0,0,0,.4561-1.3682v-.936a1.859,1.859,0,0,0-.4561-1.3677,1.7752,1.7752,0,0,0-2.376,0,1.8589,1.8589,0,0,0-.456,1.3677v.936a1.8594,1.8594,0,0,0,.456,1.3682A1.6065,1.6065,0,0,0,151.6367,65.9785Z"/><path class="cls-3" d="M155.2842,60.5786h1.08l.6474,2.6519.625,2.5561h.0235l.708-2.5561.7685-2.6519h.9951l.792,2.6519.7207,2.5561h.0352l.5879-2.5561.66-2.6519h1.045l-1.6563,6.2158h-1.32l-.84-2.916-.5283-1.8242h-.0244l-.5156,1.8242-.84,2.916h-1.2959Z"/><path class="cls-3" d="M165.3037,66.7944V60.5786H166.42v1.0083h.0606a2.0264,2.0264,0,0,1,.6289-.8315,1.7887,1.7887,0,0,1,1.123-.3208,1.9,1.9,0,0,1,1.5059.624,2.597,2.597,0,0,1,.5449,1.7637v3.9721H169.168V62.9819q0-1.5872-1.3086-1.5874a1.9609,1.9609,0,0,0-.5332.0723,1.577,1.577,0,0,0-.4629.21,1.03,1.03,0,0,0-.3233.3487.99.99,0,0,0-.12.499v4.2695Z"/><path class="cls-3" d="M177.0273,66.7944l-2.7714-8.3759h1.2246l1.3554,4.1879.876,3.0479h.06l.8887-3.0479,1.3554-4.1879h1.1875l-2.7949,8.3759Z"/><path class="cls-3" d="M182.5117,66.7944V58.4185h3.4561a2.7508,2.7508,0,0,1,1.0078.1738,2.0443,2.0443,0,0,1,.75.498,2.11,2.11,0,0,1,.4619.78,3.35,3.35,0,0,1,0,2.022,2.12,2.12,0,0,1-.4619.7739,2.0458,2.0458,0,0,1-.75.4981,2.7508,2.7508,0,0,1-1.0078.1738h-2.292v3.456Zm1.1641-4.4878H185.92a1.2238,1.2238,0,0,0,.875-.2944,1.0863,1.0863,0,0,0,.3125-.834v-.6a1.0864,1.0864,0,0,0-.3125-.834,1.2238,1.2238,0,0,0-.875-.2944h-2.2441Z"/><path class="cls-3" d="M192.94,66.9385a3.0987,3.0987,0,0,1-2.5254-1.11,4.9407,4.9407,0,0,1-.918-3.2222,4.9413,4.9413,0,0,1,.918-3.2221,3.0987,3.0987,0,0,1,2.5254-1.11,3.2128,3.2128,0,0,1,1.7949.4746,3.1349,3.1349,0,0,1,1.1328,1.3736l-.959.5517a2.2336,2.2336,0,0,0-.7266-.9961,2.2172,2.2172,0,0,0-2.8554.3389,2.9878,2.9878,0,0,0-.5821,1.9512v1.2763a2.9878,2.9878,0,0,0,.5821,1.9512,1.9706,1.9706,0,0,0,1.6133.71,2.02,2.02,0,0,0,1.29-.4018,2.33,2.33,0,0,0,.75-1.05l.9365.564a3.3148,3.3148,0,0,1-1.1582,1.41A3.1524,3.1524,0,0,1,192.94,66.9385Z"/><path class="cls-3" d="M46.7451,73.6826a.68.68,0,0,1-.51-.168.61.61,0,0,1-.1622-.4438v-.168a.61.61,0,0,1,.1622-.4438.8589.8589,0,0,1,1.02,0,.6144.6144,0,0,1,.1621.4438v.168a.6143.6143,0,0,1-.1621.4438A.6829.6829,0,0,1,46.7451,73.6826Zm-.5635,1.2964h1.1153v6.2158H46.1816Z"/><path class="cls-3" d="M49.2656,81.1948V74.979h1.1153v1.0083h.0605a2.0285,2.0285,0,0,1,.63-.8315,1.7859,1.7859,0,0,1,1.1221-.3208,1.897,1.897,0,0,1,1.5058.624,2.5972,2.5972,0,0,1,.5459,1.7637v3.9721H53.1289V77.3823q0-1.5871-1.3076-1.5874a1.96,1.96,0,0,0-.5342.0723,1.5594,1.5594,0,0,0-.4619.21,1.0311,1.0311,0,0,0-.3232.3487.99.99,0,0,0-.1211.499v4.27Z"/><path class="cls-3" d="M58.0488,81.3389a3,3,0,0,1-1.457-.3243,3.2938,3.2938,0,0,1-1.0264-.8759l.7559-.648a2.5538,2.5538,0,0,0,.7861.6841,2.0709,2.0709,0,0,0,1.0137.24,1.4482,1.4482,0,0,0,.9121-.2461.8917.8917,0,0,0,.1016-1.2539,1.3234,1.3234,0,0,0-.7852-.312l-.5283-.084a4.024,4.024,0,0,1-.8154-.1923,2.1045,2.1045,0,0,1-.6368-.3477,1.5251,1.5251,0,0,1-.414-.5283,1.708,1.708,0,0,1-.15-.7437,1.8751,1.8751,0,0,1,.168-.81,1.6151,1.6151,0,0,1,.4687-.5884,2.09,2.09,0,0,1,.7139-.354,3.2551,3.2551,0,0,1,.9052-.12,2.94,2.94,0,0,1,1.32.2636,2.8975,2.8975,0,0,1,.9238.7325l-.707.6718a2.0065,2.0065,0,0,0-.6192-.5219,1.8975,1.8975,0,0,0-.9531-.2222,1.3,1.3,0,0,0-.8584.24.792.792,0,0,0-.2822.6358.6964.6964,0,0,0,.27.6118,1.9261,1.9261,0,0,0,.8095.2763l.5284.084a2.6418,2.6418,0,0,1,1.4814.6,1.5593,1.5593,0,0,1,.4512,1.1636,1.7735,1.7735,0,0,1-.6367,1.44A2.6421,2.6421,0,0,1,58.0488,81.3389Z"/><path class="cls-3" d="M63.4609,81.1948a1.1492,1.1492,0,0,1-.8759-.3174,1.1932,1.1932,0,0,1-.3-.8559V75.939h-.9961v-.96h.5527a.5679.5679,0,0,0,.4316-.1323.6546.6546,0,0,0,.1192-.4439v-1.14h1.0088V74.979h1.331v.96h-1.331v4.2959h1.2353v.96Z"/><path class="cls-3" d="M70.7451,81.1948a.9878.9878,0,0,1-.7744-.2881,1.3478,1.3478,0,0,1-.3174-.7441h-.06a1.6111,1.6111,0,0,1-.66.8765,2.0742,2.0742,0,0,1-1.1406.3,2.146,2.146,0,0,1-1.5118-.4981,1.7638,1.7638,0,0,1-.54-1.3618,1.5906,1.5906,0,0,1,.6543-1.374,3.4125,3.4125,0,0,1,1.9971-.4741h1.1767v-.564a1.3008,1.3008,0,0,0-.3359-.96A1.4231,1.4231,0,0,0,68.19,75.771a1.6133,1.6133,0,0,0-.918.2456,2.0187,2.0187,0,0,0-.6055.6421l-.6728-.6118a2.3708,2.3708,0,0,1,.8339-.8579,2.6153,2.6153,0,0,1,1.4229-.354,2.6443,2.6443,0,0,1,1.7988.5566,1.9827,1.9827,0,0,1,.6367,1.5747v3.2686h.6954v.96Zm-2.7-.7558a1.8657,1.8657,0,0,0,1.0918-.3.9.9,0,0,0,.4326-.7681v-.96H68.3809a2.1259,2.1259,0,0,0-1.1211.2281.7377.7377,0,0,0-.3545.66v.24a.79.79,0,0,0,.3056.6655A1.3433,1.3433,0,0,0,68.0449,80.439Z"/><path class="cls-3" d="M72.7129,81.1948V74.979h1.1162v1.0083h.06a2.0313,2.0313,0,0,1,.6308-.8315,1.7828,1.7828,0,0,1,1.1211-.3208,1.8946,1.8946,0,0,1,1.5059.624,2.5929,2.5929,0,0,1,.5469,1.7637v3.9721H76.5771V77.3823q0-1.5871-1.3076-1.5874a1.966,1.966,0,0,0-.5351.0723,1.5553,1.5553,0,0,0-.461.21,1.0341,1.0341,0,0,0-.3242.3487.9892.9892,0,0,0-.12.499v4.27Z"/><path class="cls-3" d="M81.9414,81.3389a2.9136,2.9136,0,0,1-1.1885-.2281,2.4223,2.4223,0,0,1-.8759-.6479,2.8242,2.8242,0,0,1-.5459-1.0259,4.5876,4.5876,0,0,1-.1866-1.35,4.5286,4.5286,0,0,1,.1866-1.3442,2.8937,2.8937,0,0,1,.5459-1.0259,2.3989,2.3989,0,0,1,.8759-.6538,2.9136,2.9136,0,0,1,1.1885-.228,2.5458,2.5458,0,0,1,1.5.4077,2.4194,2.4194,0,0,1,.8516,1.08l-.9239.456a1.438,1.438,0,0,0-.5214-.72,1.5119,1.5119,0,0,0-.9063-.2637,1.4684,1.4684,0,0,0-1.207.4917,1.93,1.93,0,0,0-.4014,1.26v1.08a1.9276,1.9276,0,0,0,.4014,1.26,1.4672,1.4672,0,0,0,1.207.4922,1.5991,1.5991,0,0,0,.959-.2759,1.9931,1.9931,0,0,0,.625-.78l.8154.5039a2.4556,2.4556,0,0,1-.8994,1.11A2.6421,2.6421,0,0,1,81.9414,81.3389Z"/><path class="cls-3" d="M87.9531,81.3389a2.8341,2.8341,0,0,1-1.17-.2339,2.54,2.54,0,0,1-.8887-.6543,2.934,2.934,0,0,1-.5644-1.02,4.6548,4.6548,0,0,1,0-2.6817,2.9325,2.9325,0,0,1,.5644-1.0263,2.539,2.539,0,0,1,.8887-.6539,2.8261,2.8261,0,0,1,1.17-.2338,2.7621,2.7621,0,0,1,1.1582.2329,2.4644,2.4644,0,0,1,.8574.64,2.7459,2.7459,0,0,1,.5274.9688,3.9015,3.9015,0,0,1,.1807,1.2075v.4663h-4.38v.2524a1.82,1.82,0,0,0,.456,1.2779,1.6673,1.6673,0,0,0,1.2959.498,1.8517,1.8517,0,0,0,1.0078-.2642,1.8915,1.8915,0,0,0,.6719-.7441l.7207.6162a2.4259,2.4259,0,0,1-.9726.9839A3.0344,3.0344,0,0,1,87.9531,81.3389Zm0-5.604a1.67,1.67,0,0,0-.666.1313,1.5794,1.5794,0,0,0-.5283.3633,1.5974,1.5974,0,0,0-.3418.5547,1.9933,1.9933,0,0,0-.12.7031v.0835h3.1914v-.1191a1.8149,1.8149,0,0,0-.4141-1.2456A1.4155,1.4155,0,0,0,87.9531,75.7349Z"/><path class="cls-3" d="M92.6562,81.3389a.6919.6919,0,0,1-.791-.7442v-.18a.7923.7923,0,1,1,1.584,0v.18a.6933.6933,0,0,1-.793.7442Z"/><rect class="cls-4" x="1" y="1" width="248" height="98"/></svg>