<svg xmlns="http://www.w3.org/2000/svg" width="181.1086" height="47.8204" viewBox="0 0 181.1086 47.8204"><defs><style>.cls-1{fill:#002d9c;}.cls-2{fill:#a6c8ff;}</style></defs><g id="Text"><path class="cls-1" d="M50.6339,18.8233v6.64a3.9734,3.9734,0,0,0,.5683,2.3281,2.9078,2.9078,0,0,0,3.9893,0A3.9734,3.9734,0,0,0,55.76,25.463v-6.64h1.289v6.3223a8.7414,8.7414,0,0,1-.207,2.0254,3.5561,3.5561,0,0,1-.668,1.4267,2.74,2.74,0,0,1-1.2041.8448,5.2709,5.2709,0,0,1-1.8193.2763,5.1336,5.1336,0,0,1-1.8027-.2763,2.6463,2.6463,0,0,1-1.1739-.8448,3.514,3.514,0,0,1-.6367-1.4267,9.39,9.39,0,0,1-.1914-2.0254V18.8233Z"/><path class="cls-1" d="M62.0812,29.7188a3.7035,3.7035,0,0,1-1.8487-.4228,4.209,4.209,0,0,1-1.2812-1.1279l.875-.7051a3.4459,3.4459,0,0,0,1.0273.8974,2.6775,2.6775,0,0,0,1.32.3145,1.952,1.952,0,0,0,1.22-.3379,1.2247,1.2247,0,0,0,.1376-1.7412,1.8254,1.8254,0,0,0-1.081-.4531l-.63-.0918a5.2378,5.2378,0,0,1-1.0127-.2383,2.8277,2.8277,0,0,1-.8056-.4287,1.8675,1.8675,0,0,1-.5372-.668,2.1772,2.1772,0,0,1-.1914-.9516,2.2816,2.2816,0,0,1,.2149-1.02,2.0421,2.0421,0,0,1,.5908-.729,2.5759,2.5759,0,0,1,.8975-.4375,4.1516,4.1516,0,0,1,1.12-.1455,3.4961,3.4961,0,0,1,1.6191.3374,3.642,3.642,0,0,1,1.1436.9361l-.8135.7363a2.4452,2.4452,0,0,0-.7676-.6675,2.4728,2.4728,0,0,0-1.2734-.2988,1.7574,1.7574,0,0,0-1.1582.33,1.1111,1.1111,0,0,0-.3916.8979.9378.9378,0,0,0,.3916.8438,2.92,2.92,0,0,0,1.1269.3838l.6143.0918a3.2932,3.2932,0,0,1,1.8721.76,2,2,0,0,1,.5527,1.4658,2.2405,2.2405,0,0,1-.7832,1.8106A3.2312,3.2312,0,0,1,62.0812,29.7188Z"/><path class="cls-1" d="M70.1534,29.7188a3.5508,3.5508,0,0,1-1.4658-.292,3.1624,3.1624,0,0,1-1.12-.8359,3.812,3.812,0,0,1-.7207-1.3047,5.8668,5.8668,0,0,1,0-3.4145,3.8053,3.8053,0,0,1,.7207-1.312,3.17,3.17,0,0,1,1.12-.836,3.5523,3.5523,0,0,1,1.4658-.2915,3.3641,3.3641,0,0,1,1.4268.29,3.1565,3.1565,0,0,1,1.0742.8028,3.563,3.563,0,0,1,.6826,1.2158,4.78,4.78,0,0,1,.2383,1.5449v.58H67.8819v.3691a2.7093,2.7093,0,0,0,.1612.9434,2.2279,2.2279,0,0,0,.4609.76,2.0847,2.0847,0,0,0,.7363.5058,2.519,2.519,0,0,0,.9893.1846,2.4021,2.4021,0,0,0,1.3125-.3535,2.3132,2.3132,0,0,0,.8672-1.0127l.874.6338a3.0578,3.0578,0,0,1-1.1963,1.32A3.6179,3.6179,0,0,1,70.1534,29.7188Zm0-7.2587a2.3349,2.3349,0,0,0-.9209.1757,2.0726,2.0726,0,0,0-.7138.4956,2.3239,2.3239,0,0,0-.4678.7544,2.6193,2.6193,0,0,0-.169.9532v.1074H72.256v-.168a2.4074,2.4074,0,0,0-.5762-1.685A1.9627,1.9627,0,0,0,70.1534,22.46Z"/><path class="cls-1" d="M84.9767,29.5343a1.2087,1.2087,0,0,1-.99-.3682,1.837,1.837,0,0,1-.376-.9209h-.0761a2.0483,2.0483,0,0,1-.8594,1.1045,2.6662,2.6662,0,0,1-1.4268.3691,2.777,2.777,0,0,1-1.957-.6445,2.2633,2.2633,0,0,1-.6982-1.75,1.9978,1.9978,0,0,1,.8213-1.7187,4.3672,4.3672,0,0,1,2.5546-.5987h1.5655v-.7822a1.7091,1.7091,0,0,0-.461-1.2891,1.9641,1.9641,0,0,0-1.4111-.4448,2.1253,2.1253,0,0,0-1.2051.3223,2.6557,2.6557,0,0,0-.8056.8594l-.7364-.6905a2.7963,2.7963,0,0,1,1.0284-1.0971,3.2373,3.2373,0,0,1,1.78-.4527,3.2767,3.2767,0,0,1,2.24.7041,2.4807,2.4807,0,0,1,.7978,1.96v4.3481h.9053v1.09Zm-3.5293-.8594a3.1359,3.1359,0,0,0,.8437-.1074,2.0713,2.0713,0,0,0,.66-.3067,1.5212,1.5212,0,0,0,.43-.4609,1.1046,1.1046,0,0,0,.1533-.5674V25.9278h-1.627a2.9626,2.9626,0,0,0-1.542.3076.99.99,0,0,0-.4834.89v.3223a1.0735,1.0735,0,0,0,.4219.9052A1.8386,1.8386,0,0,0,81.4474,28.6749Z"/><path class="cls-1" d="M87.4161,29.5343v-7.918h1.2276v1.2744h.0615a2.5833,2.5833,0,0,1,.8213-1.0635,2.32,2.32,0,0,1,1.4189-.395,2.4843,2.4843,0,0,1,1.9414.79,3.2174,3.2174,0,0,1,.7139,2.2329v5.0791H92.3731v-4.875q0-2.1379-1.7959-2.1377a2.74,2.74,0,0,0-.7128.0923,2.0781,2.0781,0,0,0-.6221.2768,1.3728,1.3728,0,0,0-.4375.4693,1.3342,1.3342,0,0,0-.1611.6689v5.5054Z"/><path class="cls-1" d="M99.1251,29.7188a3.5658,3.5658,0,0,1-1.458-.292,3.131,3.131,0,0,1-1.1279-.8359,3.9292,3.9292,0,0,1-.7295-1.3047,5.7184,5.7184,0,0,1,0-3.4145,3.9208,3.9208,0,0,1,.7295-1.312,3.1382,3.1382,0,0,1,1.1279-.836,3.5673,3.5673,0,0,1,1.458-.2915,3.5208,3.5208,0,0,1,1.45.2915,3.2422,3.2422,0,0,1,1.1279.836,3.8686,3.8686,0,0,1,.7364,1.312,5.72,5.72,0,0,1,0,3.4145,3.8767,3.8767,0,0,1-.7364,1.3047,3.2345,3.2345,0,0,1-1.1279.8359A3.5193,3.5193,0,0,1,99.1251,29.7188Zm0-1.09a2.2293,2.2293,0,0,0,1.626-.6143,2.5054,2.5054,0,0,0,.63-1.872V25.0069a2.5066,2.5066,0,0,0-.63-1.8716,2.4622,2.4622,0,0,0-3.253,0,2.5063,2.5063,0,0,0-.6289,1.8716v1.1358a2.5052,2.5052,0,0,0,.6289,1.872A2.2333,2.2333,0,0,0,99.1251,28.629Z"/><path class="cls-1" d="M106.4757,29.5343a1.2585,1.2585,0,0,1-.9746-.3594,1.3406,1.3406,0,0,1-.33-.9424V22.7057h-1.3037V21.6163h.7363a.7232.7232,0,0,0,.5449-.1611.8393.8393,0,0,0,.1455-.56V19.422h1.1045v2.1943h1.7344v1.0894h-1.7344v5.7387H108.01v1.09Z"/><path class="cls-1" d="M110.1124,18.1788H111.34v4.7119h.0616a2.573,2.573,0,0,1,.82-1.0635,2.3229,2.3229,0,0,1,1.42-.395,2.4858,2.4858,0,0,1,1.9414.79,3.2171,3.2171,0,0,1,.7129,2.2329v5.0791h-1.2275v-4.875q0-2.1379-1.795-2.1377a2.748,2.748,0,0,0-.7138.0923,2.0611,2.0611,0,0,0-.6211.2768,1.3632,1.3632,0,0,0-.4375.4693,1.3342,1.3342,0,0,0-.1612.6689v5.5054h-1.2275Z"/><path class="cls-1" d="M121.8048,29.7188a3.5571,3.5571,0,0,1-1.4658-.292,3.1628,3.1628,0,0,1-1.12-.8359,3.8473,3.8473,0,0,1-.7207-1.3047,5.889,5.889,0,0,1,0-3.4145,3.84,3.84,0,0,1,.7207-1.312,3.17,3.17,0,0,1,1.12-.836,3.5586,3.5586,0,0,1,1.4658-.2915,3.36,3.36,0,0,1,1.4267.29,3.1559,3.1559,0,0,1,1.0743.8028,3.5832,3.5832,0,0,1,.6836,1.2158,4.8071,4.8071,0,0,1,.2373,1.5449v.58h-5.6934v.3691a2.7115,2.7115,0,0,0,.1611.9434,2.2454,2.2454,0,0,0,.461.76,2.0938,2.0938,0,0,0,.7363.5058,2.5274,2.5274,0,0,0,.99.1846,2.399,2.399,0,0,0,1.3116-.3535,2.3124,2.3124,0,0,0,.8671-1.0127l.875.6338a3.0594,3.0594,0,0,1-1.1972,1.32A3.613,3.613,0,0,1,121.8048,29.7188Zm0-7.2587a2.3349,2.3349,0,0,0-.9209.1757,2.06,2.06,0,0,0-.7129.4956,2.3128,2.3128,0,0,0-.4688.7544,2.6193,2.6193,0,0,0-.1689.9532v.1074h4.374v-.168a2.4116,2.4116,0,0,0-.5752-1.685A1.9646,1.9646,0,0,0,121.8048,22.46Z"/><path class="cls-1" d="M127.253,29.5343v-7.918h1.2276v1.4575h.0761a2.3981,2.3981,0,0,1,.7676-1.0127,2.3594,2.3594,0,0,1,1.5195-.4448h.4756v1.2275h-.7216a2.7748,2.7748,0,0,0-1.5577.376,1.109,1.109,0,0,0-.5595.9439v5.3706Z"/><path class="cls-1" d="M139.4522,29.7188a3.65,3.65,0,0,1-1.4892-.292,3.0389,3.0389,0,0,1-1.1123-.8291,3.6753,3.6753,0,0,1-.69-1.3037,6.34,6.34,0,0,1,0-3.4375,3.6872,3.6872,0,0,1,.69-1.3042,3.0443,3.0443,0,0,1,1.1123-.8286,3.6515,3.6515,0,0,1,1.4892-.2915,3.1762,3.1762,0,0,1,1.8946.5137,3.1409,3.1409,0,0,1,1.0664,1.3428l-1.0274.5219a1.8676,1.8676,0,0,0-.706-.9516,2.1238,2.1238,0,0,0-1.2276-.3374,2.4634,2.4634,0,0,0-.9668.1762,1.8854,1.8854,0,0,0-.69.4913,2.0736,2.0736,0,0,0-.415.7519,3.1792,3.1792,0,0,0-.1377.9585V26.25a2.57,2.57,0,0,0,.56,1.7109,2.0329,2.0329,0,0,0,1.65.668,2.2286,2.2286,0,0,0,2.1485-1.3809l.89.5987a3.1473,3.1473,0,0,1-1.1435,1.3652A3.339,3.339,0,0,1,139.4522,29.7188Z"/><path class="cls-1" d="M145.5274,29.5343a1.257,1.257,0,0,1-.9746-.36,1.3011,1.3011,0,0,1-.3291-.9131V18.1788h1.2276V28.4444h1.166v1.09Z"/><path class="cls-1" d="M151.39,29.7188a3.5661,3.5661,0,0,1-1.458-.292,3.131,3.131,0,0,1-1.1279-.8359,3.9274,3.9274,0,0,1-.7285-1.3047,5.72,5.72,0,0,1,0-3.4145,3.919,3.919,0,0,1,.7285-1.312,3.1382,3.1382,0,0,1,1.1279-.836,3.5676,3.5676,0,0,1,1.458-.2915,3.52,3.52,0,0,1,1.45.2915,3.2425,3.2425,0,0,1,1.128.836,3.8667,3.8667,0,0,1,.7363,1.312,5.72,5.72,0,0,1,0,3.4145,3.8748,3.8748,0,0,1-.7363,1.3047,3.2348,3.2348,0,0,1-1.128.8359A3.5187,3.5187,0,0,1,151.39,29.7188Zm0-1.09a2.229,2.229,0,0,0,1.626-.6143,2.5054,2.5054,0,0,0,.63-1.872V25.0069a2.5066,2.5066,0,0,0-.63-1.8716,2.4621,2.4621,0,0,0-3.2529,0,2.5063,2.5063,0,0,0-.6289,1.8716v1.1358a2.5052,2.5052,0,0,0,.6289,1.872A2.2329,2.2329,0,0,0,151.39,28.629Z"/><path class="cls-1" d="M161.8712,28.26H161.81a3.6993,3.6993,0,0,1-.3.539,2,2,0,0,1-.4375.4717,2.0377,2.0377,0,0,1-.6289.3262,2.746,2.746,0,0,1-.8594.122,2.5053,2.5053,0,0,1-1.9483-.791,3.1892,3.1892,0,0,1-.7216-2.2324V21.6163h1.2275v4.875q0,2.1372,1.8105,2.1377a2.7539,2.7539,0,0,0,.7139-.0928,1.9565,1.9565,0,0,0,.6143-.2763,1.403,1.403,0,0,0,.43-.4688,1.3681,1.3681,0,0,0,.1611-.6846v-5.49h1.2275v7.918h-1.2275Z"/><path class="cls-1" d="M170.7706,28.26h-.0615a2.416,2.416,0,0,1-2.3164,1.4589,3.0129,3.0129,0,0,1-1.336-.292,2.9017,2.9017,0,0,1-1.02-.8291,3.7706,3.7706,0,0,1-.6435-1.3037,6.7438,6.7438,0,0,1,0-3.4375,3.7828,3.7828,0,0,1,.6435-1.3042,2.9069,2.9069,0,0,1,1.02-.8286,3.014,3.014,0,0,1,1.336-.2915,2.695,2.695,0,0,1,1.4189.357,2.2221,2.2221,0,0,1,.8975,1.1015h.0615V18.1788h1.2275V29.5343h-1.2275Zm-2.041.3691a2.8313,2.8313,0,0,0,.79-.1084,1.9613,1.9613,0,0,0,.6524-.3154,1.5414,1.5414,0,0,0,.4375-.5088,1.4341,1.4341,0,0,0,.1611-.6865V24.0484a1.2208,1.2208,0,0,0-.1611-.6093,1.5192,1.5192,0,0,0-.4375-.4859,2.2024,2.2024,0,0,0-.6524-.3159,2.667,2.667,0,0,0-.79-.1157,2.1126,2.1126,0,0,0-1.6416.6552,2.45,2.45,0,0,0-.5986,1.72V26.254a2.4477,2.4477,0,0,0,.5986,1.72A2.1127,2.1127,0,0,0,168.73,28.629Z"/><path class="cls-2" d="M41.7169,24.3314a7.4461,7.4461,0,0,0-5.9265-7.254,10.2525,10.2525,0,0,0-20.0628,0A7.4459,7.4459,0,0,0,9.8,24.3314a7.3569,7.3569,0,0,0,1.925,4.9585,6.82,6.82,0,0,0,4.9136,11.5694H29.1775a6.8124,6.8124,0,0,0,6.3941-9.235A7.415,7.415,0,0,0,41.7169,24.3314ZM29.1775,38.58H16.6387a4.551,4.551,0,0,1-.7673-9.0384l.7559-.1286.1662-.748a6.2649,6.2649,0,0,1,12.23,0l.1662.748.7552.1286a4.551,4.551,0,0,1-.7678,9.0384Zm5.13-9.1191h-.0631a6.7891,6.7891,0,0,0-3.187-2.0021,8.5437,8.5437,0,0,0-16.2987,0,6.8216,6.8216,0,0,0-1.1758.4642,5.0667,5.0667,0,0,1-1.5033-3.5911,5.1489,5.1489,0,0,1,4.7237-5.1078l.93-.0729.113-.9256a7.9722,7.9722,0,0,1,15.826,0l.1124.9256.9295.0729a5.1266,5.1266,0,0,1-.4063,10.2373Z"/></g></svg>