<?xml version="1.0" encoding="utf-8"?><svg id="Layer_1" data-name="Layer 1" xmlns="http://www.w3.org/2000/svg" width="250" height="100" viewBox="0 0 250 100"><defs><style>.cls-1{fill:#242b66;}.cls-2{fill:#525352;}.cls-3{fill:none;stroke:#242b66;stroke-miterlimit:10;stroke-width:1.968px;}</style></defs><path class="cls-1" d="M37,22H35V14H20V12H35a2.0024,2.0024,0,0,1,2,2Z"/><path class="cls-1" d="M32,27H30V19H15V17H30a2.0024,2.0024,0,0,1,2,2Z"/><path class="cls-1" d="M25,34H11a2.0024,2.0024,0,0,1-2-2V24a2.0024,2.0024,0,0,1,2-2H25a2.0024,2.0024,0,0,1,2,2v8A2.0024,2.0024,0,0,1,25,34ZM11,24v8H25l-.0012-8Z"/><path class="cls-1" d="M49.7861,22.74a4.265,4.265,0,0,1-1.6181-.2924,3.24,3.24,0,0,1-1.2354-.8775,3.9651,3.9651,0,0,1-.7861-1.4492,6.6918,6.6918,0,0,1-.2735-2.0088,6.9533,6.9533,0,0,1,.2735-2.0342,4.1453,4.1453,0,0,1,.7861-1.4951,3.3437,3.3437,0,0,1,1.2354-.9165,4.0355,4.0355,0,0,1,1.6181-.312,3.6726,3.6726,0,0,1,2.0284.52,3.5724,3.5724,0,0,1,1.2871,1.5728l-1.4688.78a2.0712,2.0712,0,0,0-.6377-.9815,1.8233,1.8233,0,0,0-1.209-.3706,1.9211,1.9211,0,0,0-1.5273.65,2.685,2.685,0,0,0-.5654,1.82v1.43a2.6277,2.6277,0,0,0,.5654,1.8135,1.9481,1.9481,0,0,0,1.5273.63,1.8668,1.8668,0,0,0,1.2549-.4156,2.4042,2.4042,0,0,0,.708-1.0273l1.3916.8193a4.0013,4.0013,0,0,1-1.3135,1.5791A3.5081,3.5081,0,0,1,49.7861,22.74Z"/><path class="cls-1" d="M58.5615,21.4531h-.0654a2.2068,2.2068,0,0,1-.24.4873,1.7749,1.7749,0,0,1-.377.41,1.7123,1.7123,0,0,1-.5459.2856,2.366,2.366,0,0,1-.7344.104,1.9559,1.9559,0,0,1-1.6123-.6889,3.04,3.04,0,0,1-.5586-1.9629v-4.29h1.6641v4.121a1.7922,1.7922,0,0,0,.2725,1.0728,1.0117,1.0117,0,0,0,.8711.37,1.8536,1.8536,0,0,0,.4873-.0649,1.239,1.239,0,0,0,.4228-.2012,1.1112,1.1112,0,0,0,.2988-.3384.9259.9259,0,0,0,.1172-.4741V15.7979h1.6641V22.584H58.5615Z"/><path class="cls-1" d="M64.3721,22.74a3.6434,3.6434,0,0,1-1.6377-.331,3.7723,3.7723,0,0,1-1.17-.9165l1.0136-.9883a3.0743,3.0743,0,0,0,.8252.6763,2.1123,2.1123,0,0,0,1.0342.2466,1.41,1.41,0,0,0,.8633-.208.6856.6856,0,0,0,.2676-.5718.6171.6171,0,0,0-.1895-.4746,1.1964,1.1964,0,0,0-.6426-.24l-.6758-.0913a3.2076,3.2076,0,0,1-1.6835-.63,1.7534,1.7534,0,0,1-.5791-1.4233,2.0994,2.0994,0,0,1,.1826-.8906,1.88,1.88,0,0,1,.52-.6758,2.3709,2.3709,0,0,1,.8125-.4292,3.5209,3.5209,0,0,1,1.06-.1494,4.8568,4.8568,0,0,1,.8779.0713,3.237,3.237,0,0,1,.6953.208,2.7412,2.7412,0,0,1,.5723.3379,5.421,5.421,0,0,1,.5058.4487l-.9746.9751a2.572,2.572,0,0,0-.7148-.52,2.0043,2.0043,0,0,0-.91-.208,1.2546,1.2546,0,0,0-.7861.1948.6211.6211,0,0,0-.2412.5073.6426.6426,0,0,0,.2021.5132,1.39,1.39,0,0,0,.6826.2534l.6895.0913q2.1959.312,2.1963,2.002a2.0105,2.0105,0,0,1-.2022.9033,2.0563,2.0563,0,0,1-.5644.7022,2.68,2.68,0,0,1-.8779.455A3.8188,3.8188,0,0,1,64.3721,22.74Z"/><path class="cls-1" d="M70.6514,22.584a1.7732,1.7732,0,0,1-1.3067-.4473,1.727,1.727,0,0,1-.4482-1.2778V17.1372h-1.001V15.7979h.52a.6214.6214,0,0,0,.5127-.1753.8508.8508,0,0,0,.1367-.5264V13.939h1.4951v1.8589h1.3907v1.3393H70.5605v4.1079h1.2872V22.584Z"/><path class="cls-1" d="M76.0332,22.74a3.2942,3.2942,0,0,1-1.3066-.2465,2.7123,2.7123,0,0,1-.9883-.7154,3.2766,3.2766,0,0,1-.6309-1.1245,4.63,4.63,0,0,1-.2207-1.4751,4.5731,4.5731,0,0,1,.2207-1.4692,3.2191,3.2191,0,0,1,.6309-1.1113,2.7442,2.7442,0,0,1,.9883-.7085,3.2924,3.2924,0,0,1,1.3066-.2471,3.3457,3.3457,0,0,1,1.3125.2471,2.7165,2.7165,0,0,1,.9941.7085,3.2032,3.2032,0,0,1,.6309,1.1113,4.5457,4.5457,0,0,1,.2207,1.4692,4.6018,4.6018,0,0,1-.2207,1.4751,3.26,3.26,0,0,1-.6309,1.1245,2.6853,2.6853,0,0,1-.9941.7154A3.3474,3.3474,0,0,1,76.0332,22.74Zm0-1.3388a1.3532,1.3532,0,0,0,1.0391-.4029,1.669,1.669,0,0,0,.3769-1.1831V18.5542a1.65,1.65,0,0,0-.3769-1.17,1.3531,1.3531,0,0,0-1.0391-.4028,1.3394,1.3394,0,0,0-1.0273.4028,1.65,1.65,0,0,0-.377,1.17v1.2607a1.6686,1.6686,0,0,0,.377,1.1831A1.3394,1.3394,0,0,0,76.0332,21.4009Z"/><path class="cls-1" d="M80.66,22.584V15.7979h1.664v1.1313H82.39a2.1979,2.1979,0,0,1,.6241-.91,1.7513,1.7513,0,0,1,1.1963-.3769,2.1327,2.1327,0,0,1,1.2089.3379,1.9976,1.9976,0,0,1,.754,1.0268h.0263a1.907,1.907,0,0,1,.7207-.9682,2.2342,2.2342,0,0,1,1.3594-.3965,1.8427,1.8427,0,0,1,1.54.689,3.1238,3.1238,0,0,1,.54,1.9628v4.29H88.6953V18.4629q0-1.4553-1.0928-1.4561a1.5558,1.5558,0,0,0-.4736.0718,1.2606,1.2606,0,0,0-.4043.208.98.98,0,0,0-.3828.8125V22.584H84.6777V18.4629q0-1.4553-1.0918-1.4561a1.5273,1.5273,0,0,0-.4619.0718,1.2659,1.2659,0,0,0-.4033.208,1.0694,1.0694,0,0,0-.2852.3379.9663.9663,0,0,0-.1113.4746V22.584Z"/><path class="cls-2" d="M45.8926,37.9946v-.9839h1.164V30.6025h-1.164v-.9838h3.4922v.9838H48.2207v6.4082h1.1641v.9839Z"/><path class="cls-2" d="M51.0645,37.9946V31.7788h1.1171v1.0083h.06a2.0294,2.0294,0,0,1,.63-.8315,1.7859,1.7859,0,0,1,1.1221-.3208,1.897,1.897,0,0,1,1.5058.624,2.5921,2.5921,0,0,1,.5459,1.7637v3.9721H54.93V34.1821q0-1.5871-1.3086-1.5874a1.9687,1.9687,0,0,0-.5342.0723,1.5711,1.5711,0,0,0-.4619.21,1.0341,1.0341,0,0,0-.3242.3487.989.989,0,0,0-.1192.499v4.27Z"/><path class="cls-2" d="M59.4648,37.9946a1.1493,1.1493,0,0,1-.8759-.3174,1.1932,1.1932,0,0,1-.3-.8559V32.7388H57.293v-.96h.5527a.5679.5679,0,0,0,.4316-.1323.6546.6546,0,0,0,.1192-.4439v-1.14h1.0088v1.7163h1.331v.96h-1.331v4.2959h1.2353v.96Z"/><path class="cls-2" d="M64.5527,38.1387a2.8371,2.8371,0,0,1-1.17-.2339,2.5454,2.5454,0,0,1-.8877-.6543,2.9341,2.9341,0,0,1-.5635-1.02,4.6346,4.6346,0,0,1,0-2.6817,2.9326,2.9326,0,0,1,.5635-1.0263,2.5428,2.5428,0,0,1,.8877-.6538,2.8275,2.8275,0,0,1,1.17-.2339,2.7556,2.7556,0,0,1,1.1582.2329,2.459,2.459,0,0,1,.8584.64,2.7822,2.7822,0,0,1,.5284.9688,3.9619,3.9619,0,0,1,.18,1.2075V35.15h-4.38v.2524a1.8154,1.8154,0,0,0,.456,1.2779,1.6686,1.6686,0,0,0,1.2959.498,1.8546,1.8546,0,0,0,1.0078-.2641A1.9022,1.9022,0,0,0,66.33,36.17l.7187.6162a2.4046,2.4046,0,0,1-.9717.9839A3.0376,3.0376,0,0,1,64.5527,38.1387Zm0-5.604a1.68,1.68,0,0,0-.666.1313,1.5667,1.5667,0,0,0-.8691.918,1.9933,1.9933,0,0,0-.12.7031v.0835H66.09v-.1191a1.82,1.82,0,0,0-.414-1.2456A1.42,1.42,0,0,0,64.5527,32.5347Z"/><path class="cls-2" d="M74.1406,38.624a1.5864,1.5864,0,0,1-.75,1.4453,4.5164,4.5164,0,0,1-2.334.4693,4.2528,4.2528,0,0,1-2.13-.3965,1.2453,1.2453,0,0,1-.6416-1.1172,1.1137,1.1137,0,0,1,.2695-.7925,1.4918,1.4918,0,0,1,.75-.4087v-.1323a.9018.9018,0,0,1-.6113-.916.8766.8766,0,0,1,.3115-.7227,1.892,1.892,0,0,1,.7685-.3618v-.0483a1.9691,1.9691,0,0,1-.8525-.7476,2.1019,2.1019,0,0,1-.3-1.1308,2.1718,2.1718,0,0,1,.168-.8614,1.9224,1.9224,0,0,1,.4736-.6757,2.1421,2.1421,0,0,1,.75-.4371,3.0442,3.0442,0,0,1,1.0088-.1552,2.9939,2.9939,0,0,1,.6113.06,3.58,3.58,0,0,1,.54.1558v-.1318a.9812.9812,0,0,1,.1806-.6182.6792.6792,0,0,1,.5752-.2339h.9483v.936H72.6523v.335a1.9006,1.9006,0,0,1,.7813,1.6269,2.1884,2.1884,0,0,1-.168.8619,1.868,1.868,0,0,1-.48.67,2.2709,2.2709,0,0,1-.7559.4307,3.0374,3.0374,0,0,1-1.0078.1557c-.1211,0-.24-.0063-.36-.0181a2.7475,2.7475,0,0,1-.3369-.0542,1.6578,1.6578,0,0,0-.4912.24.4931.4931,0,0,0-.2158.42.3646.3646,0,0,0,.2461.3721,1.8764,1.8764,0,0,0,.666.0957h1.416a2.5341,2.5341,0,0,1,1.6738.4516A1.5475,1.5475,0,0,1,74.1406,38.624Zm-1.0439.1148a.67.67,0,0,0-.27-.5581,1.6015,1.6015,0,0,0-.9532-.21H69.7852a.8649.8649,0,0,0-.1983,1.4458,1.5677,1.5677,0,0,0,1.0381.27h.84a2.5381,2.5381,0,0,0,1.212-.2339A.7654.7654,0,0,0,73.0967,38.7388Zm-2.0635-3.6963a1.4633,1.4633,0,0,0,.9414-.2744,1.0213,1.0213,0,0,0,.3418-.8482v-.31a1.0213,1.0213,0,0,0-.3418-.8482,1.7538,1.7538,0,0,0-1.8838,0,1.0242,1.0242,0,0,0-.3418.8482v.31a1.0242,1.0242,0,0,0,.3418.8482A1.4646,1.4646,0,0,0,71.0332,35.0425Z"/><path class="cls-2" d="M75.1973,37.9946V31.7788h1.1152v1.188h.0605a1.7261,1.7261,0,0,1,.2159-.4443,1.535,1.535,0,0,1,.36-.378,1.844,1.844,0,0,1,.51-.2636,2.0247,2.0247,0,0,1,.666-.1021h.3721v1.1157h-.5518a2.1821,2.1821,0,0,0-1.207.2823.8537.8537,0,0,0-.4258.7378v4.08Z"/><path class="cls-2" d="M84.1484,37.9946a.9855.9855,0,0,1-.7734-.2881,1.3558,1.3558,0,0,1-.3184-.7441h-.0595a1.6071,1.6071,0,0,1-.66.8765,2.0707,2.0707,0,0,1-1.14.3,2.1443,2.1443,0,0,1-1.5118-.4981,1.7609,1.7609,0,0,1-.541-1.3618,1.593,1.593,0,0,1,.6543-1.374,3.4139,3.4139,0,0,1,1.9981-.4741h1.1758v-.564a1.2968,1.2968,0,0,0-.336-.96,1.4219,1.4219,0,0,0-1.0429-.3359,1.6088,1.6088,0,0,0-.918.2456,2.0216,2.0216,0,0,0-.6065.6421l-.6728-.6118a2.3792,2.3792,0,0,1,.834-.8579,2.6171,2.6171,0,0,1,1.4228-.354,2.6453,2.6453,0,0,1,1.8.5566,1.9827,1.9827,0,0,1,.6367,1.5747v3.2686h.6954v.96Zm-2.6992-.7558a1.87,1.87,0,0,0,1.0918-.3.9016.9016,0,0,0,.4317-.7681v-.96H81.7852a2.13,2.13,0,0,0-1.1221.2281.74.74,0,0,0-.3545.66v.24a.7884.7884,0,0,0,.3066.6655A1.3413,1.3413,0,0,0,81.4492,37.2388Z"/><path class="cls-2" d="M87.6289,37.9946a1.1494,1.1494,0,0,1-.876-.3174,1.1932,1.1932,0,0,1-.3-.8559V32.7388H85.457v-.96H86.01a.568.568,0,0,0,.4316-.1323.6547.6547,0,0,0,.1191-.4439v-1.14h1.0088v1.7163H88.9v.96H87.5693v4.2959h1.2354v.96Z"/><path class="cls-2" d="M92.7168,38.1387a2.8338,2.8338,0,0,1-1.17-.2339,2.5473,2.5473,0,0,1-.8887-.6543,2.9325,2.9325,0,0,1-.5635-1.02,4.6346,4.6346,0,0,1,0-2.6817,2.931,2.931,0,0,1,.5635-1.0263,2.5448,2.5448,0,0,1,.8887-.6538,2.8242,2.8242,0,0,1,1.17-.2339,2.7591,2.7591,0,0,1,1.1582.2329,2.4561,2.4561,0,0,1,.8574.64,2.7659,2.7659,0,0,1,.5283.9688,3.9284,3.9284,0,0,1,.1807,1.2075V35.15H91.0605v.2524a1.8161,1.8161,0,0,0,.4571,1.2779,1.6649,1.6649,0,0,0,1.2949.498,1.85,1.85,0,0,0,1.0078-.2641,1.8947,1.8947,0,0,0,.6729-.7442l.72.6162a2.4133,2.4133,0,0,1-.9727.9839A3.0337,3.0337,0,0,1,92.7168,38.1387Zm0-5.604a1.6731,1.6731,0,0,0-.666.1313,1.5665,1.5665,0,0,0-.8692.918,1.9957,1.9957,0,0,0-.1211.7031v.0835h3.1924v-.1191a1.8153,1.8153,0,0,0-.414-1.2456A1.4176,1.4176,0,0,0,92.7168,32.5347Z"/><path class="cls-2" d="M103.625,31.7788h1.08l-2.7012,7.5718a3.1315,3.1315,0,0,1-.2275.4922,1.0158,1.0158,0,0,1-.294.3237,1.177,1.177,0,0,1-.414.1743,2.8119,2.8119,0,0,1-.6.0537h-.6124v-.96h1.0206l.42-1.1983-2.3047-6.4575h1.1162l1.38,3.9639.3242,1.1616h.0605l.3594-1.1616Z"/><path class="cls-2" d="M108.1846,38.1387a2.8648,2.8648,0,0,1-1.1582-.2281,2.5038,2.5038,0,0,1-.8936-.6538,3.01,3.01,0,0,1-.5762-1.0263,4.5272,4.5272,0,0,1,0-2.688,3.0138,3.0138,0,0,1,.5762-1.0259,2.5038,2.5038,0,0,1,.8936-.6538,3.0532,3.0532,0,0,1,2.3154,0,2.4983,2.4983,0,0,1,.8945.6538,3.0271,3.0271,0,0,1,.5762,1.0259,4.5272,4.5272,0,0,1,0,2.688,3.0233,3.0233,0,0,1-.5762,1.0263,2.4983,2.4983,0,0,1-.8945.6538A2.86,2.86,0,0,1,108.1846,38.1387Zm0-.96a1.6091,1.6091,0,0,0,1.1884-.456,1.8629,1.8629,0,0,0,.4551-1.3682v-.936a1.8623,1.8623,0,0,0-.4551-1.3677,1.7764,1.7764,0,0,0-2.3769,0,1.8585,1.8585,0,0,0-.4551,1.3677v.936a1.8592,1.8592,0,0,0,.4551,1.3682A1.6079,1.6079,0,0,0,108.1846,37.1787Z"/><path class="cls-2" d="M116.3447,36.9863h-.0595a2.1726,2.1726,0,0,1-.2227.4336,1.5191,1.5191,0,0,1-.3477.3682,1.6992,1.6992,0,0,1-.498.2554,2.1474,2.1474,0,0,1-.6719.0952,1.9121,1.9121,0,0,1-1.5117-.6241,2.57,2.57,0,0,1-.5527-1.7641V31.7788h1.1162v3.8125q0,1.5872,1.3193,1.5874a2.0846,2.0846,0,0,0,.5225-.0664,1.3209,1.3209,0,0,0,.456-.21,1.1608,1.1608,0,0,0,.3243-.36.9885.9885,0,0,0,.1259-.5054V31.7788h1.1162v6.2158h-1.1162Z"/><path class="cls-2" d="M119.4277,37.9946V31.7788h1.1172v1.188h.06a1.7554,1.7554,0,0,1,.2158-.4443,1.5311,1.5311,0,0,1,.3594-.378,1.8625,1.8625,0,0,1,.5107-.2636,2.029,2.029,0,0,1,.666-.1021h.3721v1.1157h-.5527a2.1728,2.1728,0,0,0-1.2051.2823.8494.8494,0,0,0-.4258.7378v4.08Z"/><path class="cls-2" d="M129.1367,38.1387a2.8341,2.8341,0,0,1-1.17-.2339,2.54,2.54,0,0,1-.8887-.6543,2.934,2.934,0,0,1-.5644-1.02,4.6548,4.6548,0,0,1,0-2.6817,2.9325,2.9325,0,0,1,.5644-1.0263,2.5375,2.5375,0,0,1,.8887-.6538,2.8246,2.8246,0,0,1,1.17-.2339,2.7621,2.7621,0,0,1,1.1582.2329,2.4644,2.4644,0,0,1,.8574.64,2.7483,2.7483,0,0,1,.5274.9688,3.9015,3.9015,0,0,1,.1807,1.2075V35.15h-4.38v.2524a1.82,1.82,0,0,0,.456,1.2779,1.6673,1.6673,0,0,0,1.2959.498,1.8525,1.8525,0,0,0,1.0078-.2641,1.8925,1.8925,0,0,0,.6719-.7442l.7207.6162a2.4259,2.4259,0,0,1-.9726.9839A3.0344,3.0344,0,0,1,129.1367,38.1387Zm0-5.604a1.67,1.67,0,0,0-.666.1313,1.5794,1.5794,0,0,0-.5283.3633,1.5974,1.5974,0,0,0-.3418.5547,1.9933,1.9933,0,0,0-.12.7031v.0835h3.1914v-.1191a1.8149,1.8149,0,0,0-.4141-1.2456A1.4155,1.4155,0,0,0,129.1367,32.5347Z"/><path class="cls-2" d="M132.4961,37.9946l2.2559-3.1318-2.1719-3.084h1.2959l1.5,2.2437h.0361l1.5361-2.2437h1.2237L136,34.8145l2.208,3.18h-1.2959l-1.5361-2.352H135.34l-1.6191,2.352Z"/><path class="cls-2" d="M140.0078,30.4824a.678.678,0,0,1-.51-.1679.6147.6147,0,0,1-.1621-.4439v-.168a.6144.6144,0,0,1,.1621-.4438.8575.8575,0,0,1,1.02,0,.61.61,0,0,1,.1621.4438v.168a.6105.6105,0,0,1-.1621.4439A.6779.6779,0,0,1,140.0078,30.4824Zm-.5644,1.2964h1.1171v6.2158h-1.1171Z"/><path class="cls-2" d="M144.4355,38.1387a3.0011,3.0011,0,0,1-1.457-.3242,3.2954,3.2954,0,0,1-1.0264-.876l.7559-.648a2.5536,2.5536,0,0,0,.7861.6841,2.0712,2.0712,0,0,0,1.0137.24,1.4488,1.4488,0,0,0,.9121-.246.8919.8919,0,0,0,.1016-1.254,1.3234,1.3234,0,0,0-.7852-.312l-.5283-.084a4.024,4.024,0,0,1-.8154-.1923,2.1006,2.1006,0,0,1-.6367-.3477,1.5242,1.5242,0,0,1-.4141-.5283,1.708,1.708,0,0,1-.15-.7437,1.8751,1.8751,0,0,1,.168-.81,1.6151,1.6151,0,0,1,.4687-.5884,2.09,2.09,0,0,1,.7139-.354,3.2559,3.2559,0,0,1,.9053-.12,2.9393,2.9393,0,0,1,1.32.2636,2.8975,2.8975,0,0,1,.9238.7325l-.707.6718a2.0065,2.0065,0,0,0-.6192-.5219,1.8973,1.8973,0,0,0-.9531-.2222,1.3,1.3,0,0,0-.8584.24.792.792,0,0,0-.2822.6358.6964.6964,0,0,0,.27.6118,1.9279,1.9279,0,0,0,.81.2764l.5283.0839a2.6415,2.6415,0,0,1,1.4814.6,1.5593,1.5593,0,0,1,.4512,1.1636,1.7735,1.7735,0,0,1-.6367,1.44A2.6419,2.6419,0,0,1,144.4355,38.1387Z"/><path class="cls-2" d="M149.8477,37.9946a1.1494,1.1494,0,0,1-.876-.3174,1.1932,1.1932,0,0,1-.3-.8559V32.7388h-.9961v-.96h.5527a.5683.5683,0,0,0,.4317-.1323.6552.6552,0,0,0,.1191-.4439v-1.14h1.0088v1.7163h1.331v.96h-1.331v4.2959h1.2353v.96Z"/><path class="cls-2" d="M153.1719,30.4824a.6779.6779,0,0,1-.51-.1679.6147.6147,0,0,1-.1621-.4439v-.168a.6144.6144,0,0,1,.1621-.4438.8573.8573,0,0,1,1.0195,0,.61.61,0,0,1,.1622.4438v.168a.6106.6106,0,0,1-.1622.4439A.6776.6776,0,0,1,153.1719,30.4824Zm-.5645,1.2964h1.1172v6.2158h-1.1172Z"/><path class="cls-2" d="M155.6914,37.9946V31.7788h1.1172v1.0083h.06a2.0292,2.0292,0,0,1,.63-.8315,1.7859,1.7859,0,0,1,1.1221-.3208,1.8972,1.8972,0,0,1,1.5059.624,2.5926,2.5926,0,0,1,.5459,1.7637v3.9721h-1.1153V34.1821q0-1.5871-1.3086-1.5874a1.968,1.968,0,0,0-.5341.0723,1.5711,1.5711,0,0,0-.4619.21,1.0334,1.0334,0,0,0-.3243.3487.99.99,0,0,0-.1191.499v4.27Z"/><path class="cls-2" d="M167.9082,38.624a1.5864,1.5864,0,0,1-.75,1.4453,4.5188,4.5188,0,0,1-2.334.4693,4.2569,4.2569,0,0,1-2.1308-.3965,1.2453,1.2453,0,0,1-.6416-1.1172,1.1141,1.1141,0,0,1,.2705-.7925,1.4918,1.4918,0,0,1,.75-.4087v-.1323a.9026.9026,0,0,1-.6123-.916.8794.8794,0,0,1,.3115-.7227,1.9039,1.9039,0,0,1,.7685-.3618v-.0483a1.9748,1.9748,0,0,1-.8525-.7476,2.11,2.11,0,0,1-.2988-1.1308,2.1562,2.1562,0,0,1,.1679-.8614,1.9344,1.9344,0,0,1,.4727-.6757,2.16,2.16,0,0,1,.75-.4371,3.0526,3.0526,0,0,1,1.0088-.1552,3.0038,3.0038,0,0,1,.6123.06,3.5673,3.5673,0,0,1,.5391.1558v-.1318a.9874.9874,0,0,1,.1806-.6182.68.68,0,0,1,.5752-.2339h.9492v.936H166.42v.335a1.9023,1.9023,0,0,1,.78,1.6269,2.1725,2.1725,0,0,1-.168.8619,1.8442,1.8442,0,0,1-.48.67,2.2512,2.2512,0,0,1-.7559.4307,3.0291,3.0291,0,0,1-1.0078.1557c-.12,0-.24-.0063-.36-.0181a2.73,2.73,0,0,1-.3359-.0542,1.6743,1.6743,0,0,0-.4922.24.4931.4931,0,0,0-.2158.42.3646.3646,0,0,0,.2461.3721,1.88,1.88,0,0,0,.666.0957h1.416a2.5322,2.5322,0,0,1,1.6738.4516A1.5451,1.5451,0,0,1,167.9082,38.624Zm-1.0449.1148a.6713.6713,0,0,0-.27-.5581,1.6036,1.6036,0,0,0-.9532-.21h-2.0888a.865.865,0,0,0-.1983,1.4458,1.5726,1.5726,0,0,0,1.0391.27h.84a2.5309,2.5309,0,0,0,1.211-.2339A.7637.7637,0,0,0,166.8633,38.7388ZM164.8,35.0425a1.4682,1.4682,0,0,0,.9424-.2744,1.0213,1.0213,0,0,0,.3418-.8482v-.31a1.0213,1.0213,0,0,0-.3418-.8482,1.7555,1.7555,0,0,0-1.8848,0,1.0242,1.0242,0,0,0-.3418.8482v.31a1.0242,1.0242,0,0,0,.3418.8482A1.4682,1.4682,0,0,0,164.8,35.0425Z"/><path class="cls-2" d="M174.1475,38.1387a2.9162,2.9162,0,0,1-1.1885-.2281,2.4268,2.4268,0,0,1-.875-.6479,2.8425,2.8425,0,0,1-.5469-1.0259,4.6254,4.6254,0,0,1-.1855-1.35,4.5658,4.5658,0,0,1,.1855-1.3442,2.913,2.913,0,0,1,.5469-1.0259,2.4033,2.4033,0,0,1,.875-.6538,2.9162,2.9162,0,0,1,1.1885-.228,2.5415,2.5415,0,0,1,1.5.4077,2.4294,2.4294,0,0,1,.8525,1.08l-.9238.456a1.4452,1.4452,0,0,0-.5225-.72,1.51,1.51,0,0,0-.9062-.2637,1.4665,1.4665,0,0,0-1.2061.4917,1.9308,1.9308,0,0,0-.4023,1.26v1.08a1.928,1.928,0,0,0,.4023,1.26,1.4653,1.4653,0,0,0,1.2061.4922,1.6019,1.6019,0,0,0,.96-.2759,1.9887,1.9887,0,0,0,.624-.78l.8155.5039a2.4486,2.4486,0,0,1-.8994,1.11A2.6381,2.6381,0,0,1,174.1475,38.1387Z"/><path class="cls-2" d="M181.66,36.9863H181.6a2.1669,2.1669,0,0,1-.2226.4336,1.502,1.502,0,0,1-.3477.3682,1.6763,1.6763,0,0,1-.4981.2554,2.1428,2.1428,0,0,1-.6718.0952,1.912,1.912,0,0,1-1.5117-.6241,2.5745,2.5745,0,0,1-.5528-1.7641V31.7788h1.1172v3.8125q0,1.5872,1.3193,1.5874a2.0846,2.0846,0,0,0,.5225-.0664,1.3088,1.3088,0,0,0,.4551-.21,1.1605,1.1605,0,0,0,.3242-.36.988.988,0,0,0,.127-.5054V31.7788h1.1152v6.2158H181.66Z"/><path class="cls-2" d="M186.6514,38.1387a3.0074,3.0074,0,0,1-1.458-.3242,3.2807,3.2807,0,0,1-1.0254-.876l.7558-.648a2.561,2.561,0,0,0,.7852.6841,2.0761,2.0761,0,0,0,1.0137.24,1.4473,1.4473,0,0,0,.9121-.246.8932.8932,0,0,0,.1025-1.254,1.3236,1.3236,0,0,0-.7861-.312l-.5274-.084a4.0373,4.0373,0,0,1-.8164-.1923,2.103,2.103,0,0,1-.6367-.3477,1.536,1.536,0,0,1-.4141-.5283,1.7082,1.7082,0,0,1-.1494-.7437,1.8621,1.8621,0,0,1,.168-.81,1.6233,1.6233,0,0,1,.4678-.5884,2.1032,2.1032,0,0,1,.7148-.354,3.2513,3.2513,0,0,1,.9053-.12,2.9449,2.9449,0,0,1,1.32.2636,2.9073,2.9073,0,0,1,.9238.7325l-.708.6718a2.0016,2.0016,0,0,0-.6181-.5219,1.8991,1.8991,0,0,0-.9541-.2222,1.297,1.297,0,0,0-.8575.24.7923.7923,0,0,0-.2822.6358.6964.6964,0,0,0,.27.6118,1.9175,1.9175,0,0,0,.81.2764l.5283.0839a2.6479,2.6479,0,0,1,1.4814.6,1.562,1.562,0,0,1,.45,1.1636,1.7706,1.7706,0,0,1-.6367,1.44A2.6408,2.6408,0,0,1,186.6514,38.1387Z"/><path class="cls-2" d="M192.0635,37.9946a1.1494,1.1494,0,0,1-.876-.3174,1.1975,1.1975,0,0,1-.3-.8559V32.7388h-.9961v-.96h.5518a.5665.5665,0,0,0,.4316-.1323.654.654,0,0,0,.1211-.4439v-1.14h1.0078v1.7163h1.332v.96h-1.332v4.2959H193.24v.96Z"/><path class="cls-2" d="M197.1641,38.1387a2.8613,2.8613,0,0,1-1.1582-.2281,2.5074,2.5074,0,0,1-.8946-.6538,3.0248,3.0248,0,0,1-.5761-1.0263,4.5463,4.5463,0,0,1,0-2.688,3.0286,3.0286,0,0,1,.5761-1.0259,2.5074,2.5074,0,0,1,.8946-.6538,3.0532,3.0532,0,0,1,2.3154,0,2.4947,2.4947,0,0,1,.8935.6538,3.01,3.01,0,0,1,.5762,1.0259,4.5061,4.5061,0,0,1,0,2.688,3.0067,3.0067,0,0,1-.5762,1.0263,2.4947,2.4947,0,0,1-.8935.6538A2.86,2.86,0,0,1,197.1641,38.1387Zm0-.96a1.6072,1.6072,0,0,0,1.1875-.456,1.8594,1.8594,0,0,0,.456-1.3682v-.936a1.8588,1.8588,0,0,0-.456-1.3677,1.7752,1.7752,0,0,0-2.376,0,1.8588,1.8588,0,0,0-.4561,1.3677v.936a1.8594,1.8594,0,0,0,.4561,1.3682A1.6064,1.6064,0,0,0,197.1641,37.1787Z"/><path class="cls-2" d="M201.52,37.9946V31.7788h1.1153v1.0083h.06a2.1252,2.1252,0,0,1,.6172-.814,1.5921,1.5921,0,0,1,1.0391-.3383,2.2119,2.2119,0,0,1,1.1338.2973,1.7476,1.7476,0,0,1,.75.9512h.0244a1.8625,1.8625,0,0,1,.6416-.874,1.9607,1.9607,0,0,1,1.2539-.3745,1.8133,1.8133,0,0,1,1.4638.624,2.6551,2.6551,0,0,1,.5274,1.7637v3.9721h-1.1153V34.1821a1.9246,1.9246,0,0,0-.3066-1.19,1.1262,1.1262,0,0,0-.9531-.397,1.84,1.84,0,0,0-.5225.0723,1.439,1.439,0,0,0-.4385.21,1.0033,1.0033,0,0,0-.42.8477v4.27h-1.1152V34.1821q0-1.5871-1.2481-1.5874a1.8569,1.8569,0,0,0-.5156.0723,1.417,1.417,0,0,0-.4443.21,1.08,1.08,0,0,0-.3115.3487.99.99,0,0,0-.1211.499v4.27Z"/><path class="cls-2" d="M48.5693,52.5386a2.8651,2.8651,0,0,1-1.1582-.2281,2.5034,2.5034,0,0,1-.8935-.6538,3.0067,3.0067,0,0,1-.5762-1.0263,4.5272,4.5272,0,0,1,0-2.688,3.01,3.01,0,0,1,.5762-1.0259,2.5046,2.5046,0,0,1,.8935-.6538,3.0534,3.0534,0,0,1,2.3155,0,2.5,2.5,0,0,1,.8945.6538,3.03,3.03,0,0,1,.5762,1.0259,4.5272,4.5272,0,0,1,0,2.688,3.0267,3.0267,0,0,1-.5762,1.0263,2.4992,2.4992,0,0,1-.8945.6538A2.86,2.86,0,0,1,48.5693,52.5386Zm0-.96a1.61,1.61,0,0,0,1.1885-.456,1.8634,1.8634,0,0,0,.4551-1.3682v-.936a1.8627,1.8627,0,0,0-.4551-1.3677,1.7764,1.7764,0,0,0-2.3769,0,1.8581,1.8581,0,0,0-.4551,1.3677v.936a1.8588,1.8588,0,0,0,.4551,1.3682A1.6077,1.6077,0,0,0,48.5693,51.5786Z"/><path class="cls-2" d="M52.9258,52.3945V46.1787H54.041v1.188h.0606a1.7224,1.7224,0,0,1,.2158-.4443,1.5368,1.5368,0,0,1,.36-.378,1.844,1.844,0,0,1,.51-.2636,2.0247,2.0247,0,0,1,.666-.1021h.3721v1.1157h-.5518a2.1823,2.1823,0,0,0-1.207.2823.8537.8537,0,0,0-.4258.7378v4.08Z"/><path class="cls-2" d="M60.2568,46.1787H61.373V47.187h.0479a1.682,1.682,0,0,1,.6787-.8613,2.0364,2.0364,0,0,1,1.1094-.291,2.3952,2.3952,0,0,1,1.05.2216,2.1564,2.1564,0,0,1,.7861.648,3.0353,3.0353,0,0,1,.4922,1.0264,5.556,5.556,0,0,1,0,2.7119,3.0281,3.0281,0,0,1-.4922,1.0259,2.1462,2.1462,0,0,1-.7861.6479,2.3939,2.3939,0,0,1-1.05.2222,2.0373,2.0373,0,0,1-1.1094-.291,1.6806,1.6806,0,0,1-.6787-.8614H61.373v3.4082H60.2568Zm2.628,5.4a1.5323,1.5323,0,0,0,1.1943-.4824,1.83,1.83,0,0,0,.4385-1.2788V48.7559a1.83,1.83,0,0,0-.4385-1.2788,1.5323,1.5323,0,0,0-1.1943-.4825,2,2,0,0,0-.5879.0845,1.5115,1.5115,0,0,0-.48.2412,1.2437,1.2437,0,0,0-.3232.3618.89.89,0,0,0-.12.4585v2.292a.89.89,0,0,0,.12.4585,1.2437,1.2437,0,0,0,.3232.3618,1.5094,1.5094,0,0,0,.48.2412A2,2,0,0,0,62.8848,51.5786Z"/><path class="cls-2" d="M67.2773,52.3945V46.1787h1.1153v1.188h.0605a1.7289,1.7289,0,0,1,.2158-.4443,1.5372,1.5372,0,0,1,.36-.378,1.844,1.844,0,0,1,.51-.2636,2.0243,2.0243,0,0,1,.666-.1021h.372v1.1157h-.5517a2.1821,2.1821,0,0,0-1.207.2823.8537.8537,0,0,0-.4258.7378v4.08Z"/><path class="cls-2" d="M74.1055,52.5386a2.8644,2.8644,0,0,1-1.1582-.2281,2.5074,2.5074,0,0,1-.8946-.6538,3.0082,3.0082,0,0,1-.5752-1.0263,4.5272,4.5272,0,0,1,0-2.688,3.0119,3.0119,0,0,1,.5752-1.0259,2.5086,2.5086,0,0,1,.8946-.6538,3.0557,3.0557,0,0,1,2.3164,0,2.5046,2.5046,0,0,1,.8935.6538,3.01,3.01,0,0,1,.5762,1.0259,4.5272,4.5272,0,0,1,0,2.688,3.0067,3.0067,0,0,1-.5762,1.0263,2.5034,2.5034,0,0,1-.8935.6538A2.8651,2.8651,0,0,1,74.1055,52.5386Zm0-.96a1.604,1.604,0,0,0,1.1875-.456,1.8555,1.8555,0,0,0,.457-1.3682v-.936a1.8549,1.8549,0,0,0-.457-1.3677,1.7739,1.7739,0,0,0-2.375,0,1.8549,1.8549,0,0,0-.4571,1.3677v.936a1.8556,1.8556,0,0,0,.4571,1.3682A1.6025,1.6025,0,0,0,74.1055,51.5786Z"/><path class="cls-2" d="M78.4609,46.1787h1.1162V47.187h.0479a1.69,1.69,0,0,1,.6777-.8613,2.0425,2.0425,0,0,1,1.11-.291,2.3983,2.3983,0,0,1,1.05.2216,2.1482,2.1482,0,0,1,.7861.648,3.0353,3.0353,0,0,1,.4922,1.0264,5.556,5.556,0,0,1,0,2.7119,3.0281,3.0281,0,0,1-.4922,1.0259,2.1381,2.1381,0,0,1-.7861.6479,2.397,2.397,0,0,1-1.05.2222,2.0434,2.0434,0,0,1-1.11-.291,1.6886,1.6886,0,0,1-.6777-.8614h-.0479v3.4082H78.4609Zm2.628,5.4a1.5323,1.5323,0,0,0,1.1943-.4824,1.83,1.83,0,0,0,.4375-1.2788V48.7559a1.8294,1.8294,0,0,0-.4375-1.2788,1.5323,1.5323,0,0,0-1.1943-.4825,2.0043,2.0043,0,0,0-.5879.0845,1.4855,1.4855,0,0,0-.48.2412,1.2461,1.2461,0,0,0-.3242.3618.89.89,0,0,0-.12.4585v2.292a.89.89,0,0,0,.12.4585,1.2461,1.2461,0,0,0,.3242.3618,1.4835,1.4835,0,0,0,.48.2412A2.0043,2.0043,0,0,0,81.0889,51.5786Z"/><path class="cls-2" d="M85.4805,52.3945V46.1787h1.1172v1.188h.0595a1.7588,1.7588,0,0,1,.2158-.4443,1.5348,1.5348,0,0,1,.3594-.378,1.8646,1.8646,0,0,1,.5108-.2636,2.0286,2.0286,0,0,1,.666-.1021h.372v1.1157h-.5527a2.173,2.173,0,0,0-1.2051.2823.85.85,0,0,0-.4257.7378v4.08Z"/><path class="cls-2" d="M90.5449,44.8823a.6776.6776,0,0,1-.51-.1679.6143.6143,0,0,1-.1622-.4439v-.168a.6141.6141,0,0,1,.1622-.4438.8573.8573,0,0,1,1.0195,0,.61.61,0,0,1,.1621.4438v.168a.6105.6105,0,0,1-.1621.4439A.6779.6779,0,0,1,90.5449,44.8823Zm-.5644,1.2964h1.1172v6.2158H89.9805Z"/><path class="cls-2" d="M95.4414,52.5386a2.8338,2.8338,0,0,1-1.17-.2339,2.54,2.54,0,0,1-.8887-.6543,2.934,2.934,0,0,1-.5644-1.02,4.6548,4.6548,0,0,1,0-2.6817,2.9325,2.9325,0,0,1,.5644-1.0263,2.5375,2.5375,0,0,1,.8887-.6538,2.8242,2.8242,0,0,1,1.17-.2339,2.7624,2.7624,0,0,1,1.1582.2329,2.4644,2.4644,0,0,1,.8574.64,2.7483,2.7483,0,0,1,.5274.9688,3.9015,3.9015,0,0,1,.1806,1.2075V49.55h-4.38v.2524a1.82,1.82,0,0,0,.456,1.2779,1.6673,1.6673,0,0,0,1.2959.498,1.8525,1.8525,0,0,0,1.0078-.2641,1.8925,1.8925,0,0,0,.6719-.7442l.7207.6162a2.4256,2.4256,0,0,1-.9727.9839A3.0337,3.0337,0,0,1,95.4414,52.5386Zm0-5.604a1.67,1.67,0,0,0-.666.1313,1.5794,1.5794,0,0,0-.5283.3633,1.5974,1.5974,0,0,0-.3418.5547,1.9933,1.9933,0,0,0-.12.7031v.0835h3.1914v-.1191a1.8149,1.8149,0,0,0-.4141-1.2456A1.4155,1.4155,0,0,0,95.4414,46.9346Z"/><path class="cls-2" d="M101.2129,52.3945a1.1518,1.1518,0,0,1-.877-.3174,1.197,1.197,0,0,1-.2988-.8559V47.1387H99.041v-.96h.5518a.5665.5665,0,0,0,.4316-.1323.6543.6543,0,0,0,.12-.4439v-1.14h1.0078v1.7163h1.3321v.96h-1.3321v4.2959h1.2364v.96Z"/><path class="cls-2" d="M108.4961,52.3945a.9852.9852,0,0,1-.7734-.2881,1.3548,1.3548,0,0,1-.3184-.7441h-.06a1.6064,1.6064,0,0,1-.66.8765,2.0711,2.0711,0,0,1-1.14.3,2.1442,2.1442,0,0,1-1.5117-.4981,1.7609,1.7609,0,0,1-.541-1.3618,1.5928,1.5928,0,0,1,.6543-1.374,3.4134,3.4134,0,0,1,1.998-.4741H107.32v-.564a1.2968,1.2968,0,0,0-.3359-.96,1.4223,1.4223,0,0,0-1.043-.3359,1.6093,1.6093,0,0,0-.918.2456,2.0224,2.0224,0,0,0-.6064.6421l-.6729-.6118a2.3792,2.3792,0,0,1,.834-.8579,2.6177,2.6177,0,0,1,1.4229-.354,2.6455,2.6455,0,0,1,1.8.5566,1.983,1.983,0,0,1,.6367,1.5747v3.2686h.6953v.96Zm-2.6992-.7558a1.87,1.87,0,0,0,1.0918-.3.9015.9015,0,0,0,.4316-.7681v-.96h-1.1875a2.1305,2.1305,0,0,0-1.1221.228.74.74,0,0,0-.3545.66v.24a.7884.7884,0,0,0,.3067.6655A1.3411,1.3411,0,0,0,105.7969,51.6387Z"/><path class="cls-2" d="M110.4648,52.3945V46.1787H111.58v1.188h.0605a1.7289,1.7289,0,0,1,.2158-.4443,1.5372,1.5372,0,0,1,.36-.378,1.844,1.844,0,0,1,.51-.2636,2.0243,2.0243,0,0,1,.666-.1021h.372v1.1157h-.5517a2.1821,2.1821,0,0,0-1.207.2823.8537.8537,0,0,0-.4258.7378v4.08Z"/><path class="cls-2" d="M118.9,46.1787h1.08l-2.7,7.5718a3.1221,3.1221,0,0,1-.2276.4922,1.0068,1.0068,0,0,1-.2949.3237,1.1691,1.1691,0,0,1-.414.1743,2.8123,2.8123,0,0,1-.6.0537h-.6113v-.96h1.0195l.42-1.1983-2.3037-6.4575h1.1162l1.3789,3.9639.3242,1.1616h.06l.3594-1.1616Z"/><path class="cls-2" d="M125.5,52.3945a1.1494,1.1494,0,0,1-.876-.3174,1.1932,1.1932,0,0,1-.3-.8559V47.1387h-.9961v-.96h.5528a.568.568,0,0,0,.4316-.1323.6547.6547,0,0,0,.1191-.4439v-1.14H125.44v1.7163h1.3311v.96H125.44v4.2959h1.2354v.96Z"/><path class="cls-2" d="M130.6,52.5386a2.8682,2.8682,0,0,1-1.1582-.2281,2.5034,2.5034,0,0,1-.8935-.6538,2.9884,2.9884,0,0,1-.5752-1.0263,4.5061,4.5061,0,0,1,0-2.688,2.9921,2.9921,0,0,1,.5752-1.0259,2.5046,2.5046,0,0,1,.8935-.6538,3.0557,3.0557,0,0,1,2.3164,0,2.5074,2.5074,0,0,1,.8945.6538,3.0271,3.0271,0,0,1,.5762,1.0259,4.5485,4.5485,0,0,1,0,2.688,3.0233,3.0233,0,0,1-.5762,1.0263,2.5062,2.5062,0,0,1-.8945.6538A2.8648,2.8648,0,0,1,130.6,52.5386Zm0-.96a1.6064,1.6064,0,0,0,1.1885-.456,1.8594,1.8594,0,0,0,.456-1.3682v-.936a1.8588,1.8588,0,0,0-.456-1.3677,1.7752,1.7752,0,0,0-2.376,0,1.8546,1.8546,0,0,0-.456,1.3677v.936a1.8553,1.8553,0,0,0,.456,1.3682A1.604,1.604,0,0,0,130.6,51.5786Z"/><path class="cls-2" d="M137.3438,52.5386a2.8686,2.8686,0,0,1-1.1583-.2281,2.5034,2.5034,0,0,1-.8935-.6538,2.99,2.99,0,0,1-.5752-1.0263,4.5061,4.5061,0,0,1,0-2.688,2.9937,2.9937,0,0,1,.5752-1.0259,2.5046,2.5046,0,0,1,.8935-.6538,3.056,3.056,0,0,1,2.3165,0,2.5091,2.5091,0,0,1,.8945.6538,3.03,3.03,0,0,1,.5762,1.0259,4.5485,4.5485,0,0,1,0,2.688,3.0267,3.0267,0,0,1-.5762,1.0263,2.5079,2.5079,0,0,1-.8945.6538A2.8651,2.8651,0,0,1,137.3438,52.5386Zm0-.96a1.6063,1.6063,0,0,0,1.1884-.456,1.8594,1.8594,0,0,0,.4561-1.3682v-.936a1.8588,1.8588,0,0,0-.4561-1.3677,1.7752,1.7752,0,0,0-2.376,0,1.855,1.855,0,0,0-.456,1.3677v.936a1.8557,1.8557,0,0,0,.456,1.3682A1.6044,1.6044,0,0,0,137.3438,51.5786Z"/><path class="cls-2" d="M142.8633,52.3945a1.1384,1.1384,0,0,1-.8692-.312,1.1576,1.1576,0,0,1-.2949-.8281v-7.74h1.1172v7.92h.8867v.96Z"/><path class="cls-2" d="M146.9443,52.5386a3.0079,3.0079,0,0,1-1.458-.3242,3.2807,3.2807,0,0,1-1.0254-.876l.7559-.648a2.56,2.56,0,0,0,.7852.6841,2.0757,2.0757,0,0,0,1.0136.24,1.4469,1.4469,0,0,0,.9121-.246.8933.8933,0,0,0,.1026-1.254,1.324,1.324,0,0,0-.7862-.312l-.5273-.0839a4.0407,4.0407,0,0,1-.8164-.1924,2.1018,2.1018,0,0,1-.6367-.3477,1.536,1.536,0,0,1-.4141-.5283,1.7082,1.7082,0,0,1-.1494-.7437,1.8621,1.8621,0,0,1,.168-.81,1.6239,1.6239,0,0,1,.4677-.5884,2.1037,2.1037,0,0,1,.7149-.354,3.2508,3.2508,0,0,1,.9053-.12,2.9452,2.9452,0,0,1,1.32.2636,2.91,2.91,0,0,1,.9238.7325l-.708.6718a2.002,2.002,0,0,0-.6182-.5219,1.8986,1.8986,0,0,0-.9541-.2222,1.2967,1.2967,0,0,0-.8574.24.792.792,0,0,0-.2822.6358.6964.6964,0,0,0,.27.6118,1.9175,1.9175,0,0,0,.81.2764l.5283.0839a2.6479,2.6479,0,0,1,1.4814.6,1.5624,1.5624,0,0,1,.45,1.1636,1.7706,1.7706,0,0,1-.6367,1.44A2.6409,2.6409,0,0,1,146.9443,52.5386Z"/><path class="cls-2" d="M155.6562,52.5386a3.0116,3.0116,0,0,1-1.4589-.3242,3.2919,3.2919,0,0,1-1.0254-.876l.7558-.648a2.5757,2.5757,0,0,0,.7862.6841,2.0735,2.0735,0,0,0,1.0136.24,1.4506,1.4506,0,0,0,.9121-.246.8955.8955,0,0,0,.1026-1.254,1.33,1.33,0,0,0-.7871-.312l-.5274-.0839a4.0585,4.0585,0,0,1-.8164-.1924,2.0974,2.0974,0,0,1-.6357-.3477,1.536,1.536,0,0,1-.4141-.5283,1.694,1.694,0,0,1-.1494-.7437,1.8621,1.8621,0,0,1,.168-.81,1.6034,1.6034,0,0,1,.4678-.5884,2.1064,2.1064,0,0,1,.7138-.354,3.258,3.258,0,0,1,.9063-.12,2.6929,2.6929,0,0,1,2.2441.9961l-.709.6718a1.9965,1.9965,0,0,0-.6172-.5219,1.9012,1.9012,0,0,0-.9541-.2222,1.3,1.3,0,0,0-.8584.24.7942.7942,0,0,0-.2812.6358.6982.6982,0,0,0,.2695.6118,1.9226,1.9226,0,0,0,.8106.2764l.5273.0839a2.6547,2.6547,0,0,1,1.4824.6,1.5617,1.5617,0,0,1,.4492,1.1636,1.77,1.77,0,0,1-.6357,1.44A2.6409,2.6409,0,0,1,155.6562,52.5386Z"/><path class="cls-2" d="M162.0156,52.5386a2.8651,2.8651,0,0,1-1.1582-.2281,2.507,2.507,0,0,1-.8945-.6538,3.0049,3.0049,0,0,1-.5752-1.0263,4.5272,4.5272,0,0,1,0-2.688,3.0086,3.0086,0,0,1,.5752-1.0259,2.5082,2.5082,0,0,1,.8945-.6538,3.0557,3.0557,0,0,1,2.3164,0,2.505,2.505,0,0,1,.8936.6538,3.0138,3.0138,0,0,1,.5762,1.0259,4.5272,4.5272,0,0,1,0,2.688,3.01,3.01,0,0,1-.5762,1.0263,2.5038,2.5038,0,0,1-.8936.6538A2.8644,2.8644,0,0,1,162.0156,52.5386Zm0-.96a1.604,1.604,0,0,0,1.1875-.456,1.8556,1.8556,0,0,0,.4571-1.3682v-.936a1.8549,1.8549,0,0,0-.4571-1.3677,1.7739,1.7739,0,0,0-2.375,0,1.8549,1.8549,0,0,0-.457,1.3677v.936a1.8555,1.8555,0,0,0,.457,1.3682A1.6026,1.6026,0,0,0,162.0156,51.5786Z"/><path class="cls-2" d="M170.7275,52.3945a1.1493,1.1493,0,0,1-.8759-.3174,1.1971,1.1971,0,0,1-.3-.8559V47.1387h-.9961v-.96h.5517a.5668.5668,0,0,0,.4317-.1323.6546.6546,0,0,0,.1211-.4439v-1.14h1.0078v1.7163H172v.96h-1.332v4.2959h1.2363v.96Z"/><path class="cls-2" d="M173.4873,43.5146h1.1162V47.187h.0606a2.0264,2.0264,0,0,1,.6289-.8315,1.7887,1.7887,0,0,1,1.123-.3208,1.9,1.9,0,0,1,1.5059.624,2.597,2.597,0,0,1,.5449,1.7637v3.9721h-1.1152V48.582q0-1.5872-1.3086-1.5874a1.9609,1.9609,0,0,0-.5332.0723,1.577,1.577,0,0,0-.4629.21,1.03,1.03,0,0,0-.3233.3487.99.99,0,0,0-.12.499v4.27h-1.1162Z"/><path class="cls-2" d="M184.8867,52.3945a.9855.9855,0,0,1-.7734-.2881,1.3548,1.3548,0,0,1-.3184-.7441h-.06a1.6071,1.6071,0,0,1-.66.8765,2.0709,2.0709,0,0,1-1.14.3,2.1442,2.1442,0,0,1-1.5117-.4981,1.7609,1.7609,0,0,1-.541-1.3618,1.593,1.593,0,0,1,.6543-1.374,3.4139,3.4139,0,0,1,1.9981-.4741h1.1757v-.564a1.2968,1.2968,0,0,0-.3359-.96,1.4222,1.4222,0,0,0-1.043-.3359,1.6087,1.6087,0,0,0-.9179.2456,2.0216,2.0216,0,0,0-.6065.6421l-.6728-.6118a2.3784,2.3784,0,0,1,.834-.8579,2.6171,2.6171,0,0,1,1.4228-.354,2.6453,2.6453,0,0,1,1.8.5566,1.983,1.983,0,0,1,.6367,1.5747v3.2686h.6953v.96Zm-2.6992-.7558a1.87,1.87,0,0,0,1.0918-.3.9015.9015,0,0,0,.4316-.7681v-.96h-1.1875a2.13,2.13,0,0,0-1.122.228.74.74,0,0,0-.3545.66v.24a.7884.7884,0,0,0,.3066.6655A1.3411,1.3411,0,0,0,182.1875,51.6387Z"/><path class="cls-2" d="M188.3672,52.3945a1.1494,1.1494,0,0,1-.876-.3174,1.1932,1.1932,0,0,1-.3-.8559V47.1387h-.9961v-.96h.5527a.5681.5681,0,0,0,.4317-.1323.6547.6547,0,0,0,.1191-.4439v-1.14h1.0088v1.7163h1.3311v.96h-1.3311v4.2959h1.2354v.96Z"/><path class="cls-2" d="M197.7871,46.1787h1.08l-2.7,7.5718a3.1315,3.1315,0,0,1-.2275.4922,1.0081,1.0081,0,0,1-.295.3237,1.1691,1.1691,0,0,1-.414.1743,2.8119,2.8119,0,0,1-.6.0537H194.02v-.96h1.02l.42-1.1983-2.3037-6.4575h1.1162l1.3789,3.9639.3242,1.1616h.0606l.3593-1.1616Z"/><path class="cls-2" d="M202.3477,52.5386a2.8613,2.8613,0,0,1-1.1582-.2281,2.5074,2.5074,0,0,1-.8946-.6538,3.0248,3.0248,0,0,1-.5761-1.0263,4.5463,4.5463,0,0,1,0-2.688,3.0286,3.0286,0,0,1,.5761-1.0259,2.5086,2.5086,0,0,1,.8946-.6538,3.0532,3.0532,0,0,1,2.3154,0,2.4959,2.4959,0,0,1,.8935.6538,3.01,3.01,0,0,1,.5762,1.0259,4.5061,4.5061,0,0,1,0,2.688,3.0067,3.0067,0,0,1-.5762,1.0263,2.4947,2.4947,0,0,1-.8935.6538A2.86,2.86,0,0,1,202.3477,52.5386Zm0-.96a1.6072,1.6072,0,0,0,1.1875-.456,1.8594,1.8594,0,0,0,.456-1.3682v-.936a1.8588,1.8588,0,0,0-.456-1.3677,1.7752,1.7752,0,0,0-2.376,0,1.8588,1.8588,0,0,0-.4561,1.3677v.936a1.8594,1.8594,0,0,0,.4561,1.3682A1.6064,1.6064,0,0,0,202.3477,51.5786Z"/><path class="cls-2" d="M210.5078,51.3862h-.06a2.17,2.17,0,0,1-.2227.4336,1.5016,1.5016,0,0,1-.3476.3682,1.6763,1.6763,0,0,1-.4981.2554,2.143,2.143,0,0,1-.6719.0952,1.9124,1.9124,0,0,1-1.5117-.624,2.575,2.575,0,0,1-.5527-1.7642V46.1787H207.76v3.8125q0,1.5872,1.3193,1.5874a2.0846,2.0846,0,0,0,.5225-.0664,1.3083,1.3083,0,0,0,.455-.21,1.16,1.16,0,0,0,.3243-.36.989.989,0,0,0,.1269-.5054V46.1787h1.1152v6.2158h-1.1152Z"/><path class="cls-2" d="M48.5332,66.9385a2.912,2.912,0,0,1-1.1875-.2281,2.4259,2.4259,0,0,1-.8769-.6479,2.8243,2.8243,0,0,1-.545-1.0259,4.5581,4.5581,0,0,1-.1865-1.35,4.5,4.5,0,0,1,.1865-1.3442,2.8938,2.8938,0,0,1,.545-1.0259,2.4035,2.4035,0,0,1,.8769-.6538,2.912,2.912,0,0,1,1.1875-.228,2.5415,2.5415,0,0,1,1.5.4077,2.4131,2.4131,0,0,1,.8516,1.08l-.9239.456a1.4322,1.4322,0,0,0-.5214-.72,1.5119,1.5119,0,0,0-.9063-.2637,1.4679,1.4679,0,0,0-1.2061.4917,1.9254,1.9254,0,0,0-.4013,1.26v1.08a1.9226,1.9226,0,0,0,.4013,1.26,1.4664,1.4664,0,0,0,1.2061.4922,1.6,1.6,0,0,0,.96-.2759,1.99,1.99,0,0,0,.624-.78l.8164.5039a2.4506,2.4506,0,0,1-.9,1.11A2.6421,2.6421,0,0,1,48.5332,66.9385Z"/><path class="cls-2" d="M56.7656,66.7944a.9878.9878,0,0,1-.7744-.2881,1.34,1.34,0,0,1-.3174-.7441h-.06a1.6019,1.6019,0,0,1-.66.8765,2.0707,2.0707,0,0,1-1.14.3,2.15,2.15,0,0,1-1.5127-.4981,1.7628,1.7628,0,0,1-.5391-1.3618,1.5882,1.5882,0,0,1,.6543-1.374,3.4125,3.4125,0,0,1,1.9971-.4741H55.59v-.564a1.3045,1.3045,0,0,0-.3359-.96,1.4257,1.4257,0,0,0-1.0449-.3359,1.6158,1.6158,0,0,0-.918.2456,2.0309,2.0309,0,0,0-.6055.6421l-.6718-.6118a2.3549,2.3549,0,0,1,.834-.8579,2.6093,2.6093,0,0,1,1.4218-.354,2.6488,2.6488,0,0,1,1.8.5566,1.9821,1.9821,0,0,1,.6358,1.5747v3.2686h.6963v.96Zm-2.7-.7558a1.8679,1.8679,0,0,0,1.0918-.3A.9026.9026,0,0,0,55.59,64.97v-.96H54.4014a2.13,2.13,0,0,0-1.1221.228.7372.7372,0,0,0-.3535.66v.24a.7876.7876,0,0,0,.3056.6655A1.3393,1.3393,0,0,0,54.0654,66.0386Z"/><path class="cls-2" d="M58.7324,66.7944V60.5786H59.85v1.0083h.06a2.0285,2.0285,0,0,1,.63-.8315,1.7858,1.7858,0,0,1,1.122-.3208,1.8972,1.8972,0,0,1,1.5059.624,2.5926,2.5926,0,0,1,.5459,1.7637v3.9721H62.5977V62.9819q0-1.5872-1.3086-1.5874a1.9687,1.9687,0,0,0-.5342.0723,1.5711,1.5711,0,0,0-.4619.21,1.0321,1.0321,0,0,0-.3242.3487.989.989,0,0,0-.1192.499v4.2695Z"/><path class="cls-2" d="M70.35,66.9385a3.0117,3.0117,0,0,1-1.459-.3242,3.2919,3.2919,0,0,1-1.0254-.876l.7559-.648a2.5742,2.5742,0,0,0,.7861.6841,2.0737,2.0737,0,0,0,1.0137.24,1.4508,1.4508,0,0,0,.9121-.246.8956.8956,0,0,0,.1025-1.254,1.33,1.33,0,0,0-.7871-.312l-.5273-.0839a4.0569,4.0569,0,0,1-.8164-.1924,2.0967,2.0967,0,0,1-.6358-.3477,1.5369,1.5369,0,0,1-.414-.5283,1.694,1.694,0,0,1-.1494-.7437,1.8621,1.8621,0,0,1,.1679-.81,1.6044,1.6044,0,0,1,.4678-.5884,2.1078,2.1078,0,0,1,.7139-.354,3.2578,3.2578,0,0,1,.9062-.12,2.6933,2.6933,0,0,1,2.2442.9961l-.709.6718a1.9976,1.9976,0,0,0-.6172-.5219,1.9015,1.9015,0,0,0-.9541-.2222,1.3,1.3,0,0,0-.8584.24.7943.7943,0,0,0-.2813.6358.6982.6982,0,0,0,.27.6118,1.9226,1.9226,0,0,0,.8105.2764l.5274.0839a2.6547,2.6547,0,0,1,1.4824.6,1.5617,1.5617,0,0,1,.4492,1.1636,1.77,1.77,0,0,1-.6357,1.44A2.6411,2.6411,0,0,1,70.35,66.9385Z"/><path class="cls-2" d="M76.6973,66.9385a2.8327,2.8327,0,0,1-1.17-.2339,2.5387,2.5387,0,0,1-.8886-.6543,2.9326,2.9326,0,0,1-.5645-1.02,4.6571,4.6571,0,0,1,0-2.6817,2.9311,2.9311,0,0,1,.5645-1.0263,2.5362,2.5362,0,0,1,.8886-.6538,2.8247,2.8247,0,0,1,1.17-.2339,2.7627,2.7627,0,0,1,1.1582.2329,2.4653,2.4653,0,0,1,.8574.64,2.7481,2.7481,0,0,1,.5273.9688,3.9015,3.9015,0,0,1,.1807,1.2075V63.95h-4.38v.2524a1.82,1.82,0,0,0,.4561,1.2779,1.6671,1.6671,0,0,0,1.2959.498,1.8525,1.8525,0,0,0,1.0078-.2641,1.8925,1.8925,0,0,0,.6719-.7442l.7207.6162a2.4262,2.4262,0,0,1-.9727.9839A3.034,3.034,0,0,1,76.6973,66.9385Zm0-5.604a1.67,1.67,0,0,0-.6661.1313,1.58,1.58,0,0,0-.5283.3633,1.5989,1.5989,0,0,0-.3418.5547,1.9956,1.9956,0,0,0-.12.7031V63.17h3.1914v-.1191a1.8153,1.8153,0,0,0-.414-1.2456A1.4157,1.4157,0,0,0,76.6973,61.3345Z"/><path class="cls-2" d="M83.32,66.9385a2.8322,2.8322,0,0,1-1.17-.2339,2.5482,2.5482,0,0,1-.8887-.6543,2.9341,2.9341,0,0,1-.5635-1.02,4.6346,4.6346,0,0,1,0-2.6817,2.9326,2.9326,0,0,1,.5635-1.0263,2.5457,2.5457,0,0,1,.8887-.6538,2.8242,2.8242,0,0,1,1.17-.2339,2.7588,2.7588,0,0,1,1.1582.2329,2.4552,2.4552,0,0,1,.8574.64,2.7661,2.7661,0,0,1,.5284.9688,3.9314,3.9314,0,0,1,.1806,1.2075V63.95H81.6641v.2524a1.816,1.816,0,0,0,.457,1.2779,1.6649,1.6649,0,0,0,1.2949.498,1.85,1.85,0,0,0,1.0078-.2641,1.8947,1.8947,0,0,0,.6729-.7442l.72.6162a2.4136,2.4136,0,0,1-.9726.9839A3.0344,3.0344,0,0,1,83.32,66.9385Zm0-5.604a1.6731,1.6731,0,0,0-.666.1313,1.5667,1.5667,0,0,0-.8691.918,1.9934,1.9934,0,0,0-.1211.7031V63.17h3.1923v-.1191a1.8148,1.8148,0,0,0-.414-1.2456A1.4176,1.4176,0,0,0,83.32,61.3345Z"/><path class="cls-2" d="M94.9238,66.7944a.9855.9855,0,0,1-.7734-.2881,1.3548,1.3548,0,0,1-.3184-.7441h-.0595a1.6071,1.6071,0,0,1-.66.8765,2.0707,2.0707,0,0,1-1.14.3,2.1443,2.1443,0,0,1-1.5118-.4981,1.7609,1.7609,0,0,1-.541-1.3618,1.593,1.593,0,0,1,.6543-1.374,3.4139,3.4139,0,0,1,1.9981-.4741H93.748v-.564a1.2968,1.2968,0,0,0-.3359-.96,1.4222,1.4222,0,0,0-1.043-.3359,1.6087,1.6087,0,0,0-.9179.2456,2.0216,2.0216,0,0,0-.6065.6421l-.6728-.6118a2.3784,2.3784,0,0,1,.834-.8579,2.6171,2.6171,0,0,1,1.4228-.354,2.6453,2.6453,0,0,1,1.8.5566,1.983,1.983,0,0,1,.6367,1.5747v3.2686h.6953v.96Zm-2.6992-.7558a1.87,1.87,0,0,0,1.0918-.3.9015.9015,0,0,0,.4316-.7681v-.96H92.5605a2.13,2.13,0,0,0-1.122.228.74.74,0,0,0-.3545.66v.24a.7884.7884,0,0,0,.3066.6655A1.3411,1.3411,0,0,0,92.2246,66.0386Z"/><path class="cls-2" d="M98.0566,66.7944a1.1429,1.1429,0,0,1-.8711-.312,1.16,1.16,0,0,1-.2929-.8281v-7.74h1.1152v7.92h.8887v.96Z"/><path class="cls-2" d="M101.32,66.7944a1.14,1.14,0,0,1-.87-.312,1.1567,1.1567,0,0,1-.294-.8281v-7.74h1.1163v7.92h.8877v.96Z"/><path class="cls-2" d="M108.7119,66.9385a2.8648,2.8648,0,0,1-1.1582-.2281,2.5034,2.5034,0,0,1-.8935-.6538,3.0067,3.0067,0,0,1-.5762-1.0263,4.5272,4.5272,0,0,1,0-2.688,3.01,3.01,0,0,1,.5762-1.0259,2.5046,2.5046,0,0,1,.8935-.6538,3.0532,3.0532,0,0,1,2.3154,0,2.5,2.5,0,0,1,.8946.6538,3.0286,3.0286,0,0,1,.5761,1.0259,4.5272,4.5272,0,0,1,0,2.688,3.0248,3.0248,0,0,1-.5761,1.0263,2.4987,2.4987,0,0,1-.8946.6538A2.86,2.86,0,0,1,108.7119,66.9385Zm0-.96a1.61,1.61,0,0,0,1.1885-.456,1.8634,1.8634,0,0,0,.4551-1.3682v-.936a1.8629,1.8629,0,0,0-.4551-1.3677,1.7765,1.7765,0,0,0-2.377,0,1.8587,1.8587,0,0,0-.455,1.3677v.936a1.8591,1.8591,0,0,0,.455,1.3682A1.6079,1.6079,0,0,0,108.7119,65.9785Z"/><path class="cls-2" d="M113.332,61.5386h-.9961v-.96h.9961V59.4263a1.6115,1.6115,0,0,1,.36-1.0977,1.3681,1.3681,0,0,1,1.0918-.414h.9717v.96h-1.3077v1.7041h1.3077v.96h-1.3077v5.2558H113.332Z"/><path class="cls-2" d="M123.6279,60.5786h1.08l-2.7,7.5718a3.2118,3.2118,0,0,1-.2285.4922,1.0131,1.0131,0,0,1-.293.3237,1.185,1.185,0,0,1-.414.1743,2.822,2.822,0,0,1-.6006.0537h-.6123v-.96H120.88l.42-1.1983-2.3037-6.4575h1.1152l1.3809,3.9639.3242,1.1616h.06l.36-1.1616Z"/><path class="cls-2" d="M128.1875,66.9385a2.8682,2.8682,0,0,1-1.1582-.2281,2.5038,2.5038,0,0,1-.8936-.6538,2.9917,2.9917,0,0,1-.5752-1.0263,4.5082,4.5082,0,0,1,0-2.688,2.9954,2.9954,0,0,1,.5752-1.0259,2.505,2.505,0,0,1,.8936-.6538,3.0557,3.0557,0,0,1,2.3164,0,2.5074,2.5074,0,0,1,.8945.6538,3.0271,3.0271,0,0,1,.5762,1.0259,4.5485,4.5485,0,0,1,0,2.688,3.0233,3.0233,0,0,1-.5762,1.0263,2.5062,2.5062,0,0,1-.8945.6538A2.8651,2.8651,0,0,1,128.1875,66.9385Zm0-.96a1.6064,1.6064,0,0,0,1.1885-.456,1.8594,1.8594,0,0,0,.456-1.3682v-.936a1.8589,1.8589,0,0,0-.456-1.3677,1.7752,1.7752,0,0,0-2.376,0,1.8548,1.8548,0,0,0-.4561,1.3677v.936A1.8553,1.8553,0,0,0,127,65.5225,1.604,1.604,0,0,0,128.1875,65.9785Z"/><path class="cls-2" d="M136.3477,65.7861h-.06a2.1142,2.1142,0,0,1-.2217.4336,1.54,1.54,0,0,1-.3476.3682,1.701,1.701,0,0,1-.4981.2554,2.1538,2.1538,0,0,1-.6728.0952,1.9153,1.9153,0,0,1-1.5118-.624,2.5752,2.5752,0,0,1-.5517-1.7642V60.5786H133.6v3.8125q0,1.5872,1.32,1.5874a2.0768,2.0768,0,0,0,.5215-.0664,1.3327,1.3327,0,0,0,.457-.21,1.1709,1.1709,0,0,0,.3243-.36.9882.9882,0,0,0,.125-.5054V60.5786h1.1162v6.2158h-1.1162Z"/><path class="cls-2" d="M139.4316,66.7944V60.5786h1.1163v1.188h.06a1.76,1.76,0,0,1,.2168-.4443,1.5148,1.5148,0,0,1,.3594-.378,1.87,1.87,0,0,1,.51-.2636,2.0281,2.0281,0,0,1,.666-.1021h.373v1.1157H142.18a2.179,2.179,0,0,0-1.2061.2823.8518.8518,0,0,0-.4257.7378v4.08Z"/><path class="cls-2" d="M148.6719,66.9385a3.0049,3.0049,0,0,1-1.458-.3242,3.3067,3.3067,0,0,1-1.0264-.876l.7559-.648a2.5659,2.5659,0,0,0,.7871.6841,2.0681,2.0681,0,0,0,1.0136.24,1.4523,1.4523,0,0,0,.9121-.246.8941.8941,0,0,0,.1016-1.254,1.3292,1.3292,0,0,0-.7861-.312l-.5283-.0839a4.0478,4.0478,0,0,1-.8155-.1924,2.0974,2.0974,0,0,1-.6357-.3477,1.5242,1.5242,0,0,1-.4141-.5283,1.6938,1.6938,0,0,1-.15-.7437,1.8766,1.8766,0,0,1,.168-.81,1.5957,1.5957,0,0,1,.4688-.5884,2.094,2.094,0,0,1,.7128-.354,3.2636,3.2636,0,0,1,.9063-.12,2.9422,2.9422,0,0,1,1.32.2636,2.9076,2.9076,0,0,1,.9238.7325l-.708.6718a2.0016,2.0016,0,0,0-.6181-.5219,1.9005,1.9005,0,0,0-.9532-.2222,1.3024,1.3024,0,0,0-.8593.24.7943.7943,0,0,0-.2813.6358.6984.6984,0,0,0,.2695.6118,1.933,1.933,0,0,0,.8106.2764l.5273.0839a2.6486,2.6486,0,0,1,1.4825.6,1.5589,1.5589,0,0,1,.45,1.1636,1.7728,1.7728,0,0,1-.6358,1.44A2.6418,2.6418,0,0,1,148.6719,66.9385Z"/><path class="cls-2" d="M155.02,66.9385a2.8325,2.8325,0,0,1-1.17-.2339,2.5491,2.5491,0,0,1-.8887-.6543,2.9323,2.9323,0,0,1-.5634-1.02,4.6324,4.6324,0,0,1,0-2.6817,2.9309,2.9309,0,0,1,.5634-1.0263,2.5466,2.5466,0,0,1,.8887-.6538,2.8246,2.8246,0,0,1,1.17-.2339,2.7588,2.7588,0,0,1,1.1582.2329,2.4565,2.4565,0,0,1,.8575.64,2.7659,2.7659,0,0,1,.5283.9688,3.9314,3.9314,0,0,1,.1806,1.2075V63.95h-4.3808v.2524a1.816,1.816,0,0,0,.457,1.2779,1.665,1.665,0,0,0,1.2949.498,1.85,1.85,0,0,0,1.0078-.2641,1.894,1.894,0,0,0,.6729-.7442l.72.6162a2.4136,2.4136,0,0,1-.9726.9839A3.0344,3.0344,0,0,1,155.02,66.9385Zm0-5.604a1.6731,1.6731,0,0,0-.666.1313,1.5667,1.5667,0,0,0-.8691.918,1.9934,1.9934,0,0,0-.1211.7031V63.17h3.1924v-.1191a1.8149,1.8149,0,0,0-.4141-1.2456A1.4176,1.4176,0,0,0,155.02,61.3345Z"/><path class="cls-2" d="M161.6191,66.9385a2.912,2.912,0,0,1-1.1875-.2281,2.4259,2.4259,0,0,1-.8769-.6479,2.8226,2.8226,0,0,1-.5449-1.0259,4.558,4.558,0,0,1-.1866-1.35,4.5,4.5,0,0,1,.1866-1.3442,2.892,2.892,0,0,1,.5449-1.0259,2.4035,2.4035,0,0,1,.8769-.6538,2.912,2.912,0,0,1,1.1875-.228,2.5411,2.5411,0,0,1,1.5.4077,2.4131,2.4131,0,0,1,.8516,1.08l-.9238.456a1.4324,1.4324,0,0,0-.5215-.72,1.5119,1.5119,0,0,0-.9063-.2637,1.4676,1.4676,0,0,0-1.206.4917,1.9249,1.9249,0,0,0-.4014,1.26v1.08a1.9221,1.9221,0,0,0,.4014,1.26,1.4661,1.4661,0,0,0,1.206.4922,1.6,1.6,0,0,0,.96-.2759,1.9887,1.9887,0,0,0,.624-.78l.8164.5039a2.4506,2.4506,0,0,1-.9,1.11A2.6416,2.6416,0,0,1,161.6191,66.9385Z"/><path class="cls-2" d="M169.1309,65.7861h-.06a2.1142,2.1142,0,0,1-.2217.4336,1.54,1.54,0,0,1-.3476.3682,1.701,1.701,0,0,1-.4981.2554,2.1538,2.1538,0,0,1-.6728.0952,1.9153,1.9153,0,0,1-1.5118-.624,2.5752,2.5752,0,0,1-.5517-1.7642V60.5786h1.1152v3.8125q0,1.5872,1.32,1.5874a2.0768,2.0768,0,0,0,.5215-.0664,1.3327,1.3327,0,0,0,.457-.21,1.1709,1.1709,0,0,0,.3243-.36.9882.9882,0,0,0,.125-.5054V60.5786h1.1162v6.2158h-1.1162Z"/><path class="cls-2" d="M172.2148,66.7944V60.5786h1.1163v1.188h.06a1.7628,1.7628,0,0,1,.2168-.4443,1.5148,1.5148,0,0,1,.3594-.378,1.87,1.87,0,0,1,.51-.2636,2.0286,2.0286,0,0,1,.666-.1021h.373v1.1157h-.5527a2.179,2.179,0,0,0-1.2061.2823.8518.8518,0,0,0-.4257.7378v4.08Z"/><path class="cls-2" d="M177.2793,59.2822a.678.678,0,0,1-.51-.1679.6105.6105,0,0,1-.1621-.4439v-.168a.61.61,0,0,1,.1621-.4438.8575.8575,0,0,1,1.02,0,.6144.6144,0,0,1,.1621.4438v.168a.6147.6147,0,0,1-.1621.4439A.68.68,0,0,1,177.2793,59.2822Zm-.5645,1.2964h1.1163v6.2158h-1.1163Z"/><path class="cls-2" d="M181.3223,66.7944a1.1474,1.1474,0,0,1-.875-.3173,1.1941,1.1941,0,0,1-.3008-.856V61.5386H179.15v-.96h.5527a.5681.5681,0,0,0,.4317-.1323.6549.6549,0,0,0,.12-.4439v-1.14h1.0088v1.7163h1.331v.96h-1.331v4.2959h1.2353v.96Z"/><path class="cls-2" d="M187.9111,60.5786h1.08l-2.7,7.5718a3.2023,3.2023,0,0,1-.2285.4922,1.0131,1.0131,0,0,1-.293.3237,1.185,1.185,0,0,1-.414.1743,2.822,2.822,0,0,1-.6006.0537h-.6123v-.96h1.02l.42-1.1983-2.3037-6.4575h1.1152l1.3809,3.9639.3242,1.1616h.06l.36-1.1616Z"/><path class="cls-2" d="M46.7451,73.6826a.68.68,0,0,1-.51-.168.61.61,0,0,1-.1622-.4438v-.168a.61.61,0,0,1,.1622-.4438.8589.8589,0,0,1,1.02,0,.6144.6144,0,0,1,.1621.4438v.168a.6143.6143,0,0,1-.1621.4438A.6829.6829,0,0,1,46.7451,73.6826Zm-.5635,1.2964h1.1153v6.2158H46.1816Z"/><path class="cls-2" d="M49.2656,81.1948V74.979h1.1153v1.0083h.0605a2.0285,2.0285,0,0,1,.63-.8315,1.7859,1.7859,0,0,1,1.1221-.3208,1.897,1.897,0,0,1,1.5058.624,2.5972,2.5972,0,0,1,.5459,1.7637v3.9721H53.1289V77.3823q0-1.5871-1.3076-1.5874a1.96,1.96,0,0,0-.5342.0723,1.5594,1.5594,0,0,0-.4619.21,1.0311,1.0311,0,0,0-.3232.3487.99.99,0,0,0-.1211.499v4.27Z"/><path class="cls-2" d="M56.4766,75.939h-.9952v-.96h.9952V73.8267a1.6124,1.6124,0,0,1,.3613-1.0977,1.3668,1.3668,0,0,1,1.0918-.4141h.9717v.96H57.5938V74.979h1.3076v.96H57.5938v5.2558H56.4766Z"/><path class="cls-2" d="M62.4531,81.3389a2.8651,2.8651,0,0,1-1.1582-.2281A2.507,2.507,0,0,1,60.4,80.457a3.0049,3.0049,0,0,1-.5752-1.0263,4.5272,4.5272,0,0,1,0-2.688A3.0086,3.0086,0,0,1,60.4,75.7168a2.507,2.507,0,0,1,.8945-.6538,3.0557,3.0557,0,0,1,2.3164,0,2.5038,2.5038,0,0,1,.8936.6538,3.0138,3.0138,0,0,1,.5762,1.0259,4.5272,4.5272,0,0,1,0,2.688,3.01,3.01,0,0,1-.5762,1.0263,2.5038,2.5038,0,0,1-.8936.6538A2.8644,2.8644,0,0,1,62.4531,81.3389Zm0-.96a1.604,1.604,0,0,0,1.1875-.456,1.8556,1.8556,0,0,0,.4571-1.3682v-.936a1.8549,1.8549,0,0,0-.4571-1.3677,1.7739,1.7739,0,0,0-2.375,0,1.8549,1.8549,0,0,0-.457,1.3677v.936a1.8555,1.8555,0,0,0,.457,1.3682A1.6026,1.6026,0,0,0,62.4531,80.3789Z"/><path class="cls-2" d="M66.8086,81.1948V74.979h1.1172v1.188h.06a1.7554,1.7554,0,0,1,.2158-.4443,1.5325,1.5325,0,0,1,.3593-.378,1.8646,1.8646,0,0,1,.5108-.2636,2.029,2.029,0,0,1,.666-.1021h.3721v1.1157h-.5528a2.1727,2.1727,0,0,0-1.205.2823.8494.8494,0,0,0-.4258.7377v4.08Z"/><path class="cls-2" d="M71.3086,81.1948V74.979h1.1172v1.0083h.06a2.1167,2.1167,0,0,1,.6181-.814,1.5832,1.5832,0,0,1,1.0371-.3383,2.213,2.213,0,0,1,1.1348.2973,1.7476,1.7476,0,0,1,.75.9512h.0234a1.8716,1.8716,0,0,1,.6426-.874,1.9645,1.9645,0,0,1,1.2539-.3745,1.815,1.815,0,0,1,1.4639.624,2.65,2.65,0,0,1,.5283,1.7637v3.9721H78.8213V77.3823a1.9375,1.9375,0,0,0-.3057-1.19,1.1311,1.1311,0,0,0-.9551-.397,1.8335,1.8335,0,0,0-.5214.0723,1.4093,1.4093,0,0,0-.4375.21.99.99,0,0,0-.42.8477v4.27H75.0654V77.3823q0-1.5871-1.248-1.5874a1.8545,1.8545,0,0,0-.5166.0723,1.4015,1.4015,0,0,0-.4434.21,1.0827,1.0827,0,0,0-.3125.3487.989.989,0,0,0-.1191.499v4.27Z"/><path class="cls-2" d="M86.3574,81.1948a.9878.9878,0,0,1-.7744-.2881,1.3408,1.3408,0,0,1-.3174-.7441h-.0605a1.6024,1.6024,0,0,1-.66.8765,2.0707,2.0707,0,0,1-1.14.3,2.15,2.15,0,0,1-1.5127-.4981,1.7628,1.7628,0,0,1-.5391-1.3618,1.5882,1.5882,0,0,1,.6543-1.374,3.4125,3.4125,0,0,1,1.9971-.4741h1.1767v-.564a1.3045,1.3045,0,0,0-.3359-.96,1.4257,1.4257,0,0,0-1.0449-.3359,1.6158,1.6158,0,0,0-.918.2456,2.0309,2.0309,0,0,0-.6055.6421l-.6718-.6118a2.3549,2.3549,0,0,1,.834-.8579,2.609,2.609,0,0,1,1.4218-.354,2.6488,2.6488,0,0,1,1.8.5566,1.9821,1.9821,0,0,1,.6358,1.5747v3.2686h.6963v.96Zm-2.7-.7558a1.8679,1.8679,0,0,0,1.0918-.3.9026.9026,0,0,0,.4326-.7681v-.96H83.9932a2.13,2.13,0,0,0-1.1221.2281.7371.7371,0,0,0-.3535.66v.24a.7876.7876,0,0,0,.3056.6655A1.3393,1.3393,0,0,0,83.6572,80.439Z"/><path class="cls-2" d="M89.8369,81.1948a1.1494,1.1494,0,0,1-.876-.3174,1.1975,1.1975,0,0,1-.3-.8559V75.939H87.665v-.96h.5518a.5664.5664,0,0,0,.4316-.1323.654.654,0,0,0,.1211-.4439v-1.14h1.0078V74.979h1.3321v.96H89.7773v4.2959h1.2364v.96Z"/><path class="cls-2" d="M93.16,73.6826a.68.68,0,0,1-.51-.168.6143.6143,0,0,1-.1621-.4438v-.168a.6144.6144,0,0,1,.1621-.4438.8589.8589,0,0,1,1.02,0,.61.61,0,0,1,.1621.4438v.168a.61.61,0,0,1-.1621.4438A.6813.6813,0,0,1,93.16,73.6826Zm-.5635,1.2964h1.1162v6.2158H92.5967Z"/><path class="cls-2" d="M98.0684,81.3389a2.8678,2.8678,0,0,1-1.1582-.2281,2.5029,2.5029,0,0,1-.8936-.6538,2.9917,2.9917,0,0,1-.5752-1.0263,4.5061,4.5061,0,0,1,0-2.688,2.9954,2.9954,0,0,1,.5752-1.0259,2.5029,2.5029,0,0,1,.8936-.6538,3.0557,3.0557,0,0,1,2.3164,0,2.5079,2.5079,0,0,1,.8945.6538,3.03,3.03,0,0,1,.5762,1.0259,4.5485,4.5485,0,0,1,0,2.688,3.0267,3.0267,0,0,1-.5762,1.0263,2.5079,2.5079,0,0,1-.8945.6538A2.8651,2.8651,0,0,1,98.0684,81.3389Zm0-.96a1.6063,1.6063,0,0,0,1.1884-.456,1.8594,1.8594,0,0,0,.4561-1.3682v-.936a1.8588,1.8588,0,0,0-.4561-1.3677,1.7751,1.7751,0,0,0-2.3759,0,1.8546,1.8546,0,0,0-.4561,1.3677v.936a1.8553,1.8553,0,0,0,.4561,1.3682A1.604,1.604,0,0,0,98.0684,80.3789Z"/><path class="cls-2" d="M102.4238,81.1948V74.979h1.1172v1.0083h.06a2.0285,2.0285,0,0,1,.63-.8315,1.7858,1.7858,0,0,1,1.122-.3208,1.8972,1.8972,0,0,1,1.5059.624,2.5921,2.5921,0,0,1,.5459,1.7637v3.9721h-1.1152V77.3823q0-1.5871-1.3086-1.5874a1.9648,1.9648,0,0,0-.5342.0723,1.5711,1.5711,0,0,0-.4619.21,1.0331,1.0331,0,0,0-.3242.3487.989.989,0,0,0-.1192.499v4.27Z"/><path class="cls-2" d="M112.6963,73.6826a.68.68,0,0,1-.51-.168.61.61,0,0,1-.1621-.4438v-.168a.61.61,0,0,1,.1621-.4438.8589.8589,0,0,1,1.02,0,.614.614,0,0,1,.1621.4438v.168a.6139.6139,0,0,1-.1621.4438A.6828.6828,0,0,1,112.6963,73.6826Zm-.5635,1.2964h1.1152v6.2158h-1.1152Z"/><path class="cls-2" d="M115.2168,81.1948V74.979h1.1152v1.0083h.0606a2.0285,2.0285,0,0,1,.63-.8315,1.7856,1.7856,0,0,1,1.122-.3208,1.8972,1.8972,0,0,1,1.5059.624,2.5972,2.5972,0,0,1,.5459,1.7637v3.9721H119.08V77.3823q0-1.5871-1.3076-1.5874a1.96,1.96,0,0,0-.5342.0723,1.5594,1.5594,0,0,0-.4619.21,1.03,1.03,0,0,0-.3233.3487.99.99,0,0,0-.1211.499v4.27Z"/><path class="cls-2" d="M127.3125,81.3389a2.8651,2.8651,0,0,1-1.1582-.2281,2.5062,2.5062,0,0,1-.8945-.6538,3.0049,3.0049,0,0,1-.5752-1.0263,4.5272,4.5272,0,0,1,0-2.688,3.0086,3.0086,0,0,1,.5752-1.0259,2.5062,2.5062,0,0,1,.8945-.6538,3.0557,3.0557,0,0,1,2.3164,0,2.5038,2.5038,0,0,1,.8936.6538,3.0119,3.0119,0,0,1,.5761,1.0259,4.5272,4.5272,0,0,1,0,2.688,3.0082,3.0082,0,0,1-.5761,1.0263,2.5038,2.5038,0,0,1-.8936.6538A2.8651,2.8651,0,0,1,127.3125,81.3389Zm0-.96a1.604,1.604,0,0,0,1.1875-.456,1.8555,1.8555,0,0,0,.457-1.3682v-.936a1.8549,1.8549,0,0,0-.457-1.3677,1.7739,1.7739,0,0,0-2.375,0,1.8549,1.8549,0,0,0-.457,1.3677v.936a1.8555,1.8555,0,0,0,.457,1.3682A1.6025,1.6025,0,0,0,127.3125,80.3789Z"/><path class="cls-2" d="M131.668,81.1948V74.979h1.1162v1.0083h.06a2.03,2.03,0,0,1,.6308-.8315,1.7828,1.7828,0,0,1,1.1211-.3208,1.8946,1.8946,0,0,1,1.5059.624,2.5928,2.5928,0,0,1,.5468,1.7637v3.9721h-1.1162V77.3823q0-1.5871-1.3076-1.5874a1.9655,1.9655,0,0,0-.5351.0723,1.5553,1.5553,0,0,0-.461.21,1.0341,1.0341,0,0,0-.3242.3487.9892.9892,0,0,0-.12.499v4.27Z"/><path class="cls-2" d="M140.92,81.3389a2.8341,2.8341,0,0,1-1.17-.2339,2.5482,2.5482,0,0,1-.8887-.6543,2.9323,2.9323,0,0,1-.5634-1.02,4.6324,4.6324,0,0,1,0-2.6817,2.9309,2.9309,0,0,1,.5634-1.0263,2.5472,2.5472,0,0,1,.8887-.6539,2.8261,2.8261,0,0,1,1.17-.2338,2.7588,2.7588,0,0,1,1.1582.2329,2.4552,2.4552,0,0,1,.8574.64,2.7636,2.7636,0,0,1,.5284.9688,3.9314,3.9314,0,0,1,.1806,1.2075v.4663h-4.3808v.2524a1.8162,1.8162,0,0,0,.457,1.2779,1.665,1.665,0,0,0,1.2949.498,1.8493,1.8493,0,0,0,1.0078-.2642,1.8937,1.8937,0,0,0,.6729-.7441l.72.6162a2.4136,2.4136,0,0,1-.9726.9839A3.0344,3.0344,0,0,1,140.92,81.3389Zm0-5.604a1.6731,1.6731,0,0,0-.666.1313,1.5667,1.5667,0,0,0-.8691.918,1.9934,1.9934,0,0,0-.1211.7031v.0835h3.1924v-.1191a1.8149,1.8149,0,0,0-.4141-1.2456A1.4176,1.4176,0,0,0,140.92,75.7349Z"/><path class="cls-2" d="M148,74.979h1.1162v1.0083h.0479a1.69,1.69,0,0,1,.6777-.8613,2.0422,2.0422,0,0,1,1.11-.291,2.3984,2.3984,0,0,1,1.05.2216,2.149,2.149,0,0,1,.7861.648,3.0353,3.0353,0,0,1,.4922,1.0264,5.5592,5.5592,0,0,1,0,2.7119,3.0281,3.0281,0,0,1-.4922,1.0259,2.1389,2.1389,0,0,1-.7861.6479,2.3986,2.3986,0,0,1-1.05.2222,2.043,2.043,0,0,1-1.11-.291,1.6886,1.6886,0,0,1-.6777-.8614h-.0479v3.4082H148Zm2.6279,5.4a1.5325,1.5325,0,0,0,1.1944-.4824,1.83,1.83,0,0,0,.4375-1.2788V77.5562a1.83,1.83,0,0,0-.4375-1.2789,1.5328,1.5328,0,0,0-1.1944-.4824,2.0048,2.0048,0,0,0-.5879.0845,1.4855,1.4855,0,0,0-.48.2412,1.2475,1.2475,0,0,0-.3242.3618.89.89,0,0,0-.12.4585v2.292a.89.89,0,0,0,.12.4585,1.2475,1.2475,0,0,0,.3242.3618,1.4855,1.4855,0,0,0,.48.2412A2.0048,2.0048,0,0,0,150.6279,80.3789Z"/><path class="cls-2" d="M156.1836,81.1948a1.138,1.138,0,0,1-.8691-.312,1.1572,1.1572,0,0,1-.295-.8281v-7.74h1.1172v7.92h.8867v.96Z"/><path class="cls-2" d="M162.88,81.1948a.9875.9875,0,0,1-.7744-.2881,1.3471,1.3471,0,0,1-.3174-.7441h-.06a1.6111,1.6111,0,0,1-.66.8765,2.0743,2.0743,0,0,1-1.1407.3,2.1459,2.1459,0,0,1-1.5117-.4981,1.7634,1.7634,0,0,1-.54-1.3618,1.5906,1.5906,0,0,1,.6543-1.374,3.412,3.412,0,0,1,1.997-.4741h1.1768v-.564a1.3008,1.3008,0,0,0-.3359-.96,1.4233,1.4233,0,0,0-1.044-.3359,1.6137,1.6137,0,0,0-.918.2456,2.02,2.02,0,0,0-.6054.6421l-.6729-.6118a2.3711,2.3711,0,0,1,.834-.8579,2.6153,2.6153,0,0,1,1.4229-.354,2.6443,2.6443,0,0,1,1.7988.5566,1.983,1.983,0,0,1,.6367,1.5747v3.2686h.6953v.96Zm-2.7-.7558a1.8659,1.8659,0,0,0,1.0918-.3.9005.9005,0,0,0,.4326-.7681v-.96h-1.1885a2.1264,2.1264,0,0,0-1.1211.2281.738.738,0,0,0-.3545.66v.24a.79.79,0,0,0,.3057.6655A1.3431,1.3431,0,0,0,160.18,80.439Z"/><path class="cls-2" d="M167.1992,81.3389a2.9154,2.9154,0,0,1-1.1875-.2281,2.4321,2.4321,0,0,1-.876-.6479,2.8424,2.8424,0,0,1-.5459-1.0259,4.5919,4.5919,0,0,1-.1855-1.35,4.5329,4.5329,0,0,1,.1855-1.3442,2.9129,2.9129,0,0,1,.5459-1.0259,2.4084,2.4084,0,0,1,.876-.6538,2.9154,2.9154,0,0,1,1.1875-.228,2.5373,2.5373,0,0,1,1.5.4077,2.4215,2.4215,0,0,1,.8526,1.08l-.9239.456a1.44,1.44,0,0,0-.5224-.72,1.51,1.51,0,0,0-.9063-.2637,1.4658,1.4658,0,0,0-1.2051.4917,1.9257,1.9257,0,0,0-.4023,1.26v1.08a1.9231,1.9231,0,0,0,.4023,1.26,1.4646,1.4646,0,0,0,1.2051.4922,1.6033,1.6033,0,0,0,.961-.2759,1.9893,1.9893,0,0,0,.623-.78l.8164.5039a2.4448,2.4448,0,0,1-.9,1.11A2.6376,2.6376,0,0,1,167.1992,81.3389Z"/><path class="cls-2" d="M173.2109,81.3389a2.8371,2.8371,0,0,1-1.17-.2339,2.5454,2.5454,0,0,1-.8877-.6543,2.9341,2.9341,0,0,1-.5635-1.02,4.6346,4.6346,0,0,1,0-2.6817,2.9326,2.9326,0,0,1,.5635-1.0263,2.5443,2.5443,0,0,1,.8877-.6539,2.8291,2.8291,0,0,1,1.17-.2338,2.7556,2.7556,0,0,1,1.1582.2329,2.459,2.459,0,0,1,.8584.64,2.7813,2.7813,0,0,1,.5284.9688,3.9619,3.9619,0,0,1,.18,1.2075v.4663h-4.38v.2524a1.8156,1.8156,0,0,0,.456,1.2779,1.6686,1.6686,0,0,0,1.2959.498,1.8538,1.8538,0,0,0,1.0078-.2642,1.9012,1.9012,0,0,0,.6729-.7441l.7187.6162a2.405,2.405,0,0,1-.9716.9839A3.0382,3.0382,0,0,1,173.2109,81.3389Zm0-5.604a1.68,1.68,0,0,0-.666.1313,1.5667,1.5667,0,0,0-.8691.918,1.9933,1.9933,0,0,0-.12.7031v.0835h3.1923v-.1191a1.82,1.82,0,0,0-.414-1.2456A1.42,1.42,0,0,0,173.2109,75.7349Z"/><path class="cls-2" d="M177.916,81.3389a.6934.6934,0,0,1-.793-.7442v-.18a.7924.7924,0,1,1,1.584,0v.18a.6917.6917,0,0,1-.791.7442Z"/><rect class="cls-3" x="1" y="1" width="248" height="98"/></svg>