<?xml version="1.0" encoding="utf-8"?>
<!-- Generator: Adobe Illustrator 24.2.3, SVG Export Plug-In . SVG Version: 6.00 Build 0)  -->
<svg version="1.1" id="Layer_1" xmlns="http://www.w3.org/2000/svg" xmlns:xlink="http://www.w3.org/1999/xlink" x="0px" y="0px"
	 viewBox="0 0 181.1 47.8" style="enable-background:new 0 0 181.1 47.8;" xml:space="preserve">
<style type="text/css">
	.st0{fill:#002D9C;}
	.st1{fill:#A6C8FF;}
</style>
<g id="Text">
	<path class="st0" d="M50.6,18.8v6.6c-0.1,0.8,0.1,1.6,0.6,2.3c1.1,1.1,2.9,1.1,4,0c0.4-0.7,0.6-1.5,0.6-2.3v-6.6H57v6.3
		c0,0.7-0.1,1.4-0.2,2c-0.1,0.5-0.3,1-0.7,1.4c-0.3,0.4-0.7,0.7-1.2,0.8c-0.6,0.2-1.2,0.3-1.8,0.3c-0.6,0-1.2-0.1-1.8-0.3
		c-0.5-0.2-0.9-0.5-1.2-0.8c-0.3-0.4-0.5-0.9-0.6-1.4c-0.1-0.7-0.2-1.3-0.2-2v-6.3H50.6z"/>
	<path class="st0" d="M62.1,29.7c-0.6,0-1.3-0.1-1.8-0.4c-0.5-0.3-0.9-0.7-1.3-1.1l0.9-0.7c0.3,0.4,0.6,0.7,1,0.9
		c0.4,0.2,0.9,0.3,1.3,0.3c0.4,0,0.9-0.1,1.2-0.3c0.5-0.4,0.6-1.2,0.2-1.7c0,0,0,0,0,0c-0.3-0.3-0.7-0.4-1.1-0.5l-0.6-0.1
		c-0.3,0-0.7-0.1-1-0.2c-0.3-0.1-0.6-0.2-0.8-0.4c-0.2-0.2-0.4-0.4-0.5-0.7c-0.1-0.3-0.2-0.6-0.2-1c0-0.4,0.1-0.7,0.2-1
		c0.1-0.3,0.3-0.5,0.6-0.7c0.3-0.2,0.6-0.4,0.9-0.4c0.4-0.1,0.7-0.1,1.1-0.1c0.6,0,1.1,0.1,1.6,0.3c0.4,0.2,0.8,0.5,1.1,0.9L64,23.4
		c-0.2-0.3-0.5-0.5-0.8-0.7c-0.4-0.2-0.8-0.3-1.3-0.3c-0.4,0-0.8,0.1-1.2,0.3c-0.3,0.2-0.4,0.6-0.4,0.9c0,0.3,0.1,0.7,0.4,0.8
		c0.3,0.2,0.7,0.3,1.1,0.4l0.6,0.1c0.7,0.1,1.3,0.3,1.9,0.8c0.4,0.4,0.6,0.9,0.6,1.5c0,0.7-0.3,1.4-0.8,1.8
		C63.6,29.5,62.9,29.8,62.1,29.7z"/>
	<path class="st0" d="M70.2,29.7c-0.5,0-1-0.1-1.5-0.3c-0.4-0.2-0.8-0.5-1.1-0.8c-0.3-0.4-0.6-0.8-0.7-1.3c-0.3-1.1-0.3-2.3,0-3.4
		c0.2-0.5,0.4-0.9,0.7-1.3c0.3-0.4,0.7-0.6,1.1-0.8c0.5-0.2,1-0.3,1.5-0.3c0.5,0,1,0.1,1.4,0.3c0.4,0.2,0.8,0.5,1.1,0.8
		c0.3,0.4,0.5,0.8,0.7,1.2c0.2,0.5,0.2,1,0.2,1.5v0.6h-5.7v0.4c0,0.3,0.1,0.6,0.2,0.9c0.1,0.3,0.3,0.5,0.5,0.8
		c0.2,0.2,0.5,0.4,0.7,0.5c0.3,0.1,0.7,0.2,1,0.2c0.5,0,0.9-0.1,1.3-0.4c0.4-0.2,0.7-0.6,0.9-1l0.9,0.6c-0.3,0.5-0.7,1-1.2,1.3
		C71.5,29.6,70.8,29.7,70.2,29.7z M70.2,22.5c-0.3,0-0.6,0.1-0.9,0.2c-0.3,0.1-0.5,0.3-0.7,0.5c-0.2,0.2-0.4,0.5-0.5,0.8
		c-0.1,0.3-0.2,0.6-0.2,1v0.1h4.4v-0.2c0-0.6-0.2-1.2-0.6-1.7C71.3,22.7,70.7,22.4,70.2,22.5z"/>
	<path class="st0" d="M85,29.5c-0.4,0-0.7-0.1-1-0.4c-0.2-0.3-0.3-0.6-0.4-0.9h-0.1c-0.1,0.5-0.5,0.8-0.9,1.1
		c-0.4,0.3-0.9,0.4-1.4,0.4c-0.7,0-1.4-0.2-2-0.6c-0.5-0.5-0.7-1.1-0.7-1.8c0-0.7,0.3-1.3,0.8-1.7c0.8-0.5,1.7-0.7,2.6-0.6h1.6v-0.8
		c0-0.5-0.1-0.9-0.5-1.3c-0.4-0.3-0.9-0.5-1.4-0.4c-0.4,0-0.8,0.1-1.2,0.3c-0.3,0.2-0.6,0.5-0.8,0.9L78.9,23c0.2-0.5,0.6-0.8,1-1.1
		c0.5-0.3,1.2-0.5,1.8-0.5c0.8-0.1,1.6,0.2,2.2,0.7c0.5,0.5,0.8,1.2,0.8,2v4.3h0.9v1.1L85,29.5z M81.4,28.7c0.3,0,0.6,0,0.8-0.1
		c0.2-0.1,0.5-0.2,0.7-0.3c0.2-0.1,0.3-0.3,0.4-0.5c0.1-0.2,0.2-0.4,0.2-0.6v-1.3h-1.6c-0.5,0-1.1,0.1-1.5,0.3
		c-0.3,0.2-0.5,0.5-0.5,0.9v0.3c0,0.4,0.1,0.7,0.4,0.9C80.6,28.6,81,28.7,81.4,28.7z"/>
	<path class="st0" d="M87.4,29.5v-7.9h1.2v1.3h0.1c0.2-0.4,0.5-0.8,0.8-1.1c0.4-0.3,0.9-0.4,1.4-0.4c0.7,0,1.4,0.3,1.9,0.8
		c0.5,0.6,0.8,1.4,0.7,2.2v5.1h-1.2v-4.9c0-1.4-0.6-2.1-1.8-2.1c-0.2,0-0.5,0-0.7,0.1c-0.2,0.1-0.4,0.2-0.6,0.3
		c-0.2,0.1-0.3,0.3-0.4,0.5c-0.1,0.2-0.2,0.4-0.2,0.7v5.5L87.4,29.5z"/>
	<path class="st0" d="M99.1,29.7c-0.5,0-1-0.1-1.5-0.3c-0.4-0.2-0.8-0.5-1.1-0.8c-0.3-0.4-0.6-0.8-0.7-1.3c-0.3-1.1-0.3-2.3,0-3.4
		c0.2-0.5,0.4-0.9,0.7-1.3c0.3-0.4,0.7-0.6,1.1-0.8c0.5-0.2,1-0.3,1.5-0.3c0.5,0,1,0.1,1.4,0.3c0.4,0.2,0.8,0.5,1.1,0.8
		c0.3,0.4,0.6,0.8,0.7,1.3c0.3,1.1,0.3,2.3,0,3.4c-0.2,0.5-0.4,0.9-0.7,1.3c-0.3,0.4-0.7,0.6-1.1,0.8
		C100.1,29.6,99.6,29.7,99.1,29.7z M99.1,28.6c0.6,0,1.2-0.2,1.6-0.6c0.5-0.5,0.7-1.2,0.6-1.9V25c0.1-0.7-0.2-1.4-0.6-1.9
		c-0.9-0.8-2.3-0.8-3.3,0c-0.5,0.5-0.7,1.2-0.6,1.9v1.1c-0.1,0.7,0.2,1.4,0.6,1.9C97.9,28.4,98.5,28.7,99.1,28.6L99.1,28.6z"/>
	<path class="st0" d="M106.5,29.5c-0.4,0-0.7-0.1-1-0.4c-0.2-0.3-0.3-0.6-0.3-0.9v-5.5h-1.3v-1.1h0.7c0.2,0,0.4,0,0.5-0.2
		c0.1-0.2,0.2-0.4,0.1-0.6v-1.5h1.1v2.2h1.7v1.1h-1.7v5.7h1.6v1.1L106.5,29.5z"/>
	<path class="st0" d="M110.1,18.2h1.2v4.7h0.1c0.2-0.4,0.5-0.8,0.8-1.1c0.4-0.3,0.9-0.4,1.4-0.4c0.7,0,1.4,0.3,1.9,0.8
		c0.5,0.6,0.8,1.4,0.7,2.2v5.1h-1.2v-4.9c0-1.4-0.6-2.1-1.8-2.1c-0.2,0-0.5,0-0.7,0.1c-0.2,0.1-0.4,0.2-0.6,0.3
		c-0.2,0.1-0.3,0.3-0.4,0.5c-0.1,0.2-0.2,0.4-0.2,0.7v5.5h-1.2L110.1,18.2z"/>
	<path class="st0" d="M121.8,29.7c-0.5,0-1-0.1-1.5-0.3c-0.4-0.2-0.8-0.5-1.1-0.8c-0.3-0.4-0.6-0.8-0.7-1.3c-0.3-1.1-0.3-2.3,0-3.4
		c0.2-0.5,0.4-0.9,0.7-1.3c0.3-0.4,0.7-0.6,1.1-0.8c0.5-0.2,1-0.3,1.5-0.3c0.5,0,1,0.1,1.4,0.3c0.4,0.2,0.8,0.5,1.1,0.8
		c0.3,0.4,0.5,0.8,0.7,1.2c0.2,0.5,0.2,1,0.2,1.5v0.6h-5.7v0.4c0,0.3,0.1,0.6,0.2,0.9c0.1,0.3,0.3,0.5,0.5,0.8
		c0.2,0.2,0.5,0.4,0.7,0.5c0.3,0.1,0.7,0.2,1,0.2c0.5,0,0.9-0.1,1.3-0.4c0.4-0.2,0.7-0.6,0.9-1l0.9,0.6c-0.3,0.5-0.7,1-1.2,1.3
		C123.2,29.6,122.5,29.7,121.8,29.7z M121.8,22.5c-0.3,0-0.6,0.1-0.9,0.2c-0.3,0.1-0.5,0.3-0.7,0.5c-0.2,0.2-0.4,0.5-0.5,0.8
		c-0.1,0.3-0.2,0.6-0.2,1v0.1h4.4v-0.2c0-0.6-0.2-1.2-0.6-1.7C122.9,22.7,122.4,22.4,121.8,22.5z"/>
	<path class="st0" d="M127.3,29.5v-7.9h1.2v1.5h0.1c0.2-0.4,0.4-0.8,0.8-1c0.4-0.3,1-0.5,1.5-0.4h0.5v1.2h-0.7
		c-0.5,0-1.1,0.1-1.6,0.4c-0.3,0.2-0.6,0.6-0.6,0.9v5.4L127.3,29.5z"/>
	<path class="st0" d="M139.5,29.7c-0.5,0-1-0.1-1.5-0.3c-0.4-0.2-0.8-0.5-1.1-0.8c-0.3-0.4-0.6-0.8-0.7-1.3c-0.3-1.1-0.3-2.3,0-3.4
		c0.1-0.5,0.4-0.9,0.7-1.3c0.3-0.4,0.7-0.6,1.1-0.8c0.5-0.2,1-0.3,1.5-0.3c0.7,0,1.3,0.1,1.9,0.5c0.5,0.3,0.8,0.8,1.1,1.3l-1,0.5
		c-0.1-0.4-0.4-0.7-0.7-1c-0.4-0.2-0.8-0.4-1.2-0.3c-0.3,0-0.7,0.1-1,0.2c-0.3,0.1-0.5,0.3-0.7,0.5c-0.2,0.2-0.3,0.5-0.4,0.8
		c-0.1,0.3-0.1,0.6-0.1,1v1.4c0,0.6,0.2,1.2,0.6,1.7c0.4,0.5,1,0.7,1.6,0.7c0.9,0,1.8-0.5,2.1-1.4l0.9,0.6c-0.2,0.6-0.6,1-1.1,1.4
		C140.8,29.6,140.1,29.7,139.5,29.7z"/>
	<path class="st0" d="M145.5,29.5c-0.4,0-0.7-0.1-1-0.4c-0.2-0.3-0.3-0.6-0.3-0.9V18.2h1.2v10.3h1.2v1.1L145.5,29.5z"/>
	<path class="st0" d="M151.4,29.7c-0.5,0-1-0.1-1.5-0.3c-0.4-0.2-0.8-0.5-1.1-0.8c-0.3-0.4-0.6-0.8-0.7-1.3c-0.3-1.1-0.3-2.3,0-3.4
		c0.2-0.5,0.4-0.9,0.7-1.3c0.3-0.4,0.7-0.6,1.1-0.8c0.5-0.2,1-0.3,1.5-0.3c0.5,0,1,0.1,1.4,0.3c0.4,0.2,0.8,0.5,1.1,0.8
		c0.3,0.4,0.6,0.8,0.7,1.3c0.3,1.1,0.3,2.3,0,3.4c-0.2,0.5-0.4,0.9-0.7,1.3c-0.3,0.4-0.7,0.6-1.1,0.8
		C152.4,29.6,151.9,29.7,151.4,29.7z M151.4,28.6c0.6,0,1.2-0.2,1.6-0.6c0.5-0.5,0.7-1.2,0.6-1.9V25c0.1-0.7-0.2-1.4-0.6-1.9
		c-0.9-0.8-2.3-0.8-3.3,0c-0.5,0.5-0.7,1.2-0.6,1.9v1.1c-0.1,0.7,0.2,1.4,0.6,1.9C150.2,28.4,150.8,28.7,151.4,28.6L151.4,28.6z"/>
	<path class="st0" d="M161.9,28.3L161.9,28.3c-0.1,0.2-0.2,0.4-0.4,0.5c-0.1,0.2-0.3,0.3-0.4,0.5c-0.2,0.1-0.4,0.3-0.6,0.3
		c-0.3,0.1-0.6,0.1-0.9,0.1c-0.7,0-1.4-0.3-1.9-0.8c-0.5-0.6-0.8-1.4-0.7-2.2v-5.1h1.2v4.9c0,1.4,0.6,2.1,1.8,2.1
		c0.2,0,0.5,0,0.7-0.1c0.2-0.1,0.4-0.1,0.6-0.3c0.2-0.1,0.3-0.3,0.4-0.5c0.1-0.2,0.2-0.4,0.2-0.7v-5.5h1.2v7.9h-1.2L161.9,28.3z"/>
	<path class="st0" d="M170.8,28.3L170.8,28.3c-0.5,0.9-1.4,1.5-2.4,1.5c-0.5,0-0.9-0.1-1.3-0.3c-0.4-0.2-0.7-0.5-1-0.8
		c-0.3-0.4-0.5-0.8-0.6-1.3c-0.3-1.1-0.3-2.3,0-3.4c0.1-0.5,0.3-0.9,0.6-1.3c0.3-0.4,0.6-0.6,1-0.8c0.4-0.2,0.9-0.3,1.3-0.3
		c0.5,0,1,0.1,1.4,0.4c0.4,0.3,0.7,0.6,0.9,1.1h0.1v-4.7h1.2v11.4h-1.2V28.3z M168.7,28.6c0.3,0,0.5,0,0.8-0.1
		c0.2-0.1,0.5-0.2,0.7-0.3c0.2-0.1,0.3-0.3,0.4-0.5c0.1-0.2,0.2-0.4,0.2-0.7v-3c0-0.2-0.1-0.4-0.2-0.6c-0.1-0.2-0.3-0.4-0.4-0.5
		c-0.2-0.1-0.4-0.2-0.7-0.3c-0.3-0.1-0.5-0.1-0.8-0.1c-0.6,0-1.2,0.2-1.6,0.7c-0.4,0.5-0.6,1.1-0.6,1.7v1.4c0,0.6,0.2,1.2,0.6,1.7
		C167.5,28.4,168.1,28.7,168.7,28.6L168.7,28.6z"/>
	<path class="st1" d="M41.7,24.3c0-3.5-2.5-6.5-5.9-7.3c-1.2-5.5-6.6-9.1-12.1-7.9c-4,0.8-7.1,3.9-7.9,7.9c-3.4,0.7-5.9,3.7-5.9,7.3
		c0,1.8,0.7,3.6,1.9,5c-2.6,2.7-2.6,7,0.1,9.6c1.3,1.2,3,1.9,4.8,1.9h12.5c3.8,0,6.8-3,6.8-6.8c0-0.8-0.1-1.7-0.4-2.4
		C39.1,31,41.7,27.9,41.7,24.3z M29.2,38.6H16.6c-2.5,0-4.6-2-4.6-4.5c0-2.2,1.6-4.1,3.8-4.5l0.8-0.1l0.2-0.7
		c0.8-3.4,4.1-5.5,7.5-4.8c2.4,0.5,4.2,2.4,4.8,4.8l0.2,0.7l0.8,0.1c2.5,0.4,4.1,2.8,3.7,5.2C33.3,37,31.4,38.6,29.2,38.6L29.2,38.6
		z M34.3,29.5L34.3,29.5c-0.9-1-2-1.6-3.3-2c-1.4-4.5-6.2-7-10.7-5.6c-2.7,0.8-4.7,2.9-5.6,5.6c-0.4,0.1-0.8,0.3-1.2,0.5
		c-1-0.9-1.5-2.2-1.5-3.6c0-2.7,2.1-4.9,4.7-5.1l0.9-0.1l0.1-0.9c0.5-4.4,4.5-7.5,8.9-6.9c3.6,0.4,6.5,3.3,6.9,6.9l0.1,0.9l0.9,0.1
		c2.8,0.2,4.9,2.7,4.7,5.5C39.2,27.4,37,29.5,34.3,29.5L34.3,29.5z"/>
</g>
</svg>
