<?xml version="1.0" encoding="utf-8"?>
<!-- Generator: Adobe Illustrator 26.0.1, SVG Export Plug-In . SVG Version: 6.00 Build 0)  -->
<svg version="1.1" id="Layer_1" xmlns="http://www.w3.org/2000/svg" xmlns:xlink="http://www.w3.org/1999/xlink" x="0px" y="0px"
	 viewBox="0 0 250 100" style="enable-background:new 0 0 250 100;" xml:space="preserve">
<style type="text/css">
	.st0{fill:#242B66;}
	.st1{font-family:'IBMPlexSans-SemiBold';}
	.st2{font-size:13px;}
	.st3{fill:#525352;}
	.st4{font-family:'IBMPlexSans-Text';}
	.st5{font-size:12px;}
	.st6{fill:none;stroke:#242B66;stroke-width:1.968;stroke-miterlimit:10;}
</style>
<path class="st0" d="M37,22h-2v-8H20v-2h15c1.1,0,2,0.9,2,2V22z"/>
<path class="st0" d="M32,27h-2v-8H15v-2h15c1.1,0,2,0.9,2,2V27z"/>
<path class="st0" d="M25,34H11c-1.1,0-2-0.9-2-2v-8c0-1.1,0.9-2,2-2h14c1.1,0,2,0.9,2,2v8C27,33.1,26.1,34,25,34z M11,24v8h14l0-8
	H11z"/>
<text transform="matrix(1 0 0 1 45.1973 22.584)" class="st0 st1 st2">Custom</text>
<text transform="matrix(1 0 0 1 45.1973 37.9945)"><tspan x="0" y="0" class="st3 st4 st5">Integrate your existing custom</tspan><tspan x="0" y="14.4" class="st3 st4 st5">or proprietary tools so that you</tspan><tspan x="0" y="28.8" class="st3 st4 st5">can see all of your security</tspan><tspan x="0" y="43.2" class="st3 st4 st5">information in one place.</tspan></text>
<rect x="1" y="1" class="st6" width="248" height="98"/>
</svg>
