<?xml version="1.0" encoding="utf-8"?>
<!-- Generator: Adobe Illustrator 26.0.1, SVG Export Plug-In . SVG Version: 6.00 Build 0)  -->
<svg version="1.1" id="Layer_1" xmlns="http://www.w3.org/2000/svg" xmlns:xlink="http://www.w3.org/1999/xlink" x="0px" y="0px"
	 viewBox="0 0 250 100" style="enable-background:new 0 0 250 100;" xml:space="preserve">
<style type="text/css">
	.st0{fill:none;}
	.st1{fill:#242B66;}
	.st2{font-family:'IBMPlexSans-SemiBold';}
	.st3{font-size:13px;}
	.st4{fill:#525352;}
	.st5{font-family:'IBMPlexSans-Text';}
	.st6{font-size:12px;}
	.st7{fill:none;stroke:#242B66;stroke-width:1.968;stroke-miterlimit:10;}
</style>
<rect id="_Transparent_Rectangle__2_" x="7" y="9" class="st0" width="32" height="32"/>
<polygon class="st1" points="37,39 31,39 31,37 35,37 35,13 31,13 31,11 37,11 "/>
<path class="st1" d="M31.7,28.6c-0.3-1.5-1.3-2.7-2.7-3.2c-1.1-0.5-2.4-0.5-3.5,0c-0.2,0.1-0.4,0.2-0.6,0.4l-2.8-2.8
	c1.3-2.1,0.7-4.9-1.4-6.2c-2.1-1.3-4.9-0.7-6.2,1.4s-0.7,4.9,1.4,6.2c1.5,0.9,3.4,0.9,4.8,0l2.8,2.8c-0.6,1-0.8,2.2-0.6,3.3
	c0.3,1.5,1.3,2.7,2.7,3.2c1.1,0.5,2.4,0.5,3.5,0c1.4-0.6,2.4-1.8,2.7-3.2C31.8,29.8,31.8,29.2,31.7,28.6z M18.3,23
	c-1.4,0-2.5-1.1-2.5-2.5s1.1-2.5,2.5-2.5c1.4,0,2.5,1.1,2.5,2.5S19.6,23,18.3,23z"/>
<polygon class="st1" points="15,39 9,39 9,11 15,11 15,13 11,13 11,37 15,37 "/>
<text transform="matrix(1 0 0 1 45.1973 22.584)" class="st1 st2 st3">Customer-managed</text>
<text transform="matrix(1 0 0 1 45.1973 37.9945)"><tspan x="0" y="0" class="st4 st5 st6">Monitor your IBM Cloud resources</tspan><tspan x="0" y="14.4" class="st4 st5 st6">for risk by creating and installing</tspan><tspan x="0" y="28.8" class="st4 st5 st6">a collector on your own VPC</tspan><tspan x="0" y="43.2" class="st4 st5 st6">instance.</tspan></text>
<rect x="1" y="1" class="st7" width="248" height="98"/>
</svg>
