<?xml version="1.0" encoding="utf-8"?><svg xmlns="http://www.w3.org/2000/svg" width="198.1534" height="47.8204" viewBox="0 0 198.1534 47.8204"><defs><style>.cls-1{fill:#002d9c;}.cls-2{fill:#a6c8ff;}</style></defs><g id="Text"><path class="cls-1" d="M53.1974,29.7188a3.8717,3.8717,0,0,1-3.1767-1.39A6.3341,6.3341,0,0,1,48.8849,24.24a6.6069,6.6069,0,0,1,1.1358-4.1509,3.8042,3.8042,0,0,1,3.1767-1.45A3.7466,3.7466,0,0,1,56.88,20.9718l-1.0439.6289a2.9752,2.9752,0,0,0-.9815-1.3272,2.673,2.673,0,0,0-1.6572-.499,2.8088,2.8088,0,0,0-1.2353.2622,2.5391,2.5391,0,0,0-.9209.7466,3.4817,3.4817,0,0,0-.5752,1.1553,5.22,5.22,0,0,0-.2,1.5009v1.6016a4.0013,4.0013,0,0,0,.7675,2.6025,2.6373,2.6373,0,0,0,2.1641.94,2.7475,2.7475,0,0,0,1.7188-.5293A3.0625,3.0625,0,0,0,55.9289,26.65l1.0273.6445a4.1171,4.1171,0,0,1-1.457,1.78A4.01,4.01,0,0,1,53.1974,29.7188Z"/><path class="cls-1" d="M58.8283,18.1788h1.2275v4.7119h.0615a2.5849,2.5849,0,0,1,.8213-1.0635,2.32,2.32,0,0,1,1.419-.395,2.4845,2.4845,0,0,1,1.9414.79,3.2174,3.2174,0,0,1,.7138,2.2329v5.0791H63.7853v-4.875q0-2.1379-1.7959-2.1377a2.7417,2.7417,0,0,0-.7129.0923,2.0781,2.0781,0,0,0-.6221.2768,1.3738,1.3738,0,0,0-.4375.4693,1.3339,1.3339,0,0,0-.1611.6689v5.5054H58.8283Z"/><path class="cls-1" d="M70.5373,29.7188a3.5663,3.5663,0,0,1-1.4581-.292,3.131,3.131,0,0,1-1.1279-.8359,3.931,3.931,0,0,1-.73-1.3047,5.72,5.72,0,0,1,0-3.4145,3.9225,3.9225,0,0,1,.73-1.312,3.1382,3.1382,0,0,1,1.1279-.836,3.5677,3.5677,0,0,1,1.4581-.2915,3.5127,3.5127,0,0,1,1.4492.2915,3.2248,3.2248,0,0,1,1.1279.836,3.8686,3.8686,0,0,1,.7373,1.312,5.72,5.72,0,0,1,0,3.4145,3.8767,3.8767,0,0,1-.7373,1.3047,3.2172,3.2172,0,0,1-1.1279.8359A3.5113,3.5113,0,0,1,70.5373,29.7188Zm0-1.09a2.2321,2.2321,0,0,0,1.6259-.6143,2.5047,2.5047,0,0,0,.6289-1.872V25.0069a2.5059,2.5059,0,0,0-.6289-1.8716,2.4621,2.4621,0,0,0-3.2529,0,2.5063,2.5063,0,0,0-.6289,1.8716v1.1358a2.5052,2.5052,0,0,0,.6289,1.872A2.23,2.23,0,0,0,70.5373,28.629Z"/><path class="cls-1" d="M79.13,29.7188a3.5692,3.5692,0,0,1-1.458-.292,3.1482,3.1482,0,0,1-1.1279-.8359,3.945,3.945,0,0,1-.7285-1.3047,5.7184,5.7184,0,0,1,0-3.4145,3.9364,3.9364,0,0,1,.7285-1.312,3.1555,3.1555,0,0,1,1.1279-.836,3.5706,3.5706,0,0,1,1.458-.2915,3.5135,3.5135,0,0,1,1.45.2915,3.2425,3.2425,0,0,1,1.128.836,3.8667,3.8667,0,0,1,.7363,1.312,5.72,5.72,0,0,1,0,3.4145,3.8748,3.8748,0,0,1-.7363,1.3047,3.2348,3.2348,0,0,1-1.128.8359A3.512,3.512,0,0,1,79.13,29.7188Zm0-1.09a2.233,2.233,0,0,0,1.627-.6143,2.5092,2.5092,0,0,0,.6289-1.872V25.0069a2.51,2.51,0,0,0-.6289-1.8716,2.4634,2.4634,0,0,0-3.2539,0,2.51,2.51,0,0,0-.6289,1.8716v1.1358a2.5088,2.5088,0,0,0,.6289,1.872A2.2329,2.2329,0,0,0,79.13,28.629Z"/><path class="cls-1" d="M87.11,29.7188a3.7007,3.7007,0,0,1-1.8486-.4228,4.2008,4.2008,0,0,1-1.2822-1.1279l.875-.7051a3.4384,3.4384,0,0,0,1.0283.8974,2.6733,2.6733,0,0,0,1.3193.3145,1.9478,1.9478,0,0,0,1.22-.3379,1.2262,1.2262,0,0,0,.1387-1.7412,1.8287,1.8287,0,0,0-1.082-.4531l-.6289-.0918a5.22,5.22,0,0,1-1.0127-.2383,2.8163,2.8163,0,0,1-.8057-.4287,1.8556,1.8556,0,0,1-.5371-.668,2.1771,2.1771,0,0,1-.1924-.9517,2.295,2.295,0,0,1,.2149-1.02,2.0624,2.0624,0,0,1,.5908-.729,2.5812,2.5812,0,0,1,.8984-.4375,4.1473,4.1473,0,0,1,1.12-.1455,3.4919,3.4919,0,0,1,1.6182.3374,3.62,3.62,0,0,1,1.1436.9361l-.8135.7363a2.4519,2.4519,0,0,0-.7666-.6675,2.4767,2.4767,0,0,0-1.2744-.2988,1.7574,1.7574,0,0,0-1.1582.33,1.1138,1.1138,0,0,0-.3916.8979.94.94,0,0,0,.3916.8438,2.9189,2.9189,0,0,0,1.1279.3838l.6143.0917a3.3,3.3,0,0,1,1.872.76,1.9988,1.9988,0,0,1,.5518,1.4658,2.2431,2.2431,0,0,1-.7822,1.8106A3.2332,3.2332,0,0,1,87.11,29.7188Z"/><path class="cls-1" d="M95.1808,29.7188a3.549,3.549,0,0,1-1.4648-.292,3.1461,3.1461,0,0,1-1.12-.8359,3.83,3.83,0,0,1-.7216-1.3047,5.8868,5.8868,0,0,1,0-3.4145,3.8234,3.8234,0,0,1,.7216-1.312,3.1534,3.1534,0,0,1,1.12-.836,3.5505,3.5505,0,0,1,1.4648-.2915,3.3683,3.3683,0,0,1,1.4277.29,3.1655,3.1655,0,0,1,1.0743.8028,3.58,3.58,0,0,1,.6826,1.2158,4.8064,4.8064,0,0,1,.2383,1.5449v.58H92.91v.3691a2.7115,2.7115,0,0,0,.1611.9434,2.2431,2.2431,0,0,0,.46.76,2.0938,2.0938,0,0,0,.7363.5058,2.5276,2.5276,0,0,0,.99.1846,2.3989,2.3989,0,0,0,1.3115-.3535,2.308,2.308,0,0,0,.8681-1.0127l.875.6338a3.0655,3.0655,0,0,1-1.1972,1.32A3.619,3.619,0,0,1,95.1808,29.7188Zm0-7.2588a2.33,2.33,0,0,0-.92.1758,2.0636,2.0636,0,0,0-.7139.4956,2.3273,2.3273,0,0,0-.4678.7544,2.6,2.6,0,0,0-.1689.9532v.1074h4.373v-.168a2.4076,2.4076,0,0,0-.5751-1.6851A1.9637,1.9637,0,0,0,95.1808,22.46Z"/><path class="cls-1" d="M107.2267,29.7188a3.5571,3.5571,0,0,1-1.4658-.292,3.1624,3.1624,0,0,1-1.12-.8359,3.8439,3.8439,0,0,1-.7207-1.3047,5.8868,5.8868,0,0,1,0-3.4145,3.8368,3.8368,0,0,1,.7207-1.312,3.17,3.17,0,0,1,1.12-.836,3.5586,3.5586,0,0,1,1.4658-.2915,3.3612,3.3612,0,0,1,1.4268.29,3.1565,3.1565,0,0,1,1.0742.8028,3.5816,3.5816,0,0,1,.6836,1.2158,4.8066,4.8066,0,0,1,.2373,1.5449v.58h-5.6934v.3691a2.7093,2.7093,0,0,0,.1612.9434,2.2436,2.2436,0,0,0,.4609.76,2.0938,2.0938,0,0,0,.7363.5058,2.5276,2.5276,0,0,0,.99.1846,2.3989,2.3989,0,0,0,1.3115-.3535,2.3132,2.3132,0,0,0,.8672-1.0127l.875.6338a3.06,3.06,0,0,1-1.1973,1.32A3.613,3.613,0,0,1,107.2267,29.7188Zm0-7.2588a2.3349,2.3349,0,0,0-.9209.1758,2.06,2.06,0,0,0-.7129.4956,2.3109,2.3109,0,0,0-.4687.7544,2.6193,2.6193,0,0,0-.169.9532v.1074h4.374v-.168a2.4118,2.4118,0,0,0-.5751-1.6851A1.9652,1.9652,0,0,0,107.2267,22.46Z"/><path class="cls-1" d="M112.6749,29.5343v-7.918h1.2276v1.2744h.0615a2.5746,2.5746,0,0,1,.82-1.0635,2.3231,2.3231,0,0,1,1.42-.395,2.486,2.486,0,0,1,1.9415.79,3.2175,3.2175,0,0,1,.7128,2.2329v5.0791H117.631v-4.875q0-2.1379-1.7949-2.1377a2.7493,2.7493,0,0,0-.7139.0923,2.0611,2.0611,0,0,0-.6211.2768,1.3642,1.3642,0,0,0-.4375.4693,1.3339,1.3339,0,0,0-.1611.6689v5.5054Z"/><path class="cls-1" d="M123.14,29.5343l-2.7774-7.918H121.59l1.3808,3.9277.8594,2.7012h.0772l.8593-2.7012,1.4112-3.9277H127.36l-2.7929,7.918Z"/><path class="cls-1" d="M129.5539,19.7594a.7493.7493,0,0,1-.5752-.1919.7052.7052,0,0,1-.1768-.4986v-.2a.7048.7048,0,0,1,.1768-.4985.958.958,0,0,1,1.15,0,.7052.7052,0,0,1,.1767.4985v.2a.7056.7056,0,0,1-.1767.4986A.75.75,0,0,1,129.5539,19.7594Zm-.6133,1.8569h1.2275v7.918h-1.2275Z"/><path class="cls-1" d="M132.7765,29.5343v-7.918h1.2276v1.4575h.0761a2.3973,2.3973,0,0,1,.7676-1.0127,2.3594,2.3594,0,0,1,1.5195-.4448h.4756v1.2275h-.7217a2.7744,2.7744,0,0,0-1.5576.376,1.109,1.109,0,0,0-.56.9439v5.3706Z"/><path class="cls-1" d="M141.4005,29.7188a3.5661,3.5661,0,0,1-1.458-.292,3.131,3.131,0,0,1-1.1279-.8359,3.9274,3.9274,0,0,1-.7285-1.3047,5.7184,5.7184,0,0,1,0-3.4145,3.919,3.919,0,0,1,.7285-1.312,3.1382,3.1382,0,0,1,1.1279-.836,3.5676,3.5676,0,0,1,1.458-.2915,3.52,3.52,0,0,1,1.45.2915,3.2425,3.2425,0,0,1,1.128.836,3.8667,3.8667,0,0,1,.7363,1.312,5.72,5.72,0,0,1,0,3.4145,3.8748,3.8748,0,0,1-.7363,1.3047,3.2348,3.2348,0,0,1-1.128.8359A3.5187,3.5187,0,0,1,141.4005,29.7188Zm0-1.09a2.229,2.229,0,0,0,1.626-.6143,2.5054,2.5054,0,0,0,.63-1.872V25.0069a2.5066,2.5066,0,0,0-.63-1.8716,2.4621,2.4621,0,0,0-3.2529,0,2.5063,2.5063,0,0,0-.6289,1.8716v1.1358a2.5052,2.5052,0,0,0,.6289,1.872A2.2329,2.2329,0,0,0,141.4005,28.629Z"/><path class="cls-1" d="M147.0011,29.5343v-7.918h1.2276v1.2744h.0615a2.5738,2.5738,0,0,1,.82-1.0635,2.3231,2.3231,0,0,1,1.42-.395,2.4856,2.4856,0,0,1,1.9414.79,3.2171,3.2171,0,0,1,.7129,2.2329v5.0791h-1.2275v-4.875q0-2.1379-1.7949-2.1377a2.7493,2.7493,0,0,0-.7139.0923,2.0611,2.0611,0,0,0-.6211.2768,1.3632,1.3632,0,0,0-.4375.4693,1.3339,1.3339,0,0,0-.1611.6689v5.5054Z"/><path class="cls-1" d="M155.7179,29.5343v-7.918h1.2276v1.2744h.0615a4.0056,4.0056,0,0,1,.3144-.57,1.9466,1.9466,0,0,1,.43-.4634,1.97,1.97,0,0,1,.5908-.3115,2.5044,2.5044,0,0,1,.7979-.1138,2.8836,2.8836,0,0,1,1.4424.3726,2.2527,2.2527,0,0,1,.9814,1.2241h.0313a2.42,2.42,0,0,1,.8056-1.1177,2.4739,2.4739,0,0,1,1.6036-.479,2.3741,2.3741,0,0,1,1.8955.79,3.3128,3.3128,0,0,1,.6826,2.2329v5.0791h-1.2276v-4.875a2.5938,2.5938,0,0,0-.415-1.6,1.56,1.56,0,0,0-1.3193-.5381,2.5788,2.5788,0,0,0-.6983.0923,1.9012,1.9012,0,0,0-.5908.2768,1.3454,1.3454,0,0,0-.4141.4693,1.3852,1.3852,0,0,0-.1533.6689v5.5054h-1.2275v-4.875a2.5938,2.5938,0,0,0-.4151-1.6,1.5228,1.5228,0,0,0-1.289-.5381,2.656,2.656,0,0,0-.7051.0923,1.8827,1.8827,0,0,0-.5986.2768,1.4271,1.4271,0,0,0-.4219.4693,1.3339,1.3339,0,0,0-.1611.6689v5.5054Z"/><path class="cls-1" d="M172.09,29.7188a3.5571,3.5571,0,0,1-1.4658-.292,3.1624,3.1624,0,0,1-1.12-.8359,3.8458,3.8458,0,0,1-.7208-1.3047,5.889,5.889,0,0,1,0-3.4145,3.8387,3.8387,0,0,1,.7208-1.312,3.17,3.17,0,0,1,1.12-.836,3.5586,3.5586,0,0,1,1.4658-.2915,3.36,3.36,0,0,1,1.4267.29,3.1559,3.1559,0,0,1,1.0743.8028,3.5832,3.5832,0,0,1,.6836,1.2158,4.8066,4.8066,0,0,1,.2373,1.5449v.58h-5.6934v.3691a2.7115,2.7115,0,0,0,.1611.9434,2.2454,2.2454,0,0,0,.461.76,2.0938,2.0938,0,0,0,.7363.5058,2.5274,2.5274,0,0,0,.99.1846,2.399,2.399,0,0,0,1.3116-.3535,2.3124,2.3124,0,0,0,.8671-1.0127l.875.6338a3.0594,3.0594,0,0,1-1.1972,1.32A3.613,3.613,0,0,1,172.09,29.7188Zm0-7.2588a2.3349,2.3349,0,0,0-.9209.1758,2.06,2.06,0,0,0-.7129.4956,2.3128,2.3128,0,0,0-.4688.7544,2.6193,2.6193,0,0,0-.1689.9532v.1074h4.374v-.168a2.4118,2.4118,0,0,0-.5752-1.6851A1.965,1.965,0,0,0,172.09,22.46Z"/><path class="cls-1" d="M177.5382,29.5343v-7.918h1.2276v1.2744h.0615a2.5746,2.5746,0,0,1,.82-1.0635,2.3231,2.3231,0,0,1,1.42-.395,2.4856,2.4856,0,0,1,1.9414.79,3.2171,3.2171,0,0,1,.7129,2.2329v5.0791h-1.2275v-4.875q0-2.1379-1.7949-2.1377a2.7493,2.7493,0,0,0-.7139.0923,2.0611,2.0611,0,0,0-.6211.2768,1.3632,1.3632,0,0,0-.4375.4693,1.3339,1.3339,0,0,0-.1611.6689v5.5054Z"/><path class="cls-1" d="M188.0031,29.5343a1.2589,1.2589,0,0,1-.9746-.3594,1.3406,1.3406,0,0,1-.33-.9424V22.7057h-1.3037V21.6163h.7363a.7232.7232,0,0,0,.5449-.1611.8393.8393,0,0,0,.1455-.56V19.422h1.1045v2.1943H189.66v1.0894h-1.7344v5.7387h1.6114v1.09Z"/><path class="cls-2" d="M41.7169,24.3314a7.4461,7.4461,0,0,0-5.9265-7.254,10.2525,10.2525,0,0,0-20.0628,0A7.4458,7.4458,0,0,0,9.8,24.3314,7.3569,7.3569,0,0,0,11.7251,29.29a6.82,6.82,0,0,0,4.9136,11.5694H29.1775a6.8126,6.8126,0,0,0,6.3942-9.235A7.4151,7.4151,0,0,0,41.7169,24.3314ZM29.1775,38.58H16.6387a4.551,4.551,0,0,1-.7672-9.0384l.7558-.1286.1662-.748a6.2649,6.2649,0,0,1,12.23,0l.1662.748.7553.1286a4.551,4.551,0,0,1-.7679,9.0384Zm5.13-9.1191h-.0632a6.7891,6.7891,0,0,0-3.187-2.0022,8.5438,8.5438,0,0,0-16.2987,0,6.8333,6.8333,0,0,0-1.1758.4643,5.0667,5.0667,0,0,1-1.5033-3.5911,5.1492,5.1492,0,0,1,4.7238-5.1079l.9295-.0728.113-.9256a7.9722,7.9722,0,0,1,15.8261,0l.1123.9256.9295.0728a5.1267,5.1267,0,0,1-.4062,10.2374Z"/></g></svg>
