<svg xmlns="http://www.w3.org/2000/svg" width="159.5923" height="47.8204" viewBox="0 0 159.5923 47.8204"><defs><style>.cls-1{fill:#002d9c;}.cls-2{fill:#a6c8ff;}.cls-3,.cls-4,.cls-5{fill:none;stroke-miterlimit:10;stroke-width:2.3164px;}.cls-3{stroke:#4589ff;}.cls-4{stroke:#0043ce;}.cls-5{stroke:#0f62fe;}</style></defs><g id="Text"><path class="cls-1" d="M49.4223,29.5343V18.8233h6.5371v1.1358h-5.248v3.59h4.9414v1.1358H50.7114v3.7133h5.248v1.1358Z"/><path class="cls-1" d="M58.2456,29.5343v-7.918h1.2275v1.2744h.0615a2.5849,2.5849,0,0,1,.8213-1.0635,2.32,2.32,0,0,1,1.419-.395,2.4845,2.4845,0,0,1,1.9414.79,3.2174,3.2174,0,0,1,.7138,2.2329v5.0791H63.2026v-4.875q0-2.1379-1.7959-2.1377a2.7417,2.7417,0,0,0-.7129.0923,2.0781,2.0781,0,0,0-.6221.2768,1.3738,1.3738,0,0,0-.4375.4693,1.3342,1.3342,0,0,0-.1611.6689v5.5054Z"/><path class="cls-1" d="M72.7163,29.5343a1.2087,1.2087,0,0,1-.99-.3682,1.836,1.836,0,0,1-.3759-.9209h-.0762a2.0478,2.0478,0,0,1-.8594,1.1045,2.6661,2.6661,0,0,1-1.4267.3691,2.7771,2.7771,0,0,1-1.9571-.6445,2.2633,2.2633,0,0,1-.6982-1.75,1.9978,1.9978,0,0,1,.8213-1.7187,4.3674,4.3674,0,0,1,2.5547-.5987h1.5654v-.7822a1.7091,1.7091,0,0,0-.461-1.2891,1.9641,1.9641,0,0,0-1.4111-.4448,2.1253,2.1253,0,0,0-1.2051.3223,2.6557,2.6557,0,0,0-.8056.8594l-.7364-.6905a2.7963,2.7963,0,0,1,1.0284-1.0971,3.2373,3.2373,0,0,1,1.78-.4527,3.2767,3.2767,0,0,1,2.24.7041,2.4807,2.4807,0,0,1,.7978,1.96v4.3481h.9053v1.09Zm-3.5293-.8594a3.1359,3.1359,0,0,0,.8437-.1074,2.0713,2.0713,0,0,0,.66-.3067,1.5212,1.5212,0,0,0,.43-.4609,1.1046,1.1046,0,0,0,.1533-.5674V25.9278h-1.627a2.9626,2.9626,0,0,0-1.542.3076.99.99,0,0,0-.4834.89v.3223a1.0735,1.0735,0,0,0,.4219.9052A1.8386,1.8386,0,0,0,69.187,28.6749Z"/><path class="cls-1" d="M75.1557,18.1788h1.2276v4.7119h.0615a2.2241,2.2241,0,0,1,.8984-1.1015,2.6929,2.6929,0,0,1,1.419-.357,3.0059,3.0059,0,0,1,1.3349.2915,2.8971,2.8971,0,0,1,1.02.8286,3.8021,3.8021,0,0,1,.6446,1.3042,6.7467,6.7467,0,0,1,0,3.4375,3.79,3.79,0,0,1-.6446,1.3037,2.892,2.892,0,0,1-1.02.8291,3.0047,3.0047,0,0,1-1.3349.292A2.3983,2.3983,0,0,1,76.4448,28.26h-.0615v1.2744H75.1557Zm3.2686,10.45a2.1151,2.1151,0,0,0,1.6426-.6553,2.4522,2.4522,0,0,0,.5986-1.72V24.8966a2.4544,2.4544,0,0,0-.5986-1.72,2.115,2.115,0,0,0-1.6426-.6552,2.6774,2.6774,0,0,0-.79.1157,2.2151,2.2151,0,0,0-.6523.3159,1.53,1.53,0,0,0-.4375.4859,1.2208,1.2208,0,0,0-.1611.6093V27.01a1.4341,1.4341,0,0,0,.1611.6865,1.5519,1.5519,0,0,0,.4375.5088,1.9712,1.9712,0,0,0,.6523.3154A2.8423,2.8423,0,0,0,78.4243,28.629Z"/><path class="cls-1" d="M85.3608,29.5343a1.2554,1.2554,0,0,1-.9746-.36,1.2972,1.2972,0,0,1-.33-.9131V18.1788h1.2275V28.4444H86.45v1.09Z"/><path class="cls-1" d="M91.2065,29.7188a3.549,3.549,0,0,1-1.4648-.292,3.1461,3.1461,0,0,1-1.12-.8359A3.83,3.83,0,0,1,87.9,27.2862a5.8868,5.8868,0,0,1,0-3.4145,3.8234,3.8234,0,0,1,.7216-1.312,3.1534,3.1534,0,0,1,1.12-.836,3.5505,3.5505,0,0,1,1.4648-.2915,3.3683,3.3683,0,0,1,1.4277.29,3.1655,3.1655,0,0,1,1.0743.8028,3.5964,3.5964,0,0,1,.6826,1.2158,4.8071,4.8071,0,0,1,.2373,1.5449v.58H88.936v.3691a2.7115,2.7115,0,0,0,.1611.9434,2.2416,2.2416,0,0,0,.46.76,2.0938,2.0938,0,0,0,.7363.5058,2.5274,2.5274,0,0,0,.99.1846,2.399,2.399,0,0,0,1.3116-.3535,2.3005,2.3005,0,0,0,.8672-1.0127l.875.6338a3.06,3.06,0,0,1-1.1973,1.32A3.613,3.613,0,0,1,91.2065,29.7188Zm0-7.2587a2.33,2.33,0,0,0-.92.1757,2.0636,2.0636,0,0,0-.7139.4956,2.3256,2.3256,0,0,0-.4678.7544,2.6,2.6,0,0,0-.1689.9532v.1074h4.373v-.168a2.4069,2.4069,0,0,0-.5752-1.685A1.963,1.963,0,0,0,91.2065,22.46Z"/><path class="cls-1" d="M100.8891,19.7594a.75.75,0,0,1-.5752-.1919.7056.7056,0,0,1-.1767-.4986v-.2a.7052.7052,0,0,1,.1767-.4985.958.958,0,0,1,1.15,0,.7048.7048,0,0,1,.1768.4985v.2a.7052.7052,0,0,1-.1768.4986A.75.75,0,0,1,100.8891,19.7594Zm-.6133,1.8569h1.2276v7.918h-1.2276Z"/><path class="cls-1" d="M104.1128,29.5343v-7.918H105.34v1.2744h.0615a2.5746,2.5746,0,0,1,.82-1.0635,2.3231,2.3231,0,0,1,1.42-.395,2.486,2.486,0,0,1,1.9415.79,3.2175,3.2175,0,0,1,.7128,2.2329v5.0791h-1.2275v-4.875q0-2.1379-1.7949-2.1377a2.7493,2.7493,0,0,0-.7139.0923,2.0611,2.0611,0,0,0-.6211.2768,1.3642,1.3642,0,0,0-.4375.4693,1.3342,1.3342,0,0,0-.1611.6689v5.5054Z"/><path class="cls-1" d="M115.2065,29.7188a3.7033,3.7033,0,0,1-1.8486-.4228,4.1977,4.1977,0,0,1-1.2813-1.1279l.874-.7051a3.4506,3.4506,0,0,0,1.0284.8974,2.6772,2.6772,0,0,0,1.32.3145,1.9517,1.9517,0,0,0,1.22-.3379,1.2248,1.2248,0,0,0,.1377-1.7412,1.8261,1.8261,0,0,0-1.082-.4531l-.6289-.0918a5.22,5.22,0,0,1-1.0127-.2383,2.8283,2.8283,0,0,1-.8057-.4287,1.8556,1.8556,0,0,1-.5371-.668,2.1772,2.1772,0,0,1-.1914-.9516,2.2829,2.2829,0,0,1,.2148-1.02,2.0431,2.0431,0,0,1,.5908-.729,2.5767,2.5767,0,0,1,.8975-.4375,4.1473,4.1473,0,0,1,1.12-.1455,3.4991,3.4991,0,0,1,1.6192.3374,3.627,3.627,0,0,1,1.1425.9361l-.8125.7363a2.42,2.42,0,0,0-2.041-.9663,1.7606,1.7606,0,0,0-1.1592.33,1.1134,1.1134,0,0,0-.3906.8979.9394.9394,0,0,0,.3906.8438,2.92,2.92,0,0,0,1.128.3838l.6142.0918a3.2932,3.2932,0,0,1,1.8721.76,1.9994,1.9994,0,0,1,.5527,1.4658,2.2435,2.2435,0,0,1-.7832,1.8106A3.2327,3.2327,0,0,1,115.2065,29.7188Z"/><path class="cls-1" d="M120.9145,19.7594a.75.75,0,0,1-.5752-.1919.7052.7052,0,0,1-.1767-.4986v-.2a.7048.7048,0,0,1,.1767-.4985.958.958,0,0,1,1.15,0,.7048.7048,0,0,1,.1768.4985v.2a.7052.7052,0,0,1-.1768.4986A.75.75,0,0,1,120.9145,19.7594Zm-.6133,1.8569h1.2276v7.918h-1.2276Z"/><path class="cls-1" d="M130.8129,30.4171a1.9452,1.9452,0,0,1-.9589,1.7969,5.7291,5.7291,0,0,1-2.877.5732,5.2836,5.2836,0,0,1-2.6709-.5059,1.6027,1.6027,0,0,1-.8125-1.44,1.4135,1.4135,0,0,1,.3369-1.0039,1.9965,1.9965,0,0,1,.9209-.5293V29.14a1.138,1.138,0,0,1-.706-1.1005,1.1034,1.1034,0,0,1,.3838-.9082,2.52,2.52,0,0,1,.9824-.4668v-.0606a2.5591,2.5591,0,0,1-1.0977-.97,2.7192,2.7192,0,0,1-.3906-1.4624,2.8092,2.8092,0,0,1,.2148-1.1079,2.48,2.48,0,0,1,.6055-.87,2.7631,2.7631,0,0,1,.9365-.5615,3.83,3.83,0,0,1,2.7237.1065v-.1382a1.3,1.3,0,0,1,.2148-.77.8042.8042,0,0,1,.7061-.3046h1.1816v1.09h-1.5039v.5078a2.5825,2.5825,0,0,1,.667.8848,2.7327,2.7327,0,0,1,.2383,1.1621,2.8036,2.8036,0,0,1-.2149,1.1074,2.4947,2.4947,0,0,1-.6064.87,2.741,2.741,0,0,1-.9434.5616,3.5745,3.5745,0,0,1-1.2275.2,3.8587,3.8587,0,0,1-.7676-.0771,2.5579,2.5579,0,0,0-.7207.3154.6478.6478,0,0,0-.3223.5752.4673.4673,0,0,0,.337.4756,2.602,2.602,0,0,0,.875.1231h1.6875a3.3182,3.3182,0,0,1,2.1406.5576A1.8954,1.8954,0,0,1,130.8129,30.4171Zm-1.15.084a.9186.9186,0,0,0-.3614-.76,2.1375,2.1375,0,0,0-1.2812-.2842h-2.64a1.1235,1.1235,0,0,0-.7363,1.0742,1.1812,1.1812,0,0,0,.3916.8907,1.917,1.917,0,0,0,1.3272.3681h1.1357a3.2631,3.2631,0,0,0,1.5957-.3222A1.0444,1.0444,0,0,0,129.6626,30.5011Zm-2.7471-4.5733a1.9079,1.9079,0,0,0,1.2431-.3769,1.4189,1.4189,0,0,0,.46-1.1641v-.4316a1.4182,1.4182,0,0,0-.46-1.1636,2.2362,2.2362,0,0,0-2.4863,0,1.4185,1.4185,0,0,0-.46,1.1636v.4316a1.4191,1.4191,0,0,0,.46,1.1641A1.9065,1.9065,0,0,0,126.9155,25.9278Z"/><path class="cls-1" d="M132.24,18.1788h1.2275v4.7119h.0616a2.573,2.573,0,0,1,.82-1.0635,2.3231,2.3231,0,0,1,1.42-.395,2.4858,2.4858,0,0,1,1.9414.79,3.2171,3.2171,0,0,1,.7129,2.2329v5.0791h-1.2275v-4.875q0-2.1379-1.795-2.1377a2.748,2.748,0,0,0-.7138.0923,2.0611,2.0611,0,0,0-.6211.2768,1.3632,1.3632,0,0,0-.4375.4693,1.3342,1.3342,0,0,0-.1612.6689v5.5054H132.24Z"/><path class="cls-1" d="M142.7045,29.5343a1.2588,1.2588,0,0,1-.9746-.3594,1.341,1.341,0,0,1-.33-.9424V22.7057h-1.3038V21.6163h.7364a.7233.7233,0,0,0,.5449-.1611.8393.8393,0,0,0,.1455-.56V19.422h1.1045v2.1943h1.7344v1.0894h-1.7344v5.7387h1.6113v1.09Z"/><path class="cls-1" d="M148.72,29.7188a3.7035,3.7035,0,0,1-1.8487-.4228,4.1973,4.1973,0,0,1-1.2812-1.1279l.874-.7051a3.4491,3.4491,0,0,0,1.0283.8974,2.6775,2.6775,0,0,0,1.32.3145,1.952,1.952,0,0,0,1.22-.3379,1.2248,1.2248,0,0,0,.1377-1.7412,1.8264,1.8264,0,0,0-1.0821-.4531l-.6289-.0918a5.2238,5.2238,0,0,1-1.0127-.2383,2.8277,2.8277,0,0,1-.8056-.4287,1.8556,1.8556,0,0,1-.5371-.668,2.1758,2.1758,0,0,1-.1914-.9516,2.2816,2.2816,0,0,1,.2148-1.02,2.0421,2.0421,0,0,1,.5908-.729,2.5759,2.5759,0,0,1,.8975-.4375,4.1468,4.1468,0,0,1,1.12-.1455,3.4986,3.4986,0,0,1,1.6191.3374,3.6262,3.6262,0,0,1,1.1426.9361l-.8125.7363a2.4206,2.4206,0,0,0-2.041-.9663,1.7606,1.7606,0,0,0-1.1592.33,1.1134,1.1134,0,0,0-.3906.8979.9394.9394,0,0,0,.3906.8438,2.92,2.92,0,0,0,1.128.3838l.6142.0918a3.2932,3.2932,0,0,1,1.8721.76,2,2,0,0,1,.5527,1.4658,2.2435,2.2435,0,0,1-.7832,1.8106A3.2331,3.2331,0,0,1,148.72,29.7188Z"/><path class="cls-2" d="M18.1375,27.0775a4.926,4.926,0,0,0,1.0887.1389,4.6329,4.6329,0,0,0,2.5828-.7875l3.7295,3.3241a4.4933,4.4933,0,0,0-.2316,3.6715,4.6329,4.6329,0,1,0,7.3779-5.05l2.9418-5.8954a4.3779,4.3779,0,0,0,3.3705-.6139,4.633,4.633,0,1,0-5.4321-.44l-2.9419,5.8954a4.47,4.47,0,0,0-.9729-.1043,4.6338,4.6338,0,0,0-2.5828.7876L23.3379,24.68a4.4937,4.4937,0,0,0,.2316-3.6715,4.6329,4.6329,0,1,0-7.4705,4.9687l-4.98,9.3469V8.6849H8.8022V38.7987a2.3164,2.3164,0,0,0,2.3164,2.3164H41.2324V38.7987H11.8946ZM36.6,15.6342a2.3165,2.3165,0,1,1-2.3164,2.3165A2.3165,2.3165,0,0,1,36.6,15.6342ZM31.9667,31.8493A2.3165,2.3165,0,1,1,29.65,29.5329,2.3165,2.3165,0,0,1,31.9667,31.8493Zm-12.74-11.5822A2.3165,2.3165,0,1,1,16.91,22.5835,2.3164,2.3164,0,0,1,19.2262,20.2671Z"/><circle class="cls-3" cx="19.2262" cy="22.5835" r="3.4853"/><circle class="cls-4" cx="29.6502" cy="31.8493" r="3.4853"/><circle class="cls-5" cx="36.5995" cy="17.9507" r="3.4853"/></g></svg>