<?xml version="1.0" encoding="utf-8"?>
<!-- Generator: Adobe Illustrator 24.2.3, SVG Export Plug-In . SVG Version: 6.00 Build 0)  -->
<svg version="1.1" id="Layer_1" xmlns="http://www.w3.org/2000/svg" xmlns:xlink="http://www.w3.org/1999/xlink" x="0px" y="0px"
	 viewBox="0 0 159.6 47.8" style="enable-background:new 0 0 159.6 47.8;" xml:space="preserve">
<style type="text/css">
	.st0{fill:#002D9C;}
	.st1{fill:#A6C8FF;}
	.st2{fill:none;stroke:#4589FF;stroke-width:2.3165;stroke-miterlimit:10;}
	.st3{fill:none;stroke:#0043CE;stroke-width:2.3165;stroke-miterlimit:10;}
	.st4{fill:none;stroke:#0F62FE;stroke-width:2.3165;stroke-miterlimit:10;}
</style>
<g id="Text">
	<path class="st0" d="M49.4,29.5V18.8H56V20h-5.2v3.6h4.9v1.1h-4.9v3.7H56v1.1L49.4,29.5z"/>
	<path class="st0" d="M58.2,29.5v-7.9h1.2v1.3h0.1c0.2-0.4,0.5-0.8,0.8-1.1c0.4-0.3,0.9-0.4,1.4-0.4c0.7,0,1.4,0.3,1.9,0.8
		c0.5,0.6,0.8,1.4,0.7,2.2v5.1h-1.2v-4.9c0-1.4-0.6-2.1-1.8-2.1c-0.2,0-0.5,0-0.7,0.1c-0.2,0.1-0.4,0.2-0.6,0.3
		c-0.2,0.1-0.3,0.3-0.4,0.5c-0.1,0.2-0.2,0.4-0.2,0.7v5.5L58.2,29.5z"/>
	<path class="st0" d="M72.7,29.5c-0.4,0-0.7-0.1-1-0.4c-0.2-0.3-0.3-0.6-0.4-0.9h-0.1c-0.1,0.5-0.5,0.8-0.9,1.1
		c-0.4,0.3-0.9,0.4-1.4,0.4c-0.7,0-1.4-0.2-2-0.6c-0.5-0.5-0.7-1.1-0.7-1.8c0-0.7,0.3-1.3,0.8-1.7c0.8-0.5,1.7-0.7,2.6-0.6h1.6v-0.8
		c0-0.5-0.1-0.9-0.5-1.3c-0.4-0.3-0.9-0.5-1.4-0.4c-0.4,0-0.8,0.1-1.2,0.3c-0.3,0.2-0.6,0.5-0.8,0.9L66.7,23c0.2-0.5,0.6-0.8,1-1.1
		c0.5-0.3,1.2-0.5,1.8-0.5c0.8-0.1,1.6,0.2,2.2,0.7c0.5,0.5,0.8,1.2,0.8,2v4.3h0.9v1.1L72.7,29.5z M69.2,28.7c0.3,0,0.6,0,0.8-0.1
		c0.2-0.1,0.5-0.2,0.7-0.3c0.2-0.1,0.3-0.3,0.4-0.5c0.1-0.2,0.2-0.4,0.2-0.6v-1.3h-1.6c-0.5,0-1.1,0.1-1.5,0.3
		c-0.3,0.2-0.5,0.5-0.5,0.9v0.3c0,0.4,0.1,0.7,0.4,0.9C68.4,28.6,68.8,28.7,69.2,28.7z"/>
	<path class="st0" d="M75.2,18.2h1.2v4.7h0.1c0.2-0.5,0.5-0.8,0.9-1.1c0.4-0.2,0.9-0.4,1.4-0.4c0.5,0,0.9,0.1,1.3,0.3
		c0.4,0.2,0.7,0.5,1,0.8c0.3,0.4,0.5,0.8,0.6,1.3c0.3,1.1,0.3,2.3,0,3.4c-0.1,0.5-0.3,0.9-0.6,1.3c-0.3,0.4-0.6,0.6-1,0.8
		c-0.4,0.2-0.9,0.3-1.3,0.3c-1,0-1.9-0.5-2.3-1.5h-0.1v1.3h-1.2V18.2z M78.4,28.6c0.6,0,1.2-0.2,1.6-0.7c0.4-0.5,0.6-1.1,0.6-1.7
		v-1.4c0-0.6-0.2-1.2-0.6-1.7c-0.4-0.4-1-0.7-1.6-0.7c-0.3,0-0.5,0-0.8,0.1c-0.2,0.1-0.5,0.2-0.7,0.3c-0.2,0.1-0.3,0.3-0.4,0.5
		c-0.1,0.2-0.2,0.4-0.2,0.6v3c0,0.2,0.1,0.5,0.2,0.7c0.1,0.2,0.3,0.4,0.4,0.5c0.2,0.1,0.4,0.3,0.7,0.3
		C77.9,28.6,78.2,28.6,78.4,28.6L78.4,28.6z"/>
	<path class="st0" d="M85.4,29.5c-0.4,0-0.7-0.1-1-0.4c-0.2-0.3-0.3-0.6-0.3-0.9V18.2h1.2v10.3h1.2v1.1L85.4,29.5z"/>
	<path class="st0" d="M91.2,29.7c-0.5,0-1-0.1-1.5-0.3c-0.4-0.2-0.8-0.5-1.1-0.8c-0.3-0.4-0.6-0.8-0.7-1.3c-0.3-1.1-0.3-2.3,0-3.4
		c0.2-0.5,0.4-0.9,0.7-1.3c0.3-0.4,0.7-0.6,1.1-0.8c0.5-0.2,1-0.3,1.5-0.3c0.5,0,1,0.1,1.4,0.3c0.4,0.2,0.8,0.5,1.1,0.8
		c0.3,0.4,0.5,0.8,0.7,1.2c0.2,0.5,0.2,1,0.2,1.5v0.6h-5.7v0.4c0,0.3,0.1,0.6,0.2,0.9c0.1,0.3,0.3,0.5,0.5,0.8
		c0.2,0.2,0.5,0.4,0.7,0.5c0.3,0.1,0.7,0.2,1,0.2c0.5,0,0.9-0.1,1.3-0.4c0.4-0.2,0.7-0.6,0.9-1l0.9,0.6c-0.3,0.5-0.7,1-1.2,1.3
		C92.6,29.6,91.9,29.7,91.2,29.7z M91.2,22.5c-0.3,0-0.6,0.1-0.9,0.2c-0.3,0.1-0.5,0.3-0.7,0.5c-0.2,0.2-0.4,0.5-0.5,0.8
		c-0.1,0.3-0.2,0.6-0.2,1v0.1h4.4v-0.2c0-0.6-0.2-1.2-0.6-1.7C92.3,22.7,91.8,22.4,91.2,22.5z"/>
	<path class="st0" d="M100.9,19.8c-0.2,0-0.4,0-0.6-0.2c-0.1-0.1-0.2-0.3-0.2-0.5v-0.2c0-0.2,0.1-0.4,0.2-0.5c0.3-0.3,0.8-0.3,1.2,0
		c0.1,0.1,0.2,0.3,0.2,0.5v0.2c0,0.2-0.1,0.4-0.2,0.5C101.3,19.7,101.1,19.8,100.9,19.8z M100.3,21.6h1.2v7.9h-1.2V21.6z"/>
	<path class="st0" d="M104.1,29.5v-7.9h1.2v1.3h0.1c0.2-0.4,0.5-0.8,0.8-1.1c0.4-0.3,0.9-0.4,1.4-0.4c0.7,0,1.4,0.3,1.9,0.8
		c0.5,0.6,0.8,1.4,0.7,2.2v5.1h-1.2v-4.9c0-1.4-0.6-2.1-1.8-2.1c-0.2,0-0.5,0-0.7,0.1c-0.2,0.1-0.4,0.2-0.6,0.3
		c-0.2,0.1-0.3,0.3-0.4,0.5c-0.1,0.2-0.2,0.4-0.2,0.7v5.5L104.1,29.5z"/>
	<path class="st0" d="M115.2,29.7c-0.6,0-1.3-0.1-1.8-0.4c-0.5-0.3-0.9-0.7-1.3-1.1l0.9-0.7c0.3,0.4,0.6,0.7,1,0.9
		c0.4,0.2,0.9,0.3,1.3,0.3c0.4,0,0.9-0.1,1.2-0.3c0.5-0.4,0.6-1.2,0.2-1.7c0,0,0,0,0,0c-0.3-0.3-0.7-0.4-1.1-0.5l-0.6-0.1
		c-0.3,0-0.7-0.1-1-0.2c-0.3-0.1-0.6-0.2-0.8-0.4c-0.2-0.2-0.4-0.4-0.5-0.7c-0.1-0.3-0.2-0.6-0.2-1c0-0.4,0.1-0.7,0.2-1
		c0.1-0.3,0.3-0.5,0.6-0.7c0.3-0.2,0.6-0.4,0.9-0.4c0.4-0.1,0.7-0.1,1.1-0.1c0.6,0,1.1,0.1,1.6,0.3c0.4,0.2,0.8,0.5,1.1,0.9
		l-0.8,0.7c-0.5-0.6-1.2-1-2-1c-0.4,0-0.8,0.1-1.2,0.3c-0.3,0.2-0.4,0.6-0.4,0.9c0,0.3,0.1,0.7,0.4,0.8c0.3,0.2,0.7,0.3,1.1,0.4
		l0.6,0.1c0.7,0.1,1.3,0.3,1.9,0.8c0.4,0.4,0.6,0.9,0.6,1.5c0,0.7-0.3,1.4-0.8,1.8C116.7,29.5,116,29.8,115.2,29.7z"/>
	<path class="st0" d="M120.9,19.8c-0.2,0-0.4,0-0.6-0.2c-0.1-0.1-0.2-0.3-0.2-0.5v-0.2c0-0.2,0.1-0.4,0.2-0.5c0.3-0.3,0.8-0.3,1.2,0
		c0.1,0.1,0.2,0.3,0.2,0.5v0.2c0,0.2-0.1,0.4-0.2,0.5C121.3,19.7,121.1,19.8,120.9,19.8z M120.3,21.6h1.2v7.9h-1.2V21.6z"/>
	<path class="st0" d="M130.8,30.4c0,0.7-0.3,1.4-1,1.8c-0.9,0.4-1.9,0.6-2.9,0.6c-0.9,0.1-1.8-0.1-2.7-0.5c-0.5-0.3-0.8-0.8-0.8-1.4
		c0-0.4,0.1-0.7,0.3-1c0.3-0.3,0.6-0.4,0.9-0.5v-0.2c-0.4-0.2-0.7-0.6-0.7-1.1c0-0.3,0.1-0.7,0.4-0.9c0.3-0.2,0.6-0.4,1-0.5v-0.1
		c-0.5-0.2-0.8-0.5-1.1-1c-0.3-0.4-0.4-0.9-0.4-1.5c0-0.4,0.1-0.8,0.2-1.1c0.1-0.3,0.3-0.6,0.6-0.9c0.3-0.2,0.6-0.4,0.9-0.6
		c0.9-0.3,1.9-0.3,2.7,0.1v-0.1c0-0.3,0.1-0.5,0.2-0.8c0.2-0.2,0.4-0.3,0.7-0.3h1.2v1.1H129v0.5c0.3,0.2,0.5,0.5,0.7,0.9
		c0.2,0.4,0.2,0.8,0.2,1.2c0,0.4-0.1,0.8-0.2,1.1c-0.1,0.3-0.3,0.6-0.6,0.9c-0.3,0.2-0.6,0.4-0.9,0.6c-0.4,0.1-0.8,0.2-1.2,0.2
		c-0.3,0-0.5,0-0.8-0.1c-0.3,0.1-0.5,0.2-0.7,0.3c-0.2,0.1-0.3,0.3-0.3,0.6c0,0.2,0.1,0.4,0.3,0.5c0.3,0.1,0.6,0.1,0.9,0.1h1.7
		c0.8-0.1,1.5,0.1,2.1,0.6C130.6,29.3,130.8,29.8,130.8,30.4z M129.7,30.5c0-0.3-0.1-0.6-0.4-0.8c-0.4-0.2-0.8-0.3-1.3-0.3h-2.6
		c-0.4,0.2-0.7,0.6-0.7,1.1c0,0.3,0.1,0.7,0.4,0.9c0.4,0.3,0.9,0.4,1.3,0.4h1.1c0.6,0,1.1-0.1,1.6-0.3
		C129.5,31.3,129.7,30.9,129.7,30.5L129.7,30.5z M126.9,25.9c0.4,0,0.9-0.1,1.2-0.4c0.3-0.3,0.5-0.7,0.5-1.2V24
		c0-0.4-0.1-0.9-0.5-1.2c-0.8-0.5-1.7-0.5-2.5,0c-0.3,0.3-0.5,0.7-0.5,1.2v0.4c0,0.4,0.1,0.9,0.5,1.2C126,25.8,126.5,26,126.9,25.9
		L126.9,25.9z"/>
	<path class="st0" d="M132.2,18.2h1.2v4.7h0.1c0.2-0.4,0.5-0.8,0.8-1.1c0.4-0.3,0.9-0.4,1.4-0.4c0.7,0,1.4,0.3,1.9,0.8
		c0.5,0.6,0.8,1.4,0.7,2.2v5.1h-1.2v-4.9c0-1.4-0.6-2.1-1.8-2.1c-0.2,0-0.5,0-0.7,0.1c-0.2,0.1-0.4,0.2-0.6,0.3
		c-0.2,0.1-0.3,0.3-0.4,0.5c-0.1,0.2-0.2,0.4-0.2,0.7v5.5h-1.2V18.2z"/>
	<path class="st0" d="M142.7,29.5c-0.4,0-0.7-0.1-1-0.4c-0.2-0.3-0.3-0.6-0.3-0.9v-5.5h-1.3v-1.1h0.7c0.2,0,0.4,0,0.5-0.2
		c0.1-0.2,0.2-0.4,0.1-0.6v-1.5h1.1v2.2h1.7v1.1h-1.7v5.7h1.6v1.1L142.7,29.5z"/>
	<path class="st0" d="M148.7,29.7c-0.6,0-1.3-0.1-1.8-0.4c-0.5-0.3-0.9-0.7-1.3-1.1l0.9-0.7c0.3,0.4,0.6,0.7,1,0.9
		c0.4,0.2,0.9,0.3,1.3,0.3c0.4,0,0.9-0.1,1.2-0.3c0.5-0.4,0.6-1.2,0.2-1.7c0,0,0,0,0,0c-0.3-0.3-0.7-0.4-1.1-0.5l-0.6-0.1
		c-0.3,0-0.7-0.1-1-0.2c-0.3-0.1-0.6-0.2-0.8-0.4c-0.2-0.2-0.4-0.4-0.5-0.7c-0.1-0.3-0.2-0.6-0.2-1c0-0.4,0.1-0.7,0.2-1
		c0.1-0.3,0.3-0.5,0.6-0.7c0.3-0.2,0.6-0.4,0.9-0.4c0.4-0.1,0.7-0.1,1.1-0.1c0.6,0,1.1,0.1,1.6,0.3c0.4,0.2,0.8,0.5,1.1,0.9
		l-0.8,0.7c-0.5-0.6-1.2-1-2-1c-0.4,0-0.8,0.1-1.2,0.3c-0.3,0.2-0.4,0.6-0.4,0.9c0,0.3,0.1,0.7,0.4,0.8c0.3,0.2,0.7,0.3,1.1,0.4
		l0.6,0.1c0.7,0.1,1.3,0.3,1.9,0.8c0.4,0.4,0.6,0.9,0.6,1.5c0,0.7-0.3,1.4-0.8,1.8C150.3,29.5,149.5,29.8,148.7,29.7z"/>
	<path class="st1" d="M18.1,27.1c0.4,0.1,0.7,0.1,1.1,0.1c0.9,0,1.8-0.3,2.6-0.8l3.7,3.3c-0.6,1.1-0.7,2.5-0.2,3.7
		c0.8,2.4,3.5,3.7,5.9,2.9c2.4-0.8,3.7-3.5,2.9-5.9c-0.3-0.8-0.7-1.5-1.4-2l2.9-5.9c1.2,0.3,2.4,0,3.4-0.6c2.2-1.3,2.9-4.2,1.5-6.4
		s-4.2-2.9-6.4-1.5s-2.9,4.2-1.5,6.4c0.3,0.4,0.6,0.8,0.9,1.1l-2.9,5.9c-0.3-0.1-0.6-0.1-1-0.1c-0.9,0-1.8,0.3-2.6,0.8l-3.7-3.3
		c0.6-1.1,0.7-2.5,0.2-3.7c-0.8-2.4-3.5-3.7-5.9-2.9C15.3,19,14,21.6,14.8,24c0.3,0.7,0.7,1.4,1.3,1.9l-5,9.3V8.7H8.8v30.1
		c0,1.3,1,2.3,2.3,2.3c0,0,0,0,0,0h30.1v-2.3H11.9L18.1,27.1z M36.6,15.6c1.3,0,2.3,1,2.3,2.3c0,1.3-1,2.3-2.3,2.3
		c-1.3,0-2.3-1-2.3-2.3c0,0,0,0,0,0C34.3,16.7,35.3,15.6,36.6,15.6z M32,31.8c0,1.3-1,2.3-2.3,2.3c-1.3,0-2.3-1-2.3-2.3
		c0-1.3,1-2.3,2.3-2.3C30.9,29.5,32,30.6,32,31.8C32,31.8,32,31.8,32,31.8z M19.2,20.3c1.3,0,2.3,1,2.3,2.3s-1,2.3-2.3,2.3
		s-2.3-1-2.3-2.3l0,0C16.9,21.3,17.9,20.3,19.2,20.3L19.2,20.3z"/>
	<path class="st2" d="M22.7,22.6c0,1.9-1.6,3.5-3.5,3.5s-3.5-1.6-3.5-3.5c0-1.9,1.6-3.5,3.5-3.5c0,0,0,0,0,0
		C21.2,19.1,22.7,20.7,22.7,22.6z"/>
	<path class="st3" d="M33.1,31.8c0,1.9-1.6,3.5-3.5,3.5c-1.9,0-3.5-1.6-3.5-3.5s1.6-3.5,3.5-3.5S33.1,29.9,33.1,31.8L33.1,31.8z"/>
	<path class="st4" d="M40.1,18c0,1.9-1.6,3.5-3.5,3.5c-1.9,0-3.5-1.6-3.5-3.5s1.6-3.5,3.5-3.5c0,0,0,0,0,0
		C38.5,14.5,40.1,16,40.1,18z"/>
</g>
</svg>
