<svg id="Layer_1" data-name="Layer 1" xmlns="http://www.w3.org/2000/svg" width="250" height="100" viewBox="0 0 250 100"><defs><style>.cls-1{fill:#242b66;}.cls-2{fill:#525352;}.cls-3,.cls-4{fill:none;}.cls-4{stroke:#242b66;stroke-miterlimit:10;stroke-width:1.968px;}</style></defs><path class="cls-1" d="M45.8867,22.584V21.2061H47.082V14.8882H45.8867V13.51h4.1211v1.3784h-1.209v6.3179h1.209V22.584Z"/><path class="cls-1" d="M51.7617,13.51h4.1992a2.8362,2.8362,0,0,1,1.0078.1694,2.2071,2.2071,0,0,1,.7608.4678,1.931,1.931,0,0,1,.4736.7343,2.6909,2.6909,0,0,1,.1631.9556,2.5,2.5,0,0,1-.1357.8775,1.7147,1.7147,0,0,1-.3653.5918,1.49,1.49,0,0,1-.52.351,1.8328,1.8328,0,0,1-.6045.13v.0776a2.0061,2.0061,0,0,1,.6436.1172,1.91,1.91,0,0,1,.6367.3706,2.046,2.046,0,0,1,.4883.65,2.23,2.23,0,0,1,.1943.9815,2.9133,2.9133,0,0,1-.1748,1.0205,2.5566,2.5566,0,0,1-.4883.8257,2.27,2.27,0,0,1-.74.5522,2.1735,2.1735,0,0,1-.9365.2017H51.7617Zm1.7168,3.7832h2.1192a.9982.9982,0,0,0,.7275-.2534.9466.9466,0,0,0,.2607-.7085v-.4029a.9458.9458,0,0,0-.2607-.7085.9964.9964,0,0,0-.7275-.2539H53.4785Zm0,3.8349H55.87a1.0834,1.0834,0,0,0,.7666-.2534A.9507.9507,0,0,0,56.91,20.14v-.4423a.9728.9728,0,0,0-.2735-.7408,1.0667,1.0667,0,0,0-.7666-.26H53.4785Z"/><path class="cls-1" d="M67.2324,16.0708H67.18l-.7012,1.4434-1.8594,3.4316L62.76,17.5142l-.7012-1.4434h-.0527V22.584h-1.625V13.51h1.9375l2.3261,4.4331h.0528L66.998,13.51h1.8594V22.584h-1.625Z"/><path class="cls-1" d="M70.6768,19.4512V17.8h3.7177v1.6514Z"/><path class="cls-1" d="M76.1113,22.584V15.7979h1.6641v1.1313H77.84a2.1979,2.1979,0,0,1,.6241-.91,1.7513,1.7513,0,0,1,1.1963-.3769,2.1306,2.1306,0,0,1,1.2089.3379,1.9969,1.9969,0,0,1,.7539,1.0268h.0254a1.9055,1.9055,0,0,1,.7227-.9682,2.2321,2.2321,0,0,1,1.3574-.3965,1.8408,1.8408,0,0,1,1.541.689,3.1238,3.1238,0,0,1,.5391,1.9628v4.29H84.1445V18.4629q0-1.4553-1.0918-1.4561a1.5766,1.5766,0,0,0-.4746.0718,1.2608,1.2608,0,0,0-.4023.208.9917.9917,0,0,0-.2793.3379,1.01,1.01,0,0,0-.1045.4746V22.584H80.1279V18.4629q0-1.4553-1.0918-1.4561a1.5321,1.5321,0,0,0-.4619.0718,1.2608,1.2608,0,0,0-.4023.208,1.0868,1.0868,0,0,0-.2871.3379.9758.9758,0,0,0-.1094.4746V22.584Z"/><path class="cls-1" d="M92.6465,22.584a1.1678,1.1678,0,0,1-.8643-.3184,1.4663,1.4663,0,0,1-.3965-.8515h-.0771a1.6,1.6,0,0,1-.6895.9946,2.3523,2.3523,0,0,1-1.2871.331,2.201,2.201,0,0,1-1.6-.5439,1.9356,1.9356,0,0,1-.5586-1.4517,1.7605,1.7605,0,0,1,.7539-1.5615,3.8016,3.8016,0,0,1,2.1446-.5117h1.1582v-.4941a1.2233,1.2233,0,0,0-.3-.8838,1.2844,1.2844,0,0,0-.962-.312,1.5959,1.5959,0,0,0-.9423.2534,2.4916,2.4916,0,0,0-.6045.6045l-.9883-.8892a2.874,2.874,0,0,1,1.0019-.9477,3.29,3.29,0,0,1,1.65-.36,3.1019,3.1019,0,0,1,2.0928.6225,2.2461,2.2461,0,0,1,.7158,1.79v3.1909H93.57V22.584Zm-2.7559-1.0532a1.7458,1.7458,0,0,0,.9492-.2452.8012.8012,0,0,0,.3907-.7231v-.8906H90.1641q-1.3008,0-1.3008.8266v.2193a.7176.7176,0,0,0,.2676.6133A1.2465,1.2465,0,0,0,89.8906,21.5308Z"/><path class="cls-1" d="M94.9219,22.584V15.7979h1.664v1.1313H96.65a2.1688,2.1688,0,0,1,.6562-.9165,1.8944,1.8944,0,0,1,1.2422-.3706,1.9553,1.9553,0,0,1,1.6114.689,3.0417,3.0417,0,0,1,.5585,1.9628v4.29h-1.663V18.4629a1.875,1.875,0,0,0-.2608-1.0918.98.98,0,0,0-.8574-.3643,1.7361,1.7361,0,0,0-.5.0718,1.3849,1.3849,0,0,0-.43.208,1.08,1.08,0,0,0-.3047.3379.9275.9275,0,0,0-.1172.4746V22.584Z"/><path class="cls-1" d="M107.5576,22.584a1.1661,1.1661,0,0,1-.8642-.3184,1.46,1.46,0,0,1-.3965-.8515h-.0782a1.5952,1.5952,0,0,1-.6894.9946,2.35,2.35,0,0,1-1.2871.331,2.1965,2.1965,0,0,1-1.5986-.5439,1.9359,1.9359,0,0,1-.56-1.4517,1.76,1.76,0,0,1,.7539-1.5615,3.8069,3.8069,0,0,1,2.1455-.5117h1.1572v-.4941a1.2273,1.2273,0,0,0-.2988-.8838,1.2852,1.2852,0,0,0-.9629-.312,1.5951,1.5951,0,0,0-.9414.2534,2.5154,2.5154,0,0,0-.6055.6045l-.9873-.8892a2.8636,2.8636,0,0,1,1.001-.9477,3.2921,3.2921,0,0,1,1.65-.36,3.1027,3.1027,0,0,1,2.0937.6225,2.2456,2.2456,0,0,1,.7149,1.79v3.1909h.6758V22.584Zm-2.7558-1.0532a1.7451,1.7451,0,0,0,.9482-.2452.7994.7994,0,0,0,.3906-.7231v-.8906h-1.0664q-1.2993,0-1.3.8266v.2193a.7173.7173,0,0,0,.2666.6133A1.25,1.25,0,0,0,104.8018,21.5308Z"/><path class="cls-1" d="M115.9551,23.1558a2.2426,2.2426,0,0,1-.1875.9428,1.6022,1.6022,0,0,1-.6182.6822,3.3426,3.3426,0,0,1-1.1045.416,9.634,9.634,0,0,1-3.1074.0327,3.4843,3.4843,0,0,1-.9814-.312,1.2961,1.2961,0,0,1-.5518-.5,1.3447,1.3447,0,0,1-.17-.6758,1.2051,1.2051,0,0,1,.3183-.8906,1.575,1.575,0,0,1,.8907-.41v-.143a1.0982,1.0982,0,0,1-.6426-.41,1.1712,1.1712,0,0,1-.2285-.7222.995.995,0,0,1,.1045-.4624,1.08,1.08,0,0,1,.2793-.3452,1.7281,1.7281,0,0,1,.3964-.24,2.3383,2.3383,0,0,1,.4678-.15v-.0523a2.0359,2.0359,0,0,1-.93-.7925,2.2476,2.2476,0,0,1-.3047-1.1821,2.1164,2.1164,0,0,1,.7149-1.6689,3.0753,3.0753,0,0,1,2.0928-.63,4.8243,4.8243,0,0,1,.6181.0391,2.7611,2.7611,0,0,1,.5645.13V15.59a.8621.8621,0,0,1,.9629-.9877h1.0527V15.876h-1.4434v.1821a1.9674,1.9674,0,0,1,.793.78,2.2822,2.2822,0,0,1,.26,1.105,2.0932,2.0932,0,0,1-.708,1.6509,3.094,3.094,0,0,1-2.1.624,4.0879,4.0879,0,0,1-1.04-.1167,1.1268,1.1268,0,0,0-.3379.24.5149.5149,0,0,0-.1426.3706q0,.5069.8838.5069h1.8194a2.6537,2.6537,0,0,1,1.8144.5136A1.8256,1.8256,0,0,1,115.9551,23.1558Zm-1.56.1953a.5857.5857,0,0,0-.26-.5073,1.6373,1.6373,0,0,0-.8974-.1817h-2.3135a.8268.8268,0,0,0-.3506.7017.699.699,0,0,0,.3242.6113,2.0545,2.0545,0,0,0,1.1055.2207h.832a2.5485,2.5485,0,0,0,1.19-.208A.684.684,0,0,0,114.3955,23.3511Zm-2.0019-4.2769q1.2216,0,1.2216-1.0342v-.22q0-1.0341-1.2216-1.0342T111.1719,17.82v.22Q111.1719,19.0743,112.3936,19.0742Z"/><path class="cls-1" d="M119.582,22.74a3.391,3.391,0,0,1-1.3457-.2534,2.7746,2.7746,0,0,1-1-.7148,3.1908,3.1908,0,0,1-.6308-1.1182,5.041,5.041,0,0,1-.0059-2.9311,3.166,3.166,0,0,1,.6172-1.1118,2.7227,2.7227,0,0,1,.9883-.7149,3.3,3.3,0,0,1,1.3252-.2534,3.2288,3.2288,0,0,1,1.3779.2729,2.66,2.66,0,0,1,.9629.7408,3.2113,3.2113,0,0,1,.5644,1.0859,4.483,4.483,0,0,1,.1895,1.3193v.5459h-4.5117v.168a1.6594,1.6594,0,0,0,.416,1.1807,1.609,1.609,0,0,0,1.2353.4453,1.8422,1.8422,0,0,0,1.0206-.2578,2.9446,2.9446,0,0,0,.7089-.6582l.8965,1.0039a2.7879,2.7879,0,0,1-1.1377.9189A3.963,3.963,0,0,1,119.582,22.74Zm-.0254-5.85a1.3328,1.3328,0,0,0-1.0527.4419,1.6668,1.6668,0,0,0-.3906,1.1441v.104h2.7822v-.1172a1.7794,1.7794,0,0,0-.3447-1.1372A1.1914,1.1914,0,0,0,119.5566,16.89Z"/><path class="cls-1" d="M128.3047,21.4531H128.24a1.74,1.74,0,0,1-.6894.9361,2.0272,2.0272,0,0,1-1.1826.3505,2.2988,2.2988,0,0,1-1.97-.9228,4.3811,4.3811,0,0,1-.6816-2.6387,4.3251,4.3251,0,0,1,.6816-2.62,2.3052,2.3052,0,0,1,1.97-.9165,2.0546,2.0546,0,0,1,1.1826.3442,1.7074,1.7074,0,0,1,.6894.93h.0645V12.9639h1.664v9.62h-1.664Zm-1.4033-.0913a1.6877,1.6877,0,0,0,1.0009-.2856.944.944,0,0,0,.4024-.8194V18.0991a.9387.9387,0,0,0-.4024-.7929,1.6338,1.6338,0,0,0-1.0009-.2994,1.3457,1.3457,0,0,0-1.0459.4356,1.6559,1.6559,0,0,0-.3965,1.1636v1.17a1.6323,1.6323,0,0,0,.3965,1.1572A1.3556,1.3556,0,0,0,126.9014,21.3618Z"/><path class="cls-2" d="M52.7334,31.2266h-.06l-.6845,1.38-1.92,3.5162-1.92-3.5162-.6836-1.38h-.0605v6.768h-1.128V29.6187h1.4639l2.3281,4.4038h.0479l2.3281-4.4038h1.416v8.3759H52.7334Z"/><path class="cls-2" d="M58.3135,38.1387a2.8678,2.8678,0,0,1-1.1582-.2281,2.5038,2.5038,0,0,1-.8936-.6538,3.01,3.01,0,0,1-.5762-1.0263,4.5272,4.5272,0,0,1,0-2.688,3.0138,3.0138,0,0,1,.5762-1.0259,2.5038,2.5038,0,0,1,.8936-.6538,3.0557,3.0557,0,0,1,2.3164,0,2.5034,2.5034,0,0,1,.8935.6538,3.01,3.01,0,0,1,.5762,1.0259,4.5272,4.5272,0,0,1,0,2.688,3.0067,3.0067,0,0,1-.5762,1.0263,2.5034,2.5034,0,0,1-.8935.6538A2.8651,2.8651,0,0,1,58.3135,38.1387Zm0-.96a1.6079,1.6079,0,0,0,1.1885-.456,1.8594,1.8594,0,0,0,.456-1.3682v-.936a1.8588,1.8588,0,0,0-.456-1.3677,1.7752,1.7752,0,0,0-2.376,0,1.8546,1.8546,0,0,0-.4561,1.3677v.936a1.8553,1.8553,0,0,0,.4561,1.3682A1.604,1.604,0,0,0,58.3135,37.1787Z"/><path class="cls-2" d="M62.6689,37.9946V31.7788h1.1163v1.0083h.06a2.0208,2.0208,0,0,1,.63-.8315,1.7839,1.7839,0,0,1,1.1221-.3208,1.897,1.897,0,0,1,1.5058.624,2.5972,2.5972,0,0,1,.5459,1.7637v3.9721H66.5332V34.1821q0-1.5871-1.3076-1.5874a1.9634,1.9634,0,0,0-.5342.0723,1.5594,1.5594,0,0,0-.4619.21,1.0341,1.0341,0,0,0-.3242.3487.9892.9892,0,0,0-.12.499v4.27Z"/><path class="cls-2" d="M70.1094,30.4824a.6779.6779,0,0,1-.51-.1679.6105.6105,0,0,1-.1621-.4439v-.168a.61.61,0,0,1,.1621-.4438.8573.8573,0,0,1,1.02,0,.61.61,0,0,1,.1621.4438v.168a.6105.6105,0,0,1-.1621.4439A.6791.6791,0,0,1,70.1094,30.4824Zm-.5645,1.2964h1.1162v6.2158H69.5449Z"/><path class="cls-2" d="M74.1533,37.9946a1.1494,1.1494,0,0,1-.876-.3174,1.1932,1.1932,0,0,1-.3-.8559V32.7388h-.9961v-.96h.5518a.5664.5664,0,0,0,.4316-.1323.6543.6543,0,0,0,.12-.4439v-1.14h1.0087v1.7163h1.3311v.96H74.0937v4.2959h1.2354v.96Z"/><path class="cls-2" d="M79.2529,38.1387a2.8685,2.8685,0,0,1-1.1582-.2281,2.5034,2.5034,0,0,1-.8935-.6538,3.0067,3.0067,0,0,1-.5762-1.0263,4.5272,4.5272,0,0,1,0-2.688,3.01,3.01,0,0,1,.5762-1.0259,2.5034,2.5034,0,0,1,.8935-.6538,3.0557,3.0557,0,0,1,2.3164,0,2.5038,2.5038,0,0,1,.8936.6538,3.0138,3.0138,0,0,1,.5762,1.0259,4.5272,4.5272,0,0,1,0,2.688,3.01,3.01,0,0,1-.5762,1.0263,2.5038,2.5038,0,0,1-.8936.6538A2.8644,2.8644,0,0,1,79.2529,38.1387Zm0-.96a1.6079,1.6079,0,0,0,1.1885-.456,1.8594,1.8594,0,0,0,.4561-1.3682v-.936a1.8588,1.8588,0,0,0-.4561-1.3677,1.7752,1.7752,0,0,0-2.376,0,1.8546,1.8546,0,0,0-.456,1.3677v.936a1.8553,1.8553,0,0,0,.456,1.3682A1.604,1.604,0,0,0,79.2529,37.1787Z"/><path class="cls-2" d="M83.6094,37.9946V31.7788h1.1162v1.188h.06a1.7554,1.7554,0,0,1,.2158-.4443,1.5368,1.5368,0,0,1,.36-.378,1.844,1.844,0,0,1,.51-.2636,2.029,2.029,0,0,1,.666-.1021h.3721v1.1157h-.5518a2.1761,2.1761,0,0,0-1.206.2823.8515.8515,0,0,0-.4258.7378v4.08Z"/><path class="cls-2" d="M94.77,31.7788h1.08l-2.7,7.5718a3.2118,3.2118,0,0,1-.2285.4922,1.0052,1.0052,0,0,1-.2939.3237,1.1783,1.1783,0,0,1-.4141.1743,2.8119,2.8119,0,0,1-.6.0537H91.001v-.96h1.02l.42-1.1983-2.3037-6.4575h1.1152l1.38,3.9639.3242,1.1616h.0606l.3594-1.1616Z"/><path class="cls-2" d="M99.3291,38.1387a2.8682,2.8682,0,0,1-1.1582-.2281,2.5038,2.5038,0,0,1-.8936-.6538,3.0082,3.0082,0,0,1-.5761-1.0263,4.5272,4.5272,0,0,1,0-2.688,3.0119,3.0119,0,0,1,.5761-1.0259,2.5038,2.5038,0,0,1,.8936-.6538,3.0557,3.0557,0,0,1,2.3164,0,2.5038,2.5038,0,0,1,.8936.6538,3.0119,3.0119,0,0,1,.5761,1.0259,4.5272,4.5272,0,0,1,0,2.688,3.0082,3.0082,0,0,1-.5761,1.0263,2.5038,2.5038,0,0,1-.8936.6538A2.8651,2.8651,0,0,1,99.3291,38.1387Zm0-.96a1.6079,1.6079,0,0,0,1.1885-.456,1.8594,1.8594,0,0,0,.456-1.3682v-.936a1.8588,1.8588,0,0,0-.456-1.3677,1.7752,1.7752,0,0,0-2.376,0,1.8546,1.8546,0,0,0-.4561,1.3677v.936a1.8553,1.8553,0,0,0,.4561,1.3682A1.604,1.604,0,0,0,99.3291,37.1787Z"/><path class="cls-2" d="M107.4893,36.9863h-.0606a2.1167,2.1167,0,0,1-.2217.4336,1.5206,1.5206,0,0,1-.3476.3682,1.701,1.701,0,0,1-.4981.2554,2.1493,2.1493,0,0,1-.6728.0952,1.9146,1.9146,0,0,1-1.5117-.6241,2.5743,2.5743,0,0,1-.5518-1.7641V31.7788h1.1162v3.8125q0,1.5872,1.3193,1.5874a2.0846,2.0846,0,0,0,.5225-.0664,1.3223,1.3223,0,0,0,.4561-.21,1.173,1.173,0,0,0,.3242-.36.9876.9876,0,0,0,.126-.5054V31.7788h1.1152v6.2158h-1.1152Z"/><path class="cls-2" d="M110.5732,37.9946V31.7788H111.69v1.188h.0595a1.7588,1.7588,0,0,1,.2158-.4443,1.5372,1.5372,0,0,1,.36-.378,1.8425,1.8425,0,0,1,.51-.2636,2.0281,2.0281,0,0,1,.666-.1021h.372v1.1157h-.5517a2.1767,2.1767,0,0,0-1.2061.2823.8517.8517,0,0,0-.4257.7378v4.08Z"/><path class="cls-2" d="M117.6162,37.9946v-.9839H118.78V30.6025h-1.1641v-.9838h3.4922v.9838h-1.1641v6.4082h1.1641v.9839Z"/><path class="cls-2" d="M122.8848,29.6187h3.5644a2.25,2.25,0,0,1,1.6436.5878,2.1,2.1,0,0,1,.6006,1.5723,2.0248,2.0248,0,0,1-.1387.792,1.7271,1.7271,0,0,1-.3418.5337,1.4067,1.4067,0,0,1-.4561.3184,1.68,1.68,0,0,1-.48.1318v.0718a1.8453,1.8453,0,0,1,.5332.12,1.76,1.76,0,0,1,.5586.3423,1.8525,1.8525,0,0,1,.4375.6,2.0675,2.0675,0,0,1,.1739.894,2.6351,2.6351,0,0,1-.168.9541,2.4441,2.4441,0,0,1-.4561.7622,2.0977,2.0977,0,0,1-.6835.51,2.0054,2.0054,0,0,1-.8643.186h-3.9238Zm1.164,3.5878h2.22a1.242,1.242,0,0,0,.8642-.2817,1.0362,1.0362,0,0,0,.3125-.81v-.3959a1.0362,1.0362,0,0,0-.3125-.81,1.2422,1.2422,0,0,0-.8642-.2822h-2.22Zm0,3.78h2.4121a1.3532,1.3532,0,0,0,.9356-.3,1.126,1.126,0,0,0,.3369-.8877v-.42a1.1274,1.1274,0,0,0-.3369-.8877,1.3532,1.3532,0,0,0-.9356-.3h-2.4121Z"/><path class="cls-2" d="M137.2246,31.2266h-.06l-.6845,1.38-1.92,3.5162-1.92-3.5162-.6836-1.38h-.06v6.768h-1.1279V29.6187h1.4638l2.3281,4.4038h.0479l2.3281-4.4038h1.416v8.3759h-1.1279Z"/><path class="cls-2" d="M146.3809,38.1387a3.1021,3.1021,0,0,1-2.5264-1.11,4.9464,4.9464,0,0,1-.918-3.2222,4.9471,4.9471,0,0,1,.918-3.2221,3.1021,3.1021,0,0,1,2.5264-1.11,3.2114,3.2114,0,0,1,1.7939.4746,3.13,3.13,0,0,1,1.1338,1.3736l-.96.5517a2.231,2.231,0,0,0-.7256-.9961,2.2185,2.2185,0,0,0-2.8564.3389,2.9934,2.9934,0,0,0-.582,1.9512v1.2763a2.9934,2.9934,0,0,0,.582,1.9512,1.9726,1.9726,0,0,0,1.6143.71,2.02,2.02,0,0,0,1.29-.4018,2.3452,2.3452,0,0,0,.75-1.05l.9355.564a3.3062,3.3062,0,0,1-1.1572,1.41A3.1544,3.1544,0,0,1,146.3809,38.1387Z"/><path class="cls-2" d="M151.9365,37.9946a1.14,1.14,0,0,1-.87-.312,1.161,1.161,0,0,1-.2939-.8281v-7.74h1.1162v7.92h.8877v.96Z"/><path class="cls-2" d="M156.4971,38.1387a2.8613,2.8613,0,0,1-1.1582-.2281,2.5074,2.5074,0,0,1-.8946-.6538,3.0082,3.0082,0,0,1-.5752-1.0263,4.5272,4.5272,0,0,1,0-2.688,3.0119,3.0119,0,0,1,.5752-1.0259,2.5074,2.5074,0,0,1,.8946-.6538,3.0532,3.0532,0,0,1,2.3154,0,2.4983,2.4983,0,0,1,.8945.6538,3.0271,3.0271,0,0,1,.5762,1.0259,4.5272,4.5272,0,0,1,0,2.688,3.0233,3.0233,0,0,1-.5762,1.0263,2.4983,2.4983,0,0,1-.8945.6538A2.86,2.86,0,0,1,156.4971,38.1387Zm0-.96a1.6056,1.6056,0,0,0,1.1875-.456,1.8594,1.8594,0,0,0,.456-1.3682v-.936a1.8588,1.8588,0,0,0-.456-1.3677,1.7752,1.7752,0,0,0-2.376,0,1.8588,1.8588,0,0,0-.4561,1.3677v.936a1.8594,1.8594,0,0,0,.4561,1.3682A1.6064,1.6064,0,0,0,156.4971,37.1787Z"/><path class="cls-2" d="M164.6562,36.9863h-.06a2.1726,2.1726,0,0,1-.2227.4336,1.5206,1.5206,0,0,1-.3476.3682,1.6763,1.6763,0,0,1-.4981.2554,2.1474,2.1474,0,0,1-.6719.0952,1.9121,1.9121,0,0,1-1.5117-.6241,2.575,2.575,0,0,1-.5527-1.7641V31.7788h1.1162v3.8125q0,1.5872,1.32,1.5874a2.0768,2.0768,0,0,0,.5215-.0664,1.3223,1.3223,0,0,0,.4561-.21,1.1605,1.1605,0,0,0,.3242-.36.9875.9875,0,0,0,.1259-.5054V31.7788h1.1163v6.2158h-1.1163Z"/><path class="cls-2" d="M171.6768,36.9863h-.0479a1.6852,1.6852,0,0,1-.6787.8614,2.04,2.04,0,0,1-1.1094.291,2.3909,2.3909,0,0,1-1.05-.2222,2.1381,2.1381,0,0,1-.7861-.6479,3.0281,3.0281,0,0,1-.4922-1.0259,5.556,5.556,0,0,1,0-2.7119,3.0353,3.0353,0,0,1,.4922-1.0264,2.1482,2.1482,0,0,1,.7861-.648,2.3921,2.3921,0,0,1,1.05-.2216,2.0388,2.0388,0,0,1,1.1094.291,1.6865,1.6865,0,0,1,.6787.8613h.0479V29.1147h1.1162v8.88h-1.1162Zm-1.5118.1924a2.0087,2.0087,0,0,0,.5879-.0845,1.4937,1.4937,0,0,0,.48-.2412,1.2591,1.2591,0,0,0,.3242-.3618.89.89,0,0,0,.12-.4585v-2.292a.89.89,0,0,0-.12-.4585,1.2591,1.2591,0,0,0-.3242-.3618,1.4957,1.4957,0,0,0-.48-.2412,2.0087,2.0087,0,0,0-.5879-.0845,1.5313,1.5313,0,0,0-1.1943.4824,1.83,1.83,0,0,0-.4385,1.2789v1.0615a1.83,1.83,0,0,0,.4385,1.2788A1.531,1.531,0,0,0,170.165,37.1787Z"/><path class="cls-2" d="M177.5918,37.9946V31.7788h1.1162v1.188h.0606a1.7224,1.7224,0,0,1,.2158-.4443,1.5325,1.5325,0,0,1,.3593-.378,1.8646,1.8646,0,0,1,.5108-.2636,2.0247,2.0247,0,0,1,.666-.1021h.3721v1.1157H180.34a2.1786,2.1786,0,0,0-1.206.2823.8515.8515,0,0,0-.4258.7378v4.08Z"/><path class="cls-2" d="M184.4082,38.1387a2.8371,2.8371,0,0,1-1.17-.2339,2.5435,2.5435,0,0,1-.8877-.6543,2.9326,2.9326,0,0,1-.5645-1.02,4.6571,4.6571,0,0,1,0-2.6817,2.9311,2.9311,0,0,1,.5645-1.0263,2.541,2.541,0,0,1,.8877-.6538,2.8275,2.8275,0,0,1,1.17-.2339,2.7559,2.7559,0,0,1,1.1582.2329,2.4691,2.4691,0,0,1,.8584.64,2.7641,2.7641,0,0,1,.5273.9688,3.9284,3.9284,0,0,1,.1807,1.2075V35.15h-4.38v.2524a1.8154,1.8154,0,0,0,.4561,1.2779,1.6671,1.6671,0,0,0,1.2959.498,1.8549,1.8549,0,0,0,1.0078-.2641,1.8925,1.8925,0,0,0,.6719-.7442l.72.6162a2.4169,2.4169,0,0,1-.9717.9839A3.0376,3.0376,0,0,1,184.4082,38.1387Zm0-5.604a1.6762,1.6762,0,0,0-.666.1313,1.5665,1.5665,0,0,0-.8692.918,1.9956,1.9956,0,0,0-.12.7031v.0835h3.1914v-.1191a1.8153,1.8153,0,0,0-.414-1.2456A1.4162,1.4162,0,0,0,184.4082,32.5347Z"/><path class="cls-2" d="M190.5645,38.1387a3.0056,3.0056,0,0,1-1.4581-.3242,3.2962,3.2962,0,0,1-1.0263-.876l.7558-.648a2.5757,2.5757,0,0,0,.7862.6841,2.0735,2.0735,0,0,0,1.0136.24,1.4493,1.4493,0,0,0,.9122-.246.8932.8932,0,0,0,.1025-1.254,1.33,1.33,0,0,0-.7861-.312l-.5284-.084a4.0256,4.0256,0,0,1-.8154-.1923,2.103,2.103,0,0,1-.6367-.3477,1.536,1.536,0,0,1-.4141-.5283,1.7082,1.7082,0,0,1-.1494-.7437,1.8621,1.8621,0,0,1,.168-.81,1.6026,1.6026,0,0,1,.4678-.5884,2.1064,2.1064,0,0,1,.7138-.354,3.2631,3.2631,0,0,1,.9063-.12,2.6929,2.6929,0,0,1,2.2441.9961l-.708.6718a2.0126,2.0126,0,0,0-.6182-.5219,1.9012,1.9012,0,0,0-.9541-.2222,1.3015,1.3015,0,0,0-.8584.24.7942.7942,0,0,0-.2812.6358.6982.6982,0,0,0,.27.6118,1.9278,1.9278,0,0,0,.8106.2764l.5273.0839a2.6483,2.6483,0,0,1,1.4824.6,1.5624,1.5624,0,0,1,.45,1.1636,1.7706,1.7706,0,0,1-.6367,1.44A2.6408,2.6408,0,0,1,190.5645,38.1387Z"/><path class="cls-2" d="M196.9238,38.1387a2.8685,2.8685,0,0,1-1.1582-.2281,2.5034,2.5034,0,0,1-.8935-.6538,3.0067,3.0067,0,0,1-.5762-1.0263,4.5272,4.5272,0,0,1,0-2.688,3.01,3.01,0,0,1,.5762-1.0259,2.5034,2.5034,0,0,1,.8935-.6538,3.0557,3.0557,0,0,1,2.3164,0,2.5038,2.5038,0,0,1,.8936.6538,3.0138,3.0138,0,0,1,.5762,1.0259,4.5272,4.5272,0,0,1,0,2.688,3.01,3.01,0,0,1-.5762,1.0263,2.5038,2.5038,0,0,1-.8936.6538A2.8644,2.8644,0,0,1,196.9238,38.1387Zm0-.96a1.6079,1.6079,0,0,0,1.1885-.456,1.8594,1.8594,0,0,0,.4561-1.3682v-.936a1.8588,1.8588,0,0,0-.4561-1.3677,1.7752,1.7752,0,0,0-2.376,0,1.8546,1.8546,0,0,0-.456,1.3677v.936a1.8553,1.8553,0,0,0,.456,1.3682A1.604,1.604,0,0,0,196.9238,37.1787Z"/><path class="cls-2" d="M205.084,36.9863h-.06a2.1669,2.1669,0,0,1-.2226.4336,1.5211,1.5211,0,0,1-.3477.3682,1.6757,1.6757,0,0,1-.498.2554,2.1478,2.1478,0,0,1-.6719.0952,1.912,1.912,0,0,1-1.5117-.6241,2.5745,2.5745,0,0,1-.5528-1.7641V31.7788h1.1162v3.8125q0,1.5872,1.32,1.5874a2.0762,2.0762,0,0,0,.5215-.0664,1.3214,1.3214,0,0,0,.4561-.21,1.1605,1.1605,0,0,0,.3242-.36.9876.9876,0,0,0,.126-.5054V31.7788H206.2v6.2158H205.084Z"/><path class="cls-2" d="M208.168,37.9946V31.7788h1.1162v1.188h.06a1.7592,1.7592,0,0,1,.2159-.4443,1.535,1.535,0,0,1,.36-.378,1.844,1.844,0,0,1,.51-.2636,2.029,2.029,0,0,1,.666-.1021h.3721v1.1157h-.5518a2.1761,2.1761,0,0,0-1.206.2823.8515.8515,0,0,0-.4258.7378v4.08Z"/><path class="cls-2" d="M214.96,38.1387a2.9113,2.9113,0,0,1-1.1875-.2281,2.4218,2.4218,0,0,1-.876-.6479,2.8242,2.8242,0,0,1-.5459-1.0259,4.591,4.591,0,0,1-.1865-1.35,4.5319,4.5319,0,0,1,.1865-1.3442,2.8937,2.8937,0,0,1,.5459-1.0259,2.3984,2.3984,0,0,1,.876-.6538,2.9114,2.9114,0,0,1,1.1875-.228,2.5415,2.5415,0,0,1,1.5.4077,2.4225,2.4225,0,0,1,.8525,1.08l-.9238.456a1.4393,1.4393,0,0,0-.5225-.72,1.51,1.51,0,0,0-.9062-.2637,1.4678,1.4678,0,0,0-1.2061.4917,1.93,1.93,0,0,0-.4014,1.26v1.08a1.9276,1.9276,0,0,0,.4014,1.26,1.4666,1.4666,0,0,0,1.2061.4922,1.6,1.6,0,0,0,.96-.2759,1.9887,1.9887,0,0,0,.624-.78l.8165.5039a2.4506,2.4506,0,0,1-.9,1.11A2.6381,2.6381,0,0,1,214.96,38.1387Z"/><path class="cls-2" d="M220.9717,38.1387a2.8368,2.8368,0,0,1-1.17-.2339,2.5435,2.5435,0,0,1-.8877-.6543,2.9326,2.9326,0,0,1-.5645-1.02,4.6548,4.6548,0,0,1,0-2.6817,2.9311,2.9311,0,0,1,.5645-1.0263,2.541,2.541,0,0,1,.8877-.6538,2.8272,2.8272,0,0,1,1.17-.2339,2.7562,2.7562,0,0,1,1.1582.2329,2.4691,2.4691,0,0,1,.8584.64,2.7641,2.7641,0,0,1,.5273.9688,3.9314,3.9314,0,0,1,.1807,1.2075V35.15h-4.38v.2524a1.8154,1.8154,0,0,0,.4561,1.2779,1.6671,1.6671,0,0,0,1.2959.498,1.8549,1.8549,0,0,0,1.0078-.2641,1.8922,1.8922,0,0,0,.6718-.7442l.72.6162a2.4175,2.4175,0,0,1-.9717.9839A3.0376,3.0376,0,0,1,220.9717,38.1387Zm0-5.604a1.6762,1.6762,0,0,0-.666.1313,1.5665,1.5665,0,0,0-.8692.918,1.9933,1.9933,0,0,0-.12.7031v.0835h3.1914v-.1191a1.8149,1.8149,0,0,0-.4141-1.2456A1.416,1.416,0,0,0,220.9717,32.5347Z"/><path class="cls-2" d="M227.1279,38.1387a3.0052,3.0052,0,0,1-1.458-.3242,3.2939,3.2939,0,0,1-1.0263-.876l.7558-.648a2.5754,2.5754,0,0,0,.7861.6841,2.0737,2.0737,0,0,0,1.0137.24,1.4488,1.4488,0,0,0,.9121-.246.8933.8933,0,0,0,.1026-1.254,1.33,1.33,0,0,0-.7862-.312l-.5283-.084a4.0256,4.0256,0,0,1-.8154-.1923,2.1006,2.1006,0,0,1-.6367-.3477,1.536,1.536,0,0,1-.4141-.5283,1.7082,1.7082,0,0,1-.1494-.7437,1.8621,1.8621,0,0,1,.168-.81,1.6023,1.6023,0,0,1,.4677-.5884,2.1078,2.1078,0,0,1,.7139-.354,3.2629,3.2629,0,0,1,.9062-.12,2.6929,2.6929,0,0,1,2.2442.9961l-.708.6718a2.0138,2.0138,0,0,0-.6182-.5219,1.9012,1.9012,0,0,0-.9541-.2222,1.3015,1.3015,0,0,0-.8584.24.7942.7942,0,0,0-.2812.6358.6982.6982,0,0,0,.2695.6118,1.9278,1.9278,0,0,0,.8105.2764l.5274.0839a2.6483,2.6483,0,0,1,1.4824.6,1.5624,1.5624,0,0,1,.45,1.1636,1.7706,1.7706,0,0,1-.6367,1.44A2.6409,2.6409,0,0,1,227.1279,38.1387Z"/><path class="cls-2" d="M46.5176,47.1387h-.9961v-.96h.9961V45.0264a1.6119,1.6119,0,0,1,.36-1.0977,1.3669,1.3669,0,0,1,1.0918-.4141h.9717v.96H47.6338v1.7041h1.3076v.96H47.6338v5.2558H46.5176Z"/><path class="cls-2" d="M52.4932,52.5386a2.8678,2.8678,0,0,1-1.1582-.2281,2.5038,2.5038,0,0,1-.8936-.6538,3.01,3.01,0,0,1-.5762-1.0263,4.5272,4.5272,0,0,1,0-2.688,3.0138,3.0138,0,0,1,.5762-1.0259,2.505,2.505,0,0,1,.8936-.6538,3.0557,3.0557,0,0,1,2.3164,0,2.5046,2.5046,0,0,1,.8935.6538,3.01,3.01,0,0,1,.5762,1.0259,4.5272,4.5272,0,0,1,0,2.688,3.0067,3.0067,0,0,1-.5762,1.0263,2.5034,2.5034,0,0,1-.8935.6538A2.8651,2.8651,0,0,1,52.4932,52.5386Zm0-.96a1.6077,1.6077,0,0,0,1.1884-.456,1.859,1.859,0,0,0,.4561-1.3682v-.936a1.8584,1.8584,0,0,0-.4561-1.3677,1.7751,1.7751,0,0,0-2.3759,0,1.8546,1.8546,0,0,0-.4561,1.3677v.936a1.8553,1.8553,0,0,0,.4561,1.3682A1.604,1.604,0,0,0,52.4932,51.5786Z"/><path class="cls-2" d="M56.85,52.3945V46.1787h1.1162v1.188h.06a1.7554,1.7554,0,0,1,.2158-.4443,1.5354,1.5354,0,0,1,.36-.378,1.8419,1.8419,0,0,1,.51-.2636,2.029,2.029,0,0,1,.666-.1021h.3721v1.1157h-.5517a2.1765,2.1765,0,0,0-1.2061.2823.8515.8515,0,0,0-.4258.7378v4.08Z"/><path class="cls-2" d="M64.1816,52.3945V46.1787h1.1163v1.188h.0595a1.7588,1.7588,0,0,1,.2158-.4443,1.5372,1.5372,0,0,1,.36-.378,1.8425,1.8425,0,0,1,.51-.2636,2.0281,2.0281,0,0,1,.666-.1021h.372v1.1157H66.93a2.1767,2.1767,0,0,0-1.2061.2823.8517.8517,0,0,0-.4257.7378v4.08Z"/><path class="cls-2" d="M69.2451,44.8823a.6805.6805,0,0,1-.51-.1679.6143.6143,0,0,1-.1622-.4439v-.168a.6141.6141,0,0,1,.1622-.4438.8589.8589,0,0,1,1.02,0,.6144.6144,0,0,1,.1621.4438v.168a.6147.6147,0,0,1-.1621.4439A.6819.6819,0,0,1,69.2451,44.8823Zm-.5635,1.2964h1.1163v6.2158H68.6816Z"/><path class="cls-2" d="M73.6729,52.5386a3.0081,3.0081,0,0,1-1.4581-.3242,3.2915,3.2915,0,0,1-1.0253-.876l.7558-.648a2.5536,2.5536,0,0,0,.7861.6841,2.0712,2.0712,0,0,0,1.0137.24,1.4508,1.4508,0,0,0,.9121-.246.8943.8943,0,0,0,.1016-1.254,1.3239,1.3239,0,0,0-.7861-.312l-.5274-.0839a4.0585,4.0585,0,0,1-.8164-.1924,2.0962,2.0962,0,0,1-.6357-.3477,1.5242,1.5242,0,0,1-.4141-.5283,1.6938,1.6938,0,0,1-.15-.7437,1.8766,1.8766,0,0,1,.168-.81,1.616,1.616,0,0,1,.4687-.5884,2.09,2.09,0,0,1,.7139-.354,3.2508,3.2508,0,0,1,.9053-.12,2.9422,2.9422,0,0,1,1.32.2636,2.8989,2.8989,0,0,1,.9238.7325l-.708.6718a1.99,1.99,0,0,0-.6182-.5219,1.8973,1.8973,0,0,0-.9531-.2222,1.2979,1.2979,0,0,0-.8584.24.792.792,0,0,0-.2822.6358.6964.6964,0,0,0,.2705.6118,1.9227,1.9227,0,0,0,.81.2764l.5283.0839a2.6479,2.6479,0,0,1,1.4814.6,1.5586,1.5586,0,0,1,.45,1.1636,1.7728,1.7728,0,0,1-.6357,1.44A2.6418,2.6418,0,0,1,73.6729,52.5386Z"/><path class="cls-2" d="M77.6445,43.5146h1.1162v5.5318h.0606l.8877-1.0918,1.62-1.7759h1.3193l-2.208,2.4,2.4961,3.8159H81.5928l-1.9444-3.0962-.8877.9483v2.1479H77.6445Z"/><path class="cls-2" d="M86.9209,43.5146h1.1162V47.187h.0479a1.6849,1.6849,0,0,1,.6777-.8613,2.04,2.04,0,0,1,1.11-.291,2.3987,2.3987,0,0,1,1.05.2216,2.1564,2.1564,0,0,1,.7861.648,3.0353,3.0353,0,0,1,.4922,1.0264,5.5592,5.5592,0,0,1,0,2.7119,3.0281,3.0281,0,0,1-.4922,1.0259,2.1462,2.1462,0,0,1-.7861.6479,2.3975,2.3975,0,0,1-1.05.2222,2.0407,2.0407,0,0,1-1.11-.291,1.6835,1.6835,0,0,1-.6777-.8614h-.0479v1.0083H86.9209Zm2.6279,8.064a1.5339,1.5339,0,0,0,1.1944-.4824,1.83,1.83,0,0,0,.4375-1.2788V48.7559a1.8294,1.8294,0,0,0-.4375-1.2788,1.534,1.534,0,0,0-1.1944-.4825,2,2,0,0,0-.5879.0845,1.5016,1.5016,0,0,0-.48.2412,1.2427,1.2427,0,0,0-.3233.3618.89.89,0,0,0-.12.4585v2.292a.89.89,0,0,0,.12.4585,1.2427,1.2427,0,0,0,.3233.3618,1.5,1.5,0,0,0,.48.2412A2,2,0,0,0,89.5488,51.5786Z"/><path class="cls-2" d="M97.6973,46.1787h1.08l-2.7,7.5718a3.2023,3.2023,0,0,1-.2285.4922,1.0041,1.0041,0,0,1-.2939.3237,1.1767,1.1767,0,0,1-.4141.1743,2.8113,2.8113,0,0,1-.6.0537h-.6123v-.96h1.02l.42-1.1983-2.3037-6.4575h1.1153l1.38,3.9639.3243,1.1616h.0605l.3594-1.1616Z"/><path class="cls-2" d="M102.7725,46.1787h1.1162V47.187h.0478a1.687,1.687,0,0,1,.6787-.8613,2.0392,2.0392,0,0,1,1.1094-.291,2.3952,2.3952,0,0,1,1.05.2216,2.1482,2.1482,0,0,1,.7861.648,3.0334,3.0334,0,0,1,.4922,1.0264,5.556,5.556,0,0,1,0,2.7119,3.0263,3.0263,0,0,1-.4922,1.0259,2.1381,2.1381,0,0,1-.7861.6479,2.3939,2.3939,0,0,1-1.05.2222,2.04,2.04,0,0,1-1.1094-.291,1.6857,1.6857,0,0,1-.6787-.8614h-.0478v3.4082h-1.1162Zm2.6279,5.4a1.5308,1.5308,0,0,0,1.1943-.4824,1.83,1.83,0,0,0,.4385-1.2788V48.7559a1.83,1.83,0,0,0-.4385-1.2788,1.5309,1.5309,0,0,0-1.1943-.4825,2.0048,2.0048,0,0,0-.5879.0845,1.4957,1.4957,0,0,0-.48.2412,1.2475,1.2475,0,0,0-.3242.3618.89.89,0,0,0-.12.4585v2.292a.89.89,0,0,0,.12.4585,1.2475,1.2475,0,0,0,.3242.3618,1.4937,1.4937,0,0,0,.48.2412A2.0048,2.0048,0,0,0,105.4,51.5786Z"/><path class="cls-2" d="M109.792,52.3945V46.1787h1.1162v1.188h.0605a1.7261,1.7261,0,0,1,.2159-.4443,1.5325,1.5325,0,0,1,.3593-.378,1.8646,1.8646,0,0,1,.5108-.2636,2.0247,2.0247,0,0,1,.666-.1021h.3721v1.1157H112.54a2.1786,2.1786,0,0,0-1.206.2823.8515.8515,0,0,0-.4258.7378v4.08Z"/><path class="cls-2" d="M116.6211,52.5386a2.8613,2.8613,0,0,1-1.1582-.2281,2.5062,2.5062,0,0,1-.8945-.6538,3.0049,3.0049,0,0,1-.5752-1.0263,4.5272,4.5272,0,0,1,0-2.688,3.0086,3.0086,0,0,1,.5752-1.0259,2.5074,2.5074,0,0,1,.8945-.6538,3.0532,3.0532,0,0,1,2.3154,0,2.5,2.5,0,0,1,.8946.6538,3.0286,3.0286,0,0,1,.5761,1.0259,4.5272,4.5272,0,0,1,0,2.688,3.0248,3.0248,0,0,1-.5761,1.0263,2.4987,2.4987,0,0,1-.8946.6538A2.86,2.86,0,0,1,116.6211,52.5386Zm0-.96a1.6056,1.6056,0,0,0,1.1875-.456,1.8594,1.8594,0,0,0,.456-1.3682v-.936a1.8588,1.8588,0,0,0-.456-1.3677,1.7752,1.7752,0,0,0-2.376,0,1.8588,1.8588,0,0,0-.456,1.3677v.936a1.8594,1.8594,0,0,0,.456,1.3682A1.6064,1.6064,0,0,0,116.6211,51.5786Z"/><path class="cls-2" d="M122.2363,52.3945l-2.1474-6.2158h1.1162l1.0195,2.9756.6484,2.1484h.0713l.66-2.1484,1.0322-2.9756h1.0684l-2.16,6.2158Z"/><path class="cls-2" d="M127.4443,44.8823a.6807.6807,0,0,1-.51-.1679.6143.6143,0,0,1-.1621-.4439v-.168a.614.614,0,0,1,.1621-.4438.8589.8589,0,0,1,1.02,0,.6144.6144,0,0,1,.1621.4438v.168a.6147.6147,0,0,1-.1621.4439A.6818.6818,0,0,1,127.4443,44.8823Zm-.5634,1.2964h1.1162v6.2158h-1.1162Z"/><path class="cls-2" d="M131.873,52.5386a3.0052,3.0052,0,0,1-1.458-.3242,3.2962,3.2962,0,0,1-1.0263-.876l.7558-.648a2.5757,2.5757,0,0,0,.7862.6841,2.0733,2.0733,0,0,0,1.0136.24,1.4488,1.4488,0,0,0,.9121-.246.8933.8933,0,0,0,.1026-1.254,1.33,1.33,0,0,0-.7861-.312l-.5284-.0839a4.0323,4.0323,0,0,1-.8154-.1924,2.103,2.103,0,0,1-.6367-.3477,1.536,1.536,0,0,1-.4141-.5283,1.7082,1.7082,0,0,1-.1494-.7437,1.8621,1.8621,0,0,1,.168-.81,1.6042,1.6042,0,0,1,.4677-.5884,2.1078,2.1078,0,0,1,.7139-.354,3.2631,3.2631,0,0,1,.9063-.12,2.6929,2.6929,0,0,1,2.2441.9961l-.708.6718a2.0126,2.0126,0,0,0-.6182-.5219,1.9012,1.9012,0,0,0-.9541-.2222,1.3015,1.3015,0,0,0-.8584.24.7942.7942,0,0,0-.2812.6358.6982.6982,0,0,0,.2695.6118,1.9278,1.9278,0,0,0,.8106.2764l.5273.0839a2.6483,2.6483,0,0,1,1.4824.6,1.5624,1.5624,0,0,1,.45,1.1636,1.7706,1.7706,0,0,1-.6367,1.44A2.6409,2.6409,0,0,1,131.873,52.5386Z"/><path class="cls-2" d="M136.4082,44.8823a.6809.6809,0,0,1-.51-.1679.6147.6147,0,0,1-.1621-.4439v-.168a.6144.6144,0,0,1,.1621-.4438.8589.8589,0,0,1,1.02,0,.6141.6141,0,0,1,.1622.4438v.168a.6143.6143,0,0,1-.1622.4439A.6817.6817,0,0,1,136.4082,44.8823Zm-.5635,1.2964h1.1162v6.2158h-1.1162Z"/><path class="cls-2" d="M141.3164,52.5386a2.8617,2.8617,0,0,1-1.1582-.2281,2.5062,2.5062,0,0,1-.8945-.6538,3.0049,3.0049,0,0,1-.5752-1.0263,4.5272,4.5272,0,0,1,0-2.688,3.0086,3.0086,0,0,1,.5752-1.0259,2.5074,2.5074,0,0,1,.8945-.6538,3.0532,3.0532,0,0,1,2.3154,0,2.5,2.5,0,0,1,.8946.6538,3.0286,3.0286,0,0,1,.5761,1.0259,4.5272,4.5272,0,0,1,0,2.688,3.0248,3.0248,0,0,1-.5761,1.0263,2.4987,2.4987,0,0,1-.8946.6538A2.86,2.86,0,0,1,141.3164,52.5386Zm0-.96a1.6056,1.6056,0,0,0,1.1875-.456,1.8594,1.8594,0,0,0,.4561-1.3682v-.936a1.8588,1.8588,0,0,0-.4561-1.3677,1.7752,1.7752,0,0,0-2.376,0,1.8588,1.8588,0,0,0-.456,1.3677v.936a1.8594,1.8594,0,0,0,.456,1.3682A1.6064,1.6064,0,0,0,141.3164,51.5786Z"/><path class="cls-2" d="M145.6719,52.3945V46.1787h1.1162V47.187h.0605a2.0208,2.0208,0,0,1,.63-.8315,1.7839,1.7839,0,0,1,1.1221-.3208,1.897,1.897,0,0,1,1.5058.624,2.5972,2.5972,0,0,1,.5459,1.7637v3.9721h-1.1162V48.582q0-1.5872-1.3076-1.5874a1.9634,1.9634,0,0,0-.5342.0723,1.5617,1.5617,0,0,0-.4619.21,1.0341,1.0341,0,0,0-.3242.3487.9892.9892,0,0,0-.12.499v4.27Z"/><path class="cls-2" d="M153.1123,44.8823a.678.678,0,0,1-.51-.1679.6105.6105,0,0,1-.1621-.4439v-.168a.61.61,0,0,1,.1621-.4438.8575.8575,0,0,1,1.02,0,.61.61,0,0,1,.1621.4438v.168a.6105.6105,0,0,1-.1621.4439A.68.68,0,0,1,153.1123,44.8823Zm-.5644,1.2964h1.1162v6.2158h-1.1162Z"/><path class="cls-2" d="M155.6318,52.3945V46.1787h1.1162V47.187h.0606a2.02,2.02,0,0,1,.63-.8315,1.7838,1.7838,0,0,1,1.122-.3208,1.8972,1.8972,0,0,1,1.5059.624,2.5972,2.5972,0,0,1,.5459,1.7637v3.9721h-1.1162V48.582q0-1.5872-1.3076-1.5874a1.9634,1.9634,0,0,0-.5342.0723,1.5594,1.5594,0,0,0-.4619.21,1.0331,1.0331,0,0,0-.3242.3487.9893.9893,0,0,0-.12.499v4.27Z"/><path class="cls-2" d="M167.8486,53.0239a1.5882,1.5882,0,0,1-.75,1.4453,4.5211,4.5211,0,0,1-2.334.4693,4.256,4.256,0,0,1-2.1308-.3965,1.2455,1.2455,0,0,1-.6416-1.1172,1.1137,1.1137,0,0,1,.2695-.7925,1.5,1.5,0,0,1,.75-.4087v-.1323a.903.903,0,0,1-.6113-.916.8766.8766,0,0,1,.3115-.7227,1.8918,1.8918,0,0,1,.7686-.3618v-.0483a1.9745,1.9745,0,0,1-.8526-.7476,2.1019,2.1019,0,0,1-.3-1.1308,2.1718,2.1718,0,0,1,.168-.8614,1.9494,1.9494,0,0,1,.4736-.6757,2.1421,2.1421,0,0,1,.75-.4371,3.0446,3.0446,0,0,1,1.0088-.1552,2.9868,2.9868,0,0,1,.6113.06,3.547,3.547,0,0,1,.54.1558v-.1318a.9874.9874,0,0,1,.1806-.6182.6793.6793,0,0,1,.5752-.2339h.9483v.936H166.36v.335a1.9026,1.9026,0,0,1,.78,1.627,2.19,2.19,0,0,1-.1679.8618,1.8436,1.8436,0,0,1-.4805.67,2.2512,2.2512,0,0,1-.7559.4307,3.0291,3.0291,0,0,1-1.0078.1557c-.12,0-.24-.0063-.36-.0181a2.6983,2.6983,0,0,1-.336-.0542,1.6647,1.6647,0,0,0-.4922.24.4931.4931,0,0,0-.2158.42.3646.3646,0,0,0,.2461.3721,1.8809,1.8809,0,0,0,.666.0957h1.416a2.5345,2.5345,0,0,1,1.6739.4516A1.5485,1.5485,0,0,1,167.8486,53.0239Zm-1.0449.1148a.671.671,0,0,0-.2695-.5581,1.605,1.605,0,0,0-.9541-.21h-2.0879a.865.865,0,0,0-.1983,1.4458,1.5677,1.5677,0,0,0,1.0381.27h.84a2.5325,2.5325,0,0,0,1.2119-.2339A.7652.7652,0,0,0,166.8037,53.1387ZM164.74,49.4424a1.4682,1.4682,0,0,0,.9424-.2744,1.0239,1.0239,0,0,0,.3418-.8482v-.31a1.0239,1.0239,0,0,0-.3418-.8482,1.7553,1.7553,0,0,0-1.8847,0,1.0239,1.0239,0,0,0-.3418.8482v.31a1.0239,1.0239,0,0,0,.3418.8482A1.466,1.466,0,0,0,164.74,49.4424Z"/><path class="cls-2" d="M176.26,52.3945a.9875.9875,0,0,1-.7744-.2881,1.3468,1.3468,0,0,1-.3174-.7441h-.0606a1.6018,1.6018,0,0,1-.66.8765,2.0687,2.0687,0,0,1-1.14.3,2.1459,2.1459,0,0,1-1.5117-.4981,1.76,1.76,0,0,1-.54-1.3618,1.59,1.59,0,0,1,.6543-1.374,3.412,3.412,0,0,1,1.997-.4741h1.1768v-.564a1.3,1.3,0,0,0-.336-.96,1.4245,1.4245,0,0,0-1.0439-.3359,1.6113,1.6113,0,0,0-.918.2456,2.0324,2.0324,0,0,0-.6064.6421l-.6719-.6118a2.363,2.363,0,0,1,.834-.8579,2.6117,2.6117,0,0,1,1.4219-.354,2.6457,2.6457,0,0,1,1.8.5566A1.983,1.983,0,0,1,176.2,48.166v3.2686h.6953v.96Zm-2.7-.7558a1.8681,1.8681,0,0,0,1.0918-.3.9026.9026,0,0,0,.4326-.7681v-.96h-1.1885a2.133,2.133,0,0,0-1.1221.228.7392.7392,0,0,0-.3535.66v.24a.7877.7877,0,0,0,.3057.6655A1.3411,1.3411,0,0,0,173.56,51.6387Z"/><path class="cls-2" d="M178.2275,52.3945V46.1787h1.1162V47.187h.06a2.038,2.038,0,0,1,.63-.8315,1.7879,1.7879,0,0,1,1.1221-.3208,1.897,1.897,0,0,1,1.5058.624,2.5921,2.5921,0,0,1,.5459,1.7637v3.9721h-1.1152V48.582q0-1.5872-1.3086-1.5874a1.9687,1.9687,0,0,0-.5342.0723,1.5711,1.5711,0,0,0-.4619.21,1.0311,1.0311,0,0,0-.3232.3487.9893.9893,0,0,0-.12.499v4.27Z"/><path class="cls-2" d="M187.6475,52.3945v-.9839h1.164V45.0024h-1.164v-.9838H191.14v.9838h-1.164v6.4082h1.164v.9839Z"/><path class="cls-2" d="M192.916,44.0186H196.48a2.2505,2.2505,0,0,1,1.6445.5878,2.1035,2.1035,0,0,1,.6,1.5723,2.0257,2.0257,0,0,1-.1377.792,1.7418,1.7418,0,0,1-.3418.5337,1.416,1.416,0,0,1-.456.3184,1.6779,1.6779,0,0,1-.48.1318v.0718a1.8512,1.8512,0,0,1,.5342.12,1.7475,1.7475,0,0,1,.5576.3423,1.8547,1.8547,0,0,1,.4385.6,2.0837,2.0837,0,0,1,.1738.894,2.633,2.633,0,0,1-.168.9541,2.463,2.463,0,0,1-.456.7622,2.1062,2.1062,0,0,1-.6836.51,2.0112,2.0112,0,0,1-.8643.186H192.916Zm1.1641,3.5878h2.22a1.2421,1.2421,0,0,0,.8643-.2817,1.0356,1.0356,0,0,0,.3115-.81v-.3959a1.0356,1.0356,0,0,0-.3115-.81,1.2423,1.2423,0,0,0-.8643-.2822h-2.22Zm0,3.78h2.4111a1.3556,1.3556,0,0,0,.9365-.3,1.1286,1.1286,0,0,0,.336-.8877v-.42a1.13,1.13,0,0,0-.336-.8877,1.3556,1.3556,0,0,0-.9365-.3H194.08Z"/><path class="cls-2" d="M207.2559,45.6265h-.0606l-.6836,1.38-1.92,3.5162-1.92-3.5162-.6846-1.38h-.06v6.768H200.8V44.0186h1.4639l2.3281,4.4038h.0478l2.3282-4.4038h1.416v8.3759h-1.1279Z"/><path class="cls-2" d="M210.2559,49.3228V48.1587h3.2158v1.1641Z"/><path class="cls-2" d="M46.1816,66.7944V60.5786h1.1163v1.0083h.0595a2.1179,2.1179,0,0,1,.6182-.814,1.5878,1.5878,0,0,1,1.0381-.3383,2.2093,2.2093,0,0,1,1.1338.2973,1.7476,1.7476,0,0,1,.75.9512h.0244a1.8625,1.8625,0,0,1,.6416-.874,1.9645,1.9645,0,0,1,1.2539-.3745,1.8133,1.8133,0,0,1,1.4638.624,2.65,2.65,0,0,1,.5284,1.7637v3.9721H53.6934V62.9819a1.9317,1.9317,0,0,0-.3057-1.19,1.13,1.13,0,0,0-.9541-.397,1.84,1.84,0,0,0-.5225.0723,1.4224,1.4224,0,0,0-.4375.21.9967.9967,0,0,0-.42.8477v4.2695H49.9375V62.9819q0-1.5872-1.248-1.5874a1.8571,1.8571,0,0,0-.5157.0723,1.417,1.417,0,0,0-.4443.21,1.08,1.08,0,0,0-.3115.3487.9892.9892,0,0,0-.12.499v4.2695Z"/><path class="cls-2" d="M61.23,66.7944a.9877.9877,0,0,1-.7744-.2881,1.3468,1.3468,0,0,1-.3174-.7441h-.0606a1.6018,1.6018,0,0,1-.66.8765,2.0685,2.0685,0,0,1-1.14.3,2.1459,2.1459,0,0,1-1.5117-.4981,1.76,1.76,0,0,1-.54-1.3618,1.5906,1.5906,0,0,1,.6543-1.374,3.4121,3.4121,0,0,1,1.9971-.4741h1.1767v-.564a1.3008,1.3008,0,0,0-.3359-.96,1.4248,1.4248,0,0,0-1.044-.3359,1.6109,1.6109,0,0,0-.9179.2456,2.0327,2.0327,0,0,0-.6065.6421l-.6719-.6118a2.3638,2.3638,0,0,1,.834-.8579,2.6117,2.6117,0,0,1,1.4219-.354,2.6453,2.6453,0,0,1,1.8.5566,1.983,1.983,0,0,1,.6367,1.5747v3.2686h.6953v.96Zm-2.7-.7558a1.8681,1.8681,0,0,0,1.0918-.3.9026.9026,0,0,0,.4326-.7681v-.96H58.8652a2.1323,2.1323,0,0,0-1.122.228.7392.7392,0,0,0-.3536.66v.24a.7877.7877,0,0,0,.3057.6655A1.3411,1.3411,0,0,0,58.5293,66.0386Z"/><path class="cls-2" d="M63.1973,66.7944V60.5786h1.1162v1.0083h.0595a2.038,2.038,0,0,1,.63-.8315,1.7879,1.7879,0,0,1,1.1221-.3208,1.8974,1.8974,0,0,1,1.5059.624,2.5926,2.5926,0,0,1,.5459,1.7637v3.9721H67.0615V62.9819q0-1.5872-1.3086-1.5874a1.9687,1.9687,0,0,0-.5342.0723,1.5735,1.5735,0,0,0-.4619.21,1.0311,1.0311,0,0,0-.3232.3487.9892.9892,0,0,0-.12.499v4.2695Z"/><path class="cls-2" d="M75.4131,67.4238a1.5864,1.5864,0,0,1-.75,1.4453,4.5188,4.5188,0,0,1-2.334.4693,4.25,4.25,0,0,1-2.13-.3965,1.2464,1.2464,0,0,1-.6426-1.1172,1.1145,1.1145,0,0,1,.27-.7925,1.4918,1.4918,0,0,1,.75-.4087v-.1323a.9026.9026,0,0,1-.6123-.916.8772.8772,0,0,1,.3125-.7227,1.8943,1.8943,0,0,1,.7676-.3618v-.0483a1.9664,1.9664,0,0,1-.8515-.7476,2.1019,2.1019,0,0,1-.3-1.1308,2.1718,2.1718,0,0,1,.1679-.8614,1.9249,1.9249,0,0,1,.4737-.6757,2.1421,2.1421,0,0,1,.75-.4371,3.0423,3.0423,0,0,1,1.0078-.1552,3.0038,3.0038,0,0,1,.6123.06,3.5792,3.5792,0,0,1,.54.1558v-.1318a.9871.9871,0,0,1,.18-.6182.6823.6823,0,0,1,.5762-.2339h.9482v.936H73.9248v.335a1.9,1.9,0,0,1,.78,1.627,2.1724,2.1724,0,0,1-.168.8618,1.8436,1.8436,0,0,1-.48.67,2.2507,2.2507,0,0,1-.7558.4307,3.03,3.03,0,0,1-1.0078.1557c-.12,0-.24-.0063-.3594-.018a2.7863,2.7863,0,0,1-.3369-.0542,1.6539,1.6539,0,0,0-.4912.24.4914.4914,0,0,0-.2168.42.3646.3646,0,0,0,.2461.3721,1.88,1.88,0,0,0,.666.0957h1.416a2.5322,2.5322,0,0,1,1.6738.4516A1.5451,1.5451,0,0,1,75.4131,67.4238Zm-1.044.1148a.6694.6694,0,0,0-.27-.5581,1.6012,1.6012,0,0,0-.9531-.21H71.0566a.8641.8641,0,0,0-.1972,1.4458,1.5677,1.5677,0,0,0,1.0381.27h.84a2.5379,2.5379,0,0,0,1.2119-.2339A.7652.7652,0,0,0,74.3691,67.5386Zm-2.0644-3.6963a1.4646,1.4646,0,0,0,.9424-.2744,1.0211,1.0211,0,0,0,.3418-.8482v-.3105a1.0213,1.0213,0,0,0-.3418-.8482,1.7538,1.7538,0,0,0-1.8838,0,1.0213,1.0213,0,0,0-.3418.8482V62.72a1.0211,1.0211,0,0,0,.3418.8482A1.4633,1.4633,0,0,0,72.3047,63.8423Z"/><path class="cls-2" d="M80.957,66.7944a.9855.9855,0,0,1-.7734-.2881,1.3484,1.3484,0,0,1-.3184-.7441h-.0595a1.6071,1.6071,0,0,1-.66.8765,2.0731,2.0731,0,0,1-1.14.3,2.1482,2.1482,0,0,1-1.5127-.4981,1.7635,1.7635,0,0,1-.54-1.3618,1.5906,1.5906,0,0,1,.6543-1.374,3.4139,3.4139,0,0,1,1.9981-.4741h1.1757v-.564a1.3008,1.3008,0,0,0-.3359-.96,1.4231,1.4231,0,0,0-1.0439-.3359,1.6133,1.6133,0,0,0-.918.2456,2.02,2.02,0,0,0-.6055.6421l-.6728-.6118a2.37,2.37,0,0,1,.834-.8579,2.6147,2.6147,0,0,1,1.4228-.354,2.6488,2.6488,0,0,1,1.8.5566,1.9824,1.9824,0,0,1,.6358,1.5747v3.2686h.6962v.96Zm-2.6992-.7558a1.87,1.87,0,0,0,1.0918-.3.9015.9015,0,0,0,.4316-.7681v-.96H78.5937a2.1277,2.1277,0,0,0-1.122.228.7381.7381,0,0,0-.3545.66v.24a.7884.7884,0,0,0,.3066.6655A1.3393,1.3393,0,0,0,78.2578,66.0386Z"/><path class="cls-2" d="M88.2656,67.4238a1.5884,1.5884,0,0,1-.75,1.4453,4.5213,4.5213,0,0,1-2.334.4693,4.256,4.256,0,0,1-2.1308-.3965,1.2453,1.2453,0,0,1-.6416-1.1172,1.1137,1.1137,0,0,1,.27-.7925,1.5,1.5,0,0,1,.75-.4087v-.1323a.903.903,0,0,1-.6113-.916.8766.8766,0,0,1,.3115-.7227,1.8918,1.8918,0,0,1,.7686-.3618v-.0483a1.9745,1.9745,0,0,1-.8526-.7476,2.1019,2.1019,0,0,1-.3-1.1308,2.1718,2.1718,0,0,1,.168-.8614,1.9494,1.9494,0,0,1,.4736-.6757,2.1421,2.1421,0,0,1,.75-.4371,3.0446,3.0446,0,0,1,1.0088-.1552,2.9868,2.9868,0,0,1,.6113.06,3.547,3.547,0,0,1,.54.1558v-.1318a.9874.9874,0,0,1,.1806-.6182.6793.6793,0,0,1,.5752-.2339h.9483v.936H86.7773v.335a1.9024,1.9024,0,0,1,.78,1.627,2.1882,2.1882,0,0,1-.168.8618,1.8434,1.8434,0,0,1-.48.67,2.2512,2.2512,0,0,1-.7559.4307,3.0291,3.0291,0,0,1-1.0078.1557c-.12,0-.24-.0063-.36-.018a2.736,2.736,0,0,1-.336-.0542,1.6609,1.6609,0,0,0-.4922.24.4931.4931,0,0,0-.2158.42.3646.3646,0,0,0,.2461.3721,1.8806,1.8806,0,0,0,.666.0957h1.416a2.5345,2.5345,0,0,1,1.6739.4516A1.5485,1.5485,0,0,1,88.2656,67.4238Zm-1.0449.1148a.6712.6712,0,0,0-.2695-.5581,1.605,1.605,0,0,0-.9541-.21H83.9092a.865.865,0,0,0-.1983,1.4458,1.5677,1.5677,0,0,0,1.0381.27h.84a2.5325,2.5325,0,0,0,1.2119-.2339A.7652.7652,0,0,0,87.2207,67.5386Zm-2.0635-3.6963a1.4682,1.4682,0,0,0,.9424-.2744,1.024,1.024,0,0,0,.3418-.8482v-.3105A1.0242,1.0242,0,0,0,86.1,61.561a1.7555,1.7555,0,0,0-1.8848,0,1.0242,1.0242,0,0,0-.3418.8482V62.72a1.024,1.024,0,0,0,.3418.8482A1.4665,1.4665,0,0,0,85.1572,63.8423Z"/><path class="cls-2" d="M91.625,66.9385a2.8322,2.8322,0,0,1-1.17-.2339,2.5382,2.5382,0,0,1-.8887-.6543,2.9325,2.9325,0,0,1-.5635-1.02,4.6346,4.6346,0,0,1,0-2.6817,2.931,2.931,0,0,1,.5635-1.0263,2.5357,2.5357,0,0,1,.8887-.6538,2.8242,2.8242,0,0,1,1.17-.2339,2.7624,2.7624,0,0,1,1.1582.2329,2.4561,2.4561,0,0,1,.8574.64,2.7659,2.7659,0,0,1,.5283.9688,3.9284,3.9284,0,0,1,.18,1.2075V63.95h-4.38v.2524a1.82,1.82,0,0,0,.4561,1.2779,1.6686,1.6686,0,0,0,1.2959.498,1.8525,1.8525,0,0,0,1.0078-.2641,1.9022,1.9022,0,0,0,.6729-.7442l.72.6162a2.4133,2.4133,0,0,1-.9727.9839A3.0337,3.0337,0,0,1,91.625,66.9385Zm0-5.604a1.6731,1.6731,0,0,0-.666.1313,1.59,1.59,0,0,0-.5283.3633,1.6109,1.6109,0,0,0-.3418.5547,1.9933,1.9933,0,0,0-.12.7031V63.17h3.1924v-.1191a1.82,1.82,0,0,0-.414-1.2456A1.419,1.419,0,0,0,91.625,61.3345Z"/><path class="cls-2" d="M99.8086,65.7861h-.0479a1.6835,1.6835,0,0,1-.6777.8614,2.043,2.043,0,0,1-1.11.291,2.3939,2.3939,0,0,1-1.05-.2222,2.1457,2.1457,0,0,1-.7862-.6479,3.0281,3.0281,0,0,1-.4922-1.0259,5.5592,5.5592,0,0,1,0-2.7119,3.0353,3.0353,0,0,1,.4922-1.0264,2.1559,2.1559,0,0,1,.7862-.648,2.3952,2.3952,0,0,1,1.05-.2216,2.0422,2.0422,0,0,1,1.11.291,1.6849,1.6849,0,0,1,.6777.8613h.0479V57.9146h1.1162v8.88H99.8086Zm-1.5117.1924a2,2,0,0,0,.5879-.0845,1.5,1.5,0,0,0,.48-.2412,1.2571,1.2571,0,0,0,.3233-.3618.89.89,0,0,0,.12-.4585v-2.292a.89.89,0,0,0-.12-.4585,1.2571,1.2571,0,0,0-.3233-.3618,1.5016,1.5016,0,0,0-.48-.2412,2.0032,2.0032,0,0,0-.5879-.0845,1.5325,1.5325,0,0,0-1.1944.4825,1.8294,1.8294,0,0,0-.4375,1.2788v1.0615a1.83,1.83,0,0,0,.4375,1.2788A1.5325,1.5325,0,0,0,98.2969,65.9785Z"/><path class="cls-2" d="M108.0762,66.9385a2.9113,2.9113,0,0,1-1.1875-.2281,2.4218,2.4218,0,0,1-.876-.6479,2.8257,2.8257,0,0,1-.5459-1.0259,4.591,4.591,0,0,1-.1865-1.35,4.5319,4.5319,0,0,1,.1865-1.3442,2.8953,2.8953,0,0,1,.5459-1.0259,2.4,2.4,0,0,1,.876-.6538,2.9114,2.9114,0,0,1,1.1875-.228,2.5415,2.5415,0,0,1,1.5.4077,2.4225,2.4225,0,0,1,.8525,1.08l-.9238.456a1.4393,1.4393,0,0,0-.5225-.72,1.51,1.51,0,0,0-.9062-.2637,1.4678,1.4678,0,0,0-1.2061.4917,1.93,1.93,0,0,0-.4014,1.26v1.08a1.9276,1.9276,0,0,0,.4014,1.26,1.4663,1.4663,0,0,0,1.2061.4922,1.6,1.6,0,0,0,.96-.2759,1.99,1.99,0,0,0,.6241-.78l.8164.5039a2.4506,2.4506,0,0,1-.9,1.11A2.6376,2.6376,0,0,1,108.0762,66.9385Z"/><path class="cls-2" d="M114.1006,66.9385a2.8682,2.8682,0,0,1-1.1582-.2281,2.5038,2.5038,0,0,1-.8936-.6538,3.0082,3.0082,0,0,1-.5761-1.0263,4.5272,4.5272,0,0,1,0-2.688,3.0119,3.0119,0,0,1,.5761-1.0259,2.505,2.505,0,0,1,.8936-.6538,3.0557,3.0557,0,0,1,2.3164,0,2.5046,2.5046,0,0,1,.8935.6538,3.01,3.01,0,0,1,.5762,1.0259,4.5272,4.5272,0,0,1,0,2.688,3.0067,3.0067,0,0,1-.5762,1.0263,2.5034,2.5034,0,0,1-.8935.6538A2.8651,2.8651,0,0,1,114.1006,66.9385Zm0-.96a1.6079,1.6079,0,0,0,1.1885-.456,1.8594,1.8594,0,0,0,.456-1.3682v-.936a1.8589,1.8589,0,0,0-.456-1.3677,1.7752,1.7752,0,0,0-2.376,0,1.8548,1.8548,0,0,0-.4561,1.3677v.936a1.8553,1.8553,0,0,0,.4561,1.3682A1.604,1.604,0,0,0,114.1006,65.9785Z"/><path class="cls-2" d="M119.62,66.7944a1.14,1.14,0,0,1-.87-.312,1.161,1.161,0,0,1-.2939-.8281v-7.74h1.1162v7.92h.8877v.96Z"/><path class="cls-2" d="M122.8848,66.7944a1.1406,1.1406,0,0,1-.87-.312,1.1571,1.1571,0,0,1-.2939-.8281v-7.74h1.1162v7.92h.8877v.96Z"/><path class="cls-2" d="M127.4326,66.9385a2.8325,2.8325,0,0,1-1.17-.2339,2.54,2.54,0,0,1-.8887-.6543,2.9341,2.9341,0,0,1-.5635-1.02,4.6346,4.6346,0,0,1,0-2.6817,2.9326,2.9326,0,0,1,.5635-1.0263,2.5375,2.5375,0,0,1,.8887-.6538,2.8246,2.8246,0,0,1,1.17-.2339,2.7621,2.7621,0,0,1,1.1582.2329,2.4552,2.4552,0,0,1,.8574.64,2.7661,2.7661,0,0,1,.5284.9688,3.9314,3.9314,0,0,1,.18,1.2075V63.95h-4.38v.2524a1.82,1.82,0,0,0,.456,1.2779,1.6686,1.6686,0,0,0,1.2959.498,1.8525,1.8525,0,0,0,1.0078-.2641,1.9022,1.9022,0,0,0,.6729-.7442l.72.6162a2.4136,2.4136,0,0,1-.9726.9839A3.0344,3.0344,0,0,1,127.4326,66.9385Zm0-5.604a1.6731,1.6731,0,0,0-.666.1313,1.59,1.59,0,0,0-.5283.3633,1.6124,1.6124,0,0,0-.3418.5547,1.9933,1.9933,0,0,0-.12.7031V63.17h3.1923v-.1191a1.82,1.82,0,0,0-.414-1.2456A1.419,1.419,0,0,0,127.4326,61.3345Z"/><path class="cls-2" d="M134.0322,66.9385a2.912,2.912,0,0,1-1.1875-.2281,2.4235,2.4235,0,0,1-.876-.6479,2.8255,2.8255,0,0,1-.5458-1.0259,4.5876,4.5876,0,0,1-.1866-1.35,4.5286,4.5286,0,0,1,.1866-1.3442,2.8951,2.8951,0,0,1,.5458-1.0259,2.4012,2.4012,0,0,1,.876-.6538,2.912,2.912,0,0,1,1.1875-.228,2.5415,2.5415,0,0,1,1.5.4077,2.422,2.422,0,0,1,.8526,1.08l-.9239.456a1.44,1.44,0,0,0-.5224-.72,1.51,1.51,0,0,0-.9063-.2637,1.4676,1.4676,0,0,0-1.206.4917,1.93,1.93,0,0,0-.4014,1.26v1.08a1.9276,1.9276,0,0,0,.4014,1.26,1.4661,1.4661,0,0,0,1.206.4922,1.6,1.6,0,0,0,.96-.2759,1.99,1.99,0,0,0,.624-.78l.8164.5039a2.4506,2.4506,0,0,1-.9,1.11A2.6376,2.6376,0,0,1,134.0322,66.9385Z"/><path class="cls-2" d="M139.2637,66.7944a1.15,1.15,0,0,1-.876-.3173,1.198,1.198,0,0,1-.3-.856V61.5386h-.9961v-.96h.5527a.5681.5681,0,0,0,.4317-.1323.6549.6549,0,0,0,.12-.4439v-1.14h1.0078v1.7163h1.332v.96h-1.332v4.2959H140.44v.96Z"/><path class="cls-2" d="M144.3643,66.9385a2.8678,2.8678,0,0,1-1.1582-.2281,2.5029,2.5029,0,0,1-.8936-.6538,3.01,3.01,0,0,1-.5762-1.0263,4.5272,4.5272,0,0,1,0-2.688,3.0138,3.0138,0,0,1,.5762-1.0259,2.5041,2.5041,0,0,1,.8936-.6538,3.0557,3.0557,0,0,1,2.3164,0,2.5046,2.5046,0,0,1,.8935.6538,3.0121,3.0121,0,0,1,.5762,1.0259,4.5272,4.5272,0,0,1,0,2.688,3.0083,3.0083,0,0,1-.5762,1.0263,2.5034,2.5034,0,0,1-.8935.6538A2.8651,2.8651,0,0,1,144.3643,66.9385Zm0-.96a1.6079,1.6079,0,0,0,1.1884-.456,1.8594,1.8594,0,0,0,.4561-1.3682v-.936a1.859,1.859,0,0,0-.4561-1.3677,1.7751,1.7751,0,0,0-2.3759,0,1.8548,1.8548,0,0,0-.4561,1.3677v.936a1.8553,1.8553,0,0,0,.4561,1.3682A1.604,1.604,0,0,0,144.3643,65.9785Z"/><path class="cls-2" d="M148.72,66.7944V60.5786h1.1162v1.188h.0606a1.7224,1.7224,0,0,1,.2158-.4443,1.5311,1.5311,0,0,1,.3594-.378,1.8625,1.8625,0,0,1,.5107-.2636,2.0247,2.0247,0,0,1,.666-.1021h.3721v1.1157h-.5527a2.1788,2.1788,0,0,0-1.2061.2823.8517.8517,0,0,0-.4258.7378v4.08Z"/><path class="cls-2" d="M160.5762,66.7944a.9875.9875,0,0,1-.7744-.2881,1.3468,1.3468,0,0,1-.3174-.7441h-.0606a1.6018,1.6018,0,0,1-.66.8765,2.0687,2.0687,0,0,1-1.14.3,2.1459,2.1459,0,0,1-1.5117-.4981,1.76,1.76,0,0,1-.54-1.3618,1.59,1.59,0,0,1,.6543-1.374,3.412,3.412,0,0,1,1.997-.4741H159.4v-.564a1.3008,1.3008,0,0,0-.3359-.96,1.4249,1.4249,0,0,0-1.044-.3359,1.6113,1.6113,0,0,0-.918.2456,2.0324,2.0324,0,0,0-.6064.6421l-.6719-.6118a2.363,2.363,0,0,1,.834-.8579,2.6117,2.6117,0,0,1,1.4219-.354,2.6455,2.6455,0,0,1,1.8.5566,1.983,1.983,0,0,1,.6367,1.5747v3.2686h.6953v.96Zm-2.7-.7558a1.8681,1.8681,0,0,0,1.0918-.3A.9026.9026,0,0,0,159.4,64.97v-.96h-1.1885a2.133,2.133,0,0,0-1.1221.228.7393.7393,0,0,0-.3535.66v.24a.7877.7877,0,0,0,.3057.6655A1.3411,1.3411,0,0,0,157.876,66.0386Z"/><path class="cls-2" d="M162.5439,66.7944V60.5786H163.66v1.0083h.0595a2.038,2.038,0,0,1,.63-.8315,1.7879,1.7879,0,0,1,1.1221-.3208,1.897,1.897,0,0,1,1.5058.624,2.5921,2.5921,0,0,1,.5459,1.7637v3.9721h-1.1152V62.9819q0-1.5872-1.3086-1.5874a1.9687,1.9687,0,0,0-.5342.0723,1.5723,1.5723,0,0,0-.4619.21,1.0311,1.0311,0,0,0-.3232.3487.9892.9892,0,0,0-.12.499v4.2695Z"/><path class="cls-2" d="M173.3555,65.7861h-.0479a1.6835,1.6835,0,0,1-.6777.8614,2.0434,2.0434,0,0,1-1.11.291,2.3939,2.3939,0,0,1-1.05-.2222,2.1462,2.1462,0,0,1-.7861-.6479,3.0281,3.0281,0,0,1-.4922-1.0259,5.556,5.556,0,0,1,0-2.7119,3.0353,3.0353,0,0,1,.4922-1.0264,2.1564,2.1564,0,0,1,.7861-.648,2.3952,2.3952,0,0,1,1.05-.2216,2.0425,2.0425,0,0,1,1.11.291,1.6849,1.6849,0,0,1,.6777.8613h.0479V57.9146h1.1162v8.88h-1.1162Zm-1.5118.1924a1.9994,1.9994,0,0,0,.5879-.0845,1.4991,1.4991,0,0,0,.4805-.2412,1.2571,1.2571,0,0,0,.3233-.3618.8909.8909,0,0,0,.12-.4585v-2.292a.8914.8914,0,0,0-.12-.4585,1.2571,1.2571,0,0,0-.3233-.3618,1.5011,1.5011,0,0,0-.4805-.2412,2.0028,2.0028,0,0,0-.5879-.0845,1.5323,1.5323,0,0,0-1.1943.4825,1.8294,1.8294,0,0,0-.4375,1.2788v1.0615a1.83,1.83,0,0,0,.4375,1.2788A1.5323,1.5323,0,0,0,171.8437,65.9785Z"/><path class="cls-2" d="M180.7959,66.7944a1.15,1.15,0,0,1-.876-.3173,1.1936,1.1936,0,0,1-.3-.856V61.5386h-.9961v-.96h.5518a.5665.5665,0,0,0,.4316-.1323.6543.6543,0,0,0,.12-.4439v-1.14h1.0088v1.7163h1.3311v.96h-1.3311v4.2959h1.2354v.96Z"/><path class="cls-2" d="M188.0791,66.7944a.9854.9854,0,0,1-.7734-.2881,1.3477,1.3477,0,0,1-.3184-.7441h-.06a1.6064,1.6064,0,0,1-.66.8765,2.0732,2.0732,0,0,1-1.14.3,2.1486,2.1486,0,0,1-1.5127-.4981,1.7638,1.7638,0,0,1-.54-1.3618,1.5906,1.5906,0,0,1,.6543-1.374,3.4136,3.4136,0,0,1,1.998-.4741h1.1758v-.564a1.3008,1.3008,0,0,0-.3359-.96,1.4233,1.4233,0,0,0-1.044-.3359,1.6132,1.6132,0,0,0-.9179.2456,2.0187,2.0187,0,0,0-.6055.6421l-.6729-.6118a2.3719,2.3719,0,0,1,.834-.8579,2.6153,2.6153,0,0,1,1.4229-.354,2.6488,2.6488,0,0,1,1.8.5566,1.9824,1.9824,0,0,1,.6357,1.5747v3.2686h.6963v.96Zm-2.6992-.7558a1.87,1.87,0,0,0,1.0918-.3.9015.9015,0,0,0,.4316-.7681v-.96h-1.1875a2.1281,2.1281,0,0,0-1.1221.228.738.738,0,0,0-.3544.66v.24a.7884.7884,0,0,0,.3066.6655A1.3391,1.3391,0,0,0,185.38,66.0386Z"/><path class="cls-2" d="M190.0479,66.7944V60.5786h1.1162v1.188h.06a1.7558,1.7558,0,0,1,.2159-.4443,1.535,1.535,0,0,1,.36-.378,1.844,1.844,0,0,1,.51-.2636,2.0286,2.0286,0,0,1,.666-.1021h.3721v1.1157h-.5518a2.1767,2.1767,0,0,0-1.2061.2823.8518.8518,0,0,0-.4257.7378v4.08Z"/><path class="cls-2" d="M199.6357,67.4238a1.5864,1.5864,0,0,1-.75,1.4453,4.5187,4.5187,0,0,1-2.3339.4693,4.2493,4.2493,0,0,1-2.13-.3965,1.2462,1.2462,0,0,1-.6426-1.1172,1.1141,1.1141,0,0,1,.27-.7925,1.4918,1.4918,0,0,1,.75-.4087v-.1323a.9026.9026,0,0,1-.6123-.916.8772.8772,0,0,1,.3125-.7227,1.8937,1.8937,0,0,1,.7676-.3618v-.0483a1.9661,1.9661,0,0,1-.8516-.7476,2.1019,2.1019,0,0,1-.3-1.1308,2.1718,2.1718,0,0,1,.168-.8614,1.9233,1.9233,0,0,1,.4736-.6757,2.1421,2.1421,0,0,1,.75-.4371,3.0423,3.0423,0,0,1,1.0078-.1552,3.0038,3.0038,0,0,1,.6123.06,3.58,3.58,0,0,1,.54.1558v-.1318a.9865.9865,0,0,1,.18-.6182.6823.6823,0,0,1,.5761-.2339h.9483v.936h-1.2246v.335a1.9,1.9,0,0,1,.78,1.627,2.1723,2.1723,0,0,1-.1679.8618,1.8436,1.8436,0,0,1-.4805.67,2.2512,2.2512,0,0,1-.7559.4307,3.0291,3.0291,0,0,1-1.0078.1557c-.12,0-.24-.0063-.3594-.018a2.7863,2.7863,0,0,1-.3369-.0542,1.6551,1.6551,0,0,0-.4912.24.4916.4916,0,0,0-.2168.42.3647.3647,0,0,0,.2461.3721,1.8809,1.8809,0,0,0,.666.0957H197.44a2.5326,2.5326,0,0,1,1.6738.4516A1.5454,1.5454,0,0,1,199.6357,67.4238Zm-1.0439.1148a.6694.6694,0,0,0-.27-.5581,1.6014,1.6014,0,0,0-.9531-.21h-2.0889a.8642.8642,0,0,0-.1973,1.4458,1.5677,1.5677,0,0,0,1.0381.27h.84a2.5379,2.5379,0,0,0,1.2119-.2339A.7654.7654,0,0,0,198.5918,67.5386Zm-2.0645-3.6963a1.4644,1.4644,0,0,0,.9424-.2744,1.0211,1.0211,0,0,0,.3418-.8482v-.3105a1.0213,1.0213,0,0,0-.3418-.8482,1.7538,1.7538,0,0,0-1.8838,0,1.0213,1.0213,0,0,0-.3418.8482V62.72a1.0211,1.0211,0,0,0,.3418.8482A1.4635,1.4635,0,0,0,196.5273,63.8423Z"/><path class="cls-2" d="M202.9951,66.9385a2.8355,2.8355,0,0,1-1.17-.2339,2.5435,2.5435,0,0,1-.8877-.6543,2.9358,2.9358,0,0,1-.5645-1.02,4.6571,4.6571,0,0,1,0-2.6817,2.9343,2.9343,0,0,1,.5645-1.0263,2.541,2.541,0,0,1,.8877-.6538,2.8275,2.8275,0,0,1,1.17-.2339,2.7559,2.7559,0,0,1,1.1582.2329,2.4682,2.4682,0,0,1,.8584.64,2.7642,2.7642,0,0,1,.5274.9688,3.9314,3.9314,0,0,1,.1806,1.2075V63.95h-4.38v.2524a1.8154,1.8154,0,0,0,.4561,1.2779,1.6671,1.6671,0,0,0,1.2959.498,1.8549,1.8549,0,0,0,1.0078-.2641,1.8925,1.8925,0,0,0,.6719-.7442l.72.6162a2.4169,2.4169,0,0,1-.9717.9839A3.0376,3.0376,0,0,1,202.9951,66.9385Zm0-5.604a1.6766,1.6766,0,0,0-.666.1313,1.5667,1.5667,0,0,0-.8691.918,1.9933,1.9933,0,0,0-.12.7031V63.17h3.1914v-.1191a1.8148,1.8148,0,0,0-.414-1.2456A1.4162,1.4162,0,0,0,202.9951,61.3345Z"/><path class="cls-2" d="M208.7666,66.7944a1.15,1.15,0,0,1-.876-.3173,1.198,1.198,0,0,1-.3-.856V61.5386h-.9961v-.96h.5528a.568.568,0,0,0,.4316-.1323.6543.6543,0,0,0,.12-.4439v-1.14h1.0078v1.7163h1.3321v.96H208.707v4.2959h1.2364v.96Z"/><path class="cls-2" d="M212.0908,59.2822a.6807.6807,0,0,1-.51-.1679.6143.6143,0,0,1-.1622-.4439v-.168a.6141.6141,0,0,1,.1622-.4438.8589.8589,0,0,1,1.02,0,.6144.6144,0,0,1,.1621.4438v.168a.6147.6147,0,0,1-.1621.4439A.6819.6819,0,0,1,212.0908,59.2822Zm-.5635,1.2964h1.1163v6.2158h-1.1163Z"/><path class="cls-2" d="M214.6113,66.7944V60.5786h1.1162v1.0083h.06a2.0371,2.0371,0,0,1,.63-.8315,1.7879,1.7879,0,0,1,1.1221-.3208,1.897,1.897,0,0,1,1.5058.624,2.5921,2.5921,0,0,1,.5459,1.7637v3.9721h-1.1152V62.9819q0-1.5872-1.3086-1.5874a1.9687,1.9687,0,0,0-.5342.0723,1.5711,1.5711,0,0,0-.4619.21,1.0311,1.0311,0,0,0-.3232.3487.9893.9893,0,0,0-.12.499v4.2695Z"/><path class="cls-2" d="M226.8271,67.4238a1.5864,1.5864,0,0,1-.75,1.4453,4.5187,4.5187,0,0,1-2.3339.4693,4.2493,4.2493,0,0,1-2.13-.3965,1.2462,1.2462,0,0,1-.6426-1.1172,1.1141,1.1141,0,0,1,.27-.7925,1.4918,1.4918,0,0,1,.75-.4087v-.1323a.9026.9026,0,0,1-.6123-.916.8772.8772,0,0,1,.3125-.7227,1.8937,1.8937,0,0,1,.7676-.3618v-.0483a1.9661,1.9661,0,0,1-.8516-.7476,2.1019,2.1019,0,0,1-.3-1.1308,2.1718,2.1718,0,0,1,.168-.8614,1.9233,1.9233,0,0,1,.4736-.6757,2.1421,2.1421,0,0,1,.75-.4371,3.0427,3.0427,0,0,1,1.0078-.1552,3.0023,3.0023,0,0,1,.6123.06,3.58,3.58,0,0,1,.54.1558v-.1318a.9865.9865,0,0,1,.18-.6182.6823.6823,0,0,1,.5761-.2339h.9483v.936h-1.2246v.335a1.9,1.9,0,0,1,.78,1.627,2.1723,2.1723,0,0,1-.1679.8618,1.8436,1.8436,0,0,1-.4805.67,2.2512,2.2512,0,0,1-.7559.4307,3.0291,3.0291,0,0,1-1.0078.1557c-.12,0-.24-.0063-.3593-.018a2.7849,2.7849,0,0,1-.337-.0542,1.6551,1.6551,0,0,0-.4912.24.4916.4916,0,0,0-.2168.42.3647.3647,0,0,0,.2461.3721,1.8809,1.8809,0,0,0,.666.0957h1.4161a2.5326,2.5326,0,0,1,1.6738.4516A1.5454,1.5454,0,0,1,226.8271,67.4238Zm-1.0439.1148a.6694.6694,0,0,0-.27-.5581,1.6014,1.6014,0,0,0-.9531-.21h-2.0889a.8642.8642,0,0,0-.1973,1.4458,1.5677,1.5677,0,0,0,1.0381.27h.84a2.5379,2.5379,0,0,0,1.2119-.2339A.7652.7652,0,0,0,225.7832,67.5386Zm-2.0645-3.6963a1.4644,1.4644,0,0,0,.9424-.2744,1.0211,1.0211,0,0,0,.3418-.8482v-.3105a1.0213,1.0213,0,0,0-.3418-.8482,1.7538,1.7538,0,0,0-1.8838,0,1.0213,1.0213,0,0,0-.3418.8482V62.72a1.0211,1.0211,0,0,0,.3418.8482A1.4635,1.4635,0,0,0,223.7187,63.8423Z"/><path class="cls-2" d="M50.01,74.979h1.08l-2.7,7.5718a3.2023,3.2023,0,0,1-.2285.4922,1.0041,1.0041,0,0,1-.2939.3237,1.1767,1.1767,0,0,1-.4141.1743,2.8113,2.8113,0,0,1-.6.0537h-.6123v-.96h1.02l.42-1.1983L45.3779,74.979h1.1153l1.38,3.9639.3243,1.1616h.0605l.3594-1.1616Z"/><path class="cls-2" d="M54.5693,81.3389a2.8685,2.8685,0,0,1-1.1582-.2281,2.5034,2.5034,0,0,1-.8935-.6538,3.0067,3.0067,0,0,1-.5762-1.0263,4.5272,4.5272,0,0,1,0-2.688,3.01,3.01,0,0,1,.5762-1.0259,2.5034,2.5034,0,0,1,.8935-.6538,3.0557,3.0557,0,0,1,2.3164,0,2.5038,2.5038,0,0,1,.8936.6538,3.0138,3.0138,0,0,1,.5762,1.0259,4.5272,4.5272,0,0,1,0,2.688,3.01,3.01,0,0,1-.5762,1.0263,2.5038,2.5038,0,0,1-.8936.6538A2.8644,2.8644,0,0,1,54.5693,81.3389Zm0-.96a1.6079,1.6079,0,0,0,1.1885-.456,1.8594,1.8594,0,0,0,.4561-1.3682v-.936a1.8588,1.8588,0,0,0-.4561-1.3677,1.7752,1.7752,0,0,0-2.376,0,1.8546,1.8546,0,0,0-.456,1.3677v.936a1.8553,1.8553,0,0,0,.456,1.3682A1.6042,1.6042,0,0,0,54.5693,80.3789Z"/><path class="cls-2" d="M62.73,80.1865h-.06a2.1669,2.1669,0,0,1-.2226.4336,1.521,1.521,0,0,1-.3477.3682,1.6757,1.6757,0,0,1-.498.2554,2.1478,2.1478,0,0,1-.6719.0952,1.9121,1.9121,0,0,1-1.5117-.6241,2.5745,2.5745,0,0,1-.5528-1.7641V74.979h1.1162v3.8125q0,1.5871,1.32,1.5874a2.076,2.076,0,0,0,.5214-.0664,1.3214,1.3214,0,0,0,.4561-.21,1.1605,1.1605,0,0,0,.3242-.36.9876.9876,0,0,0,.126-.5054V74.979h1.1162v6.2158H62.73Z"/><path class="cls-2" d="M65.8135,81.1948V74.979H66.93v1.188h.06a1.7554,1.7554,0,0,1,.2158-.4443,1.5368,1.5368,0,0,1,.36-.378,1.844,1.844,0,0,1,.51-.2636,2.029,2.029,0,0,1,.666-.1021h.3721v1.1157h-.5518a2.1761,2.1761,0,0,0-1.206.2823.8515.8515,0,0,0-.4258.7377v4.08Z"/><path class="cls-2" d="M73.1455,81.1948V74.979h1.1162v1.188h.06a1.7554,1.7554,0,0,1,.2158-.4443,1.5354,1.5354,0,0,1,.36-.378,1.8419,1.8419,0,0,1,.51-.2636,2.029,2.029,0,0,1,.666-.1021h.3721v1.1157h-.5517a2.1765,2.1765,0,0,0-1.2061.2823.8515.8515,0,0,0-.4258.7377v4.08Z"/><path class="cls-2" d="M79.9609,81.3389a2.8371,2.8371,0,0,1-1.17-.2339,2.5454,2.5454,0,0,1-.8877-.6543,2.934,2.934,0,0,1-.5644-1.02,4.6548,4.6548,0,0,1,0-2.6817,2.9325,2.9325,0,0,1,.5644-1.0263,2.5443,2.5443,0,0,1,.8877-.6539,2.8291,2.8291,0,0,1,1.17-.2338,2.7556,2.7556,0,0,1,1.1582.2329,2.4682,2.4682,0,0,1,.8584.64,2.7634,2.7634,0,0,1,.5274.9688,3.9314,3.9314,0,0,1,.1806,1.2075v.4663h-4.38v.2524a1.8156,1.8156,0,0,0,.456,1.2779,1.6673,1.6673,0,0,0,1.2959.498,1.8538,1.8538,0,0,0,1.0078-.2642,1.8915,1.8915,0,0,0,.6719-.7441l.72.6162a2.4172,2.4172,0,0,1-.9716.9839A3.0382,3.0382,0,0,1,79.9609,81.3389Zm0-5.604a1.6766,1.6766,0,0,0-.666.1313,1.5667,1.5667,0,0,0-.8691.918,1.9933,1.9933,0,0,0-.12.7031v.0835h3.1914v-.1191a1.8149,1.8149,0,0,0-.4141-1.2456A1.4162,1.4162,0,0,0,79.9609,75.7349Z"/><path class="cls-2" d="M86.1172,81.3389a3.0065,3.0065,0,0,1-1.458-.3243,3.29,3.29,0,0,1-1.0254-.8759l.7558-.648a2.5541,2.5541,0,0,0,.7862.6841,2.0709,2.0709,0,0,0,1.0137.24,1.45,1.45,0,0,0,.9121-.2461.8941.8941,0,0,0,.1015-1.2539,1.3233,1.3233,0,0,0-.7861-.312l-.5274-.084a4.0518,4.0518,0,0,1-.8164-.1923,2.1,2.1,0,0,1-.6357-.3477,1.5242,1.5242,0,0,1-.4141-.5283,1.6952,1.6952,0,0,1-.15-.7437,1.8766,1.8766,0,0,1,.168-.81,1.6154,1.6154,0,0,1,.4688-.5884,2.09,2.09,0,0,1,.7138-.354,3.2513,3.2513,0,0,1,.9053-.12,2.9419,2.9419,0,0,1,1.32.2636,2.8953,2.8953,0,0,1,.9238.7325l-.708.6718a1.99,1.99,0,0,0-.6181-.5219,1.8979,1.8979,0,0,0-.9532-.2222,1.2978,1.2978,0,0,0-.8583.24.792.792,0,0,0-.2823.6358.6966.6966,0,0,0,.27.6118,1.9214,1.9214,0,0,0,.81.2763l.5283.084a2.6483,2.6483,0,0,1,1.4815.6,1.5589,1.5589,0,0,1,.45,1.1636,1.7728,1.7728,0,0,1-.6358,1.44A2.6418,2.6418,0,0,1,86.1172,81.3389Z"/><path class="cls-2" d="M92.4775,81.3389a2.8617,2.8617,0,0,1-1.1582-.2281,2.5079,2.5079,0,0,1-.8945-.6538,3.0082,3.0082,0,0,1-.5752-1.0263,4.5272,4.5272,0,0,1,0-2.688,3.0119,3.0119,0,0,1,.5752-1.0259,2.5079,2.5079,0,0,1,.8945-.6538,3.0534,3.0534,0,0,1,2.3155,0,2.4992,2.4992,0,0,1,.8945.6538,3.03,3.03,0,0,1,.5762,1.0259,4.5272,4.5272,0,0,1,0,2.688,3.0267,3.0267,0,0,1-.5762,1.0263,2.4992,2.4992,0,0,1-.8945.6538A2.86,2.86,0,0,1,92.4775,81.3389Zm0-.96a1.6056,1.6056,0,0,0,1.1875-.456,1.8594,1.8594,0,0,0,.4561-1.3682v-.936a1.8588,1.8588,0,0,0-.4561-1.3677,1.7751,1.7751,0,0,0-2.3759,0,1.8588,1.8588,0,0,0-.4561,1.3677v.936a1.8594,1.8594,0,0,0,.4561,1.3682A1.6063,1.6063,0,0,0,92.4775,80.3789Z"/><path class="cls-2" d="M100.6367,80.1865h-.06a2.1669,2.1669,0,0,1-.2226.4336,1.521,1.521,0,0,1-.3477.3682,1.6745,1.6745,0,0,1-.498.2554,2.1474,2.1474,0,0,1-.6719.0952,1.9121,1.9121,0,0,1-1.5117-.6241,2.5745,2.5745,0,0,1-.5527-1.7641V74.979h1.1162v3.8125q0,1.5871,1.32,1.5874a2.0768,2.0768,0,0,0,.5215-.0664,1.3218,1.3218,0,0,0,.456-.21,1.1593,1.1593,0,0,0,.3242-.36.9876.9876,0,0,0,.126-.5054V74.979h1.1162v6.2158h-1.1162Z"/><path class="cls-2" d="M103.7207,81.1948V74.979h1.1162v1.188h.0606a1.7224,1.7224,0,0,1,.2158-.4443,1.5311,1.5311,0,0,1,.3594-.378,1.8625,1.8625,0,0,1,.5107-.2636,2.0247,2.0247,0,0,1,.666-.1021h.3721v1.1157h-.5528a2.1786,2.1786,0,0,0-1.206.2823.8515.8515,0,0,0-.4258.7377v4.08Z"/><path class="cls-2" d="M110.5127,81.3389a2.9117,2.9117,0,0,1-1.1875-.2281,2.4235,2.4235,0,0,1-.876-.6479,2.8257,2.8257,0,0,1-.5459-1.0259,4.591,4.591,0,0,1-.1865-1.35,4.5319,4.5319,0,0,1,.1865-1.3442,2.8953,2.8953,0,0,1,.5459-1.0259,2.4,2.4,0,0,1,.876-.6538,2.9117,2.9117,0,0,1,1.1875-.228,2.5415,2.5415,0,0,1,1.5.4077,2.4206,2.4206,0,0,1,.8525,1.08l-.9238.456a1.4393,1.4393,0,0,0-.5225-.72,1.51,1.51,0,0,0-.9062-.2637,1.4679,1.4679,0,0,0-1.2061.4917,1.9307,1.9307,0,0,0-.4013,1.26v1.08a1.9281,1.9281,0,0,0,.4013,1.26,1.4667,1.4667,0,0,0,1.2061.4922,1.6,1.6,0,0,0,.96-.2759,1.9912,1.9912,0,0,0,.624-.78l.8164.5039a2.4511,2.4511,0,0,1-.9,1.11A2.6376,2.6376,0,0,1,110.5127,81.3389Z"/><path class="cls-2" d="M116.5244,81.3389a2.8371,2.8371,0,0,1-1.17-.2339,2.5435,2.5435,0,0,1-.8877-.6543,2.9358,2.9358,0,0,1-.5645-1.02,4.6571,4.6571,0,0,1,0-2.6817,2.9343,2.9343,0,0,1,.5645-1.0263,2.5425,2.5425,0,0,1,.8877-.6539,2.8291,2.8291,0,0,1,1.17-.2338,2.7559,2.7559,0,0,1,1.1582.2329,2.4682,2.4682,0,0,1,.8584.64,2.7634,2.7634,0,0,1,.5274.9688,3.9314,3.9314,0,0,1,.1806,1.2075v.4663h-4.38v.2524a1.8156,1.8156,0,0,0,.4561,1.2779,1.6671,1.6671,0,0,0,1.2959.498,1.8541,1.8541,0,0,0,1.0078-.2642,1.8915,1.8915,0,0,0,.6719-.7441l.72.6162a2.4169,2.4169,0,0,1-.9717.9839A3.0376,3.0376,0,0,1,116.5244,81.3389Zm0-5.604a1.6766,1.6766,0,0,0-.666.1313,1.5667,1.5667,0,0,0-.8691.918,1.9933,1.9933,0,0,0-.12.7031v.0835h3.1914v-.1191a1.8148,1.8148,0,0,0-.414-1.2456A1.4162,1.4162,0,0,0,116.5244,75.7349Z"/><path class="cls-2" d="M122.6807,81.3389a3.0062,3.0062,0,0,1-1.458-.3243,3.2891,3.2891,0,0,1-1.0254-.8759l.7558-.648a2.5541,2.5541,0,0,0,.7862.6841,2.0705,2.0705,0,0,0,1.0136.24,1.45,1.45,0,0,0,.9121-.2461.894.894,0,0,0,.1016-1.2539,1.3236,1.3236,0,0,0-.7861-.312l-.5274-.084a4.0518,4.0518,0,0,1-.8164-.1923,2.1,2.1,0,0,1-.6357-.3477,1.5242,1.5242,0,0,1-.4141-.5283,1.6938,1.6938,0,0,1-.15-.7437,1.8766,1.8766,0,0,1,.168-.81,1.6151,1.6151,0,0,1,.4687-.5884,2.09,2.09,0,0,1,.7139-.354,3.2513,3.2513,0,0,1,.9053-.12,2.9422,2.9422,0,0,1,1.32.2636,2.8964,2.8964,0,0,1,.9238.7325l-.708.6718a1.9912,1.9912,0,0,0-.6181-.5219,1.8979,1.8979,0,0,0-.9532-.2222,1.2981,1.2981,0,0,0-.8584.24.7923.7923,0,0,0-.2822.6358.6964.6964,0,0,0,.27.6118,1.9214,1.9214,0,0,0,.81.2763l.5283.084a2.6479,2.6479,0,0,1,1.4814.6,1.5586,1.5586,0,0,1,.45,1.1636,1.7728,1.7728,0,0,1-.6357,1.44A2.6418,2.6418,0,0,1,122.6807,81.3389Z"/><path class="cls-2" d="M127.2646,81.3389a.6931.6931,0,0,1-.7919-.7442v-.18a.7923.7923,0,1,1,1.5839,0v.18a.6919.6919,0,0,1-.792.7442Z"/><rect id="_Transparent_Rectangle_" data-name=" Transparent Rectangle " class="cls-3" x="7" y="9" width="32" height="32"/><polygon class="cls-1" points="37 39 31 39 31 37 35 37 35 13 31 13 31 11 37 11 37 39"/><path class="cls-1" d="M26.6872,16.4494a4.5026,4.5026,0,0,0-3.24,6.16,4.93,4.93,0,0,0,.35.64l-2.81,2.81a4.53,4.53,0,1,0,1.41,1.41l2.81-2.81a4.4828,4.4828,0,0,0,6.54-2.05,4.5026,4.5026,0,0,0-3.24-6.16A4.6532,4.6532,0,0,0,26.6872,16.4494Zm-5.59,13.41a2.5,2.5,0,1,1-2.5-2.5A2.5,2.5,0,0,1,21.0972,29.8594Z"/><polygon class="cls-1" points="15 39 9 39 9 11 15 11 15 13 11 13 11 37 15 37 15 39"/><rect class="cls-4" x="1" y="1" width="248" height="98"/></svg>