<?xml version="1.0" encoding="utf-8"?>
<svg xmlns="http://www.w3.org/2000/svg" width="159.5923" height="47.8204" viewBox="0 0 159.5923 47.8204"><defs><style>.cls-1{fill:#002d9c;}.cls-2{fill:#a6c8ff;}.cls-3,.cls-4,.cls-5{fill:none;stroke-miterlimit:10;stroke-width:2.3165px;}.cls-3{stroke:#4589ff;}.cls-4{stroke:#0043ce;}.cls-5{stroke:#0f62fe;}</style></defs><g id="Text"><path class="cls-1" d="M49.4223,29.5343V18.8233h6.5371v1.1358h-5.248v3.59h4.9414v1.1357H50.7114v3.7134h5.248v1.1358Z"/><path class="cls-1" d="M58.2456,29.5343v-7.918h1.2275v1.2744h.0615a2.5849,2.5849,0,0,1,.8213-1.0635,2.32,2.32,0,0,1,1.4189-.395,2.4846,2.4846,0,0,1,1.9415.79,3.2178,3.2178,0,0,1,.7138,2.2329v5.0791H63.2026v-4.875q0-2.1379-1.7959-2.1377a2.7417,2.7417,0,0,0-.7129.0923,2.0781,2.0781,0,0,0-.6221.2768,1.3728,1.3728,0,0,0-.4375.4693,1.3339,1.3339,0,0,0-.1611.6689v5.5054Z"/><path class="cls-1" d="M72.7163,29.5343a1.2087,1.2087,0,0,1-.99-.3682,1.837,1.837,0,0,1-.376-.9209h-.0761a2.0483,2.0483,0,0,1-.8594,1.1045,2.6662,2.6662,0,0,1-1.4268.3691,2.777,2.777,0,0,1-1.957-.6445,2.2633,2.2633,0,0,1-.6982-1.75,1.9978,1.9978,0,0,1,.8213-1.7187,4.3672,4.3672,0,0,1,2.5546-.5987h1.5655v-.7822a1.7091,1.7091,0,0,0-.461-1.2891,1.9637,1.9637,0,0,0-1.4111-.4448,2.1253,2.1253,0,0,0-1.2051.3223,2.6557,2.6557,0,0,0-.8056.8594l-.7364-.6905a2.7955,2.7955,0,0,1,1.0284-1.0971,3.2373,3.2373,0,0,1,1.78-.4527,3.2767,3.2767,0,0,1,2.24.7041,2.4807,2.4807,0,0,1,.7978,1.96v4.3481h.9053v1.09Zm-3.5293-.8594a3.1365,3.1365,0,0,0,.8437-.1074,2.0713,2.0713,0,0,0,.66-.3067,1.5212,1.5212,0,0,0,.43-.4609,1.1046,1.1046,0,0,0,.1533-.5674V25.9278h-1.627a2.9626,2.9626,0,0,0-1.542.3076.99.99,0,0,0-.4834.89v.3223a1.0735,1.0735,0,0,0,.4219.9052A1.8386,1.8386,0,0,0,69.187,28.6749Z"/><path class="cls-1" d="M75.1557,18.1788h1.2275v4.7119h.0616a2.2243,2.2243,0,0,1,.8984-1.1016,2.6938,2.6938,0,0,1,1.419-.3569,3.0059,3.0059,0,0,1,1.3349.2915,2.8971,2.8971,0,0,1,1.02.8286,3.8021,3.8021,0,0,1,.6446,1.3042,6.7467,6.7467,0,0,1,0,3.4375,3.79,3.79,0,0,1-.6446,1.3037,2.892,2.892,0,0,1-1.02.8291,3.0047,3.0047,0,0,1-1.3349.292A2.3983,2.3983,0,0,1,76.4448,28.26h-.0616v1.2744H75.1557Zm3.2686,10.45a2.1147,2.1147,0,0,0,1.6425-.6553,2.4518,2.4518,0,0,0,.5987-1.72V24.8966a2.454,2.454,0,0,0-.5987-1.72,2.1146,2.1146,0,0,0-1.6425-.6552,2.6741,2.6741,0,0,0-.79.1157,2.2139,2.2139,0,0,0-.6523.3159,1.53,1.53,0,0,0-.4375.4859,1.2209,1.2209,0,0,0-.1612.6093V27.01a1.4341,1.4341,0,0,0,.1612.6865,1.5519,1.5519,0,0,0,.4375.5088,1.97,1.97,0,0,0,.6523.3154A2.8423,2.8423,0,0,0,78.4243,28.629Z"/><path class="cls-1" d="M85.3608,29.5343a1.2557,1.2557,0,0,1-.9746-.36,1.2972,1.2972,0,0,1-.33-.9131V18.1788h1.2275V28.4444H86.45v1.09Z"/><path class="cls-1" d="M91.2065,29.7188a3.55,3.55,0,0,1-1.4649-.292,3.1466,3.1466,0,0,1-1.12-.8359A3.8323,3.8323,0,0,1,87.9,27.2862a5.889,5.889,0,0,1,0-3.4145,3.8253,3.8253,0,0,1,.7217-1.312,3.1539,3.1539,0,0,1,1.12-.836,3.5513,3.5513,0,0,1,1.4649-.2915,3.3683,3.3683,0,0,1,1.4277.29,3.1642,3.1642,0,0,1,1.0742.8028,3.5966,3.5966,0,0,1,.6827,1.2158,4.8066,4.8066,0,0,1,.2373,1.5449v.58H88.936v.3691a2.7115,2.7115,0,0,0,.1611.9434,2.2416,2.2416,0,0,0,.46.76,2.0938,2.0938,0,0,0,.7363.5058,2.5274,2.5274,0,0,0,.99.1846,2.399,2.399,0,0,0,1.3116-.3535,2.3,2.3,0,0,0,.8671-1.0127l.875.6338a3.0594,3.0594,0,0,1-1.1972,1.32A3.613,3.613,0,0,1,91.2065,29.7188Zm0-7.2588a2.33,2.33,0,0,0-.92.1758,2.0636,2.0636,0,0,0-.7139.4956,2.3256,2.3256,0,0,0-.4678.7544,2.5984,2.5984,0,0,0-.1689.9532v.1074h4.373v-.168a2.4072,2.4072,0,0,0-.5752-1.6851A1.9635,1.9635,0,0,0,91.2065,22.46Z"/><path class="cls-1" d="M100.8891,19.7594a.75.75,0,0,1-.5752-.1919.7052.7052,0,0,1-.1767-.4986v-.2a.7048.7048,0,0,1,.1767-.4985.958.958,0,0,1,1.15,0,.7048.7048,0,0,1,.1768.4985v.2a.7052.7052,0,0,1-.1768.4986A.75.75,0,0,1,100.8891,19.7594Zm-.6133,1.8569h1.2276v7.918h-1.2276Z"/><path class="cls-1" d="M104.1127,29.5343v-7.918H105.34v1.2744h.0615a2.5746,2.5746,0,0,1,.82-1.0635,2.3231,2.3231,0,0,1,1.42-.395,2.4856,2.4856,0,0,1,1.9414.79,3.2171,3.2171,0,0,1,.7129,2.2329v5.0791h-1.2275v-4.875q0-2.1379-1.7949-2.1377a2.7493,2.7493,0,0,0-.7139.0923,2.0611,2.0611,0,0,0-.6211.2768,1.3632,1.3632,0,0,0-.4375.4693,1.3339,1.3339,0,0,0-.1611.6689v5.5054Z"/><path class="cls-1" d="M115.2065,29.7188a3.7033,3.7033,0,0,1-1.8486-.4228,4.1977,4.1977,0,0,1-1.2813-1.1279l.874-.7051a3.45,3.45,0,0,0,1.0284.8974,2.6772,2.6772,0,0,0,1.32.3145,1.9519,1.9519,0,0,0,1.22-.3379,1.2248,1.2248,0,0,0,.1377-1.7412,1.8261,1.8261,0,0,0-1.082-.4531l-.629-.0918a5.221,5.221,0,0,1-1.0126-.2383,2.8283,2.8283,0,0,1-.8057-.4287,1.8556,1.8556,0,0,1-.5371-.668,2.1759,2.1759,0,0,1-.1914-.9517,2.2828,2.2828,0,0,1,.2148-1.02,2.0431,2.0431,0,0,1,.5908-.729,2.5759,2.5759,0,0,1,.8975-.4375,4.1473,4.1473,0,0,1,1.12-.1455,3.4994,3.4994,0,0,1,1.6192.3374,3.627,3.627,0,0,1,1.1425.9361l-.8125.7363a2.42,2.42,0,0,0-2.041-.9663,1.7606,1.7606,0,0,0-1.1592.33,1.1134,1.1134,0,0,0-.3906.8979.9394.9394,0,0,0,.3906.8438,2.92,2.92,0,0,0,1.128.3838l.6142.0917a3.2939,3.2939,0,0,1,1.8721.76,1.9994,1.9994,0,0,1,.5527,1.4658,2.2435,2.2435,0,0,1-.7832,1.8106A3.2331,3.2331,0,0,1,115.2065,29.7188Z"/><path class="cls-1" d="M120.9145,19.7594a.75.75,0,0,1-.5752-.1919.7052.7052,0,0,1-.1768-.4986v-.2a.7048.7048,0,0,1,.1768-.4985.958.958,0,0,1,1.15,0,.7048.7048,0,0,1,.1768.4985v.2a.7052.7052,0,0,1-.1768.4986A.75.75,0,0,1,120.9145,19.7594Zm-.6133,1.8569h1.2276v7.918h-1.2276Z"/><path class="cls-1" d="M130.8129,30.4171a1.9452,1.9452,0,0,1-.9589,1.7969,5.7291,5.7291,0,0,1-2.877.5732,5.2836,5.2836,0,0,1-2.6709-.5059,1.6027,1.6027,0,0,1-.8125-1.44,1.4135,1.4135,0,0,1,.3369-1.0039,1.996,1.996,0,0,1,.9209-.5293V29.14a1.1381,1.1381,0,0,1-.706-1.1006,1.1038,1.1038,0,0,1,.3837-.9082,2.524,2.524,0,0,1,.9825-.4668v-.0605a2.5591,2.5591,0,0,1-1.0977-.97,2.7192,2.7192,0,0,1-.3906-1.4624,2.8092,2.8092,0,0,1,.2148-1.1079,2.4791,2.4791,0,0,1,.6055-.87,2.7612,2.7612,0,0,1,.9365-.5615,3.83,3.83,0,0,1,2.7237.1065v-.1382a1.3,1.3,0,0,1,.2148-.77.8042.8042,0,0,1,.7061-.3046h1.1816v1.09h-1.5039v.5078a2.5825,2.5825,0,0,1,.667.8848,2.7327,2.7327,0,0,1,.2383,1.1621,2.8036,2.8036,0,0,1-.2149,1.1074,2.4947,2.4947,0,0,1-.6064.87,2.7392,2.7392,0,0,1-.9434.5615,3.5725,3.5725,0,0,1-1.2275.2,3.8587,3.8587,0,0,1-.7676-.0771,2.5579,2.5579,0,0,0-.7207.3154.6476.6476,0,0,0-.3223.5752.4674.4674,0,0,0,.3369.4756,2.6024,2.6024,0,0,0,.875.1231h1.6875a3.3184,3.3184,0,0,1,2.1407.5576A1.8954,1.8954,0,0,1,130.8129,30.4171Zm-1.15.084a.9185.9185,0,0,0-.3613-.76,2.1375,2.1375,0,0,0-1.2812-.2842h-2.64a1.1235,1.1235,0,0,0-.7363,1.0742,1.1808,1.1808,0,0,0,.3916.8907,1.9169,1.9169,0,0,0,1.3271.3681h1.1358a3.2631,3.2631,0,0,0,1.5957-.3222A1.0443,1.0443,0,0,0,129.6625,30.5011Zm-2.747-4.5733a1.9079,1.9079,0,0,0,1.2431-.3769,1.4189,1.4189,0,0,0,.46-1.1641v-.4316a1.4182,1.4182,0,0,0-.46-1.1636,2.2357,2.2357,0,0,0-2.4863,0,1.4185,1.4185,0,0,0-.46,1.1636v.4316a1.4192,1.4192,0,0,0,.46,1.1641A1.9065,1.9065,0,0,0,126.9155,25.9278Z"/><path class="cls-1" d="M132.24,18.1788h1.2275v4.7119h.0616a2.573,2.573,0,0,1,.82-1.0635,2.3229,2.3229,0,0,1,1.42-.395,2.4859,2.4859,0,0,1,1.9414.79,3.2171,3.2171,0,0,1,.7129,2.2329v5.0791h-1.2276v-4.875q0-2.1379-1.7949-2.1377a2.748,2.748,0,0,0-.7138.0923,2.0611,2.0611,0,0,0-.6211.2768,1.3632,1.3632,0,0,0-.4375.4693,1.3329,1.3329,0,0,0-.1612.6689v5.5054H132.24Z"/><path class="cls-1" d="M142.7045,29.5343a1.259,1.259,0,0,1-.9746-.3594,1.341,1.341,0,0,1-.33-.9424V22.7057h-1.3037V21.6163h.7364a.7233.7233,0,0,0,.5449-.1611.8393.8393,0,0,0,.1455-.56V19.422h1.1045v2.1943h1.7344v1.0894h-1.7344v5.7387h1.6113v1.09Z"/><path class="cls-1" d="M148.72,29.7188a3.7035,3.7035,0,0,1-1.8487-.4228,4.1973,4.1973,0,0,1-1.2812-1.1279l.874-.7051a3.4505,3.4505,0,0,0,1.0283.8974,2.6775,2.6775,0,0,0,1.32.3145,1.952,1.952,0,0,0,1.22-.3379,1.2248,1.2248,0,0,0,.1377-1.7412,1.8264,1.8264,0,0,0-1.0821-.4531l-.6289-.0918a5.2238,5.2238,0,0,1-1.0127-.2383,2.8277,2.8277,0,0,1-.8056-.4287,1.8556,1.8556,0,0,1-.5371-.668,2.1759,2.1759,0,0,1-.1915-.9517,2.2814,2.2814,0,0,1,.2149-1.02,2.0421,2.0421,0,0,1,.5908-.729,2.5759,2.5759,0,0,1,.8975-.4375,4.1468,4.1468,0,0,1,1.12-.1455,3.4986,3.4986,0,0,1,1.6191.3374,3.6262,3.6262,0,0,1,1.1426.9361l-.8125.7363a2.4206,2.4206,0,0,0-2.041-.9663,1.7606,1.7606,0,0,0-1.1592.33,1.1134,1.1134,0,0,0-.3906.8979.9394.9394,0,0,0,.3906.8438,2.92,2.92,0,0,0,1.1279.3838l.6143.0917a3.2939,3.2939,0,0,1,1.8721.76,2,2,0,0,1,.5527,1.4658,2.2435,2.2435,0,0,1-.7832,1.8106A3.2331,3.2331,0,0,1,148.72,29.7188Z"/><path class="cls-2" d="M18.1374,27.0775a4.9269,4.9269,0,0,0,1.0888.1389,4.6322,4.6322,0,0,0,2.5828-.7876l3.7295,3.3241a4.494,4.494,0,0,0-.2317,3.6716,4.6329,4.6329,0,1,0,7.3779-5.05l2.9419-5.8954a4.3777,4.3777,0,0,0,3.37-.6139,4.6329,4.6329,0,1,0-5.432-.44l-2.9419,5.8954a4.47,4.47,0,0,0-.9729-.1043,4.6341,4.6341,0,0,0-2.5829.7876L23.3379,24.68a4.4941,4.4941,0,0,0,.2316-3.6715,4.6329,4.6329,0,1,0-7.4705,4.9687l-4.98,9.3469V8.6849H8.8021V38.7987a2.3164,2.3164,0,0,0,2.3165,2.3164H41.2324V38.7987H11.8946ZM36.6,15.6342a2.3165,2.3165,0,1,1-2.3164,2.3164A2.3164,2.3164,0,0,1,36.6,15.6342ZM31.9666,31.8493A2.3165,2.3165,0,1,1,29.65,29.5329,2.3164,2.3164,0,0,1,31.9666,31.8493Zm-12.74-11.5822A2.3165,2.3165,0,1,1,16.91,22.5835,2.3164,2.3164,0,0,1,19.2262,20.2671Z"/><path class="cls-3" d="M22.7115,22.5835a3.4854,3.4854,0,1,1-3.4853-3.4853A3.4854,3.4854,0,0,1,22.7115,22.5835Z"/><path class="cls-4" d="M33.1355,31.8493A3.4854,3.4854,0,1,1,29.65,28.364,3.4854,3.4854,0,0,1,33.1355,31.8493Z"/><path class="cls-5" d="M40.0848,17.9506A3.4853,3.4853,0,1,1,36.6,14.4653,3.4854,3.4854,0,0,1,40.0848,17.9506Z"/></g></svg>