<?xml version="1.0" encoding="utf-8"?>
<!-- Generator: Adobe Illustrator 26.0.1, SVG Export Plug-In . SVG Version: 6.00 Build 0)  -->
<svg version="1.1" id="Layer_1" xmlns="http://www.w3.org/2000/svg" xmlns:xlink="http://www.w3.org/1999/xlink" x="0px" y="0px"
	 viewBox="0 0 250 100" style="enable-background:new 0 0 250 100;" xml:space="preserve">
<style type="text/css">
	.st0{fill:#242B66;}
	.st1{font-family:'IBMPlexSans-SemiBold';}
	.st2{font-size:13px;}
	.st3{fill:#525352;}
	.st4{font-family:'IBMPlexSans-Text';}
	.st5{font-size:12px;}
	.st6{fill:none;}
	.st7{fill:none;stroke:#242B66;stroke-width:1.968;stroke-miterlimit:10;}
</style>
<text transform="matrix(1 0 0 1 45.1973 22.584)" class="st0 st1 st2">IBM-managed</text>
<text transform="matrix(1 0 0 1 45.1973 37.9945)"><tspan x="0" y="0" class="st3 st4 st5">Monitor your IBM Cloud resources</tspan><tspan x="0" y="14.4" class="st3 st4 st5">for risk by provisioning an IBM-</tspan><tspan x="0" y="28.8" class="st3 st4 st5">mangaged collector and targeting</tspan><tspan x="0" y="43.2" class="st3 st4 st5">your resources.</tspan></text>
<rect id="_Transparent_Rectangle__3_" x="7" y="9" class="st6" width="32" height="32"/>
<polygon class="st0" points="37,39 31,39 31,37 35,37 35,13 31,13 31,11 37,11 "/>
<path class="st0" d="M26.7,16.4c-1.5,0.3-2.7,1.3-3.2,2.7c-0.5,1.1-0.5,2.4,0,3.5c0.1,0.2,0.2,0.4,0.4,0.6L21,26.1
	c-2.1-1.3-4.9-0.7-6.2,1.4c-1.3,2.1-0.7,4.9,1.4,6.2c2.1,1.3,4.9,0.7,6.2-1.4c0.9-1.5,0.9-3.4,0-4.8l2.8-2.8c1,0.6,2.2,0.8,3.3,0.6
	c1.5-0.3,2.7-1.3,3.2-2.7c0.5-1.1,0.5-2.4,0-3.5c-0.6-1.4-1.8-2.4-3.2-2.7C27.9,16.3,27.3,16.3,26.7,16.4z M21.1,29.9
	c0,1.4-1.1,2.5-2.5,2.5c-1.4,0-2.5-1.1-2.5-2.5c0-1.4,1.1-2.5,2.5-2.5C20,27.4,21.1,28.5,21.1,29.9z"/>
<polygon class="st0" points="15,39 9,39 9,11 15,11 15,13 11,13 11,37 15,37 "/>
<rect x="1" y="1" class="st7" width="248" height="98"/>
</svg>
