<?xml version="1.0" encoding="utf-8"?>
<!-- Generator: Adobe Illustrator 24.2.3, SVG Export Plug-In . SVG Version: 6.00 Build 0)  -->
<svg version="1.1" id="Layer_1" xmlns="http://www.w3.org/2000/svg" xmlns:xlink="http://www.w3.org/1999/xlink" x="0px" y="0px"
	 viewBox="0 0 183.9 47.8" style="enable-background:new 0 0 183.9 47.8;" xml:space="preserve">
<style type="text/css">
	.st0{fill:#0043CE;}
	.st1{fill:#A6C8FF;}
	.st2{fill:#002D9C;}
</style>
<g id="Graphics">
	<polygon class="st0" points="32.5,37.3 29.5,34.2 27.9,35.9 32.5,40.6 40.8,32.4 39.1,30.7 	"/>
	<rect x="22" y="33.1" class="st1" width="2.3" height="2.3"/>
	<rect x="14.9" y="33.1" class="st1" width="2.3" height="2.3"/>
	<rect x="29" y="27.2" class="st1" width="2.3" height="2.3"/>
	<rect x="22" y="27.2" class="st1" width="2.3" height="2.3"/>
	<rect x="14.9" y="27.2" class="st1" width="2.3" height="2.3"/>
	<rect x="29" y="21.3" class="st1" width="2.3" height="2.3"/>
	<rect x="22" y="21.3" class="st1" width="2.3" height="2.3"/>
	<rect x="14.9" y="21.3" class="st1" width="2.3" height="2.3"/>
	<rect x="14.9" y="14.3" class="st1" width="16.4" height="3.5"/>
	<path class="st1" d="M24.3,41.3H11.4c-1.3,0-2.3-1.1-2.4-2.4V10.8c0-1.3,1-2.3,2.3-2.3h23.5c1.3,0,2.3,1,2.3,2.3v16.4h-2.3V10.8
		H11.4v28.2h12.9V41.3z"/>
</g>
<g id="Text">
	<path class="st2" d="M46.4,29.5V18.8h1.3v9.6h4.6v1.1L46.4,29.5z"/>
	<path class="st2" d="M57,29.7c-0.5,0-1-0.1-1.5-0.3c-0.4-0.2-0.8-0.5-1.1-0.8c-0.3-0.4-0.6-0.8-0.7-1.3c-0.3-1.1-0.3-2.3,0-3.4
		c0.2-0.5,0.4-0.9,0.7-1.3c0.3-0.4,0.7-0.6,1.1-0.8c0.5-0.2,1-0.3,1.5-0.3c0.5,0,1,0.1,1.4,0.3c0.4,0.2,0.8,0.5,1.1,0.8
		c0.3,0.4,0.5,0.8,0.7,1.2c0.2,0.5,0.2,1,0.2,1.5v0.6h-5.7v0.4c0,0.3,0.1,0.6,0.2,0.9c0.1,0.3,0.3,0.5,0.5,0.8
		c0.2,0.2,0.5,0.4,0.7,0.5c0.3,0.1,0.7,0.2,1,0.2c0.5,0,0.9-0.1,1.3-0.4c0.4-0.2,0.7-0.6,0.9-1l0.9,0.6c-0.3,0.5-0.7,1-1.2,1.3
		C58.3,29.5,57.6,29.7,57,29.7z M57,22.4c-0.3,0-0.6,0.1-0.9,0.2c-0.3,0.1-0.5,0.3-0.7,0.5c-0.2,0.2-0.4,0.5-0.5,0.8
		c-0.1,0.3-0.2,0.6-0.2,1v0.1h4.4v-0.2c0-0.6-0.2-1.2-0.6-1.7C58.1,22.6,57.5,22.4,57,22.4L57,22.4z"/>
	<path class="st2" d="M68.2,29.5c-0.4,0-0.7-0.1-1-0.4c-0.2-0.3-0.3-0.6-0.4-0.9h-0.1c-0.1,0.5-0.5,0.8-0.9,1.1
		c-0.4,0.3-0.9,0.4-1.4,0.4c-0.7,0-1.4-0.2-2-0.6c-0.5-0.5-0.7-1.1-0.7-1.8c0-0.7,0.3-1.3,0.8-1.7c0.8-0.5,1.7-0.7,2.6-0.6h1.6v-0.8
		c0-0.5-0.1-0.9-0.5-1.3c-0.4-0.3-0.9-0.5-1.4-0.4c-0.4,0-0.8,0.1-1.2,0.3c-0.3,0.2-0.6,0.5-0.8,0.9l-0.7-0.7c0.2-0.5,0.6-0.8,1-1.1
		c0.5-0.3,1.2-0.5,1.8-0.5c0.8-0.1,1.6,0.2,2.2,0.7c0.5,0.5,0.8,1.2,0.8,2v4.3h0.9v1.1L68.2,29.5z M64.6,28.6c0.3,0,0.6,0,0.8-0.1
		c0.2-0.1,0.5-0.2,0.7-0.3c0.2-0.1,0.3-0.3,0.4-0.5c0.1-0.2,0.2-0.4,0.2-0.6v-1.3h-1.6c-0.5,0-1.1,0.1-1.5,0.3
		c-0.3,0.2-0.5,0.5-0.5,0.9v0.3c0,0.4,0.1,0.7,0.4,0.9C63.8,28.5,64.2,28.6,64.6,28.6z"/>
	<path class="st2" d="M70.6,29.5v-7.9h1.2V23h0.1c0.2-0.4,0.4-0.8,0.8-1c0.4-0.3,1-0.5,1.5-0.4h0.5v1.2H74c-0.5,0-1.1,0.1-1.6,0.4
		c-0.3,0.2-0.6,0.6-0.6,0.9v5.4L70.6,29.5z"/>
	<path class="st2" d="M76.2,29.5v-7.9h1.2v1.3h0.1c0.2-0.4,0.5-0.8,0.8-1.1c0.4-0.3,0.9-0.4,1.4-0.4c0.7,0,1.4,0.3,1.9,0.8
		c0.5,0.6,0.8,1.4,0.7,2.2v5.1h-1.2v-4.9c0-1.4-0.6-2.1-1.8-2.1c-0.2,0-0.5,0-0.7,0.1c-0.2,0.1-0.4,0.2-0.6,0.3
		c-0.2,0.1-0.3,0.3-0.4,0.5c-0.1,0.2-0.2,0.4-0.2,0.7v5.5L76.2,29.5z"/>
	<path class="st2" d="M94.3,29.5c-0.4,0-0.7-0.1-1-0.4c-0.2-0.3-0.3-0.6-0.4-0.9h-0.1c-0.1,0.5-0.5,0.8-0.9,1.1
		c-0.4,0.3-0.9,0.4-1.4,0.4c-0.7,0-1.4-0.2-2-0.6c-0.5-0.5-0.7-1.1-0.7-1.8c0-0.7,0.3-1.3,0.8-1.7c0.8-0.5,1.7-0.7,2.6-0.6h1.6v-0.8
		c0-0.5-0.1-0.9-0.5-1.3c-0.4-0.3-0.9-0.5-1.4-0.4c-0.4,0-0.8,0.1-1.2,0.3c-0.3,0.2-0.6,0.5-0.8,0.9l-0.7-0.7c0.2-0.5,0.6-0.8,1-1.1
		c0.5-0.3,1.2-0.5,1.8-0.5c0.8-0.1,1.6,0.2,2.2,0.7c0.5,0.5,0.8,1.2,0.8,2v4.3H95v1.1L94.3,29.5z M90.8,28.6c0.3,0,0.6,0,0.8-0.1
		c0.2-0.1,0.5-0.2,0.7-0.3c0.2-0.1,0.3-0.3,0.4-0.5c0.1-0.2,0.2-0.4,0.2-0.6v-1.3h-1.6c-0.5,0-1.1,0.1-1.5,0.3
		c-0.3,0.2-0.5,0.5-0.5,0.9v0.3c0,0.4,0.1,0.7,0.4,0.9C90,28.5,90.4,28.6,90.8,28.6z"/>
	<path class="st2" d="M96.8,18.1H98v4.7h0.1c0.2-0.5,0.5-0.8,0.9-1.1c0.4-0.2,0.9-0.4,1.4-0.4c0.5,0,0.9,0.1,1.3,0.3
		c0.4,0.2,0.7,0.5,1,0.8c0.3,0.4,0.5,0.8,0.6,1.3c0.3,1.1,0.3,2.3,0,3.4c-0.1,0.5-0.3,0.9-0.6,1.3c-0.3,0.4-0.6,0.6-1,0.8
		c-0.4,0.2-0.9,0.3-1.3,0.3c-1,0-1.9-0.5-2.3-1.5H98v1.3h-1.2V18.1z M100,28.6c0.6,0,1.2-0.2,1.6-0.7c0.4-0.5,0.6-1.1,0.6-1.7v-1.4
		c0-0.6-0.2-1.2-0.6-1.7c-0.4-0.4-1-0.7-1.6-0.7c-0.3,0-0.5,0-0.8,0.1c-0.2,0.1-0.5,0.2-0.7,0.3c-0.2,0.1-0.3,0.3-0.4,0.5
		C98.1,23.6,98,23.8,98,24v3c0,0.2,0.1,0.5,0.2,0.7c0.1,0.2,0.3,0.4,0.4,0.5c0.2,0.1,0.4,0.3,0.7,0.3C99.5,28.5,99.8,28.6,100,28.6
		L100,28.6z"/>
	<path class="st2" d="M108.7,29.7c-0.5,0-1-0.1-1.5-0.3c-0.4-0.2-0.8-0.5-1.1-0.8c-0.3-0.4-0.6-0.8-0.7-1.3c-0.3-1.1-0.3-2.3,0-3.4
		c0.2-0.5,0.4-0.9,0.7-1.3c0.3-0.4,0.7-0.6,1.1-0.8c0.5-0.2,1-0.3,1.5-0.3c0.5,0,1,0.1,1.4,0.3c0.4,0.2,0.8,0.5,1.1,0.8
		c0.3,0.4,0.6,0.8,0.7,1.3c0.3,1.1,0.3,2.3,0,3.4c-0.2,0.5-0.4,0.9-0.7,1.3c-0.3,0.4-0.7,0.6-1.1,0.8
		C109.7,29.6,109.2,29.7,108.7,29.7z M108.7,28.6c0.6,0,1.2-0.2,1.6-0.6c0.5-0.5,0.7-1.2,0.6-1.9V25c0.1-0.7-0.2-1.4-0.6-1.9
		c-0.9-0.8-2.3-0.8-3.3,0c-0.5,0.5-0.7,1.2-0.6,1.9v1.1c-0.1,0.7,0.2,1.4,0.6,1.9C107.5,28.4,108.1,28.6,108.7,28.6L108.7,28.6z"/>
	<path class="st2" d="M119.1,28.2L119.1,28.2c-0.1,0.2-0.2,0.4-0.4,0.5c-0.1,0.2-0.3,0.3-0.4,0.5c-0.2,0.1-0.4,0.3-0.6,0.3
		c-0.3,0.1-0.6,0.1-0.9,0.1c-0.7,0-1.4-0.3-1.9-0.8c-0.5-0.6-0.8-1.4-0.7-2.2v-5.1h1.2v4.9c0,1.4,0.6,2.1,1.8,2.1
		c0.2,0,0.5,0,0.7-0.1c0.2-0.1,0.4-0.1,0.6-0.3c0.2-0.1,0.3-0.3,0.4-0.5c0.1-0.2,0.2-0.4,0.2-0.7v-5.5h1.2v7.9h-1.2V28.2z"/>
	<path class="st2" d="M124.7,29.5c-0.4,0-0.7-0.1-1-0.4c-0.2-0.3-0.3-0.6-0.3-0.9v-5.5h-1.3v-1.1h0.7c0.2,0,0.4,0,0.5-0.2
		c0.1-0.2,0.2-0.4,0.1-0.6v-1.5h1.1v2.2h1.7v1.1h-1.7v5.7h1.6v1.1L124.7,29.5z"/>
	<path class="st2" d="M134.4,29.7c-0.6,0-1.3-0.1-1.8-0.4c-0.5-0.3-0.9-0.7-1.3-1.1l0.9-0.7c0.3,0.4,0.6,0.7,1,0.9
		c0.4,0.2,0.9,0.3,1.3,0.3c0.4,0,0.9-0.1,1.2-0.3c0.5-0.4,0.6-1.2,0.2-1.7c0,0,0,0,0,0c-0.3-0.3-0.7-0.4-1.1-0.5l-0.6-0.1
		c-0.3,0-0.7-0.1-1-0.2c-0.3-0.1-0.6-0.2-0.8-0.4c-0.2-0.2-0.4-0.4-0.5-0.7c-0.1-0.3-0.2-0.6-0.2-1c0-0.4,0.1-0.7,0.2-1
		c0.1-0.3,0.3-0.5,0.6-0.7c0.3-0.2,0.6-0.4,0.9-0.4c0.4-0.1,0.7-0.1,1.1-0.1c0.6,0,1.1,0.1,1.6,0.3c0.4,0.2,0.8,0.5,1.1,0.9
		l-0.8,0.7c-0.5-0.6-1.2-1-2-1c-0.4,0-0.8,0.1-1.2,0.3c-0.3,0.2-0.4,0.6-0.4,0.9c0,0.3,0.1,0.7,0.4,0.8c0.3,0.2,0.7,0.3,1.1,0.4
		l0.6,0.1c0.7,0.1,1.3,0.3,1.9,0.8c0.4,0.4,0.6,0.9,0.6,1.5c0,0.7-0.3,1.4-0.8,1.8C135.9,29.5,135.1,29.7,134.4,29.7z"/>
	<path class="st2" d="M142.4,29.7c-0.5,0-1-0.1-1.5-0.3c-0.4-0.2-0.8-0.5-1.1-0.8c-0.3-0.4-0.6-0.8-0.7-1.3c-0.3-1.1-0.3-2.3,0-3.4
		c0.1-0.5,0.4-0.9,0.7-1.3c0.3-0.4,0.7-0.6,1.1-0.8c0.5-0.2,1-0.3,1.5-0.3c0.7,0,1.3,0.1,1.9,0.5c0.5,0.3,0.8,0.8,1.1,1.3l-1,0.5
		c-0.1-0.4-0.4-0.7-0.7-1c-0.4-0.2-0.8-0.4-1.2-0.3c-0.3,0-0.7,0.1-1,0.2c-0.3,0.1-0.5,0.3-0.7,0.5c-0.2,0.2-0.3,0.5-0.4,0.8
		c-0.1,0.3-0.1,0.6-0.1,1v1.4c0,0.6,0.2,1.2,0.6,1.7c0.4,0.5,1,0.7,1.6,0.7c0.9,0,1.8-0.5,2.1-1.4l0.9,0.6c-0.2,0.6-0.6,1-1.1,1.4
		C143.7,29.5,143.1,29.7,142.4,29.7z"/>
	<path class="st2" d="M150.2,29.7c-0.5,0-1-0.1-1.5-0.3c-0.4-0.2-0.8-0.5-1.1-0.8c-0.3-0.4-0.6-0.8-0.7-1.3c-0.3-1.1-0.3-2.3,0-3.4
		c0.2-0.5,0.4-0.9,0.7-1.3c0.3-0.4,0.7-0.6,1.1-0.8c0.5-0.2,1-0.3,1.5-0.3c0.5,0,1,0.1,1.4,0.3c0.4,0.2,0.8,0.5,1.1,0.8
		c0.3,0.4,0.6,0.8,0.7,1.3c0.3,1.1,0.3,2.3,0,3.4c-0.2,0.5-0.4,0.9-0.7,1.3c-0.3,0.4-0.7,0.6-1.1,0.8
		C151.2,29.6,150.7,29.7,150.2,29.7z M150.2,28.6c0.6,0,1.2-0.2,1.6-0.6c0.5-0.5,0.7-1.2,0.6-1.9V25c0.1-0.7-0.2-1.4-0.6-1.9
		c-0.9-0.8-2.3-0.8-3.3,0c-0.5,0.5-0.7,1.2-0.6,1.9v1.1c-0.1,0.7,0.2,1.4,0.6,1.9C149,28.4,149.6,28.6,150.2,28.6L150.2,28.6z"/>
	<path class="st2" d="M155.8,29.5v-7.9h1.2V23h0.1c0.2-0.4,0.4-0.8,0.8-1c0.4-0.3,1-0.5,1.5-0.4h0.5v1.2h-0.7
		c-0.5,0-1.1,0.1-1.6,0.4c-0.3,0.2-0.6,0.6-0.6,0.9v5.4L155.8,29.5z"/>
	<path class="st2" d="M164.4,29.7c-0.5,0-1-0.1-1.5-0.3c-0.4-0.2-0.8-0.5-1.1-0.8c-0.3-0.4-0.6-0.8-0.7-1.3c-0.3-1.1-0.3-2.3,0-3.4
		c0.2-0.5,0.4-0.9,0.7-1.3c0.3-0.4,0.7-0.6,1.1-0.8c0.5-0.2,1-0.3,1.5-0.3c0.5,0,1,0.1,1.4,0.3c0.4,0.2,0.8,0.5,1.1,0.8
		c0.3,0.4,0.5,0.8,0.7,1.2c0.2,0.5,0.2,1,0.2,1.5v0.6h-5.7v0.4c0,0.3,0.1,0.6,0.2,0.9c0.1,0.3,0.3,0.5,0.5,0.8
		c0.2,0.2,0.5,0.4,0.7,0.5c0.3,0.1,0.7,0.2,1,0.2c0.5,0,0.9-0.1,1.3-0.4c0.4-0.2,0.7-0.6,0.9-1l0.9,0.6c-0.3,0.5-0.7,1-1.2,1.3
		C165.7,29.5,165.1,29.7,164.4,29.7z M164.4,22.4c-0.3,0-0.6,0.1-0.9,0.2c-0.3,0.1-0.5,0.3-0.7,0.5c-0.2,0.2-0.4,0.5-0.5,0.8
		c-0.1,0.3-0.2,0.6-0.2,1v0.1h4.4v-0.2c0-0.6-0.2-1.2-0.6-1.7C165.5,22.6,165,22.4,164.4,22.4L164.4,22.4z"/>
	<path class="st2" d="M172.2,29.7c-0.6,0-1.3-0.1-1.8-0.4c-0.5-0.3-0.9-0.7-1.3-1.1l0.9-0.7c0.3,0.4,0.6,0.7,1,0.9
		c0.4,0.2,0.9,0.3,1.3,0.3c0.4,0,0.9-0.1,1.2-0.3c0.5-0.4,0.6-1.2,0.2-1.7c0,0,0,0,0,0c-0.3-0.3-0.7-0.4-1.1-0.5l-0.6-0.1
		c-0.3,0-0.7-0.1-1-0.2c-0.3-0.1-0.6-0.2-0.8-0.4c-0.2-0.2-0.4-0.4-0.5-0.7c-0.1-0.3-0.2-0.6-0.2-1c0-0.4,0.1-0.7,0.2-1
		c0.1-0.3,0.3-0.5,0.6-0.7c0.3-0.2,0.6-0.4,0.9-0.4c0.4-0.1,0.7-0.1,1.1-0.1c0.6,0,1.1,0.1,1.6,0.3c0.4,0.2,0.8,0.5,1.1,0.9
		l-0.8,0.7c-0.5-0.6-1.2-1-2-1c-0.4,0-0.8,0.1-1.2,0.3c-0.3,0.2-0.4,0.6-0.4,0.9c0,0.3,0.1,0.7,0.4,0.8c0.3,0.2,0.7,0.3,1.1,0.4
		l0.6,0.1c0.7,0.1,1.3,0.3,1.9,0.8c0.4,0.4,0.6,0.9,0.6,1.5c0,0.7-0.3,1.4-0.8,1.8C173.7,29.5,173,29.7,172.2,29.7z"/>
</g>
</svg>
