<svg xmlns="http://www.w3.org/2000/svg" width="183.919" height="47.8204" viewBox="0 0 183.919 47.8204"><defs><style>.cls-1{fill:#0043ce;}.cls-2{fill:#a6c8ff;}.cls-3{fill:#002d9c;}</style></defs><g id="Graphics"><polygon class="cls-1" points="32.545 37.271 29.507 34.233 27.853 35.887 32.545 40.579 40.756 32.368 39.102 30.714 32.545 37.271"/><rect class="cls-2" x="21.9879" y="33.0605" width="2.346" height="2.346"/><rect class="cls-2" x="14.95" y="33.0605" width="2.346" height="2.346"/><rect class="cls-2" x="29.0259" y="27.1955" width="2.346" height="2.346"/><rect class="cls-2" x="21.9879" y="27.1955" width="2.346" height="2.346"/><rect class="cls-2" x="14.95" y="27.1955" width="2.346" height="2.346"/><rect class="cls-2" x="29.0259" y="21.3306" width="2.346" height="2.346"/><rect class="cls-2" x="21.9879" y="21.3306" width="2.346" height="2.346"/><rect class="cls-2" x="14.95" y="21.3306" width="2.346" height="2.346"/><rect class="cls-2" x="14.95" y="14.2927" width="16.4218" height="3.519"/><path class="cls-2" d="M24.3339,41.2714H11.4364A2.3541,2.3541,0,0,1,9.0851,38.92v-28.15a2.3441,2.3441,0,0,1,2.3414-2.3414H34.8951a2.3443,2.3443,0,0,1,2.3417,2.3414V27.1955h-2.346V10.7737H11.431V38.9254H24.3339Z"/></g><g id="Text"><path class="cls-3" d="M46.4227,29.4835V18.773h1.2891v9.5747h4.5566v1.1358Z"/><path class="cls-3" d="M56.9647,29.6681a3.5527,3.5527,0,0,1-1.4658-.292,3.1639,3.1639,0,0,1-1.12-.836,3.812,3.812,0,0,1-.7207-1.3047,5.8651,5.8651,0,0,1,0-3.414,3.8071,3.8071,0,0,1,.7207-1.312,3.17,3.17,0,0,1,1.12-.836,3.5526,3.5526,0,0,1,1.4658-.2915,3.3626,3.3626,0,0,1,1.4268.2906,3.1549,3.1549,0,0,1,1.0742.8027,3.563,3.563,0,0,1,.6826,1.2158,4.7786,4.7786,0,0,1,.2383,1.5444v.58H54.6932v.3692a2.7091,2.7091,0,0,0,.1612.9433,2.2279,2.2279,0,0,0,.4609.76,2.0847,2.0847,0,0,0,.7363.5058,2.5194,2.5194,0,0,0,.9893.1846,2.4021,2.4021,0,0,0,1.3125-.3535,2.3132,2.3132,0,0,0,.8672-1.0127l.874.6338a3.0578,3.0578,0,0,1-1.1963,1.32A3.6179,3.6179,0,0,1,56.9647,29.6681Zm0-7.2583a2.3367,2.3367,0,0,0-.9209.1757,2.0735,2.0735,0,0,0-.7138.4956,2.3239,2.3239,0,0,0-.4678.7544,2.62,2.62,0,0,0-.169.9537v.1064h4.3741v-.1675a2.4074,2.4074,0,0,0-.5762-1.685A1.9627,1.9627,0,0,0,56.9647,22.41Z"/><path class="cls-3" d="M68.1659,29.4835a1.2052,1.2052,0,0,1-.9893-.3682,1.8272,1.8272,0,0,1-.3759-.9209h-.0772a2.0433,2.0433,0,0,1-.8594,1.1045,2.6612,2.6612,0,0,1-1.4267.3692,2.7747,2.7747,0,0,1-1.9561-.6446,2.2633,2.2633,0,0,1-.6982-1.75,2,2,0,0,1,.82-1.7187,4.3731,4.3731,0,0,1,2.5557-.5987h1.5644v-.7817a1.7125,1.7125,0,0,0-.46-1.2891,1.9652,1.9652,0,0,0-1.4121-.4448,2.1242,2.1242,0,0,0-1.2041.3223,2.6567,2.6567,0,0,0-.8056.8594l-.7364-.6905a2.7934,2.7934,0,0,1,1.0274-1.0971,3.24,3.24,0,0,1,1.78-.4527,3.2731,3.2731,0,0,1,2.24.7041,2.4775,2.4775,0,0,1,.7978,1.96v4.3476h.9063v1.09Zm-3.5293-.8594a3.1382,3.1382,0,0,0,.8447-.1074,2.0655,2.0655,0,0,0,.6592-.3066,1.5091,1.5091,0,0,0,.43-.461,1.095,1.095,0,0,0,.1533-.5674V25.877h-1.626a2.9614,2.9614,0,0,0-1.542.3077.99.99,0,0,0-.4834.89v.3223a1.0709,1.0709,0,0,0,.4219.9052A1.8375,1.8375,0,0,0,64.6366,28.6241Z"/><path class="cls-3" d="M70.6063,29.4835V21.566h1.2276v1.4575h.0771a2.3865,2.3865,0,0,1,.7666-1.0127,2.3594,2.3594,0,0,1,1.52-.4448h.4756v1.2275H73.951a2.7688,2.7688,0,0,0-1.5566.376,1.1081,1.1081,0,0,0-.5605.9439v5.37Z"/><path class="cls-3" d="M76.2372,29.4835V21.566h1.2275V22.84h.0615a2.5849,2.5849,0,0,1,.8213-1.0635,2.32,2.32,0,0,1,1.419-.395,2.4845,2.4845,0,0,1,1.9414.79,3.2176,3.2176,0,0,1,.7139,2.2329v5.0786H81.1942V24.609q0-2.1379-1.7959-2.1377a2.7417,2.7417,0,0,0-.7129.0923,2.0775,2.0775,0,0,0-.622.2768,1.3728,1.3728,0,0,0-.4375.4693,1.3332,1.3332,0,0,0-.1612.6689v5.5049Z"/><path class="cls-3" d="M94.329,29.4835a1.2051,1.2051,0,0,1-.9893-.3682,1.8281,1.8281,0,0,1-.376-.9209h-.0771a2.0433,2.0433,0,0,1-.8594,1.1045,2.6612,2.6612,0,0,1-1.4267.3692,2.7747,2.7747,0,0,1-1.9561-.6446,2.2633,2.2633,0,0,1-.6982-1.75,2,2,0,0,1,.82-1.7187,4.3729,4.3729,0,0,1,2.5556-.5987h1.5645v-.7817a1.7125,1.7125,0,0,0-.46-1.2891,1.9652,1.9652,0,0,0-1.4121-.4448,2.1242,2.1242,0,0,0-1.2041.3223,2.6567,2.6567,0,0,0-.8056.8594l-.7364-.6905a2.7934,2.7934,0,0,1,1.0274-1.0971,3.24,3.24,0,0,1,1.78-.4527,3.2732,3.2732,0,0,1,2.24.7041,2.4775,2.4775,0,0,1,.7978,1.96v4.3476h.9053v1.09ZM90.8,28.6241a3.1387,3.1387,0,0,0,.8447-.1074,2.0655,2.0655,0,0,0,.6592-.3066,1.51,1.51,0,0,0,.43-.461,1.095,1.095,0,0,0,.1533-.5674V25.877h-1.626a2.9614,2.9614,0,0,0-1.542.3077.99.99,0,0,0-.4834.89v.3223a1.0709,1.0709,0,0,0,.4219.9052A1.8375,1.8375,0,0,0,90.8,28.6241Z"/><path class="cls-3" d="M96.7694,18.1285h1.2275V22.84h.0616a2.2177,2.2177,0,0,1,.8974-1.1015,2.6953,2.6953,0,0,1,1.419-.357,3.0059,3.0059,0,0,1,1.3349.2915,2.8963,2.8963,0,0,1,1.02.8286,3.803,3.803,0,0,1,.6446,1.3042,6.7452,6.7452,0,0,1,0,3.4371,3.7914,3.7914,0,0,1-.6446,1.3037,2.8922,2.8922,0,0,1-1.02.8291,3.0061,3.0061,0,0,1-1.3349.292,2.3962,2.3962,0,0,1-2.3164-1.459h-.0616v1.2744H96.7694Zm3.2686,10.45a2.1138,2.1138,0,0,0,1.6416-.6553,2.4477,2.4477,0,0,0,.5986-1.72V24.8458a2.4489,2.4489,0,0,0-.5986-1.7192,2.1138,2.1138,0,0,0-1.6416-.6553,2.6792,2.6792,0,0,0-.7911.1157,2.21,2.21,0,0,0-.6513.3159,1.518,1.518,0,0,0-.4375.4859,1.2209,1.2209,0,0,0-.1612.6093v2.961a1.4341,1.4341,0,0,0,.1612.6865,1.54,1.54,0,0,0,.4375.5088,1.963,1.963,0,0,0,.6513.3154A2.8443,2.8443,0,0,0,100.038,28.5782Z"/><path class="cls-3" d="M108.661,29.6681a3.5678,3.5678,0,0,1-1.458-.292,3.1325,3.1325,0,0,1-1.1279-.836,3.9274,3.9274,0,0,1-.7285-1.3047,5.7167,5.7167,0,0,1,0-3.414,3.9209,3.9209,0,0,1,.7285-1.312,3.1382,3.1382,0,0,1,1.1279-.836,3.5676,3.5676,0,0,1,1.458-.2915,3.52,3.52,0,0,1,1.45.2915,3.2412,3.2412,0,0,1,1.1279.836,3.87,3.87,0,0,1,.7364,1.312,5.7188,5.7188,0,0,1,0,3.414,3.8767,3.8767,0,0,1-.7364,1.3047,3.2351,3.2351,0,0,1-1.1279.836A3.52,3.52,0,0,1,108.661,29.6681Zm0-1.09a2.23,2.23,0,0,0,1.626-.6142,2.5055,2.5055,0,0,0,.63-1.8721V24.9561a2.5058,2.5058,0,0,0-.63-1.871,2.4618,2.4618,0,0,0-3.2529,0,2.5052,2.5052,0,0,0-.6289,1.871v1.1358a2.5048,2.5048,0,0,0,.6289,1.8721A2.2333,2.2333,0,0,0,108.661,28.5782Z"/><path class="cls-3" d="M119.1425,28.2091h-.0616a3.6806,3.6806,0,0,1-.3.539,1.9974,1.9974,0,0,1-.4375.4717,2.0366,2.0366,0,0,1-.6289.3262,2.745,2.745,0,0,1-.8594.1221,2.5053,2.5053,0,0,1-1.9482-.7911,3.1892,3.1892,0,0,1-.7217-2.2324V21.566h1.2276v4.8745q0,2.1372,1.8105,2.1377a2.75,2.75,0,0,0,.7139-.0928,1.957,1.957,0,0,0,.6142-.2763,1.4019,1.4019,0,0,0,.43-.4688,1.3677,1.3677,0,0,0,.1612-.6845v-5.49H120.37v7.9175h-1.2275Z"/><path class="cls-3" d="M124.7274,29.4835a1.2585,1.2585,0,0,1-.9746-.3594,1.341,1.341,0,0,1-.33-.9424V22.6554H122.119V21.566h.7363a.7234.7234,0,0,0,.545-.1611.84.84,0,0,0,.1455-.56V19.3717H124.65V21.566h1.7343v1.0894H124.65v5.7382h1.6113v1.09Z"/><path class="cls-3" d="M134.3641,29.6681a3.7023,3.7023,0,0,1-1.8486-.4229,4.196,4.196,0,0,1-1.2812-1.1279l.874-.7051a3.4509,3.4509,0,0,0,1.0283.8975,2.6785,2.6785,0,0,0,1.32.3144,1.9517,1.9517,0,0,0,1.22-.3379,1.2248,1.2248,0,0,0,.1377-1.7412,1.8258,1.8258,0,0,0-1.082-.4531L134.1034,26a5.22,5.22,0,0,1-1.0127-.2383,2.83,2.83,0,0,1-.8057-.4287,1.8594,1.8594,0,0,1-.5371-.6675,2.1772,2.1772,0,0,1-.1914-.9516,2.2816,2.2816,0,0,1,.2149-1.02,2.041,2.041,0,0,1,.5908-.729,2.5762,2.5762,0,0,1,.8974-.4375,4.1476,4.1476,0,0,1,1.12-.1455,3.4986,3.4986,0,0,1,1.6191.3374,3.6273,3.6273,0,0,1,1.1426.9361l-.8125.7363a2.4206,2.4206,0,0,0-2.041-.9663,1.76,1.76,0,0,0-1.1592.33,1.1131,1.1131,0,0,0-.3906.8979.9392.9392,0,0,0,.3906.8438,2.9112,2.9112,0,0,0,1.1279.3833l.6143.0918a3.2925,3.2925,0,0,1,1.872.76,2,2,0,0,1,.5528,1.4659,2.2432,2.2432,0,0,1-.7832,1.8105A3.2326,3.2326,0,0,1,134.3641,29.6681Z"/><path class="cls-3" d="M142.4052,29.6681a3.6517,3.6517,0,0,1-1.4893-.292,3.04,3.04,0,0,1-1.1123-.8291,3.677,3.677,0,0,1-.69-1.3037,6.3416,6.3416,0,0,1,0-3.4371,3.688,3.688,0,0,1,.69-1.3042,3.0443,3.0443,0,0,1,1.1123-.8286,3.6516,3.6516,0,0,1,1.4893-.2915,3.1761,3.1761,0,0,1,1.8945.5137,3.1409,3.1409,0,0,1,1.0664,1.3428l-1.0274.5219a1.8676,1.8676,0,0,0-.706-.9516,2.1237,2.1237,0,0,0-1.2275-.3374,2.4608,2.4608,0,0,0-.9668.1763,1.8835,1.8835,0,0,0-.6905.4912,2.075,2.075,0,0,0-.415.7519,3.1782,3.1782,0,0,0-.1377.958v1.3506a2.57,2.57,0,0,0,.56,1.7109,2.0326,2.0326,0,0,0,1.65.668,2.2287,2.2287,0,0,0,2.1484-1.3808l.89.5986A3.1467,3.1467,0,0,1,144.3,29.1612,3.3389,3.3389,0,0,1,142.4052,29.6681Z"/><path class="cls-3" d="M150.17,29.6681a3.5674,3.5674,0,0,1-1.458-.292,3.1325,3.1325,0,0,1-1.1279-.836,3.9293,3.9293,0,0,1-.7286-1.3047,5.7188,5.7188,0,0,1,0-3.414,3.9228,3.9228,0,0,1,.7286-1.312,3.1382,3.1382,0,0,1,1.1279-.836,3.5673,3.5673,0,0,1,1.458-.2915,3.5208,3.5208,0,0,1,1.45.2915,3.2422,3.2422,0,0,1,1.1279.836,3.87,3.87,0,0,1,.7364,1.312,5.7188,5.7188,0,0,1,0,3.414,3.8767,3.8767,0,0,1-.7364,1.3047,3.236,3.236,0,0,1-1.1279.836A3.521,3.521,0,0,1,150.17,29.6681Zm0-1.09a2.23,2.23,0,0,0,1.626-.6142,2.5055,2.5055,0,0,0,.63-1.8721V24.9561a2.5058,2.5058,0,0,0-.63-1.871,2.4619,2.4619,0,0,0-3.253,0,2.5056,2.5056,0,0,0-.6289,1.871v1.1358a2.5052,2.5052,0,0,0,.6289,1.8721A2.2337,2.2337,0,0,0,150.17,28.5782Z"/><path class="cls-3" d="M155.77,29.4835V21.566h1.2275v1.4575h.0762a2.3973,2.3973,0,0,1,.7676-1.0127,2.3592,2.3592,0,0,1,1.5195-.4448h.4756v1.2275h-.7217a2.7744,2.7744,0,0,0-1.5576.376,1.1091,1.1091,0,0,0-.56.9439v5.37Z"/><path class="cls-3" d="M164.3788,29.6681a3.5587,3.5587,0,0,1-1.4658-.292,3.1642,3.1642,0,0,1-1.12-.836,3.8473,3.8473,0,0,1-.7207-1.3047,5.8873,5.8873,0,0,1,0-3.414,3.8421,3.8421,0,0,1,.7207-1.312,3.17,3.17,0,0,1,1.12-.836,3.5586,3.5586,0,0,1,1.4658-.2915,3.359,3.359,0,0,1,1.4267.2906,3.1543,3.1543,0,0,1,1.0743.8027,3.5832,3.5832,0,0,1,.6836,1.2158,4.8061,4.8061,0,0,1,.2373,1.5444v.58h-5.6934v.3692a2.7114,2.7114,0,0,0,.1611.9433,2.2454,2.2454,0,0,0,.461.76,2.0938,2.0938,0,0,0,.7363.5058,2.5274,2.5274,0,0,0,.99.1846,2.399,2.399,0,0,0,1.3116-.3535,2.3124,2.3124,0,0,0,.8671-1.0127l.875.6338a3.0594,3.0594,0,0,1-1.1972,1.32A3.613,3.613,0,0,1,164.3788,29.6681Zm0-7.2583a2.3367,2.3367,0,0,0-.9209.1757,2.06,2.06,0,0,0-.7129.4956,2.3111,2.3111,0,0,0-.4688.7544,2.62,2.62,0,0,0-.1689.9537v.1064h4.374v-.1675a2.4116,2.4116,0,0,0-.5752-1.685A1.9646,1.9646,0,0,0,164.3788,22.41Z"/><path class="cls-3" d="M172.205,29.6681a3.7024,3.7024,0,0,1-1.8487-.4229,4.196,4.196,0,0,1-1.2812-1.1279l.874-.7051a3.4509,3.4509,0,0,0,1.0283.8975,2.6785,2.6785,0,0,0,1.32.3144,1.952,1.952,0,0,0,1.22-.3379,1.2248,1.2248,0,0,0,.1377-1.7412,1.8264,1.8264,0,0,0-1.0821-.4531L171.9442,26a5.222,5.222,0,0,1-1.0127-.2383,2.8277,2.8277,0,0,1-.8056-.4287,1.8587,1.8587,0,0,1-.5372-.6675,2.1772,2.1772,0,0,1-.1914-.9516,2.2816,2.2816,0,0,1,.2149-1.02,2.0421,2.0421,0,0,1,.5908-.729,2.5759,2.5759,0,0,1,.8975-.4375,4.1468,4.1468,0,0,1,1.12-.1455,3.4986,3.4986,0,0,1,1.6191.3374,3.6262,3.6262,0,0,1,1.1426.9361l-.8125.7363a2.4206,2.4206,0,0,0-2.041-.9663,1.76,1.76,0,0,0-1.1592.33,1.1134,1.1134,0,0,0-.3906.8979.9394.9394,0,0,0,.3906.8438,2.9112,2.9112,0,0,0,1.1279.3833l.6143.0918a3.2932,3.2932,0,0,1,1.8721.76,2,2,0,0,1,.5527,1.4659,2.2432,2.2432,0,0,1-.7832,1.8105A3.2325,3.2325,0,0,1,172.205,29.6681Z"/></g></svg>