<?xml version="1.0" encoding="utf-8"?>
<!-- Generator: Adobe Illustrator 24.2.3, SVG Export Plug-In . SVG Version: 6.00 Build 0)  -->
<svg version="1.1" id="Layer_1" xmlns="http://www.w3.org/2000/svg" xmlns:xlink="http://www.w3.org/1999/xlink" x="0px" y="0px"
	 viewBox="0 0 169.2 47.8" style="enable-background:new 0 0 169.2 47.8;" xml:space="preserve">
<style type="text/css">
	.st0{fill:#0043CE;}
	.st1{fill:#A6C8FF;}
	.st2{fill:#002D9C;}
</style>
<g id="Graphics">
	<path class="st0" d="M25.3,34.2l-7.1-10.1c-3.5-3.9-3.1-9.9,0.8-13.3s9.9-3.1,13.3,0.8c1.5,1.8,2.4,4,2.4,6.3c0,2.2-0.7,4.3-2.1,6
		L25.3,34.2z M25.3,10.8c-3.9,0-7.1,3.3-7,7.2c0,1.7,0.6,3.4,1.7,4.7l5.3,7.5l5.4-7.6c1-1.3,1.6-2.9,1.6-4.5
		C32.4,14,29.2,10.8,25.3,10.8z"/>
	<circle class="st0" cx="25.3" cy="16.6" r="2.3"/>
	<path class="st1" d="M39.4,20.2H37v2.3h2.3v16.4H11.2V22.5h2.3v-2.3h-2.3c-1.3,0-2.3,1.1-2.3,2.3c0,0,0,0,0,0v16.4
		c0,1.3,1.1,2.3,2.3,2.3h28.1c1.3,0,2.3-1.1,2.3-2.3V22.5C41.7,21.2,40.7,20.2,39.4,20.2C39.4,20.2,39.4,20.2,39.4,20.2z"/>
</g>
<g id="Text">
	<path class="st2" d="M57.8,20.5L57.8,20.5l-1,1.8l-2.6,4.7l-2.6-4.7l-0.9-1.8h-0.1v9h-1.3V18.8h1.7l3.1,5.8h0.1l3.1-5.8H59v10.7
		h-1.3V20.5z"/>
	<path class="st2" d="M67.5,29.5c-0.4,0-0.7-0.1-1-0.4c-0.2-0.3-0.3-0.6-0.4-0.9h-0.1c-0.1,0.5-0.5,0.8-0.9,1.1
		c-0.4,0.3-0.9,0.4-1.4,0.4c-0.7,0-1.4-0.2-2-0.6c-0.5-0.5-0.7-1.1-0.7-1.8c0-0.7,0.3-1.3,0.8-1.7c0.8-0.5,1.7-0.7,2.6-0.6h1.6v-0.8
		c0-0.5-0.1-0.9-0.5-1.3c-0.4-0.3-0.9-0.5-1.4-0.4c-0.4,0-0.8,0.1-1.2,0.3c-0.3,0.2-0.6,0.5-0.8,0.9l-0.7-0.7c0.2-0.5,0.6-0.8,1-1.1
		c0.5-0.3,1.2-0.5,1.8-0.5c0.8-0.1,1.6,0.2,2.2,0.7c0.5,0.5,0.8,1.2,0.8,2v4.3h0.9v1.1L67.5,29.5z M64,28.6c0.3,0,0.6,0,0.8-0.1
		c0.2-0.1,0.5-0.2,0.7-0.3c0.2-0.1,0.3-0.3,0.4-0.5c0.1-0.2,0.2-0.4,0.2-0.6v-1.3h-1.6c-0.5,0-1.1,0.1-1.5,0.3
		c-0.3,0.2-0.5,0.5-0.5,0.9v0.3c0,0.4,0.1,0.7,0.4,0.9C63.2,28.5,63.6,28.6,64,28.6z"/>
	<path class="st2" d="M70,21.6h1.2v1.3h0.1c0.2-0.5,0.5-0.8,0.9-1.1c0.4-0.2,0.9-0.4,1.4-0.4c0.5,0,0.9,0.1,1.3,0.3
		c0.4,0.2,0.7,0.5,1,0.8c0.3,0.4,0.5,0.8,0.6,1.3c0.3,1.1,0.3,2.3,0,3.4c-0.1,0.5-0.3,0.9-0.6,1.3c-0.3,0.4-0.6,0.6-1,0.8
		c-0.4,0.2-0.9,0.3-1.3,0.3c-1,0-1.9-0.5-2.3-1.5h-0.1v4.3H70V21.6z M73.2,28.6c0.6,0,1.2-0.2,1.6-0.7c0.4-0.5,0.6-1.1,0.6-1.7v-1.4
		c0-0.6-0.2-1.2-0.6-1.7c-0.4-0.4-1-0.7-1.6-0.7c-0.3,0-0.5,0-0.8,0.1c-0.2,0.1-0.5,0.2-0.7,0.3c-0.2,0.1-0.3,0.3-0.4,0.5
		c-0.1,0.2-0.2,0.4-0.2,0.6v3c0,0.2,0.1,0.5,0.2,0.7c0.1,0.2,0.3,0.4,0.4,0.5c0.2,0.1,0.4,0.3,0.7,0.3C72.7,28.5,73,28.6,73.2,28.6z
		"/>
	<path class="st2" d="M85.4,29.7c-0.5,0-1-0.1-1.5-0.3c-0.4-0.2-0.8-0.5-1.1-0.8c-0.3-0.4-0.6-0.8-0.7-1.3c-0.3-1.1-0.3-2.3,0-3.4
		c0.1-0.5,0.4-0.9,0.7-1.3c0.3-0.4,0.7-0.6,1.1-0.8c0.5-0.2,1-0.3,1.5-0.3c0.7,0,1.3,0.1,1.9,0.5c0.5,0.3,0.8,0.8,1.1,1.3l-1,0.5
		c-0.1-0.4-0.4-0.7-0.7-1c-0.4-0.2-0.8-0.4-1.2-0.3c-0.3,0-0.7,0.1-1,0.2c-0.3,0.1-0.5,0.3-0.7,0.5c-0.2,0.2-0.3,0.5-0.4,0.8
		c-0.1,0.3-0.1,0.6-0.1,1v1.4c0,0.6,0.2,1.2,0.6,1.7c0.4,0.5,1,0.7,1.6,0.7c0.9,0,1.8-0.5,2.1-1.4l0.9,0.6c-0.2,0.6-0.6,1-1.1,1.4
		C86.8,29.5,86.1,29.7,85.4,29.7z"/>
	<path class="st2" d="M90.2,29.5v-7.9h1.2V23h0.1c0.2-0.4,0.4-0.8,0.8-1c0.4-0.3,1-0.5,1.5-0.4h0.5v1.2h-0.7c-0.5,0-1.1,0.1-1.6,0.4
		c-0.3,0.2-0.6,0.6-0.6,0.9v5.4L90.2,29.5z"/>
	<path class="st2" d="M98.8,29.7c-0.5,0-1-0.1-1.5-0.3c-0.4-0.2-0.8-0.5-1.1-0.8c-0.3-0.4-0.6-0.8-0.7-1.3c-0.3-1.1-0.3-2.3,0-3.4
		c0.2-0.5,0.4-0.9,0.7-1.3c0.3-0.4,0.7-0.6,1.1-0.8c0.5-0.2,1-0.3,1.5-0.3c0.5,0,1,0.1,1.4,0.3c0.4,0.2,0.8,0.5,1.1,0.8
		c0.3,0.4,0.5,0.8,0.7,1.2c0.2,0.5,0.2,1,0.2,1.5v0.6h-5.7v0.4c0,0.3,0.1,0.6,0.2,0.9c0.1,0.3,0.3,0.5,0.5,0.8
		c0.2,0.2,0.5,0.4,0.7,0.5c0.3,0.1,0.7,0.2,1,0.2c0.5,0,0.9-0.1,1.3-0.4c0.4-0.2,0.7-0.6,0.9-1l0.9,0.6c-0.3,0.5-0.7,1-1.2,1.3
		C100.2,29.5,99.5,29.7,98.8,29.7z M98.8,22.4c-0.3,0-0.6,0.1-0.9,0.2c-0.3,0.1-0.5,0.3-0.7,0.5c-0.2,0.2-0.4,0.5-0.5,0.8
		c-0.1,0.3-0.2,0.6-0.2,1v0.1h4.4v-0.2c0-0.6-0.2-1.2-0.6-1.7C99.9,22.6,99.4,22.4,98.8,22.4L98.8,22.4z"/>
	<path class="st2" d="M109.3,28.2L109.3,28.2c-0.5,0.9-1.4,1.5-2.4,1.5c-0.5,0-0.9-0.1-1.3-0.3c-0.4-0.2-0.7-0.5-1-0.8
		c-0.3-0.4-0.5-0.8-0.6-1.3c-0.3-1.1-0.3-2.3,0-3.4c0.1-0.5,0.3-0.9,0.6-1.3c0.3-0.4,0.6-0.6,1-0.8c0.4-0.2,0.9-0.3,1.3-0.3
		c0.5,0,1,0.1,1.4,0.4c0.4,0.3,0.7,0.6,0.9,1.1h0.1v-4.7h1.2v11.4h-1.2V28.2z M107.3,28.6c0.3,0,0.5,0,0.8-0.1
		c0.2-0.1,0.5-0.2,0.7-0.3c0.2-0.1,0.3-0.3,0.4-0.5c0.1-0.2,0.2-0.4,0.2-0.7v-3c0-0.2-0.1-0.4-0.2-0.6c-0.1-0.2-0.3-0.4-0.4-0.5
		c-0.2-0.1-0.4-0.2-0.7-0.3c-0.3-0.1-0.5-0.1-0.8-0.1c-0.6,0-1.2,0.2-1.6,0.7c-0.4,0.5-0.6,1.1-0.6,1.7v1.4c0,0.6,0.2,1.2,0.6,1.7
		C106.1,28.4,106.7,28.6,107.3,28.6z"/>
	<path class="st2" d="M116.1,29.7c-0.5,0-1-0.1-1.5-0.3c-0.4-0.2-0.8-0.5-1.1-0.8c-0.3-0.4-0.6-0.8-0.7-1.3c-0.3-1.1-0.3-2.3,0-3.4
		c0.2-0.5,0.4-0.9,0.7-1.3c0.3-0.4,0.7-0.6,1.1-0.8c0.5-0.2,1-0.3,1.5-0.3c0.5,0,1,0.1,1.4,0.3c0.4,0.2,0.8,0.5,1.1,0.8
		c0.3,0.4,0.5,0.8,0.7,1.2c0.2,0.5,0.2,1,0.2,1.5v0.6h-5.7v0.4c0,0.3,0.1,0.6,0.2,0.9c0.1,0.3,0.3,0.5,0.5,0.8
		c0.2,0.2,0.5,0.4,0.7,0.5c0.3,0.1,0.7,0.2,1,0.2c0.5,0,0.9-0.1,1.3-0.4c0.4-0.2,0.7-0.6,0.9-1l0.9,0.6c-0.3,0.5-0.7,1-1.2,1.3
		C117.5,29.5,116.8,29.7,116.1,29.7z M116.1,22.4c-0.3,0-0.6,0.1-0.9,0.2c-0.3,0.1-0.5,0.3-0.7,0.5c-0.2,0.2-0.4,0.5-0.5,0.8
		c-0.1,0.3-0.2,0.6-0.2,1v0.1h4.4v-0.2c0-0.6-0.2-1.2-0.6-1.7C117.3,22.6,116.7,22.4,116.1,22.4L116.1,22.4z"/>
	<path class="st2" d="M121.6,29.5v-7.9h1.2v1.3h0.1c0.2-0.4,0.5-0.8,0.8-1.1c0.4-0.3,0.9-0.4,1.4-0.4c0.7,0,1.4,0.3,1.9,0.8
		c0.5,0.6,0.8,1.4,0.7,2.2v5.1h-1.2v-4.9c0-1.4-0.6-2.1-1.8-2.1c-0.2,0-0.5,0-0.7,0.1c-0.2,0.1-0.4,0.2-0.6,0.3
		c-0.2,0.1-0.3,0.3-0.4,0.5c-0.1,0.2-0.2,0.4-0.2,0.7v5.5L121.6,29.5z"/>
	<path class="st2" d="M132,29.5c-0.4,0-0.7-0.1-1-0.4c-0.2-0.3-0.3-0.6-0.3-0.9v-5.5h-1.3v-1.1h0.7c0.2,0,0.4,0,0.5-0.2
		c0.1-0.2,0.2-0.4,0.1-0.6v-1.5h1.1v2.2h1.7v1.1H132v5.7h1.6v1.1L132,29.5z"/>
	<path class="st2" d="M136.3,19.7c-0.2,0-0.4,0-0.6-0.2c-0.1-0.1-0.2-0.3-0.2-0.5v-0.2c0-0.2,0.1-0.4,0.2-0.5c0.3-0.3,0.8-0.3,1.1,0
		c0.1,0.1,0.2,0.3,0.2,0.5V19c0,0.2-0.1,0.4-0.2,0.5C136.7,19.7,136.5,19.7,136.3,19.7z M135.7,21.6h1.2v7.9h-1.2V21.6z"/>
	<path class="st2" d="M145.3,29.5c-0.4,0-0.7-0.1-1-0.4c-0.2-0.3-0.3-0.6-0.4-0.9h-0.1c-0.1,0.5-0.5,0.8-0.9,1.1
		c-0.4,0.3-0.9,0.4-1.4,0.4c-0.7,0-1.4-0.2-2-0.6c-0.5-0.5-0.7-1.1-0.7-1.8c0-0.7,0.3-1.3,0.8-1.7c0.8-0.5,1.7-0.7,2.6-0.6h1.6v-0.8
		c0-0.5-0.1-0.9-0.5-1.3c-0.4-0.3-0.9-0.5-1.4-0.4c-0.4,0-0.8,0.1-1.2,0.3c-0.3,0.2-0.6,0.5-0.8,0.9l-0.7-0.7c0.2-0.5,0.6-0.8,1-1.1
		c0.5-0.3,1.2-0.5,1.8-0.5c0.8-0.1,1.6,0.2,2.2,0.7c0.5,0.5,0.8,1.2,0.8,2v4.3h0.9v1.1L145.3,29.5z M141.7,28.6c0.3,0,0.6,0,0.8-0.1
		c0.2-0.1,0.5-0.2,0.7-0.3c0.2-0.1,0.3-0.3,0.4-0.5c0.1-0.2,0.2-0.4,0.2-0.6v-1.3h-1.6c-0.5,0-1.1,0.1-1.5,0.3
		c-0.3,0.2-0.5,0.5-0.5,0.9v0.3c0,0.4,0.1,0.7,0.4,0.9C140.9,28.5,141.3,28.6,141.7,28.6L141.7,28.6z"/>
	<path class="st2" d="M149,29.5c-0.4,0-0.7-0.1-1-0.4c-0.2-0.3-0.3-0.6-0.3-0.9V18.1h1.2v10.3h1.2v1.1L149,29.5z"/>
	<path class="st2" d="M154.3,29.7c-0.6,0-1.3-0.1-1.8-0.4c-0.5-0.3-0.9-0.7-1.3-1.1l0.9-0.7c0.3,0.4,0.6,0.7,1,0.9
		c0.4,0.2,0.9,0.3,1.3,0.3c0.4,0,0.9-0.1,1.2-0.3c0.5-0.4,0.6-1.2,0.2-1.7c0,0,0,0,0,0c-0.3-0.3-0.7-0.4-1.1-0.5L154,26
		c-0.3,0-0.7-0.1-1-0.2c-0.3-0.1-0.6-0.2-0.8-0.4c-0.2-0.2-0.4-0.4-0.5-0.7c-0.1-0.3-0.2-0.6-0.2-1c0-0.4,0.1-0.7,0.2-1
		c0.1-0.3,0.3-0.5,0.6-0.7c0.3-0.2,0.6-0.4,0.9-0.4c0.4-0.1,0.7-0.1,1.1-0.1c0.6,0,1.1,0.1,1.6,0.3c0.4,0.2,0.8,0.5,1.1,0.9
		l-0.8,0.7c-0.5-0.6-1.2-1-2-1c-0.4,0-0.8,0.1-1.2,0.3c-0.3,0.2-0.4,0.6-0.4,0.9c0,0.3,0.1,0.7,0.4,0.8c0.3,0.2,0.7,0.3,1.1,0.4
		l0.6,0.1c0.7,0.1,1.3,0.3,1.9,0.8c0.4,0.4,0.6,0.9,0.6,1.5c0,0.7-0.3,1.4-0.8,1.8C155.8,29.5,155,29.7,154.3,29.7z"/>
</g>
</svg>
