<svg id="Layer_1" data-name="Layer 1" xmlns="http://www.w3.org/2000/svg" width="250" height="100" viewBox="0 0 250 100"><defs><style>.cls-1{fill:#242b66;}.cls-2{fill:#525352;}.cls-3{fill:none;stroke:#242b66;stroke-miterlimit:10;stroke-width:1.968px;}</style></defs><path class="cls-1" d="M53.1143,16.0708h-.0518L52.36,17.5142,50.502,20.9458l-1.8594-3.4316L47.94,16.0708h-.0517V22.584h-1.625V13.51H48.2l2.3271,4.4331h.0518L52.8809,13.51h1.8584V22.584h-1.625Z"/><path class="cls-1" d="M61.76,22.584a1.1686,1.1686,0,0,1-.8653-.3184,1.4663,1.4663,0,0,1-.3965-.8515H60.42a1.5884,1.5884,0,0,1-.6894.9946,2.3468,2.3468,0,0,1-1.2862.331,2.1953,2.1953,0,0,1-1.5986-.5439,1.9325,1.9325,0,0,1-.56-1.4517,1.7583,1.7583,0,0,1,.7539-1.5615,3.8051,3.8051,0,0,1,2.1455-.5117h1.1563v-.4941a1.2273,1.2273,0,0,0-.2988-.8838,1.2828,1.2828,0,0,0-.9619-.312,1.5962,1.5962,0,0,0-.9424.2534,2.5094,2.5094,0,0,0-.6045.6045l-.9873-.8892a2.852,2.852,0,0,1,1-.9477,3.2934,3.2934,0,0,1,1.6513-.36,3.1,3.1,0,0,1,2.0928.6225,2.2456,2.2456,0,0,1,.7149,1.79v3.1909h.6757V22.584Zm-2.7559-1.0532a1.747,1.747,0,0,0,.9482-.2452.7984.7984,0,0,0,.39-.7231v-.8906H59.2764q-1.2993,0-1.3.8266v.2193a.7167.7167,0,0,0,.2656.6133A1.251,1.251,0,0,0,59.0039,21.5308Z"/><path class="cls-1" d="M64.0342,15.7979h1.664V16.916H65.75a1.7076,1.7076,0,0,1,.6895-.93,2.0543,2.0543,0,0,1,1.1826-.3442,2.321,2.321,0,0,1,1.9834.9165,4.3313,4.3313,0,0,1,.6816,2.62,4.3874,4.3874,0,0,1-.6816,2.6387,2.3145,2.3145,0,0,1-1.9834.9228,2.0005,2.0005,0,0,1-1.1768-.3505,1.8209,1.8209,0,0,1-.6953-.9361h-.0518v3.731h-1.664ZM67.09,21.3618a1.3809,1.3809,0,0,0,1.0528-.4287,1.6266,1.6266,0,0,0,.4023-1.1572v-1.17a1.65,1.65,0,0,0-.4023-1.1636,1.3707,1.3707,0,0,0-1.0528-.4356,1.6065,1.6065,0,0,0-.9951.2994.9434.9434,0,0,0-.3965.7929v2.1577a.9489.9489,0,0,0,.3965.8194A1.6592,1.6592,0,0,0,67.09,21.3618Z"/><path class="cls-1" d="M77.58,22.74a3.4251,3.4251,0,0,1-1.34-.2465,2.5832,2.5832,0,0,1-.98-.7154,3.2148,3.2148,0,0,1-.6055-1.1245,4.8715,4.8715,0,0,1-.207-1.4751,4.8119,4.8119,0,0,1,.207-1.4692,3.1571,3.1571,0,0,1,.6055-1.1113,2.6119,2.6119,0,0,1,.98-.7085,3.4232,3.4232,0,0,1,1.34-.2471,2.9539,2.9539,0,0,1,1.6963.4551,2.558,2.558,0,0,1,.9687,1.2607l-1.3652.6109a1.42,1.42,0,0,0-.4356-.7085,1.2655,1.2655,0,0,0-.8642-.2793,1.2457,1.2457,0,0,0-1.0469.4419A1.8308,1.8308,0,0,0,76.19,18.58v1.2348a1.8011,1.8011,0,0,0,.3437,1.15,1.253,1.253,0,0,0,1.0469.4356,1.2967,1.2967,0,0,0,.9228-.3052,2.0964,2.0964,0,0,0,.5069-.7607l1.2744.6108a2.6615,2.6615,0,0,1-1.0274,1.3457A3.011,3.011,0,0,1,77.58,22.74Z"/><path class="cls-1" d="M81.57,22.584V15.7979h1.6641v1.4042H83.3a2.1673,2.1673,0,0,1,.2022-.5268,1.57,1.57,0,0,1,.3574-.4482,1.7083,1.7083,0,0,1,.5254-.3121,1.9767,1.9767,0,0,1,.709-.1171h.3642v1.5732h-.52a2.6066,2.6066,0,0,0-1.2734.2471.8576.8576,0,0,0-.43.8056v4.16Z"/><path class="cls-1" d="M89.3574,22.74a3.3907,3.3907,0,0,1-1.3457-.2534,2.7746,2.7746,0,0,1-1-.7148,3.1908,3.1908,0,0,1-.6308-1.1182,5.041,5.041,0,0,1-.0059-2.9311,3.166,3.166,0,0,1,.6172-1.1118,2.7219,2.7219,0,0,1,.9883-.7149,3.3,3.3,0,0,1,1.3252-.2534,3.2291,3.2291,0,0,1,1.3779.2729,2.66,2.66,0,0,1,.9629.7408,3.2113,3.2113,0,0,1,.5644,1.0859,4.483,4.483,0,0,1,.19,1.3193v.5459H87.8887v.168a1.6589,1.6589,0,0,0,.416,1.1807,1.609,1.609,0,0,0,1.2353.4453,1.8417,1.8417,0,0,0,1.02-.2578,2.945,2.945,0,0,0,.709-.6582l.8965,1.0039a2.7879,2.7879,0,0,1-1.1377.9189A3.963,3.963,0,0,1,89.3574,22.74Zm-.0254-5.85a1.3326,1.3326,0,0,0-1.0527.4419,1.6668,1.6668,0,0,0-.3906,1.1441v.104h2.7822v-.1172a1.7794,1.7794,0,0,0-.3447-1.1372A1.1914,1.1914,0,0,0,89.332,16.89Z"/><path class="cls-1" d="M98.08,21.4531h-.0645a1.74,1.74,0,0,1-.6894.9361,2.0272,2.0272,0,0,1-1.1826.3505,2.2988,2.2988,0,0,1-1.97-.9228,4.3811,4.3811,0,0,1-.6816-2.6387,4.3251,4.3251,0,0,1,.6816-2.62,2.3052,2.3052,0,0,1,1.97-.9165,2.0546,2.0546,0,0,1,1.1826.3442,1.7074,1.7074,0,0,1,.6894.93H98.08V12.9639h1.664v9.62H98.08Zm-1.4033-.0913a1.6877,1.6877,0,0,0,1.0009-.2856.944.944,0,0,0,.4024-.8194V18.0991a.9387.9387,0,0,0-.4024-.7929,1.6338,1.6338,0,0,0-1.0009-.2994,1.3457,1.3457,0,0,0-1.0459.4356,1.6559,1.6559,0,0,0-.3965,1.1636v1.17a1.6323,1.6323,0,0,0,.3965,1.1572A1.3556,1.3556,0,0,0,96.6768,21.3618Z"/><path class="cls-1" d="M104.4121,22.74a3.3838,3.3838,0,0,1-1.3457-.2534,2.79,2.79,0,0,1-1.0019-.7148,3.2033,3.2033,0,0,1-.63-1.1182,5.03,5.03,0,0,1-.0069-2.9311,3.1962,3.1962,0,0,1,.6172-1.1118,2.7483,2.7483,0,0,1,.9883-.7149,3.3085,3.3085,0,0,1,1.3262-.2534,3.2256,3.2256,0,0,1,1.3779.2729,2.6552,2.6552,0,0,1,.9619.7408,3.2134,3.2134,0,0,1,.5664,1.0859,4.5162,4.5162,0,0,1,.1875,1.3193v.5459h-4.5107v.168a1.6594,1.6594,0,0,0,.416,1.1807,1.6078,1.6078,0,0,0,1.2354.4453,1.8421,1.8421,0,0,0,1.02-.2578,2.89,2.89,0,0,0,.708-.6582l.8974,1.0039a2.8011,2.8011,0,0,1-1.1377.9189A3.9583,3.9583,0,0,1,104.4121,22.74Zm-.0264-5.85a1.3363,1.3363,0,0,0-1.0537.4419,1.6667,1.6667,0,0,0-.39,1.1441v.104h2.7822v-.1172a1.7794,1.7794,0,0,0-.3447-1.1372A1.1926,1.1926,0,0,0,104.3857,16.89Z"/><path class="cls-1" d="M108.9219,22.584V15.7979h1.664v1.1313h.0655a2.1616,2.1616,0,0,1,.6572-.9165,1.89,1.89,0,0,1,1.24-.3706,1.9564,1.9564,0,0,1,1.6133.689,3.047,3.047,0,0,1,.5586,1.9628v4.29h-1.6641V18.4629a1.8833,1.8833,0,0,0-.26-1.0918.9833.9833,0,0,0-.8584-.3643,1.7474,1.7474,0,0,0-.501.0718,1.4,1.4,0,0,0-.4287.208,1.0818,1.0818,0,0,0-.3057.3379.9275.9275,0,0,0-.1172.4746V22.584Z"/><path class="cls-1" d="M118.6855,22.584a1.7716,1.7716,0,0,1-1.3066-.4473,1.727,1.727,0,0,1-.4482-1.2778V17.1372H115.93V15.7979h.52a.6211.6211,0,0,0,.5137-.1753.8443.8443,0,0,0,.1367-.5264V13.939h1.4951v1.8589h1.3907v1.3393h-1.3907v4.1079h1.2862V22.584Z"/><path class="cls-1" d="M122.26,14.81a1.0112,1.0112,0,0,1-.7471-.2339.8243.8243,0,0,1-.2275-.5982v-.26a.8231.8231,0,0,1,.2275-.5977,1.3,1.3,0,0,1,1.4893,0,.8122.8122,0,0,1,.2334.5977v.26a.8134.8134,0,0,1-.2334.5982A1.0184,1.0184,0,0,1,122.26,14.81Zm-.8321.9878h1.6641V22.584h-1.6641Z"/><path class="cls-1" d="M130.0078,22.584a1.1675,1.1675,0,0,1-.8642-.3184,1.4651,1.4651,0,0,1-.3965-.8515H128.67a1.5993,1.5993,0,0,1-.6894.9946,2.3526,2.3526,0,0,1-1.2871.331,2.2007,2.2007,0,0,1-1.6-.5439,1.9352,1.9352,0,0,1-.5586-1.4517,1.76,1.76,0,0,1,.7539-1.5615,3.801,3.801,0,0,1,2.1445-.5117h1.1582v-.4941a1.2233,1.2233,0,0,0-.3-.8838,1.2841,1.2841,0,0,0-.9619-.312,1.5962,1.5962,0,0,0-.9424.2534,2.4934,2.4934,0,0,0-.6045.6045l-.9883-.8892a2.8752,2.8752,0,0,1,1.002-.9477,3.29,3.29,0,0,1,1.65-.36,3.1016,3.1016,0,0,1,2.0927.6225,2.2462,2.2462,0,0,1,.7159,1.79v3.1909h.6757V22.584Zm-2.7558-1.0532a1.7463,1.7463,0,0,0,.9492-.2452.8014.8014,0,0,0,.3906-.7231v-.8906h-1.0664q-1.3008,0-1.3008.8266v.2193a.7179.7179,0,0,0,.2676.6133A1.2468,1.2468,0,0,0,127.252,21.5308Z"/><path class="cls-1" d="M133.9473,22.584a1.655,1.655,0,0,1-1.2608-.4292,1.6982,1.6982,0,0,1-.4033-1.209V12.9639h1.6641v8.2812h.8965V22.584Z"/><path class="cls-1" d="M138.3281,22.74a3.6472,3.6472,0,0,1-1.6386-.331,3.7842,3.7842,0,0,1-1.17-.9165l1.0147-.9883a3.0727,3.0727,0,0,0,.8252.6763,2.1081,2.1081,0,0,0,1.0332.2466,1.4161,1.4161,0,0,0,.8652-.208.684.684,0,0,0,.2656-.5718.6193.6193,0,0,0-.1875-.4746,1.2038,1.2038,0,0,0-.6445-.24l-.6758-.0913a3.2187,3.2187,0,0,1-1.6836-.63,1.7593,1.7593,0,0,1-.5781-1.4233,2.1159,2.1159,0,0,1,.1816-.8906,1.8832,1.8832,0,0,1,.5206-.6758,2.3783,2.3783,0,0,1,.8125-.4292,3.516,3.516,0,0,1,1.06-.1494,4.8464,4.8464,0,0,1,.877.0713,3.188,3.188,0,0,1,.6953.208,2.6686,2.6686,0,0,1,.5723.3379,5.4528,5.4528,0,0,1,.5078.4487l-.9756.9751a2.571,2.571,0,0,0-.7149-.52,2.0066,2.0066,0,0,0-.91-.208,1.2525,1.2525,0,0,0-.7861.1948.6228.6228,0,0,0-.24.5073.6418.6418,0,0,0,.2012.5132,1.39,1.39,0,0,0,.6826.2534l.6885.0913q2.1972.312,2.1972,2.002a2.0232,2.0232,0,0,1-.2011.9033,2.0645,2.0645,0,0,1-.5664.7022,2.6743,2.6743,0,0,1-.877.455A3.8183,3.8183,0,0,1,138.3281,22.74Z"/><path class="cls-2" d="M49.4453,38.1387a3.725,3.725,0,0,1-1.4765-.2823,3.0321,3.0321,0,0,1-1.127-.8276,3.7777,3.7777,0,0,1-.7207-1.3559,7.0365,7.0365,0,0,1,0-3.7325,3.7735,3.7735,0,0,1,.7207-1.3559,3.0378,3.0378,0,0,1,1.127-.8277,4.004,4.004,0,0,1,2.9531,0,3.0383,3.0383,0,0,1,1.1269.8277A3.7719,3.7719,0,0,1,52.77,31.94a7.0365,7.0365,0,0,1,0,3.7325,3.7761,3.7761,0,0,1-.7207,1.3559,3.0326,3.0326,0,0,1-1.1269.8276A3.7255,3.7255,0,0,1,49.4453,38.1387Zm0-1.0323a2.4331,2.4331,0,0,0,.9473-.18,2.01,2.01,0,0,0,.7383-.524,2.4123,2.4123,0,0,0,.4746-.8252,3.2973,3.2973,0,0,0,.1679-1.0839V33.12a3.2984,3.2984,0,0,0-.1679-1.084,2.4053,2.4053,0,0,0-.4746-.8247,1.9989,1.9989,0,0,0-.7383-.5239,2.5912,2.5912,0,0,0-1.9014,0,2.0129,2.0129,0,0,0-.7314.5239,2.3877,2.3877,0,0,0-.4746.8247,3.2957,3.2957,0,0,0-.168,1.084v1.3731a3.2947,3.2947,0,0,0,.168,1.0839,2.3946,2.3946,0,0,0,.4746.8252,2.0237,2.0237,0,0,0,.7314.524A2.43,2.43,0,0,0,49.4453,37.1064Z"/><path class="cls-2" d="M57.0293,38.1387a2.9117,2.9117,0,0,1-1.1875-.2281,2.4271,2.4271,0,0,1-.877-.6479,2.8256,2.8256,0,0,1-.5449-1.0259,4.5581,4.5581,0,0,1-.1865-1.35,4.5,4.5,0,0,1,.1865-1.3442,2.8952,2.8952,0,0,1,.5449-1.0259,2.4036,2.4036,0,0,1,.877-.6538,2.9117,2.9117,0,0,1,1.1875-.228,2.5415,2.5415,0,0,1,1.5.4077,2.4131,2.4131,0,0,1,.8516,1.08l-.9239.456a1.4318,1.4318,0,0,0-.5215-.72,1.5114,1.5114,0,0,0-.9062-.2637,1.4679,1.4679,0,0,0-1.2061.4917,1.9254,1.9254,0,0,0-.4013,1.26v1.08a1.9226,1.9226,0,0,0,.4013,1.26,1.4667,1.4667,0,0,0,1.2061.4922,1.6,1.6,0,0,0,.96-.2759,1.99,1.99,0,0,0,.624-.78l.8164.5039a2.4506,2.4506,0,0,1-.9,1.11A2.6421,2.6421,0,0,1,57.0293,38.1387Z"/><path class="cls-2" d="M63.0176,38.1387a2.9136,2.9136,0,0,1-1.1885-.2281,2.4235,2.4235,0,0,1-.876-.6479,2.8257,2.8257,0,0,1-.5459-1.0259,4.591,4.591,0,0,1-.1865-1.35,4.5319,4.5319,0,0,1,.1865-1.3442,2.8953,2.8953,0,0,1,.5459-1.0259,2.4,2.4,0,0,1,.876-.6538,2.9136,2.9136,0,0,1,1.1885-.228,2.5458,2.5458,0,0,1,1.5.4077,2.42,2.42,0,0,1,.8515,1.08l-.9238.456a1.4376,1.4376,0,0,0-.5215-.72,1.5114,1.5114,0,0,0-.9062-.2637,1.4687,1.4687,0,0,0-1.2071.4917,1.9309,1.9309,0,0,0-.4013,1.26v1.08a1.9281,1.9281,0,0,0,.4013,1.26,1.4675,1.4675,0,0,0,1.2071.4922,1.5991,1.5991,0,0,0,.959-.2759,1.9924,1.9924,0,0,0,.625-.78l.8154.5039a2.455,2.455,0,0,1-.8994,1.11A2.6421,2.6421,0,0,1,63.0176,38.1387Z"/><path class="cls-2" d="M71.249,37.9946a.9878.9878,0,0,1-.7744-.2881,1.3478,1.3478,0,0,1-.3174-.7441h-.0595a1.6113,1.6113,0,0,1-.66.8765,2.0742,2.0742,0,0,1-1.1406.3,2.1456,2.1456,0,0,1-1.5117-.4981,1.7635,1.7635,0,0,1-.54-1.3618,1.5906,1.5906,0,0,1,.6543-1.374,3.4125,3.4125,0,0,1,1.9971-.4741h1.1767v-.564a1.3008,1.3008,0,0,0-.3359-.96,1.4231,1.4231,0,0,0-1.0439-.3359,1.6133,1.6133,0,0,0-.918.2456,2.0187,2.0187,0,0,0-.6055.6421l-.6728-.6118a2.37,2.37,0,0,1,.834-.8579,2.6147,2.6147,0,0,1,1.4228-.354,2.6443,2.6443,0,0,1,1.7988.5566,1.9827,1.9827,0,0,1,.6368,1.5747v3.2686h.6953v.96Zm-2.7-.7558a1.8657,1.8657,0,0,0,1.0918-.3.9.9,0,0,0,.4326-.7681v-.96H68.8848a2.1259,2.1259,0,0,0-1.1211.2281.7377.7377,0,0,0-.3545.66v.24a.79.79,0,0,0,.3056.6655A1.3433,1.3433,0,0,0,68.5488,37.2388Z"/><path class="cls-2" d="M75.125,38.1387a3.0049,3.0049,0,0,1-1.458-.3242,3.3067,3.3067,0,0,1-1.0264-.876l.7559-.648a2.5659,2.5659,0,0,0,.7871.6841,2.0682,2.0682,0,0,0,1.0137.24,1.4527,1.4527,0,0,0,.9121-.246.8942.8942,0,0,0,.1015-1.254,1.3292,1.3292,0,0,0-.7861-.312l-.5283-.084a4.04,4.04,0,0,1-.8154-.1923,2.0967,2.0967,0,0,1-.6358-.3477,1.5254,1.5254,0,0,1-.4141-.5283,1.6952,1.6952,0,0,1-.15-.7437,1.8766,1.8766,0,0,1,.1679-.81,1.5959,1.5959,0,0,1,.4688-.5884,2.0936,2.0936,0,0,1,.7129-.354,3.2624,3.2624,0,0,1,.9062-.12,2.9419,2.9419,0,0,1,1.32.2636,2.9077,2.9077,0,0,1,.9239.7325l-.708.6718a2.002,2.002,0,0,0-.6182-.5219,1.9,1.9,0,0,0-.9531-.2222,1.3027,1.3027,0,0,0-.8594.24.7943.7943,0,0,0-.2813.6358.6983.6983,0,0,0,.27.6118,1.932,1.932,0,0,0,.81.2764l.5274.0839a2.6486,2.6486,0,0,1,1.4824.6,1.5586,1.5586,0,0,1,.45,1.1636,1.7725,1.7725,0,0,1-.6358,1.44A2.6418,2.6418,0,0,1,75.125,38.1387Z"/><path class="cls-2" d="M79.66,30.4824a.6808.6808,0,0,1-.51-.1679.6147.6147,0,0,1-.1621-.4439v-.168a.6144.6144,0,0,1,.1621-.4438.8589.8589,0,0,1,1.02,0,.61.61,0,0,1,.1621.4438v.168a.6105.6105,0,0,1-.1621.4439A.6817.6817,0,0,1,79.66,30.4824Zm-.5635,1.2964h1.1162v6.2158H79.0967Z"/><path class="cls-2" d="M84.5684,38.1387a2.8644,2.8644,0,0,1-1.1582-.2281,2.5074,2.5074,0,0,1-.8946-.6538,3.0082,3.0082,0,0,1-.5752-1.0263,4.5272,4.5272,0,0,1,0-2.688,3.0119,3.0119,0,0,1,.5752-1.0259,2.5074,2.5074,0,0,1,.8946-.6538,3.0557,3.0557,0,0,1,2.3164,0,2.5034,2.5034,0,0,1,.8935.6538,3.0121,3.0121,0,0,1,.5762,1.0259,4.5272,4.5272,0,0,1,0,2.688,3.0083,3.0083,0,0,1-.5762,1.0263,2.5034,2.5034,0,0,1-.8935.6538A2.8651,2.8651,0,0,1,84.5684,38.1387Zm0-.96a1.6043,1.6043,0,0,0,1.1875-.456,1.8559,1.8559,0,0,0,.457-1.3682v-.936a1.8553,1.8553,0,0,0-.457-1.3677,1.7739,1.7739,0,0,0-2.375,0,1.8549,1.8549,0,0,0-.4571,1.3677v.936a1.8556,1.8556,0,0,0,.4571,1.3682A1.6025,1.6025,0,0,0,84.5684,37.1787Z"/><path class="cls-2" d="M88.9238,37.9946V31.7788H90.041v1.0083h.06a2.0285,2.0285,0,0,1,.63-.8315,1.7858,1.7858,0,0,1,1.122-.3208,1.8972,1.8972,0,0,1,1.5059.624,2.5921,2.5921,0,0,1,.5459,1.7637v3.9721H92.7891V34.1821q0-1.5871-1.3086-1.5874a1.9687,1.9687,0,0,0-.5342.0723,1.5711,1.5711,0,0,0-.4619.21,1.0331,1.0331,0,0,0-.3242.3487.989.989,0,0,0-.1192.499v4.27Z"/><path class="cls-2" d="M100.3242,37.9946a.9855.9855,0,0,1-.7734-.2881,1.3487,1.3487,0,0,1-.3184-.7441h-.0605a1.5978,1.5978,0,0,1-.66.8765,2.0674,2.0674,0,0,1-1.1387.3,2.1481,2.1481,0,0,1-1.5126-.4981,1.76,1.76,0,0,1-.54-1.3618,1.5906,1.5906,0,0,1,.6543-1.374,3.4139,3.4139,0,0,1,1.9981-.4741h1.1757v-.564a1.3008,1.3008,0,0,0-.3359-.96,1.4247,1.4247,0,0,0-1.0439-.3359,1.6113,1.6113,0,0,0-.918.2456,2.0327,2.0327,0,0,0-.6065.6421l-.6718-.6118a2.3635,2.3635,0,0,1,.8339-.8579,2.612,2.612,0,0,1,1.4219-.354,2.65,2.65,0,0,1,1.8008.5566,1.9824,1.9824,0,0,1,.6357,1.5747v3.2686h.6963v.96Zm-2.6992-.7558a1.8722,1.8722,0,0,0,1.0918-.3.9038.9038,0,0,0,.4316-.7681v-.96H97.9609a2.1338,2.1338,0,0,0-1.123.2281.739.739,0,0,0-.3535.66v.24a.7857.7857,0,0,0,.3066.6655A1.3373,1.3373,0,0,0,97.625,37.2388Z"/><path class="cls-2" d="M103.4561,37.9946a1.1406,1.1406,0,0,1-.87-.312,1.161,1.161,0,0,1-.2939-.8281v-7.74h1.1162v7.92h.8877v.96Z"/><path class="cls-2" d="M106.7207,37.9946a1.1428,1.1428,0,0,1-.8711-.312,1.16,1.16,0,0,1-.293-.8281v-7.74h1.1153v7.92h.8886v.96Z"/><path class="cls-2" d="M112.6123,31.7788h1.08l-2.7,7.5718a3.2118,3.2118,0,0,1-.2285.4922,1.0143,1.0143,0,0,1-.293.3237,1.1847,1.1847,0,0,1-.4141.1743,2.82,2.82,0,0,1-.6.0537h-.6123v-.96h1.02l.42-1.1983-2.3037-6.4575h1.1152l1.3809,3.9639.3242,1.1616h.06l.36-1.1616Z"/><path class="cls-2" d="M114.916,36.4707a.7727.7727,0,0,1,.6065.21.7936.7936,0,0,1,.1865.5459v.18a2.6319,2.6319,0,0,1-.2949,1.146,3.0889,3.0889,0,0,1-.834,1.05h-.876a5.422,5.422,0,0,0,.6064-.7319,2.4642,2.4642,0,0,0,.3418-.7681.6321.6321,0,0,1-.4023-.24.7768.7768,0,0,1-.125-.4561v-.18a.7883.7883,0,0,1,.1855-.5459A.77.77,0,0,1,114.916,36.4707Z"/><path class="cls-2" d="M124.9238,37.9946a.9855.9855,0,0,1-.7734-.2881,1.3551,1.3551,0,0,1-.3184-.7441h-.0595a1.6071,1.6071,0,0,1-.66.8765,2.0707,2.0707,0,0,1-1.14.3,2.1443,2.1443,0,0,1-1.5118-.4981,1.7609,1.7609,0,0,1-.541-1.3618,1.593,1.593,0,0,1,.6543-1.374,3.4139,3.4139,0,0,1,1.9981-.4741h1.1757v-.564a1.2968,1.2968,0,0,0-.3359-.96,1.4222,1.4222,0,0,0-1.043-.3359,1.6087,1.6087,0,0,0-.9179.2456,2.0216,2.0216,0,0,0-.6065.6421l-.6728-.6118a2.3784,2.3784,0,0,1,.834-.8579,2.6171,2.6171,0,0,1,1.4228-.354,2.6453,2.6453,0,0,1,1.8.5566,1.983,1.983,0,0,1,.6367,1.5747v3.2686h.6953v.96Zm-2.6992-.7558a1.87,1.87,0,0,0,1.0918-.3.9015.9015,0,0,0,.4316-.7681v-.96h-1.1875a2.13,2.13,0,0,0-1.122.2281.74.74,0,0,0-.3545.66v.24a.7884.7884,0,0,0,.3066.6655A1.3411,1.3411,0,0,0,122.2246,37.2388Z"/><path class="cls-2" d="M132.0762,38.1387a2.9113,2.9113,0,0,1-1.1875-.2281,2.4263,2.4263,0,0,1-.877-.6479,2.8241,2.8241,0,0,1-.5449-1.0259,4.5581,4.5581,0,0,1-.1865-1.35,4.5,4.5,0,0,1,.1865-1.3442,2.8936,2.8936,0,0,1,.5449-1.0259,2.4028,2.4028,0,0,1,.877-.6538,2.9114,2.9114,0,0,1,1.1875-.228,2.5415,2.5415,0,0,1,1.5.4077,2.4136,2.4136,0,0,1,.8515,1.08l-.9238.456a1.4318,1.4318,0,0,0-.5215-.72,1.5116,1.5116,0,0,0-.9062-.2637,1.4678,1.4678,0,0,0-1.2061.4917,1.9254,1.9254,0,0,0-.4013,1.26v1.08a1.9226,1.9226,0,0,0,.4013,1.26,1.4666,1.4666,0,0,0,1.2061.4922,1.6,1.6,0,0,0,.96-.2759,1.99,1.99,0,0,0,.6241-.78l.8164.5039a2.4506,2.4506,0,0,1-.9,1.11A2.6421,2.6421,0,0,1,132.0762,38.1387Z"/><path class="cls-2" d="M138.1,38.1387a2.8682,2.8682,0,0,1-1.1582-.2281,2.5034,2.5034,0,0,1-.8935-.6538,2.9884,2.9884,0,0,1-.5752-1.0263,4.5061,4.5061,0,0,1,0-2.688,2.9921,2.9921,0,0,1,.5752-1.0259,2.5034,2.5034,0,0,1,.8935-.6538,3.0557,3.0557,0,0,1,2.3164,0,2.5062,2.5062,0,0,1,.8945.6538,3.0271,3.0271,0,0,1,.5762,1.0259,4.5485,4.5485,0,0,1,0,2.688,3.0233,3.0233,0,0,1-.5762,1.0263,2.5062,2.5062,0,0,1-.8945.6538A2.8648,2.8648,0,0,1,138.1,38.1387Zm0-.96a1.6064,1.6064,0,0,0,1.1885-.456,1.8594,1.8594,0,0,0,.456-1.3682v-.936a1.8588,1.8588,0,0,0-.456-1.3677,1.7752,1.7752,0,0,0-2.376,0,1.8546,1.8546,0,0,0-.456,1.3677v.936a1.8553,1.8553,0,0,0,.456,1.3682A1.604,1.604,0,0,0,138.1,37.1787Z"/><path class="cls-2" d="M143.6191,37.9946a1.138,1.138,0,0,1-.8691-.312,1.1572,1.1572,0,0,1-.2949-.8281v-7.74h1.1172v7.92h.8867v.96Z"/><path class="cls-2" d="M146.8838,37.9946a1.14,1.14,0,0,1-.87-.312,1.161,1.161,0,0,1-.294-.8281v-7.74h1.1162v7.92h.8877v.96Z"/><path class="cls-2" d="M151.4316,38.1387a2.8341,2.8341,0,0,1-1.17-.2339,2.5491,2.5491,0,0,1-.8887-.6543,2.9323,2.9323,0,0,1-.5634-1.02,4.6324,4.6324,0,0,1,0-2.6817,2.9309,2.9309,0,0,1,.5634-1.0263,2.5466,2.5466,0,0,1,.8887-.6538,2.8246,2.8246,0,0,1,1.17-.2339,2.7588,2.7588,0,0,1,1.1582.2329,2.4565,2.4565,0,0,1,.8575.64,2.7659,2.7659,0,0,1,.5283.9688,3.9314,3.9314,0,0,1,.1806,1.2075V35.15h-4.3808v.2524a1.816,1.816,0,0,0,.457,1.2779,1.6652,1.6652,0,0,0,1.2949.498,1.85,1.85,0,0,0,1.0079-.2641,1.8945,1.8945,0,0,0,.6728-.7442l.72.6162a2.4136,2.4136,0,0,1-.9726.9839A3.0344,3.0344,0,0,1,151.4316,38.1387Zm0-5.604a1.6731,1.6731,0,0,0-.666.1313,1.5667,1.5667,0,0,0-.8691.918,1.9934,1.9934,0,0,0-.1211.7031v.0835h3.1924v-.1191a1.8149,1.8149,0,0,0-.4141-1.2456A1.4176,1.4176,0,0,0,151.4316,32.5347Z"/><path class="cls-2" d="M158.0312,38.1387a2.9145,2.9145,0,0,1-1.1874-.2281,2.43,2.43,0,0,1-.876-.6479,2.8394,2.8394,0,0,1-.5459-1.0259,4.5918,4.5918,0,0,1-.1856-1.35,4.5328,4.5328,0,0,1,.1856-1.3442,2.91,2.91,0,0,1,.5459-1.0259,2.4068,2.4068,0,0,1,.876-.6538,2.9145,2.9145,0,0,1,1.1874-.228,2.5373,2.5373,0,0,1,1.5.4077,2.422,2.422,0,0,1,.8526,1.08l-.9238.456a1.44,1.44,0,0,0-.5225-.72,1.51,1.51,0,0,0-.9063-.2637,1.4656,1.4656,0,0,0-1.205.4917,1.9254,1.9254,0,0,0-.4024,1.26v1.08a1.9226,1.9226,0,0,0,.4024,1.26,1.4644,1.4644,0,0,0,1.205.4922,1.6033,1.6033,0,0,0,.961-.2759,1.9877,1.9877,0,0,0,.623-.78l.8164.5039a2.4443,2.4443,0,0,1-.9,1.11A2.6376,2.6376,0,0,1,158.0312,38.1387Z"/><path class="cls-2" d="M163.2637,37.9946a1.1494,1.1494,0,0,1-.876-.3174,1.1932,1.1932,0,0,1-.3-.8559V32.7388h-.9961v-.96h.5527a.5681.5681,0,0,0,.4317-.1323.6552.6552,0,0,0,.1191-.4439v-1.14h1.0088v1.7163h1.3311v.96h-1.3311v4.2959H164.44v.96Z"/><path class="cls-2" d="M168.3633,38.1387a2.8682,2.8682,0,0,1-1.1582-.2281,2.5038,2.5038,0,0,1-.8936-.6538,2.9917,2.9917,0,0,1-.5752-1.0263,4.5061,4.5061,0,0,1,0-2.688,2.9954,2.9954,0,0,1,.5752-1.0259,2.5038,2.5038,0,0,1,.8936-.6538,3.0557,3.0557,0,0,1,2.3164,0,2.507,2.507,0,0,1,.8945.6538,3.0271,3.0271,0,0,1,.5762,1.0259,4.5485,4.5485,0,0,1,0,2.688,3.0233,3.0233,0,0,1-.5762,1.0263,2.507,2.507,0,0,1-.8945.6538A2.8651,2.8651,0,0,1,168.3633,38.1387Zm0-.96a1.6065,1.6065,0,0,0,1.1885-.456,1.8594,1.8594,0,0,0,.456-1.3682v-.936a1.8588,1.8588,0,0,0-.456-1.3677,1.7752,1.7752,0,0,0-2.376,0,1.8546,1.8546,0,0,0-.4561,1.3677v.936a1.8553,1.8553,0,0,0,.4561,1.3682A1.604,1.604,0,0,0,168.3633,37.1787Z"/><path class="cls-2" d="M172.7188,37.9946V31.7788h1.1171v1.188h.06a1.7588,1.7588,0,0,1,.2158-.4443,1.5311,1.5311,0,0,1,.3594-.378,1.864,1.864,0,0,1,.5107-.2636,2.0292,2.0292,0,0,1,.6661-.1021h.372v1.1157h-.5527a2.173,2.173,0,0,0-1.2051.2823.85.85,0,0,0-.4258.7378v4.08Z"/><path class="cls-2" d="M180.0508,37.9946V31.7788h1.1172v1.0083h.0595a2.1179,2.1179,0,0,1,.6182-.814,1.5832,1.5832,0,0,1,1.0371-.3383,2.213,2.213,0,0,1,1.1348.2973,1.7476,1.7476,0,0,1,.75.9512h.0234a1.8716,1.8716,0,0,1,.6426-.874,1.9645,1.9645,0,0,1,1.2539-.3745,1.815,1.815,0,0,1,1.4639.624,2.65,2.65,0,0,1,.5283,1.7637v3.9721h-1.1162V34.1821a1.9382,1.9382,0,0,0-.3057-1.19,1.1314,1.1314,0,0,0-.9551-.397,1.8378,1.8378,0,0,0-.5215.0723,1.41,1.41,0,0,0-.4374.21.99.99,0,0,0-.42.8477v4.27h-1.1162V34.1821q0-1.5871-1.248-1.5874a1.8577,1.8577,0,0,0-.5166.0723,1.4015,1.4015,0,0,0-.4434.21,1.0827,1.0827,0,0,0-.3125.3487.989.989,0,0,0-.1191.499v4.27Z"/><path class="cls-2" d="M191.1387,30.4824a.6808.6808,0,0,1-.51-.1679.6147.6147,0,0,1-.1621-.4439v-.168a.6144.6144,0,0,1,.1621-.4438.8589.8589,0,0,1,1.0205,0,.61.61,0,0,1,.1621.4438v.168a.6105.6105,0,0,1-.1621.4439A.6817.6817,0,0,1,191.1387,30.4824Zm-.5635,1.2964h1.1162v6.2158h-1.1162Z"/><path class="cls-2" d="M199,38.624a1.5884,1.5884,0,0,1-.75,1.4453,4.5238,4.5238,0,0,1-2.334.4693,4.2543,4.2543,0,0,1-2.1308-.3965,1.2462,1.2462,0,0,1-.6426-1.1172,1.1141,1.1141,0,0,1,.27-.7925,1.5,1.5,0,0,1,.75-.4087v-.1323a.9038.9038,0,0,1-.6123-.916.8772.8772,0,0,1,.3125-.7227,1.8931,1.8931,0,0,1,.7676-.3618v-.0483a1.9718,1.9718,0,0,1-.8516-.7476,2.1019,2.1019,0,0,1-.3-1.1308,2.1718,2.1718,0,0,1,.168-.8614,1.9485,1.9485,0,0,1,.4736-.6757,2.1421,2.1421,0,0,1,.75-.4371,3.0423,3.0423,0,0,1,1.0078-.1552,2.9967,2.9967,0,0,1,.6123.06,3.5424,3.5424,0,0,1,.54.1558v-.1318a.9934.9934,0,0,1,.18-.6182.6825.6825,0,0,1,.5762-.2339h.9483v.936h-1.2237v.335a1.9018,1.9018,0,0,1,.7793,1.6269,2.1708,2.1708,0,0,1-.168.8619,1.8211,1.8211,0,0,1-.48.67,2.2328,2.2328,0,0,1-.7559.4307,3.0208,3.0208,0,0,1-1.0078.1557c-.1191,0-.24-.0063-.3594-.0181a2.7,2.7,0,0,1-.3359-.0542,1.6623,1.6623,0,0,0-.4922.24.4916.4916,0,0,0-.2168.42.3646.3646,0,0,0,.2461.3721,1.8844,1.8844,0,0,0,.666.0957h1.416a2.5327,2.5327,0,0,1,1.6739.4516A1.5461,1.5461,0,0,1,199,38.624Zm-1.0449.1148a.6711.6711,0,0,0-.27-.5581,1.6046,1.6046,0,0,0-.9541-.21h-2.0888a.8642.8642,0,0,0-.1973,1.4458,1.5677,1.5677,0,0,0,1.0381.27h.84a2.5326,2.5326,0,0,0,1.212-.2339A.7654.7654,0,0,0,197.9551,38.7388Zm-2.0645-3.6963a1.4693,1.4693,0,0,0,.9434-.2744,1.0242,1.0242,0,0,0,.3418-.8482v-.31a1.0242,1.0242,0,0,0-.3418-.8482,1.7555,1.7555,0,0,0-1.8848,0,1.0213,1.0213,0,0,0-.3418.8482v.31a1.0213,1.0213,0,0,0,.3418.8482A1.4652,1.4652,0,0,0,195.8906,35.0425Z"/><path class="cls-2" d="M200.0547,29.1147h1.1172v3.6724h.06a2.0294,2.0294,0,0,1,.63-.8315,1.7859,1.7859,0,0,1,1.1221-.3208,1.8974,1.8974,0,0,1,1.5059.624,2.5926,2.5926,0,0,1,.5459,1.7637v3.9721H203.92V34.1821q0-1.5871-1.3086-1.5874a1.9687,1.9687,0,0,0-.5342.0723,1.5735,1.5735,0,0,0-.4619.21,1.0341,1.0341,0,0,0-.3242.3487.989.989,0,0,0-.1191.499v4.27h-1.1172Z"/><path class="cls-2" d="M208.4551,37.9946a1.1494,1.1494,0,0,1-.876-.3174,1.1932,1.1932,0,0,1-.3-.8559V32.7388h-.9961v-.96h.5527a.5681.5681,0,0,0,.4317-.1323.6547.6547,0,0,0,.1191-.4439v-1.14h1.0088v1.7163h1.3311v.96h-1.3311v4.2959h1.2354v.96Z"/><path class="cls-2" d="M46.1816,52.3945V46.1787h1.1153v1.188h.06a1.7289,1.7289,0,0,1,.2158-.4443,1.5372,1.5372,0,0,1,.36-.378,1.8425,1.8425,0,0,1,.51-.2636,2.0243,2.0243,0,0,1,.666-.1021h.372v1.1157H48.93a2.1821,2.1821,0,0,0-1.207.2823.8537.8537,0,0,0-.4258.7378v4.08Z"/><path class="cls-2" d="M52.9971,52.5386a2.8376,2.8376,0,0,1-1.17-.2339A2.535,2.535,0,0,1,50.94,51.65a2.9326,2.9326,0,0,1-.5645-1.02,4.6548,4.6548,0,0,1,0-2.6817,2.9311,2.9311,0,0,1,.5645-1.0263,2.5324,2.5324,0,0,1,.8876-.6538,2.828,2.828,0,0,1,1.17-.2339,2.7591,2.7591,0,0,1,1.1582.2329,2.47,2.47,0,0,1,.8584.64,2.7641,2.7641,0,0,1,.5273.9688,3.9314,3.9314,0,0,1,.18,1.2075V49.55H51.3418v.2524a1.8193,1.8193,0,0,0,.4551,1.2779,1.6708,1.6708,0,0,0,1.2969.498,1.8573,1.8573,0,0,0,1.0078-.2641,1.899,1.899,0,0,0,.6718-.7442l.72.6162a2.4181,2.4181,0,0,1-.9717.9839A3.0378,3.0378,0,0,1,52.9971,52.5386Zm0-5.604a1.6762,1.6762,0,0,0-.666.1313,1.5909,1.5909,0,0,0-.5284.3633,1.6139,1.6139,0,0,0-.3418.5547,1.9955,1.9955,0,0,0-.1191.7031v.0835h3.1914v-.1191a1.82,1.82,0,0,0-.4141-1.2456A1.4173,1.4173,0,0,0,52.9971,46.9346Z"/><path class="cls-2" d="M61.1816,51.3862h-.0488a1.6784,1.6784,0,0,1-.6777.8614,2.0423,2.0423,0,0,1-1.1094.291,2.3984,2.3984,0,0,1-1.0508-.2222,2.135,2.135,0,0,1-.7851-.6479,2.9914,2.9914,0,0,1-.4922-1.0259,5.556,5.556,0,0,1,0-2.7119,2.9984,2.9984,0,0,1,.4922-1.0264,2.1451,2.1451,0,0,1,.7851-.648,2.4,2.4,0,0,1,1.0508-.2216,2.0414,2.0414,0,0,1,1.1094.291,1.68,1.68,0,0,1,.6777.8613h.0488V46.1787h1.1153v8.6157H61.1816Zm-1.5117.1924a2.0092,2.0092,0,0,0,.5879-.0845,1.4937,1.4937,0,0,0,.4795-.2412,1.2568,1.2568,0,0,0,.3232-.3618.8906.8906,0,0,0,.1211-.4585v-2.292a.8909.8909,0,0,0-.1211-.4585,1.2568,1.2568,0,0,0-.3232-.3618,1.4957,1.4957,0,0,0-.4795-.2412,2.0092,2.0092,0,0,0-.5879-.0845,1.5345,1.5345,0,0,0-1.1953.4825,1.834,1.834,0,0,0-.4375,1.2788v1.0615a1.8344,1.8344,0,0,0,.4375,1.2788A1.5344,1.5344,0,0,0,59.67,51.5786Z"/><path class="cls-2" d="M68.0693,51.3862H68.01a2.17,2.17,0,0,1-.2227.4336,1.5206,1.5206,0,0,1-.3476.3682,1.701,1.701,0,0,1-.4981.2554,2.1474,2.1474,0,0,1-.6719.0952,1.9124,1.9124,0,0,1-1.5117-.624,2.57,2.57,0,0,1-.5527-1.7642V46.1787h1.1162v3.8125q0,1.5872,1.3193,1.5874a2.0846,2.0846,0,0,0,.5225-.0664,1.3209,1.3209,0,0,0,.456-.21,1.16,1.16,0,0,0,.3243-.36.9885.9885,0,0,0,.1259-.5054V46.1787h1.1162v6.2158H68.0693Z"/><path class="cls-2" d="M71.7168,44.8823a.678.678,0,0,1-.51-.1679.6147.6147,0,0,1-.1621-.4439v-.168a.6144.6144,0,0,1,.1621-.4438.8575.8575,0,0,1,1.02,0,.61.61,0,0,1,.1621.4438v.168a.6105.6105,0,0,1-.1621.4439A.678.678,0,0,1,71.7168,44.8823Zm-.5645,1.2964H72.27v6.2158H71.1523Z"/><path class="cls-2" d="M74.2363,52.3945V46.1787h1.1172v1.188h.06a1.7554,1.7554,0,0,1,.2158-.4443,1.5311,1.5311,0,0,1,.3594-.378,1.8625,1.8625,0,0,1,.5107-.2636,2.029,2.029,0,0,1,.666-.1021h.3721v1.1157h-.5527a2.1728,2.1728,0,0,0-1.2051.2823.8494.8494,0,0,0-.4258.7378v4.08Z"/><path class="cls-2" d="M81.0527,52.5386a2.8341,2.8341,0,0,1-1.17-.2339,2.5491,2.5491,0,0,1-.8887-.6543,2.9323,2.9323,0,0,1-.5634-1.02,4.6324,4.6324,0,0,1,0-2.6817,2.9309,2.9309,0,0,1,.5634-1.0263,2.5466,2.5466,0,0,1,.8887-.6538,2.8246,2.8246,0,0,1,1.17-.2339,2.7588,2.7588,0,0,1,1.1582.2329,2.4565,2.4565,0,0,1,.8575.64,2.7659,2.7659,0,0,1,.5283.9688,3.9314,3.9314,0,0,1,.1806,1.2075V49.55H79.3965v.2524a1.816,1.816,0,0,0,.457,1.2779,1.665,1.665,0,0,0,1.2949.498,1.85,1.85,0,0,0,1.0078-.2641,1.894,1.894,0,0,0,.6729-.7442l.72.6162a2.4136,2.4136,0,0,1-.9726.9839A3.0344,3.0344,0,0,1,81.0527,52.5386Zm0-5.604a1.6731,1.6731,0,0,0-.666.1313,1.5667,1.5667,0,0,0-.8691.918,1.9934,1.9934,0,0,0-.1211.7031v.0835h3.1924v-.1191a1.8149,1.8149,0,0,0-.4141-1.2456A1.4176,1.4176,0,0,0,81.0527,46.9346Z"/><path class="cls-2" d="M88.1328,52.3945V46.1787H89.249V47.187h.06a2.1268,2.1268,0,0,1,.6182-.814,1.5874,1.5874,0,0,1,1.038-.3383A2.215,2.215,0,0,1,92.1,46.332a1.7467,1.7467,0,0,1,.75.9512h.0234a1.8655,1.8655,0,0,1,.6426-.874,1.9609,1.9609,0,0,1,1.2539-.3745,1.8127,1.8127,0,0,1,1.4629.624,2.65,2.65,0,0,1,.5283,1.7637v3.9721H95.6445V48.582a1.9315,1.9315,0,0,0-.3056-1.19,1.13,1.13,0,0,0-.9541-.397,1.8373,1.8373,0,0,0-.5215.0723,1.4257,1.4257,0,0,0-.4385.21.9961.9961,0,0,0-.42.8477v4.27H91.8887V48.582q0-1.5872-1.2481-1.5874a1.8564,1.8564,0,0,0-.5156.0723,1.4015,1.4015,0,0,0-.4434.21,1.0827,1.0827,0,0,0-.3125.3487.99.99,0,0,0-.12.499v4.27Z"/><path class="cls-2" d="M101.0449,52.5386a2.8651,2.8651,0,0,1-1.1582-.2281,2.507,2.507,0,0,1-.8945-.6538A3.0049,3.0049,0,0,1,98.417,50.63a4.5272,4.5272,0,0,1,0-2.688,3.0086,3.0086,0,0,1,.5752-1.0259,2.5082,2.5082,0,0,1,.8945-.6538,3.0557,3.0557,0,0,1,2.3164,0,2.505,2.505,0,0,1,.8936.6538,3.0138,3.0138,0,0,1,.5762,1.0259,4.5272,4.5272,0,0,1,0,2.688,3.01,3.01,0,0,1-.5762,1.0263,2.5038,2.5038,0,0,1-.8936.6538A2.8644,2.8644,0,0,1,101.0449,52.5386Zm0-.96a1.604,1.604,0,0,0,1.1875-.456,1.8556,1.8556,0,0,0,.4571-1.3682v-.936a1.8549,1.8549,0,0,0-.4571-1.3677,1.7739,1.7739,0,0,0-2.375,0,1.8549,1.8549,0,0,0-.457,1.3677v.936a1.8555,1.8555,0,0,0,.457,1.3682A1.6026,1.6026,0,0,0,101.0449,51.5786Z"/><path class="cls-2" d="M105.4,52.3945V46.1787h1.1162v1.188h.06a1.76,1.76,0,0,1,.2168-.4443,1.5144,1.5144,0,0,1,.3593-.378,1.8727,1.8727,0,0,1,.51-.2636,2.029,2.029,0,0,1,.666-.1021h.3731v1.1157h-.5528a2.1786,2.1786,0,0,0-1.206.2823.8515.8515,0,0,0-.4258.7378v4.08Z"/><path class="cls-2" d="M112.2168,52.5386a2.8338,2.8338,0,0,1-1.17-.2339,2.5473,2.5473,0,0,1-.8887-.6543,2.9325,2.9325,0,0,1-.5635-1.02,4.6346,4.6346,0,0,1,0-2.6817,2.931,2.931,0,0,1,.5635-1.0263,2.5448,2.5448,0,0,1,.8887-.6538,2.8242,2.8242,0,0,1,1.17-.2339,2.7591,2.7591,0,0,1,1.1582.2329,2.4561,2.4561,0,0,1,.8574.64,2.7659,2.7659,0,0,1,.5283.9688,3.9284,3.9284,0,0,1,.1807,1.2075V49.55h-4.3809v.2524a1.8161,1.8161,0,0,0,.4571,1.2779,1.6649,1.6649,0,0,0,1.2949.498,1.85,1.85,0,0,0,1.0078-.2641,1.8947,1.8947,0,0,0,.6729-.7442l.72.6162a2.4133,2.4133,0,0,1-.9727.9839A3.0337,3.0337,0,0,1,112.2168,52.5386Zm0-5.604a1.6731,1.6731,0,0,0-.666.1313,1.5665,1.5665,0,0,0-.8692.918,1.9957,1.9957,0,0,0-.1211.7031v.0835h3.1924v-.1191a1.8153,1.8153,0,0,0-.414-1.2456A1.4176,1.4176,0,0,0,112.2168,46.9346Z"/><path class="cls-2" d="M120.82,52.3945a1.1494,1.1494,0,0,1-.876-.3174,1.1932,1.1932,0,0,1-.3-.8559V47.1387h-.9961v-.96h.5528a.568.568,0,0,0,.4316-.1323.6546.6546,0,0,0,.1192-.4439v-1.14h1.0087v1.7163h1.3311v.96h-1.3311v4.2959h1.2354v.96Z"/><path class="cls-2" d="M123.58,43.5146h1.1172V47.187h.0595a2.0294,2.0294,0,0,1,.63-.8315,1.7859,1.7859,0,0,1,1.1221-.3208,1.897,1.897,0,0,1,1.5058.624,2.5921,2.5921,0,0,1,.5459,1.7637v3.9721h-1.1152V48.582q0-1.5872-1.3086-1.5874a1.9687,1.9687,0,0,0-.5342.0723,1.5723,1.5723,0,0,0-.4619.21,1.0341,1.0341,0,0,0-.3242.3487.989.989,0,0,0-.1191.499v4.27H123.58Z"/><path class="cls-2" d="M134.9805,52.3945a.9856.9856,0,0,1-.7735-.2881,1.3483,1.3483,0,0,1-.3183-.7441h-.0606a1.5972,1.5972,0,0,1-.66.8765,2.0676,2.0676,0,0,1-1.1387.3,2.1486,2.1486,0,0,1-1.5127-.4981,1.76,1.76,0,0,1-.54-1.3618,1.59,1.59,0,0,1,.6543-1.374,3.4134,3.4134,0,0,1,1.998-.4741h1.1758v-.564a1.3008,1.3008,0,0,0-.3359-.96,1.4249,1.4249,0,0,0-1.044-.3359,1.6113,1.6113,0,0,0-.918.2456,2.0324,2.0324,0,0,0-.6064.6421l-.6719-.6118a2.363,2.363,0,0,1,.834-.8579,2.6117,2.6117,0,0,1,1.4219-.354,2.65,2.65,0,0,1,1.8008.5566,1.9824,1.9824,0,0,1,.6357,1.5747v3.2686h.6963v.96Zm-2.6993-.7558a1.872,1.872,0,0,0,1.0918-.3.9037.9037,0,0,0,.4317-.7681v-.96h-1.1875a2.1346,2.1346,0,0,0-1.1231.228.7392.7392,0,0,0-.3535.66v.24a.7858.7858,0,0,0,.3067.6655A1.337,1.337,0,0,0,132.2812,51.6387Z"/><path class="cls-2" d="M136.9482,52.3945V46.1787h1.1163V47.187h.06a2.0272,2.0272,0,0,1,.6289-.8315,1.789,1.789,0,0,1,1.1231-.3208,1.9,1.9,0,0,1,1.5058.624,2.597,2.597,0,0,1,.5449,1.7637v3.9721h-1.1152V48.582q0-1.5872-1.3086-1.5874a1.9615,1.9615,0,0,0-.5332.0723,1.577,1.577,0,0,0-.4629.21,1.0311,1.0311,0,0,0-.3232.3487.9892.9892,0,0,0-.12.499v4.27Z"/><path class="cls-2" d="M149.0449,52.5386a2.8617,2.8617,0,0,1-1.1582-.2281,2.507,2.507,0,0,1-.8945-.6538,3.0233,3.0233,0,0,1-.5762-1.0263,4.5485,4.5485,0,0,1,0-2.688,3.0271,3.0271,0,0,1,.5762-1.0259,2.5082,2.5082,0,0,1,.8945-.6538,3.0532,3.0532,0,0,1,2.3154,0,2.4954,2.4954,0,0,1,.8936.6538,3.0121,3.0121,0,0,1,.5762,1.0259,4.5061,4.5061,0,0,1,0,2.688,3.0083,3.0083,0,0,1-.5762,1.0263,2.4942,2.4942,0,0,1-.8936.6538A2.86,2.86,0,0,1,149.0449,52.5386Zm0-.96a1.6072,1.6072,0,0,0,1.1875-.456,1.8594,1.8594,0,0,0,.4561-1.3682v-.936a1.8588,1.8588,0,0,0-.4561-1.3677,1.7752,1.7752,0,0,0-2.376,0,1.8588,1.8588,0,0,0-.456,1.3677v.936a1.8594,1.8594,0,0,0,.456,1.3682A1.6065,1.6065,0,0,0,149.0449,51.5786Z"/><path class="cls-2" d="M153.4,52.3945V46.1787h1.1152V47.187h.0606a2.0285,2.0285,0,0,1,.63-.8315,1.7856,1.7856,0,0,1,1.122-.3208,1.8972,1.8972,0,0,1,1.5059.624,2.5972,2.5972,0,0,1,.5459,1.7637v3.9721h-1.1162V48.582q0-1.5872-1.3076-1.5874a1.9634,1.9634,0,0,0-.5342.0723,1.5594,1.5594,0,0,0-.4619.21,1.03,1.03,0,0,0-.3233.3487.99.99,0,0,0-.1211.499v4.27Z"/><path class="cls-2" d="M162.6523,52.5386a2.8341,2.8341,0,0,1-1.17-.2339,2.5387,2.5387,0,0,1-.8886-.6543,2.9326,2.9326,0,0,1-.5645-1.02,4.6548,4.6548,0,0,1,0-2.6817,2.9311,2.9311,0,0,1,.5645-1.0263,2.5362,2.5362,0,0,1,.8886-.6538,2.8246,2.8246,0,0,1,1.17-.2339,2.7621,2.7621,0,0,1,1.1582.2329,2.4657,2.4657,0,0,1,.8575.64,2.7481,2.7481,0,0,1,.5273.9688,3.9015,3.9015,0,0,1,.1807,1.2075V49.55h-4.38v.2524a1.82,1.82,0,0,0,.456,1.2779,1.6674,1.6674,0,0,0,1.2959.498,1.8529,1.8529,0,0,0,1.0079-.2641,1.8922,1.8922,0,0,0,.6718-.7442l.7207.6162a2.4259,2.4259,0,0,1-.9726.9839A3.0344,3.0344,0,0,1,162.6523,52.5386Zm0-5.604a1.67,1.67,0,0,0-.666.1313,1.58,1.58,0,0,0-.5283.3633,1.5974,1.5974,0,0,0-.3418.5547,1.9933,1.9933,0,0,0-.12.7031v.0835h3.1914v-.1191a1.8149,1.8149,0,0,0-.4141-1.2456A1.4155,1.4155,0,0,0,162.6523,46.9346Z"/><path class="cls-2" d="M171.6406,52.5386a3.012,3.012,0,0,1-1.459-.3242,3.293,3.293,0,0,1-1.0254-.876l.7559-.648a2.5742,2.5742,0,0,0,.7861.6841,2.0737,2.0737,0,0,0,1.0137.24,1.4508,1.4508,0,0,0,.9121-.246.8958.8958,0,0,0,.1026-1.254,1.33,1.33,0,0,0-.7871-.312l-.5274-.0839a4.0585,4.0585,0,0,1-.8164-.1924,2.0962,2.0962,0,0,1-.6357-.3477,1.536,1.536,0,0,1-.4141-.5283,1.694,1.694,0,0,1-.1494-.7437,1.8607,1.8607,0,0,1,.168-.81,1.6031,1.6031,0,0,1,.4677-.5884,2.1078,2.1078,0,0,1,.7139-.354,3.2578,3.2578,0,0,1,.9062-.12,2.6929,2.6929,0,0,1,2.2442.9961l-.709.6718a1.9976,1.9976,0,0,0-.6172-.5219,1.9015,1.9015,0,0,0-.9541-.2222,1.3,1.3,0,0,0-.8584.24.7942.7942,0,0,0-.2812.6358.6982.6982,0,0,0,.27.6118,1.9226,1.9226,0,0,0,.81.2764l.5274.0839a2.6547,2.6547,0,0,1,1.4824.6,1.5617,1.5617,0,0,1,.4492,1.1636,1.77,1.77,0,0,1-.6357,1.44A2.6409,2.6409,0,0,1,171.6406,52.5386Z"/><path class="cls-2" d="M177.9883,52.5386a2.8335,2.8335,0,0,1-1.17-.2339,2.5382,2.5382,0,0,1-.8887-.6543,2.9326,2.9326,0,0,1-.5645-1.02,4.6571,4.6571,0,0,1,0-2.6817,2.9311,2.9311,0,0,1,.5645-1.0263,2.5357,2.5357,0,0,1,.8887-.6538,2.8239,2.8239,0,0,1,1.17-.2339,2.7624,2.7624,0,0,1,1.1582.2329,2.4653,2.4653,0,0,1,.8574.64,2.7481,2.7481,0,0,1,.5273.9688,3.9015,3.9015,0,0,1,.1807,1.2075V49.55h-4.38v.2524a1.82,1.82,0,0,0,.4561,1.2779,1.6671,1.6671,0,0,0,1.2959.498,1.8525,1.8525,0,0,0,1.0078-.2641,1.8925,1.8925,0,0,0,.6719-.7442l.7207.6162a2.4256,2.4256,0,0,1-.9727.9839A3.0337,3.0337,0,0,1,177.9883,52.5386Zm0-5.604a1.6692,1.6692,0,0,0-.666.1313,1.5808,1.5808,0,0,0-.5284.3633,1.5989,1.5989,0,0,0-.3418.5547,1.9956,1.9956,0,0,0-.12.7031v.0835h3.1914v-.1191a1.8153,1.8153,0,0,0-.414-1.2456A1.4155,1.4155,0,0,0,177.9883,46.9346Z"/><path class="cls-2" d="M183.76,52.3945a1.1518,1.1518,0,0,1-.877-.3174,1.197,1.197,0,0,1-.2988-.8559V47.1387h-.9961v-.96h.5517a.5666.5666,0,0,0,.4317-.1323.6543.6543,0,0,0,.12-.4439v-1.14h1.0078v1.7163h1.332v.96h-1.332v4.2959h1.2363v.96Z"/><path class="cls-2" d="M191.7393,52.5386a2.8648,2.8648,0,0,1-1.1582-.2281,2.5029,2.5029,0,0,1-.8936-.6538,3.01,3.01,0,0,1-.5762-1.0263,4.5272,4.5272,0,0,1,0-2.688,3.0138,3.0138,0,0,1,.5762-1.0259,2.5041,2.5041,0,0,1,.8936-.6538,3.0532,3.0532,0,0,1,2.3154,0,2.5,2.5,0,0,1,.8945.6538,3.0271,3.0271,0,0,1,.5762,1.0259,4.5272,4.5272,0,0,1,0,2.688,3.0233,3.0233,0,0,1-.5762,1.0263,2.4983,2.4983,0,0,1-.8945.6538A2.86,2.86,0,0,1,191.7393,52.5386Zm0-.96a1.6093,1.6093,0,0,0,1.1884-.456,1.8629,1.8629,0,0,0,.4551-1.3682v-.936a1.8623,1.8623,0,0,0-.4551-1.3677,1.7764,1.7764,0,0,0-2.3769,0,1.8585,1.8585,0,0,0-.4551,1.3677v.936a1.8592,1.8592,0,0,0,.4551,1.3682A1.6079,1.6079,0,0,0,191.7393,51.5786Z"/><path class="cls-2" d="M196.3594,47.1387h-.9961v-.96h.9961V45.0264a1.6119,1.6119,0,0,1,.36-1.0977,1.3683,1.3683,0,0,1,1.0918-.4141h.9717v.96h-1.3076v1.7041h1.3076v.96h-1.3076v5.2558h-1.1162Z"/><path class="cls-2" d="M48.5332,66.9385a2.912,2.912,0,0,1-1.1875-.2281,2.4259,2.4259,0,0,1-.8769-.6479,2.8243,2.8243,0,0,1-.545-1.0259,4.5581,4.5581,0,0,1-.1865-1.35,4.5,4.5,0,0,1,.1865-1.3442,2.8938,2.8938,0,0,1,.545-1.0259,2.4035,2.4035,0,0,1,.8769-.6538,2.912,2.912,0,0,1,1.1875-.228,2.5415,2.5415,0,0,1,1.5.4077,2.4131,2.4131,0,0,1,.8516,1.08l-.9239.456a1.4322,1.4322,0,0,0-.5214-.72,1.5119,1.5119,0,0,0-.9063-.2637,1.4679,1.4679,0,0,0-1.2061.4917,1.9254,1.9254,0,0,0-.4013,1.26v1.08a1.9226,1.9226,0,0,0,.4013,1.26,1.4664,1.4664,0,0,0,1.2061.4922,1.6,1.6,0,0,0,.96-.2759,1.99,1.99,0,0,0,.624-.78l.8164.5039a2.4506,2.4506,0,0,1-.9,1.11A2.6421,2.6421,0,0,1,48.5332,66.9385Z"/><path class="cls-2" d="M52.2412,66.7944V60.5786h1.1162v1.188h.0606a1.7185,1.7185,0,0,1,.2148-.4443,1.554,1.554,0,0,1,.36-.378,1.8342,1.8342,0,0,1,.5107-.2636,2.0247,2.0247,0,0,1,.666-.1021h.3711v1.1157h-.5517a2.1767,2.1767,0,0,0-1.2061.2823.8517.8517,0,0,0-.4258.7378v4.08Z"/><path class="cls-2" d="M59.0566,66.9385a2.8359,2.8359,0,0,1-1.17-.2339,2.5454,2.5454,0,0,1-.8877-.6543,2.9341,2.9341,0,0,1-.5635-1.02,4.6346,4.6346,0,0,1,0-2.6817,2.9326,2.9326,0,0,1,.5635-1.0263,2.5428,2.5428,0,0,1,.8877-.6538,2.8279,2.8279,0,0,1,1.17-.2339,2.7556,2.7556,0,0,1,1.1582.2329,2.459,2.459,0,0,1,.8584.64,2.7822,2.7822,0,0,1,.5284.9688,3.9619,3.9619,0,0,1,.18,1.2075V63.95h-4.38v.2524a1.8154,1.8154,0,0,0,.456,1.2779,1.6687,1.6687,0,0,0,1.2959.498,1.8546,1.8546,0,0,0,1.0078-.2641,1.9022,1.9022,0,0,0,.6729-.7442l.7187.6162a2.405,2.405,0,0,1-.9716.9839A3.0382,3.0382,0,0,1,59.0566,66.9385Zm0-5.604a1.68,1.68,0,0,0-.666.1313,1.5667,1.5667,0,0,0-.8691.918,1.9933,1.9933,0,0,0-.12.7031V63.17h3.1924v-.1191a1.82,1.82,0,0,0-.4141-1.2456A1.42,1.42,0,0,0,59.0566,61.3345Z"/><path class="cls-2" d="M67.2412,65.7861h-.0478a1.6893,1.6893,0,0,1-.6778.8614,2.043,2.043,0,0,1-1.11.291,2.3939,2.3939,0,0,1-1.05-.2222,2.1392,2.1392,0,0,1-.7862-.6479,3.03,3.03,0,0,1-.4922-1.0259,5.5592,5.5592,0,0,1,0-2.7119,3.0372,3.0372,0,0,1,.4922-1.0264,2.1494,2.1494,0,0,1,.7862-.648,2.3952,2.3952,0,0,1,1.05-.2216,2.0422,2.0422,0,0,1,1.11.291,1.6907,1.6907,0,0,1,.6778.8613h.0478V57.9146h1.1162v8.88H67.2412Zm-1.5117.1924a2.0048,2.0048,0,0,0,.5879-.0845,1.4845,1.4845,0,0,0,.4795-.2412,1.2475,1.2475,0,0,0,.3242-.3618.89.89,0,0,0,.12-.4585v-2.292a.89.89,0,0,0-.12-.4585,1.2475,1.2475,0,0,0-.3242-.3618,1.4865,1.4865,0,0,0-.4795-.2412,2.0081,2.0081,0,0,0-.5879-.0845,1.5307,1.5307,0,0,0-1.1943.4825,1.8294,1.8294,0,0,0-.4375,1.2788v1.0615a1.83,1.83,0,0,0,.4375,1.2788A1.5307,1.5307,0,0,0,65.73,65.9785Z"/><path class="cls-2" d="M72.7012,66.9385a2.8327,2.8327,0,0,1-1.17-.2339,2.5387,2.5387,0,0,1-.8886-.6543,2.9326,2.9326,0,0,1-.5645-1.02,4.6571,4.6571,0,0,1,0-2.6817,2.9311,2.9311,0,0,1,.5645-1.0263,2.5362,2.5362,0,0,1,.8886-.6538,2.8247,2.8247,0,0,1,1.17-.2339,2.7624,2.7624,0,0,1,1.1582.2329,2.4653,2.4653,0,0,1,.8574.64,2.7481,2.7481,0,0,1,.5273.9688,3.9015,3.9015,0,0,1,.1807,1.2075V63.95h-4.38v.2524a1.82,1.82,0,0,0,.4561,1.2779,1.6671,1.6671,0,0,0,1.2959.498,1.8525,1.8525,0,0,0,1.0078-.2641,1.8925,1.8925,0,0,0,.6719-.7442l.7207.6162a2.4262,2.4262,0,0,1-.9727.9839A3.0337,3.0337,0,0,1,72.7012,66.9385Zm0-5.604a1.6692,1.6692,0,0,0-.666.1313,1.5808,1.5808,0,0,0-.5284.3633,1.5989,1.5989,0,0,0-.3418.5547,1.9956,1.9956,0,0,0-.12.7031V63.17h3.1914v-.1191a1.8153,1.8153,0,0,0-.414-1.2456A1.4155,1.4155,0,0,0,72.7012,61.3345Z"/><path class="cls-2" d="M76.9492,66.7944V60.5786h1.1153v1.0083h.0605a2.0285,2.0285,0,0,1,.63-.8315,1.7857,1.7857,0,0,1,1.1221-.3208,1.897,1.897,0,0,1,1.5058.624,2.5972,2.5972,0,0,1,.5459,1.7637v3.9721H80.8125V62.9819q0-1.5872-1.3076-1.5874a1.9634,1.9634,0,0,0-.5342.0723,1.5594,1.5594,0,0,0-.4619.21,1.03,1.03,0,0,0-.3233.3487.9905.9905,0,0,0-.121.499v4.2695Z"/><path class="cls-2" d="M85.3486,66.7944a1.15,1.15,0,0,1-.8759-.3173,1.1975,1.1975,0,0,1-.3-.856V61.5386h-.9961v-.96h.5517a.5668.5668,0,0,0,.4317-.1323.6546.6546,0,0,0,.121-.4439v-1.14h1.0079v1.7163h1.332v.96h-1.332v4.2959h1.2363v.96Z"/><path class="cls-2" d="M88.6729,59.2822a.6808.6808,0,0,1-.51-.1679.6105.6105,0,0,1-.1621-.4439v-.168a.61.61,0,0,1,.1621-.4438.8589.8589,0,0,1,1.02,0,.6144.6144,0,0,1,.1621.4438v.168a.6147.6147,0,0,1-.1621.4439A.6832.6832,0,0,1,88.6729,59.2822Zm-.5635,1.2964h1.1152v6.2158H88.1094Z"/><path class="cls-2" d="M95.7168,66.7944a.9877.9877,0,0,1-.7744-.2881,1.34,1.34,0,0,1-.3174-.7441h-.0605a1.6024,1.6024,0,0,1-.66.8765,2.0709,2.0709,0,0,1-1.14.3A2.15,2.15,0,0,1,91.252,66.44a1.7628,1.7628,0,0,1-.5391-1.3618,1.5882,1.5882,0,0,1,.6543-1.374,3.4123,3.4123,0,0,1,1.9971-.4741H94.541v-.564a1.3049,1.3049,0,0,0-.3359-.96,1.4257,1.4257,0,0,0-1.0449-.3359,1.6155,1.6155,0,0,0-.918.2456,2.03,2.03,0,0,0-.6055.6421l-.6719-.6118a2.3557,2.3557,0,0,1,.834-.8579,2.6094,2.6094,0,0,1,1.4219-.354,2.6488,2.6488,0,0,1,1.8.5566,1.9824,1.9824,0,0,1,.6357,1.5747v3.2686h.6963v.96Zm-2.7-.7558a1.8681,1.8681,0,0,0,1.0918-.3.9026.9026,0,0,0,.4326-.7681v-.96H93.3525a2.13,2.13,0,0,0-1.122.228.737.737,0,0,0-.3535.66v.24a.7876.7876,0,0,0,.3056.6655A1.3393,1.3393,0,0,0,93.0166,66.0386Z"/><path class="cls-2" d="M98.8477,66.7944a1.1381,1.1381,0,0,1-.8692-.312,1.1572,1.1572,0,0,1-.2949-.8281v-7.74h1.1172v7.92h.8867v.96Z"/><path class="cls-2" d="M102.9287,66.9385a3.0076,3.0076,0,0,1-1.458-.3242,3.2807,3.2807,0,0,1-1.0254-.876l.7559-.648a2.56,2.56,0,0,0,.7851.6841,2.0764,2.0764,0,0,0,1.0137.24,1.4469,1.4469,0,0,0,.9121-.246.8932.8932,0,0,0,.1025-1.254,1.3233,1.3233,0,0,0-.7861-.312l-.5273-.0839a4.0407,4.0407,0,0,1-.8164-.1924,2.1024,2.1024,0,0,1-.6368-.3477,1.5369,1.5369,0,0,1-.414-.5283,1.7082,1.7082,0,0,1-.1494-.7437,1.8621,1.8621,0,0,1,.1679-.81,1.6241,1.6241,0,0,1,.4678-.5884,2.1037,2.1037,0,0,1,.7149-.354,3.25,3.25,0,0,1,.9052-.12,2.9446,2.9446,0,0,1,1.32.2636,2.9091,2.9091,0,0,1,.9239.7325l-.708.6718a2.0032,2.0032,0,0,0-.6182-.5219,1.8991,1.8991,0,0,0-.9541-.2222,1.2967,1.2967,0,0,0-.8574.24.792.792,0,0,0-.2823.6358.6963.6963,0,0,0,.2706.6118,1.917,1.917,0,0,0,.8095.2764l.5283.0839a2.6483,2.6483,0,0,1,1.4815.6,1.5624,1.5624,0,0,1,.45,1.1636,1.7706,1.7706,0,0,1-.6367,1.44A2.6411,2.6411,0,0,1,102.9287,66.9385Z"/><path class="cls-2" d="M111.2559,66.7944a1.15,1.15,0,0,1-.876-.3173,1.1936,1.1936,0,0,1-.3-.856V61.5386h-.9961v-.96h.5527a.5681.5681,0,0,0,.4317-.1323.6552.6552,0,0,0,.1191-.4439v-1.14h1.0088v1.7163h1.331v.96h-1.331v4.2959h1.2353v.96Z"/><path class="cls-2" d="M116.3564,66.9385a2.8651,2.8651,0,0,1-1.1582-.2281,2.5034,2.5034,0,0,1-.8935-.6538,3.0083,3.0083,0,0,1-.5762-1.0263,4.5272,4.5272,0,0,1,0-2.688,3.0121,3.0121,0,0,1,.5762-1.0259,2.5046,2.5046,0,0,1,.8935-.6538,3.0534,3.0534,0,0,1,2.3155,0,2.5,2.5,0,0,1,.8945.6538,3.0288,3.0288,0,0,1,.5762,1.0259,4.5272,4.5272,0,0,1,0,2.688,3.025,3.025,0,0,1-.5762,1.0263,2.4983,2.4983,0,0,1-.8945.6538A2.86,2.86,0,0,1,116.3564,66.9385Zm0-.96a1.6093,1.6093,0,0,0,1.1885-.456A1.8629,1.8629,0,0,0,118,64.1543v-.936a1.8625,1.8625,0,0,0-.4551-1.3677,1.7764,1.7764,0,0,0-2.3769,0,1.8587,1.8587,0,0,0-.4551,1.3677v.936a1.8592,1.8592,0,0,0,.4551,1.3682A1.6079,1.6079,0,0,0,116.3564,65.9785Z"/><path class="cls-2" d="M125.8965,66.9385a2.9136,2.9136,0,0,1-1.1885-.2281,2.4235,2.4235,0,0,1-.876-.6479,2.8272,2.8272,0,0,1-.5459-1.0259,4.591,4.591,0,0,1-.1865-1.35,4.5319,4.5319,0,0,1,.1865-1.3442,2.8969,2.8969,0,0,1,.5459-1.0259,2.4012,2.4012,0,0,1,.876-.6538,2.9136,2.9136,0,0,1,1.1885-.228,2.5458,2.5458,0,0,1,1.5.4077,2.4191,2.4191,0,0,1,.8515,1.08l-.9238.456a1.4376,1.4376,0,0,0-.5215-.72,1.5114,1.5114,0,0,0-.9062-.2637,1.4684,1.4684,0,0,0-1.207.4917,1.93,1.93,0,0,0-.4014,1.26v1.08a1.9276,1.9276,0,0,0,.4014,1.26,1.4669,1.4669,0,0,0,1.207.4922,1.5991,1.5991,0,0,0,.959-.2759,1.9924,1.9924,0,0,0,.625-.78l.8154.5039a2.455,2.455,0,0,1-.8994,1.11A2.6421,2.6421,0,0,1,125.8965,66.9385Z"/><path class="cls-2" d="M131.92,66.9385a2.8651,2.8651,0,0,1-1.1582-.2281,2.507,2.507,0,0,1-.8945-.6538,3.0049,3.0049,0,0,1-.5752-1.0263,4.5272,4.5272,0,0,1,0-2.688,3.0086,3.0086,0,0,1,.5752-1.0259,2.5082,2.5082,0,0,1,.8945-.6538,3.0557,3.0557,0,0,1,2.3164,0,2.505,2.505,0,0,1,.8936.6538,3.0138,3.0138,0,0,1,.5762,1.0259,4.5272,4.5272,0,0,1,0,2.688,3.01,3.01,0,0,1-.5762,1.0263,2.5038,2.5038,0,0,1-.8936.6538A2.8644,2.8644,0,0,1,131.92,66.9385Zm0-.96a1.604,1.604,0,0,0,1.1875-.456,1.8556,1.8556,0,0,0,.4571-1.3682v-.936a1.8551,1.8551,0,0,0-.4571-1.3677,1.7739,1.7739,0,0,0-2.375,0,1.855,1.855,0,0,0-.457,1.3677v.936a1.8555,1.8555,0,0,0,.457,1.3682A1.6026,1.6026,0,0,0,131.92,65.9785Z"/><path class="cls-2" d="M136.2754,66.7944V60.5786h1.1172v1.0083h.06a2.1179,2.1179,0,0,1,.6182-.814,1.5832,1.5832,0,0,1,1.0371-.3383,2.213,2.213,0,0,1,1.1348.2973,1.7476,1.7476,0,0,1,.75.9512h.0234a1.8716,1.8716,0,0,1,.6426-.874,1.9645,1.9645,0,0,1,1.2539-.3745,1.815,1.815,0,0,1,1.4639.624,2.65,2.65,0,0,1,.5283,1.7637v3.9721h-1.1162V62.9819a1.9384,1.9384,0,0,0-.3057-1.19,1.1314,1.1314,0,0,0-.9551-.397,1.8371,1.8371,0,0,0-.5214.0723,1.4093,1.4093,0,0,0-.4375.21.99.99,0,0,0-.42.8477v4.2695h-1.1162V62.9819q0-1.5872-1.248-1.5874a1.8577,1.8577,0,0,0-.5166.0723,1.4015,1.4015,0,0,0-.4434.21,1.0827,1.0827,0,0,0-.3125.3487.989.989,0,0,0-.1191.499v4.2695Z"/><path class="cls-2" d="M146.8,60.5786h1.1162v1.0083h.0479a1.6815,1.6815,0,0,1,.6787-.8613,2.0364,2.0364,0,0,1,1.1094-.291,2.3955,2.3955,0,0,1,1.05.2216,2.1564,2.1564,0,0,1,.7861.648,3.0353,3.0353,0,0,1,.4922,1.0264,5.5592,5.5592,0,0,1,0,2.7119,3.0281,3.0281,0,0,1-.4922,1.0259,2.1462,2.1462,0,0,1-.7861.6479,2.3943,2.3943,0,0,1-1.05.2222,2.0373,2.0373,0,0,1-1.1094-.291,1.68,1.68,0,0,1-.6787-.8614h-.0479v3.4082H146.8Zm2.6279,5.4a1.5325,1.5325,0,0,0,1.1944-.4824,1.83,1.83,0,0,0,.4384-1.2788V63.1558a1.83,1.83,0,0,0-.4384-1.2788,1.5325,1.5325,0,0,0-1.1944-.4825,2.0032,2.0032,0,0,0-.5879.0845,1.511,1.511,0,0,0-.48.2412,1.2427,1.2427,0,0,0-.3233.3618.8914.8914,0,0,0-.12.4585v2.292a.8909.8909,0,0,0,.12.4585,1.2427,1.2427,0,0,0,.3233.3618,1.5089,1.5089,0,0,0,.48.2412A2,2,0,0,0,149.4277,65.9785Z"/><path class="cls-2" d="M154.9844,66.7944a1.1426,1.1426,0,0,1-.8711-.312,1.16,1.16,0,0,1-.293-.8281v-7.74h1.1152v7.92h.8887v.96Z"/><path class="cls-2" d="M159.5312,66.9385a2.8359,2.8359,0,0,1-1.17-.2339,2.5454,2.5454,0,0,1-.8877-.6543,2.9323,2.9323,0,0,1-.5634-1.02,4.6324,4.6324,0,0,1,0-2.6817,2.9309,2.9309,0,0,1,.5634-1.0263,2.5428,2.5428,0,0,1,.8877-.6538,2.8279,2.8279,0,0,1,1.17-.2339,2.7564,2.7564,0,0,1,1.1583.2329,2.4608,2.4608,0,0,1,.8584.64,2.782,2.782,0,0,1,.5283.9688,3.9619,3.9619,0,0,1,.18,1.2075V63.95h-4.38v.2524a1.8154,1.8154,0,0,0,.456,1.2779,1.6687,1.6687,0,0,0,1.2959.498,1.8546,1.8546,0,0,0,1.0078-.2641,1.9022,1.9022,0,0,0,.6729-.7442l.7187.6162a2.405,2.405,0,0,1-.9716.9839A3.0382,3.0382,0,0,1,159.5312,66.9385Zm0-5.604a1.68,1.68,0,0,0-.666.1313,1.5667,1.5667,0,0,0-.8691.918,1.9933,1.9933,0,0,0-.12.7031V63.17h3.1924v-.1191a1.82,1.82,0,0,0-.4141-1.2456A1.42,1.42,0,0,0,159.5312,61.3345Z"/><path class="cls-2" d="M165.3037,66.7944a1.15,1.15,0,0,1-.876-.3173,1.198,1.198,0,0,1-.3-.856V61.5386h-.9961v-.96h.5518a.5664.5664,0,0,0,.4316-.1323.654.654,0,0,0,.1211-.4439v-1.14h1.0078v1.7163h1.3321v.96h-1.3321v4.2959h1.2364v.96Z"/><path class="cls-2" d="M170.3916,66.9385a2.8355,2.8355,0,0,1-1.17-.2339,2.5344,2.5344,0,0,1-.8877-.6543,2.9326,2.9326,0,0,1-.5645-1.02,4.6571,4.6571,0,0,1,0-2.6817,2.9311,2.9311,0,0,1,.5645-1.0263,2.5319,2.5319,0,0,1,.8877-.6538,2.8275,2.8275,0,0,1,1.17-.2339,2.7591,2.7591,0,0,1,1.1582.2329,2.4691,2.4691,0,0,1,.8584.64,2.7641,2.7641,0,0,1,.5273.9688,3.9284,3.9284,0,0,1,.18,1.2075V63.95h-4.3789v.2524a1.8193,1.8193,0,0,0,.4551,1.2779,1.6708,1.6708,0,0,0,1.2969.498,1.8573,1.8573,0,0,0,1.0078-.2641,1.9,1.9,0,0,0,.6719-.7442l.72.6162a2.4169,2.4169,0,0,1-.9717.9839A3.0376,3.0376,0,0,1,170.3916,66.9385Zm0-5.604a1.6762,1.6762,0,0,0-.666.1313,1.59,1.59,0,0,0-.5283.3633,1.6109,1.6109,0,0,0-.3418.5547,1.9932,1.9932,0,0,0-.1192.7031V63.17h3.1914v-.1191a1.82,1.82,0,0,0-.414-1.2456A1.4176,1.4176,0,0,0,170.3916,61.3345Z"/><path class="cls-2" d="M181.9951,66.7944a.9878.9878,0,0,1-.7744-.2881,1.3475,1.3475,0,0,1-.3174-.7441h-.06a1.6117,1.6117,0,0,1-.66.8765,2.0742,2.0742,0,0,1-1.1406.3,2.146,2.146,0,0,1-1.5118-.4981,1.7638,1.7638,0,0,1-.54-1.3618,1.5906,1.5906,0,0,1,.6543-1.374,3.4125,3.4125,0,0,1,1.9971-.4741h1.1767v-.564a1.3008,1.3008,0,0,0-.3359-.96,1.4231,1.4231,0,0,0-1.0439-.3359,1.6133,1.6133,0,0,0-.918.2456,2.0187,2.0187,0,0,0-.6055.6421l-.6728-.6118a2.3708,2.3708,0,0,1,.8339-.8579,2.6153,2.6153,0,0,1,1.4229-.354,2.6443,2.6443,0,0,1,1.7988.5566,1.9827,1.9827,0,0,1,.6367,1.5747v3.2686h.6954v.96Zm-2.7-.7558a1.8657,1.8657,0,0,0,1.0918-.3.9.9,0,0,0,.4326-.7681v-.96h-1.1884a2.126,2.126,0,0,0-1.1211.228.7379.7379,0,0,0-.3545.66v.24a.79.79,0,0,0,.3056.6655A1.3433,1.3433,0,0,0,179.2949,66.0386Z"/><path class="cls-2" d="M188.7031,66.9385a3.0052,3.0052,0,0,1-1.458-.3242,3.3052,3.3052,0,0,1-1.0263-.876l.7558-.648a2.5671,2.5671,0,0,0,.7871.6841,2.0682,2.0682,0,0,0,1.0137.24,1.4527,1.4527,0,0,0,.9121-.246.8943.8943,0,0,0,.1016-1.254,1.33,1.33,0,0,0-.7862-.312l-.5283-.0839a4.0468,4.0468,0,0,1-.8154-.1924,2.0967,2.0967,0,0,1-.6358-.3477,1.5251,1.5251,0,0,1-.414-.5283,1.6938,1.6938,0,0,1-.15-.7437,1.8751,1.8751,0,0,1,.168-.81,1.5955,1.5955,0,0,1,.4687-.5884,2.0936,2.0936,0,0,1,.7129-.354,3.2629,3.2629,0,0,1,.9062-.12,2.9424,2.9424,0,0,1,1.32.2636,2.91,2.91,0,0,1,.9238.7325l-.708.6718a2.002,2.002,0,0,0-.6182-.5219,1.9,1.9,0,0,0-.9531-.2222,1.3027,1.3027,0,0,0-.8594.24.7942.7942,0,0,0-.2812.6358.6981.6981,0,0,0,.27.6118,1.933,1.933,0,0,0,.81.2764l.5274.0839a2.6483,2.6483,0,0,1,1.4824.6,1.5586,1.5586,0,0,1,.45,1.1636,1.7728,1.7728,0,0,1-.6357,1.44A2.6421,2.6421,0,0,1,188.7031,66.9385Z"/><path class="cls-2" d="M195.0273,66.9385a2.9127,2.9127,0,0,1-1.1884-.2281,2.4218,2.4218,0,0,1-.876-.6479,2.8257,2.8257,0,0,1-.5459-1.0259,4.591,4.591,0,0,1-.1865-1.35,4.5319,4.5319,0,0,1,.1865-1.3442,2.8953,2.8953,0,0,1,.5459-1.0259,2.4,2.4,0,0,1,.876-.6538,2.9127,2.9127,0,0,1,1.1884-.228,2.5453,2.5453,0,0,1,1.5.4077,2.42,2.42,0,0,1,.8516,1.08l-.9238.456a1.4376,1.4376,0,0,0-.5215-.72,1.5117,1.5117,0,0,0-.9063-.2637,1.4685,1.4685,0,0,0-1.207.4917,1.93,1.93,0,0,0-.4014,1.26v1.08a1.9276,1.9276,0,0,0,.4014,1.26,1.467,1.467,0,0,0,1.207.4922,1.5989,1.5989,0,0,0,.959-.2759,1.9907,1.9907,0,0,0,.625-.78l.8155.5039a2.4546,2.4546,0,0,1-.8995,1.11A2.6416,2.6416,0,0,1,195.0273,66.9385Z"/><path class="cls-2" d="M203.2588,66.7944a.9875.9875,0,0,1-.7744-.2881,1.3468,1.3468,0,0,1-.3174-.7441h-.06a1.6111,1.6111,0,0,1-.66.8765,2.0743,2.0743,0,0,1-1.1407.3,2.1459,2.1459,0,0,1-1.5117-.4981,1.7634,1.7634,0,0,1-.54-1.3618,1.5906,1.5906,0,0,1,.6543-1.374,3.412,3.412,0,0,1,1.997-.4741h1.1768v-.564a1.3008,1.3008,0,0,0-.3359-.96,1.4233,1.4233,0,0,0-1.044-.3359,1.6132,1.6132,0,0,0-.9179.2456,2.0187,2.0187,0,0,0-.6055.6421l-.6729-.6118a2.3719,2.3719,0,0,1,.834-.8579,2.6153,2.6153,0,0,1,1.4229-.354,2.6443,2.6443,0,0,1,1.7988.5566,1.983,1.983,0,0,1,.6367,1.5747v3.2686h.6953v.96Zm-2.7-.7558a1.8659,1.8659,0,0,0,1.0918-.3.9.9,0,0,0,.4326-.7681v-.96h-1.1885a2.1265,2.1265,0,0,0-1.1211.228.7381.7381,0,0,0-.3545.66v.24a.79.79,0,0,0,.3057.6655A1.3431,1.3431,0,0,0,200.5586,66.0386Z"/><path class="cls-2" d="M205.2266,66.7944V60.5786h1.1162v1.0083h.0595a2.0315,2.0315,0,0,1,.6309-.8315,1.7828,1.7828,0,0,1,1.1211-.3208,1.8946,1.8946,0,0,1,1.5059.624,2.5928,2.5928,0,0,1,.5468,1.7637v3.9721h-1.1162V62.9819q0-1.5872-1.3076-1.5874a1.9706,1.9706,0,0,0-.5352.0723,1.5559,1.5559,0,0,0-.4609.21,1.0341,1.0341,0,0,0-.3242.3487.9892.9892,0,0,0-.12.499v4.2695Z"/><path class="cls-2" d="M217.3223,66.9385a2.8678,2.8678,0,0,1-1.1582-.2281,2.5038,2.5038,0,0,1-.8936-.6538,2.9917,2.9917,0,0,1-.5752-1.0263,4.5061,4.5061,0,0,1,0-2.688,2.9954,2.9954,0,0,1,.5752-1.0259,2.505,2.505,0,0,1,.8936-.6538,3.0557,3.0557,0,0,1,2.3164,0,2.5082,2.5082,0,0,1,.8945.6538,3.0288,3.0288,0,0,1,.5762,1.0259,4.5485,4.5485,0,0,1,0,2.688,3.025,3.025,0,0,1-.5762,1.0263,2.507,2.507,0,0,1-.8945.6538A2.8651,2.8651,0,0,1,217.3223,66.9385Zm0-.96a1.6063,1.6063,0,0,0,1.1884-.456,1.859,1.859,0,0,0,.4561-1.3682v-.936a1.8585,1.8585,0,0,0-.4561-1.3677,1.7751,1.7751,0,0,0-2.3759,0,1.8548,1.8548,0,0,0-.4561,1.3677v.936a1.8553,1.8553,0,0,0,.4561,1.3682A1.604,1.604,0,0,0,217.3223,65.9785Z"/><path class="cls-2" d="M221.9424,61.5386h-.9951v-.96h.9951V59.4263a1.6119,1.6119,0,0,1,.36-1.0977,1.3683,1.3683,0,0,1,1.0918-.414h.9727v.96h-1.3086v1.7041h1.3086v.96h-1.3086v5.2558h-1.1162Z"/><path class="cls-2" d="M232.9336,66.7944a.9852.9852,0,0,1-.7734-.2881,1.3548,1.3548,0,0,1-.3184-.7441h-.06a1.6064,1.6064,0,0,1-.66.8765,2.0711,2.0711,0,0,1-1.14.3,2.1442,2.1442,0,0,1-1.5117-.4981,1.7609,1.7609,0,0,1-.541-1.3618,1.5928,1.5928,0,0,1,.6543-1.374,3.4134,3.4134,0,0,1,1.998-.4741h1.1758v-.564a1.2968,1.2968,0,0,0-.3359-.96,1.4223,1.4223,0,0,0-1.043-.3359,1.6093,1.6093,0,0,0-.918.2456,2.0224,2.0224,0,0,0-.6064.6421l-.6729-.6118a2.3792,2.3792,0,0,1,.834-.8579,2.6177,2.6177,0,0,1,1.4229-.354,2.6455,2.6455,0,0,1,1.8.5566,1.983,1.983,0,0,1,.6367,1.5747v3.2686h.6953v.96Zm-2.6992-.7558a1.87,1.87,0,0,0,1.0918-.3.9015.9015,0,0,0,.4316-.7681v-.96H230.57a2.1305,2.1305,0,0,0-1.1221.228.74.74,0,0,0-.3544.66v.24a.7884.7884,0,0,0,.3066.6655A1.3411,1.3411,0,0,0,230.2344,66.0386Z"/><path class="cls-2" d="M50.1172,80.1865h-.0479a1.68,1.68,0,0,1-.6787.8614,2.04,2.04,0,0,1-1.1094.291,2.3929,2.3929,0,0,1-1.05-.2222,2.1462,2.1462,0,0,1-.7861-.6479,3.0281,3.0281,0,0,1-.4922-1.0259,5.5592,5.5592,0,0,1,0-2.7119,3.0353,3.0353,0,0,1,.4922-1.0264,2.1564,2.1564,0,0,1,.7861-.648,2.3927,2.3927,0,0,1,1.05-.2216,2.0388,2.0388,0,0,1,1.1094.291,1.6815,1.6815,0,0,1,.6787.8613h.0479V72.3149h1.1162v8.88H50.1172Zm-1.5117.1924a2.0048,2.0048,0,0,0,.5879-.0845,1.5089,1.5089,0,0,0,.48-.2412,1.272,1.272,0,0,0,.3233-.3618.8909.8909,0,0,0,.12-.4585v-2.292a.8911.8911,0,0,0-.12-.4585,1.272,1.272,0,0,0-.3233-.3618,1.5089,1.5089,0,0,0-.48-.2412,2.0048,2.0048,0,0,0-.5879-.0845,1.5328,1.5328,0,0,0-1.1944.4824,1.83,1.83,0,0,0-.4384,1.2789v1.0615a1.83,1.83,0,0,0,.4384,1.2788A1.5325,1.5325,0,0,0,48.6055,80.3789Z"/><path class="cls-2" d="M55.5771,81.3389a2.8375,2.8375,0,0,1-1.17-.2339,2.5362,2.5362,0,0,1-.8877-.6543,2.934,2.934,0,0,1-.5644-1.02,4.6548,4.6548,0,0,1,0-2.6817,2.9325,2.9325,0,0,1,.5644-1.0263,2.5352,2.5352,0,0,1,.8877-.6539,2.8294,2.8294,0,0,1,1.17-.2338,2.76,2.76,0,0,1,1.1583.2329,2.47,2.47,0,0,1,.8584.64,2.7632,2.7632,0,0,1,.5273.9688,3.9314,3.9314,0,0,1,.18,1.2075v.4663H53.9219v.2524a1.819,1.819,0,0,0,.4551,1.2779,1.6706,1.6706,0,0,0,1.2968.498,1.856,1.856,0,0,0,1.0078-.2642,1.899,1.899,0,0,0,.6719-.7441l.72.6162a2.4172,2.4172,0,0,1-.9716.9839A3.0382,3.0382,0,0,1,55.5771,81.3389Zm0-5.604a1.6766,1.6766,0,0,0-.666.1313,1.59,1.59,0,0,0-.5283.3633,1.6139,1.6139,0,0,0-.3418.5547,1.9932,1.9932,0,0,0-.1191.7031v.0835h3.1914v-.1191a1.82,1.82,0,0,0-.4141-1.2456A1.4176,1.4176,0,0,0,55.5771,75.7349Z"/><path class="cls-2" d="M60.16,75.939H59.165v-.96H60.16V73.8267a1.6119,1.6119,0,0,1,.3613-1.0977,1.3668,1.3668,0,0,1,1.0918-.4141h.9717v.96H61.2773V74.979h3.5635v6.2158H63.7246V75.939H61.2773v5.2558H60.16Zm4.1289-2.2564a.6773.6773,0,0,1-.51-.168.61.61,0,0,1-.1621-.4438v-.168a.61.61,0,0,1,.1621-.4438.8573.8573,0,0,1,1.02,0,.6144.6144,0,0,1,.1621.4438v.168a.6143.6143,0,0,1-.1621.4438A.6772.6772,0,0,1,64.2891,73.6826Z"/><path class="cls-2" d="M66.8086,81.1948V74.979h1.1162v1.0083h.06a2.0313,2.0313,0,0,1,.6308-.8315,1.7828,1.7828,0,0,1,1.1211-.3208,1.8944,1.8944,0,0,1,1.5059.624,2.5929,2.5929,0,0,1,.5469,1.7637v3.9721H70.6729V77.3823q0-1.5871-1.3077-1.5874a1.9666,1.9666,0,0,0-.5351.0723,1.5553,1.5553,0,0,0-.461.21,1.0341,1.0341,0,0,0-.3242.3487.9892.9892,0,0,0-.12.499v4.27Z"/><path class="cls-2" d="M76.0605,81.3389a2.8341,2.8341,0,0,1-1.17-.2339,2.5478,2.5478,0,0,1-.8886-.6543,2.9308,2.9308,0,0,1-.5635-1.02,4.6324,4.6324,0,0,1,0-2.6817,2.9294,2.9294,0,0,1,.5635-1.0263,2.5468,2.5468,0,0,1,.8886-.6539,2.8261,2.8261,0,0,1,1.17-.2338,2.76,2.76,0,0,1,1.1583.2329,2.457,2.457,0,0,1,.8574.64,2.765,2.765,0,0,1,.5283.9688,3.9314,3.9314,0,0,1,.1807,1.2075v.4663H74.4043v.2524a1.8162,1.8162,0,0,0,.457,1.2779,1.6652,1.6652,0,0,0,1.2949.498,1.85,1.85,0,0,0,1.0079-.2642,1.8935,1.8935,0,0,0,.6728-.7441l.72.6162a2.4136,2.4136,0,0,1-.9726.9839A3.0344,3.0344,0,0,1,76.0605,81.3389Zm0-5.604a1.6731,1.6731,0,0,0-.666.1313,1.5667,1.5667,0,0,0-.8691.918,1.9934,1.9934,0,0,0-.1211.7031v.0835h3.1924v-.1191a1.8149,1.8149,0,0,0-.4141-1.2456A1.4176,1.4176,0,0,0,76.0605,75.7349Z"/><path class="cls-2" d="M84.2441,80.1865h-.0468a1.6908,1.6908,0,0,1-.6787.8614,2.0412,2.0412,0,0,1-1.11.291,2.3878,2.3878,0,0,1-1.0488-.2222,2.1493,2.1493,0,0,1-.7871-.6479,3.0639,3.0639,0,0,1-.4922-1.0259,5.556,5.556,0,0,1,0-2.7119,3.0712,3.0712,0,0,1,.4922-1.0264,2.16,2.16,0,0,1,.7871-.648,2.3877,2.3877,0,0,1,1.0488-.2216,2.04,2.04,0,0,1,1.11.291,1.6922,1.6922,0,0,1,.6787.8613h.0468V72.3149h1.1172v8.88H84.2441Zm-1.5117.1924a2,2,0,0,0,.5879-.0845,1.4991,1.4991,0,0,0,.48-.2412,1.262,1.262,0,0,0,.3242-.3618.8892.8892,0,0,0,.1191-.4585v-2.292a.8894.8894,0,0,0-.1191-.4585,1.262,1.262,0,0,0-.3242-.3618,1.4991,1.4991,0,0,0-.48-.2412,2,2,0,0,0-.5879-.0845,1.529,1.529,0,0,0-1.1933.4824,1.8257,1.8257,0,0,0-.4385,1.2789v1.0615a1.8256,1.8256,0,0,0,.4385,1.2788A1.5286,1.5286,0,0,0,82.7324,80.3789Z"/><path class="cls-2" d="M92.0684,81.3389a3.0038,3.0038,0,0,1-1.458-.3243,3.3039,3.3039,0,0,1-1.0264-.8759l.7558-.648a2.5687,2.5687,0,0,0,.7872.6841,2.0681,2.0681,0,0,0,1.0136.24,1.4519,1.4519,0,0,0,.9121-.2461.894.894,0,0,0,.1016-1.2539,1.3292,1.3292,0,0,0-.7861-.312l-.5284-.084a4.0417,4.0417,0,0,1-.8154-.1923,2.1,2.1,0,0,1-.6357-.3477,1.5242,1.5242,0,0,1-.4141-.5283,1.6938,1.6938,0,0,1-.15-.7437,1.8766,1.8766,0,0,1,.168-.81,1.5957,1.5957,0,0,1,.4687-.5884,2.0945,2.0945,0,0,1,.7129-.354,3.2636,3.2636,0,0,1,.9063-.12,2.9422,2.9422,0,0,1,1.32.2636,2.9073,2.9073,0,0,1,.9238.7325l-.708.6718a2.002,2.002,0,0,0-.6182-.5219,1.9,1.9,0,0,0-.9531-.2222,1.3029,1.3029,0,0,0-.8594.24.7942.7942,0,0,0-.2812.6358.6982.6982,0,0,0,.2695.6118,1.9317,1.9317,0,0,0,.8106.2763l.5273.084a2.6483,2.6483,0,0,1,1.4824.6,1.5586,1.5586,0,0,1,.45,1.1636,1.7728,1.7728,0,0,1-.6357,1.44A2.6418,2.6418,0,0,1,92.0684,81.3389Z"/><path class="cls-2" d="M98.3926,81.3389a2.9136,2.9136,0,0,1-1.1885-.2281,2.4235,2.4235,0,0,1-.876-.6479,2.8257,2.8257,0,0,1-.5459-1.0259,4.591,4.591,0,0,1-.1865-1.35,4.5319,4.5319,0,0,1,.1865-1.3442,2.8953,2.8953,0,0,1,.5459-1.0259,2.4,2.4,0,0,1,.876-.6538,2.9136,2.9136,0,0,1,1.1885-.228,2.5458,2.5458,0,0,1,1.5.4077,2.4192,2.4192,0,0,1,.8515,1.08l-.9238.456a1.4376,1.4376,0,0,0-.5215-.72,1.5114,1.5114,0,0,0-.9062-.2637,1.4687,1.4687,0,0,0-1.2071.4917,1.9307,1.9307,0,0,0-.4013,1.26v1.08a1.9281,1.9281,0,0,0,.4013,1.26,1.4675,1.4675,0,0,0,1.2071.4922,1.5991,1.5991,0,0,0,.959-.2759,1.9931,1.9931,0,0,0,.625-.78l.8154.5039a2.4556,2.4556,0,0,1-.8994,1.11A2.6421,2.6421,0,0,1,98.3926,81.3389Z"/><path class="cls-2" d="M104.416,81.3389a2.8682,2.8682,0,0,1-1.1582-.2281,2.5034,2.5034,0,0,1-.8935-.6538,2.9884,2.9884,0,0,1-.5752-1.0263,4.5061,4.5061,0,0,1,0-2.688,2.9921,2.9921,0,0,1,.5752-1.0259,2.5034,2.5034,0,0,1,.8935-.6538,3.0557,3.0557,0,0,1,2.3164,0,2.5074,2.5074,0,0,1,.8946.6538,3.0286,3.0286,0,0,1,.5761,1.0259,4.5485,4.5485,0,0,1,0,2.688,3.0248,3.0248,0,0,1-.5761,1.0263,2.5074,2.5074,0,0,1-.8946.6538A2.8648,2.8648,0,0,1,104.416,81.3389Zm0-.96a1.6064,1.6064,0,0,0,1.1885-.456,1.8594,1.8594,0,0,0,.456-1.3682v-.936a1.8588,1.8588,0,0,0-.456-1.3677,1.7752,1.7752,0,0,0-2.376,0,1.8546,1.8546,0,0,0-.456,1.3677v.936a1.8553,1.8553,0,0,0,.456,1.3682A1.604,1.604,0,0,0,104.416,80.3789Z"/><path class="cls-2" d="M108.7715,74.979h1.1172v1.0083h.0468a1.6918,1.6918,0,0,1,.6788-.8613,2.04,2.04,0,0,1,1.11-.291,2.3938,2.3938,0,0,1,1.0488.2216,2.1587,2.1587,0,0,1,.7871.648,3.0693,3.0693,0,0,1,.4922,1.0264,5.556,5.556,0,0,1,0,2.7119,3.062,3.062,0,0,1-.4922,1.0259,2.1485,2.1485,0,0,1-.7871.6479,2.394,2.394,0,0,1-1.0488.2222,2.0407,2.0407,0,0,1-1.11-.291,1.69,1.69,0,0,1-.6788-.8614h-.0468v3.4082h-1.1172Zm2.6289,5.4a1.53,1.53,0,0,0,1.1934-.4824,1.826,1.826,0,0,0,.4384-1.2788V77.5562a1.8261,1.8261,0,0,0-.4384-1.2789,1.5306,1.5306,0,0,0-1.1934-.4824,1.9951,1.9951,0,0,0-.5879.0845,1.5,1.5,0,0,0-.4805.2412,1.2475,1.2475,0,0,0-.3242.3618.8894.8894,0,0,0-.1191.4585v2.292a.8892.8892,0,0,0,.1191.4585,1.2475,1.2475,0,0,0,.3242.3618,1.5,1.5,0,0,0,.4805.2412A1.9951,1.9951,0,0,0,111.4,80.3789Z"/><path class="cls-2" d="M118.168,81.3389a2.8343,2.8343,0,0,1-1.17-.2339,2.5478,2.5478,0,0,1-.8886-.6543,2.9308,2.9308,0,0,1-.5635-1.02,4.6346,4.6346,0,0,1,0-2.6817,2.9294,2.9294,0,0,1,.5635-1.0263,2.5468,2.5468,0,0,1,.8886-.6539,2.8263,2.8263,0,0,1,1.17-.2338,2.76,2.76,0,0,1,1.1582.2329,2.457,2.457,0,0,1,.8574.64,2.765,2.765,0,0,1,.5283.9688,3.9314,3.9314,0,0,1,.1807,1.2075v.4663h-4.3809v.2524a1.8163,1.8163,0,0,0,.4571,1.2779,1.6649,1.6649,0,0,0,1.2949.498,1.85,1.85,0,0,0,1.0078-.2642,1.8935,1.8935,0,0,0,.6728-.7441l.72.6162a2.4145,2.4145,0,0,1-.9727.9839A3.0337,3.0337,0,0,1,118.168,81.3389Zm0-5.604a1.6727,1.6727,0,0,0-.666.1313,1.5665,1.5665,0,0,0-.8692.918,1.9934,1.9934,0,0,0-.1211.7031v.0835h3.1924v-.1191a1.8149,1.8149,0,0,0-.4141-1.2456A1.4174,1.4174,0,0,0,118.168,75.7349Z"/><path class="cls-2" d="M122.8721,81.3389a.6919.6919,0,0,1-.792-.7442v-.18a.7924.7924,0,1,1,1.584,0v.18a.692.692,0,0,1-.792.7442Z"/><rect class="cls-3" x="1" y="1" width="248" height="98"/><path class="cls-1" d="M23,32l-6.09-8.6A8.0579,8.0579,0,1,1,31,18.13a8.2,8.2,0,0,1-1.8,5.13Zm0-20a6.07,6.07,0,0,0-6,6.13,6.19,6.19,0,0,0,1.49,4L23,28.52,27.63,22A6.24,6.24,0,0,0,29,18.13,6.07,6.07,0,0,0,23,12Z"/><circle class="cls-1" cx="23" cy="17" r="2"/><path class="cls-1" d="M35,20H33v2h2V36H11V22h2V20H11a2,2,0,0,0-2,2V36a2,2,0,0,0,2,2H35a2,2,0,0,0,2-2V22A2,2,0,0,0,35,20Z"/></svg>