<?xml version="1.0" encoding="utf-8"?>
<!-- Generator: Adobe Illustrator 26.0.1, SVG Export Plug-In . SVG Version: 6.00 Build 0)  -->
<svg version="1.1" id="Layer_1" xmlns="http://www.w3.org/2000/svg" xmlns:xlink="http://www.w3.org/1999/xlink" x="0px" y="0px"
	 viewBox="0 0 250 100" style="enable-background:new 0 0 250 100;" xml:space="preserve">
<style type="text/css">
	.st0{fill:#242B66;}
	.st1{font-family:'IBMPlexSans-SemiBold';}
	.st2{font-size:13px;}
	.st3{fill:#525352;}
	.st4{font-family:'IBMPlexSans-Text';}
	.st5{font-size:12px;}
	.st6{fill:none;stroke:#242B66;stroke-width:1.968;stroke-miterlimit:10;}
</style>
<text transform="matrix(1 0 0 1 45.1973 22.584)" class="st0 st1 st2">Map credentials</text>
<text transform="matrix(1 0 0 1 45.1973 37.9945)"><tspan x="0" y="0" class="st3 st4 st5">Occasionally, a collector might </tspan><tspan x="0" y="14.4" class="st3 st4 st5">require more than one set of </tspan><tspan x="0" y="28.8" class="st3 st4 st5">credentials to complete a scan of a</tspan><tspan x="0" y="43.2" class="st3 st4 st5">defined scope.</tspan></text>
<rect x="1" y="1" class="st6" width="248" height="98"/>
<path class="st0" d="M23,32l-6.1-8.6c-2.9-3.4-2.5-8.6,1-11.5c1.4-1.2,3.3-1.9,5.1-1.9c4.5,0,8,3.7,8,8.1c0,1.9-0.6,3.7-1.8,5.1
	L23,32z M23,12c-3.3,0-6,2.8-6,6.1c0,1.5,0.5,2.9,1.5,4l4.5,6.4l4.6-6.5c0.9-1.1,1.4-2.5,1.4-3.9C29,14.8,26.3,12,23,12z"/>
<circle class="st0" cx="23" cy="17" r="2"/>
<path class="st0" d="M35,20h-2v2h2v14H11V22h2v-2h-2c-1.1,0-2,0.9-2,2v14c0,1.1,0.9,2,2,2h24c1.1,0,2-0.9,2-2V22
	C37,20.9,36.1,20,35,20z"/>
</svg>