<svg xmlns="http://www.w3.org/2000/svg" width="169.2211" height="47.8204" viewBox="0 0 169.2211 47.8204"><defs><style>.cls-1{fill:#0043ce;}.cls-2{fill:#a6c8ff;}.cls-3{fill:#002d9c;}</style></defs><g id="Graphics"><path class="cls-1" d="M25.2964,34.2327,18.1535,24.1458A9.4511,9.4511,0,1,1,34.68,17.9647a9.6174,9.6174,0,0,1-2.1112,6.0169Zm0-23.4579a7.12,7.12,0,0,0-7.0374,7.19,7.2606,7.2606,0,0,0,1.7476,4.6915l5.29,7.4948,5.4305-7.6472a7.3191,7.3191,0,0,0,1.6068-4.5391A7.1194,7.1194,0,0,0,25.2964,10.7748Z"/><circle class="cls-1" cx="25.2964" cy="16.6393" r="2.3458"/><path class="cls-2" d="M39.3711,20.158H37.0253v2.3458h2.3458V38.9243H11.2216V22.5038h2.3458V20.158H11.2216a2.3457,2.3457,0,0,0-2.3457,2.3458V38.9243A2.3458,2.3458,0,0,0,11.2216,41.27H39.3711a2.3458,2.3458,0,0,0,2.3458-2.3458V22.5038A2.3457,2.3457,0,0,0,39.3711,20.158Z"/></g><g id="Text"><path class="cls-3" d="M57.77,20.461h-.0771l-.9053,1.7954L54.2255,26.921,51.663,22.2564l-.9052-1.7954h-.0772v9.0225H49.4228V18.773h1.7187l3.0684,5.77h.0771l3.084-5.77h1.6573V29.4835H57.77Z"/><path class="cls-3" d="M67.5146,29.4835a1.2083,1.2083,0,0,1-.99-.3682,1.8352,1.8352,0,0,1-.376-.9209h-.0762a2.0474,2.0474,0,0,1-.8594,1.1045,2.6661,2.6661,0,0,1-1.4267.3692,2.7773,2.7773,0,0,1-1.9571-.6446,2.2633,2.2633,0,0,1-.6982-1.75,1.9978,1.9978,0,0,1,.8213-1.7187,4.3676,4.3676,0,0,1,2.5547-.5987h1.5654v-.7817a1.7094,1.7094,0,0,0-.4609-1.2891A1.9645,1.9645,0,0,0,64.2,22.4405a2.1247,2.1247,0,0,0-1.205.3223,2.6559,2.6559,0,0,0-.8057.8594l-.7363-.6905a2.7952,2.7952,0,0,1,1.0283-1.0971,3.2376,3.2376,0,0,1,1.78-.4527,3.2764,3.2764,0,0,1,2.24.7041,2.4808,2.4808,0,0,1,.7978,1.96v4.3476h.9053v1.09Zm-3.5293-.8594a3.1359,3.1359,0,0,0,.8437-.1074,2.0712,2.0712,0,0,0,.66-.3066,1.5227,1.5227,0,0,0,.43-.461,1.1046,1.1046,0,0,0,.1533-.5674V25.877H64.4453a2.9609,2.9609,0,0,0-1.542.3077.99.99,0,0,0-.4834.89v.3223a1.0734,1.0734,0,0,0,.4218.9052A1.8386,1.8386,0,0,0,63.9853,28.6241Z"/><path class="cls-3" d="M69.954,21.566h1.2276V22.84h.0615a2.2225,2.2225,0,0,1,.8975-1.1015,2.6962,2.6962,0,0,1,1.42-.357,3.012,3.012,0,0,1,1.3349.2915,2.9152,2.9152,0,0,1,1.0206.8286,3.8046,3.8046,0,0,1,.6445,1.3042,6.7717,6.7717,0,0,1,0,3.4371,3.7931,3.7931,0,0,1-.6445,1.3037,2.9111,2.9111,0,0,1-1.0206.8291,3.0122,3.0122,0,0,1-1.3349.292,2.3985,2.3985,0,0,1-2.3174-1.459h-.0615v4.3437H69.954Zm3.2686,7.0122a2.1124,2.1124,0,0,0,1.6416-.6553,2.4477,2.4477,0,0,0,.5986-1.72V24.8458a2.4489,2.4489,0,0,0-.5986-1.7192,2.1124,2.1124,0,0,0-1.6416-.6553,2.667,2.667,0,0,0-.79.1157,2.2049,2.2049,0,0,0-.6524.3159,1.518,1.518,0,0,0-.4375.4859,1.2208,1.2208,0,0,0-.1611.6093v2.961a1.4341,1.4341,0,0,0,.1611.6865,1.54,1.54,0,0,0,.4375.5088,1.9593,1.9593,0,0,0,.6524.3154A2.8313,2.8313,0,0,0,73.2226,28.5782Z"/><path class="cls-3" d="M85.4218,29.6681a3.6442,3.6442,0,0,1-1.4883-.292A3.0357,3.0357,0,0,1,82.82,28.547a3.6932,3.6932,0,0,1-.6905-1.3037,6.3416,6.3416,0,0,1,0-3.4371A3.7043,3.7043,0,0,1,82.82,22.502a3.04,3.04,0,0,1,1.1132-.8286,3.6441,3.6441,0,0,1,1.4883-.2915,3.1812,3.1812,0,0,1,1.8955.5137,3.1476,3.1476,0,0,1,1.0664,1.3428l-1.0283.5219a1.8676,1.8676,0,0,0-.706-.9516,2.12,2.12,0,0,0-1.2276-.3374,2.4612,2.4612,0,0,0-.9668.1763,1.8832,1.8832,0,0,0-.69.4912,2.0572,2.0572,0,0,0-.4141.7519,3.15,3.15,0,0,0-.1386.958v1.3506a2.5655,2.5655,0,0,0,.5605,1.7109,2.0293,2.0293,0,0,0,1.6494.668A2.2288,2.2288,0,0,0,87.57,27.1974l.89.5986a3.1515,3.1515,0,0,1-1.1426,1.3652A3.3444,3.3444,0,0,1,85.4218,29.6681Z"/><path class="cls-3" d="M90.1943,29.4835V21.566h1.2275v1.4575h.0772a2.3857,2.3857,0,0,1,.7666-1.0127,2.3592,2.3592,0,0,1,1.5195-.4448h.4756v1.2275H93.539a2.7686,2.7686,0,0,0-1.5566.376,1.108,1.108,0,0,0-.5606.9439v5.37Z"/><path class="cls-3" d="M98.8027,29.6681a3.5521,3.5521,0,0,1-1.4658-.292,3.1642,3.1642,0,0,1-1.12-.836,3.8137,3.8137,0,0,1-.7207-1.3047,5.8651,5.8651,0,0,1,0-3.414,3.8088,3.8088,0,0,1,.7207-1.312,3.17,3.17,0,0,1,1.12-.836,3.552,3.552,0,0,1,1.4658-.2915,3.3551,3.3551,0,0,1,1.4258.2906,3.1549,3.1549,0,0,1,1.0742.8027,3.5666,3.5666,0,0,1,.6836,1.2158,4.8059,4.8059,0,0,1,.2382,1.5444v.58H96.5312v.3692a2.7114,2.7114,0,0,0,.1611.9433,2.2416,2.2416,0,0,0,.46.76,2.0938,2.0938,0,0,0,.7363.5058,2.5344,2.5344,0,0,0,.99.1846,2.4,2.4,0,0,0,1.3125-.3535,2.3119,2.3119,0,0,0,.8672-1.0127l.875.6338a3.0655,3.0655,0,0,1-1.1972,1.32A3.6179,3.6179,0,0,1,98.8027,29.6681Zm0-7.2583a2.3448,2.3448,0,0,0-.9219.1757,2.069,2.069,0,0,0-.7129.4956,2.3256,2.3256,0,0,0-.4678.7544,2.62,2.62,0,0,0-.1689.9537v.1064h4.373v-.1675a2.4111,2.4111,0,0,0-.5742-1.685A1.9674,1.9674,0,0,0,98.8027,22.41Z"/><path class="cls-3" d="M109.3134,28.2091h-.0615a2.4161,2.4161,0,0,1-2.3164,1.459,3.0143,3.0143,0,0,1-1.336-.292,2.9028,2.9028,0,0,1-1.0205-.8291,3.7723,3.7723,0,0,1-.6435-1.3037,6.7423,6.7423,0,0,1,0-3.4371,3.7837,3.7837,0,0,1,.6435-1.3042,2.9069,2.9069,0,0,1,1.0205-.8286,3.014,3.014,0,0,1,1.336-.2915,2.695,2.695,0,0,1,1.4189.357,2.2225,2.2225,0,0,1,.8975,1.1015h.0615V18.1285h1.2276v11.355h-1.2276Zm-2.041.3691a2.8313,2.8313,0,0,0,.79-.1084,1.9593,1.9593,0,0,0,.6524-.3154,1.54,1.54,0,0,0,.4375-.5088,1.4341,1.4341,0,0,0,.1611-.6865v-2.961a1.2208,1.2208,0,0,0-.1611-.6093,1.518,1.518,0,0,0-.4375-.4859,2.2049,2.2049,0,0,0-.6524-.3159,2.667,2.667,0,0,0-.79-.1157,2.1124,2.1124,0,0,0-1.6416.6553,2.4489,2.4489,0,0,0-.5986,1.7192v1.3574a2.4477,2.4477,0,0,0,.5986,1.72A2.1124,2.1124,0,0,0,107.2724,28.5782Z"/><path class="cls-3" d="M116.1269,29.6681a3.5587,3.5587,0,0,1-1.4658-.292,3.1639,3.1639,0,0,1-1.12-.836,3.8439,3.8439,0,0,1-.7207-1.3047,5.8851,5.8851,0,0,1,0-3.414,3.8387,3.8387,0,0,1,.7207-1.312,3.17,3.17,0,0,1,1.12-.836,3.5586,3.5586,0,0,1,1.4658-.2915,3.359,3.359,0,0,1,1.4267.2906,3.1543,3.1543,0,0,1,1.0743.8027,3.5832,3.5832,0,0,1,.6836,1.2158,4.8061,4.8061,0,0,1,.2373,1.5444v.58h-5.6934v.3692a2.7114,2.7114,0,0,0,.1611.9433,2.2454,2.2454,0,0,0,.461.76,2.0938,2.0938,0,0,0,.7363.5058,2.5274,2.5274,0,0,0,.99.1846,2.399,2.399,0,0,0,1.3116-.3535,2.3132,2.3132,0,0,0,.8672-1.0127l.875.6338a3.06,3.06,0,0,1-1.1973,1.32A3.613,3.613,0,0,1,116.1269,29.6681Zm0-7.2583a2.3367,2.3367,0,0,0-.9209.1757,2.06,2.06,0,0,0-.7129.4956,2.3109,2.3109,0,0,0-.4687.7544,2.6184,2.6184,0,0,0-.169.9537v.1064h4.374v-.1675a2.4116,2.4116,0,0,0-.5752-1.685A1.9646,1.9646,0,0,0,116.1269,22.41Z"/><path class="cls-3" d="M121.5742,29.4835V21.566h1.2275V22.84h.0615a2.5746,2.5746,0,0,1,.82-1.0635,2.3232,2.3232,0,0,1,1.42-.395,2.4859,2.4859,0,0,1,1.9414.79,3.2177,3.2177,0,0,1,.7129,2.2329v5.0786H126.53V24.609q0-2.1379-1.7949-2.1377a2.7493,2.7493,0,0,0-.7139.0923,2.0622,2.0622,0,0,0-.6211.2768,1.3651,1.3651,0,0,0-.4375.4693,1.3342,1.3342,0,0,0-.1611.6689v5.5049Z"/><path class="cls-3" d="M132.039,29.4835a1.2585,1.2585,0,0,1-.9746-.3594,1.341,1.341,0,0,1-.33-.9424V22.6554h-1.3037V21.566h.7363a.7234.7234,0,0,0,.545-.1611.84.84,0,0,0,.1455-.56V19.3717h1.1045V21.566h1.7343v1.0894h-1.7343v5.7382h1.6113v1.09Z"/><path class="cls-3" d="M136.29,19.7091a.75.75,0,0,1-.5752-.1919.7051.7051,0,0,1-.1768-.4986v-.2a.7048.7048,0,0,1,.1768-.4985.958.958,0,0,1,1.15,0,.7052.7052,0,0,1,.1767.4985v.2a.7055.7055,0,0,1-.1767.4986A.75.75,0,0,1,136.29,19.7091Zm-.6133,1.8569h1.2275v7.9175h-1.2275Z"/><path class="cls-3" d="M145.2665,29.4835a1.205,1.205,0,0,1-.9892-.3682,1.8193,1.8193,0,0,1-.376-.9209h-.0771a2.0437,2.0437,0,0,1-.8594,1.1045,2.6616,2.6616,0,0,1-1.4268.3692,2.7787,2.7787,0,0,1-1.957-.6446,2.2664,2.2664,0,0,1-.6982-1.75,2,2,0,0,1,.8212-1.7187,4.3678,4.3678,0,0,1,2.5547-.5987h1.5655v-.7817a1.7129,1.7129,0,0,0-.46-1.2891,1.9684,1.9684,0,0,0-1.4121-.4448,2.1239,2.1239,0,0,0-1.2041.3223,2.657,2.657,0,0,0-.8057.8594l-.7373-.6905a2.796,2.796,0,0,1,1.0283-1.0971,3.24,3.24,0,0,1,1.78-.4527,3.2764,3.2764,0,0,1,2.24.7041,2.4773,2.4773,0,0,1,.7979,1.96v4.3476h.9053v1.09Zm-3.5293-.8594a3.1367,3.1367,0,0,0,.8438-.1074,2.07,2.07,0,0,0,.66-.3066,1.5091,1.5091,0,0,0,.43-.461,1.0942,1.0942,0,0,0,.1534-.5674V25.877h-1.626a2.9653,2.9653,0,0,0-1.543.3077.99.99,0,0,0-.4834.89v.3223a1.0732,1.0732,0,0,0,.4219.9052A1.84,1.84,0,0,0,141.7372,28.6241Z"/><path class="cls-3" d="M149.0107,29.4835a1.2568,1.2568,0,0,1-.9746-.36,1.3005,1.3005,0,0,1-.3291-.913V18.1285h1.2275V28.3936h1.166v1.09Z"/><path class="cls-3" d="M154.2587,29.6681a3.7023,3.7023,0,0,1-1.8486-.4229,4.1975,4.1975,0,0,1-1.2813-1.1279l.8741-.7051a3.4509,3.4509,0,0,0,1.0283.8975,2.6783,2.6783,0,0,0,1.32.3144,1.9517,1.9517,0,0,0,1.22-.3379,1.2248,1.2248,0,0,0,.1377-1.7412,1.8258,1.8258,0,0,0-1.082-.4531L153.998,26a5.22,5.22,0,0,1-1.0127-.2383,2.8283,2.8283,0,0,1-.8057-.4287,1.8584,1.8584,0,0,1-.5371-.6675,2.1772,2.1772,0,0,1-.1914-.9516,2.2816,2.2816,0,0,1,.2149-1.02,2.041,2.041,0,0,1,.5908-.729,2.5762,2.5762,0,0,1,.8974-.4375,4.1476,4.1476,0,0,1,1.12-.1455,3.4989,3.4989,0,0,1,1.6191.3374,3.6273,3.6273,0,0,1,1.1426.9361l-.8125.7363a2.4206,2.4206,0,0,0-2.041-.9663,1.76,1.76,0,0,0-1.1592.33,1.1131,1.1131,0,0,0-.3906.8979.9392.9392,0,0,0,.3906.8438,2.9112,2.9112,0,0,0,1.1279.3833l.6143.0918a3.2928,3.2928,0,0,1,1.872.76,2,2,0,0,1,.5528,1.4659,2.2435,2.2435,0,0,1-.7832,1.8105A3.2326,3.2326,0,0,1,154.2587,29.6681Z"/></g></svg>