<svg id="Layer_1" data-name="Layer 1" xmlns="http://www.w3.org/2000/svg" width="250" height="100" viewBox="0 0 250 100"><defs><style>.cls-1{fill:#242b66;}.cls-2{fill:#525352;}.cls-3,.cls-4{fill:none;}.cls-4{stroke:#242b66;stroke-miterlimit:10;stroke-width:2px;}</style></defs><path class="cls-1" d="M37,39H29V31h8Zm-6-2h4V33H31Z"/><path class="cls-1" d="M27,36H15.2277a6.152,6.152,0,0,1-6.182-5.2485A6.0022,6.0022,0,0,1,15,24h2v2H15.1506a4.0972,4.0972,0,0,0-4.0677,3.1729A4.0045,4.0045,0,0,0,15,34H27Z"/><path class="cls-1" d="M27,29H19V21h8Zm-6-2h4V23H21Z"/><path class="cls-1" d="M31,26H29V24h1.8494a4.0972,4.0972,0,0,0,4.0677-3.1729A4.0045,4.0045,0,0,0,31,16H19V14H30.7723a6.152,6.152,0,0,1,6.182,5.2485A6.0022,6.0022,0,0,1,31,26Z"/><path class="cls-1" d="M17,19H9V11h8Zm-6-2h4V13H11Z"/><path class="cls-1" d="M48.8633,17.93l-.9356-1.8853h-.039V22.584h-1.625V13.51h1.8847l2.73,4.6543.9356,1.8847h.039V13.51h1.625V22.584H51.5937Z"/><path class="cls-1" d="M58.249,22.74a3.3875,3.3875,0,0,1-1.3457-.2534,2.7869,2.7869,0,0,1-1.001-.7148,3.2065,3.2065,0,0,1-.6308-1.1182,5.041,5.041,0,0,1-.0059-2.9311,3.1818,3.1818,0,0,1,.6172-1.1118,2.7312,2.7312,0,0,1,.9883-.7149,3.3051,3.3051,0,0,1,1.3262-.2534,3.2213,3.2213,0,0,1,1.3769.2729,2.6588,2.6588,0,0,1,.9629.7408,3.2115,3.2115,0,0,1,.5654,1.0859,4.4829,4.4829,0,0,1,.1885,1.3193v.5459H56.7793v.168a1.6594,1.6594,0,0,0,.416,1.1807,1.61,1.61,0,0,0,1.2363.4453,1.8364,1.8364,0,0,0,1.02-.2578,2.9121,2.9121,0,0,0,.709-.6582l.8964,1.0039a2.7913,2.7913,0,0,1-1.1367.9189A3.9659,3.9659,0,0,1,58.249,22.74Zm-.0263-5.85a1.3341,1.3341,0,0,0-1.0528.4419,1.6673,1.6673,0,0,0-.3906,1.1441v.104h2.7832v-.1172a1.7739,1.7739,0,0,0-.3457-1.1372A1.19,1.19,0,0,0,58.2227,16.89Z"/><path class="cls-1" d="M64.8789,22.584a1.773,1.773,0,0,1-1.3066-.4473,1.7262,1.7262,0,0,1-.4473-1.2778V17.1372H62.123V15.7979h.5206a.6186.6186,0,0,0,.5126-.1753.8442.8442,0,0,0,.1368-.5264V13.939h1.4961v1.8589H66.18v1.3393H64.7891v4.1079h1.2861V22.584Z"/><path class="cls-1" d="M66.959,15.7979h1.6l.6885,2.7949L69.78,20.92h.0517l.6241-2.3271.7929-2.7949h1.5088l.8184,2.7949.6367,2.3271h.0527l.5332-2.3271.6758-2.7949h1.5469L75.1621,22.584H73.3682l-.8711-2.99L71.99,17.748h-.039l-.4942,1.8458L70.6,22.584H68.8311Z"/><path class="cls-1" d="M80.8428,22.74a3.2931,3.2931,0,0,1-1.3057-.2465,2.6973,2.6973,0,0,1-.9883-.7154,3.26,3.26,0,0,1-.6308-1.1245,4.6018,4.6018,0,0,1-.2207-1.4751,4.5457,4.5457,0,0,1,.2207-1.4692,3.203,3.203,0,0,1,.6308-1.1113,2.7288,2.7288,0,0,1,.9883-.7085,3.2914,3.2914,0,0,1,1.3057-.2471,3.3506,3.3506,0,0,1,1.3134.2471,2.7328,2.7328,0,0,1,.9942.7085,3.2189,3.2189,0,0,1,.6308,1.1113,4.5731,4.5731,0,0,1,.2208,1.4692,4.63,4.63,0,0,1-.2208,1.4751,3.2764,3.2764,0,0,1-.6308,1.1245,2.7011,2.7011,0,0,1-.9942.7154A3.3523,3.3523,0,0,1,80.8428,22.74Zm0-1.3388a1.3551,1.3551,0,0,0,1.04-.4029,1.6686,1.6686,0,0,0,.377-1.1831V18.5542a1.65,1.65,0,0,0-.377-1.17,1.355,1.355,0,0,0-1.04-.4028,1.3375,1.3375,0,0,0-1.0264.4028,1.65,1.65,0,0,0-.3769,1.17v1.2607a1.669,1.669,0,0,0,.3769,1.1831A1.3376,1.3376,0,0,0,80.8428,21.4009Z"/><path class="cls-1" d="M85.4707,22.584V15.7979h1.6641v1.4042h.0644a2.2047,2.2047,0,0,1,.2022-.5268,1.6057,1.6057,0,0,1,.3574-.4482,1.7242,1.7242,0,0,1,.5264-.3121,1.9689,1.9689,0,0,1,.7089-.1171h.3633v1.5732h-.5195a2.604,2.604,0,0,0-1.2734.2471.8558.8558,0,0,0-.43.8056v4.16Z"/><path class="cls-1" d="M90.58,12.9639h1.664v5.7983h.0645l.8965-1.2222,1.5215-1.7421h1.8847l-2.34,2.6259,2.5879,4.16H94.8828l-1.7422-3.042-.8965.9751V22.584H90.58Z"/><path class="cls-1" d="M100.6807,22.584V21.2061h1.1963V14.8882h-1.1963V13.51h4.1211v1.3784h-1.209v6.3179h1.209V22.584Z"/><path class="cls-1" d="M106.4521,22.584V15.7979h1.6641v1.1313h.0654a2.169,2.169,0,0,1,.6563-.9165,1.8931,1.8931,0,0,1,1.2412-.3706,1.9558,1.9558,0,0,1,1.6123.689,3.0411,3.0411,0,0,1,.5586,1.9628v4.29h-1.6641V18.4629a1.8756,1.8756,0,0,0-.26-1.0918.9815.9815,0,0,0-.8575-.3643,1.7417,1.7417,0,0,0-.5009.0718,1.3784,1.3784,0,0,0-.4287.208,1.07,1.07,0,0,0-.3057.3379.9275.9275,0,0,0-.1172.4746V22.584Z"/><path class="cls-1" d="M116.3193,22.74a3.6434,3.6434,0,0,1-1.6377-.331,3.7746,3.7746,0,0,1-1.17-.9165l1.0137-.9883a3.0743,3.0743,0,0,0,.8252.6763,2.112,2.112,0,0,0,1.0342.2466,1.4093,1.4093,0,0,0,.8632-.208.6854.6854,0,0,0,.2676-.5718.6174.6174,0,0,0-.1894-.4746,1.1967,1.1967,0,0,0-.6426-.24l-.6758-.0913a3.2084,3.2084,0,0,1-1.6836-.63,1.7537,1.7537,0,0,1-.5791-1.4233,2.1009,2.1009,0,0,1,.1826-.8906,1.8805,1.8805,0,0,1,.52-.6758,2.3709,2.3709,0,0,1,.8125-.4292,3.5207,3.5207,0,0,1,1.06-.1494,4.8579,4.8579,0,0,1,.878.0713,3.2387,3.2387,0,0,1,.6953.208,2.74,2.74,0,0,1,.5722.3379,5.4219,5.4219,0,0,1,.5059.4487l-.9746.9751a2.571,2.571,0,0,0-.7149-.52,2.0036,2.0036,0,0,0-.91-.208,1.2544,1.2544,0,0,0-.7861.1948.6209.6209,0,0,0-.2413.5073.6423.6423,0,0,0,.2022.5132,1.39,1.39,0,0,0,.6826.2534l.69.0913q2.1957.312,2.1963,2.002a2.0105,2.0105,0,0,1-.2022.9033,2.0586,2.0586,0,0,1-.5644.7022,2.68,2.68,0,0,1-.878.455A3.8183,3.8183,0,0,1,116.3193,22.74Z"/><path class="cls-1" d="M121.416,14.81a1.012,1.012,0,0,1-.748-.2339.82.82,0,0,1-.2276-.5982v-.26a.8191.8191,0,0,1,.2276-.5977,1.2982,1.2982,0,0,1,1.4882,0,.8087.8087,0,0,1,.2344.5977v.26a.81.81,0,0,1-.2344.5982A1.0129,1.0129,0,0,1,121.416,14.81Zm-.832.9878h1.664V22.584h-1.664Z"/><path class="cls-1" d="M130.2939,23.1558a2.2426,2.2426,0,0,1-.1884.9428,1.6,1.6,0,0,1-.6172.6822,3.341,3.341,0,0,1-1.1055.416,9.634,9.634,0,0,1-3.1074.0327,3.4785,3.4785,0,0,1-.9805-.312,1.3053,1.3053,0,0,1-.5527-.5,1.3447,1.3447,0,0,1-.17-.6758,1.2055,1.2055,0,0,1,.3193-.8906,1.5687,1.5687,0,0,1,.8906-.41v-.143a1.1,1.1,0,0,1-.6435-.41,1.1706,1.1706,0,0,1-.2276-.7222.984.984,0,0,1,.1045-.4624,1.068,1.068,0,0,1,.2793-.3452,1.71,1.71,0,0,1,.3965-.24,2.2977,2.2977,0,0,1,.4678-.15v-.0523a2.0359,2.0359,0,0,1-.93-.7925,2.2388,2.2388,0,0,1-.3057-1.1821,2.1164,2.1164,0,0,1,.7149-1.6689,3.078,3.078,0,0,1,2.0937-.63,4.8092,4.8092,0,0,1,.6172.0391,2.7684,2.7684,0,0,1,.5654.13V15.59a.8618.8618,0,0,1,.962-.9877H129.93V15.876h-1.4434v.1821a1.9618,1.9618,0,0,1,.793.78,2.2825,2.2825,0,0,1,.2607,1.105,2.0929,2.0929,0,0,1-.708,1.6509,3.0936,3.0936,0,0,1-2.1.624,4.0958,4.0958,0,0,1-1.041-.1167,1.14,1.14,0,0,0-.3379.24.5149.5149,0,0,0-.1426.3706q0,.5069.8848.5069h1.8193a2.6509,2.6509,0,0,1,1.8135.5136A1.8261,1.8261,0,0,1,130.2939,23.1558Zm-1.56.1953a.5857.5857,0,0,0-.26-.5073,1.6375,1.6375,0,0,0-.8975-.1817h-2.3134a.8277.8277,0,0,0-.3516.7017.699.699,0,0,0,.3242.6113,2.0569,2.0569,0,0,0,1.1055.2207h.832a2.5429,2.5429,0,0,0,1.19-.208A.6832.6832,0,0,0,128.7344,23.3511Zm-2.002-4.2769q1.2218,0,1.2217-1.0342v-.22q0-1.0341-1.2217-1.0342T125.51,17.82v.22Q125.51,19.0743,126.7324,19.0742Z"/><path class="cls-1" d="M131.2559,12.9639h1.664v3.9653h.0645a2.1616,2.1616,0,0,1,.6572-.9165,1.8913,1.8913,0,0,1,1.2412-.3706,1.9557,1.9557,0,0,1,1.6123.689,3.047,3.047,0,0,1,.5586,1.9628v4.29h-1.6631V18.4629a1.8827,1.8827,0,0,0-.2607-1.0918.9822.9822,0,0,0-.8584-.3643,1.74,1.74,0,0,0-.5.0718,1.4058,1.4058,0,0,0-.43.208,1.0909,1.0909,0,0,0-.3047.3379.9275.9275,0,0,0-.1172.4746V22.584h-1.664Z"/><path class="cls-1" d="M141.02,22.584a1.7716,1.7716,0,0,1-1.3066-.4473,1.7274,1.7274,0,0,1-.4492-1.2778V17.1372h-1V15.7979h.5195a.6237.6237,0,0,0,.5137-.1753.8508.8508,0,0,0,.1367-.5264V13.939h1.4941v1.8589h1.3907v1.3393h-1.3907v4.1079h1.2871V22.584Z"/><path class="cls-1" d="M145.9844,22.74a3.6464,3.6464,0,0,1-1.6377-.331,3.7723,3.7723,0,0,1-1.17-.9165l1.0146-.9883a3.0552,3.0552,0,0,0,.8242.6763,2.115,2.115,0,0,0,1.0342.2466,1.4133,1.4133,0,0,0,.8643-.208.6848.6848,0,0,0,.2666-.5718.62.62,0,0,0-.1885-.4746,1.1972,1.1972,0,0,0-.6436-.24l-.6757-.0913a3.2111,3.2111,0,0,1-1.6836-.63,1.7565,1.7565,0,0,1-.5791-1.4233,2.0994,2.0994,0,0,1,.1826-.8906,1.8718,1.8718,0,0,1,.52-.6758,2.3709,2.3709,0,0,1,.8125-.4292,3.5141,3.5141,0,0,1,1.0586-.1494,4.8489,4.8489,0,0,1,.8779.0713,3.22,3.22,0,0,1,.6953.208,2.6932,2.6932,0,0,1,.5723.3379,5.43,5.43,0,0,1,.5068.4487l-.9746.9751a2.572,2.572,0,0,0-.7148-.52,2.0074,2.0074,0,0,0-.91-.208,1.2562,1.2562,0,0,0-.7871.1948.6227.6227,0,0,0-.24.5073.6421.6421,0,0,0,.2011.5132,1.394,1.394,0,0,0,.6836.2534l.6885.0913q2.1958.312,2.1963,2.002a2.01,2.01,0,0,1-.2012.9033,2.0592,2.0592,0,0,1-.5654.7022,2.68,2.68,0,0,1-.8779.455A3.8142,3.8142,0,0,1,145.9844,22.74Z"/><path class="cls-2" d="M49.3135,38.1387a3.1021,3.1021,0,0,1-2.5264-1.11,4.9464,4.9464,0,0,1-.918-3.2222,4.9471,4.9471,0,0,1,.918-3.2221,3.1021,3.1021,0,0,1,2.5264-1.11,3.2114,3.2114,0,0,1,1.7939.4746,3.1368,3.1368,0,0,1,1.1338,1.3736l-.96.5517a2.2334,2.2334,0,0,0-.7265-.9961,2.2173,2.2173,0,0,0-2.8555.3389,2.9878,2.9878,0,0,0-.582,1.9512v1.2763a2.9878,2.9878,0,0,0,.582,1.9512,1.9726,1.9726,0,0,0,1.6143.71,2.02,2.02,0,0,0,1.29-.4018,2.3437,2.3437,0,0,0,.75-1.05l.9356.564a3.309,3.309,0,0,1-1.1582,1.41A3.1514,3.1514,0,0,1,49.3135,38.1387Z"/><path class="cls-2" d="M56.0937,38.1387a2.8617,2.8617,0,0,1-1.1582-.2281,2.5079,2.5079,0,0,1-.8945-.6538,3.0267,3.0267,0,0,1-.5762-1.0263,4.5485,4.5485,0,0,1,0-2.688,3.03,3.03,0,0,1,.5762-1.0259,2.5079,2.5079,0,0,1,.8945-.6538,3.0534,3.0534,0,0,1,2.3155,0,2.4947,2.4947,0,0,1,.8935.6538,3.01,3.01,0,0,1,.5762,1.0259,4.5061,4.5061,0,0,1,0,2.688,3.0067,3.0067,0,0,1-.5762,1.0263,2.4947,2.4947,0,0,1-.8935.6538A2.86,2.86,0,0,1,56.0937,38.1387Zm0-.96a1.6069,1.6069,0,0,0,1.1875-.456,1.859,1.859,0,0,0,.4561-1.3682v-.936a1.8584,1.8584,0,0,0-.4561-1.3677,1.7751,1.7751,0,0,0-2.3759,0,1.8588,1.8588,0,0,0-.4561,1.3677v.936a1.8594,1.8594,0,0,0,.4561,1.3682A1.6063,1.6063,0,0,0,56.0937,37.1787Z"/><path class="cls-2" d="M60.4492,37.9946V31.7788h1.1162v1.0083h.06a2.0307,2.0307,0,0,1,.6309-.8315,1.7826,1.7826,0,0,1,1.1211-.3208,1.8944,1.8944,0,0,1,1.5058.624,2.5924,2.5924,0,0,1,.5469,1.7637v3.9721H64.3135V34.1821q0-1.5871-1.3076-1.5874a1.9706,1.9706,0,0,0-.5352.0723,1.5535,1.5535,0,0,0-.4609.21,1.0334,1.0334,0,0,0-.3243.3487.99.99,0,0,0-.12.499v4.27Z"/><path class="cls-2" d="M68.85,37.9946a1.1514,1.1514,0,0,1-.8769-.3174,1.1966,1.1966,0,0,1-.2989-.8559V32.7388h-.9961v-.96H67.23a.5664.5664,0,0,0,.4316-.1323.6543.6543,0,0,0,.12-.4439v-1.14h1.0079v1.7163h1.332v.96h-1.332v4.2959h1.2363v.96Z"/><path class="cls-2" d="M72.1729,30.4824a.6808.6808,0,0,1-.51-.1679.6105.6105,0,0,1-.1621-.4439v-.168a.61.61,0,0,1,.1621-.4438.8589.8589,0,0,1,1.02,0,.6144.6144,0,0,1,.1621.4438v.168a.6147.6147,0,0,1-.1621.4439A.6832.6832,0,0,1,72.1729,30.4824Zm-.5635,1.2964h1.1152v6.2158H71.6094Z"/><path class="cls-2" d="M74.6934,37.9946V31.7788h1.1152v1.0083h.0605a2.03,2.03,0,0,1,.63-.8315,1.7859,1.7859,0,0,1,1.1221-.3208,1.8974,1.8974,0,0,1,1.5059.624,2.5977,2.5977,0,0,1,.5459,1.7637v3.9721H78.5566V34.1821q0-1.5871-1.3076-1.5874a1.9639,1.9639,0,0,0-.5342.0723,1.5617,1.5617,0,0,0-.4619.21,1.0311,1.0311,0,0,0-.3232.3487.99.99,0,0,0-.1211.499v4.27Z"/><path class="cls-2" d="M85.373,36.9863h-.0605a2.1167,2.1167,0,0,1-.2217.4336,1.5206,1.5206,0,0,1-.3476.3682,1.6763,1.6763,0,0,1-.4981.2554,2.1493,2.1493,0,0,1-.6728.0952,1.915,1.915,0,0,1-1.5118-.6241,2.58,2.58,0,0,1-.5517-1.7641V31.7788H82.625v3.8125q0,1.5872,1.32,1.5874a2.0768,2.0768,0,0,0,.5215-.0664,1.3223,1.3223,0,0,0,.4561-.21,1.173,1.173,0,0,0,.3242-.36.9875.9875,0,0,0,.1259-.5054V31.7788h1.1153v6.2158H85.373Z"/><path class="cls-2" d="M90.8447,38.1387a2.8651,2.8651,0,0,1-1.1582-.2281,2.5034,2.5034,0,0,1-.8935-.6538,3.0067,3.0067,0,0,1-.5762-1.0263,4.5272,4.5272,0,0,1,0-2.688,3.01,3.01,0,0,1,.5762-1.0259,2.5034,2.5034,0,0,1,.8935-.6538,3.0534,3.0534,0,0,1,2.3155,0,2.4992,2.4992,0,0,1,.8945.6538,3.03,3.03,0,0,1,.5762,1.0259,4.5272,4.5272,0,0,1,0,2.688,3.0267,3.0267,0,0,1-.5762,1.0263,2.4992,2.4992,0,0,1-.8945.6538A2.86,2.86,0,0,1,90.8447,38.1387Zm0-.96a1.61,1.61,0,0,0,1.1885-.456,1.8634,1.8634,0,0,0,.4551-1.3682v-.936a1.8627,1.8627,0,0,0-.4551-1.3677,1.7765,1.7765,0,0,0-2.377,0,1.8585,1.8585,0,0,0-.455,1.3677v.936a1.8591,1.8591,0,0,0,.455,1.3682A1.6079,1.6079,0,0,0,90.8447,37.1787Z"/><path class="cls-2" d="M99.0049,36.9863h-.06a2.1669,2.1669,0,0,1-.2226.4336,1.5211,1.5211,0,0,1-.3477.3682,1.6992,1.6992,0,0,1-.498.2554,2.1478,2.1478,0,0,1-.6719.0952,1.912,1.912,0,0,1-1.5117-.6241,2.57,2.57,0,0,1-.5528-1.7641V31.7788h1.1162v3.8125q0,1.5872,1.3194,1.5874a2.0832,2.0832,0,0,0,.5224-.0664,1.3214,1.3214,0,0,0,.4561-.21,1.1605,1.1605,0,0,0,.3242-.36.9876.9876,0,0,0,.126-.5054V31.7788h1.1162v6.2158H99.0049Z"/><path class="cls-2" d="M103.9961,38.1387a3.0008,3.0008,0,0,1-1.457-.3242,3.2954,3.2954,0,0,1-1.0264-.876l.7559-.648a2.5513,2.5513,0,0,0,.7861.6841,2.0709,2.0709,0,0,0,1.0137.24,1.449,1.449,0,0,0,.9121-.246.8917.8917,0,0,0,.1015-1.254,1.3228,1.3228,0,0,0-.7851-.312l-.5283-.084a4.0266,4.0266,0,0,1-.8155-.1923,2.103,2.103,0,0,1-.6367-.3477,1.5254,1.5254,0,0,1-.4141-.5283,1.708,1.708,0,0,1-.15-.7437,1.8766,1.8766,0,0,1,.1679-.81,1.6154,1.6154,0,0,1,.4688-.5884,2.09,2.09,0,0,1,.7138-.354,3.2564,3.2564,0,0,1,.9053-.12,2.939,2.939,0,0,1,1.32.2636,2.8968,2.8968,0,0,1,.9239.7325l-.7071.6718a2.006,2.006,0,0,0-.6191-.5219,1.8978,1.8978,0,0,0-.9531-.2222,1.3,1.3,0,0,0-.8584.24.792.792,0,0,0-.2823.6358.6966.6966,0,0,0,.2705.6118,1.9279,1.9279,0,0,0,.81.2764l.5283.0839a2.6422,2.6422,0,0,1,1.4815.6,1.5592,1.5592,0,0,1,.4511,1.1636,1.7732,1.7732,0,0,1-.6367,1.44A2.6418,2.6418,0,0,1,103.9961,38.1387Z"/><path class="cls-2" d="M109.1328,37.9946a1.1428,1.1428,0,0,1-.8711-.312,1.16,1.16,0,0,1-.293-.8281v-7.74h1.1153v7.92h.8887v.96Z"/><path class="cls-2" d="M115.0254,31.7788h1.08l-2.7012,7.5718a3.1315,3.1315,0,0,1-.2275.4922,1.0169,1.0169,0,0,1-.294.3237,1.1767,1.1767,0,0,1-.4141.1743,2.8106,2.8106,0,0,1-.6.0537h-.6123v-.96h1.02l.42-1.1983-2.3047-6.4575h1.1162l1.38,3.9639.3242,1.1616h.06l.3594-1.1616Z"/><path class="cls-2" d="M124.625,37.9946a.9877.9877,0,0,1-.7744-.2881,1.3408,1.3408,0,0,1-.3174-.7441h-.06a1.6024,1.6024,0,0,1-.66.8765,2.0707,2.0707,0,0,1-1.14.3,2.15,2.15,0,0,1-1.5127-.4981,1.7628,1.7628,0,0,1-.5391-1.3618,1.5882,1.5882,0,0,1,.6543-1.374,3.4123,3.4123,0,0,1,1.9971-.4741h1.1767v-.564a1.3049,1.3049,0,0,0-.3359-.96,1.4257,1.4257,0,0,0-1.0449-.3359,1.6155,1.6155,0,0,0-.918.2456,2.03,2.03,0,0,0-.6055.6421l-.6719-.6118a2.3557,2.3557,0,0,1,.834-.8579,2.6094,2.6094,0,0,1,1.4219-.354,2.6488,2.6488,0,0,1,1.8.5566,1.9824,1.9824,0,0,1,.6358,1.5747v3.2686h.6962v.96Zm-2.7-.7558a1.8681,1.8681,0,0,0,1.0918-.3.9026.9026,0,0,0,.4326-.7681v-.96h-1.1885a2.13,2.13,0,0,0-1.122.2281.7369.7369,0,0,0-.3535.66v.24a.7876.7876,0,0,0,.3056.6655A1.3393,1.3393,0,0,0,121.9248,37.2388Z"/><path class="cls-2" d="M126.5918,37.9946V31.7788h1.1172v1.0083h.06a2.0283,2.0283,0,0,1,.63-.8315,1.7859,1.7859,0,0,1,1.1221-.3208,1.8972,1.8972,0,0,1,1.5059.624,2.5926,2.5926,0,0,1,.5459,1.7637v3.9721H130.457V34.1821q0-1.5871-1.3086-1.5874a1.9675,1.9675,0,0,0-.5341.0723,1.5729,1.5729,0,0,0-.462.21,1.0341,1.0341,0,0,0-.3242.3487.989.989,0,0,0-.1191.499v4.27Z"/><path class="cls-2" d="M137.9922,37.9946a.9856.9856,0,0,1-.7735-.2881,1.3486,1.3486,0,0,1-.3183-.7441H136.84a1.5972,1.5972,0,0,1-.66.8765,2.0674,2.0674,0,0,1-1.1387.3,2.1486,2.1486,0,0,1-1.5127-.4981,1.76,1.76,0,0,1-.54-1.3618,1.5906,1.5906,0,0,1,.6543-1.374,3.4134,3.4134,0,0,1,1.998-.4741h1.1758v-.564a1.3008,1.3008,0,0,0-.3359-.96,1.4248,1.4248,0,0,0-1.044-.3359,1.6109,1.6109,0,0,0-.9179.2456,2.0327,2.0327,0,0,0-.6065.6421l-.6719-.6118a2.363,2.363,0,0,1,.834-.8579,2.6117,2.6117,0,0,1,1.4219-.354,2.65,2.65,0,0,1,1.8008.5566,1.9824,1.9824,0,0,1,.6357,1.5747v3.2686h.6963v.96Zm-2.6992-.7558a1.8724,1.8724,0,0,0,1.0918-.3.9038.9038,0,0,0,.4316-.7681v-.96h-1.1875a2.1338,2.1338,0,0,0-1.123.2281.739.739,0,0,0-.3536.66v.24a.7858.7858,0,0,0,.3067.6655A1.3371,1.3371,0,0,0,135.293,37.2388Z"/><path class="cls-2" d="M141.124,37.9946a1.14,1.14,0,0,1-.87-.312,1.161,1.161,0,0,1-.2939-.8281v-7.74h1.1162v7.92h.8877v.96Z"/><path class="cls-2" d="M147.0156,31.7788h1.08l-2.6992,7.5718a3.2213,3.2213,0,0,1-.2285.4922,1.0055,1.0055,0,0,1-.294.3237,1.177,1.177,0,0,1-.414.1743,2.822,2.822,0,0,1-.6006.0537h-.6114v-.96h1.02l.42-1.1983-2.3027-6.4575H143.5l1.38,3.9639.3242,1.1616h.06l.36-1.1616Z"/><path class="cls-2" d="M148.6729,37.9946v-.936l3.4443-4.32h-3.336v-.96h4.668v.8638l-3.5039,4.3921h3.6v.96Z"/><path class="cls-2" d="M157.1924,38.1387a2.8368,2.8368,0,0,1-1.17-.2339,2.5344,2.5344,0,0,1-.8877-.6543,2.9326,2.9326,0,0,1-.5645-1.02,4.6548,4.6548,0,0,1,0-2.6817,2.9311,2.9311,0,0,1,.5645-1.0263,2.5319,2.5319,0,0,1,.8877-.6538,2.8272,2.8272,0,0,1,1.17-.2339,2.7591,2.7591,0,0,1,1.1582.2329,2.4691,2.4691,0,0,1,.8584.64,2.7641,2.7641,0,0,1,.5273.9688,3.9314,3.9314,0,0,1,.18,1.2075V35.15h-4.3789v.2524a1.8193,1.8193,0,0,0,.4551,1.2779,1.6708,1.6708,0,0,0,1.2969.498,1.8573,1.8573,0,0,0,1.0078-.2641,1.899,1.899,0,0,0,.6718-.7442l.72.6162a2.4175,2.4175,0,0,1-.9717.9839A3.0376,3.0376,0,0,1,157.1924,38.1387Zm0-5.604a1.6762,1.6762,0,0,0-.666.1313,1.5909,1.5909,0,0,0-.5284.3633,1.6139,1.6139,0,0,0-.3418.5547,1.9955,1.9955,0,0,0-.1191.7031v.0835h3.1914v-.1191a1.82,1.82,0,0,0-.414-1.2456A1.4176,1.4176,0,0,0,157.1924,32.5347Z"/><path class="cls-2" d="M168.1,31.7788h1.08l-2.6992,7.5718a3.2213,3.2213,0,0,1-.2285.4922,1.0055,1.0055,0,0,1-.294.3237,1.1767,1.1767,0,0,1-.4141.1743,2.82,2.82,0,0,1-.6005.0537h-.6114v-.96h1.02l.42-1.1983-2.3028-6.4575h1.1153l1.38,3.9639.3242,1.1616h.06l.36-1.1616Z"/><path class="cls-2" d="M172.66,38.1387a2.8644,2.8644,0,0,1-1.1582-.2281,2.5074,2.5074,0,0,1-.8946-.6538,3.0082,3.0082,0,0,1-.5752-1.0263,4.5272,4.5272,0,0,1,0-2.688,3.0119,3.0119,0,0,1,.5752-1.0259,2.5074,2.5074,0,0,1,.8946-.6538,3.0557,3.0557,0,0,1,2.3164,0,2.5034,2.5034,0,0,1,.8935.6538,3.0121,3.0121,0,0,1,.5762,1.0259,4.5272,4.5272,0,0,1,0,2.688,3.0083,3.0083,0,0,1-.5762,1.0263,2.5034,2.5034,0,0,1-.8935.6538A2.8651,2.8651,0,0,1,172.66,38.1387Zm0-.96a1.6043,1.6043,0,0,0,1.1875-.456,1.8559,1.8559,0,0,0,.457-1.3682v-.936a1.8553,1.8553,0,0,0-.457-1.3677,1.7739,1.7739,0,0,0-2.375,0,1.8549,1.8549,0,0,0-.4571,1.3677v.936a1.8556,1.8556,0,0,0,.4571,1.3682A1.6025,1.6025,0,0,0,172.66,37.1787Z"/><path class="cls-2" d="M180.82,36.9863h-.06a2.1167,2.1167,0,0,1-.2217.4336,1.5191,1.5191,0,0,1-.3477.3682,1.6745,1.6745,0,0,1-.498.2554,2.15,2.15,0,0,1-.6729.0952,1.9149,1.9149,0,0,1-1.5117-.6241,2.5793,2.5793,0,0,1-.5517-1.7641V31.7788h1.1162v3.8125q0,1.5872,1.32,1.5874a2.0768,2.0768,0,0,0,.5215-.0664,1.3218,1.3218,0,0,0,.456-.21,1.17,1.17,0,0,0,.3242-.36.9876.9876,0,0,0,.126-.5054V31.7788h1.1152v6.2158H180.82Z"/><path class="cls-2" d="M183.9043,37.9946V31.7788H185.02v1.188h.0606a1.7224,1.7224,0,0,1,.2158-.4443,1.5368,1.5368,0,0,1,.36-.378,1.844,1.844,0,0,1,.51-.2636,2.0247,2.0247,0,0,1,.666-.1021h.3721v1.1157h-.5518a2.1823,2.1823,0,0,0-1.207.2823.8537.8537,0,0,0-.4258.7378v4.08Z"/><path class="cls-2" d="M193.252,37.9946l-2.7715-8.3759h1.2236l1.3564,4.1879.875,3.0479h.0606l.8877-3.0479,1.3564-4.1879h1.1875l-2.7959,8.3759Z"/><path class="cls-2" d="M199.2031,30.4824a.6807.6807,0,0,1-.51-.1679.6143.6143,0,0,1-.1622-.4439v-.168a.6141.6141,0,0,1,.1622-.4438.8589.8589,0,0,1,1.02,0,.61.61,0,0,1,.1621.4438v.168a.6105.6105,0,0,1-.1621.4439A.6819.6819,0,0,1,199.2031,30.4824Zm-.5635,1.2964h1.1163v6.2158H198.64Z"/><path class="cls-2" d="M201.7236,37.9946V31.7788H202.84v1.188H202.9a1.7217,1.7217,0,0,1,.2148-.4443,1.554,1.554,0,0,1,.36-.378,1.8356,1.8356,0,0,1,.5107-.2636,2.0247,2.0247,0,0,1,.666-.1021h.3711v1.1157h-.5517a2.1767,2.1767,0,0,0-1.2061.2823.8515.8515,0,0,0-.4258.7378v4.08Z"/><path class="cls-2" d="M207.7949,37.9946a1.147,1.147,0,0,1-.875-.3174,1.1937,1.1937,0,0,1-.3008-.8559V32.7388h-.9961v-.96h.5528a.568.568,0,0,0,.4316-.1323.6543.6543,0,0,0,.12-.4439v-1.14h1.0088v1.7163h1.3311v.96h-1.3311v4.2959h1.2354v.96Z"/><path class="cls-2" d="M214.3594,36.9863h-.06a2.1167,2.1167,0,0,1-.2217.4336,1.54,1.54,0,0,1-.3476.3682,1.701,1.701,0,0,1-.4981.2554,2.1533,2.1533,0,0,1-.6728.0952,1.9146,1.9146,0,0,1-1.5117-.6241,2.5743,2.5743,0,0,1-.5518-1.7641V31.7788h1.1152v3.8125q0,1.5872,1.32,1.5874a2.0768,2.0768,0,0,0,.5215-.0664,1.3359,1.3359,0,0,0,.4571-.21,1.173,1.173,0,0,0,.3242-.36.9872.9872,0,0,0,.125-.5054V31.7788h1.1162v6.2158h-1.1162Z"/><path class="cls-2" d="M221.9668,37.9946a.9852.9852,0,0,1-.7734-.2881,1.3551,1.3551,0,0,1-.3184-.7441h-.06a1.6064,1.6064,0,0,1-.66.8765,2.0711,2.0711,0,0,1-1.14.3,2.1442,2.1442,0,0,1-1.5117-.4981,1.7609,1.7609,0,0,1-.541-1.3618,1.5928,1.5928,0,0,1,.6543-1.374,3.4134,3.4134,0,0,1,1.998-.4741h1.1758v-.564a1.2968,1.2968,0,0,0-.3359-.96,1.4223,1.4223,0,0,0-1.043-.3359,1.6093,1.6093,0,0,0-.918.2456,2.0224,2.0224,0,0,0-.6064.6421l-.6729-.6118a2.3792,2.3792,0,0,1,.834-.8579,2.6177,2.6177,0,0,1,1.4229-.354,2.6455,2.6455,0,0,1,1.8.5566,1.983,1.983,0,0,1,.6367,1.5747v3.2686h.6953v.96Zm-2.6992-.7558a1.87,1.87,0,0,0,1.0918-.3.9015.9015,0,0,0,.4316-.7681v-.96h-1.1875a2.13,2.13,0,0,0-1.1221.2281.74.74,0,0,0-.3544.66v.24a.7884.7884,0,0,0,.3066.6655A1.3411,1.3411,0,0,0,219.2676,37.2388Z"/><path class="cls-2" d="M225.1,37.9946a1.1428,1.1428,0,0,1-.8711-.312,1.16,1.16,0,0,1-.293-.8281v-7.74h1.1153v7.92h.8887v.96Z"/><path class="cls-2" d="M46.2773,52.3945V44.0186h3.4561a2.75,2.75,0,0,1,1.0078.1738,2.0443,2.0443,0,0,1,.75.498,2.11,2.11,0,0,1,.4619.78,3.3479,3.3479,0,0,1,0,2.022,2.12,2.12,0,0,1-.4619.7739,2.0443,2.0443,0,0,1-.75.498,2.7483,2.7483,0,0,1-1.0078.1739h-2.292v3.456Zm1.1641-4.4878h2.2441a1.2238,1.2238,0,0,0,.875-.2944,1.0863,1.0863,0,0,0,.3125-.834v-.6a1.0864,1.0864,0,0,0-.3125-.834,1.2238,1.2238,0,0,0-.875-.2944H47.4414Z"/><path class="cls-2" d="M53.4531,52.3945V46.1787h1.1162v1.188h.06a1.76,1.76,0,0,1,.2168-.4443,1.513,1.513,0,0,1,.3594-.378,1.8706,1.8706,0,0,1,.51-.2636,2.0292,2.0292,0,0,1,.6661-.1021h.373v1.1157h-.5527a2.1788,2.1788,0,0,0-1.2061.2823.8515.8515,0,0,0-.4258.7378v4.08Z"/><path class="cls-2" d="M58.5176,44.8823a.6779.6779,0,0,1-.51-.1679.6105.6105,0,0,1-.1621-.4439v-.168a.61.61,0,0,1,.1621-.4438.8573.8573,0,0,1,1.0195,0,.6141.6141,0,0,1,.1622.4438v.168a.6143.6143,0,0,1-.1622.4439A.6791.6791,0,0,1,58.5176,44.8823Zm-.5645,1.2964h1.1162v6.2158H57.9531Z"/><path class="cls-2" d="M62.3926,52.3945l-2.1475-6.2158h1.1162l1.02,2.9756.6484,2.1484h.0723l.66-2.1484,1.0313-2.9756h1.0683l-2.16,6.2158Z"/><path class="cls-2" d="M71.4531,52.3945a.9855.9855,0,0,1-.7734-.2881,1.3484,1.3484,0,0,1-.3184-.7441h-.0605a1.5978,1.5978,0,0,1-.66.8765,2.0673,2.0673,0,0,1-1.1386.3,2.1482,2.1482,0,0,1-1.5127-.4981,1.76,1.76,0,0,1-.54-1.3618,1.5906,1.5906,0,0,1,.6543-1.374,3.4139,3.4139,0,0,1,1.9981-.4741h1.1757v-.564a1.3008,1.3008,0,0,0-.3359-.96,1.4247,1.4247,0,0,0-1.0439-.3359,1.6113,1.6113,0,0,0-.918.2456,2.0338,2.0338,0,0,0-.6065.6421l-.6718-.6118a2.363,2.363,0,0,1,.834-.8579,2.6114,2.6114,0,0,1,1.4218-.354,2.65,2.65,0,0,1,1.8008.5566,1.9824,1.9824,0,0,1,.6358,1.5747v3.2686H72.09v.96Zm-2.6992-.7558a1.8722,1.8722,0,0,0,1.0918-.3.9038.9038,0,0,0,.4316-.7681v-.96H69.09a2.134,2.134,0,0,0-1.123.228.739.739,0,0,0-.3535.66v.24a.7857.7857,0,0,0,.3066.6655A1.3373,1.3373,0,0,0,68.7539,51.6387Z"/><path class="cls-2" d="M74.9336,52.3945a1.1518,1.1518,0,0,1-.877-.3174,1.197,1.197,0,0,1-.2988-.8559V47.1387h-.9961v-.96h.5518a.5665.5665,0,0,0,.4316-.1323.6543.6543,0,0,0,.12-.4439v-1.14H74.873v1.7163h1.3321v.96H74.873v4.2959h1.2364v.96Z"/><path class="cls-2" d="M80.0215,52.5386a2.8335,2.8335,0,0,1-1.17-.2339,2.5382,2.5382,0,0,1-.8887-.6543,2.9326,2.9326,0,0,1-.5645-1.02,4.6571,4.6571,0,0,1,0-2.6817,2.9311,2.9311,0,0,1,.5645-1.0263,2.5357,2.5357,0,0,1,.8887-.6538,2.8239,2.8239,0,0,1,1.17-.2339,2.7624,2.7624,0,0,1,1.1582.2329,2.4653,2.4653,0,0,1,.8574.64,2.75,2.75,0,0,1,.5274.9688,3.9044,3.9044,0,0,1,.1806,1.2075V49.55h-4.38v.2524a1.82,1.82,0,0,0,.4561,1.2779,1.6671,1.6671,0,0,0,1.2959.498,1.8525,1.8525,0,0,0,1.0078-.2641,1.8925,1.8925,0,0,0,.6719-.7442l.7207.6162a2.4256,2.4256,0,0,1-.9727.9839A3.0337,3.0337,0,0,1,80.0215,52.5386Zm0-5.604a1.6692,1.6692,0,0,0-.666.1313,1.5808,1.5808,0,0,0-.5284.3633,1.5987,1.5987,0,0,0-.3417.5547,1.9933,1.9933,0,0,0-.12.7031v.0835h3.1914v-.1191a1.8153,1.8153,0,0,0-.414-1.2456A1.4155,1.4155,0,0,0,80.0215,46.9346Z"/><path class="cls-2" d="M90.2334,52.5386a3.1021,3.1021,0,0,1-2.5264-1.11,4.9464,4.9464,0,0,1-.9179-3.2222,4.9471,4.9471,0,0,1,.9179-3.2221,3.1021,3.1021,0,0,1,2.5264-1.11,3.2112,3.2112,0,0,1,1.7939.4746,3.1362,3.1362,0,0,1,1.1338,1.3736l-.96.5517a2.2344,2.2344,0,0,0-.7266-.9961,2.2173,2.2173,0,0,0-2.8555.3389,2.9883,2.9883,0,0,0-.582,1.9512v1.2763a2.9883,2.9883,0,0,0,.582,1.9512,1.9726,1.9726,0,0,0,1.6143.71,2.02,2.02,0,0,0,1.29-.4018,2.3437,2.3437,0,0,0,.75-1.05l.9356.564a3.3084,3.3084,0,0,1-1.1582,1.41A3.1514,3.1514,0,0,1,90.2334,52.5386Z"/><path class="cls-2" d="M95.7891,52.3945a1.1406,1.1406,0,0,1-.87-.312,1.1571,1.1571,0,0,1-.2939-.8281v-7.74h1.1162v7.92h.8877v.96Z"/><path class="cls-2" d="M100.35,52.5386a2.8617,2.8617,0,0,1-1.1582-.2281,2.5062,2.5062,0,0,1-.8945-.6538,3.0233,3.0233,0,0,1-.5762-1.0263,4.5485,4.5485,0,0,1,0-2.688,3.0271,3.0271,0,0,1,.5762-1.0259,2.5074,2.5074,0,0,1,.8945-.6538,3.0532,3.0532,0,0,1,2.3154,0,2.4963,2.4963,0,0,1,.8936.6538,3.0138,3.0138,0,0,1,.5762,1.0259,4.5082,4.5082,0,0,1,0,2.688,3.01,3.01,0,0,1-.5762,1.0263,2.4951,2.4951,0,0,1-.8936.6538A2.86,2.86,0,0,1,100.35,52.5386Zm0-.96a1.6072,1.6072,0,0,0,1.1875-.456,1.8594,1.8594,0,0,0,.4561-1.3682v-.936a1.8588,1.8588,0,0,0-.4561-1.3677,1.7752,1.7752,0,0,0-2.376,0,1.8588,1.8588,0,0,0-.456,1.3677v.936a1.8594,1.8594,0,0,0,.456,1.3682A1.6064,1.6064,0,0,0,100.35,51.5786Z"/><path class="cls-2" d="M108.5088,51.3862h-.06a2.1642,2.1642,0,0,1-.2226.4336,1.5191,1.5191,0,0,1-.3477.3682,1.6992,1.6992,0,0,1-.498.2554,2.1478,2.1478,0,0,1-.6719.0952,1.9124,1.9124,0,0,1-1.5117-.624,2.57,2.57,0,0,1-.5528-1.7642V46.1787h1.1162v3.8125q0,1.5872,1.3194,1.5874a2.0832,2.0832,0,0,0,.5224-.0664,1.3214,1.3214,0,0,0,.4561-.21,1.1605,1.1605,0,0,0,.3242-.36.9876.9876,0,0,0,.126-.5054V46.1787h1.1162v6.2158h-1.1162Z"/><path class="cls-2" d="M115.5293,51.3862h-.0488a1.6791,1.6791,0,0,1-.6778.8614,2.0419,2.0419,0,0,1-1.1093.291,2.3984,2.3984,0,0,1-1.0508-.2222,2.1362,2.1362,0,0,1-.7852-.6479,2.9932,2.9932,0,0,1-.4922-1.0259,5.5592,5.5592,0,0,1,0-2.7119,3,3,0,0,1,.4922-1.0264,2.1463,2.1463,0,0,1,.7852-.648,2.4,2.4,0,0,1,1.0508-.2216,2.041,2.041,0,0,1,1.1093.291,1.68,1.68,0,0,1,.6778.8613h.0488V43.5146h1.1152v8.88h-1.1152Zm-1.5117.1924a2.01,2.01,0,0,0,.5879-.0845,1.4947,1.4947,0,0,0,.4795-.2412,1.2582,1.2582,0,0,0,.3232-.3618.8906.8906,0,0,0,.1211-.4585v-2.292a.8909.8909,0,0,0-.1211-.4585,1.2582,1.2582,0,0,0-.3232-.3618,1.4968,1.4968,0,0,0-.4795-.2412,2.01,2.01,0,0,0-.5879-.0845,1.5344,1.5344,0,0,0-1.1953.4825,1.8335,1.8335,0,0,0-.4375,1.2788v1.0615a1.8339,1.8339,0,0,0,.4375,1.2788A1.5343,1.5343,0,0,0,114.0176,51.5786Z"/><path class="cls-2" d="M121.4443,52.3945V46.1787h1.1162V47.187h.0606a2.0264,2.0264,0,0,1,.6289-.8315,1.7889,1.7889,0,0,1,1.123-.3208,1.9,1.9,0,0,1,1.5059.624,2.597,2.597,0,0,1,.5449,1.7637v3.9721h-1.1152V48.582q0-1.5872-1.3086-1.5874a1.9615,1.9615,0,0,0-.5332.0723,1.577,1.577,0,0,0-.4629.21,1.0311,1.0311,0,0,0-.3232.3487.9893.9893,0,0,0-.12.499v4.27Z"/><path class="cls-2" d="M130.6963,52.5386a2.8368,2.8368,0,0,1-1.17-.2339,2.5344,2.5344,0,0,1-.8877-.6543,2.9326,2.9326,0,0,1-.5645-1.02,4.6571,4.6571,0,0,1,0-2.6817,2.9311,2.9311,0,0,1,.5645-1.0263,2.5319,2.5319,0,0,1,.8877-.6538,2.8272,2.8272,0,0,1,1.17-.2339,2.7591,2.7591,0,0,1,1.1582.2329,2.4691,2.4691,0,0,1,.8584.64,2.7641,2.7641,0,0,1,.5273.9688,3.9284,3.9284,0,0,1,.18,1.2075V49.55H129.041v.2524a1.8193,1.8193,0,0,0,.4551,1.2779,1.6708,1.6708,0,0,0,1.2969.498,1.8573,1.8573,0,0,0,1.0078-.2641,1.9,1.9,0,0,0,.6719-.7442l.72.6162a2.4175,2.4175,0,0,1-.9717.9839A3.0376,3.0376,0,0,1,130.6963,52.5386Zm0-5.604a1.6762,1.6762,0,0,0-.666.1313,1.59,1.59,0,0,0-.5283.3633,1.6109,1.6109,0,0,0-.3418.5547,1.9932,1.9932,0,0,0-.1192.7031v.0835h3.1914v-.1191a1.82,1.82,0,0,0-.414-1.2456A1.4176,1.4176,0,0,0,130.6963,46.9346Z"/><path class="cls-2" d="M136.4687,52.3945a1.1517,1.1517,0,0,1-.8769-.3174,1.197,1.197,0,0,1-.2988-.8559V47.1387h-.9961v-.96h.5517a.5668.5668,0,0,0,.4317-.1323.6543.6543,0,0,0,.12-.4439v-1.14h1.0078v1.7163h1.332v.96h-1.332v4.2959h1.2363v.96Z"/><path class="cls-2" d="M138.5918,46.1787h1.08l.6484,2.6519.624,2.5561h.0244l.7071-2.5561.7685-2.6519h.9952l.7929,2.6519.72,2.5561h.0362l.5879-2.5561.66-2.6519h1.044l-1.6563,6.2158h-1.3193l-.84-2.916-.5293-1.8242h-.0234l-.5156,1.8242-.84,2.916H140.26Z"/><path class="cls-2" d="M150.9277,52.5386a2.8685,2.8685,0,0,1-1.1582-.2281,2.5034,2.5034,0,0,1-.8935-.6538,2.9884,2.9884,0,0,1-.5752-1.0263,4.5061,4.5061,0,0,1,0-2.688,2.9921,2.9921,0,0,1,.5752-1.0259,2.5046,2.5046,0,0,1,.8935-.6538,3.0557,3.0557,0,0,1,2.3164,0,2.5086,2.5086,0,0,1,.8946.6538,3.0286,3.0286,0,0,1,.5761,1.0259,4.5463,4.5463,0,0,1,0,2.688,3.0248,3.0248,0,0,1-.5761,1.0263,2.5074,2.5074,0,0,1-.8946.6538A2.8644,2.8644,0,0,1,150.9277,52.5386Zm0-.96a1.6064,1.6064,0,0,0,1.1885-.456,1.8594,1.8594,0,0,0,.4561-1.3682v-.936a1.8588,1.8588,0,0,0-.4561-1.3677,1.7752,1.7752,0,0,0-2.376,0,1.8546,1.8546,0,0,0-.456,1.3677v.936a1.8553,1.8553,0,0,0,.456,1.3682A1.6042,1.6042,0,0,0,150.9277,51.5786Z"/><path class="cls-2" d="M155.2842,52.3945V46.1787H156.4v1.188h.0605a1.7221,1.7221,0,0,1,.2149-.4443,1.5555,1.5555,0,0,1,.36-.378,1.8363,1.8363,0,0,1,.5108-.2636,2.0243,2.0243,0,0,1,.666-.1021h.3711v1.1157h-.5518a2.1763,2.1763,0,0,0-1.206.2823.8515.8515,0,0,0-.4258.7378v4.08Z"/><path class="cls-2" d="M159.7842,43.5146H160.9v5.5318h.0605l.8868-1.0918,1.621-1.7759h1.3194l-2.208,2.4,2.4961,3.8159h-1.3438l-1.9443-3.0962-.8877.9483v2.1479h-1.1162Z"/><path class="cls-2" d="M169.624,44.8823a.6807.6807,0,0,1-.51-.1679.6106.6106,0,0,1-.1622-.4439v-.168a.61.61,0,0,1,.1622-.4438.8589.8589,0,0,1,1.0205,0,.6144.6144,0,0,1,.1621.4438v.168a.6147.6147,0,0,1-.1621.4439A.6833.6833,0,0,1,169.624,44.8823Zm-.5635,1.2964h1.1153v6.2158h-1.1153Z"/><path class="cls-2" d="M172.1445,52.3945V46.1787H173.26V47.187h.06a2.0285,2.0285,0,0,1,.63-.8315,1.7859,1.7859,0,0,1,1.1221-.3208,1.897,1.897,0,0,1,1.5058.624,2.5972,2.5972,0,0,1,.5459,1.7637v3.9721h-1.1162V48.582q0-1.5872-1.3076-1.5874a1.9634,1.9634,0,0,0-.5342.0723,1.5594,1.5594,0,0,0-.4619.21,1.0311,1.0311,0,0,0-.3232.3487.99.99,0,0,0-.1211.499v4.27Z"/><path class="cls-2" d="M180.5439,52.3945a1.1493,1.1493,0,0,1-.8759-.3174,1.1971,1.1971,0,0,1-.3-.8559V47.1387h-.9961v-.96h.5517a.5668.5668,0,0,0,.4317-.1323.6546.6546,0,0,0,.1211-.4439v-1.14h1.0078v1.7163h1.332v.96h-1.332v4.2959h1.2363v.96Z"/><path class="cls-2" d="M185.6318,52.5386a2.8371,2.8371,0,0,1-1.17-.2339,2.5362,2.5362,0,0,1-.8877-.6543,2.934,2.934,0,0,1-.5644-1.02,4.6548,4.6548,0,0,1,0-2.6817,2.9325,2.9325,0,0,1,.5644-1.0263,2.5337,2.5337,0,0,1,.8877-.6538,2.8275,2.8275,0,0,1,1.17-.2339,2.7588,2.7588,0,0,1,1.1582.2329,2.4682,2.4682,0,0,1,.8584.64,2.7642,2.7642,0,0,1,.5274.9688,3.9314,3.9314,0,0,1,.18,1.2075V49.55h-4.3789v.2524a1.8193,1.8193,0,0,0,.455,1.2779,1.671,1.671,0,0,0,1.2969.498,1.857,1.857,0,0,0,1.0078-.2641,1.9,1.9,0,0,0,.6719-.7442l.72.6162a2.4169,2.4169,0,0,1-.9717.9839A3.0376,3.0376,0,0,1,185.6318,52.5386Zm0-5.604a1.6766,1.6766,0,0,0-.666.1313,1.59,1.59,0,0,0-.5283.3633,1.6124,1.6124,0,0,0-.3418.5547,1.9932,1.9932,0,0,0-.1191.7031v.0835h3.1914v-.1191a1.82,1.82,0,0,0-.4141-1.2456A1.4176,1.4176,0,0,0,185.6318,46.9346Z"/><path class="cls-2" d="M189.8789,52.3945V46.1787h1.1172v1.188h.06a1.7554,1.7554,0,0,1,.2158-.4443,1.5311,1.5311,0,0,1,.3594-.378,1.8625,1.8625,0,0,1,.5107-.2636,2.029,2.029,0,0,1,.666-.1021h.3721v1.1157h-.5527a2.1728,2.1728,0,0,0-1.2051.2823.8494.8494,0,0,0-.4258.7378v4.08Z"/><path class="cls-2" d="M194.7754,47.1387h-.9961v-.96h.9961V45.0264a1.6119,1.6119,0,0,1,.36-1.0977,1.3683,1.3683,0,0,1,1.0918-.4141h.9717v.96h-1.3076v1.7041h1.3076v.96h-1.3076v5.2558h-1.1162Z"/><path class="cls-2" d="M202.9355,52.3945a.9855.9855,0,0,1-.7734-.2881,1.3484,1.3484,0,0,1-.3184-.7441h-.0605a1.5978,1.5978,0,0,1-.66.8765,2.0673,2.0673,0,0,1-1.1386.3,2.1482,2.1482,0,0,1-1.5127-.4981,1.76,1.76,0,0,1-.54-1.3618,1.5906,1.5906,0,0,1,.6543-1.374,3.4139,3.4139,0,0,1,1.9981-.4741H201.76v-.564a1.3,1.3,0,0,0-.336-.96,1.4245,1.4245,0,0,0-1.0439-.3359,1.6113,1.6113,0,0,0-.918.2456,2.0324,2.0324,0,0,0-.6064.6421l-.6719-.6118a2.363,2.363,0,0,1,.834-.8579,2.6115,2.6115,0,0,1,1.4219-.354,2.65,2.65,0,0,1,1.8007.5566,1.9821,1.9821,0,0,1,.6358,1.5747v3.2686h.6963v.96Zm-2.6992-.7558a1.872,1.872,0,0,0,1.0918-.3.9039.9039,0,0,0,.4317-.7681v-.96h-1.1875a2.1344,2.1344,0,0,0-1.1231.228.7392.7392,0,0,0-.3535.66v.24a.786.786,0,0,0,.3066.6655A1.3375,1.3375,0,0,0,200.2363,51.6387Z"/><path class="cls-2" d="M207.2559,52.5386a2.9129,2.9129,0,0,1-1.1885-.2281,2.4227,2.4227,0,0,1-.876-.6479,2.8257,2.8257,0,0,1-.5459-1.0259,4.591,4.591,0,0,1-.1865-1.35,4.5319,4.5319,0,0,1,.1865-1.3442,2.8953,2.8953,0,0,1,.5459-1.0259,2.4,2.4,0,0,1,.876-.6538,2.9129,2.9129,0,0,1,1.1885-.228,2.5458,2.5458,0,0,1,1.5.4077,2.42,2.42,0,0,1,.8515,1.08l-.9238.456a1.4376,1.4376,0,0,0-.5215-.72,1.5116,1.5116,0,0,0-.9062-.2637,1.4686,1.4686,0,0,0-1.2071.4917,1.93,1.93,0,0,0-.4013,1.26v1.08a1.9275,1.9275,0,0,0,.4013,1.26,1.4671,1.4671,0,0,0,1.2071.4922,1.5988,1.5988,0,0,0,.9589-.2759,1.9907,1.9907,0,0,0,.625-.78l.8155.5039a2.455,2.455,0,0,1-.8994,1.11A2.6421,2.6421,0,0,1,207.2559,52.5386Z"/><path class="cls-2" d="M213.2676,52.5386a2.8335,2.8335,0,0,1-1.17-.2339,2.5382,2.5382,0,0,1-.8887-.6543,2.9326,2.9326,0,0,1-.5645-1.02,4.6571,4.6571,0,0,1,0-2.6817,2.9311,2.9311,0,0,1,.5645-1.0263,2.5357,2.5357,0,0,1,.8887-.6538,2.8239,2.8239,0,0,1,1.17-.2339,2.7624,2.7624,0,0,1,1.1582.2329,2.4653,2.4653,0,0,1,.8574.64,2.7481,2.7481,0,0,1,.5273.9688,3.9015,3.9015,0,0,1,.1807,1.2075V49.55h-4.38v.2524a1.82,1.82,0,0,0,.4561,1.2779,1.6671,1.6671,0,0,0,1.2959.498,1.8525,1.8525,0,0,0,1.0078-.2641,1.8925,1.8925,0,0,0,.6719-.7442l.7207.6162a2.4256,2.4256,0,0,1-.9727.9839A3.0337,3.0337,0,0,1,213.2676,52.5386Zm0-5.604a1.6692,1.6692,0,0,0-.666.1313,1.5808,1.5808,0,0,0-.5284.3633,1.5989,1.5989,0,0,0-.3418.5547,1.9956,1.9956,0,0,0-.12.7031v.0835h3.1914v-.1191a1.8153,1.8153,0,0,0-.414-1.2456A1.4155,1.4155,0,0,0,213.2676,46.9346Z"/><path class="cls-2" d="M47.3457,66.7944a1.1428,1.1428,0,0,1-.8711-.312,1.16,1.16,0,0,1-.293-.8281v-7.74h1.1153v7.92h.8886v.96Z"/><path class="cls-2" d="M51.9053,66.9385a2.8648,2.8648,0,0,1-1.1582-.2281,2.5038,2.5038,0,0,1-.8936-.6538,3.01,3.01,0,0,1-.5762-1.0263,4.5272,4.5272,0,0,1,0-2.688,3.0138,3.0138,0,0,1,.5762-1.0259,2.505,2.505,0,0,1,.8936-.6538,3.0532,3.0532,0,0,1,2.3154,0,2.5,2.5,0,0,1,.8945.6538,3.0271,3.0271,0,0,1,.5762,1.0259,4.5272,4.5272,0,0,1,0,2.688,3.0233,3.0233,0,0,1-.5762,1.0263,2.4983,2.4983,0,0,1-.8945.6538A2.86,2.86,0,0,1,51.9053,66.9385Zm0-.96a1.6091,1.6091,0,0,0,1.1884-.456,1.8629,1.8629,0,0,0,.4551-1.3682v-.936a1.8625,1.8625,0,0,0-.4551-1.3677,1.7764,1.7764,0,0,0-2.3769,0,1.8587,1.8587,0,0,0-.4551,1.3677v.936a1.8592,1.8592,0,0,0,.4551,1.3682A1.6079,1.6079,0,0,0,51.9053,65.9785Z"/><path class="cls-2" d="M61.6016,67.4238a1.5864,1.5864,0,0,1-.75,1.4453,4.5191,4.5191,0,0,1-2.334.4693,4.2562,4.2562,0,0,1-2.1309-.3965,1.2455,1.2455,0,0,1-.6416-1.1172,1.1141,1.1141,0,0,1,.27-.7925,1.4918,1.4918,0,0,1,.75-.4087v-.1323a.9026.9026,0,0,1-.6123-.916.8794.8794,0,0,1,.3115-.7227,1.9043,1.9043,0,0,1,.7686-.3618v-.0483a1.9742,1.9742,0,0,1-.8525-.7476,2.1094,2.1094,0,0,1-.2989-1.1308,2.1545,2.1545,0,0,1,.168-.8614,1.9327,1.9327,0,0,1,.4727-.6757,2.1585,2.1585,0,0,1,.75-.4371,3.052,3.052,0,0,1,1.0087-.1552,3.0023,3.0023,0,0,1,.6123.06,3.564,3.564,0,0,1,.5391.1558v-.1318a.9874.9874,0,0,1,.1807-.6182.68.68,0,0,1,.5752-.2339h.9492v.936H60.1133v.335a1.9026,1.9026,0,0,1,.78,1.627,2.1724,2.1724,0,0,1-.168.8618,1.8436,1.8436,0,0,1-.48.67,2.2507,2.2507,0,0,1-.7558.4307,3.03,3.03,0,0,1-1.0079.1557c-.12,0-.24-.0063-.36-.018a2.769,2.769,0,0,1-.3359-.0542,1.6717,1.6717,0,0,0-.4922.24.493.493,0,0,0-.2159.42.3647.3647,0,0,0,.2461.3721,1.8812,1.8812,0,0,0,.6661.0957h1.416a2.5326,2.5326,0,0,1,1.6738.4516A1.5454,1.5454,0,0,1,61.6016,67.4238Zm-1.045.1148a.6712.6712,0,0,0-.27-.5581,1.6032,1.6032,0,0,0-.9531-.21H57.2451a.8649.8649,0,0,0-.1982,1.4458,1.5725,1.5725,0,0,0,1.039.27h.84a2.5308,2.5308,0,0,0,1.2109-.2339A.7635.7635,0,0,0,60.5566,67.5386Zm-2.0634-3.6963a1.4679,1.4679,0,0,0,.9423-.2744,1.0208,1.0208,0,0,0,.3418-.8482v-.3105a1.021,1.021,0,0,0-.3418-.8482,1.7553,1.7553,0,0,0-1.8847,0,1.0239,1.0239,0,0,0-.3418.8482V62.72a1.0238,1.0238,0,0,0,.3418.8482A1.468,1.468,0,0,0,58.4932,63.8423Z"/><path class="cls-2" d="M64.5645,66.9385a3.0013,3.0013,0,0,1-1.4571-.3242,3.2939,3.2939,0,0,1-1.0263-.876l.7558-.648a2.5536,2.5536,0,0,0,.7861.6841,2.0712,2.0712,0,0,0,1.0137.24,1.4488,1.4488,0,0,0,.9121-.246.8919.8919,0,0,0,.1016-1.254,1.3234,1.3234,0,0,0-.7852-.312l-.5283-.0839a4.0323,4.0323,0,0,1-.8154-.1924,2.1006,2.1006,0,0,1-.6367-.3477,1.5242,1.5242,0,0,1-.4141-.5283,1.708,1.708,0,0,1-.15-.7437,1.8766,1.8766,0,0,1,.168-.81,1.616,1.616,0,0,1,.4687-.5884,2.09,2.09,0,0,1,.7139-.354,3.2559,3.2559,0,0,1,.9053-.12,2.9393,2.9393,0,0,1,1.32.2636,2.8989,2.8989,0,0,1,.9238.7325l-.707.6718a2.0065,2.0065,0,0,0-.6192-.5219,1.8973,1.8973,0,0,0-.9531-.2222,1.3,1.3,0,0,0-.8584.24.792.792,0,0,0-.2822.6358.6963.6963,0,0,0,.2705.6118,1.9279,1.9279,0,0,0,.81.2764l.5283.0839a2.6415,2.6415,0,0,1,1.4814.6,1.5593,1.5593,0,0,1,.4512,1.1636,1.7735,1.7735,0,0,1-.6367,1.44A2.6418,2.6418,0,0,1,64.5645,66.9385Z"/><path class="cls-2" d="M72.8926,66.7944a1.15,1.15,0,0,1-.876-.3173,1.1936,1.1936,0,0,1-.3-.856V61.5386h-.9961v-.96h.5527a.5681.5681,0,0,0,.4317-.1323.6547.6547,0,0,0,.1191-.4439v-1.14H72.833v1.7163h1.3311v.96H72.833v4.2959h1.2354v.96Z"/><path class="cls-2" d="M77.9932,66.9385A2.8648,2.8648,0,0,1,76.835,66.71a2.5038,2.5038,0,0,1-.8936-.6538,3.01,3.01,0,0,1-.5762-1.0263,4.5272,4.5272,0,0,1,0-2.688,3.0138,3.0138,0,0,1,.5762-1.0259,2.505,2.505,0,0,1,.8936-.6538,3.0532,3.0532,0,0,1,2.3154,0,2.5,2.5,0,0,1,.8945.6538,3.0271,3.0271,0,0,1,.5762,1.0259,4.5272,4.5272,0,0,1,0,2.688,3.0233,3.0233,0,0,1-.5762,1.0263,2.4983,2.4983,0,0,1-.8945.6538A2.86,2.86,0,0,1,77.9932,66.9385Zm0-.96a1.6091,1.6091,0,0,0,1.1884-.456,1.8629,1.8629,0,0,0,.4551-1.3682v-.936a1.8625,1.8625,0,0,0-.4551-1.3677,1.7764,1.7764,0,0,0-2.3769,0,1.8587,1.8587,0,0,0-.4551,1.3677v.936a1.8592,1.8592,0,0,0,.4551,1.3682A1.6079,1.6079,0,0,0,77.9932,65.9785Z"/><path class="cls-2" d="M89.1172,65.7861h-.0488a1.6791,1.6791,0,0,1-.6778.8614,2.042,2.042,0,0,1-1.1094.291,2.3983,2.3983,0,0,1-1.0507-.2222,2.1362,2.1362,0,0,1-.7852-.6479,2.9932,2.9932,0,0,1-.4922-1.0259,5.5592,5.5592,0,0,1,0-2.7119,3,3,0,0,1,.4922-1.0264,2.1463,2.1463,0,0,1,.7852-.648,2.4,2.4,0,0,1,1.0507-.2216,2.0412,2.0412,0,0,1,1.1094.291,1.68,1.68,0,0,1,.6778.8613h.0488V57.9146h1.1152v8.88H89.1172Zm-1.5117.1924a2.01,2.01,0,0,0,.5879-.0845,1.4947,1.4947,0,0,0,.48-.2412,1.2582,1.2582,0,0,0,.3232-.3618.8906.8906,0,0,0,.1211-.4585v-2.292a.8911.8911,0,0,0-.1211-.4585,1.2582,1.2582,0,0,0-.3232-.3618,1.4968,1.4968,0,0,0-.48-.2412,2.013,2.013,0,0,0-.5879-.0845,1.5344,1.5344,0,0,0-1.1953.4825,1.8335,1.8335,0,0,0-.4375,1.2788v1.0615a1.8339,1.8339,0,0,0,.4375,1.2788A1.5343,1.5343,0,0,0,87.6055,65.9785Z"/><path class="cls-2" d="M94.5762,66.9385a2.836,2.836,0,0,1-1.17-.2339,2.5441,2.5441,0,0,1-.8876-.6543,2.9308,2.9308,0,0,1-.5635-1.02,4.6324,4.6324,0,0,1,0-2.6817,2.9294,2.9294,0,0,1,.5635-1.0263,2.5416,2.5416,0,0,1,.8876-.6538,2.828,2.828,0,0,1,1.17-.2339,2.7562,2.7562,0,0,1,1.1582.2329,2.4608,2.4608,0,0,1,.8584.64,2.782,2.782,0,0,1,.5283.9688,3.9619,3.9619,0,0,1,.18,1.2075V63.95h-4.38v.2524a1.8154,1.8154,0,0,0,.4561,1.2779,1.6686,1.6686,0,0,0,1.2959.498,1.8549,1.8549,0,0,0,1.0078-.2641,1.902,1.902,0,0,0,.6728-.7442l.7188.6162a2.4058,2.4058,0,0,1-.9717.9839A3.0378,3.0378,0,0,1,94.5762,66.9385Zm0-5.604a1.6794,1.6794,0,0,0-.666.1313,1.5665,1.5665,0,0,0-.8692.918,1.9933,1.9933,0,0,0-.12.7031V63.17h3.1924v-.1191a1.82,1.82,0,0,0-.4141-1.2456A1.42,1.42,0,0,0,94.5762,61.3345Z"/><path class="cls-2" d="M100.3477,66.7944a1.1472,1.1472,0,0,1-.875-.3173,1.1941,1.1941,0,0,1-.3008-.856V61.5386h-.9961v-.96h.5527a.5683.5683,0,0,0,.4317-.1323.6549.6549,0,0,0,.12-.4439v-1.14h1.0088v1.7163h1.331v.96h-1.331v4.2959h1.2353v.96Z"/><path class="cls-2" d="M105.4355,66.9385a2.8359,2.8359,0,0,1-1.17-.2339,2.5454,2.5454,0,0,1-.8877-.6543,2.9323,2.9323,0,0,1-.5634-1.02,4.6324,4.6324,0,0,1,0-2.6817,2.9309,2.9309,0,0,1,.5634-1.0263,2.5428,2.5428,0,0,1,.8877-.6538,2.8279,2.8279,0,0,1,1.17-.2339,2.7556,2.7556,0,0,1,1.1582.2329,2.459,2.459,0,0,1,.8584.64,2.7806,2.7806,0,0,1,.5284.9688,3.9619,3.9619,0,0,1,.18,1.2075V63.95h-4.38v.2524a1.8154,1.8154,0,0,0,.456,1.2779,1.6687,1.6687,0,0,0,1.2959.498,1.8546,1.8546,0,0,0,1.0078-.2641,1.9022,1.9022,0,0,0,.6729-.7442l.7187.6162a2.405,2.405,0,0,1-.9716.9839A3.0382,3.0382,0,0,1,105.4355,66.9385Zm0-5.604a1.68,1.68,0,0,0-.666.1313,1.5667,1.5667,0,0,0-.8691.918,1.9933,1.9933,0,0,0-.12.7031V63.17h3.1924v-.1191a1.82,1.82,0,0,0-.4141-1.2456A1.42,1.42,0,0,0,105.4355,61.3345Z"/><path class="cls-2" d="M112.0361,66.9385a2.9161,2.9161,0,0,1-1.1884-.2281,2.4268,2.4268,0,0,1-.875-.6479,2.8409,2.8409,0,0,1-.5469-1.0259,4.6219,4.6219,0,0,1-.1856-1.35,4.5623,4.5623,0,0,1,.1856-1.3442,2.9114,2.9114,0,0,1,.5469-1.0259,2.4044,2.4044,0,0,1,.875-.6538,2.9161,2.9161,0,0,1,1.1884-.228,2.5415,2.5415,0,0,1,1.5.4077,2.4289,2.4289,0,0,1,.8526,1.08l-.9239.456a1.4451,1.4451,0,0,0-.5224-.72,1.51,1.51,0,0,0-.9063-.2637,1.4664,1.4664,0,0,0-1.206.4917,1.9309,1.9309,0,0,0-.4024,1.26v1.08a1.9281,1.9281,0,0,0,.4024,1.26,1.4649,1.4649,0,0,0,1.206.4922,1.6022,1.6022,0,0,0,.96-.2759,1.9887,1.9887,0,0,0,.624-.78l.8154.5039a2.4486,2.4486,0,0,1-.8994,1.11A2.6376,2.6376,0,0,1,112.0361,66.9385Z"/><path class="cls-2" d="M117.2676,66.7944a1.1474,1.1474,0,0,1-.875-.3173,1.1941,1.1941,0,0,1-.3008-.856V61.5386h-.9961v-.96h.5527a.5681.5681,0,0,0,.4317-.1323.6543.6543,0,0,0,.12-.4439v-1.14h1.0088v1.7163h1.331v.96h-1.331v4.2959h1.2353v.96Z"/><path class="cls-2" d="M124.7676,66.9385a3.0015,3.0015,0,0,1-1.4571-.3242,3.2962,3.2962,0,0,1-1.0263-.876l.7558-.648a2.5528,2.5528,0,0,0,.7862.6841,2.0708,2.0708,0,0,0,1.0136.24,1.4493,1.4493,0,0,0,.9122-.246.8917.8917,0,0,0,.1015-1.254,1.3231,1.3231,0,0,0-.7851-.312l-.5284-.0839a4.0323,4.0323,0,0,1-.8154-.1924,2.103,2.103,0,0,1-.6367-.3477,1.5242,1.5242,0,0,1-.4141-.5283,1.708,1.708,0,0,1-.15-.7437,1.8766,1.8766,0,0,1,.168-.81,1.6162,1.6162,0,0,1,.4688-.5884,2.09,2.09,0,0,1,.7138-.354,3.2564,3.2564,0,0,1,.9053-.12,2.9393,2.9393,0,0,1,1.32.2636,2.8978,2.8978,0,0,1,.9238.7325l-.707.6718a2.006,2.006,0,0,0-.6191-.5219,1.8979,1.8979,0,0,0-.9532-.2222,1.3,1.3,0,0,0-.8584.24.7923.7923,0,0,0-.2822.6358.6965.6965,0,0,0,.27.6118,1.9279,1.9279,0,0,0,.81.2764l.5283.0839a2.6422,2.6422,0,0,1,1.4815.6,1.56,1.56,0,0,1,.4511,1.1636,1.7735,1.7735,0,0,1-.6367,1.44A2.6418,2.6418,0,0,1,124.7676,66.9385Z"/><path class="cls-2" d="M132.5439,65.7861h-.06a2.17,2.17,0,0,1-.2227.4336,1.5206,1.5206,0,0,1-.3476.3682,1.701,1.701,0,0,1-.4981.2554,2.1474,2.1474,0,0,1-.6719.0952,1.9124,1.9124,0,0,1-1.5117-.624A2.57,2.57,0,0,1,128.68,64.55V60.5786h1.1162v3.8125q0,1.5872,1.3193,1.5874a2.0846,2.0846,0,0,0,.5225-.0664,1.3191,1.3191,0,0,0,.456-.21,1.1585,1.1585,0,0,0,.3243-.36.9875.9875,0,0,0,.1259-.5054V60.5786H133.66v6.2158h-1.1163Z"/><path class="cls-2" d="M137.5352,66.9385a3.0013,3.0013,0,0,1-1.4571-.3242,3.2939,3.2939,0,0,1-1.0263-.876l.7558-.648a2.5536,2.5536,0,0,0,.7861.6841,2.0712,2.0712,0,0,0,1.0137.24,1.4488,1.4488,0,0,0,.9121-.246.8919.8919,0,0,0,.1016-1.254,1.3234,1.3234,0,0,0-.7852-.312l-.5283-.0839a4.0323,4.0323,0,0,1-.8154-.1924,2.1006,2.1006,0,0,1-.6367-.3477,1.5242,1.5242,0,0,1-.4141-.5283,1.708,1.708,0,0,1-.15-.7437,1.8766,1.8766,0,0,1,.168-.81,1.616,1.616,0,0,1,.4687-.5884,2.09,2.09,0,0,1,.7139-.354,3.2559,3.2559,0,0,1,.9053-.12,2.9393,2.9393,0,0,1,1.32.2636,2.8989,2.8989,0,0,1,.9238.7325l-.707.6718a2.0065,2.0065,0,0,0-.6192-.5219,1.8973,1.8973,0,0,0-.9531-.2222,1.3,1.3,0,0,0-.8584.24.792.792,0,0,0-.2822.6358.6963.6963,0,0,0,.27.6118,1.9279,1.9279,0,0,0,.81.2764l.5283.0839a2.6415,2.6415,0,0,1,1.4814.6,1.5593,1.5593,0,0,1,.4512,1.1636,1.7735,1.7735,0,0,1-.6367,1.44A2.6418,2.6418,0,0,1,137.5352,66.9385Z"/><path class="cls-2" d="M141.5078,60.5786h1.1152v1.0083h.0489a1.68,1.68,0,0,1,.6777-.8613,2.0388,2.0388,0,0,1,1.1094-.291,2.4,2.4,0,0,1,1.0508.2216,2.1451,2.1451,0,0,1,.7851.648,2.9984,2.9984,0,0,1,.4922,1.0264,5.556,5.556,0,0,1,0,2.7119,2.9914,2.9914,0,0,1-.4922,1.0259,2.135,2.135,0,0,1-.7851.6479,2.3984,2.3984,0,0,1-1.0508.2222,2.04,2.04,0,0,1-1.1094-.291,1.6784,1.6784,0,0,1-.6777-.8614h-.0489v3.4082h-1.1152Zm2.627,5.4a1.5346,1.5346,0,0,0,1.1953-.4824,1.8344,1.8344,0,0,0,.4375-1.2788V63.1558a1.834,1.834,0,0,0-.4375-1.2788,1.5346,1.5346,0,0,0-1.1953-.4825,2.0121,2.0121,0,0,0-.5879.0845,1.4957,1.4957,0,0,0-.48.2412,1.2427,1.2427,0,0,0-.3233.3618.8921.8921,0,0,0-.1211.4585v2.292a.8916.8916,0,0,0,.1211.4585,1.2427,1.2427,0,0,0,.3233.3618,1.4937,1.4937,0,0,0,.48.2412A2.0087,2.0087,0,0,0,144.1348,65.9785Z"/><path class="cls-2" d="M149.0918,59.2822a.678.678,0,0,1-.51-.1679.6105.6105,0,0,1-.1621-.4439v-.168a.61.61,0,0,1,.1621-.4438.8575.8575,0,0,1,1.02,0,.6144.6144,0,0,1,.1621.4438v.168a.6147.6147,0,0,1-.1621.4439A.68.68,0,0,1,149.0918,59.2822Zm-.5645,1.2964h1.1163v6.2158h-1.1163Z"/><path class="cls-2" d="M153.9629,66.9385a2.9147,2.9147,0,0,1-1.1875-.2281,2.43,2.43,0,0,1-.876-.6479,2.8409,2.8409,0,0,1-.5459-1.0259,4.5919,4.5919,0,0,1-.1855-1.35,4.5329,4.5329,0,0,1,.1855-1.3442,2.9113,2.9113,0,0,1,.5459-1.0259,2.4079,2.4079,0,0,1,.876-.6538,2.9147,2.9147,0,0,1,1.1875-.228,2.5373,2.5373,0,0,1,1.5.4077,2.4211,2.4211,0,0,1,.8525,1.08l-.9238.456a1.4393,1.4393,0,0,0-.5225-.72,1.51,1.51,0,0,0-.9062-.2637,1.4657,1.4657,0,0,0-1.2051.4917,1.9259,1.9259,0,0,0-.4023,1.26v1.08a1.9231,1.9231,0,0,0,.4023,1.26,1.4642,1.4642,0,0,0,1.2051.4922,1.6027,1.6027,0,0,0,.9609-.2759,1.9878,1.9878,0,0,0,.6231-.78l.8164.5039a2.4443,2.4443,0,0,1-.9,1.11A2.6376,2.6376,0,0,1,153.9629,66.9385Z"/><path class="cls-2" d="M158.2354,59.2822a.6808.6808,0,0,1-.51-.1679.6105.6105,0,0,1-.1621-.4439v-.168a.61.61,0,0,1,.1621-.4438.8589.8589,0,0,1,1.0205,0,.6144.6144,0,0,1,.1621.4438v.168a.6147.6147,0,0,1-.1621.4439A.6832.6832,0,0,1,158.2354,59.2822Zm-.5635,1.2964h1.1152v6.2158h-1.1152Z"/><path class="cls-2" d="M163.1426,66.9385a2.8678,2.8678,0,0,1-1.1582-.2281,2.5038,2.5038,0,0,1-.8936-.6538,2.9917,2.9917,0,0,1-.5752-1.0263,4.5061,4.5061,0,0,1,0-2.688,2.9954,2.9954,0,0,1,.5752-1.0259,2.505,2.505,0,0,1,.8936-.6538,3.0557,3.0557,0,0,1,2.3164,0,2.5082,2.5082,0,0,1,.8945.6538,3.0271,3.0271,0,0,1,.5762,1.0259,4.5485,4.5485,0,0,1,0,2.688,3.0233,3.0233,0,0,1-.5762,1.0263,2.507,2.507,0,0,1-.8945.6538A2.8651,2.8651,0,0,1,163.1426,66.9385Zm0-.96a1.6065,1.6065,0,0,0,1.1885-.456,1.8594,1.8594,0,0,0,.456-1.3682v-.936a1.8589,1.8589,0,0,0-.456-1.3677,1.7752,1.7752,0,0,0-2.376,0,1.8548,1.8548,0,0,0-.4561,1.3677v.936a1.8553,1.8553,0,0,0,.4561,1.3682A1.604,1.604,0,0,0,163.1426,65.9785Z"/><path class="cls-2" d="M171.3027,65.7861h-.0595a2.1142,2.1142,0,0,1-.2217.4336,1.5387,1.5387,0,0,1-.3477.3682,1.6992,1.6992,0,0,1-.498.2554,2.154,2.154,0,0,1-.6729.0952,1.9152,1.9152,0,0,1-1.5117-.624A2.5747,2.5747,0,0,1,167.44,64.55V60.5786h1.1152v3.8125q0,1.5872,1.32,1.5874a2.0768,2.0768,0,0,0,.5215-.0664,1.3327,1.3327,0,0,0,.457-.21,1.1706,1.1706,0,0,0,.3242-.36.9872.9872,0,0,0,.125-.5054V60.5786h1.1162v6.2158h-1.1162Z"/><path class="cls-2" d="M176.2949,66.9385a3.0049,3.0049,0,0,1-1.458-.3242,3.3067,3.3067,0,0,1-1.0264-.876l.7559-.648a2.5659,2.5659,0,0,0,.7871.6841,2.0682,2.0682,0,0,0,1.0137.24,1.4527,1.4527,0,0,0,.9121-.246.8943.8943,0,0,0,.1016-1.254,1.33,1.33,0,0,0-.7862-.312l-.5283-.0839a4.0468,4.0468,0,0,1-.8154-.1924,2.0967,2.0967,0,0,1-.6358-.3477,1.5251,1.5251,0,0,1-.414-.5283,1.6938,1.6938,0,0,1-.15-.7437,1.8766,1.8766,0,0,1,.1679-.81,1.5968,1.5968,0,0,1,.4688-.5884,2.0936,2.0936,0,0,1,.7129-.354,3.2629,3.2629,0,0,1,.9062-.12,2.9424,2.9424,0,0,1,1.32.2636,2.91,2.91,0,0,1,.9238.7325l-.708.6718a2.002,2.002,0,0,0-.6182-.5219,1.9,1.9,0,0,0-.9531-.2222,1.3027,1.3027,0,0,0-.8594.24.7942.7942,0,0,0-.2812.6358.6981.6981,0,0,0,.2695.6118,1.933,1.933,0,0,0,.8105.2764l.5274.0839a2.6483,2.6483,0,0,1,1.4824.6,1.5586,1.5586,0,0,1,.45,1.1636,1.7728,1.7728,0,0,1-.6357,1.44A2.6423,2.6423,0,0,1,176.2949,66.9385Z"/><path class="cls-2" d="M187.623,66.7944a.9878.9878,0,0,1-.7744-.2881,1.3412,1.3412,0,0,1-.3174-.7441h-.0605a1.6019,1.6019,0,0,1-.66.8765,2.0707,2.0707,0,0,1-1.14.3,2.15,2.15,0,0,1-1.5127-.4981,1.7628,1.7628,0,0,1-.5391-1.3618,1.5882,1.5882,0,0,1,.6543-1.374,3.4125,3.4125,0,0,1,1.9971-.4741h1.1768v-.564a1.3045,1.3045,0,0,0-.336-.96,1.4255,1.4255,0,0,0-1.0449-.3359,1.6158,1.6158,0,0,0-.918.2456,2.03,2.03,0,0,0-.6054.6421l-.6719-.6118a2.3549,2.3549,0,0,1,.834-.8579,2.6094,2.6094,0,0,1,1.4219-.354,2.649,2.649,0,0,1,1.8.5566,1.9824,1.9824,0,0,1,.6357,1.5747v3.2686h.6963v.96Zm-2.7-.7558a1.8675,1.8675,0,0,0,1.0917-.3.9027.9027,0,0,0,.4327-.7681v-.96h-1.1885a2.13,2.13,0,0,0-1.1221.228.7372.7372,0,0,0-.3535.66v.24a.7877.7877,0,0,0,.3057.6655A1.3391,1.3391,0,0,0,184.9229,66.0386Z"/><path class="cls-2" d="M191.9424,66.9385a2.9166,2.9166,0,0,1-1.1885-.2281,2.4276,2.4276,0,0,1-.875-.6479,2.8425,2.8425,0,0,1-.5469-1.0259,4.6254,4.6254,0,0,1-.1855-1.35,4.5658,4.5658,0,0,1,.1855-1.3442,2.913,2.913,0,0,1,.5469-1.0259,2.4052,2.4052,0,0,1,.875-.6538,2.9166,2.9166,0,0,1,1.1885-.228,2.5415,2.5415,0,0,1,1.5.4077,2.428,2.428,0,0,1,.8525,1.08l-.9238.456a1.4452,1.4452,0,0,0-.5225-.72,1.51,1.51,0,0,0-.9062-.2637,1.4665,1.4665,0,0,0-1.2061.4917,1.9308,1.9308,0,0,0-.4023,1.26v1.08a1.928,1.928,0,0,0,.4023,1.26,1.465,1.465,0,0,0,1.2061.4922,1.6017,1.6017,0,0,0,.96-.2759,1.99,1.99,0,0,0,.6241-.78l.8154.5039a2.4486,2.4486,0,0,1-.8994,1.11A2.6376,2.6376,0,0,1,191.9424,66.9385Z"/><path class="cls-2" d="M197.1738,66.7944a1.1474,1.1474,0,0,1-.875-.3173,1.1941,1.1941,0,0,1-.3008-.856V61.5386h-.996v-.96h.5527a.568.568,0,0,0,.4316-.1323.6543.6543,0,0,0,.12-.4439v-1.14h1.0088v1.7163h1.3311v.96h-1.3311v4.2959h1.2354v.96Z"/><path class="cls-2" d="M200.498,59.2822a.6776.6776,0,0,1-.51-.1679.6147.6147,0,0,1-.1621-.4439v-.168a.6144.6144,0,0,1,.1621-.4438.8573.8573,0,0,1,1.0195,0,.61.61,0,0,1,.1621.4438v.168a.6105.6105,0,0,1-.1621.4439A.6777.6777,0,0,1,200.498,59.2822Zm-.5644,1.2964h1.1172v6.2158h-1.1172Z"/><path class="cls-2" d="M204.374,66.7944l-2.1474-6.2158h1.1152l1.02,2.9756.6475,2.1484h.0722l.66-2.1484,1.0322-2.9756h1.0674l-2.16,6.2158Z"/><path class="cls-2" d="M209.582,59.2822a.6776.6776,0,0,1-.51-.1679.6143.6143,0,0,1-.1621-.4439v-.168a.614.614,0,0,1,.1621-.4438.8573.8573,0,0,1,1.0195,0,.61.61,0,0,1,.1621.4438v.168a.6105.6105,0,0,1-.1621.4439A.6777.6777,0,0,1,209.582,59.2822Zm-.5644,1.2964h1.1172v6.2158h-1.1172Z"/><path class="cls-2" d="M213.626,66.7944a1.15,1.15,0,0,1-.876-.3173,1.198,1.198,0,0,1-.3-.856V61.5386h-.9961v-.96h.5518a.5665.5665,0,0,0,.4316-.1323.654.654,0,0,0,.1211-.4439v-1.14h1.0078v1.7163h1.332v.96h-1.332v4.2959h1.2363v.96Z"/><path class="cls-2" d="M220.2139,60.5786h1.08l-2.7,7.5718a3.2023,3.2023,0,0,1-.2285.4922,1.0129,1.0129,0,0,1-.2929.3237,1.1847,1.1847,0,0,1-.4141.1743,2.8214,2.8214,0,0,1-.6006.0537h-.6123v-.96h1.02l.42-1.1983-2.3037-6.4575h1.1153l1.3808,3.9639.3242,1.1616h.06l.36-1.1616Z"/><path class="cls-2" d="M47.7051,81.1948a1.1494,1.1494,0,0,1-.876-.3174,1.1932,1.1932,0,0,1-.3-.8559V75.939h-.9961v-.96h.5527a.5681.5681,0,0,0,.4317-.1323.6547.6547,0,0,0,.1191-.4439v-1.14h1.0088V74.979h1.3311v.96H47.6455v4.2959h1.2354v.96Z"/><path class="cls-2" d="M50.4648,72.3149H51.582v3.6724h.06a2.0294,2.0294,0,0,1,.63-.8315,1.7859,1.7859,0,0,1,1.1221-.3208,1.897,1.897,0,0,1,1.5058.624,2.5921,2.5921,0,0,1,.5459,1.7637v3.9721H54.33V77.3823q0-1.5871-1.3086-1.5874a1.9648,1.9648,0,0,0-.5342.0723,1.5711,1.5711,0,0,0-.4619.21,1.0331,1.0331,0,0,0-.3242.3487.989.989,0,0,0-.1192.499v4.27H50.4648Z"/><path class="cls-2" d="M57.3418,81.1948V74.979H58.457v1.188h.0606a1.7224,1.7224,0,0,1,.2158-.4443,1.5368,1.5368,0,0,1,.36-.378,1.844,1.844,0,0,1,.51-.2636,2.0247,2.0247,0,0,1,.666-.1021h.3721v1.1157H60.09a2.1823,2.1823,0,0,0-1.207.2823.8536.8536,0,0,0-.4258.7377v4.08Z"/><path class="cls-2" d="M64.17,81.3389a2.8617,2.8617,0,0,1-1.1582-.2281,2.507,2.507,0,0,1-.8945-.6538,3.0233,3.0233,0,0,1-.5762-1.0263,4.5485,4.5485,0,0,1,0-2.688,3.0271,3.0271,0,0,1,.5762-1.0259,2.507,2.507,0,0,1,.8945-.6538,3.0532,3.0532,0,0,1,2.3154,0,2.4942,2.4942,0,0,1,.8936.6538,3.0138,3.0138,0,0,1,.5762,1.0259,4.5061,4.5061,0,0,1,0,2.688,3.01,3.01,0,0,1-.5762,1.0263,2.4942,2.4942,0,0,1-.8936.6538A2.86,2.86,0,0,1,64.17,81.3389Zm0-.96a1.6072,1.6072,0,0,0,1.1875-.456,1.8594,1.8594,0,0,0,.4561-1.3682v-.936a1.8588,1.8588,0,0,0-.4561-1.3677,1.7752,1.7752,0,0,0-2.376,0,1.8588,1.8588,0,0,0-.456,1.3677v.936a1.8594,1.8594,0,0,0,.456,1.3682A1.6065,1.6065,0,0,0,64.17,80.3789Z"/><path class="cls-2" d="M72.3291,80.1865h-.06a2.1669,2.1669,0,0,1-.2226.4336,1.521,1.521,0,0,1-.3477.3682,1.6992,1.6992,0,0,1-.498.2554,2.1474,2.1474,0,0,1-.6719.0952,1.9121,1.9121,0,0,1-1.5117-.6241,2.57,2.57,0,0,1-.5528-1.7641V74.979h1.1163v3.8125q0,1.5871,1.3193,1.5874a2.0846,2.0846,0,0,0,.5225-.0664,1.3218,1.3218,0,0,0,.456-.21,1.1605,1.1605,0,0,0,.3242-.36.9876.9876,0,0,0,.126-.5054V74.979h1.1162v6.2158H72.3291Z"/><path class="cls-2" d="M80.7539,81.8242a1.5884,1.5884,0,0,1-.75,1.4453,4.5238,4.5238,0,0,1-2.334.4693,4.2543,4.2543,0,0,1-2.1308-.3965,1.2462,1.2462,0,0,1-.6426-1.1172,1.1141,1.1141,0,0,1,.27-.7925,1.5,1.5,0,0,1,.75-.4087v-.1323a.9038.9038,0,0,1-.6123-.916.8772.8772,0,0,1,.3125-.7227,1.8937,1.8937,0,0,1,.7676-.3618v-.0483a1.9718,1.9718,0,0,1-.8516-.7476,2.1019,2.1019,0,0,1-.3-1.1308,2.1718,2.1718,0,0,1,.168-.8614,1.9489,1.9489,0,0,1,.4736-.6758,2.142,2.142,0,0,1,.75-.437,3.0423,3.0423,0,0,1,1.0078-.1552,2.9967,2.9967,0,0,1,.6123.06,3.547,3.547,0,0,1,.54.1558v-.1319a.9932.9932,0,0,1,.18-.6181.6825.6825,0,0,1,.5762-.2339h.9483v.936H79.2656v.335a1.9016,1.9016,0,0,1,.7793,1.6269,2.1725,2.1725,0,0,1-.1679.8619,1.8224,1.8224,0,0,1-.48.67,2.23,2.23,0,0,1-.7559.4306,3.0207,3.0207,0,0,1-1.0078.1558c-.1191,0-.24-.0063-.3594-.0181a2.7,2.7,0,0,1-.3359-.0542,1.6623,1.6623,0,0,0-.4922.24.4916.4916,0,0,0-.2168.42.3646.3646,0,0,0,.2461.3721,1.8844,1.8844,0,0,0,.666.0957h1.416a2.5327,2.5327,0,0,1,1.6739.4516A1.5461,1.5461,0,0,1,80.7539,81.8242Zm-1.0449.1148a.6713.6713,0,0,0-.27-.5581,1.605,1.605,0,0,0-.9541-.21H76.3965a.8642.8642,0,0,0-.1973,1.4458,1.5677,1.5677,0,0,0,1.0381.27h.84a2.5326,2.5326,0,0,0,1.212-.2339A.7654.7654,0,0,0,79.709,81.939Zm-2.0645-3.6963a1.4693,1.4693,0,0,0,.9434-.2744A1.0242,1.0242,0,0,0,78.93,77.12v-.31a1.024,1.024,0,0,0-.3418-.8482,1.7555,1.7555,0,0,0-1.8848,0,1.0211,1.0211,0,0,0-.3418.8482v.31a1.0213,1.0213,0,0,0,.3418.8482A1.4652,1.4652,0,0,0,77.6445,78.2427Z"/><path class="cls-2" d="M81.8086,72.3149h1.1172v3.6724h.06a2.0283,2.0283,0,0,1,.63-.8315,1.7859,1.7859,0,0,1,1.1221-.3208,1.8972,1.8972,0,0,1,1.5059.624,2.5926,2.5926,0,0,1,.5459,1.7637v3.9721H85.6738V77.3823q0-1.5871-1.3086-1.5874a1.9636,1.9636,0,0,0-.5341.0723,1.5729,1.5729,0,0,0-.462.21,1.0341,1.0341,0,0,0-.3242.3487.989.989,0,0,0-.1191.499v4.27H81.8086Z"/><path class="cls-2" d="M91.5166,74.979h1.1162v1.0083h.0479a1.6815,1.6815,0,0,1,.6787-.8613,2.0363,2.0363,0,0,1,1.1093-.291,2.3956,2.3956,0,0,1,1.05.2216,2.1564,2.1564,0,0,1,.7861.648,3.0353,3.0353,0,0,1,.4922,1.0264,5.5592,5.5592,0,0,1,0,2.7119,3.0281,3.0281,0,0,1-.4922,1.0259,2.1462,2.1462,0,0,1-.7861.6479,2.3958,2.3958,0,0,1-1.05.2222,2.0371,2.0371,0,0,1-1.1093-.291,1.68,1.68,0,0,1-.6787-.8614h-.0479v3.4082H91.5166Zm2.6279,5.4a1.5325,1.5325,0,0,0,1.1944-.4824,1.83,1.83,0,0,0,.4384-1.2788V77.5562a1.83,1.83,0,0,0-.4384-1.2789,1.5328,1.5328,0,0,0-1.1944-.4824,2,2,0,0,0-.5879.0845,1.5089,1.5089,0,0,0-.48.2412,1.2427,1.2427,0,0,0-.3233.3618.8911.8911,0,0,0-.12.4585v2.292a.8909.8909,0,0,0,.12.4585,1.2427,1.2427,0,0,0,.3233.3618,1.5089,1.5089,0,0,0,.48.2412A2,2,0,0,0,94.1445,80.3789Z"/><path class="cls-2" d="M103.0605,81.1948a.9855.9855,0,0,1-.7734-.2881,1.3487,1.3487,0,0,1-.3184-.7441h-.0605a1.5978,1.5978,0,0,1-.66.8765,2.0673,2.0673,0,0,1-1.1386.3,2.1482,2.1482,0,0,1-1.5127-.4981,1.76,1.76,0,0,1-.54-1.3618,1.5906,1.5906,0,0,1,.6543-1.374,3.4139,3.4139,0,0,1,1.9981-.4741h1.1758v-.564a1.3,1.3,0,0,0-.336-.96,1.4245,1.4245,0,0,0-1.0439-.3359,1.6113,1.6113,0,0,0-.918.2456,2.0324,2.0324,0,0,0-.6064.6421l-.6719-.6118a2.363,2.363,0,0,1,.834-.8579,2.6115,2.6115,0,0,1,1.4219-.354,2.65,2.65,0,0,1,1.8007.5566,1.9821,1.9821,0,0,1,.6358,1.5747v3.2686h.6963v.96Zm-2.6992-.7558a1.872,1.872,0,0,0,1.0918-.3.9039.9039,0,0,0,.4317-.7681v-.96h-1.1875a2.1343,2.1343,0,0,0-1.1231.2281.7392.7392,0,0,0-.3535.66v.24a.786.786,0,0,0,.3066.6655A1.3375,1.3375,0,0,0,100.3613,80.439Z"/><path class="cls-2" d="M106.541,81.1948a1.1514,1.1514,0,0,1-.8769-.3174,1.1966,1.1966,0,0,1-.2989-.8559V75.939h-.9961v-.96h.5518a.5664.5664,0,0,0,.4316-.1323.6543.6543,0,0,0,.12-.4439v-1.14h1.0078V74.979h1.332v.96h-1.332v4.2959h1.2363v.96Z"/><path class="cls-2" d="M110.7285,81.1948a1.1494,1.1494,0,0,1-.876-.3174,1.1932,1.1932,0,0,1-.3-.8559V75.939h-.9961v-.96h.5528a.568.568,0,0,0,.4316-.1323.6546.6546,0,0,0,.1192-.4439v-1.14h1.0087V74.979H112v.96h-1.3311v4.2959h1.2354v.96Z"/><path class="cls-2" d="M115.8164,81.3389a2.8338,2.8338,0,0,1-1.17-.2339,2.5482,2.5482,0,0,1-.8887-.6543,2.9325,2.9325,0,0,1-.5635-1.02,4.6346,4.6346,0,0,1,0-2.6817,2.931,2.931,0,0,1,.5635-1.0263,2.5472,2.5472,0,0,1,.8887-.6539,2.8258,2.8258,0,0,1,1.17-.2338,2.7591,2.7591,0,0,1,1.1582.2329,2.4552,2.4552,0,0,1,.8574.64,2.7652,2.7652,0,0,1,.5284.9688,3.9314,3.9314,0,0,1,.1806,1.2075v.4663H114.16v.2524a1.8162,1.8162,0,0,0,.457,1.2779,1.6649,1.6649,0,0,0,1.2949.498,1.8493,1.8493,0,0,0,1.0078-.2642,1.8937,1.8937,0,0,0,.6729-.7441l.72.6162a2.4133,2.4133,0,0,1-.9727.9839A3.0337,3.0337,0,0,1,115.8164,81.3389Zm0-5.604a1.6731,1.6731,0,0,0-.666.1313,1.5665,1.5665,0,0,0-.8692.918,1.9957,1.9957,0,0,0-.121.7031v.0835h3.1923v-.1191a1.8153,1.8153,0,0,0-.414-1.2456A1.4176,1.4176,0,0,0,115.8164,75.7349Z"/><path class="cls-2" d="M120.0645,81.1948V74.979h1.1162v1.188h.0595a1.7662,1.7662,0,0,1,.2168-.4443,1.5148,1.5148,0,0,1,.3594-.378,1.8712,1.8712,0,0,1,.51-.2636,2.0286,2.0286,0,0,1,.666-.1021h.373v1.1157h-.5527a2.179,2.179,0,0,0-1.2061.2823.8516.8516,0,0,0-.4257.7377v4.08Z"/><path class="cls-2" d="M124.5645,81.1948V74.979h1.1162v1.0083h.0595a2.0315,2.0315,0,0,1,.6309-.8315,1.7828,1.7828,0,0,1,1.1211-.3208,1.8942,1.8942,0,0,1,1.5058.624,2.5924,2.5924,0,0,1,.5469,1.7637v3.9721h-1.1162V77.3823q0-1.5871-1.3076-1.5874a1.9667,1.9667,0,0,0-.5352.0723,1.5547,1.5547,0,0,0-.4609.21,1.0341,1.0341,0,0,0-.3242.3487.9892.9892,0,0,0-.12.499v4.27Z"/><path class="cls-2" d="M133.3486,81.3389a3.0068,3.0068,0,0,1-1.458-.3243,3.279,3.279,0,0,1-1.0254-.8759l.7559-.648a2.562,2.562,0,0,0,.7851.6841,2.0764,2.0764,0,0,0,1.0137.24,1.4462,1.4462,0,0,0,.9121-.2461.8932.8932,0,0,0,.1026-1.2539,1.324,1.324,0,0,0-.7862-.312l-.5273-.084a4.0341,4.0341,0,0,1-.8164-.1923,2.1028,2.1028,0,0,1-.6367-.3477,1.536,1.536,0,0,1-.4141-.5283,1.7082,1.7082,0,0,1-.1494-.7437,1.8621,1.8621,0,0,1,.168-.81,1.623,1.623,0,0,1,.4677-.5884,2.1037,2.1037,0,0,1,.7149-.354,3.2508,3.2508,0,0,1,.9053-.12,2.9452,2.9452,0,0,1,1.32.2636,2.9084,2.9084,0,0,1,.9238.7325l-.708.6718a2.002,2.002,0,0,0-.6182-.5219,1.8986,1.8986,0,0,0-.9541-.2222,1.2967,1.2967,0,0,0-.8574.24.792.792,0,0,0-.2822.6358.6964.6964,0,0,0,.27.6118,1.9163,1.9163,0,0,0,.81.2763l.5284.084a2.6479,2.6479,0,0,1,1.4814.6,1.5624,1.5624,0,0,1,.45,1.1636,1.7706,1.7706,0,0,1-.6367,1.44A2.6409,2.6409,0,0,1,133.3486,81.3389Z"/><path class="cls-2" d="M144.6758,81.1948a.9856.9856,0,0,1-.7735-.2881,1.3558,1.3558,0,0,1-.3183-.7441h-.06a1.6064,1.6064,0,0,1-.66.8765,2.0711,2.0711,0,0,1-1.14.3,2.1442,2.1442,0,0,1-1.5117-.4981,1.7606,1.7606,0,0,1-.541-1.3618,1.5928,1.5928,0,0,1,.6543-1.374,3.4134,3.4134,0,0,1,1.998-.4741H143.5v-.564a1.2968,1.2968,0,0,0-.3359-.96,1.4223,1.4223,0,0,0-1.043-.3359,1.6093,1.6093,0,0,0-.918.2456,2.0224,2.0224,0,0,0-.6064.6421l-.6729-.6118a2.3792,2.3792,0,0,1,.834-.8579,2.6177,2.6177,0,0,1,1.4229-.354,2.6457,2.6457,0,0,1,1.8.5566,1.983,1.983,0,0,1,.6367,1.5747v3.2686h.6953v.96Zm-2.6992-.7558a1.87,1.87,0,0,0,1.0918-.3.9017.9017,0,0,0,.4316-.7681v-.96h-1.1875a2.13,2.13,0,0,0-1.1221.2281.74.74,0,0,0-.3545.66v.24a.7884.7884,0,0,0,.3067.6655A1.3411,1.3411,0,0,0,141.9766,80.439Z"/><path class="cls-2" d="M146.6445,81.1948V74.979H147.76v1.0083h.06a2.0285,2.0285,0,0,1,.63-.8315,1.7859,1.7859,0,0,1,1.1221-.3208,1.897,1.897,0,0,1,1.5058.624,2.5972,2.5972,0,0,1,.5459,1.7637v3.9721h-1.1162V77.3823q0-1.5871-1.3076-1.5874a1.96,1.96,0,0,0-.5342.0723,1.5594,1.5594,0,0,0-.4619.21,1.0311,1.0311,0,0,0-.3232.3487.99.99,0,0,0-.1211.499v4.27Z"/><path class="cls-2" d="M157.4561,80.1865h-.0479a1.6886,1.6886,0,0,1-.6777.8614,2.0434,2.0434,0,0,1-1.11.291,2.3953,2.3953,0,0,1-1.05-.2222,2.1381,2.1381,0,0,1-.7861-.6479,3.0281,3.0281,0,0,1-.4922-1.0259,5.556,5.556,0,0,1,0-2.7119,3.0353,3.0353,0,0,1,.4922-1.0264,2.1482,2.1482,0,0,1,.7861-.648,2.3952,2.3952,0,0,1,1.05-.2216,2.0425,2.0425,0,0,1,1.11.291,1.69,1.69,0,0,1,.6777.8613h.0479V72.3149h1.1162v8.88h-1.1162Zm-1.5118.1924a2.0043,2.0043,0,0,0,.5879-.0845,1.4835,1.4835,0,0,0,.48-.2412,1.2461,1.2461,0,0,0,.3242-.3618.89.89,0,0,0,.12-.4585v-2.292a.89.89,0,0,0-.12-.4585,1.2461,1.2461,0,0,0-.3242-.3618,1.4835,1.4835,0,0,0-.48-.2412,2.0043,2.0043,0,0,0-.5879-.0845,1.5313,1.5313,0,0,0-1.1943.4824,1.83,1.83,0,0,0-.4375,1.2789v1.0615a1.83,1.83,0,0,0,.4375,1.2788A1.531,1.531,0,0,0,155.9443,80.3789Z"/><path class="cls-2" d="M163.9355,73.6826a.6772.6772,0,0,1-.51-.168.6143.6143,0,0,1-.1621-.4438v-.168a.6144.6144,0,0,1,.1621-.4438.8573.8573,0,0,1,1.0195,0,.61.61,0,0,1,.1621.4438v.168a.61.61,0,0,1-.1621.4438A.6773.6773,0,0,1,163.9355,73.6826Zm-.5644,1.2964h1.1172v6.2158h-1.1172Z"/><path class="cls-2" d="M166.4551,81.1948V74.979h1.1172v1.0083h.0595a2.0294,2.0294,0,0,1,.63-.8315,1.7859,1.7859,0,0,1,1.1221-.3208,1.897,1.897,0,0,1,1.5058.624,2.5921,2.5921,0,0,1,.5459,1.7637v3.9721H170.32V77.3823q0-1.5871-1.3086-1.5874a1.9648,1.9648,0,0,0-.5342.0723,1.5723,1.5723,0,0,0-.4619.21,1.0341,1.0341,0,0,0-.3242.3487.989.989,0,0,0-.1191.499v4.27Z"/><path class="cls-2" d="M174.8555,81.1948a1.1494,1.1494,0,0,1-.876-.3174,1.1932,1.1932,0,0,1-.3-.8559V75.939h-.9961v-.96h.5527a.5681.5681,0,0,0,.4317-.1323.6552.6552,0,0,0,.1191-.4439v-1.14h1.0088V74.979h1.3311v.96h-1.3311v4.2959h1.2353v.96Z"/><path class="cls-2" d="M179.9434,81.3389a2.8343,2.8343,0,0,1-1.17-.2339,2.5478,2.5478,0,0,1-.8886-.6543,2.9308,2.9308,0,0,1-.5635-1.02,4.6324,4.6324,0,0,1,0-2.6817,2.9294,2.9294,0,0,1,.5635-1.0263,2.5468,2.5468,0,0,1,.8886-.6539,2.8263,2.8263,0,0,1,1.17-.2338,2.76,2.76,0,0,1,1.1582.2329,2.457,2.457,0,0,1,.8574.64,2.765,2.765,0,0,1,.5283.9688,3.9314,3.9314,0,0,1,.1807,1.2075v.4663h-4.3809v.2524a1.8166,1.8166,0,0,0,.457,1.2779,1.6652,1.6652,0,0,0,1.295.498,1.85,1.85,0,0,0,1.0078-.2642,1.8935,1.8935,0,0,0,.6728-.7441l.72.6162a2.4145,2.4145,0,0,1-.9727.9839A3.034,3.034,0,0,1,179.9434,81.3389Zm0-5.604a1.6732,1.6732,0,0,0-.6661.1313,1.5667,1.5667,0,0,0-.8691.918,1.9934,1.9934,0,0,0-.1211.7031v.0835H181.48v-.1191a1.8149,1.8149,0,0,0-.4141-1.2456A1.4174,1.4174,0,0,0,179.9434,75.7349Z"/><path class="cls-2" d="M185.3555,81.1948a1.14,1.14,0,0,1-.87-.312,1.1567,1.1567,0,0,1-.294-.8281v-7.74h1.1162v7.92h.8877v.96Z"/><path class="cls-2" d="M188.6191,81.1948a1.138,1.138,0,0,1-.8691-.312,1.1572,1.1572,0,0,1-.2949-.8281v-7.74h1.1172v7.92h.8867v.96Z"/><path class="cls-2" d="M191.3555,73.6826a.6773.6773,0,0,1-.51-.168.6143.6143,0,0,1-.1621-.4438v-.168a.6144.6144,0,0,1,.1621-.4438.8573.8573,0,0,1,1.0195,0,.61.61,0,0,1,.1621.4438v.168a.61.61,0,0,1-.1621.4438A.6772.6772,0,0,1,191.3555,73.6826Zm-.5645,1.2964h1.1172v6.2158H190.791Z"/><path class="cls-2" d="M199.2158,81.8242a1.5884,1.5884,0,0,1-.75,1.4453,4.5213,4.5213,0,0,1-2.334.4693,4.25,4.25,0,0,1-2.13-.3965,1.2462,1.2462,0,0,1-.6426-1.1172,1.1137,1.1137,0,0,1,.2695-.7925,1.5,1.5,0,0,1,.75-.4087v-.1323a.903.903,0,0,1-.6113-.916.8744.8744,0,0,1,.3125-.7227,1.8813,1.8813,0,0,1,.7676-.3618v-.0483a1.9661,1.9661,0,0,1-.8516-.7476,2.0936,2.0936,0,0,1-.3008-1.1308,2.1894,2.1894,0,0,1,.168-.8614,1.9383,1.9383,0,0,1,.4746-.6758,2.1241,2.1241,0,0,1,.75-.437,3.0339,3.0339,0,0,1,1.0078-.1552,2.9868,2.9868,0,0,1,.6113.06,3.5555,3.5555,0,0,1,.541.1558v-.1319a.987.987,0,0,1,.18-.6181.6812.6812,0,0,1,.5762-.2339h.9473v.936h-1.2237v.335a1.9,1.9,0,0,1,.78,1.6269,2.1884,2.1884,0,0,1-.168.8619,1.8442,1.8442,0,0,1-.48.67,2.2493,2.2493,0,0,1-.7559.4306,3.029,3.029,0,0,1-1.0078.1558c-.12,0-.24-.0063-.3594-.0181a2.7166,2.7166,0,0,1-.3369-.0542,1.6459,1.6459,0,0,0-.4912.24.4916.4916,0,0,0-.2168.42.3646.3646,0,0,0,.2461.3721,1.8806,1.8806,0,0,0,.666.0957h1.416a2.5345,2.5345,0,0,1,1.6739.4516A1.5485,1.5485,0,0,1,199.2158,81.8242Zm-1.0439.1148a.67.67,0,0,0-.27-.5581,1.6029,1.6029,0,0,0-.9541-.21h-2.0879a.8473.8473,0,0,0-.5039.792.8378.8378,0,0,0,.3066.6538,1.5627,1.5627,0,0,0,1.0371.27h.84a2.54,2.54,0,0,0,1.2129-.2339A.7671.7671,0,0,0,198.1719,81.939Zm-2.0645-3.6963a1.4644,1.4644,0,0,0,.9424-.2744,1.0242,1.0242,0,0,0,.3418-.8482v-.31a1.024,1.024,0,0,0-.3418-.8482,1.7538,1.7538,0,0,0-1.8838,0,1.0211,1.0211,0,0,0-.3418.8482v.31a1.0213,1.0213,0,0,0,.3418.8482A1.4616,1.4616,0,0,0,196.1074,78.2427Z"/><path class="cls-2" d="M202.5752,81.3389a2.8371,2.8371,0,0,1-1.17-.2339,2.5344,2.5344,0,0,1-.8877-.6543,2.9326,2.9326,0,0,1-.5645-1.02,4.6571,4.6571,0,0,1,0-2.6817,2.9311,2.9311,0,0,1,.5645-1.0263,2.5334,2.5334,0,0,1,.8877-.6539,2.8291,2.8291,0,0,1,1.17-.2338,2.7591,2.7591,0,0,1,1.1582.2329,2.4691,2.4691,0,0,1,.8584.64,2.7632,2.7632,0,0,1,.5273.9688,3.9284,3.9284,0,0,1,.18,1.2075v.4663H200.92v.2524a1.82,1.82,0,0,0,.4551,1.2779,1.6708,1.6708,0,0,0,1.2969.498,1.8564,1.8564,0,0,0,1.0078-.2642,1.899,1.899,0,0,0,.6719-.7441l.72.6162a2.4175,2.4175,0,0,1-.9717.9839A3.0376,3.0376,0,0,1,202.5752,81.3389Zm0-5.604a1.6762,1.6762,0,0,0-.666.1313,1.59,1.59,0,0,0-.5283.3633,1.6109,1.6109,0,0,0-.3418.5547,1.9932,1.9932,0,0,0-.1192.7031v.0835h3.1914v-.1191a1.82,1.82,0,0,0-.414-1.2456A1.4176,1.4176,0,0,0,202.5752,75.7349Z"/><path class="cls-2" d="M206.8232,81.1948V74.979H207.94v1.0083H208a2.0272,2.0272,0,0,1,.6289-.8315,1.789,1.789,0,0,1,1.1231-.3208,1.9,1.9,0,0,1,1.5058.624,2.597,2.597,0,0,1,.5449,1.7637v3.9721h-1.1152V77.3823q0-1.5871-1.3086-1.5874a1.9576,1.9576,0,0,0-.5332.0723,1.577,1.577,0,0,0-.4629.21,1.0311,1.0311,0,0,0-.3232.3487.9892.9892,0,0,0-.12.499v4.27Z"/><path class="cls-2" d="M216.0508,81.3389a2.9147,2.9147,0,0,1-1.1875-.2281,2.43,2.43,0,0,1-.876-.6479,2.8394,2.8394,0,0,1-.5459-1.0259,4.5919,4.5919,0,0,1-.1855-1.35,4.5329,4.5329,0,0,1,.1855-1.3442,2.91,2.91,0,0,1,.5459-1.0259,2.4068,2.4068,0,0,1,.876-.6538,2.9147,2.9147,0,0,1,1.1875-.228,2.5373,2.5373,0,0,1,1.5.4077,2.422,2.422,0,0,1,.8525,1.08l-.9238.456a1.4393,1.4393,0,0,0-.5225-.72,1.51,1.51,0,0,0-.9062-.2637,1.4657,1.4657,0,0,0-1.2051.4917,1.9251,1.9251,0,0,0-.4023,1.26v1.08a1.9225,1.9225,0,0,0,.4023,1.26,1.4645,1.4645,0,0,0,1.2051.4922,1.603,1.603,0,0,0,.9609-.2759,1.9886,1.9886,0,0,0,.6231-.78l.8164.5039a2.4448,2.4448,0,0,1-.9,1.11A2.6376,2.6376,0,0,1,216.0508,81.3389Z"/><path class="cls-2" d="M222.0625,81.3389a2.8371,2.8371,0,0,1-1.17-.2339,2.5435,2.5435,0,0,1-.8877-.6543,2.9308,2.9308,0,0,1-.5635-1.02,4.6346,4.6346,0,0,1,0-2.6817,2.9294,2.9294,0,0,1,.5635-1.0263,2.5425,2.5425,0,0,1,.8877-.6539,2.8291,2.8291,0,0,1,1.17-.2338,2.7559,2.7559,0,0,1,1.1582.2329,2.46,2.46,0,0,1,.8584.64,2.7811,2.7811,0,0,1,.5283.9688,3.9588,3.9588,0,0,1,.18,1.2075v.4663h-4.38v.2524a1.8156,1.8156,0,0,0,.4561,1.2779,1.6686,1.6686,0,0,0,1.2959.498,1.8541,1.8541,0,0,0,1.0078-.2642,1.9,1.9,0,0,0,.6728-.7441l.7188.6162a2.4058,2.4058,0,0,1-.9717.9839A3.0376,3.0376,0,0,1,222.0625,81.3389Zm0-5.604a1.68,1.68,0,0,0-.666.1313,1.5665,1.5665,0,0,0-.8692.918,1.9956,1.9956,0,0,0-.12.7031v.0835H223.6v-.1191a1.82,1.82,0,0,0-.4141-1.2456A1.4194,1.4194,0,0,0,222.0625,75.7349Z"/><path class="cls-2" d="M226.7676,81.3389a.6933.6933,0,0,1-.793-.7442v-.18a.7924.7924,0,1,1,1.584,0v.18a.6919.6919,0,0,1-.791.7442Z"/><rect id="_Transparent_Rectangle_" data-name=" Transparent Rectangle " class="cls-3" x="7" y="9" width="32" height="32"/><rect class="cls-4" width="251" height="100"/></svg>