<?xml version="1.0" encoding="utf-8"?>
<!-- Generator: Adobe Illustrator 26.0.1, SVG Export Plug-In . SVG Version: 6.00 Build 0)  -->
<svg version="1.1" id="Layer_1" xmlns="http://www.w3.org/2000/svg" xmlns:xlink="http://www.w3.org/1999/xlink" x="0px" y="0px"
	 viewBox="0 0 250 100" style="enable-background:new 0 0 250 100;" xml:space="preserve">
<style type="text/css">
	.st0{fill:#242B66;}
	.st1{font-family:'IBMPlexSans-SemiBold';}
	.st2{font-size:13px;}
	.st3{fill:#525352;}
	.st4{font-family:'IBMPlexSans-Text';}
	.st5{font-size:12px;}
	.st6{fill:none;}
	.st7{fill:none;stroke:#242B66;stroke-width:1.968;stroke-miterlimit:10;}
</style>
<path class="st0" d="M37,39h-8v-8h8V39z M31,37h4v-4h-4V37z"/>
<path class="st0" d="M27,36l-11.8,0c-3.1,0-5.8-2.2-6.2-5.2c-0.4-3.6,2.4-6.8,6-6.8h2v2l-1.8,0c-1.9,0-3.7,1.3-4.1,3.2
	C10.6,31.7,12.5,34,15,34h12V36z"/>
<path class="st0" d="M27,29h-8v-8h8V29z M21,27h4v-4h-4V27z"/>
<path class="st0" d="M31,26h-2v-2l1.8,0c1.9,0,3.7-1.3,4.1-3.2c0.5-2.6-1.4-4.8-3.9-4.8H19v-2l11.8,0c3.1,0,5.8,2.2,6.2,5.2
	C37.4,22.9,34.6,26,31,26z"/>
<path class="st0" d="M17,19H9v-8h8V19z M11,17h4v-4h-4V17z"/>
<text transform="matrix(1 0 0 1 45.1973 22.584)" class="st0 st1 st2">Network Insights</text>
<text transform="matrix(1 0 0 1 45.1973 37.9945)"><tspan x="0" y="0" class="st3 st4 st5">Continuously analyze your Virtual</tspan><tspan x="0" y="14.4" class="st3 st4 st5">Private Cloud network interface</tspan><tspan x="0" y="28.8" class="st3 st4 st5">logs to detect suspicious activity</tspan><tspan x="0" y="43.2" class="st3 st4 st5">through patterns and intelligence.</tspan></text>
<rect id="_Transparent_Rectangle__3_" x="7" y="9" class="st6" width="32" height="32"/>
<rect x="1" y="1" class="st7" width="248" height="98"/>
</svg>
