<?xml version="1.0" encoding="utf-8"?>
<!-- Generator: Adobe Illustrator 24.2.3, SVG Export Plug-In . SVG Version: 6.00 Build 0)  -->
<svg version="1.1" id="Layer_1" xmlns="http://www.w3.org/2000/svg" xmlns:xlink="http://www.w3.org/1999/xlink" x="0px" y="0px"
	 viewBox="0 0 184.7 47.8" style="enable-background:new 0 0 184.7 47.8;" xml:space="preserve">
<style type="text/css">
	.st0{fill:#002D9C;}
	.st1{fill:#78A9FF;stroke:#78A9FF;stroke-width:1.1296;stroke-miterlimit:10;}
	.st2{fill:#4589FF;stroke:#4589FF;stroke-width:1.1296;stroke-miterlimit:10;}
	.st3{fill:#A6C8FF;stroke:#A6C8FF;stroke-width:1.1296;stroke-miterlimit:10;}
</style>
<g id="Text">
	<path class="st0" d="M49.4,18.8H53c0.6,0,1.2,0.1,1.8,0.3c0.5,0.2,1,0.6,1.4,1c0.4,0.5,0.7,1.1,0.9,1.7c0.2,0.8,0.3,1.5,0.3,2.3
		c0,0.8-0.1,1.6-0.3,2.3c-0.2,0.6-0.5,1.2-0.9,1.7c-0.4,0.4-0.9,0.8-1.4,1c-0.6,0.2-1.2,0.3-1.8,0.3h-3.6V18.8z M53,28.4
		c0.4,0,0.8-0.1,1.2-0.2c0.4-0.1,0.7-0.4,1-0.7c0.3-0.3,0.5-0.7,0.6-1.1C56,26,56,25.5,56,25.1v-1.7c0-0.5-0.1-1-0.2-1.4
		c-0.1-0.4-0.3-0.7-0.6-1.1c-0.3-0.3-0.6-0.5-1-0.7C53.8,20,53.4,20,53,20h-2.3v8.4L53,28.4z"/>
	<path class="st0" d="M62.6,29.7c-0.5,0-1-0.1-1.5-0.3c-0.4-0.2-0.8-0.5-1.1-0.8c-0.3-0.4-0.6-0.8-0.7-1.3c-0.3-1.1-0.3-2.3,0-3.4
		c0.2-0.5,0.4-0.9,0.7-1.3c0.3-0.4,0.7-0.6,1.1-0.8c0.5-0.2,1-0.3,1.5-0.3c0.5,0,1,0.1,1.4,0.3c0.4,0.2,0.8,0.5,1.1,0.8
		c0.3,0.4,0.5,0.8,0.7,1.2c0.2,0.5,0.2,1,0.2,1.5v0.6h-5.7v0.4c0,0.3,0.1,0.6,0.2,0.9c0.1,0.3,0.3,0.5,0.5,0.8
		c0.2,0.2,0.5,0.4,0.7,0.5c0.3,0.1,0.7,0.2,1,0.2c0.5,0,0.9-0.1,1.3-0.4c0.4-0.2,0.7-0.6,0.9-1l0.9,0.6c-0.3,0.5-0.7,1-1.2,1.3
		C63.9,29.6,63.3,29.7,62.6,29.7z M62.6,22.5c-0.3,0-0.6,0.1-0.9,0.2c-0.3,0.1-0.5,0.3-0.7,0.5c-0.2,0.2-0.4,0.5-0.5,0.8
		c-0.1,0.3-0.2,0.6-0.2,1v0.1h4.4v-0.2c0-0.6-0.2-1.2-0.6-1.7C63.7,22.7,63.2,22.4,62.6,22.5z"/>
	<path class="st0" d="M68.4,22.7h-1.3v-1.1h1.3V20c0-0.5,0.1-1,0.4-1.3c0.3-0.4,0.8-0.5,1.3-0.5h1.2v1.1h-1.7v2.3h4.4v7.9h-1.2v-6.8
		h-3.2v6.8h-1.2V22.7z M73.5,19.8c-0.2,0-0.4,0-0.6-0.2c-0.1-0.1-0.2-0.3-0.2-0.5v-0.2c0-0.2,0.1-0.4,0.2-0.5c0.3-0.3,0.8-0.3,1.2,0
		c0.1,0.1,0.2,0.3,0.2,0.5v0.2c0,0.2-0.1,0.4-0.2,0.5C73.9,19.7,73.7,19.8,73.5,19.8z"/>
	<path class="st0" d="M76.7,29.5v-7.9h1.2v1.3H78c0.2-0.4,0.5-0.8,0.8-1.1c0.4-0.3,0.9-0.4,1.4-0.4c0.7,0,1.4,0.3,1.9,0.8
		c0.5,0.6,0.8,1.4,0.7,2.2v5.1h-1.2v-4.9c0-1.4-0.6-2.1-1.8-2.1c-0.2,0-0.5,0-0.7,0.1c-0.2,0.1-0.4,0.2-0.6,0.3
		c-0.2,0.1-0.3,0.3-0.4,0.5c-0.1,0.2-0.2,0.4-0.2,0.7v5.5L76.7,29.5z"/>
	<path class="st0" d="M88.4,29.7c-0.5,0-1-0.1-1.5-0.3c-0.4-0.2-0.8-0.5-1.1-0.8c-0.3-0.4-0.6-0.8-0.7-1.3c-0.3-1.1-0.3-2.3,0-3.4
		c0.2-0.5,0.4-0.9,0.7-1.3c0.3-0.4,0.7-0.6,1.1-0.8c0.5-0.2,1-0.3,1.5-0.3c0.5,0,1,0.1,1.4,0.3c0.4,0.2,0.8,0.5,1.1,0.8
		c0.3,0.4,0.5,0.8,0.7,1.2c0.2,0.5,0.2,1,0.2,1.5v0.6h-5.7v0.4c0,0.3,0.1,0.6,0.2,0.9c0.1,0.3,0.3,0.5,0.5,0.8
		c0.2,0.2,0.5,0.4,0.7,0.5c0.3,0.1,0.7,0.2,1,0.2c0.5,0,0.9-0.1,1.3-0.4c0.4-0.2,0.7-0.6,0.9-1l0.9,0.6c-0.3,0.5-0.7,1-1.2,1.3
		C89.8,29.6,89.1,29.7,88.4,29.7z M88.4,22.5c-0.3,0-0.6,0.1-0.9,0.2c-0.3,0.1-0.5,0.3-0.7,0.5c-0.2,0.2-0.4,0.5-0.5,0.8
		c-0.1,0.3-0.2,0.6-0.2,1v0.1h4.4v-0.2c0-0.6-0.2-1.2-0.6-1.7C89.5,22.7,89,22.4,88.4,22.5z"/>
	<path class="st0" d="M100.4,29.7c-0.5,0-1-0.1-1.5-0.3c-0.4-0.2-0.8-0.5-1.1-0.8c-0.3-0.4-0.6-0.8-0.7-1.3c-0.3-1.1-0.3-2.3,0-3.4
		c0.1-0.5,0.4-0.9,0.7-1.3c0.3-0.4,0.7-0.6,1.1-0.8c0.5-0.2,1-0.3,1.5-0.3c1.3-0.1,2.5,0.7,3,1.9l-1,0.5c-0.1-0.4-0.4-0.7-0.7-1
		c-0.4-0.2-0.8-0.4-1.2-0.3c-0.3,0-0.7,0.1-1,0.2c-0.3,0.1-0.5,0.3-0.7,0.5c-0.2,0.2-0.3,0.5-0.4,0.8c-0.1,0.3-0.1,0.6-0.1,1v1.4
		c0,0.6,0.2,1.2,0.6,1.7c0.4,0.5,1,0.7,1.7,0.7c0.9,0,1.8-0.5,2.1-1.4l0.9,0.6c-0.2,0.6-0.6,1-1.1,1.4
		C101.8,29.6,101.1,29.7,100.4,29.7z"/>
	<path class="st0" d="M108.2,29.7c-0.5,0-1-0.1-1.5-0.3c-0.4-0.2-0.8-0.5-1.1-0.8c-0.3-0.4-0.6-0.8-0.7-1.3c-0.3-1.1-0.3-2.3,0-3.4
		c0.2-0.5,0.4-0.9,0.7-1.3c0.3-0.4,0.7-0.6,1.1-0.8c0.5-0.2,1-0.3,1.5-0.3c0.5,0,1,0.1,1.4,0.3c0.4,0.2,0.8,0.5,1.1,0.8
		c0.3,0.4,0.6,0.8,0.7,1.3c0.3,1.1,0.3,2.3,0,3.4c-0.2,0.5-0.4,0.9-0.7,1.3c-0.3,0.4-0.7,0.6-1.1,0.8
		C109.2,29.6,108.7,29.7,108.2,29.7z M108.2,28.6c0.6,0,1.2-0.2,1.6-0.6c0.5-0.5,0.7-1.2,0.6-1.9V25c0.1-0.7-0.2-1.4-0.6-1.9
		c-0.9-0.8-2.3-0.8-3.3,0c-0.5,0.5-0.7,1.2-0.6,1.9v1.1c-0.1,0.7,0.2,1.4,0.6,1.9C107,28.4,107.6,28.7,108.2,28.6L108.2,28.6z"/>
	<path class="st0" d="M113.8,29.5v-7.9h1.2v1.3h0.1c0.2-0.4,0.5-0.8,0.8-1.1c0.4-0.3,0.9-0.4,1.4-0.4c0.7,0,1.4,0.3,1.9,0.8
		c0.5,0.6,0.8,1.4,0.7,2.2v5.1h-1.2v-4.9c0-1.4-0.6-2.1-1.8-2.1c-0.2,0-0.5,0-0.7,0.1c-0.2,0.1-0.4,0.2-0.6,0.3
		c-0.2,0.1-0.3,0.3-0.4,0.5c-0.1,0.2-0.2,0.4-0.2,0.7v5.5L113.8,29.5z"/>
	<path class="st0" d="M122.9,22.7h-1.3v-1.1h1.3V20c0-0.5,0.1-1,0.4-1.3c0.3-0.4,0.8-0.5,1.3-0.5h1.2v1.1h-1.7v2.3h4.4v7.9h-1.2
		v-6.8h-3.2v6.8h-1.2V22.7z M128,19.8c-0.2,0-0.4,0-0.6-0.2c-0.1-0.1-0.2-0.3-0.2-0.5v-0.2c0-0.2,0.1-0.4,0.2-0.5
		c0.3-0.3,0.8-0.3,1.2,0c0.1,0.1,0.2,0.3,0.2,0.5v0.2c0,0.2-0.1,0.4-0.2,0.5C128.4,19.7,128.2,19.8,128,19.8L128,19.8z"/>
	<path class="st0" d="M137.9,30.4c0,0.7-0.3,1.4-1,1.8c-0.9,0.4-1.9,0.6-2.9,0.6c-0.9,0.1-1.8-0.1-2.7-0.5c-0.5-0.3-0.8-0.8-0.8-1.4
		c0-0.4,0.1-0.7,0.3-1c0.3-0.3,0.6-0.4,0.9-0.5v-0.2c-0.4-0.2-0.7-0.6-0.7-1.1c0-0.3,0.1-0.7,0.4-0.9c0.3-0.2,0.6-0.4,1-0.5v-0.1
		c-0.5-0.2-0.8-0.5-1.1-1c-0.3-0.4-0.4-0.9-0.4-1.5c0-0.4,0.1-0.8,0.2-1.1c0.1-0.3,0.3-0.6,0.6-0.9c0.3-0.2,0.6-0.4,0.9-0.6
		c0.9-0.3,1.9-0.3,2.7,0.1v-0.1c0-0.3,0.1-0.5,0.2-0.8c0.2-0.2,0.4-0.3,0.7-0.3h1.2v1.1h-1.5v0.5c0.3,0.2,0.5,0.5,0.7,0.9
		c0.2,0.4,0.2,0.8,0.2,1.2c0,0.4-0.1,0.8-0.2,1.1c-0.1,0.3-0.3,0.6-0.6,0.9c-0.3,0.2-0.6,0.4-0.9,0.6c-0.4,0.1-0.8,0.2-1.2,0.2
		c-0.3,0-0.5,0-0.8-0.1c-0.3,0.1-0.5,0.2-0.7,0.3c-0.2,0.1-0.3,0.3-0.3,0.6c0,0.2,0.1,0.4,0.3,0.5c0.3,0.1,0.6,0.1,0.9,0.1h1.7
		c0.8-0.1,1.5,0.1,2.1,0.6C137.7,29.3,137.9,29.8,137.9,30.4z M136.7,30.5c0-0.3-0.1-0.6-0.4-0.8c-0.4-0.2-0.8-0.3-1.3-0.3h-2.6
		c-0.4,0.2-0.7,0.6-0.7,1.1c0,0.3,0.1,0.7,0.4,0.9c0.4,0.3,0.9,0.4,1.3,0.4h1.1c0.6,0,1.1-0.1,1.6-0.3
		C136.5,31.3,136.7,30.9,136.7,30.5L136.7,30.5z M134,25.9c0.4,0,0.9-0.1,1.2-0.4c0.3-0.3,0.5-0.7,0.5-1.2V24c0-0.4-0.1-0.9-0.5-1.2
		c-0.8-0.5-1.7-0.5-2.5,0c-0.3,0.3-0.5,0.7-0.5,1.2v0.4c0,0.4,0.1,0.9,0.5,1.2C133.1,25.8,133.5,26,134,25.9L134,25.9z"/>
	<path class="st0" d="M142.9,29.5v-7.9h1.2v1.5h0.1c0.2-0.4,0.4-0.8,0.8-1c0.4-0.3,1-0.5,1.5-0.4h0.5v1.2h-0.7
		c-0.5,0-1.1,0.1-1.6,0.4c-0.3,0.2-0.6,0.6-0.6,0.9v5.4L142.9,29.5z"/>
	<path class="st0" d="M153.4,28.3L153.4,28.3c-0.1,0.2-0.2,0.4-0.4,0.5c-0.1,0.2-0.3,0.3-0.4,0.5c-0.2,0.1-0.4,0.3-0.6,0.3
		c-0.3,0.1-0.6,0.1-0.9,0.1c-0.7,0-1.4-0.3-1.9-0.8c-0.5-0.6-0.8-1.4-0.7-2.2v-5.1h1.2v4.9c0,1.4,0.6,2.1,1.8,2.1
		c0.2,0,0.5,0,0.7-0.1c0.2-0.1,0.4-0.1,0.6-0.3c0.2-0.1,0.3-0.3,0.4-0.5c0.1-0.2,0.2-0.4,0.2-0.7v-5.5h1.2v7.9h-1.2L153.4,28.3z"/>
	<path class="st0" d="M158.6,29.5c-0.4,0-0.7-0.1-1-0.4c-0.2-0.3-0.3-0.6-0.3-0.9V18.2h1.2v10.3h1.2v1.1L158.6,29.5z"/>
	<path class="st0" d="M164.4,29.7c-0.5,0-1-0.1-1.5-0.3c-0.4-0.2-0.8-0.5-1.1-0.8c-0.3-0.4-0.6-0.8-0.7-1.3c-0.3-1.1-0.3-2.3,0-3.4
		c0.2-0.5,0.4-0.9,0.7-1.3c0.3-0.4,0.7-0.6,1.1-0.8c0.5-0.2,1-0.3,1.5-0.3c0.5,0,1,0.1,1.4,0.3c0.4,0.2,0.8,0.5,1.1,0.8
		c0.3,0.4,0.5,0.8,0.7,1.2c0.2,0.5,0.2,1,0.2,1.5v0.6h-5.7v0.4c0,0.3,0.1,0.6,0.2,0.9c0.1,0.3,0.3,0.5,0.5,0.8
		c0.2,0.2,0.5,0.4,0.7,0.5c0.3,0.1,0.7,0.2,1,0.2c0.5,0,0.9-0.1,1.3-0.4c0.4-0.2,0.7-0.6,0.9-1l0.9,0.6c-0.3,0.5-0.7,1-1.2,1.3
		C165.8,29.6,165.1,29.7,164.4,29.7z M164.4,22.5c-0.3,0-0.6,0.1-0.9,0.2c-0.3,0.1-0.5,0.3-0.7,0.5c-0.2,0.2-0.4,0.5-0.5,0.8
		c-0.1,0.3-0.2,0.6-0.2,1v0.1h4.4v-0.2c0-0.6-0.2-1.2-0.6-1.7C165.6,22.7,165,22.4,164.4,22.5z"/>
	<path class="st0" d="M172.3,29.7c-0.6,0-1.3-0.1-1.8-0.4c-0.5-0.3-0.9-0.7-1.3-1.1l0.9-0.7c0.3,0.4,0.6,0.7,1,0.9
		c0.4,0.2,0.9,0.3,1.3,0.3c0.4,0,0.9-0.1,1.2-0.3c0.5-0.4,0.6-1.2,0.2-1.7c0,0,0,0,0,0c-0.3-0.3-0.7-0.4-1.1-0.5l-0.6-0.1
		c-0.3,0-0.7-0.1-1-0.2c-0.3-0.1-0.6-0.2-0.8-0.4c-0.2-0.2-0.4-0.4-0.5-0.7c-0.1-0.3-0.2-0.6-0.2-1c0-0.4,0.1-0.7,0.2-1
		c0.1-0.3,0.3-0.5,0.6-0.7c0.3-0.2,0.6-0.4,0.9-0.4c0.4-0.1,0.7-0.1,1.1-0.1c0.6,0,1.1,0.1,1.6,0.3c0.4,0.2,0.8,0.5,1.1,0.9
		l-0.8,0.7c-0.5-0.6-1.2-1-2-1c-0.4,0-0.8,0.1-1.2,0.3c-0.3,0.2-0.4,0.6-0.4,0.9c0,0.3,0.1,0.7,0.4,0.8c0.3,0.2,0.7,0.3,1.1,0.4
		l0.6,0.1c0.7,0.1,1.3,0.3,1.9,0.8c0.4,0.4,0.6,0.9,0.6,1.5c0,0.7-0.3,1.4-0.8,1.8C173.8,29.5,173,29.8,172.3,29.7z"/>
	<rect x="18.6" y="24.9" class="st1" width="13.6" height="2.3"/>
	<rect x="18.6" y="18.1" class="st2" width="13.6" height="2.3"/>
	<path class="st3" d="M25.4,40.7l-7-3.7c-4.1-2.2-6.6-6.4-6.6-11V11.3c0-1.2,1-2.3,2.3-2.3h22.6c1.2,0,2.3,1,2.3,2.3V26
		c0,4.6-2.5,8.8-6.6,11L25.4,40.7z M14.1,11.3V26c0,3.8,2.1,7.2,5.4,9l5.9,3.2l5.9-3.2c3.3-1.8,5.4-5.2,5.4-9V11.3L14.1,11.3z"/>
</g>
</svg>
