<?xml version="1.0" encoding="utf-8"?>
<!-- Generator: Adobe Illustrator 26.0.1, SVG Export Plug-In . SVG Version: 6.00 Build 0)  -->
<svg version="1.1" id="Layer_1" xmlns="http://www.w3.org/2000/svg" xmlns:xlink="http://www.w3.org/1999/xlink" x="0px" y="0px"
	 viewBox="0 0 250 100" style="enable-background:new 0 0 250 100;" xml:space="preserve">
<style type="text/css">
	.st0{fill:#242B66;}
	.st1{fill:none;}
	.st2{font-family:'IBMPlexSans-SemiBold';}
	.st3{font-size:13px;}
	.st4{fill:#525352;}
	.st5{font-family:'IBMPlexSans-Text';}
	.st6{font-size:12px;}
	.st7{fill:none;stroke:#242B66;stroke-width:1.968;stroke-miterlimit:10;}
</style>
<rect x="17" y="26" class="st0" width="12" height="2"/>
<rect x="17" y="20" class="st0" width="12" height="2"/>
<path class="st0" d="M23,40l-6.2-3.3C13.2,34.8,11,31.1,11,27V14c0-1.1,0.9-2,2-2h20c1.1,0,2,0.9,2,2v13c0,4.1-2.2,7.8-5.8,9.7
	L23,40z M13,14v13c0,3.3,1.8,6.4,4.8,7.9l5.2,2.8l5.2-2.8c2.9-1.6,4.8-4.6,4.8-7.9V14H13z"/>
<rect id="_Transparent_Rectangle__1_" x="7" y="10" class="st1" width="32" height="32"/>
<text transform="matrix(1 0 0 1 45.1973 22.584)" class="st0 st2 st3">Rules</text>
<text transform="matrix(1 0 0 1 45.1973 37.9945)"><tspan x="0" y="0" class="st4 st5 st6">Enforce best practices and govern</tspan><tspan x="0" y="14.4" class="st4 st5 st6">the way in which resources in your</tspan><tspan x="0" y="28.8" class="st4 st5 st6">account can be provisioned or</tspan><tspan x="0" y="43.2" class="st4 st5 st6">configured.</tspan></text>
<rect x="1" y="1" class="st7" width="248" height="98"/>
</svg>
