<svg xmlns="http://www.w3.org/2000/svg" width="184.7121" height="47.8204" viewBox="0 0 184.7121 47.8204"><defs><style>.cls-1{fill:#002d9c;}.cls-2{fill:#78a9ff;stroke:#78a9ff;}.cls-2,.cls-3,.cls-4{stroke-miterlimit:10;stroke-width:1.1296px;}.cls-3{fill:#4589ff;stroke:#4589ff;}.cls-4{fill:#a6c8ff;stroke:#a6c8ff;}</style></defs><g id="Text"><path class="cls-1" d="M49.4227,18.8233h3.5908a4.6935,4.6935,0,0,1,1.81.3374,3.6644,3.6644,0,0,1,1.3887,1.0054,4.5536,4.5536,0,0,1,.8818,1.6724,8.02,8.02,0,0,1,.3077,2.34,8.0117,8.0117,0,0,1-.3077,2.34,4.5528,4.5528,0,0,1-.8818,1.6729,3.6579,3.6579,0,0,1-1.3887,1.0049,4.6751,4.6751,0,0,1-1.81.3379H49.4227Zm3.5908,9.5752a3.2141,3.2141,0,0,0,1.2119-.2226,2.604,2.604,0,0,0,.9512-.6514,3.0352,3.0352,0,0,0,.622-1.0518,4.217,4.217,0,0,0,.2217-1.4189V23.3043a4.2183,4.2183,0,0,0-.2217-1.4194,3.0237,3.0237,0,0,0-.622-1.0513,2.6187,2.6187,0,0,0-.9512-.6524,3.2238,3.2238,0,0,0-1.2119-.2221H50.7117v8.4394Z"/><path class="cls-1" d="M62.5731,29.7188a3.5513,3.5513,0,0,1-1.4659-.292,3.1633,3.1633,0,0,1-1.12-.8359,3.8137,3.8137,0,0,1-.7207-1.3047,5.8668,5.8668,0,0,1,0-3.4145,3.8069,3.8069,0,0,1,.7207-1.312,3.1707,3.1707,0,0,1,1.12-.836,3.5528,3.5528,0,0,1,1.4659-.2915,3.3637,3.3637,0,0,1,1.4267.29,3.1555,3.1555,0,0,1,1.0742.8028,3.5648,3.5648,0,0,1,.6827,1.2158,4.7822,4.7822,0,0,1,.2382,1.5449v.58H60.3016v.3691a2.7115,2.7115,0,0,0,.1611.9434,2.2279,2.2279,0,0,0,.4609.76,2.0861,2.0861,0,0,0,.7364.5058,2.5189,2.5189,0,0,0,.9892.1846,2.4019,2.4019,0,0,0,1.3125-.3535,2.3126,2.3126,0,0,0,.8672-1.0127l.874.6338a3.0576,3.0576,0,0,1-1.1962,1.32A3.6179,3.6179,0,0,1,62.5731,29.7188Zm0-7.2587a2.3345,2.3345,0,0,0-.9209.1757,2.073,2.073,0,0,0-.7139.4956,2.3256,2.3256,0,0,0-.4678.7544,2.6193,2.6193,0,0,0-.1689.9532v.1074h4.374v-.168a2.4074,2.4074,0,0,0-.5762-1.685A1.9626,1.9626,0,0,0,62.5731,22.46Z"/><path class="cls-1" d="M68.45,22.7057H67.1609V21.6163H68.45V20.02a1.99,1.99,0,0,1,.43-1.3349,1.6143,1.6143,0,0,1,1.3037-.5064h1.1973v1.0894H69.6776v2.3481h4.4345v7.918H72.8846V22.7057h-3.207v6.8286H68.45Zm5.0488-2.9463a.7516.7516,0,0,1-.5761-.1919.7091.7091,0,0,1-.1758-.4986v-.2a.7087.7087,0,0,1,.1758-.4985.9593.9593,0,0,1,1.1513,0,.7093.7093,0,0,1,.1768.4985v.2a.71.71,0,0,1-.1768.4986A.7507.7507,0,0,1,73.4988,19.7594Z"/><path class="cls-1" d="M76.7205,29.5343v-7.918h1.2276v1.2744H78.01a2.5833,2.5833,0,0,1,.8213-1.0635,2.32,2.32,0,0,1,1.4189-.395,2.4843,2.4843,0,0,1,1.9414.79,3.2174,3.2174,0,0,1,.7139,2.2329v5.0791H81.6776v-4.875q0-2.1379-1.7959-2.1377a2.7412,2.7412,0,0,0-.7129.0923,2.0781,2.0781,0,0,0-.6221.2768,1.3728,1.3728,0,0,0-.4375.4693,1.3342,1.3342,0,0,0-.1611.6689v5.5054Z"/><path class="cls-1" d="M88.4139,29.7188a3.55,3.55,0,0,1-1.4658-.292,3.1628,3.1628,0,0,1-1.12-.8359,3.8137,3.8137,0,0,1-.7207-1.3047,5.8668,5.8668,0,0,1,0-3.4145,3.8069,3.8069,0,0,1,.7207-1.312,3.17,3.17,0,0,1,1.12-.836,3.552,3.552,0,0,1,1.4658-.2915,3.3637,3.3637,0,0,1,1.4267.29,3.1559,3.1559,0,0,1,1.0743.8028,3.5646,3.5646,0,0,1,.6826,1.2158,4.78,4.78,0,0,1,.2383,1.5449v.58H86.1424v.3691a2.7115,2.7115,0,0,0,.1611.9434,2.2281,2.2281,0,0,0,.461.76,2.0847,2.0847,0,0,0,.7363.5058,2.519,2.519,0,0,0,.9893.1846,2.4024,2.4024,0,0,0,1.3125-.3535,2.3124,2.3124,0,0,0,.8671-1.0127l.8741.6338a3.0578,3.0578,0,0,1-1.1963,1.32A3.6179,3.6179,0,0,1,88.4139,29.7188Zm0-7.2587a2.3345,2.3345,0,0,0-.9209.1757,2.073,2.073,0,0,0-.7139.4956,2.3256,2.3256,0,0,0-.4678.7544,2.6193,2.6193,0,0,0-.1689.9532v.1074h4.374v-.168a2.4074,2.4074,0,0,0-.5762-1.685A1.9623,1.9623,0,0,0,88.4139,22.46Z"/><path class="cls-1" d="M100.43,29.7188a3.6581,3.6581,0,0,1-1.49-.292,3.0283,3.0283,0,0,1-1.1114-.8291,3.6626,3.6626,0,0,1-.6914-1.3037,6.3431,6.3431,0,0,1,0-3.4375,3.6744,3.6744,0,0,1,.6914-1.3042,3.0337,3.0337,0,0,1,1.1114-.8286,3.66,3.66,0,0,1,1.49-.2915,2.9465,2.9465,0,0,1,2.9609,1.8565l-1.0273.5219a1.8692,1.8692,0,0,0-.707-.9516,2.1209,2.1209,0,0,0-1.2266-.3374,2.4564,2.4564,0,0,0-.9668.1762,1.8809,1.8809,0,0,0-.6914.4913,2.0719,2.0719,0,0,0-.4141.7519,3.1788,3.1788,0,0,0-.1386.9585V26.25a2.5707,2.5707,0,0,0,.5605,1.7109,2.0317,2.0317,0,0,0,1.65.668,2.2294,2.2294,0,0,0,2.1484-1.3809l.8887.5987a3.1514,3.1514,0,0,1-1.1426,1.3652A3.3407,3.3407,0,0,1,100.43,29.7188Z"/><path class="cls-1" d="M108.1932,29.7188a3.5655,3.5655,0,0,1-1.458-.292,3.1314,3.1314,0,0,1-1.128-.8359,3.9291,3.9291,0,0,1-.7285-1.3047,5.72,5.72,0,0,1,0-3.4145,3.9207,3.9207,0,0,1,.7285-1.312,3.1386,3.1386,0,0,1,1.128-.836,3.5669,3.5669,0,0,1,1.458-.2915,3.5208,3.5208,0,0,1,1.45.2915,3.2431,3.2431,0,0,1,1.1279.836,3.8667,3.8667,0,0,1,.7363,1.312,5.7184,5.7184,0,0,1,0,3.4145,3.8748,3.8748,0,0,1-.7363,1.3047,3.2354,3.2354,0,0,1-1.1279.8359A3.5193,3.5193,0,0,1,108.1932,29.7188Zm0-1.09a2.2293,2.2293,0,0,0,1.626-.6143,2.5054,2.5054,0,0,0,.63-1.872V25.0069a2.5065,2.5065,0,0,0-.63-1.8716,2.4622,2.4622,0,0,0-3.253,0,2.5063,2.5063,0,0,0-.6289,1.8716v1.1358a2.5052,2.5052,0,0,0,.6289,1.872A2.233,2.233,0,0,0,108.1932,28.629Z"/><path class="cls-1" d="M113.7947,29.5343v-7.918h1.2276v1.2744h.0615a2.5746,2.5746,0,0,1,.82-1.0635,2.3231,2.3231,0,0,1,1.42-.395,2.4856,2.4856,0,0,1,1.9414.79,3.2171,3.2171,0,0,1,.7129,2.2329v5.0791h-1.2275v-4.875q0-2.1379-1.7949-2.1377a2.7493,2.7493,0,0,0-.7139.0923,2.0611,2.0611,0,0,0-.6211.2768,1.3632,1.3632,0,0,0-.4375.4693,1.3342,1.3342,0,0,0-.1611.6689v5.5054Z"/><path class="cls-1" d="M122.94,22.7057h-1.289V21.6163h1.289V20.02a1.99,1.99,0,0,1,.43-1.3349,1.6144,1.6144,0,0,1,1.3037-.5064h1.1973v1.0894h-1.7031v2.3481h4.4346v7.918h-1.2276V22.7057h-3.207v6.8286H122.94Zm5.0479-2.9463a.75.75,0,0,1-.5752-.1919.71.71,0,0,1-.1768-.4986v-.2a.7093.7093,0,0,1,.1768-.4985.9595.9595,0,0,1,1.1514,0,.7087.7087,0,0,1,.1758.4985v.2a.7091.7091,0,0,1-.1758.4986A.752.752,0,0,1,127.9881,19.7594Z"/><path class="cls-1" d="M137.8856,30.4171a1.9453,1.9453,0,0,1-.959,1.7969,5.7291,5.7291,0,0,1-2.877.5732,5.2836,5.2836,0,0,1-2.6709-.5059,1.6027,1.6027,0,0,1-.8125-1.44,1.4135,1.4135,0,0,1,.3369-1.0039,1.9965,1.9965,0,0,1,.9209-.5293V29.14a1.138,1.138,0,0,1-.706-1.1005,1.1034,1.1034,0,0,1,.3838-.9082,2.52,2.52,0,0,1,.9824-.4668v-.0606a2.5591,2.5591,0,0,1-1.0977-.97,2.7192,2.7192,0,0,1-.3906-1.4624,2.8075,2.8075,0,0,1,.2149-1.1079,2.4785,2.4785,0,0,1,.6054-.87,2.7631,2.7631,0,0,1,.9365-.5615,3.83,3.83,0,0,1,2.7237.1065v-.1382a1.3,1.3,0,0,1,.2148-.77.8043.8043,0,0,1,.7061-.3046h1.1816v1.09H136.075v.5078a2.5825,2.5825,0,0,1,.667.8848,2.7327,2.7327,0,0,1,.2383,1.1621,2.8036,2.8036,0,0,1-.2149,1.1074,2.4947,2.4947,0,0,1-.6064.87,2.74,2.74,0,0,1-.9434.5616,3.5745,3.5745,0,0,1-1.2275.2,3.8587,3.8587,0,0,1-.7676-.0771,2.5591,2.5591,0,0,0-.7207.3154.6478.6478,0,0,0-.3222.5752.4674.4674,0,0,0,.3369.4756,2.6024,2.6024,0,0,0,.875.1231h1.6875a3.3181,3.3181,0,0,1,2.1406.5576A1.8955,1.8955,0,0,1,137.8856,30.4171Zm-1.15.084a.9186.9186,0,0,0-.3614-.76,2.1375,2.1375,0,0,0-1.2812-.2842h-2.64a1.1235,1.1235,0,0,0-.7363,1.0742,1.1812,1.1812,0,0,0,.3916.8907,1.9172,1.9172,0,0,0,1.3272.3681h1.1357a3.2628,3.2628,0,0,0,1.5957-.3222A1.0444,1.0444,0,0,0,136.7352,30.5011Zm-2.7471-4.5733a1.9084,1.9084,0,0,0,1.2432-.3769,1.4191,1.4191,0,0,0,.46-1.1641v-.4316a1.4185,1.4185,0,0,0-.46-1.1636,2.2363,2.2363,0,0,0-2.4864,0,1.4185,1.4185,0,0,0-.46,1.1636v.4316a1.4191,1.4191,0,0,0,.46,1.1641A1.9065,1.9065,0,0,0,133.9881,25.9278Z"/><path class="cls-1" d="M142.9344,29.5343v-7.918h1.2275v1.4575h.0762a2.3973,2.3973,0,0,1,.7676-1.0127,2.3592,2.3592,0,0,1,1.52-.4448h.4756v1.2275h-.7217a2.7744,2.7744,0,0,0-1.5576.376,1.1089,1.1089,0,0,0-.56.9439v5.3706Z"/><path class="cls-1" d="M153.4461,28.26h-.0615a3.69,3.69,0,0,1-.3.539,2,2,0,0,1-.4375.4717,2.0377,2.0377,0,0,1-.6289.3262,2.7456,2.7456,0,0,1-.8594.122,2.505,2.505,0,0,1-1.9482-.791,3.1887,3.1887,0,0,1-.7217-2.2324V21.6163h1.2275v4.875q0,2.1372,1.8106,2.1377a2.7526,2.7526,0,0,0,.7138-.0928,1.9565,1.9565,0,0,0,.6143-.2763,1.4019,1.4019,0,0,0,.43-.4688,1.3681,1.3681,0,0,0,.1611-.6846v-5.49h1.2275v7.918h-1.2275Z"/><path class="cls-1" d="M158.5858,29.5343a1.2571,1.2571,0,0,1-.9747-.36,1.3011,1.3011,0,0,1-.3291-.9131V18.1788H158.51V28.4444h1.166v1.09Z"/><path class="cls-1" d="M164.4324,29.7188a3.5574,3.5574,0,0,1-1.4658-.292,3.1624,3.1624,0,0,1-1.12-.8359,3.8456,3.8456,0,0,1-.7207-1.3047,5.889,5.889,0,0,1,0-3.4145,3.8385,3.8385,0,0,1,.7207-1.312,3.17,3.17,0,0,1,1.12-.836,3.5589,3.5589,0,0,1,1.4658-.2915,3.3609,3.3609,0,0,1,1.4268.29,3.1565,3.1565,0,0,1,1.0742.8028,3.5816,3.5816,0,0,1,.6836,1.2158,4.8071,4.8071,0,0,1,.2373,1.5449v.58h-5.6934v.3691a2.7116,2.7116,0,0,0,.1612.9434,2.2436,2.2436,0,0,0,.4609.76,2.0938,2.0938,0,0,0,.7363.5058,2.5276,2.5276,0,0,0,.99.1846,2.3985,2.3985,0,0,0,1.3115-.3535,2.3126,2.3126,0,0,0,.8672-1.0127l.875.6338a3.06,3.06,0,0,1-1.1973,1.32A3.613,3.613,0,0,1,164.4324,29.7188Zm0-7.2587a2.3349,2.3349,0,0,0-.9209.1757,2.0615,2.0615,0,0,0-.7129.4956,2.3109,2.3109,0,0,0-.4687.7544,2.6193,2.6193,0,0,0-.169.9532v.1074h4.3741v-.168a2.4116,2.4116,0,0,0-.5752-1.685A1.9648,1.9648,0,0,0,164.4324,22.46Z"/><path class="cls-1" d="M172.2576,29.7188a3.7033,3.7033,0,0,1-1.8486-.4228,4.1988,4.1988,0,0,1-1.2813-1.1279l.8741-.7051a3.4491,3.4491,0,0,0,1.0283.8974,2.6772,2.6772,0,0,0,1.32.3145,1.9517,1.9517,0,0,0,1.22-.3379,1.2248,1.2248,0,0,0,.1377-1.7412,1.8258,1.8258,0,0,0-1.082-.4531l-.6289-.0918a5.22,5.22,0,0,1-1.0127-.2383,2.83,2.83,0,0,1-.8057-.4287,1.8567,1.8567,0,0,1-.5371-.668,2.1772,2.1772,0,0,1-.1914-.9516,2.2816,2.2816,0,0,1,.2149-1.02,2.041,2.041,0,0,1,.5908-.729,2.5762,2.5762,0,0,1,.8974-.4375,4.1476,4.1476,0,0,1,1.12-.1455,3.4989,3.4989,0,0,1,1.6191.3374,3.6273,3.6273,0,0,1,1.1426.9361l-.8125.7363a2.4206,2.4206,0,0,0-2.041-.9663,1.76,1.76,0,0,0-1.1592.33,1.1131,1.1131,0,0,0-.3906.8979.9392.9392,0,0,0,.3906.8438,2.9189,2.9189,0,0,0,1.1279.3838l.6143.0918a3.2928,3.2928,0,0,1,1.872.76,1.9994,1.9994,0,0,1,.5528,1.4658,2.2435,2.2435,0,0,1-.7832,1.8106A3.2332,3.2332,0,0,1,172.2576,29.7188Z"/><rect class="cls-2" x="18.6205" y="24.9" width="13.5552" height="2.2592"/><rect class="cls-3" x="18.6205" y="18.1224" width="13.5552" height="2.2592"/><path class="cls-4" d="M25.3981,40.7144l-6.9762-3.72A12.4049,12.4049,0,0,1,11.8428,26.03V11.3447A2.2618,2.2618,0,0,1,14.102,9.0855H36.6941a2.2617,2.2617,0,0,1,2.2592,2.2592V26.03a12.4049,12.4049,0,0,1-6.579,10.965ZM14.102,11.3447V26.03a10.15,10.15,0,0,0,5.3833,8.9717l5.9128,3.1527,5.9128-3.1527A10.15,10.15,0,0,0,36.6941,26.03V11.3447Z"/></g></svg>