<?xml version="1.0" encoding="utf-8"?>
<svg xmlns="http://www.w3.org/2000/svg" width="184.7121" height="47.8204" viewBox="0 0 184.7121 47.8204"><defs><style>.cls-1{fill:#002d9c;}.cls-2{fill:#78a9ff;stroke:#78a9ff;}.cls-2,.cls-3,.cls-4{stroke-miterlimit:10;stroke-width:1.1296px;}.cls-3{fill:#4589ff;stroke:#4589ff;}.cls-4{fill:#a6c8ff;stroke:#a6c8ff;}</style></defs><g id="Text"><path class="cls-1" d="M49.4227,18.8233h3.5908a4.6944,4.6944,0,0,1,1.8106.3374,3.6649,3.6649,0,0,1,1.3886,1.0054,4.5538,4.5538,0,0,1,.8819,1.6724,8.0235,8.0235,0,0,1,.3076,2.34,8.0152,8.0152,0,0,1-.3076,2.34,4.5529,4.5529,0,0,1-.8819,1.6729,3.6583,3.6583,0,0,1-1.3886,1.0049,4.6759,4.6759,0,0,1-1.8106.3379H49.4227Zm3.5908,9.5752a3.2134,3.2134,0,0,0,1.2119-.2226,2.6032,2.6032,0,0,0,.9512-.6514,3.0369,3.0369,0,0,0,.6221-1.0518,4.22,4.22,0,0,0,.2216-1.4189V23.3043a4.22,4.22,0,0,0-.2216-1.4194,3.0254,3.0254,0,0,0-.6221-1.0513,2.6178,2.6178,0,0,0-.9512-.6524,3.223,3.223,0,0,0-1.2119-.2221H50.7118v8.4394Z"/><path class="cls-1" d="M62.5731,29.7188a3.55,3.55,0,0,1-1.4658-.292,3.1628,3.1628,0,0,1-1.12-.8359,3.8137,3.8137,0,0,1-.7207-1.3047,5.8668,5.8668,0,0,1,0-3.4145,3.8069,3.8069,0,0,1,.7207-1.312,3.17,3.17,0,0,1,1.12-.836,3.552,3.552,0,0,1,1.4658-.2915,3.3637,3.3637,0,0,1,1.4267.29,3.1559,3.1559,0,0,1,1.0743.8028,3.5646,3.5646,0,0,1,.6826,1.2158,4.7791,4.7791,0,0,1,.2383,1.5449v.58H60.3016v.3691a2.7115,2.7115,0,0,0,.1611.9434,2.2281,2.2281,0,0,0,.461.76,2.0847,2.0847,0,0,0,.7363.5058,2.519,2.519,0,0,0,.9893.1846,2.4024,2.4024,0,0,0,1.3125-.3535,2.3124,2.3124,0,0,0,.8671-1.0127l.8741.6338a3.0578,3.0578,0,0,1-1.1963,1.32A3.6179,3.6179,0,0,1,62.5731,29.7188Zm0-7.2588a2.3346,2.3346,0,0,0-.9209.1758,2.073,2.073,0,0,0-.7139.4956,2.3256,2.3256,0,0,0-.4678.7544,2.6193,2.6193,0,0,0-.1689.9532v.1074h4.374v-.168a2.4077,2.4077,0,0,0-.5762-1.6851A1.9627,1.9627,0,0,0,62.5731,22.46Z"/><path class="cls-1" d="M68.45,22.7057H67.161V21.6163H68.45V20.02a1.9908,1.9908,0,0,1,.43-1.335,1.6147,1.6147,0,0,1,1.3037-.5063h1.1973v1.0894H69.6776v2.3481h4.4345v7.918H72.8846V22.7057h-3.207v6.8286H68.45Zm5.0489-2.9463a.752.752,0,0,1-.5762-.1919.7091.7091,0,0,1-.1758-.4986v-.2a.7087.7087,0,0,1,.1758-.4985.9595.9595,0,0,1,1.1514,0,.71.71,0,0,1,.1767.4985v.2a.71.71,0,0,1-.1767.4986A.751.751,0,0,1,73.4989,19.7594Z"/><path class="cls-1" d="M76.7205,29.5343v-7.918h1.2276v1.2744H78.01a2.5841,2.5841,0,0,1,.8213-1.0635,2.32,2.32,0,0,1,1.4189-.395,2.4842,2.4842,0,0,1,1.9414.79,3.2174,3.2174,0,0,1,.7139,2.2329v5.0791H81.6776v-4.875q0-2.1379-1.7959-2.1377a2.7417,2.7417,0,0,0-.7129.0923,2.0781,2.0781,0,0,0-.6221.2768,1.3728,1.3728,0,0,0-.4375.4693,1.3339,1.3339,0,0,0-.1611.6689v5.5054Z"/><path class="cls-1" d="M88.4139,29.7188a3.55,3.55,0,0,1-1.4658-.292,3.1624,3.1624,0,0,1-1.12-.8359,3.812,3.812,0,0,1-.7207-1.3047,5.8668,5.8668,0,0,1,0-3.4145,3.8053,3.8053,0,0,1,.7207-1.312,3.17,3.17,0,0,1,1.12-.836,3.552,3.552,0,0,1,1.4658-.2915,3.3645,3.3645,0,0,1,1.4268.29,3.1565,3.1565,0,0,1,1.0742.8028,3.563,3.563,0,0,1,.6826,1.2158,4.7791,4.7791,0,0,1,.2383,1.5449v.58H86.1424v.3691a2.7115,2.7115,0,0,0,.1611.9434,2.23,2.23,0,0,0,.461.76,2.0847,2.0847,0,0,0,.7363.5058,2.519,2.519,0,0,0,.9893.1846,2.4024,2.4024,0,0,0,1.3125-.3535,2.3132,2.3132,0,0,0,.8672-1.0127l.874.6338a3.0578,3.0578,0,0,1-1.1963,1.32A3.6179,3.6179,0,0,1,88.4139,29.7188Zm0-7.2588a2.3349,2.3349,0,0,0-.9209.1758,2.073,2.073,0,0,0-.7139.4956,2.3254,2.3254,0,0,0-.4677.7544,2.6193,2.6193,0,0,0-.169.9532v.1074h4.374v-.168a2.4077,2.4077,0,0,0-.5761-1.6851A1.963,1.963,0,0,0,88.4139,22.46Z"/><path class="cls-1" d="M100.43,29.7188a3.6581,3.6581,0,0,1-1.49-.292,3.0271,3.0271,0,0,1-1.1113-.8291,3.6611,3.6611,0,0,1-.6914-1.3037,6.3431,6.3431,0,0,1,0-3.4375,3.6728,3.6728,0,0,1,.6914-1.3042,3.0325,3.0325,0,0,1,1.1113-.8286,3.66,3.66,0,0,1,1.49-.2915,2.9465,2.9465,0,0,1,2.961,1.8565l-1.0274.5219a1.8692,1.8692,0,0,0-.707-.9516,2.12,2.12,0,0,0-1.2266-.3374,2.4564,2.4564,0,0,0-.9668.1762,1.8809,1.8809,0,0,0-.6914.4913,2.0717,2.0717,0,0,0-.414.7519,3.1788,3.1788,0,0,0-.1387.9585V26.25a2.5707,2.5707,0,0,0,.5605,1.7109,2.0319,2.0319,0,0,0,1.65.668,2.23,2.23,0,0,0,2.1485-1.3809l.8886.5987a3.1519,3.1519,0,0,1-1.1425,1.3652A3.3413,3.3413,0,0,1,100.43,29.7188Z"/><path class="cls-1" d="M108.1932,29.7188a3.5658,3.5658,0,0,1-1.458-.292,3.131,3.131,0,0,1-1.1279-.8359,3.9293,3.9293,0,0,1-.7286-1.3047,5.72,5.72,0,0,1,0-3.4145,3.9209,3.9209,0,0,1,.7286-1.312,3.1382,3.1382,0,0,1,1.1279-.836,3.5673,3.5673,0,0,1,1.458-.2915,3.5208,3.5208,0,0,1,1.45.2915,3.2422,3.2422,0,0,1,1.1279.836,3.8667,3.8667,0,0,1,.7363,1.312,5.7184,5.7184,0,0,1,0,3.4145,3.8748,3.8748,0,0,1-.7363,1.3047,3.2345,3.2345,0,0,1-1.1279.8359A3.5193,3.5193,0,0,1,108.1932,29.7188Zm0-1.09a2.2293,2.2293,0,0,0,1.626-.6143,2.5054,2.5054,0,0,0,.63-1.872V25.0069a2.5066,2.5066,0,0,0-.63-1.8716,2.4622,2.4622,0,0,0-3.253,0,2.5063,2.5063,0,0,0-.6289,1.8716v1.1358a2.5052,2.5052,0,0,0,.6289,1.872A2.2333,2.2333,0,0,0,108.1932,28.629Z"/><path class="cls-1" d="M113.7948,29.5343v-7.918h1.2275v1.2744h.0615a2.5746,2.5746,0,0,1,.82-1.0635,2.3232,2.3232,0,0,1,1.42-.395,2.4859,2.4859,0,0,1,1.9414.79,3.2176,3.2176,0,0,1,.7129,2.2329v5.0791h-1.2276v-4.875q0-2.1379-1.7949-2.1377a2.7493,2.7493,0,0,0-.7139.0923,2.0622,2.0622,0,0,0-.6211.2768,1.3651,1.3651,0,0,0-.4375.4693,1.3339,1.3339,0,0,0-.1611.6689v5.5054Z"/><path class="cls-1" d="M122.94,22.7057h-1.2891V21.6163H122.94V20.02a1.99,1.99,0,0,1,.43-1.335,1.6146,1.6146,0,0,1,1.3037-.5063h1.1972v1.0894h-1.7031v2.3481h4.4346v7.918h-1.2276V22.7057h-3.207v6.8286H122.94Zm5.0478-2.9463a.75.75,0,0,1-.5752-.1919.71.71,0,0,1-.1767-.4986v-.2a.7093.7093,0,0,1,.1767-.4985.9595.9595,0,0,1,1.1514,0,.7087.7087,0,0,1,.1758.4985v.2a.7091.7091,0,0,1-.1758.4986A.752.752,0,0,1,127.9881,19.7594Z"/><path class="cls-1" d="M137.8856,30.4171a1.9451,1.9451,0,0,1-.959,1.7969,5.7289,5.7289,0,0,1-2.877.5732,5.2839,5.2839,0,0,1-2.6709-.5059,1.6029,1.6029,0,0,1-.8125-1.44,1.4131,1.4131,0,0,1,.337-1.0039,1.9955,1.9955,0,0,1,.9209-.5293V29.14a1.1382,1.1382,0,0,1-.7061-1.1006,1.1036,1.1036,0,0,1,.3838-.9082,2.5228,2.5228,0,0,1,.9824-.4668v-.0605a2.5583,2.5583,0,0,1-1.0976-.97,2.7183,2.7183,0,0,1-.3907-1.4624,2.8075,2.8075,0,0,1,.2149-1.1079,2.4789,2.4789,0,0,1,.6054-.87,2.7626,2.7626,0,0,1,.9366-.5615,3.8294,3.8294,0,0,1,2.7236.1065v-.1382a1.3,1.3,0,0,1,.2148-.77.8043.8043,0,0,1,.7061-.3046h1.1816v1.09H136.075v.5078a2.5812,2.5812,0,0,1,.667.8848,2.7327,2.7327,0,0,1,.2383,1.1621,2.8054,2.8054,0,0,1-.2148,1.1074,2.495,2.495,0,0,1-.6065.87,2.7388,2.7388,0,0,1-.9433.5615,3.573,3.573,0,0,1-1.2276.2,3.8594,3.8594,0,0,1-.7676-.0771,2.5591,2.5591,0,0,0-.7207.3154.6478.6478,0,0,0-.3222.5752.4674.4674,0,0,0,.3369.4756,2.6024,2.6024,0,0,0,.875.1231h1.6875a3.3181,3.3181,0,0,1,2.1406.5576A1.8955,1.8955,0,0,1,137.8856,30.4171Zm-1.15.084a.9188.9188,0,0,0-.3613-.76,2.1379,2.1379,0,0,0-1.2813-.2842h-2.64a1.1235,1.1235,0,0,0-.7364,1.0742,1.1812,1.1812,0,0,0,.3916.8907,1.9173,1.9173,0,0,0,1.3272.3681h1.1357a3.2628,3.2628,0,0,0,1.5957-.3222A1.0444,1.0444,0,0,0,136.7352,30.5011Zm-2.7471-4.5733a1.9082,1.9082,0,0,0,1.2432-.3769,1.4191,1.4191,0,0,0,.46-1.1641v-.4316a1.4185,1.4185,0,0,0-.46-1.1636,2.2357,2.2357,0,0,0-2.4863,0,1.4182,1.4182,0,0,0-.46,1.1636v.4316a1.4189,1.4189,0,0,0,.46,1.1641A1.906,1.906,0,0,0,133.9881,25.9278Z"/><path class="cls-1" d="M142.9344,29.5343v-7.918h1.2275v1.4575h.0762a2.3973,2.3973,0,0,1,.7676-1.0127,2.3594,2.3594,0,0,1,1.52-.4448h.4756v1.2275h-.7217a2.7744,2.7744,0,0,0-1.5576.376,1.1092,1.1092,0,0,0-.56.9439v5.3706Z"/><path class="cls-1" d="M153.4461,28.26h-.0615a3.6806,3.6806,0,0,1-.3.539,2.0014,2.0014,0,0,1-.4375.4717,2.0366,2.0366,0,0,1-.6289.3262,2.7451,2.7451,0,0,1-.8594.122,2.5051,2.5051,0,0,1-1.9482-.791,3.1887,3.1887,0,0,1-.7217-2.2324V21.6163h1.2275v4.875q0,2.1372,1.8106,2.1377a2.7526,2.7526,0,0,0,.7138-.0928,1.9565,1.9565,0,0,0,.6143-.2763,1.4019,1.4019,0,0,0,.43-.4688,1.3683,1.3683,0,0,0,.1611-.6846v-5.49h1.2276v7.918h-1.2276Z"/><path class="cls-1" d="M158.5858,29.5343a1.2572,1.2572,0,0,1-.9746-.36,1.3006,1.3006,0,0,1-.3291-.9131V18.1788H158.51V28.4444h1.166v1.09Z"/><path class="cls-1" d="M164.4325,29.7188a3.5579,3.5579,0,0,1-1.4659-.292,3.1633,3.1633,0,0,1-1.12-.8359,3.8473,3.8473,0,0,1-.7207-1.3047,5.889,5.889,0,0,1,0-3.4145,3.84,3.84,0,0,1,.7207-1.312,3.1707,3.1707,0,0,1,1.12-.836,3.5594,3.5594,0,0,1,1.4659-.2915,3.36,3.36,0,0,1,1.4267.29,3.1555,3.1555,0,0,1,1.0742.8028,3.5816,3.5816,0,0,1,.6836,1.2158,4.8066,4.8066,0,0,1,.2373,1.5449v.58H162.161v.3691a2.7115,2.7115,0,0,0,.1611.9434,2.2436,2.2436,0,0,0,.4609.76,2.0951,2.0951,0,0,0,.7364.5058,2.5271,2.5271,0,0,0,.99.1846,2.3985,2.3985,0,0,0,1.3115-.3535,2.3126,2.3126,0,0,0,.8672-1.0127l.875.6338a3.06,3.06,0,0,1-1.1973,1.32A3.6126,3.6126,0,0,1,164.4325,29.7188Zm0-7.2588a2.3346,2.3346,0,0,0-.9209.1758,2.06,2.06,0,0,0-.7129.4956,2.3111,2.3111,0,0,0-.4688.7544,2.6193,2.6193,0,0,0-.1689.9532v.1074h4.374v-.168a2.4118,2.4118,0,0,0-.5752-1.6851A1.9651,1.9651,0,0,0,164.4325,22.46Z"/><path class="cls-1" d="M172.2576,29.7188a3.7033,3.7033,0,0,1-1.8486-.4228,4.1973,4.1973,0,0,1-1.2812-1.1279l.874-.7051a3.4505,3.4505,0,0,0,1.0283.8974,2.6775,2.6775,0,0,0,1.32.3145,1.9515,1.9515,0,0,0,1.22-.3379,1.2248,1.2248,0,0,0,.1377-1.7412,1.8258,1.8258,0,0,0-1.082-.4531l-.6289-.0918a5.222,5.222,0,0,1-1.0127-.2383,2.83,2.83,0,0,1-.8057-.4287,1.8577,1.8577,0,0,1-.5371-.668,2.1773,2.1773,0,0,1-.1914-.9517,2.2814,2.2814,0,0,1,.2149-1.02,2.0421,2.0421,0,0,1,.5908-.729,2.5759,2.5759,0,0,1,.8975-.4375,4.1468,4.1468,0,0,1,1.12-.1455,3.4986,3.4986,0,0,1,1.6191.3374,3.6273,3.6273,0,0,1,1.1426.9361l-.8125.7363a2.4206,2.4206,0,0,0-2.041-.9663,1.76,1.76,0,0,0-1.1592.33,1.1134,1.1134,0,0,0-.3906.8979.9394.9394,0,0,0,.3906.8438,2.9189,2.9189,0,0,0,1.1279.3838l.6143.0917a3.2939,3.2939,0,0,1,1.8721.76,2,2,0,0,1,.5527,1.4658,2.2435,2.2435,0,0,1-.7832,1.8106A3.2332,3.2332,0,0,1,172.2576,29.7188Z"/><rect class="cls-2" x="18.6205" y="24.9" width="13.5552" height="2.2592"/><rect class="cls-3" x="18.6205" y="18.1224" width="13.5552" height="2.2592"/><path class="cls-4" d="M25.3981,40.7145l-6.9762-3.72A12.4049,12.4049,0,0,1,11.8428,26.03V11.3447a2.2618,2.2618,0,0,1,2.2593-2.2592h22.592a2.2617,2.2617,0,0,1,2.2592,2.2592V26.03a12.4045,12.4045,0,0,1-6.579,10.9649Zm-11.296-29.37V26.03a10.15,10.15,0,0,0,5.3832,8.9716l5.9128,3.1528,5.9128-3.1528A10.15,10.15,0,0,0,36.6941,26.03V11.3447Z"/></g></svg>