<svg id="Layer_1" data-name="Layer 1" xmlns="http://www.w3.org/2000/svg" width="221" height="91" viewBox="0 0 221 91"><defs><style>.cls-1{fill:#242b66;}.cls-2{fill:#525352;}.cls-3{fill:none;}</style></defs><path class="cls-1" d="M47.7651,22.584H46.1812V14.208h3.78a2.79,2.79,0,0,1,1.0318.18,2.0781,2.0781,0,0,1,.7739.522,2.3887,2.3887,0,0,1,.4922.8217A3.1251,3.1251,0,0,1,52.4331,16.8a2.7535,2.7535,0,0,1-.39,1.4883,2.1283,2.1283,0,0,1-1.1705.8877l1.7164,3.4082H50.8252l-1.56-3.228h-1.5Zm2.04-4.56a1.0147,1.0147,0,0,0,.72-.2461.9118.9118,0,0,0,.2637-.7016v-.5523a.8937.8937,0,0,0-.2637-.6958,1.03,1.03,0,0,0-.72-.24h-2.04v2.436Z"/><path class="cls-1" d="M57.7969,21.54h-.06a2.0231,2.0231,0,0,1-.2217.45,1.6377,1.6377,0,0,1-.3481.3785,1.59,1.59,0,0,1-.5039.2636,2.1855,2.1855,0,0,1-.6782.0962,1.8035,1.8035,0,0,1-1.4878-.6362,2.8071,2.8071,0,0,1-.5161-1.812V16.32h1.5361V20.124a1.6516,1.6516,0,0,0,.2519.99.9325.9325,0,0,0,.8042.3423,1.7153,1.7153,0,0,0,.45-.06,1.1424,1.1424,0,0,0,.39-.186,1.0338,1.0338,0,0,0,.2759-.3121.8548.8548,0,0,0,.1079-.4379V16.32H59.333V22.584H57.7969Z"/><path class="cls-1" d="M62.645,22.584a1.5289,1.5289,0,0,1-1.164-.396,1.5675,1.5675,0,0,1-.3716-1.1162V13.7041H62.645v7.644h.8281V22.584Z"/><path class="cls-1" d="M67.1689,22.728a3.1279,3.1279,0,0,1-1.2417-.2339,2.57,2.57,0,0,1-.9243-.66,2.9524,2.9524,0,0,1-.582-1.0322,4.65,4.65,0,0,1-.0059-2.7056,2.94,2.94,0,0,1,.57-1.0264,2.5262,2.5262,0,0,1,.9121-.66,3.0447,3.0447,0,0,1,1.2241-.2344,2.9766,2.9766,0,0,1,1.272.2524,2.4589,2.4589,0,0,1,.8881.6836,2.9584,2.9584,0,0,1,.522,1.002,4.1631,4.1631,0,0,1,.1739,1.2182v.5039H65.813v.1548a1.531,1.531,0,0,0,.3843,1.09,1.4854,1.4854,0,0,0,1.14.4111,1.6979,1.6979,0,0,0,.9419-.2383,2.6787,2.6787,0,0,0,.6543-.6079l.8281.9268a2.5778,2.5778,0,0,1-1.05.8486A3.6563,3.6563,0,0,1,67.1689,22.728Zm-.0239-5.4a1.2311,1.2311,0,0,0-.9721.4077,1.5384,1.5384,0,0,0-.36,1.0562v.0962h2.5679V18.78a1.6431,1.6431,0,0,0-.3179-1.05A1.1009,1.1009,0,0,0,67.145,17.3281Z"/><path class="cls-1" d="M73.3848,22.728a3.3573,3.3573,0,0,1-1.5118-.3061,3.4818,3.4818,0,0,1-1.08-.8457l.936-.9121a2.8375,2.8375,0,0,0,.7617.624,1.9481,1.9481,0,0,0,.9541.228,1.3084,1.3084,0,0,0,.7979-.1919.6334.6334,0,0,0,.2461-.5283.57.57,0,0,0-.1739-.438,1.11,1.11,0,0,0-.5942-.2222l-.624-.0839A2.969,2.969,0,0,1,71.543,19.47a1.6214,1.6214,0,0,1-.5342-1.3144,1.95,1.95,0,0,1,.168-.8218,1.7426,1.7426,0,0,1,.48-.624,2.204,2.204,0,0,1,.75-.396,3.2531,3.2531,0,0,1,.9781-.1382,4.4467,4.4467,0,0,1,.81.0664,2.94,2.94,0,0,1,.6421.1919,2.4849,2.4849,0,0,1,.5278.312,4.9882,4.9882,0,0,1,.4683.4141l-.9.9a2.3772,2.3772,0,0,0-.66-.48,1.8532,1.8532,0,0,0-.84-.1919,1.156,1.156,0,0,0-.7256.18.5734.5734,0,0,0-.2221.4682.5939.5939,0,0,0,.186.4737,1.2862,1.2862,0,0,0,.63.2343l.6362.084q2.0274.2878,2.0278,1.8477a1.8624,1.8624,0,0,1-.186.834,1.9018,1.9018,0,0,1-.522.6484,2.4752,2.4752,0,0,1-.81.42A3.5231,3.5231,0,0,1,73.3848,22.728Z"/><path class="cls-2" d="M46.0972,36.9946v-6.98h4.35v.86h-3.38v2.16h3.13v.86h-3.13v2.24h3.38v.86Z"/><path class="cls-2" d="M51.897,36.9946v-5.18h.93v.84h.05a1.6944,1.6944,0,0,1,.5253-.6929,1.488,1.488,0,0,1,.9346-.2671,1.5816,1.5816,0,0,1,1.2554.52,2.1621,2.1621,0,0,1,.4551,1.47v3.31h-.93V33.8174q0-1.3229-1.09-1.3228a1.645,1.645,0,0,0-.4453.06,1.2925,1.2925,0,0,0-.3847.1758.8537.8537,0,0,0-.27.2905.8231.8231,0,0,0-.1.4155v3.5581Z"/><path class="cls-2" d="M57.9072,32.6147h-.83v-.8h.83v-.96a1.3464,1.3464,0,0,1,.3-.915,1.1421,1.1421,0,0,1,.91-.3448h.81v.8h-1.09v1.42h1.09v.8h-1.09v4.38h-.93Z"/><path class="cls-2" d="M62.8872,37.1147a2.3852,2.3852,0,0,1-.9648-.19,2.0857,2.0857,0,0,1-.7452-.5454,2.499,2.499,0,0,1-.48-.855,3.7734,3.7734,0,0,1,0-2.24,2.5037,2.5037,0,0,1,.48-.855,2.0785,2.0785,0,0,1,.7452-.5449,2.5448,2.5448,0,0,1,1.93,0,2.079,2.079,0,0,1,.7451.5449,2.512,2.512,0,0,1,.48.855,3.7734,3.7734,0,0,1,0,2.24,2.5073,2.5073,0,0,1-.48.855,2.0862,2.0862,0,0,1-.7451.5454A2.3894,2.3894,0,0,1,62.8872,37.1147Zm0-.8a1.3385,1.3385,0,0,0,.99-.38,1.5484,1.5484,0,0,0,.38-1.14v-.78a1.549,1.549,0,0,0-.38-1.14,1.48,1.48,0,0,0-1.98,0,1.5489,1.5489,0,0,0-.38,1.14v.78a1.5483,1.5483,0,0,0,.38,1.14A1.3393,1.3393,0,0,0,62.8872,36.3145Z"/><path class="cls-2" d="M66.5171,36.9946v-5.18h.93v.99h.05a1.4632,1.4632,0,0,1,.18-.37,1.2829,1.2829,0,0,1,.3-.315,1.567,1.567,0,0,1,.4252-.22,1.7006,1.7006,0,0,1,.5547-.0849h.31v.93h-.46a1.8182,1.8182,0,0,0-1.0049.2349.71.71,0,0,0-.3549.6152v3.4Z"/><path class="cls-2" d="M72.1772,37.1147a2.4306,2.4306,0,0,1-.99-.19,2.0274,2.0274,0,0,1-.73-.54,2.3617,2.3617,0,0,1-.4551-.855,3.8218,3.8218,0,0,1-.1547-1.125,3.77,3.77,0,0,1,.1547-1.12,2.4147,2.4147,0,0,1,.4551-.855,1.9957,1.9957,0,0,1,.73-.5449,2.4306,2.4306,0,0,1,.99-.19,2.1149,2.1149,0,0,1,1.25.34,2.0189,2.0189,0,0,1,.71.9l-.77.38a1.1975,1.1975,0,0,0-.4351-.6,1.2564,1.2564,0,0,0-.7554-.22,1.2212,1.2212,0,0,0-1.0048.41,1.6056,1.6056,0,0,0-.335,1.05v.9a1.6074,1.6074,0,0,0,.335,1.05,1.2212,1.2212,0,0,0,1.0048.41,1.3325,1.3325,0,0,0,.8-.23,1.6519,1.6519,0,0,0,.52-.65l.68.42a2.0416,2.0416,0,0,1-.75.9253A2.1987,2.1987,0,0,1,72.1772,37.1147Z"/><path class="cls-2" d="M77.187,37.1147a2.35,2.35,0,0,1-.9746-.1953,2.1119,2.1119,0,0,1-.74-.5449,2.4329,2.4329,0,0,1-.47-.85,3.8661,3.8661,0,0,1,0-2.2348,2.4294,2.4294,0,0,1,.47-.855,2.1134,2.1134,0,0,1,.74-.545,2.36,2.36,0,0,1,.9746-.1948,2.2915,2.2915,0,0,1,.9653.1944,2.0451,2.0451,0,0,1,.7149.5332,2.3206,2.3206,0,0,1,.44.8071,3.2913,3.2913,0,0,1,.1494,1.0063v.3887h-3.65v.21a1.5141,1.5141,0,0,0,.38,1.0649,1.39,1.39,0,0,0,1.08.4151,1.55,1.55,0,0,0,.84-.22,1.5774,1.5774,0,0,0,.56-.62l.6006.5132a2.008,2.008,0,0,1-.8106.82A2.5252,2.5252,0,0,1,77.187,37.1147Zm0-4.67a1.3874,1.3874,0,0,0-.5547.1094,1.3069,1.3069,0,0,0-.7251.7646,1.6622,1.6622,0,0,0-.1.5865v.0693h2.6607v-.0991a1.5145,1.5145,0,0,0-.3457-1.0386A1.1825,1.1825,0,0,0,77.187,32.4448Z"/><path class="cls-2" d="M83.0869,29.5947h.9307v3.06h.04a1.4034,1.4034,0,0,1,.5645-.7173,1.6976,1.6976,0,0,1,.9248-.2427,1.9951,1.9951,0,0,1,.875.1846,1.79,1.79,0,0,1,.6552.54,2.5158,2.5158,0,0,1,.41.855,4.6412,4.6412,0,0,1,0,2.26,2.5107,2.5107,0,0,1-.41.8549,1.7847,1.7847,0,0,1-.6552.54,1.9966,1.9966,0,0,1-.875.185,1.7019,1.7019,0,0,1-.9248-.2426,1.4031,1.4031,0,0,1-.5645-.7178h-.04v.84h-.9307Zm2.19,6.72a1.2766,1.2766,0,0,0,.9952-.4019,1.5251,1.5251,0,0,0,.3652-1.0654v-.8848a1.5249,1.5249,0,0,0-.3652-1.0654,1.2769,1.2769,0,0,0-.9952-.4024,1.6688,1.6688,0,0,0-.49.07,1.25,1.25,0,0,0-.3994.2012,1.0289,1.0289,0,0,0-.27.3013.7468.7468,0,0,0-.1.3823v1.91a.7439.7439,0,0,0,.1.3818,1.0306,1.0306,0,0,0,.27.3018,1.247,1.247,0,0,0,.3994.2006A1.6655,1.6655,0,0,0,85.2773,36.3145Z"/><path class="cls-2" d="M90.917,37.1147a2.3484,2.3484,0,0,1-.9746-.1953,2.1123,2.1123,0,0,1-.74-.5449,2.4169,2.4169,0,0,1-.47-.85,3.8661,3.8661,0,0,1,0-2.2348,2.4136,2.4136,0,0,1,.47-.855,2.1138,2.1138,0,0,1,.74-.545,2.3579,2.3579,0,0,1,.9746-.1948,2.2882,2.2882,0,0,1,.9648.1944,2.0451,2.0451,0,0,1,.7149.5332,2.3206,2.3206,0,0,1,.44.8071,3.2913,3.2913,0,0,1,.1494,1.0063v.3887H89.5371v.21a1.5119,1.5119,0,0,0,.38,1.0649,1.3892,1.3892,0,0,0,1.08.4151,1.5485,1.5485,0,0,0,.84-.22,1.5774,1.5774,0,0,0,.56-.62l.6006.5132a2.008,2.008,0,0,1-.8106.82A2.5248,2.5248,0,0,1,90.917,37.1147Zm0-4.67a1.3857,1.3857,0,0,0-.5547.1094,1.3212,1.3212,0,0,0-.44.3027,1.3384,1.3384,0,0,0-.2852.4619,1.6735,1.6735,0,0,0-.1.5865v.0693h2.66v-.0991a1.5145,1.5145,0,0,0-.3457-1.0386A1.1809,1.1809,0,0,0,90.917,32.4448Z"/><path class="cls-2" d="M96.0469,37.1147a2.5132,2.5132,0,0,1-1.2149-.27,2.7555,2.7555,0,0,1-.8554-.73l.6308-.54a2.1335,2.1335,0,0,0,.6543.57,1.7324,1.7324,0,0,0,.8457.2,1.2078,1.2078,0,0,0,.76-.2051.745.745,0,0,0,.0849-1.0449,1.11,1.11,0,0,0-.6552-.26l-.4395-.07a3.36,3.36,0,0,1-.6806-.16,1.77,1.77,0,0,1-.53-.29,1.2687,1.2687,0,0,1-.3447-.44,1.4218,1.4218,0,0,1-.125-.62,1.5507,1.5507,0,0,1,.1406-.6748,1.332,1.332,0,0,1,.39-.49,1.7432,1.7432,0,0,1,.5948-.2954,2.7144,2.7144,0,0,1,.7548-.1,2.4542,2.4542,0,0,1,1.1006.22,2.4242,2.4242,0,0,1,.77.61l-.59.56a1.6912,1.6912,0,0,0-.5146-.4351,1.5907,1.5907,0,0,0-.795-.1846,1.0855,1.0855,0,0,0-.7158.2.6624.6624,0,0,0-.2344.53.5829.5829,0,0,0,.2247.51,1.6,1.6,0,0,0,.6748.23l.44.07a2.2142,2.2142,0,0,1,1.2353.5,1.3034,1.3034,0,0,1,.375.97,1.4769,1.4769,0,0,1-.53,1.2A2.2023,2.2023,0,0,1,96.0469,37.1147Z"/><path class="cls-2" d="M100.5566,36.9946a.9564.9564,0,0,1-.73-.2641.9955.9955,0,0,1-.25-.7139V32.6147h-.83v-.8h.46a.4776.4776,0,0,0,.36-.11.5471.5471,0,0,0,.1-.37v-.95h.84v1.43h1.11v.8h-1.11v3.58h1.03v.8Z"/><path class="cls-2" d="M105.2168,31.8145h.93v.84h.04a1.4051,1.4051,0,0,1,.5655-.7173,1.6929,1.6929,0,0,1,.9248-.2427,2.0013,2.0013,0,0,1,.875.1846,1.7985,1.7985,0,0,1,.6552.54,2.5363,2.5363,0,0,1,.41.855,4.6444,4.6444,0,0,1,0,2.26,2.5312,2.5312,0,0,1-.41.8549,1.7928,1.7928,0,0,1-.6552.54,2.0028,2.0028,0,0,1-.875.185,1.6971,1.6971,0,0,1-.9248-.2426,1.4047,1.4047,0,0,1-.5655-.7178h-.04v2.84h-.93Zm2.1894,4.5a1.2753,1.2753,0,0,0,.9952-.4019,1.5251,1.5251,0,0,0,.3652-1.0654v-.8848a1.5249,1.5249,0,0,0-.3652-1.0654,1.2757,1.2757,0,0,0-.9952-.4024,1.6669,1.6669,0,0,0-.4892.07,1.2554,1.2554,0,0,0-.4.2012,1.0394,1.0394,0,0,0-.2695.3013.7378.7378,0,0,0-.1006.3823v1.91a.735.735,0,0,0,.1006.3818,1.0411,1.0411,0,0,0,.2695.3018,1.2523,1.2523,0,0,0,.4.2006A1.6636,1.6636,0,0,0,107.4062,36.3145Z"/><path class="cls-2" d="M111.0664,36.9946v-5.18h.9307v.99h.05a1.4583,1.4583,0,0,1,.18-.37,1.29,1.29,0,0,1,.3-.315,1.5629,1.5629,0,0,1,.4257-.22,1.6984,1.6984,0,0,1,.5547-.0849h.31v.93h-.46a1.82,1.82,0,0,0-1.0048.2349.7106.7106,0,0,0-.3545.6152v3.4Z"/><path class="cls-2" d="M118.5264,36.9946a.8214.8214,0,0,1-.6446-.24,1.1181,1.1181,0,0,1-.2646-.62h-.0508a1.3356,1.3356,0,0,1-.55.73,1.7242,1.7242,0,0,1-.95.25,1.7873,1.7873,0,0,1-1.26-.415,1.4694,1.4694,0,0,1-.45-1.1352,1.3272,1.3272,0,0,1,.545-1.1451,2.8476,2.8476,0,0,1,1.665-.395h.98v-.47a1.0845,1.0845,0,0,0-.28-.8,1.1869,1.1869,0,0,0-.87-.28,1.34,1.34,0,0,0-.7647.2051,1.6836,1.6836,0,0,0-.5048.5351l-.5606-.51a1.98,1.98,0,0,1,.6953-.7149,2.1747,2.1747,0,0,1,1.1846-.2949,2.2014,2.2014,0,0,1,1.5.4639,1.6509,1.6509,0,0,1,.53,1.312v2.7241h.58v.8Zm-2.25-.63a1.56,1.56,0,0,0,.91-.25.7513.7513,0,0,0,.36-.64v-.8h-.99a1.7746,1.7746,0,0,0-.9345.19.6134.6134,0,0,0-.295.55v.2a.657.657,0,0,0,.2549.5547A1.1141,1.1141,0,0,0,116.2764,36.3647Z"/><path class="cls-2" d="M122.127,37.1147a2.4349,2.4349,0,0,1-.99-.19,2.0256,2.0256,0,0,1-.73-.54,2.3617,2.3617,0,0,1-.4551-.855,3.8214,3.8214,0,0,1-.1552-1.125,3.7693,3.7693,0,0,1,.1552-1.12,2.4147,2.4147,0,0,1,.4551-.855,1.994,1.994,0,0,1,.73-.5449,2.4349,2.4349,0,0,1,.99-.19,2.1164,2.1164,0,0,1,1.25.34,2.0149,2.0149,0,0,1,.71.9l-.7695.38a1.1978,1.1978,0,0,0-.4356-.6,1.2545,1.2545,0,0,0-.7548-.22,1.2206,1.2206,0,0,0-1.0049.41,1.6029,1.6029,0,0,0-.335,1.05v.9a1.6047,1.6047,0,0,0,.335,1.05,1.2206,1.2206,0,0,0,1.0049.41,1.33,1.33,0,0,0,.8-.23,1.6536,1.6536,0,0,0,.52-.65l.68.42a2.048,2.048,0,0,1-.75.9253A2.1989,2.1989,0,0,1,122.127,37.1147Z"/><path class="cls-2" d="M126.4863,36.9946a.9564.9564,0,0,1-.73-.2641.995.995,0,0,1-.25-.7139V32.6147h-.83v-.8h.46a.4776.4776,0,0,0,.36-.11.5471.5471,0,0,0,.1-.37v-.95h.84v1.43h1.11v.8h-1.11v3.58h1.03v.8Z"/><path class="cls-2" d="M129.2568,30.7349a.5672.5672,0,0,1-.4248-.14.5078.5078,0,0,1-.1357-.37v-.14a.5069.5069,0,0,1,.1357-.37.7141.7141,0,0,1,.85,0,.51.51,0,0,1,.1348.37v.14a.5109.5109,0,0,1-.1348.37A.5668.5668,0,0,1,129.2568,30.7349Zm-.4707,1.08h.9307v5.18h-.9307Z"/><path class="cls-2" d="M133.3164,37.1147a2.4348,2.4348,0,0,1-.99-.19,2.0247,2.0247,0,0,1-.73-.54,2.36,2.36,0,0,1-.4551-.855,3.8213,3.8213,0,0,1-.1553-1.125,3.7692,3.7692,0,0,1,.1553-1.12,2.4131,2.4131,0,0,1,.4551-.855,1.9931,1.9931,0,0,1,.73-.5449,2.4348,2.4348,0,0,1,.99-.19,2.116,2.116,0,0,1,1.25.34,2.0158,2.0158,0,0,1,.71.9l-.77.38a1.1982,1.1982,0,0,0-.4355-.6,1.2549,1.2549,0,0,0-.7549-.22,1.2208,1.2208,0,0,0-1.0049.41,1.6034,1.6034,0,0,0-.3349,1.05v.9a1.6052,1.6052,0,0,0,.3349,1.05,1.2208,1.2208,0,0,0,1.0049.41,1.33,1.33,0,0,0,.8-.23,1.6527,1.6527,0,0,0,.52-.65l.68.42a2.048,2.048,0,0,1-.75.9253A2.1987,2.1987,0,0,1,133.3164,37.1147Z"/><path class="cls-2" d="M138.3262,37.1147a2.3484,2.3484,0,0,1-.9746-.1953,2.1123,2.1123,0,0,1-.74-.5449,2.4169,2.4169,0,0,1-.47-.85,3.8661,3.8661,0,0,1,0-2.2348,2.4136,2.4136,0,0,1,.47-.855,2.1138,2.1138,0,0,1,.74-.545,2.3579,2.3579,0,0,1,.9746-.1948,2.2882,2.2882,0,0,1,.9648.1944,2.0451,2.0451,0,0,1,.7149.5332,2.3206,2.3206,0,0,1,.44.8071,3.2913,3.2913,0,0,1,.1494,1.0063v.3887h-3.6494v.21a1.5119,1.5119,0,0,0,.38,1.0649,1.3891,1.3891,0,0,0,1.08.4151,1.5486,1.5486,0,0,0,.84-.22,1.5774,1.5774,0,0,0,.56-.62l.6005.5132a2.0071,2.0071,0,0,1-.8105.82A2.5248,2.5248,0,0,1,138.3262,37.1147Zm0-4.67a1.3857,1.3857,0,0,0-.5547.1094,1.3212,1.3212,0,0,0-.44.3027,1.3384,1.3384,0,0,0-.2852.4619,1.6735,1.6735,0,0,0-.1.5865v.0693h2.66v-.0991a1.5141,1.5141,0,0,0-.3457-1.0386A1.1806,1.1806,0,0,0,138.3262,32.4448Z"/><path class="cls-2" d="M143.4561,37.1147a2.5132,2.5132,0,0,1-1.2149-.27,2.7559,2.7559,0,0,1-.8555-.73l.6309-.54a2.1324,2.1324,0,0,0,.6543.57,1.7324,1.7324,0,0,0,.8457.2,1.208,1.208,0,0,0,.76-.2051.7452.7452,0,0,0,.0849-1.0449,1.11,1.11,0,0,0-.6552-.26l-.4395-.07a3.3608,3.3608,0,0,1-.6807-.16,1.77,1.77,0,0,1-.53-.29,1.269,1.269,0,0,1-.3448-.44,1.4233,1.4233,0,0,1-.125-.62,1.5507,1.5507,0,0,1,.1407-.6748,1.331,1.331,0,0,1,.39-.49,1.7427,1.7427,0,0,1,.5947-.2954,2.7157,2.7157,0,0,1,.7549-.1,2.4544,2.4544,0,0,1,1.1006.22,2.4227,2.4227,0,0,1,.77.61l-.59.56a1.6917,1.6917,0,0,0-.5147-.4351,1.59,1.59,0,0,0-.7949-.1846,1.0855,1.0855,0,0,0-.7158.2.6624.6624,0,0,0-.2344.53.5831.5831,0,0,0,.2246.51,1.6,1.6,0,0,0,.6748.23l.44.07a2.2142,2.2142,0,0,1,1.2353.5,1.3034,1.3034,0,0,1,.375.97,1.4767,1.4767,0,0,1-.53,1.2A2.2022,2.2022,0,0,1,143.4561,37.1147Z"/><path class="cls-2" d="M152.8955,36.9946a.8211.8211,0,0,1-.6445-.24,1.1175,1.1175,0,0,1-.2647-.62h-.0508a1.3356,1.3356,0,0,1-.55.73,1.7237,1.7237,0,0,1-.95.25,1.7871,1.7871,0,0,1-1.26-.415,1.4694,1.4694,0,0,1-.45-1.1352,1.3271,1.3271,0,0,1,.5449-1.1451,2.848,2.848,0,0,1,1.665-.395h.9805v-.47a1.084,1.084,0,0,0-.28-.8,1.1867,1.1867,0,0,0-.87-.28,1.34,1.34,0,0,0-.7646.2051,1.6839,1.6839,0,0,0-.5049.5351l-.5606-.51a1.9814,1.9814,0,0,1,.6954-.7149,2.1741,2.1741,0,0,1,1.1845-.2949,2.2011,2.2011,0,0,1,1.5.4639,1.6509,1.6509,0,0,1,.53,1.312v2.7241h.58v.8Zm-2.25-.63a1.56,1.56,0,0,0,.91-.25.7514.7514,0,0,0,.36-.64v-.8h-.99a1.7748,1.7748,0,0,0-.9346.19.6133.6133,0,0,0-.2949.55v.2a.6567.6567,0,0,0,.2549.5547A1.1136,1.1136,0,0,0,150.6455,36.3647Z"/><path class="cls-2" d="M154.5361,36.9946v-5.18h.93v.84h.05a1.698,1.698,0,0,1,.5254-.6929,1.49,1.49,0,0,1,.9346-.2671,1.5817,1.5817,0,0,1,1.2558.52,2.1641,2.1641,0,0,1,.4551,1.47v3.31h-.9306V33.8174q0-1.3229-1.09-1.3228a1.6476,1.6476,0,0,0-.4453.06,1.2931,1.2931,0,0,0-.3848.1758.8569.8569,0,0,0-.27.2905.8171.8171,0,0,0-.1006.4155v3.5581Z"/><path class="cls-2" d="M163.5459,36.1543h-.04a1.4087,1.4087,0,0,1-.5645.7178,1.703,1.703,0,0,1-.9258.2426,2.0028,2.0028,0,0,1-.875-.185,1.7908,1.7908,0,0,1-.6543-.54,2.4941,2.4941,0,0,1-.41-.8549,4.6412,4.6412,0,0,1,0-2.26,2.4991,2.4991,0,0,1,.41-.855,1.7965,1.7965,0,0,1,.6543-.54,2.0013,2.0013,0,0,1,.875-.1846,1.6987,1.6987,0,0,1,.9258.2427,1.4091,1.4091,0,0,1,.5645.7173h.04v-3.06h.93v7.4h-.93Zm-1.26.16a1.671,1.671,0,0,0,.49-.07,1.247,1.247,0,0,0,.3994-.2006,1.06,1.06,0,0,0,.27-.3018.7439.7439,0,0,0,.1-.3818V33.45a.7468.7468,0,0,0-.1-.3823,1.0578,1.0578,0,0,0-.27-.3013,1.25,1.25,0,0,0-.3994-.2012,1.6744,1.6744,0,0,0-.49-.07,1.2769,1.2769,0,0,0-.9951.4024,1.5249,1.5249,0,0,0-.3652,1.0654v.8848a1.5251,1.5251,0,0,0,.3652,1.0654A1.2765,1.2765,0,0,0,162.2861,36.3145Z"/><path class="cls-2" d="M172.9258,37.52a1.3221,1.3221,0,0,1-.625,1.2036,3.7578,3.7578,0,0,1-1.9453.3916,3.5442,3.5442,0,0,1-1.7754-.3305,1.0377,1.0377,0,0,1-.5342-.9312.9262.9262,0,0,1,.2246-.6606,1.2484,1.2484,0,0,1,.625-.34v-.11a.7532.7532,0,0,1-.51-.7637.73.73,0,0,1,.26-.6025,1.5823,1.5823,0,0,1,.64-.3013v-.04a1.648,1.648,0,0,1-.71-.6231,1.7581,1.7581,0,0,1-.25-.9424,1.8071,1.8071,0,0,1,.1406-.7177,1.605,1.605,0,0,1,.3946-.5635,1.7822,1.7822,0,0,1,.625-.3638,2.7331,2.7331,0,0,1,1.3505-.08,2.9638,2.9638,0,0,1,.4493.13v-.11a.8249.8249,0,0,1,.15-.5151.5666.5666,0,0,1,.48-.1948h.79v.78h-1.02v.2793a1.5843,1.5843,0,0,1,.65,1.3559,1.81,1.81,0,0,1-.1406.7183,1.5333,1.5333,0,0,1-.3994.5581,1.8848,1.8848,0,0,1-.6309.3589,2.528,2.528,0,0,1-.84.13c-.1,0-.1992-.0054-.3-.0152a2.299,2.299,0,0,1-.28-.0449,1.3666,1.3666,0,0,0-.4092.2.411.411,0,0,0-.1806.35.3039.3039,0,0,0,.2051.31,1.5657,1.5657,0,0,0,.5546.08h1.1807a2.1118,2.1118,0,0,1,1.3945.376A1.29,1.29,0,0,1,172.9258,37.52Zm-.87.0952a.56.56,0,0,0-.2256-.4653,1.3377,1.3377,0,0,0-.7949-.1748h-1.7393a.7209.7209,0,0,0-.165,1.2051,1.3061,1.3061,0,0,0,.8642.2251h.7a2.1052,2.1052,0,0,0,1.01-.1953A.6382.6382,0,0,0,172.0557,37.6147Zm-1.72-3.08a1.2167,1.2167,0,0,0,.7842-.229.8508.8508,0,0,0,.2852-.7066V33.34a.8523.8523,0,0,0-.2852-.707,1.4615,1.4615,0,0,0-1.5693,0,.8523.8523,0,0,0-.2852.707v.2588a.8508.8508,0,0,0,.2852.7066A1.2176,1.2176,0,0,0,170.3359,34.5347Z"/><path class="cls-2" d="M175.7354,37.1147a2.387,2.387,0,0,1-.9649-.19,2.09,2.09,0,0,1-.7451-.5454,2.5,2.5,0,0,1-.48-.855,3.7755,3.7755,0,0,1,0-2.24,2.5046,2.5046,0,0,1,.48-.855,2.0825,2.0825,0,0,1,.7451-.5449,2.5448,2.5448,0,0,1,1.93,0,2.0738,2.0738,0,0,1,.7451.5449,2.5065,2.5065,0,0,1,.4805.855,3.7755,3.7755,0,0,1,0,2.24,2.5018,2.5018,0,0,1-.4805.855,2.081,2.081,0,0,1-.7451.5454A2.3869,2.3869,0,0,1,175.7354,37.1147Zm0-.8a1.3393,1.3393,0,0,0,.99-.38,1.55,1.55,0,0,0,.38-1.14v-.78a1.551,1.551,0,0,0-.38-1.14,1.4805,1.4805,0,0,0-1.98,0,1.551,1.551,0,0,0-.38,1.14v.78a1.55,1.55,0,0,0,.38,1.14A1.3409,1.3409,0,0,0,175.7354,36.3145Z"/><path class="cls-2" d="M180.416,36.9946l-1.79-5.18h.93l.85,2.48.54,1.79h.0606l.55-1.79.86-2.48h.89l-1.8,5.18Z"/><path class="cls-2" d="M186.1855,37.1147a2.3491,2.3491,0,0,1-.9746-.1953,2.1119,2.1119,0,0,1-.74-.5449,2.4169,2.4169,0,0,1-.47-.85,3.8638,3.8638,0,0,1,0-2.2348,2.4136,2.4136,0,0,1,.47-.855,2.1134,2.1134,0,0,1,.74-.545,2.3585,2.3585,0,0,1,.9746-.1948,2.2884,2.2884,0,0,1,.9649.1944,2.0438,2.0438,0,0,1,.7148.5332,2.3191,2.3191,0,0,1,.4405.8071,3.2913,3.2913,0,0,1,.1494,1.0063v.3887h-3.6494v.21a1.5118,1.5118,0,0,0,.38,1.0649,1.3893,1.3893,0,0,0,1.08.4151,1.5486,1.5486,0,0,0,.84-.22,1.5765,1.5765,0,0,0,.5595-.62l.6006.5132a2.0083,2.0083,0,0,1-.8105.82A2.5249,2.5249,0,0,1,186.1855,37.1147Zm0-4.67a1.3856,1.3856,0,0,0-.5546.1094,1.3216,1.3216,0,0,0-.44.3027,1.34,1.34,0,0,0-.2851.4619,1.6735,1.6735,0,0,0-.1.5865v.0693h2.66v-.0991a1.5141,1.5141,0,0,0-.3457-1.0386A1.1807,1.1807,0,0,0,186.1855,32.4448Z"/><path class="cls-2" d="M189.7256,36.9946v-5.18h.93v.99h.05a1.4653,1.4653,0,0,1,.1806-.37,1.2751,1.2751,0,0,1,.3-.315,1.5724,1.5724,0,0,1,.4249-.22,1.7017,1.7017,0,0,1,.5546-.0849h.3106v.93h-.46a1.8159,1.8159,0,0,0-1.0049.2349.71.71,0,0,0-.3554.6152v3.4Z"/><path class="cls-2" d="M193.4756,36.9946v-5.18h.93v.84h.05a1.698,1.698,0,0,1,.5254-.6929,1.49,1.49,0,0,1,.9345-.2671,1.5819,1.5819,0,0,1,1.2559.52,2.1646,2.1646,0,0,1,.4551,1.47v3.31h-.9307V33.8174q0-1.3229-1.09-1.3228a1.6466,1.6466,0,0,0-.4453.06,1.2931,1.2931,0,0,0-.3848.1758.8559.8559,0,0,0-.2695.2905.8171.8171,0,0,0-.1006.4155v3.5581Z"/><path class="cls-2" d="M47.2871,48.9946a.9574.9574,0,0,1-.73-.2641.9972.9972,0,0,1-.25-.7139V44.6147h-.83v-.8h.46a.4755.4755,0,0,0,.36-.11.547.547,0,0,0,.1-.37v-.95h.84v1.43h1.11v.8h-1.11v3.58h1.03v.8Z"/><path class="cls-2" d="M49.5869,41.5947h.93v3.06h.05a1.6937,1.6937,0,0,1,.5254-.6929,1.488,1.488,0,0,1,.9346-.2671,1.5815,1.5815,0,0,1,1.2553.52,2.1621,2.1621,0,0,1,.4551,1.47v3.31h-.93V45.8174q0-1.3229-1.09-1.3228a1.6444,1.6444,0,0,0-.4453.06,1.2931,1.2931,0,0,0-.3848.1758.8524.8524,0,0,0-.27.2905.822.822,0,0,0-.1.4155v3.5581h-.93Z"/><path class="cls-2" d="M57.2969,49.1147a2.35,2.35,0,0,1-.9746-.1953,2.1123,2.1123,0,0,1-.74-.5449,2.4328,2.4328,0,0,1-.47-.85,3.8661,3.8661,0,0,1,0-2.2348,2.4293,2.4293,0,0,1,.47-.855,2.1138,2.1138,0,0,1,.74-.545,2.36,2.36,0,0,1,.9746-.1948,2.2922,2.2922,0,0,1,.9653.1944,2.0451,2.0451,0,0,1,.7149.5332,2.3116,2.3116,0,0,1,.44.8071,3.2762,3.2762,0,0,1,.15,1.0063v.3887h-3.65v.21a1.5141,1.5141,0,0,0,.38,1.0649,1.39,1.39,0,0,0,1.08.4151,1.55,1.55,0,0,0,.84-.22,1.5812,1.5812,0,0,0,.56-.62l.6.5132a2.0073,2.0073,0,0,1-.81.82A2.5267,2.5267,0,0,1,57.2969,49.1147Zm0-4.67a1.3874,1.3874,0,0,0-.5547.1094,1.3062,1.3062,0,0,0-.7251.7646,1.6622,1.6622,0,0,0-.1.5865v.0693h2.66v-.0991a1.5163,1.5163,0,0,0-.3452-1.0386A1.1823,1.1823,0,0,0,57.2969,44.4448Z"/><path class="cls-2" d="M62.667,43.8145h.9l.54,2.21.52,2.13h.02l.59-2.13.64-2.21h.83l.66,2.21.6,2.13h.03l.49-2.13.55-2.21h.87l-1.38,5.18h-1.1l-.7-2.43-.44-1.52h-.02l-.43,1.52-.7,2.43h-1.08Z"/><path class="cls-2" d="M74.687,48.9946a.8216.8216,0,0,1-.645-.24,1.121,1.121,0,0,1-.2647-.62h-.05a1.3362,1.3362,0,0,1-.55.73,1.726,1.726,0,0,1-.95.25,1.7872,1.7872,0,0,1-1.26-.415,1.4676,1.4676,0,0,1-.45-1.1352,1.3271,1.3271,0,0,1,.5449-1.1451,2.8471,2.8471,0,0,1,1.6651-.395h.98v-.47a1.0838,1.0838,0,0,0-.28-.8,1.1875,1.1875,0,0,0-.87-.28,1.3429,1.3429,0,0,0-.7651.2051,1.6894,1.6894,0,0,0-.5049.5351l-.56-.51a1.9762,1.9762,0,0,1,.6953-.7149,2.1732,2.1732,0,0,1,1.1845-.2949,2.2028,2.2028,0,0,1,1.5.4639,1.6509,1.6509,0,0,1,.53,1.312v2.7241h.58v.8Zm-2.25-.63a1.5614,1.5614,0,0,0,.91-.25.7509.7509,0,0,0,.36-.64v-.8h-.99a1.7768,1.7768,0,0,0-.9351.19.6143.6143,0,0,0-.2949.55v.2a.657.657,0,0,0,.2549.5547A1.1143,1.1143,0,0,0,72.437,48.3647Z"/><path class="cls-2" d="M79.457,43.8145h.9l-2.25,6.31a2.7091,2.7091,0,0,1-.19.41.8427.8427,0,0,1-.2451.27.992.992,0,0,1-.3452.145,2.3408,2.3408,0,0,1-.5.0449h-.51v-.8h.85l.35-.9985-1.92-5.3818h.93l1.15,3.3037.27.9682h.05l.3-.9682Z"/><path class="cls-2" d="M84.1572,42.7349a.5672.5672,0,0,1-.4248-.14.5078.5078,0,0,1-.1357-.37v-.14a.5069.5069,0,0,1,.1357-.37.7141.7141,0,0,1,.85,0,.51.51,0,0,1,.1348.37v.14a.5109.5109,0,0,1-.1348.37A.5668.5668,0,0,1,84.1572,42.7349Zm-.4707,1.08h.9307v5.18h-.9307Z"/><path class="cls-2" d="M86.2568,48.9946v-5.18h.93v.84h.05a1.698,1.698,0,0,1,.5254-.6929,1.49,1.49,0,0,1,.9346-.2671,1.5817,1.5817,0,0,1,1.2558.52,2.1641,2.1641,0,0,1,.4551,1.47v3.31h-.9306V45.8174q0-1.3229-1.09-1.3228a1.6476,1.6476,0,0,0-.4453.06,1.2943,1.2943,0,0,0-.3848.1758.8569.8569,0,0,0-.27.2905.8171.8171,0,0,0-.1006.4155v3.5581Z"/><path class="cls-2" d="M93.8164,43.8145h.9l.54,2.21.52,2.13h.02l.59-2.13.64-2.21h.83l.66,2.21.6,2.13h.03l.49-2.13.55-2.21h.87l-1.38,5.18H98.5762l-.6992-2.43-.4405-1.52H97.417l-.4307,1.52-.7,2.43H95.207Z"/><path class="cls-2" d="M102.167,41.5947h.93v3.06h.05a1.698,1.698,0,0,1,.5254-.6929,1.49,1.49,0,0,1,.9345-.2671,1.5819,1.5819,0,0,1,1.2559.52,2.1646,2.1646,0,0,1,.4551,1.47v3.31h-.9307V45.8174q0-1.3229-1.09-1.3228a1.6471,1.6471,0,0,0-.4453.06,1.2931,1.2931,0,0,0-.3848.1758.8559.8559,0,0,0-.27.2905.8171.8171,0,0,0-.1006.4155v3.5581h-.93Z"/><path class="cls-2" d="M108.3672,42.7349a.5668.5668,0,0,1-.4248-.14.5078.5078,0,0,1-.1358-.37v-.14a.507.507,0,0,1,.1358-.37.7141.7141,0,0,1,.85,0,.51.51,0,0,1,.1348.37v.14a.5114.5114,0,0,1-.1348.37A.5672.5672,0,0,1,108.3672,42.7349Zm-.4707,1.08h.9306v5.18h-.9306Z"/><path class="cls-2" d="M112.4268,49.1147a2.4349,2.4349,0,0,1-.99-.19,2.0256,2.0256,0,0,1-.73-.54,2.36,2.36,0,0,1-.455-.855,3.818,3.818,0,0,1-.1553-1.125,3.7659,3.7659,0,0,1,.1553-1.12,2.413,2.413,0,0,1,.455-.855,1.994,1.994,0,0,1,.73-.5449,2.4349,2.4349,0,0,1,.99-.19,2.1164,2.1164,0,0,1,1.25.34,2.0149,2.0149,0,0,1,.71.9l-.77.38a1.1978,1.1978,0,0,0-.4356-.6,1.2545,1.2545,0,0,0-.7548-.22,1.2206,1.2206,0,0,0-1.0049.41,1.6029,1.6029,0,0,0-.335,1.05v.9a1.6047,1.6047,0,0,0,.335,1.05,1.2206,1.2206,0,0,0,1.0049.41,1.33,1.33,0,0,0,.8-.23,1.6536,1.6536,0,0,0,.52-.65l.68.42a2.048,2.048,0,0,1-.75.9253A2.1989,2.1989,0,0,1,112.4268,49.1147Z"/><path class="cls-2" d="M115.5166,41.5947h.93v3.06h.05a1.698,1.698,0,0,1,.5254-.6929,1.49,1.49,0,0,1,.9346-.2671,1.5818,1.5818,0,0,1,1.2558.52,2.1646,2.1646,0,0,1,.4551,1.47v3.31h-.9307V45.8174q0-1.3229-1.09-1.3228a1.6471,1.6471,0,0,0-.4453.06,1.2931,1.2931,0,0,0-.3848.1758.8559.8559,0,0,0-.27.2905.8171.8171,0,0,0-.1006.4155v3.5581h-.93Z"/><path class="cls-2" d="M123.6064,48.9946v-5.18h.93v.99h.05a1.4657,1.4657,0,0,1,.1807-.37,1.2751,1.2751,0,0,1,.3-.315,1.57,1.57,0,0,1,.4248-.22,1.7023,1.7023,0,0,1,.5547-.0849h.31v.93h-.46a1.8157,1.8157,0,0,0-1.0049.2349.71.71,0,0,0-.3555.6152v3.4Z"/><path class="cls-2" d="M129.2861,49.1147a2.3524,2.3524,0,0,1-.9746-.1953,2.1119,2.1119,0,0,1-.74-.5449,2.4472,2.4472,0,0,1-.47-.85,3.8638,3.8638,0,0,1,0-2.2348,2.4436,2.4436,0,0,1,.47-.855,2.1134,2.1134,0,0,1,.74-.545,2.3618,2.3618,0,0,1,.9746-.1948,2.2963,2.2963,0,0,1,.9659.1944,2.0447,2.0447,0,0,1,.7148.5332,2.301,2.301,0,0,1,.4394.8071,3.2611,3.2611,0,0,1,.15,1.0063v.3887h-3.65v.21a1.5164,1.5164,0,0,0,.38,1.0649,1.3906,1.3906,0,0,0,1.08.4151,1.5516,1.5516,0,0,0,.8408-.22,1.5834,1.5834,0,0,0,.56-.62l.6.5132a2.0054,2.0054,0,0,1-.81.82A2.5284,2.5284,0,0,1,129.2861,49.1147Zm0-4.67a1.39,1.39,0,0,0-.5547.1094,1.3081,1.3081,0,0,0-.7246.7646,1.6534,1.6534,0,0,0-.1006.5865v.0693h2.66v-.0991a1.5185,1.5185,0,0,0-.3447-1.0386A1.1842,1.1842,0,0,0,129.2861,44.4448Z"/><path class="cls-2" d="M134.417,49.1147a2.5139,2.5139,0,0,1-1.2158-.27,2.7625,2.7625,0,0,1-.8545-.73l.63-.54a2.1352,2.1352,0,0,0,.6552.57,1.7286,1.7286,0,0,0,.8448.2,1.2056,1.2056,0,0,0,.76-.2051.7426.7426,0,0,0,.085-1.0449,1.1067,1.1067,0,0,0-.6543-.26l-.44-.07a3.3333,3.3333,0,0,1-.68-.16,1.7469,1.7469,0,0,1-.53-.29,1.2687,1.2687,0,0,1-.3447-.44,1.4091,1.4091,0,0,1-.125-.62,1.5519,1.5519,0,0,1,.14-.6748,1.353,1.353,0,0,1,.39-.49,1.7477,1.7477,0,0,1,.5957-.2954,2.71,2.71,0,0,1,.7549-.1,2.2489,2.2489,0,0,1,1.87.83l-.59.56a1.6838,1.6838,0,0,0-.5156-.4351,1.5876,1.5876,0,0,0-.7949-.1846,1.0812,1.0812,0,0,0-.7149.2.66.66,0,0,0-.2353.53.5812.5812,0,0,0,.2256.51,1.5953,1.5953,0,0,0,.6748.23l.4394.07a2.211,2.211,0,0,1,1.2354.5,1.3034,1.3034,0,0,1,.375.97,1.477,1.477,0,0,1-.53,1.2A2.1994,2.1994,0,0,1,134.417,49.1147Z"/><path class="cls-2" d="M139.7168,49.1147a2.3835,2.3835,0,0,1-.9648-.19,2.0814,2.0814,0,0,1-.7452-.5454,2.5,2.5,0,0,1-.48-.855,3.7734,3.7734,0,0,1,0-2.24,2.5046,2.5046,0,0,1,.48-.855,2.0742,2.0742,0,0,1,.7452-.5449,2.5446,2.5446,0,0,1,1.93,0,2.0828,2.0828,0,0,1,.7452.5449,2.5194,2.5194,0,0,1,.4794.855,3.7734,3.7734,0,0,1,0,2.24,2.5147,2.5147,0,0,1-.4794.855,2.09,2.09,0,0,1-.7452.5454A2.39,2.39,0,0,1,139.7168,49.1147Zm0-.8a1.3373,1.3373,0,0,0,.9893-.38,1.5464,1.5464,0,0,0,.3808-1.14v-.78a1.5471,1.5471,0,0,0-.3808-1.14,1.4792,1.4792,0,0,0-1.98,0,1.5469,1.5469,0,0,0-.38,1.14v.78a1.5462,1.5462,0,0,0,.38,1.14A1.3377,1.3377,0,0,0,139.7168,48.3145Z"/><path class="cls-2" d="M146.5166,48.1543h-.0508a1.7885,1.7885,0,0,1-.1846.3613,1.2882,1.2882,0,0,1-.29.3072,1.4225,1.4225,0,0,1-.415.2128,1.79,1.79,0,0,1-.56.0791,1.5959,1.5959,0,0,1-1.2607-.52,2.1458,2.1458,0,0,1-.46-1.47v-3.31h.9307v3.1772q0,1.3227,1.1,1.3228a1.721,1.721,0,0,0,.4345-.0552,1.0979,1.0979,0,0,0,.3809-.1753.9827.9827,0,0,0,.2695-.3.8209.8209,0,0,0,.1055-.4214V43.8145h.93v5.18h-.93Z"/><path class="cls-2" d="M149.0859,48.9946v-5.18h.9307v.99h.05a1.4583,1.4583,0,0,1,.18-.37,1.2937,1.2937,0,0,1,.3-.315,1.5621,1.5621,0,0,1,.4258-.22,1.698,1.698,0,0,1,.5547-.0849h.31v.93h-.46a1.82,1.82,0,0,0-1.0049.2349.7109.7109,0,0,0-.3545.6152v3.4Z"/><path class="cls-2" d="M154.7461,49.1147a2.4344,2.4344,0,0,1-.99-.19,2.0247,2.0247,0,0,1-.73-.54,2.36,2.36,0,0,1-.4551-.855,3.8213,3.8213,0,0,1-.1553-1.125,3.7692,3.7692,0,0,1,.1553-1.12,2.4131,2.4131,0,0,1,.4551-.855,1.9931,1.9931,0,0,1,.73-.5449,2.4344,2.4344,0,0,1,.99-.19,2.116,2.116,0,0,1,1.25.34,2.0158,2.0158,0,0,1,.71.9l-.77.38a1.1982,1.1982,0,0,0-.4355-.6,1.2549,1.2549,0,0,0-.7549-.22,1.2208,1.2208,0,0,0-1.0049.41,1.6034,1.6034,0,0,0-.335,1.05v.9a1.6052,1.6052,0,0,0,.335,1.05,1.2208,1.2208,0,0,0,1.0049.41,1.33,1.33,0,0,0,.8-.23,1.6527,1.6527,0,0,0,.52-.65l.68.42a2.048,2.048,0,0,1-.75.9253A2.1987,2.1987,0,0,1,154.7461,49.1147Z"/><path class="cls-2" d="M159.7559,49.1147a2.3525,2.3525,0,0,1-.9747-.1953,2.1119,2.1119,0,0,1-.74-.5449,2.4472,2.4472,0,0,1-.47-.85,3.8638,3.8638,0,0,1,0-2.2348,2.4436,2.4436,0,0,1,.47-.855,2.1134,2.1134,0,0,1,.74-.545,2.362,2.362,0,0,1,.9747-.1948,2.2961,2.2961,0,0,1,.9658.1944,2.0438,2.0438,0,0,1,.7148.5332,2.3012,2.3012,0,0,1,.44.8071,3.2611,3.2611,0,0,1,.15,1.0063v.3887h-3.65v.21a1.516,1.516,0,0,0,.38,1.0649,1.39,1.39,0,0,0,1.08.4151,1.5522,1.5522,0,0,0,.8409-.22,1.584,1.584,0,0,0,.56-.62l.6.5132a2.0058,2.0058,0,0,1-.81.82A2.5287,2.5287,0,0,1,159.7559,49.1147Zm0-4.67a1.3888,1.3888,0,0,0-.5547.1094,1.3073,1.3073,0,0,0-.7246.7646,1.6511,1.6511,0,0,0-.1006.5865v.0693h2.66v-.0991a1.5185,1.5185,0,0,0-.3447-1.0386A1.1842,1.1842,0,0,0,159.7559,44.4448Z"/><path class="cls-2" d="M164.8867,49.1147a2.5141,2.5141,0,0,1-1.2158-.27,2.7625,2.7625,0,0,1-.8545-.73l.63-.54a2.1344,2.1344,0,0,0,.6553.57,1.7282,1.7282,0,0,0,.8447.2,1.2061,1.2061,0,0,0,.76-.2051.7427.7427,0,0,0,.0849-1.0449,1.1064,1.1064,0,0,0-.6543-.26l-.44-.07a3.3349,3.3349,0,0,1-.68-.16,1.7481,1.7481,0,0,1-.53-.29,1.2687,1.2687,0,0,1-.3447-.44,1.4091,1.4091,0,0,1-.125-.62,1.5519,1.5519,0,0,1,.14-.6748,1.353,1.353,0,0,1,.39-.49,1.7477,1.7477,0,0,1,.5957-.2954,2.71,2.71,0,0,1,.7549-.1,2.2489,2.2489,0,0,1,1.87.83l-.59.56a1.6854,1.6854,0,0,0-.5157-.4351,1.5876,1.5876,0,0,0-.7949-.1846,1.0807,1.0807,0,0,0-.7148.2.66.66,0,0,0-.2354.53.5812.5812,0,0,0,.2256.51,1.5953,1.5953,0,0,0,.6748.23l.44.07a2.2109,2.2109,0,0,1,1.2353.5,1.3034,1.3034,0,0,1,.375.97,1.4767,1.4767,0,0,1-.53,1.2A2.1994,2.1994,0,0,1,164.8867,49.1147Z"/><path class="cls-2" d="M171.0264,42.7349a.5668.5668,0,0,1-.4248-.14.5074.5074,0,0,1-.1358-.37v-.14a.5066.5066,0,0,1,.1358-.37.7141.7141,0,0,1,.85,0,.51.51,0,0,1,.1347.37v.14a.5113.5113,0,0,1-.1347.37A.5672.5672,0,0,1,171.0264,42.7349Zm-.4707,1.08h.9306v5.18h-.9306Z"/><path class="cls-2" d="M173.126,48.9946v-5.18h.93v.84h.05a1.698,1.698,0,0,1,.5254-.6929,1.49,1.49,0,0,1,.9345-.2671,1.5819,1.5819,0,0,1,1.2559.52,2.1646,2.1646,0,0,1,.4551,1.47v3.31h-.9307V45.8174q0-1.3229-1.09-1.3228a1.6478,1.6478,0,0,0-.4454.06,1.2937,1.2937,0,0,0-.3847.1758.8572.8572,0,0,0-.27.2905.8181.8181,0,0,0-.1005.4155v3.5581Z"/><path class="cls-2" d="M184.4053,43.8145h.9l-2.25,6.31a2.6271,2.6271,0,0,1-.19.41.8484.8484,0,0,1-.2451.27.9906.9906,0,0,1-.3457.145,2.3375,2.3375,0,0,1-.5.0449h-.51v-.8h.8506l.35-.9985-1.92-5.3818h.93l1.15,3.3037.2695.9682h.05l.3008-.9682Z"/><path class="cls-2" d="M188.2061,49.1147a2.3839,2.3839,0,0,1-.9649-.19,2.081,2.081,0,0,1-.7451-.5454,2.5018,2.5018,0,0,1-.4805-.855,3.7755,3.7755,0,0,1,0-2.24,2.5065,2.5065,0,0,1,.4805-.855,2.0738,2.0738,0,0,1,.7451-.5449,2.5448,2.5448,0,0,1,1.93,0,2.0825,2.0825,0,0,1,.7451.5449,2.52,2.52,0,0,1,.48.855,3.7755,3.7755,0,0,1,0,2.24,2.5149,2.5149,0,0,1-.48.855,2.09,2.09,0,0,1-.7451.5454A2.39,2.39,0,0,1,188.2061,49.1147Zm0-.8a1.337,1.337,0,0,0,.9892-.38,1.5464,1.5464,0,0,0,.3809-1.14v-.78a1.5471,1.5471,0,0,0-.3809-1.14,1.4792,1.4792,0,0,0-1.98,0,1.5469,1.5469,0,0,0-.38,1.14v.78a1.5462,1.5462,0,0,0,.38,1.14A1.3378,1.3378,0,0,0,188.2061,48.3145Z"/><path class="cls-2" d="M195.0059,48.1543h-.05a1.743,1.743,0,0,1-.1856.3613,1.2515,1.2515,0,0,1-.29.3072,1.4093,1.4093,0,0,1-.4151.2128,1.7851,1.7851,0,0,1-.56.0791,1.5954,1.5954,0,0,1-1.26-.52,2.1463,2.1463,0,0,1-.46-1.47v-3.31h.93v3.1772q0,1.3227,1.1,1.3228a1.73,1.73,0,0,0,.4356-.0552,1.0938,1.0938,0,0,0,.38-.1753.959.959,0,0,0,.2695-.3.8209.8209,0,0,0,.1055-.4214V43.8145h.93v5.18h-.93Z"/><path class="cls-2" d="M197.5752,48.9946v-5.18h.9307v.99h.05a1.4583,1.4583,0,0,1,.18-.37,1.29,1.29,0,0,1,.3-.315,1.5629,1.5629,0,0,1,.4257-.22,1.6984,1.6984,0,0,1,.5547-.0849h.31v.93h-.46a1.82,1.82,0,0,0-1.0048.2349.7106.7106,0,0,0-.3545.6152v3.4Z"/><path class="cls-2" d="M49.7871,60.9946a.8216.8216,0,0,1-.645-.24,1.121,1.121,0,0,1-.2647-.62h-.05a1.3356,1.3356,0,0,1-.55.73,1.7261,1.7261,0,0,1-.95.25,1.7871,1.7871,0,0,1-1.26-.415,1.4676,1.4676,0,0,1-.45-1.1352,1.3271,1.3271,0,0,1,.5449-1.1451,2.847,2.847,0,0,1,1.665-.395h.98v-.47a1.0838,1.0838,0,0,0-.28-.8,1.1875,1.1875,0,0,0-.87-.28,1.3429,1.3429,0,0,0-.7651.2051,1.6894,1.6894,0,0,0-.5049.5351l-.56-.51a1.9773,1.9773,0,0,1,.6954-.7149,2.1732,2.1732,0,0,1,1.1845-.2949,2.2028,2.2028,0,0,1,1.5.4639,1.6509,1.6509,0,0,1,.53,1.312v2.7241h.58v.8Zm-2.25-.63a1.5614,1.5614,0,0,0,.91-.25.7509.7509,0,0,0,.36-.64v-.8h-.99a1.7768,1.7768,0,0,0-.9351.19.6143.6143,0,0,0-.2949.55v.2a.657.657,0,0,0,.2549.5547A1.1143,1.1143,0,0,0,47.5371,60.3647Z"/><path class="cls-2" d="M53.3867,61.1147a2.4306,2.4306,0,0,1-.99-.19,2.0274,2.0274,0,0,1-.73-.54,2.36,2.36,0,0,1-.4551-.855,3.8217,3.8217,0,0,1-.1548-1.125,3.77,3.77,0,0,1,.1548-1.12,2.4131,2.4131,0,0,1,.4551-.855,1.9957,1.9957,0,0,1,.73-.5449,2.4306,2.4306,0,0,1,.99-.19,2.1149,2.1149,0,0,1,1.25.34,2.02,2.02,0,0,1,.7105.9l-.77.38a1.1973,1.1973,0,0,0-.435-.6,1.2564,1.2564,0,0,0-.7554-.22,1.2214,1.2214,0,0,0-1.0049.41,1.6061,1.6061,0,0,0-.3349,1.05v.9a1.6079,1.6079,0,0,0,.3349,1.05,1.2214,1.2214,0,0,0,1.0049.41,1.3329,1.3329,0,0,0,.8-.23,1.6517,1.6517,0,0,0,.52-.65l.68.42a2.0416,2.0416,0,0,1-.75.9253A2.1987,2.1987,0,0,1,53.3867,61.1147Z"/><path class="cls-2" d="M58.377,61.1147a2.4308,2.4308,0,0,1-.99-.19,2.0274,2.0274,0,0,1-.73-.54,2.3617,2.3617,0,0,1-.4551-.855,3.8218,3.8218,0,0,1-.1547-1.125,3.77,3.77,0,0,1,.1547-1.12,2.4147,2.4147,0,0,1,.4551-.855,1.9957,1.9957,0,0,1,.73-.5449,2.4308,2.4308,0,0,1,.99-.19,2.1154,2.1154,0,0,1,1.25.34,2.0194,2.0194,0,0,1,.71.9l-.77.38a1.1975,1.1975,0,0,0-.4351-.6,1.2563,1.2563,0,0,0-.7553-.22,1.2213,1.2213,0,0,0-1.0049.41,1.6056,1.6056,0,0,0-.335,1.05v.9a1.6074,1.6074,0,0,0,.335,1.05,1.2213,1.2213,0,0,0,1.0049.41,1.3324,1.3324,0,0,0,.8-.23,1.6519,1.6519,0,0,0,.52-.65l.68.42a2.0428,2.0428,0,0,1-.75.9253A2.1989,2.1989,0,0,1,58.377,61.1147Z"/><path class="cls-2" d="M63.397,61.1147a2.386,2.386,0,0,1-.9649-.19,2.0862,2.0862,0,0,1-.7451-.5454,2.5009,2.5009,0,0,1-.48-.855,3.7755,3.7755,0,0,1,0-2.24,2.5056,2.5056,0,0,1,.48-.855,2.079,2.079,0,0,1,.7451-.5449,2.5448,2.5448,0,0,1,1.93,0,2.0773,2.0773,0,0,1,.7451.5449,2.5122,2.5122,0,0,1,.48.855,3.7755,3.7755,0,0,1,0,2.24,2.5075,2.5075,0,0,1-.48.855,2.0845,2.0845,0,0,1-.7451.5454A2.3886,2.3886,0,0,1,63.397,61.1147Zm0-.8a1.3381,1.3381,0,0,0,.99-.38,1.5484,1.5484,0,0,0,.38-1.14v-.78a1.5491,1.5491,0,0,0-.38-1.14,1.48,1.48,0,0,0-1.98,0,1.5489,1.5489,0,0,0-.38,1.14v.78a1.5482,1.5482,0,0,0,.38,1.14A1.34,1.34,0,0,0,63.397,60.3145Z"/><path class="cls-2" d="M70.1973,60.1543h-.05a1.7654,1.7654,0,0,1-.1851.3613,1.2686,1.2686,0,0,1-.29.3072,1.4155,1.4155,0,0,1-.4151.2128,1.7864,1.7864,0,0,1-.5595.0791,1.5959,1.5959,0,0,1-1.26-.52,2.1463,2.1463,0,0,1-.46-1.47v-3.31h.93v3.1772q0,1.3227,1.1,1.3228a1.7262,1.7262,0,0,0,.4351-.0552,1.0963,1.0963,0,0,0,.38-.1753.9713.9713,0,0,0,.27-.3.8209.8209,0,0,0,.1055-.4214V55.8145h.93v5.18h-.93Z"/><path class="cls-2" d="M72.7666,60.9946v-5.18h.93v.84h.05a1.6937,1.6937,0,0,1,.5254-.6929,1.4879,1.4879,0,0,1,.9345-.2671,1.5816,1.5816,0,0,1,1.2554.52,2.1621,2.1621,0,0,1,.4551,1.47v3.31h-.93V57.8174q0-1.3229-1.09-1.3228a1.6444,1.6444,0,0,0-.4453.06,1.2931,1.2931,0,0,0-.3848.1758.8524.8524,0,0,0-.27.2905.822.822,0,0,0-.1.4155v3.5581Z"/><path class="cls-2" d="M79.7666,60.9946a.9562.9562,0,0,1-.73-.2641.995.995,0,0,1-.25-.7139V56.6147h-.8306v-.8h.46a.4773.4773,0,0,0,.36-.11.5471.5471,0,0,0,.1-.37v-.95h.84v1.43h1.11v.8h-1.11v3.58h1.03v.8Z"/><path class="cls-2" d="M86.3867,61.1147a2.4348,2.4348,0,0,1-.99-.19,2.0256,2.0256,0,0,1-.73-.54,2.36,2.36,0,0,1-.4551-.855,3.8213,3.8213,0,0,1-.1553-1.125,3.7692,3.7692,0,0,1,.1553-1.12,2.4131,2.4131,0,0,1,.4551-.855,1.994,1.994,0,0,1,.73-.5449,2.4348,2.4348,0,0,1,.99-.19,2.116,2.116,0,0,1,1.25.34,2.0151,2.0151,0,0,1,.71.9l-.77.38a1.1982,1.1982,0,0,0-.4355-.6,1.2549,1.2549,0,0,0-.7549-.22,1.2208,1.2208,0,0,0-1.0049.41,1.6034,1.6034,0,0,0-.3349,1.05v.9a1.6052,1.6052,0,0,0,.3349,1.05,1.2208,1.2208,0,0,0,1.0049.41,1.33,1.33,0,0,0,.8-.23,1.6527,1.6527,0,0,0,.52-.65l.68.42a2.048,2.048,0,0,1-.75.9253A2.1987,2.1987,0,0,1,86.3867,61.1147Z"/><path class="cls-2" d="M93.2471,60.9946a.822.822,0,0,1-.6455-.24,1.1246,1.1246,0,0,1-.2647-.62h-.05a1.3356,1.3356,0,0,1-.55.73,1.7284,1.7284,0,0,1-.95.25,1.7873,1.7873,0,0,1-1.26-.415,1.4663,1.4663,0,0,1-.45-1.1352,1.3272,1.3272,0,0,1,.545-1.1451,2.8457,2.8457,0,0,1,1.665-.395h.98v-.47a1.084,1.084,0,0,0-.2793-.8,1.1885,1.1885,0,0,0-.87-.28,1.3455,1.3455,0,0,0-.7656.2051,1.6938,1.6938,0,0,0-.5049.5351l-.56-.51a1.973,1.973,0,0,1,.6953-.7149,2.1724,2.1724,0,0,1,1.1846-.2949,2.2046,2.2046,0,0,1,1.5.4639,1.6509,1.6509,0,0,1,.53,1.312v2.7241h.58v.8Zm-2.25-.63a1.562,1.562,0,0,0,.91-.25.75.75,0,0,0,.3594-.64v-.8h-.9893a1.7787,1.7787,0,0,0-.9355.19.6153.6153,0,0,0-.2949.55v.2a.6567.6567,0,0,0,.2549.5547A1.1147,1.1147,0,0,0,90.9971,60.3647Z"/><path class="cls-2" d="M94.8867,60.9946v-5.18h.93v.84h.05a1.698,1.698,0,0,1,.5254-.6929,1.49,1.49,0,0,1,.9346-.2671,1.5817,1.5817,0,0,1,1.2558.52,2.1641,2.1641,0,0,1,.4551,1.47v3.31h-.9307V57.8174q0-1.3229-1.09-1.3228a1.6471,1.6471,0,0,0-.4453.06,1.2931,1.2931,0,0,0-.3848.1758.8559.8559,0,0,0-.2695.2905.8171.8171,0,0,0-.1006.4155v3.5581Z"/><path class="cls-2" d="M102.9766,53.5947h.93v3.06h.04a1.4054,1.4054,0,0,1,.5654-.7173,1.6933,1.6933,0,0,1,.9248-.2427,2.0007,2.0007,0,0,1,.875.1846,1.7988,1.7988,0,0,1,.6553.54,2.5363,2.5363,0,0,1,.41.855,4.6444,4.6444,0,0,1,0,2.26,2.5312,2.5312,0,0,1-.41.8549,1.7931,1.7931,0,0,1-.6553.54,2.0022,2.0022,0,0,1-.875.185,1.6976,1.6976,0,0,1-.9248-.2426,1.405,1.405,0,0,1-.5654-.7178h-.04v.84h-.93Zm2.1894,6.72a1.275,1.275,0,0,0,.9951-.4019,1.5247,1.5247,0,0,0,.3653-1.0654v-.8848a1.5245,1.5245,0,0,0-.3653-1.0654,1.2753,1.2753,0,0,0-.9951-.4024,1.6669,1.6669,0,0,0-.4892.07,1.2533,1.2533,0,0,0-.4.2012,1.04,1.04,0,0,0-.27.3013.7388.7388,0,0,0-.1006.3823v1.91a.7359.7359,0,0,0,.1006.3818,1.0415,1.0415,0,0,0,.27.3018,1.25,1.25,0,0,0,.4.2006A1.6636,1.6636,0,0,0,105.166,60.3145Z"/><path class="cls-2" d="M110.8066,61.1147a2.3491,2.3491,0,0,1-.9746-.1953,2.1119,2.1119,0,0,1-.74-.5449,2.4154,2.4154,0,0,1-.47-.85,3.8638,3.8638,0,0,1,0-2.2348,2.4121,2.4121,0,0,1,.47-.855,2.1134,2.1134,0,0,1,.74-.545,2.3585,2.3585,0,0,1,.9746-.1948,2.2884,2.2884,0,0,1,.9649.1944,2.0438,2.0438,0,0,1,.7148.5332,2.3191,2.3191,0,0,1,.4405.8071,3.2913,3.2913,0,0,1,.1494,1.0063v.3887h-3.6494v.21a1.5118,1.5118,0,0,0,.38,1.0649,1.3893,1.3893,0,0,0,1.08.4151,1.5486,1.5486,0,0,0,.84-.22,1.5765,1.5765,0,0,0,.5595-.62l.6006.5132a2.0083,2.0083,0,0,1-.8105.82A2.5249,2.5249,0,0,1,110.8066,61.1147Zm0-4.67a1.3852,1.3852,0,0,0-.5546.1094,1.3216,1.3216,0,0,0-.4405.3027,1.34,1.34,0,0,0-.2851.4619,1.6735,1.6735,0,0,0-.1.5865v.0693h2.66v-.0991a1.5141,1.5141,0,0,0-.3457-1.0386A1.1807,1.1807,0,0,0,110.8066,56.4448Z"/><path class="cls-2" d="M116.7061,55.8145h.9306v.84h.04a1.4038,1.4038,0,0,1,.5644-.7173,1.6976,1.6976,0,0,1,.9248-.2427,1.9945,1.9945,0,0,1,.875.1846,1.7906,1.7906,0,0,1,.6553.54,2.5156,2.5156,0,0,1,.41.855,4.6412,4.6412,0,0,1,0,2.26,2.5106,2.5106,0,0,1-.41.8549,1.785,1.785,0,0,1-.6553.54,1.996,1.996,0,0,1-.875.185,1.7019,1.7019,0,0,1-.9248-.2426,1.4034,1.4034,0,0,1-.5644-.7178h-.04v2.84h-.9306Zm2.19,4.5a1.2765,1.2765,0,0,0,.9951-.4019,1.5246,1.5246,0,0,0,.3652-1.0654v-.8848a1.5245,1.5245,0,0,0-.3652-1.0654,1.2769,1.2769,0,0,0-.9951-.4024,1.67,1.67,0,0,0-.49.07,1.25,1.25,0,0,0-.3994.2012,1.03,1.03,0,0,0-.27.3013.7468.7468,0,0,0-.1.3823v1.91a.7439.7439,0,0,0,.1.3818,1.032,1.032,0,0,0,.27.3018,1.247,1.247,0,0,0,.3994.2006A1.6667,1.6667,0,0,0,118.8965,60.3145Z"/><path class="cls-2" d="M122.5557,60.9946v-5.18h.9306v.99h.05a1.4616,1.4616,0,0,1,.18-.37,1.2937,1.2937,0,0,1,.3-.315,1.5621,1.5621,0,0,1,.4258-.22,1.6984,1.6984,0,0,1,.5547-.0849h.31v.93h-.46a1.82,1.82,0,0,0-1.0049.2349.7109.7109,0,0,0-.3545.6152v3.4Z"/><path class="cls-2" d="M128.2461,61.1147a2.3877,2.3877,0,0,1-.9649-.19,2.0906,2.0906,0,0,1-.7451-.5454,2.5,2.5,0,0,1-.48-.855,3.7755,3.7755,0,0,1,0-2.24,2.5046,2.5046,0,0,1,.48-.855,2.0833,2.0833,0,0,1,.7451-.5449,2.5448,2.5448,0,0,1,1.93,0,2.0742,2.0742,0,0,1,.7452.5449,2.5063,2.5063,0,0,1,.48.855,3.7755,3.7755,0,0,1,0,2.24,2.5016,2.5016,0,0,1-.48.855,2.0814,2.0814,0,0,1-.7452.5454A2.3869,2.3869,0,0,1,128.2461,61.1147Zm0-.8a1.3393,1.3393,0,0,0,.99-.38,1.55,1.55,0,0,0,.38-1.14v-.78a1.5506,1.5506,0,0,0-.38-1.14,1.48,1.48,0,0,0-1.98,0,1.5506,1.5506,0,0,0-.38,1.14v.78a1.55,1.55,0,0,0,.38,1.14A1.3407,1.3407,0,0,0,128.2461,60.3145Z"/><path class="cls-2" d="M132.9268,60.9946l-1.79-5.18h.93l.85,2.48.54,1.79h.0605l.55-1.79.86-2.48h.89l-1.8,5.18Z"/><path class="cls-2" d="M137.2666,54.7349a.5668.5668,0,0,1-.4248-.14.5078.5078,0,0,1-.1357-.37v-.14a.5069.5069,0,0,1,.1357-.37.7141.7141,0,0,1,.85,0,.51.51,0,0,1,.1348.37v.14a.5114.5114,0,0,1-.1348.37A.5668.5668,0,0,1,137.2666,54.7349Zm-.4707,1.08h.9307v5.18h-.9307Z"/><path class="cls-2" d="M140.9561,61.1147a2.5132,2.5132,0,0,1-1.2149-.27,2.7559,2.7559,0,0,1-.8555-.73l.6309-.54a2.1324,2.1324,0,0,0,.6543.57,1.7324,1.7324,0,0,0,.8457.2,1.208,1.208,0,0,0,.76-.2051.7452.7452,0,0,0,.0849-1.0449,1.11,1.11,0,0,0-.6552-.26l-.4395-.07a3.3608,3.3608,0,0,1-.6807-.16,1.77,1.77,0,0,1-.53-.29,1.269,1.269,0,0,1-.3448-.44,1.4233,1.4233,0,0,1-.125-.62,1.5507,1.5507,0,0,1,.1407-.6748,1.331,1.331,0,0,1,.39-.49,1.7427,1.7427,0,0,1,.5947-.2954,2.7157,2.7157,0,0,1,.7549-.1,2.4544,2.4544,0,0,1,1.1006.22,2.4227,2.4227,0,0,1,.77.61l-.59.56a1.6917,1.6917,0,0,0-.5147-.4351,1.59,1.59,0,0,0-.7949-.1846,1.0855,1.0855,0,0,0-.7158.2.6624.6624,0,0,0-.2344.53.5831.5831,0,0,0,.2246.51,1.6,1.6,0,0,0,.6748.23l.44.07a2.2142,2.2142,0,0,1,1.2353.5,1.3034,1.3034,0,0,1,.375.97,1.4767,1.4767,0,0,1-.53,1.2A2.2022,2.2022,0,0,1,140.9561,61.1147Z"/><path class="cls-2" d="M144.7363,54.7349a.5672.5672,0,0,1-.4248-.14.5078.5078,0,0,1-.1357-.37v-.14a.5069.5069,0,0,1,.1357-.37.7141.7141,0,0,1,.85,0,.51.51,0,0,1,.1348.37v.14a.5109.5109,0,0,1-.1348.37A.5668.5668,0,0,1,144.7363,54.7349Zm-.4707,1.08h.9307v5.18h-.9307Z"/><path class="cls-2" d="M148.8262,61.1147a2.3843,2.3843,0,0,1-.9649-.19,2.0819,2.0819,0,0,1-.7451-.5454,2.5018,2.5018,0,0,1-.48-.855,3.7755,3.7755,0,0,1,0-2.24,2.5065,2.5065,0,0,1,.48-.855,2.0747,2.0747,0,0,1,.7451-.5449,2.5448,2.5448,0,0,1,1.93,0,2.0816,2.0816,0,0,1,.7451.5449,2.52,2.52,0,0,1,.48.855,3.7755,3.7755,0,0,1,0,2.24,2.5149,2.5149,0,0,1-.48.855,2.0889,2.0889,0,0,1-.7451.5454A2.39,2.39,0,0,1,148.8262,61.1147Zm0-.8a1.337,1.337,0,0,0,.9892-.38,1.5464,1.5464,0,0,0,.3809-1.14v-.78a1.5471,1.5471,0,0,0-.3809-1.14,1.4792,1.4792,0,0,0-1.98,0,1.5468,1.5468,0,0,0-.38,1.14v.78a1.5461,1.5461,0,0,0,.38,1.14A1.338,1.338,0,0,0,148.8262,60.3145Z"/><path class="cls-2" d="M152.4561,60.9946v-5.18h.93v.84h.05a1.6989,1.6989,0,0,1,.5254-.6929,1.49,1.49,0,0,1,.9346-.2671,1.5819,1.5819,0,0,1,1.2559.52,2.1646,2.1646,0,0,1,.455,1.47v3.31h-.9306V57.8174q0-1.3229-1.09-1.3228a1.6476,1.6476,0,0,0-.4453.06,1.2925,1.2925,0,0,0-.3847.1758.8562.8562,0,0,0-.27.2905.8171.8171,0,0,0-.1006.4155v3.5581Z"/><path class="cls-2" d="M160.166,61.1147a2.3487,2.3487,0,0,1-.9746-.1953,2.1119,2.1119,0,0,1-.74-.5449,2.4171,2.4171,0,0,1-.47-.85,3.8661,3.8661,0,0,1,0-2.2348,2.4138,2.4138,0,0,1,.47-.855,2.1134,2.1134,0,0,1,.74-.545,2.3582,2.3582,0,0,1,.9746-.1948,2.2884,2.2884,0,0,1,.9649.1944,2.0447,2.0447,0,0,1,.7148.5332,2.319,2.319,0,0,1,.44.8071,3.2913,3.2913,0,0,1,.1494,1.0063v.3887h-3.6494v.21a1.5119,1.5119,0,0,0,.38,1.0649,1.3892,1.3892,0,0,0,1.08.4151,1.5483,1.5483,0,0,0,.84-.22,1.5767,1.5767,0,0,0,.56-.62l.6006.5132a2.008,2.008,0,0,1-.8106.82A2.5246,2.5246,0,0,1,160.166,61.1147Zm0-4.67a1.3857,1.3857,0,0,0-.5547.1094,1.3212,1.3212,0,0,0-.44.3027,1.34,1.34,0,0,0-.2852.4619,1.6735,1.6735,0,0,0-.1.5865v.0693h2.66v-.0991a1.5141,1.5141,0,0,0-.3457-1.0386A1.1807,1.1807,0,0,0,160.166,56.4448Z"/><path class="cls-2" d="M166.9863,60.1543h-.04a1.405,1.405,0,0,1-.5654.7178,1.7,1.7,0,0,1-.9248.2426,1.9991,1.9991,0,0,1-.875-.185,1.7923,1.7923,0,0,1-.6553-.54,2.5312,2.5312,0,0,1-.41-.8549,4.6444,4.6444,0,0,1,0-2.26,2.5363,2.5363,0,0,1,.41-.855,1.7979,1.7979,0,0,1,.6553-.54,1.9976,1.9976,0,0,1,.875-.1846,1.6957,1.6957,0,0,1,.9248.2427,1.4054,1.4054,0,0,1,.5654.7173h.04v-3.06h.93v7.4h-.93Zm-1.2607.16a1.6655,1.6655,0,0,0,.49-.07,1.2523,1.2523,0,0,0,.4-.2006,1.0411,1.0411,0,0,0,.27-.3018.7446.7446,0,0,0,.1006-.3818V57.45a.7475.7475,0,0,0-.1006-.3823,1.0394,1.0394,0,0,0-.27-.3013,1.2554,1.2554,0,0,0-.4-.2012,1.6688,1.6688,0,0,0-.49-.07,1.2749,1.2749,0,0,0-.9942.4024,1.52,1.52,0,0,0-.3652,1.0654v.8848a1.52,1.52,0,0,0,.3652,1.0654A1.2746,1.2746,0,0,0,165.7256,60.3145Z"/><path class="cls-2" d="M173.9053,61.1147a2.3877,2.3877,0,0,1-.9649-.19,2.09,2.09,0,0,1-.7451-.5454,2.5,2.5,0,0,1-.48-.855,3.7755,3.7755,0,0,1,0-2.24,2.5046,2.5046,0,0,1,.48-.855,2.0825,2.0825,0,0,1,.7451-.5449,2.5448,2.5448,0,0,1,1.93,0,2.073,2.073,0,0,1,.7451.5449,2.5048,2.5048,0,0,1,.4805.855,3.7755,3.7755,0,0,1,0,2.24,2.5,2.5,0,0,1-.4805.855,2.08,2.08,0,0,1-.7451.5454A2.3869,2.3869,0,0,1,173.9053,61.1147Zm0-.8a1.3393,1.3393,0,0,0,.99-.38,1.55,1.55,0,0,0,.38-1.14v-.78a1.551,1.551,0,0,0-.38-1.14,1.4805,1.4805,0,0,0-1.9805,0,1.551,1.551,0,0,0-.38,1.14v.78a1.55,1.55,0,0,0,.38,1.14A1.3409,1.3409,0,0,0,173.9053,60.3145Z"/><path class="cls-2" d="M177.5352,60.9946v-5.18h.9306v.99h.05a1.4616,1.4616,0,0,1,.18-.37,1.2937,1.2937,0,0,1,.3-.315,1.5621,1.5621,0,0,1,.4258-.22,1.6984,1.6984,0,0,1,.5547-.0849h.31v.93h-.46a1.82,1.82,0,0,0-1.0049.2349.7109.7109,0,0,0-.3545.6152v3.4Z"/><path class="cls-2" d="M47.9771,73.1147a2.4308,2.4308,0,0,1-.99-.19,2.0274,2.0274,0,0,1-.73-.54,2.3617,2.3617,0,0,1-.4551-.855,3.8218,3.8218,0,0,1-.1547-1.125,3.77,3.77,0,0,1,.1547-1.12,2.4147,2.4147,0,0,1,.4551-.855,1.9957,1.9957,0,0,1,.73-.5449,2.4308,2.4308,0,0,1,.99-.19,2.1154,2.1154,0,0,1,1.25.34,2.0194,2.0194,0,0,1,.71.9l-.77.38a1.1975,1.1975,0,0,0-.4351-.6,1.2563,1.2563,0,0,0-.7553-.22,1.2213,1.2213,0,0,0-1.0049.41,1.6056,1.6056,0,0,0-.335,1.05v.9a1.6074,1.6074,0,0,0,.335,1.05,1.2213,1.2213,0,0,0,1.0049.41,1.3324,1.3324,0,0,0,.8-.23,1.6519,1.6519,0,0,0,.52-.65l.68.42a2.0428,2.0428,0,0,1-.75.9253A2.1989,2.1989,0,0,1,47.9771,73.1147Z"/><path class="cls-2" d="M52.9971,73.1147a2.386,2.386,0,0,1-.9649-.19,2.0862,2.0862,0,0,1-.7451-.5454,2.5009,2.5009,0,0,1-.48-.855,3.7755,3.7755,0,0,1,0-2.24,2.5056,2.5056,0,0,1,.48-.855,2.079,2.079,0,0,1,.7451-.5449,2.5448,2.5448,0,0,1,1.93,0,2.0773,2.0773,0,0,1,.7451.5449,2.5122,2.5122,0,0,1,.48.855,3.7755,3.7755,0,0,1,0,2.24,2.5075,2.5075,0,0,1-.48.855,2.0845,2.0845,0,0,1-.7451.5454A2.3886,2.3886,0,0,1,52.9971,73.1147Zm0-.8a1.3381,1.3381,0,0,0,.99-.38,1.5484,1.5484,0,0,0,.38-1.14v-.78a1.5491,1.5491,0,0,0-.38-1.14,1.48,1.48,0,0,0-1.98,0,1.5489,1.5489,0,0,0-.38,1.14v.78a1.5482,1.5482,0,0,0,.38,1.14A1.34,1.34,0,0,0,52.9971,72.3145Z"/><path class="cls-2" d="M56.627,72.9946v-5.18h.93v.84h.05a1.6946,1.6946,0,0,1,.5254-.6929,1.488,1.488,0,0,1,.9346-.2671,1.5816,1.5816,0,0,1,1.2554.52,2.162,2.162,0,0,1,.455,1.47v3.31h-.93V69.8174q0-1.3229-1.09-1.3228a1.645,1.645,0,0,0-.4453.06,1.2943,1.2943,0,0,0-.3848.1758.8534.8534,0,0,0-.27.29.822.822,0,0,0-.1.4155v3.5581Z"/><path class="cls-2" d="M62.6372,68.6147h-.83v-.8h.83v-.96a1.3464,1.3464,0,0,1,.3-.915,1.1421,1.1421,0,0,1,.91-.3448h.81v.8h-1.09v1.42h2.97v5.18h-.93v-4.38h-2.04v4.38h-.93Zm3.44-1.88a.5672.5672,0,0,1-.4248-.14.51.51,0,0,1-.1352-.37v-.14a.5087.5087,0,0,1,.1352-.37.7142.7142,0,0,1,.85,0,.5087.5087,0,0,1,.1352.37v.14a.51.51,0,0,1-.1352.37A.5673.5673,0,0,1,66.0771,66.7349Z"/><path class="cls-2" d="M72.627,73.52a1.3211,1.3211,0,0,1-.625,1.2036,3.7551,3.7551,0,0,1-1.9449.3916,3.5435,3.5435,0,0,1-1.7754-.3305,1.0383,1.0383,0,0,1-.5346-.9312.9264.9264,0,0,1,.2251-.6606,1.2441,1.2441,0,0,1,.625-.34v-.11a.7529.7529,0,0,1-.51-.7637.73.73,0,0,1,.26-.6025,1.5787,1.5787,0,0,1,.64-.3013v-.04a1.6454,1.6454,0,0,1-.71-.6231,1.7536,1.7536,0,0,1-.25-.9424,1.8139,1.8139,0,0,1,.14-.7177,1.6138,1.6138,0,0,1,.395-.5635,1.7777,1.7777,0,0,1,.625-.3638,2.7315,2.7315,0,0,1,1.35-.08,2.9491,2.9491,0,0,1,.45.13v-.11a.8248.8248,0,0,1,.15-.5151.5681.5681,0,0,1,.48-.1948h.79v.78h-1.02v.2793a1.5843,1.5843,0,0,1,.65,1.3559,1.82,1.82,0,0,1-.14.7183,1.5345,1.5345,0,0,1-.4.5581,1.8834,1.8834,0,0,1-.63.3589,2.5306,2.5306,0,0,1-.84.13c-.1,0-.2-.0054-.3-.0152a2.2834,2.2834,0,0,1-.28-.0449,1.3741,1.3741,0,0,0-.41.2.4106.4106,0,0,0-.18.35.304.304,0,0,0,.2051.31,1.5663,1.5663,0,0,0,.5547.08h1.18a2.1126,2.1126,0,0,1,1.395.376A1.29,1.29,0,0,1,72.627,73.52Zm-.87.0952a.5594.5594,0,0,0-.2251-.4653,1.3386,1.3386,0,0,0-.7949-.1748h-1.74A.7208.7208,0,0,0,68.832,74.18a1.3071,1.3071,0,0,0,.8648.2251h.7a2.1061,2.1061,0,0,0,1.01-.1953A.6378.6378,0,0,0,71.7568,73.6147Zm-1.72-3.08a1.2193,1.2193,0,0,0,.7847-.229.8522.8522,0,0,0,.2851-.7066V69.34a.8537.8537,0,0,0-.2851-.707,1.4623,1.4623,0,0,0-1.57,0,.8534.8534,0,0,0-.2852.707v.2588a.852.852,0,0,0,.2852.7066A1.2193,1.2193,0,0,0,70.0371,70.5347Z"/><path class="cls-2" d="M76.6372,72.1543h-.05a1.77,1.77,0,0,1-.185.3613,1.271,1.271,0,0,1-.29.3072,1.4162,1.4162,0,0,1-.415.2128,1.7875,1.7875,0,0,1-.56.0791,1.5955,1.5955,0,0,1-1.26-.52,2.1458,2.1458,0,0,1-.46-1.47v-3.31h.93v3.1772q0,1.3227,1.1,1.3228a1.7254,1.7254,0,0,0,.435-.0552,1.0946,1.0946,0,0,0,.38-.1753.97.97,0,0,0,.2695-.3.82.82,0,0,0,.1055-.4214V67.8145h.93v5.18h-.93Z"/><path class="cls-2" d="M79.207,72.9946v-5.18h.93v.99h.05a1.4657,1.4657,0,0,1,.1807-.37,1.2751,1.2751,0,0,1,.3-.315,1.57,1.57,0,0,1,.4248-.22,1.7023,1.7023,0,0,1,.5547-.0849h.31v.93h-.46a1.8157,1.8157,0,0,0-1.0049.2349.71.71,0,0,0-.3555.6152v3.4Z"/><path class="cls-2" d="M84.8867,73.1147a2.3517,2.3517,0,0,1-.9746-.1953,2.1119,2.1119,0,0,1-.74-.5449,2.4474,2.4474,0,0,1-.47-.85,3.8661,3.8661,0,0,1,0-2.2348,2.4437,2.4437,0,0,1,.47-.855,2.1134,2.1134,0,0,1,.74-.545,2.3612,2.3612,0,0,1,.9746-.1948,2.2955,2.2955,0,0,1,.9658.1944,2.0451,2.0451,0,0,1,.7149.5332,2.3026,2.3026,0,0,1,.4394.8071,3.2611,3.2611,0,0,1,.15,1.0063v.3887h-3.65v.21a1.5164,1.5164,0,0,0,.38,1.0649,1.3906,1.3906,0,0,0,1.08.4151,1.552,1.552,0,0,0,.8408-.22,1.5849,1.5849,0,0,0,.56-.62l.6.5132a2.0054,2.0054,0,0,1-.81.82A2.5284,2.5284,0,0,1,84.8867,73.1147Zm0-4.67a1.39,1.39,0,0,0-.5547.1094,1.3081,1.3081,0,0,0-.7246.7646,1.6511,1.6511,0,0,0-.1006.5865v.0693h2.66v-.0991a1.5185,1.5185,0,0,0-.3447-1.0386A1.1842,1.1842,0,0,0,84.8867,68.4448Z"/><path class="cls-2" d="M91.707,72.1543h-.04a1.4082,1.4082,0,0,1-.5645.7178,1.7029,1.7029,0,0,1-.9257.2426,2.0022,2.0022,0,0,1-.875-.185,1.7892,1.7892,0,0,1-.6543-.54,2.4943,2.4943,0,0,1-.41-.8549,4.6444,4.6444,0,0,1,0-2.26,2.4992,2.4992,0,0,1,.41-.855,1.7949,1.7949,0,0,1,.6543-.54,2.0007,2.0007,0,0,1,.875-.1846,1.6986,1.6986,0,0,1,.9257.2427,1.4085,1.4085,0,0,1,.5645.7173h.04v-3.06h.93v7.4h-.93Zm-1.26.16a1.67,1.67,0,0,0,.49-.07,1.247,1.247,0,0,0,.3994-.2006,1.06,1.06,0,0,0,.27-.3018.7439.7439,0,0,0,.1-.3818V69.45a.7468.7468,0,0,0-.1-.3823,1.0578,1.0578,0,0,0-.27-.3013,1.25,1.25,0,0,0-.3994-.2012,1.6737,1.6737,0,0,0-.49-.07,1.2769,1.2769,0,0,0-.9952.4024,1.5249,1.5249,0,0,0-.3652,1.0654v.8848a1.5251,1.5251,0,0,0,.3652,1.0654A1.2766,1.2766,0,0,0,90.4473,72.3145Z"/><path class="cls-2" d="M94.8467,73.1147a.5777.5777,0,0,1-.66-.62v-.15a.66.66,0,1,1,1.32,0v.15a.5776.5776,0,0,1-.66.62Z"/><rect class="cls-1" x="17" y="25" width="12" height="2"/><rect class="cls-1" x="17" y="19" width="12" height="2"/><path class="cls-1" d="M23,39l-6.1758-3.2929A10.9816,10.9816,0,0,1,11,26V13a2.0021,2.0021,0,0,1,2-2H33a2.0021,2.0021,0,0,1,2,2V26a10.9814,10.9814,0,0,1-5.8242,9.7069ZM13,13V26a8.9853,8.9853,0,0,0,4.7656,7.9423L23,36.7333l5.2344-2.791A8.9853,8.9853,0,0,0,33,26V13Z"/><rect id="_Transparent_Rectangle_" data-name=" Transparent Rectangle " class="cls-3" x="7" y="9" width="32" height="32"/></svg>