<svg id="Layer_1" data-name="Layer 1" xmlns="http://www.w3.org/2000/svg" width="250" height="100" viewBox="0 0 250 100"><defs><style>.cls-1{fill:#242b66;}.cls-2,.cls-4{fill:none;}.cls-3{fill:#525352;}.cls-4{stroke:#242b66;stroke-miterlimit:10;stroke-width:1.968px;}</style></defs><rect class="cls-1" x="17" y="26" width="12" height="2"/><rect class="cls-1" x="17" y="20" width="12" height="2"/><path class="cls-1" d="M23,40l-6.1758-3.2929A10.9816,10.9816,0,0,1,11,27V14a2.0021,2.0021,0,0,1,2-2H33a2.0021,2.0021,0,0,1,2,2V27a10.9814,10.9814,0,0,1-5.8242,9.7069ZM13,14V27a8.9853,8.9853,0,0,0,4.7656,7.9423L23,37.7333l5.2344-2.791A8.9853,8.9853,0,0,0,33,27V14Z"/><rect id="_Transparent_Rectangle_" data-name=" Transparent Rectangle " class="cls-2" x="7" y="10" width="32" height="32"/><path class="cls-1" d="M47.98,22.584H46.2637V13.51h4.0947a3.0307,3.0307,0,0,1,1.1182.1953,2.2564,2.2564,0,0,1,.8379.5654,2.5627,2.5627,0,0,1,.5332.8906,3.3918,3.3918,0,0,1,.1884,1.1568,2.9763,2.9763,0,0,1-.4228,1.6123,2.2984,2.2984,0,0,1-1.2676.9619l1.8594,3.6919h-1.91l-1.69-3.4971H47.98Zm2.21-4.94a1.0963,1.0963,0,0,0,.7792-.2666.9851.9851,0,0,0,.2872-.76V16.019a.9652.9652,0,0,0-.2872-.7539,1.114,1.114,0,0,0-.7792-.26H47.98V17.644Z"/><path class="cls-1" d="M58.8477,21.4531h-.0655a2.25,2.25,0,0,1-.2412.4873,1.7526,1.7526,0,0,1-.3769.41,1.6969,1.6969,0,0,1-.545.2856,2.37,2.37,0,0,1-.7343.104,1.9564,1.9564,0,0,1-1.6133-.6889,3.0456,3.0456,0,0,1-.5586-1.9629v-4.29H56.377v4.121a1.792,1.792,0,0,0,.2734,1.0728,1.0105,1.0105,0,0,0,.8711.37,1.8641,1.8641,0,0,0,.4873-.0649,1.2381,1.2381,0,0,0,.4228-.2012,1.1262,1.1262,0,0,0,.2989-.3384.9269.9269,0,0,0,.1172-.4741V15.7979h1.664V22.584h-1.664Z"/><path class="cls-1" d="M64.1,22.584a1.6571,1.6571,0,0,1-1.2617-.4292,1.6974,1.6974,0,0,1-.4024-1.209V12.9639H64.1v8.2812h.8965V22.584Z"/><path class="cls-1" d="M69,22.74a3.3872,3.3872,0,0,1-1.3457-.2534,2.7783,2.7783,0,0,1-1.001-.7148,3.1907,3.1907,0,0,1-.63-1.1182,5.0311,5.0311,0,0,1-.0068-2.9311,3.18,3.18,0,0,1,.6172-1.1118,2.738,2.738,0,0,1,.9883-.7149,3.3036,3.3036,0,0,1,1.3252-.2534,3.2338,3.2338,0,0,1,1.3789.2729,2.656,2.656,0,0,1,.9619.7408,3.2133,3.2133,0,0,1,.5654,1.0859,4.5162,4.5162,0,0,1,.1885,1.3193v.5459H67.5312v.168a1.659,1.659,0,0,0,.4161,1.1807,1.6067,1.6067,0,0,0,1.2343.4453,1.8475,1.8475,0,0,0,1.0215-.2578,2.9227,2.9227,0,0,0,.708-.6582l.8975,1.0039a2.7976,2.7976,0,0,1-1.1387.9189A3.9551,3.9551,0,0,1,69,22.74Zm-.0254-5.85a1.3346,1.3346,0,0,0-1.0537.4419,1.6663,1.6663,0,0,0-.39,1.1441v.104h2.7813v-.1172a1.7843,1.7843,0,0,0-.3438-1.1372A1.1937,1.1937,0,0,0,68.9746,16.89Z"/><path class="cls-1" d="M75.7344,22.74a3.645,3.645,0,0,1-1.6387-.331,3.785,3.785,0,0,1-1.17-.9165l1.0137-.9883a3.0916,3.0916,0,0,0,.8261.6763,2.1059,2.1059,0,0,0,1.0332.2466,1.4129,1.4129,0,0,0,.8643-.208.6848.6848,0,0,0,.2666-.5718.6165.6165,0,0,0-.1885-.4746,1.2037,1.2037,0,0,0-.6435-.24l-.6758-.0913a3.2146,3.2146,0,0,1-1.6836-.63,1.7559,1.7559,0,0,1-.5781-1.4233,2.1144,2.1144,0,0,1,.1816-.8906,1.8914,1.8914,0,0,1,.5195-.6758,2.38,2.38,0,0,1,.8125-.4292,3.5229,3.5229,0,0,1,1.0606-.1494,4.8523,4.8523,0,0,1,.8769.0713,3.203,3.203,0,0,1,.6953.208,2.7157,2.7157,0,0,1,.5723.3379,5.43,5.43,0,0,1,.5068.4487l-.9755.9751a2.5725,2.5725,0,0,0-.7149-.52,2.0039,2.0039,0,0,0-.91-.208A1.2516,1.2516,0,0,0,75,17.15a.6211.6211,0,0,0-.2412.5073.6426.6426,0,0,0,.2021.5132,1.3857,1.3857,0,0,0,.6817.2534l.6894.0913q2.1974.312,2.1973,2.002a2.0239,2.0239,0,0,1-.2022.9033,2.0592,2.0592,0,0,1-.5654.7022,2.6738,2.6738,0,0,1-.8769.455A3.8235,3.8235,0,0,1,75.7344,22.74Z"/><path class="cls-3" d="M46.2773,37.9946V29.6187h5.22V30.65H47.4414v2.5923h3.7559v1.0317H47.4414v2.688h4.0557v1.0322Z"/><path class="cls-3" d="M53.2373,37.9946V31.7788h1.1162v1.0083h.0606a2.0264,2.0264,0,0,1,.6289-.8315,1.7887,1.7887,0,0,1,1.123-.3208,1.9,1.9,0,0,1,1.5059.624,2.597,2.597,0,0,1,.5449,1.7637v3.9721H57.1016V34.1821q0-1.5871-1.3086-1.5874a1.9609,1.9609,0,0,0-.5332.0723,1.577,1.577,0,0,0-.4629.21,1.03,1.03,0,0,0-.3233.3487.99.99,0,0,0-.12.499v4.27Z"/><path class="cls-3" d="M60.4492,32.7388h-.9961v-.96h.9961V30.6265a1.6115,1.6115,0,0,1,.36-1.0977,1.3682,1.3682,0,0,1,1.0918-.4141h.9716v.96H61.5654v1.7041H62.873v.96H61.5654v5.2558H60.4492Z"/><path class="cls-3" d="M66.4258,38.1387a2.8613,2.8613,0,0,1-1.1582-.2281,2.5074,2.5074,0,0,1-.8946-.6538,3.0248,3.0248,0,0,1-.5761-1.0263,4.5463,4.5463,0,0,1,0-2.688,3.0286,3.0286,0,0,1,.5761-1.0259,2.5074,2.5074,0,0,1,.8946-.6538,3.0532,3.0532,0,0,1,2.3154,0,2.4959,2.4959,0,0,1,.8936.6538,3.0119,3.0119,0,0,1,.5761,1.0259,4.5061,4.5061,0,0,1,0,2.688,3.0082,3.0082,0,0,1-.5761,1.0263,2.4959,2.4959,0,0,1-.8936.6538A2.86,2.86,0,0,1,66.4258,38.1387Zm0-.96a1.6072,1.6072,0,0,0,1.1875-.456,1.8594,1.8594,0,0,0,.456-1.3682v-.936a1.8588,1.8588,0,0,0-.456-1.3677,1.7752,1.7752,0,0,0-2.376,0,1.8588,1.8588,0,0,0-.4561,1.3677v.936a1.8594,1.8594,0,0,0,.4561,1.3682A1.6064,1.6064,0,0,0,66.4258,37.1787Z"/><path class="cls-3" d="M70.7812,37.9946V31.7788h1.1153v1.188h.06a1.7261,1.7261,0,0,1,.2159-.4443,1.535,1.535,0,0,1,.36-.378,1.844,1.844,0,0,1,.51-.2636,2.0243,2.0243,0,0,1,.666-.1021h.3721v1.1157h-.5518a2.1821,2.1821,0,0,0-1.207.2823.8537.8537,0,0,0-.4258.7378v4.08Z"/><path class="cls-3" d="M77.5732,38.1387a2.9161,2.9161,0,0,1-1.1884-.2281,2.4268,2.4268,0,0,1-.875-.6479,2.8409,2.8409,0,0,1-.5469-1.0259,4.6219,4.6219,0,0,1-.1856-1.35,4.5623,4.5623,0,0,1,.1856-1.3442,2.9114,2.9114,0,0,1,.5469-1.0259,2.4033,2.4033,0,0,1,.875-.6538,2.9161,2.9161,0,0,1,1.1884-.228,2.5411,2.5411,0,0,1,1.5.4077,2.4289,2.4289,0,0,1,.8526,1.08l-.9238.456a1.4452,1.4452,0,0,0-.5225-.72,1.51,1.51,0,0,0-.9063-.2637,1.4664,1.4664,0,0,0-1.206.4917,1.9309,1.9309,0,0,0-.4024,1.26v1.08a1.9281,1.9281,0,0,0,.4024,1.26,1.4652,1.4652,0,0,0,1.206.4922,1.6022,1.6022,0,0,0,.96-.2759,1.9887,1.9887,0,0,0,.624-.78l.8155.5039a2.4488,2.4488,0,0,1-.9,1.11A2.6376,2.6376,0,0,1,77.5732,38.1387Z"/><path class="cls-3" d="M83.585,38.1387a2.8376,2.8376,0,0,1-1.17-.2339,2.5362,2.5362,0,0,1-.8877-.6543,2.934,2.934,0,0,1-.5644-1.02,4.6548,4.6548,0,0,1,0-2.6817,2.9325,2.9325,0,0,1,.5644-1.0263,2.5337,2.5337,0,0,1,.8877-.6538,2.828,2.828,0,0,1,1.17-.2339,2.76,2.76,0,0,1,1.1582.2329,2.47,2.47,0,0,1,.8584.64,2.7641,2.7641,0,0,1,.5273.9688,3.9314,3.9314,0,0,1,.18,1.2075V35.15H81.93v.2524a1.8193,1.8193,0,0,0,.4551,1.2779,1.6707,1.6707,0,0,0,1.2968.498,1.8574,1.8574,0,0,0,1.0079-.2641,1.9,1.9,0,0,0,.6718-.7442l.72.6162a2.4181,2.4181,0,0,1-.9717.9839A3.0381,3.0381,0,0,1,83.585,38.1387Zm0-5.604a1.6767,1.6767,0,0,0-.6661.1313,1.5905,1.5905,0,0,0-.5283.3633,1.6139,1.6139,0,0,0-.3418.5547,1.9932,1.9932,0,0,0-.1191.7031v.0835h3.1914v-.1191a1.82,1.82,0,0,0-.4141-1.2456A1.4176,1.4176,0,0,0,83.585,32.5347Z"/><path class="cls-3" d="M90.6641,29.1147h1.1171v3.6724h.0469a1.6922,1.6922,0,0,1,.6787-.8613,2.04,2.04,0,0,1,1.11-.291,2.3938,2.3938,0,0,1,1.0488.2216,2.16,2.16,0,0,1,.7871.648,3.0712,3.0712,0,0,1,.4922,1.0264,5.556,5.556,0,0,1,0,2.7119,3.0639,3.0639,0,0,1-.4922,1.0259,2.1493,2.1493,0,0,1-.7871.6479,2.3926,2.3926,0,0,1-1.0488.2222,2.0412,2.0412,0,0,1-1.11-.291,1.6908,1.6908,0,0,1-.6787-.8614h-.0469v1.0083H90.6641Zm2.6289,8.064a1.53,1.53,0,0,0,1.1933-.4824,1.8256,1.8256,0,0,0,.4385-1.2788V34.356a1.8257,1.8257,0,0,0-.4385-1.2789,1.53,1.53,0,0,0-1.1933-.4824,1.9951,1.9951,0,0,0-.5879.0845,1.5011,1.5011,0,0,0-.4805.2412,1.2475,1.2475,0,0,0-.3242.3618.89.89,0,0,0-.1192.4585v2.292a.8892.8892,0,0,0,.1192.4585,1.2475,1.2475,0,0,0,.3242.3618,1.4991,1.4991,0,0,0,.4805.2412A1.9951,1.9951,0,0,0,93.293,37.1787Z"/><path class="cls-3" d="M100.0605,38.1387a2.8341,2.8341,0,0,1-1.17-.2339,2.5478,2.5478,0,0,1-.8886-.6543,2.9308,2.9308,0,0,1-.5635-1.02,4.6324,4.6324,0,0,1,0-2.6817,2.9294,2.9294,0,0,1,.5635-1.0263,2.5453,2.5453,0,0,1,.8886-.6538,2.8246,2.8246,0,0,1,1.17-.2339,2.7588,2.7588,0,0,1,1.1582.2329,2.4565,2.4565,0,0,1,.8575.64,2.7659,2.7659,0,0,1,.5283.9688,3.9314,3.9314,0,0,1,.1807,1.2075V35.15H98.4043v.2524a1.816,1.816,0,0,0,.457,1.2779,1.6652,1.6652,0,0,0,1.2949.498,1.85,1.85,0,0,0,1.0079-.2641,1.8945,1.8945,0,0,0,.6728-.7442l.72.6162a2.4136,2.4136,0,0,1-.9726.9839A3.0344,3.0344,0,0,1,100.0605,38.1387Zm0-5.604a1.6731,1.6731,0,0,0-.666.1313,1.5667,1.5667,0,0,0-.8691.918,1.9934,1.9934,0,0,0-.1211.7031v.0835h3.1924v-.1191a1.8149,1.8149,0,0,0-.4141-1.2456A1.4176,1.4176,0,0,0,100.0605,32.5347Z"/><path class="cls-3" d="M106.2168,38.1387a3.0049,3.0049,0,0,1-1.458-.3242,3.3067,3.3067,0,0,1-1.0264-.876l.7559-.648a2.5659,2.5659,0,0,0,.7871.6841,2.0682,2.0682,0,0,0,1.0137.24,1.4527,1.4527,0,0,0,.9121-.246.8942.8942,0,0,0,.1015-1.254,1.3292,1.3292,0,0,0-.7861-.312l-.5283-.084a4.04,4.04,0,0,1-.8154-.1923,2.0967,2.0967,0,0,1-.6358-.3477,1.5254,1.5254,0,0,1-.4141-.5283,1.6952,1.6952,0,0,1-.15-.7437,1.8766,1.8766,0,0,1,.1679-.81,1.5959,1.5959,0,0,1,.4688-.5884,2.0936,2.0936,0,0,1,.7129-.354,3.2624,3.2624,0,0,1,.9062-.12,2.9419,2.9419,0,0,1,1.32.2636,2.9077,2.9077,0,0,1,.9239.7325l-.7081.6718a2.0016,2.0016,0,0,0-.6181-.5219,1.9,1.9,0,0,0-.9531-.2222,1.3027,1.3027,0,0,0-.8594.24.7943.7943,0,0,0-.2813.6358.6983.6983,0,0,0,.27.6118,1.932,1.932,0,0,0,.8105.2764l.5274.0839a2.6486,2.6486,0,0,1,1.4824.6,1.5586,1.5586,0,0,1,.45,1.1636,1.7725,1.7725,0,0,1-.6358,1.44A2.6418,2.6418,0,0,1,106.2168,38.1387Z"/><path class="cls-3" d="M111.6289,37.9946a1.1514,1.1514,0,0,1-.8769-.3174,1.1966,1.1966,0,0,1-.2989-.8559V32.7388h-.9961v-.96h.5518a.5664.5664,0,0,0,.4316-.1323.6543.6543,0,0,0,.12-.4439v-1.14h1.0079v1.7163H112.9v.96h-1.332v4.2959h1.2363v.96Z"/><path class="cls-3" d="M117.2207,31.7788h1.1152v1.0083h.0489a1.68,1.68,0,0,1,.6777-.8613,2.0388,2.0388,0,0,1,1.1094-.291,2.4,2.4,0,0,1,1.0508.2216,2.1451,2.1451,0,0,1,.7851.648,2.9984,2.9984,0,0,1,.4922,1.0264,5.556,5.556,0,0,1,0,2.7119,2.9914,2.9914,0,0,1-.4922,1.0259,2.135,2.135,0,0,1-.7851.6479,2.3984,2.3984,0,0,1-1.0508.2222,2.04,2.04,0,0,1-1.1094-.291,1.6784,1.6784,0,0,1-.6777-.8614h-.0489v3.4082h-1.1152Zm2.627,5.4a1.5346,1.5346,0,0,0,1.1953-.4824,1.8344,1.8344,0,0,0,.4375-1.2788V34.356a1.8344,1.8344,0,0,0-.4375-1.2789,1.5349,1.5349,0,0,0-1.1953-.4824,2.0087,2.0087,0,0,0-.5879.0845,1.4957,1.4957,0,0,0-.48.2412,1.2427,1.2427,0,0,0-.3233.3618.8918.8918,0,0,0-.1211.4585v2.292a.8916.8916,0,0,0,.1211.4585,1.2427,1.2427,0,0,0,.3233.3618,1.4937,1.4937,0,0,0,.48.2412A2.0087,2.0087,0,0,0,119.8477,37.1787Z"/><path class="cls-3" d="M124.24,37.9946V31.7788h1.1162v1.188h.06a1.76,1.76,0,0,1,.2168-.4443,1.5148,1.5148,0,0,1,.3594-.378,1.87,1.87,0,0,1,.51-.2636,2.0281,2.0281,0,0,1,.666-.1021h.373v1.1157h-.5527a2.1788,2.1788,0,0,0-1.2061.2823.8515.8515,0,0,0-.4258.7378v4.08Z"/><path class="cls-3" d="M133.1924,37.9946a.9875.9875,0,0,1-.7744-.2881,1.3471,1.3471,0,0,1-.3174-.7441h-.06a1.6111,1.6111,0,0,1-.66.8765,2.0743,2.0743,0,0,1-1.1407.3,2.1459,2.1459,0,0,1-1.5117-.4981,1.7634,1.7634,0,0,1-.54-1.3618,1.59,1.59,0,0,1,.6543-1.374,3.412,3.412,0,0,1,1.997-.4741h1.1768v-.564a1.3008,1.3008,0,0,0-.3359-.96,1.4233,1.4233,0,0,0-1.044-.3359,1.6137,1.6137,0,0,0-.918.2456,2.02,2.02,0,0,0-.6054.6421l-.6729-.6118a2.3711,2.3711,0,0,1,.834-.8579,2.6153,2.6153,0,0,1,1.4229-.354,2.6443,2.6443,0,0,1,1.7988.5566,1.983,1.983,0,0,1,.6367,1.5747v3.2686h.6953v.96Zm-2.7-.7558a1.8659,1.8659,0,0,0,1.0918-.3.9005.9005,0,0,0,.4326-.7681v-.96h-1.1885a2.1264,2.1264,0,0,0-1.1211.2281.738.738,0,0,0-.3545.66v.24a.79.79,0,0,0,.3057.6655A1.3431,1.3431,0,0,0,130.4922,37.2388Z"/><path class="cls-3" d="M137.5117,38.1387a2.9154,2.9154,0,0,1-1.1875-.2281,2.4321,2.4321,0,0,1-.876-.6479,2.8424,2.8424,0,0,1-.5459-1.0259,4.5919,4.5919,0,0,1-.1855-1.35,4.5329,4.5329,0,0,1,.1855-1.3442,2.9129,2.9129,0,0,1,.5459-1.0259,2.4084,2.4084,0,0,1,.876-.6538,2.9154,2.9154,0,0,1,1.1875-.228,2.5373,2.5373,0,0,1,1.5.4077,2.422,2.422,0,0,1,.8526,1.08l-.9239.456a1.44,1.44,0,0,0-.5224-.72,1.51,1.51,0,0,0-.9063-.2637,1.4658,1.4658,0,0,0-1.2051.4917,1.9259,1.9259,0,0,0-.4023,1.26v1.08a1.9231,1.9231,0,0,0,.4023,1.26,1.4646,1.4646,0,0,0,1.2051.4922,1.6033,1.6033,0,0,0,.961-.2759,1.9885,1.9885,0,0,0,.623-.78l.8164.5039a2.4443,2.4443,0,0,1-.9,1.11A2.6376,2.6376,0,0,1,137.5117,38.1387Z"/><path class="cls-3" d="M142.7441,37.9946a1.1493,1.1493,0,0,1-.8759-.3174,1.1932,1.1932,0,0,1-.3-.8559V32.7388h-.9961v-.96h.5527a.5679.5679,0,0,0,.4316-.1323.6546.6546,0,0,0,.1192-.4439v-1.14h1.0088v1.7163h1.331v.96h-1.331v4.2959H143.92v.96Z"/><path class="cls-3" d="M146.0684,30.4824a.6777.6777,0,0,1-.51-.1679.6105.6105,0,0,1-.1621-.4439v-.168a.61.61,0,0,1,.1621-.4438.8573.8573,0,0,1,1.0195,0,.6144.6144,0,0,1,.1621.4438v.168a.6147.6147,0,0,1-.1621.4439A.6791.6791,0,0,1,146.0684,30.4824Zm-.5645,1.2964H146.62v6.2158h-1.1162Z"/><path class="cls-3" d="M150.94,38.1387a2.9147,2.9147,0,0,1-1.1875-.2281,2.43,2.43,0,0,1-.876-.6479,2.8394,2.8394,0,0,1-.5459-1.0259,4.5918,4.5918,0,0,1-.1856-1.35,4.5328,4.5328,0,0,1,.1856-1.3442,2.91,2.91,0,0,1,.5459-1.0259,2.4068,2.4068,0,0,1,.876-.6538,2.9147,2.9147,0,0,1,1.1875-.228,2.5377,2.5377,0,0,1,1.5.4077,2.4225,2.4225,0,0,1,.8525,1.08l-.9238.456a1.44,1.44,0,0,0-.5225-.72,1.51,1.51,0,0,0-.9062-.2637,1.4657,1.4657,0,0,0-1.2051.4917,1.9254,1.9254,0,0,0-.4024,1.26v1.08a1.9226,1.9226,0,0,0,.4024,1.26,1.4645,1.4645,0,0,0,1.2051.4922,1.6032,1.6032,0,0,0,.9609-.2759,1.9877,1.9877,0,0,0,.623-.78l.8164.5039a2.4447,2.4447,0,0,1-.9,1.11A2.6381,2.6381,0,0,1,150.94,38.1387Z"/><path class="cls-3" d="M156.9512,38.1387a2.8376,2.8376,0,0,1-1.17-.2339,2.5441,2.5441,0,0,1-.8876-.6543,2.9308,2.9308,0,0,1-.5635-1.02,4.6324,4.6324,0,0,1,0-2.6817,2.9294,2.9294,0,0,1,.5635-1.0263,2.5416,2.5416,0,0,1,.8876-.6538,2.828,2.828,0,0,1,1.17-.2339,2.7562,2.7562,0,0,1,1.1582.2329,2.4608,2.4608,0,0,1,.8584.64,2.782,2.782,0,0,1,.5283.9688,3.9619,3.9619,0,0,1,.18,1.2075V35.15h-4.38v.2524a1.8154,1.8154,0,0,0,.4561,1.2779,1.6686,1.6686,0,0,0,1.2959.498,1.8549,1.8549,0,0,0,1.0078-.2641,1.902,1.902,0,0,0,.6728-.7442l.7188.6162a2.4058,2.4058,0,0,1-.9717.9839A3.0378,3.0378,0,0,1,156.9512,38.1387Zm0-5.604a1.6794,1.6794,0,0,0-.666.1313,1.5665,1.5665,0,0,0-.8692.918,1.9933,1.9933,0,0,0-.12.7031v.0835h3.1924v-.1191a1.82,1.82,0,0,0-.4141-1.2456A1.42,1.42,0,0,0,156.9512,32.5347Z"/><path class="cls-3" d="M163.1074,38.1387a3.0008,3.0008,0,0,1-1.457-.3242,3.2954,3.2954,0,0,1-1.0264-.876l.7559-.648a2.5513,2.5513,0,0,0,.7861.6841,2.0709,2.0709,0,0,0,1.0137.24,1.4488,1.4488,0,0,0,.9121-.246.8919.8919,0,0,0,.1016-1.254,1.3234,1.3234,0,0,0-.7852-.312l-.5283-.084a4.024,4.024,0,0,1-.8154-.1923,2.1024,2.1024,0,0,1-.6368-.3477,1.5251,1.5251,0,0,1-.414-.5283,1.708,1.708,0,0,1-.15-.7437,1.8766,1.8766,0,0,1,.1679-.81,1.6164,1.6164,0,0,1,.4688-.5884,2.09,2.09,0,0,1,.7139-.354,3.2551,3.2551,0,0,1,.9052-.12,2.94,2.94,0,0,1,1.32.2636,2.8975,2.8975,0,0,1,.9238.7325l-.7071.6718a2.0049,2.0049,0,0,0-.6191-.5219,1.8975,1.8975,0,0,0-.9531-.2222,1.3,1.3,0,0,0-.8584.24.792.792,0,0,0-.2822.6358.6964.6964,0,0,0,.27.6118,1.9274,1.9274,0,0,0,.81.2764l.5284.0839a2.6418,2.6418,0,0,1,1.4814.6,1.5593,1.5593,0,0,1,.4512,1.1636,1.7735,1.7735,0,0,1-.6367,1.44A2.6423,2.6423,0,0,1,163.1074,38.1387Z"/><path class="cls-3" d="M174.4355,37.9946a.9855.9855,0,0,1-.7734-.2881,1.3487,1.3487,0,0,1-.3184-.7441h-.0605a1.5978,1.5978,0,0,1-.66.8765,2.0673,2.0673,0,0,1-1.1386.3,2.1482,2.1482,0,0,1-1.5127-.4981,1.76,1.76,0,0,1-.54-1.3618,1.5906,1.5906,0,0,1,.6543-1.374,3.4139,3.4139,0,0,1,1.9981-.4741H173.26v-.564a1.3,1.3,0,0,0-.336-.96,1.4245,1.4245,0,0,0-1.0439-.3359,1.6113,1.6113,0,0,0-.918.2456,2.0324,2.0324,0,0,0-.6064.6421l-.6719-.6118a2.363,2.363,0,0,1,.834-.8579,2.6115,2.6115,0,0,1,1.4219-.354,2.65,2.65,0,0,1,1.8007.5566,1.9821,1.9821,0,0,1,.6358,1.5747v3.2686h.6963v.96Zm-2.6992-.7558a1.872,1.872,0,0,0,1.0918-.3.9039.9039,0,0,0,.4317-.7681v-.96h-1.1875a2.1343,2.1343,0,0,0-1.1231.2281.7392.7392,0,0,0-.3535.66v.24a.786.786,0,0,0,.3066.6655A1.3375,1.3375,0,0,0,171.7363,37.2388Z"/><path class="cls-3" d="M176.4033,37.9946V31.7788H177.52v1.0083h.0606a2.0264,2.0264,0,0,1,.6289-.8315,1.7889,1.7889,0,0,1,1.123-.3208,1.9,1.9,0,0,1,1.5059.624,2.597,2.597,0,0,1,.5449,1.7637v3.9721h-1.1152V34.1821q0-1.5871-1.3086-1.5874a1.9615,1.9615,0,0,0-.5332.0723,1.577,1.577,0,0,0-.4629.21,1.03,1.03,0,0,0-.3233.3487.99.99,0,0,0-.12.499v4.27Z"/><path class="cls-3" d="M187.2148,36.9863h-.0468a1.6908,1.6908,0,0,1-.6787.8614,2.0412,2.0412,0,0,1-1.11.291,2.3864,2.3864,0,0,1-1.0488-.2222,2.1493,2.1493,0,0,1-.7871-.6479,3.0639,3.0639,0,0,1-.4922-1.0259,5.556,5.556,0,0,1,0-2.7119,3.0712,3.0712,0,0,1,.4922-1.0264,2.16,2.16,0,0,1,.7871-.648,2.3877,2.3877,0,0,1,1.0488-.2216,2.04,2.04,0,0,1,1.11.291,1.6922,1.6922,0,0,1,.6787.8613h.0468V29.1147h1.1172v8.88h-1.1172Zm-1.5117.1924a2,2,0,0,0,.5879-.0845,1.4991,1.4991,0,0,0,.4805-.2412,1.262,1.262,0,0,0,.3242-.3618.8892.8892,0,0,0,.1191-.4585v-2.292a.8894.8894,0,0,0-.1191-.4585,1.262,1.262,0,0,0-.3242-.3618,1.5011,1.5011,0,0,0-.4805-.2412,2,2,0,0,0-.5879-.0845,1.529,1.529,0,0,0-1.1933.4824,1.8257,1.8257,0,0,0-.4385,1.2789v1.0615a1.8256,1.8256,0,0,0,.4385,1.2788A1.5286,1.5286,0,0,0,185.7031,37.1787Z"/><path class="cls-3" d="M198.4707,38.624a1.5864,1.5864,0,0,1-.75,1.4453,4.5164,4.5164,0,0,1-2.334.4693,4.2529,4.2529,0,0,1-2.13-.3965,1.2455,1.2455,0,0,1-.6416-1.1172,1.1137,1.1137,0,0,1,.27-.7925,1.4918,1.4918,0,0,1,.75-.4087v-.1323a.9018.9018,0,0,1-.6114-.916.8766.8766,0,0,1,.3116-.7227,1.8914,1.8914,0,0,1,.7685-.3618v-.0483a1.9691,1.9691,0,0,1-.8525-.7476,2.1019,2.1019,0,0,1-.3-1.1308,2.1718,2.1718,0,0,1,.1679-.8614,1.924,1.924,0,0,1,.4737-.6757,2.1421,2.1421,0,0,1,.75-.4371,3.0442,3.0442,0,0,1,1.0088-.1552,2.9939,2.9939,0,0,1,.6113.06,3.5758,3.5758,0,0,1,.54.1558v-.1318a.9812.9812,0,0,1,.1807-.6182.679.679,0,0,1,.5752-.2339h.9482v.936h-1.2246v.335a1.9009,1.9009,0,0,1,.7813,1.6269,2.19,2.19,0,0,1-.168.8619,1.867,1.867,0,0,1-.4805.67,2.27,2.27,0,0,1-.7558.4307,3.0374,3.0374,0,0,1-1.0078.1557c-.1211,0-.24-.0063-.36-.0181a2.7475,2.7475,0,0,1-.3369-.0542,1.6566,1.6566,0,0,0-.4912.24.4929.4929,0,0,0-.2158.42.3646.3646,0,0,0,.2461.3721,1.8764,1.8764,0,0,0,.666.0957h1.416a2.5341,2.5341,0,0,1,1.6738.4516A1.5475,1.5475,0,0,1,198.4707,38.624Zm-1.0439.1148a.6694.6694,0,0,0-.2706-.5581,1.6009,1.6009,0,0,0-.9531-.21h-2.0879a.8649.8649,0,0,0-.1982,1.4458,1.5677,1.5677,0,0,0,1.0381.27h.84a2.5373,2.5373,0,0,0,1.2119-.2339A.7653.7653,0,0,0,197.4268,38.7388Zm-2.0635-3.6963a1.4635,1.4635,0,0,0,.9414-.2744,1.0213,1.0213,0,0,0,.3418-.8482v-.31a1.0213,1.0213,0,0,0-.3418-.8482,1.7538,1.7538,0,0,0-1.8838,0,1.0242,1.0242,0,0,0-.3418.8482v.31a1.0242,1.0242,0,0,0,.3418.8482A1.4644,1.4644,0,0,0,195.3633,35.0425Z"/><path class="cls-3" d="M201.8437,38.1387a2.8617,2.8617,0,0,1-1.1582-.2281,2.5079,2.5079,0,0,1-.8945-.6538,3.0267,3.0267,0,0,1-.5762-1.0263,4.5485,4.5485,0,0,1,0-2.688,3.03,3.03,0,0,1,.5762-1.0259,2.5079,2.5079,0,0,1,.8945-.6538,3.0534,3.0534,0,0,1,2.3155,0,2.4947,2.4947,0,0,1,.8935.6538,3.01,3.01,0,0,1,.5762,1.0259,4.5061,4.5061,0,0,1,0,2.688,3.0067,3.0067,0,0,1-.5762,1.0263,2.4947,2.4947,0,0,1-.8935.6538A2.86,2.86,0,0,1,201.8437,38.1387Zm0-.96a1.6069,1.6069,0,0,0,1.1875-.456,1.859,1.859,0,0,0,.4561-1.3682v-.936a1.8584,1.8584,0,0,0-.4561-1.3677,1.7751,1.7751,0,0,0-2.3759,0,1.8588,1.8588,0,0,0-.4561,1.3677v.936a1.8594,1.8594,0,0,0,.4561,1.3682A1.6063,1.6063,0,0,0,201.8437,37.1787Z"/><path class="cls-3" d="M207.459,37.9946l-2.1485-6.2158h1.1172l1.02,2.9756.6484,2.1484h.0713l.66-2.1484,1.0323-2.9756h1.0683l-2.16,6.2158Z"/><path class="cls-3" d="M214.3828,38.1387a2.8338,2.8338,0,0,1-1.17-.2339,2.5482,2.5482,0,0,1-.8887-.6543,2.9341,2.9341,0,0,1-.5635-1.02,4.6346,4.6346,0,0,1,0-2.6817,2.9326,2.9326,0,0,1,.5635-1.0263,2.5457,2.5457,0,0,1,.8887-.6538,2.8242,2.8242,0,0,1,1.17-.2339,2.7588,2.7588,0,0,1,1.1582.2329,2.4552,2.4552,0,0,1,.8574.64,2.7661,2.7661,0,0,1,.5284.9688,3.9314,3.9314,0,0,1,.1806,1.2075V35.15h-4.3808v.2524a1.816,1.816,0,0,0,.457,1.2779,1.6649,1.6649,0,0,0,1.2949.498,1.85,1.85,0,0,0,1.0078-.2641,1.8947,1.8947,0,0,0,.6729-.7442l.72.6162a2.4133,2.4133,0,0,1-.9727.9839A3.0337,3.0337,0,0,1,214.3828,38.1387Zm0-5.604a1.6731,1.6731,0,0,0-.666.1313,1.5667,1.5667,0,0,0-.8691.918,1.9934,1.9934,0,0,0-.1211.7031v.0835h3.1923v-.1191a1.8153,1.8153,0,0,0-.414-1.2456A1.4176,1.4176,0,0,0,214.3828,32.5347Z"/><path class="cls-3" d="M218.6309,37.9946V31.7788h1.1162v1.188h.06a1.7662,1.7662,0,0,1,.2168-.4443,1.5148,1.5148,0,0,1,.3594-.378,1.8712,1.8712,0,0,1,.51-.2636,2.0286,2.0286,0,0,1,.666-.1021h.373v1.1157h-.5527a2.1784,2.1784,0,0,0-1.206.2823.8515.8515,0,0,0-.4258.7378v4.08Z"/><path class="cls-3" d="M223.1309,37.9946V31.7788h1.1162v1.0083h.06a2.0315,2.0315,0,0,1,.6309-.8315,1.7828,1.7828,0,0,1,1.1211-.3208,1.8946,1.8946,0,0,1,1.5059.624,2.5928,2.5928,0,0,1,.5468,1.7637v3.9721h-1.1162V34.1821q0-1.5871-1.3076-1.5874a1.9706,1.9706,0,0,0-.5352.0723,1.5547,1.5547,0,0,0-.4609.21,1.0341,1.0341,0,0,0-.3242.3487.9892.9892,0,0,0-.12.499v4.27Z"/><path class="cls-3" d="M47.7051,52.3945a1.1494,1.1494,0,0,1-.876-.3174,1.1932,1.1932,0,0,1-.3-.8559V47.1387h-.9961v-.96h.5527a.5681.5681,0,0,0,.4317-.1323.6547.6547,0,0,0,.1191-.4439v-1.14h1.0088v1.7163h1.3311v.96H47.6455v4.2959h1.2354v.96Z"/><path class="cls-3" d="M50.4648,43.5146H51.582V47.187h.06a2.0294,2.0294,0,0,1,.63-.8315,1.7859,1.7859,0,0,1,1.1221-.3208,1.897,1.897,0,0,1,1.5058.624,2.5921,2.5921,0,0,1,.5459,1.7637v3.9721H54.33V48.582q0-1.5872-1.3086-1.5874a1.9687,1.9687,0,0,0-.5342.0723,1.5711,1.5711,0,0,0-.4619.21,1.0331,1.0331,0,0,0-.3242.3487.989.989,0,0,0-.1192.499v4.27H50.4648Z"/><path class="cls-3" d="M59.7168,52.5386a2.8371,2.8371,0,0,1-1.17-.2339,2.5435,2.5435,0,0,1-.8877-.6543,2.9308,2.9308,0,0,1-.5635-1.02,4.6346,4.6346,0,0,1,0-2.6817,2.9294,2.9294,0,0,1,.5635-1.0263,2.541,2.541,0,0,1,.8877-.6538,2.8275,2.8275,0,0,1,1.17-.2339,2.7559,2.7559,0,0,1,1.1582.2329,2.46,2.46,0,0,1,.8584.64,2.782,2.782,0,0,1,.5283.9688,3.9588,3.9588,0,0,1,.18,1.2075V49.55h-4.38v.2524a1.8154,1.8154,0,0,0,.4561,1.2779,1.6686,1.6686,0,0,0,1.2959.498,1.8549,1.8549,0,0,0,1.0078-.2641,1.9012,1.9012,0,0,0,.6728-.7442l.7188.6162a2.4058,2.4058,0,0,1-.9717.9839A3.0376,3.0376,0,0,1,59.7168,52.5386Zm0-5.604a1.68,1.68,0,0,0-.666.1313,1.5665,1.5665,0,0,0-.8692.918,1.9956,1.9956,0,0,0-.12.7031v.0835h3.1924v-.1191a1.82,1.82,0,0,0-.4141-1.2456A1.4194,1.4194,0,0,0,59.7168,46.9346Z"/><path class="cls-3" d="M66.1611,46.1787h1.08l.6475,2.6519.625,2.5561h.0234l.708-2.5561.7686-2.6519h.9951l.792,2.6519.7207,2.5561h.0351l.5879-2.5561.66-2.6519H74.85l-1.6562,6.2158h-1.32l-.84-2.916-.5283-1.8242h-.0244l-.5157,1.8242-.84,2.916H67.8291Z"/><path class="cls-3" d="M80.585,52.3945a.9879.9879,0,0,1-.7745-.2881,1.3474,1.3474,0,0,1-.3173-.7441h-.06a1.6108,1.6108,0,0,1-.66.8765,2.074,2.074,0,0,1-1.1406.3,2.1459,2.1459,0,0,1-1.5117-.4981,1.7634,1.7634,0,0,1-.54-1.3618,1.59,1.59,0,0,1,.6543-1.374,3.412,3.412,0,0,1,1.997-.4741h1.1768v-.564a1.3,1.3,0,0,0-.336-.96,1.4229,1.4229,0,0,0-1.0439-.3359,1.6135,1.6135,0,0,0-.918.2456,2.0184,2.0184,0,0,0-.6054.6421l-.6729-.6118a2.3711,2.3711,0,0,1,.834-.8579,2.6152,2.6152,0,0,1,1.4228-.354,2.6447,2.6447,0,0,1,1.7989.5566,1.983,1.983,0,0,1,.6367,1.5747v3.2686h.6953v.96Zm-2.7-.7558a1.8659,1.8659,0,0,0,1.0918-.3.9005.9005,0,0,0,.4326-.7681v-.96H78.2207a2.1265,2.1265,0,0,0-1.1211.228.738.738,0,0,0-.3545.66v.24a.79.79,0,0,0,.3057.6655A1.3431,1.3431,0,0,0,77.8848,51.6387Z"/><path class="cls-3" d="M86.3086,46.1787h1.08L84.69,53.7505a3.2115,3.2115,0,0,1-.2286.4922,1.0041,1.0041,0,0,1-.2939.3237,1.1767,1.1767,0,0,1-.4141.1743,2.8207,2.8207,0,0,1-.6006.0537H82.541v-.96h1.02l.42-1.1983-2.3028-6.4575H82.793l1.38,3.9639.3242,1.1616h.0595l.36-1.1616Z"/><path class="cls-3" d="M91.9492,44.8823a.6776.6776,0,0,1-.51-.1679.6106.6106,0,0,1-.1622-.4439v-.168a.61.61,0,0,1,.1622-.4438.8573.8573,0,0,1,1.02,0,.6144.6144,0,0,1,.1621.4438v.168a.6147.6147,0,0,1-.1621.4439A.6792.6792,0,0,1,91.9492,44.8823Zm-.5644,1.2964H92.501v6.2158H91.3848Z"/><path class="cls-3" d="M94.4687,52.3945V46.1787H95.584V47.187h.06a2.0294,2.0294,0,0,1,.63-.8315,1.7859,1.7859,0,0,1,1.1221-.3208,1.897,1.897,0,0,1,1.5058.624,2.5972,2.5972,0,0,1,.5459,1.7637v3.9721H98.332V48.582q0-1.5872-1.3076-1.5874a1.9634,1.9634,0,0,0-.5342.0723,1.5617,1.5617,0,0,0-.4619.21,1.0311,1.0311,0,0,0-.3232.3487.99.99,0,0,0-.1211.499v4.27Z"/><path class="cls-3" d="M103.541,46.1787h1.08l.6475,2.6519.624,2.5561h.0234l.709-2.5561.7676-2.6519h.9961l.791,2.6519.7207,2.5561h.0361l.5879-2.5561.66-2.6519h1.0439l-1.6562,6.2158h-1.32l-.84-2.916-.5273-1.8242H107.86l-.5167,1.8242-.84,2.916H105.209Z"/><path class="cls-3" d="M113.5605,43.5146h1.1153V47.187h.0605a2.0294,2.0294,0,0,1,.63-.8315,1.7859,1.7859,0,0,1,1.1221-.3208,1.897,1.897,0,0,1,1.5058.624,2.5972,2.5972,0,0,1,.5459,1.7637v3.9721h-1.1162V48.582q0-1.5872-1.3076-1.5874a1.9634,1.9634,0,0,0-.5342.0723,1.5617,1.5617,0,0,0-.4619.21,1.0311,1.0311,0,0,0-.3232.3487.99.99,0,0,0-.1211.499v4.27h-1.1153Z"/><path class="cls-3" d="M121,44.8823a.678.678,0,0,1-.51-.1679.6147.6147,0,0,1-.1621-.4439v-.168a.6144.6144,0,0,1,.1621-.4438.8575.8575,0,0,1,1.02,0,.61.61,0,0,1,.1621.4438v.168a.6105.6105,0,0,1-.1621.4439A.678.678,0,0,1,121,44.8823Zm-.5645,1.2964h1.1172v6.2158h-1.1172Z"/><path class="cls-3" d="M125.8721,52.5386a2.9162,2.9162,0,0,1-1.1885-.2281,2.4268,2.4268,0,0,1-.875-.6479,2.8425,2.8425,0,0,1-.5469-1.0259,4.6254,4.6254,0,0,1-.1855-1.35,4.5658,4.5658,0,0,1,.1855-1.3442,2.913,2.913,0,0,1,.5469-1.0259,2.4044,2.4044,0,0,1,.875-.6538,2.9162,2.9162,0,0,1,1.1885-.228,2.5415,2.5415,0,0,1,1.5.4077,2.4287,2.4287,0,0,1,.8525,1.08l-.9238.456a1.4452,1.4452,0,0,0-.5225-.72,1.51,1.51,0,0,0-.9062-.2637,1.4665,1.4665,0,0,0-1.2061.4917,1.9308,1.9308,0,0,0-.4023,1.26v1.08a1.928,1.928,0,0,0,.4023,1.26,1.465,1.465,0,0,0,1.2061.4922,1.6017,1.6017,0,0,0,.96-.2759,1.99,1.99,0,0,0,.6241-.78l.8154.5039a2.4486,2.4486,0,0,1-.8994,1.11A2.6376,2.6376,0,0,1,125.8721,52.5386Z"/><path class="cls-3" d="M129.58,43.5146h1.1162V47.187h.06a2.0313,2.0313,0,0,1,.6308-.8315,1.7828,1.7828,0,0,1,1.1211-.3208,1.8946,1.8946,0,0,1,1.5059.624,2.5928,2.5928,0,0,1,.5468,1.7637v3.9721h-1.1162V48.582q0-1.5872-1.3076-1.5874a1.9694,1.9694,0,0,0-.5351.0723,1.5553,1.5553,0,0,0-.461.21,1.0341,1.0341,0,0,0-.3242.3487.9892.9892,0,0,0-.12.499v4.27H129.58Z"/><path class="cls-3" d="M139.2881,52.3945V46.1787h1.1162v1.188h.06a1.7221,1.7221,0,0,1,.2149-.4443,1.5555,1.5555,0,0,1,.36-.378,1.8363,1.8363,0,0,1,.5108-.2636,2.0243,2.0243,0,0,1,.666-.1021h.3711v1.1157h-.5518a2.1763,2.1763,0,0,0-1.206.2823.8515.8515,0,0,0-.4258.7378v4.08Z"/><path class="cls-3" d="M146.1035,52.5386a2.8371,2.8371,0,0,1-1.17-.2339,2.5435,2.5435,0,0,1-.8877-.6543,2.9325,2.9325,0,0,1-.5635-1.02,4.6346,4.6346,0,0,1,0-2.6817,2.931,2.931,0,0,1,.5635-1.0263,2.541,2.541,0,0,1,.8877-.6538,2.8275,2.8275,0,0,1,1.17-.2339,2.7559,2.7559,0,0,1,1.1582.2329,2.459,2.459,0,0,1,.8584.64,2.78,2.78,0,0,1,.5283.9688,3.9588,3.9588,0,0,1,.18,1.2075V49.55h-4.38v.2524a1.8154,1.8154,0,0,0,.4561,1.2779,1.6686,1.6686,0,0,0,1.2959.498,1.8549,1.8549,0,0,0,1.0078-.2641,1.9022,1.9022,0,0,0,.6729-.7442l.7187.6162a2.4052,2.4052,0,0,1-.9717.9839A3.0376,3.0376,0,0,1,146.1035,52.5386Zm0-5.604a1.68,1.68,0,0,0-.666.1313,1.5667,1.5667,0,0,0-.8691.918,1.9933,1.9933,0,0,0-.12.7031v.0835h3.1924v-.1191a1.82,1.82,0,0,0-.414-1.2456A1.42,1.42,0,0,0,146.1035,46.9346Z"/><path class="cls-3" d="M152.26,52.5386a3.0013,3.0013,0,0,1-1.4571-.3242,3.295,3.295,0,0,1-1.0263-.876l.7558-.648a2.5528,2.5528,0,0,0,.7862.6841,2.0705,2.0705,0,0,0,1.0136.24,1.4488,1.4488,0,0,0,.9121-.246.8919.8919,0,0,0,.1016-1.254,1.3231,1.3231,0,0,0-.7852-.312l-.5283-.0839a4.0323,4.0323,0,0,1-.8154-.1924,2.1018,2.1018,0,0,1-.6367-.3477,1.5242,1.5242,0,0,1-.4141-.5283,1.708,1.708,0,0,1-.15-.7437,1.8766,1.8766,0,0,1,.168-.81,1.616,1.616,0,0,1,.4687-.5884,2.09,2.09,0,0,1,.7139-.354,3.2564,3.2564,0,0,1,.9053-.12,2.9393,2.9393,0,0,1,1.32.2636,2.8978,2.8978,0,0,1,.9238.7325l-.707.6718a2.0072,2.0072,0,0,0-.6191-.5219,1.8979,1.8979,0,0,0-.9532-.2222,1.3,1.3,0,0,0-.8584.24.7923.7923,0,0,0-.2822.6358.6964.6964,0,0,0,.27.6118,1.9279,1.9279,0,0,0,.81.2764l.5283.0839a2.6415,2.6415,0,0,1,1.4814.6,1.5593,1.5593,0,0,1,.4512,1.1636,1.7735,1.7735,0,0,1-.6367,1.44A2.6418,2.6418,0,0,1,152.26,52.5386Z"/><path class="cls-3" d="M158.62,52.5386a2.8648,2.8648,0,0,1-1.1582-.2281,2.5034,2.5034,0,0,1-.8935-.6538,3.0067,3.0067,0,0,1-.5762-1.0263,4.5272,4.5272,0,0,1,0-2.688,3.01,3.01,0,0,1,.5762-1.0259,2.5046,2.5046,0,0,1,.8935-.6538,3.0532,3.0532,0,0,1,2.3154,0,2.5,2.5,0,0,1,.8946.6538,3.0286,3.0286,0,0,1,.5761,1.0259,4.5272,4.5272,0,0,1,0,2.688,3.0248,3.0248,0,0,1-.5761,1.0263,2.4987,2.4987,0,0,1-.8946.6538A2.86,2.86,0,0,1,158.62,52.5386Zm0-.96a1.61,1.61,0,0,0,1.1885-.456,1.8634,1.8634,0,0,0,.4551-1.3682v-.936a1.8627,1.8627,0,0,0-.4551-1.3677,1.7765,1.7765,0,0,0-2.377,0,1.8585,1.8585,0,0,0-.455,1.3677v.936a1.8591,1.8591,0,0,0,.455,1.3682A1.6079,1.6079,0,0,0,158.62,51.5786Z"/><path class="cls-3" d="M166.7793,51.3862h-.06a2.1092,2.1092,0,0,1-.2217.4336,1.5382,1.5382,0,0,1-.3476.3682,1.7,1.7,0,0,1-.4981.2554,2.1533,2.1533,0,0,1-.6728.0952,1.9149,1.9149,0,0,1-1.5117-.624,2.5747,2.5747,0,0,1-.5518-1.7642V46.1787h1.1152v3.8125q0,1.5872,1.32,1.5874a2.076,2.076,0,0,0,.5214-.0664,1.335,1.335,0,0,0,.4571-.21,1.173,1.173,0,0,0,.3242-.36.9872.9872,0,0,0,.125-.5054V46.1787h1.1162v6.2158h-1.1162Z"/><path class="cls-3" d="M169.8633,52.3945V46.1787h1.1172v1.188h.0595a1.7592,1.7592,0,0,1,.2159-.4443,1.5325,1.5325,0,0,1,.3593-.378,1.8646,1.8646,0,0,1,.5108-.2636,2.0286,2.0286,0,0,1,.666-.1021h.3721v1.1157h-.5528a2.1733,2.1733,0,0,0-1.2051.2823.85.85,0,0,0-.4257.7378v4.08Z"/><path class="cls-3" d="M176.6562,52.5386a2.9127,2.9127,0,0,1-1.1884-.2281,2.4218,2.4218,0,0,1-.876-.6479,2.8257,2.8257,0,0,1-.5459-1.0259,4.591,4.591,0,0,1-.1865-1.35,4.5319,4.5319,0,0,1,.1865-1.3442,2.8953,2.8953,0,0,1,.5459-1.0259,2.4,2.4,0,0,1,.876-.6538,2.9127,2.9127,0,0,1,1.1884-.228,2.5453,2.5453,0,0,1,1.5.4077,2.42,2.42,0,0,1,.8516,1.08l-.9238.456a1.4376,1.4376,0,0,0-.5215-.72,1.5117,1.5117,0,0,0-.9063-.2637,1.4685,1.4685,0,0,0-1.207.4917,1.93,1.93,0,0,0-.4013,1.26v1.08a1.9275,1.9275,0,0,0,.4013,1.26,1.467,1.467,0,0,0,1.207.4922,1.5989,1.5989,0,0,0,.959-.2759,1.9907,1.9907,0,0,0,.625-.78l.8155.5039a2.4546,2.4546,0,0,1-.8995,1.11A2.6416,2.6416,0,0,1,176.6562,52.5386Z"/><path class="cls-3" d="M182.668,52.5386a2.8343,2.8343,0,0,1-1.17-.2339,2.5387,2.5387,0,0,1-.8886-.6543,2.9326,2.9326,0,0,1-.5645-1.02,4.6571,4.6571,0,0,1,0-2.6817,2.9311,2.9311,0,0,1,.5645-1.0263,2.5362,2.5362,0,0,1,.8886-.6538,2.8247,2.8247,0,0,1,1.17-.2339,2.7624,2.7624,0,0,1,1.1582.2329,2.4653,2.4653,0,0,1,.8574.64,2.7481,2.7481,0,0,1,.5273.9688,3.9015,3.9015,0,0,1,.1807,1.2075V49.55h-4.38v.2524a1.82,1.82,0,0,0,.4561,1.2779,1.6671,1.6671,0,0,0,1.2959.498,1.8525,1.8525,0,0,0,1.0078-.2641,1.8925,1.8925,0,0,0,.6719-.7442l.7207.6162a2.4262,2.4262,0,0,1-.9727.9839A3.0337,3.0337,0,0,1,182.668,52.5386Zm0-5.604a1.6692,1.6692,0,0,0-.666.1313,1.5808,1.5808,0,0,0-.5284.3633,1.5989,1.5989,0,0,0-.3418.5547,1.9956,1.9956,0,0,0-.12.7031v.0835h3.1914v-.1191a1.8153,1.8153,0,0,0-.414-1.2456A1.4157,1.4157,0,0,0,182.668,46.9346Z"/><path class="cls-3" d="M188.8242,52.5386a3.0117,3.0117,0,0,1-1.459-.3242,3.293,3.293,0,0,1-1.0254-.876l.7559-.648a2.5742,2.5742,0,0,0,.7861.6841,2.0737,2.0737,0,0,0,1.0137.24,1.4508,1.4508,0,0,0,.9121-.246.8958.8958,0,0,0,.1026-1.254,1.33,1.33,0,0,0-.7872-.312l-.5273-.0839a4.0569,4.0569,0,0,1-.8164-.1924,2.095,2.095,0,0,1-.6357-.3477,1.536,1.536,0,0,1-.4141-.5283,1.694,1.694,0,0,1-.1494-.7437,1.8621,1.8621,0,0,1,.1679-.81,1.6044,1.6044,0,0,1,.4678-.5884,2.1078,2.1078,0,0,1,.7139-.354,3.2578,3.2578,0,0,1,.9062-.12,2.6933,2.6933,0,0,1,2.2442.9961l-.709.6718a1.9976,1.9976,0,0,0-.6172-.5219,1.9015,1.9015,0,0,0-.9541-.2222,1.3,1.3,0,0,0-.8584.24.7942.7942,0,0,0-.2812.6358.6982.6982,0,0,0,.2695.6118,1.9226,1.9226,0,0,0,.81.2764l.5274.0839a2.6547,2.6547,0,0,1,1.4824.6,1.5617,1.5617,0,0,1,.4492,1.1636,1.77,1.77,0,0,1-.6357,1.44A2.6411,2.6411,0,0,1,188.8242,52.5386Z"/><path class="cls-3" d="M196.1914,44.8823a.678.678,0,0,1-.51-.1679.6147.6147,0,0,1-.1621-.4439v-.168a.6144.6144,0,0,1,.1621-.4438.8575.8575,0,0,1,1.02,0,.61.61,0,0,1,.1621.4438v.168a.6105.6105,0,0,1-.1621.4439A.678.678,0,0,1,196.1914,44.8823Zm-.5644,1.2964h1.1171v6.2158H195.627Z"/><path class="cls-3" d="M198.7109,52.3945V46.1787h1.1162V47.187h.06a2.0307,2.0307,0,0,1,.6309-.8315,1.7828,1.7828,0,0,1,1.1211-.3208,1.8944,1.8944,0,0,1,1.5058.624,2.5924,2.5924,0,0,1,.5469,1.7637v3.9721h-1.1162V48.582q0-1.5872-1.3076-1.5874a1.9706,1.9706,0,0,0-.5352.0723,1.5535,1.5535,0,0,0-.4609.21,1.0331,1.0331,0,0,0-.3242.3487.9893.9893,0,0,0-.12.499v4.27Z"/><path class="cls-3" d="M212.2471,46.1787h1.08l-2.7,7.5718a3.2115,3.2115,0,0,1-.2286.4922,1.0129,1.0129,0,0,1-.2929.3237,1.1847,1.1847,0,0,1-.4141.1743,2.8214,2.8214,0,0,1-.6006.0537h-.6123v-.96h1.02l.42-1.1983-2.3037-6.4575h1.1153l1.3808,3.9639.3242,1.1616h.06l.36-1.1616Z"/><path class="cls-3" d="M216.8066,52.5386a2.8685,2.8685,0,0,1-1.1582-.2281,2.5034,2.5034,0,0,1-.8935-.6538A2.99,2.99,0,0,1,214.18,50.63a4.5061,4.5061,0,0,1,0-2.688,2.9937,2.9937,0,0,1,.5752-1.0259,2.5046,2.5046,0,0,1,.8935-.6538,3.0557,3.0557,0,0,1,2.3164,0,2.5086,2.5086,0,0,1,.8946.6538,3.0286,3.0286,0,0,1,.5761,1.0259,4.5463,4.5463,0,0,1,0,2.688,3.0248,3.0248,0,0,1-.5761,1.0263,2.5074,2.5074,0,0,1-.8946.6538A2.8644,2.8644,0,0,1,216.8066,52.5386Zm0-.96a1.6064,1.6064,0,0,0,1.1885-.456,1.8594,1.8594,0,0,0,.4561-1.3682v-.936a1.8588,1.8588,0,0,0-.4561-1.3677,1.7752,1.7752,0,0,0-2.376,0,1.855,1.855,0,0,0-.456,1.3677v.936a1.8557,1.8557,0,0,0,.456,1.3682A1.6043,1.6043,0,0,0,216.8066,51.5786Z"/><path class="cls-3" d="M224.9668,51.3862h-.06a2.1092,2.1092,0,0,1-.2217.4336,1.5382,1.5382,0,0,1-.3476.3682,1.7,1.7,0,0,1-.4981.2554,2.1533,2.1533,0,0,1-.6728.0952,1.9149,1.9149,0,0,1-1.5117-.624,2.5747,2.5747,0,0,1-.5518-1.7642V46.1787h1.1152v3.8125q0,1.5872,1.32,1.5874a2.076,2.076,0,0,0,.5214-.0664,1.335,1.335,0,0,0,.4571-.21,1.173,1.173,0,0,0,.3242-.36.9872.9872,0,0,0,.125-.5054V46.1787h1.1162v6.2158h-1.1162Z"/><path class="cls-3" d="M228.0508,52.3945V46.1787h1.1162v1.188h.06a1.76,1.76,0,0,1,.2168-.4443,1.5144,1.5144,0,0,1,.3593-.378,1.8727,1.8727,0,0,1,.51-.2636,2.029,2.029,0,0,1,.666-.1021h.3731v1.1157h-.5528a2.1786,2.1786,0,0,0-1.206.2823.8515.8515,0,0,0-.4258.7378v4.08Z"/><path class="cls-3" d="M50.7051,66.7944a.9856.9856,0,0,1-.7735-.2881,1.3483,1.3483,0,0,1-.3183-.7441h-.0606a1.5972,1.5972,0,0,1-.66.8765,2.0674,2.0674,0,0,1-1.1387.3,2.1486,2.1486,0,0,1-1.5127-.4981,1.76,1.76,0,0,1-.54-1.3618,1.59,1.59,0,0,1,.6543-1.374,3.4134,3.4134,0,0,1,1.998-.4741h1.1758v-.564a1.3008,1.3008,0,0,0-.3359-.96,1.4249,1.4249,0,0,0-1.044-.3359,1.6113,1.6113,0,0,0-.918.2456,2.0335,2.0335,0,0,0-.6064.6421l-.6719-.6118a2.363,2.363,0,0,1,.834-.8579,2.6117,2.6117,0,0,1,1.4219-.354,2.65,2.65,0,0,1,1.8008.5566,1.9824,1.9824,0,0,1,.6357,1.5747v3.2686h.6963v.96Zm-2.6992-.7558a1.8724,1.8724,0,0,0,1.0918-.3.9038.9038,0,0,0,.4316-.7681v-.96H48.3418a2.1346,2.1346,0,0,0-1.1231.228.7393.7393,0,0,0-.3535.66v.24a.7858.7858,0,0,0,.3067.6655A1.3371,1.3371,0,0,0,48.0059,66.0386Z"/><path class="cls-3" d="M55.0254,66.9385a2.9136,2.9136,0,0,1-1.1885-.2281,2.4235,2.4235,0,0,1-.876-.6479,2.8272,2.8272,0,0,1-.5459-1.0259,4.591,4.591,0,0,1-.1865-1.35,4.5319,4.5319,0,0,1,.1865-1.3442,2.8969,2.8969,0,0,1,.5459-1.0259,2.4012,2.4012,0,0,1,.876-.6538,2.9136,2.9136,0,0,1,1.1885-.228,2.5458,2.5458,0,0,1,1.5.4077,2.42,2.42,0,0,1,.8516,1.08l-.9239.456a1.4376,1.4376,0,0,0-.5215-.72,1.5114,1.5114,0,0,0-.9062-.2637,1.4684,1.4684,0,0,0-1.207.4917,1.93,1.93,0,0,0-.4014,1.26v1.08a1.9276,1.9276,0,0,0,.4014,1.26,1.4669,1.4669,0,0,0,1.207.4922,1.5991,1.5991,0,0,0,.959-.2759,1.9924,1.9924,0,0,0,.625-.78l.8154.5039a2.455,2.455,0,0,1-.8994,1.11A2.6421,2.6421,0,0,1,55.0254,66.9385Z"/><path class="cls-3" d="M61.0127,66.9385a2.9169,2.9169,0,0,1-1.1885-.2281,2.4285,2.4285,0,0,1-.875-.6479,2.8425,2.8425,0,0,1-.5469-1.0259,4.6254,4.6254,0,0,1-.1855-1.35,4.5658,4.5658,0,0,1,.1855-1.3442,2.913,2.913,0,0,1,.5469-1.0259,2.4061,2.4061,0,0,1,.875-.6538,2.9169,2.9169,0,0,1,1.1885-.228,2.5415,2.5415,0,0,1,1.5.4077,2.428,2.428,0,0,1,.8525,1.08l-.9238.456a1.4452,1.4452,0,0,0-.5225-.72,1.51,1.51,0,0,0-.9062-.2637,1.4666,1.4666,0,0,0-1.2061.4917,1.9314,1.9314,0,0,0-.4023,1.26v1.08a1.9286,1.9286,0,0,0,.4023,1.26,1.4651,1.4651,0,0,0,1.2061.4922,1.6022,1.6022,0,0,0,.96-.2759,1.99,1.99,0,0,0,.624-.78l.8154.5039a2.4486,2.4486,0,0,1-.8994,1.11A2.6376,2.6376,0,0,1,61.0127,66.9385Z"/><path class="cls-3" d="M67.0371,66.9385a2.8651,2.8651,0,0,1-1.1582-.2281,2.5062,2.5062,0,0,1-.8945-.6538,3.0049,3.0049,0,0,1-.5752-1.0263,4.5272,4.5272,0,0,1,0-2.688,3.0086,3.0086,0,0,1,.5752-1.0259,2.5074,2.5074,0,0,1,.8945-.6538,3.0557,3.0557,0,0,1,2.3164,0,2.505,2.505,0,0,1,.8936.6538,3.0119,3.0119,0,0,1,.5761,1.0259,4.5272,4.5272,0,0,1,0,2.688,3.0082,3.0082,0,0,1-.5761,1.0263,2.5038,2.5038,0,0,1-.8936.6538A2.8648,2.8648,0,0,1,67.0371,66.9385Zm0-.96a1.604,1.604,0,0,0,1.1875-.456,1.8555,1.8555,0,0,0,.457-1.3682v-.936a1.855,1.855,0,0,0-.457-1.3677,1.7739,1.7739,0,0,0-2.375,0,1.855,1.855,0,0,0-.457,1.3677v.936a1.8555,1.8555,0,0,0,.457,1.3682A1.6025,1.6025,0,0,0,67.0371,65.9785Z"/><path class="cls-3" d="M75.1973,65.7861h-.0606a2.1642,2.1642,0,0,1-.2226.4336,1.502,1.502,0,0,1-.3477.3682,1.6757,1.6757,0,0,1-.498.2554,2.1434,2.1434,0,0,1-.6719.0952,1.9124,1.9124,0,0,1-1.5117-.624A2.575,2.575,0,0,1,71.332,64.55V60.5786h1.1172v3.8125q0,1.5872,1.3194,1.5874a2.0844,2.0844,0,0,0,.5224-.0664,1.307,1.307,0,0,0,.4551-.21,1.1594,1.1594,0,0,0,.3242-.36.988.988,0,0,0,.127-.5054V60.5786h1.1152v6.2158H75.1973Z"/><path class="cls-3" d="M78.2812,66.7944V60.5786h1.1153v1.0083h.06a2.0294,2.0294,0,0,1,.63-.8315,1.7859,1.7859,0,0,1,1.1221-.3208,1.897,1.897,0,0,1,1.5058.624,2.5972,2.5972,0,0,1,.5459,1.7637v3.9721H82.1445V62.9819q0-1.5872-1.3076-1.5874a1.9634,1.9634,0,0,0-.5342.0723,1.5617,1.5617,0,0,0-.4619.21,1.0311,1.0311,0,0,0-.3232.3487.99.99,0,0,0-.1211.499v4.2695Z"/><path class="cls-3" d="M86.6807,66.7944a1.15,1.15,0,0,1-.876-.3173,1.198,1.198,0,0,1-.3-.856V61.5386h-.9961v-.96h.5517a.5666.5666,0,0,0,.4317-.1323.654.654,0,0,0,.1211-.4439v-1.14h1.0078v1.7163h1.332v.96h-1.332v4.2959h1.2363v.96Z"/><path class="cls-3" d="M94.625,66.9385a2.9136,2.9136,0,0,1-1.1885-.2281,2.4235,2.4235,0,0,1-.876-.6479,2.8272,2.8272,0,0,1-.5459-1.0259,4.591,4.591,0,0,1-.1865-1.35,4.5319,4.5319,0,0,1,.1865-1.3442,2.8969,2.8969,0,0,1,.5459-1.0259,2.4012,2.4012,0,0,1,.876-.6538,2.9136,2.9136,0,0,1,1.1885-.228,2.5458,2.5458,0,0,1,1.5.4077,2.42,2.42,0,0,1,.8516,1.08l-.9239.456a1.4376,1.4376,0,0,0-.5215-.72,1.5114,1.5114,0,0,0-.9062-.2637,1.4684,1.4684,0,0,0-1.207.4917,1.93,1.93,0,0,0-.4014,1.26v1.08a1.9276,1.9276,0,0,0,.4014,1.26,1.4669,1.4669,0,0,0,1.207.4922,1.5991,1.5991,0,0,0,.959-.2759,1.9924,1.9924,0,0,0,.625-.78l.8154.5039a2.455,2.455,0,0,1-.8994,1.11A2.6421,2.6421,0,0,1,94.625,66.9385Z"/><path class="cls-3" d="M102.8564,66.7944a.9878.9878,0,0,1-.7744-.2881,1.3482,1.3482,0,0,1-.3174-.7441h-.0595a1.6113,1.6113,0,0,1-.66.8765,2.0742,2.0742,0,0,1-1.1406.3,2.1458,2.1458,0,0,1-1.5117-.4981,1.7635,1.7635,0,0,1-.54-1.3618,1.5906,1.5906,0,0,1,.6543-1.374,3.4125,3.4125,0,0,1,1.9971-.4741h1.1768v-.564a1.3,1.3,0,0,0-.336-.96,1.4229,1.4229,0,0,0-1.0439-.3359,1.6135,1.6135,0,0,0-.918.2456,2.02,2.02,0,0,0-.6055.6421l-.6728-.6118a2.3711,2.3711,0,0,1,.834-.8579,2.615,2.615,0,0,1,1.4228-.354,2.6447,2.6447,0,0,1,1.7989.5566,1.983,1.983,0,0,1,.6367,1.5747v3.2686h.6953v.96Zm-2.7-.7558a1.8657,1.8657,0,0,0,1.0918-.3.9.9,0,0,0,.4327-.7681v-.96h-1.1885a2.1262,2.1262,0,0,0-1.1211.228.7381.7381,0,0,0-.3545.66v.24a.79.79,0,0,0,.3057.6655A1.3428,1.3428,0,0,0,100.1562,66.0386Z"/><path class="cls-3" d="M104.8242,66.7944V60.5786H105.94v1.0083H106a2.0307,2.0307,0,0,1,.6309-.8315,1.7826,1.7826,0,0,1,1.1211-.3208,1.8944,1.8944,0,0,1,1.5058.624,2.5924,2.5924,0,0,1,.5469,1.7637v3.9721h-1.1162V62.9819q0-1.5872-1.3076-1.5874a1.9706,1.9706,0,0,0-.5352.0723,1.5535,1.5535,0,0,0-.4609.21,1.0334,1.0334,0,0,0-.3243.3487.99.99,0,0,0-.12.499v4.2695Z"/><path class="cls-3" d="M114.5322,57.9146h1.1162v3.6723h.0479a1.6815,1.6815,0,0,1,.6787-.8613,2.0364,2.0364,0,0,1,1.1094-.291,2.3952,2.3952,0,0,1,1.05.2216,2.1564,2.1564,0,0,1,.7861.648,3.0353,3.0353,0,0,1,.4922,1.0264,5.556,5.556,0,0,1,0,2.7119,3.0281,3.0281,0,0,1-.4922,1.0259,2.1462,2.1462,0,0,1-.7861.6479,2.3939,2.3939,0,0,1-1.05.2222,2.0373,2.0373,0,0,1-1.1094-.291,1.68,1.68,0,0,1-.6787-.8614h-.0479v1.0083h-1.1162Zm2.628,8.0639a1.5323,1.5323,0,0,0,1.1943-.4824,1.83,1.83,0,0,0,.4385-1.2788V63.1558a1.83,1.83,0,0,0-.4385-1.2788,1.5323,1.5323,0,0,0-1.1943-.4825,2.0028,2.0028,0,0,0-.5879.0845,1.5115,1.5115,0,0,0-.48.2412,1.2437,1.2437,0,0,0-.3232.3618.89.89,0,0,0-.12.4585v2.292a.89.89,0,0,0,.12.4585,1.2437,1.2437,0,0,0,.3232.3618,1.5094,1.5094,0,0,0,.48.2412A1.9994,1.9994,0,0,0,117.16,65.9785Z"/><path class="cls-3" d="M123.9277,66.9385a2.8325,2.8325,0,0,1-1.17-.2339,2.5491,2.5491,0,0,1-.8887-.6543,2.9323,2.9323,0,0,1-.5634-1.02,4.6324,4.6324,0,0,1,0-2.6817,2.9309,2.9309,0,0,1,.5634-1.0263,2.5466,2.5466,0,0,1,.8887-.6538,2.8246,2.8246,0,0,1,1.17-.2339,2.7588,2.7588,0,0,1,1.1582.2329,2.4565,2.4565,0,0,1,.8575.64,2.7659,2.7659,0,0,1,.5283.9688,3.9314,3.9314,0,0,1,.1806,1.2075V63.95h-4.3808v.2524a1.816,1.816,0,0,0,.457,1.2779,1.665,1.665,0,0,0,1.2949.498,1.85,1.85,0,0,0,1.0078-.2641,1.894,1.894,0,0,0,.6729-.7442l.72.6162a2.4136,2.4136,0,0,1-.9726.9839A3.0344,3.0344,0,0,1,123.9277,66.9385Zm0-5.604a1.6731,1.6731,0,0,0-.666.1313,1.5667,1.5667,0,0,0-.8691.918,1.9934,1.9934,0,0,0-.1211.7031V63.17h3.1924v-.1191a1.8149,1.8149,0,0,0-.4141-1.2456A1.4176,1.4176,0,0,0,123.9277,61.3345Z"/><path class="cls-3" d="M131.0078,60.5786h1.1162v1.0083h.0479a1.69,1.69,0,0,1,.6777-.8613,2.0423,2.0423,0,0,1,1.11-.291,2.3983,2.3983,0,0,1,1.05.2216,2.1482,2.1482,0,0,1,.7861.648,3.0353,3.0353,0,0,1,.4922,1.0264,5.556,5.556,0,0,1,0,2.7119,3.0281,3.0281,0,0,1-.4922,1.0259,2.1381,2.1381,0,0,1-.7861.6479,2.397,2.397,0,0,1-1.05.2222,2.0431,2.0431,0,0,1-1.11-.291,1.6886,1.6886,0,0,1-.6777-.8614h-.0479v3.4082h-1.1162Zm2.6279,5.4a1.5325,1.5325,0,0,0,1.1944-.4824,1.83,1.83,0,0,0,.4375-1.2788V63.1558a1.8294,1.8294,0,0,0-.4375-1.2788,1.5325,1.5325,0,0,0-1.1944-.4825,2.007,2.007,0,0,0-.5878.0845,1.4855,1.4855,0,0,0-.48.2412,1.2464,1.2464,0,0,0-.3243.3618.8914.8914,0,0,0-.12.4585v2.292a.8909.8909,0,0,0,.12.4585,1.2464,1.2464,0,0,0,.3243.3618,1.4835,1.4835,0,0,0,.48.2412A2.0036,2.0036,0,0,0,133.6357,65.9785Z"/><path class="cls-3" d="M138.0273,66.7944V60.5786h1.1172v1.188h.06a1.7588,1.7588,0,0,1,.2158-.4443,1.5311,1.5311,0,0,1,.3594-.378,1.8625,1.8625,0,0,1,.5107-.2636,2.0292,2.0292,0,0,1,.6661-.1021h.372v1.1157h-.5527a2.173,2.173,0,0,0-1.2051.2823.85.85,0,0,0-.4258.7378v4.08Z"/><path class="cls-3" d="M144.8555,66.9385a2.8678,2.8678,0,0,1-1.1582-.2281,2.5038,2.5038,0,0,1-.8936-.6538,2.9917,2.9917,0,0,1-.5752-1.0263,4.5061,4.5061,0,0,1,0-2.688,2.9954,2.9954,0,0,1,.5752-1.0259,2.505,2.505,0,0,1,.8936-.6538,3.0557,3.0557,0,0,1,2.3164,0,2.5082,2.5082,0,0,1,.8945.6538,3.0288,3.0288,0,0,1,.5762,1.0259,4.5485,4.5485,0,0,1,0,2.688,3.025,3.025,0,0,1-.5762,1.0263,2.507,2.507,0,0,1-.8945.6538A2.8651,2.8651,0,0,1,144.8555,66.9385Zm0-.96a1.6063,1.6063,0,0,0,1.1884-.456,1.859,1.859,0,0,0,.4561-1.3682v-.936a1.8585,1.8585,0,0,0-.4561-1.3677,1.7751,1.7751,0,0,0-2.3759,0,1.8548,1.8548,0,0,0-.4561,1.3677v.936a1.8553,1.8553,0,0,0,.4561,1.3682A1.604,1.604,0,0,0,144.8555,65.9785Z"/><path class="cls-3" d="M150.4717,66.7944l-2.1475-6.2158H149.44l1.02,2.9756.6474,2.1484h.0723l.66-2.1484,1.0323-2.9756H153.94l-2.16,6.2158Z"/><path class="cls-3" d="M155.68,59.2822a.6779.6779,0,0,1-.51-.1679.6147.6147,0,0,1-.1621-.4439v-.168a.6144.6144,0,0,1,.1621-.4438.8575.8575,0,0,1,1.02,0,.61.61,0,0,1,.1621.4438v.168a.6105.6105,0,0,1-.1621.4439A.678.678,0,0,1,155.68,59.2822Zm-.5645,1.2964h1.1172v6.2158h-1.1172Z"/><path class="cls-3" d="M160.1074,66.9385a3.0008,3.0008,0,0,1-1.457-.3242,3.2954,3.2954,0,0,1-1.0264-.876l.7559-.648a2.5513,2.5513,0,0,0,.7861.6841,2.0709,2.0709,0,0,0,1.0137.24,1.4488,1.4488,0,0,0,.9121-.246.8919.8919,0,0,0,.1016-1.254,1.3234,1.3234,0,0,0-.7852-.312l-.5283-.0839a4.0307,4.0307,0,0,1-.8154-.1924,2.1024,2.1024,0,0,1-.6368-.3477,1.5251,1.5251,0,0,1-.414-.5283,1.708,1.708,0,0,1-.15-.7437,1.8766,1.8766,0,0,1,.1679-.81,1.6173,1.6173,0,0,1,.4688-.5884,2.09,2.09,0,0,1,.7139-.354,3.2551,3.2551,0,0,1,.9052-.12,2.94,2.94,0,0,1,1.32.2636,2.8989,2.8989,0,0,1,.9238.7325l-.7071.6718a2.0049,2.0049,0,0,0-.6191-.5219,1.8975,1.8975,0,0,0-.9531-.2222,1.3,1.3,0,0,0-.8584.24.792.792,0,0,0-.2822.6358.6963.6963,0,0,0,.27.6118,1.9274,1.9274,0,0,0,.81.2764l.5284.0839a2.6418,2.6418,0,0,1,1.4814.6,1.5593,1.5593,0,0,1,.4512,1.1636,1.7735,1.7735,0,0,1-.6367,1.44A2.6423,2.6423,0,0,1,160.1074,66.9385Z"/><path class="cls-3" d="M164.6436,59.2822a.6808.6808,0,0,1-.51-.1679.6105.6105,0,0,1-.1621-.4439v-.168a.61.61,0,0,1,.1621-.4438.8589.8589,0,0,1,1.02,0,.6144.6144,0,0,1,.1621.4438v.168a.6147.6147,0,0,1-.1621.4439A.6832.6832,0,0,1,164.6436,59.2822Zm-.5635,1.2964h1.1152v6.2158H164.08Z"/><path class="cls-3" d="M169.5518,66.9385a2.8648,2.8648,0,0,1-1.1582-.2281,2.5029,2.5029,0,0,1-.8936-.6538,3.01,3.01,0,0,1-.5762-1.0263,4.5272,4.5272,0,0,1,0-2.688,3.0138,3.0138,0,0,1,.5762-1.0259,2.5041,2.5041,0,0,1,.8936-.6538,3.0532,3.0532,0,0,1,2.3154,0,2.5,2.5,0,0,1,.8945.6538,3.0271,3.0271,0,0,1,.5762,1.0259,4.5272,4.5272,0,0,1,0,2.688,3.0233,3.0233,0,0,1-.5762,1.0263,2.4983,2.4983,0,0,1-.8945.6538A2.86,2.86,0,0,1,169.5518,66.9385Zm0-.96a1.6093,1.6093,0,0,0,1.1884-.456,1.8629,1.8629,0,0,0,.4551-1.3682v-.936a1.8625,1.8625,0,0,0-.4551-1.3677,1.7764,1.7764,0,0,0-2.3769,0,1.8587,1.8587,0,0,0-.4551,1.3677v.936a1.8592,1.8592,0,0,0,.4551,1.3682A1.6079,1.6079,0,0,0,169.5518,65.9785Z"/><path class="cls-3" d="M173.9072,66.7944V60.5786h1.1162v1.0083h.0606a2.0264,2.0264,0,0,1,.6289-.8315,1.7889,1.7889,0,0,1,1.123-.3208,1.9,1.9,0,0,1,1.5059.624,2.597,2.597,0,0,1,.5449,1.7637v3.9721h-1.1152V62.9819q0-1.5872-1.3086-1.5874a1.9615,1.9615,0,0,0-.5332.0723,1.577,1.577,0,0,0-.4629.21,1.0311,1.0311,0,0,0-.3232.3487.9893.9893,0,0,0-.12.499v4.2695Z"/><path class="cls-3" d="M183.1592,66.9385a2.8352,2.8352,0,0,1-1.17-.2339,2.5344,2.5344,0,0,1-.8877-.6543,2.9326,2.9326,0,0,1-.5645-1.02,4.6548,4.6548,0,0,1,0-2.6817,2.9311,2.9311,0,0,1,.5645-1.0263,2.5319,2.5319,0,0,1,.8877-.6538,2.8272,2.8272,0,0,1,1.17-.2339,2.7591,2.7591,0,0,1,1.1582.2329,2.4691,2.4691,0,0,1,.8584.64,2.7641,2.7641,0,0,1,.5273.9688,3.9314,3.9314,0,0,1,.18,1.2075V63.95h-4.3789v.2524a1.8193,1.8193,0,0,0,.4551,1.2779,1.6708,1.6708,0,0,0,1.2969.498,1.8573,1.8573,0,0,0,1.0078-.2641,1.899,1.899,0,0,0,.6718-.7442l.72.6162a2.4175,2.4175,0,0,1-.9717.9839A3.0376,3.0376,0,0,1,183.1592,66.9385Zm0-5.604a1.6762,1.6762,0,0,0-.666.1313,1.5909,1.5909,0,0,0-.5284.3633,1.6139,1.6139,0,0,0-.3418.5547,1.9955,1.9955,0,0,0-.1191.7031V63.17h3.1914v-.1191a1.82,1.82,0,0,0-.4141-1.2456A1.4173,1.4173,0,0,0,183.1592,61.3345Z"/><path class="cls-3" d="M191.3437,65.7861h-.0488a1.6784,1.6784,0,0,1-.6777.8614,2.042,2.042,0,0,1-1.1094.291,2.3984,2.3984,0,0,1-1.0508-.2222,2.135,2.135,0,0,1-.7851-.6479,2.9914,2.9914,0,0,1-.4922-1.0259,5.556,5.556,0,0,1,0-2.7119,2.9984,2.9984,0,0,1,.4922-1.0264,2.1451,2.1451,0,0,1,.7851-.648,2.4,2.4,0,0,1,1.0508-.2216,2.0412,2.0412,0,0,1,1.1094.291,1.68,1.68,0,0,1,.6777.8613h.0488V57.9146h1.1153v8.88h-1.1153Zm-1.5117.1924a2.0087,2.0087,0,0,0,.5879-.0845,1.4937,1.4937,0,0,0,.48-.2412,1.2571,1.2571,0,0,0,.3233-.3618.8915.8915,0,0,0,.121-.4585v-2.292a.892.892,0,0,0-.121-.4585,1.2571,1.2571,0,0,0-.3233-.3618,1.4957,1.4957,0,0,0-.48-.2412,2.0121,2.0121,0,0,0-.5879-.0845,1.5345,1.5345,0,0,0-1.1953.4825,1.834,1.834,0,0,0-.4375,1.2788v1.0615a1.8344,1.8344,0,0,0,.4375,1.2788A1.5344,1.5344,0,0,0,189.832,65.9785Z"/><path class="cls-3" d="M199.6465,66.9385a2.8682,2.8682,0,0,1-1.1582-.2281,2.5038,2.5038,0,0,1-.8936-.6538A2.9917,2.9917,0,0,1,197.02,65.03a4.5082,4.5082,0,0,1,0-2.688,2.9954,2.9954,0,0,1,.5752-1.0259,2.505,2.505,0,0,1,.8936-.6538,3.0557,3.0557,0,0,1,2.3164,0,2.5082,2.5082,0,0,1,.8945.6538,3.0271,3.0271,0,0,1,.5762,1.0259,4.5485,4.5485,0,0,1,0,2.688,3.0233,3.0233,0,0,1-.5762,1.0263,2.507,2.507,0,0,1-.8945.6538A2.8651,2.8651,0,0,1,199.6465,66.9385Zm0-.96a1.6065,1.6065,0,0,0,1.1885-.456,1.8594,1.8594,0,0,0,.456-1.3682v-.936a1.8589,1.8589,0,0,0-.456-1.3677,1.7752,1.7752,0,0,0-2.376,0,1.8548,1.8548,0,0,0-.4561,1.3677v.936a1.8553,1.8553,0,0,0,.4561,1.3682A1.604,1.604,0,0,0,199.6465,65.9785Z"/><path class="cls-3" d="M204.0029,66.7944V60.5786h1.1162v1.188h.0606a1.7217,1.7217,0,0,1,.2148-.4443,1.554,1.554,0,0,1,.36-.378,1.8356,1.8356,0,0,1,.5107-.2636,2.0247,2.0247,0,0,1,.666-.1021h.3711v1.1157h-.5517a2.1767,2.1767,0,0,0-1.2061.2823.8517.8517,0,0,0-.4258.7378v4.08Z"/><path class="cls-3" d="M48.5332,81.3389a2.912,2.912,0,0,1-1.1875-.2281,2.4271,2.4271,0,0,1-.877-.6479,2.8256,2.8256,0,0,1-.5449-1.0259,4.5581,4.5581,0,0,1-.1865-1.35,4.5,4.5,0,0,1,.1865-1.3442,2.8952,2.8952,0,0,1,.5449-1.0259,2.4036,2.4036,0,0,1,.877-.6538,2.912,2.912,0,0,1,1.1875-.228,2.5415,2.5415,0,0,1,1.5.4077,2.4126,2.4126,0,0,1,.8516,1.08l-.9239.456a1.4322,1.4322,0,0,0-.5214-.72,1.5119,1.5119,0,0,0-.9063-.2637,1.4679,1.4679,0,0,0-1.2061.4917,1.9252,1.9252,0,0,0-.4013,1.26v1.08a1.9226,1.9226,0,0,0,.4013,1.26,1.4667,1.4667,0,0,0,1.2061.4922,1.6,1.6,0,0,0,.96-.2759,1.9912,1.9912,0,0,0,.624-.78l.8164.5039a2.4511,2.4511,0,0,1-.9,1.11A2.6421,2.6421,0,0,1,48.5332,81.3389Z"/><path class="cls-3" d="M54.5566,81.3389a2.8685,2.8685,0,0,1-1.1582-.2281,2.5034,2.5034,0,0,1-.8935-.6538,2.99,2.99,0,0,1-.5752-1.0263,4.5061,4.5061,0,0,1,0-2.688,2.9937,2.9937,0,0,1,.5752-1.0259,2.5034,2.5034,0,0,1,.8935-.6538,3.0557,3.0557,0,0,1,2.3164,0,2.5074,2.5074,0,0,1,.8946.6538,3.0286,3.0286,0,0,1,.5761,1.0259,4.5463,4.5463,0,0,1,0,2.688,3.0248,3.0248,0,0,1-.5761,1.0263,2.5074,2.5074,0,0,1-.8946.6538A2.8644,2.8644,0,0,1,54.5566,81.3389Zm0-.96a1.6064,1.6064,0,0,0,1.1885-.456,1.8594,1.8594,0,0,0,.4561-1.3682v-.936a1.8588,1.8588,0,0,0-.4561-1.3677,1.7752,1.7752,0,0,0-2.376,0,1.855,1.855,0,0,0-.456,1.3677v.936a1.8557,1.8557,0,0,0,.456,1.3682A1.6043,1.6043,0,0,0,54.5566,80.3789Z"/><path class="cls-3" d="M58.9131,81.1948V74.979h1.1162v1.0083h.06a2.0281,2.0281,0,0,1,.6289-.8315,1.789,1.789,0,0,1,1.1231-.3208,1.9,1.9,0,0,1,1.5059.624,2.5975,2.5975,0,0,1,.5449,1.7637v3.9721H62.7773V77.3823q0-1.5871-1.3086-1.5874a1.9581,1.9581,0,0,0-.5332.0723,1.5776,1.5776,0,0,0-.4628.21,1.03,1.03,0,0,0-.3233.3487.9892.9892,0,0,0-.12.499v4.27Z"/><path class="cls-3" d="M66.125,75.939h-.9961v-.96h.9961V73.8267a1.6115,1.6115,0,0,1,.36-1.0977,1.3679,1.3679,0,0,1,1.0917-.4141h.9717v.96H67.2412V74.979h3.5635v6.2158H69.69V75.939H67.2412v5.2558H66.125Zm4.1289-2.2564a.6813.6813,0,0,1-.5107-.168.61.61,0,0,1-.1621-.4438v-.168a.61.61,0,0,1,.1621-.4438.8589.8589,0,0,1,1.02,0,.6144.6144,0,0,1,.1621.4438v.168a.6143.6143,0,0,1-.1621.4438A.68.68,0,0,1,70.2539,73.6826Z"/><path class="cls-3" d="M78.1133,81.8242a1.5864,1.5864,0,0,1-.75,1.4453,4.5188,4.5188,0,0,1-2.334.4693,4.2573,4.2573,0,0,1-2.1309-.3965,1.2455,1.2455,0,0,1-.6416-1.1172,1.1145,1.1145,0,0,1,.27-.7925,1.4918,1.4918,0,0,1,.75-.4087v-.1323a.9026.9026,0,0,1-.6123-.916.8792.8792,0,0,1,.3116-.7227,1.9033,1.9033,0,0,1,.7685-.3618v-.0483a1.9748,1.9748,0,0,1-.8525-.7476,2.11,2.11,0,0,1-.2989-1.1308,2.1545,2.1545,0,0,1,.168-.8614,1.9322,1.9322,0,0,1,.4727-.6758,2.16,2.16,0,0,1,.75-.437,3.0522,3.0522,0,0,1,1.0088-.1552,3.0038,3.0038,0,0,1,.6123.06,3.5626,3.5626,0,0,1,.539.1558v-.1319a.9873.9873,0,0,1,.1807-.6181.68.68,0,0,1,.5752-.2339H77.85v.936H76.625v.335a1.9026,1.9026,0,0,1,.78,1.6269,2.1725,2.1725,0,0,1-.168.8619,1.8444,1.8444,0,0,1-.4805.67,2.2489,2.2489,0,0,1-.7558.4306,3.0294,3.0294,0,0,1-1.0078.1558c-.12,0-.24-.0063-.36-.0181a2.73,2.73,0,0,1-.3359-.0542,1.6743,1.6743,0,0,0-.4922.24.4929.4929,0,0,0-.2158.42.3646.3646,0,0,0,.2461.3721,1.88,1.88,0,0,0,.666.0957h1.416a2.5324,2.5324,0,0,1,1.6738.4516A1.5451,1.5451,0,0,1,78.1133,81.8242Zm-1.0449.1148a.6711.6711,0,0,0-.27-.5581,1.6032,1.6032,0,0,0-.9531-.21H73.7568a.8649.8649,0,0,0-.1982,1.4458,1.5726,1.5726,0,0,0,1.0391.27h.84a2.5308,2.5308,0,0,0,1.2109-.2339A.7636.7636,0,0,0,77.0684,81.939Zm-2.0635-3.6963a1.4684,1.4684,0,0,0,.9424-.2744,1.0213,1.0213,0,0,0,.3418-.8482v-.31a1.0211,1.0211,0,0,0-.3418-.8482,1.7555,1.7555,0,0,0-1.8848,0,1.024,1.024,0,0,0-.3418.8482v.31a1.0242,1.0242,0,0,0,.3418.8482A1.4682,1.4682,0,0,0,75.0049,78.2427Z"/><path class="cls-3" d="M82.9248,80.1865h-.06a2.1669,2.1669,0,0,1-.2226.4336,1.521,1.521,0,0,1-.3477.3682,1.6992,1.6992,0,0,1-.498.2554,2.1474,2.1474,0,0,1-.6719.0952,1.9121,1.9121,0,0,1-1.5117-.6241,2.57,2.57,0,0,1-.5528-1.7641V74.979h1.1163v3.8125q0,1.5871,1.3193,1.5874a2.0846,2.0846,0,0,0,.5225-.0664,1.3218,1.3218,0,0,0,.456-.21,1.1605,1.1605,0,0,0,.3242-.36.9876.9876,0,0,0,.126-.5054V74.979H84.041v6.2158H82.9248Z"/><path class="cls-3" d="M86.0088,81.1948V74.979H87.125v1.188h.0605a1.7221,1.7221,0,0,1,.2149-.4443,1.5555,1.5555,0,0,1,.36-.378,1.8363,1.8363,0,0,1,.5108-.2636,2.0247,2.0247,0,0,1,.666-.1021h.3711v1.1157h-.5518a2.1763,2.1763,0,0,0-1.206.2823.8515.8515,0,0,0-.4258.7377v4.08Z"/><path class="cls-3" d="M92.8242,81.3389a2.8371,2.8371,0,0,1-1.17-.2339,2.5435,2.5435,0,0,1-.8877-.6543,2.9325,2.9325,0,0,1-.5635-1.02,4.6346,4.6346,0,0,1,0-2.6817,2.931,2.931,0,0,1,.5635-1.0263,2.5425,2.5425,0,0,1,.8877-.6539,2.8291,2.8291,0,0,1,1.17-.2338,2.7559,2.7559,0,0,1,1.1582.2329,2.459,2.459,0,0,1,.8584.64,2.78,2.78,0,0,1,.5283.9688,3.9588,3.9588,0,0,1,.18,1.2075v.4663h-4.38v.2524a1.8156,1.8156,0,0,0,.4561,1.2779,1.6686,1.6686,0,0,0,1.2959.498,1.8541,1.8541,0,0,0,1.0078-.2642,1.9012,1.9012,0,0,0,.6729-.7441l.7187.6162a2.4052,2.4052,0,0,1-.9717.9839A3.0376,3.0376,0,0,1,92.8242,81.3389Zm0-5.604a1.68,1.68,0,0,0-.666.1313,1.5667,1.5667,0,0,0-.8691.918,1.9933,1.9933,0,0,0-.12.7031v.0835h3.1924v-.1191a1.82,1.82,0,0,0-.414-1.2456A1.42,1.42,0,0,0,92.8242,75.7349Z"/><path class="cls-3" d="M101.0088,80.1865h-.0479a1.6886,1.6886,0,0,1-.6777.8614,2.043,2.043,0,0,1-1.11.291,2.3958,2.3958,0,0,1-1.05-.2222,2.1389,2.1389,0,0,1-.7861-.6479,3.0281,3.0281,0,0,1-.4922-1.0259,5.5592,5.5592,0,0,1,0-2.7119,3.0353,3.0353,0,0,1,.4922-1.0264,2.149,2.149,0,0,1,.7861-.648,2.3956,2.3956,0,0,1,1.05-.2216,2.0422,2.0422,0,0,1,1.11.291,1.69,1.69,0,0,1,.6777.8613h.0479V72.3149h1.1162v8.88h-1.1162Zm-1.5117.1924a2.0048,2.0048,0,0,0,.5879-.0845,1.4855,1.4855,0,0,0,.48-.2412,1.2475,1.2475,0,0,0,.3242-.3618.8909.8909,0,0,0,.12-.4585v-2.292a.8911.8911,0,0,0-.12-.4585,1.2475,1.2475,0,0,0-.3242-.3618,1.4855,1.4855,0,0,0-.48-.2412,2.0048,2.0048,0,0,0-.5879-.0845,1.5314,1.5314,0,0,0-1.1944.4824,1.83,1.83,0,0,0-.4375,1.2789v1.0615a1.83,1.83,0,0,0,.4375,1.2788A1.531,1.531,0,0,0,99.4971,80.3789Z"/><path class="cls-3" d="M104.7764,81.3389a.6919.6919,0,0,1-.792-.7442v-.18a.7924.7924,0,1,1,1.584,0v.18a.692.692,0,0,1-.792.7442Z"/><rect class="cls-4" x="1" y="1" width="248" height="98"/></svg>