<?xml version="1.0" encoding="utf-8"?>
<!-- Generator: Adobe Illustrator 26.0.1, SVG Export Plug-In . SVG Version: 6.00 Build 0)  -->
<svg version="1.1" id="Layer_1" xmlns="http://www.w3.org/2000/svg" xmlns:xlink="http://www.w3.org/1999/xlink" x="0px" y="0px"
	 viewBox="0 0 250 100" style="enable-background:new 0 0 250 100;" xml:space="preserve">
<style type="text/css">
	.st0{fill:#242B66;}
	.st1{font-family:'IBMPlexSans-SemiBold';}
	.st2{font-size:13px;}
	.st3{fill:#525352;}
	.st4{font-family:'IBMPlexSans-Text';}
	.st5{font-size:12px;}
	.st6{fill:none;}
	.st7{fill:none;stroke:#242B66;stroke-width:1.968;stroke-miterlimit:10;}
</style>
<text transform="matrix(1 0 0 1 45.1973 22.584)" class="st0 st1 st2">Compliance score</text>
<text transform="matrix(1 0 0 1 45.1973 37.9945)"><tspan x="0" y="0" class="st3 st4 st5">Learn more about how your</tspan><tspan x="0" y="14.4" class="st3 st4 st5">organization is analyzed to create </tspan><tspan x="0" y="28.8" class="st3 st4 st5">a calculated assessment of your</tspan><tspan x="0" y="43.2" class="st3 st4 st5">current compliance posture.</tspan></text>
<rect id="_Transparent_Rectangle__3_" x="7" y="9" class="st6" width="32" height="32"/>
<rect x="1" y="1" class="st7" width="248" height="98"/>
<polygon class="st0" points="31,35.6 28.4,33 27,34.4 31,38.4 38,31.4 36.6,30 "/>
<rect x="22" y="32" class="st0" width="2" height="2"/>
<rect x="16" y="32" class="st0" width="2" height="2"/>
<rect x="28" y="27" class="st0" width="2" height="2"/>
<rect x="22" y="27" class="st0" width="2" height="2"/>
<rect x="16" y="27" class="st0" width="2" height="2"/>
<rect x="28" y="22" class="st0" width="2" height="2"/>
<rect x="22" y="22" class="st0" width="2" height="2"/>
<rect x="16" y="22" class="st0" width="2" height="2"/>
<rect x="16" y="16" class="st0" width="14" height="3"/>
<path class="st0" d="M24,39H13c-1.1,0-2-0.9-2-2V13c0-1.1,0.9-2,2-2h20c1.1,0,2,0.9,2,2v14h-2V13H13v24h11V39z"/>
</svg>
