<svg id="Layer_1" data-name="Layer 1" xmlns="http://www.w3.org/2000/svg" width="250" height="100" viewBox="0 0 250 100"><defs><style>.cls-1{fill:#242b66;}.cls-2{fill:#525352;}.cls-3,.cls-4{fill:none;}.cls-4{stroke:#242b66;stroke-miterlimit:10;stroke-width:1.968px;}</style></defs><path class="cls-1" d="M49.7861,22.74a4.2668,4.2668,0,0,1-1.6181-.2924,3.2364,3.2364,0,0,1-1.2354-.8775,3.9725,3.9725,0,0,1-.7861-1.4492,6.6791,6.6791,0,0,1-.2735-2.0088,6.94,6.94,0,0,1,.2735-2.0342,4.153,4.153,0,0,1,.7861-1.4951,3.34,3.34,0,0,1,1.2354-.9165,4.0373,4.0373,0,0,1,1.6181-.312,3.6736,3.6736,0,0,1,2.0284.52,3.5708,3.5708,0,0,1,1.2866,1.5728l-1.4688.78a2.0638,2.0638,0,0,0-.6372-.9815,1.8233,1.8233,0,0,0-1.209-.3706,1.9218,1.9218,0,0,0-1.5273.65,2.685,2.685,0,0,0-.5654,1.82v1.43a2.6277,2.6277,0,0,0,.5654,1.8135,1.9488,1.9488,0,0,0,1.5273.63,1.8636,1.8636,0,0,0,1.2544-.4156,2.3966,2.3966,0,0,0,.7085-1.0273l1.3911.8193a3.992,3.992,0,0,1-1.313,1.5791A3.5081,3.5081,0,0,1,49.7861,22.74Z"/><path class="cls-1" d="M57.1963,22.74a3.2974,3.2974,0,0,1-1.3062-.2465,2.7086,2.7086,0,0,1-.9882-.7154,3.2659,3.2659,0,0,1-.63-1.1245,4.6015,4.6015,0,0,1-.2212-1.4751,4.5454,4.5454,0,0,1,.2212-1.4692,3.2086,3.2086,0,0,1,.63-1.1113,2.74,2.74,0,0,1,.9882-.7085,3.2956,3.2956,0,0,1,1.3062-.2471,3.3454,3.3454,0,0,1,1.313.2471,2.7267,2.7267,0,0,1,.9946.7085,3.21,3.21,0,0,1,.63,1.1113,4.5481,4.5481,0,0,1,.2212,1.4692,4.6043,4.6043,0,0,1-.2212,1.4751,3.2675,3.2675,0,0,1-.63,1.1245,2.6952,2.6952,0,0,1-.9946.7154A3.3472,3.3472,0,0,1,57.1963,22.74Zm0-1.3388a1.3543,1.3543,0,0,0,1.04-.4029,1.6709,1.6709,0,0,0,.377-1.1831V18.5542a1.6518,1.6518,0,0,0-.377-1.17,1.3543,1.3543,0,0,0-1.04-.4028,1.3386,1.3386,0,0,0-1.0269.4028,1.6522,1.6522,0,0,0-.3769,1.17v1.2607a1.6713,1.6713,0,0,0,.3769,1.1831A1.3387,1.3387,0,0,0,57.1963,21.4009Z"/><path class="cls-1" d="M61.8242,22.584V15.7979h1.6641v1.1313h.0649a2.1986,2.1986,0,0,1,.624-.91,1.7517,1.7517,0,0,1,1.1963-.3769,2.1319,2.1319,0,0,1,1.209.3379,1.9969,1.9969,0,0,1,.7539,1.0268h.0259a1.9062,1.9062,0,0,1,.7217-.9682,2.2332,2.2332,0,0,1,1.3584-.3965,1.8418,1.8418,0,0,1,1.54.689,3.1238,3.1238,0,0,1,.54,1.9628v4.29H69.8584V18.4629q0-1.4553-1.0923-1.4561a1.5662,1.5662,0,0,0-.4741.0718,1.26,1.26,0,0,0-.4033.208,1.0091,1.0091,0,0,0-.2793.3379,1.0208,1.0208,0,0,0-.104.4746V22.584H65.8413V18.4629q0-1.4553-1.0918-1.4561a1.53,1.53,0,0,0-.4619.0718,1.2623,1.2623,0,0,0-.4028.208,1.0789,1.0789,0,0,0-.2862.3379.9715.9715,0,0,0-.11.4746V22.584Z"/><path class="cls-1" d="M73.3677,15.7979h1.664V16.916h.0523a1.7046,1.7046,0,0,1,.6889-.93,2.0538,2.0538,0,0,1,1.1827-.3442,2.32,2.32,0,0,1,1.9829.9165,4.3311,4.3311,0,0,1,.6826,2.62,4.3872,4.3872,0,0,1-.6826,2.6387,2.3129,2.3129,0,0,1-1.9829.9228,1.9968,1.9968,0,0,1-1.1763-.3505,1.8155,1.8155,0,0,1-.6953-.9361h-.0523v3.731h-1.664Zm3.0552,5.5639a1.3786,1.3786,0,0,0,1.0527-.4287,1.6232,1.6232,0,0,0,.4033-1.1572v-1.17a1.6466,1.6466,0,0,0-.4033-1.1636,1.3684,1.3684,0,0,0-1.0527-.4356,1.605,1.605,0,0,0-.9947.2994.9434.9434,0,0,0-.3965.7929v2.1577a.9489.9489,0,0,0,.3965.8194A1.6577,1.6577,0,0,0,76.4229,21.3618Z"/><path class="cls-1" d="M82.832,22.584a1.6574,1.6574,0,0,1-1.2617-.4292,1.6978,1.6978,0,0,1-.4023-1.209V12.9639h1.664v8.2812h.8965V22.584Z"/><path class="cls-1" d="M85.8223,14.81a1.0123,1.0123,0,0,1-.7481-.2339.8207.8207,0,0,1-.2275-.5982v-.26a.82.82,0,0,1,.2275-.5977,1.2984,1.2984,0,0,1,1.4883,0,.8091.8091,0,0,1,.2344.5977v.26a.81.81,0,0,1-.2344.5982A1.0131,1.0131,0,0,1,85.8223,14.81Zm-.8321.9878h1.6641V22.584H84.99Z"/><path class="cls-1" d="M93.5693,22.584a1.1661,1.1661,0,0,1-.8642-.3184,1.46,1.46,0,0,1-.3965-.8515h-.0781a1.5957,1.5957,0,0,1-.69.9946,2.35,2.35,0,0,1-1.2871.331,2.1965,2.1965,0,0,1-1.5986-.5439,1.9359,1.9359,0,0,1-.56-1.4517,1.7605,1.7605,0,0,1,.7539-1.5615,3.8071,3.8071,0,0,1,2.1455-.5117h1.1572v-.4941a1.2273,1.2273,0,0,0-.2988-.8838,1.2852,1.2852,0,0,0-.9629-.312,1.5953,1.5953,0,0,0-.9414.2534,2.5154,2.5154,0,0,0-.6055.6045l-.9873-.8892a2.8636,2.8636,0,0,1,1.001-.9477,3.2921,3.2921,0,0,1,1.65-.36,3.103,3.103,0,0,1,2.0938.6225,2.2459,2.2459,0,0,1,.7148,1.79v3.1909h.6758V22.584Zm-2.7558-1.0532a1.7449,1.7449,0,0,0,.9482-.2452.7992.7992,0,0,0,.3906-.7231v-.8906H91.0859q-1.2993,0-1.3.8266v.2193a.7173.7173,0,0,0,.2666.6133A1.25,1.25,0,0,0,90.8135,21.5308Z"/><path class="cls-1" d="M95.8437,22.584V15.7979h1.6641v1.1313h.0654a2.1627,2.1627,0,0,1,.6573-.9165,1.89,1.89,0,0,1,1.24-.3706,1.9567,1.9567,0,0,1,1.6133.689,3.047,3.047,0,0,1,.5586,1.9628v4.29H99.9785V18.4629a1.8824,1.8824,0,0,0-.26-1.0918.983.983,0,0,0-.8583-.3643,1.7469,1.7469,0,0,0-.501.0718,1.3992,1.3992,0,0,0-.4287.208,1.0818,1.0818,0,0,0-.3057.3379.9275.9275,0,0,0-.1172.4746V22.584Z"/><path class="cls-1" d="M106.166,22.74a3.42,3.42,0,0,1-1.3389-.2465,2.5875,2.5875,0,0,1-.9814-.7154,3.2294,3.2294,0,0,1-.6045-1.1245,4.8706,4.8706,0,0,1-.208-1.4751,4.8109,4.8109,0,0,1,.208-1.4692,3.1713,3.1713,0,0,1,.6045-1.1113,2.6162,2.6162,0,0,1,.9814-.7085,3.4184,3.4184,0,0,1,1.3389-.2471,2.9571,2.9571,0,0,1,1.6973.4551,2.5637,2.5637,0,0,1,.9687,1.2607l-1.3652.6109a1.42,1.42,0,0,0-.4356-.7085,1.268,1.268,0,0,0-.8652-.2793,1.247,1.247,0,0,0-1.0469.4419,1.8369,1.8369,0,0,0-.3437,1.1572v1.2348a1.807,1.807,0,0,0,.3437,1.15,1.2543,1.2543,0,0,0,1.0469.4356,1.2992,1.2992,0,0,0,.9238-.3052,2.0943,2.0943,0,0,0,.5059-.7607l1.2754.6108a2.6723,2.6723,0,0,1-1.0274,1.3457A3.0145,3.0145,0,0,1,106.166,22.74Z"/><path class="cls-1" d="M112.8359,22.74a3.3841,3.3841,0,0,1-1.3457-.2534,2.79,2.79,0,0,1-1.0019-.7148,3.2049,3.2049,0,0,1-.63-1.1182,5.0289,5.0289,0,0,1-.0068-2.9311,3.196,3.196,0,0,1,.6171-1.1118,2.7483,2.7483,0,0,1,.9883-.7149,3.3092,3.3092,0,0,1,1.3262-.2534,3.2256,3.2256,0,0,1,1.3779.2729,2.6544,2.6544,0,0,1,.9619.7408,3.2154,3.2154,0,0,1,.5665,1.0859,4.5162,4.5162,0,0,1,.1875,1.3193v.5459h-4.5108v.168a1.6594,1.6594,0,0,0,.416,1.1807,1.6079,1.6079,0,0,0,1.2354.4453,1.8421,1.8421,0,0,0,1.02-.2578,2.8884,2.8884,0,0,0,.708-.6582l.8975,1.0039a2.8024,2.8024,0,0,1-1.1377.9189A3.9587,3.9587,0,0,1,112.8359,22.74Zm-.0263-5.85a1.336,1.336,0,0,0-1.0537.4419,1.6663,1.6663,0,0,0-.39,1.1441v.104h2.7822v-.1172a1.7794,1.7794,0,0,0-.3447-1.1372A1.1925,1.1925,0,0,0,112.81,16.89Z"/><path class="cls-1" d="M122.6367,22.74a3.6464,3.6464,0,0,1-1.6377-.331,3.7734,3.7734,0,0,1-1.17-.9165l1.0146-.9883a3.054,3.054,0,0,0,.8243.6763,2.1146,2.1146,0,0,0,1.0341.2466,1.4129,1.4129,0,0,0,.8643-.208.6848.6848,0,0,0,.2666-.5718.62.62,0,0,0-.1885-.4746,1.1968,1.1968,0,0,0-.6435-.24l-.6758-.0913a3.2115,3.2115,0,0,1-1.6836-.63,1.7568,1.7568,0,0,1-.5791-1.4233,2.0994,2.0994,0,0,1,.1826-.8906,1.8729,1.8729,0,0,1,.5205-.6758,2.3709,2.3709,0,0,1,.8125-.4292,3.5146,3.5146,0,0,1,1.0586-.1494,4.8482,4.8482,0,0,1,.8779.0713,3.2209,3.2209,0,0,1,.6954.208,2.69,2.69,0,0,1,.5722.3379,5.4314,5.4314,0,0,1,.5069.4487l-.9746.9751a2.5725,2.5725,0,0,0-.7149-.52,2.0066,2.0066,0,0,0-.91-.208,1.2563,1.2563,0,0,0-.7872.1948.623.623,0,0,0-.24.5073.6418.6418,0,0,0,.2012.5132,1.3935,1.3935,0,0,0,.6836.2534l.6885.0913q2.1957.312,2.1962,2.002a2.0112,2.0112,0,0,1-.2011.9033,2.0606,2.0606,0,0,1-.5655.7022,2.678,2.678,0,0,1-.8779.455A3.8142,3.8142,0,0,1,122.6367,22.74Z"/><path class="cls-1" d="M129.5791,22.74a3.4168,3.4168,0,0,1-1.3389-.2465,2.59,2.59,0,0,1-.9824-.7154,3.2277,3.2277,0,0,1-.6035-1.1245,4.87,4.87,0,0,1-.209-1.4751,4.81,4.81,0,0,1,.209-1.4692,3.17,3.17,0,0,1,.6035-1.1113,2.619,2.619,0,0,1,.9824-.7085,3.4149,3.4149,0,0,1,1.3389-.2471,2.9537,2.9537,0,0,1,1.6963.4551,2.5523,2.5523,0,0,1,.9687,1.2607l-1.3652.6109a1.414,1.414,0,0,0-.4355-.7085,1.2657,1.2657,0,0,0-.8643-.2793,1.2457,1.2457,0,0,0-1.0469.4419,1.8311,1.8311,0,0,0-.3447,1.1572v1.2348a1.8014,1.8014,0,0,0,.3447,1.15,1.253,1.253,0,0,0,1.0469.4356,1.297,1.297,0,0,0,.9229-.3052,2.0861,2.0861,0,0,0,.5068-.7607l1.2744.6108a2.6673,2.6673,0,0,1-1.0273,1.3457A3.0093,3.0093,0,0,1,129.5791,22.74Z"/><path class="cls-1" d="M136.1953,22.74a3.3,3.3,0,0,1-1.3057-.2465,2.7044,2.7044,0,0,1-.9882-.7154,3.2585,3.2585,0,0,1-.63-1.1245,4.5736,4.5736,0,0,1-.2217-1.4751,4.5179,4.5179,0,0,1,.2217-1.4692,3.2013,3.2013,0,0,1,.63-1.1113,2.7361,2.7361,0,0,1,.9882-.7085,3.2983,3.2983,0,0,1,1.3057-.2471,3.3444,3.3444,0,0,1,1.3135.2471,2.7369,2.7369,0,0,1,.9951.7085,3.2173,3.2173,0,0,1,.63,1.1113,4.5477,4.5477,0,0,1,.2217,1.4692,4.6039,4.6039,0,0,1-.2217,1.4751,3.2747,3.2747,0,0,1-.63,1.1245,2.7052,2.7052,0,0,1-.9951.7154A3.3462,3.3462,0,0,1,136.1953,22.74Zm0-1.3388a1.3559,1.3559,0,0,0,1.041-.4029,1.6732,1.6732,0,0,0,.377-1.1831V18.5542a1.6541,1.6541,0,0,0-.377-1.17,1.3558,1.3558,0,0,0-1.041-.4028,1.3375,1.3375,0,0,0-1.0264.4028,1.6545,1.6545,0,0,0-.3769,1.17v1.2607a1.6736,1.6736,0,0,0,.3769,1.1831A1.3376,1.3376,0,0,0,136.1953,21.4009Z"/><path class="cls-1" d="M140.8242,22.584V15.7979h1.6641v1.4042h.0644a2.1642,2.1642,0,0,1,.2012-.5268,1.6424,1.6424,0,0,1,.3574-.4482,1.7318,1.7318,0,0,1,.5274-.3121,1.9672,1.9672,0,0,1,.708-.1171h.3642v1.5732h-.52a2.6086,2.6086,0,0,0-1.2744.2471.8571.8571,0,0,0-.4287.8056v4.16Z"/><path class="cls-1" d="M148.6113,22.74a3.3841,3.3841,0,0,1-1.3457-.2534,2.79,2.79,0,0,1-1.0019-.7148,3.2033,3.2033,0,0,1-.63-1.1182,5.0289,5.0289,0,0,1-.0068-2.9311,3.196,3.196,0,0,1,.6171-1.1118,2.7483,2.7483,0,0,1,.9883-.7149,3.3089,3.3089,0,0,1,1.3262-.2534,3.2256,3.2256,0,0,1,1.3779.2729,2.6544,2.6544,0,0,1,.9619.7408,3.2134,3.2134,0,0,1,.5664,1.0859,4.5162,4.5162,0,0,1,.1875,1.3193v.5459h-4.5107v.168a1.6594,1.6594,0,0,0,.416,1.1807,1.6079,1.6079,0,0,0,1.2354.4453,1.8421,1.8421,0,0,0,1.02-.2578,2.8884,2.8884,0,0,0,.708-.6582l.8974,1.0039a2.8011,2.8011,0,0,1-1.1377.9189A3.958,3.958,0,0,1,148.6113,22.74Zm-.0263-5.85a1.3364,1.3364,0,0,0-1.0538.4419,1.6667,1.6667,0,0,0-.39,1.1441v.104h2.7822v-.1172a1.7794,1.7794,0,0,0-.3447-1.1372A1.1925,1.1925,0,0,0,148.585,16.89Z"/><path class="cls-2" d="M46.2773,37.9946V29.6187h1.1641v7.3437h3.4917v1.0322Z"/><path class="cls-2" d="M54.521,38.1387a2.8355,2.8355,0,0,1-1.17-.2339,2.5409,2.5409,0,0,1-.8882-.6543,2.9317,2.9317,0,0,1-.564-1.02,4.6458,4.6458,0,0,1,0-2.6817,2.93,2.93,0,0,1,.564-1.0263,2.5383,2.5383,0,0,1,.8882-.6538,2.8259,2.8259,0,0,1,1.17-.2339,2.7591,2.7591,0,0,1,1.1582.2329,2.4626,2.4626,0,0,1,.8579.64,2.765,2.765,0,0,1,.5278.9688,3.9284,3.9284,0,0,1,.18,1.2075V35.15h-4.38v.2524a1.8177,1.8177,0,0,0,.4561,1.2779,1.6678,1.6678,0,0,0,1.2959.498,1.8537,1.8537,0,0,0,1.0078-.2641,1.8973,1.8973,0,0,0,.6724-.7442l.72.6162a2.4151,2.4151,0,0,1-.9722.9839A3.0356,3.0356,0,0,1,54.521,38.1387Zm0-5.604a1.6745,1.6745,0,0,0-.666.1313,1.5648,1.5648,0,0,0-.87.918,1.9933,1.9933,0,0,0-.12.7031v.0835h3.1919v-.1191a1.8178,1.8178,0,0,0-.414-1.2456A1.4176,1.4176,0,0,0,54.521,32.5347Z"/><path class="cls-2" d="M63.293,37.9946a.9867.9867,0,0,1-.774-.2881,1.3482,1.3482,0,0,1-.3178-.7441h-.06a1.6041,1.6041,0,0,1-.66.8765,2.0711,2.0711,0,0,1-1.14.3,2.1472,2.1472,0,0,1-1.5122-.4981,1.7617,1.7617,0,0,1-.54-1.3618,1.59,1.59,0,0,1,.6543-1.374,3.4127,3.4127,0,0,1,1.9975-.4741h1.1763v-.564a1.3,1.3,0,0,0-.336-.96,1.4237,1.4237,0,0,0-1.0439-.3359,1.6124,1.6124,0,0,0-.918.2456,2.0254,2.0254,0,0,0-.6059.6421l-.6724-.6118a2.367,2.367,0,0,1,.834-.8579,2.6135,2.6135,0,0,1,1.4224-.354,2.6472,2.6472,0,0,1,1.8.5566,1.9827,1.9827,0,0,1,.6362,1.5747v3.2686h.6958v.96Zm-2.7-.7558a1.8691,1.8691,0,0,0,1.0918-.3.9023.9023,0,0,0,.4321-.7681v-.96h-1.188a2.13,2.13,0,0,0-1.1221.2281.7386.7386,0,0,0-.354.66v.24a.7881.7881,0,0,0,.3062.6655A1.34,1.34,0,0,0,60.5933,37.2388Z"/><path class="cls-2" d="M65.2607,37.9946V31.7788H66.377v1.188h.06a1.7421,1.7421,0,0,1,.2158-.4443,1.5351,1.5351,0,0,1,.36-.378,1.8536,1.8536,0,0,1,.51-.2636,2.027,2.027,0,0,1,.6661-.1021h.372v1.1157h-.5522a2.1779,2.1779,0,0,0-1.2061.2823.8517.8517,0,0,0-.4257.7378v4.08Z"/><path class="cls-2" d="M69.7607,37.9946V31.7788H70.877v1.0083h.06a2.0294,2.0294,0,0,1,.63-.8315,1.7859,1.7859,0,0,1,1.1221-.3208,1.897,1.897,0,0,1,1.5058.624,2.5947,2.5947,0,0,1,.5459,1.7637v3.9721H73.625V34.1821q0-1.5871-1.3081-1.5874a1.966,1.966,0,0,0-.5342.0723,1.5652,1.5652,0,0,0-.4619.21,1.0326,1.0326,0,0,0-.3237.3487.9892.9892,0,0,0-.12.499v4.27Z"/><path class="cls-2" d="M79.4687,37.9946V31.7788H80.585v1.0083h.0595a2.1268,2.1268,0,0,1,.6182-.814,1.5878,1.5878,0,0,1,1.0381-.3383,2.2149,2.2149,0,0,1,1.1347.2973,1.7467,1.7467,0,0,1,.75.9512h.0235a1.8648,1.8648,0,0,1,.6426-.874,1.9607,1.9607,0,0,1,1.2539-.3745,1.8129,1.8129,0,0,1,1.4629.624,2.65,2.65,0,0,1,.5283,1.7637v3.9721H86.9805V34.1821a1.9315,1.9315,0,0,0-.3057-1.19,1.13,1.13,0,0,0-.9541-.397,1.8378,1.8378,0,0,0-.5215.0723,1.4279,1.4279,0,0,0-.4385.21.9967.9967,0,0,0-.42.8477v4.27H83.2246V34.1821q0-1.5871-1.248-1.5874a1.8571,1.8571,0,0,0-.5157.0723,1.401,1.401,0,0,0-.4433.21,1.0827,1.0827,0,0,0-.3125.3487.9892.9892,0,0,0-.12.499v4.27Z"/><path class="cls-2" d="M92.3809,38.1387a2.8644,2.8644,0,0,1-1.1582-.2281,2.5074,2.5074,0,0,1-.8946-.6538,3.0082,3.0082,0,0,1-.5752-1.0263,4.5272,4.5272,0,0,1,0-2.688,3.0119,3.0119,0,0,1,.5752-1.0259,2.5074,2.5074,0,0,1,.8946-.6538,3.0557,3.0557,0,0,1,2.3164,0,2.5034,2.5034,0,0,1,.8935.6538,3.0121,3.0121,0,0,1,.5762,1.0259,4.5272,4.5272,0,0,1,0,2.688,3.0083,3.0083,0,0,1-.5762,1.0263,2.5034,2.5034,0,0,1-.8935.6538A2.8651,2.8651,0,0,1,92.3809,38.1387Zm0-.96a1.6043,1.6043,0,0,0,1.1875-.456,1.8559,1.8559,0,0,0,.457-1.3682v-.936a1.8553,1.8553,0,0,0-.457-1.3677,1.7739,1.7739,0,0,0-2.375,0,1.8549,1.8549,0,0,0-.4571,1.3677v.936a1.8556,1.8556,0,0,0,.4571,1.3682A1.6025,1.6025,0,0,0,92.3809,37.1787Z"/><path class="cls-2" d="M96.7363,37.9946V31.7788h1.1172v1.188h.06a1.7554,1.7554,0,0,1,.2158-.4443,1.5311,1.5311,0,0,1,.3594-.378,1.8625,1.8625,0,0,1,.5107-.2636,2.029,2.029,0,0,1,.666-.1021h.3721v1.1157h-.5527a2.1728,2.1728,0,0,0-1.2051.2823.8494.8494,0,0,0-.4258.7378v4.08Z"/><path class="cls-2" d="M103.5527,38.1387a2.8341,2.8341,0,0,1-1.17-.2339,2.5491,2.5491,0,0,1-.8887-.6543,2.9323,2.9323,0,0,1-.5634-1.02,4.6324,4.6324,0,0,1,0-2.6817,2.9309,2.9309,0,0,1,.5634-1.0263,2.5466,2.5466,0,0,1,.8887-.6538,2.8246,2.8246,0,0,1,1.17-.2339,2.7588,2.7588,0,0,1,1.1582.2329,2.4565,2.4565,0,0,1,.8575.64,2.7659,2.7659,0,0,1,.5283.9688,3.9314,3.9314,0,0,1,.1806,1.2075V35.15h-4.3808v.2524a1.816,1.816,0,0,0,.457,1.2779,1.665,1.665,0,0,0,1.2949.498,1.85,1.85,0,0,0,1.0078-.2641,1.894,1.894,0,0,0,.6729-.7442l.72.6162a2.4136,2.4136,0,0,1-.9726.9839A3.0344,3.0344,0,0,1,103.5527,38.1387Zm0-5.604a1.6731,1.6731,0,0,0-.666.1313,1.5667,1.5667,0,0,0-.8691.918,1.9934,1.9934,0,0,0-.1211.7031v.0835h3.1924v-.1191a1.8149,1.8149,0,0,0-.4141-1.2456A1.4176,1.4176,0,0,0,103.5527,32.5347Z"/><path class="cls-2" d="M115.1562,37.9946a.9855.9855,0,0,1-.7734-.2881,1.3479,1.3479,0,0,1-.3183-.7441h-.0606a1.5973,1.5973,0,0,1-.66.8765,2.0673,2.0673,0,0,1-1.1386.3,2.1482,2.1482,0,0,1-1.5127-.4981,1.76,1.76,0,0,1-.54-1.3618,1.5906,1.5906,0,0,1,.6543-1.374,3.4139,3.4139,0,0,1,1.9981-.4741h1.1758v-.564a1.3,1.3,0,0,0-.336-.96,1.4245,1.4245,0,0,0-1.0439-.3359,1.6113,1.6113,0,0,0-.918.2456,2.0324,2.0324,0,0,0-.6064.6421l-.6719-.6118a2.363,2.363,0,0,1,.834-.8579,2.6117,2.6117,0,0,1,1.4219-.354,2.65,2.65,0,0,1,1.8007.5566,1.9821,1.9821,0,0,1,.6358,1.5747v3.2686h.6963v.96Zm-2.6992-.7558a1.872,1.872,0,0,0,1.0918-.3.9039.9039,0,0,0,.4317-.7681v-.96H112.793a2.1343,2.1343,0,0,0-1.1231.2281.7392.7392,0,0,0-.3535.66v.24a.786.786,0,0,0,.3066.6655A1.3375,1.3375,0,0,0,112.457,37.2388Z"/><path class="cls-2" d="M117.125,29.1147H118.24v3.6724h.0489a1.68,1.68,0,0,1,.6777-.8613,2.0388,2.0388,0,0,1,1.1094-.291,2.4,2.4,0,0,1,1.0508.2216,2.1451,2.1451,0,0,1,.7851.648,2.9984,2.9984,0,0,1,.4922,1.0264,5.556,5.556,0,0,1,0,2.7119,2.9914,2.9914,0,0,1-.4922,1.0259,2.135,2.135,0,0,1-.7851.6479,2.3987,2.3987,0,0,1-1.0508.2222,2.04,2.04,0,0,1-1.1094-.291,1.6784,1.6784,0,0,1-.6777-.8614H118.24v1.0083H117.125Zm2.627,8.064a1.5346,1.5346,0,0,0,1.1953-.4824,1.8344,1.8344,0,0,0,.4375-1.2788V34.356a1.8344,1.8344,0,0,0-.4375-1.2789,1.5349,1.5349,0,0,0-1.1953-.4824,2.0087,2.0087,0,0,0-.5879.0845,1.4957,1.4957,0,0,0-.48.2412,1.2427,1.2427,0,0,0-.3233.3618.8909.8909,0,0,0-.1211.4585v2.292a.8906.8906,0,0,0,.1211.4585,1.2427,1.2427,0,0,0,.3233.3618,1.4937,1.4937,0,0,0,.48.2412A2.0087,2.0087,0,0,0,119.752,37.1787Z"/><path class="cls-2" d="M126.5322,38.1387a2.8651,2.8651,0,0,1-1.1582-.2281,2.5034,2.5034,0,0,1-.8935-.6538,3.0067,3.0067,0,0,1-.5762-1.0263,4.5272,4.5272,0,0,1,0-2.688,3.01,3.01,0,0,1,.5762-1.0259,2.5034,2.5034,0,0,1,.8935-.6538,3.0534,3.0534,0,0,1,2.3155,0,2.4992,2.4992,0,0,1,.8945.6538,3.03,3.03,0,0,1,.5762,1.0259,4.5272,4.5272,0,0,1,0,2.688,3.0267,3.0267,0,0,1-.5762,1.0263,2.4992,2.4992,0,0,1-.8945.6538A2.86,2.86,0,0,1,126.5322,38.1387Zm0-.96a1.61,1.61,0,0,0,1.1885-.456,1.8634,1.8634,0,0,0,.4551-1.3682v-.936a1.8627,1.8627,0,0,0-.4551-1.3677,1.7765,1.7765,0,0,0-2.377,0,1.8585,1.8585,0,0,0-.455,1.3677v.936a1.8591,1.8591,0,0,0,.455,1.3682A1.6079,1.6079,0,0,0,126.5322,37.1787Z"/><path class="cls-2" d="M134.6924,36.9863h-.06a2.1669,2.1669,0,0,1-.2226.4336,1.5211,1.5211,0,0,1-.3477.3682,1.6992,1.6992,0,0,1-.498.2554,2.1478,2.1478,0,0,1-.6719.0952,1.912,1.912,0,0,1-1.5117-.6241,2.57,2.57,0,0,1-.5528-1.7641V31.7788h1.1162v3.8125q0,1.5872,1.3194,1.5874a2.0832,2.0832,0,0,0,.5224-.0664,1.3214,1.3214,0,0,0,.4561-.21,1.1605,1.1605,0,0,0,.3242-.36.9876.9876,0,0,0,.126-.5054V31.7788h1.1162v6.2158h-1.1162Z"/><path class="cls-2" d="M139.3,37.9946a1.1494,1.1494,0,0,1-.876-.3174,1.1975,1.1975,0,0,1-.3-.8559V32.7388h-.9961v-.96h.5518a.5665.5665,0,0,0,.4316-.1323.654.654,0,0,0,.1211-.4439v-1.14H139.24v1.7163h1.3321v.96H139.24v4.2959h1.2364v.96Z"/><path class="cls-2" d="M144.8926,29.1147h1.1152v3.6724h.0606a2.0292,2.0292,0,0,1,.63-.8315,1.7861,1.7861,0,0,1,1.1221-.3208,1.8972,1.8972,0,0,1,1.5059.624,2.5972,2.5972,0,0,1,.5459,1.7637v3.9721h-1.1162V34.1821q0-1.5871-1.3077-1.5874a1.9627,1.9627,0,0,0-.5341.0723,1.5612,1.5612,0,0,0-.462.21,1.0311,1.0311,0,0,0-.3232.3487.99.99,0,0,0-.1211.499v4.27h-1.1152Z"/><path class="cls-2" d="M154.1562,38.1387a2.8651,2.8651,0,0,1-1.1582-.2281,2.5079,2.5079,0,0,1-.8945-.6538,3.0082,3.0082,0,0,1-.5752-1.0263,4.5272,4.5272,0,0,1,0-2.688,3.0119,3.0119,0,0,1,.5752-1.0259,2.5079,2.5079,0,0,1,.8945-.6538,3.056,3.056,0,0,1,2.3165,0,2.5034,2.5034,0,0,1,.8935.6538,3.0121,3.0121,0,0,1,.5762,1.0259,4.5272,4.5272,0,0,1,0,2.688,3.0083,3.0083,0,0,1-.5762,1.0263,2.5034,2.5034,0,0,1-.8935.6538A2.8652,2.8652,0,0,1,154.1562,38.1387Zm0-.96a1.604,1.604,0,0,0,1.1875-.456,1.8556,1.8556,0,0,0,.4571-1.3682v-.936a1.8549,1.8549,0,0,0-.4571-1.3677,1.7739,1.7739,0,0,0-2.375,0,1.8553,1.8553,0,0,0-.457,1.3677v.936a1.8559,1.8559,0,0,0,.457,1.3682A1.6028,1.6028,0,0,0,154.1562,37.1787Z"/><path class="cls-2" d="M157.8047,31.7788h1.08l.6474,2.6519.624,2.5561h.0235l.709-2.5561.7675-2.6519h.9961l.7911,2.6519.7207,2.5561H164.2l.5879-2.5561.66-2.6519h1.044l-1.6563,6.2158h-1.32l-.84-2.916-.5274-1.8242h-.0244l-.5166,1.8242-.84,2.916h-1.2949Z"/><path class="cls-2" d="M174.4844,31.7788h1.08l-2.7012,7.5718a3.1221,3.1221,0,0,1-.2276.4922,1.0155,1.0155,0,0,1-.2939.3237,1.1767,1.1767,0,0,1-.4141.1743,2.8106,2.8106,0,0,1-.6.0537h-.6123v-.96h1.02l.42-1.1983-2.3046-6.4575h1.1162l1.38,3.9639.3242,1.1616h.0605l.3594-1.1616Z"/><path class="cls-2" d="M179.0439,38.1387a2.8651,2.8651,0,0,1-1.1582-.2281,2.5034,2.5034,0,0,1-.8935-.6538,3.0083,3.0083,0,0,1-.5762-1.0263,4.5272,4.5272,0,0,1,0-2.688,3.0121,3.0121,0,0,1,.5762-1.0259,2.5034,2.5034,0,0,1,.8935-.6538,3.0534,3.0534,0,0,1,2.3155,0,2.4983,2.4983,0,0,1,.8945.6538,3.0288,3.0288,0,0,1,.5762,1.0259,4.5272,4.5272,0,0,1,0,2.688,3.025,3.025,0,0,1-.5762,1.0263,2.4983,2.4983,0,0,1-.8945.6538A2.86,2.86,0,0,1,179.0439,38.1387Zm0-.96a1.61,1.61,0,0,0,1.1885-.456,1.8629,1.8629,0,0,0,.4551-1.3682v-.936a1.8623,1.8623,0,0,0-.4551-1.3677,1.7764,1.7764,0,0,0-2.3769,0,1.8585,1.8585,0,0,0-.4551,1.3677v.936a1.8592,1.8592,0,0,0,.4551,1.3682A1.6079,1.6079,0,0,0,179.0439,37.1787Z"/><path class="cls-2" d="M187.2041,36.9863h-.06a2.1669,2.1669,0,0,1-.2226.4336,1.5191,1.5191,0,0,1-.3477.3682,1.6992,1.6992,0,0,1-.498.2554,2.1474,2.1474,0,0,1-.6719.0952,1.9121,1.9121,0,0,1-1.5117-.6241,2.57,2.57,0,0,1-.5528-1.7641V31.7788h1.1163v3.8125q0,1.5872,1.3193,1.5874a2.0846,2.0846,0,0,0,.5225-.0664,1.3218,1.3218,0,0,0,.456-.21,1.1605,1.1605,0,0,0,.3242-.36.9876.9876,0,0,0,.126-.5054V31.7788H188.32v6.2158h-1.1162Z"/><path class="cls-2" d="M190.2871,37.9946V31.7788h1.1172v1.188h.06a1.7554,1.7554,0,0,1,.2158-.4443,1.5311,1.5311,0,0,1,.3594-.378,1.8625,1.8625,0,0,1,.5107-.2636,2.029,2.029,0,0,1,.666-.1021h.3721v1.1157h-.5527a2.1728,2.1728,0,0,0-1.2051.2823.8494.8494,0,0,0-.4258.7378v4.08Z"/><path class="cls-2" d="M48.5693,52.5386a2.8651,2.8651,0,0,1-1.1582-.2281,2.5052,2.5052,0,0,1-.894-.6538,3.0058,3.0058,0,0,1-.5757-1.0263,4.5272,4.5272,0,0,1,0-2.688,3.01,3.01,0,0,1,.5757-1.0259,2.5064,2.5064,0,0,1,.894-.6538,3.0547,3.0547,0,0,1,2.316,0,2.5029,2.5029,0,0,1,.894.6538,3.0221,3.0221,0,0,1,.5762,1.0259,4.5272,4.5272,0,0,1,0,2.688,3.0183,3.0183,0,0,1-.5762,1.0263,2.5017,2.5017,0,0,1-.894.6538A2.8628,2.8628,0,0,1,48.5693,52.5386Zm0-.96a1.6068,1.6068,0,0,0,1.188-.456,1.8594,1.8594,0,0,0,.4561-1.3682v-.936a1.8588,1.8588,0,0,0-.4561-1.3677,1.7752,1.7752,0,0,0-2.376,0,1.8567,1.8567,0,0,0-.456,1.3677v.936a1.8573,1.8573,0,0,0,.456,1.3682A1.6055,1.6055,0,0,0,48.5693,51.5786Z"/><path class="cls-2" d="M52.9253,52.3945V46.1787h1.1162v1.188h.06a1.7388,1.7388,0,0,1,.2158-.4443,1.5347,1.5347,0,0,1,.36-.378,1.8543,1.8543,0,0,1,.51-.2636,2.0269,2.0269,0,0,1,.666-.1021h.3721v1.1157h-.5523a2.1775,2.1775,0,0,0-1.206.2823.8515.8515,0,0,0-.4258.7378v4.08Z"/><path class="cls-2" d="M62.5137,53.0239a1.5874,1.5874,0,0,1-.75,1.4453,4.52,4.52,0,0,1-2.334.4693,4.2527,4.2527,0,0,1-2.13-.3965,1.246,1.246,0,0,1-.6421-1.1172,1.1143,1.1143,0,0,1,.27-.7925,1.496,1.496,0,0,1,.75-.4087v-.1323a.9028.9028,0,0,1-.6118-.916.8769.8769,0,0,1,.312-.7227,1.8927,1.8927,0,0,1,.7681-.3618v-.0483a1.97,1.97,0,0,1-.852-.7476,2.1019,2.1019,0,0,1-.3-1.1308,2.1718,2.1718,0,0,1,.1679-.8614,1.9352,1.9352,0,0,1,.4737-.6757,2.1421,2.1421,0,0,1,.75-.4371,3.0432,3.0432,0,0,1,1.0083-.1552,2.9953,2.9953,0,0,1,.6118.06,3.5624,3.5624,0,0,1,.54.1558v-.1318a.9872.9872,0,0,1,.18-.6182.6807.6807,0,0,1,.5757-.2339H62.25v.936H61.0254v.335a1.9014,1.9014,0,0,1,.78,1.627,2.1811,2.1811,0,0,1-.168.8618,1.8436,1.8436,0,0,1-.48.67,2.2507,2.2507,0,0,1-.7558.4307,3.03,3.03,0,0,1-1.0078.1557c-.12,0-.24-.0063-.36-.0181a2.7234,2.7234,0,0,1-.3364-.0542,1.6594,1.6594,0,0,0-.4917.24.4921.4921,0,0,0-.2163.42.3646.3646,0,0,0,.2461.3721,1.88,1.88,0,0,0,.666.0957h1.416a2.5333,2.5333,0,0,1,1.6738.4516A1.5467,1.5467,0,0,1,62.5137,53.0239Zm-1.0445.1148a.67.67,0,0,0-.27-.5581,1.603,1.603,0,0,0-.9536-.21H58.1572a.8645.8645,0,0,0-.1977,1.4458,1.5677,1.5677,0,0,0,1.0381.27h.84a2.5352,2.5352,0,0,0,1.2119-.2339A.7652.7652,0,0,0,61.4692,53.1387Zm-2.0639-3.6963a1.4665,1.4665,0,0,0,.9424-.2744A1.0227,1.0227,0,0,0,60.69,48.32v-.31a1.0227,1.0227,0,0,0-.3418-.8482,1.7546,1.7546,0,0,0-1.8843,0,1.0227,1.0227,0,0,0-.3418.8482v.31a1.0227,1.0227,0,0,0,.3418.8482A1.4648,1.4648,0,0,0,59.4053,49.4424Z"/><path class="cls-2" d="M68.0571,52.3945a.9867.9867,0,0,1-.7739-.2881,1.348,1.348,0,0,1-.3179-.7441h-.06a1.6047,1.6047,0,0,1-.66.8765,2.0707,2.0707,0,0,1-1.14.3,2.1469,2.1469,0,0,1-1.5122-.4981,1.7617,1.7617,0,0,1-.54-1.3618,1.5906,1.5906,0,0,1,.6543-1.374,3.4132,3.4132,0,0,1,1.9976-.4741h1.1762v-.564a1.3008,1.3008,0,0,0-.3359-.96,1.4239,1.4239,0,0,0-1.0439-.3359,1.6122,1.6122,0,0,0-.918.2456,2.0268,2.0268,0,0,0-.606.6421l-.6723-.6118a2.367,2.367,0,0,1,.834-.8579,2.6132,2.6132,0,0,1,1.4223-.354,2.6471,2.6471,0,0,1,1.8.5566,1.9824,1.9824,0,0,1,.6363,1.5747v3.2686h.6958v.96Zm-2.7-.7558a1.8689,1.8689,0,0,0,1.0918-.3.902.902,0,0,0,.4321-.7681v-.96H65.6934a2.13,2.13,0,0,0-1.1221.228.7383.7383,0,0,0-.354.66v.24a.788.788,0,0,0,.3061.6655A1.34,1.34,0,0,0,65.3574,51.6387Z"/><path class="cls-2" d="M70.0249,52.3945V46.1787h1.1162V47.187h.06a2.0285,2.0285,0,0,1,.63-.8315,1.7856,1.7856,0,0,1,1.122-.3208,1.8972,1.8972,0,0,1,1.5059.624,2.5947,2.5947,0,0,1,.5459,1.7637v3.9721H73.8892V48.582q0-1.5872-1.3081-1.5874a1.9655,1.9655,0,0,0-.5342.0723,1.5652,1.5652,0,0,0-.4619.21,1.0319,1.0319,0,0,0-.3238.3487.99.99,0,0,0-.12.499v4.27Z"/><path class="cls-2" d="M77.4648,44.8823a.6791.6791,0,0,1-.51-.1679.6126.6126,0,0,1-.1621-.4439v-.168a.6123.6123,0,0,1,.1621-.4438.8581.8581,0,0,1,1.02,0,.612.612,0,0,1,.1616.4438v.168a.6123.6123,0,0,1-.1616.4439A.68.68,0,0,1,77.4648,44.8823Zm-.5639,1.2964h1.1167v6.2158H76.9009Z"/><path class="cls-2" d="M79.4092,52.3945v-.936l3.4443-4.32H79.5176v-.96h4.6679v.8638l-3.5039,4.3921h3.6v.96Z"/><path class="cls-2" d="M90.1973,52.3945a.9875.9875,0,0,1-.7744-.2881,1.34,1.34,0,0,1-.3174-.7441h-.0606a1.6018,1.6018,0,0,1-.66.8765,2.0709,2.0709,0,0,1-1.14.3,2.15,2.15,0,0,1-1.5127-.4981,1.7628,1.7628,0,0,1-.539-1.3618,1.5882,1.5882,0,0,1,.6543-1.374,3.412,3.412,0,0,1,1.997-.4741h1.1768v-.564a1.3045,1.3045,0,0,0-.336-.96,1.4255,1.4255,0,0,0-1.0449-.3359,1.6152,1.6152,0,0,0-.9179.2456,2.0286,2.0286,0,0,0-.6055.6421l-.6719-.6118a2.3549,2.3549,0,0,1,.834-.8579,2.6094,2.6094,0,0,1,1.4219-.354,2.6488,2.6488,0,0,1,1.8.5566,1.9824,1.9824,0,0,1,.6357,1.5747v3.2686h.6963v.96Zm-2.7-.7558a1.8681,1.8681,0,0,0,1.0918-.3.9026.9026,0,0,0,.4326-.7681v-.96H87.833a2.1305,2.1305,0,0,0-1.1221.228.7371.7371,0,0,0-.3535.66v.24a.7877.7877,0,0,0,.3057.6655A1.3391,1.3391,0,0,0,87.4971,51.6387Z"/><path class="cls-2" d="M93.6768,52.3945a1.1494,1.1494,0,0,1-.876-.3174,1.1975,1.1975,0,0,1-.3-.8559V47.1387h-.9961v-.96h.5517a.5668.5668,0,0,0,.4317-.1323.654.654,0,0,0,.1211-.4439v-1.14h1.0078v1.7163h1.332v.96h-1.332v4.2959h1.2363v.96Z"/><path class="cls-2" d="M97,44.8823a.6809.6809,0,0,1-.51-.1679.6147.6147,0,0,1-.1621-.4439v-.168a.6144.6144,0,0,1,.1621-.4438.8589.8589,0,0,1,1.02,0,.61.61,0,0,1,.1622.4438v.168a.6106.6106,0,0,1-.1622.4439A.6817.6817,0,0,1,97,44.8823Zm-.5635,1.2964h1.1162v6.2158H96.4365Z"/><path class="cls-2" d="M101.9082,52.5386a2.8682,2.8682,0,0,1-1.1582-.2281,2.5038,2.5038,0,0,1-.8936-.6538,2.9917,2.9917,0,0,1-.5752-1.0263,4.5082,4.5082,0,0,1,0-2.688,2.9954,2.9954,0,0,1,.5752-1.0259,2.505,2.505,0,0,1,.8936-.6538,3.0557,3.0557,0,0,1,2.3164,0,2.5074,2.5074,0,0,1,.8945.6538,3.0271,3.0271,0,0,1,.5762,1.0259,4.5485,4.5485,0,0,1,0,2.688,3.0233,3.0233,0,0,1-.5762,1.0263,2.5062,2.5062,0,0,1-.8945.6538A2.8651,2.8651,0,0,1,101.9082,52.5386Zm0-.96a1.6064,1.6064,0,0,0,1.1885-.456,1.8594,1.8594,0,0,0,.456-1.3682v-.936a1.8588,1.8588,0,0,0-.456-1.3677,1.7752,1.7752,0,0,0-2.376,0,1.8546,1.8546,0,0,0-.4561,1.3677v.936a1.8553,1.8553,0,0,0,.4561,1.3682A1.604,1.604,0,0,0,101.9082,51.5786Z"/><path class="cls-2" d="M106.2646,52.3945V46.1787h1.1163V47.187h.0605a2.0272,2.0272,0,0,1,.6289-.8315,1.789,1.789,0,0,1,1.1231-.3208,1.9,1.9,0,0,1,1.5058.624,2.597,2.597,0,0,1,.5449,1.7637v3.9721h-1.1152V48.582q0-1.5872-1.3086-1.5874a1.9615,1.9615,0,0,0-.5332.0723,1.577,1.577,0,0,0-.4629.21,1.0311,1.0311,0,0,0-.3232.3487.9892.9892,0,0,0-.12.499v4.27Z"/><path class="cls-2" d="M116.5361,44.8823a.6807.6807,0,0,1-.51-.1679.6105.6105,0,0,1-.1621-.4439v-.168a.61.61,0,0,1,.1621-.4438.8589.8589,0,0,1,1.02,0,.6144.6144,0,0,1,.1621.4438v.168a.6147.6147,0,0,1-.1621.4439A.6833.6833,0,0,1,116.5361,44.8823Zm-.5634,1.2964h1.1152v6.2158h-1.1152Z"/><path class="cls-2" d="M120.9648,52.5386a3.0113,3.0113,0,0,1-1.4589-.3242,3.2919,3.2919,0,0,1-1.0254-.876l.7558-.648a2.5746,2.5746,0,0,0,.7862.6841,2.0733,2.0733,0,0,0,1.0136.24,1.4508,1.4508,0,0,0,.9121-.246.8955.8955,0,0,0,.1026-1.254,1.33,1.33,0,0,0-.7871-.312l-.5274-.0839a4.0585,4.0585,0,0,1-.8164-.1924,2.0974,2.0974,0,0,1-.6357-.3477,1.536,1.536,0,0,1-.4141-.5283,1.694,1.694,0,0,1-.1494-.7437,1.8621,1.8621,0,0,1,.168-.81,1.6031,1.6031,0,0,1,.4677-.5884,2.1078,2.1078,0,0,1,.7139-.354,3.258,3.258,0,0,1,.9063-.12,2.6929,2.6929,0,0,1,2.2441.9961l-.709.6718a1.9965,1.9965,0,0,0-.6172-.5219,1.9012,1.9012,0,0,0-.9541-.2222,1.3,1.3,0,0,0-.8584.24.7942.7942,0,0,0-.2812.6358.6982.6982,0,0,0,.27.6118,1.9226,1.9226,0,0,0,.8106.2764l.5273.0839a2.6547,2.6547,0,0,1,1.4824.6A1.5617,1.5617,0,0,1,123.34,50.57a1.77,1.77,0,0,1-.6357,1.44A2.6409,2.6409,0,0,1,120.9648,52.5386Z"/><path class="cls-2" d="M132.292,52.3945a.9877.9877,0,0,1-.7744-.2881,1.3468,1.3468,0,0,1-.3174-.7441h-.06a1.6111,1.6111,0,0,1-.66.8765,2.0743,2.0743,0,0,1-1.1407.3,2.1459,2.1459,0,0,1-1.5117-.4981,1.7634,1.7634,0,0,1-.54-1.3618,1.5906,1.5906,0,0,1,.6543-1.374,3.4121,3.4121,0,0,1,1.9971-.4741h1.1767v-.564a1.3008,1.3008,0,0,0-.3359-.96,1.4233,1.4233,0,0,0-1.044-.3359,1.6132,1.6132,0,0,0-.9179.2456,2.0187,2.0187,0,0,0-.6055.6421l-.6729-.6118a2.3719,2.3719,0,0,1,.834-.8579,2.6153,2.6153,0,0,1,1.4229-.354,2.6443,2.6443,0,0,1,1.7988.5566,1.983,1.983,0,0,1,.6367,1.5747v3.2686h.6953v.96Zm-2.7-.7558a1.8659,1.8659,0,0,0,1.0918-.3.9.9,0,0,0,.4326-.7681v-.96h-1.1885a2.1265,2.1265,0,0,0-1.1211.228.738.738,0,0,0-.3545.66v.24a.79.79,0,0,0,.3057.6655A1.3431,1.3431,0,0,0,129.5918,51.6387Z"/><path class="cls-2" d="M134.26,52.3945V46.1787h1.1162V47.187h.0595a2.0315,2.0315,0,0,1,.6309-.8315,1.7828,1.7828,0,0,1,1.1211-.3208,1.8946,1.8946,0,0,1,1.5059.624,2.5928,2.5928,0,0,1,.5468,1.7637v3.9721H138.124V48.582q0-1.5872-1.3076-1.5874a1.9706,1.9706,0,0,0-.5352.0723,1.5559,1.5559,0,0,0-.4609.21,1.0341,1.0341,0,0,0-.3242.3487.9892.9892,0,0,0-.12.499v4.27Z"/><path class="cls-2" d="M145.66,52.3945a.9879.9879,0,0,1-.7745-.2881,1.34,1.34,0,0,1-.3173-.7441h-.0606a1.6018,1.6018,0,0,1-.66.8765,2.0711,2.0711,0,0,1-1.14.3,2.15,2.15,0,0,1-1.5127-.4981,1.7628,1.7628,0,0,1-.5391-1.3618,1.5882,1.5882,0,0,1,.6543-1.374,3.4125,3.4125,0,0,1,1.9971-.4741h1.1768v-.564a1.3045,1.3045,0,0,0-.336-.96,1.4255,1.4255,0,0,0-1.0449-.3359,1.6158,1.6158,0,0,0-.918.2456,2.03,2.03,0,0,0-.6054.6421l-.6719-.6118a2.3549,2.3549,0,0,1,.834-.8579,2.6094,2.6094,0,0,1,1.4219-.354,2.6488,2.6488,0,0,1,1.8.5566A1.9824,1.9824,0,0,1,145.6,48.166v3.2686h.6963v.96Zm-2.7-.7558a1.8681,1.8681,0,0,0,1.0918-.3.9028.9028,0,0,0,.4326-.7681v-.96h-1.1885a2.1305,2.1305,0,0,0-1.1221.228.7371.7371,0,0,0-.3535.66v.24a.7877.7877,0,0,0,.3057.6655A1.3391,1.3391,0,0,0,142.96,51.6387Z"/><path class="cls-2" d="M148.791,52.3945a1.138,1.138,0,0,1-.8691-.312,1.1572,1.1572,0,0,1-.2949-.8281v-7.74h1.1171v7.92h.8868v.96Z"/><path class="cls-2" d="M154.6836,46.1787h1.08l-2.6992,7.5718a3.2115,3.2115,0,0,1-.2286.4922,1.0041,1.0041,0,0,1-.2939.3237,1.1767,1.1767,0,0,1-.4141.1743,2.8207,2.8207,0,0,1-.6006.0537h-.6113v-.96h1.0195l.42-1.1983-2.3028-6.4575h1.1153l1.38,3.9639.3242,1.1616h.06l.36-1.1616Z"/><path class="cls-2" d="M156.34,52.3945v-.936l3.4444-4.32h-3.336v-.96h4.668v.8638l-3.5039,4.3921h3.6v.96Z"/><path class="cls-2" d="M164.8594,52.5386a2.8368,2.8368,0,0,1-1.17-.2339,2.5435,2.5435,0,0,1-.8877-.6543,2.9308,2.9308,0,0,1-.5635-1.02,4.6324,4.6324,0,0,1,0-2.6817,2.9294,2.9294,0,0,1,.5635-1.0263,2.541,2.541,0,0,1,.8877-.6538,2.8272,2.8272,0,0,1,1.17-.2339,2.7562,2.7562,0,0,1,1.1582.2329,2.4608,2.4608,0,0,1,.8584.64,2.782,2.782,0,0,1,.5283.9688,3.9619,3.9619,0,0,1,.18,1.2075V49.55h-4.38v.2524a1.8154,1.8154,0,0,0,.4561,1.2779,1.6686,1.6686,0,0,0,1.2959.498,1.8549,1.8549,0,0,0,1.0078-.2641,1.902,1.902,0,0,0,.6728-.7442l.7188.6162a2.4058,2.4058,0,0,1-.9717.9839A3.0378,3.0378,0,0,1,164.8594,52.5386Zm0-5.604a1.6794,1.6794,0,0,0-.666.1313,1.5665,1.5665,0,0,0-.8692.918,1.9933,1.9933,0,0,0-.12.7031v.0835h3.1924v-.1191a1.82,1.82,0,0,0-.4141-1.2456A1.42,1.42,0,0,0,164.8594,46.9346Z"/><path class="cls-2" d="M173.0439,51.3862h-.0478a1.6886,1.6886,0,0,1-.6777.8614,2.0434,2.0434,0,0,1-1.11.291,2.3939,2.3939,0,0,1-1.05-.2222,2.1381,2.1381,0,0,1-.7861-.6479,3.0263,3.0263,0,0,1-.4922-1.0259,5.556,5.556,0,0,1,0-2.7119,3.0334,3.0334,0,0,1,.4922-1.0264,2.1482,2.1482,0,0,1,.7861-.648,2.3952,2.3952,0,0,1,1.05-.2216,2.0425,2.0425,0,0,1,1.11.291,1.69,1.69,0,0,1,.6777.8613h.0478V43.5146H174.16v8.88h-1.1163Zm-1.5117.1924a2.0048,2.0048,0,0,0,.5879-.0845,1.4835,1.4835,0,0,0,.48-.2412,1.2475,1.2475,0,0,0,.3242-.3618.89.89,0,0,0,.12-.4585v-2.292a.89.89,0,0,0-.12-.4585A1.2475,1.2475,0,0,0,172.6,47.32a1.4855,1.4855,0,0,0-.48-.2412,2.0048,2.0048,0,0,0-.5879-.0845,1.5309,1.5309,0,0,0-1.1943.4825,1.8294,1.8294,0,0,0-.4375,1.2788v1.0615a1.83,1.83,0,0,0,.4375,1.2788A1.5308,1.5308,0,0,0,171.5322,51.5786Z"/><path class="cls-2" d="M180.4834,52.3945a1.1494,1.1494,0,0,1-.876-.3174,1.1975,1.1975,0,0,1-.3-.8559V47.1387h-.9961v-.96h.5518a.5665.5665,0,0,0,.4316-.1323.654.654,0,0,0,.1211-.4439v-1.14h1.0078v1.7163h1.3321v.96h-1.3321v4.2959H181.66v.96Z"/><path class="cls-2" d="M185.584,52.5386a2.8613,2.8613,0,0,1-1.1582-.2281,2.5074,2.5074,0,0,1-.8946-.6538,3.0248,3.0248,0,0,1-.5761-1.0263,4.5485,4.5485,0,0,1,0-2.688,3.0286,3.0286,0,0,1,.5761-1.0259,2.5086,2.5086,0,0,1,.8946-.6538,3.0532,3.0532,0,0,1,2.3154,0,2.4971,2.4971,0,0,1,.8936.6538,3.0119,3.0119,0,0,1,.5761,1.0259,4.5061,4.5061,0,0,1,0,2.688,3.0082,3.0082,0,0,1-.5761,1.0263,2.4959,2.4959,0,0,1-.8936.6538A2.86,2.86,0,0,1,185.584,52.5386Zm0-.96a1.6072,1.6072,0,0,0,1.1875-.456,1.8594,1.8594,0,0,0,.456-1.3682v-.936a1.8588,1.8588,0,0,0-.456-1.3677,1.7752,1.7752,0,0,0-2.376,0,1.8588,1.8588,0,0,0-.456,1.3677v.936a1.8594,1.8594,0,0,0,.456,1.3682A1.6064,1.6064,0,0,0,185.584,51.5786Z"/><path class="cls-2" d="M195.123,52.5386a2.9154,2.9154,0,0,1-1.1875-.2281,2.4308,2.4308,0,0,1-.8759-.6479,2.8394,2.8394,0,0,1-.5459-1.0259,4.5885,4.5885,0,0,1-.1856-1.35,4.53,4.53,0,0,1,.1856-1.3442,2.91,2.91,0,0,1,.5459-1.0259,2.4084,2.4084,0,0,1,.8759-.6538,2.9154,2.9154,0,0,1,1.1875-.228,2.5373,2.5373,0,0,1,1.5.4077,2.422,2.422,0,0,1,.8526,1.08l-.9238.456a1.44,1.44,0,0,0-.5225-.72,1.51,1.51,0,0,0-.9063-.2637,1.4655,1.4655,0,0,0-1.205.4917,1.9254,1.9254,0,0,0-.4024,1.26v1.08a1.9226,1.9226,0,0,0,.4024,1.26,1.464,1.464,0,0,0,1.205.4922,1.6033,1.6033,0,0,0,.961-.2759,1.9877,1.9877,0,0,0,.623-.78l.8164.5039a2.4443,2.4443,0,0,1-.9,1.11A2.6376,2.6376,0,0,1,195.123,52.5386Z"/><path class="cls-2" d="M198.8311,52.3945V46.1787h1.1162v1.188h.06a1.7221,1.7221,0,0,1,.2149-.4443,1.5536,1.5536,0,0,1,.36-.378,1.837,1.837,0,0,1,.5107-.2636,2.0254,2.0254,0,0,1,.6661-.1021h.3711v1.1157h-.5518a2.1767,2.1767,0,0,0-1.2061.2823.8517.8517,0,0,0-.4257.7378v4.08Z"/><path class="cls-2" d="M205.6475,52.5386a2.8376,2.8376,0,0,1-1.17-.2339,2.5362,2.5362,0,0,1-.8877-.6543,2.934,2.934,0,0,1-.5644-1.02,4.6548,4.6548,0,0,1,0-2.6817,2.9325,2.9325,0,0,1,.5644-1.0263,2.5337,2.5337,0,0,1,.8877-.6538,2.828,2.828,0,0,1,1.17-.2339,2.76,2.76,0,0,1,1.1582.2329,2.47,2.47,0,0,1,.8584.64,2.7641,2.7641,0,0,1,.5273.9688,3.9314,3.9314,0,0,1,.18,1.2075V49.55h-4.3789v.2524a1.8193,1.8193,0,0,0,.4551,1.2779,1.6707,1.6707,0,0,0,1.2968.498,1.8574,1.8574,0,0,0,1.0079-.2641,1.9,1.9,0,0,0,.6718-.7442l.72.6162a2.4181,2.4181,0,0,1-.9717.9839A3.0381,3.0381,0,0,1,205.6475,52.5386Zm0-5.604a1.6767,1.6767,0,0,0-.6661.1313,1.5905,1.5905,0,0,0-.5283.3633,1.6139,1.6139,0,0,0-.3418.5547,1.9932,1.9932,0,0,0-.1191.7031v.0835h3.1914v-.1191a1.82,1.82,0,0,0-.4141-1.2456A1.4176,1.4176,0,0,0,205.6475,46.9346Z"/><path class="cls-2" d="M214.4189,52.3945a.9878.9878,0,0,1-.7744-.2881,1.3482,1.3482,0,0,1-.3174-.7441h-.06a1.6113,1.6113,0,0,1-.66.8765,2.0742,2.0742,0,0,1-1.1406.3,2.1458,2.1458,0,0,1-1.5117-.4981,1.7635,1.7635,0,0,1-.54-1.3618,1.5906,1.5906,0,0,1,.6543-1.374,3.4125,3.4125,0,0,1,1.9971-.4741h1.1768v-.564a1.3,1.3,0,0,0-.336-.96,1.4229,1.4229,0,0,0-1.0439-.3359,1.6135,1.6135,0,0,0-.918.2456,2.02,2.02,0,0,0-.6055.6421l-.6728-.6118a2.3711,2.3711,0,0,1,.834-.8579,2.615,2.615,0,0,1,1.4228-.354,2.6447,2.6447,0,0,1,1.7989.5566,1.983,1.983,0,0,1,.6367,1.5747v3.2686h.6953v.96Zm-2.7-.7558a1.8657,1.8657,0,0,0,1.0918-.3.9.9,0,0,0,.4327-.7681v-.96h-1.1885a2.1262,2.1262,0,0,0-1.1211.228.738.738,0,0,0-.3545.66v.24a.79.79,0,0,0,.3057.6655A1.3428,1.3428,0,0,0,211.7187,51.6387Z"/><path class="cls-2" d="M217.8984,52.3945a1.1472,1.1472,0,0,1-.875-.3174,1.1936,1.1936,0,0,1-.3007-.8559V47.1387h-.9961v-.96h.5527a.5679.5679,0,0,0,.4316-.1323.6543.6543,0,0,0,.12-.4439v-1.14H217.84v1.7163h1.3311v.96H217.84v4.2959h1.2354v.96Z"/><path class="cls-2" d="M222.9863,52.5386a2.8371,2.8371,0,0,1-1.17-.2339,2.5445,2.5445,0,0,1-.8877-.6543,2.9325,2.9325,0,0,1-.5635-1.02,4.6346,4.6346,0,0,1,0-2.6817,2.931,2.931,0,0,1,.5635-1.0263,2.5419,2.5419,0,0,1,.8877-.6538,2.8275,2.8275,0,0,1,1.17-.2339,2.7559,2.7559,0,0,1,1.1582.2329,2.459,2.459,0,0,1,.8584.64,2.78,2.78,0,0,1,.5283.9688,3.9588,3.9588,0,0,1,.18,1.2075V49.55h-4.38v.2524a1.8154,1.8154,0,0,0,.456,1.2779,1.6686,1.6686,0,0,0,1.2959.498,1.8549,1.8549,0,0,0,1.0078-.2641,1.9022,1.9022,0,0,0,.6729-.7442l.7187.6162a2.4046,2.4046,0,0,1-.9717.9839A3.0376,3.0376,0,0,1,222.9863,52.5386Zm0-5.604a1.68,1.68,0,0,0-.666.1313,1.5667,1.5667,0,0,0-.8691.918,1.9933,1.9933,0,0,0-.12.7031v.0835h3.1923v-.1191a1.82,1.82,0,0,0-.414-1.2456A1.42,1.42,0,0,0,222.9863,46.9346Z"/><path class="cls-2" d="M50.7051,66.7944a.9864.9864,0,0,1-.7739-.2881,1.3472,1.3472,0,0,1-.3179-.7441h-.06a1.6041,1.6041,0,0,1-.66.8765,2.0709,2.0709,0,0,1-1.14.3,2.1472,2.1472,0,0,1-1.5122-.4981,1.7617,1.7617,0,0,1-.54-1.3618,1.59,1.59,0,0,1,.6543-1.374,3.4127,3.4127,0,0,1,1.9975-.4741h1.1763v-.564a1.3008,1.3008,0,0,0-.3359-.96,1.4241,1.4241,0,0,0-1.044-.3359,1.6124,1.6124,0,0,0-.918.2456,2.0265,2.0265,0,0,0-.6059.6421l-.6724-.6118a2.367,2.367,0,0,1,.834-.8579,2.6135,2.6135,0,0,1,1.4224-.354,2.6471,2.6471,0,0,1,1.8.5566,1.9827,1.9827,0,0,1,.6362,1.5747v3.2686h.6958v.96Zm-2.7-.7558a1.8691,1.8691,0,0,0,1.0918-.3.902.902,0,0,0,.4321-.7681v-.96h-1.188a2.1305,2.1305,0,0,0-1.1221.228.7387.7387,0,0,0-.354.66v.24a.7881.7881,0,0,0,.3062.6655A1.34,1.34,0,0,0,48.0054,66.0386Z"/><path class="cls-2" d="M57.8569,66.9385a2.9144,2.9144,0,0,1-1.188-.2281,2.4266,2.4266,0,0,1-.8759-.6479,2.8317,2.8317,0,0,1-.5459-1.0259,4.5881,4.5881,0,0,1-.1861-1.35,4.5291,4.5291,0,0,1,.1861-1.3442,2.9017,2.9017,0,0,1,.5459-1.0259,2.4042,2.4042,0,0,1,.8759-.6538,2.9145,2.9145,0,0,1,1.188-.228,2.5415,2.5415,0,0,1,1.5.4077,2.421,2.421,0,0,1,.8521,1.08l-.9238.456a1.4391,1.4391,0,0,0-.522-.72,1.5109,1.5109,0,0,0-.9063-.2637,1.4669,1.4669,0,0,0-1.206.4917,1.9279,1.9279,0,0,0-.4019,1.26v1.08a1.9251,1.9251,0,0,0,.4019,1.26,1.4654,1.4654,0,0,0,1.206.4922,1.6012,1.6012,0,0,0,.96-.2759,1.9887,1.9887,0,0,0,.624-.78l.8159.5039a2.45,2.45,0,0,1-.9,1.11A2.64,2.64,0,0,1,57.8569,66.9385Z"/><path class="cls-2" d="M66.0889,66.7944a.9867.9867,0,0,1-.774-.2881,1.3479,1.3479,0,0,1-.3178-.7441h-.06a1.6041,1.6041,0,0,1-.66.8765,2.0711,2.0711,0,0,1-1.14.3A2.1472,2.1472,0,0,1,61.625,66.44a1.7617,1.7617,0,0,1-.54-1.3618,1.59,1.59,0,0,1,.6543-1.374,3.4127,3.4127,0,0,1,1.9975-.4741h1.1763v-.564a1.3,1.3,0,0,0-.336-.96,1.4237,1.4237,0,0,0-1.0439-.3359,1.6124,1.6124,0,0,0-.918.2456,2.0254,2.0254,0,0,0-.6059.6421l-.6724-.6118a2.367,2.367,0,0,1,.834-.8579,2.6135,2.6135,0,0,1,1.4224-.354,2.6474,2.6474,0,0,1,1.8.5566,1.9827,1.9827,0,0,1,.6362,1.5747v3.2686h.6958v.96Zm-2.7-.7558a1.8691,1.8691,0,0,0,1.0918-.3.9023.9023,0,0,0,.4321-.7681v-.96h-1.188a2.1305,2.1305,0,0,0-1.1221.228.7387.7387,0,0,0-.354.66v.24a.7881.7881,0,0,0,.3062.6655A1.34,1.34,0,0,0,63.3892,66.0386Z"/><path class="cls-2" d="M69.2207,66.7944a1.14,1.14,0,0,1-.87-.312,1.1589,1.1589,0,0,1-.294-.8281v-7.74h1.1163v7.92h.8876v.96Z"/><path class="cls-2" d="M73.7446,66.9385a2.9144,2.9144,0,0,1-1.188-.2281,2.4266,2.4266,0,0,1-.8759-.6479,2.8317,2.8317,0,0,1-.5459-1.0259,4.5881,4.5881,0,0,1-.1861-1.35,4.5291,4.5291,0,0,1,.1861-1.3442,2.9017,2.9017,0,0,1,.5459-1.0259,2.4042,2.4042,0,0,1,.8759-.6538,2.9145,2.9145,0,0,1,1.188-.228,2.5415,2.5415,0,0,1,1.5.4077,2.421,2.421,0,0,1,.8521,1.08l-.9238.456a1.44,1.44,0,0,0-.522-.72,1.5109,1.5109,0,0,0-.9063-.2637,1.4669,1.4669,0,0,0-1.206.4917,1.9279,1.9279,0,0,0-.4019,1.26v1.08a1.9251,1.9251,0,0,0,.4019,1.26,1.4654,1.4654,0,0,0,1.206.4922,1.6012,1.6012,0,0,0,.96-.2759,1.99,1.99,0,0,0,.624-.78l.8159.5039a2.45,2.45,0,0,1-.9,1.11A2.64,2.64,0,0,1,73.7446,66.9385Z"/><path class="cls-2" d="M81.2568,65.7861h-.0595a2.17,2.17,0,0,1-.2227.4336,1.5206,1.5206,0,0,1-.3476.3682,1.701,1.701,0,0,1-.4981.2554,2.1474,2.1474,0,0,1-.6719.0952,1.9141,1.9141,0,0,1-1.5122-.624,2.5753,2.5753,0,0,1-.5522-1.7642V60.5786h1.1162v3.8125q0,1.5872,1.3193,1.5874a2.0846,2.0846,0,0,0,.5225-.0664,1.3191,1.3191,0,0,0,.456-.21,1.1585,1.1585,0,0,0,.3243-.36.9885.9885,0,0,0,.1259-.5054V60.5786H82.373v6.2158H81.2568Z"/><path class="cls-2" d="M85.5039,66.7944a1.138,1.138,0,0,1-.8691-.312,1.1572,1.1572,0,0,1-.295-.8281v-7.74H85.457v7.92h.8867v.96Z"/><path class="cls-2" d="M92.2,66.7944a.9877.9877,0,0,1-.7744-.2881,1.3468,1.3468,0,0,1-.3174-.7441h-.06a1.6111,1.6111,0,0,1-.66.8765,2.0743,2.0743,0,0,1-1.1407.3,2.1459,2.1459,0,0,1-1.5117-.4981,1.7638,1.7638,0,0,1-.54-1.3618,1.5906,1.5906,0,0,1,.6543-1.374,3.4121,3.4121,0,0,1,1.9971-.4741h1.1767v-.564a1.3008,1.3008,0,0,0-.3359-.96,1.4233,1.4233,0,0,0-1.044-.3359,1.6132,1.6132,0,0,0-.9179.2456,2.0187,2.0187,0,0,0-.6055.6421l-.6729-.6118a2.3719,2.3719,0,0,1,.834-.8579,2.6153,2.6153,0,0,1,1.4229-.354,2.6443,2.6443,0,0,1,1.7988.5566,1.983,1.983,0,0,1,.6367,1.5747v3.2686h.6953v.96Zm-2.7-.7558a1.8659,1.8659,0,0,0,1.0918-.3.9.9,0,0,0,.4326-.7681v-.96H89.8359a2.1265,2.1265,0,0,0-1.1211.228.738.738,0,0,0-.3544.66v.24a.79.79,0,0,0,.3056.6655A1.3431,1.3431,0,0,0,89.5,66.0386Z"/><path class="cls-2" d="M95.68,66.7944a1.1474,1.1474,0,0,1-.875-.3173,1.1941,1.1941,0,0,1-.3008-.856V61.5386h-.9961v-.96h.5527a.5681.5681,0,0,0,.4317-.1323.6543.6543,0,0,0,.12-.4439v-1.14h1.0088v1.7163h1.331v.96h-1.331v4.2959h1.2353v.96Z"/><path class="cls-2" d="M100.7676,66.9385a2.8352,2.8352,0,0,1-1.17-.2339A2.5435,2.5435,0,0,1,98.71,66.05a2.9308,2.9308,0,0,1-.5635-1.02,4.6324,4.6324,0,0,1,0-2.6817,2.9294,2.9294,0,0,1,.5635-1.0263,2.541,2.541,0,0,1,.8877-.6538,2.8272,2.8272,0,0,1,1.17-.2339,2.7562,2.7562,0,0,1,1.1582.2329,2.4608,2.4608,0,0,1,.8584.64,2.782,2.782,0,0,1,.5283.9688,3.9619,3.9619,0,0,1,.18,1.2075V63.95h-4.38v.2524a1.8154,1.8154,0,0,0,.4561,1.2779,1.6686,1.6686,0,0,0,1.2959.498,1.8549,1.8549,0,0,0,1.0078-.2641,1.902,1.902,0,0,0,.6728-.7442l.7188.6162a2.4058,2.4058,0,0,1-.9717.9839A3.0376,3.0376,0,0,1,100.7676,66.9385Zm0-5.604a1.6794,1.6794,0,0,0-.666.1313,1.5665,1.5665,0,0,0-.8692.918,1.9933,1.9933,0,0,0-.12.7031V63.17h3.1924v-.1191a1.82,1.82,0,0,0-.4141-1.2456A1.42,1.42,0,0,0,100.7676,61.3345Z"/><path class="cls-2" d="M108.9521,65.7861h-.0478a1.6886,1.6886,0,0,1-.6777.8614,2.0434,2.0434,0,0,1-1.11.291,2.3939,2.3939,0,0,1-1.05-.2222,2.1381,2.1381,0,0,1-.7861-.6479,3.0281,3.0281,0,0,1-.4922-1.0259,5.556,5.556,0,0,1,0-2.7119,3.0353,3.0353,0,0,1,.4922-1.0264,2.1482,2.1482,0,0,1,.7861-.648,2.3952,2.3952,0,0,1,1.05-.2216,2.0425,2.0425,0,0,1,1.11.291,1.69,1.69,0,0,1,.6777.8613h.0478V57.9146h1.1163v8.88h-1.1163Zm-1.5117.1924a2.0048,2.0048,0,0,0,.5879-.0845,1.4835,1.4835,0,0,0,.48-.2412,1.2461,1.2461,0,0,0,.3242-.3618.89.89,0,0,0,.12-.4585v-2.292a.89.89,0,0,0-.12-.4585,1.2461,1.2461,0,0,0-.3242-.3618,1.4855,1.4855,0,0,0-.48-.2412,2.0081,2.0081,0,0,0-.5879-.0845,1.5309,1.5309,0,0,0-1.1943.4825,1.8294,1.8294,0,0,0-.4375,1.2788v1.0615a1.83,1.83,0,0,0,.4375,1.2788A1.5308,1.5308,0,0,0,107.44,65.9785Z"/><path class="cls-2" d="M119.3916,66.7944a.9878.9878,0,0,1-.7744-.2881,1.3468,1.3468,0,0,1-.3174-.7441h-.06a1.6111,1.6111,0,0,1-.66.8765,2.0742,2.0742,0,0,1-1.1406.3,2.146,2.146,0,0,1-1.5118-.4981,1.7638,1.7638,0,0,1-.54-1.3618,1.5906,1.5906,0,0,1,.6543-1.374,3.4123,3.4123,0,0,1,1.9971-.4741h1.1767v-.564a1.3008,1.3008,0,0,0-.3359-.96,1.4233,1.4233,0,0,0-1.044-.3359,1.6132,1.6132,0,0,0-.9179.2456,2.0187,2.0187,0,0,0-.6055.6421l-.6729-.6118a2.3719,2.3719,0,0,1,.834-.8579,2.6153,2.6153,0,0,1,1.4229-.354,2.6443,2.6443,0,0,1,1.7988.5566,1.983,1.983,0,0,1,.6367,1.5747v3.2686h.6953v.96Zm-2.7-.7558a1.8659,1.8659,0,0,0,1.0918-.3.9.9,0,0,0,.4326-.7681v-.96h-1.1885a2.1265,2.1265,0,0,0-1.1211.228.738.738,0,0,0-.3544.66v.24a.79.79,0,0,0,.3056.6655A1.3431,1.3431,0,0,0,116.6914,66.0386Z"/><path class="cls-2" d="M123.2676,66.9385a3.0015,3.0015,0,0,1-1.4571-.3242,3.2962,3.2962,0,0,1-1.0263-.876l.7558-.648a2.5528,2.5528,0,0,0,.7862.6841,2.0708,2.0708,0,0,0,1.0136.24,1.4493,1.4493,0,0,0,.9122-.246.8917.8917,0,0,0,.1015-1.254,1.3231,1.3231,0,0,0-.7851-.312l-.5284-.0839a4.0323,4.0323,0,0,1-.8154-.1924,2.103,2.103,0,0,1-.6367-.3477,1.5242,1.5242,0,0,1-.4141-.5283,1.708,1.708,0,0,1-.15-.7437,1.8766,1.8766,0,0,1,.168-.81,1.6162,1.6162,0,0,1,.4688-.5884,2.09,2.09,0,0,1,.7138-.354,3.2564,3.2564,0,0,1,.9053-.12,2.9393,2.9393,0,0,1,1.32.2636,2.8978,2.8978,0,0,1,.9238.7325l-.707.6718a2.006,2.006,0,0,0-.6191-.5219,1.8979,1.8979,0,0,0-.9532-.2222,1.3,1.3,0,0,0-.8584.24.7923.7923,0,0,0-.2822.6358.6965.6965,0,0,0,.27.6118,1.9279,1.9279,0,0,0,.81.2764l.5283.0839a2.6422,2.6422,0,0,1,1.4815.6,1.56,1.56,0,0,1,.4511,1.1636,1.7735,1.7735,0,0,1-.6367,1.44A2.6418,2.6418,0,0,1,123.2676,66.9385Z"/><path class="cls-2" d="M129.0762,66.9385a3.0117,3.0117,0,0,1-1.459-.3242,3.2919,3.2919,0,0,1-1.0254-.876l.7559-.648a2.5742,2.5742,0,0,0,.7861.6841,2.0737,2.0737,0,0,0,1.0137.24,1.4508,1.4508,0,0,0,.9121-.246.8956.8956,0,0,0,.1025-1.254,1.33,1.33,0,0,0-.7871-.312l-.5273-.0839a4.06,4.06,0,0,1-.8165-.1924,2.0974,2.0974,0,0,1-.6357-.3477,1.536,1.536,0,0,1-.4141-.5283,1.6954,1.6954,0,0,1-.1494-.7437,1.8621,1.8621,0,0,1,.168-.81,1.6034,1.6034,0,0,1,.4678-.5884,2.1073,2.1073,0,0,1,.7138-.354,3.2585,3.2585,0,0,1,.9063-.12,2.6929,2.6929,0,0,1,2.2441.9961l-.709.6718a1.9972,1.9972,0,0,0-.6171-.5219,1.9017,1.9017,0,0,0-.9541-.2222,1.3,1.3,0,0,0-.8584.24.7943.7943,0,0,0-.2813.6358.6984.6984,0,0,0,.27.6118,1.9226,1.9226,0,0,0,.8106.2764l.5273.0839a2.6551,2.6551,0,0,1,1.4825.6,1.5617,1.5617,0,0,1,.4492,1.1636,1.77,1.77,0,0,1-.6358,1.44A2.6408,2.6408,0,0,1,129.0762,66.9385Z"/><path class="cls-2" d="M135.4238,66.9385a2.8325,2.8325,0,0,1-1.17-.2339,2.54,2.54,0,0,1-.8887-.6543,2.934,2.934,0,0,1-.5644-1.02,4.6548,4.6548,0,0,1,0-2.6817,2.9325,2.9325,0,0,1,.5644-1.0263,2.5375,2.5375,0,0,1,.8887-.6538,2.8246,2.8246,0,0,1,1.17-.2339,2.7621,2.7621,0,0,1,1.1582.2329,2.4657,2.4657,0,0,1,.8575.64,2.7481,2.7481,0,0,1,.5273.9688,3.9015,3.9015,0,0,1,.1807,1.2075V63.95h-4.38v.2524a1.82,1.82,0,0,0,.456,1.2779,1.6673,1.6673,0,0,0,1.2959.498,1.8525,1.8525,0,0,0,1.0078-.2641,1.8925,1.8925,0,0,0,.6719-.7442l.7207.6162a2.4259,2.4259,0,0,1-.9726.9839A3.0344,3.0344,0,0,1,135.4238,66.9385Zm0-5.604a1.67,1.67,0,0,0-.666.1313,1.58,1.58,0,0,0-.5283.3633,1.5974,1.5974,0,0,0-.3418.5547,1.9933,1.9933,0,0,0-.12.7031V63.17h3.1914v-.1191a1.8149,1.8149,0,0,0-.4141-1.2456A1.4155,1.4155,0,0,0,135.4238,61.3345Z"/><path class="cls-2" d="M141.58,66.9385a3.0117,3.0117,0,0,1-1.459-.3242,3.2919,3.2919,0,0,1-1.0254-.876l.7559-.648a2.5742,2.5742,0,0,0,.7861.6841,2.0737,2.0737,0,0,0,1.0137.24,1.4508,1.4508,0,0,0,.9121-.246.8956.8956,0,0,0,.1025-1.254,1.33,1.33,0,0,0-.7871-.312l-.5273-.0839a4.0569,4.0569,0,0,1-.8164-.1924,2.0967,2.0967,0,0,1-.6358-.3477,1.5345,1.5345,0,0,1-.414-.5283,1.694,1.694,0,0,1-.1495-.7437,1.8621,1.8621,0,0,1,.168-.81,1.6034,1.6034,0,0,1,.4678-.5884,2.1082,2.1082,0,0,1,.7138-.354,3.2585,3.2585,0,0,1,.9063-.12,2.6929,2.6929,0,0,1,2.2441.9961l-.7089.6718a1.9988,1.9988,0,0,0-.6172-.5219,1.9017,1.9017,0,0,0-.9541-.2222,1.3,1.3,0,0,0-.8584.24.7943.7943,0,0,0-.2813.6358.6984.6984,0,0,0,.2695.6118,1.9226,1.9226,0,0,0,.8106.2764l.5273.0839a2.6551,2.6551,0,0,1,1.4825.6,1.5617,1.5617,0,0,1,.4492,1.1636,1.77,1.77,0,0,1-.6358,1.44A2.6408,2.6408,0,0,1,141.58,66.9385Z"/><path class="cls-2" d="M147.3867,66.9385a3.0008,3.0008,0,0,1-1.457-.3242,3.2954,3.2954,0,0,1-1.0264-.876l.7559-.648a2.5513,2.5513,0,0,0,.7861.6841,2.0709,2.0709,0,0,0,1.0137.24,1.4488,1.4488,0,0,0,.9121-.246.8919.8919,0,0,0,.1016-1.254,1.3234,1.3234,0,0,0-.7852-.312l-.5283-.0839a4.0333,4.0333,0,0,1-.8155-.1924,2.103,2.103,0,0,1-.6367-.3477,1.5239,1.5239,0,0,1-.414-.5283,1.708,1.708,0,0,1-.15-.7437,1.8766,1.8766,0,0,1,.1679-.81,1.6173,1.6173,0,0,1,.4688-.5884,2.09,2.09,0,0,1,.7139-.354,3.2551,3.2551,0,0,1,.9052-.12,2.939,2.939,0,0,1,1.32.2636,2.8981,2.8981,0,0,1,.9239.7325l-.7071.6718a2.006,2.006,0,0,0-.6191-.5219,1.8975,1.8975,0,0,0-.9531-.2222,1.3,1.3,0,0,0-.8584.24.792.792,0,0,0-.2822.6358.6963.6963,0,0,0,.27.6118,1.9274,1.9274,0,0,0,.8095.2764l.5284.0839a2.6418,2.6418,0,0,1,1.4814.6,1.5593,1.5593,0,0,1,.4512,1.1636,1.7735,1.7735,0,0,1-.6367,1.44A2.6423,2.6423,0,0,1,147.3867,66.9385Z"/><path class="cls-2" d="M151.3594,66.7944V60.5786h1.1152v1.0083h.0606a2.1249,2.1249,0,0,1,.6171-.814,1.5925,1.5925,0,0,1,1.0391-.3383,2.2117,2.2117,0,0,1,1.1338.2973,1.7476,1.7476,0,0,1,.75.9512H156.1a1.8625,1.8625,0,0,1,.6416-.874,1.9607,1.9607,0,0,1,1.2539-.3745,1.8136,1.8136,0,0,1,1.4639.624,2.6557,2.6557,0,0,1,.5273,1.7637v3.9721h-1.1152V62.9819a1.9255,1.9255,0,0,0-.3066-1.19,1.1264,1.1264,0,0,0-.9532-.397,1.8391,1.8391,0,0,0-.5224.0723,1.4368,1.4368,0,0,0-.4385.21,1.0026,1.0026,0,0,0-.42.8477v4.2695h-1.1153V62.9819q0-1.5872-1.248-1.5874a1.8559,1.8559,0,0,0-.5156.0723,1.4175,1.4175,0,0,0-.4444.21,1.08,1.08,0,0,0-.3115.3487.99.99,0,0,0-.1211.499v4.2695Z"/><path class="cls-2" d="M164.26,66.9385a2.8327,2.8327,0,0,1-1.17-.2339,2.5387,2.5387,0,0,1-.8886-.6543,2.9326,2.9326,0,0,1-.5645-1.02,4.6571,4.6571,0,0,1,0-2.6817,2.9311,2.9311,0,0,1,.5645-1.0263,2.5362,2.5362,0,0,1,.8886-.6538,2.8247,2.8247,0,0,1,1.17-.2339,2.7627,2.7627,0,0,1,1.1582.2329,2.4653,2.4653,0,0,1,.8574.64,2.7481,2.7481,0,0,1,.5273.9688,3.9015,3.9015,0,0,1,.1807,1.2075V63.95h-4.38v.2524a1.82,1.82,0,0,0,.4561,1.2779,1.6671,1.6671,0,0,0,1.2959.498,1.8525,1.8525,0,0,0,1.0078-.2641,1.8925,1.8925,0,0,0,.6719-.7442l.7207.6162a2.4262,2.4262,0,0,1-.9727.9839A3.034,3.034,0,0,1,164.26,66.9385Zm0-5.604a1.67,1.67,0,0,0-.6661.1313,1.58,1.58,0,0,0-.5283.3633,1.5989,1.5989,0,0,0-.3418.5547,1.9956,1.9956,0,0,0-.12.7031V63.17h3.1914v-.1191a1.8153,1.8153,0,0,0-.414-1.2456A1.4157,1.4157,0,0,0,164.26,61.3345Z"/><path class="cls-2" d="M168.5068,66.7944V60.5786h1.1162v1.0083h.0606a2.0264,2.0264,0,0,1,.6289-.8315,1.7889,1.7889,0,0,1,1.123-.3208,1.9,1.9,0,0,1,1.5059.624,2.597,2.597,0,0,1,.5449,1.7637v3.9721h-1.1152V62.9819q0-1.5872-1.3086-1.5874a1.9615,1.9615,0,0,0-.5332.0723,1.577,1.577,0,0,0-.4629.21,1.0311,1.0311,0,0,0-.3232.3487.9893.9893,0,0,0-.12.499v4.2695Z"/><path class="cls-2" d="M176.9062,66.7944a1.1475,1.1475,0,0,1-.875-.3173,1.1945,1.1945,0,0,1-.3007-.856V61.5386h-.9961v-.96h.5527a.5679.5679,0,0,0,.4316-.1323.6543.6543,0,0,0,.12-.4439v-1.14h1.0088v1.7163h1.331v.96h-1.331v4.2959h1.2353v.96Z"/><path class="cls-2" d="M184.8867,66.9385a2.8651,2.8651,0,0,1-1.1582-.2281,2.507,2.507,0,0,1-.8945-.6538,3.0049,3.0049,0,0,1-.5752-1.0263,4.5272,4.5272,0,0,1,0-2.688,3.0086,3.0086,0,0,1,.5752-1.0259,2.5082,2.5082,0,0,1,.8945-.6538,3.0557,3.0557,0,0,1,2.3164,0,2.505,2.505,0,0,1,.8936.6538,3.0119,3.0119,0,0,1,.5761,1.0259,4.5272,4.5272,0,0,1,0,2.688,3.0082,3.0082,0,0,1-.5761,1.0263,2.5038,2.5038,0,0,1-.8936.6538A2.8648,2.8648,0,0,1,184.8867,66.9385Zm0-.96a1.604,1.604,0,0,0,1.1875-.456,1.8555,1.8555,0,0,0,.457-1.3682v-.936a1.855,1.855,0,0,0-.457-1.3677,1.7739,1.7739,0,0,0-2.375,0,1.855,1.855,0,0,0-.457,1.3677v.936a1.8555,1.8555,0,0,0,.457,1.3682A1.6026,1.6026,0,0,0,184.8867,65.9785Z"/><path class="cls-2" d="M189.5068,61.5386h-.9951v-.96h.9951V59.4263a1.612,1.612,0,0,1,.36-1.0977,1.3681,1.3681,0,0,1,1.0918-.414h.9726v.96H190.623v1.7041h1.3086v.96H190.623v5.2558h-1.1162Z"/><path class="cls-2" d="M199.8027,60.5786h1.08l-2.7,7.5718a3.1224,3.1224,0,0,1-.2275.4922,1.0079,1.0079,0,0,1-.2949.3237,1.17,1.17,0,0,1-.4141.1743,2.8119,2.8119,0,0,1-.6.0537h-.6113v-.96h1.0195l.42-1.1983-2.3037-6.4575h1.1162l1.3789,3.9639.3242,1.1616h.0606l.3594-1.1616Z"/><path class="cls-2" d="M204.3633,66.9385a2.8613,2.8613,0,0,1-1.1582-.2281,2.5074,2.5074,0,0,1-.8946-.6538,3.0248,3.0248,0,0,1-.5761-1.0263,4.5463,4.5463,0,0,1,0-2.688,3.0286,3.0286,0,0,1,.5761-1.0259,2.5086,2.5086,0,0,1,.8946-.6538,3.0532,3.0532,0,0,1,2.3154,0,2.4971,2.4971,0,0,1,.8936.6538,3.0119,3.0119,0,0,1,.5761,1.0259,4.5061,4.5061,0,0,1,0,2.688,3.0082,3.0082,0,0,1-.5761,1.0263,2.4959,2.4959,0,0,1-.8936.6538A2.86,2.86,0,0,1,204.3633,66.9385Zm0-.96a1.6072,1.6072,0,0,0,1.1875-.456,1.8594,1.8594,0,0,0,.456-1.3682v-.936a1.8589,1.8589,0,0,0-.456-1.3677,1.7752,1.7752,0,0,0-2.376,0,1.859,1.859,0,0,0-.4561,1.3677v.936a1.8594,1.8594,0,0,0,.4561,1.3682A1.6064,1.6064,0,0,0,204.3633,65.9785Z"/><path class="cls-2" d="M212.5234,65.7861h-.0605a2.17,2.17,0,0,1-.2227.4336,1.5016,1.5016,0,0,1-.3476.3682,1.6763,1.6763,0,0,1-.4981.2554,2.1428,2.1428,0,0,1-.6718.0952,1.9124,1.9124,0,0,1-1.5118-.624,2.5755,2.5755,0,0,1-.5527-1.7642V60.5786h1.1172v3.8125q0,1.5872,1.3193,1.5874a2.0846,2.0846,0,0,0,.5225-.0664,1.307,1.307,0,0,0,.4551-.21,1.1594,1.1594,0,0,0,.3242-.36.988.988,0,0,0,.1269-.5054V60.5786h1.1153v6.2158h-1.1153Z"/><path class="cls-2" d="M215.6064,66.7944V60.5786h1.1163v1.188h.06a1.7217,1.7217,0,0,1,.2148-.4443,1.554,1.554,0,0,1,.36-.378,1.837,1.837,0,0,1,.5107-.2636,2.0254,2.0254,0,0,1,.6661-.1021h.371v1.1157h-.5517a2.1767,2.1767,0,0,0-1.2061.2823.8518.8518,0,0,0-.4257.7378v4.08Z"/><path class="cls-2" d="M48.5332,81.3389a2.9144,2.9144,0,0,1-1.188-.2281,2.4278,2.4278,0,0,1-.876-.6479,2.8348,2.8348,0,0,1-.5459-1.0259,4.5915,4.5915,0,0,1-.186-1.35,4.5324,4.5324,0,0,1,.186-1.3442,2.9049,2.9049,0,0,1,.5459-1.0259,2.4043,2.4043,0,0,1,.876-.6538,2.9145,2.9145,0,0,1,1.188-.228,2.5415,2.5415,0,0,1,1.5.4077,2.42,2.42,0,0,1,.8521,1.08l-.9239.456a1.4389,1.4389,0,0,0-.5219-.72,1.5109,1.5109,0,0,0-.9063-.2637,1.4673,1.4673,0,0,0-1.2061.4917,1.9282,1.9282,0,0,0-.4018,1.26v1.08a1.9256,1.9256,0,0,0,.4018,1.26,1.4661,1.4661,0,0,0,1.2061.4922,1.6012,1.6012,0,0,0,.96-.2759,1.9912,1.9912,0,0,0,.624-.78l.8159.5039a2.45,2.45,0,0,1-.9,1.11A2.64,2.64,0,0,1,48.5332,81.3389Z"/><path class="cls-2" d="M56.0454,80.1865h-.06a2.1443,2.1443,0,0,1-.2222.4336,1.521,1.521,0,0,1-.3477.3682,1.6867,1.6867,0,0,1-.498.2554,2.1485,2.1485,0,0,1-.6724.0952,1.9135,1.9135,0,0,1-1.5117-.6241,2.5744,2.5744,0,0,1-.5522-1.7641V74.979h1.1162v3.8125q0,1.5871,1.32,1.5874a2.0807,2.0807,0,0,0,.522-.0664,1.3218,1.3218,0,0,0,.456-.21,1.1667,1.1667,0,0,0,.3242-.36.9876.9876,0,0,0,.126-.5054V74.979h1.1157v6.2158H56.0454Z"/><path class="cls-2" d="M59.1289,81.1948V74.979h1.1162v1.188h.06a1.7388,1.7388,0,0,1,.2158-.4443,1.5333,1.5333,0,0,1,.36-.378,1.8522,1.8522,0,0,1,.51-.2636,2.0269,2.0269,0,0,1,.666-.1021h.3721v1.1157H61.877a2.1776,2.1776,0,0,0-1.2061.2823.8515.8515,0,0,0-.4258.7377v4.08Z"/><path class="cls-2" d="M63.6289,81.1948V74.979h1.1162v1.188h.06a1.7388,1.7388,0,0,1,.2158-.4443,1.5333,1.5333,0,0,1,.36-.378,1.8522,1.8522,0,0,1,.51-.2636,2.0269,2.0269,0,0,1,.666-.1021h.3721v1.1157H66.377a2.1776,2.1776,0,0,0-1.2061.2823.8515.8515,0,0,0-.4258.7377v4.08Z"/><path class="cls-2" d="M70.4448,81.3389a2.8355,2.8355,0,0,1-1.17-.2339,2.5427,2.5427,0,0,1-.8882-.6543,2.9331,2.9331,0,0,1-.5639-1.02,4.6436,4.6436,0,0,1,0-2.6817,2.9317,2.9317,0,0,1,.5639-1.0263,2.5416,2.5416,0,0,1,.8882-.6539,2.8274,2.8274,0,0,1,1.17-.2338,2.7588,2.7588,0,0,1,1.1582.2329,2.4617,2.4617,0,0,1,.8579.64,2.7643,2.7643,0,0,1,.5279.9688,3.9314,3.9314,0,0,1,.18,1.2075v.4663h-4.38v.2524a1.8178,1.8178,0,0,0,.456,1.2779,1.668,1.668,0,0,0,1.2959.498,1.8529,1.8529,0,0,0,1.0078-.2642,1.8963,1.8963,0,0,0,.6724-.7441l.72.6162a2.4151,2.4151,0,0,1-.9722.9839A3.0356,3.0356,0,0,1,70.4448,81.3389Zm0-5.604a1.6748,1.6748,0,0,0-.666.1313,1.5656,1.5656,0,0,0-.87.918,1.9933,1.9933,0,0,0-.12.7031v.0835H71.981v-.1191a1.8173,1.8173,0,0,0-.4141-1.2456A1.4176,1.4176,0,0,0,70.4448,75.7349Z"/><path class="cls-2" d="M74.6929,81.1948V74.979h1.1162v1.0083h.06a2.0294,2.0294,0,0,1,.63-.8315,1.7859,1.7859,0,0,1,1.1221-.3208,1.8974,1.8974,0,0,1,1.5059.624,2.5977,2.5977,0,0,1,.5459,1.7637v3.9721H78.5566V77.3823q0-1.5871-1.3076-1.5874a1.9622,1.9622,0,0,0-.5342.0723,1.5676,1.5676,0,0,0-.4619.21,1.0326,1.0326,0,0,0-.3237.3487.9892.9892,0,0,0-.12.499v4.27Z"/><path class="cls-2" d="M83.0928,81.1948a1.1494,1.1494,0,0,1-.876-.3174,1.1975,1.1975,0,0,1-.3-.8559V75.939h-.9961v-.96h.5518a.5665.5665,0,0,0,.4316-.1323.654.654,0,0,0,.1211-.4439v-1.14h1.0078V74.979h1.332v.96h-1.332v4.2959H84.27v.96Z"/><path class="cls-2" d="M91.0371,81.3389a2.9136,2.9136,0,0,1-1.1885-.2281,2.4223,2.4223,0,0,1-.8759-.6479,2.8242,2.8242,0,0,1-.5459-1.0259,4.5876,4.5876,0,0,1-.1866-1.35,4.5286,4.5286,0,0,1,.1866-1.3442,2.8937,2.8937,0,0,1,.5459-1.0259,2.3989,2.3989,0,0,1,.8759-.6538,2.9136,2.9136,0,0,1,1.1885-.228,2.5458,2.5458,0,0,1,1.5.4077,2.4194,2.4194,0,0,1,.8516,1.08l-.9239.456a1.438,1.438,0,0,0-.5214-.72,1.5119,1.5119,0,0,0-.9063-.2637,1.4684,1.4684,0,0,0-1.207.4917,1.93,1.93,0,0,0-.4014,1.26v1.08a1.9276,1.9276,0,0,0,.4014,1.26,1.4672,1.4672,0,0,0,1.207.4922,1.5991,1.5991,0,0,0,.959-.2759,1.9923,1.9923,0,0,0,.625-.78l.8154.5039a2.4556,2.4556,0,0,1-.8994,1.11A2.6421,2.6421,0,0,1,91.0371,81.3389Z"/><path class="cls-2" d="M97.0605,81.3389a2.8651,2.8651,0,0,1-1.1582-.2281,2.5079,2.5079,0,0,1-.8945-.6538,3.0082,3.0082,0,0,1-.5752-1.0263,4.5272,4.5272,0,0,1,0-2.688,3.0119,3.0119,0,0,1,.5752-1.0259,2.5079,2.5079,0,0,1,.8945-.6538,3.0557,3.0557,0,0,1,2.3164,0,2.5029,2.5029,0,0,1,.8936.6538,3.0121,3.0121,0,0,1,.5762,1.0259,4.5272,4.5272,0,0,1,0,2.688,3.0083,3.0083,0,0,1-.5762,1.0263,2.5029,2.5029,0,0,1-.8936.6538A2.8644,2.8644,0,0,1,97.0605,81.3389Zm0-.96a1.604,1.604,0,0,0,1.1875-.456,1.8556,1.8556,0,0,0,.4571-1.3682v-.936a1.8549,1.8549,0,0,0-.4571-1.3677,1.7739,1.7739,0,0,0-2.375,0,1.8553,1.8553,0,0,0-.457,1.3677v.936a1.8559,1.8559,0,0,0,.457,1.3682A1.6028,1.6028,0,0,0,97.0605,80.3789Z"/><path class="cls-2" d="M101.416,81.1948V74.979h1.1172v1.0083h.06a2.1176,2.1176,0,0,1,.6181-.814,1.5832,1.5832,0,0,1,1.0371-.3383,2.2124,2.2124,0,0,1,1.1348.2973,1.7467,1.7467,0,0,1,.75.9512h.0234a1.8723,1.8723,0,0,1,.6426-.874,1.9645,1.9645,0,0,1,1.2539-.3745,1.8147,1.8147,0,0,1,1.4639.624,2.65,2.65,0,0,1,.5283,1.7637v3.9721h-1.1162V77.3823a1.9375,1.9375,0,0,0-.3057-1.19,1.1309,1.1309,0,0,0-.955-.397,1.8337,1.8337,0,0,0-.5215.0723,1.4093,1.4093,0,0,0-.4375.21.99.99,0,0,0-.42.8477v4.27h-1.1162V77.3823q0-1.5871-1.2481-1.5874a1.8545,1.8545,0,0,0-.5166.0723,1.4015,1.4015,0,0,0-.4434.21,1.0827,1.0827,0,0,0-.3125.3487.99.99,0,0,0-.1191.499v4.27Z"/><path class="cls-2" d="M111.94,74.979h1.1162v1.0083h.0479a1.6815,1.6815,0,0,1,.6787-.8613,2.0364,2.0364,0,0,1,1.1094-.291,2.3952,2.3952,0,0,1,1.05.2216,2.1564,2.1564,0,0,1,.7861.648,3.0353,3.0353,0,0,1,.4922,1.0264,5.556,5.556,0,0,1,0,2.7119,3.0281,3.0281,0,0,1-.4922,1.0259,2.1462,2.1462,0,0,1-.7861.6479,2.3953,2.3953,0,0,1-1.05.2222,2.0373,2.0373,0,0,1-1.1094-.291,1.68,1.68,0,0,1-.6787-.8614h-.0479v3.4082H111.94Zm2.628,5.4a1.5323,1.5323,0,0,0,1.1943-.4824,1.83,1.83,0,0,0,.4385-1.2788V77.5562a1.83,1.83,0,0,0-.4385-1.2789,1.5326,1.5326,0,0,0-1.1943-.4824,2,2,0,0,0-.5879.0845,1.5094,1.5094,0,0,0-.4805.2412,1.2437,1.2437,0,0,0-.3232.3618.89.89,0,0,0-.12.4585v2.292a.89.89,0,0,0,.12.4585,1.2437,1.2437,0,0,0,.3232.3618,1.5094,1.5094,0,0,0,.4805.2412A2,2,0,0,0,114.5684,80.3789Z"/><path class="cls-2" d="M120.125,81.1948a1.1428,1.1428,0,0,1-.8711-.312,1.16,1.16,0,0,1-.293-.8281v-7.74h1.1153v7.92h.8886v.96Z"/><path class="cls-2" d="M122.86,73.6826a.68.68,0,0,1-.51-.168.61.61,0,0,1-.1621-.4438v-.168a.61.61,0,0,1,.1621-.4438.8589.8589,0,0,1,1.02,0,.6144.6144,0,0,1,.1621.4438v.168a.6143.6143,0,0,1-.1621.4438A.6828.6828,0,0,1,122.86,73.6826Zm-.5635,1.2964h1.1152v6.2158h-1.1152Z"/><path class="cls-2" d="M129.9043,81.1948a.9852.9852,0,0,1-.7734-.2881,1.348,1.348,0,0,1-.3184-.7441h-.06a1.5978,1.5978,0,0,1-.66.8765,2.0674,2.0674,0,0,1-1.1387.3,2.1486,2.1486,0,0,1-1.5127-.4981,1.76,1.76,0,0,1-.54-1.3618,1.5906,1.5906,0,0,1,.6543-1.374,3.4134,3.4134,0,0,1,1.998-.4741h1.1758v-.564a1.3008,1.3008,0,0,0-.3359-.96,1.4248,1.4248,0,0,0-1.044-.3359,1.6109,1.6109,0,0,0-.9179.2456,2.0327,2.0327,0,0,0-.6065.6421l-.6719-.6118a2.3638,2.3638,0,0,1,.834-.8579,2.6117,2.6117,0,0,1,1.4219-.354,2.65,2.65,0,0,1,1.8008.5566,1.9824,1.9824,0,0,1,.6357,1.5747v3.2686h.6963v.96Zm-2.6992-.7558a1.8724,1.8724,0,0,0,1.0918-.3.9038.9038,0,0,0,.4316-.7681v-.96H127.541a2.1338,2.1338,0,0,0-1.123.2281.739.739,0,0,0-.3535.66v.24a.7857.7857,0,0,0,.3066.6655A1.3371,1.3371,0,0,0,127.2051,80.439Z"/><path class="cls-2" d="M131.8721,81.1948V74.979h1.1162v1.0083h.06a2.0272,2.0272,0,0,1,.6289-.8315,1.789,1.789,0,0,1,1.1231-.3208,1.9,1.9,0,0,1,1.5058.624,2.597,2.597,0,0,1,.545,1.7637v3.9721h-1.1153V77.3823q0-1.5871-1.3086-1.5874a1.9576,1.9576,0,0,0-.5332.0723,1.5794,1.5794,0,0,0-.4629.21,1.0311,1.0311,0,0,0-.3232.3487.9892.9892,0,0,0-.12.499v4.27Z"/><path class="cls-2" d="M141.1,81.3389a2.915,2.915,0,0,1-1.1875-.2281,2.4321,2.4321,0,0,1-.876-.6479,2.8424,2.8424,0,0,1-.5459-1.0259,4.5919,4.5919,0,0,1-.1855-1.35,4.5329,4.5329,0,0,1,.1855-1.3442,2.9129,2.9129,0,0,1,.5459-1.0259,2.4084,2.4084,0,0,1,.876-.6538,2.915,2.915,0,0,1,1.1875-.228,2.5373,2.5373,0,0,1,1.5.4077,2.4206,2.4206,0,0,1,.8525,1.08l-.9238.456a1.44,1.44,0,0,0-.5224-.72,1.51,1.51,0,0,0-.9063-.2637,1.4658,1.4658,0,0,0-1.2051.4917,1.9257,1.9257,0,0,0-.4023,1.26v1.08a1.9231,1.9231,0,0,0,.4023,1.26,1.4646,1.4646,0,0,0,1.2051.4922,1.6027,1.6027,0,0,0,.9609-.2759,1.9886,1.9886,0,0,0,.6231-.78l.8164.5039a2.4448,2.4448,0,0,1-.9,1.11A2.6376,2.6376,0,0,1,141.1,81.3389Z"/><path class="cls-2" d="M147.1113,81.3389a2.8371,2.8371,0,0,1-1.17-.2339,2.5445,2.5445,0,0,1-.8877-.6543,2.9325,2.9325,0,0,1-.5635-1.02,4.6346,4.6346,0,0,1,0-2.6817,2.931,2.931,0,0,1,.5635-1.0263,2.5434,2.5434,0,0,1,.8877-.6539,2.8291,2.8291,0,0,1,1.17-.2338,2.7559,2.7559,0,0,1,1.1582.2329,2.459,2.459,0,0,1,.8584.64,2.78,2.78,0,0,1,.5283.9688,3.9588,3.9588,0,0,1,.18,1.2075v.4663h-4.38v.2524a1.8156,1.8156,0,0,0,.456,1.2779,1.6686,1.6686,0,0,0,1.2959.498,1.8541,1.8541,0,0,0,1.0078-.2642,1.9012,1.9012,0,0,0,.6729-.7441l.7187.6162a2.4046,2.4046,0,0,1-.9717.9839A3.0376,3.0376,0,0,1,147.1113,81.3389Zm0-5.604a1.68,1.68,0,0,0-.666.1313,1.5667,1.5667,0,0,0-.8691.918,1.9933,1.9933,0,0,0-.12.7031v.0835h3.1923v-.1191a1.82,1.82,0,0,0-.414-1.2456A1.42,1.42,0,0,0,147.1113,75.7349Z"/><path class="cls-2" d="M154.1914,74.979h1.1172v1.0083h.0469a1.6916,1.6916,0,0,1,.6787-.8613,2.04,2.04,0,0,1,1.11-.291,2.3943,2.3943,0,0,1,1.0489.2216,2.16,2.16,0,0,1,.7871.648,3.0732,3.0732,0,0,1,.4922,1.0264,5.5592,5.5592,0,0,1,0,2.7119,3.0658,3.0658,0,0,1-.4922,1.0259,2.1493,2.1493,0,0,1-.7871.6479,2.3944,2.3944,0,0,1-1.0489.2222,2.0407,2.0407,0,0,1-1.11-.291,1.69,1.69,0,0,1-.6787-.8614h-.0469v3.4082h-1.1172Zm2.6289,5.4a1.53,1.53,0,0,0,1.1934-.4824,1.826,1.826,0,0,0,.4384-1.2788V77.5562a1.8261,1.8261,0,0,0-.4384-1.2789,1.5306,1.5306,0,0,0-1.1934-.4824,1.9951,1.9951,0,0,0-.5879.0845,1.5,1.5,0,0,0-.48.2412,1.2464,1.2464,0,0,0-.3243.3618.89.89,0,0,0-.1191.4585v2.292a.89.89,0,0,0,.1191.4585,1.2464,1.2464,0,0,0,.3243.3618,1.5,1.5,0,0,0,.48.2412A1.9951,1.9951,0,0,0,156.82,80.3789Z"/><path class="cls-2" d="M163.6,81.3389a2.8651,2.8651,0,0,1-1.1582-.2281,2.5062,2.5062,0,0,1-.8945-.6538,3.0049,3.0049,0,0,1-.5752-1.0263,4.5272,4.5272,0,0,1,0-2.688,3.0086,3.0086,0,0,1,.5752-1.0259,2.5062,2.5062,0,0,1,.8945-.6538,3.0557,3.0557,0,0,1,2.3164,0,2.5038,2.5038,0,0,1,.8936.6538,3.0119,3.0119,0,0,1,.5761,1.0259,4.5272,4.5272,0,0,1,0,2.688,3.0082,3.0082,0,0,1-.5761,1.0263,2.5038,2.5038,0,0,1-.8936.6538A2.8648,2.8648,0,0,1,163.6,81.3389Zm0-.96a1.604,1.604,0,0,0,1.1875-.456,1.8555,1.8555,0,0,0,.457-1.3682v-.936a1.8549,1.8549,0,0,0-.457-1.3677,1.7739,1.7739,0,0,0-2.375,0,1.8549,1.8549,0,0,0-.457,1.3677v.936a1.8555,1.8555,0,0,0,.457,1.3682A1.6025,1.6025,0,0,0,163.6,80.3789Z"/><path class="cls-2" d="M169.8633,81.3389a3,3,0,0,1-1.4571-.3243,3.2945,3.2945,0,0,1-1.0263-.8759l.7558-.648a2.5541,2.5541,0,0,0,.7862.6841,2.0708,2.0708,0,0,0,1.0136.24,1.4487,1.4487,0,0,0,.9122-.2461.8916.8916,0,0,0,.1015-1.2539,1.3228,1.3228,0,0,0-.7851-.312l-.5284-.084a4.0256,4.0256,0,0,1-.8154-.1923,2.1052,2.1052,0,0,1-.6367-.3477,1.5242,1.5242,0,0,1-.4141-.5283,1.708,1.708,0,0,1-.15-.7437,1.8766,1.8766,0,0,1,.168-.81,1.6154,1.6154,0,0,1,.4688-.5884,2.09,2.09,0,0,1,.7138-.354,3.2564,3.2564,0,0,1,.9053-.12,2.9393,2.9393,0,0,1,1.32.2636,2.8953,2.8953,0,0,1,.9238.7325l-.707.6718a2.006,2.006,0,0,0-.6191-.5219,1.8979,1.8979,0,0,0-.9532-.2222,1.3,1.3,0,0,0-.8584.24.7923.7923,0,0,0-.2822.6358.6966.6966,0,0,0,.27.6118,1.9266,1.9266,0,0,0,.81.2763l.5283.084a2.6422,2.6422,0,0,1,1.4815.6,1.56,1.56,0,0,1,.4511,1.1636,1.7735,1.7735,0,0,1-.6367,1.44A2.6418,2.6418,0,0,1,169.8633,81.3389Z"/><path class="cls-2" d="M175.2754,81.1948a1.1494,1.1494,0,0,1-.876-.3174,1.1932,1.1932,0,0,1-.3-.8559V75.939h-.9961v-.96h.5527a.5681.5681,0,0,0,.4317-.1323.6547.6547,0,0,0,.1191-.4439v-1.14h1.0088V74.979h1.3311v.96h-1.3311v4.2959h1.2354v.96Z"/><path class="cls-2" d="M181.84,80.1865h-.06a2.1167,2.1167,0,0,1-.2217.4336,1.5224,1.5224,0,0,1-.3476.3682,1.6763,1.6763,0,0,1-.4981.2554,2.1493,2.1493,0,0,1-.6728.0952,1.915,1.915,0,0,1-1.5118-.6241,2.58,2.58,0,0,1-.5517-1.7641V74.979h1.1162v3.8125q0,1.5871,1.32,1.5874a2.0768,2.0768,0,0,0,.5215-.0664,1.3209,1.3209,0,0,0,.456-.21,1.172,1.172,0,0,0,.3243-.36.9875.9875,0,0,0,.1259-.5054V74.979h1.1153v6.2158H181.84Z"/><path class="cls-2" d="M184.9238,81.1948V74.979h1.1153v1.188H186.1a1.7257,1.7257,0,0,1,.2158-.4443,1.5354,1.5354,0,0,1,.36-.378,1.8433,1.8433,0,0,1,.51-.2636,2.0254,2.0254,0,0,1,.6661-.1021h.372v1.1157h-.5517a2.1827,2.1827,0,0,0-1.2071.2823.8535.8535,0,0,0-.4257.7377v4.08Z"/><path class="cls-2" d="M191.74,81.3389a2.8341,2.8341,0,0,1-1.17-.2339,2.54,2.54,0,0,1-.8887-.6543,2.934,2.934,0,0,1-.5644-1.02,4.6548,4.6548,0,0,1,0-2.6817,2.9325,2.9325,0,0,1,.5644-1.0263,2.539,2.539,0,0,1,.8887-.6539,2.8261,2.8261,0,0,1,1.17-.2338,2.7621,2.7621,0,0,1,1.1582.2329,2.4657,2.4657,0,0,1,.8575.64,2.7473,2.7473,0,0,1,.5273.9688,3.9015,3.9015,0,0,1,.1807,1.2075v.4663h-4.38v.2524a1.82,1.82,0,0,0,.456,1.2779,1.6673,1.6673,0,0,0,1.2959.498,1.8514,1.8514,0,0,0,1.0078-.2642,1.8907,1.8907,0,0,0,.6719-.7441l.7207.6162a2.4259,2.4259,0,0,1-.9726.9839A3.0344,3.0344,0,0,1,191.74,81.3389Zm0-5.604a1.67,1.67,0,0,0-.666.1313,1.58,1.58,0,0,0-.5283.3633,1.5974,1.5974,0,0,0-.3418.5547,1.9933,1.9933,0,0,0-.12.7031v.0835h3.1914v-.1191a1.8149,1.8149,0,0,0-.4141-1.2456A1.4155,1.4155,0,0,0,191.74,75.7349Z"/><path class="cls-2" d="M196.4434,81.3389a.6931.6931,0,0,1-.792-.7442v-.18a.7923.7923,0,1,1,1.584,0v.18a.6932.6932,0,0,1-.792.7442Z"/><rect id="_Transparent_Rectangle_" data-name=" Transparent Rectangle " class="cls-3" x="7" y="9" width="32" height="32"/><rect class="cls-4" x="1" y="1" width="248" height="98"/><polygon class="cls-1" points="31 35.59 28.41 33 27 34.41 31 38.41 38 31.41 36.59 30 31 35.59"/><rect class="cls-1" x="22" y="32" width="2" height="2"/><rect class="cls-1" x="16" y="32" width="2" height="2"/><rect class="cls-1" x="28" y="27" width="2" height="2"/><rect class="cls-1" x="22" y="27" width="2" height="2"/><rect class="cls-1" x="16" y="27" width="2" height="2"/><rect class="cls-1" x="28" y="22" width="2" height="2"/><rect class="cls-1" x="22" y="22" width="2" height="2"/><rect class="cls-1" x="16" y="22" width="2" height="2"/><rect class="cls-1" x="16" y="16" width="14" height="3"/><path class="cls-1" d="M24,39H13.0046A2.007,2.007,0,0,1,11,36.9951V12.9961A1.9984,1.9984,0,0,1,12.9961,11H33.0037A1.9985,1.9985,0,0,1,35,12.9961V27H33V13H13V37H24Z"/></svg>