<svg xmlns="http://www.w3.org/2000/svg" width="212.3502" height="47.8204" viewBox="0 0 212.3502 47.8204"><defs><style>.cls-1{fill:#002d9c;}.cls-2{fill:#a6c8ff;}</style></defs><g id="Text"><path class="cls-1" d="M56.3583,27.9835h-.0459a2.119,2.119,0,0,1-.9746,1.24,3.6611,3.6611,0,0,1-2.002.4951,4.4378,4.4378,0,0,1-1.8037-.3613,3.7952,3.7952,0,0,1-1.4043-1.0586,5.0734,5.0734,0,0,1-.9131-1.7344,7.8705,7.8705,0,0,1-.3291-2.3857,7.9776,7.9776,0,0,1,.3223-2.3706,4.8413,4.8413,0,0,1,.92-1.7344A3.9712,3.9712,0,0,1,51.57,19.0074a4.6341,4.6341,0,0,1,1.873-.3681,4.2927,4.2927,0,0,1,2.4092.6367,4.2293,4.2293,0,0,1,1.4883,1.6958l-1.0586.6445a2.9394,2.9394,0,0,0-2.8389-1.8418,3.1919,3.1919,0,0,0-1.289.2544,2.9286,2.9286,0,0,0-1.0059.7158,3.2267,3.2267,0,0,0-.6514,1.1089,4.274,4.274,0,0,0-.23,1.4473v1.74a4.34,4.34,0,0,0,.23,1.4551,3.2056,3.2056,0,0,0,.6514,1.1162,2.8672,2.8672,0,0,0,1.0361.7168,3.5884,3.5884,0,0,0,1.3809.2539,3.7174,3.7174,0,0,0,1.0518-.1465,2.6012,2.6012,0,0,0,.874-.4394,2.0648,2.0648,0,0,0,.5908-.7325,2.339,2.339,0,0,0,.2148-1.04V25.1612H53.9335V24.0255h3.622v5.5088H56.3583Z"/><path class="cls-1" d="M62.9413,29.7188a3.55,3.55,0,0,1-1.4658-.292,3.1628,3.1628,0,0,1-1.12-.8359,3.8137,3.8137,0,0,1-.7207-1.3047,5.8668,5.8668,0,0,1,0-3.4145,3.8069,3.8069,0,0,1,.7207-1.312,3.17,3.17,0,0,1,1.12-.836,3.552,3.552,0,0,1,1.4658-.2915,3.3637,3.3637,0,0,1,1.4267.29,3.1559,3.1559,0,0,1,1.0743.8028,3.5646,3.5646,0,0,1,.6826,1.2158,4.78,4.78,0,0,1,.2383,1.5449v.58H60.67v.3691a2.7115,2.7115,0,0,0,.1611.9434,2.2281,2.2281,0,0,0,.461.76,2.0847,2.0847,0,0,0,.7363.5058,2.5189,2.5189,0,0,0,.9892.1846,2.4019,2.4019,0,0,0,1.3125-.3535,2.3119,2.3119,0,0,0,.8672-1.0127l.8741.6338a3.0578,3.0578,0,0,1-1.1963,1.32A3.6179,3.6179,0,0,1,62.9413,29.7188Zm0-7.2587a2.3345,2.3345,0,0,0-.9209.1757,2.073,2.073,0,0,0-.7139.4956,2.3256,2.3256,0,0,0-.4678.7544,2.6193,2.6193,0,0,0-.1689.9532v.1074h4.374v-.168a2.4074,2.4074,0,0,0-.5762-1.685A1.9623,1.9623,0,0,0,62.9413,22.46Z"/><path class="cls-1" d="M70.1385,29.5343a1.2588,1.2588,0,0,1-.9746-.3594,1.341,1.341,0,0,1-.33-.9424V22.7057H67.5292V21.6163h.7373a.7233.7233,0,0,0,.5449-.1611.8393.8393,0,0,0,.1455-.56V19.422h1.1045v2.1943h1.7344v1.0894H70.0614v5.7387h1.6113v1.09Z"/><path class="cls-1" d="M75.5243,29.5343a1.26,1.26,0,0,1-.9746-.3594,1.34,1.34,0,0,1-.3291-.9424V22.7057H72.9159V21.6163h.7363a.7232.7232,0,0,0,.5449-.1611.8393.8393,0,0,0,.1455-.56V19.422h1.1055v2.1943h1.7334v1.0894H75.4481v5.7387h1.6113v1.09Z"/><path class="cls-1" d="M79.7743,19.7594a.75.75,0,0,1-.5752-.1919.71.71,0,0,1-.1768-.4986v-.2a.7093.7093,0,0,1,.1768-.4985.9595.9595,0,0,1,1.1514,0,.7091.7091,0,0,1,.1757.4985v.2a.71.71,0,0,1-.1757.4986A.752.752,0,0,1,79.7743,19.7594Zm-.6133,1.8569h1.2275v7.918H79.161Z"/><path class="cls-1" d="M82.9969,29.5343v-7.918h1.2276v1.2744h.0615a2.5841,2.5841,0,0,1,.8213-1.0635,2.32,2.32,0,0,1,1.4189-.395,2.4842,2.4842,0,0,1,1.9414.79,3.2174,3.2174,0,0,1,.7139,2.2329v5.0791H87.954v-4.875q0-2.1379-1.7959-2.1377a2.7417,2.7417,0,0,0-.7129.0923,2.0781,2.0781,0,0,0-.6221.2768,1.3728,1.3728,0,0,0-.4375.4693,1.3342,1.3342,0,0,0-.1611.6689v5.5054Z"/><path class="cls-1" d="M98.3885,30.4171A1.9452,1.9452,0,0,1,97.43,32.214a5.7308,5.7308,0,0,1-2.878.5732,5.2793,5.2793,0,0,1-2.67-.5059,1.6036,1.6036,0,0,1-.8135-1.44,1.4139,1.4139,0,0,1,.3379-1.0039,1.9909,1.9909,0,0,1,.9209-.5293V29.14a1.138,1.138,0,0,1-.706-1.1005,1.1034,1.1034,0,0,1,.3838-.9082,2.52,2.52,0,0,1,.9824-.4668v-.0606a2.5591,2.5591,0,0,1-1.0977-.97,2.72,2.72,0,0,1-.3916-1.4624,2.8253,2.8253,0,0,1,.2149-1.1079,2.4941,2.4941,0,0,1,.6064-.87,2.7612,2.7612,0,0,1,.9365-.5615,3.83,3.83,0,0,1,2.7237.1065v-.1382a1.3,1.3,0,0,1,.2148-.77.803.803,0,0,1,.7061-.3046h1.1816v1.09H96.578v.5078a2.5951,2.5951,0,0,1,.667.8848,2.7476,2.7476,0,0,1,.2373,1.1621,2.7861,2.7861,0,0,1-.2149,1.1074,2.4792,2.4792,0,0,1-.6054.87,2.741,2.741,0,0,1-.9434.5616,3.5826,3.5826,0,0,1-1.2275.2,3.8587,3.8587,0,0,1-.7676-.0771,2.5528,2.5528,0,0,0-.7217.3154.6478.6478,0,0,0-.3222.5752.4671.4671,0,0,0,.3378.4756,2.5991,2.5991,0,0,0,.875.1231H95.58a3.32,3.32,0,0,1,2.1407.5576A1.8954,1.8954,0,0,1,98.3885,30.4171Zm-1.1513.084a.9178.9178,0,0,0-.36-.76,2.1394,2.1394,0,0,0-1.2812-.2842h-2.64a1.1221,1.1221,0,0,0-.7363,1.0742,1.1812,1.1812,0,0,0,.3916.8907,1.9169,1.9169,0,0,0,1.3271.3681h1.1358a3.2655,3.2655,0,0,0,1.5957-.3222A1.0452,1.0452,0,0,0,97.2372,30.5011Zm-2.7461-4.5733a1.9036,1.9036,0,0,0,1.2422-.3769,1.4166,1.4166,0,0,0,.4609-1.1641v-.4316a1.4159,1.4159,0,0,0-.4609-1.1636,2.2347,2.2347,0,0,0-2.4854,0,1.4159,1.4159,0,0,0-.4609,1.1636v.4316a1.4166,1.4166,0,0,0,.4609,1.1641A1.9046,1.9046,0,0,0,94.4911,25.9278Z"/><path class="cls-1" d="M105.8153,29.7188a3.7033,3.7033,0,0,1-1.8486-.4228,4.1977,4.1977,0,0,1-1.2813-1.1279l.874-.7051a3.4506,3.4506,0,0,0,1.0284.8974,2.6772,2.6772,0,0,0,1.32.3145,1.9517,1.9517,0,0,0,1.22-.3379,1.2248,1.2248,0,0,0,.1377-1.7412,1.8261,1.8261,0,0,0-1.082-.4531l-.6289-.0918a5.22,5.22,0,0,1-1.0127-.2383,2.8283,2.8283,0,0,1-.8057-.4287,1.8556,1.8556,0,0,1-.5371-.668,2.1772,2.1772,0,0,1-.1914-.9516,2.2829,2.2829,0,0,1,.2148-1.02,2.0431,2.0431,0,0,1,.5908-.729,2.5767,2.5767,0,0,1,.8975-.4375,4.1473,4.1473,0,0,1,1.12-.1455,3.4991,3.4991,0,0,1,1.6192.3374,3.627,3.627,0,0,1,1.1425.9361l-.8125.7363a2.42,2.42,0,0,0-2.041-.9663,1.7606,1.7606,0,0,0-1.1592.33,1.1134,1.1134,0,0,0-.3906.8979.9394.9394,0,0,0,.3906.8438,2.92,2.92,0,0,0,1.128.3838l.6142.0918a3.2932,3.2932,0,0,1,1.8721.76,1.9994,1.9994,0,0,1,.5527,1.4658,2.2435,2.2435,0,0,1-.7832,1.8106A3.2327,3.2327,0,0,1,105.8153,29.7188Z"/><path class="cls-1" d="M112.6591,29.5343a1.2589,1.2589,0,0,1-.9747-.3594,1.341,1.341,0,0,1-.33-.9424V22.7057h-1.3037V21.6163h.7363a.7233.7233,0,0,0,.5449-.1611.8393.8393,0,0,0,.1455-.56V19.422h1.1045v2.1943h1.7344v1.0894h-1.7344v5.7387h1.6113v1.09Z"/><path class="cls-1" d="M122.05,29.5343a1.2051,1.2051,0,0,1-.9893-.3682,1.8193,1.8193,0,0,1-.376-.9209h-.0771a2.0433,2.0433,0,0,1-.8594,1.1045,2.6612,2.6612,0,0,1-1.4267.3691,2.7788,2.7788,0,0,1-1.9571-.6445,2.2668,2.2668,0,0,1-.6982-1.75,2,2,0,0,1,.8213-1.7187,4.3676,4.3676,0,0,1,2.5547-.5987h1.5654v-.7822a1.7125,1.7125,0,0,0-.46-1.2891,1.9684,1.9684,0,0,0-1.4121-.4448,2.1242,2.1242,0,0,0-1.2041.3223,2.6557,2.6557,0,0,0-.8056.8594l-.7373-.6905a2.7952,2.7952,0,0,1,1.0283-1.0971,3.24,3.24,0,0,1,1.78-.4527,3.2765,3.2765,0,0,1,2.24.7041,2.4774,2.4774,0,0,1,.7978,1.96v4.3481h.9053v1.09Zm-3.5293-.8594a3.1359,3.1359,0,0,0,.8437-.1074,2.0713,2.0713,0,0,0,.66-.3067,1.5089,1.5089,0,0,0,.43-.4609,1.095,1.095,0,0,0,.1533-.5674V25.9278h-1.626a2.9667,2.9667,0,0,0-1.543.3076.99.99,0,0,0-.4834.89v.3223a1.0735,1.0735,0,0,0,.4219.9052A1.8406,1.8406,0,0,0,118.52,28.6749Z"/><path class="cls-1" d="M124.49,29.5343v-7.918h1.2275v1.4575h.0762a2.3973,2.3973,0,0,1,.7676-1.0127,2.3594,2.3594,0,0,1,1.52-.4448h.4756v1.2275h-.7217a2.7744,2.7744,0,0,0-1.5576.376,1.1092,1.1092,0,0,0-.56.9439v5.3706Z"/><path class="cls-1" d="M131.871,29.5343a1.2585,1.2585,0,0,1-.9746-.3594,1.3406,1.3406,0,0,1-.33-.9424V22.7057h-1.3037V21.6163h.7363a.7232.7232,0,0,0,.5449-.1611.8393.8393,0,0,0,.1455-.56V19.422h1.1045v2.1943h1.7344v1.0894h-1.7344v5.7387h1.6113v1.09Z"/><path class="cls-1" d="M138.4842,29.7188a3.5578,3.5578,0,0,1-1.4658-.292,3.1633,3.1633,0,0,1-1.12-.8359,3.8473,3.8473,0,0,1-.7207-1.3047,5.889,5.889,0,0,1,0-3.4145,3.84,3.84,0,0,1,.7207-1.312,3.1707,3.1707,0,0,1,1.12-.836,3.5593,3.5593,0,0,1,1.4658-.2915,3.3606,3.3606,0,0,1,1.4268.29,3.1565,3.1565,0,0,1,1.0742.8028,3.5816,3.5816,0,0,1,.6836,1.2158,4.8071,4.8071,0,0,1,.2373,1.5449v.58h-5.6933v.3691a2.7115,2.7115,0,0,0,.1611.9434,2.2436,2.2436,0,0,0,.4609.76,2.0942,2.0942,0,0,0,.7364.5058,2.5271,2.5271,0,0,0,.99.1846,2.3985,2.3985,0,0,0,1.3115-.3535,2.3126,2.3126,0,0,0,.8672-1.0127l.875.6338a3.06,3.06,0,0,1-1.1973,1.32A3.613,3.613,0,0,1,138.4842,29.7188Zm0-7.2587a2.3352,2.3352,0,0,0-.9209.1757,2.06,2.06,0,0,0-.7128.4956,2.3111,2.3111,0,0,0-.4688.7544,2.6193,2.6193,0,0,0-.1689.9532v.1074h4.374v-.168a2.4116,2.4116,0,0,0-.5752-1.685A1.9648,1.9648,0,0,0,138.4842,22.46Z"/><path class="cls-1" d="M148.996,28.26h-.0616a2.4159,2.4159,0,0,1-2.3164,1.4589,3.0122,3.0122,0,0,1-1.3359-.292,2.9008,2.9008,0,0,1-1.0205-.8291,3.7707,3.7707,0,0,1-.6436-1.3037,6.7467,6.7467,0,0,1,0-3.4375,3.783,3.783,0,0,1,.6436-1.3042,2.906,2.906,0,0,1,1.0205-.8286,3.0133,3.0133,0,0,1,1.3359-.2915,2.6953,2.6953,0,0,1,1.419.357,2.2224,2.2224,0,0,1,.8974,1.1015h.0616V18.1788h1.2275V29.5343H148.996Zm-2.0411.3691a2.832,2.832,0,0,0,.79-.1084,1.9607,1.9607,0,0,0,.6523-.3154,1.54,1.54,0,0,0,.4375-.5088,1.433,1.433,0,0,0,.1612-.6865V24.0484a1.22,1.22,0,0,0-.1612-.6093,1.518,1.518,0,0,0-.4375-.4859,2.2018,2.2018,0,0,0-.6523-.3159,2.6677,2.6677,0,0,0-.79-.1157,2.1128,2.1128,0,0,0-1.6416.6552,2.45,2.45,0,0,0-.5986,1.72V26.254a2.4477,2.4477,0,0,0,.5986,1.72A2.1129,2.1129,0,0,0,146.9549,28.629Z"/><path class="cls-1" d="M158.203,29.5343a1.2585,1.2585,0,0,1-.9746-.3594,1.341,1.341,0,0,1-.33-.9424V22.7057h-1.3037V21.6163h.7363a.723.723,0,0,0,.5449-.1611.8393.8393,0,0,0,.1456-.56V19.422h1.1044v2.1943H159.86v1.0894h-1.7344v5.7387h1.6114v1.09Z"/><path class="cls-1" d="M166.72,28.26h-.0615a3.6993,3.6993,0,0,1-.3.539,2,2,0,0,1-.4375.4717,2.0377,2.0377,0,0,1-.6289.3262,2.746,2.746,0,0,1-.8594.122,2.5053,2.5053,0,0,1-1.9483-.791,3.1892,3.1892,0,0,1-.7216-2.2324V21.6163H162.99v4.875q0,2.1372,1.8106,2.1377a2.7531,2.7531,0,0,0,.7138-.0928,1.9565,1.9565,0,0,0,.6143-.2763,1.403,1.403,0,0,0,.43-.4688,1.3681,1.3681,0,0,0,.1611-.6846v-5.49h1.2275v7.918H166.72Z"/><path class="cls-1" d="M172.3046,29.5343a1.2589,1.2589,0,0,1-.9747-.3594,1.341,1.341,0,0,1-.33-.9424V22.7057h-1.3037V21.6163h.7363a.7232.7232,0,0,0,.5449-.1611.8393.8393,0,0,0,.1455-.56V19.422h1.1045v2.1943h1.7344v1.0894h-1.7344v5.7387h1.6113v1.09Z"/><path class="cls-1" d="M178.9344,29.7188a3.5661,3.5661,0,0,1-1.458-.292,3.131,3.131,0,0,1-1.1279-.8359,3.9274,3.9274,0,0,1-.7285-1.3047,5.7184,5.7184,0,0,1,0-3.4145,3.919,3.919,0,0,1,.7285-1.312,3.1382,3.1382,0,0,1,1.1279-.836,3.5676,3.5676,0,0,1,1.458-.2915,3.52,3.52,0,0,1,1.45.2915,3.2425,3.2425,0,0,1,1.128.836,3.8667,3.8667,0,0,1,.7363,1.312,5.72,5.72,0,0,1,0,3.4145,3.8748,3.8748,0,0,1-.7363,1.3047,3.2348,3.2348,0,0,1-1.128.8359A3.5187,3.5187,0,0,1,178.9344,29.7188Zm0-1.09a2.229,2.229,0,0,0,1.626-.6143,2.5054,2.5054,0,0,0,.63-1.872V25.0069a2.5066,2.5066,0,0,0-.63-1.8716,2.4621,2.4621,0,0,0-3.2529,0,2.5063,2.5063,0,0,0-.6289,1.8716v1.1358a2.5052,2.5052,0,0,0,.6289,1.872A2.2329,2.2329,0,0,0,178.9344,28.629Z"/><path class="cls-1" d="M184.535,29.5343v-7.918h1.2276v1.4575h.0761a2.3981,2.3981,0,0,1,.7676-1.0127,2.3594,2.3594,0,0,1,1.5195-.4448h.4756v1.2275H187.88a2.7748,2.7748,0,0,0-1.5577.376,1.109,1.109,0,0,0-.56.9439v5.3706Z"/><path class="cls-1" d="M190.78,19.7594a.75.75,0,0,1-.5752-.1919.7056.7056,0,0,1-.1767-.4986v-.2a.7052.7052,0,0,1,.1767-.4985.958.958,0,0,1,1.15,0,.7048.7048,0,0,1,.1768.4985v.2a.7052.7052,0,0,1-.1768.4986A.7493.7493,0,0,1,190.78,19.7594Zm-.6132,1.8569h1.2275v7.918h-1.2275Z"/><path class="cls-1" d="M199.7567,29.5343a1.2052,1.2052,0,0,1-.9893-.3682,1.82,1.82,0,0,1-.3759-.9209h-.0772a2.0428,2.0428,0,0,1-.8594,1.1045,2.6612,2.6612,0,0,1-1.4267.3691,2.7785,2.7785,0,0,1-1.957-.6445,2.2665,2.2665,0,0,1-.6983-1.75,2,2,0,0,1,.8213-1.7187,4.3676,4.3676,0,0,1,2.5547-.5987h1.5654v-.7822a1.7129,1.7129,0,0,0-.46-1.2891,1.9687,1.9687,0,0,0-1.4121-.4448,2.1237,2.1237,0,0,0-1.2041.3223,2.6549,2.6549,0,0,0-.8057.8594l-.7373-.6905a2.7952,2.7952,0,0,1,1.0283-1.0971,3.24,3.24,0,0,1,1.78-.4527,3.2764,3.2764,0,0,1,2.24.7041,2.4775,2.4775,0,0,1,.7979,1.96v4.3481h.9052v1.09Zm-3.5293-.8594a3.1367,3.1367,0,0,0,.8438-.1074,2.0717,2.0717,0,0,0,.66-.3067,1.5076,1.5076,0,0,0,.43-.4609,1.095,1.095,0,0,0,.1533-.5674V25.9278h-1.626a2.9661,2.9661,0,0,0-1.5429.3076.99.99,0,0,0-.4834.89v.3223a1.0732,1.0732,0,0,0,.4219.9052A1.84,1.84,0,0,0,196.2274,28.6749Z"/><path class="cls-1" d="M203.5008,29.5343a1.257,1.257,0,0,1-.9746-.36,1.3011,1.3011,0,0,1-.3291-.9131V18.1788h1.2276V28.4444h1.166v1.09Z"/><path class="cls-2" d="M41.7169,24.3314a7.4461,7.4461,0,0,0-5.9265-7.254,10.2525,10.2525,0,0,0-20.0628,0A7.4459,7.4459,0,0,0,9.8,24.3314a7.3569,7.3569,0,0,0,1.925,4.9585,6.82,6.82,0,0,0,4.9136,11.5694H29.1775a6.8124,6.8124,0,0,0,6.3941-9.235A7.415,7.415,0,0,0,41.7169,24.3314ZM29.1775,38.58H16.6387a4.551,4.551,0,0,1-.7673-9.0384l.7559-.1286.1662-.748a6.2649,6.2649,0,0,1,12.23,0l.1662.748.7552.1286a4.551,4.551,0,0,1-.7678,9.0384Zm5.13-9.1191h-.0631a6.7891,6.7891,0,0,0-3.187-2.0021,8.5437,8.5437,0,0,0-16.2987,0,6.8216,6.8216,0,0,0-1.1758.4642,5.0667,5.0667,0,0,1-1.5033-3.5911,5.1489,5.1489,0,0,1,4.7237-5.1078l.93-.0729.113-.9256a7.9722,7.9722,0,0,1,15.826,0l.1124.9256.9295.0729a5.1266,5.1266,0,0,1-.4063,10.2373Z"/></g></svg>