<svg id="Layer_1" data-name="Layer 1" xmlns="http://www.w3.org/2000/svg" width="250" height="100" viewBox="0 0 250 100"><defs><style>.cls-1{fill:#242b66;}.cls-2{fill:#525352;}.cls-3,.cls-4{fill:none;}.cls-4{stroke:#242b66;stroke-miterlimit:10;stroke-width:1.968px;}</style></defs><path class="cls-1" d="M33,14v4H13V14H33m0-2H13a2,2,0,0,0-2,2v4a2,2,0,0,0,2,2H33a2,2,0,0,0,2-2V14A2,2,0,0,0,33,12Z"/><path class="cls-1" d="M17,24V34H13V24h4m0-2H13a2,2,0,0,0-2,2V34a2,2,0,0,0,2,2h4a2,2,0,0,0,2-2V24A2,2,0,0,0,17,22Z"/><path class="cls-1" d="M33,24V34H23V24H33m0-2H23a2,2,0,0,0-2,2V34a2,2,0,0,0,2,2H33a2,2,0,0,0,2-2V24A2,2,0,0,0,33,22Z"/><path class="cls-1" d="M49.8252,15.0308V22.584H48.1094V15.0308H45.5352V13.51h6.8642v1.521Z"/><path class="cls-1" d="M55.5972,22.74a3.3869,3.3869,0,0,1-1.3457-.2534,2.7809,2.7809,0,0,1-1.001-.7148,3.1979,3.1979,0,0,1-.63-1.1182,5.0344,5.0344,0,0,1-.0063-2.9311A3.1787,3.1787,0,0,1,53.231,16.61a2.7342,2.7342,0,0,1,.9882-.7149,3.3051,3.3051,0,0,1,1.3257-.2534,3.228,3.228,0,0,1,1.378.2729,2.6579,2.6579,0,0,1,.9624.7408,3.215,3.215,0,0,1,.5654,1.0859,4.5,4.5,0,0,1,.1885,1.3193v.5459H54.1279v.168a1.6594,1.6594,0,0,0,.416,1.1807,1.6087,1.6087,0,0,0,1.2354.4453,1.8419,1.8419,0,0,0,1.02-.2578,2.9156,2.9156,0,0,0,.7085-.6582l.897,1.0039a2.7958,2.7958,0,0,1-1.1377.9189A3.9609,3.9609,0,0,1,55.5972,22.74Zm-.0259-5.85a1.3342,1.3342,0,0,0-1.0532.4419,1.6666,1.6666,0,0,0-.39,1.1441v.104H56.91v-.1172a1.7794,1.7794,0,0,0-.3448-1.1372A1.1919,1.1919,0,0,0,55.5713,16.89Z"/><path class="cls-1" d="M60.1084,22.584V15.7979h1.6641v1.1313h.0649a2.1986,2.1986,0,0,1,.624-.91,1.7517,1.7517,0,0,1,1.1963-.3769,2.1319,2.1319,0,0,1,1.209.3379,1.9969,1.9969,0,0,1,.7539,1.0268h.0259a1.9062,1.9062,0,0,1,.7217-.9682,2.233,2.233,0,0,1,1.3584-.3965,1.8418,1.8418,0,0,1,1.54.689,3.1238,3.1238,0,0,1,.54,1.9628v4.29h-1.664V18.4629q0-1.4553-1.0923-1.4561a1.5652,1.5652,0,0,0-.4741.0718,1.2586,1.2586,0,0,0-.4033.208,1.0091,1.0091,0,0,0-.2793.3379,1.0208,1.0208,0,0,0-.104.4746V22.584H64.1255V18.4629q0-1.4553-1.0918-1.4561a1.5288,1.5288,0,0,0-.4619.0718,1.2628,1.2628,0,0,0-.4029.208,1.0786,1.0786,0,0,0-.2861.3379.9715.9715,0,0,0-.11.4746V22.584Z"/><path class="cls-1" d="M71.6519,15.7979h1.664V16.916h.0523a1.7042,1.7042,0,0,1,.6889-.93,2.0537,2.0537,0,0,1,1.1826-.3442,2.32,2.32,0,0,1,1.983.9165,4.3285,4.3285,0,0,1,.6821,2.62,4.3845,4.3845,0,0,1-.6821,2.6387,2.3131,2.3131,0,0,1-1.983.9228,1.9967,1.9967,0,0,1-1.1762-.3505,1.8149,1.8149,0,0,1-.6953-.9361h-.0523v3.731h-1.664Zm3.0551,5.5639a1.3788,1.3788,0,0,0,1.0528-.4287,1.6232,1.6232,0,0,0,.4033-1.1572v-1.17a1.6466,1.6466,0,0,0-.4033-1.1636,1.3687,1.3687,0,0,0-1.0528-.4356,1.6049,1.6049,0,0,0-.9946.2994.9434.9434,0,0,0-.3965.7929v2.1577a.9489.9489,0,0,0,.3965.8194A1.6576,1.6576,0,0,0,74.707,21.3618Z"/><path class="cls-1" d="M81.1152,22.584a1.6522,1.6522,0,0,1-1.26-.4292,1.6936,1.6936,0,0,1-.4043-1.209V12.9639h1.664v8.2812h.8975V22.584Z"/><path class="cls-1" d="M88.2656,22.584a1.1675,1.1675,0,0,1-.8642-.3184,1.4657,1.4657,0,0,1-.3965-.8515h-.0772a1.599,1.599,0,0,1-.6894.9946,2.3526,2.3526,0,0,1-1.2871.331,2.2007,2.2007,0,0,1-1.6-.5439,1.9352,1.9352,0,0,1-.5586-1.4517,1.76,1.76,0,0,1,.7539-1.5615,3.801,3.801,0,0,1,2.1445-.5117H86.85v-.4941a1.2233,1.2233,0,0,0-.3-.8838,1.2841,1.2841,0,0,0-.9619-.312,1.5962,1.5962,0,0,0-.9424.2534,2.4934,2.4934,0,0,0-.6045.6045l-.9883-.8892a2.8752,2.8752,0,0,1,1.002-.9477,3.29,3.29,0,0,1,1.65-.36,3.102,3.102,0,0,1,2.0928.6225,2.2464,2.2464,0,0,1,.7158,1.79v3.1909H89.19V22.584ZM85.51,21.5308a1.7463,1.7463,0,0,0,.9492-.2452.8014.8014,0,0,0,.3906-.7231v-.8906H85.7832q-1.3008,0-1.3008.8266v.2193a.7179.7179,0,0,0,.2676.6133A1.2468,1.2468,0,0,0,85.51,21.5308Z"/><path class="cls-1" d="M92.6074,22.584a1.7731,1.7731,0,0,1-1.3066-.4473,1.7266,1.7266,0,0,1-.4473-1.2778V17.1372H89.8516V15.7979h.52a.619.619,0,0,0,.5127-.1753.8443.8443,0,0,0,.1367-.5264V13.939h1.4961v1.8589h1.3906v1.3393H92.5176v4.1079h1.2861V22.584Z"/><path class="cls-1" d="M98.041,22.74a3.3907,3.3907,0,0,1-1.3457-.2534,2.7746,2.7746,0,0,1-1-.7148,3.1908,3.1908,0,0,1-.6308-1.1182,5.0388,5.0388,0,0,1-.0059-2.9311,3.1645,3.1645,0,0,1,.6172-1.1118,2.7219,2.7219,0,0,1,.9883-.7149,3.3,3.3,0,0,1,1.3252-.2534,3.2291,3.2291,0,0,1,1.3779.2729,2.66,2.66,0,0,1,.9629.7408,3.2113,3.2113,0,0,1,.5644,1.0859,4.483,4.483,0,0,1,.19,1.3193v.5459H96.5723v.168a1.6589,1.6589,0,0,0,.416,1.1807,1.609,1.609,0,0,0,1.2353.4453,1.8419,1.8419,0,0,0,1.02-.2578,2.945,2.945,0,0,0,.709-.6582l.8965,1.0039a2.7879,2.7879,0,0,1-1.1377.9189A3.963,3.963,0,0,1,98.041,22.74Zm-.0254-5.85a1.3326,1.3326,0,0,0-1.0527.4419,1.6668,1.6668,0,0,0-.3906,1.1441v.104h2.7822v-.1172a1.7794,1.7794,0,0,0-.3447-1.1372A1.1914,1.1914,0,0,0,98.0156,16.89Z"/><path class="cls-1" d="M104.7754,22.74a3.6464,3.6464,0,0,1-1.6377-.331,3.7734,3.7734,0,0,1-1.17-.9165l1.0146-.9883a3.0552,3.0552,0,0,0,.8242.6763,2.115,2.115,0,0,0,1.0342.2466,1.4131,1.4131,0,0,0,.8643-.208.6848.6848,0,0,0,.2666-.5718.62.62,0,0,0-.1885-.4746,1.1968,1.1968,0,0,0-.6436-.24l-.6757-.0913a3.2115,3.2115,0,0,1-1.6836-.63,1.7565,1.7565,0,0,1-.5791-1.4233,2.0994,2.0994,0,0,1,.1826-.8906,1.8718,1.8718,0,0,1,.5205-.6758,2.3709,2.3709,0,0,1,.8125-.4292,3.5141,3.5141,0,0,1,1.0586-.1494,4.8482,4.8482,0,0,1,.8779.0713,3.22,3.22,0,0,1,.6953.208,2.6932,2.6932,0,0,1,.5723.3379,5.43,5.43,0,0,1,.5068.4487l-.9746.9751a2.572,2.572,0,0,0-.7148-.52,2.0074,2.0074,0,0,0-.91-.208,1.2562,1.2562,0,0,0-.7871.1948.623.623,0,0,0-.24.5073.6418.6418,0,0,0,.2012.5132,1.3935,1.3935,0,0,0,.6835.2534l.6885.0913q2.1959.312,2.1963,2.002a2.01,2.01,0,0,1-.2012.9033,2.0592,2.0592,0,0,1-.5654.7022,2.679,2.679,0,0,1-.8779.455A3.8142,3.8142,0,0,1,104.7754,22.74Z"/><path class="cls-2" d="M49.4453,38.1387a3.7217,3.7217,0,0,1-1.4761-.2823,3.036,3.036,0,0,1-1.1279-.8276,3.7847,3.7847,0,0,1-.72-1.3559,7.0365,7.0365,0,0,1,0-3.7325,3.7805,3.7805,0,0,1,.72-1.3559,3.0417,3.0417,0,0,1,1.1279-.8277,4.0016,4.0016,0,0,1,2.9522,0,3.0417,3.0417,0,0,1,1.1279.8277,3.7782,3.7782,0,0,1,.72,1.3559,7.0231,7.0231,0,0,1,0,3.7325,3.7825,3.7825,0,0,1-.72,1.3559,3.036,3.036,0,0,1-1.1279.8276A3.7213,3.7213,0,0,1,49.4453,38.1387Zm0-1.0323a2.4374,2.4374,0,0,0,.9478-.18,2.0241,2.0241,0,0,0,.7382-.524,2.4262,2.4262,0,0,0,.4742-.8252,3.2843,3.2843,0,0,0,.1679-1.0839V33.12a3.2853,3.2853,0,0,0-.1679-1.084,2.419,2.419,0,0,0-.4742-.8247,2.0133,2.0133,0,0,0-.7382-.5239,2.5926,2.5926,0,0,0-1.9019,0,2.0231,2.0231,0,0,0-.7319.5239,2.4107,2.4107,0,0,0-.4741.8247,3.2826,3.2826,0,0,0-.168,1.084v1.3731a3.2816,3.2816,0,0,0,.168,1.0839,2.4178,2.4178,0,0,0,.4741.8252,2.0341,2.0341,0,0,0,.7319.524A2.4263,2.4263,0,0,0,49.4453,37.1064Z"/><path class="cls-2" d="M56.0332,37.9946l-2.1479-6.2158h1.1162l1.02,2.9756.6479,2.1484h.0718l.66-2.1484,1.0322-2.9756h1.0679l-2.16,6.2158Z"/><path class="cls-2" d="M62.957,38.1387a2.8358,2.8358,0,0,1-1.17-.2339,2.5427,2.5427,0,0,1-.8882-.6543,2.9331,2.9331,0,0,1-.5639-1.02,4.6436,4.6436,0,0,1,0-2.6817,2.9317,2.9317,0,0,1,.5639-1.0263,2.54,2.54,0,0,1,.8882-.6538,2.8262,2.8262,0,0,1,1.17-.2339,2.7588,2.7588,0,0,1,1.1582.2329,2.4617,2.4617,0,0,1,.8579.64,2.7652,2.7652,0,0,1,.5279.9688,3.9314,3.9314,0,0,1,.18,1.2075V35.15h-4.38v.2524a1.8176,1.8176,0,0,0,.456,1.2779,1.668,1.668,0,0,0,1.2959.498,1.8537,1.8537,0,0,0,1.0078-.2641,1.8973,1.8973,0,0,0,.6724-.7442l.72.6162a2.4154,2.4154,0,0,1-.9721.9839A3.0363,3.0363,0,0,1,62.957,38.1387Zm0-5.604a1.6748,1.6748,0,0,0-.666.1313,1.5656,1.5656,0,0,0-.87.918,1.9933,1.9933,0,0,0-.12.7031v.0835h3.1919v-.1191a1.8173,1.8173,0,0,0-.4141-1.2456A1.4176,1.4176,0,0,0,62.957,32.5347Z"/><path class="cls-2" d="M67.2051,37.9946V31.7788h1.1162v1.188h.06a1.7425,1.7425,0,0,1,.2159-.4443,1.5347,1.5347,0,0,1,.36-.378,1.8543,1.8543,0,0,1,.51-.2636,2.0269,2.0269,0,0,1,.666-.1021h.3721v1.1157h-.5523a2.1773,2.1773,0,0,0-1.206.2823.8515.8515,0,0,0-.4258.7378v4.08Z"/><path class="cls-2" d="M71.7051,37.9946V31.7788h1.1162v1.188h.06a1.7425,1.7425,0,0,1,.2159-.4443,1.5347,1.5347,0,0,1,.36-.378,1.8543,1.8543,0,0,1,.51-.2636,2.0269,2.0269,0,0,1,.666-.1021h.3721v1.1157h-.5523a2.1773,2.1773,0,0,0-1.206.2823.8515.8515,0,0,0-.4258.7378v4.08Z"/><path class="cls-2" d="M76.769,30.4824a.6791.6791,0,0,1-.51-.1679.6126.6126,0,0,1-.1621-.4439v-.168a.6123.6123,0,0,1,.1621-.4438.8581.8581,0,0,1,1.02,0,.6123.6123,0,0,1,.1621.4438v.168a.6126.6126,0,0,1-.1621.4439A.68.68,0,0,1,76.769,30.4824Zm-.5639,1.2964h1.1162v6.2158H76.2051Z"/><path class="cls-2" d="M83.2246,36.9863h-.0478a1.6808,1.6808,0,0,1-.6788.8614,2.04,2.04,0,0,1-1.1093.291,2.3909,2.3909,0,0,1-1.05-.2222,2.1465,2.1465,0,0,1-.7862-.6479,3.03,3.03,0,0,1-.4922-1.0259,5.5592,5.5592,0,0,1,0-2.7119,3.0372,3.0372,0,0,1,.4922-1.0264,2.1567,2.1567,0,0,1,.7862-.648,2.3921,2.3921,0,0,1,1.05-.2216,2.0387,2.0387,0,0,1,1.1093.291,1.6821,1.6821,0,0,1,.6788.8613h.0478V29.1147h1.1162v8.88H83.2246Zm-1.5117.1924a2.0048,2.0048,0,0,0,.5879-.0845,1.5089,1.5089,0,0,0,.48-.2412,1.272,1.272,0,0,0,.3233-.3618.89.89,0,0,0,.12-.4585v-2.292a.89.89,0,0,0-.12-.4585,1.272,1.272,0,0,0-.3233-.3618,1.511,1.511,0,0,0-.48-.2412,2.0048,2.0048,0,0,0-.5879-.0845,1.5324,1.5324,0,0,0-1.1943.4824A1.83,1.83,0,0,0,80.08,34.356v1.0615a1.83,1.83,0,0,0,.4385,1.2788A1.5321,1.5321,0,0,0,81.7129,37.1787Z"/><path class="cls-2" d="M88.6846,38.1387a2.8376,2.8376,0,0,1-1.17-.2339,2.535,2.535,0,0,1-.8876-.6543,2.9326,2.9326,0,0,1-.5645-1.02,4.6548,4.6548,0,0,1,0-2.6817,2.9311,2.9311,0,0,1,.5645-1.0263,2.5324,2.5324,0,0,1,.8876-.6538,2.828,2.828,0,0,1,1.17-.2339,2.7591,2.7591,0,0,1,1.1582.2329,2.47,2.47,0,0,1,.8584.64,2.7641,2.7641,0,0,1,.5273.9688,3.9314,3.9314,0,0,1,.18,1.2075V35.15H87.0293v.2524a1.8193,1.8193,0,0,0,.4551,1.2779,1.6707,1.6707,0,0,0,1.2968.498,1.8574,1.8574,0,0,0,1.0079-.2641,1.899,1.899,0,0,0,.6718-.7442l.72.6162a2.4181,2.4181,0,0,1-.9717.9839A3.0378,3.0378,0,0,1,88.6846,38.1387Zm0-5.604a1.6762,1.6762,0,0,0-.666.1313,1.5909,1.5909,0,0,0-.5284.3633,1.6139,1.6139,0,0,0-.3418.5547,1.9955,1.9955,0,0,0-.1191.7031v.0835h3.1914v-.1191a1.82,1.82,0,0,0-.4141-1.2456A1.4176,1.4176,0,0,0,88.6846,32.5347Z"/><path class="cls-2" d="M97.2891,37.9946a1.1518,1.1518,0,0,1-.877-.3174,1.197,1.197,0,0,1-.2988-.8559V32.7388h-.9961v-.96h.5517a.5666.5666,0,0,0,.4317-.1323.6543.6543,0,0,0,.12-.4439v-1.14h1.0078v1.7163h1.332v.96h-1.332v4.2959h1.2363v.96Z"/><path class="cls-2" d="M100.0488,29.1147h1.1153v3.6724h.06a2.0285,2.0285,0,0,1,.63-.8315,1.7859,1.7859,0,0,1,1.1221-.3208,1.897,1.897,0,0,1,1.5058.624,2.5972,2.5972,0,0,1,.5459,1.7637v3.9721h-1.1162V34.1821q0-1.5871-1.3076-1.5874a1.9634,1.9634,0,0,0-.5342.0723,1.5594,1.5594,0,0,0-.4619.21,1.0311,1.0311,0,0,0-.3232.3487.99.99,0,0,0-.1211.499v4.27h-1.1153Z"/><path class="cls-2" d="M109.3008,38.1387a2.8335,2.8335,0,0,1-1.17-.2339,2.5382,2.5382,0,0,1-.8887-.6543,2.9326,2.9326,0,0,1-.5645-1.02,4.6571,4.6571,0,0,1,0-2.6817,2.9311,2.9311,0,0,1,.5645-1.0263,2.5357,2.5357,0,0,1,.8887-.6538,2.8239,2.8239,0,0,1,1.17-.2339,2.7624,2.7624,0,0,1,1.1582.2329,2.4653,2.4653,0,0,1,.8574.64,2.7481,2.7481,0,0,1,.5273.9688,3.9015,3.9015,0,0,1,.1807,1.2075V35.15h-4.38v.2524a1.82,1.82,0,0,0,.4561,1.2779,1.6671,1.6671,0,0,0,1.2959.498,1.8525,1.8525,0,0,0,1.0078-.2641,1.8925,1.8925,0,0,0,.6719-.7442l.7207.6162a2.4256,2.4256,0,0,1-.9727.9839A3.0337,3.0337,0,0,1,109.3008,38.1387Zm0-5.604a1.6692,1.6692,0,0,0-.666.1313,1.5808,1.5808,0,0,0-.5284.3633,1.5989,1.5989,0,0,0-.3418.5547,1.9956,1.9956,0,0,0-.12.7031v.0835h3.1914v-.1191a1.8153,1.8153,0,0,0-.414-1.2456A1.4155,1.4155,0,0,0,109.3008,32.5347Z"/><path class="cls-2" d="M116.0918,37.9946v-.9839h1.1641V30.6025h-1.1641v-.9838h3.4922v.9838H118.42v6.4082h1.1641v.9839Z"/><path class="cls-2" d="M121.36,29.6187h3.5634a2.2508,2.2508,0,0,1,1.6446.5878,2.1,2.1,0,0,1,.6,1.5723,2.0257,2.0257,0,0,1-.1377.792,1.7455,1.7455,0,0,1-.3418.5337,1.4067,1.4067,0,0,1-.4561.3184,1.6773,1.6773,0,0,1-.48.1318v.0718a1.8513,1.8513,0,0,1,.5341.12,1.7446,1.7446,0,0,1,.5576.3423,1.8547,1.8547,0,0,1,.4385.6,2.0689,2.0689,0,0,1,.1739.894,2.6351,2.6351,0,0,1-.168.9541,2.4633,2.4633,0,0,1-.4561.7622,2.097,2.097,0,0,1-.6836.51,2.0078,2.0078,0,0,1-.8642.186H121.36Zm1.164,3.5878h2.22a1.2421,1.2421,0,0,0,.8643-.2817,1.0356,1.0356,0,0,0,.3115-.81v-.3959a1.0356,1.0356,0,0,0-.3115-.81,1.2423,1.2423,0,0,0-.8643-.2822h-2.22Zm0,3.78h2.4111a1.3561,1.3561,0,0,0,.9366-.3,1.1294,1.1294,0,0,0,.3369-.8877v-.42a1.1308,1.1308,0,0,0-.3369-.8877,1.3561,1.3561,0,0,0-.9366-.3h-2.4111Z"/><path class="cls-2" d="M135.7,31.2266h-.06l-.6845,1.38-1.92,3.5162-1.92-3.5162-.6846-1.38h-.06v6.768h-1.128V29.6187h1.4639l2.3281,4.4038h.0479l2.3281-4.4038h1.416v8.3759H135.7Z"/><path class="cls-2" d="M145.66,36.9863h-.0479a1.6806,1.6806,0,0,1-.6787.8614,2.04,2.04,0,0,1-1.1094.291,2.3909,2.3909,0,0,1-1.05-.2222,2.1462,2.1462,0,0,1-.7861-.6479,3.0281,3.0281,0,0,1-.4922-1.0259,5.556,5.556,0,0,1,0-2.7119,3.0353,3.0353,0,0,1,.4922-1.0264,2.1564,2.1564,0,0,1,.7861-.648,2.3921,2.3921,0,0,1,1.05-.2216,2.0388,2.0388,0,0,1,1.1094.291,1.682,1.682,0,0,1,.6787.8613h.0479V29.1147h1.1162v8.88H145.66Zm-1.5118.1924a2.0043,2.0043,0,0,0,.5879-.0845,1.5094,1.5094,0,0,0,.4805-.2412,1.27,1.27,0,0,0,.3232-.3618.89.89,0,0,0,.12-.4585v-2.292a.89.89,0,0,0-.12-.4585,1.27,1.27,0,0,0-.3232-.3618,1.5115,1.5115,0,0,0-.4805-.2412,2.0043,2.0043,0,0,0-.5879-.0845,1.5326,1.5326,0,0,0-1.1943.4824,1.83,1.83,0,0,0-.4385,1.2789v1.0615a1.83,1.83,0,0,0,.4385,1.2788A1.5323,1.5323,0,0,0,144.1484,37.1787Z"/><path class="cls-2" d="M151.1191,38.1387a2.8375,2.8375,0,0,1-1.17-.2339,2.5454,2.5454,0,0,1-.8877-.6543,2.9341,2.9341,0,0,1-.5635-1.02,4.6346,4.6346,0,0,1,0-2.6817,2.9326,2.9326,0,0,1,.5635-1.0263,2.5428,2.5428,0,0,1,.8877-.6538,2.8279,2.8279,0,0,1,1.17-.2339,2.7556,2.7556,0,0,1,1.1582.2329,2.459,2.459,0,0,1,.8584.64,2.7822,2.7822,0,0,1,.5284.9688,3.9619,3.9619,0,0,1,.18,1.2075V35.15h-4.38v.2524a1.8154,1.8154,0,0,0,.456,1.2779,1.6686,1.6686,0,0,0,1.2959.498,1.8546,1.8546,0,0,0,1.0078-.2641,1.9022,1.9022,0,0,0,.6729-.7442l.7187.6162a2.405,2.405,0,0,1-.9716.9839A3.0382,3.0382,0,0,1,151.1191,38.1387Zm0-5.604a1.68,1.68,0,0,0-.666.1313,1.5667,1.5667,0,0,0-.8691.918,1.9933,1.9933,0,0,0-.12.7031v.0835h3.1923v-.1191a1.82,1.82,0,0,0-.414-1.2456A1.42,1.42,0,0,0,151.1191,32.5347Z"/><path class="cls-2" d="M155.7031,32.7388h-.9951v-.96h.9951V30.6265a1.6119,1.6119,0,0,1,.3614-1.0977,1.3667,1.3667,0,0,1,1.0917-.4141h.9717v.96H156.82v1.7041h1.3076v.96H156.82v5.2558h-1.1172Z"/><path class="cls-2" d="M163.8633,37.9946a.9856.9856,0,0,1-.7735-.2881,1.3486,1.3486,0,0,1-.3183-.7441h-.0606a1.5972,1.5972,0,0,1-.66.8765,2.0674,2.0674,0,0,1-1.1387.3,2.1486,2.1486,0,0,1-1.5127-.4981,1.76,1.76,0,0,1-.54-1.3618,1.59,1.59,0,0,1,.6543-1.374,3.4134,3.4134,0,0,1,1.998-.4741h1.1758v-.564a1.3008,1.3008,0,0,0-.3359-.96,1.4248,1.4248,0,0,0-1.044-.3359,1.6115,1.6115,0,0,0-.918.2456,2.0335,2.0335,0,0,0-.6064.6421l-.6719-.6118a2.363,2.363,0,0,1,.834-.8579,2.6117,2.6117,0,0,1,1.4219-.354,2.65,2.65,0,0,1,1.8008.5566,1.9824,1.9824,0,0,1,.6357,1.5747v3.2686H164.5v.96Zm-2.6992-.7558a1.8724,1.8724,0,0,0,1.0918-.3.9038.9038,0,0,0,.4316-.7681v-.96H161.5a2.1338,2.1338,0,0,0-1.123.2281.739.739,0,0,0-.3536.66v.24a.7858.7858,0,0,0,.3067.6655A1.3371,1.3371,0,0,0,161.1641,37.2388Z"/><path class="cls-2" d="M169.6357,36.9863h-.06a2.1726,2.1726,0,0,1-.2227.4336,1.5206,1.5206,0,0,1-.3476.3682,1.701,1.701,0,0,1-.4981.2554,2.1474,2.1474,0,0,1-.6719.0952,1.9121,1.9121,0,0,1-1.5117-.6241,2.57,2.57,0,0,1-.5527-1.7641V31.7788h1.1162v3.8125q0,1.5872,1.3193,1.5874a2.0846,2.0846,0,0,0,.5225-.0664,1.3209,1.3209,0,0,0,.456-.21,1.16,1.16,0,0,0,.3243-.36.9885.9885,0,0,0,.1259-.5054V31.7788h1.1163v6.2158h-1.1163Z"/><path class="cls-2" d="M173.8828,37.9946a1.138,1.138,0,0,1-.8691-.312,1.1572,1.1572,0,0,1-.295-.8281v-7.74h1.1172v7.92h.8868v.96Z"/><path class="cls-2" d="M177.52,37.9946a1.149,1.149,0,0,1-.8759-.3174,1.1932,1.1932,0,0,1-.3-.8559V32.7388h-.996v-.96H175.9a.5679.5679,0,0,0,.4316-.1323.6546.6546,0,0,0,.1192-.4439v-1.14H177.46v1.7163h1.331v.96H177.46v4.2959h1.2353v.96Z"/><path class="cls-2" d="M183.1113,31.7788h1.1162v1.0083h.0479a1.69,1.69,0,0,1,.6777-.8613,2.0425,2.0425,0,0,1,1.11-.291,2.3983,2.3983,0,0,1,1.05.2216,2.1482,2.1482,0,0,1,.7861.648,3.0353,3.0353,0,0,1,.4922,1.0264,5.556,5.556,0,0,1,0,2.7119,3.0281,3.0281,0,0,1-.4922,1.0259,2.1381,2.1381,0,0,1-.7861.6479,2.397,2.397,0,0,1-1.05.2222,2.0434,2.0434,0,0,1-1.11-.291,1.6886,1.6886,0,0,1-.6777-.8614h-.0479v3.4082h-1.1162Zm2.628,5.4a1.5324,1.5324,0,0,0,1.1943-.4824,1.83,1.83,0,0,0,.4375-1.2788V34.356a1.83,1.83,0,0,0-.4375-1.2789,1.5327,1.5327,0,0,0-1.1943-.4824,2.0038,2.0038,0,0,0-.5879.0845,1.4855,1.4855,0,0,0-.48.2412,1.2461,1.2461,0,0,0-.3242.3618.89.89,0,0,0-.12.4585v2.292a.89.89,0,0,0,.12.4585,1.2461,1.2461,0,0,0,.3242.3618,1.4835,1.4835,0,0,0,.48.2412A2.0038,2.0038,0,0,0,185.7393,37.1787Z"/><path class="cls-2" d="M190.1309,37.9946V31.7788h1.1171v1.188h.06a1.7588,1.7588,0,0,1,.2158-.4443,1.533,1.533,0,0,1,.3594-.378,1.8632,1.8632,0,0,1,.5108-.2636,2.0281,2.0281,0,0,1,.666-.1021h.372v1.1157h-.5527a2.173,2.173,0,0,0-1.2051.2823.85.85,0,0,0-.4258.7378v4.08Z"/><path class="cls-2" d="M196.959,38.1387a2.8682,2.8682,0,0,1-1.1582-.2281,2.5038,2.5038,0,0,1-.8936-.6538,2.9917,2.9917,0,0,1-.5752-1.0263,4.5082,4.5082,0,0,1,0-2.688,2.9954,2.9954,0,0,1,.5752-1.0259,2.5038,2.5038,0,0,1,.8936-.6538,3.0557,3.0557,0,0,1,2.3164,0,2.507,2.507,0,0,1,.8945.6538,3.0271,3.0271,0,0,1,.5762,1.0259,4.5485,4.5485,0,0,1,0,2.688,3.0233,3.0233,0,0,1-.5762,1.0263,2.507,2.507,0,0,1-.8945.6538A2.8651,2.8651,0,0,1,196.959,38.1387Zm0-.96a1.6065,1.6065,0,0,0,1.1885-.456,1.8594,1.8594,0,0,0,.456-1.3682v-.936a1.8588,1.8588,0,0,0-.456-1.3677,1.7752,1.7752,0,0,0-2.376,0,1.8546,1.8546,0,0,0-.4561,1.3677v.936a1.8553,1.8553,0,0,0,.4561,1.3682A1.604,1.604,0,0,0,196.959,37.1787Z"/><path class="cls-2" d="M201.3154,31.7788h1.1162v1.0083h.0479a1.6815,1.6815,0,0,1,.6787-.8613,2.0364,2.0364,0,0,1,1.1094-.291,2.3952,2.3952,0,0,1,1.05.2216,2.1564,2.1564,0,0,1,.7861.648,3.0353,3.0353,0,0,1,.4922,1.0264,5.556,5.556,0,0,1,0,2.7119,3.0281,3.0281,0,0,1-.4922,1.0259,2.1462,2.1462,0,0,1-.7861.6479,2.3939,2.3939,0,0,1-1.05.2222,2.0373,2.0373,0,0,1-1.1094-.291,1.68,1.68,0,0,1-.6787-.8614h-.0479v3.4082h-1.1162Zm2.628,5.4a1.5323,1.5323,0,0,0,1.1943-.4824,1.83,1.83,0,0,0,.4385-1.2788V34.356a1.83,1.83,0,0,0-.4385-1.2789,1.5326,1.5326,0,0,0-1.1943-.4824,2,2,0,0,0-.5879.0845,1.5115,1.5115,0,0,0-.4805.2412,1.2437,1.2437,0,0,0-.3232.3618.89.89,0,0,0-.12.4585v2.292a.89.89,0,0,0,.12.4585,1.2437,1.2437,0,0,0,.3232.3618,1.5094,1.5094,0,0,0,.4805.2412A2,2,0,0,0,203.9434,37.1787Z"/><path class="cls-2" d="M210.7109,38.1387a2.8341,2.8341,0,0,1-1.17-.2339,2.5491,2.5491,0,0,1-.8887-.6543,2.9323,2.9323,0,0,1-.5634-1.02,4.6324,4.6324,0,0,1,0-2.6817,2.9309,2.9309,0,0,1,.5634-1.0263,2.5466,2.5466,0,0,1,.8887-.6538,2.8246,2.8246,0,0,1,1.17-.2339,2.7588,2.7588,0,0,1,1.1582.2329,2.4565,2.4565,0,0,1,.8575.64,2.7659,2.7659,0,0,1,.5283.9688,3.9314,3.9314,0,0,1,.1806,1.2075V35.15h-4.3808v.2524a1.816,1.816,0,0,0,.457,1.2779,1.6652,1.6652,0,0,0,1.2949.498,1.85,1.85,0,0,0,1.0079-.2641,1.8945,1.8945,0,0,0,.6728-.7442l.72.6162a2.4136,2.4136,0,0,1-.9726.9839A3.0344,3.0344,0,0,1,210.7109,38.1387Zm0-5.604a1.6731,1.6731,0,0,0-.666.1313,1.5667,1.5667,0,0,0-.8691.918,1.9934,1.9934,0,0,0-.1211.7031v.0835h3.1924v-.1191a1.8149,1.8149,0,0,0-.4141-1.2456A1.4176,1.4176,0,0,0,210.7109,32.5347Z"/><path class="cls-2" d="M214.959,37.9946V31.7788h1.1162v1.188h.06a1.76,1.76,0,0,1,.2168-.4443,1.5144,1.5144,0,0,1,.3593-.378,1.8727,1.8727,0,0,1,.51-.2636,2.029,2.029,0,0,1,.666-.1021h.3731v1.1157h-.5528a2.1786,2.1786,0,0,0-1.206.2823.8515.8515,0,0,0-.4258.7378v4.08Z"/><path class="cls-2" d="M221.0312,37.9946a1.1517,1.1517,0,0,1-.8769-.3174,1.197,1.197,0,0,1-.2988-.8559V32.7388h-.9961v-.96h.5517a.5668.5668,0,0,0,.4317-.1323.6543.6543,0,0,0,.12-.4439v-1.14h1.0078v1.7163h1.332v.96h-1.332v4.2959h1.2363v.96Z"/><path class="cls-2" d="M227.6191,31.7788h1.08l-2.7,7.5718a3.1224,3.1224,0,0,1-.2275.4922,1.0079,1.0079,0,0,1-.2949.3237,1.17,1.17,0,0,1-.4141.1743,2.8119,2.8119,0,0,1-.6.0537h-.6113v-.96h1.02l.42-1.1983-2.3037-6.4575h1.1162l1.3789,3.9639.3242,1.1616h.0606l.3594-1.1616Z"/><path class="cls-2" d="M47.5371,52.3945l-2.1479-6.2158h1.1162l1.02,2.9756.6479,2.1484h.0718l.66-2.1484,1.0322-2.9756h1.0679l-2.16,6.2158Z"/><path class="cls-2" d="M56.5972,52.3945a.9867.9867,0,0,1-.774-.2881,1.3479,1.3479,0,0,1-.3178-.7441h-.06a1.6041,1.6041,0,0,1-.66.8765,2.0711,2.0711,0,0,1-1.14.3,2.1472,2.1472,0,0,1-1.5122-.4981,1.7617,1.7617,0,0,1-.54-1.3618,1.59,1.59,0,0,1,.6543-1.374,3.4127,3.4127,0,0,1,1.9975-.4741h1.1763v-.564a1.3,1.3,0,0,0-.336-.96,1.4237,1.4237,0,0,0-1.0439-.3359,1.6124,1.6124,0,0,0-.918.2456,2.0254,2.0254,0,0,0-.6059.6421l-.6724-.6118a2.367,2.367,0,0,1,.834-.8579,2.6135,2.6135,0,0,1,1.4224-.354,2.6472,2.6472,0,0,1,1.8.5566,1.9827,1.9827,0,0,1,.6362,1.5747v3.2686h.6958v.96Zm-2.7-.7558a1.8691,1.8691,0,0,0,1.0918-.3.9023.9023,0,0,0,.4321-.7681v-.96h-1.188a2.1305,2.1305,0,0,0-1.1221.228.7386.7386,0,0,0-.354.66v.24a.7881.7881,0,0,0,.3062.6655A1.34,1.34,0,0,0,53.8975,51.6387Z"/><path class="cls-2" d="M59.729,52.3945a1.14,1.14,0,0,1-.87-.312,1.1589,1.1589,0,0,1-.294-.8281v-7.74h1.1163v7.92h.8876v.96Z"/><path class="cls-2" d="M65.7051,51.3862h-.06a2.1412,2.1412,0,0,1-.2221.4336,1.5211,1.5211,0,0,1-.3477.3682,1.6873,1.6873,0,0,1-.4981.2554,2.1478,2.1478,0,0,1-.6723.0952,1.9135,1.9135,0,0,1-1.5117-.624,2.5749,2.5749,0,0,1-.5523-1.7642V46.1787H62.957v3.8125q0,1.5872,1.32,1.5874a2.08,2.08,0,0,0,.5219-.0664,1.3223,1.3223,0,0,0,.4561-.21,1.1667,1.1667,0,0,0,.3242-.36.9876.9876,0,0,0,.126-.5054V46.1787h1.1157v6.2158H65.7051Z"/><path class="cls-2" d="M71.165,52.5386a2.8358,2.8358,0,0,1-1.17-.2339,2.5427,2.5427,0,0,1-.8882-.6543,2.9331,2.9331,0,0,1-.5639-1.02,4.6436,4.6436,0,0,1,0-2.6817,2.9317,2.9317,0,0,1,.5639-1.0263,2.54,2.54,0,0,1,.8882-.6538,2.8262,2.8262,0,0,1,1.17-.2339,2.7588,2.7588,0,0,1,1.1582.2329,2.463,2.463,0,0,1,.858.64,2.765,2.765,0,0,1,.5278.9688,3.9314,3.9314,0,0,1,.18,1.2075V49.55h-4.38v.2524a1.8176,1.8176,0,0,0,.456,1.2779,1.668,1.668,0,0,0,1.2959.498,1.8535,1.8535,0,0,0,1.0078-.2641,1.8973,1.8973,0,0,0,.6724-.7442l.72.6162a2.4154,2.4154,0,0,1-.9721.9839A3.0363,3.0363,0,0,1,71.165,52.5386Zm0-5.604a1.6748,1.6748,0,0,0-.666.1313,1.5656,1.5656,0,0,0-.87.918,1.9933,1.9933,0,0,0-.12.7031v.0835h3.1919v-.1191a1.8173,1.8173,0,0,0-.4141-1.2456A1.4176,1.4176,0,0,0,71.165,46.9346Z"/><path class="cls-2" d="M77.3208,52.5386a3.0063,3.0063,0,0,1-1.458-.3242,3.2936,3.2936,0,0,1-1.0259-.876l.7559-.648a2.5627,2.5627,0,0,0,.7861.6841,2.0723,2.0723,0,0,0,1.0137.24,1.45,1.45,0,0,0,.9121-.246.8917.8917,0,0,0,.1015-1.254,1.323,1.323,0,0,0-.7856-.312l-.5278-.0839a4.0437,4.0437,0,0,1-.8159-.1924,2.1,2.1,0,0,1-.6363-.3477,1.53,1.53,0,0,1-.414-.5283,1.701,1.701,0,0,1-.15-.7437,1.8693,1.8693,0,0,1,.1679-.81,1.61,1.61,0,0,1,.4683-.5884,2.0987,2.0987,0,0,1,.7139-.354,3.2562,3.2562,0,0,1,.9057-.12,2.94,2.94,0,0,1,1.32.2636,2.8981,2.8981,0,0,1,.9239.7325l-.7071.6718a2.006,2.006,0,0,0-.6191-.5219,1.8962,1.8962,0,0,0-.9531-.2222,1.3,1.3,0,0,0-.8584.24.7931.7931,0,0,0-.2818.6358.6974.6974,0,0,0,.27.6118,1.9247,1.9247,0,0,0,.81.2764l.5278.0839a2.6418,2.6418,0,0,1,1.4815.6,1.5593,1.5593,0,0,1,.4512,1.1636,1.7733,1.7733,0,0,1-.6368,1.44A2.6413,2.6413,0,0,1,77.3208,52.5386Z"/><path class="cls-2" d="M85.6484,52.3945a1.1492,1.1492,0,0,1-.8759-.3174,1.1932,1.1932,0,0,1-.3-.8559V47.1387h-.9961v-.96h.5527a.5679.5679,0,0,0,.4316-.1323.6546.6546,0,0,0,.1192-.4439v-1.14h1.0088v1.7163H86.92v.96h-1.331v4.2959h1.2353v.96Z"/><path class="cls-2" d="M88.4082,43.5146h1.1172V47.187h.06a2.0292,2.0292,0,0,1,.63-.8315,1.7859,1.7859,0,0,1,1.1221-.3208,1.8972,1.8972,0,0,1,1.5059.624,2.5926,2.5926,0,0,1,.5459,1.7637v3.9721H92.2734V48.582q0-1.5872-1.3086-1.5874a1.9675,1.9675,0,0,0-.5341.0723,1.5729,1.5729,0,0,0-.462.21,1.0341,1.0341,0,0,0-.3242.3487.99.99,0,0,0-.1191.499v4.27H88.4082Z"/><path class="cls-2" d="M99.8086,52.3945a.9852.9852,0,0,1-.7734-.2881,1.3477,1.3477,0,0,1-.3184-.7441h-.0606a1.5972,1.5972,0,0,1-.66.8765,2.0674,2.0674,0,0,1-1.1387.3,2.1486,2.1486,0,0,1-1.5127-.4981,1.76,1.76,0,0,1-.54-1.3618,1.5906,1.5906,0,0,1,.6543-1.374,3.4134,3.4134,0,0,1,1.998-.4741h1.1758v-.564a1.3008,1.3008,0,0,0-.3359-.96,1.4248,1.4248,0,0,0-1.044-.3359,1.6109,1.6109,0,0,0-.9179.2456,2.0327,2.0327,0,0,0-.6065.6421l-.6719-.6118a2.3638,2.3638,0,0,1,.834-.8579,2.6117,2.6117,0,0,1,1.4219-.354,2.65,2.65,0,0,1,1.8008.5566,1.9824,1.9824,0,0,1,.6357,1.5747v3.2686h.6963v.96Zm-2.6992-.7558a1.8724,1.8724,0,0,0,1.0918-.3.9038.9038,0,0,0,.4316-.7681v-.96H97.4453a2.134,2.134,0,0,0-1.123.228.739.739,0,0,0-.3536.66v.24a.7858.7858,0,0,0,.3067.6655A1.3371,1.3371,0,0,0,97.1094,51.6387Z"/><path class="cls-2" d="M103.2891,52.3945a1.1518,1.1518,0,0,1-.877-.3174,1.197,1.197,0,0,1-.2988-.8559V47.1387h-.9961v-.96h.5517a.5666.5666,0,0,0,.4317-.1323.6543.6543,0,0,0,.12-.4439v-1.14h1.0078v1.7163h1.332v.96h-1.332v4.2959h1.2363v.96Z"/><path class="cls-2" d="M113.4043,52.3945a.9852.9852,0,0,1-.7734-.2881,1.3477,1.3477,0,0,1-.3184-.7441h-.0605a1.5978,1.5978,0,0,1-.66.8765,2.0674,2.0674,0,0,1-1.1387.3,2.1486,2.1486,0,0,1-1.5127-.4981,1.76,1.76,0,0,1-.54-1.3618,1.5906,1.5906,0,0,1,.6543-1.374,3.4134,3.4134,0,0,1,1.998-.4741h1.1758v-.564a1.3008,1.3008,0,0,0-.3359-.96,1.4248,1.4248,0,0,0-1.044-.3359,1.6109,1.6109,0,0,0-.9179.2456,2.0327,2.0327,0,0,0-.6065.6421l-.6719-.6118a2.3638,2.3638,0,0,1,.834-.8579,2.6117,2.6117,0,0,1,1.4219-.354,2.65,2.65,0,0,1,1.8008.5566,1.9824,1.9824,0,0,1,.6357,1.5747v3.2686h.6963v.96Zm-2.6992-.7558a1.8724,1.8724,0,0,0,1.0918-.3.9038.9038,0,0,0,.4316-.7681v-.96H111.041a2.134,2.134,0,0,0-1.123.228.739.739,0,0,0-.3535.66v.24a.7857.7857,0,0,0,.3066.6655A1.3371,1.3371,0,0,0,110.7051,51.6387Z"/><path class="cls-2" d="M115.3721,52.3945V46.1787h1.1162v1.188h.0605a1.7221,1.7221,0,0,1,.2149-.4443,1.5555,1.5555,0,0,1,.36-.378,1.8363,1.8363,0,0,1,.5108-.2636,2.0243,2.0243,0,0,1,.666-.1021h.3711v1.1157H118.12a2.1761,2.1761,0,0,0-1.206.2823.8515.8515,0,0,0-.4258.7378v4.08Z"/><path class="cls-2" d="M122.1875,52.5386a2.8371,2.8371,0,0,1-1.17-.2339,2.5435,2.5435,0,0,1-.8877-.6543,2.9308,2.9308,0,0,1-.5635-1.02,4.6346,4.6346,0,0,1,0-2.6817,2.9294,2.9294,0,0,1,.5635-1.0263,2.541,2.541,0,0,1,.8877-.6538,2.8275,2.8275,0,0,1,1.17-.2339,2.7559,2.7559,0,0,1,1.1582.2329,2.46,2.46,0,0,1,.8584.64,2.782,2.782,0,0,1,.5283.9688,3.9588,3.9588,0,0,1,.18,1.2075V49.55h-4.38v.2524a1.8154,1.8154,0,0,0,.4561,1.2779,1.6686,1.6686,0,0,0,1.2959.498,1.8549,1.8549,0,0,0,1.0078-.2641,1.9012,1.9012,0,0,0,.6728-.7442l.7188.6162a2.4058,2.4058,0,0,1-.9717.9839A3.0376,3.0376,0,0,1,122.1875,52.5386Zm0-5.604a1.68,1.68,0,0,0-.666.1313,1.5665,1.5665,0,0,0-.8692.918,1.9956,1.9956,0,0,0-.12.7031v.0835h3.1924v-.1191a1.82,1.82,0,0,0-.4141-1.2456A1.4194,1.4194,0,0,0,122.1875,46.9346Z"/><path class="cls-2" d="M133.2041,51.3862h-.0479a1.6886,1.6886,0,0,1-.6777.8614,2.043,2.043,0,0,1-1.11.291,2.3939,2.3939,0,0,1-1.05-.2222,2.1384,2.1384,0,0,1-.7862-.6479,3.0281,3.0281,0,0,1-.4922-1.0259,5.5592,5.5592,0,0,1,0-2.7119,3.0353,3.0353,0,0,1,.4922-1.0264,2.1485,2.1485,0,0,1,.7862-.648,2.3952,2.3952,0,0,1,1.05-.2216,2.0422,2.0422,0,0,1,1.11.291,1.69,1.69,0,0,1,.6777.8613h.0479V43.5146H134.32v8.88h-1.1162Zm-1.5117.1924a2.0048,2.0048,0,0,0,.5879-.0845,1.4855,1.4855,0,0,0,.48-.2412,1.2475,1.2475,0,0,0,.3242-.3618.89.89,0,0,0,.12-.4585v-2.292a.89.89,0,0,0-.12-.4585,1.2475,1.2475,0,0,0-.3242-.3618,1.4875,1.4875,0,0,0-.48-.2412,2.0048,2.0048,0,0,0-.5879-.0845,1.5311,1.5311,0,0,0-1.1944.4825,1.83,1.83,0,0,0-.4375,1.2788v1.0615a1.83,1.83,0,0,0,.4375,1.2788A1.531,1.531,0,0,0,131.6924,51.5786Z"/><path class="cls-2" d="M136.8516,44.8823a.6808.6808,0,0,1-.51-.1679.6147.6147,0,0,1-.1621-.4439v-.168a.6144.6144,0,0,1,.1621-.4438.8589.8589,0,0,1,1.02,0,.61.61,0,0,1,.1621.4438v.168a.6105.6105,0,0,1-.1621.4439A.6817.6817,0,0,1,136.8516,44.8823Zm-.5635,1.2964h1.1162v6.2158h-1.1162Z"/><path class="cls-2" d="M141.2793,52.5386a3.0008,3.0008,0,0,1-1.457-.3242,3.2954,3.2954,0,0,1-1.0264-.876l.7559-.648a2.5513,2.5513,0,0,0,.7861.6841,2.0709,2.0709,0,0,0,1.0137.24,1.4488,1.4488,0,0,0,.9121-.246.8917.8917,0,0,0,.1015-1.254,1.3228,1.3228,0,0,0-.7851-.312l-.5283-.0839a4.0333,4.0333,0,0,1-.8155-.1924,2.103,2.103,0,0,1-.6367-.3477,1.5254,1.5254,0,0,1-.4141-.5283,1.708,1.708,0,0,1-.15-.7437,1.8766,1.8766,0,0,1,.1679-.81,1.6162,1.6162,0,0,1,.4688-.5884,2.09,2.09,0,0,1,.7138-.354,3.2564,3.2564,0,0,1,.9053-.12,2.939,2.939,0,0,1,1.32.2636,2.8981,2.8981,0,0,1,.9239.7325l-.7071.6718a2.006,2.006,0,0,0-.6191-.5219,1.8978,1.8978,0,0,0-.9531-.2222,1.3,1.3,0,0,0-.8584.24.792.792,0,0,0-.2823.6358.6966.6966,0,0,0,.2705.6118,1.9279,1.9279,0,0,0,.81.2764l.5283.0839a2.6422,2.6422,0,0,1,1.4815.6,1.5592,1.5592,0,0,1,.4511,1.1636,1.7732,1.7732,0,0,1-.6367,1.44A2.6418,2.6418,0,0,1,141.2793,52.5386Z"/><path class="cls-2" d="M145.252,46.1787h1.1152V47.187h.0488a1.6808,1.6808,0,0,1,.6777-.8613,2.0392,2.0392,0,0,1,1.1094-.291,2.4,2.4,0,0,1,1.0508.2216,2.1463,2.1463,0,0,1,.7852.648,2.9983,2.9983,0,0,1,.4921,1.0264,5.556,5.556,0,0,1,0,2.7119,2.9912,2.9912,0,0,1-.4921,1.0259,2.1362,2.1362,0,0,1-.7852.6479,2.3984,2.3984,0,0,1-1.0508.2222,2.04,2.04,0,0,1-1.1094-.291,1.6794,1.6794,0,0,1-.6777-.8614h-.0488v3.4082H145.252Zm2.6269,5.4a1.5344,1.5344,0,0,0,1.1953-.4824,1.8344,1.8344,0,0,0,.4375-1.2788V48.7559a1.834,1.834,0,0,0-.4375-1.2788,1.5345,1.5345,0,0,0-1.1953-.4825,2.01,2.01,0,0,0-.5879.0845,1.4968,1.4968,0,0,0-.48.2412,1.2437,1.2437,0,0,0-.3232.3618.8909.8909,0,0,0-.1211.4585v2.292a.8906.8906,0,0,0,.1211.4585,1.2437,1.2437,0,0,0,.3232.3618,1.4947,1.4947,0,0,0,.48.2412A2.01,2.01,0,0,0,147.8789,51.5786Z"/><path class="cls-2" d="M153.4355,52.3945a1.1405,1.1405,0,0,1-.87-.312,1.1566,1.1566,0,0,1-.2939-.8281v-7.74h1.1162v7.92h.8877v.96Z"/><path class="cls-2" d="M160.1309,52.3945a.9856.9856,0,0,1-.7735-.2881,1.3547,1.3547,0,0,1-.3183-.7441h-.06a1.6061,1.6061,0,0,1-.66.8765,2.0705,2.0705,0,0,1-1.14.3,2.1439,2.1439,0,0,1-1.5117-.4981,1.7606,1.7606,0,0,1-.541-1.3618,1.5929,1.5929,0,0,1,.6542-1.374,3.4139,3.4139,0,0,1,1.9981-.4741h1.1758v-.564a1.2968,1.2968,0,0,0-.336-.96,1.4219,1.4219,0,0,0-1.0429-.3359,1.6091,1.6091,0,0,0-.918.2456,2.0213,2.0213,0,0,0-.6064.6421l-.6729-.6118a2.3792,2.3792,0,0,1,.834-.8579,2.6173,2.6173,0,0,1,1.4228-.354,2.6453,2.6453,0,0,1,1.8.5566,1.9827,1.9827,0,0,1,.6368,1.5747v3.2686h.6953v.96Zm-2.6993-.7558a1.87,1.87,0,0,0,1.0918-.3.9016.9016,0,0,0,.4317-.7681v-.96h-1.1875a2.1305,2.1305,0,0,0-1.1221.228.74.74,0,0,0-.3545.66v.24a.7884.7884,0,0,0,.3067.6655A1.341,1.341,0,0,0,157.4316,51.6387Z"/><path class="cls-2" d="M165.8555,46.1787h1.08l-2.7,7.5718a3.1221,3.1221,0,0,1-.2276.4922,1.0079,1.0079,0,0,1-.2949.3237,1.1689,1.1689,0,0,1-.4141.1743,2.8106,2.8106,0,0,1-.6.0537h-.6113v-.96h1.02l.42-1.1983-2.3037-6.4575H162.34l1.3789,3.9639.3243,1.1616h.06l.3594-1.1616Z"/><path class="cls-2" d="M170.4033,52.5386a2.8371,2.8371,0,0,1-1.17-.2339,2.5353,2.5353,0,0,1-.8877-.6543,2.9358,2.9358,0,0,1-.5645-1.02,4.6571,4.6571,0,0,1,0-2.6817,2.9343,2.9343,0,0,1,.5645-1.0263,2.5328,2.5328,0,0,1,.8877-.6538,2.8275,2.8275,0,0,1,1.17-.2339,2.7591,2.7591,0,0,1,1.1582.2329,2.4682,2.4682,0,0,1,.8584.64,2.7642,2.7642,0,0,1,.5274.9688,3.9314,3.9314,0,0,1,.18,1.2075V49.55h-4.379v.2524a1.8193,1.8193,0,0,0,.4551,1.2779,1.671,1.671,0,0,0,1.2969.498,1.8573,1.8573,0,0,0,1.0078-.2641,1.9,1.9,0,0,0,.6719-.7442l.72.6162a2.4169,2.4169,0,0,1-.9717.9839A3.0376,3.0376,0,0,1,170.4033,52.5386Zm0-5.604a1.6766,1.6766,0,0,0-.666.1313,1.59,1.59,0,0,0-.5283.3633,1.6124,1.6124,0,0,0-.3418.5547,1.9932,1.9932,0,0,0-.1192.7031v.0835H171.94v-.1191a1.82,1.82,0,0,0-.4141-1.2456A1.4176,1.4176,0,0,0,170.4033,46.9346Z"/><path class="cls-2" d="M178.5879,51.3862h-.0488a1.6791,1.6791,0,0,1-.6778.8614,2.0419,2.0419,0,0,1-1.1093.291,2.3984,2.3984,0,0,1-1.0508-.2222,2.1362,2.1362,0,0,1-.7852-.6479,2.9932,2.9932,0,0,1-.4922-1.0259,5.5592,5.5592,0,0,1,0-2.7119,3,3,0,0,1,.4922-1.0264,2.1463,2.1463,0,0,1,.7852-.648,2.4,2.4,0,0,1,1.0508-.2216,2.041,2.041,0,0,1,1.1093.291,1.68,1.68,0,0,1,.6778.8613h.0488V43.5146h1.1152v8.88h-1.1152Zm-1.5117.1924a2.01,2.01,0,0,0,.5879-.0845,1.4947,1.4947,0,0,0,.48-.2412,1.2582,1.2582,0,0,0,.3232-.3618.8906.8906,0,0,0,.1211-.4585v-2.292a.8909.8909,0,0,0-.1211-.4585,1.2582,1.2582,0,0,0-.3232-.3618,1.4968,1.4968,0,0,0-.48-.2412,2.01,2.01,0,0,0-.5879-.0845,1.5344,1.5344,0,0,0-1.1953.4825,1.8335,1.8335,0,0,0-.4375,1.2788v1.0615a1.8339,1.8339,0,0,0,.4375,1.2788A1.5343,1.5343,0,0,0,177.0762,51.5786Z"/><path class="cls-2" d="M183.8672,46.1787h1.08l.6484,2.6519.623,2.5561h.0245l.708-2.5561.7675-2.6519h.9961l.792,2.6519.72,2.5561h.0371l.5879-2.5561.66-2.6519h1.043l-1.6563,6.2158h-1.3193l-.84-2.916-.5284-1.8242h-.0234l-.5166,1.8242-.84,2.916h-1.2959Z"/><path class="cls-2" d="M193.8867,43.5146h1.1172V47.187h.06a2.0285,2.0285,0,0,1,.63-.8315,1.7854,1.7854,0,0,1,1.122-.3208,1.8972,1.8972,0,0,1,1.5059.624,2.5926,2.5926,0,0,1,.5459,1.7637v3.9721H197.752V48.582q0-1.5872-1.3086-1.5874a1.9687,1.9687,0,0,0-.5342.0723,1.5711,1.5711,0,0,0-.4619.21,1.0334,1.0334,0,0,0-.3243.3487.99.99,0,0,0-.1191.499v4.27h-1.1172Z"/><path class="cls-2" d="M203.1387,52.5386a2.8376,2.8376,0,0,1-1.17-.2339,2.5441,2.5441,0,0,1-.8876-.6543,2.9308,2.9308,0,0,1-.5635-1.02,4.6324,4.6324,0,0,1,0-2.6817,2.9294,2.9294,0,0,1,.5635-1.0263,2.5416,2.5416,0,0,1,.8876-.6538,2.828,2.828,0,0,1,1.17-.2339,2.7562,2.7562,0,0,1,1.1582.2329,2.4608,2.4608,0,0,1,.8584.64,2.782,2.782,0,0,1,.5283.9688,3.9619,3.9619,0,0,1,.18,1.2075V49.55h-4.38v.2524a1.8154,1.8154,0,0,0,.4561,1.2779,1.6686,1.6686,0,0,0,1.2959.498,1.8549,1.8549,0,0,0,1.0078-.2641,1.902,1.902,0,0,0,.6728-.7442l.7188.6162a2.4058,2.4058,0,0,1-.9717.9839A3.0378,3.0378,0,0,1,203.1387,52.5386Zm0-5.604a1.6794,1.6794,0,0,0-.666.1313,1.5665,1.5665,0,0,0-.8692.918,1.9933,1.9933,0,0,0-.12.7031v.0835h3.1924v-.1191a1.82,1.82,0,0,0-.4141-1.2456A1.42,1.42,0,0,0,203.1387,46.9346Z"/><path class="cls-2" d="M207.3867,52.3945V46.1787h1.1162V47.187h.06a2.0307,2.0307,0,0,1,.6309-.8315,1.7826,1.7826,0,0,1,1.1211-.3208,1.8944,1.8944,0,0,1,1.5058.624,2.5924,2.5924,0,0,1,.5469,1.7637v3.9721H211.251V48.582q0-1.5872-1.3076-1.5874a1.9706,1.9706,0,0,0-.5352.0723,1.5535,1.5535,0,0,0-.4609.21,1.0334,1.0334,0,0,0-.3243.3487.99.99,0,0,0-.12.499v4.27Z"/><path class="cls-2" d="M221.6191,52.3945a.9878.9878,0,0,1-.7744-.2881,1.3412,1.3412,0,0,1-.3174-.7441h-.06a1.6019,1.6019,0,0,1-.66.8765,2.0707,2.0707,0,0,1-1.14.3,2.15,2.15,0,0,1-1.5127-.4981,1.7628,1.7628,0,0,1-.5391-1.3618,1.5882,1.5882,0,0,1,.6543-1.374,3.4125,3.4125,0,0,1,1.9971-.4741h1.1768v-.564a1.3045,1.3045,0,0,0-.336-.96,1.4255,1.4255,0,0,0-1.0449-.3359,1.6158,1.6158,0,0,0-.918.2456,2.03,2.03,0,0,0-.6054.6421l-.6719-.6118a2.3549,2.3549,0,0,1,.834-.8579,2.6093,2.6093,0,0,1,1.4218-.354,2.6493,2.6493,0,0,1,1.8.5566,1.9824,1.9824,0,0,1,.6357,1.5747v3.2686h.6963v.96Zm-2.7-.7558a1.8676,1.8676,0,0,0,1.0918-.3.9027.9027,0,0,0,.4327-.7681v-.96h-1.1885a2.13,2.13,0,0,0-1.1221.228.7371.7371,0,0,0-.3535.66v.24a.7877.7877,0,0,0,.3057.6655A1.339,1.339,0,0,0,218.9189,51.6387Z"/><path class="cls-2" d="M46.1812,66.7944V60.5786h1.1162v1.188h.06a1.7454,1.7454,0,0,1,.2158-.4443,1.5351,1.5351,0,0,1,.36-.378,1.8528,1.8528,0,0,1,.51-.2636,2.0264,2.0264,0,0,1,.666-.1021h.372v1.1157h-.5522a2.1779,2.1779,0,0,0-1.2061.2823.8518.8518,0,0,0-.4257.7378v4.08Z"/><path class="cls-2" d="M52.9971,66.9385a2.8343,2.8343,0,0,1-1.17-.2339,2.5414,2.5414,0,0,1-.8881-.6543,2.9317,2.9317,0,0,1-.564-1.02,4.6436,4.6436,0,0,1,0-2.6817,2.93,2.93,0,0,1,.564-1.0263,2.5389,2.5389,0,0,1,.8881-.6538,2.8263,2.8263,0,0,1,1.17-.2339,2.76,2.76,0,0,1,1.1582.2329,2.4635,2.4635,0,0,1,.8579.64,2.765,2.765,0,0,1,.5278.9688,3.9314,3.9314,0,0,1,.18,1.2075V63.95h-4.38v.2524a1.8177,1.8177,0,0,0,.4561,1.2779,1.6678,1.6678,0,0,0,1.2959.498,1.8537,1.8537,0,0,0,1.0078-.2641,1.8971,1.8971,0,0,0,.6723-.7442l.72.6162a2.4163,2.4163,0,0,1-.9722.9839A3.0356,3.0356,0,0,1,52.9971,66.9385Zm0-5.604a1.6745,1.6745,0,0,0-.666.1313,1.5654,1.5654,0,0,0-.87.918,1.9933,1.9933,0,0,0-.12.7031V63.17h3.1919v-.1191a1.8173,1.8173,0,0,0-.4141-1.2456A1.4174,1.4174,0,0,0,52.9971,61.3345Z"/><path class="cls-2" d="M59.1533,66.9385a3.0063,3.0063,0,0,1-1.458-.3242,3.2936,3.2936,0,0,1-1.0259-.876l.7559-.648a2.5627,2.5627,0,0,0,.7861.6841,2.0723,2.0723,0,0,0,1.0137.24,1.45,1.45,0,0,0,.9121-.246.8938.8938,0,0,0,.1021-1.254,1.3269,1.3269,0,0,0-.7862-.312l-.5278-.0839a4.0437,4.0437,0,0,1-.8159-.1924,2.1,2.1,0,0,1-.6363-.3477,1.531,1.531,0,0,1-.414-.5283,1.701,1.701,0,0,1-.15-.7437,1.8693,1.8693,0,0,1,.1679-.81,1.6108,1.6108,0,0,1,.4683-.5884,2.0987,2.0987,0,0,1,.7139-.354,3.2567,3.2567,0,0,1,.9057-.12,2.9439,2.9439,0,0,1,1.32.2636,2.91,2.91,0,0,1,.9238.7325l-.708.6718a2.002,2.002,0,0,0-.6182-.5219,1.9,1.9,0,0,0-.9536-.2222,1.3,1.3,0,0,0-.8584.24.7931.7931,0,0,0-.2817.6358.6972.6972,0,0,0,.27.6118,1.9253,1.9253,0,0,0,.81.2764l.5279.0839a2.6481,2.6481,0,0,1,1.4819.6,1.56,1.56,0,0,1,.45,1.1636,1.7717,1.7717,0,0,1-.6362,1.44A2.6416,2.6416,0,0,1,59.1533,66.9385Z"/><path class="cls-2" d="M65.5132,66.9385A2.8648,2.8648,0,0,1,64.355,66.71a2.5056,2.5056,0,0,1-.8941-.6538,3.0072,3.0072,0,0,1-.5756-1.0263,4.5272,4.5272,0,0,1,0-2.688,3.011,3.011,0,0,1,.5756-1.0259,2.5068,2.5068,0,0,1,.8941-.6538,3.0545,3.0545,0,0,1,2.3159,0,2.5021,2.5021,0,0,1,.894.6538,3.0188,3.0188,0,0,1,.5762,1.0259,4.5272,4.5272,0,0,1,0,2.688,3.015,3.015,0,0,1-.5762,1.0263,2.5009,2.5009,0,0,1-.894.6538A2.8627,2.8627,0,0,1,65.5132,66.9385Zm0-.96a1.6068,1.6068,0,0,0,1.188-.456,1.8594,1.8594,0,0,0,.456-1.3682v-.936a1.8589,1.8589,0,0,0-.456-1.3677,1.7752,1.7752,0,0,0-2.376,0,1.8569,1.8569,0,0,0-.4561,1.3677v.936a1.8574,1.8574,0,0,0,.4561,1.3682A1.6052,1.6052,0,0,0,65.5132,65.9785Z"/><path class="cls-2" d="M73.6733,65.7861h-.06a2.1417,2.1417,0,0,1-.2222.4336,1.5206,1.5206,0,0,1-.3476.3682,1.6886,1.6886,0,0,1-.4981.2554,2.1485,2.1485,0,0,1-.6724.0952,1.9138,1.9138,0,0,1-1.5117-.624,2.5753,2.5753,0,0,1-.5522-1.7642V60.5786h1.1162v3.8125q0,1.5872,1.32,1.5874a2.0807,2.0807,0,0,0,.522-.0664,1.3191,1.3191,0,0,0,.456-.21,1.1647,1.1647,0,0,0,.3243-.36.9885.9885,0,0,0,.1259-.5054V60.5786h1.1158v6.2158H73.6733Z"/><path class="cls-2" d="M76.7568,66.7944V60.5786H77.873v1.188h.06a1.7568,1.7568,0,0,1,.2153-.4443,1.554,1.554,0,0,1,.36-.378,1.8356,1.8356,0,0,1,.5107-.2636,2.0247,2.0247,0,0,1,.666-.1021h.3711v1.1157h-.5517a2.1767,2.1767,0,0,0-1.2061.2823.8517.8517,0,0,0-.4258.7378v4.08Z"/><path class="cls-2" d="M83.5488,66.9385a2.912,2.912,0,0,1-1.1875-.2281,2.4259,2.4259,0,0,1-.8769-.6479,2.8226,2.8226,0,0,1-.5449-1.0259,4.558,4.558,0,0,1-.1866-1.35,4.5,4.5,0,0,1,.1866-1.3442,2.892,2.892,0,0,1,.5449-1.0259,2.4035,2.4035,0,0,1,.8769-.6538,2.912,2.912,0,0,1,1.1875-.228,2.5415,2.5415,0,0,1,1.5.4077,2.4131,2.4131,0,0,1,.8516,1.08l-.9238.456a1.433,1.433,0,0,0-.5215-.72,1.5119,1.5119,0,0,0-.9063-.2637,1.4676,1.4676,0,0,0-1.206.4917,1.9249,1.9249,0,0,0-.4014,1.26v1.08a1.9221,1.9221,0,0,0,.4014,1.26,1.4661,1.4661,0,0,0,1.206.4922,1.6,1.6,0,0,0,.96-.2759,1.99,1.99,0,0,0,.624-.78l.8164.5039a2.4506,2.4506,0,0,1-.9,1.11A2.6421,2.6421,0,0,1,83.5488,66.9385Z"/><path class="cls-2" d="M89.5605,66.9385a2.8359,2.8359,0,0,1-1.17-.2339,2.5454,2.5454,0,0,1-.8877-.6543,2.9323,2.9323,0,0,1-.5634-1.02,4.6324,4.6324,0,0,1,0-2.6817,2.9309,2.9309,0,0,1,.5634-1.0263,2.5428,2.5428,0,0,1,.8877-.6538,2.8279,2.8279,0,0,1,1.17-.2339,2.7556,2.7556,0,0,1,1.1582.2329,2.459,2.459,0,0,1,.8584.64,2.7806,2.7806,0,0,1,.5284.9688,3.9619,3.9619,0,0,1,.18,1.2075V63.95h-4.38v.2524a1.8154,1.8154,0,0,0,.456,1.2779,1.6687,1.6687,0,0,0,1.2959.498,1.8546,1.8546,0,0,0,1.0078-.2641,1.9022,1.9022,0,0,0,.6729-.7442l.7187.6162a2.405,2.405,0,0,1-.9716.9839A3.0382,3.0382,0,0,1,89.5605,66.9385Zm0-5.604a1.68,1.68,0,0,0-.666.1313,1.5667,1.5667,0,0,0-.8691.918,1.9933,1.9933,0,0,0-.12.7031V63.17h3.1924v-.1191a1.82,1.82,0,0,0-.4141-1.2456A1.42,1.42,0,0,0,89.5605,61.3345Z"/><path class="cls-2" d="M97.2051,59.2822a.6779.6779,0,0,1-.51-.1679.6105.6105,0,0,1-.1621-.4439v-.168a.61.61,0,0,1,.1621-.4438.8573.8573,0,0,1,1.0195,0,.6141.6141,0,0,1,.1622.4438v.168a.6143.6143,0,0,1-.1622.4439A.6791.6791,0,0,1,97.2051,59.2822Zm-.5645,1.2964h1.1162v6.2158H96.6406Z"/><path class="cls-2" d="M101.6328,66.9385a3.0049,3.0049,0,0,1-1.458-.3242,3.3067,3.3067,0,0,1-1.0264-.876l.7559-.648a2.5659,2.5659,0,0,0,.7871.6841,2.0682,2.0682,0,0,0,1.0137.24,1.4527,1.4527,0,0,0,.9121-.246.8942.8942,0,0,0,.1015-1.254,1.3292,1.3292,0,0,0-.7861-.312l-.5283-.0839a4.0468,4.0468,0,0,1-.8154-.1924,2.0967,2.0967,0,0,1-.6358-.3477,1.5239,1.5239,0,0,1-.414-.5283,1.6938,1.6938,0,0,1-.15-.7437,1.8766,1.8766,0,0,1,.1679-.81,1.5968,1.5968,0,0,1,.4688-.5884,2.0936,2.0936,0,0,1,.7129-.354,3.2624,3.2624,0,0,1,.9062-.12,2.9416,2.9416,0,0,1,1.32.2636,2.9091,2.9091,0,0,1,.9239.7325l-.708.6718a2.002,2.002,0,0,0-.6182-.5219,1.9,1.9,0,0,0-.9531-.2222,1.3027,1.3027,0,0,0-.8594.24.7943.7943,0,0,0-.2813.6358.6982.6982,0,0,0,.27.6118,1.9325,1.9325,0,0,0,.8105.2764l.5274.0839a2.6486,2.6486,0,0,1,1.4824.6,1.5586,1.5586,0,0,1,.45,1.1636,1.7725,1.7725,0,0,1-.6358,1.44A2.6418,2.6418,0,0,1,101.6328,66.9385Z"/><path class="cls-2" d="M108.4355,60.5786h1.1172v1.0083H109.6a1.6916,1.6916,0,0,1,.6787-.8613,2.04,2.04,0,0,1,1.11-.291,2.3938,2.3938,0,0,1,1.0488.2216,2.16,2.16,0,0,1,.7871.648,3.0712,3.0712,0,0,1,.4922,1.0264,5.556,5.556,0,0,1,0,2.7119,3.0639,3.0639,0,0,1-.4922,1.0259,2.1493,2.1493,0,0,1-.7871.6479,2.3926,2.3926,0,0,1-1.0488.2222,2.041,2.041,0,0,1-1.11-.291,1.69,1.69,0,0,1-.6787-.8614h-.0469v3.4082h-1.1172Zm2.629,5.4a1.53,1.53,0,0,0,1.1933-.4824,1.8256,1.8256,0,0,0,.4385-1.2788V63.1558a1.8253,1.8253,0,0,0-.4385-1.2788,1.53,1.53,0,0,0-1.1933-.4825,1.9984,1.9984,0,0,0-.5879.0845,1.5011,1.5011,0,0,0-.4805.2412,1.2475,1.2475,0,0,0-.3242.3618.89.89,0,0,0-.1192.4585v2.292a.8892.8892,0,0,0,.1192.4585,1.2475,1.2475,0,0,0,.3242.3618,1.4991,1.4991,0,0,0,.4805.2412A1.9951,1.9951,0,0,0,111.0645,65.9785Z"/><path class="cls-2" d="M115.4561,66.7944V60.5786h1.1162v1.188h.0605a1.7221,1.7221,0,0,1,.2149-.4443,1.5536,1.5536,0,0,1,.36-.378,1.837,1.837,0,0,1,.5107-.2636,2.0254,2.0254,0,0,1,.6661-.1021h.3711v1.1157h-.5518a2.1767,2.1767,0,0,0-1.2061.2823.8518.8518,0,0,0-.4257.7378v4.08Z"/><path class="cls-2" d="M122.2852,66.9385a2.8613,2.8613,0,0,1-1.1582-.2281,2.5074,2.5074,0,0,1-.8946-.6538,3.0267,3.0267,0,0,1-.5762-1.0263,4.5485,4.5485,0,0,1,0-2.688,3.03,3.03,0,0,1,.5762-1.0259,2.5086,2.5086,0,0,1,.8946-.6538,3.0532,3.0532,0,0,1,2.3154,0,2.4959,2.4959,0,0,1,.8935.6538,3.01,3.01,0,0,1,.5762,1.0259,4.5061,4.5061,0,0,1,0,2.688,3.0067,3.0067,0,0,1-.5762,1.0263,2.4947,2.4947,0,0,1-.8935.6538A2.86,2.86,0,0,1,122.2852,66.9385Zm0-.96a1.6072,1.6072,0,0,0,1.1875-.456,1.8594,1.8594,0,0,0,.456-1.3682v-.936a1.8589,1.8589,0,0,0-.456-1.3677,1.7752,1.7752,0,0,0-2.376,0,1.859,1.859,0,0,0-.4561,1.3677v.936a1.8594,1.8594,0,0,0,.4561,1.3682A1.6064,1.6064,0,0,0,122.2852,65.9785Z"/><path class="cls-2" d="M127.9,66.7944l-2.1484-6.2158h1.1171l1.02,2.9756.6484,2.1484h.0713l.66-2.1484,1.0322-2.9756h1.0683l-2.16,6.2158Z"/><path class="cls-2" d="M133.1084,59.2822a.6809.6809,0,0,1-.51-.1679.6105.6105,0,0,1-.1621-.4439v-.168a.61.61,0,0,1,.1621-.4438.8589.8589,0,0,1,1.02,0,.614.614,0,0,1,.1621.4438v.168a.6143.6143,0,0,1-.1621.4439A.6832.6832,0,0,1,133.1084,59.2822Zm-.5635,1.2964H133.66v6.2158h-1.1153Z"/><path class="cls-2" d="M137.5371,66.9385a3.0117,3.0117,0,0,1-1.459-.3242,3.2919,3.2919,0,0,1-1.0254-.876l.7559-.648a2.5742,2.5742,0,0,0,.7861.6841,2.0737,2.0737,0,0,0,1.0137.24,1.4508,1.4508,0,0,0,.9121-.246.8956.8956,0,0,0,.1025-1.254,1.33,1.33,0,0,0-.7871-.312l-.5273-.0839a4.0569,4.0569,0,0,1-.8164-.1924,2.0967,2.0967,0,0,1-.6358-.3477,1.5369,1.5369,0,0,1-.414-.5283,1.694,1.694,0,0,1-.1494-.7437,1.8621,1.8621,0,0,1,.1679-.81,1.6044,1.6044,0,0,1,.4678-.5884,2.1078,2.1078,0,0,1,.7139-.354,3.2578,3.2578,0,0,1,.9062-.12,2.6933,2.6933,0,0,1,2.2442.9961l-.709.6718a1.9976,1.9976,0,0,0-.6172-.5219,1.9015,1.9015,0,0,0-.9541-.2222,1.3,1.3,0,0,0-.8584.24.7943.7943,0,0,0-.2813.6358.6982.6982,0,0,0,.27.6118,1.9226,1.9226,0,0,0,.8105.2764l.5274.0839a2.6547,2.6547,0,0,1,1.4824.6,1.5617,1.5617,0,0,1,.4492,1.1636,1.77,1.77,0,0,1-.6357,1.44A2.6411,2.6411,0,0,1,137.5371,66.9385Z"/><path class="cls-2" d="M142.0723,59.2822a.6777.6777,0,0,1-.51-.1679A.6147.6147,0,0,1,141.4,58.67v-.168a.6144.6144,0,0,1,.1621-.4438.8573.8573,0,0,1,1.0195,0,.61.61,0,0,1,.1621.4438v.168a.6105.6105,0,0,1-.1621.4439A.6776.6776,0,0,1,142.0723,59.2822Zm-.5645,1.2964h1.1172v6.2158h-1.1172Z"/><path class="cls-2" d="M146.9805,66.9385a2.8613,2.8613,0,0,1-1.1582-.2281,2.5074,2.5074,0,0,1-.8946-.6538,3.0248,3.0248,0,0,1-.5761-1.0263,4.5463,4.5463,0,0,1,0-2.688,3.0286,3.0286,0,0,1,.5761-1.0259,2.5086,2.5086,0,0,1,.8946-.6538,3.0532,3.0532,0,0,1,2.3154,0,2.4959,2.4959,0,0,1,.8935.6538,3.01,3.01,0,0,1,.5762,1.0259,4.5061,4.5061,0,0,1,0,2.688,3.0067,3.0067,0,0,1-.5762,1.0263,2.4947,2.4947,0,0,1-.8935.6538A2.86,2.86,0,0,1,146.9805,66.9385Zm0-.96a1.6072,1.6072,0,0,0,1.1875-.456,1.8594,1.8594,0,0,0,.456-1.3682v-.936a1.8589,1.8589,0,0,0-.456-1.3677,1.7752,1.7752,0,0,0-2.376,0,1.859,1.859,0,0,0-.4561,1.3677v.936a1.8594,1.8594,0,0,0,.4561,1.3682A1.6064,1.6064,0,0,0,146.9805,65.9785Z"/><path class="cls-2" d="M151.3359,66.7944V60.5786h1.1162v1.0083h.06a2.0307,2.0307,0,0,1,.6309-.8315,1.7828,1.7828,0,0,1,1.1211-.3208,1.8944,1.8944,0,0,1,1.5058.624,2.5924,2.5924,0,0,1,.5469,1.7637v3.9721H155.2V62.9819q0-1.5872-1.3076-1.5874a1.9706,1.9706,0,0,0-.5352.0723,1.5535,1.5535,0,0,0-.4609.21,1.0331,1.0331,0,0,0-.3242.3487.9893.9893,0,0,0-.12.499v4.2695Z"/><path class="cls-2" d="M160.5879,66.9385a2.8319,2.8319,0,0,1-1.17-.2339,2.5473,2.5473,0,0,1-.8887-.6543,2.9325,2.9325,0,0,1-.5635-1.02,4.6346,4.6346,0,0,1,0-2.6817,2.931,2.931,0,0,1,.5635-1.0263,2.5448,2.5448,0,0,1,.8887-.6538,2.8239,2.8239,0,0,1,1.17-.2339,2.76,2.76,0,0,1,1.1582.2329,2.4561,2.4561,0,0,1,.8574.64,2.7659,2.7659,0,0,1,.5283.9688,3.9284,3.9284,0,0,1,.1807,1.2075V63.95h-4.3809v.2524a1.8161,1.8161,0,0,0,.4571,1.2779,1.6649,1.6649,0,0,0,1.2949.498,1.85,1.85,0,0,0,1.0078-.2641,1.8947,1.8947,0,0,0,.6729-.7442l.72.6162a2.4139,2.4139,0,0,1-.9727.9839A3.0337,3.0337,0,0,1,160.5879,66.9385Zm0-5.604a1.6731,1.6731,0,0,0-.666.1313,1.5665,1.5665,0,0,0-.8692.918,1.9957,1.9957,0,0,0-.1211.7031V63.17h3.1924v-.1191a1.8153,1.8153,0,0,0-.414-1.2456A1.4178,1.4178,0,0,0,160.5879,61.3345Z"/><path class="cls-2" d="M168.7715,65.7861h-.0479a1.68,1.68,0,0,1-.6787.8614,2.04,2.04,0,0,1-1.1094.291,2.3915,2.3915,0,0,1-1.05-.2222,2.1462,2.1462,0,0,1-.7861-.6479,3.0281,3.0281,0,0,1-.4922-1.0259,5.5592,5.5592,0,0,1,0-2.7119,3.0353,3.0353,0,0,1,.4922-1.0264,2.1564,2.1564,0,0,1,.7861-.648,2.3927,2.3927,0,0,1,1.05-.2216,2.0388,2.0388,0,0,1,1.1094.291,1.6815,1.6815,0,0,1,.6787.8613h.0479V57.9146h1.1162v8.88h-1.1162Zm-1.5117.1924a2.0048,2.0048,0,0,0,.5879-.0845,1.51,1.51,0,0,0,.48-.2412,1.272,1.272,0,0,0,.3233-.3618.8909.8909,0,0,0,.12-.4585v-2.292a.8914.8914,0,0,0-.12-.4585,1.272,1.272,0,0,0-.3233-.3618,1.512,1.512,0,0,0-.48-.2412,2.0081,2.0081,0,0,0-.5879-.0845,1.5325,1.5325,0,0,0-1.1944.4825,1.83,1.83,0,0,0-.4384,1.2788v1.0615a1.83,1.83,0,0,0,.4384,1.2788A1.5325,1.5325,0,0,0,167.26,65.9785Z"/><path class="cls-2" d="M175.252,59.2822a.6777.6777,0,0,1-.51-.1679.6105.6105,0,0,1-.1621-.4439v-.168a.61.61,0,0,1,.1621-.4438.8573.8573,0,0,1,1.0195,0,.6144.6144,0,0,1,.1621.4438v.168a.6147.6147,0,0,1-.1621.4439A.6791.6791,0,0,1,175.252,59.2822Zm-.5645,1.2964h1.1162v6.2158h-1.1162Z"/><path class="cls-2" d="M177.7715,66.7944V60.5786h1.1162v1.0083h.06a2.0313,2.0313,0,0,1,.6308-.8315,1.7828,1.7828,0,0,1,1.1211-.3208,1.8946,1.8946,0,0,1,1.5059.624,2.5929,2.5929,0,0,1,.5469,1.7637v3.9721h-1.1163V62.9819q0-1.5872-1.3076-1.5874a1.97,1.97,0,0,0-.5351.0723,1.5553,1.5553,0,0,0-.461.21,1.0341,1.0341,0,0,0-.3242.3487.9892.9892,0,0,0-.12.499v4.2695Z"/><path class="cls-2" d="M191.3066,60.5786h1.08L189.6875,68.15a3.2118,3.2118,0,0,1-.2285.4922,1.0055,1.0055,0,0,1-.294.3237,1.177,1.177,0,0,1-.414.1743,2.822,2.822,0,0,1-.6006.0537h-.6113v-.96h1.02l.42-1.1983-2.3027-6.4575h1.1152l1.38,3.9639.3242,1.1616h.06l.36-1.1616Z"/><path class="cls-2" d="M195.8672,66.9385a2.8648,2.8648,0,0,1-1.1582-.2281,2.5062,2.5062,0,0,1-.8945-.6538,3.0049,3.0049,0,0,1-.5752-1.0263,4.5272,4.5272,0,0,1,0-2.688,3.0086,3.0086,0,0,1,.5752-1.0259,2.5074,2.5074,0,0,1,.8945-.6538,3.0557,3.0557,0,0,1,2.3164,0,2.5046,2.5046,0,0,1,.8935.6538,3.01,3.01,0,0,1,.5762,1.0259,4.5272,4.5272,0,0,1,0,2.688,3.0067,3.0067,0,0,1-.5762,1.0263,2.5034,2.5034,0,0,1-.8935.6538A2.8651,2.8651,0,0,1,195.8672,66.9385Zm0-.96a1.604,1.604,0,0,0,1.1875-.456,1.8555,1.8555,0,0,0,.457-1.3682v-.936a1.855,1.855,0,0,0-.457-1.3677,1.7739,1.7739,0,0,0-2.375,0,1.855,1.855,0,0,0-.457,1.3677v.936a1.8555,1.8555,0,0,0,.457,1.3682A1.6025,1.6025,0,0,0,195.8672,65.9785Z"/><path class="cls-2" d="M204.0273,65.7861h-.06a2.1142,2.1142,0,0,1-.2217.4336,1.5206,1.5206,0,0,1-.3476.3682,1.6763,1.6763,0,0,1-.4981.2554,2.1493,2.1493,0,0,1-.6728.0952,1.9153,1.9153,0,0,1-1.5118-.624,2.58,2.58,0,0,1-.5517-1.7642V60.5786h1.1162v3.8125q0,1.5872,1.32,1.5874a2.0768,2.0768,0,0,0,.5215-.0664,1.3191,1.3191,0,0,0,.456-.21,1.1709,1.1709,0,0,0,.3243-.36.9875.9875,0,0,0,.1259-.5054V60.5786h1.1153v6.2158h-1.1153Z"/><path class="cls-2" d="M207.1113,66.7944V60.5786h1.1153v1.188h.0605a1.7257,1.7257,0,0,1,.2158-.4443,1.5354,1.5354,0,0,1,.36-.378,1.8433,1.8433,0,0,1,.51-.2636,2.0254,2.0254,0,0,1,.6661-.1021h.372v1.1157h-.5517a2.1827,2.1827,0,0,0-1.2071.2823.8537.8537,0,0,0-.4257.7378v4.08Z"/><path class="cls-2" d="M50.7051,81.1948a.9864.9864,0,0,1-.7739-.2881,1.3476,1.3476,0,0,1-.3179-.7441h-.06a1.6041,1.6041,0,0,1-.66.8765,2.0709,2.0709,0,0,1-1.14.3,2.1472,2.1472,0,0,1-1.5122-.4981,1.7617,1.7617,0,0,1-.54-1.3618,1.59,1.59,0,0,1,.6543-1.374,3.4127,3.4127,0,0,1,1.9975-.4741h1.1763v-.564a1.3008,1.3008,0,0,0-.3359-.96,1.4241,1.4241,0,0,0-1.044-.3359,1.6124,1.6124,0,0,0-.918.2456,2.0265,2.0265,0,0,0-.6059.6421l-.6724-.6118a2.367,2.367,0,0,1,.834-.8579,2.6135,2.6135,0,0,1,1.4224-.354,2.6471,2.6471,0,0,1,1.8.5566,1.9827,1.9827,0,0,1,.6362,1.5747v3.2686h.6958v.96Zm-2.7-.7558a1.8691,1.8691,0,0,0,1.0918-.3.902.902,0,0,0,.4321-.7681v-.96h-1.188a2.13,2.13,0,0,0-1.1221.2281.7386.7386,0,0,0-.354.66v.24a.7881.7881,0,0,0,.3062.6655A1.34,1.34,0,0,0,48.0054,80.439Z"/><path class="cls-2" d="M55.0249,81.3389a2.9144,2.9144,0,0,1-1.188-.2281,2.4278,2.4278,0,0,1-.876-.6479,2.8348,2.8348,0,0,1-.5459-1.0259,4.5915,4.5915,0,0,1-.186-1.35,4.5324,4.5324,0,0,1,.186-1.3442,2.9049,2.9049,0,0,1,.5459-1.0259,2.4043,2.4043,0,0,1,.876-.6538,2.9145,2.9145,0,0,1,1.188-.228,2.5415,2.5415,0,0,1,1.5.4077,2.42,2.42,0,0,1,.8521,1.08l-.9239.456a1.4389,1.4389,0,0,0-.5219-.72,1.5109,1.5109,0,0,0-.9063-.2637,1.4673,1.4673,0,0,0-1.2061.4917,1.9282,1.9282,0,0,0-.4018,1.26v1.08a1.9256,1.9256,0,0,0,.4018,1.26,1.4661,1.4661,0,0,0,1.2061.4922,1.6012,1.6012,0,0,0,.96-.2759,1.9912,1.9912,0,0,0,.624-.78l.8159.5039a2.45,2.45,0,0,1-.9,1.11A2.64,2.64,0,0,1,55.0249,81.3389Z"/><path class="cls-2" d="M61.0127,81.3389a2.9144,2.9144,0,0,1-1.188-.2281,2.4278,2.4278,0,0,1-.876-.6479,2.8348,2.8348,0,0,1-.5459-1.0259,4.5915,4.5915,0,0,1-.186-1.35,4.5324,4.5324,0,0,1,.186-1.3442,2.9049,2.9049,0,0,1,.5459-1.0259,2.4043,2.4043,0,0,1,.876-.6538,2.9145,2.9145,0,0,1,1.188-.228,2.5415,2.5415,0,0,1,1.5.4077,2.42,2.42,0,0,1,.852,1.08l-.9238.456a1.4385,1.4385,0,0,0-.522-.72,1.51,1.51,0,0,0-.9062-.2637,1.4673,1.4673,0,0,0-1.2061.4917,1.9282,1.9282,0,0,0-.4018,1.26v1.08a1.9256,1.9256,0,0,0,.4018,1.26,1.4661,1.4661,0,0,0,1.2061.4922,1.6012,1.6012,0,0,0,.96-.2759,1.9912,1.9912,0,0,0,.624-.78l.8159.5039a2.45,2.45,0,0,1-.9,1.11A2.64,2.64,0,0,1,61.0127,81.3389Z"/><path class="cls-2" d="M67.0371,81.3389a2.8651,2.8651,0,0,1-1.1582-.2281,2.5043,2.5043,0,0,1-.894-.6538,3.0058,3.0058,0,0,1-.5757-1.0263,4.5272,4.5272,0,0,1,0-2.688,3.01,3.01,0,0,1,.5757-1.0259,2.5043,2.5043,0,0,1,.894-.6538,3.0545,3.0545,0,0,1,2.3159,0,2.5012,2.5012,0,0,1,.8941.6538,3.02,3.02,0,0,1,.5761,1.0259,4.5272,4.5272,0,0,1,0,2.688,3.0165,3.0165,0,0,1-.5761,1.0263,2.5012,2.5012,0,0,1-.8941.6538A2.8623,2.8623,0,0,1,67.0371,81.3389Zm0-.96a1.6068,1.6068,0,0,0,1.188-.456,1.8594,1.8594,0,0,0,.4561-1.3682v-.936a1.8588,1.8588,0,0,0-.4561-1.3677,1.7752,1.7752,0,0,0-2.376,0,1.8567,1.8567,0,0,0-.456,1.3677v.936a1.8573,1.8573,0,0,0,.456,1.3682A1.6052,1.6052,0,0,0,67.0371,80.3789Z"/><path class="cls-2" d="M75.1968,80.1865h-.06a2.1438,2.1438,0,0,1-.2221.4336,1.5229,1.5229,0,0,1-.3477.3682,1.6873,1.6873,0,0,1-.4981.2554,2.1478,2.1478,0,0,1-.6723.0952,1.9132,1.9132,0,0,1-1.5117-.6241,2.5744,2.5744,0,0,1-.5523-1.7641V74.979h1.1162v3.8125q0,1.5871,1.32,1.5874a2.08,2.08,0,0,0,.5219-.0664,1.3223,1.3223,0,0,0,.4561-.21,1.1667,1.1667,0,0,0,.3242-.36.9876.9876,0,0,0,.126-.5054V74.979h1.1157v6.2158H75.1968Z"/><path class="cls-2" d="M78.2812,81.1948V74.979h1.1153v1.0083h.06a2.0294,2.0294,0,0,1,.63-.8315,1.7859,1.7859,0,0,1,1.1221-.3208,1.897,1.897,0,0,1,1.5058.624,2.5972,2.5972,0,0,1,.5459,1.7637v3.9721H82.1445V77.3823q0-1.5871-1.3076-1.5874a1.96,1.96,0,0,0-.5342.0723,1.5617,1.5617,0,0,0-.4619.21,1.0311,1.0311,0,0,0-.3232.3487.99.99,0,0,0-.1211.499v4.27Z"/><path class="cls-2" d="M86.6807,81.1948a1.1494,1.1494,0,0,1-.876-.3174,1.1975,1.1975,0,0,1-.3-.8559V75.939h-.9961v-.96h.5517a.5666.5666,0,0,0,.4317-.1323.654.654,0,0,0,.1211-.4439v-1.14h1.0078V74.979h1.332v.96h-1.332v4.2959h1.2363v.96Z"/><path class="cls-2" d="M90.125,81.3389a.6934.6934,0,0,1-.793-.7442v-.18a.7924.7924,0,1,1,1.584,0v.18a.6917.6917,0,0,1-.791.7442Z"/><rect id="_Transparent_Rectangle_" data-name=" Transparent Rectangle " class="cls-3" x="7" y="9" width="32" height="32"/><rect class="cls-4" x="1" y="1" width="248" height="98"/></svg>