<?xml version="1.0" encoding="utf-8"?>
<!-- Generator: Adobe Illustrator 26.0.1, SVG Export Plug-In . SVG Version: 6.00 Build 0)  -->
<svg version="1.1" id="Layer_1" xmlns="http://www.w3.org/2000/svg" xmlns:xlink="http://www.w3.org/1999/xlink" x="0px" y="0px"
	 viewBox="0 0 250 100" style="enable-background:new 0 0 250 100;" xml:space="preserve">
<style type="text/css">
	.st0{fill:#242B66;}
	.st1{font-family:'IBMPlexSans-SemiBold';}
	.st2{font-size:13px;}
	.st3{fill:#525352;}
	.st4{font-family:'IBMPlexSans-Text';}
	.st5{font-size:12px;}
	.st6{fill:none;}
	.st7{fill:none;stroke:#242B66;stroke-width:1.968;stroke-miterlimit:10;}
</style>
<path class="st0" d="M33,14v4H13v-4H33 M33,12H13c-1.1,0-2,0.9-2,2v4c0,1.1,0.9,2,2,2h20c1.1,0,2-0.9,2-2v-4C35,12.9,34.1,12,33,12z
	"/>
<path class="st0" d="M17,24v10h-4V24H17 M17,22h-4c-1.1,0-2,0.9-2,2v10c0,1.1,0.9,2,2,2h4c1.1,0,2-0.9,2-2V24C19,22.9,18.1,22,17,22
	z"/>
<path class="st0" d="M33,24v10H23V24H33 M33,22H23c-1.1,0-2,0.9-2,2v10c0,1.1,0.9,2,2,2h10c1.1,0,2-0.9,2-2V24
	C35,22.9,34.1,22,33,22z"/>
<text transform="matrix(1 0 0 1 45.1973 22.584)" class="st0 st1 st2">Templates</text>
<text transform="matrix(1 0 0 1 45.1973 37.9945)"><tspan x="0" y="0" class="st3 st4 st5">Override the IBM default property</tspan><tspan x="0" y="14.4" class="st3 st4 st5">values that are displayed when a</tspan><tspan x="0" y="28.8" class="st3 st4 st5">resource is provisioned in your</tspan><tspan x="0" y="43.2" class="st3 st4 st5">account.</tspan></text>
<rect id="_Transparent_Rectangle__3_" x="7" y="9" class="st6" width="32" height="32"/>
<rect x="1" y="1" class="st7" width="248" height="98"/>
</svg>
