<?xml version="1.0" encoding="utf-8"?>
<!-- Generator: Adobe Illustrator 26.0.1, SVG Export Plug-In . SVG Version: 6.00 Build 0)  -->
<svg version="1.1" xmlns="http://www.w3.org/2000/svg" xmlns:xlink="http://www.w3.org/1999/xlink" x="0px" y="0px"
	 viewBox="0 0 754.4 279.2" style="enable-background:new 0 0 754.4 279.2;" xml:space="preserve">
<style type="text/css">
	.st0{display:none;}
	.st1{display:inline;}
	.st2{clip-path:url(#SVGID_00000047757464984140125910000007560894166877356194_);}
	.st3{opacity:0.4;clip-path:url(#SVGID_00000124135024759202709530000005353491809755947676_);fill:#A3A4A3;}
	.st4{clip-path:url(#SVGID_00000103232362588258101590000002887901906374461058_);}
	.st5{opacity:0.4;clip-path:url(#SVGID_00000126311989267197339440000002619029523776544939_);fill:#A3A4A3;}
	.st6{opacity:0.1413;clip-path:url(#SVGID_00000075885188038966250620000012639471343347054249_);enable-background:new    ;}
	.st7{clip-path:url(#SVGID_00000060741757071528687960000001458690248306282116_);}
	.st8{clip-path:url(#SVGID_00000150090935481470260680000005607362663709894320_);}
	.st9{clip-path:url(#SVGID_00000166657249142403719780000018201903511828677535_);}
	.st10{opacity:0.4;clip-path:url(#SVGID_00000161591680447419939230000003332065772223043511_);fill:#A3A4A3;}
	.st11{clip-path:url(#SVGID_00000160173585506443448550000012908513455406130574_);}
	.st12{opacity:0.4;clip-path:url(#SVGID_00000101794128728515755850000015783553020590987177_);fill:#A3A4A3;}
	.st13{opacity:0.1413;clip-path:url(#SVGID_00000036941868606408590920000011486835451794075777_);enable-background:new    ;}
	.st14{clip-path:url(#SVGID_00000140724053640315936680000003121544539398409127_);}
	.st15{clip-path:url(#SVGID_00000051385374945048964100000016575751826454960802_);}
	.st16{clip-path:url(#SVGID_00000020391025229472496360000013565424599271888538_);}
	.st17{opacity:0.4;clip-path:url(#SVGID_00000039835772448114940440000017026145151659369866_);fill:#A3A4A3;}
	.st18{clip-path:url(#SVGID_00000075848909504811708840000002222391361486497953_);}
	.st19{opacity:0.4;clip-path:url(#SVGID_00000048463316866852439130000012528785574597623720_);fill:#A3A4A3;}
	.st20{opacity:0.1413;clip-path:url(#SVGID_00000143607833568640857400000003718294118191548041_);enable-background:new    ;}
	.st21{clip-path:url(#SVGID_00000054256489444453387660000013135364032688198317_);}
	.st22{clip-path:url(#SVGID_00000025422088550037355840000015688477193864333456_);}
	.st23{fill:#EDF5FF;stroke:#000000;stroke-width:0.7412;stroke-linecap:round;stroke-miterlimit:10;}
	.st24{fill:none;stroke:#000000;stroke-width:0.75;stroke-miterlimit:10;}
	.st25{fill:none;stroke:#000000;stroke-width:0.75;stroke-miterlimit:10;stroke-dasharray:5.6711,5.6711;}
	.st26{fill:none;stroke:#000000;stroke-width:0.75;stroke-miterlimit:10;stroke-dasharray:5.6637,5.6637;}
	.st27{fill:none;stroke:#000000;stroke-width:0.75;stroke-miterlimit:10;stroke-dasharray:5.6719,5.6719;}
	.st28{fill:none;stroke:#FFFFFF;stroke-width:1.0318;stroke-linecap:round;stroke-miterlimit:10;}
	.st29{stroke:#FFFFFF;stroke-width:1.0318;stroke-miterlimit:10;}
	.st30{font-family:'IBMPlexSans-SemiBold';}
	.st31{font-size:14px;}
	.st32{font-family:'IBMPlexSans';}
	.st33{font-size:10px;}
	.st34{fill:#0F62FE;}
	.st35{font-size:12px;}
	.st36{fill:none;stroke:#6F6F6F;stroke-width:0.75;stroke-miterlimit:10;}
	.st37{fill:#6F6F6F;}
	.st38{fill:#0F62FE;stroke:#0F62FE;stroke-width:0.5332;stroke-miterlimit:10;}
	.st39{fill:#FFFFFF;stroke:#0F62FE;stroke-width:0.5332;stroke-miterlimit:10;}
	.st40{fill:#0F62FE;stroke:#0F62FE;stroke-miterlimit:10;}
	.st41{fill:#FFFFFF;}
	.st42{font-family:'IBMPlexSans-Medium';}
	.st43{font-size:16px;}
	.st44{fill:#FFFFFF;stroke:#0F62FE;stroke-miterlimit:10;}
	.st45{fill:#FFFFFF;stroke:#000000;stroke-width:0.75;stroke-linecap:round;stroke-miterlimit:10;}
	.st46{fill:none;stroke:#6F6F6F;stroke-width:0.7739;stroke-miterlimit:10;}
	.st47{fill:#FFFFFF;stroke:#000000;stroke-width:0.555;stroke-linecap:round;stroke-miterlimit:10;}
	.st48{fill:#FFFFFF;stroke:#000000;stroke-width:0.1863;stroke-linecap:round;stroke-miterlimit:10;}
	.st49{font-size:4px;}
	.st50{font-size:3px;}
	.st51{fill:#8D8D8D;}
	.st52{fill:#DA1E28;}
	.st53{fill:#4589FF;}
	.st54{fill:none;stroke:#000000;stroke-width:0.75;stroke-linecap:round;stroke-miterlimit:10;}
	.st55{fill:#8A3FFC;}
	.st56{fill:#FFFFFF;stroke:#000000;stroke-width:0.5606;stroke-linecap:round;stroke-miterlimit:10;}
	.st57{fill:none;stroke:#000000;stroke-width:0.5606;stroke-linecap:round;stroke-miterlimit:10;}
	.st58{fill:#002D9C;}
	.st59{fill:#FFFFFF;stroke:#FFFFFF;stroke-width:0.2037;stroke-miterlimit:10;}
</style>
<g id="grid" class="st0">
	<g class="st1">
		<defs>
			<rect id="SVGID_1_" x="-59.8" y="-74.9" width="16" height="882"/>
		</defs>
		<clipPath id="SVGID_00000164497887988927599030000003262067948652087711_">
			<use xlink:href="#SVGID_1_"  style="overflow:visible;"/>
		</clipPath>
		<g style="clip-path:url(#SVGID_00000164497887988927599030000003262067948652087711_);">
			<defs>
				<rect id="SVGID_00000075868912590490166890000001406123691687083695_" x="-59.8" y="-74.9" width="1056" height="882"/>
			</defs>
			<clipPath id="SVGID_00000140697892335995176000000008111884857922950306_">
				<use xlink:href="#SVGID_00000075868912590490166890000001406123691687083695_"  style="overflow:visible;"/>
			</clipPath>
		</g>
	</g>
	<g class="st1">
		<defs>
			<rect id="SVGID_00000088840652546527011670000006002013060102296200_" x="980.2" y="-74.9" width="16" height="882"/>
		</defs>
		<clipPath id="SVGID_00000155121372484823891890000013209524374743452850_">
			<use xlink:href="#SVGID_00000088840652546527011670000006002013060102296200_"  style="overflow:visible;"/>
		</clipPath>
		<g style="clip-path:url(#SVGID_00000155121372484823891890000013209524374743452850_);">
			<defs>
				<rect id="SVGID_00000180324839592337106830000013757424196630893226_" x="-59.8" y="-74.9" width="1056" height="882"/>
			</defs>
			<clipPath id="SVGID_00000032606072069271009510000001416550780957181119_">
				<use xlink:href="#SVGID_00000180324839592337106830000013757424196630893226_"  style="overflow:visible;"/>
			</clipPath>
		</g>
	</g>
	<g class="st1">
		<defs>
			<rect id="SVGID_00000065066344015108168690000013037411741660373928_" x="-59.8" y="-74.9" width="1056" height="882"/>
		</defs>
		<clipPath id="SVGID_00000104703613261890474650000017828646946376798363_">
			<use xlink:href="#SVGID_00000065066344015108168690000013037411741660373928_"  style="overflow:visible;"/>
		</clipPath>
		
			<g style="opacity:0.1413;clip-path:url(#SVGID_00000104703613261890474650000017828646946376798363_);enable-background:new    ;">
			<g>
				<defs>
					<rect id="SVGID_00000072963952226894918740000004942472210603369374_" x="-59.8" y="-74.9" width="1056" height="882"/>
				</defs>
				<clipPath id="SVGID_00000034068202999805815850000015506972340329881500_">
					<use xlink:href="#SVGID_00000072963952226894918740000004942472210603369374_"  style="overflow:visible;"/>
				</clipPath>
				<g style="clip-path:url(#SVGID_00000034068202999805815850000015506972340329881500_);">
					<defs>
						<rect id="SVGID_00000054985802573098784910000006210573189694240916_" x="-59.8" y="-74.9" width="1056" height="882"/>
					</defs>
					<clipPath id="SVGID_00000102523953887549857410000010053830070725632401_">
						<use xlink:href="#SVGID_00000054985802573098784910000006210573189694240916_"  style="overflow:visible;"/>
					</clipPath>
					<g style="clip-path:url(#SVGID_00000102523953887549857410000010053830070725632401_);">
						<defs>
							<rect id="SVGID_00000020395740969358968200000006815233209406668432_" x="-59.8" y="-74.9" width="1056" height="882"/>
						</defs>
						<clipPath id="SVGID_00000144312984081365753560000001510816735497501332_">
							<use xlink:href="#SVGID_00000020395740969358968200000006815233209406668432_"  style="overflow:visible;"/>
						</clipPath>
						<g style="clip-path:url(#SVGID_00000144312984081365753560000001510816735497501332_);">
							
								<image style="overflow:visible;" width="1056" height="882" xlink:href="145BF88162EBB78F.png"  transform="matrix(1 0 0 1 -59.7942 -74.9271)">
							</image>
						</g>
					</g>
				</g>
			</g>
		</g>
	</g>
</g>
<g id="Graphics">
	<g id="Legend">
	</g>
</g>
<g id="Text">
	<rect x="276.1" y="57.7" class="st23" width="247.6" height="137.1"/>
	<g>
		<g>
			<polyline class="st24" points="740,17.1 740,14.3 737.1,14.3 			"/>
			<line class="st25" x1="731.5" y1="14.3" x2="269.3" y2="14.3"/>
			<polyline class="st24" points="266.4,14.3 263.6,14.3 263.6,17.1 			"/>
			<line class="st26" x1="263.6" y1="22.8" x2="263.5" y2="257.8"/>
			<polyline class="st24" points="263.5,260.7 263.5,263.5 266.4,263.5 			"/>
			<line class="st27" x1="272.1" y1="263.5" x2="734.3" y2="263.5"/>
			<polyline class="st24" points="737.1,263.5 740,263.5 740,260.7 			"/>
			<line class="st26" x1="740" y1="255" x2="740" y2="19.9"/>
		</g>
	</g>
	<g>
		<circle cx="36.2" cy="80.6" r="24.8"/>
		<path class="st28" d="M43.3,72.2c0,3.7-3,6.7-6.7,6.7c-3.7,0-6.7-3-6.7-6.7c0-3.7,3-6.7,6.7-6.7C40.3,65.5,43.3,68.5,43.3,72.2"/>
		<path class="st28" d="M23.6,95.3c1.2-6.1,6.6-10.7,13.1-10.7c6.4,0,11.8,4.5,13,10.6"/>
		<circle class="st28" cx="36.7" cy="80.6" r="19.7"/>
		<path class="st29" d="M24.5,96.5c-0.7,0.5-1.6,0.3-2.1-0.4c-0.5-0.7-0.3-1.6,0.4-2.1c0.7-0.5,1.6-0.3,2.1,0.4
			C25.4,95.1,25.2,96.1,24.5,96.5z"/>
	</g>
	<text transform="matrix(1 0 0 1 274.8694 40.6117)" class="st30 st31">Security and Compliance Center</text>
	<text transform="matrix(1 0 0 1 24.5793 120.9184)" class="st32 st33">Focal</text>
	<text transform="matrix(1 0 0 1 95.9822 39.8353)"><tspan x="0" y="0" class="st34 st32 st35">Configure your data settings </tspan><tspan x="0" y="14.4" class="st34 st32 st35">and enable Insights</tspan></text>
	<g>
		
			<ellipse transform="matrix(0.2298 -0.9732 0.9732 0.2298 -211.8456 202.0806)" class="st38" cx="21.7" cy="234.9" rx="7.8" ry="7.8"/>
	</g>
	<g>
		
			<ellipse transform="matrix(0.7071 -0.7071 0.7071 0.7071 -176.8434 91.267)" class="st39" cx="21.7" cy="259.1" rx="7.8" ry="7.8"/>
	</g>
	<text transform="matrix(1 0 0 1 37.3526 237.8993)" class="st32 st33">User action</text>
	<text transform="matrix(1 0 0 1 37.3526 262.1222)" class="st32 st33">System action</text>
	<g>
		
			<ellipse transform="matrix(0.1602 -0.9871 0.9871 0.1602 20.6992 111.1519)" class="st40" cx="75.7" cy="43.4" rx="14.7" ry="14.7"/>
	</g>
	<text transform="matrix(1 0 0 1 70.8712 48.1399)" class="st41 st42 st43">1</text>
	<g>
		
			<ellipse transform="matrix(0.1602 -0.9871 0.9871 0.1602 5.7923 310.6506)" class="st44" cx="185.5" cy="151.9" rx="14.7" ry="14.7"/>
	</g>
	<text transform="matrix(1 0 0 1 180.6592 156.6496)" class="st34 st42 st43">2</text>
	<text transform="matrix(1 0 0 1 206.8594 155.5454)" class="st34 st32 st35">Monitor</text>
	<rect x="546.6" y="57.7" class="st45" width="183.7" height="34.5"/>
	<text transform="matrix(1 0 0 1 589.1588 79.2066)" class="st30 st35">Data settings</text>
	<path d="M581.2,67.5h-4.3c-0.5-2.3-2.7-3.7-4.9-3.3c-1.6,0.3-2.9,1.6-3.3,3.3h-10.9v1.7h10.9c0.5,2.3,2.7,3.7,4.9,3.3
		c1.6-0.3,2.9-1.6,3.3-3.3h4.3V67.5z M572.8,70.8c-1.4,0-2.5-1.1-2.5-2.5s1.1-2.5,2.5-2.5s2.5,1.1,2.5,2.5S574.2,70.8,572.8,70.8z"
		/>
	<path d="M557.8,82.5h4.3c0.5,2.3,2.7,3.7,4.9,3.3c1.6-0.3,2.9-1.6,3.3-3.3h10.9v-1.7h-10.9c-0.5-2.3-2.7-3.7-4.9-3.3
		c-1.6,0.3-2.9,1.6-3.3,3.3h-4.3V82.5z M563.7,81.6c0-1.4,1.1-2.5,2.5-2.5s2.5,1.1,2.5,2.5c0,1.4-1.1,2.5-2.5,2.5
		S563.7,83,563.7,81.6z"/>
	<g>
		<g>
			<line class="st46" x1="249.9" y1="67" x2="57.9" y2="67"/>
			<g>
				<polygon class="st37" points="248.8,63.2 255.5,67 248.8,70.9 				"/>
			</g>
		</g>
	</g>
	<rect x="546.6" y="99.8" class="st45" width="183.5" height="104"/>
	<rect x="414" y="149.7" class="st45" width="118" height="54.4"/>
	<text transform="matrix(1 0 0 1 551.2756 117.6423)" class="st30 st35">Insights dashboard</text>
	<rect x="414" y="90.5" class="st45" width="118" height="54.4"/>
	<rect x="287.6" y="149.7" class="st45" width="118" height="54.4"/>
	<rect x="287.6" y="90.5" class="st45" width="118" height="54.4"/>
	<text transform="matrix(1 0 0 1 323.6074 121.1403)" class="st32 st35">Network</text>
	<text transform="matrix(1 0 0 1 452.991 121.1406)" class="st32 st35">Activity</text>
	<text transform="matrix(1 0 0 1 325.8221 180.3482)" class="st32 st35">Custom</text>
	<text transform="matrix(1 0 0 1 424.4856 180.3482)" class="st32 st35">Business partners</text>
	<text transform="matrix(1 0 0 1 282.1932 77.3955)" class="st30 st35">Security Insights</text>
	<g>
		<g>
			<line class="st46" x1="249.9" y1="91.9" x2="57.9" y2="91.9"/>
			<g>
				<polygon class="st37" points="248.8,88 255.5,91.9 248.8,95.8 				"/>
			</g>
		</g>
	</g>
	<text transform="matrix(1 0 0 1 102.9824 117.1419)" class="st34 st32 st35">View findings</text>
	<g>
		
			<ellipse transform="matrix(0.1602 -0.9871 0.9871 0.1602 -42.6231 176.9386)" class="st40" cx="82.7" cy="113.5" rx="14.7" ry="14.7"/>
	</g>
	<text transform="matrix(1 0 0 1 77.8714 118.2461)" class="st41 st42 st43">4</text>
	<g>
		<g>
			<line class="st36" x1="168.9" y1="171.5" x2="250.1" y2="171.5"/>
			<g>
				<polygon class="st37" points="249,175.2 255.5,171.5 249,167.7 				"/>
			</g>
		</g>
	</g>
	<g>
		<g>
			<line class="st36" x1="168.9" y1="171.1" x2="168.9" y2="191.6"/>
			<g>
				<polygon class="st37" points="165.1,190.5 168.9,197 172.6,190.5 				"/>
			</g>
		</g>
	</g>
	<line class="st36" x1="564.5" y1="241.5" x2="472" y2="241.5"/>
	<g>
		<g>
			<line class="st36" x1="564" y1="241.5" x2="564" y2="214.6"/>
			<g>
				<polygon class="st37" points="567.8,215.7 564,209.2 560.3,215.7 				"/>
			</g>
		</g>
	</g>
	<g>
		
			<ellipse transform="matrix(0.1602 -0.9871 0.9871 0.1602 275.4228 775.6195)" class="st44" cx="593.5" cy="225.9" rx="14.7" ry="14.7"/>
	</g>
	<text transform="matrix(1 0 0 1 588.7272 230.6778)" class="st34 st42 st43">3</text>
	<text transform="matrix(1 0 0 1 614.9274 229.5736)" class="st34 st32 st35">Display findings</text>
	<rect x="555.7" y="128.7" class="st47" width="49.7" height="70.7"/>
	<rect x="688.7" y="106.4" class="st48" width="39.4" height="10.1"/>
	<text transform="matrix(1 0 0 1 690.1099 112.2846)" class="st32 st49">Get more findings  +</text>
	<text transform="matrix(1 0 0 1 691.7148 120.1864)" class="st32 st50">Last updated Feb 15, 2021</text>
	<text transform="matrix(1 0 0 1 557.7438 133.9682)" class="st30 st50">Vulnerability in images</text>
	<text transform="matrix(1 0 0 1 557.942 143.6063)" class="st32 st50">Images with vulnerabilities</text>
	<text transform="matrix(1 0 0 1 557.9291 155.5164)" class="st32 st50">Images with config issues</text>
	<text transform="matrix(1 0 0 1 600.6002 143.57)" class="st32 st50">0</text>
	<text transform="matrix(1 0 0 1 600.6001 155.5161)" class="st32 st50">0</text>
	<path class="st51" d="M588,165.5h-1.5v-0.8c0-0.8-0.7-1.5-1.5-1.5h-9c-0.8,0-1.5,0.7-1.5,1.5v0.8H573c-0.8,0-1.5,0.7-1.5,1.5v2.2
		c0,1.7,1.3,3,3,3h0.2c0.6,2.3,2.6,4.1,5,4.5v3H576v1.5h9v-1.5h-3.8v-3.1c2.4-0.3,4.4-2.1,5.1-4.4h0.2c1.7,0,3-1.3,3-3V167
		C589.5,166.2,588.8,165.5,588,165.5z M574.5,170.7c-0.8,0-1.5-0.7-1.5-1.5V167h1.5V170.7z M585,170.7c0,2.5-2,4.5-4.5,4.5
		c0,0-0.1,0-0.1,0c-2.5-0.2-4.4-2.2-4.4-4.7v-5.8h9V170.7z M588,169.2c0,0.8-0.7,1.5-1.5,1.5V167h1.5V169.2z"/>
	<text transform="matrix(1 0 0 1 558.5626 187.5781)"><tspan x="0" y="0" class="st32 st50">No images with vulnerabilities or</tspan><tspan x="5.3" y="3.6" class="st32 st50">config issues detected in</tspan><tspan x="12.2" y="7.2" class="st32 st50">the last 5 days</tspan></text>
	<rect x="673.3" y="128.7" class="st47" width="49.7" height="70.7"/>
	<text transform="matrix(1 0 0 1 675.2543 134.0041)" class="st30 st50">Access analytics</text>
	<text transform="matrix(1 0 0 1 675.5728 143.6063)" class="st32 st50">Alerts related to Identity ...</text>
	<text transform="matrix(1 0 0 1 675.905 155.5164)" class="st32 st50">Alerts related to data a ...</text>
	<text transform="matrix(1 0 0 1 718.1846 143.57)" class="st32 st50">0</text>
	<text transform="matrix(1 0 0 1 718.1844 155.5161)" class="st52 st32 st50">2</text>
	<text transform="matrix(1 0 0 1 689.8379 196.9794)" class="st34 st32 st50">View related findings &gt;</text>
	<rect x="614.5" y="128.7" class="st47" width="49.7" height="70.7"/>
	<text transform="matrix(1 0 0 1 616.5227 133.9682)" class="st30 st50">Certificates</text>
	<text transform="matrix(1 0 0 1 616.4358 143.6063)" class="st32 st50">Certificates already expired</text>
	<text transform="matrix(1 0 0 1 616.1846 155.5164)" class="st32 st50">Certificates will expire to...</text>
	<text transform="matrix(1 0 0 1 659.3923 143.57)" class="st32 st50">0</text>
	<text transform="matrix(1 0 0 1 659.3922 155.5161)" class="st32 st50">0</text>
	<text transform="matrix(1 0 0 1 622.8523 187.5781)"><tspan x="0" y="0" class="st32 st50">No certificates are set to</tspan><tspan x="-0.9" y="3.6" class="st32 st50">expire in the next 90 days</tspan></text>
	<g>
		<rect x="631" y="172.1" class="st51" width="4.5" height="1.5"/>
		<rect x="631" y="169.1" class="st51" width="7.5" height="1.5"/>
		<rect x="631" y="166.1" class="st51" width="7.5" height="1.5"/>
		<path class="st51" d="M636.7,179.6h-7.5v-15.1h18.1v7.5h1.5v-7.5c0-0.8-0.7-1.5-1.5-1.5h-18.1c-0.8,0-1.5,0.7-1.5,1.5v15.1
			c0,0.8,0.7,1.5,1.5,1.5h7.5V179.6z"/>
		<polygon class="st51" points="643.1,179.3 641.1,177.4 640.1,178.4 643.1,181.4 649.1,175.4 648,174.3 		"/>
	</g>
	<rect x="685.6" y="166.4" class="st53" width="3.1" height="16.4"/>
	<rect x="695.9" y="174" class="st53" width="3.1" height="8.7"/>
	<rect x="706.6" y="161.2" class="st53" width="3.1" height="21.5"/>
	<line class="st54" x1="680.2" y1="159.1" x2="680.2" y2="185.4"/>
	<line class="st54" x1="680.2" y1="185.4" x2="711.6" y2="185.4"/>
	<rect x="692" y="189.9" class="st53" width="2.6" height="2.6"/>
	<text transform="matrix(1 0 0 1 694.9227 192.0842)" class="st32 st50">Data and compute</text>
	<rect x="676.3" y="189.9" class="st55" width="2.6" height="2.6"/>
	<text transform="matrix(1 0 0 1 679.5797 192.0716)" class="st32 st50">Identity </text>
	<rect x="288.4" y="218.2" class="st45" width="183.7" height="34.5"/>
	<g>
		<ellipse class="st56" cx="317.4" cy="228.5" rx="16.1" ry="4.6"/>
		<path class="st56" d="M333.1,241.4c-1.5-2.1-8-3.7-15.8-3.7c-8.9,0-16.1,2.1-16.1,4.6s7.2,4.6,16.1,4.6c8.9,0,16.1-2.1,16.1-4.6
			C333.5,242.1,333.3,241.7,333.1,241.4z"/>
		<line class="st57" x1="301.3" y1="242.4" x2="301.3" y2="228.5"/>
		<line class="st57" x1="333.5" y1="242.4" x2="333.5" y2="228.5"/>
	</g>
	<text transform="matrix(1 0 0 1 344.9742 238.9547)" class="st30 st35">Results storage</text>
	<rect x="122.9" y="201.5" class="st45" width="101.1" height="63.8"/>
	<text transform="matrix(1 0 0 1 130.3479 225.7115)"><tspan x="0" y="0" class="st30 st35">Your IBM Cloud</tspan><tspan x="9.3" y="14.4" class="st30 st35">account and</tspan><tspan x="16" y="28.8" class="st30 st35">resources</tspan></text>
	<g>
		<circle class="st58" cx="122.9" cy="201.5" r="14.9"/>
		<g>
			<polygon class="st59" points="121.9,202.5 120.7,201.2 120,201.9 121.9,203.8 125.8,199.9 125.1,199.3 			"/>
			<path class="st59" d="M122.9,208.3l-3-1.6c-1.7-0.9-2.8-2.7-2.8-4.7v-6.3c0-0.5,0.4-1,1-1h9.7c0.5,0,1,0.4,1,1v6.3
				c0,2-1.1,3.8-2.8,4.7L122.9,208.3z M118,195.7v6.3c0,1.6,0.9,3.1,2.3,3.9l2.5,1.4l2.5-1.4c1.4-0.8,2.3-2.2,2.3-3.9v-6.3H118z"/>
		</g>
	</g>
</g>
</svg>
