<?xml version="1.0" encoding="utf-8"?>
<!-- Generator: Adobe Illustrator 26.0.1, SVG Export Plug-In . SVG Version: 6.00 Build 0)  -->
<svg version="1.1" xmlns="http://www.w3.org/2000/svg" xmlns:xlink="http://www.w3.org/1999/xlink" x="0px" y="0px"
	 viewBox="0 0 1233.7 550.8" style="enable-background:new 0 0 1233.7 550.8;" xml:space="preserve">
<style type="text/css">
	.st0{fill:#FFFFFF;}
	.st1{fill:#001D6C;}
	.st2{fill:#FFFFFF;stroke:#000000;stroke-width:0.8156;stroke-miterlimit:10;}
	.st3{fill:#F1F1F1;stroke:#CFD3DA;stroke-width:0.4647;stroke-miterlimit:10;}
	.st4{fill:none;stroke:#000000;stroke-width:0.5;stroke-miterlimit:10;}
	.st5{fill:#7940F8;}
	.st6{font-family:'IBMPlexMono';}
	.st7{font-size:12px;}
	.st8{font-family:'IBMPlexSans-SemiBold';}
	.st9{font-size:13px;}
	.st10{font-family:'IBMPlexSans';}
	.st11{font-size:11px;}
	.st12{font-family:'IBMPlexSans-Text';}
	.st13{fill:none;}
	.st14{font-family:'IBMPlexSans-LightItalic';}
	.st15{font-size:10px;}
	.st16{fill:#8A3FFC;}
	.st17{font-family:'IBMPlexSans-ExtraLight';}
	.st18{letter-spacing:30;}
	.st19{fill:#001D6C;stroke:#001D6C;stroke-width:0.5;stroke-miterlimit:10;}
	.st20{fill:#001D6C;stroke:#CFD3DA;stroke-width:0.4647;stroke-miterlimit:10;}
</style>
<g id="Background">
</g>
<g id="Translatable_text">
	<path class="st0" d="M1199,544H34.7c-9.6,0-17.3-7.7-17.3-17.3V29.6c0-9.6,7.7-17.3,17.3-17.3H1199c9.6,0,17.3,7.7,17.3,17.3v497.1
		C1216.3,536.3,1208.6,544,1199,544z"/>
	<path class="st2" d="M793.7,520.5H437.6c-9.6,0-17.3-7.7-17.3-17.3V62.5c0-9.6,7.7-17.3,17.3-17.3h356.1c9.6,0,17.3,7.7,17.3,17.3
		v440.6C811,512.7,803.2,520.5,793.7,520.5z"/>
	<path class="st3" d="M668.8,87.3h-229c-4.9,0-8.8-3.9-8.8-8.8V66.9c0-4.9,3.9-8.8,8.8-8.8h229c4.9,0,8.8,3.9,8.8,8.8v11.6
		C677.6,83.4,673.7,87.3,668.8,87.3z"/>
	<path class="st2" d="M779,451.5H485.8c-7.3,0-13.2-5.9-13.2-13.2V115.5c0-7.3,5.9-13.2,13.2-13.2H779c7.3,0,13.2,5.9,13.2,13.2
		v322.7C792.2,445.5,786.3,451.5,779,451.5z"/>
	<path class="st3" d="M763.7,387.9H496.9c-4.9,0-8.8-3.9-8.8-8.8V145.7c0-4.9,3.9-8.8,8.8-8.8h266.7c4.9,0,8.8,3.9,8.8,8.8v233.4
		C772.5,383.9,768.5,387.9,763.7,387.9z"/>
	<path class="st3" d="M762.9,428.1h-266c-4.9,0-8.8-3.9-8.8-8.8v-11.6c0-4.9,3.9-8.8,8.8-8.8h266c4.9,0,8.8,3.9,8.8,8.8v11.6
		C771.7,424.1,767.8,428.1,762.9,428.1z"/>
	<path class="st2" d="M781.3,503.5H480.4c-6,0-10.9-4.9-10.9-10.9v-14.8c0-6,4.9-10.9,10.9-10.9h300.9c6,0,10.9,4.9,10.9,10.9v14.8
		C792.2,498.6,787.3,503.5,781.3,503.5z"/>
	<g>
		<g>
			<line class="st4" x1="440.5" y1="97.3" x2="440.5" y2="462.6"/>
			<g>
				<path d="M438.7,97.4c0-1,0.8-1.9,1.9-1.9s1.9,0.8,1.9,1.9c0,1-0.8,1.9-1.9,1.9S438.7,98.5,438.7,97.4z"/>
			</g>
		</g>
	</g>
	<g>
		<g>
			<path class="st4" d="M440.5,463.6c0,23.7,4.3,22.4,19.6,22.2"/>
			<g>
				<g>
					<path class="st0" d="M460.1,487.7c1,0,1.9-0.9,1.9-1.9c0-1-0.9-1.9-1.9-1.9c-1,0-1.9,0.9-1.9,1.9S459,487.7,460.1,487.7z"/>
					<path d="M460.1,487.9c-1.2,0-2.1-0.9-2.2-2.1c0-1.2,0.9-2.1,2.1-2.2c1.2,0,2.1,0.9,2.2,2.1C462.2,487,461.3,487.9,460.1,487.9
						C458.9,488,461.3,487.9,460.1,487.9z M460,484.2c-0.9,0-1.6,0.7-1.6,1.6c0,0.9,0.7,1.6,1.6,1.6c0.9,0,1.6-0.7,1.6-1.6
						C461.7,484.9,460.9,484.2,460,484.2C459.1,484.2,460.9,484.2,460,484.2z"/>
				</g>
			</g>
		</g>
	</g>
	<g>
		<g>
			<path class="st4" d="M440.5,96.5c0,23.7,4.3,22.4,19.6,22.2"/>
			<g>
				<g>
					<path class="st0" d="M460.1,120.7c1,0,1.9-0.9,1.9-1.9c0-1-0.9-1.9-1.9-1.9s-1.9,0.9-1.9,1.9S459,120.7,460.1,120.7z"/>
					<path d="M460.1,120.9c-1.2,0-2.1-0.9-2.2-2.1c0-1.2,0.9-2.1,2.1-2.2c1.2,0,2.1,0.9,2.2,2.1S461.3,120.9,460.1,120.9
						C458.9,120.9,461.3,120.9,460.1,120.9z M460,117.1c-0.9,0-1.6,0.7-1.6,1.6c0,0.9,0.7,1.6,1.6,1.6c0.9,0,1.6-0.7,1.6-1.6
						C461.7,117.9,460.9,117.1,460,117.1C459.1,117.2,460.9,117.1,460,117.1z"/>
				</g>
			</g>
		</g>
	</g>
	<circle class="st4" cx="507.6" cy="179.6" r="4.1"/>
	<circle class="st4" cx="507.6" cy="219.9" r="4.1"/>
	<circle class="st4" cx="507.6" cy="254.2" r="4.1"/>
	<text transform="matrix(1 0 0 1 439.5299 77.8216)" class="st5 st6 st7">My custom profile</text>
	<text transform="matrix(1 0 0 1 484.4977 123.2212)"><tspan x="0" y="0" class="st8 st9">AC - </tspan><tspan x="28.4" y="0" class="st10 st9">Access Control</tspan></text>
	<text transform="matrix(1 0 0 1 496.3172 154.5427)" class="st5 st6 st11">AC-3</text>
	<text transform="matrix(1 0 0 1 533.9769 154.5432)" class="st10 st11">Access Enforcement</text>
	<text transform="matrix(1 0 0 1 496.3172 416.5779)" class="st5 st6 st11">AC-4</text>
	<text transform="matrix(1 0 0 1 533.9769 416.5784)" class="st10 st11">Information Flow Enforcement</text>
	<text transform="matrix(1 0 0 1 480.4977 489.1909)"><tspan x="0" y="0" class="st8 st9">SC </tspan><tspan x="19.4" y="0" class="st12 st9">- System and Communications Protection</tspan></text>
	<rect x="525.6" y="174.5" class="st13" width="233.3" height="41.2"/>
	<text transform="matrix(1 0 0 1 525.6288 182.9598)"><tspan x="0" y="0" class="st14 st15">Check  whether permissions for service ID creation </tspan><tspan x="0" y="12" class="st14 st15">are limited and configured in IAM settings for the </tspan><tspan x="0" y="24" class="st14 st15">account owner</tspan></text>
	<rect x="525.6" y="215.8" class="st13" width="233.3" height="29.9"/>
	<text transform="matrix(1 0 0 1 525.6288 224.2657)"><tspan x="0" y="0" class="st14 st15">Check whether IAM users are attached to at least one </tspan><tspan x="0" y="12" class="st14 st15">access group</tspan></text>
	<rect x="525.6" y="249" class="st13" width="231.7" height="29.9"/>
	<text transform="matrix(1 0 0 1 525.6288 257.5289)"><tspan x="0" y="0" class="st14 st15">Check whether IAM pollicies for users are attached </tspan><tspan x="0" y="12" class="st14 st15">only to groups or roles</tspan></text>
	<rect x="526.2" y="272.9" class="st13" width="204" height="111.5"/>
	<text transform="matrix(1 0 0 1 526.1788 281.4249)"><tspan x="0" y="0" class="st16 st17 st15">{ </tspan><tspan x="0" y="12" class="st16 st17 st15">    Description: Check whether IAM policies for</tspan><tspan x="0" y="24" class="st16 st17 st15">    users are attached only to groups or roles</tspan><tspan x="0" y="36" class="st16 st17 st15">    Parameters: 1</tspan><tspan x="0" y="48" class="st16 st17 st15 st18">	</tspan><tspan x="32.4" y="48" class="st16 st17 st15">Property: </tspan><tspan x="0" y="60" class="st16 st17 st15 st18">	</tspan><tspan x="32.4" y="60" class="st16 st17 st15">Value: </tspan><tspan x="0" y="72" class="st16 st17 st15">    Type: Automated</tspan><tspan x="0" y="84" class="st16 st17 st15">    Method: IBM Cloud rule</tspan><tspan x="0" y="96" class="st16 st17 st15">}</tspan></text>
	<g>
		<polyline class="st19" points="486,299.8 502.6,263.9 502.8,263.6 460.5,274.9 		"/>
		<path class="st1" d="M483.8,304.4h-89.7c-4.9,0-8.8-3.9-8.8-8.8v-18.9c0-4.9,3.9-8.8,8.8-8.8h89.7c4.9,0,8.8,3.9,8.8,8.8v18.9
			C492.7,300.5,488.7,304.4,483.8,304.4z"/>
	</g>
	<text transform="matrix(1 0 0 1 400.4894 289.9643)" class="st0 st8 st9">Specification</text>
	<g>
		<path class="st20" d="M773.4,58.8h-89.7c-4.9,0-8.8-3.9-8.8-8.8V31.1c0-4.9,3.9-8.8,8.8-8.8h89.7c4.9,0,8.8,3.9,8.8,8.8V50
			C782.2,54.9,778.3,58.8,773.4,58.8z"/>
		<polyline class="st19" points="681.7,27.8 668.9,65.3 668.8,65.5 709.6,49.9 		"/>
	</g>
	<text transform="matrix(1 0 0 1 708.7374 44.3664)" class="st0 st8 st9">Profile</text>
	<g>
		<path class="st20" d="M834.3,277.2h-89.7c-4.9,0-8.8-3.9-8.8-8.8v-18.9c0-4.9,3.9-8.8,8.8-8.8h89.7c4.9,0,8.8,3.9,8.8,8.8v18.9
			C843.1,273.3,839.1,277.2,834.3,277.2z"/>
		<polyline class="st19" points="743.1,246.3 730.3,283.8 730.2,284 771,268.4 		"/>
	</g>
	<text transform="matrix(1 0 0 1 752.9197 262.7493)" class="st0 st8 st9">Assessment</text>
	<g>
		<path class="st20" d="M710.7,361.1h-89.7c-4.9,0-8.8-3.9-8.8-8.8v-18.9c0-4.9,3.9-8.8,8.8-8.8h89.7c4.9,0,8.8,3.9,8.8,8.8v18.9
			C719.5,357.2,715.6,361.1,710.7,361.1z"/>
		<polyline class="st19" points="621.1,359.3 608.3,321.8 608.2,321.5 649,337.1 		"/>
	</g>
	<text transform="matrix(1 0 0 1 631.56 346.6231)" class="st0 st8 st9">Parameters</text>
	<g>
		<path class="st20" d="M483.3,144.2h-89.7c-4.9,0-8.8-3.9-8.8-8.8v-18.9c0-4.9,3.9-8.8,8.8-8.8h89.7c4.9,0,8.8,3.9,8.8,8.8v18.9
			C492.1,140.3,488.1,144.2,483.3,144.2z"/>
		<polyline class="st19" points="483.4,111.8 496.2,149.2 496.3,149.5 455.5,133.9 		"/>
	</g>
	<text transform="matrix(1 0 0 1 416.2583 129.7492)" class="st0 st8 st9">Control</text>
</g>
</svg>
