<?xml version="1.0" encoding="utf-8"?>
<!-- Generator: Adobe Illustrator 26.0.1, SVG Export Plug-In . SVG Version: 6.00 Build 0)  -->
<svg version="1.1" xmlns="http://www.w3.org/2000/svg" xmlns:xlink="http://www.w3.org/1999/xlink" x="0px" y="0px"
	 viewBox="0 0 747.7 300.3" style="enable-background:new 0 0 747.7 300.3;" xml:space="preserve">
<style type="text/css">
	.st0{display:none;}
	.st1{display:inline;}
	.st2{clip-path:url(#SVGID_00000080925565990338709910000010623462167968731009_);}
	.st3{opacity:0.4;clip-path:url(#SVGID_00000085231205862326224660000005501939487044675244_);fill:#A3A4A3;}
	.st4{clip-path:url(#SVGID_00000138548966582675180480000000332661872113162917_);}
	.st5{opacity:0.4;clip-path:url(#SVGID_00000103255683889253638670000017342488713450886534_);fill:#A3A4A3;}
	.st6{opacity:0.1413;clip-path:url(#SVGID_00000183214117835553610300000002942370768361378981_);enable-background:new    ;}
	.st7{clip-path:url(#SVGID_00000181073724940851569050000014419225134148742791_);}
	.st8{clip-path:url(#SVGID_00000164483155521570909330000005631956463308072119_);}
	.st9{clip-path:url(#SVGID_00000047048196750796813490000002425550747185075633_);}
	.st10{opacity:0.4;clip-path:url(#SVGID_00000040555064724761643130000002136041913768563345_);fill:#A3A4A3;}
	.st11{clip-path:url(#SVGID_00000051362622046703429360000007699053919727145406_);}
	.st12{opacity:0.4;clip-path:url(#SVGID_00000072971083860061718000000000731822842269711269_);fill:#A3A4A3;}
	.st13{opacity:0.1413;clip-path:url(#SVGID_00000076571703133730326300000009621458108402118055_);enable-background:new    ;}
	.st14{clip-path:url(#SVGID_00000004524021799441721880000014594711948622823341_);}
	.st15{clip-path:url(#SVGID_00000075127861322892973030000014696040562489969551_);}
	.st16{clip-path:url(#SVGID_00000152263590162241488900000010306038811127779201_);}
	.st17{opacity:0.4;clip-path:url(#SVGID_00000115473113218198528980000006312813731524383667_);fill:#A3A4A3;}
	.st18{clip-path:url(#SVGID_00000037694444141351006980000014619741024762310300_);}
	.st19{opacity:0.4;clip-path:url(#SVGID_00000130614393463962730350000012945325269599755666_);fill:#A3A4A3;}
	.st20{opacity:0.1413;clip-path:url(#SVGID_00000060738122950368056390000000818064196655366784_);enable-background:new    ;}
	.st21{clip-path:url(#SVGID_00000055691892128268911420000006627751765367502978_);}
	.st22{clip-path:url(#SVGID_00000181053267016382713250000003852133310333511612_);}
	.st23{fill:#F4F4F4;}
	.st24{fill:#FFFFFF;stroke:#8D8D8D;stroke-linecap:round;stroke-miterlimit:10;}
	.st25{font-family:'IBMPlexSans-SemiBold';}
	.st26{font-size:14px;}
	.st27{fill:#0F62FE;}
	.st28{font-family:'IBMPlexSans';}
	.st29{font-size:12px;}
	.st30{fill:none;stroke:#6F6F6F;stroke-width:0.75;stroke-miterlimit:10;}
	.st31{fill:#6F6F6F;}
	.st32{fill:none;stroke:#6F6F6F;stroke-width:0.75;stroke-linejoin:round;stroke-miterlimit:10;}
	.st33{fill:#002D9C;}
	.st34{fill:#FFFFFF;stroke:#8D8D8D;stroke-width:0.75;stroke-linecap:round;stroke-miterlimit:10;}
	.st35{fill:#A6C8FF;}
	.st36{opacity:0.5;fill:#FB4B53;}
	.st37{opacity:0.5;fill:#FDD13A;}
	.st38{opacity:0.5;fill:#A8A8A8;}
	.st39{opacity:0.5;fill:#198038;}
	.st40{font-size:3.6146px;}
	.st41{fill:#525252;}
	.st42{font-size:1.3254px;}
	.st43{fill:none;stroke:#6F6F6F;stroke-width:0.8486;stroke-miterlimit:10;}
	.st44{fill:none;stroke:#6F6F6F;stroke-width:0.8486;stroke-miterlimit:10;stroke-dasharray:2.9326,2.9326;}
	.st45{fill:#FFFFFF;stroke:#FFFFFF;stroke-width:0.109;stroke-miterlimit:10;}
	.st46{font-size:10px;}
	.st47{fill:none;stroke:#6F6F6F;stroke-width:0.75;stroke-linejoin:round;}
	.st48{fill:#EDF5FF;stroke:#A6C8FF;stroke-width:0.802;stroke-miterlimit:10;}
	.st49{fill:#0F62FE;stroke:#0F62FE;stroke-miterlimit:10;}
	.st50{fill:#FFFFFF;}
	.st51{font-family:'IBMPlexSans-Medium';}
	.st52{font-size:16px;}
	.st53{fill:#0F6FFF;}
	.st54{fill-rule:evenodd;clip-rule:evenodd;fill:#001D6C;}
</style>
<g id="grid" class="st0">
	<g class="st1">
		<defs>
			<rect id="SVGID_1_" x="-75.3" y="-93.4" width="16" height="882"/>
		</defs>
		<clipPath id="SVGID_00000052075071594763584910000014448658523740479360_">
			<use xlink:href="#SVGID_1_"  style="overflow:visible;"/>
		</clipPath>
		<g style="clip-path:url(#SVGID_00000052075071594763584910000014448658523740479360_);">
			<defs>
				<rect id="SVGID_00000078023982359309705010000000881596654580228020_" x="-75.3" y="-93.4" width="1056" height="882"/>
			</defs>
			<clipPath id="SVGID_00000061471344493494173800000008135985862441337235_">
				<use xlink:href="#SVGID_00000078023982359309705010000000881596654580228020_"  style="overflow:visible;"/>
			</clipPath>
		</g>
	</g>
	<g class="st1">
		<defs>
			<rect id="SVGID_00000139998254722418977960000017222017825522283703_" x="964.7" y="-93.4" width="16" height="882"/>
		</defs>
		<clipPath id="SVGID_00000026153626419972187840000003204592937104476555_">
			<use xlink:href="#SVGID_00000139998254722418977960000017222017825522283703_"  style="overflow:visible;"/>
		</clipPath>
		<g style="clip-path:url(#SVGID_00000026153626419972187840000003204592937104476555_);">
			<defs>
				<rect id="SVGID_00000000220451191422705370000017602601360397430947_" x="-75.3" y="-93.4" width="1056" height="882"/>
			</defs>
			<clipPath id="SVGID_00000141422113619297987380000013436199871766554047_">
				<use xlink:href="#SVGID_00000000220451191422705370000017602601360397430947_"  style="overflow:visible;"/>
			</clipPath>
		</g>
	</g>
	<g class="st1">
		<defs>
			<rect id="SVGID_00000148645166612317860700000011057336489458677380_" x="-75.3" y="-93.4" width="1056" height="882"/>
		</defs>
		<clipPath id="SVGID_00000088110889538337805880000009618962086729097864_">
			<use xlink:href="#SVGID_00000148645166612317860700000011057336489458677380_"  style="overflow:visible;"/>
		</clipPath>
		
			<g style="opacity:0.1413;clip-path:url(#SVGID_00000088110889538337805880000009618962086729097864_);enable-background:new    ;">
			<g>
				<defs>
					<rect id="SVGID_00000034793472218734540800000000838253269506180004_" x="-75.3" y="-93.4" width="1056" height="882"/>
				</defs>
				<clipPath id="SVGID_00000023268141062361765210000010910334090534224319_">
					<use xlink:href="#SVGID_00000034793472218734540800000000838253269506180004_"  style="overflow:visible;"/>
				</clipPath>
				<g style="clip-path:url(#SVGID_00000023268141062361765210000010910334090534224319_);">
					<defs>
						<rect id="SVGID_00000129205180227972851310000017579360108731662224_" x="-75.3" y="-93.4" width="1056" height="882"/>
					</defs>
					<clipPath id="SVGID_00000160907862752547817320000003932225182745628589_">
						<use xlink:href="#SVGID_00000129205180227972851310000017579360108731662224_"  style="overflow:visible;"/>
					</clipPath>
					<g style="clip-path:url(#SVGID_00000160907862752547817320000003932225182745628589_);">
						<defs>
							<rect id="SVGID_00000116914809843143963260000003129877699481007799_" x="-75.3" y="-93.4" width="1056" height="882"/>
						</defs>
						<clipPath id="SVGID_00000112633649114903396630000014130646736880628144_">
							<use xlink:href="#SVGID_00000116914809843143963260000003129877699481007799_"  style="overflow:visible;"/>
						</clipPath>
						<g style="clip-path:url(#SVGID_00000112633649114903396630000014130646736880628144_);">
							
								<image style="overflow:visible;" width="1056" height="882" xlink:href="D4F972EBF9AAC690.png"  transform="matrix(1 0 0 1 -75.3438 -93.4144)">
							</image>
						</g>
					</g>
				</g>
			</g>
		</g>
	</g>
</g>
<g id="Graphics">
	<g id="Legend">
	</g>
</g>
<g id="Text">
	<polygon class="st23" points="737.9,8.6 399.8,8.6 399.8,292.2 737.9,292.2 	"/>
	<rect x="423.8" y="90.5" class="st24" width="270.9" height="98.7"/>
	<text transform="matrix(1 0 0 1 518.5189 26.4492)" class="st25 st26">Security and Compliance Center</text>
	<text transform="matrix(1 0 0 1 103.6524 155.415)" class="st27 st28 st29">Define your scope</text>
	<text transform="matrix(1 0 0 1 103.6523 114.2343)" class="st27 st28 st29">Register your integration</text>
	<line class="st32" x1="349.8" y1="121.3" x2="60.1" y2="121.3"/>
	<polygon class="st23" points="329.6,8.9 187,8.9 187,79.2 329.6,79.2 	"/>
	<text transform="matrix(1 0 0 1 192.5429 25.1729)" class="st25 st26">OpenShift</text>
	<rect x="423.9" y="38.4" class="st24" width="227.3" height="40.1"/>
	<text transform="matrix(1 0 0 1 459.2632 61.9807)" class="st25 st29">Integration</text>
	<path class="st33" d="M454.8,57.2l-5.1-9.3c-0.1-0.3-0.4-0.4-0.7-0.4h-11.8c-0.3,0-0.6,0.2-0.7,0.4l-5.1,9.3
		c-0.2,0.3-0.2,0.6,0,0.8l5.1,9.3c0.2,0.3,0.4,0.4,0.7,0.4H449c0.3,0,0.6-0.2,0.7-0.4l5.1-9.3C455,57.8,455,57.5,454.8,57.2z
		 M449,50.1l3.7,6.7h-8L449,50.1z M443.1,56.1l-4.4-6.9h8.7L443.1,56.1z M437.3,50.1l4.3,6.7h-8L437.3,50.1z M433.6,58.5h8l-4.3,6.7
		L433.6,58.5z M443.1,59.2l4.4,6.9h-8.7L443.1,59.2z M449,65.2l-4.3-6.7h8L449,65.2z"/>
	<g>
		<g>
			<path class="st30" d="M479.6,142.5h-34.6c-2.3,0-4.2-1.8-4.2-4.1v-15"/>
			<g>
				<path class="st31" d="M443.7,123.6c0-1.6-1.3-2.8-2.8-2.8c-1.6,0-2.8,1.3-2.8,2.8c0,1.6,1.3,2.8,2.8,2.8
					C442.4,126.4,443.7,125.1,443.7,123.6z"/>
			</g>
		</g>
	</g>
	<text transform="matrix(1 0 0 1 458.0309 110.3879)" class="st25 st29">Scope</text>
	<g>
		<polygon class="st33" points="446.4,115.6 444.1,113.3 442.8,114.6 446.4,118.2 453.6,111 452.3,109.7 		"/>
		<circle class="st33" cx="441" cy="106.1" r="1.8"/>
		<path class="st33" d="M441,111.5c-3,0-5.4-2.4-5.4-5.4c0-3,2.4-5.4,5.4-5.4c3,0,5.4,2.4,5.4,5.4C446.4,109.1,444,111.5,441,111.5z
			 M441,102.5c-2,0-3.6,1.6-3.6,3.6c0,2,1.6,3.6,3.6,3.6c2,0,3.6-1.6,3.6-3.6C444.6,104.1,443,102.5,441,102.5z"/>
		<path class="st33" d="M451.8,106.1c0-5.9-4.8-10.8-10.8-10.8c-5.9,0-10.8,4.8-10.8,10.8c0,5.9,4.8,10.8,10.8,10.8v-1.8
			c-5,0-9-4-9-9c0-5,4-9,9-9s9,4,9,9H451.8z"/>
	</g>
	<rect x="424.4" y="201.4" class="st24" width="226.8" height="79.6"/>
	<rect x="437.7" y="241.8" class="st34" width="88.2" height="26"/>
	<g>
		<path class="st35" d="M457.3,249.3v-2.4h-14.6v6.1h5.5v11h11.6v-14.6H457.3z M443.9,251.7v-3.7h12.2v1.2h-7.9v2.4H443.9z
			 M458.5,262.7h-9.1v-12.2h9.1V262.7z"/>
		<rect x="450.6" y="252.4" class="st35" width="1.2" height="1.2"/>
		<rect x="453" y="252.4" class="st35" width="4.3" height="1.2"/>
		<rect x="450.6" y="256" class="st35" width="1.2" height="1.2"/>
		<rect x="453" y="256" class="st35" width="4.3" height="1.2"/>
		<rect x="450.6" y="259.7" class="st35" width="1.2" height="1.2"/>
		<rect x="453" y="259.7" class="st35" width="4.3" height="1.2"/>
	</g>
	<rect x="503.4" y="208.4" class="st34" width="139.1" height="26"/>
	<g>
		<polygon class="st35" points="522.2,228 520.5,226.3 519.6,227.2 522.2,229.9 527.6,224.5 526.7,223.6 		"/>
		<path class="st35" d="M518.2,219.6c0.7,0,1.3,0.6,1.3,1.3c0,0.7-0.6,1.3-1.3,1.3s-1.3-0.6-1.3-1.3
			C516.9,220.2,517.5,219.6,518.2,219.6z"/>
		<path class="st35" d="M518.2,224.9c-2.2,0-4-1.8-4-4c0-2.2,1.8-4,4-4s4,1.8,4,4C522.2,223.1,520.4,224.9,518.2,224.9z
			 M518.2,218.2c-1.5,0-2.7,1.2-2.7,2.7c0,1.5,1.2,2.7,2.7,2.7c1.5,0,2.7-1.2,2.7-2.7C520.9,219.4,519.7,218.2,518.2,218.2z"/>
		<path class="st35" d="M526.3,220.9c0-4.4-3.6-8.1-8.1-8.1s-8.1,3.6-8.1,8.1c0,4.4,3.6,8.1,8.1,8.1v-1.3c-3.7,0-6.7-3-6.7-6.7
			c0-3.7,3-6.7,6.7-6.7s6.7,3,6.7,6.7H526.3z"/>
	</g>
	<text transform="matrix(1 0 0 1 535.3469 225.2853)" class="st25 st29">Resource Data</text>
	<text transform="matrix(1 0 0 1 468.4185 260.7532)" class="st25 st29">Profile</text>
	<g>
		<path class="st33" d="M444.1,228c-3.4,0-6.2-2.8-6.2-6.2s2.8-6.2,6.2-6.2s6.2,2.8,6.2,6.2S447.5,228,444.1,228z M444.1,217.2
			c-2.6,0-4.6,2.1-4.6,4.6s2.1,4.6,4.6,4.6c2.6,0,4.6-2.1,4.6-4.6S446.7,217.2,444.1,217.2z"/>
		<polygon class="st33" points="445.3,224.1 443.3,222.1 443.3,218.7 444.9,218.7 444.9,221.5 446.4,223 		"/>
		<path class="st33" d="M449.5,209.5c0-0.9-0.7-1.5-1.5-1.5h-3.1v-1.5h-1.5v1.5h-6.2v-1.5h-1.5v1.5h-3.1c-0.9,0-1.5,0.7-1.5,1.5
			v15.4c0,0.9,0.7,1.5,1.5,1.5h3.1v-1.5h-3.1v-15.4h3.1v1.5h1.5v-1.5h6.2v1.5h1.5v-1.5h3.1v4.6h1.5V209.5z"/>
	</g>
	<text transform="matrix(1 0 0 1 454.2104 220.6739)" class="st25 st29">Scan</text>
	<rect x="539.3" y="241.8" class="st34" width="103.2" height="26"/>
	<g>
		<path class="st36" d="M561.6,250.1c-2.3-4.2-7.6-5.7-11.8-3.4c-4.2,2.3-5.7,7.6-3.4,11.8c1,1.8,2.7,3.3,4.7,4l0.6-1.8
			c-3.5-1.2-5.4-5.1-4.1-8.6c1.2-3.5,5.1-5.4,8.6-4.1c1.6,0.5,2.9,1.6,3.7,3.1L561.6,250.1L561.6,250.1L561.6,250.1z"/>
		<path class="st37" d="M554.1,261c-0.8,0-1.5-0.1-2.2-0.4l-0.6,1.8c3.4,1.2,7.3,0.1,9.6-2.7l-1.5-1.2
			C558,260.1,556.1,261.1,554.1,261z"/>
		<path class="st38" d="M560.5,256.1c-0.2,0.9-0.7,1.7-1.3,2.4l1.5,1.2c0.7-0.9,1.3-2,1.6-3.1L560.5,256.1z"/>
		<path class="st39" d="M561.6,250.1L560,251c0.9,1.6,1.1,3.4,0.6,5.1l1.8,0.5C563,254.5,562.7,252.1,561.6,250.1z"/>
		<text transform="matrix(1 0 0 1 551.6141 254.5224)" class="st28 st40">74</text>
		<text transform="matrix(1 0 0 1 551.1776 256.1342)" class="st41 st28 st42">Controls</text>
	</g>
	<text transform="matrix(1 0 0 1 571.5087 258.7905)" class="st25 st29">Results</text>
	<g>
		<g>
			<path class="st43" d="M505.6,169.3H471c-2.3,0-4.2-2.3-4.2-5.2v-19.6"/>
			<g>
				<path class="st31" d="M470,144.6c0-1.8-1.4-3.2-3.2-3.2c-1.8,0-3.2,1.4-3.2,3.2c0,1.8,1.4,3.2,3.2,3.2
					C468.6,147.8,470,146.4,470,144.6z"/>
			</g>
		</g>
	</g>
	<g>
		<g>
			<line class="st43" x1="599.8" y1="148.7" x2="598.3" y2="148.7"/>
			<path class="st44" d="M595.4,148.7h-30.1c-2.3,0-4.2,2.3-4.2,5.2v19.7"/>
			<line class="st43" x1="561" y1="175" x2="561" y2="176.5"/>
		</g>
	</g>
	<rect x="455.7" y="129.2" class="st34" width="76.5" height="22.8"/>
	<circle class="st35" cx="455.4" cy="140.6" r="8"/>
	<g>
		<polygon class="st45" points="454.9,141.1 454.2,140.5 453.9,140.8 454.9,141.9 457,139.8 456.6,139.4 		"/>
		<path class="st45" d="M455.4,144.3l-1.6-0.9c-0.9-0.5-1.5-1.5-1.5-2.5v-3.4c0-0.3,0.2-0.5,0.5-0.5h5.2c0.3,0,0.5,0.2,0.5,0.5v3.4
			c0,1.1-0.6,2-1.5,2.5L455.4,144.3z M452.8,137.5v3.4c0,0.9,0.5,1.7,1.2,2.1l1.4,0.7l1.4-0.7c0.8-0.4,1.2-1.2,1.2-2.1v-3.4H452.8z"
			/>
	</g>
	<text transform="matrix(1 0 0 1 466.1667 143.6562)" class="st28 st46">IBM Cloud</text>
	<rect x="503.6" y="157.8" class="st34" width="76.5" height="22.8"/>
	<circle class="st35" cx="501.4" cy="169.2" r="8"/>
	<g>
		<polygon class="st45" points="500.9,169.6 500.2,169 499.8,169.3 500.9,170.4 502.9,168.3 502.6,167.9 		"/>
		<path class="st45" d="M501.4,172.8l-1.6-0.9c-0.9-0.5-1.5-1.5-1.5-2.5V166c0-0.3,0.2-0.5,0.5-0.5h5.2c0.3,0,0.5,0.2,0.5,0.5v3.4
			c0,1.1-0.6,2-1.5,2.5L501.4,172.8z M498.8,166v3.4c0,0.9,0.5,1.7,1.2,2.1l1.4,0.7l1.4-0.7c0.8-0.4,1.2-1.2,1.2-2.1V166H498.8z"/>
	</g>
	<text transform="matrix(1 0 0 1 512.0516 172.1731)" class="st28 st46">Account A</text>
	<rect x="596.5" y="138.2" class="st34" width="76.5" height="22.8"/>
	<circle class="st35" cx="596.5" cy="149.6" r="8"/>
	<g>
		<polygon class="st45" points="595.9,150.1 595.3,149.5 594.9,149.8 595.9,150.9 598,148.8 597.7,148.4 		"/>
		<path class="st45" d="M596.5,153.3l-1.6-0.9c-0.9-0.5-1.5-1.5-1.5-2.5v-3.4c0-0.3,0.2-0.5,0.5-0.5h5.2c0.3,0,0.5,0.2,0.5,0.5v3.4
			c0,1.1-0.6,2-1.5,2.5L596.5,153.3z M593.9,146.5v3.4c0,0.9,0.5,1.7,1.2,2.1l1.4,0.7l1.4-0.7c0.8-0.4,1.2-1.2,1.2-2.1v-3.4H593.9z"
			/>
	</g>
	<text transform="matrix(1 0 0 1 608.5102 152.6564)" class="st28 st46">My clusters</text>
	<g>
		<g>
			<line class="st47" x1="414.4" y1="160" x2="53.4" y2="160"/>
			<g>
				<polygon class="st31" points="413.3,156.3 419.8,160 413.3,163.8 				"/>
			</g>
		</g>
	</g>
	<g>
		<path class="st48" d="M39.7,112.8c-15.4,0-27.8,12.5-27.8,27.8c0,15.4,12.5,27.8,27.8,27.8s27.8-12.5,27.8-27.8
			C67.6,125.3,55.1,112.8,39.7,112.8z M56.4,159.8v-1.2v-0.1c0.1-6-4.6-11-10.6-11.3H33.2c-6,0.2-10.7,5.3-10.5,11.3c0,0,0,0,0,0.1
			v1.2c-10.5-9.4-11.4-25.5-2-36c9.3-10.5,25.4-11.4,35.8-2s11.4,25.5,2,36C57.8,158.5,57.1,159.2,56.4,159.8z"/>
		<path class="st48" d="M39.7,122.7c-5.5,0-9.9,4.5-9.9,9.9c0,5.5,4.5,9.9,9.9,9.9s9.9-4.5,9.9-9.9
			C49.7,127.2,45.2,122.7,39.7,122.7z"/>
	</g>
	<rect x="206.9" y="40.1" class="st24" width="111.6" height="30.9"/>
	<text transform="matrix(1 0 0 1 247.7414 59.053)" class="st25 st29">Cluster</text>
	<g>
		
			<ellipse transform="matrix(0.2298 -0.9732 0.9732 0.2298 -91.9466 203.9148)" class="st49" cx="82.9" cy="160" rx="14.7" ry="14.7"/>
	</g>
	<text transform="matrix(1 0 0 1 78.0554 164.7752)" class="st50 st51 st52">3</text>
	<text transform="matrix(1 0 0 1 56.7966 47.5381)" class="st27 st28 st29">Deploy the operator</text>
	<g>
		
			<ellipse transform="matrix(0.1602 -0.9871 0.9871 0.1602 -49.5982 183.1859)" class="st49" cx="82.9" cy="120.7" rx="14.7" ry="14.7"/>
	</g>
	<text transform="matrix(1 0 0 1 78.0553 125.4693)" class="st50 st51 st52">2</text>
	<rect x="546.8" y="45.5" class="st34" width="88.2" height="26"/>
	<g>
		<path class="st35" d="M566.4,53v-2.4h-14.6v6.1h5.5v11h11.6V53H566.4z M553,55.4v-3.7h12.2V53h-7.9v2.4H553z M567.6,66.4h-9.1
			V54.2h9.1V66.4z"/>
		<rect x="559.7" y="56" class="st35" width="1.2" height="1.2"/>
		<rect x="562.1" y="56" class="st35" width="4.3" height="1.2"/>
		<rect x="559.7" y="59.7" class="st35" width="1.2" height="1.2"/>
		<rect x="562.1" y="59.7" class="st35" width="4.3" height="1.2"/>
		<rect x="559.7" y="63.3" class="st35" width="1.2" height="1.2"/>
		<rect x="562.1" y="63.3" class="st35" width="4.3" height="1.2"/>
	</g>
	<text transform="matrix(1 0 0 1 577.5191 64.4327)" class="st25 st29">Profile</text>
	<g>
		<path d="M217.6,50.8c0,0.3,0.2,0.6,0.5,0.9l8,5.5c0.7,0.5,1.8,0.5,2.5,0l8-5.5c0.3-0.2,0.5-0.5,0.5-0.9v9.5c0,0.3-0.2,0.6-0.5,0.9
			l-8,5.5c-0.7,0.5-1.8,0.5-2.5,0l-8-5.5c-0.3-0.2-0.5-0.5-0.5-0.9V50.8z"/>
		<path class="st53" d="M217.6,50.8c0,0.3,0.2,0.6,0.5,0.9l5.7,3.9l2.3-1.6c0.7-0.5,1.8-0.5,2.5,0l2.3,1.6l5.7-3.9
			c0.3-0.2,0.5-0.5,0.5-0.9v0c0-0.3-0.2-0.6-0.5-0.9l-8-5.5c-0.7-0.5-1.8-0.5-2.5,0l-8,5.5C217.8,50.2,217.6,50.5,217.6,50.8v9.4
			V50.8z"/>
	</g>
	<g>
		<g>
			<line class="st47" x1="414.4" y1="58.2" x2="349.8" y2="58.2"/>
			<g>
				<polygon class="st31" points="413.3,54.4 419.8,58.2 413.3,61.9 				"/>
			</g>
		</g>
	</g>
	<line class="st32" x1="349.8" y1="58.2" x2="349.8" y2="121.6"/>
	<line class="st32" x1="39.7" y1="53.4" x2="39.7" y2="112.9"/>
	<g>
		<g>
			<line class="st47" x1="174.9" y1="53.4" x2="39.5" y2="53.4"/>
			<g>
				<polygon class="st31" points="173.8,49.7 180.3,53.4 173.8,57.2 				"/>
			</g>
		</g>
	</g>
	<g>
		
			<ellipse transform="matrix(0.1602 -0.9871 0.9871 0.1602 -21.0803 85.1287)" class="st49" cx="39.5" cy="55" rx="14.7" ry="14.7"/>
	</g>
	<text transform="matrix(1 0 0 1 34.6889 59.6813)" class="st50 st51 st52">1</text>
	<text transform="matrix(1 0 0 1 56.7973 221.5318)" class="st27 st28 st29">Schedule a scan and view results</text>
	<line class="st32" x1="39.5" y1="168.7" x2="39.5" y2="228.2"/>
	<g>
		<g>
			<line class="st47" x1="414.4" y1="228.2" x2="39.5" y2="228.2"/>
			<g>
				<polygon class="st31" points="413.3,224.4 419.8,228.2 413.3,231.9 				"/>
			</g>
		</g>
	</g>
	<g>
		
			<ellipse transform="matrix(0.1602 -0.9871 0.9871 0.1602 -191.8646 230.4326)" class="st49" cx="39.5" cy="228" rx="14.7" ry="14.7"/>
	</g>
	<text transform="matrix(1 0 0 1 34.6889 232.6997)" class="st50 st51 st52">4</text>
	<rect x="553.5" y="98.4" class="st34" width="96.3" height="26"/>
	<g>
		<text transform="matrix(1 0 0 1 580.1817 114.9247)" class="st25 st29">Credentials</text>
	</g>
	<g>
		<path class="st54" d="M572.3,108.2c0.2,0.1,0.3,0.2,0.4,0.3c-0.3,0.2-0.6,0.4-0.8,0.7c-0.1,0-0.1-0.1-0.2-0.1
			c-1.1-0.7-2.5-0.5-3.1,0.4c-0.6,0.9-0.3,2.3,0.8,3c0.6,0.4,1.3,0.5,1.9,0.4c0.2,0.4,0.4,0.7,0.7,0.9c-0.8,0.3-1.8,0.2-2.6-0.2
			l-2.8,4.3l1.2,0.8l-1.5,2.2l-1.2-0.8l-0.3,0.5l-1.1-0.7l4.6-7c-1.2-1.1-1.6-2.9-0.7-4.1C568.6,107.4,570.6,107.1,572.3,108.2
			L572.3,108.2z M574.4,108.2c0.6-0.1,1.2,0,1.7,0.1c0.2-0.5,0.3-1.1,0.2-1.7c-0.2-2.2-2.2-3.9-4.4-3.7c-0.9,0.1-1.8,0.5-2.4,1.1
			c-0.3-0.2-0.5-0.3-0.8-0.4c0.8-0.8,1.9-1.4,3.1-1.5c2.7-0.3,5.1,1.7,5.4,4.4c0.1,0.8,0,1.5-0.3,2.1c0.8,0.5,1.3,1.2,1.4,2.1
			c0.2,1.5-0.9,2.9-2.5,3.4l0.7,5.1l1.4-0.2l0.3,2.6l-1.4,0.2l0.1,0.6l-1.3,0.2l-1.1-8.3c-1.7,0-3.1-1.1-3.3-2.6
			C571.1,110.1,572.5,108.5,574.4,108.2L574.4,108.2z M574.6,109.3c0.4,0,0.7,0,1.1,0.1c-0.4,0.6-1,1.1-1.7,1.4
			c0-0.3-0.1-0.6-0.2-0.8c-0.2,0.1-0.3,0.2-0.5,0.4c-0.2,0.2-0.3,0.5-0.4,0.8l0,0l0,0l0,0l0,0l0,0l0,0l0,0l0,0l0,0l0,0l0,0v0l0,0
			l0,0v0l0,0l0,0l0,0l0,0l0,0v0l0,0l0,0c0,0,0,0,0,0.1l0,0l0,0v0l0,0l0,0l0,0l0,0l0,0l0,0v0v0l0,0v0v0v0l0,0l0,0v0v0v0l0,0l0,0l0,0
			l0,0l0,0v0l0,0l0,0l0,0l0,0v0l0,0c0,0,0,0,0,0l0,0l0,0v0l0,0l0,0l0,0l0,0l0,0l0,0v0l0,0l0,0l0,0l0,0l0,0l0,0l0,0l0,0h0l0,0l0,0
			l0,0l0,0l0,0l0,0l0,0l0,0l0,0l0,0l0,0l0,0c0,0,0,0,0,0.1l0,0l0,0l0,0l0,0l0,0l0,0c0.1,0.3,0.3,0.6,0.6,0.8
			c0.2-0.3,0.3-0.6,0.4-0.9c1-0.4,1.9-1.1,2.5-2c0.4,0.3,0.7,0.8,0.8,1.3c0.1,1.1-0.8,2.2-2.1,2.3c-1.3,0.2-2.4-0.6-2.6-1.7
			C572.4,110.5,573.3,109.4,574.6,109.3L574.6,109.3z M570.8,106.6c0.1,0.2,0.1,0.4,0.1,0.6c-0.4-0.1-0.7-0.1-1-0.1
			c0-0.1,0-0.2-0.1-0.3c-0.3-1.3-1.5-2-2.6-1.8c-1.1,0.3-1.7,1.5-1.4,2.8c0.2,0.7,0.6,1.2,1.1,1.5c-0.1,0.4-0.2,0.8-0.1,1.2
			c-0.8-0.3-1.4-1-1.8-1.9l-5,1.3l0.4,1.4l-2.6,0.7l-0.4-1.4l-0.6,0.1l-0.3-1.2l8.1-2.1c-0.1-1.7,0.8-3.2,2.2-3.5
			C568.6,103.5,570.4,104.7,570.8,106.6L570.8,106.6z M570.7,109c-0.2,0.5-0.5,0.9-0.9,1.3c0.4,0.3,0.8,0.5,1.3,0.7
			c0,0.3-0.1,0.6,0,0.9l0,0l0,0c-0.8-0.2-1.5-0.6-2.1-1.1c-0.1,0-0.2,0.1-0.2,0.1l0,0c0-0.1,0-0.2,0-0.3l0,0c0,0,0,0,0,0l0,0v0l0,0
			l0,0l0,0c0,0,0,0,0,0l0,0l0,0l0,0v0l0,0c0,0,0,0,0,0l0,0l0,0l0,0l0,0l0,0c0,0,0,0,0,0l0,0l0,0l0,0l0,0l0,0l0,0l0,0l0,0l0,0l0,0
			l0,0l0,0l0,0l0,0l0,0l0,0l0,0l0,0l0,0l0,0l0,0l0,0l0,0l0,0l0,0l0,0l0,0v0l0,0l0,0l0,0l0,0l0,0l0,0l0,0l0,0l0,0l0,0l0,0l0,0l0,0
			l0,0l0,0l0,0v0c0,0,0,0,0,0l0,0l0,0l0,0l0,0l0,0l0,0l0,0l0,0l0,0l0,0l0,0l0,0l0,0l0,0l0,0l0,0l0,0l0,0l0,0l0,0l0,0l0,0l0,0l0,0
			l0,0l0,0l0,0l0,0l0,0l0,0l0,0l0,0l0,0l0,0l0,0l0,0l0,0l0,0l0,0l0,0l0,0l0,0h0l0,0l0,0l0,0l0,0l0,0l0,0l0,0l0,0l0,0v0l0,0l0,0l0,0
			l0,0l0,0l0,0l0,0l0,0l0,0l0,0l0,0l0,0l0,0c0.3-0.3,0.6-0.5,1-0.6C570.2,108.9,570.5,108.9,570.7,109L570.7,109z M567.5,108.4
			c-0.1-0.3-0.1-0.6-0.2-0.9c-0.1-0.7,0-1.5,0.3-2.1c0.3,0,0.6,0.1,0.8,0.2c-0.2,0.6-0.3,1.2-0.3,1.9c0,0.1,0,0.2,0,0.3
			C568,107.9,567.7,108.1,567.5,108.4L567.5,108.4z"/>
	</g>
</g>
</svg>