<svg xmlns="http://www.w3.org/2000/svg" xmlns:xlink="http://www.w3.org/1999/xlink" width="790.1266" height="248.0037" viewBox="0 0 790.1266 248.0037"><defs><style>.cls-1,.cls-10,.cls-11,.cls-13,.cls-14,.cls-18,.cls-2,.cls-21,.cls-3,.cls-4,.cls-7{fill:none;}.cls-1,.cls-10,.cls-13,.cls-14,.cls-15,.cls-18,.cls-2,.cls-21,.cls-3,.cls-4,.cls-7{stroke:#000;}.cls-1,.cls-10,.cls-11,.cls-12,.cls-13,.cls-15,.cls-18,.cls-2,.cls-21,.cls-3,.cls-4,.cls-7{stroke-miterlimit:10;}.cls-1,.cls-2,.cls-7{stroke-width:1.1229px;}.cls-1,.cls-3{clip-rule:evenodd;}.cls-10,.cls-13,.cls-14,.cls-3,.cls-4{stroke-width:1.1172px;}.cls-5{clip-path:url(#clip-path);}.cls-6{clip-path:url(#clip-path-2);}.cls-10,.cls-19,.cls-7{fill-rule:evenodd;}.cls-8{clip-path:url(#clip-path-3);}.cls-9{clip-path:url(#clip-path-4);}.cls-11,.cls-12{stroke:#fff;stroke-width:1.1527px;}.cls-11,.cls-13{stroke-linecap:round;}.cls-14{stroke-linejoin:round;}.cls-15,.cls-20{fill:#fff;}.cls-15{stroke-width:1.1543px;}.cls-16{clip-path:url(#clip-path-5);}.cls-17{clip-path:url(#clip-path-6);}.cls-18{stroke-width:0.884px;}.cls-21{stroke-width:0.8394px;}</style><clipPath id="clip-path"><path class="cls-1" d="M597.2259,35.6405a4.2038,4.2038,0,1,1,4.192,3.89A3.9771,3.9771,0,0,1,597.2259,35.6405ZM588.702,37.456,584.65,40.8275l3.3537,5.187,4.8908-1.4264a15.0131,15.0131,0,0,0,4.0523,2.2045l1.1179,4.4089h6.7073l.9781-4.4089a13.1768,13.1768,0,0,0,4.0524-2.2045l4.8908,1.5561,3.4934-5.3167-4.0524-3.3715a7.4107,7.4107,0,0,0,.14-1.8155,7.41,7.41,0,0,0-.14-1.8154l4.0524-3.3715-3.4934-5.3167-4.7511,1.5561a15.0131,15.0131,0,0,0-4.0523-2.2045L604.7716,20.08h-6.7073l-.9781,4.4089a13.1768,13.1768,0,0,0-4.0524,2.2045l-4.8908-1.5561L584.65,30.4536l4.0524,3.3715a7.41,7.41,0,0,0-.14,1.8154A7.4107,7.4107,0,0,0,588.702,37.456Z"/></clipPath><clipPath id="clip-path-2"><rect class="cls-2" x="584.6496" y="20.0796" width="33.5366" height="31.1219"/></clipPath><clipPath id="clip-path-3"><path class="cls-3" d="M619.0461,56.4953A3.2238,3.2238,0,1,1,622.27,59.719,3.1662,3.1662,0,0,1,619.0461,56.4953ZM612.4911,58l-3.1163,2.7939,2.579,4.2984,3.7611-1.1821a11.3171,11.3171,0,0,0,3.1163,1.8269l.86,3.6536h5.1581l.7521-3.6536a9.9368,9.9368,0,0,0,3.1164-1.8269l3.761,1.29,2.6865-4.4059L632.0487,58a6.6058,6.6058,0,0,0,.1075-1.5044,6.6067,6.6067,0,0,0-.1075-1.5045l3.1163-2.7939-2.6865-4.4058-3.6536,1.2895a11.3143,11.3143,0,0,0-3.1163-1.8268l-.86-3.6537h-5.1581l-.7522,3.6537a9.9346,9.9346,0,0,0-3.1164,1.8268l-3.761-1.2895-2.6865,4.4058,3.1163,2.7939a6.6067,6.6067,0,0,0-.1075,1.5045A6.6058,6.6058,0,0,0,612.4911,58Z"/></clipPath><clipPath id="clip-path-4"><rect class="cls-4" x="609.3748" y="43.6001" width="25.7902" height="25.7902"/></clipPath><clipPath id="clip-path-5"><path class="cls-3" d="M638.52,38.7836a2.4313,2.4313,0,1,1,2.4312,2.4312A2.3879,2.3879,0,0,1,638.52,38.7836Zm-4.9436,1.1346-2.35,2.1071,1.945,3.2416,2.8365-.8914a8.5338,8.5338,0,0,0,2.35,1.3777l.6483,2.7554h3.89l.5672-2.7554a7.4952,7.4952,0,0,0,2.35-1.3777l2.8364.9725,2.0261-3.3227-2.35-2.1071a4.9806,4.9806,0,0,0,.0811-1.1346,4.98,4.98,0,0,0-.0811-1.1346l2.35-2.1071L648.65,32.2192l-2.7554.9725a8.537,8.537,0,0,0-2.35-1.3778l-.6483-2.7554h-3.89l-.5673,2.7554a7.4949,7.4949,0,0,0-2.35,1.3778l-2.8365-.9725-2.026,3.3227,2.35,2.1071a4.98,4.98,0,0,0-.0811,1.1346A4.9806,4.9806,0,0,0,633.5764,39.9182Z"/></clipPath><clipPath id="clip-path-6"><rect class="cls-4" x="631.2262" y="29.0585" width="19.4501" height="19.4501"/></clipPath></defs><g id="Text"><g class="cls-5"><g class="cls-6"><rect class="cls-2" x="577.6628" y="13.5959" width="47.5102" height="44.0894"/></g><rect class="cls-2" x="584.6496" y="20.0796" width="33.5366" height="31.1219"/></g><path class="cls-7" d="M597.2259,35.6405a4.2038,4.2038,0,1,1,4.192,3.89A3.9771,3.9771,0,0,1,597.2259,35.6405ZM588.702,37.456,584.65,40.8275l3.3537,5.187,4.8908-1.4264a15.0131,15.0131,0,0,0,4.0523,2.2045l1.1179,4.4089h6.7073l.9781-4.4089a13.1768,13.1768,0,0,0,4.0524-2.2045l4.8908,1.5561,3.4934-5.3167-4.0524-3.3715a7.4107,7.4107,0,0,0,.14-1.8155,7.41,7.41,0,0,0-.14-1.8154l4.0524-3.3715-3.4934-5.3167-4.7511,1.5561a15.0131,15.0131,0,0,0-4.0523-2.2045L604.7716,20.08h-6.7073l-.9781,4.4089a13.1768,13.1768,0,0,0-4.0524,2.2045l-4.8908-1.5561L584.65,30.4536l4.0524,3.3715a7.41,7.41,0,0,0-.14,1.8154A7.4107,7.4107,0,0,0,588.702,37.456Z"/><g class="cls-8"><g class="cls-9"><rect class="cls-4" x="604.0018" y="38.2272" width="36.5362" height="36.5362"/></g><rect class="cls-4" x="609.3748" y="43.6001" width="25.7902" height="25.7902"/></g><path class="cls-10" d="M619.0461,56.4953A3.2238,3.2238,0,1,1,622.27,59.719,3.1662,3.1662,0,0,1,619.0461,56.4953ZM612.4911,58l-3.1163,2.7939,2.579,4.2984,3.7611-1.1821a11.3171,11.3171,0,0,0,3.1163,1.8269l.86,3.6536h5.1581l.7521-3.6536a9.9368,9.9368,0,0,0,3.1164-1.8269l3.761,1.29,2.6865-4.4059L632.0487,58a6.6058,6.6058,0,0,0,.1075-1.5044,6.6067,6.6067,0,0,0-.1075-1.5045l3.1163-2.7939-2.6865-4.4058-3.6536,1.2895a11.3143,11.3143,0,0,0-3.1163-1.8268l-.86-3.6537h-5.1581l-.7522,3.6537a9.9346,9.9346,0,0,0-3.1164,1.8268l-3.761-1.2895-2.6865,4.4058,3.1163,2.7939a6.6067,6.6067,0,0,0-.1075,1.5045A6.6058,6.6058,0,0,0,612.4911,58Z"/><circle cx="122.456" cy="65.3546" r="27.6644"/><path class="cls-11" d="M130.43,55.9715a7.45,7.45,0,1,1-7.45-7.45,7.45,7.45,0,0,1,7.45,7.45"/><path class="cls-11" d="M108.4509,81.802a14.9044,14.9044,0,0,1,29.1966-.1868"/><circle class="cls-11" cx="123.0692" cy="65.3546" r="22.0079"/><circle class="cls-12" cx="108.4509" cy="81.802" r="1.6957" transform="translate(-27.2701 76.0589) rotate(-34.6034)"/><path d="M110.8117,97.7443v5.8008a3.4727,3.4727,0,0,0,.4961,2.0341,2.542,2.542,0,0,0,3.4854,0,3.4727,3.4727,0,0,0,.4961-2.0341V97.7443h1.1269v5.5234a7.5923,7.5923,0,0,1-.1816,1.7695,3.0893,3.0893,0,0,1-.583,1.2466,2.3874,2.3874,0,0,1-1.0528.7373,4.5789,4.5789,0,0,1-1.5878.2412,4.4621,4.4621,0,0,1-1.5752-.2412,2.311,2.311,0,0,1-1.0264-.7373,3.0762,3.0762,0,0,1-.5557-1.2466,8.167,8.167,0,0,1-.1679-1.7695V97.7443Z"/><path d="M120.8137,107.2623a3.2286,3.2286,0,0,1-1.6152-.3686,3.6512,3.6512,0,0,1-1.12-.9854l.7647-.6167a3.0033,3.0033,0,0,0,.8974.7847,2.3456,2.3456,0,0,0,1.1534.2744,1.7033,1.7033,0,0,0,1.0654-.2949,1.07,1.07,0,0,0,.1211-1.5215,1.5971,1.5971,0,0,0-.9453-.3955l-.55-.0806a4.585,4.585,0,0,1-.8848-.2075,2.4505,2.4505,0,0,1-.7031-.3755,1.6079,1.6079,0,0,1-.47-.583,1.9081,1.9081,0,0,1-.167-.8315,1.9852,1.9852,0,0,1,.1875-.8911,1.7956,1.7956,0,0,1,.5156-.6372,2.2593,2.2593,0,0,1,.7842-.3819,3.6261,3.6261,0,0,1,.9785-.1274,3.06,3.06,0,0,1,1.415.2949,3.1727,3.1727,0,0,1,.999.8179l-.7109.6435a2.1321,2.1321,0,0,0-.67-.583,2.1593,2.1593,0,0,0-1.1133-.2617,1.5347,1.5347,0,0,0-1.0117.2881.9714.9714,0,0,0-.3418.7847.8194.8194,0,0,0,.3418.7373,2.5459,2.5459,0,0,0,.9853.3349l.5362.0806a2.8792,2.8792,0,0,1,1.6357.6636,1.7459,1.7459,0,0,1,.4824,1.28,1.9612,1.9612,0,0,1-.6836,1.5821A2.8236,2.8236,0,0,1,120.8137,107.2623Z"/><path d="M127.8645,107.2623a3.109,3.109,0,0,1-1.28-.2544,2.7587,2.7587,0,0,1-.9785-.7309,3.35,3.35,0,0,1-.63-1.1392,5.1276,5.1276,0,0,1,0-2.9829,3.3482,3.3482,0,0,1,.63-1.1465,2.7632,2.7632,0,0,1,.9785-.73,3.1011,3.1011,0,0,1,1.28-.2549,2.9416,2.9416,0,0,1,1.247.2539,2.7716,2.7716,0,0,1,.9385.7017,3.1337,3.1337,0,0,1,.5967,1.062,4.2117,4.2117,0,0,1,.207,1.3491v.5078H125.88v.3218a2.3445,2.3445,0,0,0,.1416.8242,1.963,1.963,0,0,0,.4014.6641,1.8449,1.8449,0,0,0,.6435.4423,2.2157,2.2157,0,0,0,.8652.1607,2.1089,2.1089,0,0,0,1.1465-.3081,2.02,2.02,0,0,0,.7569-.8853l.7646.5532a2.6714,2.6714,0,0,1-1.0459,1.1539A3.1569,3.1569,0,0,1,127.8645,107.2623Zm0-6.3408a2.0419,2.0419,0,0,0-.8047.1533,1.8149,1.8149,0,0,0-.6231.4327,2.0484,2.0484,0,0,0-.4091.66,2.2961,2.2961,0,0,0-.1475.833v.0933h3.8213v-.147a2.1053,2.1053,0,0,0-.5029-1.4721A1.716,1.716,0,0,0,127.8645,100.9215Z"/><path d="M132.6242,107.1017v-6.9175h1.0723v1.2735h.0674a2.0914,2.0914,0,0,1,.67-.8848,2.0606,2.0606,0,0,1,1.3272-.3887h.416v1.0723h-.63a2.421,2.421,0,0,0-1.3613.3286.9686.9686,0,0,0-.4893.8242v4.6924Z"/><line class="cls-13" x1="150.1204" y1="68.1131" x2="181.2943" y2="68.1131"/><polygon points="178.849 76.469 193.32 68.113 178.849 59.757 178.849 76.469"/><path d="M229.2053,198.3073a3.3858,3.3858,0,0,1-2.7754-1.2129,5.54,5.54,0,0,1-.9922-3.5728,5.7724,5.7724,0,0,1,.9922-3.6264,3.3243,3.3243,0,0,1,2.7754-1.2671,3.2744,3.2744,0,0,1,3.2178,2.0376l-.9121.55a2.5946,2.5946,0,0,0-.8584-1.16,2.3331,2.3331,0,0,0-1.4473-.4355,2.4581,2.4581,0,0,0-1.0791.2285,2.2254,2.2254,0,0,0-.8047.6528,3.0489,3.0489,0,0,0-.5029,1.0088,4.5878,4.5878,0,0,0-.1739,1.3115v1.3994a3.493,3.493,0,0,0,.67,2.2735,2.3034,2.3034,0,0,0,1.8906.8208,2.3912,2.3912,0,0,0,1.501-.4629,2.6631,2.6631,0,0,0,.8847-1.2266l.8985.563a3.5982,3.5982,0,0,1-1.2735,1.5552A3.501,3.501,0,0,1,229.2053,198.3073Z"/><path d="M234.1252,198.1466v-6.9175h1.0723v1.2735h.0674a2.0914,2.0914,0,0,1,.67-.8848,2.06,2.06,0,0,1,1.3271-.3887h.416v1.0723h-.63a2.4216,2.4216,0,0,0-1.3614.3286.9689.9689,0,0,0-.4892.8242v4.6924Z"/><path d="M241.5793,198.3073a3.111,3.111,0,0,1-1.28-.2544,2.7619,2.7619,0,0,1-.9785-.731,3.3517,3.3517,0,0,1-.63-1.1391,5.13,5.13,0,0,1,0-2.983,3.3494,3.3494,0,0,1,.63-1.1464,2.7653,2.7653,0,0,1,.9785-.7305,3.103,3.103,0,0,1,1.28-.2549,2.9418,2.9418,0,0,1,1.2471.2539,2.7716,2.7716,0,0,1,.9385.7017,3.1335,3.1335,0,0,1,.5966,1.062,4.2125,4.2125,0,0,1,.2071,1.3491v.5078h-4.9737v.3218a2.3445,2.3445,0,0,0,.1416.8242,1.9662,1.9662,0,0,0,.4014.6641,1.8469,1.8469,0,0,0,.6436.4424,2.2168,2.2168,0,0,0,.8652.1606,2.1083,2.1083,0,0,0,1.1465-.3081,2.0206,2.0206,0,0,0,.7568-.8853l.7647.5533a2.673,2.673,0,0,1-1.0459,1.1538A3.1564,3.1564,0,0,1,241.5793,198.3073Zm0-6.3409a2.0405,2.0405,0,0,0-.8047.1534,1.8129,1.8129,0,0,0-.623.4326,2.0469,2.0469,0,0,0-.4092.66,2.2966,2.2966,0,0,0-.1475.8331v.0932h3.8213v-.147a2.105,2.105,0,0,0-.5029-1.4721A1.716,1.716,0,0,0,241.5793,191.9664Z"/><path d="M250.7619,197.0333h-.0537a2.1109,2.1109,0,0,1-2.0244,1.274,2.6327,2.6327,0,0,1-1.166-.2544,2.5371,2.5371,0,0,1-.8916-.7242,3.3121,3.3121,0,0,1-.5635-1.14,5.8984,5.8984,0,0,1,0-3.0029,3.3216,3.3216,0,0,1,.5635-1.14,2.54,2.54,0,0,1,.8916-.7236,2.6261,2.6261,0,0,1,1.166-.2549,2.3506,2.3506,0,0,1,1.24.312,1.9466,1.9466,0,0,1,.7842.9624h.0537v-4.1167h1.0723v9.9209h-1.0723Zm-1.7832.3223a2.4852,2.4852,0,0,0,.69-.0942,1.7335,1.7335,0,0,0,.57-.2764,1.3561,1.3561,0,0,0,.3818-.4443,1.2519,1.2519,0,0,0,.1406-.6v-2.5874a1.0671,1.0671,0,0,0-.1406-.5323,1.34,1.34,0,0,0-.3818-.4243,1.9378,1.9378,0,0,0-.57-.2759,2.334,2.334,0,0,0-.69-.101,1.8473,1.8473,0,0,0-1.4345.5722,2.1414,2.1414,0,0,0-.5225,1.5025V195.28a2.1415,2.1415,0,0,0,.5225,1.5029A1.847,1.847,0,0,0,248.9787,197.3556Z"/><path d="M256.7141,198.3073a3.1106,3.1106,0,0,1-1.28-.2544,2.76,2.76,0,0,1-.9785-.731,3.35,3.35,0,0,1-.63-1.1391,5.1279,5.1279,0,0,1,0-2.983,3.3477,3.3477,0,0,1,.63-1.1464,2.7635,2.7635,0,0,1,.9785-.7305,3.1027,3.1027,0,0,1,1.28-.2549,2.9413,2.9413,0,0,1,1.247.2539,2.77,2.77,0,0,1,.9385.7017,3.1337,3.1337,0,0,1,.5967,1.062,4.2125,4.2125,0,0,1,.207,1.3491v.5078H254.73v.3218a2.3445,2.3445,0,0,0,.1416.8242,1.9646,1.9646,0,0,0,.4014.6641,1.8465,1.8465,0,0,0,.6435.4424,2.2176,2.2176,0,0,0,.8653.1606,2.1077,2.1077,0,0,0,1.1464-.3081,2.02,2.02,0,0,0,.7569-.8853l.7646.5533a2.6718,2.6718,0,0,1-1.0459,1.1538A3.1561,3.1561,0,0,1,256.7141,198.3073Zm0-6.3409a2.0405,2.0405,0,0,0-.8047.1534,1.8133,1.8133,0,0,0-.6231.4326,2.0484,2.0484,0,0,0-.4091.66,2.2966,2.2966,0,0,0-.1475.8331v.0932h3.8213v-.147a2.1055,2.1055,0,0,0-.5029-1.4721A1.716,1.716,0,0,0,256.7141,191.9664Z"/><path d="M261.4738,198.1466v-6.9175h1.0723v1.1133H262.6a2.2634,2.2634,0,0,1,.7168-.9292,2.0276,2.0276,0,0,1,1.24-.3452,2.1732,2.1732,0,0,1,1.6963.69,2.8085,2.8085,0,0,1,.6231,1.9507v4.4375h-1.0723v-4.2588q0-1.8676-1.5683-1.8676a2.3964,2.3964,0,0,0-.6231.0805,1.8031,1.8031,0,0,0-.543.2417,1.1962,1.1962,0,0,0-.3828.41,1.1693,1.1693,0,0,0-.1406.5845v4.81Z"/><path d="M270.6164,198.1466a1.1,1.1,0,0,1-.8515-.3144,1.1677,1.1677,0,0,1-.2881-.8228v-4.8286h-1.14v-.9517h.6436a.6276.6276,0,0,0,.4756-.1411.73.73,0,0,0,.1279-.4892v-1.2871h.9648v1.9174h1.5157v.9517H270.549v5.0142h1.4082v.9516Z"/><path d="M274.33,189.6066a.6552.6552,0,0,1-.5029-.1675.618.618,0,0,1-.1543-.4355v-.1744a.6188.6188,0,0,1,.1543-.4355.8367.8367,0,0,1,1.0058,0,.6188.6188,0,0,1,.1543.4355v.1744a.618.618,0,0,1-.1543.4355A.6566.6566,0,0,1,274.33,189.6066Zm-.5361,1.6225h1.0722v6.9175h-1.0722Z"/><path d="M282.1731,198.1466a1.0546,1.0546,0,0,1-.8653-.3218,1.5991,1.5991,0,0,1-.3281-.8042h-.0674a1.7875,1.7875,0,0,1-.75.9654,2.3354,2.3354,0,0,1-1.2471.3213,2.4227,2.4227,0,0,1-1.7089-.563,1.9754,1.9754,0,0,1-.61-1.5283,1.7465,1.7465,0,0,1,.7168-1.5015,3.8167,3.8167,0,0,1,2.2324-.523h1.3672v-.6836a1.4969,1.4969,0,0,0-.4013-1.1259,1.7168,1.7168,0,0,0-1.2334-.3887,1.8571,1.8571,0,0,0-1.0528.2812,2.324,2.324,0,0,0-.7041.751l-.6435-.6035a2.4487,2.4487,0,0,1,.8984-.9585,2.83,2.83,0,0,1,1.5557-.3955,2.86,2.86,0,0,1,1.957.6157,2.1642,2.1642,0,0,1,.6973,1.7119v3.7994h.791v.9516Zm-3.084-.751a2.7186,2.7186,0,0,0,.7383-.0937,1.8146,1.8146,0,0,0,.5761-.2681,1.313,1.313,0,0,0,.375-.4023.9543.9543,0,0,0,.1338-.4956v-1.14h-1.4209a2.592,2.592,0,0,0-1.3467.2681.8648.8648,0,0,0-.4228.7773v.2818a.9375.9375,0,0,0,.3691.791A1.6049,1.6049,0,0,0,279.0891,197.3956Z"/><path d="M285.4445,198.1466a1.097,1.097,0,0,1-.8515-.3149,1.1355,1.1355,0,0,1-.2881-.7979v-8.8081h1.0723v8.9693h1.0185v.9516Z"/><rect class="cls-4" x="206.1143" y="133.1819" width="100.3846" height="100.3846" rx="6.5935"/><rect class="cls-4" x="213.162" y="140.1719" width="7.1785" height="7.1785" rx="0.4715"/><rect class="cls-4" x="227.1106" y="140.1719" width="7.1785" height="7.1785" rx="0.4715"/><rect class="cls-4" x="240.7845" y="140.1719" width="7.1785" height="7.1785" rx="0.4715"/><line class="cls-14" x1="206.4558" y1="153.7837" x2="306.8404" y2="153.7837"/><line class="cls-13" x1="237.5906" y1="164.4429" x2="264.9386" y2="164.4429"/><line class="cls-13" x1="276.9975" y1="164.4429" x2="268.8147" y2="164.4429"/><line class="cls-13" x1="276.9975" y1="172.7006" x2="249.7573" y2="172.7006"/><line class="cls-13" x1="245.7735" y1="172.7006" x2="237.5906" y2="172.7006"/><line class="cls-13" x1="264.9386" y1="214.0784" x2="237.5906" y2="214.0784"/><line class="cls-13" x1="276.9975" y1="214.0784" x2="268.2763" y2="214.0784"/><line class="cls-13" x1="276.9975" y1="223.3379" x2="249.7573" y2="223.3379"/><line class="cls-13" x1="245.7735" y1="223.3379" x2="237.5906" y2="223.3379"/><rect class="cls-4" x="216.5767" y="182.7467" width="80.1243" height="21.9645" rx="1.8792"/><path d="M654.6235,18.7252H575.5593c-3.97,0-7.1877,2.6013-7.1877,5.81V41.9661h7.1877V24.5354h79.0642V65.207H604.31v5.81h7.1877v11.62H604.31v5.81h32.3445v-5.81H618.6852v-11.62h35.9383c3.97,0,7.1877-2.6013,7.1877-5.81V24.5354C661.8112,21.3265,658.5931,18.7252,654.6235,18.7252Z"/><line class="cls-13" x1="306.075" y1="184.1647" x2="329.4674" y2="184.1647"/><polygon points="327.023 192.521 341.493 184.165 327.023 175.809 327.023 192.521"/><rect class="cls-15" x="520.381" y="45.513" width="80.1243" height="21.9645" rx="1.8792"/><path d="M526.0705,60.9127V51.5553h3.7266a2.5375,2.5375,0,0,1,1.9375.7173,3.188,3.188,0,0,1,0,3.9277,2.5357,2.5357,0,0,1-1.9375.7173h-2.6006v3.9951Zm1.126-4.9873h2.6006a1.4508,1.4508,0,0,0,1.039-.3486,1.2977,1.2977,0,0,0,.3692-.9917v-.6973a1.299,1.299,0,0,0-.3692-.9922,1.453,1.453,0,0,0-1.039-.3486h-2.6006Z"/><path d="M538.9807,60.9127a1.0549,1.0549,0,0,1-.8653-.3217,1.6,1.6,0,0,1-.3281-.8042H537.72a1.7876,1.7876,0,0,1-.75.9653,2.3353,2.3353,0,0,1-1.247.3213,2.423,2.423,0,0,1-1.709-.563,1.9758,1.9758,0,0,1-.61-1.5283,1.7465,1.7465,0,0,1,.7168-1.5015,3.8167,3.8167,0,0,1,2.2324-.5229H537.72v-.6836a1.4973,1.4973,0,0,0-.4013-1.126,1.7168,1.7168,0,0,0-1.2334-.3887,1.8572,1.8572,0,0,0-1.0528.2813,2.3247,2.3247,0,0,0-.7041.7509l-.6435-.6035a2.4494,2.4494,0,0,1,.8984-.9585,2.8306,2.8306,0,0,1,1.5557-.3955,2.86,2.86,0,0,1,1.957.6157,2.164,2.164,0,0,1,.6973,1.712v3.7993h.791v.9516Zm-3.084-.7509a2.7185,2.7185,0,0,0,.7383-.0938,1.8124,1.8124,0,0,0,.5761-.2681,1.313,1.313,0,0,0,.375-.4023.9543.9543,0,0,0,.1338-.4956v-1.14H536.299a2.5913,2.5913,0,0,0-1.3466.2681.8647.8647,0,0,0-.4229.7774V59.09a.9378.9378,0,0,0,.3691.791A1.6051,1.6051,0,0,0,535.8967,60.1618Z"/><path d="M543.1906,61.0734a3.2289,3.2289,0,0,1-1.6152-.3687,3.6518,3.6518,0,0,1-1.12-.9853l.7646-.6167a3.0034,3.0034,0,0,0,.8975.7846,2.3452,2.3452,0,0,0,1.1533.2745,1.7031,1.7031,0,0,0,1.0654-.295,1.07,1.07,0,0,0,.1211-1.5214,1.5968,1.5968,0,0,0-.9453-.3956l-.55-.0805a4.597,4.597,0,0,1-.8847-.2075,2.456,2.456,0,0,1-.7032-.3755,1.61,1.61,0,0,1-.47-.583,1.91,1.91,0,0,1-.167-.8316,1.9855,1.9855,0,0,1,.1875-.8911,1.7967,1.7967,0,0,1,.5156-.6372,2.26,2.26,0,0,1,.7842-.3818,3.6227,3.6227,0,0,1,.9785-.1275,3.062,3.062,0,0,1,1.4151.2949,3.1741,3.1741,0,0,1,.999.8179l-.7109.6436a2.13,2.13,0,0,0-.67-.583,2.1582,2.1582,0,0,0-1.1132-.2618,1.5352,1.5352,0,0,0-1.0118.2881.9714.9714,0,0,0-.3418.7847.8194.8194,0,0,0,.3418.7373,2.5453,2.5453,0,0,0,.9854.335l.5361.0805a2.8793,2.8793,0,0,1,1.6358.6636,1.7462,1.7462,0,0,1,.4824,1.28,1.961,1.961,0,0,1-.6836,1.582A2.8234,2.8234,0,0,1,543.1906,61.0734Z"/><path d="M549.6389,61.0734a3.2293,3.2293,0,0,1-1.6153-.3687,3.6529,3.6529,0,0,1-1.12-.9853l.7647-.6167a3.0043,3.0043,0,0,0,.8974.7846,2.3456,2.3456,0,0,0,1.1534.2745,1.7033,1.7033,0,0,0,1.0654-.295,1.07,1.07,0,0,0,.1211-1.5214,1.5971,1.5971,0,0,0-.9453-.3956l-.55-.0805a4.6,4.6,0,0,1-.8848-.2075,2.4541,2.4541,0,0,1-.7031-.3755,1.61,1.61,0,0,1-.47-.583,1.91,1.91,0,0,1-.1669-.8316,1.9855,1.9855,0,0,1,.1875-.8911,1.7956,1.7956,0,0,1,.5156-.6372,2.2583,2.2583,0,0,1,.7842-.3818,3.6221,3.6221,0,0,1,.9785-.1275,3.0615,3.0615,0,0,1,1.415.2949,3.1741,3.1741,0,0,1,.999.8179l-.7109.6436a2.13,2.13,0,0,0-.67-.583,2.1584,2.1584,0,0,0-1.1133-.2618,1.5347,1.5347,0,0,0-1.0117.2881.9714.9714,0,0,0-.3418.7847.8194.8194,0,0,0,.3418.7373,2.5441,2.5441,0,0,0,.9853.335l.5362.0805a2.8792,2.8792,0,0,1,1.6357.6636,1.7462,1.7462,0,0,1,.4824,1.28,1.961,1.961,0,0,1-.6836,1.582A2.8231,2.8231,0,0,1,549.6389,61.0734Z"/><path d="M554.0891,53.9953h1.0722v1.1132h.0538a1.947,1.947,0,0,1,.7841-.9624,2.3535,2.3535,0,0,1,1.24-.312,2.6264,2.6264,0,0,1,1.166.2549,2.54,2.54,0,0,1,.8916.7236,3.3216,3.3216,0,0,1,.5635,1.14,5.8984,5.8984,0,0,1,0,3.0029,3.3126,3.3126,0,0,1-.5635,1.14,2.5357,2.5357,0,0,1-.8916.7241,2.633,2.633,0,0,1-1.166.2544A2.0946,2.0946,0,0,1,555.2151,59.8h-.0538v3.7944h-1.0722Zm2.8554,6.1264a1.8474,1.8474,0,0,0,1.4346-.5722,2.1424,2.1424,0,0,0,.5225-1.503V56.861a2.1418,2.1418,0,0,0-.5225-1.5025,1.8474,1.8474,0,0,0-1.4346-.5722,2.3366,2.3366,0,0,0-.69.101,1.9185,1.9185,0,0,0-.5693.2759,1.33,1.33,0,0,0-.3828.4243,1.0673,1.0673,0,0,0-.1407.5323v2.5874a1.2519,1.2519,0,0,0,.1407.6,1.3463,1.3463,0,0,0,.3828.4443,1.7177,1.7177,0,0,0,.5693.2764A2.4845,2.4845,0,0,0,556.9445,60.1217Z"/><path d="M561.8645,50.9918h1.0722v4.1167h.0537a2.2642,2.2642,0,0,1,.7168-.9292,2.0283,2.0283,0,0,1,1.24-.3452,2.1735,2.1735,0,0,1,1.6963.69,2.8089,2.8089,0,0,1,.623,1.9507v4.4375h-1.0723V56.6539q0-1.8677-1.5683-1.8676a2.3964,2.3964,0,0,0-.6231.0805,1.8025,1.8025,0,0,0-.5429.2417,1.1952,1.1952,0,0,0-.3828.41,1.1683,1.1683,0,0,0-.1407.5845v4.81h-1.0722Z"/><path d="M569.48,60.9127V53.9953h1.0723v1.2734h.0673a2.0917,2.0917,0,0,1,.67-.8848,2.06,2.06,0,0,1,1.3271-.3886h.416v1.0722h-.63a2.4216,2.4216,0,0,0-1.3614.3286.969.969,0,0,0-.4892.8243v4.6923Z"/><path d="M579.3733,60.9127a1.0549,1.0549,0,0,1-.8653-.3217,1.6,1.6,0,0,1-.3281-.8042h-.0674a1.7886,1.7886,0,0,1-.75.9653,2.3354,2.3354,0,0,1-1.2471.3213,2.4227,2.4227,0,0,1-1.7089-.563,1.9754,1.9754,0,0,1-.61-1.5283,1.7465,1.7465,0,0,1,.7168-1.5015,3.8167,3.8167,0,0,1,2.2324-.5229h1.3672v-.6836a1.497,1.497,0,0,0-.4014-1.126,1.7165,1.7165,0,0,0-1.2334-.3887,1.8568,1.8568,0,0,0-1.0527.2813,2.3247,2.3247,0,0,0-.7041.7509l-.6435-.6035a2.4487,2.4487,0,0,1,.8984-.9585,2.8306,2.8306,0,0,1,1.5557-.3955,2.8606,2.8606,0,0,1,1.957.6157,2.1643,2.1643,0,0,1,.6973,1.712v3.7993h.791v.9516Zm-3.084-.7509a2.7185,2.7185,0,0,0,.7383-.0938,1.8124,1.8124,0,0,0,.5761-.2681,1.313,1.313,0,0,0,.375-.4023.9543.9543,0,0,0,.1338-.4956v-1.14h-1.4209a2.592,2.592,0,0,0-1.3467.2681.8648.8648,0,0,0-.4228.7774V59.09a.9375.9375,0,0,0,.3691.791A1.6047,1.6047,0,0,0,576.2893,60.1618Z"/><path d="M583.5832,61.0734a3.2289,3.2289,0,0,1-1.6152-.3687,3.6518,3.6518,0,0,1-1.12-.9853l.7646-.6167a3.0034,3.0034,0,0,0,.8975.7846,2.3449,2.3449,0,0,0,1.1533.2745,1.7033,1.7033,0,0,0,1.0654-.295,1.07,1.07,0,0,0,.1211-1.5214,1.5968,1.5968,0,0,0-.9453-.3956l-.55-.0805a4.6,4.6,0,0,1-.8848-.2075,2.4567,2.4567,0,0,1-.7031-.3755,1.6088,1.6088,0,0,1-.47-.583,1.91,1.91,0,0,1-.167-.8316,1.9855,1.9855,0,0,1,.1875-.8911,1.7967,1.7967,0,0,1,.5156-.6372,2.26,2.26,0,0,1,.7842-.3818,3.6227,3.6227,0,0,1,.9785-.1275,3.062,3.062,0,0,1,1.4151.2949,3.1763,3.1763,0,0,1,.999.8179l-.711.6436a2.13,2.13,0,0,0-.67-.583,2.1584,2.1584,0,0,0-1.1133-.2618,1.5351,1.5351,0,0,0-1.0117.2881.9714.9714,0,0,0-.3418.7847.8194.8194,0,0,0,.3418.7373,2.5453,2.5453,0,0,0,.9854.335l.5361.0805a2.8786,2.8786,0,0,1,1.6357.6636,1.7462,1.7462,0,0,1,.4825,1.28,1.9613,1.9613,0,0,1-.6836,1.582A2.8236,2.8236,0,0,1,583.5832,61.0734Z"/><path d="M590.634,61.0734a3.111,3.111,0,0,1-1.28-.2544,2.76,2.76,0,0,1-.9785-.731,3.35,3.35,0,0,1-.63-1.1391,5.1276,5.1276,0,0,1,0-2.9829,3.3482,3.3482,0,0,1,.63-1.1465,2.7644,2.7644,0,0,1,.9785-.73,3.103,3.103,0,0,1,1.28-.2549,2.9421,2.9421,0,0,1,1.2471.2539,2.7716,2.7716,0,0,1,.9384.7017,3.1321,3.1321,0,0,1,.5967,1.062,4.2125,4.2125,0,0,1,.2071,1.3491v.5078H588.65V58.03a2.3445,2.3445,0,0,0,.1416.8242,1.9662,1.9662,0,0,0,.4014.6641,1.846,1.846,0,0,0,.6435.4424,2.2176,2.2176,0,0,0,.8653.1606,2.1083,2.1083,0,0,0,1.1465-.3081,2.0208,2.0208,0,0,0,.7568-.8852l.7646.5532a2.6721,2.6721,0,0,1-1.0458,1.1538A3.1567,3.1567,0,0,1,590.634,61.0734Zm0-6.3408a2.0405,2.0405,0,0,0-.8047.1533,1.8143,1.8143,0,0,0-.623.4326,2.0463,2.0463,0,0,0-.4092.66,2.2957,2.2957,0,0,0-.1475.833v.0932h3.8213v-.1469a2.1056,2.1056,0,0,0-.5029-1.4722A1.716,1.716,0,0,0,590.634,54.7326Z"/><g class="cls-16"><g class="cls-17"><rect class="cls-4" x="627.1741" y="25.0064" width="27.5543" height="27.5543"/></g><rect class="cls-4" x="631.2262" y="29.0585" width="19.4501" height="19.4501"/></g><path class="cls-10" d="M638.52,38.7836a2.4313,2.4313,0,1,1,2.4312,2.4312A2.3879,2.3879,0,0,1,638.52,38.7836Zm-4.9436,1.1346-2.35,2.1071,1.945,3.2416,2.8365-.8914a8.5338,8.5338,0,0,0,2.35,1.3777l.6483,2.7554h3.89l.5672-2.7554a7.4952,7.4952,0,0,0,2.35-1.3777l2.8364.9725,2.0261-3.3227-2.35-2.1071a4.9806,4.9806,0,0,0,.0811-1.1346,4.98,4.98,0,0,0-.0811-1.1346l2.35-2.1071L648.65,32.2192l-2.7554.9725a8.537,8.537,0,0,0-2.35-1.3778l-.6483-2.7554h-3.89l-.5673,2.7554a7.4949,7.4949,0,0,0-2.35,1.3778l-2.8365-.9725-2.026,3.3227,2.35,2.1071a4.98,4.98,0,0,0-.0811,1.1346A4.9806,4.9806,0,0,0,633.5764,39.9182Z"/><rect class="cls-18" x="521.5757" y="170.7363" width="143.993" height="28.1162" rx="2.8502"/><path d="M368.8557,178.8561h2.8291a3.3664,3.3664,0,0,1,1.4267.2949,2.9264,2.9264,0,0,1,1.0948.8779,4.1549,4.1549,0,0,1,.6943,1.4615,8.7494,8.7494,0,0,1,0,4.0888,4.1591,4.1591,0,0,1-.6943,1.4615,2.9264,2.9264,0,0,1-1.0948.8779,3.3664,3.3664,0,0,1-1.4267.2949h-2.8291Zm2.8291,8.3652a2.31,2.31,0,0,0,.9551-.1943,2.069,2.069,0,0,0,.75-.57,2.7027,2.7027,0,0,0,.4892-.9185,4.0186,4.0186,0,0,0,.1758-1.24v-1.5284a4.0219,4.0219,0,0,0-.1758-1.24,2.7107,2.7107,0,0,0-.4892-.9184,2.08,2.08,0,0,0-.75-.57,2.3179,2.3179,0,0,0-.9551-.1943h-1.8135v7.3735Z"/><path d="M376.968,188.2135v-9.3574h5.15v.9917h-4.1348v3.1372h3.8936v.9922h-3.8936v3.2441h4.1348v.9922Z"/><path d="M386.2287,183.6154l-1.1972,1.4746v3.1235h-1.0157v-9.3574h1.0157V183.83h.0361l1.209-1.622,2.5517-3.3516h1.2452l-3.1436,4.0083,3.3613,5.3491h-1.2578Z"/><path d="M396.5783,187.3825V184.58H394.22v-.9116h2.3584v-2.8018h.918v2.8018h2.3584v.9116h-2.3584v2.8023Z"/><path d="M407.6154,188.3742a2.9321,2.9321,0,0,1-2.5029-1.2129,5.9764,5.9764,0,0,1-.8945-3.5728,6.2343,6.2343,0,0,1,.8945-3.6265,2.89,2.89,0,0,1,2.5029-1.267,2.9262,2.9262,0,0,1,1.7832.53,3.4173,3.4173,0,0,1,1.1182,1.5079l-.8223.55a2.59,2.59,0,0,0-.7734-1.16,1.9667,1.9667,0,0,0-1.3057-.4356,2.0378,2.0378,0,0,0-.9736.2286,2.0734,2.0734,0,0,0-.7256.6528,3.1837,3.1837,0,0,0-.4531,1.0088,5.069,5.069,0,0,0-.1572,1.3115v1.3994a3.7627,3.7627,0,0,0,.6045,2.2735,1.9941,1.9941,0,0,0,1.705.8208,2.0149,2.0149,0,0,0,1.3536-.4629,2.6641,2.6641,0,0,0,.7978-1.2266l.8106.563a3.5437,3.5437,0,0,1-1.1485,1.5552A2.9333,2.9333,0,0,1,407.6154,188.3742Z"/><path d="M412.052,188.2135V181.296h.9677V182.57h.0606a2.0719,2.0719,0,0,1,.6045-.8848,1.73,1.73,0,0,1,1.1963-.3887h.375v1.0723h-.5684a2.0157,2.0157,0,0,0-1.2266.3286.99.99,0,0,0-.4414.8242v4.6924Z"/><path d="M418.7746,188.3742a2.5644,2.5644,0,0,1-1.1543-.2544,2.5327,2.5327,0,0,1-.8828-.731,3.4572,3.4572,0,0,1-.5683-1.1392,5.68,5.68,0,0,1,0-2.9829,3.4574,3.4574,0,0,1,.5683-1.1464,2.4791,2.4791,0,0,1,2.0371-.9854,2.4267,2.4267,0,0,1,1.124.2539,2.5236,2.5236,0,0,1,.8467.7017,3.2374,3.2374,0,0,1,.5381,1.062,4.6063,4.6063,0,0,1,.1875,1.3491v.5078h-4.4853v.3218a2.5888,2.5888,0,0,0,.1269.8242,1.9979,1.9979,0,0,0,.3623.6641,1.671,1.671,0,0,0,.58.4424,1.8322,1.8322,0,0,0,.78.1606,1.7576,1.7576,0,0,0,1.0332-.3081,1.9739,1.9739,0,0,0,.6836-.8853l.6894.5533a2.6016,2.6016,0,0,1-.9433,1.1538A2.6363,2.6363,0,0,1,418.7746,188.3742Zm0-6.3409a1.6823,1.6823,0,0,0-.7256.1534,1.6368,1.6368,0,0,0-.5615.4326,2.0834,2.0834,0,0,0-.3691.66,2.5,2.5,0,0,0-.1328.8331v.0932h3.4453v-.147a2.2523,2.2523,0,0,0-.4532-1.4721A1.478,1.478,0,0,0,418.7746,182.0333Z"/><path d="M427.0559,187.1h-.0489a1.8994,1.8994,0,0,1-1.8252,1.274,2.1816,2.1816,0,0,1-1.0517-.2544,2.3511,2.3511,0,0,1-.8047-.7242,3.45,3.45,0,0,1-.5068-1.14,6.5,6.5,0,0,1,0-3.0029,3.46,3.46,0,0,1,.5068-1.14,2.3533,2.3533,0,0,1,.8047-.7236,2.1763,2.1763,0,0,1,1.0517-.2549,1.963,1.963,0,0,1,1.1182.312,1.9127,1.9127,0,0,1,.707.9624h.0489v-4.1167h.9668v9.9209h-.9668Zm-1.6084.3223a2.0445,2.0445,0,0,0,.623-.0942,1.5031,1.5031,0,0,0,.5137-.2764,1.3324,1.3324,0,0,0,.3447-.4443,1.3724,1.3724,0,0,0,.127-.6v-2.5874a1.166,1.166,0,0,0-.127-.5322,1.3077,1.3077,0,0,0-.3447-.4243,1.68,1.68,0,0,0-.5137-.2759,1.9192,1.9192,0,0,0-.623-.1011,1.5844,1.5844,0,0,0-1.293.5723,2.2883,2.2883,0,0,0-.4717,1.5025v1.1855a2.2885,2.2885,0,0,0,.4717,1.5029A1.5841,1.5841,0,0,0,425.4475,187.4225Z"/><path d="M432.424,188.3742a2.5644,2.5644,0,0,1-1.1543-.2544,2.5327,2.5327,0,0,1-.8828-.731,3.4572,3.4572,0,0,1-.5683-1.1392,5.68,5.68,0,0,1,0-2.9829,3.4574,3.4574,0,0,1,.5683-1.1464,2.4791,2.4791,0,0,1,2.0371-.9854,2.4274,2.4274,0,0,1,1.1241.2539,2.5243,2.5243,0,0,1,.8466.7017,3.2374,3.2374,0,0,1,.5381,1.062,4.6063,4.6063,0,0,1,.1875,1.3491v.5078H430.635v.3218a2.5888,2.5888,0,0,0,.1269.8242,1.9979,1.9979,0,0,0,.3623.6641,1.672,1.672,0,0,0,.58.4424,1.8322,1.8322,0,0,0,.78.1606,1.7576,1.7576,0,0,0,1.0332-.3081,1.9739,1.9739,0,0,0,.6836-.8853l.6894.5533a2.6016,2.6016,0,0,1-.9433,1.1538A2.6363,2.6363,0,0,1,432.424,188.3742Zm0-6.3409a1.6815,1.6815,0,0,0-.7255.1534,1.6372,1.6372,0,0,0-.5616.4326,2.0854,2.0854,0,0,0-.3691.66,2.5,2.5,0,0,0-.1328.8331v.0932H434.08v-.147a2.2528,2.2528,0,0,0-.4531-1.4721A1.4783,1.4783,0,0,0,432.424,182.0333Z"/><path d="M436.7151,188.2135V181.296h.9677v1.1133h.0479a2.2422,2.2422,0,0,1,.6474-.9292,1.6979,1.6979,0,0,1,1.1182-.3452,1.8689,1.8689,0,0,1,1.5293.69,3.0134,3.0134,0,0,1,.5615,1.9507v4.4375H440.62v-4.2588q0-1.8677-1.414-1.8677a1.9732,1.9732,0,0,0-.5625.0806,1.5481,1.5481,0,0,0-.4893.2417,1.1471,1.1471,0,0,0-.3447.41,1.2663,1.2663,0,0,0-.127.5845v4.81Z"/><path d="M444.9611,188.2135a.9412.9412,0,0,1-.7685-.3144,1.25,1.25,0,0,1-.26-.8228v-4.8286h-1.0273v-.9517h.58a.5326.5326,0,0,0,.43-.1411.792.792,0,0,0,.1143-.4892v-1.2871h.8711v1.9174h1.3662v.9517h-1.3662v5.0142H446.17v.9516Z"/><path d="M448.31,179.6735a.5582.5582,0,0,1-.4541-.1675.658.658,0,0,1-.1387-.4356v-.1743a.6588.6588,0,0,1,.1387-.4355.6964.6964,0,0,1,.9072,0,.6588.6588,0,0,1,.1387.4355v.1743a.658.658,0,0,1-.1387.4356A.5573.5573,0,0,1,448.31,179.6735Zm-.4844,1.6225h.9678v6.9175h-.9678Z"/><path d="M455.382,188.2135a.9027.9027,0,0,1-.78-.3218,1.6859,1.6859,0,0,1-.2959-.8042h-.0606a1.774,1.774,0,0,1-.6767.9654,1.9492,1.9492,0,0,1-1.125.3213,2.0549,2.0549,0,0,1-1.541-.563,2.09,2.09,0,0,1-.55-1.5283,1.8176,1.8176,0,0,1,.6465-1.5015,3.1786,3.1786,0,0,1,2.0127-.523h1.2334v-.6836a1.5947,1.5947,0,0,0-.3623-1.1259,1.4534,1.4534,0,0,0-1.1123-.3887,1.5542,1.5542,0,0,0-.9492.2812,2.24,2.24,0,0,0-.6348.751l-.58-.6035a2.3148,2.3148,0,0,1,2.2119-1.354,2.4183,2.4183,0,0,1,1.7656.6157,2.2868,2.2868,0,0,1,.6289,1.7119v3.7994h.7129v.9516Zm-2.7812-.751a2.217,2.217,0,0,0,.665-.0937,1.5625,1.5625,0,0,0,.52-.2681,1.279,1.279,0,0,0,.3379-.4023,1.0349,1.0349,0,0,0,.1211-.4956v-1.14h-1.2812a2.1474,2.1474,0,0,0-1.2149.2681.8916.8916,0,0,0-.3808.7773v.2818a.98.98,0,0,0,.332.791A1.3488,1.3488,0,0,0,452.6008,187.4625Z"/><path d="M458.3322,188.2135a.94.94,0,0,1-.7685-.3149,1.2142,1.2142,0,0,1-.26-.7979v-8.8081h.9678v8.9693h.9189v.9516Z"/><path d="M532.2522,188.8429v-9.3574h5.7109v.9917h-4.585v3.1372h4.3164v.9922h-4.3164v3.2441h4.585v.9922Z"/><path d="M539.96,188.8429v-6.9175h1.0722v1.1133h.0537a2.2636,2.2636,0,0,1,.7168-.9292,2.0277,2.0277,0,0,1,1.24-.3452,2.1734,2.1734,0,0,1,1.6963.69,2.8089,2.8089,0,0,1,.623,1.9507v4.4375H544.29v-4.2588q0-1.8676-1.5683-1.8677a2.3964,2.3964,0,0,0-.6231.0806,1.8025,1.8025,0,0,0-.5429.2417,1.1943,1.1943,0,0,0-.3828.41,1.1683,1.1683,0,0,0-.1407.5845v4.81Z"/><path d="M550.15,189.0036a3.19,3.19,0,0,1-1.3008-.2544,2.6522,2.6522,0,0,1-.9716-.7242,3.2227,3.2227,0,0,1-.6036-1.14,5.5231,5.5231,0,0,1,0-3.0029,3.2318,3.2318,0,0,1,.6036-1.14,2.6551,2.6551,0,0,1,.9716-.7236,3.1815,3.1815,0,0,1,1.3008-.2549,2.7729,2.7729,0,0,1,1.6553.4492,2.7311,2.7311,0,0,1,.9316,1.1729l-.8984.456a1.6244,1.6244,0,0,0-.6162-.831,1.8486,1.8486,0,0,0-1.0723-.295,2.144,2.144,0,0,0-.8447.1539,1.6558,1.6558,0,0,0-.6035.4292,1.81,1.81,0,0,0-.3623.6567,2.7835,2.7835,0,0,0-.12.8379v1.18a2.2467,2.2467,0,0,0,.4892,1.4951,1.7752,1.7752,0,0,0,1.4414.583,1.9472,1.9472,0,0,0,1.877-1.2065l.7773.5229a2.7488,2.7488,0,0,1-.999,1.1929A2.9208,2.9208,0,0,1,550.15,189.0036Z"/><path d="M554.3186,188.8429v-6.9175h1.0722v1.2735h.0674a2.0914,2.0914,0,0,1,.67-.8848,2.0606,2.0606,0,0,1,1.3272-.3887h.416v1.0723h-.63a2.4215,2.4215,0,0,0-1.3613.3286.9687.9687,0,0,0-.4893.8242v4.6924Z"/><path d="M563.635,181.9254h1.0595l-3.0966,8.5264a3.9381,3.9381,0,0,1-.2412.5161,1.0194,1.0194,0,0,1-.295.3281,1.1687,1.1687,0,0,1-.4365.1744,3.2338,3.2338,0,0,1-.6367.0537H559.44v-.9517h1.0859l.5225-1.4727-2.5879-7.1743h1.0732l1.6621,4.6963.3213,1.124h.0674l.375-1.124Z"/><path d="M566.0617,181.9254h1.0723v1.1133h.0537a1.9466,1.9466,0,0,1,.7842-.9624,2.3531,2.3531,0,0,1,1.24-.312,2.6261,2.6261,0,0,1,1.166.2549,2.5389,2.5389,0,0,1,.8916.7236,3.3216,3.3216,0,0,1,.5635,1.14,5.8954,5.8954,0,0,1,0,3.0029,3.3121,3.3121,0,0,1-.5635,1.14,2.5362,2.5362,0,0,1-.8916.7242,2.6327,2.6327,0,0,1-1.166.2544,2.0946,2.0946,0,0,1-2.0244-1.274h-.0537v3.7945h-1.0723Zm2.8555,6.1265a1.8474,1.8474,0,0,0,1.4346-.5723,2.1419,2.1419,0,0,0,.5224-1.5029v-1.1855a2.1416,2.1416,0,0,0-.5224-1.5025,1.8477,1.8477,0,0,0-1.4346-.5723,2.3328,2.3328,0,0,0-.69.1011,1.9191,1.9191,0,0,0-.5694.2759,1.3323,1.3323,0,0,0-.3828.4243,1.0681,1.0681,0,0,0-.1406.5322v2.5874a1.2532,1.2532,0,0,0,.1406.6,1.3486,1.3486,0,0,0,.3828.4443,1.7183,1.7183,0,0,0,.5694.2764A2.4877,2.4877,0,0,0,568.9172,188.0519Z"/><path d="M575.2854,188.8429a1.1,1.1,0,0,1-.8516-.3144,1.1677,1.1677,0,0,1-.2881-.8228v-4.8286h-1.14v-.9517h.6435a.6276.6276,0,0,0,.4756-.1411.7294.7294,0,0,0,.1279-.4892v-1.2872h.9649v1.9175h1.5156v.9517H575.218v5.0141h1.4082v.9517Z"/><path d="M581.01,189.0036a3.1106,3.1106,0,0,1-1.28-.2544,2.76,2.76,0,0,1-.9785-.731,3.35,3.35,0,0,1-.63-1.1392,5.1276,5.1276,0,0,1,0-2.9829,3.3491,3.3491,0,0,1,.63-1.1465,2.7644,2.7644,0,0,1,.9785-.73,3.1027,3.1027,0,0,1,1.28-.2549,2.9413,2.9413,0,0,1,1.247.2539,2.77,2.77,0,0,1,.9385.7017,3.1337,3.1337,0,0,1,.5967,1.062,4.2117,4.2117,0,0,1,.207,1.3491v.5078h-4.9736v.3218a2.3445,2.3445,0,0,0,.1416.8242,1.9646,1.9646,0,0,0,.4014.6641,1.8449,1.8449,0,0,0,.6435.4423,2.2158,2.2158,0,0,0,.8653.1607,2.1077,2.1077,0,0,0,1.1464-.3081,2.02,2.02,0,0,0,.7569-.8853l.7646.5533a2.6718,2.6718,0,0,1-1.0459,1.1538A3.1561,3.1561,0,0,1,581.01,189.0036Zm0-6.3409a2.0405,2.0405,0,0,0-.8047.1534,1.8133,1.8133,0,0,0-.6231.4326,2.0484,2.0484,0,0,0-.4091.66,2.2965,2.2965,0,0,0-.1475.833v.0933h3.8213v-.147a2.1053,2.1053,0,0,0-.5029-1.4721A1.716,1.716,0,0,0,581.01,182.6627Z"/><path d="M590.1926,187.73h-.0537a2.1109,2.1109,0,0,1-2.0244,1.274,2.6327,2.6327,0,0,1-1.166-.2544,2.5365,2.5365,0,0,1-.8917-.7242,3.3138,3.3138,0,0,1-.5634-1.14,5.8954,5.8954,0,0,1,0-3.0029,3.3232,3.3232,0,0,1,.5634-1.14,2.5392,2.5392,0,0,1,.8917-.7236,2.6261,2.6261,0,0,1,1.166-.2549,2.3506,2.3506,0,0,1,1.24.312,1.9466,1.9466,0,0,1,.7842.9624h.0537V178.922h1.0723v9.9209h-1.0723Zm-1.7832.3223a2.4877,2.4877,0,0,0,.69-.0942,1.7316,1.7316,0,0,0,.57-.2764,1.3564,1.3564,0,0,0,.3819-.4443,1.2532,1.2532,0,0,0,.1406-.6V184.05a1.0681,1.0681,0,0,0-.1406-.5322,1.34,1.34,0,0,0-.3819-.4243,1.9354,1.9354,0,0,0-.57-.2759,2.3328,2.3328,0,0,0-.69-.1011,1.8477,1.8477,0,0,0-1.4346.5723,2.1416,2.1416,0,0,0-.5224,1.5025v1.1855a2.1419,2.1419,0,0,0,.5224,1.5029A1.8474,1.8474,0,0,0,588.4094,188.0519Z"/><path d="M599.2824,189.0036a3.1889,3.1889,0,0,1-1.3007-.2544,2.6517,2.6517,0,0,1-.9717-.7242,3.2209,3.2209,0,0,1-.6035-1.14,5.5231,5.5231,0,0,1,0-3.0029,3.23,3.23,0,0,1,.6035-1.14,2.6546,2.6546,0,0,1,.9717-.7236,3.1807,3.1807,0,0,1,1.3007-.2549,2.7729,2.7729,0,0,1,1.6553.4492,2.7311,2.7311,0,0,1,.9316,1.1729l-.8984.456a1.6244,1.6244,0,0,0-.6162-.831,1.8486,1.8486,0,0,0-1.0723-.295,2.144,2.144,0,0,0-.8447.1539,1.6558,1.6558,0,0,0-.6035.4292,1.8116,1.8116,0,0,0-.3623.6567,2.7835,2.7835,0,0,0-.12.8379v1.18a2.2472,2.2472,0,0,0,.4892,1.4951,1.7752,1.7752,0,0,0,1.4414.583,1.9472,1.9472,0,0,0,1.877-1.2065l.7773.5229a2.7488,2.7488,0,0,1-.999,1.1929A2.9208,2.9208,0,0,1,599.2824,189.0036Z"/><path d="M603.4514,188.8429v-6.9175h1.0722v1.2735h.0674a2.0917,2.0917,0,0,1,.67-.8848,2.06,2.06,0,0,1,1.3271-.3887h.416v1.0723h-.63a2.4215,2.4215,0,0,0-1.3613.3286.9687.9687,0,0,0-.4893.8242v4.6924Z"/><path d="M610.9055,189.0036a3.1106,3.1106,0,0,1-1.28-.2544,2.761,2.761,0,0,1-.9785-.731,3.35,3.35,0,0,1-.63-1.1392,5.1276,5.1276,0,0,1,0-2.9829,3.3491,3.3491,0,0,1,.63-1.1465,2.7653,2.7653,0,0,1,.9785-.73,3.1027,3.1027,0,0,1,1.28-.2549,2.9421,2.9421,0,0,1,1.2471.2539,2.77,2.77,0,0,1,.9384.7017,3.1337,3.1337,0,0,1,.5967,1.062,4.2117,4.2117,0,0,1,.207,1.3491v.5078h-4.9736v.3218a2.3445,2.3445,0,0,0,.1416.8242,1.9646,1.9646,0,0,0,.4014.6641,1.8449,1.8449,0,0,0,.6435.4423,2.2158,2.2158,0,0,0,.8653.1607,2.1077,2.1077,0,0,0,1.1464-.3081,2.02,2.02,0,0,0,.7569-.8853l.7646.5533a2.6718,2.6718,0,0,1-1.0459,1.1538A3.1561,3.1561,0,0,1,610.9055,189.0036Zm0-6.3409a2.0405,2.0405,0,0,0-.8047.1534,1.8143,1.8143,0,0,0-.6231.4326,2.0484,2.0484,0,0,0-.4091.66,2.2965,2.2965,0,0,0-.1475.833v.0933h3.8213v-.147a2.1053,2.1053,0,0,0-.5029-1.4721A1.716,1.716,0,0,0,610.9055,182.6627Z"/><path d="M620.0891,187.73h-.0537a2.1111,2.1111,0,0,1-2.0244,1.274,2.6332,2.6332,0,0,1-1.1661-.2544,2.5371,2.5371,0,0,1-.8916-.7242,3.31,3.31,0,0,1-.5634-1.14,5.8954,5.8954,0,0,1,0-3.0029,3.32,3.32,0,0,1,.5634-1.14,2.54,2.54,0,0,1,.8916-.7236,2.6265,2.6265,0,0,1,1.1661-.2549,2.3511,2.3511,0,0,1,1.24.312,1.9472,1.9472,0,0,1,.7842.9624h.0537V178.922h1.0722v9.9209h-1.0722Zm-1.7832.3223a2.4877,2.4877,0,0,0,.69-.0942,1.7316,1.7316,0,0,0,.57-.2764,1.3564,1.3564,0,0,0,.3819-.4443,1.2532,1.2532,0,0,0,.1406-.6V184.05a1.0681,1.0681,0,0,0-.1406-.5322,1.34,1.34,0,0,0-.3819-.4243,1.9354,1.9354,0,0,0-.57-.2759,2.3328,2.3328,0,0,0-.69-.1011,1.8476,1.8476,0,0,0-1.4346.5723,2.1417,2.1417,0,0,0-.5225,1.5025v1.1855a2.142,2.142,0,0,0,.5225,1.5029A1.8472,1.8472,0,0,0,618.3059,188.0519Z"/><path d="M626.0412,189.0036a3.11,3.11,0,0,1-1.28-.2544,2.7614,2.7614,0,0,1-.9786-.731,3.3494,3.3494,0,0,1-.63-1.1392,5.1276,5.1276,0,0,1,0-2.9829,3.3489,3.3489,0,0,1,.63-1.1465,2.7657,2.7657,0,0,1,.9786-.73,3.1022,3.1022,0,0,1,1.28-.2549,2.9418,2.9418,0,0,1,1.2471.2539,2.7716,2.7716,0,0,1,.9385.7017,3.1337,3.1337,0,0,1,.5967,1.062,4.2144,4.2144,0,0,1,.207,1.3491v.5078h-4.9737v.3218a2.3423,2.3423,0,0,0,.1417.8242,1.9644,1.9644,0,0,0,.4013.6641,1.8453,1.8453,0,0,0,.6436.4423,2.2153,2.2153,0,0,0,.8652.1607,2.1083,2.1083,0,0,0,1.1465-.3081,2.02,2.02,0,0,0,.7568-.8853l.7647.5533a2.673,2.673,0,0,1-1.0459,1.1538A3.1564,3.1564,0,0,1,626.0412,189.0036Zm0-6.3409a2.0405,2.0405,0,0,0-.8047.1534,1.8129,1.8129,0,0,0-.623.4326,2.0486,2.0486,0,0,0-.4092.66,2.2986,2.2986,0,0,0-.1475.833v.0933h3.8213v-.147a2.1049,2.1049,0,0,0-.5029-1.4721A1.716,1.716,0,0,0,626.0412,182.6627Z"/><path d="M630.8,188.8429v-6.9175h1.0723v1.1133h.0537a2.2627,2.2627,0,0,1,.7168-.9292,2.0276,2.0276,0,0,1,1.24-.3452,2.1732,2.1732,0,0,1,1.6963.69,2.8089,2.8089,0,0,1,.6231,1.9507v4.4375H635.13v-4.2588q0-1.8676-1.5684-1.8677a2.3962,2.3962,0,0,0-.623.0806,1.8031,1.8031,0,0,0-.543.2417,1.1962,1.1962,0,0,0-.3828.41,1.1693,1.1693,0,0,0-.1406.5845v4.81Z"/><path d="M639.9436,188.8429a1.1,1.1,0,0,1-.8516-.3144,1.1677,1.1677,0,0,1-.2881-.8228v-4.8286h-1.14v-.9517h.6435a.6275.6275,0,0,0,.4756-.1411.7294.7294,0,0,0,.1279-.4892v-1.2872h.9649v1.9175h1.5156v.9517h-1.5156v5.0141h1.4082v.9517Z"/><path d="M643.6565,180.3029a.6554.6554,0,0,1-.503-.1675.6185.6185,0,0,1-.1543-.4356v-.1743a.6193.6193,0,0,1,.1543-.4355.8369.8369,0,0,1,1.0059,0,.6193.6193,0,0,1,.1543.4355V179.7a.6185.6185,0,0,1-.1543.4356A.6566.6566,0,0,1,643.6565,180.3029Zm-.5362,1.6225h1.0723v6.9175H643.12Z"/><path d="M651.4992,188.8429a1.0545,1.0545,0,0,1-.8652-.3218,1.5991,1.5991,0,0,1-.3281-.8042h-.0674a1.7888,1.7888,0,0,1-.75.9654,2.3356,2.3356,0,0,1-1.2471.3213,2.4232,2.4232,0,0,1-1.709-.563,1.9758,1.9758,0,0,1-.61-1.5284,1.7462,1.7462,0,0,1,.7168-1.5014,3.8157,3.8157,0,0,1,2.2324-.523h1.3672v-.6836a1.4966,1.4966,0,0,0-.4014-1.1259,1.7167,1.7167,0,0,0-1.2334-.3887,1.8566,1.8566,0,0,0-1.0527.2812,2.323,2.323,0,0,0-.7041.751l-.6436-.6035a2.4489,2.4489,0,0,1,.8985-.9585,2.83,2.83,0,0,1,1.5556-.3955,2.8607,2.8607,0,0,1,1.9571.6157,2.1642,2.1642,0,0,1,.6972,1.7119v3.7993h.791v.9517Zm-3.084-.751a2.7176,2.7176,0,0,0,.7383-.0937,1.8141,1.8141,0,0,0,.5762-.2681,1.3154,1.3154,0,0,0,.375-.4023.9552.9552,0,0,0,.1338-.4956v-1.14h-1.4209a2.592,2.592,0,0,0-1.3467.2681.8648.8648,0,0,0-.4228.7773v.2818a.9375.9375,0,0,0,.3691.791A1.6046,1.6046,0,0,0,648.4152,188.0919Z"/><path d="M654.7707,188.8429a1.0967,1.0967,0,0,1-.8515-.3149,1.1355,1.1355,0,0,1-.2881-.7979V178.922h1.0722v8.9692h1.0186v.9517Z"/><line class="cls-13" x1="478.533" y1="184.1647" x2="501.9254" y2="184.1647"/><polygon points="499.481 192.521 513.951 184.165 499.481 175.809 499.481 192.521"/><path d="M222.2668,79.402V70.0446h3.7266a2.5371,2.5371,0,0,1,1.9375.7173,3.188,3.188,0,0,1,0,3.9277,2.5357,2.5357,0,0,1-1.9375.7173h-2.6006V79.402Zm1.126-4.9873h2.6006a1.451,1.451,0,0,0,1.039-.3486,1.2978,1.2978,0,0,0,.3692-.9917v-.6973a1.2988,1.2988,0,0,0-.3692-.9922,1.4532,1.4532,0,0,0-1.039-.3486h-2.6006Z"/><path d="M235.177,79.402a1.0546,1.0546,0,0,1-.8653-.3218,1.5991,1.5991,0,0,1-.3281-.8042h-.0674a1.7873,1.7873,0,0,1-.75.9653,2.3344,2.3344,0,0,1-1.247.3213A2.423,2.423,0,0,1,230.21,79a1.9753,1.9753,0,0,1-.61-1.5283,1.7464,1.7464,0,0,1,.7168-1.5014,3.8159,3.8159,0,0,1,2.2324-.523h1.3672v-.6836a1.4973,1.4973,0,0,0-.4013-1.126,1.7173,1.7173,0,0,0-1.2334-.3886,1.8571,1.8571,0,0,0-1.0528.2812,2.324,2.324,0,0,0-.7041.751l-.6435-.6035a2.4487,2.4487,0,0,1,.8984-.9585,2.83,2.83,0,0,1,1.5557-.3955,2.86,2.86,0,0,1,1.957.6157,2.1642,2.1642,0,0,1,.6973,1.7119V78.45h.791v.9517Zm-3.084-.751a2.7186,2.7186,0,0,0,.7383-.0937,1.8146,1.8146,0,0,0,.5761-.2681,1.313,1.313,0,0,0,.375-.4023.9544.9544,0,0,0,.1338-.4957v-1.14h-1.4209a2.592,2.592,0,0,0-1.3467.2681.8648.8648,0,0,0-.4228.7773v.2817a.9376.9376,0,0,0,.3691.7911A1.6051,1.6051,0,0,0,232.093,78.651Z"/><path d="M239.3869,79.5626a3.2289,3.2289,0,0,1-1.6152-.3686,3.6508,3.6508,0,0,1-1.12-.9854l.7646-.6167a3.0024,3.0024,0,0,0,.8975.7847,2.3449,2.3449,0,0,0,1.1533.2744,1.7031,1.7031,0,0,0,1.0654-.2949,1.07,1.07,0,0,0,.1211-1.5215,1.5968,1.5968,0,0,0-.9453-.3955l-.55-.0806a4.585,4.585,0,0,1-.8848-.2075,2.4518,2.4518,0,0,1-.7031-.3755,1.6079,1.6079,0,0,1-.47-.583,1.91,1.91,0,0,1-.167-.8315,1.9852,1.9852,0,0,1,.1875-.8911,1.7967,1.7967,0,0,1,.5156-.6372,2.26,2.26,0,0,1,.7842-.3819,3.6267,3.6267,0,0,1,.9785-.1274,3.0607,3.0607,0,0,1,1.4151.2949,3.1738,3.1738,0,0,1,.999.8179l-.711.6435a2.1308,2.1308,0,0,0-.67-.583,2.1593,2.1593,0,0,0-1.1133-.2617,1.5351,1.5351,0,0,0-1.0117.2881.9714.9714,0,0,0-.3418.7847.8194.8194,0,0,0,.3418.7373,2.547,2.547,0,0,0,.9854.3349l.5361.0806a2.8793,2.8793,0,0,1,1.6358.6636,1.7463,1.7463,0,0,1,.4824,1.28,1.9612,1.9612,0,0,1-.6836,1.5821A2.8241,2.8241,0,0,1,239.3869,79.5626Z"/><path d="M245.8352,79.5626a3.2293,3.2293,0,0,1-1.6153-.3686,3.652,3.652,0,0,1-1.12-.9854l.7647-.6167a3.0008,3.0008,0,0,0,.8974.7847,2.3452,2.3452,0,0,0,1.1533.2744,1.7034,1.7034,0,0,0,1.0655-.2949,1.07,1.07,0,0,0,.1211-1.5215,1.5974,1.5974,0,0,0-.9453-.3955l-.55-.0806a4.5833,4.5833,0,0,1-.8848-.2075,2.4492,2.4492,0,0,1-.7031-.3755,1.6092,1.6092,0,0,1-.47-.583,1.91,1.91,0,0,1-.167-.8315,1.9866,1.9866,0,0,1,.1875-.8911,1.7959,1.7959,0,0,1,.5157-.6372,2.2588,2.2588,0,0,1,.7841-.3819,3.6274,3.6274,0,0,1,.9786-.1274,3.0605,3.0605,0,0,1,1.415.2949,3.1727,3.1727,0,0,1,.999.8179l-.7109.6435a2.1319,2.1319,0,0,0-.67-.583,2.16,2.16,0,0,0-1.1133-.2617,1.5347,1.5347,0,0,0-1.0117.2881.9714.9714,0,0,0-.3418.7847.8194.8194,0,0,0,.3418.7373,2.5459,2.5459,0,0,0,.9853.3349l.5362.0806a2.8792,2.8792,0,0,1,1.6357.6636,1.7459,1.7459,0,0,1,.4824,1.28,1.9612,1.9612,0,0,1-.6836,1.5821A2.8236,2.8236,0,0,1,245.8352,79.5626Z"/><path d="M250.2854,72.4845h1.0722v1.1133h.0537a1.9477,1.9477,0,0,1,.7842-.9624,2.3535,2.3535,0,0,1,1.24-.312,2.6251,2.6251,0,0,1,1.166.2549,2.54,2.54,0,0,1,.8916.7236,3.32,3.32,0,0,1,.5634,1.14,5.8958,5.8958,0,0,1,0,3.003,3.3111,3.3111,0,0,1-.5634,1.14,2.5357,2.5357,0,0,1-.8916.7241,2.6317,2.6317,0,0,1-1.166.2544,2.0948,2.0948,0,0,1-2.0245-1.2739h-.0537v3.7944h-1.0722Zm2.8554,6.1265a1.8471,1.8471,0,0,0,1.4346-.5723,2.142,2.142,0,0,0,.5225-1.5029V75.35a2.1416,2.1416,0,0,0-.5225-1.5024,1.8471,1.8471,0,0,0-1.4346-.5723,2.3333,2.3333,0,0,0-.69.1011,1.9185,1.9185,0,0,0-.5693.2759,1.33,1.33,0,0,0-.3828.4243,1.0669,1.0669,0,0,0-.1407.5322v2.5874a1.2519,1.2519,0,0,0,.1407.6,1.3466,1.3466,0,0,0,.3828.4444,1.7176,1.7176,0,0,0,.5693.2763A2.4845,2.4845,0,0,0,253.1408,78.611Z"/><path d="M258.0608,69.4811h1.0722v4.1167h.0537a2.2636,2.2636,0,0,1,.7168-.9292,2.0277,2.0277,0,0,1,1.24-.3452,2.1732,2.1732,0,0,1,1.6963.69,2.8087,2.8087,0,0,1,.623,1.9507V79.402h-1.0723V75.1432q0-1.8676-1.5683-1.8677a2.3964,2.3964,0,0,0-.6231.0806,1.8025,1.8025,0,0,0-.5429.2417,1.1947,1.1947,0,0,0-.3829.41,1.1692,1.1692,0,0,0-.1406.5844v4.81h-1.0722Z"/><path d="M265.676,79.402V72.4845h1.0723v1.2734h.0673a2.092,2.092,0,0,1,.67-.8847,2.06,2.06,0,0,1,1.3271-.3887h.416v1.0723h-.63a2.4215,2.4215,0,0,0-1.3613.3286.9685.9685,0,0,0-.4892.8242V79.402Z"/><path d="M275.57,79.402a1.0545,1.0545,0,0,1-.8652-.3218,1.5991,1.5991,0,0,1-.3281-.8042h-.0674a1.7882,1.7882,0,0,1-.75.9653,2.3345,2.3345,0,0,1-1.2471.3213,2.4232,2.4232,0,0,1-1.709-.563,1.9756,1.9756,0,0,1-.61-1.5283,1.7464,1.7464,0,0,1,.7168-1.5014,3.8157,3.8157,0,0,1,2.2324-.523h1.3672v-.6836a1.497,1.497,0,0,0-.4014-1.126,1.7171,1.7171,0,0,0-1.2334-.3886,1.8568,1.8568,0,0,0-1.0527.2812,2.324,2.324,0,0,0-.7041.751l-.6436-.6035a2.45,2.45,0,0,1,.8985-.9585,2.83,2.83,0,0,1,1.5556-.3955,2.86,2.86,0,0,1,1.9571.6157,2.1642,2.1642,0,0,1,.6972,1.7119V78.45h.7911v.9517Zm-3.0839-.751a2.7174,2.7174,0,0,0,.7382-.0937,1.8141,1.8141,0,0,0,.5762-.2681,1.3154,1.3154,0,0,0,.375-.4023.9544.9544,0,0,0,.1338-.4957v-1.14h-1.4209a2.592,2.592,0,0,0-1.3467.2681.8648.8648,0,0,0-.4228.7773v.2817a.9376.9376,0,0,0,.3691.7911A1.6047,1.6047,0,0,0,272.4856,78.651Z"/><path d="M279.78,79.5626a3.2289,3.2289,0,0,1-1.6152-.3686,3.6508,3.6508,0,0,1-1.12-.9854l.7646-.6167a3.0024,3.0024,0,0,0,.8975.7847,2.3449,2.3449,0,0,0,1.1533.2744,1.7033,1.7033,0,0,0,1.0654-.2949,1.07,1.07,0,0,0,.1211-1.5215,1.5971,1.5971,0,0,0-.9453-.3955l-.55-.0806a4.585,4.585,0,0,1-.8848-.2075,2.4505,2.4505,0,0,1-.7031-.3755,1.6079,1.6079,0,0,1-.47-.583,1.9081,1.9081,0,0,1-.167-.8315,1.9852,1.9852,0,0,1,.1875-.8911,1.7967,1.7967,0,0,1,.5156-.6372,2.26,2.26,0,0,1,.7842-.3819,3.6261,3.6261,0,0,1,.9785-.1274,3.06,3.06,0,0,1,1.415.2949,3.1742,3.1742,0,0,1,.9991.8179l-.711.6435a2.1308,2.1308,0,0,0-.67-.583,2.1593,2.1593,0,0,0-1.1133-.2617,1.5349,1.5349,0,0,0-1.0117.2881.9714.9714,0,0,0-.3418.7847.8194.8194,0,0,0,.3418.7373,2.5464,2.5464,0,0,0,.9854.3349l.5361.0806a2.8789,2.8789,0,0,1,1.6357.6636,1.746,1.746,0,0,1,.4825,1.28,1.9615,1.9615,0,0,1-.6836,1.5821A2.8241,2.8241,0,0,1,279.78,79.5626Z"/><path d="M286.83,79.5626a3.1094,3.1094,0,0,1-1.28-.2544,2.76,2.76,0,0,1-.9785-.7309,3.35,3.35,0,0,1-.63-1.1392,5.1276,5.1276,0,0,1,0-2.9829,3.3482,3.3482,0,0,1,.63-1.1465,2.7641,2.7641,0,0,1,.9785-.73,3.1014,3.1014,0,0,1,1.28-.2549,2.9421,2.9421,0,0,1,1.2471.2539,2.7713,2.7713,0,0,1,.9384.7016,3.1352,3.1352,0,0,1,.5967,1.0621,4.2117,4.2117,0,0,1,.207,1.3491v.5078h-4.9736V76.52a2.3445,2.3445,0,0,0,.1416.8242,1.9648,1.9648,0,0,0,.4014.664,1.846,1.846,0,0,0,.6435.4424,2.2158,2.2158,0,0,0,.8653.1607,2.1092,2.1092,0,0,0,1.1465-.3081,2.0206,2.0206,0,0,0,.7568-.8853l.7646.5532a2.6706,2.6706,0,0,1-1.0459,1.1538A3.1561,3.1561,0,0,1,286.83,79.5626Zm0-6.3408a2.0423,2.0423,0,0,0-.8047.1533,1.8145,1.8145,0,0,0-.623.4327,2.0469,2.0469,0,0,0-.4092.66,2.2961,2.2961,0,0,0-.1475.833v.0933h3.8213v-.147a2.1058,2.1058,0,0,0-.5029-1.4722A1.7163,1.7163,0,0,0,286.83,73.2218Z"/><rect class="cls-4" x="206.1143" y="14.4372" width="100.3846" height="100.3846" rx="6.5935"/><rect class="cls-4" x="213.162" y="21.4273" width="7.1785" height="7.1785" rx="0.4715"/><rect class="cls-4" x="227.1106" y="21.4273" width="7.1785" height="7.1785" rx="0.4715"/><rect class="cls-4" x="240.7845" y="21.4273" width="7.1785" height="7.1785" rx="0.4715"/><line class="cls-14" x1="206.4558" y1="35.039" x2="306.8404" y2="35.039"/><line class="cls-13" x1="237.5906" y1="45.6983" x2="264.9386" y2="45.6983"/><line class="cls-13" x1="276.9975" y1="45.6983" x2="268.8147" y2="45.6983"/><line class="cls-13" x1="276.9975" y1="53.9559" x2="249.7573" y2="53.9559"/><line class="cls-13" x1="245.7735" y1="53.9559" x2="237.5906" y2="53.9559"/><line class="cls-13" x1="264.9386" y1="95.3337" x2="237.5906" y2="95.3337"/><line class="cls-13" x1="276.9975" y1="95.3337" x2="268.2763" y2="95.3337"/><line class="cls-13" x1="276.9975" y1="104.5933" x2="249.7573" y2="104.5933"/><line class="cls-13" x1="245.7735" y1="104.5933" x2="237.5906" y2="104.5933"/><rect class="cls-4" x="216.5767" y="64.002" width="80.1243" height="21.9645" rx="1.8792"/><line class="cls-13" x1="122.4559" y1="184.1647" x2="172.9073" y2="184.1647"/><polygon points="170.462 192.521 184.933 184.165 170.462 175.809 170.462 192.521"/><line class="cls-13" x1="122.456" y1="114.8218" x2="122.456" y2="182.7467"/><path d="M355.1457,111.7111h3.1367a4.0862,4.0862,0,0,1,1.5821.2949,3.197,3.197,0,0,1,1.2129.8779,3.9781,3.9781,0,0,1,.7714,1.4615,7.9432,7.9432,0,0,1,0,4.0888,3.9808,3.9808,0,0,1-.7714,1.4614,3.1961,3.1961,0,0,1-1.2129.878,4.0862,4.0862,0,0,1-1.5821.2949h-3.1367Zm3.1367,8.3652a2.81,2.81,0,0,0,1.06-.1943,2.2834,2.2834,0,0,0,.8311-.57,2.6344,2.6344,0,0,0,.5429-.9184,3.6812,3.6812,0,0,0,.1944-1.24v-1.5283a3.6841,3.6841,0,0,0-.1944-1.24,2.644,2.644,0,0,0-.5429-.9185,2.2955,2.2955,0,0,0-.8311-.57,2.82,2.82,0,0,0-1.06-.1943h-2.0107v7.3735Z"/><path d="M369.0608,121.0685a1.0546,1.0546,0,0,1-.8653-.3218,1.5991,1.5991,0,0,1-.3281-.8042H367.8a1.7888,1.7888,0,0,1-.75.9654,2.3354,2.3354,0,0,1-1.2471.3212,2.4232,2.4232,0,0,1-1.7089-.5629,1.9755,1.9755,0,0,1-.61-1.5284,1.7464,1.7464,0,0,1,.7168-1.5014,3.8159,3.8159,0,0,1,2.2324-.523H367.8V116.43a1.497,1.497,0,0,0-.4014-1.126,1.7169,1.7169,0,0,0-1.2334-.3886,1.8568,1.8568,0,0,0-1.0527.2812,2.324,2.324,0,0,0-.7041.751l-.6435-.6035a2.4487,2.4487,0,0,1,.8984-.9585,2.83,2.83,0,0,1,1.5557-.3955,2.86,2.86,0,0,1,1.957.6157,2.1642,2.1642,0,0,1,.6973,1.7119v3.7993h.791v.9517Zm-3.084-.751a2.7186,2.7186,0,0,0,.7383-.0937,1.8146,1.8146,0,0,0,.5761-.2681,1.313,1.313,0,0,0,.375-.4023.9543.9543,0,0,0,.1338-.4956v-1.14h-1.4209a2.592,2.592,0,0,0-1.3467.2681.8648.8648,0,0,0-.4228.7773v.2818a.9375.9375,0,0,0,.3691.791A1.6047,1.6047,0,0,0,365.9768,120.3175Z"/><path d="M372.7209,121.0685a1.1,1.1,0,0,1-.8516-.3145,1.1679,1.1679,0,0,1-.288-.8227v-4.8286h-1.14v-.9517h.6436a.628.628,0,0,0,.4756-.1411.73.73,0,0,0,.1279-.4893v-1.2871h.9648v1.9175h1.5157v.9517h-1.5157v5.0141h1.4082v.9517Z"/><path d="M380.926,121.0685a1.0544,1.0544,0,0,1-.8652-.3218,1.5992,1.5992,0,0,1-.3282-.8042h-.0674a1.7879,1.7879,0,0,1-.75.9654,2.3352,2.3352,0,0,1-1.247.3212,2.4234,2.4234,0,0,1-1.709-.5629,1.9758,1.9758,0,0,1-.61-1.5284,1.7464,1.7464,0,0,1,.7168-1.5014,3.8162,3.8162,0,0,1,2.2325-.523h1.3671V116.43a1.4969,1.4969,0,0,0-.4013-1.126,1.7173,1.7173,0,0,0-1.2334-.3886,1.8571,1.8571,0,0,0-1.0528.2812,2.324,2.324,0,0,0-.7041.751l-.6435-.6035a2.4494,2.4494,0,0,1,.8984-.9585,2.83,2.83,0,0,1,1.5557-.3955,2.86,2.86,0,0,1,1.957.6157,2.1639,2.1639,0,0,1,.6973,1.7119v3.7993h.791v.9517Zm-3.084-.751a2.7176,2.7176,0,0,0,.7383-.0937,1.8162,1.8162,0,0,0,.5762-.2681,1.3154,1.3154,0,0,0,.375-.4023.9551.9551,0,0,0,.1337-.4956v-1.14h-1.4209a2.5913,2.5913,0,0,0-1.3466.2681.8647.8647,0,0,0-.4229.7773v.2818a.9376.9376,0,0,0,.3692.791A1.6046,1.6046,0,0,0,377.842,120.3175Z"/><path d="M388.8215,121.2291a3.1094,3.1094,0,0,1-1.28-.2544,2.76,2.76,0,0,1-.9785-.7309,3.35,3.35,0,0,1-.63-1.1392,5.1276,5.1276,0,0,1,0-2.9829,3.3482,3.3482,0,0,1,.63-1.1465,2.7641,2.7641,0,0,1,.9785-.73,3.1014,3.1014,0,0,1,1.28-.2549,2.9421,2.9421,0,0,1,1.2471.2539,2.7713,2.7713,0,0,1,.9384.7016,3.1335,3.1335,0,0,1,.5967,1.0621,4.2116,4.2116,0,0,1,.2071,1.3491v.5078h-4.9737v.3218a2.3445,2.3445,0,0,0,.1416.8242,1.9662,1.9662,0,0,0,.4014.6641,1.8458,1.8458,0,0,0,.6435.4423,2.2158,2.2158,0,0,0,.8653.1607,2.1092,2.1092,0,0,0,1.1465-.3081,2.0206,2.0206,0,0,0,.7568-.8853l.7646.5532a2.6718,2.6718,0,0,1-1.0458,1.1539A3.1575,3.1575,0,0,1,388.8215,121.2291Zm0-6.3408a2.0423,2.0423,0,0,0-.8047.1533,1.8145,1.8145,0,0,0-.623.4327,2.0469,2.0469,0,0,0-.4092.66,2.2961,2.2961,0,0,0-.1475.833v.0933h3.8213v-.147a2.1053,2.1053,0,0,0-.5029-1.4721A1.716,1.716,0,0,0,388.8215,114.8883Z"/><path d="M393.5813,121.0685V114.151h1.0722v1.1133h.0537a2.2636,2.2636,0,0,1,.7168-.9292,2.0277,2.0277,0,0,1,1.24-.3452,2.1735,2.1735,0,0,1,1.6963.69,2.8089,2.8089,0,0,1,.623,1.9507v4.4375h-1.0723V116.81q0-1.8677-1.5683-1.8677a2.3964,2.3964,0,0,0-.6231.0806,1.8025,1.8025,0,0,0-.5429.2417,1.1934,1.1934,0,0,0-.3828.41,1.1682,1.1682,0,0,0-.1407.5844v4.81Z"/><path d="M403.77,121.2291a3.1872,3.1872,0,0,1-1.3007-.2544,2.6512,2.6512,0,0,1-.9717-.7241,3.2218,3.2218,0,0,1-.6035-1.14,5.5235,5.5235,0,0,1,0-3.003,3.23,3.23,0,0,1,.6035-1.14,2.6555,2.6555,0,0,1,.9717-.7236,3.1791,3.1791,0,0,1,1.3007-.2549,2.7729,2.7729,0,0,1,1.6553.4492,2.7321,2.7321,0,0,1,.9317,1.1729l-.8985.456a1.624,1.624,0,0,0-.6162-.831,1.8484,1.8484,0,0,0-1.0723-.295,2.1459,2.1459,0,0,0-.8447.1538,1.6582,1.6582,0,0,0-.6035.4292,1.8121,1.8121,0,0,0-.3623.6568,2.7835,2.7835,0,0,0-.12.8379v1.18a2.2472,2.2472,0,0,0,.4892,1.4951,1.7755,1.7755,0,0,0,1.4414.583,1.9471,1.9471,0,0,0,1.877-1.2066l.7773.523a2.7488,2.7488,0,0,1-.999,1.1929A2.9208,2.9208,0,0,1,403.77,121.2291Z"/><path d="M407.9387,121.0685V114.151h1.0723v1.2735h.0673a2.0917,2.0917,0,0,1,.67-.8848,2.06,2.06,0,0,1,1.3271-.3887h.416v1.0723h-.63a2.4215,2.4215,0,0,0-1.3613.3286.9685.9685,0,0,0-.4892.8242v4.6924Z"/><path d="M417.2561,114.151h1.06l-3.0966,8.5264a3.93,3.93,0,0,1-.2413.5161,1.019,1.019,0,0,1-.2949.3281,1.167,1.167,0,0,1-.4365.1743,3.2262,3.2262,0,0,1-.6367.0537h-.5488v-.9516h1.0859l.5225-1.4727-2.5879-7.1743h1.0732l1.6621,4.6963.3213,1.124h.0674l.375-1.124Z"/><path d="M419.6828,114.151h1.0723v1.1133h.0537a1.9466,1.9466,0,0,1,.7842-.9624,2.3531,2.3531,0,0,1,1.24-.312,2.6248,2.6248,0,0,1,1.166.2549,2.5389,2.5389,0,0,1,.8916.7236,3.322,3.322,0,0,1,.5635,1.14,5.8988,5.8988,0,0,1,0,3.003,3.313,3.313,0,0,1-.5635,1.14,2.5348,2.5348,0,0,1-.8916.7241,2.6313,2.6313,0,0,1-1.166.2544,2.0946,2.0946,0,0,1-2.0244-1.2739h-.0537V123.75h-1.0723Zm2.8555,6.1265a1.8474,1.8474,0,0,0,1.4346-.5723,2.1419,2.1419,0,0,0,.5224-1.5029v-1.1856a2.1415,2.1415,0,0,0-.5224-1.5024,1.8474,1.8474,0,0,0-1.4346-.5723,2.3328,2.3328,0,0,0-.69.1011,1.9191,1.9191,0,0,0-.5694.2759,1.3323,1.3323,0,0,0-.3828.4243,1.0678,1.0678,0,0,0-.1406.5322v2.5874a1.2531,1.2531,0,0,0,.1406.6,1.349,1.349,0,0,0,.3828.4444,1.7162,1.7162,0,0,0,.5694.2763A2.484,2.484,0,0,0,422.5383,120.2775Z"/><path d="M428.9065,121.0685a1.1,1.1,0,0,1-.8516-.3145,1.1675,1.1675,0,0,1-.2881-.8227v-4.8286h-1.14v-.9517h.6435a.628.628,0,0,0,.4756-.1411.73.73,0,0,0,.1279-.4893v-1.2871h.9649v1.9175h1.5156v.9517h-1.5156v5.0141h1.4082v.9517Z"/><path d="M432.6193,112.5285a.6553.6553,0,0,1-.5029-.1675.6188.6188,0,0,1-.1543-.4356v-.1743a.6193.6193,0,0,1,.1543-.4355.8369.8369,0,0,1,1.0059,0,.6193.6193,0,0,1,.1543.4355v.1743a.6188.6188,0,0,1-.1543.4356A.6567.6567,0,0,1,432.6193,112.5285Zm-.5361,1.6225h1.0723v6.9175h-1.0723Z"/><path d="M438.049,121.2291a3.119,3.119,0,0,1-1.2734-.2544,2.7415,2.7415,0,0,1-.9854-.7309,3.4136,3.4136,0,0,1-.6367-1.1392,4.9817,4.9817,0,0,1,0-2.9829,3.4112,3.4112,0,0,1,.6367-1.1465,2.746,2.746,0,0,1,.9854-.73,3.111,3.111,0,0,1,1.2734-.2549,3.065,3.065,0,0,1,1.2666.2549,2.8332,2.8332,0,0,1,.9854.73,3.3728,3.3728,0,0,1,.6435,1.1465,4.98,4.98,0,0,1,0,2.9829,3.3751,3.3751,0,0,1-.6435,1.1392,2.8284,2.8284,0,0,1-.9854.7309A3.0729,3.0729,0,0,1,438.049,121.2291Zm0-.9516a1.9482,1.9482,0,0,0,1.4209-.5362,2.193,2.193,0,0,0,.55-1.6357v-.9922a2.1925,2.1925,0,0,0-.55-1.6352,2.1508,2.1508,0,0,0-2.8418,0,2.1888,2.1888,0,0,0-.55,1.6352v.9922a2.1893,2.1893,0,0,0,.55,1.6357A1.9483,1.9483,0,0,0,438.049,120.2775Z"/><path d="M442.9426,121.0685V114.151h1.0723v1.1133h.0537a2.2619,2.2619,0,0,1,.7168-.9292,2.0274,2.0274,0,0,1,1.24-.3452,2.1734,2.1734,0,0,1,1.6963.69,2.8089,2.8089,0,0,1,.623,1.9507v4.4375h-1.0722V116.81q0-1.8677-1.5684-1.8677a2.3962,2.3962,0,0,0-.623.0806,1.8031,1.8031,0,0,0-.543.2417,1.1944,1.1944,0,0,0-.3828.41,1.1682,1.1682,0,0,0-.1406.5844v4.81Z"/><path d="M453.7209,111.1476h1.0723v6.2876h.0537l1.06-1.18,1.957-2.1045h1.3l-2.5606,2.7349,2.8155,4.1826h-1.3l-2.293-3.5259-1.0322,1.0591v2.4668h-1.0723Z"/><path d="M463.1584,121.2291a3.1094,3.1094,0,0,1-1.28-.2544,2.76,2.76,0,0,1-.9785-.7309,3.3513,3.3513,0,0,1-.63-1.1392,5.13,5.13,0,0,1,0-2.9829,3.35,3.35,0,0,1,.63-1.1465,2.765,2.765,0,0,1,.9785-.73,3.1014,3.1014,0,0,1,1.28-.2549,2.9418,2.9418,0,0,1,1.2471.2539,2.7727,2.7727,0,0,1,.9385.7016,3.135,3.135,0,0,1,.5966,1.0621,4.2116,4.2116,0,0,1,.2071,1.3491v.5078H461.174v.3218a2.3445,2.3445,0,0,0,.1416.8242,1.9662,1.9662,0,0,0,.4014.6641,1.8453,1.8453,0,0,0,.6436.4423,2.215,2.215,0,0,0,.8652.1607,2.1092,2.1092,0,0,0,1.1465-.3081,2.02,2.02,0,0,0,.7568-.8853l.7647.5532a2.6727,2.6727,0,0,1-1.0459,1.1539A3.1573,3.1573,0,0,1,463.1584,121.2291Zm0-6.3408a2.0423,2.0423,0,0,0-.8047.1533,1.8145,1.8145,0,0,0-.623.4327,2.0469,2.0469,0,0,0-.4092.66,2.2961,2.2961,0,0,0-.1475.833v.0933h3.8213v-.147a2.1049,2.1049,0,0,0-.5029-1.4721A1.716,1.716,0,0,0,463.1584,114.8883Z"/><path d="M472.1135,114.151h1.06l-3.0967,8.5264a3.9442,3.9442,0,0,1-.2412.5161,1.02,1.02,0,0,1-.295.3281,1.167,1.167,0,0,1-.4365.1743,3.2262,3.2262,0,0,1-.6367.0537h-.5488v-.9516h1.0859l.5225-1.4727-2.5879-7.1743h1.0732l1.6621,4.6963.3213,1.124h.0674l.375-1.124Z"/><path class="cls-19" d="M479.5862,108.5508c.2933-.4315.5848-.8642.8636-1.3059a13.329,13.329,0,0,1,.9319-1.2788,9.369,9.369,0,0,0,.852-3.7612c.396-9.9818-13.1114-11.6277-14.668-1.7663l-20.041-.3285-.05,3.0509,1.386.024-.058,3.4844,6.3622.1051.0571-3.4856,12.2935.2017C468.1618,109.6967,475.3915,112.7359,479.5862,108.5508Z"/><ellipse class="cls-20" cx="474.5173" cy="102.0997" rx="5.4422" ry="4.1943" transform="translate(337.2064 567.6496) rotate(-85.7099)"/><rect class="cls-21" x="348.7225" y="170.1066" width="129.8538" height="28.1162" rx="2.7066"/><polygon points="405.467 83.929 413.823 98.4 422.179 83.929 405.467 83.929"/><line class="cls-13" x1="307.5308" y1="50.8936" x2="411.3693" y2="50.8936"/><line class="cls-13" x1="411.7357" y1="83.9468" x2="411.7357" y2="50.8936"/><line class="cls-13" x1="415.4244" y1="83.9468" x2="415.4244" y2="50.8936"/><line class="cls-13" x1="415.4244" y1="50.8936" x2="519.4876" y2="50.8936"/><path d="M671.3119,168.2007h-1.564v-4.6922a4.6923,4.6923,0,0,0-9.3845,0v4.6922h-1.564a1.5641,1.5641,0,0,0-1.5641,1.5641v9.3844a1.5641,1.5641,0,0,0,1.5641,1.5641h12.5125a1.5641,1.5641,0,0,0,1.5641-1.5641v-9.3844A1.5641,1.5641,0,0,0,671.3119,168.2007Zm-9.3844-4.6922a3.1282,3.1282,0,0,1,6.2563,0v4.6922h-6.2563Zm9.3844,15.6407H658.7994v-9.3844h12.5125Z"/><rect x="658.1777" y="169.7648" width="13.1342" height="9.3844"/><line class="cls-13" x1="413.6495" y1="131.8201" x2="413.6495" y2="153.7288"/><polygon points="405.293 151.284 413.649 165.755 422.005 151.284 405.293 151.284"/><rect class="cls-21" x="348.7225" y="103.704" width="129.8538" height="28.1162" rx="2.7066"/></g></svg>