<?xml version="1.0" encoding="utf-8"?>
<!-- Generator: Adobe Illustrator 24.2.3, SVG Export Plug-In . SVG Version: 6.00 Build 0)  -->
<svg version="1.1" id="Layer_1" xmlns="http://www.w3.org/2000/svg" xmlns:xlink="http://www.w3.org/1999/xlink" x="0px" y="0px"
	 viewBox="0 0 790.1 250.2" style="enable-background:new 0 0 790.1 250.2;" xml:space="preserve">
<style type="text/css">
	.st0{fill:none;stroke:#FFFFFF;stroke-width:1.1527;stroke-linecap:round;stroke-miterlimit:10;}
	.st1{stroke:#FFFFFF;stroke-width:1.1527;stroke-miterlimit:10;}
	.st2{fill:none;stroke:#000000;stroke-width:1.1172;stroke-linecap:round;stroke-miterlimit:10;}
	.st3{fill:none;stroke:#000000;stroke-width:1.1172;stroke-miterlimit:10;}
	.st4{fill:none;stroke:#000000;stroke-width:1.1172;stroke-linejoin:round;}
	.st5{fill:none;stroke:#000000;stroke-width:0.884;stroke-miterlimit:10;}
	.st6{fill-rule:evenodd;clip-rule:evenodd;}
	.st7{fill:#FFFFFF;}
	.st8{fill:none;stroke:#000000;stroke-width:0.8394;stroke-miterlimit:10;}
	.st9{fill:none;stroke:#000000;stroke-linecap:round;stroke-miterlimit:10;}
	.st10{clip-path:url(#SVGID_2_);}
	.st11{clip-path:url(#SVGID_4_);}
	.st12{fill:none;stroke:#C6C6C6;stroke-width:1.1229;stroke-miterlimit:10;}
	.st13{clip-path:url(#SVGID_6_);}
	.st14{clip-path:url(#SVGID_8_);}
	.st15{fill:none;stroke:#C6C6C6;stroke-width:1.1172;stroke-miterlimit:10;}
	.st16{fill:#E0E0E0;}
	.st17{fill:#FFFFFF;stroke:#E0E0E0;stroke-width:1.1543;stroke-miterlimit:10;}
	.st18{clip-path:url(#SVGID_10_);}
	.st19{clip-path:url(#SVGID_12_);}
	.st20{fill:none;stroke:#C6C6C6;stroke-linecap:round;stroke-miterlimit:10;}
	.st21{fill:#C6C6C6;}
	.st22{fill:none;stroke:#C6C6C6;stroke-width:1.1172;stroke-linecap:round;stroke-miterlimit:10;}
</style>
<g id="Graphics">
	<circle cx="122.5" cy="67.5" r="27.7"/>
	<path class="st0" d="M130.4,58.1c0,4.1-3.3,7.5-7.5,7.5c-4.1,0-7.4-3.3-7.4-7.5s3.3-7.5,7.5-7.5l0,0
		C127.1,50.7,130.4,54,130.4,58.1"/>
	<path class="st0" d="M108.5,84c1.6-8.1,9.5-13.3,17.5-11.7c5.8,1.2,10.4,5.7,11.7,11.5"/>
	<circle class="st0" cx="123.1" cy="67.5" r="22"/>
	<path class="st1" d="M109.4,85.4c-0.8,0.5-1.8,0.3-2.4-0.4c-0.5-0.8-0.3-1.8,0.4-2.4c0.8-0.5,1.8-0.3,2.4,0.4
		C110.4,83.8,110.2,84.8,109.4,85.4C109.4,85.4,109.4,85.4,109.4,85.4z"/>
	<line class="st2" x1="150.1" y1="70.3" x2="181.3" y2="70.3"/>
	<polygon points="178.8,78.6 193.3,70.3 178.8,61.9 	"/>
	<path class="st3" d="M212.7,135.3h87.2c3.6,0,6.6,3,6.6,6.6v0v87.2c0,3.6-3,6.6-6.6,6.6l0,0h-87.2c-3.6,0-6.6-3-6.6-6.6v-87.2
		C206.1,138.3,209.1,135.3,212.7,135.3z"/>
	<path class="st3" d="M213.6,142.3h6.2c0.3,0,0.5,0.2,0.5,0.5v6.2c0,0.3-0.2,0.5-0.5,0.5h-6.2c-0.3,0-0.5-0.2-0.5-0.5v-6.2
		C213.2,142.5,213.4,142.3,213.6,142.3z"/>
	<path class="st3" d="M227.6,142.3h6.2c0.3,0,0.5,0.2,0.5,0.5v6.2c0,0.3-0.2,0.5-0.5,0.5h-6.2c-0.3,0-0.5-0.2-0.5-0.5v-6.2
		C227.1,142.5,227.3,142.3,227.6,142.3z"/>
	<path class="st3" d="M241.3,142.3h6.2c0.3,0,0.5,0.2,0.5,0.5v6.2c0,0.3-0.2,0.5-0.5,0.5h-6.2c-0.3,0-0.5-0.2-0.5-0.5v-6.2
		C240.8,142.5,241,142.3,241.3,142.3z"/>
	<line class="st4" x1="206.5" y1="155.9" x2="306.8" y2="155.9"/>
	<line class="st2" x1="237.6" y1="166.6" x2="264.9" y2="166.6"/>
	<line class="st2" x1="277" y1="166.6" x2="268.8" y2="166.6"/>
	<line class="st2" x1="277" y1="174.9" x2="249.8" y2="174.9"/>
	<line class="st2" x1="245.8" y1="174.9" x2="237.6" y2="174.9"/>
	<line class="st2" x1="264.9" y1="216.2" x2="237.6" y2="216.2"/>
	<line class="st2" x1="277" y1="216.2" x2="268.3" y2="216.2"/>
	<line class="st2" x1="277" y1="225.5" x2="249.8" y2="225.5"/>
	<line class="st2" x1="245.8" y1="225.5" x2="237.6" y2="225.5"/>
	<path class="st3" d="M218.5,184.9h76.4c1,0,1.9,0.8,1.9,1.9l0,0V205c0,1-0.8,1.9-1.9,1.9l0,0h-76.4c-1,0-1.9-0.8-1.9-1.9
		c0,0,0,0,0,0v-18.2C216.6,185.7,217.4,184.9,218.5,184.9z"/>
	<line class="st2" x1="306.1" y1="186.3" x2="329.5" y2="186.3"/>
	<polygon points="327,194.7 341.5,186.3 327,178 	"/>
	<path class="st5" d="M524.4,172.9h138.3c1.6,0,2.8,1.3,2.8,2.9v22.4c0,1.6-1.3,2.8-2.8,2.9H524.4c-1.6,0-2.8-1.3-2.8-2.9v-22.4
		C521.6,174.2,522.9,172.9,524.4,172.9L524.4,172.9z"/>
	<line class="st2" x1="478.5" y1="186.3" x2="501.9" y2="186.3"/>
	<polygon points="499.5,194.7 514,186.3 499.5,178 	"/>
	<path class="st3" d="M212.7,16.6h87.2c3.6,0,6.6,3,6.6,6.6c0,0,0,0,0,0v87.2c0,3.6-3,6.6-6.6,6.6l0,0h-87.2c-3.6,0-6.6-3-6.6-6.6
		V23.2C206.1,19.5,209.1,16.6,212.7,16.6z"/>
	<path class="st3" d="M213.6,23.6h6.2c0.3,0,0.5,0.2,0.5,0.5v6.2c0,0.3-0.2,0.5-0.5,0.5h-6.2c-0.3,0-0.5-0.2-0.5-0.5v-6.2
		C213.2,23.8,213.4,23.6,213.6,23.6z"/>
	<path class="st3" d="M227.6,23.6h6.2c0.3,0,0.5,0.2,0.5,0.5v6.2c0,0.3-0.2,0.5-0.5,0.5h-6.2c-0.3,0-0.5-0.2-0.5-0.5v-6.2
		C227.1,23.8,227.3,23.6,227.6,23.6z"/>
	<path class="st3" d="M241.3,23.6h6.2c0.3,0,0.5,0.2,0.5,0.5v6.2c0,0.3-0.2,0.5-0.5,0.5h-6.2c-0.3,0-0.5-0.2-0.5-0.5v-6.2
		C240.8,23.8,241,23.6,241.3,23.6z"/>
	<line class="st4" x1="206.5" y1="37.2" x2="306.8" y2="37.2"/>
	<line class="st2" x1="237.6" y1="47.9" x2="264.9" y2="47.9"/>
	<line class="st2" x1="277" y1="47.9" x2="268.8" y2="47.9"/>
	<line class="st2" x1="277" y1="56.1" x2="249.8" y2="56.1"/>
	<line class="st2" x1="245.8" y1="56.1" x2="237.6" y2="56.1"/>
	<line class="st2" x1="264.9" y1="97.5" x2="237.6" y2="97.5"/>
	<line class="st2" x1="277" y1="97.5" x2="268.3" y2="97.5"/>
	<line class="st2" x1="277" y1="106.8" x2="249.8" y2="106.8"/>
	<line class="st2" x1="245.8" y1="106.8" x2="237.6" y2="106.8"/>
	<path class="st3" d="M218.5,66.2h76.4c1,0,1.9,0.8,1.9,1.9v0v18.2c0,1-0.8,1.9-1.9,1.9l0,0h-76.4c-1,0-1.9-0.8-1.9-1.9l0,0V68
		C216.6,67,217.4,66.2,218.5,66.2L218.5,66.2z"/>
	<line class="st2" x1="122.5" y1="186.3" x2="172.9" y2="186.3"/>
	<polygon points="170.5,194.7 184.9,186.3 170.5,178 	"/>
	<line class="st2" x1="122.5" y1="117" x2="122.5" y2="184.9"/>
	<path class="st6" d="M479.6,110.7c0.3-0.4,0.6-0.9,0.9-1.3c0.3-0.4,0.6-0.9,0.9-1.3c0.5-1.2,0.8-2.5,0.9-3.8
		c0.4-10-13.1-11.6-14.7-1.8l-20-0.3l0,3.1l1.4,0l-0.1,3.5l6.4,0.1l0.1-3.5l12.3,0.2C468.2,111.9,475.4,114.9,479.6,110.7z"/>
	<path class="st7" d="M473.6,109.6c-2.3-0.5-3.7-3.4-3.2-6.3s2.8-4.9,5-4.4s3.7,3.4,3.2,6.3S475.9,110.2,473.6,109.6z"/>
	<path class="st8" d="M351.5,172.3h124.4c1.5,0,2.7,1.2,2.7,2.7c0,0,0,0,0,0v22.7c0,1.5-1.2,2.7-2.7,2.7l0,0H351.5
		c-1.5,0-2.7-1.2-2.7-2.7V175C348.8,173.5,350,172.3,351.5,172.3z"/>
	<line class="st9" x1="397.4" y1="53.4" x2="397.4" y2="90.1"/>
	<polygon points="390,87.9 397.4,100.9 404.9,87.9 	"/>
	<line class="st9" x1="307.5" y1="52.6" x2="397.4" y2="52.6"/>
	<path d="M671.3,170.4h-1.6v-4.7c0-2.6-2.1-4.7-4.7-4.7s-4.7,2.1-4.7,4.7c0,0,0,0,0,0v4.7h-1.6c-0.9,0-1.6,0.7-1.6,1.6v9.4
		c0,0.9,0.7,1.6,1.6,1.6h12.5c0.9,0,1.6-0.7,1.6-1.6v-9.4C672.9,171.1,672.2,170.4,671.3,170.4z M661.9,165.7c0-1.7,1.4-3.1,3.1-3.1
		c1.7,0,3.1,1.4,3.1,3.1c0,0,0,0,0,0v4.7h-6.3V165.7z M671.3,181.3h-12.5v-9.4h12.5V181.3z"/>
	<rect x="658.2" y="171.9" width="13.1" height="9.4"/>
	<line class="st2" x1="413.7" y1="134" x2="413.7" y2="155.9"/>
	<polygon points="405.3,153.4 413.7,167.9 422,153.4 	"/>
	<path class="st8" d="M351.5,105.9h124.4c1.5,0,2.7,1.2,2.7,2.7l0,0v22.7c0,1.5-1.2,2.7-2.7,2.7l0,0H351.5c-1.5,0-2.7-1.2-2.7-2.7
		v-22.7C348.8,107.1,350,105.9,351.5,105.9z"/>
	<g>
		<defs>
			<path id="SVGID_1_" d="M619.7,36.8c-0.2-2.3,1.6-4.3,3.9-4.5c2.3-0.2,4.3,1.6,4.5,3.9c0.2,2.3-1.6,4.3-3.9,4.5
				c-0.1,0-0.2,0-0.3,0c-2.2,0.1-4.1-1.6-4.2-3.8C619.7,36.9,619.7,36.9,619.7,36.8z M611.2,38.6l-4.1,3.4l3.4,5.2l4.9-1.4
				c1.2,0.9,2.6,1.7,4.1,2.2l1.1,4.4h6.7l1-4.4c1.5-0.5,2.8-1.2,4.1-2.2l4.9,1.6l3.5-5.3l-4.1-3.4c0.1-0.6,0.2-1.2,0.1-1.8
				c0-0.6,0-1.2-0.1-1.8l4.1-3.4l-3.5-5.3l-4.8,1.6c-1.2-0.9-2.6-1.7-4.1-2.2l-1.1-4.4h-6.7l-1,4.4c-1.5,0.5-2.8,1.2-4.1,2.2
				l-4.9-1.6l-3.5,5.3l4.1,3.4c-0.1,0.6-0.2,1.2-0.1,1.8C611,37.4,611.1,38,611.2,38.6L611.2,38.6z"/>
		</defs>
		<clipPath id="SVGID_2_">
			<use xlink:href="#SVGID_1_"  style="overflow:visible;"/>
		</clipPath>
		<g class="st10">
			<g>
				<defs>
					<rect id="SVGID_3_" x="607.2" y="21.3" width="33.5" height="31.1"/>
				</defs>
				<clipPath id="SVGID_4_">
					<use xlink:href="#SVGID_3_"  style="overflow:visible;"/>
				</clipPath>
				<g class="st11">
					<rect x="600.2" y="14.8" class="st12" width="47.5" height="44.1"/>
				</g>
			</g>
			<rect x="607.2" y="21.3" class="st12" width="33.5" height="31.1"/>
		</g>
	</g>
	<path class="st12" d="M619.7,36.8c-0.2-2.3,1.6-4.3,3.9-4.5c2.3-0.2,4.3,1.6,4.5,3.9c0.2,2.3-1.6,4.3-3.9,4.5c-0.1,0-0.2,0-0.3,0
		c-2.2,0.1-4.1-1.6-4.2-3.8C619.7,36.9,619.7,36.9,619.7,36.8z M611.2,38.6l-4.1,3.4l3.4,5.2l4.9-1.4c1.2,0.9,2.6,1.7,4.1,2.2
		l1.1,4.4h6.7l1-4.4c1.5-0.5,2.8-1.2,4.1-2.2l4.9,1.6l3.5-5.3l-4.1-3.4c0.1-0.6,0.2-1.2,0.1-1.8c0-0.6,0-1.2-0.1-1.8l4.1-3.4
		l-3.5-5.3l-4.8,1.6c-1.2-0.9-2.6-1.7-4.1-2.2l-1.1-4.4h-6.7l-1,4.4c-1.5,0.5-2.8,1.2-4.1,2.2l-4.9-1.6l-3.5,5.3l4.1,3.4
		c-0.1,0.6-0.2,1.2-0.1,1.8C611,37.4,611.1,38,611.2,38.6L611.2,38.6z"/>
	<g>
		<defs>
			<path id="SVGID_5_" d="M641.5,57.7c0-1.8,1.4-3.2,3.2-3.2s3.2,1.4,3.2,3.2c0,1.8-1.4,3.2-3.2,3.2c-1.7,0-3.2-1.4-3.2-3.1
				C641.5,57.7,641.5,57.7,641.5,57.7z M635,59.2l-3.1,2.8l2.6,4.3l3.8-1.2c0.9,0.8,2,1.4,3.1,1.8l0.9,3.7h5.2l0.8-3.7
				c1.1-0.4,2.2-1,3.1-1.8l3.8,1.3l2.7-4.4l-3.1-2.8c0.1-1,0.1-2,0-3l3.1-2.8L655,49l-3.7,1.3c-0.9-0.8-2-1.4-3.1-1.8l-0.9-3.7h-5.2
				l-0.8,3.7c-1.1,0.4-2.2,1-3.1,1.8l-3.8-1.3l-2.7,4.4l3.1,2.8C634.8,57.2,634.8,58.2,635,59.2L635,59.2z"/>
		</defs>
		<clipPath id="SVGID_6_">
			<use xlink:href="#SVGID_5_"  style="overflow:visible;"/>
		</clipPath>
		<g class="st13">
			<g>
				<defs>
					<rect id="SVGID_7_" x="631.9" y="44.8" width="25.8" height="25.8"/>
				</defs>
				<clipPath id="SVGID_8_">
					<use xlink:href="#SVGID_7_"  style="overflow:visible;"/>
				</clipPath>
				<g class="st14">
					<rect x="626.5" y="39.4" class="st15" width="36.5" height="36.5"/>
				</g>
			</g>
			<rect x="631.9" y="44.8" class="st15" width="25.8" height="25.8"/>
		</g>
	</g>
	<path class="st15" d="M641.5,57.7c0-1.8,1.4-3.2,3.2-3.2s3.2,1.4,3.2,3.2c0,1.8-1.4,3.2-3.2,3.2c-1.7,0-3.2-1.4-3.2-3.1
		C641.5,57.7,641.5,57.7,641.5,57.7z M635,59.2l-3.1,2.8l2.6,4.3l3.8-1.2c0.9,0.8,2,1.4,3.1,1.8l0.9,3.7h5.2l0.8-3.7
		c1.1-0.4,2.2-1,3.1-1.8l3.8,1.3l2.7-4.4l-3.1-2.8c0.1-1,0.1-2,0-3l3.1-2.8L655,49l-3.7,1.3c-0.9-0.8-2-1.4-3.1-1.8l-0.9-3.7h-5.2
		l-0.8,3.7c-1.1,0.4-2.2,1-3.1,1.8l-3.8-1.3l-2.7,4.4l3.1,2.8C634.8,57.2,634.8,58.2,635,59.2L635,59.2z"/>
	<path class="st16" d="M677.1,19.9h-79.1c-4,0-7.2,2.6-7.2,5.8v17.4h7.2V25.7h79.1v40.7h-50.3v5.8h7.2v11.6h-7.2v5.8h32.3v-5.8h-18
		V72.2h35.9c4,0,7.2-2.6,7.2-5.8V25.7C684.3,22.5,681.1,19.9,677.1,19.9z"/>
	<path class="st17" d="M544.8,46.7h76.4c1,0,1.9,0.8,1.9,1.9c0,0,0,0,0,0v18.2c0,1-0.8,1.9-1.9,1.9h-76.4c-1,0-1.9-0.8-1.9-1.9V48.6
		C542.9,47.5,543.7,46.7,544.8,46.7C544.8,46.7,544.8,46.7,544.8,46.7z"/>
	<g>
		<defs>
			<path id="SVGID_9_" d="M661,40c0-1.3,1.1-2.4,2.4-2.4c1.3,0,2.4,1.1,2.4,2.4s-1.1,2.4-2.4,2.4h0C662.1,42.4,661,41.4,661,40
				C661,40,661,40,661,40z M656.1,41.1l-2.3,2.1l1.9,3.2l2.8-0.9c0.7,0.6,1.5,1,2.3,1.4l0.6,2.8h3.9l0.6-2.8
				c0.9-0.3,1.7-0.8,2.3-1.4l2.8,1l2-3.3l-2.3-2.1c0.1-0.4,0.1-0.8,0.1-1.1c0-0.4,0-0.8-0.1-1.1l2.3-2.1l-2-3.3l-2.8,1
				c-0.7-0.6-1.5-1-2.3-1.4l-0.6-2.8h-3.9l-0.6,2.8c-0.9,0.3-1.7,0.8-2.3,1.4l-2.8-1l-2,3.3l2.3,2.1c-0.1,0.4-0.1,0.8-0.1,1.1
				C656,40.3,656,40.7,656.1,41.1z"/>
		</defs>
		<clipPath id="SVGID_10_">
			<use xlink:href="#SVGID_9_"  style="overflow:visible;"/>
		</clipPath>
		<g class="st18">
			<g>
				<defs>
					<rect id="SVGID_11_" x="653.7" y="30.2" width="19.5" height="19.5"/>
				</defs>
				<clipPath id="SVGID_12_">
					<use xlink:href="#SVGID_11_"  style="overflow:visible;"/>
				</clipPath>
				<g class="st19">
					<rect x="649.7" y="26.2" class="st15" width="27.6" height="27.6"/>
				</g>
			</g>
			<rect x="653.7" y="30.2" class="st15" width="19.5" height="19.5"/>
		</g>
	</g>
	<path class="st15" d="M661,40c0-1.3,1.1-2.4,2.4-2.4c1.3,0,2.4,1.1,2.4,2.4s-1.1,2.4-2.4,2.4h0C662.1,42.4,661,41.4,661,40
		C661,40,661,40,661,40z M656.1,41.1l-2.3,2.1l1.9,3.2l2.8-0.9c0.7,0.6,1.5,1,2.3,1.4l0.6,2.8h3.9l0.6-2.8c0.9-0.3,1.7-0.8,2.3-1.4
		l2.8,1l2-3.3l-2.3-2.1c0.1-0.4,0.1-0.8,0.1-1.1c0-0.4,0-0.8-0.1-1.1l2.3-2.1l-2-3.3l-2.8,1c-0.7-0.6-1.5-1-2.3-1.4l-0.6-2.8h-3.9
		l-0.6,2.8c-0.9,0.3-1.7,0.8-2.3,1.4l-2.8-1l-2,3.3l2.3,2.1c-0.1,0.4-0.1,0.8-0.1,1.1C656,40.3,656,40.7,656.1,41.1z"/>
	<line class="st20" x1="436.2" y1="53.4" x2="436.2" y2="90.1"/>
	<polygon class="st21" points="428.7,87.9 436.2,100.9 443.7,87.9 	"/>
	<line class="st22" x1="436.3" y1="52.6" x2="542" y2="52.6"/>
</g>
<g id="Text">
	<path d="M110.8,99.9v5.8c0,0.7,0.1,1.4,0.5,2c1,0.9,2.5,0.9,3.5,0c0.4-0.6,0.5-1.3,0.5-2v-5.8h1.1v5.5c0,0.6-0.1,1.2-0.2,1.8
		c-0.1,0.5-0.3,0.9-0.6,1.2c-0.3,0.3-0.6,0.6-1.1,0.7c-0.5,0.2-1,0.3-1.6,0.2c-0.5,0-1.1-0.1-1.6-0.2c-0.4-0.1-0.8-0.4-1-0.7
		c-0.3-0.4-0.5-0.8-0.6-1.2c-0.1-0.6-0.2-1.2-0.2-1.8v-5.5H110.8z"/>
	<path d="M120.8,109.4c-0.6,0-1.1-0.1-1.6-0.4c-0.4-0.2-0.8-0.6-1.1-1l0.8-0.6c0.2,0.3,0.5,0.6,0.9,0.8c0.4,0.2,0.8,0.3,1.2,0.3
		c0.4,0,0.8-0.1,1.1-0.3c0.5-0.4,0.5-1.1,0.1-1.5c0,0,0,0,0,0c-0.3-0.2-0.6-0.4-0.9-0.4l-0.6-0.1c-0.3,0-0.6-0.1-0.9-0.2
		c-0.3-0.1-0.5-0.2-0.7-0.4c-0.2-0.2-0.4-0.4-0.5-0.6c-0.1-0.3-0.2-0.5-0.2-0.8c0-0.3,0.1-0.6,0.2-0.9c0.1-0.2,0.3-0.5,0.5-0.6
		c0.2-0.2,0.5-0.3,0.8-0.4c0.3-0.1,0.6-0.1,1-0.1c0.5,0,1,0.1,1.4,0.3c0.4,0.2,0.7,0.5,1,0.8l-0.7,0.6c-0.2-0.2-0.4-0.4-0.7-0.6
		c-0.3-0.2-0.7-0.3-1.1-0.3c-0.4,0-0.7,0.1-1,0.3c-0.2,0.2-0.4,0.5-0.3,0.8c0,0.3,0.1,0.6,0.3,0.7c0.3,0.2,0.6,0.3,1,0.3l0.5,0.1
		c0.6,0,1.2,0.3,1.6,0.7c0.3,0.3,0.5,0.8,0.5,1.3c0,0.6-0.2,1.2-0.7,1.6C122.2,109.3,121.5,109.5,120.8,109.4z"/>
	<path d="M127.9,109.4c-0.4,0-0.9-0.1-1.3-0.3c-0.4-0.2-0.7-0.4-1-0.7c-0.3-0.3-0.5-0.7-0.6-1.1c-0.3-1-0.3-2,0-3
		c0.1-0.4,0.3-0.8,0.6-1.1c0.3-0.3,0.6-0.6,1-0.7c0.4-0.2,0.8-0.3,1.3-0.3c0.4,0,0.9,0.1,1.2,0.3c0.4,0.2,0.7,0.4,0.9,0.7
		c0.3,0.3,0.5,0.7,0.6,1.1c0.1,0.4,0.2,0.9,0.2,1.3v0.5h-5v0.3c0,0.3,0,0.6,0.1,0.8c0.1,0.2,0.2,0.5,0.4,0.7
		c0.2,0.2,0.4,0.3,0.6,0.4c0.3,0.1,0.6,0.2,0.9,0.2c0.4,0,0.8-0.1,1.1-0.3c0.3-0.2,0.6-0.5,0.8-0.9l0.8,0.6c-0.2,0.5-0.6,0.9-1,1.2
		C129,109.3,128.5,109.4,127.9,109.4z M127.9,103.1c-0.3,0-0.5,0-0.8,0.2c-0.2,0.1-0.4,0.2-0.6,0.4c-0.2,0.2-0.3,0.4-0.4,0.7
		c-0.1,0.3-0.2,0.5-0.1,0.8v0.1h3.8v-0.1c0-0.5-0.2-1.1-0.5-1.5C128.9,103.3,128.4,103.1,127.9,103.1z"/>
	<path d="M132.6,109.3v-6.9h1.1v1.3h0.1c0.1-0.3,0.4-0.7,0.7-0.9c0.4-0.3,0.9-0.4,1.3-0.4h0.4v1.1h-0.6c-0.5,0-0.9,0.1-1.4,0.3
		c-0.3,0.2-0.5,0.5-0.5,0.8v4.7L132.6,109.3z"/>
	<path d="M229.2,200.5c-1.1,0.1-2.1-0.4-2.8-1.2c-0.7-1-1.1-2.3-1-3.6c-0.1-1.3,0.3-2.6,1-3.6c0.7-0.8,1.7-1.3,2.8-1.3
		c1.4-0.1,2.7,0.7,3.2,2l-0.9,0.6c-0.2-0.5-0.5-0.9-0.9-1.2c-0.4-0.3-0.9-0.5-1.4-0.4c-0.4,0-0.7,0.1-1.1,0.2
		c-0.3,0.2-0.6,0.4-0.8,0.7c-0.2,0.3-0.4,0.6-0.5,1c-0.1,0.4-0.2,0.9-0.2,1.3v1.4c0,0.8,0.2,1.6,0.7,2.3c0.5,0.6,1.2,0.9,1.9,0.8
		c0.5,0,1.1-0.1,1.5-0.5c0.4-0.3,0.7-0.7,0.9-1.2l0.9,0.6c-0.3,0.6-0.7,1.2-1.3,1.6C230.6,200.3,229.9,200.5,229.2,200.5z"/>
	<path d="M234.1,200.3v-6.9h1.1v1.3h0.1c0.1-0.3,0.4-0.7,0.7-0.9c0.4-0.3,0.9-0.4,1.3-0.4h0.4v1.1H237c-0.5,0-0.9,0.1-1.4,0.3
		c-0.3,0.2-0.5,0.5-0.5,0.8v4.7L234.1,200.3z"/>
	<path d="M241.6,200.5c-0.4,0-0.9-0.1-1.3-0.3c-0.4-0.2-0.7-0.4-1-0.7c-0.3-0.3-0.5-0.7-0.6-1.1c-0.3-1-0.3-2,0-3
		c0.1-0.4,0.3-0.8,0.6-1.1c0.3-0.3,0.6-0.6,1-0.7c0.4-0.2,0.8-0.3,1.3-0.3c0.4,0,0.9,0.1,1.2,0.3c0.4,0.2,0.7,0.4,0.9,0.7
		c0.3,0.3,0.5,0.7,0.6,1.1c0.1,0.4,0.2,0.9,0.2,1.3v0.5h-5v0.3c0,0.3,0,0.6,0.1,0.8c0.1,0.2,0.2,0.5,0.4,0.7
		c0.2,0.2,0.4,0.3,0.6,0.4c0.3,0.1,0.6,0.2,0.9,0.2c0.4,0,0.8-0.1,1.1-0.3c0.3-0.2,0.6-0.5,0.8-0.9l0.8,0.6c-0.2,0.5-0.6,0.9-1,1.2
		C242.8,200.3,242.2,200.5,241.6,200.5z M241.6,194.1c-0.3,0-0.5,0-0.8,0.2c-0.2,0.1-0.4,0.2-0.6,0.4c-0.2,0.2-0.3,0.4-0.4,0.7
		c-0.1,0.3-0.2,0.5-0.1,0.8v0.1h3.8v-0.1c0-0.5-0.2-1.1-0.5-1.5C242.6,194.3,242.1,194.1,241.6,194.1z"/>
	<path d="M250.8,199.2L250.8,199.2c-0.4,0.8-1.2,1.3-2.1,1.3c-0.4,0-0.8-0.1-1.2-0.3c-0.3-0.2-0.7-0.4-0.9-0.7
		c-0.3-0.3-0.5-0.7-0.6-1.1c-0.3-1-0.3-2,0-3c0.1-0.4,0.3-0.8,0.6-1.1c0.2-0.3,0.5-0.6,0.9-0.7c0.4-0.2,0.8-0.3,1.2-0.3
		c0.4,0,0.9,0.1,1.2,0.3c0.4,0.2,0.6,0.6,0.8,1h0.1v-4.1h1.1v9.9h-1.1L250.8,199.2z M249,199.5c0.2,0,0.5,0,0.7-0.1
		c0.2-0.1,0.4-0.1,0.6-0.3c0.2-0.1,0.3-0.3,0.4-0.4c0.1-0.2,0.1-0.4,0.1-0.6v-2.6c0-0.2,0-0.4-0.1-0.5c-0.1-0.2-0.2-0.3-0.4-0.4
		c-0.2-0.1-0.4-0.2-0.6-0.3c-0.2-0.1-0.5-0.1-0.7-0.1c-0.5,0-1.1,0.2-1.4,0.6c-0.4,0.4-0.5,1-0.5,1.5v1.2c0,0.5,0.2,1.1,0.5,1.5
		C247.9,199.3,248.4,199.5,249,199.5z"/>
	<path d="M256.7,200.5c-0.4,0-0.9-0.1-1.3-0.3c-0.4-0.2-0.7-0.4-1-0.7c-0.3-0.3-0.5-0.7-0.6-1.1c-0.3-1-0.3-2,0-3
		c0.1-0.4,0.3-0.8,0.6-1.1c0.3-0.3,0.6-0.6,1-0.7c0.4-0.2,0.8-0.3,1.3-0.3c0.4,0,0.9,0.1,1.2,0.3c0.4,0.2,0.7,0.4,0.9,0.7
		c0.3,0.3,0.5,0.7,0.6,1.1c0.1,0.4,0.2,0.9,0.2,1.3v0.5h-5v0.3c0,0.3,0,0.6,0.1,0.8c0.1,0.2,0.2,0.5,0.4,0.7
		c0.2,0.2,0.4,0.3,0.6,0.4c0.3,0.1,0.6,0.2,0.9,0.2c0.4,0,0.8-0.1,1.1-0.3c0.3-0.2,0.6-0.5,0.8-0.9l0.8,0.6c-0.2,0.5-0.6,0.9-1,1.2
		C257.9,200.3,257.3,200.5,256.7,200.5z M256.7,194.1c-0.3,0-0.5,0-0.8,0.2c-0.2,0.1-0.4,0.2-0.6,0.4c-0.2,0.2-0.3,0.4-0.4,0.7
		c-0.1,0.3-0.2,0.5-0.1,0.8v0.1h3.8v-0.1c0-0.5-0.2-1.1-0.5-1.5C257.7,194.3,257.2,194.1,256.7,194.1z"/>
	<path d="M261.5,200.3v-6.9h1.1v1.1h0.1c0.2-0.4,0.4-0.7,0.7-0.9c0.4-0.2,0.8-0.4,1.2-0.3c0.6,0,1.3,0.2,1.7,0.7
		c0.4,0.5,0.7,1.2,0.6,2v4.4h-1.1V196c0-1.2-0.5-1.9-1.6-1.9c-0.2,0-0.4,0-0.6,0.1c-0.2,0-0.4,0.1-0.5,0.2c-0.2,0.1-0.3,0.2-0.4,0.4
		c-0.1,0.2-0.1,0.4-0.1,0.6v4.8L261.5,200.3z"/>
	<path d="M270.6,200.3c-0.3,0-0.6-0.1-0.9-0.3c-0.2-0.2-0.3-0.5-0.3-0.8v-4.8h-1.1v-1h0.6c0.2,0,0.3,0,0.5-0.1
		c0.1-0.1,0.1-0.3,0.1-0.5v-1.3h1v1.9h1.5v1h-1.5v5h1.4v1L270.6,200.3z"/>
	<path d="M274.3,191.8c-0.2,0-0.4,0-0.5-0.2c-0.1-0.1-0.2-0.3-0.2-0.4V191c0-0.2,0-0.3,0.2-0.4c0.3-0.2,0.7-0.2,1,0
		c0.1,0.1,0.2,0.3,0.2,0.4v0.2c0,0.2,0,0.3-0.2,0.4C274.7,191.7,274.5,191.8,274.3,191.8z M273.8,193.4h1.1v6.9h-1.1V193.4z"/>
	<path d="M282.2,200.3c-0.3,0-0.6-0.1-0.9-0.3c-0.2-0.2-0.3-0.5-0.3-0.8h-0.1c-0.1,0.4-0.4,0.7-0.8,1c-0.4,0.2-0.8,0.3-1.2,0.3
		c-0.6,0-1.2-0.2-1.7-0.6c-0.4-0.4-0.6-1-0.6-1.5c0-0.6,0.2-1.2,0.7-1.5c0.7-0.4,1.5-0.6,2.2-0.5h1.4v-0.7c0-0.4-0.1-0.8-0.4-1.1
		c-0.3-0.3-0.8-0.4-1.2-0.4c-0.4,0-0.7,0.1-1.1,0.3c-0.3,0.2-0.5,0.5-0.7,0.8l-0.6-0.6c0.2-0.4,0.5-0.7,0.9-1c0.5-0.3,1-0.4,1.6-0.4
		c0.7,0,1.4,0.2,2,0.6c0.5,0.4,0.7,1.1,0.7,1.7v3.8h0.8v1L282.2,200.3z M279.1,199.6c0.2,0,0.5,0,0.7-0.1c0.2-0.1,0.4-0.1,0.6-0.3
		c0.2-0.1,0.3-0.2,0.4-0.4c0.1-0.1,0.1-0.3,0.1-0.5v-1.1h-1.4c-0.5,0-0.9,0.1-1.3,0.3c-0.3,0.2-0.4,0.5-0.4,0.8v0.3
		c0,0.3,0.1,0.6,0.4,0.8C278.4,199.5,278.7,199.6,279.1,199.6z"/>
	<path d="M285.4,200.3c-0.3,0-0.6-0.1-0.9-0.3c-0.2-0.2-0.3-0.5-0.3-0.8v-8.8h1.1v9h1v1L285.4,200.3z"/>
	<path d="M368.9,181h2.8c0.5,0,1,0.1,1.4,0.3c0.4,0.2,0.8,0.5,1.1,0.9c0.3,0.4,0.6,0.9,0.7,1.5c0.3,1.3,0.3,2.7,0,4.1
		c-0.1,0.5-0.4,1-0.7,1.5c-0.3,0.4-0.7,0.7-1.1,0.9c-0.4,0.2-0.9,0.3-1.4,0.3h-2.8V181z M371.7,189.4c0.3,0,0.7-0.1,1-0.2
		c0.3-0.1,0.5-0.3,0.8-0.6c0.2-0.3,0.4-0.6,0.5-0.9c0.1-0.4,0.2-0.8,0.2-1.2v-1.5c0-0.4-0.1-0.8-0.2-1.2c-0.1-0.3-0.3-0.6-0.5-0.9
		c-0.2-0.2-0.5-0.4-0.8-0.6c-0.3-0.1-0.6-0.2-1-0.2h-1.8v7.4L371.7,189.4z"/>
	<path d="M377,190.4V181h5.1v1H378v3.1h3.9v1H378v3.2h4.1v1H377z"/>
	<path d="M386.3,185.8l-1.2,1.5v3.1h-1V181h1v5h0l1.2-1.6l2.6-3.4h1.2l-3.1,4l3.4,5.3h-1.3L386.3,185.8z"/>
	<path d="M396.6,189.5v-2.8h-2.4v-0.9h2.4V183h0.9v2.8h2.4v0.9h-2.4v2.8L396.6,189.5z"/>
	<path d="M407.6,190.5c-1,0-1.9-0.4-2.5-1.2c-0.7-1.1-1-2.3-0.9-3.6c-0.1-1.3,0.2-2.5,0.9-3.6c0.6-0.8,1.5-1.3,2.5-1.3
		c0.6,0,1.3,0.2,1.8,0.5c0.5,0.4,0.9,0.9,1.1,1.5l-0.8,0.6c-0.1-0.5-0.4-0.9-0.8-1.2c-0.4-0.3-0.8-0.5-1.3-0.4c-0.3,0-0.7,0.1-1,0.2
		c-0.3,0.2-0.5,0.4-0.7,0.7c-0.2,0.3-0.4,0.6-0.5,1c-0.1,0.4-0.2,0.9-0.2,1.3v1.4c0,0.8,0.2,1.6,0.6,2.3c0.4,0.5,1,0.9,1.7,0.8
		c0.5,0,1-0.1,1.4-0.5c0.4-0.3,0.7-0.8,0.8-1.2l0.8,0.6c-0.2,0.6-0.6,1.2-1.1,1.6C408.9,190.4,408.3,190.6,407.6,190.5z"/>
	<path d="M412.1,190.4v-6.9h1v1.3h0.1c0.1-0.3,0.3-0.6,0.6-0.9c0.3-0.3,0.8-0.4,1.2-0.4h0.4v1.1h-0.6c-0.4,0-0.9,0.1-1.2,0.3
		c-0.3,0.2-0.4,0.5-0.4,0.8v4.7L412.1,190.4z"/>
	<path d="M418.8,190.5c-0.4,0-0.8-0.1-1.2-0.3c-0.3-0.2-0.6-0.4-0.9-0.7c-0.3-0.3-0.5-0.7-0.6-1.1c-0.3-1-0.3-2,0-3
		c0.1-0.4,0.3-0.8,0.6-1.1c0.5-0.6,1.2-1,2-1c0.4,0,0.8,0.1,1.1,0.3c0.3,0.2,0.6,0.4,0.8,0.7c0.2,0.3,0.4,0.7,0.5,1.1
		c0.1,0.4,0.2,0.9,0.2,1.3v0.5H417v0.3c0,0.3,0,0.6,0.1,0.8c0.1,0.2,0.2,0.5,0.4,0.7c0.2,0.2,0.4,0.3,0.6,0.4
		c0.2,0.1,0.5,0.2,0.8,0.2c0.4,0,0.7-0.1,1-0.3c0.3-0.2,0.5-0.5,0.7-0.9l0.7,0.6c-0.2,0.5-0.5,0.9-0.9,1.2
		C419.9,190.4,419.3,190.5,418.8,190.5z M418.8,184.2c-0.3,0-0.5,0-0.7,0.2c-0.2,0.1-0.4,0.2-0.6,0.4c-0.2,0.2-0.3,0.4-0.4,0.7
		c-0.1,0.3-0.1,0.5-0.1,0.8v0.1h3.4v-0.1c0-0.5-0.1-1-0.5-1.5C419.7,184.4,419.3,184.2,418.8,184.2z"/>
	<path d="M427.1,189.3L427.1,189.3c-0.3,0.8-1.1,1.3-1.9,1.3c-0.4,0-0.7-0.1-1.1-0.3c-0.3-0.2-0.6-0.4-0.8-0.7
		c-0.2-0.3-0.4-0.7-0.5-1.1c-0.2-1-0.2-2,0-3c0.1-0.4,0.3-0.8,0.5-1.1c0.2-0.3,0.5-0.5,0.8-0.7c0.3-0.2,0.7-0.3,1.1-0.3
		c0.4,0,0.8,0.1,1.1,0.3c0.3,0.2,0.6,0.6,0.7,1h0v-4.1h1v9.9h-1V189.3z M425.5,189.6c0.2,0,0.4,0,0.6-0.1c0.2-0.1,0.4-0.2,0.5-0.3
		c0.1-0.1,0.3-0.3,0.3-0.4c0.1-0.2,0.1-0.4,0.1-0.6v-2.6c0-0.2,0-0.4-0.1-0.5c-0.1-0.2-0.2-0.3-0.3-0.4c-0.2-0.1-0.3-0.2-0.5-0.3
		c-0.2-0.1-0.4-0.1-0.6-0.1c-0.5,0-1,0.2-1.3,0.6c-0.3,0.4-0.5,1-0.5,1.5v1.2c0,0.5,0.1,1.1,0.5,1.5
		C424.5,189.4,425,189.6,425.5,189.6L425.5,189.6z"/>
	<path d="M432.5,190.5c-0.4,0-0.8-0.1-1.2-0.3c-0.3-0.2-0.6-0.4-0.9-0.7c-0.3-0.3-0.5-0.7-0.6-1.1c-0.3-1-0.3-2,0-3
		c0.1-0.4,0.3-0.8,0.6-1.1c0.5-0.6,1.2-1,2-1c0.4,0,0.8,0.1,1.1,0.3c0.3,0.2,0.6,0.4,0.8,0.7c0.2,0.3,0.4,0.7,0.5,1.1
		c0.1,0.4,0.2,0.9,0.2,1.3v0.5h-4.5v0.3c0,0.3,0,0.6,0.1,0.8c0.1,0.2,0.2,0.5,0.4,0.7c0.2,0.2,0.4,0.3,0.6,0.4
		c0.2,0.1,0.5,0.2,0.8,0.2c0.4,0,0.7-0.1,1-0.3c0.3-0.2,0.5-0.5,0.7-0.9l0.7,0.6c-0.2,0.5-0.5,0.9-0.9,1.2
		C433.5,190.4,433,190.5,432.5,190.5z M432.5,184.2c-0.3,0-0.5,0-0.7,0.2c-0.2,0.1-0.4,0.2-0.6,0.4c-0.2,0.2-0.3,0.4-0.4,0.7
		c-0.1,0.3-0.1,0.5-0.1,0.8v0.1h3.4v-0.1c0-0.5-0.1-1-0.5-1.5C433.4,184.4,432.9,184.2,432.5,184.2z"/>
	<path d="M436.7,190.4v-6.9h1v1.1h0c0.1-0.4,0.4-0.7,0.6-0.9c0.3-0.2,0.7-0.4,1.1-0.3c0.6,0,1.2,0.2,1.5,0.7c0.4,0.6,0.6,1.3,0.6,2
		v4.4h-1v-4.3c0-1.2-0.5-1.9-1.4-1.9c-0.2,0-0.4,0-0.6,0.1c-0.2,0.1-0.3,0.1-0.5,0.2c-0.1,0.1-0.3,0.2-0.3,0.4
		c-0.1,0.2-0.1,0.4-0.1,0.6v4.8L436.7,190.4z"/>
	<path d="M445,190.4c-0.3,0-0.6-0.1-0.8-0.3c-0.2-0.2-0.3-0.5-0.3-0.8v-4.8h-1v-1h0.6c0.2,0,0.3,0,0.4-0.1c0.1-0.1,0.1-0.3,0.1-0.5
		v-1.3h0.9v1.9h1.4v1h-1.4v5h1.3v1H445z"/>
	<path d="M448.3,181.8c-0.2,0-0.3,0-0.5-0.2c-0.1-0.1-0.1-0.3-0.1-0.4v-0.2c0-0.2,0-0.3,0.1-0.4c0.3-0.2,0.6-0.2,0.9,0
		c0.1,0.1,0.1,0.3,0.1,0.4v0.2c0,0.2,0,0.3-0.1,0.4C448.7,181.8,448.5,181.8,448.3,181.8z M447.9,183.5h1v6.9h-1V183.5z"/>
	<path d="M455.4,190.4c-0.3,0-0.6-0.1-0.8-0.3c-0.2-0.2-0.3-0.5-0.3-0.8h-0.1c-0.1,0.4-0.3,0.7-0.7,1c-0.3,0.2-0.7,0.3-1.1,0.3
		c-0.6,0-1.1-0.2-1.5-0.6c-0.4-0.4-0.6-1-0.5-1.5c0-0.6,0.2-1.1,0.6-1.5c0.6-0.4,1.3-0.6,2-0.5h1.2v-0.7c0-0.4-0.1-0.8-0.4-1.1
		c-0.3-0.3-0.7-0.4-1.1-0.4c-0.3,0-0.7,0.1-0.9,0.3c-0.3,0.2-0.5,0.5-0.6,0.8l-0.6-0.6c0.4-0.9,1.3-1.4,2.2-1.4
		c0.6,0,1.3,0.2,1.8,0.6c0.4,0.5,0.7,1.1,0.6,1.7v3.8h0.7v1L455.4,190.4z M452.6,189.6c0.2,0,0.4,0,0.7-0.1c0.2-0.1,0.4-0.1,0.5-0.3
		c0.1-0.1,0.3-0.2,0.3-0.4c0.1-0.2,0.1-0.3,0.1-0.5v-1.1H453c-0.4,0-0.8,0.1-1.2,0.3c-0.3,0.2-0.4,0.5-0.4,0.8v0.3
		c0,0.3,0.1,0.6,0.3,0.8C452,189.5,452.3,189.6,452.6,189.6z"/>
	<path d="M458.4,190.4c-0.3,0-0.6-0.1-0.8-0.3c-0.2-0.2-0.3-0.5-0.3-0.8v-8.8h1v9h0.9v1H458.4z"/>
	<path d="M532.3,191v-9.4h5.7v1h-4.6v3.1h4.3v1h-4.3v3.2h4.6v1L532.3,191z"/>
	<path d="M540,191v-6.9h1.1v1.1h0.1c0.2-0.4,0.4-0.7,0.7-0.9c0.4-0.2,0.8-0.4,1.2-0.3c0.6,0,1.3,0.2,1.7,0.7c0.4,0.5,0.7,1.2,0.6,2
		v4.4h-1.1v-4.3c0-1.2-0.5-1.9-1.6-1.9c-0.2,0-0.4,0-0.6,0.1c-0.2,0.1-0.4,0.1-0.5,0.2c-0.2,0.1-0.3,0.2-0.4,0.4
		c-0.1,0.2-0.1,0.4-0.1,0.6v4.8L540,191z"/>
	<path d="M550.2,191.2c-0.4,0-0.9-0.1-1.3-0.3c-0.4-0.2-0.7-0.4-1-0.7c-0.3-0.3-0.5-0.7-0.6-1.1c-0.3-1-0.3-2,0-3
		c0.1-0.4,0.3-0.8,0.6-1.1c0.3-0.3,0.6-0.6,1-0.7c0.4-0.2,0.9-0.3,1.3-0.3c0.6,0,1.2,0.1,1.7,0.4c0.4,0.3,0.7,0.7,0.9,1.2l-0.9,0.5
		c-0.1-0.3-0.3-0.6-0.6-0.8c-0.3-0.2-0.7-0.3-1.1-0.3c-0.3,0-0.6,0-0.8,0.2c-0.2,0.1-0.4,0.2-0.6,0.4c-0.2,0.2-0.3,0.4-0.4,0.7
		c-0.1,0.3-0.1,0.6-0.1,0.8v1.2c0,0.5,0.2,1.1,0.5,1.5c0.4,0.4,0.9,0.6,1.4,0.6c0.8,0,1.6-0.5,1.9-1.2l0.8,0.5
		c-0.2,0.5-0.6,0.9-1,1.2C551.3,191,550.7,191.2,550.2,191.2z"/>
	<path d="M554.3,191v-6.9h1.1v1.3h0.1c0.1-0.3,0.4-0.7,0.7-0.9c0.4-0.3,0.9-0.4,1.3-0.4h0.4v1.1h-0.6c-0.5,0-0.9,0.1-1.4,0.3
		c-0.3,0.2-0.5,0.5-0.5,0.8v4.7L554.3,191z"/>
	<path d="M563.6,184.1h1.1l-3.1,8.5c-0.1,0.2-0.1,0.4-0.2,0.5c-0.1,0.1-0.2,0.2-0.3,0.3c-0.1,0.1-0.3,0.1-0.4,0.2
		c-0.2,0-0.4,0.1-0.6,0.1h-0.5v-1h1.1l0.5-1.5l-2.6-7.2h1.1l1.7,4.7l0.3,1.1h0.1l0.4-1.1L563.6,184.1z"/>
	<path d="M566.1,184.1h1.1v1.1h0.1c0.1-0.4,0.4-0.7,0.8-1c0.4-0.2,0.8-0.3,1.2-0.3c0.4,0,0.8,0.1,1.2,0.3c0.3,0.2,0.7,0.4,0.9,0.7
		c0.3,0.3,0.5,0.7,0.6,1.1c0.3,1,0.3,2,0,3c-0.1,0.4-0.3,0.8-0.6,1.1c-0.2,0.3-0.5,0.6-0.9,0.7c-0.4,0.2-0.8,0.3-1.2,0.3
		c-0.9,0-1.7-0.5-2-1.3h-0.1v3.8h-1.1L566.1,184.1z M568.9,190.2c0.5,0,1.1-0.2,1.4-0.6c0.4-0.4,0.5-1,0.5-1.5V187
		c0-0.5-0.2-1.1-0.5-1.5c-0.4-0.4-0.9-0.6-1.4-0.6c-0.2,0-0.5,0-0.7,0.1c-0.2,0.1-0.4,0.2-0.6,0.3c-0.2,0.1-0.3,0.3-0.4,0.4
		c-0.1,0.2-0.1,0.3-0.1,0.5v2.6c0,0.2,0,0.4,0.1,0.6c0.1,0.2,0.2,0.3,0.4,0.4c0.2,0.1,0.4,0.2,0.6,0.3
		C568.5,190.2,568.7,190.2,568.9,190.2L568.9,190.2z"/>
	<path d="M575.3,191c-0.3,0-0.6-0.1-0.9-0.3c-0.2-0.2-0.3-0.5-0.3-0.8V185H573v-1h0.6c0.2,0,0.3,0,0.5-0.1c0.1-0.1,0.1-0.3,0.1-0.5
		v-1.3h1v1.9h1.5v1h-1.5v5h1.4v1H575.3z"/>
	<path d="M581,191.2c-0.4,0-0.9-0.1-1.3-0.3c-0.4-0.2-0.7-0.4-1-0.7c-0.3-0.3-0.5-0.7-0.6-1.1c-0.3-1-0.3-2,0-3
		c0.1-0.4,0.3-0.8,0.6-1.1c0.3-0.3,0.6-0.6,1-0.7c0.4-0.2,0.8-0.3,1.3-0.3c0.4,0,0.9,0.1,1.2,0.3c0.4,0.2,0.7,0.4,0.9,0.7
		c0.3,0.3,0.5,0.7,0.6,1.1c0.1,0.4,0.2,0.9,0.2,1.3v0.5h-5v0.3c0,0.3,0,0.6,0.1,0.8c0.1,0.2,0.2,0.5,0.4,0.7
		c0.2,0.2,0.4,0.3,0.6,0.4c0.3,0.1,0.6,0.2,0.9,0.2c0.4,0,0.8-0.1,1.1-0.3c0.3-0.2,0.6-0.5,0.8-0.9l0.8,0.6c-0.2,0.5-0.6,0.9-1,1.2
		C582.2,191,581.6,191.2,581,191.2z M581,184.8c-0.3,0-0.5,0-0.8,0.2c-0.2,0.1-0.4,0.2-0.6,0.4c-0.2,0.2-0.3,0.4-0.4,0.7
		c-0.1,0.3-0.2,0.5-0.1,0.8v0.1h3.8v-0.1c0-0.5-0.2-1.1-0.5-1.5C582,185,581.5,184.8,581,184.8L581,184.8z"/>
	<path d="M590.2,189.9L590.2,189.9c-0.4,0.8-1.2,1.3-2.1,1.3c-0.4,0-0.8-0.1-1.2-0.3c-0.3-0.2-0.7-0.4-0.9-0.7
		c-0.3-0.3-0.5-0.7-0.6-1.1c-0.3-1-0.3-2,0-3c0.1-0.4,0.3-0.8,0.6-1.1c0.2-0.3,0.5-0.6,0.9-0.7c0.4-0.2,0.8-0.3,1.2-0.3
		c0.4,0,0.9,0.1,1.2,0.3c0.4,0.2,0.6,0.6,0.8,1h0.1v-4.1h1.1v9.9h-1.1L590.2,189.9z M588.4,190.2c0.2,0,0.5,0,0.7-0.1
		c0.2-0.1,0.4-0.2,0.6-0.3c0.2-0.1,0.3-0.3,0.4-0.4c0.1-0.2,0.1-0.4,0.1-0.6v-2.6c0-0.2,0-0.4-0.1-0.5c-0.1-0.2-0.2-0.3-0.4-0.4
		c-0.2-0.1-0.4-0.2-0.6-0.3c-0.2-0.1-0.5-0.1-0.7-0.1c-0.5,0-1.1,0.2-1.4,0.6c-0.4,0.4-0.5,1-0.5,1.5v1.2c0,0.5,0.2,1.1,0.5,1.5
		C587.3,190,587.9,190.2,588.4,190.2z"/>
	<path d="M599.3,191.2c-0.4,0-0.9-0.1-1.3-0.3c-0.4-0.2-0.7-0.4-1-0.7c-0.3-0.3-0.5-0.7-0.6-1.1c-0.3-1-0.3-2,0-3
		c0.1-0.4,0.3-0.8,0.6-1.1c0.3-0.3,0.6-0.6,1-0.7c0.4-0.2,0.9-0.3,1.3-0.3c0.6,0,1.2,0.1,1.7,0.4c0.4,0.3,0.7,0.7,0.9,1.2L601,186
		c-0.1-0.3-0.3-0.6-0.6-0.8c-0.3-0.2-0.7-0.3-1.1-0.3c-0.3,0-0.6,0-0.8,0.2c-0.2,0.1-0.4,0.2-0.6,0.4c-0.2,0.2-0.3,0.4-0.4,0.7
		c-0.1,0.3-0.1,0.6-0.1,0.8v1.2c0,0.5,0.2,1.1,0.5,1.5c0.4,0.4,0.9,0.6,1.4,0.6c0.8,0,1.6-0.5,1.9-1.2l0.8,0.5
		c-0.2,0.5-0.6,0.9-1,1.2C600.4,191,599.9,191.2,599.3,191.2z"/>
	<path d="M603.5,191v-6.9h1.1v1.3h0.1c0.1-0.3,0.4-0.7,0.7-0.9c0.4-0.3,0.9-0.4,1.3-0.4h0.4v1.1h-0.6c-0.5,0-0.9,0.1-1.4,0.3
		c-0.3,0.2-0.5,0.5-0.5,0.8v4.7L603.5,191z"/>
	<path d="M610.9,191.2c-0.4,0-0.9-0.1-1.3-0.3c-0.4-0.2-0.7-0.4-1-0.7c-0.3-0.3-0.5-0.7-0.6-1.1c-0.3-1-0.3-2,0-3
		c0.1-0.4,0.3-0.8,0.6-1.1c0.3-0.3,0.6-0.6,1-0.7c0.4-0.2,0.8-0.3,1.3-0.3c0.4,0,0.9,0.1,1.2,0.3c0.4,0.2,0.7,0.4,0.9,0.7
		c0.3,0.3,0.5,0.7,0.6,1.1c0.1,0.4,0.2,0.9,0.2,1.3v0.5h-5v0.3c0,0.3,0,0.6,0.1,0.8c0.1,0.2,0.2,0.5,0.4,0.7
		c0.2,0.2,0.4,0.3,0.6,0.4c0.3,0.1,0.6,0.2,0.9,0.2c0.4,0,0.8-0.1,1.1-0.3c0.3-0.2,0.6-0.5,0.8-0.9l0.8,0.6c-0.2,0.5-0.6,0.9-1,1.2
		C612.1,191,611.5,191.2,610.9,191.2z M610.9,184.8c-0.3,0-0.5,0-0.8,0.2c-0.2,0.1-0.4,0.2-0.6,0.4c-0.2,0.2-0.3,0.4-0.4,0.7
		c-0.1,0.3-0.2,0.5-0.1,0.8v0.1h3.8v-0.1c0-0.5-0.2-1.1-0.5-1.5C611.9,185,611.4,184.8,610.9,184.8L610.9,184.8z"/>
	<path d="M620.1,189.9L620.1,189.9c-0.4,0.8-1.2,1.3-2.1,1.3c-0.4,0-0.8-0.1-1.2-0.3c-0.3-0.2-0.7-0.4-0.9-0.7
		c-0.3-0.3-0.5-0.7-0.6-1.1c-0.3-1-0.3-2,0-3c0.1-0.4,0.3-0.8,0.6-1.1c0.2-0.3,0.5-0.6,0.9-0.7c0.4-0.2,0.8-0.3,1.2-0.3
		c0.4,0,0.9,0.1,1.2,0.3c0.4,0.2,0.6,0.6,0.8,1h0.1v-4.1h1.1v9.9h-1.1V189.9z M618.3,190.2c0.2,0,0.5,0,0.7-0.1
		c0.2-0.1,0.4-0.2,0.6-0.3c0.2-0.1,0.3-0.3,0.4-0.4c0.1-0.2,0.1-0.4,0.1-0.6v-2.6c0-0.2,0-0.4-0.1-0.5c-0.1-0.2-0.2-0.3-0.4-0.4
		c-0.2-0.1-0.4-0.2-0.6-0.3c-0.2-0.1-0.5-0.1-0.7-0.1c-0.5,0-1.1,0.2-1.4,0.6c-0.4,0.4-0.5,1-0.5,1.5v1.2c0,0.5,0.2,1.1,0.5,1.5
		C617.2,190,617.8,190.2,618.3,190.2z"/>
	<path d="M626,191.2c-0.4,0-0.9-0.1-1.3-0.3c-0.4-0.2-0.7-0.4-1-0.7c-0.3-0.3-0.5-0.7-0.6-1.1c-0.3-1-0.3-2,0-3
		c0.1-0.4,0.3-0.8,0.6-1.1c0.3-0.3,0.6-0.6,1-0.7c0.4-0.2,0.8-0.3,1.3-0.3c0.4,0,0.9,0.1,1.2,0.3c0.4,0.2,0.7,0.4,0.9,0.7
		c0.3,0.3,0.5,0.7,0.6,1.1c0.1,0.4,0.2,0.9,0.2,1.3v0.5h-5v0.3c0,0.3,0,0.6,0.1,0.8c0.1,0.2,0.2,0.5,0.4,0.7
		c0.2,0.2,0.4,0.3,0.6,0.4c0.3,0.1,0.6,0.2,0.9,0.2c0.4,0,0.8-0.1,1.1-0.3c0.3-0.2,0.6-0.5,0.8-0.9l0.8,0.6c-0.2,0.5-0.6,0.9-1,1.2
		C627.2,191,626.6,191.2,626,191.2z M626,184.8c-0.3,0-0.5,0-0.8,0.2c-0.2,0.1-0.4,0.2-0.6,0.4c-0.2,0.2-0.3,0.4-0.4,0.7
		c-0.1,0.3-0.2,0.5-0.1,0.8v0.1h3.8v-0.1c0-0.5-0.2-1.1-0.5-1.5C627,185,626.5,184.8,626,184.8L626,184.8z"/>
	<path d="M630.8,191v-6.9h1.1v1.1h0.1c0.2-0.4,0.4-0.7,0.7-0.9c0.4-0.2,0.8-0.4,1.2-0.3c0.6,0,1.3,0.2,1.7,0.7
		c0.4,0.5,0.7,1.2,0.6,2v4.4h-1.1v-4.3c0-1.2-0.5-1.9-1.6-1.9c-0.2,0-0.4,0-0.6,0.1c-0.2,0.1-0.4,0.1-0.5,0.2
		c-0.2,0.1-0.3,0.2-0.4,0.4c-0.1,0.2-0.1,0.4-0.1,0.6v4.8L630.8,191z"/>
	<path d="M639.9,191c-0.3,0-0.6-0.1-0.9-0.3c-0.2-0.2-0.3-0.5-0.3-0.8V185h-1.1v-1h0.6c0.2,0,0.3,0,0.5-0.1c0.1-0.1,0.1-0.3,0.1-0.5
		v-1.3h1v1.9h1.5v1h-1.5v5h1.4v1H639.9z"/>
	<path d="M643.7,182.5c-0.2,0-0.4,0-0.5-0.2c-0.1-0.1-0.2-0.3-0.2-0.4v-0.2c0-0.2,0-0.3,0.2-0.4c0.3-0.2,0.7-0.2,1,0
		c0.1,0.1,0.2,0.3,0.2,0.4v0.2c0,0.2,0,0.3-0.2,0.4C644,182.4,643.8,182.5,643.7,182.5z M643.1,184.1h1.1v6.9h-1.1L643.1,184.1z"/>
	<path d="M651.5,191c-0.3,0-0.6-0.1-0.9-0.3c-0.2-0.2-0.3-0.5-0.3-0.8h-0.1c-0.1,0.4-0.4,0.7-0.8,1c-0.4,0.2-0.8,0.3-1.2,0.3
		c-0.6,0-1.2-0.2-1.7-0.6c-0.4-0.4-0.6-1-0.6-1.5c0-0.6,0.2-1.2,0.7-1.5c0.7-0.4,1.5-0.6,2.2-0.5h1.4v-0.7c0-0.4-0.1-0.8-0.4-1.1
		c-0.3-0.3-0.8-0.4-1.2-0.4c-0.4,0-0.7,0.1-1.1,0.3c-0.3,0.2-0.5,0.5-0.7,0.8l-0.6-0.6c0.2-0.4,0.5-0.7,0.9-1c0.5-0.3,1-0.4,1.6-0.4
		c0.7,0,1.4,0.2,2,0.6c0.5,0.4,0.7,1.1,0.7,1.7v3.8h0.8v1L651.5,191z M648.4,190.3c0.2,0,0.5,0,0.7-0.1c0.2-0.1,0.4-0.1,0.6-0.3
		c0.2-0.1,0.3-0.2,0.4-0.4c0.1-0.1,0.1-0.3,0.1-0.5v-1.1h-1.4c-0.5,0-0.9,0.1-1.3,0.3c-0.3,0.2-0.4,0.5-0.4,0.8v0.3
		c0,0.3,0.1,0.6,0.4,0.8C647.7,190.2,648.1,190.3,648.4,190.3z"/>
	<path d="M654.8,191c-0.3,0-0.6-0.1-0.9-0.3c-0.2-0.2-0.3-0.5-0.3-0.8v-8.8h1.1v9h1v1H654.8z"/>
	<path d="M222.3,81.6v-9.4h3.7c0.7,0,1.4,0.2,1.9,0.7c0.9,1.2,0.9,2.8,0,3.9c-0.5,0.5-1.2,0.8-1.9,0.7h-2.6v4H222.3z M223.4,76.6
		h2.6c0.4,0,0.8-0.1,1-0.3c0.3-0.3,0.4-0.6,0.4-1v-0.7c0-0.4-0.1-0.7-0.4-1c-0.3-0.2-0.7-0.4-1-0.3h-2.6V76.6z"/>
	<path d="M235.2,81.6c-0.3,0-0.6-0.1-0.9-0.3c-0.2-0.2-0.3-0.5-0.3-0.8h-0.1c-0.1,0.4-0.4,0.7-0.8,1c-0.4,0.2-0.8,0.3-1.2,0.3
		c-0.6,0-1.2-0.2-1.7-0.6c-0.4-0.4-0.6-1-0.6-1.5c0-0.6,0.2-1.2,0.7-1.5c0.7-0.4,1.5-0.6,2.2-0.5h1.4v-0.7c0-0.4-0.1-0.8-0.4-1.1
		c-0.3-0.3-0.8-0.4-1.2-0.4c-0.4,0-0.7,0.1-1.1,0.3c-0.3,0.2-0.5,0.5-0.7,0.8l-0.6-0.6c0.2-0.4,0.5-0.7,0.9-1c0.5-0.3,1-0.4,1.6-0.4
		c0.7,0,1.4,0.2,2,0.6c0.5,0.4,0.7,1.1,0.7,1.7v3.8h0.8v1H235.2z M232.1,80.8c0.2,0,0.5,0,0.7-0.1c0.2-0.1,0.4-0.1,0.6-0.3
		c0.2-0.1,0.3-0.2,0.4-0.4c0.1-0.1,0.1-0.3,0.1-0.5v-1.1h-1.4c-0.5,0-0.9,0.1-1.3,0.3c-0.3,0.2-0.4,0.5-0.4,0.8v0.3
		c0,0.3,0.1,0.6,0.4,0.8C231.4,80.7,231.7,80.8,232.1,80.8z"/>
	<path d="M239.4,81.7c-0.6,0-1.1-0.1-1.6-0.4c-0.4-0.2-0.8-0.6-1.1-1l0.8-0.6c0.2,0.3,0.5,0.6,0.9,0.8c0.4,0.2,0.8,0.3,1.2,0.3
		c0.4,0,0.8-0.1,1.1-0.3c0.5-0.4,0.5-1.1,0.1-1.5c0,0,0,0,0,0c-0.3-0.2-0.6-0.4-0.9-0.4l-0.6-0.1c-0.3,0-0.6-0.1-0.9-0.2
		c-0.3-0.1-0.5-0.2-0.7-0.4c-0.2-0.2-0.4-0.4-0.5-0.6c-0.1-0.3-0.2-0.5-0.2-0.8c0-0.3,0.1-0.6,0.2-0.9c0.1-0.2,0.3-0.5,0.5-0.6
		c0.2-0.2,0.5-0.3,0.8-0.4c0.3-0.1,0.6-0.1,1-0.1c0.5,0,1,0.1,1.4,0.3c0.4,0.2,0.7,0.5,1,0.8l-0.7,0.6c-0.2-0.2-0.4-0.4-0.7-0.6
		c-0.3-0.2-0.7-0.3-1.1-0.3c-0.4,0-0.7,0.1-1,0.3c-0.2,0.2-0.4,0.5-0.3,0.8c0,0.3,0.1,0.6,0.3,0.7c0.3,0.2,0.6,0.3,1,0.3l0.5,0.1
		c0.6,0,1.2,0.3,1.6,0.7c0.3,0.3,0.5,0.8,0.5,1.3c0,0.6-0.2,1.2-0.7,1.6C240.7,81.6,240.1,81.8,239.4,81.7z"/>
	<path d="M245.8,81.7c-0.6,0-1.1-0.1-1.6-0.4c-0.4-0.2-0.8-0.6-1.1-1l0.8-0.6c0.2,0.3,0.5,0.6,0.9,0.8c0.4,0.2,0.8,0.3,1.2,0.3
		c0.4,0,0.8-0.1,1.1-0.3c0.5-0.4,0.5-1.1,0.1-1.5c0,0,0,0,0,0c-0.3-0.2-0.6-0.4-0.9-0.4l-0.6-0.1c-0.3,0-0.6-0.1-0.9-0.2
		c-0.3-0.1-0.5-0.2-0.7-0.4c-0.2-0.2-0.4-0.4-0.5-0.6c-0.1-0.3-0.2-0.5-0.2-0.8c0-0.3,0.1-0.6,0.2-0.9c0.1-0.2,0.3-0.5,0.5-0.6
		c0.2-0.2,0.5-0.3,0.8-0.4c0.3-0.1,0.6-0.1,1-0.1c0.5,0,1,0.1,1.4,0.3c0.4,0.2,0.7,0.5,1,0.8l-0.7,0.6c-0.2-0.2-0.4-0.4-0.7-0.6
		c-0.3-0.2-0.7-0.3-1.1-0.3c-0.4,0-0.7,0.1-1,0.3c-0.2,0.2-0.4,0.5-0.3,0.8c0,0.3,0.1,0.6,0.3,0.7c0.3,0.2,0.6,0.3,1,0.3l0.5,0.1
		c0.6,0,1.2,0.3,1.6,0.7c0.3,0.3,0.5,0.8,0.5,1.3c0,0.6-0.2,1.2-0.7,1.6C247.2,81.6,246.5,81.8,245.8,81.7z"/>
	<path d="M250.3,74.6h1.1v1.1h0.1c0.1-0.4,0.4-0.7,0.8-1c0.4-0.2,0.8-0.3,1.2-0.3c0.4,0,0.8,0.1,1.2,0.3c0.3,0.2,0.7,0.4,0.9,0.7
		c0.3,0.3,0.5,0.7,0.6,1.1c0.3,1,0.3,2,0,3c-0.1,0.4-0.3,0.8-0.6,1.1c-0.2,0.3-0.5,0.6-0.9,0.7c-0.4,0.2-0.8,0.3-1.2,0.3
		c-0.9,0-1.7-0.5-2-1.3h-0.1v3.8h-1.1L250.3,74.6z M253.1,80.8c0.5,0,1.1-0.2,1.4-0.6c0.4-0.4,0.5-1,0.5-1.5v-1.2
		c0-0.5-0.2-1.1-0.5-1.5c-0.4-0.4-0.9-0.6-1.4-0.6c-0.2,0-0.5,0-0.7,0.1c-0.2,0.1-0.4,0.2-0.6,0.3c-0.2,0.1-0.3,0.3-0.4,0.4
		c-0.1,0.2-0.1,0.3-0.1,0.5v2.6c0,0.2,0,0.4,0.1,0.6c0.1,0.2,0.2,0.3,0.4,0.4c0.2,0.1,0.4,0.2,0.6,0.3
		C252.7,80.7,252.9,80.8,253.1,80.8z"/>
	<path d="M258.1,71.6h1.1v4.1h0.1c0.2-0.4,0.4-0.7,0.7-0.9c0.4-0.2,0.8-0.4,1.2-0.3c0.6,0,1.3,0.2,1.7,0.7c0.4,0.5,0.7,1.2,0.6,2
		v4.4h-1.1v-4.3c0-1.2-0.5-1.9-1.6-1.9c-0.2,0-0.4,0-0.6,0.1c-0.2,0-0.4,0.1-0.5,0.2c-0.2,0.1-0.3,0.2-0.4,0.4
		c-0.1,0.2-0.1,0.4-0.1,0.6v4.8h-1.1L258.1,71.6z"/>
	<path d="M265.7,81.6v-6.9h1.1v1.3h0.1c0.1-0.3,0.4-0.7,0.7-0.9c0.4-0.3,0.9-0.4,1.3-0.4h0.4v1.1h-0.6c-0.5,0-0.9,0.1-1.4,0.3
		c-0.3,0.2-0.5,0.5-0.5,0.8v4.7L265.7,81.6z"/>
	<path d="M275.6,81.6c-0.3,0-0.6-0.1-0.9-0.3c-0.2-0.2-0.3-0.5-0.3-0.8h-0.1c-0.1,0.4-0.4,0.7-0.8,1c-0.4,0.2-0.8,0.3-1.2,0.3
		c-0.6,0-1.2-0.2-1.7-0.6c-0.4-0.4-0.6-1-0.6-1.5c0-0.6,0.2-1.2,0.7-1.5c0.7-0.4,1.5-0.6,2.2-0.5h1.4v-0.7c0-0.4-0.1-0.8-0.4-1.1
		c-0.3-0.3-0.8-0.4-1.2-0.4c-0.4,0-0.7,0.1-1.1,0.3c-0.3,0.2-0.5,0.5-0.7,0.8l-0.6-0.6c0.2-0.4,0.5-0.7,0.9-1c0.5-0.3,1-0.4,1.6-0.4
		c0.7,0,1.4,0.2,2,0.6c0.5,0.4,0.7,1.1,0.7,1.7v3.8h0.8v1H275.6z M272.5,80.8c0.2,0,0.5,0,0.7-0.1c0.2-0.1,0.4-0.1,0.6-0.3
		c0.2-0.1,0.3-0.2,0.4-0.4c0.1-0.1,0.1-0.3,0.1-0.5v-1.1h-1.4c-0.5,0-0.9,0.1-1.3,0.3c-0.3,0.2-0.4,0.5-0.4,0.8v0.3
		c0,0.3,0.1,0.6,0.4,0.8C271.8,80.7,272.1,80.8,272.5,80.8L272.5,80.8z"/>
	<path d="M279.8,81.7c-0.6,0-1.1-0.1-1.6-0.4c-0.4-0.2-0.8-0.6-1.1-1l0.8-0.6c0.2,0.3,0.5,0.6,0.9,0.8c0.4,0.2,0.8,0.3,1.2,0.3
		c0.4,0,0.8-0.1,1.1-0.3c0.5-0.4,0.5-1.1,0.1-1.5c0,0,0,0,0,0c-0.3-0.2-0.6-0.4-0.9-0.4l-0.5-0.1c-0.3,0-0.6-0.1-0.9-0.2
		c-0.3-0.1-0.5-0.2-0.7-0.4c-0.2-0.2-0.4-0.4-0.5-0.6c-0.1-0.3-0.2-0.5-0.2-0.8c0-0.3,0.1-0.6,0.2-0.9c0.1-0.2,0.3-0.5,0.5-0.6
		c0.2-0.2,0.5-0.3,0.8-0.4c0.3-0.1,0.6-0.1,1-0.1c0.5,0,1,0.1,1.4,0.3c0.4,0.2,0.7,0.5,1,0.8l-0.7,0.6c-0.2-0.2-0.4-0.4-0.7-0.6
		c-0.3-0.2-0.7-0.3-1.1-0.3c-0.4,0-0.7,0.1-1,0.3c-0.2,0.2-0.4,0.5-0.3,0.8c0,0.3,0.1,0.6,0.3,0.7c0.3,0.2,0.6,0.3,1,0.3l0.5,0.1
		c0.6,0,1.2,0.3,1.6,0.7c0.3,0.3,0.5,0.8,0.5,1.3c0,0.6-0.2,1.2-0.7,1.6C281.1,81.6,280.5,81.8,279.8,81.7z"/>
	<path d="M286.8,81.7c-0.4,0-0.9-0.1-1.3-0.3c-0.4-0.2-0.7-0.4-1-0.7c-0.3-0.3-0.5-0.7-0.6-1.1c-0.3-1-0.3-2,0-3
		c0.1-0.4,0.3-0.8,0.6-1.1c0.3-0.3,0.6-0.6,1-0.7c0.4-0.2,0.8-0.3,1.3-0.3c0.4,0,0.9,0.1,1.2,0.3c0.4,0.2,0.7,0.4,0.9,0.7
		c0.3,0.3,0.5,0.7,0.6,1.1c0.1,0.4,0.2,0.9,0.2,1.3v0.5h-5v0.3c0,0.3,0,0.6,0.1,0.8c0.1,0.2,0.2,0.5,0.4,0.7
		c0.2,0.2,0.4,0.3,0.6,0.4c0.3,0.1,0.6,0.2,0.9,0.2c0.4,0,0.8-0.1,1.1-0.3c0.3-0.2,0.6-0.5,0.8-0.9l0.8,0.6c-0.2,0.5-0.6,0.9-1,1.2
		C288,81.6,287.4,81.7,286.8,81.7z M286.8,75.4c-0.3,0-0.5,0-0.8,0.2c-0.2,0.1-0.4,0.2-0.6,0.4c-0.2,0.2-0.3,0.4-0.4,0.7
		c-0.1,0.3-0.2,0.5-0.1,0.8v0.1h3.8v-0.1c0-0.5-0.2-1.1-0.5-1.5C287.8,75.6,287.3,75.4,286.8,75.4z"/>
	<path d="M355.2,113.9h3.1c0.5,0,1.1,0.1,1.6,0.3c0.5,0.2,0.9,0.5,1.2,0.9c0.4,0.4,0.6,0.9,0.8,1.5c0.4,1.3,0.4,2.7,0,4.1
		c-0.2,0.5-0.4,1-0.8,1.5c-0.3,0.4-0.7,0.7-1.2,0.9c-0.5,0.2-1,0.3-1.6,0.3h-3.1V113.9z M358.3,122.2c0.4,0,0.7-0.1,1.1-0.2
		c0.3-0.1,0.6-0.3,0.8-0.6c0.2-0.3,0.4-0.6,0.5-0.9c0.1-0.4,0.2-0.8,0.2-1.2v-1.5c0-0.4-0.1-0.8-0.2-1.2c-0.1-0.3-0.3-0.7-0.5-0.9
		c-0.2-0.2-0.5-0.4-0.8-0.6c-0.3-0.1-0.7-0.2-1.1-0.2h-2v7.4L358.3,122.2z"/>
	<path d="M369.1,123.2c-0.3,0-0.6-0.1-0.9-0.3c-0.2-0.2-0.3-0.5-0.3-0.8h-0.1c-0.1,0.4-0.4,0.7-0.8,1c-0.4,0.2-0.8,0.3-1.2,0.3
		c-0.6,0-1.2-0.2-1.7-0.6c-0.4-0.4-0.6-1-0.6-1.5c0-0.6,0.2-1.2,0.7-1.5c0.7-0.4,1.5-0.6,2.2-0.5h1.4v-0.7c0-0.4-0.1-0.8-0.4-1.1
		c-0.3-0.3-0.8-0.4-1.2-0.4c-0.4,0-0.7,0.1-1.1,0.3c-0.3,0.2-0.5,0.5-0.7,0.8l-0.6-0.6c0.2-0.4,0.5-0.7,0.9-1c0.5-0.3,1-0.4,1.6-0.4
		c0.7,0,1.4,0.2,2,0.6c0.5,0.4,0.7,1.1,0.7,1.7v3.8h0.8v1L369.1,123.2z M366,122.5c0.2,0,0.5,0,0.7-0.1c0.2-0.1,0.4-0.1,0.6-0.3
		c0.2-0.1,0.3-0.2,0.4-0.4c0.1-0.1,0.1-0.3,0.1-0.5v-1.1h-1.4c-0.5,0-0.9,0.1-1.3,0.3c-0.3,0.2-0.4,0.5-0.4,0.8v0.3
		c0,0.3,0.1,0.6,0.4,0.8C365.3,122.4,365.7,122.5,366,122.5z"/>
	<path d="M372.7,123.2c-0.3,0-0.6-0.1-0.9-0.3c-0.2-0.2-0.3-0.5-0.3-0.8v-4.8h-1.1v-1h0.6c0.2,0,0.3,0,0.5-0.1
		c0.1-0.1,0.1-0.3,0.1-0.5v-1.3h1v1.9h1.5v1h-1.5v5h1.4v1H372.7z"/>
	<path d="M381,123.2c-0.3,0-0.6-0.1-0.9-0.3c-0.2-0.2-0.3-0.5-0.3-0.8h-0.1c-0.1,0.4-0.4,0.7-0.8,1c-0.4,0.2-0.8,0.3-1.2,0.3
		c-0.6,0-1.2-0.2-1.7-0.6c-0.4-0.4-0.6-1-0.6-1.5c0-0.6,0.2-1.2,0.7-1.5c0.7-0.4,1.5-0.6,2.2-0.5h1.4v-0.7c0-0.4-0.1-0.8-0.4-1.1
		c-0.3-0.3-0.8-0.4-1.2-0.4c-0.4,0-0.7,0.1-1.1,0.3c-0.3,0.2-0.5,0.5-0.7,0.8l-0.6-0.6c0.2-0.4,0.5-0.7,0.9-1c0.5-0.3,1-0.4,1.6-0.4
		c0.7,0,1.4,0.2,2,0.6c0.5,0.4,0.7,1.1,0.7,1.7v3.8h0.8v1L381,123.2z M377.9,122.5c0.2,0,0.5,0,0.7-0.1c0.2-0.1,0.4-0.1,0.6-0.3
		c0.2-0.1,0.3-0.2,0.4-0.4c0.1-0.1,0.1-0.3,0.1-0.5v-1.1h-1.4c-0.5,0-0.9,0.1-1.3,0.3c-0.3,0.2-0.4,0.5-0.4,0.8v0.3
		c0,0.3,0.1,0.6,0.4,0.8C377.2,122.4,377.5,122.5,377.9,122.5L377.9,122.5z"/>
	<path d="M388.9,123.4c-0.4,0-0.9-0.1-1.3-0.3c-0.4-0.2-0.7-0.4-1-0.7c-0.3-0.3-0.5-0.7-0.6-1.1c-0.3-1-0.3-2,0-3
		c0.1-0.4,0.3-0.8,0.6-1.1c0.3-0.3,0.6-0.6,1-0.7c0.4-0.2,0.8-0.3,1.3-0.3c0.4,0,0.9,0.1,1.2,0.3c0.4,0.2,0.7,0.4,0.9,0.7
		c0.3,0.3,0.5,0.7,0.6,1.1c0.1,0.4,0.2,0.9,0.2,1.3v0.5h-5v0.3c0,0.3,0,0.6,0.1,0.8c0.1,0.2,0.2,0.5,0.4,0.7
		c0.2,0.2,0.4,0.3,0.6,0.4c0.3,0.1,0.6,0.2,0.9,0.2c0.4,0,0.8-0.1,1.1-0.3c0.3-0.2,0.6-0.5,0.8-0.9l0.8,0.6c-0.2,0.5-0.6,0.9-1,1.2
		C390,123.3,389.4,123.4,388.9,123.4z M388.9,117c-0.3,0-0.5,0-0.8,0.2c-0.2,0.1-0.4,0.2-0.6,0.4c-0.2,0.2-0.3,0.4-0.4,0.7
		c-0.1,0.3-0.2,0.5-0.1,0.8v0.1h3.8v-0.1c0-0.5-0.2-1.1-0.5-1.5C389.8,117.2,389.4,117,388.9,117z"/>
	<path d="M393.6,123.2v-6.9h1.1v1.1h0.1c0.2-0.4,0.4-0.7,0.7-0.9c0.4-0.2,0.8-0.4,1.2-0.3c0.6,0,1.3,0.2,1.7,0.7
		c0.4,0.5,0.7,1.2,0.6,2v4.4h-1.1V119c0-1.2-0.5-1.9-1.6-1.9c-0.2,0-0.4,0-0.6,0.1c-0.2,0-0.4,0.1-0.5,0.2c-0.2,0.1-0.3,0.2-0.4,0.4
		c-0.1,0.2-0.1,0.4-0.1,0.6v4.8L393.6,123.2z"/>
	<path d="M403.8,123.4c-0.4,0-0.9-0.1-1.3-0.3c-0.4-0.2-0.7-0.4-1-0.7c-0.3-0.3-0.5-0.7-0.6-1.1c-0.3-1-0.3-2,0-3
		c0.1-0.4,0.3-0.8,0.6-1.1c0.3-0.3,0.6-0.6,1-0.7c0.4-0.2,0.9-0.3,1.3-0.3c0.6,0,1.2,0.1,1.7,0.4c0.4,0.3,0.7,0.7,0.9,1.2l-0.9,0.5
		c-0.1-0.3-0.3-0.6-0.6-0.8c-0.3-0.2-0.7-0.3-1.1-0.3c-0.3,0-0.6,0-0.8,0.2c-0.2,0.1-0.4,0.2-0.6,0.4c-0.2,0.2-0.3,0.4-0.4,0.7
		c-0.1,0.3-0.1,0.6-0.1,0.8v1.2c0,0.5,0.2,1.1,0.5,1.5c0.4,0.4,0.9,0.6,1.4,0.6c0.8,0,1.6-0.5,1.9-1.2l0.8,0.5
		c-0.2,0.5-0.6,0.9-1,1.2C405,123.3,404.4,123.4,403.8,123.4z"/>
	<path d="M408,123.2v-6.9h1.1v1.3h0.1c0.1-0.3,0.4-0.7,0.7-0.9c0.4-0.3,0.9-0.4,1.3-0.4h0.4v1.1h-0.6c-0.5,0-0.9,0.1-1.4,0.3
		c-0.3,0.2-0.5,0.5-0.5,0.8v4.7L408,123.2z"/>
	<path d="M417.3,116.3h1.1l-3.1,8.5c-0.1,0.2-0.1,0.4-0.2,0.5c-0.1,0.1-0.2,0.2-0.3,0.3c-0.1,0.1-0.3,0.1-0.4,0.2
		c-0.2,0-0.4,0.1-0.6,0.1h-0.5v-1h1.1l0.5-1.5l-2.6-7.2h1.1l1.7,4.7l0.3,1.1h0.1l0.4-1.1L417.3,116.3z"/>
	<path d="M419.7,116.3h1.1v1.1h0.1c0.1-0.4,0.4-0.7,0.8-1c0.4-0.2,0.8-0.3,1.2-0.3c0.4,0,0.8,0.1,1.2,0.3c0.3,0.2,0.7,0.4,0.9,0.7
		c0.3,0.3,0.5,0.7,0.6,1.1c0.3,1,0.3,2,0,3c-0.1,0.4-0.3,0.8-0.6,1.1c-0.2,0.3-0.5,0.6-0.9,0.7c-0.4,0.2-0.8,0.3-1.2,0.3
		c-0.9,0-1.7-0.5-2-1.3h-0.1v3.8h-1.1L419.7,116.3z M422.6,122.4c0.5,0,1.1-0.2,1.4-0.6c0.4-0.4,0.5-1,0.5-1.5v-1.2
		c0-0.5-0.2-1.1-0.5-1.5c-0.4-0.4-0.9-0.6-1.4-0.6c-0.2,0-0.5,0-0.7,0.1c-0.2,0.1-0.4,0.2-0.6,0.3c-0.2,0.1-0.3,0.3-0.4,0.4
		c-0.1,0.2-0.1,0.3-0.1,0.5v2.6c0,0.2,0,0.4,0.1,0.6c0.1,0.2,0.2,0.3,0.4,0.4c0.2,0.1,0.4,0.2,0.6,0.3
		C422.1,122.4,422.3,122.4,422.6,122.4z"/>
	<path d="M428.9,123.2c-0.3,0-0.6-0.1-0.9-0.3c-0.2-0.2-0.3-0.5-0.3-0.8v-4.8h-1.1v-1h0.6c0.2,0,0.3,0,0.5-0.1
		c0.1-0.1,0.1-0.3,0.1-0.5v-1.3h1v1.9h1.5v1h-1.5v5h1.4v1H428.9z"/>
	<path d="M432.6,114.7c-0.2,0-0.4,0-0.5-0.2c-0.1-0.1-0.2-0.3-0.2-0.4v-0.2c0-0.2,0-0.3,0.2-0.4c0.3-0.2,0.7-0.2,1,0
		c0.1,0.1,0.2,0.3,0.2,0.4v0.2c0,0.2,0,0.3-0.2,0.4C433,114.6,432.8,114.7,432.6,114.7z M432.1,116.3h1.1v6.9h-1.1V116.3z"/>
	<path d="M438.1,123.4c-0.4,0-0.9-0.1-1.3-0.3c-0.4-0.2-0.7-0.4-1-0.7c-0.3-0.3-0.5-0.7-0.6-1.1c-0.3-1-0.3-2,0-3
		c0.1-0.4,0.4-0.8,0.6-1.1c0.3-0.3,0.6-0.6,1-0.7c0.4-0.2,0.8-0.3,1.3-0.3c0.4,0,0.9,0.1,1.3,0.3c0.4,0.2,0.7,0.4,1,0.7
		c0.3,0.3,0.5,0.7,0.6,1.1c0.3,1,0.3,2,0,3c-0.1,0.4-0.4,0.8-0.6,1.1c-0.3,0.3-0.6,0.6-1,0.7C438.9,123.3,438.5,123.4,438.1,123.4z
		 M438.1,122.4c0.5,0,1-0.2,1.4-0.5c0.4-0.4,0.6-1,0.5-1.6v-1c0-0.6-0.2-1.2-0.5-1.6c-0.8-0.7-2-0.7-2.8,0c-0.4,0.4-0.6,1-0.5,1.6v1
		c0,0.6,0.2,1.2,0.5,1.6C437,122.3,437.6,122.5,438.1,122.4z"/>
	<path d="M443,123.2v-6.9h1.1v1.1h0.1c0.2-0.4,0.4-0.7,0.7-0.9c0.4-0.2,0.8-0.4,1.2-0.3c0.6,0,1.3,0.2,1.7,0.7
		c0.4,0.5,0.7,1.2,0.6,2v4.4h-1.1V119c0-1.2-0.5-1.9-1.6-1.9c-0.2,0-0.4,0-0.6,0.1c-0.2,0-0.4,0.1-0.5,0.2c-0.2,0.1-0.3,0.2-0.4,0.4
		c-0.1,0.2-0.1,0.4-0.1,0.6v4.8L443,123.2z"/>
	<path d="M453.7,113.3h1.1v6.3h0.1l1.1-1.2l2-2.1h1.3l-2.6,2.7l2.8,4.2h-1.3l-2.3-3.5l-1,1.1v2.5h-1.1L453.7,113.3z"/>
	<path d="M463.2,123.4c-0.4,0-0.9-0.1-1.3-0.3c-0.4-0.2-0.7-0.4-1-0.7c-0.3-0.3-0.5-0.7-0.6-1.1c-0.3-1-0.3-2,0-3
		c0.1-0.4,0.3-0.8,0.6-1.1c0.3-0.3,0.6-0.6,1-0.7c0.4-0.2,0.8-0.3,1.3-0.3c0.4,0,0.9,0.1,1.2,0.3c0.4,0.2,0.7,0.4,0.9,0.7
		c0.3,0.3,0.5,0.7,0.6,1.1c0.1,0.4,0.2,0.9,0.2,1.3v0.5h-5v0.3c0,0.3,0,0.6,0.1,0.8c0.1,0.2,0.2,0.5,0.4,0.7
		c0.2,0.2,0.4,0.3,0.6,0.4c0.3,0.1,0.6,0.2,0.9,0.2c0.4,0,0.8-0.1,1.1-0.3c0.3-0.2,0.6-0.5,0.8-0.9l0.8,0.6c-0.2,0.5-0.6,0.9-1,1.2
		C464.4,123.3,463.8,123.4,463.2,123.4z M463.2,117c-0.3,0-0.5,0-0.8,0.2c-0.2,0.1-0.4,0.2-0.6,0.4c-0.2,0.2-0.3,0.4-0.4,0.7
		c-0.1,0.3-0.2,0.5-0.1,0.8v0.1h3.8v-0.1c0-0.5-0.2-1.1-0.5-1.5C464.2,117.2,463.7,117,463.2,117z"/>
	<path d="M472.1,116.3h1.1l-3.1,8.5c-0.1,0.2-0.1,0.4-0.2,0.5c-0.1,0.1-0.2,0.2-0.3,0.3c-0.1,0.1-0.3,0.1-0.4,0.2
		c-0.2,0-0.4,0.1-0.6,0.1h-0.5v-1h1.1l0.5-1.5l-2.6-7.2h1.1l1.7,4.7l0.3,1.1h0.1l0.4-1.1L472.1,116.3z"/>
	<path class="st21" d="M548.6,62.1v-9.4h3.7c0.7,0,1.4,0.2,1.9,0.7c0.9,1.2,0.9,2.8,0,3.9c-0.5,0.5-1.2,0.8-1.9,0.7h-2.6v4
		L548.6,62.1z M549.7,57.1h2.6c0.4,0,0.8-0.1,1-0.3c0.3-0.3,0.4-0.6,0.4-1v-0.7c0-0.4-0.1-0.7-0.4-1c-0.3-0.2-0.7-0.4-1-0.3h-2.6
		V57.1z"/>
	<path class="st21" d="M561.5,62.1c-0.3,0-0.6-0.1-0.9-0.3c-0.2-0.2-0.3-0.5-0.3-0.8h-0.1c-0.1,0.4-0.4,0.7-0.8,1
		c-0.4,0.2-0.8,0.3-1.2,0.3c-0.6,0-1.2-0.2-1.7-0.6c-0.4-0.4-0.6-1-0.6-1.5c0-0.6,0.2-1.2,0.7-1.5c0.7-0.4,1.5-0.6,2.2-0.5h1.4v-0.7
		c0-0.4-0.1-0.8-0.4-1.1c-0.3-0.3-0.8-0.4-1.2-0.4c-0.4,0-0.7,0.1-1.1,0.3c-0.3,0.2-0.5,0.5-0.7,0.8l-0.6-0.6c0.2-0.4,0.5-0.7,0.9-1
		c0.5-0.3,1-0.4,1.6-0.4c0.7,0,1.4,0.2,2,0.6c0.5,0.4,0.7,1.1,0.7,1.7v3.8h0.8v1H561.5z M558.4,61.3c0.2,0,0.5,0,0.7-0.1
		c0.2-0.1,0.4-0.1,0.6-0.3c0.2-0.1,0.3-0.2,0.4-0.4c0.1-0.1,0.1-0.3,0.1-0.5v-1.1h-1.4c-0.5,0-0.9,0.1-1.3,0.3
		c-0.3,0.2-0.4,0.5-0.4,0.8v0.3c0,0.3,0.1,0.6,0.4,0.8C557.7,61.3,558,61.4,558.4,61.3L558.4,61.3z"/>
	<path class="st21" d="M565.7,62.2c-0.6,0-1.1-0.1-1.6-0.4c-0.4-0.2-0.8-0.6-1.1-1l0.8-0.6c0.2,0.3,0.5,0.6,0.9,0.8
		c0.4,0.2,0.8,0.3,1.2,0.3c0.4,0,0.8-0.1,1.1-0.3c0.5-0.4,0.5-1.1,0.1-1.5c0,0,0,0,0,0c-0.3-0.2-0.6-0.4-0.9-0.4l-0.5-0.1
		c-0.3,0-0.6-0.1-0.9-0.2c-0.3-0.1-0.5-0.2-0.7-0.4c-0.2-0.2-0.4-0.4-0.5-0.6c-0.1-0.3-0.2-0.5-0.2-0.8c0-0.3,0.1-0.6,0.2-0.9
		c0.1-0.2,0.3-0.5,0.5-0.6c0.2-0.2,0.5-0.3,0.8-0.4c0.3-0.1,0.6-0.1,1-0.1c0.5,0,1,0.1,1.4,0.3c0.4,0.2,0.7,0.5,1,0.8l-0.7,0.6
		c-0.2-0.2-0.4-0.4-0.7-0.6c-0.3-0.2-0.7-0.3-1.1-0.3c-0.4,0-0.7,0.1-1,0.3c-0.2,0.2-0.4,0.5-0.3,0.8c0,0.3,0.1,0.6,0.3,0.7
		c0.3,0.2,0.6,0.3,1,0.3l0.5,0.1c0.6,0,1.2,0.3,1.6,0.7c0.3,0.3,0.5,0.8,0.5,1.3c0,0.6-0.2,1.2-0.7,1.6
		C567,62.1,566.4,62.3,565.7,62.2z"/>
	<path class="st21" d="M572.1,62.2c-0.6,0-1.1-0.1-1.6-0.4c-0.4-0.2-0.8-0.6-1.1-1l0.8-0.6c0.2,0.3,0.5,0.6,0.9,0.8
		c0.4,0.2,0.8,0.3,1.2,0.3c0.4,0,0.8-0.1,1.1-0.3c0.5-0.4,0.5-1.1,0.1-1.5c0,0,0,0,0,0c-0.3-0.2-0.6-0.4-0.9-0.4l-0.5-0.1
		c-0.3,0-0.6-0.1-0.9-0.2c-0.3-0.1-0.5-0.2-0.7-0.4c-0.2-0.2-0.4-0.4-0.5-0.6c-0.1-0.3-0.2-0.5-0.2-0.8c0-0.3,0.1-0.6,0.2-0.9
		c0.1-0.2,0.3-0.5,0.5-0.6c0.2-0.2,0.5-0.3,0.8-0.4c0.3-0.1,0.6-0.1,1-0.1c0.5,0,1,0.1,1.4,0.3c0.4,0.2,0.7,0.5,1,0.8l-0.7,0.6
		c-0.2-0.2-0.4-0.4-0.7-0.6c-0.3-0.2-0.7-0.3-1.1-0.3c-0.4,0-0.7,0.1-1,0.3c-0.2,0.2-0.4,0.5-0.3,0.8c0,0.3,0.1,0.6,0.3,0.7
		c0.3,0.2,0.6,0.3,1,0.3l0.5,0.1c0.6,0,1.2,0.3,1.6,0.7c0.3,0.3,0.5,0.8,0.5,1.3c0,0.6-0.2,1.2-0.7,1.6
		C573.5,62.1,572.8,62.3,572.1,62.2z"/>
	<path class="st21" d="M576.6,55.2h1.1v1.1h0.1c0.1-0.4,0.4-0.7,0.8-1c0.4-0.2,0.8-0.3,1.2-0.3c0.4,0,0.8,0.1,1.2,0.3
		c0.3,0.2,0.7,0.4,0.9,0.7c0.3,0.3,0.5,0.7,0.6,1.1c0.3,1,0.3,2,0,3c-0.1,0.4-0.3,0.8-0.6,1.1c-0.2,0.3-0.5,0.6-0.9,0.7
		c-0.4,0.2-0.8,0.3-1.2,0.3c-0.9,0-1.7-0.5-2-1.3h-0.1v3.8h-1.1V55.2z M579.4,61.3c0.5,0,1.1-0.2,1.4-0.6c0.4-0.4,0.5-1,0.5-1.5V58
		c0-0.5-0.2-1.1-0.5-1.5c-0.4-0.4-0.9-0.6-1.4-0.6c-0.2,0-0.5,0-0.7,0.1c-0.2,0.1-0.4,0.2-0.6,0.3c-0.2,0.1-0.3,0.3-0.4,0.4
		c-0.1,0.2-0.1,0.3-0.1,0.5v2.6c0,0.2,0,0.4,0.1,0.6c0.1,0.2,0.2,0.3,0.4,0.4c0.2,0.1,0.4,0.2,0.6,0.3
		C579,61.3,579.2,61.3,579.4,61.3L579.4,61.3z"/>
	<path class="st21" d="M584.4,52.2h1.1v4.1h0.1c0.2-0.4,0.4-0.7,0.7-0.9c0.4-0.2,0.8-0.4,1.2-0.3c0.6,0,1.3,0.2,1.7,0.7
		c0.4,0.5,0.7,1.2,0.6,2v4.4h-1.1v-4.3c0-1.2-0.5-1.9-1.6-1.9c-0.2,0-0.4,0-0.6,0.1c-0.2,0-0.4,0.1-0.5,0.2
		c-0.2,0.1-0.3,0.2-0.4,0.4c-0.1,0.2-0.1,0.4-0.1,0.6v4.8h-1.1L584.4,52.2z"/>
	<path class="st21" d="M592,62.1v-6.9h1.1v1.3h0.1c0.1-0.3,0.4-0.7,0.7-0.9c0.4-0.3,0.9-0.4,1.3-0.4h0.4v1.1h-0.6
		c-0.5,0-0.9,0.1-1.4,0.3c-0.3,0.2-0.5,0.5-0.5,0.8v4.7L592,62.1z"/>
	<path class="st21" d="M601.9,62.1c-0.3,0-0.6-0.1-0.9-0.3c-0.2-0.2-0.3-0.5-0.3-0.8h-0.1c-0.1,0.4-0.4,0.7-0.8,1
		c-0.4,0.2-0.8,0.3-1.2,0.3c-0.6,0-1.2-0.2-1.7-0.6c-0.4-0.4-0.6-1-0.6-1.5c0-0.6,0.2-1.2,0.7-1.5c0.7-0.4,1.5-0.6,2.2-0.5h1.4v-0.7
		c0-0.4-0.1-0.8-0.4-1.1c-0.3-0.3-0.8-0.4-1.2-0.4c-0.4,0-0.7,0.1-1.1,0.3c-0.3,0.2-0.5,0.5-0.7,0.8l-0.6-0.6c0.2-0.4,0.5-0.7,0.9-1
		c0.5-0.3,1-0.4,1.6-0.4c0.7,0,1.4,0.2,2,0.6c0.5,0.4,0.7,1.1,0.7,1.7v3.8h0.8v1H601.9z M598.8,61.3c0.2,0,0.5,0,0.7-0.1
		c0.2-0.1,0.4-0.1,0.6-0.3c0.2-0.1,0.3-0.2,0.4-0.4c0.1-0.1,0.1-0.3,0.1-0.5v-1.1h-1.4c-0.5,0-0.9,0.1-1.3,0.3
		c-0.3,0.2-0.4,0.5-0.4,0.8v0.3c0,0.3,0.1,0.6,0.4,0.8C598.1,61.3,598.4,61.4,598.8,61.3L598.8,61.3z"/>
	<path class="st21" d="M606.1,62.2c-0.6,0-1.1-0.1-1.6-0.4c-0.4-0.2-0.8-0.6-1.1-1l0.8-0.6c0.2,0.3,0.5,0.6,0.9,0.8
		c0.4,0.2,0.8,0.3,1.2,0.3c0.4,0,0.8-0.1,1.1-0.3c0.5-0.4,0.5-1.1,0.1-1.5c0,0,0,0,0,0c-0.3-0.2-0.6-0.4-0.9-0.4l-0.5-0.1
		c-0.3,0-0.6-0.1-0.9-0.2c-0.3-0.1-0.5-0.2-0.7-0.4c-0.2-0.2-0.4-0.4-0.5-0.6c-0.1-0.3-0.2-0.5-0.2-0.8c0-0.3,0.1-0.6,0.2-0.9
		c0.1-0.2,0.3-0.5,0.5-0.6c0.2-0.2,0.5-0.3,0.8-0.4c0.3-0.1,0.6-0.1,1-0.1c0.5,0,1,0.1,1.4,0.3c0.4,0.2,0.7,0.5,1,0.8l-0.7,0.6
		c-0.2-0.2-0.4-0.4-0.7-0.6c-0.3-0.2-0.7-0.3-1.1-0.3c-0.4,0-0.7,0.1-1,0.3c-0.2,0.2-0.4,0.5-0.3,0.8c0,0.3,0.1,0.6,0.3,0.7
		c0.3,0.2,0.6,0.3,1,0.3l0.5,0.1c0.6,0,1.2,0.3,1.6,0.7c0.3,0.3,0.5,0.8,0.5,1.3c0,0.6-0.2,1.2-0.7,1.6
		C607.4,62.1,606.8,62.3,606.1,62.2z"/>
	<path class="st21" d="M613.1,62.2c-0.4,0-0.9-0.1-1.3-0.3c-0.4-0.2-0.7-0.4-1-0.7c-0.3-0.3-0.5-0.7-0.6-1.1c-0.3-1-0.3-2,0-3
		c0.1-0.4,0.3-0.8,0.6-1.1c0.3-0.3,0.6-0.6,1-0.7c0.4-0.2,0.8-0.3,1.3-0.3c0.4,0,0.9,0.1,1.2,0.3c0.4,0.2,0.7,0.4,0.9,0.7
		c0.3,0.3,0.5,0.7,0.6,1.1c0.1,0.4,0.2,0.9,0.2,1.3v0.5h-5v0.3c0,0.3,0,0.6,0.1,0.8c0.1,0.2,0.2,0.5,0.4,0.7
		c0.2,0.2,0.4,0.3,0.6,0.4c0.3,0.1,0.6,0.2,0.9,0.2c0.4,0,0.8-0.1,1.1-0.3c0.3-0.2,0.6-0.5,0.8-0.9l0.8,0.6c-0.2,0.5-0.6,0.9-1,1.2
		C614.3,62.1,613.7,62.3,613.1,62.2z M613.1,55.9c-0.3,0-0.5,0-0.8,0.2c-0.2,0.1-0.4,0.2-0.6,0.4c-0.2,0.2-0.3,0.4-0.4,0.7
		c-0.1,0.3-0.2,0.5-0.1,0.8v0.1h3.8v-0.1c0-0.5-0.2-1.1-0.5-1.5C614.1,56.1,613.6,55.9,613.1,55.9z"/>
	<path d="M315.5,35.4v5.8c0,0.7,0.1,1.4,0.5,2c1,0.9,2.5,0.9,3.5,0c0.4-0.6,0.5-1.3,0.5-2v-5.8h1.1v5.5c0,0.6-0.1,1.2-0.2,1.8
		c-0.1,0.5-0.3,0.9-0.6,1.2c-0.3,0.3-0.6,0.6-1.1,0.7c-0.5,0.2-1,0.3-1.6,0.2c-0.5,0-1.1-0.1-1.6-0.2c-0.4-0.1-0.8-0.4-1-0.7
		c-0.3-0.4-0.5-0.8-0.6-1.2c-0.1-0.6-0.2-1.2-0.2-1.8v-5.5H315.5z"/>
	<path d="M325.5,44.9c-0.6,0-1.1-0.1-1.6-0.4c-0.4-0.2-0.8-0.6-1.1-1l0.8-0.6c0.2,0.3,0.5,0.6,0.9,0.8c0.4,0.2,0.8,0.3,1.2,0.3
		c0.4,0,0.8-0.1,1.1-0.3c0.5-0.4,0.5-1.1,0.1-1.5c0,0,0,0,0,0c-0.3-0.2-0.6-0.4-0.9-0.4l-0.5-0.1c-0.3,0-0.6-0.1-0.9-0.2
		c-0.3-0.1-0.5-0.2-0.7-0.4c-0.2-0.2-0.4-0.4-0.5-0.6c-0.1-0.3-0.2-0.5-0.2-0.8c0-0.3,0.1-0.6,0.2-0.9c0.1-0.2,0.3-0.5,0.5-0.6
		c0.2-0.2,0.5-0.3,0.8-0.4c0.3-0.1,0.6-0.1,1-0.1c0.5,0,1,0.1,1.4,0.3c0.4,0.2,0.7,0.5,1,0.8l-0.7,0.6c-0.2-0.2-0.4-0.4-0.7-0.6
		c-0.3-0.2-0.7-0.3-1.1-0.3c-0.4,0-0.7,0.1-1,0.3c-0.2,0.2-0.4,0.5-0.3,0.8c0,0.3,0.1,0.6,0.3,0.7c0.3,0.2,0.6,0.3,1,0.3l0.5,0.1
		c0.6,0,1.2,0.3,1.6,0.7c0.3,0.3,0.5,0.8,0.5,1.3c0,0.6-0.2,1.2-0.7,1.6C326.9,44.8,326.2,45,325.5,44.9z"/>
	<path d="M332.6,44.9c-0.4,0-0.9-0.1-1.3-0.3c-0.4-0.2-0.7-0.4-1-0.7c-0.3-0.3-0.5-0.7-0.6-1.1c-0.3-1-0.3-2,0-3
		c0.1-0.4,0.3-0.8,0.6-1.1c0.3-0.3,0.6-0.6,1-0.7c0.4-0.2,0.8-0.3,1.3-0.3c0.4,0,0.9,0.1,1.2,0.3c0.4,0.2,0.7,0.4,0.9,0.7
		c0.3,0.3,0.5,0.7,0.6,1.1c0.1,0.4,0.2,0.9,0.2,1.3v0.5h-5v0.3c0,0.3,0,0.6,0.1,0.8c0.1,0.2,0.2,0.5,0.4,0.7
		c0.2,0.2,0.4,0.3,0.6,0.4c0.3,0.1,0.6,0.2,0.9,0.2c0.4,0,0.8-0.1,1.1-0.3c0.3-0.2,0.6-0.5,0.8-0.9l0.8,0.6c-0.2,0.5-0.6,0.9-1,1.2
		C333.7,44.8,333.2,44.9,332.6,44.9z M332.6,38.6c-0.3,0-0.5,0-0.8,0.2c-0.2,0.1-0.4,0.2-0.6,0.4c-0.2,0.2-0.3,0.4-0.4,0.7
		c-0.1,0.3-0.2,0.5-0.1,0.8v0.1h3.8v-0.1c0-0.5-0.2-1.1-0.5-1.5C333.6,38.8,333.1,38.6,332.6,38.6z"/>
	<path d="M337.3,44.8v-6.9h1.1v1.3h0.1c0.1-0.3,0.4-0.7,0.7-0.9c0.4-0.3,0.9-0.4,1.3-0.4h0.4v1.1h-0.6c-0.5,0-0.9,0.1-1.4,0.3
		c-0.3,0.2-0.5,0.5-0.5,0.8v4.7L337.3,44.8z"/>
	<path d="M341.8,41.3v-1.2h3.5v1.2H341.8z"/>
	<path d="M347.3,44.8v-6.9h1.1V39h0.1c0.1-0.2,0.2-0.3,0.3-0.5c0.2-0.3,0.5-0.6,0.9-0.7c0.2-0.1,0.5-0.1,0.7-0.1
		c0.4,0,0.9,0.1,1.3,0.3c0.4,0.2,0.7,0.6,0.9,1.1h0c0.1-0.4,0.4-0.7,0.7-1c0.4-0.3,0.9-0.4,1.4-0.4c0.6,0,1.2,0.2,1.7,0.7
		c0.4,0.6,0.6,1.2,0.6,2v4.4h-1.1v-4.3c0-0.5-0.1-1-0.4-1.4c-0.3-0.3-0.7-0.5-1.2-0.5c-0.2,0-0.4,0-0.6,0.1
		c-0.2,0.1-0.4,0.1-0.5,0.2c-0.2,0.1-0.3,0.2-0.4,0.4c-0.1,0.2-0.1,0.4-0.1,0.6v4.8h-1.1v-4.3c0-0.5-0.1-1-0.4-1.4
		c-0.3-0.3-0.7-0.5-1.1-0.5c-0.2,0-0.4,0-0.6,0.1c-0.2,0-0.4,0.1-0.5,0.2c-0.2,0.1-0.3,0.2-0.4,0.4c-0.1,0.2-0.1,0.4-0.1,0.6v4.8
		L347.3,44.8z"/>
	<path d="M364.1,44.8c-0.3,0-0.6-0.1-0.9-0.3c-0.2-0.2-0.3-0.5-0.3-0.8h-0.1c-0.1,0.4-0.4,0.7-0.8,1c-0.4,0.2-0.8,0.3-1.2,0.3
		c-0.6,0-1.2-0.2-1.7-0.6c-0.4-0.4-0.6-1-0.6-1.5c0-0.6,0.2-1.2,0.7-1.5c0.7-0.4,1.5-0.6,2.2-0.5h1.4v-0.7c0-0.4-0.1-0.8-0.4-1.1
		c-0.3-0.3-0.8-0.4-1.2-0.4c-0.4,0-0.7,0.1-1.1,0.3c-0.3,0.2-0.5,0.5-0.7,0.8l-0.6-0.6c0.2-0.4,0.5-0.7,0.9-1c0.5-0.3,1-0.4,1.6-0.4
		c0.7,0,1.4,0.2,2,0.6c0.5,0.4,0.7,1.1,0.7,1.7v3.8h0.8v1L364.1,44.8z M361,44c0.2,0,0.5,0,0.7-0.1c0.2-0.1,0.4-0.1,0.6-0.3
		c0.2-0.1,0.3-0.2,0.4-0.4c0.1-0.1,0.1-0.3,0.1-0.5v-1.1h-1.4c-0.5,0-0.9,0.1-1.3,0.3c-0.3,0.2-0.4,0.5-0.4,0.8v0.3
		c0,0.3,0.1,0.6,0.4,0.8C360.3,43.9,360.6,44,361,44L361,44z"/>
	<path d="M366.2,44.8v-6.9h1.1V39h0.1c0.2-0.4,0.4-0.7,0.7-0.9c0.4-0.2,0.8-0.4,1.2-0.3c0.6,0,1.3,0.2,1.7,0.7
		c0.4,0.5,0.7,1.2,0.6,2v4.4h-1.1v-4.3c0-1.2-0.5-1.9-1.6-1.9c-0.2,0-0.4,0-0.6,0.1c-0.2,0-0.4,0.1-0.5,0.2
		c-0.2,0.1-0.3,0.2-0.4,0.4c-0.1,0.2-0.1,0.4-0.1,0.6v4.8L366.2,44.8z"/>
	<path d="M378.8,44.8c-0.3,0-0.6-0.1-0.9-0.3c-0.2-0.2-0.3-0.5-0.3-0.8h-0.1c-0.1,0.4-0.4,0.7-0.8,1c-0.4,0.2-0.8,0.3-1.2,0.3
		c-0.6,0-1.2-0.2-1.7-0.6c-0.4-0.4-0.6-1-0.6-1.5c0-0.6,0.2-1.2,0.7-1.5c0.7-0.4,1.5-0.6,2.2-0.5h1.4v-0.7c0-0.4-0.1-0.8-0.4-1.1
		c-0.3-0.3-0.8-0.4-1.2-0.4c-0.4,0-0.7,0.1-1.1,0.3c-0.3,0.2-0.5,0.5-0.7,0.8l-0.6-0.6c0.2-0.4,0.5-0.7,0.9-1c0.5-0.3,1-0.4,1.6-0.4
		c0.7,0,1.4,0.2,2,0.6c0.5,0.4,0.7,1.1,0.7,1.7v3.8h0.8v1L378.8,44.8z M375.7,44c0.2,0,0.5,0,0.7-0.1c0.2-0.1,0.4-0.1,0.6-0.3
		c0.2-0.1,0.3-0.2,0.4-0.4c0.1-0.1,0.1-0.3,0.1-0.5v-1.1h-1.4c-0.5,0-0.9,0.1-1.3,0.3c-0.3,0.2-0.4,0.5-0.4,0.8v0.3
		c0,0.3,0.1,0.6,0.4,0.8C375,43.9,375.4,44,375.7,44z"/>
	<path d="M386.8,45.5c0,0.6-0.3,1.2-0.8,1.6c-0.8,0.4-1.6,0.6-2.5,0.5c-0.8,0.1-1.6-0.1-2.3-0.4c-0.5-0.3-0.7-0.7-0.7-1.3
		c0-0.3,0.1-0.6,0.3-0.9c0.2-0.2,0.5-0.4,0.8-0.5v-0.1c-0.4-0.2-0.6-0.5-0.6-1c0-0.3,0.1-0.6,0.3-0.8c0.3-0.2,0.5-0.3,0.9-0.4v-0.1
		c-0.4-0.2-0.7-0.5-1-0.8c-0.2-0.4-0.4-0.8-0.3-1.3c0-0.3,0.1-0.7,0.2-1c0.1-0.3,0.3-0.5,0.5-0.8c0.2-0.2,0.5-0.4,0.8-0.5
		c0.8-0.3,1.6-0.2,2.4,0.1v-0.1c0-0.2,0.1-0.5,0.2-0.7c0.1-0.2,0.4-0.3,0.6-0.3h1v1h-1.3v0.4c0.2,0.2,0.4,0.5,0.6,0.8
		c0.1,0.3,0.2,0.7,0.2,1c0,0.3-0.1,0.7-0.2,1c-0.1,0.3-0.3,0.5-0.5,0.8c-0.2,0.2-0.5,0.4-0.8,0.5c-0.3,0.1-0.7,0.2-1.1,0.2
		c-0.2,0-0.5,0-0.7-0.1c-0.2,0.1-0.4,0.2-0.6,0.3c-0.2,0.1-0.3,0.3-0.3,0.5c0,0.2,0.1,0.4,0.3,0.4c0.2,0.1,0.5,0.1,0.8,0.1h1.5
		c0.7-0.1,1.3,0.1,1.9,0.5C386.6,44.5,386.8,45,386.8,45.5z M385.8,45.6c0-0.3-0.1-0.5-0.3-0.7c-0.3-0.2-0.7-0.3-1.1-0.2H382
		c-0.4,0.1-0.7,0.5-0.6,0.9c0,0.3,0.1,0.6,0.3,0.8c0.3,0.2,0.7,0.4,1.2,0.3h1c0.5,0,1-0.1,1.4-0.3C385.6,46.3,385.8,46,385.8,45.6
		L385.8,45.6z M383.4,41.6c0.4,0,0.8-0.1,1.1-0.3c0.3-0.3,0.4-0.6,0.4-1v-0.4c0-0.4-0.1-0.8-0.4-1c-0.7-0.4-1.5-0.4-2.2,0
		c-0.3,0.3-0.4,0.6-0.4,1v0.4c0,0.4,0.1,0.8,0.4,1C382.6,41.5,383,41.6,383.4,41.6L383.4,41.6z"/>
	<path d="M390.6,44.9c-0.4,0-0.9-0.1-1.3-0.3c-0.4-0.2-0.7-0.4-1-0.7c-0.3-0.3-0.5-0.7-0.6-1.1c-0.3-1-0.3-2,0-3
		c0.1-0.4,0.3-0.8,0.6-1.1c0.3-0.3,0.6-0.6,1-0.7c0.4-0.2,0.8-0.3,1.3-0.3c0.4,0,0.9,0.1,1.2,0.3c0.4,0.2,0.7,0.4,0.9,0.7
		c0.3,0.3,0.5,0.7,0.6,1.1c0.1,0.4,0.2,0.9,0.2,1.3v0.5h-5v0.3c0,0.3,0,0.6,0.1,0.8c0.1,0.2,0.2,0.5,0.4,0.7
		c0.2,0.2,0.4,0.3,0.6,0.4c0.3,0.1,0.6,0.2,0.9,0.2c0.4,0,0.8-0.1,1.1-0.3c0.3-0.2,0.6-0.5,0.8-0.9l0.8,0.6c-0.2,0.5-0.6,0.9-1,1.2
		C391.7,44.8,391.1,44.9,390.6,44.9z M390.6,38.6c-0.3,0-0.5,0-0.8,0.2c-0.2,0.1-0.4,0.2-0.6,0.4c-0.2,0.2-0.3,0.4-0.4,0.7
		c-0.1,0.3-0.2,0.5-0.1,0.8v0.1h3.8v-0.1c0-0.5-0.2-1.1-0.5-1.5C391.5,38.8,391.1,38.6,390.6,38.6z"/>
	<path d="M399.7,43.7L399.7,43.7c-0.4,0.8-1.2,1.3-2.1,1.3c-0.4,0-0.8-0.1-1.2-0.3c-0.3-0.2-0.7-0.4-0.9-0.7
		c-0.3-0.3-0.5-0.7-0.6-1.1c-0.3-1-0.3-2,0-3c0.1-0.4,0.3-0.8,0.6-1.1c0.2-0.3,0.5-0.6,0.9-0.7c0.4-0.2,0.8-0.3,1.2-0.3
		c0.4,0,0.9,0.1,1.2,0.3c0.4,0.2,0.6,0.6,0.8,1h0.1v-4.1h1.1v9.9h-1.1V43.7z M398,44c0.2,0,0.5,0,0.7-0.1c0.2-0.1,0.4-0.1,0.6-0.3
		c0.2-0.1,0.3-0.3,0.4-0.4c0.1-0.2,0.1-0.4,0.1-0.6V40c0-0.2,0-0.4-0.1-0.5c-0.1-0.2-0.2-0.3-0.4-0.4c-0.2-0.1-0.4-0.2-0.6-0.3
		c-0.2-0.1-0.5-0.1-0.7-0.1c-0.5,0-1.1,0.2-1.4,0.6c-0.4,0.4-0.5,1-0.5,1.5v1.2c0,0.5,0.2,1.1,0.5,1.5C396.9,43.8,397.4,44,398,44
		L398,44z"/>
	<path class="st21" d="M430.3,44.8v-9.4h3.7c0.7,0,1.4,0.2,1.9,0.7c0.9,1.2,0.9,2.8,0,3.9c-0.5,0.5-1.2,0.8-1.9,0.7h-2.6v4
		L430.3,44.8z M431.4,39.8h2.6c0.4,0,0.8-0.1,1-0.3c0.3-0.3,0.4-0.6,0.4-1v-0.7c0-0.4-0.1-0.7-0.4-1c-0.3-0.2-0.7-0.4-1-0.3h-2.6
		V39.8z"/>
	<path class="st21" d="M438.1,44.8v-6.9h1.1v1.3h0.1c0.1-0.3,0.4-0.7,0.7-0.9c0.4-0.3,0.9-0.4,1.3-0.4h0.4v1.1h-0.6
		c-0.5,0-0.9,0.1-1.4,0.3c-0.3,0.2-0.5,0.5-0.5,0.8v4.7L438.1,44.8z"/>
	<path class="st21" d="M445.6,44.9c-0.4,0-0.9-0.1-1.3-0.3c-0.4-0.2-0.7-0.4-1-0.7c-0.3-0.3-0.5-0.7-0.6-1.1c-0.3-1-0.3-2,0-3
		c0.1-0.4,0.4-0.8,0.6-1.1c0.3-0.3,0.6-0.6,1-0.7c0.4-0.2,0.8-0.3,1.3-0.3c0.4,0,0.9,0.1,1.3,0.3c0.4,0.2,0.7,0.4,1,0.7
		c0.3,0.3,0.5,0.7,0.6,1.1c0.3,1,0.3,2,0,3c-0.1,0.4-0.4,0.8-0.6,1.1c-0.3,0.3-0.6,0.6-1,0.7C446.5,44.9,446.1,44.9,445.6,44.9z
		 M445.6,44c0.5,0,1-0.2,1.4-0.5c0.4-0.4,0.6-1,0.5-1.6v-1c0-0.6-0.2-1.2-0.5-1.6c-0.8-0.7-2-0.7-2.8,0c-0.4,0.4-0.6,1-0.5,1.6v1
		c0,0.6,0.2,1.2,0.5,1.6C444.6,43.8,445.1,44,445.6,44z"/>
	<path class="st21" d="M451.9,44.8l-2.4-6.9h1.1l1.2,3.4l0.8,2.4h0.1l0.8-2.4l1.2-3.4h1l-2.4,6.9H451.9z"/>
	<path class="st21" d="M457.5,36.2c-0.2,0-0.4,0-0.5-0.2c-0.1-0.1-0.2-0.3-0.2-0.4v-0.2c0-0.2,0-0.3,0.2-0.4c0.3-0.2,0.7-0.2,1,0
		c0.1,0.1,0.2,0.3,0.2,0.4v0.2c0,0.2,0,0.3-0.2,0.4C457.9,36.2,457.7,36.2,457.5,36.2z M457,37.9h1.1v6.9H457V37.9z"/>
	<path class="st21" d="M464.8,43.7L464.8,43.7c-0.4,0.8-1.2,1.3-2.1,1.3c-0.4,0-0.8-0.1-1.2-0.3c-0.3-0.2-0.7-0.4-0.9-0.7
		c-0.3-0.3-0.5-0.7-0.6-1.1c-0.3-1-0.3-2,0-3c0.1-0.4,0.3-0.8,0.6-1.1c0.2-0.3,0.5-0.6,0.9-0.7c0.4-0.2,0.8-0.3,1.2-0.3
		c0.4,0,0.9,0.1,1.2,0.3c0.4,0.2,0.6,0.6,0.8,1h0.1v-4.1h1.1v9.9h-1.1L464.8,43.7z M463,44c0.2,0,0.5,0,0.7-0.1
		c0.2-0.1,0.4-0.1,0.6-0.3c0.2-0.1,0.3-0.3,0.4-0.4c0.1-0.2,0.1-0.4,0.1-0.6V40c0-0.2,0-0.4-0.1-0.5c-0.1-0.2-0.2-0.3-0.4-0.4
		c-0.2-0.1-0.4-0.2-0.6-0.3c-0.2-0.1-0.5-0.1-0.7-0.1c-0.5,0-1.1,0.2-1.4,0.6c-0.4,0.4-0.5,1-0.5,1.5v1.2c0,0.5,0.2,1.1,0.5,1.5
		C461.9,43.8,462.5,44,463,44L463,44z"/>
	<path class="st21" d="M470.7,44.9c-0.4,0-0.9-0.1-1.3-0.3c-0.4-0.2-0.7-0.4-1-0.7c-0.3-0.3-0.5-0.7-0.6-1.1c-0.3-1-0.3-2,0-3
		c0.1-0.4,0.3-0.8,0.6-1.1c0.3-0.3,0.6-0.6,1-0.7c0.4-0.2,0.8-0.3,1.3-0.3c0.4,0,0.9,0.1,1.2,0.3c0.4,0.2,0.7,0.4,0.9,0.7
		c0.3,0.3,0.5,0.7,0.6,1.1c0.1,0.4,0.2,0.9,0.2,1.3v0.5h-5v0.3c0,0.3,0,0.6,0.1,0.8c0.1,0.2,0.2,0.5,0.4,0.7
		c0.2,0.2,0.4,0.3,0.6,0.4c0.3,0.1,0.6,0.2,0.9,0.2c0.4,0,0.8-0.1,1.1-0.3c0.3-0.2,0.6-0.5,0.8-0.9l0.8,0.6c-0.2,0.5-0.6,0.9-1,1.2
		C471.9,44.8,471.3,44.9,470.7,44.9z M470.7,38.6c-0.3,0-0.5,0-0.8,0.2c-0.2,0.1-0.4,0.2-0.6,0.4c-0.2,0.2-0.3,0.4-0.4,0.7
		c-0.1,0.3-0.2,0.5-0.1,0.8v0.1h3.8v-0.1c0-0.5-0.2-1.1-0.5-1.5C471.7,38.8,471.2,38.6,470.7,38.6z"/>
	<path class="st21" d="M475.5,44.8v-6.9h1.1v1.3h0.1c0.1-0.3,0.4-0.7,0.7-0.9c0.4-0.3,0.9-0.4,1.3-0.4h0.4v1.1h-0.6
		c-0.5,0-0.9,0.1-1.4,0.3c-0.3,0.2-0.5,0.5-0.5,0.8v4.7L475.5,44.8z"/>
	<path class="st21" d="M479.9,41.3v-1.2h3.5v1.2H479.9z"/>
	<path class="st21" d="M485.5,44.8v-6.9h1.1V39h0.1c0.1-0.2,0.2-0.3,0.3-0.5c0.2-0.3,0.5-0.6,0.9-0.7c0.2-0.1,0.5-0.1,0.7-0.1
		c0.4,0,0.9,0.1,1.3,0.3c0.4,0.2,0.7,0.6,0.9,1.1h0c0.1-0.4,0.4-0.7,0.7-1c0.4-0.3,0.9-0.4,1.4-0.4c0.6,0,1.2,0.2,1.7,0.7
		c0.4,0.6,0.6,1.2,0.6,2v4.4h-1.1v-4.3c0-0.5-0.1-1-0.4-1.4c-0.3-0.3-0.7-0.5-1.2-0.5c-0.2,0-0.4,0-0.6,0.1
		c-0.2,0.1-0.4,0.1-0.5,0.2c-0.2,0.1-0.3,0.2-0.4,0.4c-0.1,0.2-0.1,0.4-0.1,0.6v4.8h-1.1v-4.3c0-0.5-0.1-1-0.4-1.4
		c-0.3-0.3-0.7-0.5-1.1-0.5c-0.2,0-0.4,0-0.6,0.1c-0.2,0-0.4,0.1-0.5,0.2c-0.2,0.1-0.3,0.2-0.4,0.4c-0.1,0.2-0.1,0.4-0.1,0.6v4.8
		L485.5,44.8z"/>
	<path class="st21" d="M502.2,44.8c-0.3,0-0.6-0.1-0.9-0.3c-0.2-0.2-0.3-0.5-0.3-0.8H501c-0.1,0.4-0.4,0.7-0.8,1
		c-0.4,0.2-0.8,0.3-1.2,0.3c-0.6,0-1.2-0.2-1.7-0.6c-0.4-0.4-0.6-1-0.6-1.5c0-0.6,0.2-1.2,0.7-1.5c0.7-0.4,1.5-0.6,2.2-0.5h1.4v-0.7
		c0-0.4-0.1-0.8-0.4-1.1c-0.3-0.3-0.8-0.4-1.2-0.4c-0.4,0-0.7,0.1-1.1,0.3c-0.3,0.2-0.5,0.5-0.7,0.8l-0.6-0.6c0.2-0.4,0.5-0.7,0.9-1
		c0.5-0.3,1-0.4,1.6-0.4c0.7,0,1.4,0.2,2,0.6c0.5,0.4,0.7,1.1,0.7,1.7v3.8h0.8v1L502.2,44.8z M499.1,44c0.2,0,0.5,0,0.7-0.1
		c0.2-0.1,0.4-0.1,0.6-0.3c0.2-0.1,0.3-0.2,0.4-0.4c0.1-0.1,0.1-0.3,0.1-0.5v-1.1h-1.4c-0.5,0-0.9,0.1-1.3,0.3
		c-0.3,0.2-0.4,0.5-0.4,0.8v0.3c0,0.3,0.1,0.6,0.4,0.8C498.4,43.9,498.8,44,499.1,44L499.1,44z"/>
	<path class="st21" d="M504.3,44.8v-6.9h1.1V39h0.1c0.2-0.4,0.4-0.7,0.7-0.9c0.4-0.2,0.8-0.4,1.2-0.3c0.6,0,1.3,0.2,1.7,0.7
		c0.4,0.5,0.7,1.2,0.6,2v4.4h-1.1v-4.3c0-1.2-0.5-1.9-1.6-1.9c-0.2,0-0.4,0-0.6,0.1c-0.2,0-0.4,0.1-0.5,0.2
		c-0.2,0.1-0.3,0.2-0.4,0.4c-0.1,0.2-0.1,0.4-0.1,0.6v4.8L504.3,44.8z"/>
	<path class="st21" d="M517,44.8c-0.3,0-0.6-0.1-0.9-0.3c-0.2-0.2-0.3-0.5-0.3-0.8h-0.1c-0.1,0.4-0.4,0.7-0.8,1
		c-0.4,0.2-0.8,0.3-1.2,0.3c-0.6,0-1.2-0.2-1.7-0.6c-0.4-0.4-0.6-1-0.6-1.5c0-0.6,0.2-1.2,0.7-1.5c0.7-0.4,1.5-0.6,2.2-0.5h1.4v-0.7
		c0-0.4-0.1-0.8-0.4-1.1c-0.3-0.3-0.8-0.4-1.2-0.4c-0.4,0-0.7,0.1-1.1,0.3c-0.3,0.2-0.5,0.5-0.7,0.8l-0.6-0.6c0.2-0.4,0.5-0.7,0.9-1
		c0.5-0.3,1-0.4,1.6-0.4c0.7,0,1.4,0.2,2,0.6c0.5,0.4,0.7,1.1,0.7,1.7v3.8h0.8v1L517,44.8z M513.9,44c0.2,0,0.5,0,0.7-0.1
		c0.2-0.1,0.4-0.1,0.6-0.3c0.2-0.1,0.3-0.2,0.4-0.4c0.1-0.1,0.1-0.3,0.1-0.5v-1.1h-1.4c-0.5,0-0.9,0.1-1.3,0.3
		c-0.3,0.2-0.4,0.5-0.4,0.8v0.3c0,0.3,0.1,0.6,0.4,0.8C513.2,43.9,513.6,44,513.9,44z"/>
	<path class="st21" d="M525,45.5c0,0.6-0.3,1.2-0.8,1.6c-0.8,0.4-1.6,0.6-2.5,0.5c-0.8,0.1-1.6-0.1-2.3-0.4
		c-0.5-0.3-0.7-0.7-0.7-1.3c0-0.3,0.1-0.6,0.3-0.9c0.2-0.2,0.5-0.4,0.8-0.5v-0.1c-0.4-0.2-0.6-0.5-0.6-1c0-0.3,0.1-0.6,0.3-0.8
		c0.3-0.2,0.5-0.3,0.9-0.4v-0.1c-0.4-0.2-0.7-0.5-1-0.8c-0.2-0.4-0.4-0.8-0.3-1.3c0-0.3,0.1-0.7,0.2-1c0.1-0.3,0.3-0.5,0.5-0.8
		c0.2-0.2,0.5-0.4,0.8-0.5c0.8-0.3,1.6-0.2,2.4,0.1v-0.1c0-0.2,0.1-0.5,0.2-0.7c0.1-0.2,0.4-0.3,0.6-0.3h1v1h-1.3v0.4
		c0.2,0.2,0.4,0.5,0.6,0.8c0.1,0.3,0.2,0.7,0.2,1c0,0.3-0.1,0.7-0.2,1c-0.1,0.3-0.3,0.5-0.5,0.8c-0.2,0.2-0.5,0.4-0.8,0.5
		c-0.3,0.1-0.7,0.2-1.1,0.2c-0.2,0-0.5,0-0.7-0.1c-0.2,0.1-0.4,0.2-0.6,0.3c-0.2,0.1-0.3,0.3-0.3,0.5c0,0.2,0.1,0.4,0.3,0.4
		c0.2,0.1,0.5,0.1,0.8,0.1h1.5c0.7-0.1,1.3,0.1,1.9,0.5C524.8,44.5,525,45,525,45.5z M523.9,45.6c0-0.3-0.1-0.5-0.3-0.7
		c-0.3-0.2-0.7-0.3-1.1-0.2h-2.3c-0.4,0.1-0.7,0.5-0.6,0.9c0,0.3,0.1,0.6,0.3,0.8c0.3,0.2,0.7,0.4,1.2,0.3h1c0.5,0,1-0.1,1.4-0.3
		C523.8,46.3,524,46,523.9,45.6L523.9,45.6z M521.5,41.6c0.4,0,0.8-0.1,1.1-0.3c0.3-0.3,0.4-0.6,0.4-1v-0.4c0-0.4-0.1-0.8-0.4-1
		c-0.7-0.4-1.5-0.4-2.2,0c-0.3,0.3-0.4,0.6-0.4,1v0.4c0,0.4,0.1,0.8,0.4,1C520.8,41.5,521.2,41.6,521.5,41.6L521.5,41.6z"/>
	<path class="st21" d="M528.7,44.9c-0.4,0-0.9-0.1-1.3-0.3c-0.4-0.2-0.7-0.4-1-0.7c-0.3-0.3-0.5-0.7-0.6-1.1c-0.3-1-0.3-2,0-3
		c0.1-0.4,0.3-0.8,0.6-1.1c0.3-0.3,0.6-0.6,1-0.7c0.4-0.2,0.8-0.3,1.3-0.3c0.4,0,0.9,0.1,1.2,0.3c0.4,0.2,0.7,0.4,0.9,0.7
		c0.3,0.3,0.5,0.7,0.6,1.1c0.1,0.4,0.2,0.9,0.2,1.3v0.5h-5v0.3c0,0.3,0,0.6,0.1,0.8c0.1,0.2,0.2,0.5,0.4,0.7
		c0.2,0.2,0.4,0.3,0.6,0.4c0.3,0.1,0.6,0.2,0.9,0.2c0.4,0,0.8-0.1,1.1-0.3c0.3-0.2,0.6-0.5,0.8-0.9l0.8,0.6c-0.2,0.5-0.6,0.9-1,1.2
		C529.9,44.8,529.3,44.9,528.7,44.9z M528.7,38.6c-0.3,0-0.5,0-0.8,0.2c-0.2,0.1-0.4,0.2-0.6,0.4c-0.2,0.2-0.3,0.4-0.4,0.7
		c-0.1,0.3-0.2,0.5-0.1,0.8v0.1h3.8v-0.1c0-0.5-0.2-1.1-0.5-1.5C529.7,38.8,529.2,38.6,528.7,38.6z"/>
	<path class="st21" d="M537.9,43.7L537.9,43.7c-0.4,0.8-1.2,1.3-2.1,1.3c-0.4,0-0.8-0.1-1.2-0.3c-0.3-0.2-0.7-0.4-0.9-0.7
		c-0.3-0.3-0.5-0.7-0.6-1.1c-0.3-1-0.3-2,0-3c0.1-0.4,0.3-0.8,0.6-1.1c0.2-0.3,0.5-0.6,0.9-0.7c0.4-0.2,0.8-0.3,1.2-0.3
		c0.4,0,0.9,0.1,1.2,0.3c0.4,0.2,0.6,0.6,0.8,1h0.1v-4.1h1.1v9.9h-1.1L537.9,43.7z M536.1,44c0.2,0,0.5,0,0.7-0.1
		c0.2-0.1,0.4-0.1,0.6-0.3c0.2-0.1,0.3-0.3,0.4-0.4c0.1-0.2,0.1-0.4,0.1-0.6V40c0-0.2,0-0.4-0.1-0.5c-0.1-0.2-0.2-0.3-0.4-0.4
		c-0.2-0.1-0.4-0.2-0.6-0.3c-0.2-0.1-0.5-0.1-0.7-0.1c-0.5,0-1.1,0.2-1.4,0.6c-0.4,0.4-0.5,1-0.5,1.5v1.2c0,0.5,0.2,1.1,0.5,1.5
		C535.1,43.8,535.6,44,536.1,44z"/>
</g>
</svg>
