<svg xmlns="http://www.w3.org/2000/svg" xmlns:xlink="http://www.w3.org/1999/xlink" width="546.0996" height="218.141" viewBox="0 0 546.0996 218.141"><defs><style>.cls-1,.cls-10,.cls-11,.cls-13,.cls-14,.cls-18,.cls-2,.cls-21,.cls-3,.cls-4,.cls-7{fill:none;}.cls-1,.cls-10,.cls-13,.cls-14,.cls-15,.cls-18,.cls-2,.cls-21,.cls-3,.cls-4,.cls-7{stroke:#000;}.cls-1,.cls-10,.cls-11,.cls-12,.cls-13,.cls-15,.cls-18,.cls-2,.cls-21,.cls-3,.cls-4,.cls-7{stroke-miterlimit:10;}.cls-1,.cls-2,.cls-7{stroke-width:1.0051px;}.cls-1,.cls-3{clip-rule:evenodd;}.cls-5{clip-path:url(#clip-path);}.cls-6{clip-path:url(#clip-path-2);}.cls-10,.cls-19,.cls-7{fill-rule:evenodd;}.cls-8{clip-path:url(#clip-path-3);}.cls-9{clip-path:url(#clip-path-4);}.cls-11,.cls-12{stroke:#fff;stroke-width:1.0318px;}.cls-11,.cls-13{stroke-linecap:round;}.cls-14{stroke-linejoin:round;}.cls-15,.cls-20{fill:#fff;}.cls-15{stroke-width:1.0332px;}.cls-16{clip-path:url(#clip-path-5);}.cls-17{clip-path:url(#clip-path-6);}.cls-18{stroke-width:0.7912px;}.cls-21{stroke-width:0.7514px;}</style><clipPath id="clip-path"><path class="cls-1" d="M467.9357,28.9323a3.7628,3.7628,0,1,1,3.7523,3.4821A3.56,3.56,0,0,1,467.9357,28.9323Zm-7.63,1.625-3.6273,3.0178,3.0019,4.6429,4.3777-1.2768a13.4391,13.4391,0,0,0,3.6272,1.9732l1.0006,3.9465H474.69l.8755-3.9465a11.7945,11.7945,0,0,0,3.6273-1.9732l4.3777,1.3929,3.1269-4.759L483.07,30.5573a6.63,6.63,0,0,0,.1252-1.625,6.6291,6.6291,0,0,0-.1252-1.625l3.6273-3.0179L483.57,19.5305l-4.2527,1.3928a13.4376,13.4376,0,0,0-3.6272-1.9732L474.69,15.0037h-6.0038l-.8755,3.9464a11.794,11.794,0,0,0-3.6272,1.9732l-4.3778-1.3928-3.1269,4.7589,3.6273,3.0179a6.6343,6.6343,0,0,0-.1251,1.625A6.6351,6.6351,0,0,0,460.306,30.5573Z"/></clipPath><clipPath id="clip-path-2"><rect class="cls-2" x="456.6787" y="15.0037" width="30.0186" height="27.8572"/></clipPath><clipPath id="clip-path-3"><path class="cls-3" d="M487.467,47.5993a2.8856,2.8856,0,1,1,2.8856,2.8856A2.8341,2.8341,0,0,1,487.467,47.5993ZM481.6,48.9459,478.81,51.4468l2.3085,3.8475,3.3665-1.0581a10.1326,10.1326,0,0,0,2.7894,1.6352l.7695,3.27h4.617l.6733-3.27a8.8951,8.8951,0,0,0,2.7894-1.6352l3.3666,1.1543,2.4046-3.9437-2.7894-2.5009a5.9137,5.9137,0,0,0,.0962-1.3466,5.9145,5.9145,0,0,0-.0962-1.3466l2.7894-2.5009L499.49,39.8082l-3.27,1.1542a10.13,10.13,0,0,0-2.7894-1.6351l-.77-3.27h-4.617l-.6733,3.27a8.8941,8.8941,0,0,0-2.7894,1.6351l-3.3665-1.1542L478.81,43.7518,481.6,46.2527a5.9145,5.9145,0,0,0-.0962,1.3466A5.9137,5.9137,0,0,0,481.6,48.9459Z"/></clipPath><clipPath id="clip-path-4"><rect class="cls-4" x="478.8102" y="36.0569" width="23.0848" height="23.0848"/></clipPath><clipPath id="clip-path-5"><path class="cls-3" d="M504.898,31.7456a2.1763,2.1763,0,1,1,2.1763,2.1762A2.1374,2.1374,0,0,1,504.898,31.7456Zm-4.4249,1.0156-2.1037,1.886,1.741,2.9017,2.5389-.798a7.6386,7.6386,0,0,0,2.1037,1.2332l.58,2.4664h3.482l.5077-2.4664a6.7075,6.7075,0,0,0,2.1037-1.2332l2.5389.87,1.8136-2.9742-2.1037-1.886a4.4639,4.4639,0,0,0,.0725-1.0156,4.4639,4.4639,0,0,0-.0725-1.0156l2.1037-1.886L513.9656,25.87l-2.4664.87a7.6371,7.6371,0,0,0-2.1036-1.2332l-.58-2.4664h-3.482l-.5078,2.4664a6.7056,6.7056,0,0,0-2.1037,1.2332l-2.5389-.87-1.8135,2.9742,2.1037,1.886a4.4578,4.4578,0,0,0-.0726,1.0156A4.4578,4.4578,0,0,0,500.4731,32.7612Z"/></clipPath><clipPath id="clip-path-6"><rect class="cls-4" x="498.3694" y="23.0407" width="17.4098" height="17.4098"/></clipPath></defs><g id="Text"><g class="cls-5"><g class="cls-6"><rect class="cls-2" x="450.4248" y="9.2001" width="42.5264" height="39.4644"/></g><rect class="cls-2" x="456.6787" y="15.0037" width="30.0186" height="27.8572"/></g><path class="cls-7" d="M467.9357,28.9323a3.7628,3.7628,0,1,1,3.7523,3.4821A3.56,3.56,0,0,1,467.9357,28.9323Zm-7.63,1.625-3.6273,3.0178,3.0019,4.6429,4.3777-1.2768a13.4391,13.4391,0,0,0,3.6272,1.9732l1.0006,3.9465H474.69l.8755-3.9465a11.7945,11.7945,0,0,0,3.6273-1.9732l4.3777,1.3929,3.1269-4.759L483.07,30.5573a6.63,6.63,0,0,0,.1252-1.625,6.6291,6.6291,0,0,0-.1252-1.625l3.6273-3.0179L483.57,19.5305l-4.2527,1.3928a13.4376,13.4376,0,0,0-3.6272-1.9732L474.69,15.0037h-6.0038l-.8755,3.9464a11.794,11.794,0,0,0-3.6272,1.9732l-4.3778-1.3928-3.1269,4.7589,3.6273,3.0179a6.6343,6.6343,0,0,0-.1251,1.625A6.6351,6.6351,0,0,0,460.306,30.5573Z"/><g class="cls-8"><g class="cls-9"><rect class="cls-4" x="474.0008" y="31.2476" width="32.7035" height="32.7035"/></g><rect class="cls-4" x="478.8102" y="36.0569" width="23.0848" height="23.0848"/></g><path class="cls-10" d="M487.467,47.5993a2.8856,2.8856,0,1,1,2.8856,2.8856A2.8341,2.8341,0,0,1,487.467,47.5993ZM481.6,48.9459,478.81,51.4468l2.3085,3.8475,3.3665-1.0581a10.1326,10.1326,0,0,0,2.7894,1.6352l.7695,3.27h4.617l.6733-3.27a8.8951,8.8951,0,0,0,2.7894-1.6352l3.3666,1.1543,2.4046-3.9437-2.7894-2.5009a5.9137,5.9137,0,0,0,.0962-1.3466,5.9145,5.9145,0,0,0-.0962-1.3466l2.7894-2.5009L499.49,39.8082l-3.27,1.1542a10.13,10.13,0,0,0-2.7894-1.6351l-.77-3.27h-4.617l-.6733,3.27a8.8941,8.8941,0,0,0-2.7894,1.6351l-3.3665-1.1542L478.81,43.7518,481.6,46.2527a5.9145,5.9145,0,0,0-.0962,1.3466A5.9137,5.9137,0,0,0,481.6,48.9459Z"/><circle cx="42.9691" cy="55.5293" r="24.7624"/><path class="cls-11" d="M50.1066,47.1305a6.6689,6.6689,0,1,1-6.6688-6.6688,6.6689,6.6689,0,0,1,6.6688,6.6688"/><path class="cls-11" d="M30.4331,70.2514a13.341,13.341,0,0,1,26.1339-.1672"/><circle class="cls-11" cx="43.5179" cy="55.5293" r="19.6993"/><circle class="cls-12" cx="30.4331" cy="70.2514" r="1.5178" transform="translate(-34.5117 29.71) rotate(-34.6034)"/><path d="M32.5471,84.5216V89.714a3.1094,3.1094,0,0,0,.4443,1.82,1.7916,1.7916,0,0,0,1.56.6192,1.7924,1.7924,0,0,0,1.56-.6192,3.11,3.11,0,0,0,.4434-1.82V84.5216h1.0088V89.466a6.8573,6.8573,0,0,1-.1621,1.5839,2.7757,2.7757,0,0,1-.5225,1.1153,2.1349,2.1349,0,0,1-.9414.66,4.0969,4.0969,0,0,1-1.4219.2159,3.9893,3.9893,0,0,1-1.41-.2159,2.052,2.052,0,0,1-.918-.66A2.7388,2.7388,0,0,1,31.69,91.05a7.31,7.31,0,0,1-.15-1.5839V84.5216Z"/><path d="M41.4992,93.0412a2.8985,2.8985,0,0,1-1.4463-.3292,3.3055,3.3055,0,0,1-1.0019-.8828l.6846-.5517a2.6735,2.6735,0,0,0,.8037.7021,2.0927,2.0927,0,0,0,1.0322.2461,1.5275,1.5275,0,0,0,.9531-.2637A.958.958,0,0,0,42.633,90.6a1.4305,1.4305,0,0,0-.8457-.3544l-.4922-.0713a4.1158,4.1158,0,0,1-.792-.1866,2.1751,2.1751,0,0,1-.63-.3359,1.4392,1.4392,0,0,1-.42-.5215,1.6941,1.6941,0,0,1-.15-.7441,1.7817,1.7817,0,0,1,.168-.7979,1.6075,1.6075,0,0,1,.4619-.57,2.0231,2.0231,0,0,1,.7022-.3418,3.24,3.24,0,0,1,.876-.1142,2.7422,2.7422,0,0,1,1.2666.2636,2.843,2.843,0,0,1,.8935.7325l-.6357.5761a1.892,1.892,0,0,0-1.5967-.7558,1.3748,1.3748,0,0,0-.9053.2578.87.87,0,0,0-.3066.7021.7336.7336,0,0,0,.3066.6592,2.2831,2.2831,0,0,0,.8818.3008l.48.0713a2.58,2.58,0,0,1,1.4649.5947,1.5643,1.5643,0,0,1,.4316,1.1455,1.7532,1.7532,0,0,1-.6123,1.416A2.5264,2.5264,0,0,1,41.4992,93.0412Z"/><path d="M47.8117,93.0412a2.7712,2.7712,0,0,1-1.1465-.2276,2.4758,2.4758,0,0,1-.8759-.6543,2.9884,2.9884,0,0,1-.5635-1.02,4.5948,4.5948,0,0,1,0-2.67,2.9852,2.9852,0,0,1,.5635-1.0264,2.4758,2.4758,0,0,1,.8759-.6543,2.7873,2.7873,0,0,1,1.1465-.2275,2.6339,2.6339,0,0,1,1.1153.2275,2.4693,2.4693,0,0,1,.8408.6279,2.8041,2.8041,0,0,1,.5332.95,3.7543,3.7543,0,0,1,.1865,1.208v.4541H46.0354v.2881a2.1256,2.1256,0,0,0,.1259.7383,1.751,1.751,0,0,0,.36.5937,1.6479,1.6479,0,0,0,.5752.3965,1.9867,1.9867,0,0,0,.7744.1436,1.8811,1.8811,0,0,0,1.0264-.2764,1.8044,1.8044,0,0,0,.6777-.792l.6836.4951a2.3928,2.3928,0,0,1-.9355,1.0332A2.8307,2.8307,0,0,1,47.8117,93.0412Zm0-5.6758a1.8271,1.8271,0,0,0-.7207.1377,1.6107,1.6107,0,0,0-.5576.3877,1.8121,1.8121,0,0,0-.3662.59,2.0459,2.0459,0,0,0-.1318.7451v.084h3.42v-.1318a1.885,1.885,0,0,0-.45-1.3174A1.5352,1.5352,0,0,0,47.8117,87.3654Z"/><path d="M52.0715,92.8976V86.7052h.96v1.1406h.0595a1.87,1.87,0,0,1,.6006-.792,1.84,1.84,0,0,1,1.1875-.3486h.3721v.96h-.5635a2.1748,2.1748,0,0,0-1.2187.2939.8674.8674,0,0,0-.4375.7383v4.2Z"/><line class="cls-13" x1="67.7315" y1="57.9984" x2="95.6352" y2="57.9984"/><polygon points="93.447 65.478 106.4 57.998 93.447 50.519 93.447 65.478"/><path d="M138.5207,174.5358a3.0292,3.0292,0,0,1-2.4844-1.086,4.9577,4.9577,0,0,1-.8877-3.1982,5.1693,5.1693,0,0,1,.8877-3.2461,2.9757,2.9757,0,0,1,2.4844-1.1338,2.9306,2.9306,0,0,1,2.88,1.8242l-.8164.4917a2.3267,2.3267,0,0,0-.7676-1.0381,2.0922,2.0922,0,0,0-1.2959-.39,2.2029,2.2029,0,0,0-.9668.2046,2.0063,2.0063,0,0,0-.72.584,2.7352,2.7352,0,0,0-.45.9033,4.1237,4.1237,0,0,0-.1553,1.1738v1.2525a3.127,3.127,0,0,0,.6,2.0351,2.0618,2.0618,0,0,0,1.6924.7344,2.1433,2.1433,0,0,0,1.3438-.4141,2.3845,2.3845,0,0,0,.792-1.0976l.8037.5039a3.2159,3.2159,0,0,1-1.14,1.3921A3.1356,3.1356,0,0,1,138.5207,174.5358Z"/><path d="M142.924,174.3917V168.2h.961v1.14h.06a1.8748,1.8748,0,0,1,.6-.7925,1.8451,1.8451,0,0,1,1.1884-.3477h.3721v.96H145.54a2.1693,2.1693,0,0,0-1.2177.2939.8666.8666,0,0,0-.4375.7378v4.2Z"/><path d="M149.5959,174.5358a2.7791,2.7791,0,0,1-1.1455-.228,2.4771,2.4771,0,0,1-.876-.6539,2.9979,2.9979,0,0,1-.5644-1.02,4.6165,4.6165,0,0,1,0-2.67,2.9907,2.9907,0,0,1,.5644-1.0259,2.4769,2.4769,0,0,1,.876-.6538,2.7791,2.7791,0,0,1,1.1455-.228,2.6348,2.6348,0,0,1,1.1162.2271,2.4688,2.4688,0,0,1,.84.6279,2.7916,2.7916,0,0,1,.5341.9507,3.7489,3.7489,0,0,1,.1866,1.208v.4541h-4.4522v.2881a2.1191,2.1191,0,0,0,.126.7382,1.76,1.76,0,0,0,.3594.5938,1.6543,1.6543,0,0,0,.5761.396,1.9785,1.9785,0,0,0,.7745.144,1.8819,1.8819,0,0,0,1.0253-.2758,1.8155,1.8155,0,0,0,.6788-.792l.6836.4951a2.3884,2.3884,0,0,1-.9356,1.0322A2.826,2.826,0,0,1,149.5959,174.5358Zm0-5.6763a1.8218,1.8218,0,0,0-.72.1377,1.6126,1.6126,0,0,0-.5576.3872,1.8121,1.8121,0,0,0-.3662.59,2.0449,2.0449,0,0,0-.1319.7457v.0834h3.42v-.1313a1.8843,1.8843,0,0,0-.45-1.3179A1.5357,1.5357,0,0,0,149.5959,168.86Z"/><path d="M157.8166,173.3952h-.0488a1.8889,1.8889,0,0,1-1.8115,1.1406,2.3539,2.3539,0,0,1-1.044-.228,2.2558,2.2558,0,0,1-.7978-.648,2.9425,2.9425,0,0,1-.5039-1.02,5.2543,5.2543,0,0,1,0-2.688,2.946,2.946,0,0,1,.5039-1.02,2.2612,2.2612,0,0,1,.7978-.648,2.3539,2.3539,0,0,1,1.044-.228,2.1115,2.1115,0,0,1,1.11.2793,1.7417,1.7417,0,0,1,.7012.8613h.0488v-3.6845h.96v8.88h-.96Zm-1.5967.2885a2.2387,2.2387,0,0,0,.6182-.0844,1.5408,1.5408,0,0,0,.51-.2471,1.1993,1.1993,0,0,0,.3418-.398,1.11,1.11,0,0,0,.1269-.5371v-2.3154a.9466.9466,0,0,0-.1269-.4766,1.1886,1.1886,0,0,0-.3418-.38,1.7189,1.7189,0,0,0-.51-.2471,2.1,2.1,0,0,0-.6182-.09,1.6526,1.6526,0,0,0-1.2841.5126,1.9174,1.9174,0,0,0-.4678,1.3448v1.061a1.9191,1.9191,0,0,0,.4678,1.3452A1.6541,1.6541,0,0,0,156.22,173.6837Z"/><path d="M163.1438,174.5358a2.7788,2.7788,0,0,1-1.1455-.228,2.4754,2.4754,0,0,1-.876-.6539,2.9981,2.9981,0,0,1-.5645-1.02,4.6188,4.6188,0,0,1,0-2.67,2.9909,2.9909,0,0,1,.5645-1.0259,2.4751,2.4751,0,0,1,.876-.6538,2.7788,2.7788,0,0,1,1.1455-.228,2.6351,2.6351,0,0,1,1.1162.2271,2.4674,2.4674,0,0,1,.84.6279,2.7918,2.7918,0,0,1,.5342.9507,3.7516,3.7516,0,0,1,.1865,1.208v.4541h-4.4521v.2881a2.1213,2.1213,0,0,0,.1259.7382,1.7618,1.7618,0,0,0,.3594.5938,1.6557,1.6557,0,0,0,.5762.396,1.9776,1.9776,0,0,0,.7744.144,1.8825,1.8825,0,0,0,1.0254-.2758,1.8147,1.8147,0,0,0,.6787-.792l.6836.4951a2.3882,2.3882,0,0,1-.9355,1.0322A2.8262,2.8262,0,0,1,163.1438,174.5358Zm0-5.6763a1.8226,1.8226,0,0,0-.72.1377,1.6135,1.6135,0,0,0-.5576.3872,1.8155,1.8155,0,0,0-.3662.59,2.0449,2.0449,0,0,0-.1318.7457v.0834h3.42v-.1313a1.8847,1.8847,0,0,0-.45-1.3179A1.5357,1.5357,0,0,0,163.1438,168.86Z"/><path d="M167.4035,174.3917V168.2h.961v.9966h.0478a2.0072,2.0072,0,0,1,.6416-.8315,1.8151,1.8151,0,0,1,1.11-.3091,1.942,1.942,0,0,1,1.5175.6182,2.5147,2.5147,0,0,1,.5586,1.7456v3.9721h-.96V170.58q0-1.6721-1.4043-1.6718a2.15,2.15,0,0,0-.5586.0722,1.6111,1.6111,0,0,0-.4854.2163,1.064,1.064,0,0,0-.3418.3667,1.0461,1.0461,0,0,0-.1259.5235v4.3051Z"/><path d="M175.5871,174.3917a.9822.9822,0,0,1-.7617-.2812,1.0471,1.0471,0,0,1-.2578-.7363v-4.3223h-1.02V168.2h.5762a.5636.5636,0,0,0,.4257-.1259.6529.6529,0,0,0,.1143-.438v-1.1524h.8643V168.2h1.3554v.8521h-1.3554V173.54h1.26v.852Z"/><path d="M178.9113,166.7477a.5866.5866,0,0,1-.45-.15.5543.5543,0,0,1-.1376-.39v-.1558a.5541.5541,0,0,1,.1376-.39.751.751,0,0,1,.9,0,.5542.5542,0,0,1,.1377.39v.1558a.5543.5543,0,0,1-.1377.39A.5866.5866,0,0,1,178.9113,166.7477Zm-.48,1.4521h.9609v6.1919h-.9609Z"/><path d="M185.9309,174.3917a.9428.9428,0,0,1-.7735-.288,1.4261,1.4261,0,0,1-.2939-.72h-.0606a1.5979,1.5979,0,0,1-.6718.8638,2.0868,2.0868,0,0,1-1.1162.2881,2.17,2.17,0,0,1-1.5293-.5039,1.77,1.77,0,0,1-.5459-1.3682,1.5617,1.5617,0,0,1,.6416-1.3437,3.4125,3.4125,0,0,1,1.998-.4683h1.2236V170.24a1.3383,1.3383,0,0,0-.3593-1.0083,1.5374,1.5374,0,0,0-1.1045-.3477,1.66,1.66,0,0,0-.9414.252,2.0767,2.0767,0,0,0-.63.6719l-.5762-.54a2.1846,2.1846,0,0,1,.8037-.8579,2.5342,2.5342,0,0,1,1.3916-.354,2.56,2.56,0,0,1,1.752.5508,1.9373,1.9373,0,0,1,.624,1.5327v3.4h.708v.852Zm-2.76-.6718a2.44,2.44,0,0,0,.66-.084,1.6142,1.6142,0,0,0,.5156-.24,1.1852,1.1852,0,0,0,.3369-.36.8667.8667,0,0,0,.1191-.4439v-1.02h-1.2714a2.3256,2.3256,0,0,0-1.2061.24.7753.7753,0,0,0-.3779.6962v.252a.8371.8371,0,0,0,.33.708A1.4361,1.4361,0,0,0,183.1711,173.72Z"/><path d="M188.86,174.3917a.9788.9788,0,0,1-.7617-.2822,1.0123,1.0123,0,0,1-.2588-.7139v-7.8837H188.8V173.54h.9111v.852Z"/><rect class="cls-4" x="117.8516" y="116.2415" width="89.8543" height="89.8543" rx="5.9018"/><rect class="cls-4" x="124.16" y="122.4984" width="6.4255" height="6.4255" rx="0.422"/><rect class="cls-4" x="136.6454" y="122.4984" width="6.4255" height="6.4255" rx="0.422"/><rect class="cls-4" x="148.885" y="122.4984" width="6.4255" height="6.4255" rx="0.422"/><line class="cls-14" x1="118.1573" y1="134.6822" x2="208.0116" y2="134.6822"/><line class="cls-13" x1="146.0261" y1="144.2233" x2="170.5053" y2="144.2233"/><line class="cls-13" x1="181.2992" y1="144.2233" x2="173.9748" y2="144.2233"/><line class="cls-13" x1="181.2992" y1="151.6147" x2="156.9164" y2="151.6147"/><line class="cls-13" x1="153.3506" y1="151.6147" x2="146.0261" y2="151.6147"/><line class="cls-13" x1="170.5053" y1="188.652" x2="146.0261" y2="188.652"/><line class="cls-13" x1="181.2992" y1="188.652" x2="173.4929" y2="188.652"/><line class="cls-13" x1="181.2992" y1="196.9402" x2="156.9164" y2="196.9402"/><line class="cls-13" x1="153.3506" y1="196.9402" x2="146.0261" y2="196.9402"/><rect class="cls-4" x="127.2165" y="160.607" width="71.7193" height="19.6604" rx="1.682"/><path d="M519.3123,13.7913h-70.77c-3.5532,0-6.4336,2.3285-6.4336,5.2008V34.5942h6.4336V18.9921h70.77V55.3972H474.2766v5.2007H480.71V70.9994h-6.4337V76.2h28.9515V70.9994H487.144V60.5979h32.1683c3.5533,0,6.4337-2.3284,6.4337-5.2007V18.9921C525.746,16.12,522.8656,13.7913,519.3123,13.7913Z"/><line class="cls-13" x1="207.3264" y1="161.8763" x2="228.2651" y2="161.8763"/><polygon points="226.077 169.356 239.029 161.876 226.077 154.397 226.077 169.356"/><rect class="cls-15" x="399.1518" y="37.7691" width="71.7193" height="19.6604" rx="1.682"/><path d="M404.2463,51.5538V43.1779h3.3359a2.2664,2.2664,0,0,1,1.7334.6421,2.8513,2.8513,0,0,1,0,3.5161,2.2684,2.2684,0,0,1-1.7334.6416h-2.3281v3.5761Zm1.0078-4.4638h2.3281a1.3,1.3,0,0,0,.93-.312,1.1642,1.1642,0,0,0,.33-.8882v-.624a1.1637,1.1637,0,0,0-.33-.8877,1.3,1.3,0,0,0-.93-.312h-2.3281Z"/><path d="M415.802,51.5538a.9425.9425,0,0,1-.7735-.288,1.4261,1.4261,0,0,1-.2939-.72h-.0606a1.5979,1.5979,0,0,1-.6718.8638,2.0868,2.0868,0,0,1-1.1162.2881,2.17,2.17,0,0,1-1.5293-.5039,1.77,1.77,0,0,1-.5459-1.3682,1.5617,1.5617,0,0,1,.6416-1.3437,3.4132,3.4132,0,0,1,1.998-.4683h1.2236V47.402a1.3383,1.3383,0,0,0-.3593-1.0083,1.5379,1.5379,0,0,0-1.1045-.3477,1.66,1.66,0,0,0-.9414.252,2.0766,2.0766,0,0,0-.63.6719l-.5762-.54a2.1853,2.1853,0,0,1,.8037-.8579,2.5342,2.5342,0,0,1,1.3916-.354,2.56,2.56,0,0,1,1.752.5508,1.9373,1.9373,0,0,1,.624,1.5327v3.4h.708v.852Zm-2.76-.6718a2.44,2.44,0,0,0,.66-.084,1.6141,1.6141,0,0,0,.5156-.24,1.1867,1.1867,0,0,0,.3369-.36.8667.8667,0,0,0,.1191-.4439v-1.02h-1.2714a2.3256,2.3256,0,0,0-1.2061.24.7753.7753,0,0,0-.3779.6963v.2519a.8373.8373,0,0,0,.33.708A1.4366,1.4366,0,0,0,413.0422,50.882Z"/><path d="M419.57,51.6979a2.8961,2.8961,0,0,1-1.4462-.33,3.29,3.29,0,0,1-1.002-.8818l.6846-.5523a2.6943,2.6943,0,0,0,.8037.7022,2.0938,2.0938,0,0,0,1.0322.2461,1.5275,1.5275,0,0,0,.9541-.2642.9584.9584,0,0,0,.1074-1.3618,1.4245,1.4245,0,0,0-.8457-.354l-.4922-.0723a4.108,4.108,0,0,1-.7919-.186,2.19,2.19,0,0,1-.63-.3359,1.4428,1.4428,0,0,1-.42-.522,1.696,1.696,0,0,1-.15-.7442,1.799,1.799,0,0,1,.1679-.7978,1.6076,1.6076,0,0,1,.4629-.57,2.0172,2.0172,0,0,1,.7012-.3423,3.26,3.26,0,0,1,.876-.1138,2.73,2.73,0,0,1,1.2666.2642,2.8331,2.8331,0,0,1,.8935.7319l-.6357.5757a1.9139,1.9139,0,0,0-.6-.522,1.9387,1.9387,0,0,0-.9961-.2339,1.3765,1.3765,0,0,0-.9063.2578.87.87,0,0,0-.3056.7022.7346.7346,0,0,0,.3056.66,2.2807,2.2807,0,0,0,.8819.3l.48.0723a2.5762,2.5762,0,0,1,1.4639.5938,1.5615,1.5615,0,0,1,.4316,1.146,1.7527,1.7527,0,0,1-.6123,1.416A2.5224,2.5224,0,0,1,419.57,51.6979Z"/><path d="M425.342,51.6979a2.8965,2.8965,0,0,1-1.4463-.33,3.2889,3.2889,0,0,1-1.0019-.8818l.6845-.5523a2.6955,2.6955,0,0,0,.8037.7022,2.0942,2.0942,0,0,0,1.0323.2461,1.5275,1.5275,0,0,0,.9541-.2642.9584.9584,0,0,0,.1074-1.3618,1.4248,1.4248,0,0,0-.8457-.354l-.4922-.0723a4.1073,4.1073,0,0,1-.792-.186,2.1915,2.1915,0,0,1-.63-.3359,1.4415,1.4415,0,0,1-.42-.522,1.6945,1.6945,0,0,1-.15-.7442,1.799,1.799,0,0,1,.168-.7978,1.6076,1.6076,0,0,1,.4629-.57,2.0175,2.0175,0,0,1,.7011-.3423,3.2606,3.2606,0,0,1,.876-.1138,2.73,2.73,0,0,1,1.2666.2642,2.8334,2.8334,0,0,1,.8936.7319l-.6358.5757a1.9116,1.9116,0,0,0-.6-.522,1.9384,1.9384,0,0,0-.9961-.2339,1.3762,1.3762,0,0,0-.9062.2578.8705.8705,0,0,0-.3057.7022.7347.7347,0,0,0,.3057.66,2.28,2.28,0,0,0,.8818.3l.4805.0723a2.5762,2.5762,0,0,1,1.4639.5938,1.5619,1.5619,0,0,1,.4316,1.146,1.7527,1.7527,0,0,1-.6123,1.416A2.5226,2.5226,0,0,1,425.342,51.6979Z"/><path d="M429.3254,45.362h.9609v.9965h.0479a1.7332,1.7332,0,0,1,.7021-.8613,2.106,2.106,0,0,1,1.1094-.2793,2.3542,2.3542,0,0,1,1.044.228,2.2612,2.2612,0,0,1,.7978.648,2.9469,2.9469,0,0,1,.5039,1.02,5.2543,5.2543,0,0,1,0,2.688,2.9425,2.9425,0,0,1-.5039,1.02,2.2558,2.2558,0,0,1-.7978.648,2.3542,2.3542,0,0,1-1.044.228,1.8736,1.8736,0,0,1-1.8115-1.1406h-.0479v3.3964h-.9609Zm2.5566,5.4838a1.6541,1.6541,0,0,0,1.2842-.5122,1.92,1.92,0,0,0,.4678-1.3452v-1.061a1.9174,1.9174,0,0,0-.4678-1.3447,1.6528,1.6528,0,0,0-1.2842-.5127,2.1,2.1,0,0,0-.6181.09,1.7189,1.7189,0,0,0-.51.2471,1.1886,1.1886,0,0,0-.3418.38.9549.9549,0,0,0-.126.4766v2.3154a1.12,1.12,0,0,0,.126.5371,1.1993,1.1993,0,0,0,.3418.398,1.5408,1.5408,0,0,0,.51.2471A2.2385,2.2385,0,0,0,431.882,50.8458Z"/><path d="M436.2854,42.674h.9609v3.6845h.0479a2.0062,2.0062,0,0,1,.6416-.8315,1.8146,1.8146,0,0,1,1.11-.3091,1.9422,1.9422,0,0,1,1.5176.6182,2.5147,2.5147,0,0,1,.5586,1.7456v3.9721h-.96v-3.812q0-1.672-1.4043-1.6718a2.15,2.15,0,0,0-.5586.0722,1.6094,1.6094,0,0,0-.4853.2163,1.0631,1.0631,0,0,0-.3418.3667,1.0451,1.0451,0,0,0-.126.5235v4.3051h-.9609Z"/><path d="M443.1008,51.5538V45.362h.9609v1.14h.06a1.8745,1.8745,0,0,1,.6-.7925,1.8456,1.8456,0,0,1,1.1885-.3476h.3721v.96h-.5645a2.17,2.17,0,0,0-1.2178.294.8665.8665,0,0,0-.4375.7378v4.2Z"/><path d="M451.9572,51.5538a.9424.9424,0,0,1-.7734-.288,1.4261,1.4261,0,0,1-.2939-.72h-.0606a1.598,1.598,0,0,1-.6719.8638,2.0866,2.0866,0,0,1-1.1162.2881,2.17,2.17,0,0,1-1.5293-.5039,1.77,1.77,0,0,1-.5459-1.3682,1.562,1.562,0,0,1,.6416-1.3437,3.4138,3.4138,0,0,1,1.9981-.4683h1.2236V47.402a1.338,1.338,0,0,0-.3594-1.0083,1.5377,1.5377,0,0,0-1.1045-.3477,1.66,1.66,0,0,0-.9414.252,2.0774,2.0774,0,0,0-.63.6719l-.5762-.54a2.1846,2.1846,0,0,1,.8037-.8579,2.5339,2.5339,0,0,1,1.3916-.354,2.56,2.56,0,0,1,1.7519.5508,1.937,1.937,0,0,1,.6241,1.5327v3.4h.708v.852Zm-2.76-.6718a2.44,2.44,0,0,0,.66-.084,1.6146,1.6146,0,0,0,.5157-.24,1.1867,1.1867,0,0,0,.3369-.36.8667.8667,0,0,0,.1191-.4439v-1.02h-1.2715a2.3252,2.3252,0,0,0-1.206.24.7754.7754,0,0,0-.378.6963v.2519a.8374.8374,0,0,0,.33.708A1.4364,1.4364,0,0,0,449.1975,50.882Z"/><path d="M455.7258,51.6979a2.8965,2.8965,0,0,1-1.4463-.33,3.2889,3.2889,0,0,1-1.0019-.8818l.6845-.5523a2.6955,2.6955,0,0,0,.8037.7022,2.0942,2.0942,0,0,0,1.0323.2461,1.5277,1.5277,0,0,0,.9541-.2642.9584.9584,0,0,0,.1074-1.3618,1.4248,1.4248,0,0,0-.8457-.354l-.4922-.0723a4.1073,4.1073,0,0,1-.792-.186,2.1915,2.1915,0,0,1-.63-.3359,1.4415,1.4415,0,0,1-.42-.522,1.6945,1.6945,0,0,1-.15-.7442,1.7977,1.7977,0,0,1,.168-.7978,1.6076,1.6076,0,0,1,.4629-.57,2.0175,2.0175,0,0,1,.7011-.3423,3.2606,3.2606,0,0,1,.876-.1138,2.73,2.73,0,0,1,1.2666.2642,2.8334,2.8334,0,0,1,.8936.7319l-.6358.5757a1.9116,1.9116,0,0,0-.6-.522,1.9384,1.9384,0,0,0-.9961-.2339,1.3762,1.3762,0,0,0-.9062.2578.8705.8705,0,0,0-.3057.7022.7347.7347,0,0,0,.3057.66,2.28,2.28,0,0,0,.8818.3l.4805.0723a2.5756,2.5756,0,0,1,1.4638.5938,1.5615,1.5615,0,0,1,.4317,1.146,1.7527,1.7527,0,0,1-.6123,1.416A2.5226,2.5226,0,0,1,455.7258,51.6979Z"/><path d="M462.0373,51.6979a2.78,2.78,0,0,1-1.1455-.228,2.478,2.478,0,0,1-.876-.6538,2.9993,2.9993,0,0,1-.5644-1.02,4.6165,4.6165,0,0,1,0-2.67,2.9907,2.9907,0,0,1,.5644-1.0259,2.478,2.478,0,0,1,.876-.6538,2.78,2.78,0,0,1,1.1455-.228,2.6348,2.6348,0,0,1,1.1162.2271,2.4678,2.4678,0,0,1,.84.6279,2.7934,2.7934,0,0,1,.5342.9507,3.7516,3.7516,0,0,1,.1865,1.208v.4541h-4.4522v.2881a2.1191,2.1191,0,0,0,.126.7382,1.76,1.76,0,0,0,.3594.5938,1.6538,1.6538,0,0,0,.5762.396,1.9776,1.9776,0,0,0,.7744.144,1.8825,1.8825,0,0,0,1.0254-.2758,1.816,1.816,0,0,0,.6787-.792l.6836.4951a2.3884,2.3884,0,0,1-.9356,1.0322A2.826,2.826,0,0,1,462.0373,51.6979Zm0-5.6763a1.8218,1.8218,0,0,0-.72.1377,1.6126,1.6126,0,0,0-.5576.3872,1.8132,1.8132,0,0,0-.3662.59,2.0444,2.0444,0,0,0-.1319.7456v.0835h3.42v-.1314a1.8847,1.8847,0,0,0-.45-1.3179A1.5364,1.5364,0,0,0,462.0373,46.0216Z"/><g class="cls-16"><g class="cls-17"><rect class="cls-4" x="494.7423" y="19.4137" width="24.6639" height="24.6639"/></g><rect class="cls-4" x="498.3694" y="23.0407" width="17.4098" height="17.4098"/></g><path class="cls-10" d="M504.898,31.7456a2.1763,2.1763,0,1,1,2.1763,2.1762A2.1374,2.1374,0,0,1,504.898,31.7456Zm-4.4249,1.0156-2.1037,1.886,1.741,2.9017,2.5389-.798a7.6386,7.6386,0,0,0,2.1037,1.2332l.58,2.4664h3.482l.5077-2.4664a6.7075,6.7075,0,0,0,2.1037-1.2332l2.5389.87,1.8136-2.9742-2.1037-1.886a4.4639,4.4639,0,0,0,.0725-1.0156,4.4639,4.4639,0,0,0-.0725-1.0156l2.1037-1.886L513.9656,25.87l-2.4664.87a7.6371,7.6371,0,0,0-2.1036-1.2332l-.58-2.4664h-3.482l-.5078,2.4664a6.7056,6.7056,0,0,0-2.1037,1.2332l-2.5389-.87-1.8135,2.9742,2.1037,1.886a4.4578,4.4578,0,0,0-.0726,1.0156A4.4578,4.4578,0,0,0,500.4731,32.7612Z"/><rect class="cls-18" x="400.2212" y="149.8565" width="128.8882" height="25.1668" rx="2.5512"/><path d="M263.5227,157.1242h2.5322a3.01,3.01,0,0,1,1.2764.2641,2.6106,2.6106,0,0,1,.9795.7857,3.7186,3.7186,0,0,1,.622,1.3081,7.8323,7.8323,0,0,1,0,3.66,3.7186,3.7186,0,0,1-.622,1.3081,2.6106,2.6106,0,0,1-.9795.7857,3.0118,3.0118,0,0,1-1.2764.2641h-2.5322Zm2.5322,7.4878a2.07,2.07,0,0,0,.8545-.1739,1.8493,1.8493,0,0,0,.6709-.51,2.4254,2.4254,0,0,0,.4385-.8223,3.6106,3.6106,0,0,0,.1572-1.11v-1.3681a3.61,3.61,0,0,0-.1572-1.11,2.4254,2.4254,0,0,0-.4385-.8223,1.8549,1.8549,0,0,0-.6709-.51,2.0761,2.0761,0,0,0-.8545-.1739h-1.624v6.6Z"/><path d="M270.7844,165.5v-8.3759h4.6094v.8881h-3.7012V160.82h3.4853v.8881h-3.4853v2.9039h3.7012V165.5Z"/><path d="M279.0725,161.3839l-1.0713,1.32V165.5h-.9082v-8.3759h.9082v4.4521h.0332l1.082-1.4521,2.2832-3h1.1143L279.7,160.712l3.0088,4.7881h-1.126Z"/><path d="M288.3352,164.756v-2.5078h-2.11v-.8159h2.11V158.924h.8232v2.5083h2.1094v.8159h-2.1094v2.5078Z"/><path d="M298.216,165.6442a2.6221,2.6221,0,0,1-2.24-1.086,5.3483,5.3483,0,0,1-.8008-3.1982,5.5821,5.5821,0,0,1,.8008-3.2461,2.5856,2.5856,0,0,1,2.24-1.1338,2.6192,2.6192,0,0,1,1.5957.4741,3.0582,3.0582,0,0,1,1.001,1.35l-.7353.4917a2.33,2.33,0,0,0-.6934-1.0381,1.7558,1.7558,0,0,0-1.168-.39,1.8185,1.8185,0,0,0-.8711.2046,1.8471,1.8471,0,0,0-.6494.584,2.8565,2.8565,0,0,0-.4062.9033,4.5245,4.5245,0,0,0-.1407,1.1738v1.2525a3.3733,3.3733,0,0,0,.5411,2.0351,1.7835,1.7835,0,0,0,1.5263.7344,1.8066,1.8066,0,0,0,1.2119-.4141,2.393,2.393,0,0,0,.7139-1.0976l.7256.5039a3.1734,3.1734,0,0,1-1.0283,1.3921A2.6256,2.6256,0,0,1,298.216,165.6442Z"/><path d="M302.1877,165.5v-6.1919h.8652v1.14h.0547a1.8654,1.8654,0,0,1,.541-.7925,1.5518,1.5518,0,0,1,1.0713-.3477h.335v.96h-.5078a1.8056,1.8056,0,0,0-1.0986.2939.8875.8875,0,0,0-.3956.7378v4.2Z"/><path d="M308.2043,165.6442a2.3,2.3,0,0,1-1.0342-.228,2.2718,2.2718,0,0,1-.79-.6539,3.1149,3.1149,0,0,1-.5078-1.02,5.0775,5.0775,0,0,1,0-2.67,3.1091,3.1091,0,0,1,.5078-1.0259,2.2715,2.2715,0,0,1,.79-.6538,2.3,2.3,0,0,1,1.0342-.228,2.177,2.177,0,0,1,1.0059.227,2.2669,2.2669,0,0,1,.7578.628,2.9054,2.9054,0,0,1,.4814.9507,4.1117,4.1117,0,0,1,.168,1.208v.4541h-4.0147v.2881a2.3178,2.3178,0,0,0,.1133.7382,1.8031,1.8031,0,0,0,.3242.5938,1.506,1.506,0,0,0,.52.396,1.63,1.63,0,0,0,.6982.144,1.5763,1.5763,0,0,0,.9258-.2759,1.7783,1.7783,0,0,0,.6113-.7919l.6162.4951a2.3162,2.3162,0,0,1-.8437,1.0322A2.3558,2.3558,0,0,1,308.2043,165.6442Zm0-5.6763a1.5023,1.5023,0,0,0-.6494.1377,1.462,1.462,0,0,0-.5029.3872,1.8387,1.8387,0,0,0-.33.59,2.2232,2.2232,0,0,0-.1192.7456v.0835h3.084v-.1313a2.0146,2.0146,0,0,0-.4062-1.3179A1.3213,1.3213,0,0,0,308.2043,159.9679Z"/><path d="M315.6174,164.5036h-.0439a1.7,1.7,0,0,1-1.6338,1.1406,1.9517,1.9517,0,0,1-.9414-.228,2.0988,2.0988,0,0,1-.72-.648,3.1089,3.1089,0,0,1-.4541-1.02,5.8239,5.8239,0,0,1,0-2.688,3.1127,3.1127,0,0,1,.4541-1.02,2.1039,2.1039,0,0,1,.72-.648,1.9517,1.9517,0,0,1,.9414-.228,1.7557,1.7557,0,0,1,1.0009.2793,1.7106,1.7106,0,0,1,.6329.8613h.0439V156.62h.8652v8.88h-.8652Zm-1.4395.2885a1.8359,1.8359,0,0,0,.5577-.0844,1.3455,1.3455,0,0,0,.46-.2471,1.1709,1.1709,0,0,0,.3076-.398,1.2136,1.2136,0,0,0,.1143-.5371V161.21a1.0317,1.0317,0,0,0-.1143-.4766,1.1524,1.1524,0,0,0-.3076-.38,1.5018,1.5018,0,0,0-.46-.2471,1.7237,1.7237,0,0,0-.5577-.09,1.4186,1.4186,0,0,0-1.1582.5127,2.0473,2.0473,0,0,0-.4218,1.3448v1.061a2.0492,2.0492,0,0,0,.4218,1.3452A1.42,1.42,0,0,0,314.1779,164.7921Z"/><path d="M320.4221,165.6442a2.3,2.3,0,0,1-1.0342-.228,2.2718,2.2718,0,0,1-.79-.6539,3.113,3.113,0,0,1-.5078-1.02,5.0747,5.0747,0,0,1,0-2.67,3.1071,3.1071,0,0,1,.5078-1.0259,2.2715,2.2715,0,0,1,.79-.6538,2.3,2.3,0,0,1,1.0342-.228,2.1766,2.1766,0,0,1,1.0058.227,2.2672,2.2672,0,0,1,.7579.628,2.9074,2.9074,0,0,1,.4814.9507,4.1117,4.1117,0,0,1,.168,1.208v.4541h-4.0147v.2881a2.315,2.315,0,0,0,.1133.7382,1.8031,1.8031,0,0,0,.3242.5938,1.506,1.506,0,0,0,.52.396,1.63,1.63,0,0,0,.6982.144,1.5763,1.5763,0,0,0,.9258-.2759,1.7783,1.7783,0,0,0,.6113-.7919l.6162.4951a2.3169,2.3169,0,0,1-.8437,1.0322A2.3558,2.3558,0,0,1,320.4221,165.6442Zm0-5.6763a1.5023,1.5023,0,0,0-.6494.1377,1.4632,1.4632,0,0,0-.503.3872,1.8385,1.8385,0,0,0-.33.59,2.2232,2.2232,0,0,0-.1192.7456v.0835h3.084v-.1313a2.0146,2.0146,0,0,0-.4062-1.3179A1.3216,1.3216,0,0,0,320.4221,159.9679Z"/><path d="M324.2629,165.5v-6.1919h.8652v.9966h.044a1.9973,1.9973,0,0,1,.5791-.8315,1.5178,1.5178,0,0,1,1.001-.3091,1.669,1.669,0,0,1,1.3681.6182,2.6942,2.6942,0,0,1,.5039,1.7456V165.5h-.8662v-3.812q0-1.672-1.2656-1.6719a1.76,1.76,0,0,0-.5039.0723,1.39,1.39,0,0,0-.4375.2163,1.0287,1.0287,0,0,0-.3086.3667,1.1318,1.1318,0,0,0-.1143.5235V165.5Z"/><path d="M331.6438,165.5a.8384.8384,0,0,1-.6866-.2812,1.1177,1.1177,0,0,1-.2334-.7363V160.16h-.92v-.8521h.52a.48.48,0,0,0,.3847-.1259.708.708,0,0,0,.1026-.438v-1.1524h.7793v1.7163h1.2226v.8521H331.59v4.4878h1.1357v.852Z"/><path d="M334.6408,157.8561a.496.496,0,0,1-.4052-.15.591.591,0,0,1-.125-.39V157.16a.5908.5908,0,0,1,.125-.39.6241.6241,0,0,1,.8115,0,.59.59,0,0,1,.124.39v.1558a.5905.5905,0,0,1-.124.39A.5.5,0,0,1,334.6408,157.8561Zm-.4326,1.4521h.8653V165.5h-.8653Z"/><path d="M340.9709,165.5a.807.807,0,0,1-.6973-.2881,1.5168,1.5168,0,0,1-.2656-.72h-.0537a1.59,1.59,0,0,1-.6064.8638,1.7407,1.7407,0,0,1-1.0059.2881,1.8406,1.8406,0,0,1-1.38-.5039,1.8741,1.8741,0,0,1-.4922-1.3682,1.6274,1.6274,0,0,1,.5782-1.3437,2.8479,2.8479,0,0,1,1.8017-.4683h1.1045v-.6118a1.425,1.425,0,0,0-.3252-1.0083,1.2976,1.2976,0,0,0-.9951-.3477,1.3911,1.3911,0,0,0-.85.252,2.0018,2.0018,0,0,0-.5684.6719l-.5195-.54a2.0749,2.0749,0,0,1,1.9805-1.2119,2.1623,2.1623,0,0,1,1.58.5508,2.0466,2.0466,0,0,1,.5625,1.5327v3.4h.6387v.852Zm-2.4883-.6718a1.9982,1.9982,0,0,0,.5948-.084,1.4041,1.4041,0,0,0,.4658-.24,1.1489,1.1489,0,0,0,.3027-.36.93.93,0,0,0,.1084-.4439v-1.02h-1.1475a1.9269,1.9269,0,0,0-1.0878.24.8.8,0,0,0-.3409.6962v.252a.8772.8772,0,0,0,.2979.708A1.2067,1.2067,0,0,0,338.4826,164.8283Z"/><path d="M343.6125,165.5a.8393.8393,0,0,1-.6875-.2822,1.0821,1.0821,0,0,1-.2324-.7139V156.62h.8652v8.0278h.8233v.852Z"/><path d="M409.7785,166.0641v-8.376H414.89v.8882h-4.1036v2.8076h3.8643v.8882h-3.8643v2.9038H414.89v.8882Z"/><path d="M416.6779,166.0641v-6.1919h.961v.9966h.0478a2.0081,2.0081,0,0,1,.6416-.8316,1.8158,1.8158,0,0,1,1.11-.309,1.9423,1.9423,0,0,1,1.5176.6181,2.5154,2.5154,0,0,1,.5586,1.7456v3.9722h-.96v-3.812q0-1.6722-1.4043-1.6719a2.1456,2.1456,0,0,0-.5586.0723,1.6069,1.6069,0,0,0-.4853.2163,1.0612,1.0612,0,0,0-.3418.3667,1.0445,1.0445,0,0,0-.126.5234v4.3052Z"/><path d="M425.7981,166.2081a2.85,2.85,0,0,1-1.1641-.228,2.3693,2.3693,0,0,1-.87-.6479,2.8843,2.8843,0,0,1-.54-1.02,4.9612,4.9612,0,0,1,0-2.6879,2.8887,2.8887,0,0,1,.54-1.02,2.3749,2.3749,0,0,1,.87-.6479,2.85,2.85,0,0,1,1.1641-.228,2.4822,2.4822,0,0,1,1.4814.4018,2.4488,2.4488,0,0,1,.834,1.05l-.8037.4077a1.4613,1.4613,0,0,0-.5518-.7441,1.6569,1.6569,0,0,0-.96-.2637,1.92,1.92,0,0,0-.7559.1377,1.4681,1.4681,0,0,0-.54.3843,1.6108,1.6108,0,0,0-.3243.5879,2.4739,2.4739,0,0,0-.1084.75v1.0561a2.0108,2.0108,0,0,0,.4385,1.3379,1.5876,1.5876,0,0,0,1.29.522,1.741,1.741,0,0,0,1.68-1.08l.6963.4683a2.46,2.46,0,0,1-.8945,1.0678A2.6107,2.6107,0,0,1,425.7981,166.2081Z"/><path d="M429.53,166.0641v-6.1919h.9609v1.14h.06a1.8742,1.8742,0,0,1,.6-.7924,1.845,1.845,0,0,1,1.1885-.3477h.3721v.96h-.5645a2.17,2.17,0,0,0-1.2178.2939.8669.8669,0,0,0-.4375.7378v4.2Z"/><path d="M437.8693,159.8722h.9483l-2.7725,7.6318a3.28,3.28,0,0,1-.2158.462.9035.9035,0,0,1-.2637.2939,1.0534,1.0534,0,0,1-.3906.1563,2.9021,2.9021,0,0,1-.5693.0478h-.4922v-.852h.9717l.4677-1.3179-2.3154-6.4219h.96l1.4883,4.2036.288,1.0064h.06l.3359-1.0064Z"/><path d="M440.0412,159.8722h.961v.9966h.0478a1.7329,1.7329,0,0,1,.7022-.8613,2.1045,2.1045,0,0,1,1.1093-.2793,2.3525,2.3525,0,0,1,1.044.228,2.2609,2.2609,0,0,1,.7978.6479,2.9474,2.9474,0,0,1,.5039,1.02,5.2539,5.2539,0,0,1,0,2.6879,2.943,2.943,0,0,1-.5039,1.02,2.2555,2.2555,0,0,1-.7978.6479,2.3525,2.3525,0,0,1-1.044.228,1.8734,1.8734,0,0,1-1.8115-1.1406h-.0478v3.3965h-.961Zm2.5567,5.4839a1.6541,1.6541,0,0,0,1.2841-.5122,1.9192,1.9192,0,0,0,.4678-1.3452v-1.0611a1.9171,1.9171,0,0,0-.4678-1.3447,1.6527,1.6527,0,0,0-1.2841-.5127,2.103,2.103,0,0,0-.6182.09,1.7214,1.7214,0,0,0-.51.2471,1.19,1.19,0,0,0-.3418.38.9553.9553,0,0,0-.1259.4766V164.09a1.1206,1.1206,0,0,0,.1259.5371,1.199,1.199,0,0,0,.3418.3979,1.5388,1.5388,0,0,0,.51.2471A2.235,2.235,0,0,0,442.5979,165.3561Z"/><path d="M448.2971,166.0641a.9819.9819,0,0,1-.7617-.2812,1.0474,1.0474,0,0,1-.2578-.7364v-4.3222H446.257v-.8521h.5762a.564.564,0,0,0,.4258-.126.6529.6529,0,0,0,.1143-.438v-1.1523h.8642v1.7163h1.3555v.8521h-1.3555v4.4877h1.26v.8521Z"/><path d="M453.4211,166.2081a2.7775,2.7775,0,0,1-1.1455-.228,2.4757,2.4757,0,0,1-.876-.6538,2.9988,2.9988,0,0,1-.5644-1.02,4.6165,4.6165,0,0,1,0-2.67A2.9907,2.9907,0,0,1,451.4,160.61a2.4757,2.4757,0,0,1,.876-.6538,2.7775,2.7775,0,0,1,1.1455-.228,2.6348,2.6348,0,0,1,1.1162.227,2.4714,2.4714,0,0,1,.84.6279,2.7916,2.7916,0,0,1,.5341.9507,3.7493,3.7493,0,0,1,.1866,1.208v.4541h-4.4522v.2881a2.1192,2.1192,0,0,0,.126.7383,1.7611,1.7611,0,0,0,.3594.5938,1.6541,1.6541,0,0,0,.5761.3959,1.9785,1.9785,0,0,0,.7745.1441,1.8811,1.8811,0,0,0,1.0253-.2759,1.815,1.815,0,0,0,.6788-.792l.6835.4951a2.3878,2.3878,0,0,1-.9355,1.0323A2.8259,2.8259,0,0,1,453.4211,166.2081Zm0-5.6762a1.8218,1.8218,0,0,0-.72.1377,1.6126,1.6126,0,0,0-.5576.3872,1.811,1.811,0,0,0-.3662.59,2.0448,2.0448,0,0,0-.1319.7456v.0835h3.42v-.1313a1.8846,1.8846,0,0,0-.45-1.3179A1.5357,1.5357,0,0,0,453.4211,160.5319Z"/><path d="M461.6418,165.0675h-.0488a1.8887,1.8887,0,0,1-1.8115,1.1406,2.3525,2.3525,0,0,1-1.044-.228,2.2555,2.2555,0,0,1-.7978-.6479,2.943,2.943,0,0,1-.5039-1.02,5.2539,5.2539,0,0,1,0-2.6879,2.9474,2.9474,0,0,1,.5039-1.02,2.2609,2.2609,0,0,1,.7978-.6479,2.3525,2.3525,0,0,1,1.044-.228,2.1106,2.1106,0,0,1,1.11.2793,1.7417,1.7417,0,0,1,.7012.8613h.0488v-3.6846h.96v8.88h-.96Zm-1.5967.2886a2.235,2.235,0,0,0,.6182-.0845,1.5388,1.5388,0,0,0,.51-.2471,1.199,1.199,0,0,0,.3418-.3979,1.11,1.11,0,0,0,.1269-.5371v-2.3154a.9461.9461,0,0,0-.1269-.4766,1.19,1.19,0,0,0-.3418-.38,1.7214,1.7214,0,0,0-.51-.2471,2.103,2.103,0,0,0-.6182-.09,1.6527,1.6527,0,0,0-1.2841.5127,1.9171,1.9171,0,0,0-.4678,1.3447v1.0611a1.9192,1.9192,0,0,0,.4678,1.3452A1.6541,1.6541,0,0,0,460.0451,165.3561Z"/><path d="M469.7776,166.2081a2.85,2.85,0,0,1-1.1641-.228,2.3693,2.3693,0,0,1-.87-.6479,2.8827,2.8827,0,0,1-.54-1.02,4.9612,4.9612,0,0,1,0-2.6879,2.8871,2.8871,0,0,1,.54-1.02,2.3749,2.3749,0,0,1,.87-.6479,2.85,2.85,0,0,1,1.1641-.228,2.4822,2.4822,0,0,1,1.4814.4018,2.4488,2.4488,0,0,1,.834,1.05l-.8037.4077a1.4613,1.4613,0,0,0-.5518-.7441,1.6569,1.6569,0,0,0-.96-.2637,1.92,1.92,0,0,0-.7559.1377,1.4681,1.4681,0,0,0-.54.3843,1.6108,1.6108,0,0,0-.3243.5879,2.4739,2.4739,0,0,0-.1084.75v1.0561a2.0108,2.0108,0,0,0,.4385,1.3379,1.5876,1.5876,0,0,0,1.29.522,1.7411,1.7411,0,0,0,1.68-1.08l.6963.4683a2.46,2.46,0,0,1-.8945,1.0678A2.6109,2.6109,0,0,1,469.7776,166.2081Z"/><path d="M473.509,166.0641v-6.1919h.9609v1.14h.06a1.8742,1.8742,0,0,1,.6-.7924,1.845,1.845,0,0,1,1.1885-.3477h.3721v.96h-.5645a2.17,2.17,0,0,0-1.2178.2939.8666.8666,0,0,0-.4375.7378v4.2Z"/><path d="M480.1809,166.2081a2.7772,2.7772,0,0,1-1.1455-.228,2.4739,2.4739,0,0,1-.876-.6538,2.999,2.999,0,0,1-.5645-1.02,4.6188,4.6188,0,0,1,0-2.67,2.9909,2.9909,0,0,1,.5645-1.0259,2.4739,2.4739,0,0,1,.876-.6538,2.7772,2.7772,0,0,1,1.1455-.228,2.6348,2.6348,0,0,1,1.1162.227,2.47,2.47,0,0,1,.84.6279,2.7918,2.7918,0,0,1,.5342.9507,3.7521,3.7521,0,0,1,.1865,1.208v.4541h-4.4521v.2881a2.1192,2.1192,0,0,0,.126.7383,1.7609,1.7609,0,0,0,.3593.5938,1.6554,1.6554,0,0,0,.5762.3959,1.9776,1.9776,0,0,0,.7744.1441,1.8817,1.8817,0,0,0,1.0254-.2759,1.8141,1.8141,0,0,0,.6787-.792l.6836.4951a2.3884,2.3884,0,0,1-.9355,1.0323A2.8259,2.8259,0,0,1,480.1809,166.2081Zm0-5.6762a1.8226,1.8226,0,0,0-.72.1377,1.6135,1.6135,0,0,0-.5576.3872,1.8144,1.8144,0,0,0-.3662.59,2.0448,2.0448,0,0,0-.1318.7456v.0835h3.42v-.1313a1.8846,1.8846,0,0,0-.45-1.3179A1.5357,1.5357,0,0,0,480.1809,160.5319Z"/><path d="M488.4016,165.0675h-.0489a1.8885,1.8885,0,0,1-1.8115,1.1406,2.3521,2.3521,0,0,1-1.0439-.228,2.2567,2.2567,0,0,1-.7979-.6479,2.9448,2.9448,0,0,1-.5039-1.02,5.2539,5.2539,0,0,1,0-2.6879,2.9492,2.9492,0,0,1,.5039-1.02,2.2621,2.2621,0,0,1,.7979-.6479,2.3521,2.3521,0,0,1,1.0439-.228,2.1107,2.1107,0,0,1,1.11.2793,1.741,1.741,0,0,1,.7011.8613h.0489v-3.6846h.96v8.88h-.96Zm-1.5967.2886a2.2355,2.2355,0,0,0,.6182-.0845,1.5383,1.5383,0,0,0,.51-.2471,1.1979,1.1979,0,0,0,.3418-.3979,1.1086,1.1086,0,0,0,.127-.5371v-2.3154a.9451.9451,0,0,0-.127-.4766,1.1888,1.1888,0,0,0-.3418-.38,1.7208,1.7208,0,0,0-.51-.2471,2.1035,2.1035,0,0,0-.6182-.09,1.6529,1.6529,0,0,0-1.2842.5127,1.9176,1.9176,0,0,0-.4678,1.3447v1.0611a1.92,1.92,0,0,0,.4678,1.3452A1.6543,1.6543,0,0,0,486.8049,165.3561Z"/><path d="M493.7287,166.2081a2.7779,2.7779,0,0,1-1.1455-.228,2.4757,2.4757,0,0,1-.876-.6538,2.9988,2.9988,0,0,1-.5644-1.02,4.6165,4.6165,0,0,1,0-2.67,2.9907,2.9907,0,0,1,.5644-1.0259,2.4757,2.4757,0,0,1,.876-.6538,2.7779,2.7779,0,0,1,1.1455-.228,2.6348,2.6348,0,0,1,1.1162.227,2.47,2.47,0,0,1,.84.6279,2.7934,2.7934,0,0,1,.5342.9507,3.7521,3.7521,0,0,1,.1865,1.208v.4541h-4.4522v.2881a2.1192,2.1192,0,0,0,.126.7383,1.7611,1.7611,0,0,0,.3594.5938,1.6536,1.6536,0,0,0,.5762.3959,1.9776,1.9776,0,0,0,.7744.1441,1.8817,1.8817,0,0,0,1.0254-.2759,1.8148,1.8148,0,0,0,.6787-.792l.6836.4951a2.3887,2.3887,0,0,1-.9356,1.0323A2.8259,2.8259,0,0,1,493.7287,166.2081Zm0-5.6762a1.8221,1.8221,0,0,0-.72.1377,1.6135,1.6135,0,0,0-.5576.3872,1.8127,1.8127,0,0,0-.3662.59,2.0448,2.0448,0,0,0-.1319.7456v.0835h3.42v-.1313a1.8846,1.8846,0,0,0-.45-1.3179A1.5359,1.5359,0,0,0,493.7287,160.5319Z"/><path d="M497.9885,166.0641v-6.1919h.9609v.9966h.0479a2.0065,2.0065,0,0,1,.6416-.8316,1.8154,1.8154,0,0,1,1.11-.309,1.9421,1.9421,0,0,1,1.5176.6181,2.5149,2.5149,0,0,1,.5586,1.7456v3.9722h-.96v-3.812q0-1.6722-1.4043-1.6719a2.1448,2.1448,0,0,0-.5585.0723,1.6086,1.6086,0,0,0-.4854.2163,1.0631,1.0631,0,0,0-.3418.3667,1.0445,1.0445,0,0,0-.126.5234v4.3052Z"/><path d="M506.1731,166.0641a.9823.9823,0,0,1-.7618-.2812,1.0478,1.0478,0,0,1-.2578-.7364v-4.3222H504.133v-.8521h.5762a.564.564,0,0,0,.4258-.126.6535.6535,0,0,0,.1142-.438v-1.1523h.8643v1.7163h1.3555v.8521h-1.3555v4.4877h1.26v.8521Z"/><path d="M509.4973,158.42a.5866.5866,0,0,1-.45-.15.5544.5544,0,0,1-.1377-.39v-.1557a.5544.5544,0,0,1,.1377-.39.751.751,0,0,1,.9,0,.5544.5544,0,0,1,.1377.39v.1557a.5544.5544,0,0,1-.1377.39A.5866.5866,0,0,1,509.4973,158.42Zm-.4805,1.4521h.9609v6.1919h-.9609Z"/><path d="M516.5168,166.0641a.9422.9422,0,0,1-.7734-.2881,1.4259,1.4259,0,0,1-.294-.72h-.06a1.5985,1.5985,0,0,1-.6719.8638,2.0865,2.0865,0,0,1-1.1162.288,2.17,2.17,0,0,1-1.5293-.5039,1.7693,1.7693,0,0,1-.5459-1.3681,1.5621,1.5621,0,0,1,.6416-1.3438,3.4135,3.4135,0,0,1,1.998-.4682h1.2237v-.6119a1.3387,1.3387,0,0,0-.3594-1.0083,1.5377,1.5377,0,0,0-1.1045-.3476,1.6607,1.6607,0,0,0-.9414.2519,2.0788,2.0788,0,0,0-.63.6719l-.5761-.54a2.1825,2.1825,0,0,1,.8037-.8579,2.5328,2.5328,0,0,1,1.3916-.354,2.56,2.56,0,0,1,1.7519.5507,1.9375,1.9375,0,0,1,.624,1.5328v3.4h.708v.8521Zm-2.76-.6719a2.436,2.436,0,0,0,.66-.084,1.6109,1.6109,0,0,0,.5156-.24,1.1819,1.1819,0,0,0,.3369-.36.8661.8661,0,0,0,.1192-.4438v-1.02h-1.2715a2.3267,2.3267,0,0,0-1.2061.24.7756.7756,0,0,0-.3779.6963v.252a.8374.8374,0,0,0,.33.708A1.437,1.437,0,0,0,513.757,165.3922Z"/><path d="M519.4445,166.0641a.9791.9791,0,0,1-.7617-.2822,1.0127,1.0127,0,0,1-.2588-.7139v-7.8838h.961v8.0278h.9111v.8521Z"/><line class="cls-13" x1="361.6938" y1="161.8763" x2="382.6323" y2="161.8763"/><polygon points="380.444 169.356 393.397 161.876 380.444 154.397 380.444 169.356"/><path d="M132.3108,68.1032v-8.376h3.3359a2.2669,2.2669,0,0,1,1.7334.6421,2.8516,2.8516,0,0,1,0,3.5161,2.2685,2.2685,0,0,1-1.7334.6416h-2.3281v3.5762Zm1.0078-4.4639h2.3281a1.3005,1.3005,0,0,0,.93-.312,1.1645,1.1645,0,0,0,.33-.8882v-.624a1.1641,1.1641,0,0,0-.33-.8877,1.3005,1.3005,0,0,0-.93-.312h-2.3281Z"/><path d="M143.8664,68.1032a.9422.9422,0,0,1-.7734-.2881,1.4262,1.4262,0,0,1-.294-.72h-.0605a1.5986,1.5986,0,0,1-.6719.8637,2.0866,2.0866,0,0,1-1.1162.2881,2.17,2.17,0,0,1-1.5293-.5039,1.7694,1.7694,0,0,1-.5459-1.3682,1.5621,1.5621,0,0,1,.6416-1.3437,3.4136,3.4136,0,0,1,1.9981-.4683h1.2236v-.6118a1.3385,1.3385,0,0,0-.3594-1.0083,1.5377,1.5377,0,0,0-1.1045-.3476,1.66,1.66,0,0,0-.9414.2519,2.0788,2.0788,0,0,0-.63.6719l-.5761-.54a2.1839,2.1839,0,0,1,.8037-.8579,2.5337,2.5337,0,0,1,1.3916-.354,2.56,2.56,0,0,1,1.7519.5508,1.9374,1.9374,0,0,1,.6241,1.5327v3.4h.708v.8521Zm-2.76-.6719a2.4357,2.4357,0,0,0,.66-.084,1.6109,1.6109,0,0,0,.5156-.24,1.1831,1.1831,0,0,0,.3369-.36.8654.8654,0,0,0,.1192-.4438v-1.02H141.467a2.3249,2.3249,0,0,0-1.206.24.7754.7754,0,0,0-.378.6963v.2519a.8373.8373,0,0,0,.33.708A1.4364,1.4364,0,0,0,141.1067,67.4313Z"/><path d="M147.634,68.2472a2.8965,2.8965,0,0,1-1.4463-.33,3.2876,3.2876,0,0,1-1.0019-.8818l.6845-.5523a2.6955,2.6955,0,0,0,.8037.7022,2.0931,2.0931,0,0,0,1.0323.2461,1.5277,1.5277,0,0,0,.9541-.2642.9584.9584,0,0,0,.1074-1.3618,1.4248,1.4248,0,0,0-.8457-.354l-.4922-.0723a4.1073,4.1073,0,0,1-.792-.186,2.1915,2.1915,0,0,1-.63-.3359,1.4415,1.4415,0,0,1-.42-.522,1.6944,1.6944,0,0,1-.15-.7441,1.7978,1.7978,0,0,1,.168-.7979,1.6076,1.6076,0,0,1,.4629-.57,2.0175,2.0175,0,0,1,.7011-.3423,3.2606,3.2606,0,0,1,.876-.1138,2.73,2.73,0,0,1,1.2666.2642,2.8334,2.8334,0,0,1,.8936.7319l-.6358.5757a1.9116,1.9116,0,0,0-.6-.522,1.9384,1.9384,0,0,0-.9961-.2339,1.3756,1.3756,0,0,0-.9062.2579.87.87,0,0,0-.3057.7021.735.735,0,0,0,.3057.66,2.2835,2.2835,0,0,0,.8818.3l.48.0722a2.5756,2.5756,0,0,1,1.4638.5938,1.5615,1.5615,0,0,1,.4317,1.146,1.7527,1.7527,0,0,1-.6123,1.416A2.5226,2.5226,0,0,1,147.634,68.2472Z"/><path d="M153.4065,68.2472a2.8962,2.8962,0,0,1-1.4463-.33,3.2891,3.2891,0,0,1-1.002-.8818l.6846-.5523a2.6943,2.6943,0,0,0,.8037.7022,2.0927,2.0927,0,0,0,1.0322.2461,1.5275,1.5275,0,0,0,.9541-.2642.9584.9584,0,0,0,.1074-1.3618,1.4245,1.4245,0,0,0-.8457-.354l-.4921-.0723a4.1073,4.1073,0,0,1-.792-.186,2.19,2.19,0,0,1-.63-.3359,1.4415,1.4415,0,0,1-.42-.522,1.6944,1.6944,0,0,1-.15-.7441,1.7992,1.7992,0,0,1,.1679-.7979,1.6076,1.6076,0,0,1,.4629-.57,2.0172,2.0172,0,0,1,.7012-.3423,3.2606,3.2606,0,0,1,.876-.1138,2.73,2.73,0,0,1,1.2666.2642,2.8331,2.8331,0,0,1,.8935.7319l-.6357.5757a1.9127,1.9127,0,0,0-.6-.522,1.9387,1.9387,0,0,0-.9961-.2339,1.3759,1.3759,0,0,0-.9063.2579.87.87,0,0,0-.3056.7021.7349.7349,0,0,0,.3056.66,2.284,2.284,0,0,0,.8819.3l.48.0722a2.5762,2.5762,0,0,1,1.4639.5938,1.5615,1.5615,0,0,1,.4317,1.146,1.7528,1.7528,0,0,1-.6124,1.416A2.5223,2.5223,0,0,1,153.4065,68.2472Z"/><path d="M157.39,61.9113h.9609v.9966h.0478a1.7336,1.7336,0,0,1,.7022-.8614,2.1055,2.1055,0,0,1,1.1094-.2793,2.3521,2.3521,0,0,1,1.0439.2281,2.261,2.261,0,0,1,.7979.6479,2.9487,2.9487,0,0,1,.5039,1.02,5.2543,5.2543,0,0,1,0,2.688,2.9443,2.9443,0,0,1-.5039,1.02,2.257,2.257,0,0,1-.7979.648,2.3534,2.3534,0,0,1-1.0439.228,1.8736,1.8736,0,0,1-1.8116-1.1406h-.0478v3.3965H157.39Zm2.5566,5.4839a1.654,1.654,0,0,0,1.2842-.5123,1.9194,1.9194,0,0,0,.4678-1.3452v-1.061a1.9174,1.9174,0,0,0-.4678-1.3447,1.6529,1.6529,0,0,0-1.2842-.5127,2.1,2.1,0,0,0-.6182.09,1.72,1.72,0,0,0-.51.2471,1.1878,1.1878,0,0,0-.3418.38.9542.9542,0,0,0-.126.4765v2.3155a1.12,1.12,0,0,0,.126.5371,1.1988,1.1988,0,0,0,.3418.3979,1.5393,1.5393,0,0,0,.51.2471A2.2393,2.2393,0,0,0,159.9465,67.3952Z"/><path d="M164.35,59.2233h.961v3.6846h.0478A2.0067,2.0067,0,0,1,166,62.0763a1.8158,1.8158,0,0,1,1.11-.3091,1.942,1.942,0,0,1,1.5175.6182,2.5147,2.5147,0,0,1,.5586,1.7456v3.9722h-.96v-3.812q0-1.6722-1.4043-1.6719a2.1492,2.1492,0,0,0-.5586.0722,1.6112,1.6112,0,0,0-.4854.2164,1.0628,1.0628,0,0,0-.3418.3666,1.0451,1.0451,0,0,0-.1259.5235v4.3052h-.961Z"/><path d="M171.1652,68.1032V61.9113h.961v1.14h.06a1.8745,1.8745,0,0,1,.6-.7925,1.8453,1.8453,0,0,1,1.1884-.3476h.3721v.96h-.5644a2.1694,2.1694,0,0,0-1.2178.294.8666.8666,0,0,0-.4375.7378v4.2Z"/><path d="M180.0217,68.1032a.9422.9422,0,0,1-.7734-.2881,1.4254,1.4254,0,0,1-.294-.72h-.06a1.5986,1.5986,0,0,1-.6719.8637,2.0866,2.0866,0,0,1-1.1162.2881,2.17,2.17,0,0,1-1.5293-.5039,1.7694,1.7694,0,0,1-.5459-1.3682,1.5618,1.5618,0,0,1,.6416-1.3437,3.4132,3.4132,0,0,1,1.998-.4683h1.2237v-.6118a1.3385,1.3385,0,0,0-.3594-1.0083,1.5377,1.5377,0,0,0-1.1045-.3476,1.66,1.66,0,0,0-.9414.2519,2.0777,2.0777,0,0,0-.63.6719l-.5762-.54a2.1853,2.1853,0,0,1,.8037-.8579,2.5342,2.5342,0,0,1,1.3916-.354,2.56,2.56,0,0,1,1.752.5508,1.9373,1.9373,0,0,1,.624,1.5327v3.4h.708v.8521Zm-2.76-.6719a2.436,2.436,0,0,0,.66-.084,1.6109,1.6109,0,0,0,.5156-.24,1.1855,1.1855,0,0,0,.3369-.36.8664.8664,0,0,0,.1192-.4438v-1.02h-1.2715a2.3256,2.3256,0,0,0-1.2061.24.7755.7755,0,0,0-.3779.6963v.2519a.8373.8373,0,0,0,.33.708A1.4363,1.4363,0,0,0,177.2619,67.4313Z"/><path d="M183.79,68.2472a2.8961,2.8961,0,0,1-1.4462-.33,3.2891,3.2891,0,0,1-1.002-.8818l.6846-.5523a2.6943,2.6943,0,0,0,.8037.7022,2.0927,2.0927,0,0,0,1.0322.2461,1.5275,1.5275,0,0,0,.9541-.2642.9584.9584,0,0,0,.1074-1.3618,1.4245,1.4245,0,0,0-.8457-.354l-.4922-.0723a4.108,4.108,0,0,1-.7919-.186,2.19,2.19,0,0,1-.63-.3359,1.4428,1.4428,0,0,1-.42-.522,1.6958,1.6958,0,0,1-.15-.7441,1.7992,1.7992,0,0,1,.1679-.7979,1.6076,1.6076,0,0,1,.4629-.57,2.0172,2.0172,0,0,1,.7012-.3423,3.26,3.26,0,0,1,.876-.1138,2.73,2.73,0,0,1,1.2666.2642,2.8331,2.8331,0,0,1,.8935.7319l-.6357.5757a1.9139,1.9139,0,0,0-.6-.522,1.9387,1.9387,0,0,0-.9961-.2339,1.3759,1.3759,0,0,0-.9063.2579.87.87,0,0,0-.3056.7021.7349.7349,0,0,0,.3056.66,2.284,2.284,0,0,0,.8819.3l.48.0722a2.5762,2.5762,0,0,1,1.4639.5938,1.5615,1.5615,0,0,1,.4316,1.146,1.7527,1.7527,0,0,1-.6123,1.416A2.5224,2.5224,0,0,1,183.79,68.2472Z"/><path d="M190.1018,68.2472a2.7788,2.7788,0,0,1-1.1455-.228,2.4751,2.4751,0,0,1-.876-.6538,3,3,0,0,1-.5645-1.02,4.6191,4.6191,0,0,1,0-2.67,2.99,2.99,0,0,1,.5645-1.0258,2.4739,2.4739,0,0,1,.876-.6538,2.7772,2.7772,0,0,1,1.1455-.2281,2.6348,2.6348,0,0,1,1.1162.2271,2.4674,2.4674,0,0,1,.84.6279,2.7918,2.7918,0,0,1,.5342.9507,3.7516,3.7516,0,0,1,.1865,1.208v.4541h-4.4521v.2881a2.12,2.12,0,0,0,.126.7383,1.76,1.76,0,0,0,.3593.5937,1.6557,1.6557,0,0,0,.5762.396,1.9776,1.9776,0,0,0,.7744.1441,1.8817,1.8817,0,0,0,1.0254-.2759,1.8147,1.8147,0,0,0,.6787-.792l.6836.4951a2.3876,2.3876,0,0,1-.9355,1.0322A2.826,2.826,0,0,1,190.1018,68.2472Zm0-5.6763a1.8226,1.8226,0,0,0-.72.1377,1.6135,1.6135,0,0,0-.5576.3872,1.8149,1.8149,0,0,0-.3662.59,2.0444,2.0444,0,0,0-.1318.7456v.0835h3.42v-.1314a1.8843,1.8843,0,0,0-.45-1.3178A1.5358,1.5358,0,0,0,190.1018,62.5709Z"/><rect class="cls-4" x="117.8516" y="9.9532" width="89.8543" height="89.8543" rx="5.9018"/><rect class="cls-4" x="124.16" y="16.21" width="6.4255" height="6.4255" rx="0.422"/><rect class="cls-4" x="136.6454" y="16.21" width="6.4255" height="6.4255" rx="0.422"/><rect class="cls-4" x="148.885" y="16.21" width="6.4255" height="6.4255" rx="0.422"/><line class="cls-14" x1="118.1573" y1="28.3939" x2="208.0116" y2="28.3939"/><line class="cls-13" x1="146.0261" y1="37.935" x2="170.5053" y2="37.935"/><line class="cls-13" x1="181.2992" y1="37.935" x2="173.9748" y2="37.935"/><line class="cls-13" x1="181.2992" y1="45.3264" x2="156.9164" y2="45.3264"/><line class="cls-13" x1="153.3506" y1="45.3264" x2="146.0261" y2="45.3264"/><line class="cls-13" x1="170.5053" y1="82.3637" x2="146.0261" y2="82.3637"/><line class="cls-13" x1="181.2992" y1="82.3637" x2="173.4929" y2="82.3637"/><line class="cls-13" x1="181.2992" y1="90.6519" x2="156.9164" y2="90.6519"/><line class="cls-13" x1="153.3506" y1="90.6519" x2="146.0261" y2="90.6519"/><rect class="cls-4" x="127.2165" y="54.3186" width="71.7193" height="19.6604" rx="1.682"/><line class="cls-13" x1="42.9691" y1="161.8763" x2="88.1279" y2="161.8763"/><polygon points="85.939 169.356 98.892 161.876 85.939 154.397 85.939 169.356"/><line class="cls-13" x1="42.9691" y1="99.8075" x2="42.9691" y2="160.607"/><path d="M251.2492,97.0231h2.8076a3.6546,3.6546,0,0,1,1.4161.2641,2.865,2.865,0,0,1,1.0859.7857,3.5782,3.5782,0,0,1,.69,1.3081,7.0891,7.0891,0,0,1,0,3.66,3.579,3.579,0,0,1-.69,1.3081,2.8658,2.8658,0,0,1-1.0859.7856,3.6527,3.6527,0,0,1-1.4161.2642h-2.8076Zm2.8076,7.4878a2.5115,2.5115,0,0,0,.9483-.1739,2.0444,2.0444,0,0,0,.7441-.51,2.3475,2.3475,0,0,0,.4854-.8223,3.2744,3.2744,0,0,0,.1748-1.11V100.527a3.2754,3.2754,0,0,0-.1748-1.11,2.3471,2.3471,0,0,0-.4854-.8222,2.05,2.05,0,0,0-.7441-.51,2.5232,2.5232,0,0,0-.9483-.1738h-1.8v6.6Z"/><path d="M263.7043,105.3991a.9422.9422,0,0,1-.7734-.2881,1.4262,1.4262,0,0,1-.294-.72h-.0605a1.5985,1.5985,0,0,1-.6719.8638,2.0866,2.0866,0,0,1-1.1162.2881,2.17,2.17,0,0,1-1.5293-.5039,1.7694,1.7694,0,0,1-.5459-1.3682,1.562,1.562,0,0,1,.6416-1.3437,3.4135,3.4135,0,0,1,1.998-.4683h1.2237v-.6118a1.3385,1.3385,0,0,0-.3594-1.0083,1.5377,1.5377,0,0,0-1.1045-.3477,1.66,1.66,0,0,0-.9414.252,2.0788,2.0788,0,0,0-.63.6719l-.5761-.54a2.1839,2.1839,0,0,1,.8037-.8579,2.5337,2.5337,0,0,1,1.3916-.354,2.56,2.56,0,0,1,1.7519.5508,1.9373,1.9373,0,0,1,.624,1.5327v3.4h.708v.8521Zm-2.76-.6719a2.436,2.436,0,0,0,.66-.084,1.6131,1.6131,0,0,0,.5156-.24,1.1831,1.1831,0,0,0,.3369-.36.8664.8664,0,0,0,.1192-.4438v-1.02h-1.2715a2.3256,2.3256,0,0,0-1.2061.24.7755.7755,0,0,0-.3779.6963v.2519a.8373.8373,0,0,0,.33.708A1.4363,1.4363,0,0,0,260.9445,104.7272Z"/><path d="M266.9807,105.3991a.982.982,0,0,1-.7617-.2813,1.0472,1.0472,0,0,1-.2579-.7363v-4.3223h-1.02v-.852h.5762a.564.564,0,0,0,.4258-.126.653.653,0,0,0,.1142-.438V97.4909h.8643v1.7163h1.3555v.852h-1.3555v4.4878h1.26v.8521Z"/><path d="M274.3244,105.3991a.9423.9423,0,0,1-.7734-.2881,1.4262,1.4262,0,0,1-.294-.72h-.06a1.598,1.598,0,0,1-.6719.8638,2.0866,2.0866,0,0,1-1.1162.2881,2.17,2.17,0,0,1-1.5293-.5039,1.77,1.77,0,0,1-.5459-1.3682,1.562,1.562,0,0,1,.6416-1.3437,3.4138,3.4138,0,0,1,1.9981-.4683h1.2236v-.6118a1.3381,1.3381,0,0,0-.3594-1.0083,1.5377,1.5377,0,0,0-1.1045-.3477,1.66,1.66,0,0,0-.9414.252,2.0788,2.0788,0,0,0-.63.6719l-.5761-.54a2.1839,2.1839,0,0,1,.8037-.8579,2.5337,2.5337,0,0,1,1.3916-.354,2.56,2.56,0,0,1,1.7519.5508,1.937,1.937,0,0,1,.6241,1.5327v3.4h.708v.8521Zm-2.76-.6719a2.4357,2.4357,0,0,0,.66-.084,1.6131,1.6131,0,0,0,.5156-.24,1.1847,1.1847,0,0,0,.337-.36.8663.8663,0,0,0,.1191-.4438v-1.02H271.925a2.3252,2.3252,0,0,0-1.206.24.7754.7754,0,0,0-.378.6963v.2519a.8373.8373,0,0,0,.33.708A1.4364,1.4364,0,0,0,271.5647,104.7272Z"/><path d="M281.3928,105.5431a2.7791,2.7791,0,0,1-1.1455-.228,2.4751,2.4751,0,0,1-.876-.6538,3.0012,3.0012,0,0,1-.5645-1.02,4.6188,4.6188,0,0,1,0-2.67,2.9911,2.9911,0,0,1,.5645-1.0258,2.4739,2.4739,0,0,1,.876-.6538,2.7776,2.7776,0,0,1,1.1455-.2281,2.6348,2.6348,0,0,1,1.1162.2271,2.4674,2.4674,0,0,1,.84.6279,2.79,2.79,0,0,1,.5342.9507,3.7516,3.7516,0,0,1,.1865,1.208v.4541h-4.4521v.2881a2.12,2.12,0,0,0,.126.7383,1.7621,1.7621,0,0,0,.3593.5937,1.6557,1.6557,0,0,0,.5762.396,1.9776,1.9776,0,0,0,.7744.1441,1.8817,1.8817,0,0,0,1.0254-.2759,1.8147,1.8147,0,0,0,.6787-.792l.6836.4951a2.3876,2.3876,0,0,1-.9355,1.0322A2.826,2.826,0,0,1,281.3928,105.5431Zm0-5.6763a1.8218,1.8218,0,0,0-.72.1377,1.613,1.613,0,0,0-.5577.3872,1.8149,1.8149,0,0,0-.3662.59,2.0444,2.0444,0,0,0-.1318.7456v.0835h3.42V101.68a1.8843,1.8843,0,0,0-.45-1.3178A1.5358,1.5358,0,0,0,281.3928,99.8668Z"/><path d="M285.6526,105.3991V99.2072h.9609v.9965h.0478a2.0078,2.0078,0,0,1,.6416-.8315,1.8158,1.8158,0,0,1,1.11-.3091,1.9423,1.9423,0,0,1,1.5176.6182,2.5152,2.5152,0,0,1,.5586,1.7456v3.9722h-.96V101.587q0-1.672-1.4043-1.6718a2.15,2.15,0,0,0-.5586.0722,1.6118,1.6118,0,0,0-.4853.2163,1.0631,1.0631,0,0,0-.3418.3667,1.0451,1.0451,0,0,0-.126.5235v4.3052Z"/><path d="M294.7727,105.5431a2.8523,2.8523,0,0,1-1.1641-.228,2.37,2.37,0,0,1-.87-.648,2.8821,2.8821,0,0,1-.54-1.02,4.959,4.959,0,0,1,0-2.688,2.8864,2.8864,0,0,1,.54-1.02,2.3746,2.3746,0,0,1,.87-.6479,2.8507,2.8507,0,0,1,1.1641-.2281,2.4815,2.4815,0,0,1,1.4814.4019,2.4476,2.4476,0,0,1,.834,1.05l-.8037.4077a1.4616,1.4616,0,0,0-.5518-.7442,1.6574,1.6574,0,0,0-.96-.2636,1.92,1.92,0,0,0-.7559.1377,1.4691,1.4691,0,0,0-.54.3842,1.6108,1.6108,0,0,0-.3242.5879,2.4717,2.4717,0,0,0-.1084.75v1.0562a2.0111,2.0111,0,0,0,.4384,1.3379,1.588,1.588,0,0,0,1.29.522,1.7413,1.7413,0,0,0,1.68-1.08l.6962.4682a2.46,2.46,0,0,1-.8945,1.0679A2.6107,2.6107,0,0,1,294.7727,105.5431Z"/><path d="M298.5041,105.3991V99.2072h.961v1.14h.06a1.8745,1.8745,0,0,1,.6-.7925,1.8456,1.8456,0,0,1,1.1885-.3476h.3721v.96H301.12a2.169,2.169,0,0,0-1.2177.294.8666.8666,0,0,0-.4375.7378v4.2Z"/><path d="M306.844,99.2072h.9482L305.02,106.839a3.2617,3.2617,0,0,1-.2158.4619.9028.9028,0,0,1-.2637.294,1.0527,1.0527,0,0,1-.3906.1562,2.8936,2.8936,0,0,1-.5693.0479h-.4922v-.8521h.9717l.4678-1.3179-2.3155-6.4218h.96l1.4883,4.2036.2881,1.0063h.0595l.336-1.0063Z"/><path d="M309.0158,99.2072h.961v.9965h.0478a1.7338,1.7338,0,0,1,.7022-.8613,2.1054,2.1054,0,0,1,1.1093-.2793,2.3525,2.3525,0,0,1,1.044.2281,2.26,2.26,0,0,1,.7978.6479,2.9469,2.9469,0,0,1,.5039,1.02,5.2514,5.2514,0,0,1,0,2.688,2.9425,2.9425,0,0,1-.5039,1.02,2.2558,2.2558,0,0,1-.7978.648,2.3539,2.3539,0,0,1-1.044.228,1.8736,1.8736,0,0,1-1.8115-1.1406h-.0478v3.3965h-.961Zm2.5567,5.4839a1.654,1.654,0,0,0,1.2842-.5123,1.92,1.92,0,0,0,.4677-1.3452v-1.061a1.9173,1.9173,0,0,0-.4677-1.3447,1.6529,1.6529,0,0,0-1.2842-.5127,2.1,2.1,0,0,0-.6182.09,1.7214,1.7214,0,0,0-.51.2471,1.189,1.189,0,0,0-.3418.38.9552.9552,0,0,0-.1259.4765v2.3155a1.1212,1.1212,0,0,0,.1259.5371,1.2,1.2,0,0,0,.3418.3979,1.5408,1.5408,0,0,0,.51.2471A2.2393,2.2393,0,0,0,311.5725,104.6911Z"/><path d="M317.2717,105.3991a.9821.9821,0,0,1-.7617-.2813,1.0471,1.0471,0,0,1-.2578-.7363v-4.3223h-1.0205v-.852h.5761a.564.564,0,0,0,.4258-.126.6529.6529,0,0,0,.1143-.438V97.4909h.8642v1.7163h1.3555v.852h-1.3555v4.4878h1.26v.8521Z"/><path d="M320.5959,97.755a.5866.5866,0,0,1-.45-.15.5543.5543,0,0,1-.1377-.39v-.1558a.5543.5543,0,0,1,.1377-.39.751.751,0,0,1,.9,0,.5543.5543,0,0,1,.1377.39v.1558a.5543.5543,0,0,1-.1377.39A.5866.5866,0,0,1,320.5959,97.755Zm-.48,1.4522h.961v6.1919h-.961Z"/><path d="M325.4563,105.5431a2.7955,2.7955,0,0,1-1.1407-.228,2.4625,2.4625,0,0,1-.8818-.6538,3.0953,3.0953,0,0,1-.57-1.02,4.49,4.49,0,0,1,0-2.67,3.0835,3.0835,0,0,1,.57-1.0258,2.4613,2.4613,0,0,1,.8818-.6538,2.7938,2.7938,0,0,1,1.1407-.2281,2.7516,2.7516,0,0,1,1.1338.2281,2.5316,2.5316,0,0,1,.8818.6538,3.029,3.029,0,0,1,.5762,1.0258,4.4694,4.4694,0,0,1,0,2.67,3.04,3.04,0,0,1-.5762,1.02,2.5329,2.5329,0,0,1-.8818.6538A2.7532,2.7532,0,0,1,325.4563,105.5431Zm0-.852a1.7451,1.7451,0,0,0,1.2714-.48,1.961,1.961,0,0,0,.4922-1.4639v-.8882a1.9608,1.9608,0,0,0-.4922-1.4638,1.9253,1.9253,0,0,0-2.5439,0,1.9612,1.9612,0,0,0-.4922,1.4638v.8882a1.9615,1.9615,0,0,0,.4922,1.4639A1.7461,1.7461,0,0,0,325.4563,104.6911Z"/><path d="M329.8352,105.3991V99.2072h.9609v.9965h.0479a2.0062,2.0062,0,0,1,.6416-.8315,1.8152,1.8152,0,0,1,1.11-.3091,1.9422,1.9422,0,0,1,1.5176.6182,2.5147,2.5147,0,0,1,.5586,1.7456v3.9722h-.96V101.587q0-1.672-1.4043-1.6718a2.15,2.15,0,0,0-.5586.0722,1.6118,1.6118,0,0,0-.4853.2163,1.0631,1.0631,0,0,0-.3418.3667,1.0451,1.0451,0,0,0-.126.5235v4.3052Z"/><path d="M339.4836,96.5192h.9609v5.6279h.0479l.9473-1.0561,1.7519-1.8838h1.1641l-2.292,2.4477,2.5205,3.7442H343.42l-2.0517-3.1558-.9239.9478v2.208h-.9609Z"/><path d="M347.9318,105.5431a2.78,2.78,0,0,1-1.1455-.228,2.4756,2.4756,0,0,1-.8759-.6538,2.9978,2.9978,0,0,1-.5645-1.02,4.6165,4.6165,0,0,1,0-2.67,2.9878,2.9878,0,0,1,.5645-1.0258,2.4744,2.4744,0,0,1,.8759-.6538,2.7779,2.7779,0,0,1,1.1455-.2281,2.6353,2.6353,0,0,1,1.1163.2271,2.4674,2.4674,0,0,1,.84.6279,2.7918,2.7918,0,0,1,.5342.9507,3.7516,3.7516,0,0,1,.1865,1.208v.4541h-4.4521v.2881a2.1223,2.1223,0,0,0,.1259.7383,1.7607,1.7607,0,0,0,.3594.5937,1.6547,1.6547,0,0,0,.5762.396,1.9776,1.9776,0,0,0,.7744.1441,1.8817,1.8817,0,0,0,1.0254-.2759,1.8153,1.8153,0,0,0,.6787-.792l.6836.4951a2.3873,2.3873,0,0,1-.9356,1.0322A2.826,2.826,0,0,1,347.9318,105.5431Zm0-5.6763a1.8221,1.8221,0,0,0-.72.1377,1.6135,1.6135,0,0,0-.5576.3872,1.8149,1.8149,0,0,0-.3662.59,2.0444,2.0444,0,0,0-.1318.7456v.0835h3.42V101.68a1.8843,1.8843,0,0,0-.45-1.3178A1.536,1.536,0,0,0,347.9318,99.8668Z"/><path d="M355.9475,99.2072h.9482l-2.7724,7.6318a3.2722,3.2722,0,0,1-.2159.4619.9037.9037,0,0,1-.2636.294,1.0539,1.0539,0,0,1-.3907.1562,2.8929,2.8929,0,0,1-.5693.0479h-.4922v-.8521h.9717l.4678-1.3179-2.3155-6.4218h.96l1.4883,4.2036.2881,1.0063h.0595l.336-1.0063Z"/><path class="cls-19" d="M362.6364,94.1942c.2625-.3862.5234-.7735.773-1.1688a11.9216,11.9216,0,0,1,.8341-1.1447,8.3858,8.3858,0,0,0,.7627-3.3667c.3545-8.9346-11.7361-10.4079-13.1294-1.581l-17.9387-.294-.0449,2.7308,1.2406.0215-.0519,3.1189,5.6948.0941.0511-3.12,11.0039.1806C352.41,95.22,358.8818,97.94,362.6364,94.1942Z"/><ellipse class="cls-20" cx="358.0992" cy="88.4198" rx="4.8713" ry="3.7543" transform="translate(243.1387 438.9012) rotate(-85.7099)"/><rect class="cls-21" x="245.5003" y="149.2929" width="116.2322" height="25.1668" rx="2.4227"/><polygon points="296.292 72.156 303.771 85.108 311.251 72.156 296.292 72.156"/><line class="cls-13" x1="208.6296" y1="42.5853" x2="301.5755" y2="42.5853"/><line class="cls-13" x1="301.9034" y1="72.1712" x2="301.9034" y2="42.5853"/><line class="cls-13" x1="305.2051" y1="72.1712" x2="305.2051" y2="42.5853"/><line class="cls-13" x1="305.2051" y1="42.5853" x2="398.3522" y2="42.5853"/><path d="M534.25,147.5869h-1.4v-4.2a4.2,4.2,0,0,0-8.4,0v4.2h-1.4a1.4,1.4,0,0,0-1.4,1.4v8.4a1.4,1.4,0,0,0,1.4,1.4h11.2a1.4,1.4,0,0,0,1.4-1.4v-8.4A1.4,1.4,0,0,0,534.25,147.5869Zm-8.4-4.2a2.8,2.8,0,0,1,5.6,0v4.2h-5.6Zm8.4,14h-11.2v-8.4h11.2Z"/><rect x="522.4937" y="148.9869" width="11.7564" height="8.4"/><line class="cls-13" x1="303.6164" y1="115.0226" x2="303.6164" y2="134.6331"/><polygon points="296.137 132.445 303.616 145.397 311.096 132.445 296.137 132.445"/><rect class="cls-21" x="245.5003" y="89.8558" width="116.2322" height="25.1668" rx="2.4227"/></g></svg>