<?xml version="1.0" encoding="utf-8"?>
<!-- Generator: Adobe Illustrator 26.0.1, SVG Export Plug-In . SVG Version: 6.00 Build 0)  -->
<svg version="1.1" xmlns="http://www.w3.org/2000/svg" xmlns:xlink="http://www.w3.org/1999/xlink" x="0px" y="0px"
	 viewBox="0 0 790.1 250.2" style="enable-background:new 0 0 790.1 250.2;" xml:space="preserve">
<style type="text/css">
	.st0{fill:none;stroke:#FFFFFF;stroke-width:1.1527;stroke-linecap:round;stroke-miterlimit:10;}
	.st1{stroke:#FFFFFF;stroke-width:1.1527;stroke-miterlimit:10;}
	.st2{fill:none;stroke:#000000;stroke-width:1.1172;stroke-linecap:round;stroke-miterlimit:10;}
	.st3{fill:none;stroke:#000000;stroke-width:1.1172;stroke-miterlimit:10;}
	.st4{fill:none;stroke:#000000;stroke-width:1.1172;stroke-linejoin:round;stroke-miterlimit:10;}
	.st5{fill:none;stroke:#000000;stroke-width:0.884;stroke-miterlimit:10;}
	.st6{fill-rule:evenodd;clip-rule:evenodd;}
	.st7{fill:#FFFFFF;}
	.st8{fill:none;stroke:#000000;stroke-width:0.8394;stroke-miterlimit:10;}
	.st9{fill:none;stroke:#000000;stroke-linecap:round;stroke-miterlimit:10;}
	.st10{clip-path:url(#XMLID_00000057858712585161819490000009977312069424225716_);}
	
		.st11{clip-path:url(#XMLID_00000047771928506732930370000016529266689770743193_);fill:none;stroke:#C6C6C6;stroke-width:1.1229;stroke-miterlimit:10;}
	.st12{clip-path:url(#XMLID_00000134239503342541633040000003758922016476252559_);}
	
		.st13{clip-path:url(#XMLID_00000118366101678418303140000007162350669811790491_);fill:none;stroke:#C6C6C6;stroke-width:1.1172;stroke-miterlimit:10;}
	.st14{fill:#E0E0E0;}
	.st15{fill:#FFFFFF;stroke:#E0E0E0;stroke-width:1.1543;stroke-miterlimit:10;}
	.st16{clip-path:url(#XMLID_00000138551976266718319930000000054546339737779081_);}
	
		.st17{clip-path:url(#XMLID_00000158726430329416806520000013994632262761269141_);fill:none;stroke:#C6C6C6;stroke-width:1.1172;stroke-miterlimit:10;}
	.st18{fill:none;stroke:#C6C6C6;stroke-linecap:round;stroke-miterlimit:10;}
	.st19{fill:#C6C6C6;}
	.st20{fill:none;stroke:#C6C6C6;stroke-width:1.1172;stroke-linecap:round;stroke-miterlimit:10;}
	.st21{font-family:'IBMPlexSans';}
	.st22{font-size:13.4063px;}
	.st23{fill:none;stroke:#6F6F6F;stroke-width:0.75;stroke-miterlimit:10;}
	.st24{fill:#6F6F6F;}
</style>
<g id="Graphics">
	<g id="Legend">
	</g>
	<g>
		<circle cx="122.5" cy="67.5" r="27.7"/>
		<path class="st0" d="M130.4,58.1c0,4.1-3.3,7.5-7.5,7.5s-7.5-3.3-7.5-7.5s3.3-7.5,7.5-7.5S130.4,54,130.4,58.1"/>
		<path class="st0" d="M108.5,84c1.4-6.8,7.4-12,14.6-12c7.2,0,13.2,5.1,14.6,11.8"/>
		<ellipse transform="matrix(0.7071 -0.7071 0.7071 0.7071 -11.6936 106.7975)" class="st0" cx="123.1" cy="67.5" rx="22" ry="22"/>
		<path class="st1" d="M109.4,85.4c-0.8,0.5-1.8,0.3-2.4-0.4s-0.3-1.8,0.4-2.4c0.8-0.5,1.8-0.3,2.4,0.4
			C110.4,83.8,110.2,84.8,109.4,85.4z"/>
	</g>
	<g>
		<g>
			<line class="st2" x1="150.1" y1="70.3" x2="181.3" y2="70.3"/>
			<g>
				<polygon points="178.8,78.6 193.3,70.3 178.8,61.9 				"/>
			</g>
		</g>
	</g>
	<path class="st3" d="M299.9,235.7h-87.2c-3.6,0-6.6-3-6.6-6.6v-87.2c0-3.6,3-6.6,6.6-6.6h87.2c3.6,0,6.6,3,6.6,6.6v87.2
		C306.5,232.8,303.5,235.7,299.9,235.7z"/>
	<path class="st3" d="M219.9,149.5h-6.2c-0.3,0-0.5-0.2-0.5-0.5v-6.2c0-0.3,0.2-0.5,0.5-0.5h6.2c0.3,0,0.5,0.2,0.5,0.5v6.2
		C220.3,149.3,220.1,149.5,219.9,149.5z"/>
	<path class="st3" d="M233.8,149.5h-6.2c-0.3,0-0.5-0.2-0.5-0.5v-6.2c0-0.3,0.2-0.5,0.5-0.5h6.2c0.3,0,0.5,0.2,0.5,0.5v6.2
		C234.3,149.3,234.1,149.5,233.8,149.5z"/>
	<path class="st3" d="M247.5,149.5h-6.2c-0.3,0-0.5-0.2-0.5-0.5v-6.2c0-0.3,0.2-0.5,0.5-0.5h6.2c0.3,0,0.5,0.2,0.5,0.5v6.2
		C248,149.3,247.8,149.5,247.5,149.5z"/>
	<line class="st4" x1="206.5" y1="155.9" x2="306.8" y2="155.9"/>
	<line class="st2" x1="237.6" y1="166.6" x2="264.9" y2="166.6"/>
	<line class="st2" x1="277" y1="166.6" x2="268.8" y2="166.6"/>
	<line class="st2" x1="277" y1="174.9" x2="249.8" y2="174.9"/>
	<line class="st2" x1="245.8" y1="174.9" x2="237.6" y2="174.9"/>
	<line class="st2" x1="264.9" y1="216.2" x2="237.6" y2="216.2"/>
	<line class="st2" x1="277" y1="216.2" x2="268.3" y2="216.2"/>
	<line class="st2" x1="277" y1="225.5" x2="249.8" y2="225.5"/>
	<line class="st2" x1="245.8" y1="225.5" x2="237.6" y2="225.5"/>
	<path class="st3" d="M294.8,206.9h-76.4c-1,0-1.9-0.8-1.9-1.9v-18.2c0-1,0.8-1.9,1.9-1.9h76.4c1,0,1.9,0.8,1.9,1.9V205
		C296.7,206,295.9,206.9,294.8,206.9z"/>
	<g>
		<g>
			<line class="st2" x1="306.1" y1="186.3" x2="329.5" y2="186.3"/>
			<g>
				<polygon points="327,194.7 341.5,186.3 327,178 				"/>
			</g>
		</g>
	</g>
	<path class="st5" d="M662.7,201H524.4c-1.6,0-2.9-1.3-2.9-2.9v-22.4c0-1.6,1.3-2.9,2.9-2.9h138.3c1.6,0,2.9,1.3,2.9,2.9v22.4
		C665.6,199.7,664.3,201,662.7,201z"/>
	<g>
		<g>
			<line class="st2" x1="478.5" y1="186.3" x2="501.9" y2="186.3"/>
			<g>
				<polygon points="499.5,194.7 514,186.3 499.5,178 				"/>
			</g>
		</g>
	</g>
	<path class="st3" d="M299.9,117h-87.2c-3.6,0-6.6-3-6.6-6.6V23.2c0-3.6,3-6.6,6.6-6.6h87.2c3.6,0,6.6,3,6.6,6.6v87.2
		C306.5,114,303.5,117,299.9,117z"/>
	<path class="st3" d="M219.9,30.8h-6.2c-0.3,0-0.5-0.2-0.5-0.5v-6.2c0-0.3,0.2-0.5,0.5-0.5h6.2c0.3,0,0.5,0.2,0.5,0.5v6.2
		C220.3,30.6,220.1,30.8,219.9,30.8z"/>
	<path class="st3" d="M233.8,30.8h-6.2c-0.3,0-0.5-0.2-0.5-0.5v-6.2c0-0.3,0.2-0.5,0.5-0.5h6.2c0.3,0,0.5,0.2,0.5,0.5v6.2
		C234.3,30.6,234.1,30.8,233.8,30.8z"/>
	<path class="st3" d="M247.5,30.8h-6.2c-0.3,0-0.5-0.2-0.5-0.5v-6.2c0-0.3,0.2-0.5,0.5-0.5h6.2c0.3,0,0.5,0.2,0.5,0.5v6.2
		C248,30.6,247.8,30.8,247.5,30.8z"/>
	<line class="st4" x1="206.5" y1="37.2" x2="306.8" y2="37.2"/>
	<line class="st2" x1="237.6" y1="47.9" x2="264.9" y2="47.9"/>
	<line class="st2" x1="277" y1="47.9" x2="268.8" y2="47.9"/>
	<line class="st2" x1="277" y1="56.1" x2="249.8" y2="56.1"/>
	<line class="st2" x1="245.8" y1="56.1" x2="237.6" y2="56.1"/>
	<line class="st2" x1="264.9" y1="97.5" x2="237.6" y2="97.5"/>
	<line class="st2" x1="277" y1="97.5" x2="268.3" y2="97.5"/>
	<line class="st2" x1="277" y1="106.8" x2="249.8" y2="106.8"/>
	<line class="st2" x1="245.8" y1="106.8" x2="237.6" y2="106.8"/>
	<path class="st3" d="M294.8,88.1h-76.4c-1,0-1.9-0.8-1.9-1.9V68c0-1,0.8-1.9,1.9-1.9h76.4c1,0,1.9,0.8,1.9,1.9v18.2
		C296.7,87.3,295.9,88.1,294.8,88.1z"/>
	<g>
		<g>
			<line class="st2" x1="122.5" y1="186.3" x2="172.9" y2="186.3"/>
			<g>
				<polygon points="170.5,194.7 184.9,186.3 170.5,178 				"/>
			</g>
		</g>
	</g>
	<line class="st2" x1="122.5" y1="117" x2="122.5" y2="184.9"/>
	<path class="st6" d="M479.6,110.7c0.3-0.4,0.6-0.9,0.9-1.3c0.3-0.5,0.6-0.9,0.9-1.3c0.5-1.1,0.8-2.4,0.9-3.8
		c0.4-10-13.1-11.6-14.7-1.8l-20-0.3l-0.1,3.1l1.4,0l-0.1,3.5l6.4,0.1l0.1-3.5l12.3,0.2C468.2,111.9,475.4,114.9,479.6,110.7z"/>
	<g>
		<path class="st7" d="M473.6,109.6c-2.3-0.5-3.7-3.4-3.2-6.3c0.5-3,2.8-4.9,5-4.4c2.3,0.5,3.7,3.4,3.2,6.3
			C478.1,108.2,475.9,110.1,473.6,109.6z"/>
	</g>
	<path class="st8" d="M475.9,200.4H351.5c-1.5,0-2.7-1.2-2.7-2.7V175c0-1.5,1.2-2.7,2.7-2.7h124.4c1.5,0,2.7,1.2,2.7,2.7v22.7
		C478.6,199.2,477.4,200.4,475.9,200.4z"/>
	<g>
		<g>
			<line class="st9" x1="397.4" y1="53.4" x2="397.4" y2="90.1"/>
			<g>
				<polygon points="390,87.9 397.4,100.9 404.9,87.9 				"/>
			</g>
		</g>
	</g>
	<line class="st9" x1="307.5" y1="52.6" x2="397.4" y2="52.6"/>
	<path d="M671.3,170.4h-1.6v-4.7c0-2.6-2.1-4.7-4.7-4.7c-2.6,0-4.7,2.1-4.7,4.7v4.7h-1.6c-0.9,0-1.6,0.7-1.6,1.6v9.4
		c0,0.9,0.7,1.6,1.6,1.6h12.5c0.9,0,1.6-0.7,1.6-1.6v-9.4C672.9,171.1,672.2,170.4,671.3,170.4z M661.9,165.7c0-1.7,1.4-3.1,3.1-3.1
		s3.1,1.4,3.1,3.1v4.7h-6.3V165.7z M671.3,181.3h-12.5v-9.4h12.5V181.3z"/>
	<rect x="658.2" y="171.9" width="13.1" height="9.4"/>
	<g>
		<g>
			<line class="st2" x1="413.7" y1="134" x2="413.7" y2="155.9"/>
			<g>
				<polygon points="405.3,153.4 413.7,167.9 422,153.4 				"/>
			</g>
		</g>
	</g>
	<path class="st8" d="M475.9,134H351.5c-1.5,0-2.7-1.2-2.7-2.7v-22.7c0-1.5,1.2-2.7,2.7-2.7h124.4c1.5,0,2.7,1.2,2.7,2.7v22.7
		C478.6,132.8,477.4,134,475.9,134z"/>
	<g id="XMLID_22_">
		<defs>
			<path id="XMLID_23_" d="M619.7,36.8c0-2.2,1.8-3.9,4.2-3.9c2.4,0,4.2,1.7,4.2,3.9c0,2.2-1.8,3.9-4.2,3.9
				C621.5,40.7,619.7,39,619.7,36.8z M611.2,38.6l-4.1,3.4l3.4,5.2l4.9-1.4c1.3,0.9,2.5,1.7,4.1,2.2l1.1,4.4h6.7l1-4.4
				c1.5-0.5,2.9-1.3,4.1-2.2l4.9,1.6l3.5-5.3l-4.1-3.4c0.1-0.5,0.1-1.2,0.1-1.8s0-1.3-0.1-1.8l4.1-3.4l-3.5-5.3l-4.8,1.6
				c-1.3-0.9-2.5-1.7-4.1-2.2l-1.1-4.4h-6.7l-1,4.4c-1.5,0.5-2.9,1.3-4.1,2.2l-4.9-1.6l-3.5,5.3l4.1,3.4c-0.1,0.5-0.1,1.2-0.1,1.8
				S611.1,38.1,611.2,38.6z"/>
		</defs>
		<clipPath id="XMLID_00000067938958442137036380000011625586298997123471_">
			<use xlink:href="#XMLID_23_"  style="overflow:visible;"/>
		</clipPath>
		<g id="XMLID_26_" style="clip-path:url(#XMLID_00000067938958442137036380000011625586298997123471_);">
			<defs>
				<rect id="XMLID_27_" x="607.2" y="21.3" width="33.5" height="31.1"/>
			</defs>
			<clipPath id="XMLID_00000055679284822367002850000008339565129099391408_">
				<use xlink:href="#XMLID_27_"  style="overflow:visible;"/>
			</clipPath>
			
				<rect id="XMLID_28_" x="600.2" y="14.8" style="clip-path:url(#XMLID_00000055679284822367002850000008339565129099391408_);fill:none;stroke:#C6C6C6;stroke-width:1.1229;stroke-miterlimit:10;" width="47.5" height="44.1"/>
			<use xlink:href="#XMLID_27_"  style="overflow:visible;fill:none;stroke:#C6C6C6;stroke-width:1.1229;stroke-miterlimit:10;"/>
		</g>
		
			<use xlink:href="#XMLID_23_"  style="overflow:visible;fill-rule:evenodd;clip-rule:evenodd;fill:none;stroke:#C6C6C6;stroke-width:1.1229;stroke-miterlimit:10;"/>
	</g>
	<g id="XMLID_15_">
		<defs>
			<path id="XMLID_16_" d="M641.5,57.7c0-1.8,1.4-3.2,3.2-3.2c1.8,0,3.2,1.4,3.2,3.2c0,1.8-1.4,3.2-3.2,3.2
				C642.9,60.9,641.5,59.5,641.5,57.7z M635,59.2l-3.1,2.8l2.6,4.3l3.8-1.2c1,0.8,1.9,1.4,3.1,1.8l0.9,3.7h5.2l0.8-3.7
				c1.2-0.4,2.3-1.1,3.1-1.8l3.8,1.3l2.7-4.4l-3.1-2.8c0.1-0.4,0.1-1,0.1-1.5s0-1.1-0.1-1.5l3.1-2.8L655,49l-3.7,1.3
				c-1-0.8-1.9-1.4-3.1-1.8l-0.9-3.7h-5.2l-0.8,3.7c-1.2,0.4-2.3,1.1-3.1,1.8l-3.8-1.3l-2.7,4.4l3.1,2.8c-0.1,0.4-0.1,1-0.1,1.5
				S634.9,58.7,635,59.2z"/>
		</defs>
		<clipPath id="XMLID_00000066485183280604630790000009310956704467688345_">
			<use xlink:href="#XMLID_16_"  style="overflow:visible;"/>
		</clipPath>
		<g id="XMLID_19_" style="clip-path:url(#XMLID_00000066485183280604630790000009310956704467688345_);">
			<defs>
				<rect id="XMLID_20_" x="631.9" y="44.8" width="25.8" height="25.8"/>
			</defs>
			<clipPath id="XMLID_00000168818517785004477770000015828644498422263963_">
				<use xlink:href="#XMLID_20_"  style="overflow:visible;"/>
			</clipPath>
			
				<rect id="XMLID_21_" x="626.5" y="39.4" style="clip-path:url(#XMLID_00000168818517785004477770000015828644498422263963_);fill:none;stroke:#C6C6C6;stroke-width:1.1172;stroke-miterlimit:10;" width="36.5" height="36.5"/>
			<use xlink:href="#XMLID_20_"  style="overflow:visible;fill:none;stroke:#C6C6C6;stroke-width:1.1172;stroke-miterlimit:10;"/>
		</g>
		
			<use xlink:href="#XMLID_16_"  style="overflow:visible;fill-rule:evenodd;clip-rule:evenodd;fill:none;stroke:#C6C6C6;stroke-width:1.1172;stroke-miterlimit:10;"/>
	</g>
	<path class="st14" d="M677.1,19.9h-79.1c-4,0-7.2,2.6-7.2,5.8v17.4h7.2V25.7h79.1v40.7h-50.3v5.8h7.2v11.6h-7.2v5.8h32.3v-5.8h-18
		V72.2h35.9c4,0,7.2-2.6,7.2-5.8V25.7C684.3,22.5,681.1,19.9,677.1,19.9z"/>
	<path class="st15" d="M621.1,68.6h-76.4c-1,0-1.9-0.8-1.9-1.9V48.6c0-1,0.8-1.9,1.9-1.9h76.4c1,0,1.9,0.8,1.9,1.9v18.2
		C623,67.8,622.2,68.6,621.1,68.6z"/>
	<g id="XMLID_8_">
		<defs>
			<path id="XMLID_9_" d="M661,40c0-1.4,1.1-2.4,2.4-2.4c1.4,0,2.4,1.1,2.4,2.4c0,1.4-1.1,2.4-2.4,2.4C662.1,42.4,661,41.3,661,40z
				 M656.1,41.1l-2.4,2.1l1.9,3.2l2.8-0.9c0.7,0.6,1.5,1.1,2.4,1.4l0.6,2.8h3.9l0.6-2.8c0.9-0.3,1.7-0.8,2.4-1.4l2.8,1l2-3.3
				l-2.4-2.1c0.1-0.3,0.1-0.7,0.1-1.1c0-0.4,0-0.8-0.1-1.1l2.4-2.1l-2-3.3l-2.8,1c-0.7-0.6-1.5-1.1-2.4-1.4l-0.6-2.8h-3.9l-0.6,2.8
				c-0.9,0.3-1.7,0.8-2.4,1.4l-2.8-1l-2,3.3l2.4,2.1c-0.1,0.3-0.1,0.7-0.1,1.1C656,40.4,656,40.8,656.1,41.1z"/>
		</defs>
		<clipPath id="XMLID_00000160898700781868251710000009229659892698606486_">
			<use xlink:href="#XMLID_9_"  style="overflow:visible;"/>
		</clipPath>
		<g id="XMLID_12_" style="clip-path:url(#XMLID_00000160898700781868251710000009229659892698606486_);">
			<defs>
				<rect id="XMLID_13_" x="653.7" y="30.2" width="19.5" height="19.5"/>
			</defs>
			<clipPath id="XMLID_00000057129158958204324190000013624350757703242394_">
				<use xlink:href="#XMLID_13_"  style="overflow:visible;"/>
			</clipPath>
			
				<rect id="XMLID_14_" x="649.7" y="26.2" style="clip-path:url(#XMLID_00000057129158958204324190000013624350757703242394_);fill:none;stroke:#C6C6C6;stroke-width:1.1172;stroke-miterlimit:10;" width="27.6" height="27.6"/>
			<use xlink:href="#XMLID_13_"  style="overflow:visible;fill:none;stroke:#C6C6C6;stroke-width:1.1172;stroke-miterlimit:10;"/>
		</g>
		
			<use xlink:href="#XMLID_9_"  style="overflow:visible;fill-rule:evenodd;clip-rule:evenodd;fill:none;stroke:#C6C6C6;stroke-width:1.1172;stroke-miterlimit:10;"/>
	</g>
	<g>
		<g>
			<line class="st18" x1="436.2" y1="53.4" x2="436.2" y2="90.1"/>
			<g>
				<polygon class="st19" points="428.7,87.9 436.2,100.9 443.7,87.9 				"/>
			</g>
		</g>
	</g>
	<line class="st20" x1="436.3" y1="52.6" x2="542" y2="52.6"/>
</g>
<g id="Text">
	<text transform="matrix(1 0 0 1 108.5061 109.2613)" class="st21 st22">User</text>
	<text transform="matrix(1 0 0 1 224.6272 200.3062)" class="st21 st22">Credential</text>
	<text transform="matrix(0.9018 0 0 1 367.7315 190.3731)" class="st21 st22">DEK + Credential</text>
	<text transform="matrix(1 0 0 1 530.972 191.0025)" class="st21 st22">Encrypted credential</text>
	<text transform="matrix(1 0 0 1 220.886 81.5616)" class="st21 st22">Passphrase</text>
	<text transform="matrix(1 0 0 1 353.8057 123.2281)" class="st21 st22">Data encryption key</text>
	<text transform="matrix(1 0 0 1 547.1902 62.0847)" class="st19 st21 st22">Passphrase</text>
	<text transform="matrix(1 0 0 1 313.0283 44.7723)" class="st21 st22">User-managed</text>
	<text transform="matrix(1 0 0 1 428.6917 44.7722)" class="st19 st21 st22">Provider-managed</text>
</g>
</svg>
