<?xml version="1.0" encoding="utf-8"?>
<!-- Generator: Adobe Illustrator 24.2.3, SVG Export Plug-In . SVG Version: 6.00 Build 0)  -->
<svg version="1.1" id="Layer_1" xmlns="http://www.w3.org/2000/svg" xmlns:xlink="http://www.w3.org/1999/xlink" x="0px" y="0px"
	 viewBox="0 0 790.1 248" style="enable-background:new 0 0 790.1 248;" xml:space="preserve">
<style type="text/css">
	.st0{fill:none;stroke:#FFFFFF;stroke-width:1.1527;stroke-linecap:round;stroke-miterlimit:10;}
	.st1{stroke:#FFFFFF;stroke-width:1.1527;stroke-miterlimit:10;}
	.st2{fill:none;stroke:#000000;stroke-width:1.1172;stroke-linecap:round;stroke-miterlimit:10;}
	.st3{fill:none;stroke:#000000;stroke-width:1.1172;stroke-miterlimit:10;}
	.st4{fill:none;stroke:#000000;stroke-width:1.1172;stroke-linejoin:round;}
	.st5{fill:none;stroke:#000000;stroke-width:0.884;stroke-miterlimit:10;}
	.st6{fill-rule:evenodd;clip-rule:evenodd;}
	.st7{fill:#FFFFFF;}
	.st8{fill:none;stroke:#000000;stroke-width:0.8394;stroke-miterlimit:10;}
	.st9{fill:none;stroke:#000000;stroke-linecap:round;stroke-miterlimit:10;}
	.st10{clip-path:url(#SVGID_2_);}
	.st11{clip-path:url(#SVGID_4_);}
	.st12{fill:none;stroke:#C6C6C6;stroke-width:1.1229;stroke-miterlimit:10;}
	.st13{clip-path:url(#SVGID_6_);}
	.st14{clip-path:url(#SVGID_8_);}
	.st15{fill:none;stroke:#C6C6C6;stroke-width:1.1172;stroke-miterlimit:10;}
	.st16{fill:#E0E0E0;}
	.st17{fill:#FFFFFF;stroke:#E0E0E0;stroke-width:1.1543;stroke-miterlimit:10;}
	.st18{clip-path:url(#SVGID_10_);}
	.st19{clip-path:url(#SVGID_12_);}
	.st20{fill:none;stroke:#C6C6C6;stroke-linecap:round;stroke-miterlimit:10;}
	.st21{fill:#C6C6C6;}
	.st22{fill:none;stroke:#C6C6C6;stroke-width:1.1172;stroke-linecap:round;stroke-miterlimit:10;}
</style>
<g id="Graphics">
	<circle cx="122.5" cy="65.4" r="27.7"/>
	<path class="st0" d="M130.4,56c0,4.1-3.3,7.5-7.5,7.5c-4.1,0-7.4-3.3-7.4-7.5s3.3-7.5,7.5-7.5l0,0C127.1,48.5,130.4,51.9,130.4,56"
		/>
	<path class="st0" d="M108.5,81.8c1.6-8.1,9.5-13.3,17.5-11.7c5.8,1.2,10.4,5.7,11.7,11.5"/>
	<circle class="st0" cx="123.1" cy="65.4" r="22"/>
	<path class="st1" d="M109.4,83.2c-0.8,0.5-1.8,0.3-2.4-0.4c-0.5-0.8-0.3-1.8,0.4-2.4c0.8-0.5,1.8-0.3,2.4,0.4
		C110.4,81.6,110.2,82.7,109.4,83.2C109.4,83.2,109.4,83.2,109.4,83.2z"/>
	<line class="st2" x1="150.1" y1="68.1" x2="181.3" y2="68.1"/>
	<polygon points="178.8,76.5 193.3,68.1 178.8,59.8 	"/>
	<path class="st3" d="M212.7,133.2h87.2c3.6,0,6.6,3,6.6,6.6v0V227c0,3.6-3,6.6-6.6,6.6l0,0h-87.2c-3.6,0-6.6-3-6.6-6.6v-87.2
		C206.1,136.1,209.1,133.2,212.7,133.2L212.7,133.2z"/>
	<path class="st3" d="M213.6,140.2h6.2c0.3,0,0.5,0.2,0.5,0.5v6.2c0,0.3-0.2,0.5-0.5,0.5h-6.2c-0.3,0-0.5-0.2-0.5-0.5v-6.2
		C213.2,140.4,213.4,140.2,213.6,140.2z"/>
	<path class="st3" d="M227.6,140.2h6.2c0.3,0,0.5,0.2,0.5,0.5v6.2c0,0.3-0.2,0.5-0.5,0.5h-6.2c-0.3,0-0.5-0.2-0.5-0.5v-6.2
		C227.1,140.4,227.3,140.2,227.6,140.2z"/>
	<path class="st3" d="M241.3,140.2h6.2c0.3,0,0.5,0.2,0.5,0.5v6.2c0,0.3-0.2,0.5-0.5,0.5h-6.2c-0.3,0-0.5-0.2-0.5-0.5v-6.2
		C240.8,140.4,241,140.2,241.3,140.2z"/>
	<line class="st4" x1="206.5" y1="153.8" x2="306.8" y2="153.8"/>
	<line class="st2" x1="237.6" y1="164.4" x2="264.9" y2="164.4"/>
	<line class="st2" x1="277" y1="164.4" x2="268.8" y2="164.4"/>
	<line class="st2" x1="277" y1="172.7" x2="249.8" y2="172.7"/>
	<line class="st2" x1="245.8" y1="172.7" x2="237.6" y2="172.7"/>
	<line class="st2" x1="264.9" y1="214.1" x2="237.6" y2="214.1"/>
	<line class="st2" x1="277" y1="214.1" x2="268.3" y2="214.1"/>
	<line class="st2" x1="277" y1="223.3" x2="249.8" y2="223.3"/>
	<line class="st2" x1="245.8" y1="223.3" x2="237.6" y2="223.3"/>
	<path class="st3" d="M218.5,182.7h76.4c1,0,1.9,0.8,1.9,1.9l0,0v18.2c0,1-0.8,1.9-1.9,1.9l0,0h-76.4c-1,0-1.9-0.8-1.9-1.9
		c0,0,0,0,0,0v-18.2C216.6,183.6,217.4,182.7,218.5,182.7z"/>
	<line class="st2" x1="306.1" y1="184.2" x2="329.5" y2="184.2"/>
	<polygon points="327,192.5 341.5,184.2 327,175.8 	"/>
	<path class="st5" d="M524.4,170.7h138.3c1.6,0,2.8,1.3,2.8,2.9V196c0,1.6-1.3,2.8-2.8,2.9H524.4c-1.6,0-2.8-1.3-2.8-2.9v-22.4
		C521.6,172,522.9,170.7,524.4,170.7L524.4,170.7z"/>
	<line class="st2" x1="478.5" y1="184.2" x2="501.9" y2="184.2"/>
	<polygon points="499.5,192.5 514,184.2 499.5,175.8 	"/>
	<path class="st3" d="M212.7,14.4h87.2c3.6,0,6.6,3,6.6,6.6c0,0,0,0,0,0v87.2c0,3.6-3,6.6-6.6,6.6l0,0h-87.2c-3.6,0-6.6-3-6.6-6.6
		V21C206.1,17.4,209.1,14.4,212.7,14.4z"/>
	<path class="st3" d="M213.6,21.4h6.2c0.3,0,0.5,0.2,0.5,0.5v6.2c0,0.3-0.2,0.5-0.5,0.5h-6.2c-0.3,0-0.5-0.2-0.5-0.5v-6.2
		C213.2,21.6,213.4,21.4,213.6,21.4z"/>
	<path class="st3" d="M227.6,21.4h6.2c0.3,0,0.5,0.2,0.5,0.5v6.2c0,0.3-0.2,0.5-0.5,0.5h-6.2c-0.3,0-0.5-0.2-0.5-0.5v-6.2
		C227.1,21.6,227.3,21.4,227.6,21.4z"/>
	<path class="st3" d="M241.3,21.4h6.2c0.3,0,0.5,0.2,0.5,0.5v6.2c0,0.3-0.2,0.5-0.5,0.5h-6.2c-0.3,0-0.5-0.2-0.5-0.5v-6.2
		C240.8,21.6,241,21.4,241.3,21.4z"/>
	<line class="st4" x1="206.5" y1="35" x2="306.8" y2="35"/>
	<line class="st2" x1="237.6" y1="45.7" x2="264.9" y2="45.7"/>
	<line class="st2" x1="277" y1="45.7" x2="268.8" y2="45.7"/>
	<line class="st2" x1="277" y1="54" x2="249.8" y2="54"/>
	<line class="st2" x1="245.8" y1="54" x2="237.6" y2="54"/>
	<line class="st2" x1="264.9" y1="95.3" x2="237.6" y2="95.3"/>
	<line class="st2" x1="277" y1="95.3" x2="268.3" y2="95.3"/>
	<line class="st2" x1="277" y1="104.6" x2="249.8" y2="104.6"/>
	<line class="st2" x1="245.8" y1="104.6" x2="237.6" y2="104.6"/>
	<path class="st3" d="M218.5,64h76.4c1,0,1.9,0.8,1.9,1.9v0v18.2c0,1-0.8,1.9-1.9,1.9l0,0h-76.4c-1,0-1.9-0.8-1.9-1.9l0,0V65.9
		C216.6,64.8,217.4,64,218.5,64L218.5,64z"/>
	<line class="st2" x1="122.5" y1="184.2" x2="172.9" y2="184.2"/>
	<polygon points="170.5,192.5 184.9,184.2 170.5,175.8 	"/>
	<line class="st2" x1="122.5" y1="114.8" x2="122.5" y2="182.7"/>
	<path class="st6" d="M479.6,108.6c0.3-0.4,0.6-0.9,0.9-1.3c0.3-0.4,0.6-0.9,0.9-1.3c0.5-1.2,0.8-2.5,0.9-3.8
		c0.4-10-13.1-11.6-14.7-1.8l-20-0.3l0,3.1l1.4,0l-0.1,3.5l6.4,0.1l0.1-3.5l12.3,0.2C468.2,109.7,475.4,112.7,479.6,108.6z"/>
	<path class="st7" d="M473.6,107.4c-2.3-0.5-3.7-3.4-3.2-6.3s2.8-4.9,5-4.4s3.7,3.4,3.2,6.3S475.9,108,473.6,107.4z"/>
	<path class="st8" d="M351.5,170.1h124.4c1.5,0,2.7,1.2,2.7,2.7c0,0,0,0,0,0v22.7c0,1.5-1.2,2.7-2.7,2.7l0,0H351.5
		c-1.5,0-2.7-1.2-2.7-2.7v-22.7C348.8,171.3,350,170.1,351.5,170.1z"/>
	<line class="st9" x1="397.4" y1="51.2" x2="397.4" y2="88"/>
	<polygon points="390,85.8 397.4,98.7 404.9,85.8 	"/>
	<line class="st9" x1="307.5" y1="50.4" x2="397.4" y2="50.4"/>
	<path d="M671.3,168.2h-1.6v-4.7c0-2.6-2.1-4.7-4.7-4.7s-4.7,2.1-4.7,4.7c0,0,0,0,0,0v4.7h-1.6c-0.9,0-1.6,0.7-1.6,1.6v9.4
		c0,0.9,0.7,1.6,1.6,1.6h12.5c0.9,0,1.6-0.7,1.6-1.6v-9.4C672.9,168.9,672.2,168.2,671.3,168.2z M661.9,163.5c0-1.7,1.4-3.1,3.1-3.1
		c1.7,0,3.1,1.4,3.1,3.1c0,0,0,0,0,0v4.7h-6.3V163.5z M671.3,179.1h-12.5v-9.4h12.5V179.1z"/>
	<rect x="658.2" y="169.8" width="13.1" height="9.4"/>
	<line class="st2" x1="413.7" y1="131.8" x2="413.7" y2="153.7"/>
	<polygon points="405.3,151.3 413.7,165.8 422,151.3 	"/>
	<path class="st8" d="M351.5,103.7h124.4c1.5,0,2.7,1.2,2.7,2.7l0,0v22.7c0,1.5-1.2,2.7-2.7,2.7l0,0H351.5c-1.5,0-2.7-1.2-2.7-2.7
		v-22.7C348.8,104.9,350,103.7,351.5,103.7z"/>
	<g>
		<defs>
			<path id="SVGID_1_" d="M619.7,34.7c-0.2-2.3,1.6-4.3,3.9-4.5c2.3-0.2,4.3,1.6,4.5,3.9c0.2,2.3-1.6,4.3-3.9,4.5
				c-0.1,0-0.2,0-0.3,0c-2.2,0.1-4.1-1.6-4.2-3.8C619.7,34.7,619.7,34.7,619.7,34.7z M611.2,36.5l-4.1,3.4l3.4,5.2l4.9-1.4
				c1.2,0.9,2.6,1.7,4.1,2.2l1.1,4.4h6.7l1-4.4c1.5-0.5,2.8-1.2,4.1-2.2l4.9,1.6l3.5-5.3l-4.1-3.4c0.1-0.6,0.2-1.2,0.1-1.8
				c0-0.6,0-1.2-0.1-1.8l4.1-3.4l-3.5-5.3l-4.8,1.6c-1.2-0.9-2.6-1.7-4.1-2.2l-1.1-4.4h-6.7l-1,4.4c-1.5,0.5-2.8,1.2-4.1,2.2
				l-4.9-1.6l-3.5,5.3l4.1,3.4c-0.1,0.6-0.2,1.2-0.1,1.8C611,35.3,611.1,35.9,611.2,36.5L611.2,36.5z"/>
		</defs>
		<clipPath id="SVGID_2_">
			<use xlink:href="#SVGID_1_"  style="overflow:visible;"/>
		</clipPath>
		<g class="st10">
			<g>
				<defs>
					<rect id="SVGID_3_" x="607.2" y="19.1" width="33.5" height="31.1"/>
				</defs>
				<clipPath id="SVGID_4_">
					<use xlink:href="#SVGID_3_"  style="overflow:visible;"/>
				</clipPath>
				<g class="st11">
					<rect x="600.2" y="12.6" class="st12" width="47.5" height="44.1"/>
				</g>
			</g>
			<rect x="607.2" y="19.1" class="st12" width="33.5" height="31.1"/>
		</g>
	</g>
	<path class="st12" d="M619.7,34.7c-0.2-2.3,1.6-4.3,3.9-4.5c2.3-0.2,4.3,1.6,4.5,3.9c0.2,2.3-1.6,4.3-3.9,4.5c-0.1,0-0.2,0-0.3,0
		c-2.2,0.1-4.1-1.6-4.2-3.8C619.7,34.7,619.7,34.7,619.7,34.7z M611.2,36.5l-4.1,3.4l3.4,5.2l4.9-1.4c1.2,0.9,2.6,1.7,4.1,2.2
		l1.1,4.4h6.7l1-4.4c1.5-0.5,2.8-1.2,4.1-2.2l4.9,1.6l3.5-5.3l-4.1-3.4c0.1-0.6,0.2-1.2,0.1-1.8c0-0.6,0-1.2-0.1-1.8l4.1-3.4
		l-3.5-5.3l-4.8,1.6c-1.2-0.9-2.6-1.7-4.1-2.2l-1.1-4.4h-6.7l-1,4.4c-1.5,0.5-2.8,1.2-4.1,2.2l-4.9-1.6l-3.5,5.3l4.1,3.4
		c-0.1,0.6-0.2,1.2-0.1,1.8C611,35.3,611.1,35.9,611.2,36.5L611.2,36.5z"/>
	<g>
		<defs>
			<path id="SVGID_5_" d="M641.5,55.5c0-1.8,1.4-3.2,3.2-3.2s3.2,1.4,3.2,3.2c0,1.8-1.4,3.2-3.2,3.2c-1.7,0-3.2-1.4-3.2-3.1
				C641.5,55.6,641.5,55.5,641.5,55.5z M635,57l-3.1,2.8l2.6,4.3l3.8-1.2c0.9,0.8,2,1.4,3.1,1.8l0.9,3.7h5.2l0.8-3.7
				c1.1-0.4,2.2-1,3.1-1.8l3.8,1.3l2.7-4.4l-3.1-2.8c0.1-0.5,0.1-1,0.1-1.5c0-0.5,0-1-0.1-1.5l3.1-2.8l-2.7-4.4l-3.7,1.3
				c-0.9-0.8-2-1.4-3.1-1.8l-0.9-3.7h-5.2l-0.8,3.7c-1.1,0.4-2.2,1-3.1,1.8l-3.8-1.3l-2.7,4.4L635,54c-0.1,0.5-0.1,1-0.1,1.5
				C634.9,56,634.9,56.5,635,57z"/>
		</defs>
		<clipPath id="SVGID_6_">
			<use xlink:href="#SVGID_5_"  style="overflow:visible;"/>
		</clipPath>
		<g class="st13">
			<g>
				<defs>
					<rect id="SVGID_7_" x="631.9" y="42.6" width="25.8" height="25.8"/>
				</defs>
				<clipPath id="SVGID_8_">
					<use xlink:href="#SVGID_7_"  style="overflow:visible;"/>
				</clipPath>
				<g class="st14">
					<rect x="626.5" y="37.2" class="st15" width="36.5" height="36.5"/>
				</g>
			</g>
			<rect x="631.9" y="42.6" class="st15" width="25.8" height="25.8"/>
		</g>
	</g>
	<path class="st15" d="M641.5,55.5c0-1.8,1.4-3.2,3.2-3.2s3.2,1.4,3.2,3.2c0,1.8-1.4,3.2-3.2,3.2c-1.7,0-3.2-1.4-3.2-3.1
		C641.5,55.6,641.5,55.5,641.5,55.5z M635,57l-3.1,2.8l2.6,4.3l3.8-1.2c0.9,0.8,2,1.4,3.1,1.8l0.9,3.7h5.2l0.8-3.7
		c1.1-0.4,2.2-1,3.1-1.8l3.8,1.3l2.7-4.4l-3.1-2.8c0.1-0.5,0.1-1,0.1-1.5c0-0.5,0-1-0.1-1.5l3.1-2.8l-2.7-4.4l-3.7,1.3
		c-0.9-0.8-2-1.4-3.1-1.8l-0.9-3.7h-5.2l-0.8,3.7c-1.1,0.4-2.2,1-3.1,1.8l-3.8-1.3l-2.7,4.4L635,54c-0.1,0.5-0.1,1-0.1,1.5
		C634.9,56,634.9,56.5,635,57z"/>
	<path class="st16" d="M677.1,17.7h-79.1c-4,0-7.2,2.6-7.2,5.8V41h7.2V23.5h79.1v40.7h-50.3V70h7.2v11.6h-7.2v5.8h32.3v-5.8h-18V70
		h35.9c4,0,7.2-2.6,7.2-5.8V23.5C684.3,20.3,681.1,17.7,677.1,17.7z"/>
	<path class="st17" d="M544.8,44.5h76.4c1,0,1.9,0.8,1.9,1.9c0,0,0,0,0,0v18.2c0,1-0.8,1.9-1.9,1.9h-76.4c-1,0-1.9-0.8-1.9-1.9V46.4
		C542.9,45.4,543.7,44.5,544.8,44.5C544.8,44.5,544.8,44.5,544.8,44.5z"/>
	<g>
		<defs>
			<path id="SVGID_9_" d="M661,37.8c0-1.3,1.1-2.4,2.4-2.4c1.3,0,2.4,1.1,2.4,2.4s-1.1,2.4-2.4,2.4h0C662.1,40.3,661,39.2,661,37.8
				C661,37.9,661,37.8,661,37.8z M656.1,38.9l-2.3,2.1l1.9,3.2l2.8-0.9c0.7,0.6,1.5,1,2.3,1.4l0.6,2.8h3.9l0.6-2.8
				c0.9-0.3,1.7-0.8,2.3-1.4l2.8,1l2-3.3l-2.3-2.1c0.1-0.4,0.1-0.8,0.1-1.1c0-0.4,0-0.8-0.1-1.1l2.3-2.1l-2-3.3l-2.8,1
				c-0.7-0.6-1.5-1-2.3-1.4l-0.6-2.8h-3.9l-0.6,2.8c-0.9,0.3-1.7,0.8-2.3,1.4l-2.8-1l-2,3.3l2.3,2.1c-0.1,0.4-0.1,0.8-0.1,1.1
				C656,38.2,656,38.6,656.1,38.9z"/>
		</defs>
		<clipPath id="SVGID_10_">
			<use xlink:href="#SVGID_9_"  style="overflow:visible;"/>
		</clipPath>
		<g class="st18">
			<g>
				<defs>
					<rect id="SVGID_11_" x="653.7" y="28.1" width="19.5" height="19.5"/>
				</defs>
				<clipPath id="SVGID_12_">
					<use xlink:href="#SVGID_11_"  style="overflow:visible;"/>
				</clipPath>
				<g class="st19">
					<rect x="649.7" y="24" class="st15" width="27.6" height="27.6"/>
				</g>
			</g>
			<rect x="653.7" y="28.1" class="st15" width="19.5" height="19.5"/>
		</g>
	</g>
	<path class="st15" d="M661,37.8c0-1.3,1.1-2.4,2.4-2.4c1.3,0,2.4,1.1,2.4,2.4s-1.1,2.4-2.4,2.4h0C662.1,40.3,661,39.2,661,37.8
		C661,37.9,661,37.8,661,37.8z M656.1,38.9l-2.3,2.1l1.9,3.2l2.8-0.9c0.7,0.6,1.5,1,2.3,1.4l0.6,2.8h3.9l0.6-2.8
		c0.9-0.3,1.7-0.8,2.3-1.4l2.8,1l2-3.3l-2.3-2.1c0.1-0.4,0.1-0.8,0.1-1.1c0-0.4,0-0.8-0.1-1.1l2.3-2.1l-2-3.3l-2.8,1
		c-0.7-0.6-1.5-1-2.3-1.4l-0.6-2.8h-3.9l-0.6,2.8c-0.9,0.3-1.7,0.8-2.3,1.4l-2.8-1l-2,3.3l2.3,2.1c-0.1,0.4-0.1,0.8-0.1,1.1
		C656,38.2,656,38.6,656.1,38.9z"/>
	<line class="st20" x1="436.2" y1="51.2" x2="436.2" y2="88"/>
	<polygon class="st21" points="428.7,85.8 436.2,98.7 443.7,85.8 	"/>
	<line class="st22" x1="436.3" y1="50.4" x2="542" y2="50.4"/>
</g>
<g id="Text">
	<path d="M110.8,97.7v5.8c0,0.7,0.1,1.4,0.5,2c1,0.9,2.5,0.9,3.5,0c0.4-0.6,0.5-1.3,0.5-2v-5.8h1.1v5.5c0,0.6-0.1,1.2-0.2,1.8
		c-0.1,0.5-0.3,0.9-0.6,1.2c-0.3,0.3-0.6,0.6-1.1,0.7c-0.5,0.2-1,0.3-1.6,0.2c-0.5,0-1.1-0.1-1.6-0.2c-0.4-0.1-0.8-0.4-1-0.7
		c-0.3-0.4-0.5-0.8-0.6-1.2c-0.1-0.6-0.2-1.2-0.2-1.8v-5.5H110.8z"/>
	<path d="M120.8,107.3c-0.6,0-1.1-0.1-1.6-0.4c-0.4-0.2-0.8-0.6-1.1-1l0.8-0.6c0.2,0.3,0.5,0.6,0.9,0.8c0.4,0.2,0.8,0.3,1.2,0.3
		c0.4,0,0.8-0.1,1.1-0.3c0.5-0.4,0.5-1.1,0.1-1.5c0,0,0,0,0,0c-0.3-0.2-0.6-0.4-0.9-0.4l-0.6-0.1c-0.3,0-0.6-0.1-0.9-0.2
		c-0.3-0.1-0.5-0.2-0.7-0.4c-0.2-0.2-0.4-0.4-0.5-0.6c-0.1-0.3-0.2-0.5-0.2-0.8c0-0.3,0.1-0.6,0.2-0.9c0.1-0.2,0.3-0.5,0.5-0.6
		c0.2-0.2,0.5-0.3,0.8-0.4c0.3-0.1,0.6-0.1,1-0.1c0.5,0,1,0.1,1.4,0.3c0.4,0.2,0.7,0.5,1,0.8l-0.7,0.6c-0.2-0.2-0.4-0.4-0.7-0.6
		c-0.3-0.2-0.7-0.3-1.1-0.3c-0.4,0-0.7,0.1-1,0.3c-0.2,0.2-0.4,0.5-0.3,0.8c0,0.3,0.1,0.6,0.3,0.7c0.3,0.2,0.6,0.3,1,0.3l0.5,0.1
		c0.6,0,1.2,0.3,1.6,0.7c0.3,0.3,0.5,0.8,0.5,1.3c0,0.6-0.2,1.2-0.7,1.6C122.2,107.1,121.5,107.3,120.8,107.3z"/>
	<path d="M127.9,107.3c-0.4,0-0.9-0.1-1.3-0.3c-0.4-0.2-0.7-0.4-1-0.7c-0.3-0.3-0.5-0.7-0.6-1.1c-0.3-1-0.3-2,0-3
		c0.1-0.4,0.3-0.8,0.6-1.1c0.3-0.3,0.6-0.6,1-0.7c0.4-0.2,0.8-0.3,1.3-0.3c0.4,0,0.9,0.1,1.2,0.3c0.4,0.2,0.7,0.4,0.9,0.7
		c0.3,0.3,0.5,0.7,0.6,1.1c0.1,0.4,0.2,0.9,0.2,1.3v0.5h-5v0.3c0,0.3,0,0.6,0.1,0.8c0.1,0.2,0.2,0.5,0.4,0.7
		c0.2,0.2,0.4,0.3,0.6,0.4c0.3,0.1,0.6,0.2,0.9,0.2c0.4,0,0.8-0.1,1.1-0.3c0.3-0.2,0.6-0.5,0.8-0.9l0.8,0.6c-0.2,0.5-0.6,0.9-1,1.2
		C129,107.1,128.5,107.3,127.9,107.3z M127.9,100.9c-0.3,0-0.5,0-0.8,0.2c-0.2,0.1-0.4,0.2-0.6,0.4c-0.2,0.2-0.3,0.4-0.4,0.7
		c-0.1,0.3-0.2,0.5-0.1,0.8v0.1h3.8v-0.1c0-0.5-0.2-1.1-0.5-1.5C128.9,101.1,128.4,100.9,127.9,100.9z"/>
	<path d="M132.6,107.1v-6.9h1.1v1.3h0.1c0.1-0.3,0.4-0.7,0.7-0.9c0.4-0.3,0.9-0.4,1.3-0.4h0.4v1.1h-0.6c-0.5,0-0.9,0.1-1.4,0.3
		c-0.3,0.2-0.5,0.5-0.5,0.8v4.7H132.6z"/>
	<path d="M229.2,198.3c-1.1,0.1-2.1-0.4-2.8-1.2c-0.7-1-1.1-2.3-1-3.6c-0.1-1.3,0.3-2.6,1-3.6c0.7-0.8,1.7-1.3,2.8-1.3
		c1.4-0.1,2.7,0.7,3.2,2l-0.9,0.6c-0.2-0.5-0.5-0.9-0.9-1.2c-0.4-0.3-0.9-0.5-1.4-0.4c-0.4,0-0.7,0.1-1.1,0.2
		c-0.3,0.2-0.6,0.4-0.8,0.7c-0.2,0.3-0.4,0.6-0.5,1c-0.1,0.4-0.2,0.9-0.2,1.3v1.4c0,0.8,0.2,1.6,0.7,2.3c0.5,0.6,1.2,0.9,1.9,0.8
		c0.5,0,1.1-0.1,1.5-0.5c0.4-0.3,0.7-0.7,0.9-1.2l0.9,0.6c-0.3,0.6-0.7,1.2-1.3,1.6C230.6,198.1,229.9,198.3,229.2,198.3z"/>
	<path d="M234.1,198.1v-6.9h1.1v1.3h0.1c0.1-0.3,0.4-0.7,0.7-0.9c0.4-0.3,0.9-0.4,1.3-0.4h0.4v1.1H237c-0.5,0-0.9,0.1-1.4,0.3
		c-0.3,0.2-0.5,0.5-0.5,0.8v4.7H234.1z"/>
	<path d="M241.6,198.3c-0.4,0-0.9-0.1-1.3-0.3c-0.4-0.2-0.7-0.4-1-0.7c-0.3-0.3-0.5-0.7-0.6-1.1c-0.3-1-0.3-2,0-3
		c0.1-0.4,0.3-0.8,0.6-1.1c0.3-0.3,0.6-0.6,1-0.7c0.4-0.2,0.8-0.3,1.3-0.3c0.4,0,0.9,0.1,1.2,0.3c0.4,0.2,0.7,0.4,0.9,0.7
		c0.3,0.3,0.5,0.7,0.6,1.1c0.1,0.4,0.2,0.9,0.2,1.3v0.5h-5v0.3c0,0.3,0,0.6,0.1,0.8c0.1,0.2,0.2,0.5,0.4,0.7
		c0.2,0.2,0.4,0.3,0.6,0.4c0.3,0.1,0.6,0.2,0.9,0.2c0.4,0,0.8-0.1,1.1-0.3c0.3-0.2,0.6-0.5,0.8-0.9l0.8,0.6c-0.2,0.5-0.6,0.9-1,1.2
		C242.8,198.2,242.2,198.3,241.6,198.3z M241.6,192c-0.3,0-0.5,0-0.8,0.2c-0.2,0.1-0.4,0.2-0.6,0.4c-0.2,0.2-0.3,0.4-0.4,0.7
		c-0.1,0.3-0.2,0.5-0.1,0.8v0.1h3.8V194c0-0.5-0.2-1.1-0.5-1.5C242.6,192.1,242.1,191.9,241.6,192z"/>
	<path d="M250.8,197L250.8,197c-0.4,0.8-1.2,1.3-2.1,1.3c-0.4,0-0.8-0.1-1.2-0.3c-0.3-0.2-0.7-0.4-0.9-0.7c-0.3-0.3-0.5-0.7-0.6-1.1
		c-0.3-1-0.3-2,0-3c0.1-0.4,0.3-0.8,0.6-1.1c0.2-0.3,0.5-0.6,0.9-0.7c0.4-0.2,0.8-0.3,1.2-0.3c0.4,0,0.9,0.1,1.2,0.3
		c0.4,0.2,0.6,0.6,0.8,1h0.1v-4.1h1.1v9.9h-1.1L250.8,197z M249,197.4c0.2,0,0.5,0,0.7-0.1c0.2-0.1,0.4-0.1,0.6-0.3
		c0.2-0.1,0.3-0.3,0.4-0.4c0.1-0.2,0.1-0.4,0.1-0.6v-2.6c0-0.2,0-0.4-0.1-0.5c-0.1-0.2-0.2-0.3-0.4-0.4c-0.2-0.1-0.4-0.2-0.6-0.3
		c-0.2-0.1-0.5-0.1-0.7-0.1c-0.5,0-1.1,0.2-1.4,0.6c-0.4,0.4-0.5,1-0.5,1.5v1.2c0,0.5,0.2,1.1,0.5,1.5
		C247.9,197.2,248.4,197.4,249,197.4L249,197.4z"/>
	<path d="M256.7,198.3c-0.4,0-0.9-0.1-1.3-0.3c-0.4-0.2-0.7-0.4-1-0.7c-0.3-0.3-0.5-0.7-0.6-1.1c-0.3-1-0.3-2,0-3
		c0.1-0.4,0.3-0.8,0.6-1.1c0.3-0.3,0.6-0.6,1-0.7c0.4-0.2,0.8-0.3,1.3-0.3c0.4,0,0.9,0.1,1.2,0.3c0.4,0.2,0.7,0.4,0.9,0.7
		c0.3,0.3,0.5,0.7,0.6,1.1c0.1,0.4,0.2,0.9,0.2,1.3v0.5h-5v0.3c0,0.3,0,0.6,0.1,0.8c0.1,0.2,0.2,0.5,0.4,0.7
		c0.2,0.2,0.4,0.3,0.6,0.4c0.3,0.1,0.6,0.2,0.9,0.2c0.4,0,0.8-0.1,1.1-0.3c0.3-0.2,0.6-0.5,0.8-0.9l0.8,0.6c-0.2,0.5-0.6,0.9-1,1.2
		C257.9,198.2,257.3,198.3,256.7,198.3z M256.7,192c-0.3,0-0.5,0-0.8,0.2c-0.2,0.1-0.4,0.2-0.6,0.4c-0.2,0.2-0.3,0.4-0.4,0.7
		c-0.1,0.3-0.2,0.5-0.1,0.8v0.1h3.8V194c0-0.5-0.2-1.1-0.5-1.5C257.7,192.1,257.2,191.9,256.7,192z"/>
	<path d="M261.5,198.1v-6.9h1.1v1.1h0.1c0.2-0.4,0.4-0.7,0.7-0.9c0.4-0.2,0.8-0.4,1.2-0.3c0.6,0,1.3,0.2,1.7,0.7
		c0.4,0.5,0.7,1.2,0.6,2v4.4h-1.1v-4.3c0-1.2-0.5-1.9-1.6-1.9c-0.2,0-0.4,0-0.6,0.1c-0.2,0-0.4,0.1-0.5,0.2
		c-0.2,0.1-0.3,0.2-0.4,0.4c-0.1,0.2-0.1,0.4-0.1,0.6v4.8L261.5,198.1z"/>
	<path d="M270.6,198.1c-0.3,0-0.6-0.1-0.9-0.3c-0.2-0.2-0.3-0.5-0.3-0.8v-4.8h-1.1v-1h0.6c0.2,0,0.3,0,0.5-0.1
		c0.1-0.1,0.1-0.3,0.1-0.5v-1.3h1v1.9h1.5v1h-1.5v5h1.4v1L270.6,198.1z"/>
	<path d="M274.3,189.6c-0.2,0-0.4,0-0.5-0.2c-0.1-0.1-0.2-0.3-0.2-0.4v-0.2c0-0.2,0-0.3,0.2-0.4c0.3-0.2,0.7-0.2,1,0
		c0.1,0.1,0.2,0.3,0.2,0.4v0.2c0,0.2,0,0.3-0.2,0.4C274.7,189.6,274.5,189.6,274.3,189.6z M273.8,191.2h1.1v6.9h-1.1V191.2z"/>
	<path d="M282.2,198.1c-0.3,0-0.6-0.1-0.9-0.3c-0.2-0.2-0.3-0.5-0.3-0.8h-0.1c-0.1,0.4-0.4,0.7-0.8,1c-0.4,0.2-0.8,0.3-1.2,0.3
		c-0.6,0-1.2-0.2-1.7-0.6c-0.4-0.4-0.6-1-0.6-1.5c0-0.6,0.2-1.2,0.7-1.5c0.7-0.4,1.5-0.6,2.2-0.5h1.4v-0.7c0-0.4-0.1-0.8-0.4-1.1
		c-0.3-0.3-0.8-0.4-1.2-0.4c-0.4,0-0.7,0.1-1.1,0.3c-0.3,0.2-0.5,0.5-0.7,0.8l-0.6-0.6c0.2-0.4,0.5-0.7,0.9-1c0.5-0.3,1-0.4,1.6-0.4
		c0.7,0,1.4,0.2,2,0.6c0.5,0.4,0.7,1.1,0.7,1.7v3.8h0.8v1L282.2,198.1z M279.1,197.4c0.2,0,0.5,0,0.7-0.1c0.2-0.1,0.4-0.1,0.6-0.3
		c0.2-0.1,0.3-0.2,0.4-0.4c0.1-0.1,0.1-0.3,0.1-0.5V195h-1.4c-0.5,0-0.9,0.1-1.3,0.3c-0.3,0.2-0.4,0.5-0.4,0.8v0.3
		c0,0.3,0.1,0.6,0.4,0.8C278.4,197.3,278.7,197.4,279.1,197.4z"/>
	<path d="M285.4,198.1c-0.3,0-0.6-0.1-0.9-0.3c-0.2-0.2-0.3-0.5-0.3-0.8v-8.8h1.1v9h1v1L285.4,198.1z"/>
	<path d="M368.9,178.9h2.8c0.5,0,1,0.1,1.4,0.3c0.4,0.2,0.8,0.5,1.1,0.9c0.3,0.4,0.6,0.9,0.7,1.5c0.3,1.3,0.3,2.7,0,4.1
		c-0.1,0.5-0.4,1-0.7,1.5c-0.3,0.4-0.7,0.7-1.1,0.9c-0.4,0.2-0.9,0.3-1.4,0.3h-2.8V178.9z M371.7,187.2c0.3,0,0.7-0.1,1-0.2
		c0.3-0.1,0.5-0.3,0.8-0.6c0.2-0.3,0.4-0.6,0.5-0.9c0.1-0.4,0.2-0.8,0.2-1.2v-1.5c0-0.4-0.1-0.8-0.2-1.2c-0.1-0.3-0.3-0.6-0.5-0.9
		c-0.2-0.2-0.5-0.4-0.8-0.6c-0.3-0.1-0.6-0.2-1-0.2h-1.8v7.4L371.7,187.2z"/>
	<path d="M377,188.2v-9.4h5.1v1H378v3.1h3.9v1H378v3.2h4.1v1H377z"/>
	<path d="M386.3,183.6l-1.2,1.5v3.1h-1v-9.4h1v5h0l1.2-1.6l2.6-3.4h1.2l-3.1,4l3.4,5.3h-1.3L386.3,183.6z"/>
	<path d="M396.6,187.4v-2.8h-2.4v-0.9h2.4v-2.8h0.9v2.8h2.4v0.9h-2.4v2.8L396.6,187.4z"/>
	<path d="M407.6,188.4c-1,0-1.9-0.4-2.5-1.2c-0.7-1.1-1-2.3-0.9-3.6c-0.1-1.3,0.2-2.5,0.9-3.6c0.6-0.8,1.5-1.3,2.5-1.3
		c0.6,0,1.3,0.2,1.8,0.5c0.5,0.4,0.9,0.9,1.1,1.5l-0.8,0.6c-0.1-0.5-0.4-0.9-0.8-1.2c-0.4-0.3-0.8-0.5-1.3-0.4c-0.3,0-0.7,0.1-1,0.2
		c-0.3,0.2-0.5,0.4-0.7,0.7c-0.2,0.3-0.4,0.6-0.5,1c-0.1,0.4-0.2,0.9-0.2,1.3v1.4c0,0.8,0.2,1.6,0.6,2.3c0.4,0.5,1,0.9,1.7,0.8
		c0.5,0,1-0.1,1.4-0.5c0.4-0.3,0.7-0.8,0.8-1.2l0.8,0.6c-0.2,0.6-0.6,1.2-1.1,1.6C408.9,188.2,408.3,188.4,407.6,188.4z"/>
	<path d="M412.1,188.2v-6.9h1v1.3h0.1c0.1-0.3,0.3-0.6,0.6-0.9c0.3-0.3,0.8-0.4,1.2-0.4h0.4v1.1h-0.6c-0.4,0-0.9,0.1-1.2,0.3
		c-0.3,0.2-0.4,0.5-0.4,0.8v4.7H412.1z"/>
	<path d="M418.8,188.4c-0.4,0-0.8-0.1-1.2-0.3c-0.3-0.2-0.6-0.4-0.9-0.7c-0.3-0.3-0.5-0.7-0.6-1.1c-0.3-1-0.3-2,0-3
		c0.1-0.4,0.3-0.8,0.6-1.1c0.5-0.6,1.2-1,2-1c0.4,0,0.8,0.1,1.1,0.3c0.3,0.2,0.6,0.4,0.8,0.7c0.2,0.3,0.4,0.7,0.5,1.1
		c0.1,0.4,0.2,0.9,0.2,1.3v0.5H417v0.3c0,0.3,0,0.6,0.1,0.8c0.1,0.2,0.2,0.5,0.4,0.7c0.2,0.2,0.4,0.3,0.6,0.4
		c0.2,0.1,0.5,0.2,0.8,0.2c0.4,0,0.7-0.1,1-0.3c0.3-0.2,0.5-0.5,0.7-0.9l0.7,0.6c-0.2,0.5-0.5,0.9-0.9,1.2
		C419.9,188.2,419.3,188.4,418.8,188.4z M418.8,182c-0.3,0-0.5,0-0.7,0.2c-0.2,0.1-0.4,0.2-0.6,0.4c-0.2,0.2-0.3,0.4-0.4,0.7
		c-0.1,0.3-0.1,0.5-0.1,0.8v0.1h3.4v-0.1c0-0.5-0.1-1-0.5-1.5C419.7,182.2,419.3,182,418.8,182z"/>
	<path d="M427.1,187.1L427.1,187.1c-0.3,0.8-1.1,1.3-1.9,1.3c-0.4,0-0.7-0.1-1.1-0.3c-0.3-0.2-0.6-0.4-0.8-0.7
		c-0.2-0.3-0.4-0.7-0.5-1.1c-0.2-1-0.2-2,0-3c0.1-0.4,0.3-0.8,0.5-1.1c0.2-0.3,0.5-0.5,0.8-0.7c0.3-0.2,0.7-0.3,1.1-0.3
		c0.4,0,0.8,0.1,1.1,0.3c0.3,0.2,0.6,0.6,0.7,1h0v-4.1h1v9.9h-1V187.1z M425.5,187.4c0.2,0,0.4,0,0.6-0.1c0.2-0.1,0.4-0.2,0.5-0.3
		c0.1-0.1,0.3-0.3,0.3-0.4c0.1-0.2,0.1-0.4,0.1-0.6v-2.6c0-0.2,0-0.4-0.1-0.5c-0.1-0.2-0.2-0.3-0.3-0.4c-0.2-0.1-0.3-0.2-0.5-0.3
		c-0.2-0.1-0.4-0.1-0.6-0.1c-0.5,0-1,0.2-1.3,0.6c-0.3,0.4-0.5,1-0.5,1.5v1.2c0,0.5,0.1,1.1,0.5,1.5
		C424.5,187.2,425,187.4,425.5,187.4L425.5,187.4z"/>
	<path d="M432.5,188.4c-0.4,0-0.8-0.1-1.2-0.3c-0.3-0.2-0.6-0.4-0.9-0.7c-0.3-0.3-0.5-0.7-0.6-1.1c-0.3-1-0.3-2,0-3
		c0.1-0.4,0.3-0.8,0.6-1.1c0.5-0.6,1.2-1,2-1c0.4,0,0.8,0.1,1.1,0.3c0.3,0.2,0.6,0.4,0.8,0.7c0.2,0.3,0.4,0.7,0.5,1.1
		c0.1,0.4,0.2,0.9,0.2,1.3v0.5h-4.5v0.3c0,0.3,0,0.6,0.1,0.8c0.1,0.2,0.2,0.5,0.4,0.7c0.2,0.2,0.4,0.3,0.6,0.4
		c0.2,0.1,0.5,0.2,0.8,0.2c0.4,0,0.7-0.1,1-0.3c0.3-0.2,0.5-0.5,0.7-0.9l0.7,0.6c-0.2,0.5-0.5,0.9-0.9,1.2
		C433.5,188.2,433,188.4,432.5,188.4z M432.5,182c-0.3,0-0.5,0-0.7,0.2c-0.2,0.1-0.4,0.2-0.6,0.4c-0.2,0.2-0.3,0.4-0.4,0.7
		c-0.1,0.3-0.1,0.5-0.1,0.8v0.1h3.4v-0.1c0-0.5-0.1-1-0.5-1.5C433.4,182.2,432.9,182,432.5,182z"/>
	<path d="M436.7,188.2v-6.9h1v1.1h0c0.1-0.4,0.4-0.7,0.6-0.9c0.3-0.2,0.7-0.4,1.1-0.3c0.6,0,1.2,0.2,1.5,0.7c0.4,0.6,0.6,1.3,0.6,2
		v4.4h-1V184c0-1.2-0.5-1.9-1.4-1.9c-0.2,0-0.4,0-0.6,0.1c-0.2,0.1-0.3,0.1-0.5,0.2c-0.1,0.1-0.3,0.2-0.3,0.4
		c-0.1,0.2-0.1,0.4-0.1,0.6v4.8L436.7,188.2z"/>
	<path d="M445,188.2c-0.3,0-0.6-0.1-0.8-0.3c-0.2-0.2-0.3-0.5-0.3-0.8v-4.8h-1v-1h0.6c0.2,0,0.3,0,0.4-0.1c0.1-0.1,0.1-0.3,0.1-0.5
		v-1.3h0.9v1.9h1.4v1h-1.4v5h1.3v1L445,188.2z"/>
	<path d="M448.3,179.7c-0.2,0-0.3,0-0.5-0.2c-0.1-0.1-0.1-0.3-0.1-0.4v-0.2c0-0.2,0-0.3,0.1-0.4c0.3-0.2,0.6-0.2,0.9,0
		c0.1,0.1,0.1,0.3,0.1,0.4v0.2c0,0.2,0,0.3-0.1,0.4C448.7,179.6,448.5,179.7,448.3,179.7z M447.9,181.3h1v6.9h-1V181.3z"/>
	<path d="M455.4,188.2c-0.3,0-0.6-0.1-0.8-0.3c-0.2-0.2-0.3-0.5-0.3-0.8h-0.1c-0.1,0.4-0.3,0.7-0.7,1c-0.3,0.2-0.7,0.3-1.1,0.3
		c-0.6,0-1.1-0.2-1.5-0.6c-0.4-0.4-0.6-1-0.5-1.5c0-0.6,0.2-1.1,0.6-1.5c0.6-0.4,1.3-0.6,2-0.5h1.2v-0.7c0-0.4-0.1-0.8-0.4-1.1
		c-0.3-0.3-0.7-0.4-1.1-0.4c-0.3,0-0.7,0.1-0.9,0.3c-0.3,0.2-0.5,0.5-0.6,0.8l-0.6-0.6c0.4-0.9,1.3-1.4,2.2-1.4
		c0.6,0,1.3,0.2,1.8,0.6c0.4,0.5,0.7,1.1,0.6,1.7v3.8h0.7v1L455.4,188.2z M452.6,187.5c0.2,0,0.4,0,0.7-0.1c0.2-0.1,0.4-0.1,0.5-0.3
		c0.1-0.1,0.3-0.2,0.3-0.4c0.1-0.2,0.1-0.3,0.1-0.5v-1.1H453c-0.4,0-0.8,0.1-1.2,0.3c-0.3,0.2-0.4,0.5-0.4,0.8v0.3
		c0,0.3,0.1,0.6,0.3,0.8C452,187.4,452.3,187.5,452.6,187.5z"/>
	<path d="M458.4,188.2c-0.3,0-0.6-0.1-0.8-0.3c-0.2-0.2-0.3-0.5-0.3-0.8v-8.8h1v9h0.9v1L458.4,188.2z"/>
	<path d="M532.3,188.8v-9.4h5.7v1h-4.6v3.1h4.3v1h-4.3v3.2h4.6v1H532.3z"/>
	<path d="M540,188.8v-6.9h1.1v1.1h0.1c0.2-0.4,0.4-0.7,0.7-0.9c0.4-0.2,0.8-0.4,1.2-0.3c0.6,0,1.3,0.2,1.7,0.7
		c0.4,0.5,0.7,1.2,0.6,2v4.4h-1.1v-4.3c0-1.2-0.5-1.9-1.6-1.9c-0.2,0-0.4,0-0.6,0.1c-0.2,0-0.4,0.1-0.5,0.2
		c-0.2,0.1-0.3,0.2-0.4,0.4c-0.1,0.2-0.1,0.4-0.1,0.6v4.8L540,188.8z"/>
	<path d="M550.2,189c-0.4,0-0.9-0.1-1.3-0.3c-0.4-0.2-0.7-0.4-1-0.7c-0.3-0.3-0.5-0.7-0.6-1.1c-0.3-1-0.3-2,0-3
		c0.1-0.4,0.3-0.8,0.6-1.1c0.3-0.3,0.6-0.6,1-0.7c0.4-0.2,0.9-0.3,1.3-0.3c0.6,0,1.2,0.1,1.7,0.4c0.4,0.3,0.7,0.7,0.9,1.2l-0.9,0.5
		c-0.1-0.3-0.3-0.6-0.6-0.8c-0.3-0.2-0.7-0.3-1.1-0.3c-0.3,0-0.6,0-0.8,0.2c-0.2,0.1-0.4,0.2-0.6,0.4c-0.2,0.2-0.3,0.4-0.4,0.7
		c-0.1,0.3-0.1,0.6-0.1,0.8v1.2c0,0.5,0.2,1.1,0.5,1.5c0.4,0.4,0.9,0.6,1.4,0.6c0.8,0,1.6-0.5,1.9-1.2l0.8,0.5
		c-0.2,0.5-0.6,0.9-1,1.2C551.3,188.9,550.7,189,550.2,189z"/>
	<path d="M554.3,188.8v-6.9h1.1v1.3h0.1c0.1-0.3,0.4-0.7,0.7-0.9c0.4-0.3,0.9-0.4,1.3-0.4h0.4v1.1h-0.6c-0.5,0-0.9,0.1-1.4,0.3
		c-0.3,0.2-0.5,0.5-0.5,0.8v4.7H554.3z"/>
	<path d="M563.6,181.9h1.1l-3.1,8.5c-0.1,0.2-0.1,0.4-0.2,0.5c-0.1,0.1-0.2,0.2-0.3,0.3c-0.1,0.1-0.3,0.1-0.4,0.2
		c-0.2,0-0.4,0.1-0.6,0.1h-0.5v-1h1.1l0.5-1.5l-2.6-7.2h1.1l1.7,4.7l0.3,1.1h0.1l0.4-1.1L563.6,181.9z"/>
	<path d="M566.1,181.9h1.1v1.1h0.1c0.1-0.4,0.4-0.7,0.8-1c0.4-0.2,0.8-0.3,1.2-0.3c0.4,0,0.8,0.1,1.2,0.3c0.3,0.2,0.7,0.4,0.9,0.7
		c0.3,0.3,0.5,0.7,0.6,1.1c0.3,1,0.3,2,0,3c-0.1,0.4-0.3,0.8-0.6,1.1c-0.2,0.3-0.5,0.6-0.9,0.7c-0.4,0.2-0.8,0.3-1.2,0.3
		c-0.9,0-1.7-0.5-2-1.3h-0.1v3.8h-1.1L566.1,181.9z M568.9,188.1c0.5,0,1.1-0.2,1.4-0.6c0.4-0.4,0.5-1,0.5-1.5v-1.2
		c0-0.5-0.2-1.1-0.5-1.5c-0.4-0.4-0.9-0.6-1.4-0.6c-0.2,0-0.5,0-0.7,0.1c-0.2,0.1-0.4,0.2-0.6,0.3c-0.2,0.1-0.3,0.3-0.4,0.4
		c-0.1,0.2-0.1,0.3-0.1,0.5v2.6c0,0.2,0,0.4,0.1,0.6c0.1,0.2,0.2,0.3,0.4,0.4c0.2,0.1,0.4,0.2,0.6,0.3
		C568.5,188,568.7,188.1,568.9,188.1L568.9,188.1z"/>
	<path d="M575.3,188.8c-0.3,0-0.6-0.1-0.9-0.3c-0.2-0.2-0.3-0.5-0.3-0.8v-4.8H573v-1h0.6c0.2,0,0.3,0,0.5-0.1
		c0.1-0.1,0.1-0.3,0.1-0.5V180h1v1.9h1.5v1h-1.5v5h1.4v1L575.3,188.8z"/>
	<path d="M581,189c-0.4,0-0.9-0.1-1.3-0.3c-0.4-0.2-0.7-0.4-1-0.7c-0.3-0.3-0.5-0.7-0.6-1.1c-0.3-1-0.3-2,0-3
		c0.1-0.4,0.3-0.8,0.6-1.1c0.3-0.3,0.6-0.6,1-0.7c0.4-0.2,0.8-0.3,1.3-0.3c0.4,0,0.9,0.1,1.2,0.3c0.4,0.2,0.7,0.4,0.9,0.7
		c0.3,0.3,0.5,0.7,0.6,1.1c0.1,0.4,0.2,0.9,0.2,1.3v0.5h-5v0.3c0,0.3,0,0.6,0.1,0.8c0.1,0.2,0.2,0.5,0.4,0.7
		c0.2,0.2,0.4,0.3,0.6,0.4c0.3,0.1,0.6,0.2,0.9,0.2c0.4,0,0.8-0.1,1.1-0.3c0.3-0.2,0.6-0.5,0.8-0.9l0.8,0.6c-0.2,0.5-0.6,0.9-1,1.2
		C582.2,188.9,581.6,189,581,189z M581,182.7c-0.3,0-0.5,0-0.8,0.2c-0.2,0.1-0.4,0.2-0.6,0.4c-0.2,0.2-0.3,0.4-0.4,0.7
		c-0.1,0.3-0.2,0.5-0.1,0.8v0.1h3.8v-0.1c0-0.5-0.2-1.1-0.5-1.5C582,182.8,581.5,182.6,581,182.7L581,182.7z"/>
	<path d="M590.2,187.7L590.2,187.7c-0.4,0.8-1.2,1.3-2.1,1.3c-0.4,0-0.8-0.1-1.2-0.3c-0.3-0.2-0.7-0.4-0.9-0.7
		c-0.3-0.3-0.5-0.7-0.6-1.1c-0.3-1-0.3-2,0-3c0.1-0.4,0.3-0.8,0.6-1.1c0.2-0.3,0.5-0.6,0.9-0.7c0.4-0.2,0.8-0.3,1.2-0.3
		c0.4,0,0.9,0.1,1.2,0.3c0.4,0.2,0.6,0.6,0.8,1h0.1v-4.1h1.1v9.9h-1.1L590.2,187.7z M588.4,188.1c0.2,0,0.5,0,0.7-0.1
		c0.2-0.1,0.4-0.1,0.6-0.3c0.2-0.1,0.3-0.3,0.4-0.4c0.1-0.2,0.1-0.4,0.1-0.6v-2.6c0-0.2,0-0.4-0.1-0.5c-0.1-0.2-0.2-0.3-0.4-0.4
		c-0.2-0.1-0.4-0.2-0.6-0.3c-0.2-0.1-0.5-0.1-0.7-0.1c-0.5,0-1.1,0.2-1.4,0.6c-0.4,0.4-0.5,1-0.5,1.5v1.2c0,0.5,0.2,1.1,0.5,1.5
		C587.3,187.9,587.9,188.1,588.4,188.1L588.4,188.1z"/>
	<path d="M599.3,189c-0.4,0-0.9-0.1-1.3-0.3c-0.4-0.2-0.7-0.4-1-0.7c-0.3-0.3-0.5-0.7-0.6-1.1c-0.3-1-0.3-2,0-3
		c0.1-0.4,0.3-0.8,0.6-1.1c0.3-0.3,0.6-0.6,1-0.7c0.4-0.2,0.9-0.3,1.3-0.3c0.6,0,1.2,0.1,1.7,0.4c0.4,0.3,0.7,0.7,0.9,1.2l-0.9,0.5
		c-0.1-0.3-0.3-0.6-0.6-0.8c-0.3-0.2-0.7-0.3-1.1-0.3c-0.3,0-0.6,0-0.8,0.2c-0.2,0.1-0.4,0.2-0.6,0.4c-0.2,0.2-0.3,0.4-0.4,0.7
		c-0.1,0.3-0.1,0.6-0.1,0.8v1.2c0,0.5,0.2,1.1,0.5,1.5c0.4,0.4,0.9,0.6,1.4,0.6c0.8,0,1.6-0.5,1.9-1.2l0.8,0.5
		c-0.2,0.5-0.6,0.9-1,1.2C600.4,188.9,599.9,189,599.3,189z"/>
	<path d="M603.5,188.8v-6.9h1.1v1.3h0.1c0.1-0.3,0.4-0.7,0.7-0.9c0.4-0.3,0.9-0.4,1.3-0.4h0.4v1.1h-0.6c-0.5,0-0.9,0.1-1.4,0.3
		c-0.3,0.2-0.5,0.5-0.5,0.8v4.7H603.5z"/>
	<path d="M610.9,189c-0.4,0-0.9-0.1-1.3-0.3c-0.4-0.2-0.7-0.4-1-0.7c-0.3-0.3-0.5-0.7-0.6-1.1c-0.3-1-0.3-2,0-3
		c0.1-0.4,0.3-0.8,0.6-1.1c0.3-0.3,0.6-0.6,1-0.7c0.4-0.2,0.8-0.3,1.3-0.3c0.4,0,0.9,0.1,1.2,0.3c0.4,0.2,0.7,0.4,0.9,0.7
		c0.3,0.3,0.5,0.7,0.6,1.1c0.1,0.4,0.2,0.9,0.2,1.3v0.5h-5v0.3c0,0.3,0,0.6,0.1,0.8c0.1,0.2,0.2,0.5,0.4,0.7
		c0.2,0.2,0.4,0.3,0.6,0.4c0.3,0.1,0.6,0.2,0.9,0.2c0.4,0,0.8-0.1,1.1-0.3c0.3-0.2,0.6-0.5,0.8-0.9l0.8,0.6c-0.2,0.5-0.6,0.9-1,1.2
		C612.1,188.9,611.5,189,610.9,189z M610.9,182.7c-0.3,0-0.5,0-0.8,0.2c-0.2,0.1-0.4,0.2-0.6,0.4c-0.2,0.2-0.3,0.4-0.4,0.7
		c-0.1,0.3-0.2,0.5-0.1,0.8v0.1h3.8v-0.1c0-0.5-0.2-1.1-0.5-1.5C611.9,182.8,611.4,182.6,610.9,182.7L610.9,182.7z"/>
	<path d="M620.1,187.7L620.1,187.7c-0.4,0.8-1.2,1.3-2.1,1.3c-0.4,0-0.8-0.1-1.2-0.3c-0.3-0.2-0.7-0.4-0.9-0.7
		c-0.3-0.3-0.5-0.7-0.6-1.1c-0.3-1-0.3-2,0-3c0.1-0.4,0.3-0.8,0.6-1.1c0.2-0.3,0.5-0.6,0.9-0.7c0.4-0.2,0.8-0.3,1.2-0.3
		c0.4,0,0.9,0.1,1.2,0.3c0.4,0.2,0.6,0.6,0.8,1h0.1v-4.1h1.1v9.9h-1.1V187.7z M618.3,188.1c0.2,0,0.5,0,0.7-0.1
		c0.2-0.1,0.4-0.1,0.6-0.3c0.2-0.1,0.3-0.3,0.4-0.4c0.1-0.2,0.1-0.4,0.1-0.6v-2.6c0-0.2,0-0.4-0.1-0.5c-0.1-0.2-0.2-0.3-0.4-0.4
		c-0.2-0.1-0.4-0.2-0.6-0.3c-0.2-0.1-0.5-0.1-0.7-0.1c-0.5,0-1.1,0.2-1.4,0.6c-0.4,0.4-0.5,1-0.5,1.5v1.2c0,0.5,0.2,1.1,0.5,1.5
		C617.2,187.9,617.8,188.1,618.3,188.1L618.3,188.1z"/>
	<path d="M626,189c-0.4,0-0.9-0.1-1.3-0.3c-0.4-0.2-0.7-0.4-1-0.7c-0.3-0.3-0.5-0.7-0.6-1.1c-0.3-1-0.3-2,0-3
		c0.1-0.4,0.3-0.8,0.6-1.1c0.3-0.3,0.6-0.6,1-0.7c0.4-0.2,0.8-0.3,1.3-0.3c0.4,0,0.9,0.1,1.2,0.3c0.4,0.2,0.7,0.4,0.9,0.7
		c0.3,0.3,0.5,0.7,0.6,1.1c0.1,0.4,0.2,0.9,0.2,1.3v0.5h-5v0.3c0,0.3,0,0.6,0.1,0.8c0.1,0.2,0.2,0.5,0.4,0.7
		c0.2,0.2,0.4,0.3,0.6,0.4c0.3,0.1,0.6,0.2,0.9,0.2c0.4,0,0.8-0.1,1.1-0.3c0.3-0.2,0.6-0.5,0.8-0.9l0.8,0.6c-0.2,0.5-0.6,0.9-1,1.2
		C627.2,188.9,626.6,189,626,189z M626,182.7c-0.3,0-0.5,0-0.8,0.2c-0.2,0.1-0.4,0.2-0.6,0.4c-0.2,0.2-0.3,0.4-0.4,0.7
		c-0.1,0.3-0.2,0.5-0.1,0.8v0.1h3.8v-0.1c0-0.5-0.2-1.1-0.5-1.5C627,182.8,626.5,182.6,626,182.7L626,182.7z"/>
	<path d="M630.8,188.8v-6.9h1.1v1.1h0.1c0.2-0.4,0.4-0.7,0.7-0.9c0.4-0.2,0.8-0.4,1.2-0.3c0.6,0,1.3,0.2,1.7,0.7
		c0.4,0.5,0.7,1.2,0.6,2v4.4h-1.1v-4.3c0-1.2-0.5-1.9-1.6-1.9c-0.2,0-0.4,0-0.6,0.1c-0.2,0-0.4,0.1-0.5,0.2
		c-0.2,0.1-0.3,0.2-0.4,0.4c-0.1,0.2-0.1,0.4-0.1,0.6v4.8L630.8,188.8z"/>
	<path d="M639.9,188.8c-0.3,0-0.6-0.1-0.9-0.3c-0.2-0.2-0.3-0.5-0.3-0.8v-4.8h-1.1v-1h0.6c0.2,0,0.3,0,0.5-0.1
		c0.1-0.1,0.1-0.3,0.1-0.5V180h1v1.9h1.5v1h-1.5v5h1.4v1L639.9,188.8z"/>
	<path d="M643.7,180.3c-0.2,0-0.4,0-0.5-0.2c-0.1-0.1-0.2-0.3-0.2-0.4v-0.2c0-0.2,0-0.3,0.2-0.4c0.3-0.2,0.7-0.2,1,0
		c0.1,0.1,0.2,0.3,0.2,0.4v0.2c0,0.2,0,0.3-0.2,0.4C644,180.3,643.8,180.3,643.7,180.3z M643.1,181.9h1.1v6.9h-1.1L643.1,181.9z"/>
	<path d="M651.5,188.8c-0.3,0-0.6-0.1-0.9-0.3c-0.2-0.2-0.3-0.5-0.3-0.8h-0.1c-0.1,0.4-0.4,0.7-0.8,1c-0.4,0.2-0.8,0.3-1.2,0.3
		c-0.6,0-1.2-0.2-1.7-0.6c-0.4-0.4-0.6-1-0.6-1.5c0-0.6,0.2-1.2,0.7-1.5c0.7-0.4,1.5-0.6,2.2-0.5h1.4v-0.7c0-0.4-0.1-0.8-0.4-1.1
		c-0.3-0.3-0.8-0.4-1.2-0.4c-0.4,0-0.7,0.1-1.1,0.3c-0.3,0.2-0.5,0.5-0.7,0.8l-0.6-0.6c0.2-0.4,0.5-0.7,0.9-1c0.5-0.3,1-0.4,1.6-0.4
		c0.7,0,1.4,0.2,2,0.6c0.5,0.4,0.7,1.1,0.7,1.7v3.8h0.8v1L651.5,188.8z M648.4,188.1c0.2,0,0.5,0,0.7-0.1c0.2-0.1,0.4-0.1,0.6-0.3
		c0.2-0.1,0.3-0.2,0.4-0.4c0.1-0.1,0.1-0.3,0.1-0.5v-1.1h-1.4c-0.5,0-0.9,0.1-1.3,0.3c-0.3,0.2-0.4,0.5-0.4,0.8v0.3
		c0,0.3,0.1,0.6,0.4,0.8C647.7,188,648.1,188.1,648.4,188.1L648.4,188.1z"/>
	<path d="M654.8,188.8c-0.3,0-0.6-0.1-0.9-0.3c-0.2-0.2-0.3-0.5-0.3-0.8v-8.8h1.1v9h1v1L654.8,188.8z"/>
	<path d="M222.3,79.4V70h3.7c0.7,0,1.4,0.2,1.9,0.7c0.9,1.2,0.9,2.8,0,3.9c-0.5,0.5-1.2,0.8-1.9,0.7h-2.6v4H222.3z M223.4,74.4h2.6
		c0.4,0,0.8-0.1,1-0.3c0.3-0.3,0.4-0.6,0.4-1v-0.7c0-0.4-0.1-0.7-0.4-1c-0.3-0.2-0.7-0.4-1-0.3h-2.6V74.4z"/>
	<path d="M235.2,79.4c-0.3,0-0.6-0.1-0.9-0.3c-0.2-0.2-0.3-0.5-0.3-0.8h-0.1c-0.1,0.4-0.4,0.7-0.8,1c-0.4,0.2-0.8,0.3-1.2,0.3
		c-0.6,0-1.2-0.2-1.7-0.6c-0.4-0.4-0.6-1-0.6-1.5c0-0.6,0.2-1.2,0.7-1.5c0.7-0.4,1.5-0.6,2.2-0.5h1.4v-0.7c0-0.4-0.1-0.8-0.4-1.1
		c-0.3-0.3-0.8-0.4-1.2-0.4c-0.4,0-0.7,0.1-1.1,0.3c-0.3,0.2-0.5,0.5-0.7,0.8l-0.6-0.6c0.2-0.4,0.5-0.7,0.9-1c0.5-0.3,1-0.4,1.6-0.4
		c0.7,0,1.4,0.2,2,0.6c0.5,0.4,0.7,1.1,0.7,1.7v3.8h0.8v1L235.2,79.4z M232.1,78.7c0.2,0,0.5,0,0.7-0.1c0.2-0.1,0.4-0.1,0.6-0.3
		c0.2-0.1,0.3-0.2,0.4-0.4c0.1-0.1,0.1-0.3,0.1-0.5v-1.1h-1.4c-0.5,0-0.9,0.1-1.3,0.3c-0.3,0.2-0.4,0.5-0.4,0.8v0.3
		c0,0.3,0.1,0.6,0.4,0.8C231.4,78.6,231.7,78.7,232.1,78.7z"/>
	<path d="M239.4,79.6c-0.6,0-1.1-0.1-1.6-0.4c-0.4-0.2-0.8-0.6-1.1-1l0.8-0.6c0.2,0.3,0.5,0.6,0.9,0.8c0.4,0.2,0.8,0.3,1.2,0.3
		c0.4,0,0.8-0.1,1.1-0.3c0.5-0.4,0.5-1.1,0.1-1.5c0,0,0,0,0,0c-0.3-0.2-0.6-0.4-0.9-0.4l-0.6-0.1c-0.3,0-0.6-0.1-0.9-0.2
		c-0.3-0.1-0.5-0.2-0.7-0.4c-0.2-0.2-0.4-0.4-0.5-0.6c-0.1-0.3-0.2-0.5-0.2-0.8c0-0.3,0.1-0.6,0.2-0.9c0.1-0.2,0.3-0.5,0.5-0.6
		c0.2-0.2,0.5-0.3,0.8-0.4c0.3-0.1,0.6-0.1,1-0.1c0.5,0,1,0.1,1.4,0.3c0.4,0.2,0.7,0.5,1,0.8l-0.7,0.6c-0.2-0.2-0.4-0.4-0.7-0.6
		c-0.3-0.2-0.7-0.3-1.1-0.3c-0.4,0-0.7,0.1-1,0.3c-0.2,0.2-0.4,0.5-0.3,0.8c0,0.3,0.1,0.6,0.3,0.7c0.3,0.2,0.6,0.3,1,0.3l0.5,0.1
		c0.6,0,1.2,0.3,1.6,0.7c0.3,0.3,0.5,0.8,0.5,1.3c0,0.6-0.2,1.2-0.7,1.6C240.7,79.4,240.1,79.6,239.4,79.6z"/>
	<path d="M245.8,79.6c-0.6,0-1.1-0.1-1.6-0.4c-0.4-0.2-0.8-0.6-1.1-1l0.8-0.6c0.2,0.3,0.5,0.6,0.9,0.8c0.4,0.2,0.8,0.3,1.2,0.3
		c0.4,0,0.8-0.1,1.1-0.3c0.5-0.4,0.5-1.1,0.1-1.5c0,0,0,0,0,0c-0.3-0.2-0.6-0.4-0.9-0.4l-0.6-0.1c-0.3,0-0.6-0.1-0.9-0.2
		c-0.3-0.1-0.5-0.2-0.7-0.4c-0.2-0.2-0.4-0.4-0.5-0.6c-0.1-0.3-0.2-0.5-0.2-0.8c0-0.3,0.1-0.6,0.2-0.9c0.1-0.2,0.3-0.5,0.5-0.6
		c0.2-0.2,0.5-0.3,0.8-0.4c0.3-0.1,0.6-0.1,1-0.1c0.5,0,1,0.1,1.4,0.3c0.4,0.2,0.7,0.5,1,0.8l-0.7,0.6c-0.2-0.2-0.4-0.4-0.7-0.6
		c-0.3-0.2-0.7-0.3-1.1-0.3c-0.4,0-0.7,0.1-1,0.3c-0.2,0.2-0.4,0.5-0.3,0.8c0,0.3,0.1,0.6,0.3,0.7c0.3,0.2,0.6,0.3,1,0.3l0.5,0.1
		c0.6,0,1.2,0.3,1.6,0.7c0.3,0.3,0.5,0.8,0.5,1.3c0,0.6-0.2,1.2-0.7,1.6C247.2,79.4,246.5,79.6,245.8,79.6z"/>
	<path d="M250.3,72.5h1.1v1.1h0.1c0.1-0.4,0.4-0.7,0.8-1c0.4-0.2,0.8-0.3,1.2-0.3c0.4,0,0.8,0.1,1.2,0.3c0.3,0.2,0.7,0.4,0.9,0.7
		c0.3,0.3,0.5,0.7,0.6,1.1c0.3,1,0.3,2,0,3c-0.1,0.4-0.3,0.8-0.6,1.1c-0.2,0.3-0.5,0.6-0.9,0.7c-0.4,0.2-0.8,0.3-1.2,0.3
		c-0.9,0-1.7-0.5-2-1.3h-0.1v3.8h-1.1L250.3,72.5z M253.1,78.6c0.5,0,1.1-0.2,1.4-0.6c0.4-0.4,0.5-1,0.5-1.5v-1.2
		c0-0.5-0.2-1.1-0.5-1.5c-0.4-0.4-0.9-0.6-1.4-0.6c-0.2,0-0.5,0-0.7,0.1c-0.2,0.1-0.4,0.2-0.6,0.3c-0.2,0.1-0.3,0.3-0.4,0.4
		c-0.1,0.2-0.1,0.3-0.1,0.5v2.6c0,0.2,0,0.4,0.1,0.6c0.1,0.2,0.2,0.3,0.4,0.4c0.2,0.1,0.4,0.2,0.6,0.3
		C252.7,78.6,252.9,78.6,253.1,78.6z"/>
	<path d="M258.1,69.5h1.1v4.1h0.1c0.2-0.4,0.4-0.7,0.7-0.9c0.4-0.2,0.8-0.4,1.2-0.3c0.6,0,1.3,0.2,1.7,0.7c0.4,0.5,0.7,1.2,0.6,2
		v4.4h-1.1v-4.3c0-1.2-0.5-1.9-1.6-1.9c-0.2,0-0.4,0-0.6,0.1c-0.2,0-0.4,0.1-0.5,0.2c-0.2,0.1-0.3,0.2-0.4,0.4
		c-0.1,0.2-0.1,0.4-0.1,0.6v4.8h-1.1L258.1,69.5z"/>
	<path d="M265.7,79.4v-6.9h1.1v1.3h0.1c0.1-0.3,0.4-0.7,0.7-0.9c0.4-0.3,0.9-0.4,1.3-0.4h0.4v1.1h-0.6c-0.5,0-0.9,0.1-1.4,0.3
		c-0.3,0.2-0.5,0.5-0.5,0.8v4.7H265.7z"/>
	<path d="M275.6,79.4c-0.3,0-0.6-0.1-0.9-0.3c-0.2-0.2-0.3-0.5-0.3-0.8h-0.1c-0.1,0.4-0.4,0.7-0.8,1c-0.4,0.2-0.8,0.3-1.2,0.3
		c-0.6,0-1.2-0.2-1.7-0.6c-0.4-0.4-0.6-1-0.6-1.5c0-0.6,0.2-1.2,0.7-1.5c0.7-0.4,1.5-0.6,2.2-0.5h1.4v-0.7c0-0.4-0.1-0.8-0.4-1.1
		c-0.3-0.3-0.8-0.4-1.2-0.4c-0.4,0-0.7,0.1-1.1,0.3c-0.3,0.2-0.5,0.5-0.7,0.8l-0.6-0.6c0.2-0.4,0.5-0.7,0.9-1c0.5-0.3,1-0.4,1.6-0.4
		c0.7,0,1.4,0.2,2,0.6c0.5,0.4,0.7,1.1,0.7,1.7v3.8h0.8v1L275.6,79.4z M272.5,78.7c0.2,0,0.5,0,0.7-0.1c0.2-0.1,0.4-0.1,0.6-0.3
		c0.2-0.1,0.3-0.2,0.4-0.4c0.1-0.1,0.1-0.3,0.1-0.5v-1.1h-1.4c-0.5,0-0.9,0.1-1.3,0.3c-0.3,0.2-0.4,0.5-0.4,0.8v0.3
		c0,0.3,0.1,0.6,0.4,0.8C271.8,78.6,272.1,78.7,272.5,78.7L272.5,78.7z"/>
	<path d="M279.8,79.6c-0.6,0-1.1-0.1-1.6-0.4c-0.4-0.2-0.8-0.6-1.1-1l0.8-0.6c0.2,0.3,0.5,0.6,0.9,0.8c0.4,0.2,0.8,0.3,1.2,0.3
		c0.4,0,0.8-0.1,1.1-0.3c0.5-0.4,0.5-1.1,0.1-1.5c0,0,0,0,0,0c-0.3-0.2-0.6-0.4-0.9-0.4l-0.5-0.1c-0.3,0-0.6-0.1-0.9-0.2
		c-0.3-0.1-0.5-0.2-0.7-0.4c-0.2-0.2-0.4-0.4-0.5-0.6c-0.1-0.3-0.2-0.5-0.2-0.8c0-0.3,0.1-0.6,0.2-0.9c0.1-0.2,0.3-0.5,0.5-0.6
		c0.2-0.2,0.5-0.3,0.8-0.4c0.3-0.1,0.6-0.1,1-0.1c0.5,0,1,0.1,1.4,0.3c0.4,0.2,0.7,0.5,1,0.8l-0.7,0.6c-0.2-0.2-0.4-0.4-0.7-0.6
		c-0.3-0.2-0.7-0.3-1.1-0.3c-0.4,0-0.7,0.1-1,0.3c-0.2,0.2-0.4,0.5-0.3,0.8c0,0.3,0.1,0.6,0.3,0.7c0.3,0.2,0.6,0.3,1,0.3l0.5,0.1
		c0.6,0,1.2,0.3,1.6,0.7c0.3,0.3,0.5,0.8,0.5,1.3c0,0.6-0.2,1.2-0.7,1.6C281.1,79.4,280.5,79.6,279.8,79.6z"/>
	<path d="M286.8,79.6c-0.4,0-0.9-0.1-1.3-0.3c-0.4-0.2-0.7-0.4-1-0.7c-0.3-0.3-0.5-0.7-0.6-1.1c-0.3-1-0.3-2,0-3
		c0.1-0.4,0.3-0.8,0.6-1.1c0.3-0.3,0.6-0.6,1-0.7c0.4-0.2,0.8-0.3,1.3-0.3c0.4,0,0.9,0.1,1.2,0.3c0.4,0.2,0.7,0.4,0.9,0.7
		c0.3,0.3,0.5,0.7,0.6,1.1c0.1,0.4,0.2,0.9,0.2,1.3v0.5h-5v0.3c0,0.3,0,0.6,0.1,0.8c0.1,0.2,0.2,0.5,0.4,0.7
		c0.2,0.2,0.4,0.3,0.6,0.4c0.3,0.1,0.6,0.2,0.9,0.2c0.4,0,0.8-0.1,1.1-0.3c0.3-0.2,0.6-0.5,0.8-0.9l0.8,0.6c-0.2,0.5-0.6,0.9-1,1.2
		C288,79.4,287.4,79.6,286.8,79.6z M286.8,73.2c-0.3,0-0.5,0-0.8,0.2c-0.2,0.1-0.4,0.2-0.6,0.4c-0.2,0.2-0.3,0.4-0.4,0.7
		c-0.1,0.3-0.2,0.5-0.1,0.8v0.1h3.8v-0.1c0-0.5-0.2-1.1-0.5-1.5C287.8,73.4,287.3,73.2,286.8,73.2z"/>
	<path d="M355.2,111.7h3.1c0.5,0,1.1,0.1,1.6,0.3c0.5,0.2,0.9,0.5,1.2,0.9c0.4,0.4,0.6,0.9,0.8,1.5c0.4,1.3,0.4,2.7,0,4.1
		c-0.2,0.5-0.4,1-0.8,1.5c-0.3,0.4-0.7,0.7-1.2,0.9c-0.5,0.2-1,0.3-1.6,0.3h-3.1V111.7z M358.3,120.1c0.4,0,0.7-0.1,1.1-0.2
		c0.3-0.1,0.6-0.3,0.8-0.6c0.2-0.3,0.4-0.6,0.5-0.9c0.1-0.4,0.2-0.8,0.2-1.2v-1.5c0-0.4-0.1-0.8-0.2-1.2c-0.1-0.3-0.3-0.7-0.5-0.9
		c-0.2-0.2-0.5-0.4-0.8-0.6c-0.3-0.1-0.7-0.2-1.1-0.2h-2v7.4L358.3,120.1z"/>
	<path d="M369.1,121.1c-0.3,0-0.6-0.1-0.9-0.3c-0.2-0.2-0.3-0.5-0.3-0.8h-0.1c-0.1,0.4-0.4,0.7-0.8,1c-0.4,0.2-0.8,0.3-1.2,0.3
		c-0.6,0-1.2-0.2-1.7-0.6c-0.4-0.4-0.6-1-0.6-1.5c0-0.6,0.2-1.2,0.7-1.5c0.7-0.4,1.5-0.6,2.2-0.5h1.4v-0.7c0-0.4-0.1-0.8-0.4-1.1
		c-0.3-0.3-0.8-0.4-1.2-0.4c-0.4,0-0.7,0.1-1.1,0.3c-0.3,0.2-0.5,0.5-0.7,0.8l-0.6-0.6c0.2-0.4,0.5-0.7,0.9-1c0.5-0.3,1-0.4,1.6-0.4
		c0.7,0,1.4,0.2,2,0.6c0.5,0.4,0.7,1.1,0.7,1.7v3.8h0.8v1L369.1,121.1z M366,120.3c0.2,0,0.5,0,0.7-0.1c0.2-0.1,0.4-0.1,0.6-0.3
		c0.2-0.1,0.3-0.2,0.4-0.4c0.1-0.1,0.1-0.3,0.1-0.5v-1.1h-1.4c-0.5,0-0.9,0.1-1.3,0.3c-0.3,0.2-0.4,0.5-0.4,0.8v0.3
		c0,0.3,0.1,0.6,0.4,0.8C365.3,120.2,365.7,120.3,366,120.3z"/>
	<path d="M372.7,121.1c-0.3,0-0.6-0.1-0.9-0.3c-0.2-0.2-0.3-0.5-0.3-0.8v-4.8h-1.1v-1h0.6c0.2,0,0.3,0,0.5-0.1
		c0.1-0.1,0.1-0.3,0.1-0.5v-1.3h1v1.9h1.5v1h-1.5v5h1.4v1H372.7z"/>
	<path d="M381,121.1c-0.3,0-0.6-0.1-0.9-0.3c-0.2-0.2-0.3-0.5-0.3-0.8h-0.1c-0.1,0.4-0.4,0.7-0.8,1c-0.4,0.2-0.8,0.3-1.2,0.3
		c-0.6,0-1.2-0.2-1.7-0.6c-0.4-0.4-0.6-1-0.6-1.5c0-0.6,0.2-1.2,0.7-1.5c0.7-0.4,1.5-0.6,2.2-0.5h1.4v-0.7c0-0.4-0.1-0.8-0.4-1.1
		c-0.3-0.3-0.8-0.4-1.2-0.4c-0.4,0-0.7,0.1-1.1,0.3c-0.3,0.2-0.5,0.5-0.7,0.8l-0.6-0.6c0.2-0.4,0.5-0.7,0.9-1c0.5-0.3,1-0.4,1.6-0.4
		c0.7,0,1.4,0.2,2,0.6c0.5,0.4,0.7,1.1,0.7,1.7v3.8h0.8v1L381,121.1z M377.9,120.3c0.2,0,0.5,0,0.7-0.1c0.2-0.1,0.4-0.1,0.6-0.3
		c0.2-0.1,0.3-0.2,0.4-0.4c0.1-0.1,0.1-0.3,0.1-0.5v-1.1h-1.4c-0.5,0-0.9,0.1-1.3,0.3c-0.3,0.2-0.4,0.5-0.4,0.8v0.3
		c0,0.3,0.1,0.6,0.4,0.8C377.2,120.2,377.5,120.3,377.9,120.3L377.9,120.3z"/>
	<path d="M388.9,121.2c-0.4,0-0.9-0.1-1.3-0.3c-0.4-0.2-0.7-0.4-1-0.7c-0.3-0.3-0.5-0.7-0.6-1.1c-0.3-1-0.3-2,0-3
		c0.1-0.4,0.3-0.8,0.6-1.1c0.3-0.3,0.6-0.6,1-0.7c0.4-0.2,0.8-0.3,1.3-0.3c0.4,0,0.9,0.1,1.2,0.3c0.4,0.2,0.7,0.4,0.9,0.7
		c0.3,0.3,0.5,0.7,0.6,1.1c0.1,0.4,0.2,0.9,0.2,1.3v0.5h-5v0.3c0,0.3,0,0.6,0.1,0.8c0.1,0.2,0.2,0.5,0.4,0.7
		c0.2,0.2,0.4,0.3,0.6,0.4c0.3,0.1,0.6,0.2,0.9,0.2c0.4,0,0.8-0.1,1.1-0.3c0.3-0.2,0.6-0.5,0.8-0.9l0.8,0.6c-0.2,0.5-0.6,0.9-1,1.2
		C390,121.1,389.4,121.2,388.9,121.2z M388.9,114.9c-0.3,0-0.5,0-0.8,0.2c-0.2,0.1-0.4,0.2-0.6,0.4c-0.2,0.2-0.3,0.4-0.4,0.7
		c-0.1,0.3-0.2,0.5-0.1,0.8v0.1h3.8v-0.1c0-0.5-0.2-1.1-0.5-1.5C389.8,115.1,389.4,114.9,388.9,114.9z"/>
	<path d="M393.6,121.1v-6.9h1.1v1.1h0.1c0.2-0.4,0.4-0.7,0.7-0.9c0.4-0.2,0.8-0.4,1.2-0.3c0.6,0,1.3,0.2,1.7,0.7
		c0.4,0.5,0.7,1.2,0.6,2v4.4h-1.1v-4.3c0-1.2-0.5-1.9-1.6-1.9c-0.2,0-0.4,0-0.6,0.1c-0.2,0-0.4,0.1-0.5,0.2
		c-0.2,0.1-0.3,0.2-0.4,0.4c-0.1,0.2-0.1,0.4-0.1,0.6v4.8L393.6,121.1z"/>
	<path d="M403.8,121.2c-0.4,0-0.9-0.1-1.3-0.3c-0.4-0.2-0.7-0.4-1-0.7c-0.3-0.3-0.5-0.7-0.6-1.1c-0.3-1-0.3-2,0-3
		c0.1-0.4,0.3-0.8,0.6-1.1c0.3-0.3,0.6-0.6,1-0.7c0.4-0.2,0.9-0.3,1.3-0.3c0.6,0,1.2,0.1,1.7,0.4c0.4,0.3,0.7,0.7,0.9,1.2l-0.9,0.5
		c-0.1-0.3-0.3-0.6-0.6-0.8c-0.3-0.2-0.7-0.3-1.1-0.3c-0.3,0-0.6,0-0.8,0.2c-0.2,0.1-0.4,0.2-0.6,0.4c-0.2,0.2-0.3,0.4-0.4,0.7
		c-0.1,0.3-0.1,0.6-0.1,0.8v1.2c0,0.5,0.2,1.1,0.5,1.5c0.4,0.4,0.9,0.6,1.4,0.6c0.8,0,1.6-0.5,1.9-1.2l0.8,0.5
		c-0.2,0.5-0.6,0.9-1,1.2C405,121.1,404.4,121.3,403.8,121.2z"/>
	<path d="M408,121.1v-6.9h1.1v1.3h0.1c0.1-0.3,0.4-0.7,0.7-0.9c0.4-0.3,0.9-0.4,1.3-0.4h0.4v1.1h-0.6c-0.5,0-0.9,0.1-1.4,0.3
		c-0.3,0.2-0.5,0.5-0.5,0.8v4.7H408z"/>
	<path d="M417.3,114.2h1.1l-3.1,8.5c-0.1,0.2-0.1,0.4-0.2,0.5c-0.1,0.1-0.2,0.2-0.3,0.3c-0.1,0.1-0.3,0.1-0.4,0.2
		c-0.2,0-0.4,0.1-0.6,0.1h-0.5v-1h1.1l0.5-1.5l-2.6-7.2h1.1l1.7,4.7l0.3,1.1h0.1l0.4-1.1L417.3,114.2z"/>
	<path d="M419.7,114.2h1.1v1.1h0.1c0.1-0.4,0.4-0.7,0.8-1c0.4-0.2,0.8-0.3,1.2-0.3c0.4,0,0.8,0.1,1.2,0.3c0.3,0.2,0.7,0.4,0.9,0.7
		c0.3,0.3,0.5,0.7,0.6,1.1c0.3,1,0.3,2,0,3c-0.1,0.4-0.3,0.8-0.6,1.1c-0.2,0.3-0.5,0.6-0.9,0.7c-0.4,0.2-0.8,0.3-1.2,0.3
		c-0.9,0-1.7-0.5-2-1.3h-0.1v3.8h-1.1L419.7,114.2z M422.6,120.3c0.5,0,1.1-0.2,1.4-0.6c0.4-0.4,0.5-1,0.5-1.5V117
		c0-0.5-0.2-1.1-0.5-1.5c-0.4-0.4-0.9-0.6-1.4-0.6c-0.2,0-0.5,0-0.7,0.1c-0.2,0.1-0.4,0.2-0.6,0.3c-0.2,0.1-0.3,0.3-0.4,0.4
		c-0.1,0.2-0.1,0.3-0.1,0.5v2.6c0,0.2,0,0.4,0.1,0.6c0.1,0.2,0.2,0.3,0.4,0.4c0.2,0.1,0.4,0.2,0.6,0.3
		C422.1,120.2,422.3,120.3,422.6,120.3z"/>
	<path d="M428.9,121.1c-0.3,0-0.6-0.1-0.9-0.3c-0.2-0.2-0.3-0.5-0.3-0.8v-4.8h-1.1v-1h0.6c0.2,0,0.3,0,0.5-0.1
		c0.1-0.1,0.1-0.3,0.1-0.5v-1.3h1v1.9h1.5v1h-1.5v5h1.4v1H428.9z"/>
	<path d="M432.6,112.5c-0.2,0-0.4,0-0.5-0.2c-0.1-0.1-0.2-0.3-0.2-0.4v-0.2c0-0.2,0-0.3,0.2-0.4c0.3-0.2,0.7-0.2,1,0
		c0.1,0.1,0.2,0.3,0.2,0.4v0.2c0,0.2,0,0.3-0.2,0.4C433,112.5,432.8,112.5,432.6,112.5z M432.1,114.2h1.1v6.9h-1.1V114.2z"/>
	<path d="M438.1,121.2c-0.4,0-0.9-0.1-1.3-0.3c-0.4-0.2-0.7-0.4-1-0.7c-0.3-0.3-0.5-0.7-0.6-1.1c-0.3-1-0.3-2,0-3
		c0.1-0.4,0.4-0.8,0.6-1.1c0.3-0.3,0.6-0.6,1-0.7c0.4-0.2,0.8-0.3,1.3-0.3c0.4,0,0.9,0.1,1.3,0.3c0.4,0.2,0.7,0.4,1,0.7
		c0.3,0.3,0.5,0.7,0.6,1.1c0.3,1,0.3,2,0,3c-0.1,0.4-0.4,0.8-0.6,1.1c-0.3,0.3-0.6,0.6-1,0.7C438.9,121.1,438.5,121.2,438.1,121.2z
		 M438.1,120.3c0.5,0,1-0.2,1.4-0.5c0.4-0.4,0.6-1,0.5-1.6v-1c0-0.6-0.2-1.2-0.5-1.6c-0.8-0.7-2-0.7-2.8,0c-0.4,0.4-0.6,1-0.5,1.6v1
		c0,0.6,0.2,1.2,0.5,1.6C437,120.1,437.6,120.3,438.1,120.3z"/>
	<path d="M443,121.1v-6.9h1.1v1.1h0.1c0.2-0.4,0.4-0.7,0.7-0.9c0.4-0.2,0.8-0.4,1.2-0.3c0.6,0,1.3,0.2,1.7,0.7
		c0.4,0.5,0.7,1.2,0.6,2v4.4h-1.1v-4.3c0-1.2-0.5-1.9-1.6-1.9c-0.2,0-0.4,0-0.6,0.1c-0.2,0-0.4,0.1-0.5,0.2
		c-0.2,0.1-0.3,0.2-0.4,0.4c-0.1,0.2-0.1,0.4-0.1,0.6v4.8L443,121.1z"/>
	<path d="M453.7,111.1h1.1v6.3h0.1l1.1-1.2l2-2.1h1.3l-2.6,2.7l2.8,4.2h-1.3l-2.3-3.5l-1,1.1v2.5h-1.1L453.7,111.1z"/>
	<path d="M463.2,121.2c-0.4,0-0.9-0.1-1.3-0.3c-0.4-0.2-0.7-0.4-1-0.7c-0.3-0.3-0.5-0.7-0.6-1.1c-0.3-1-0.3-2,0-3
		c0.1-0.4,0.3-0.8,0.6-1.1c0.3-0.3,0.6-0.6,1-0.7c0.4-0.2,0.8-0.3,1.3-0.3c0.4,0,0.9,0.1,1.2,0.3c0.4,0.2,0.7,0.4,0.9,0.7
		c0.3,0.3,0.5,0.7,0.6,1.1c0.1,0.4,0.2,0.9,0.2,1.3v0.5h-5v0.3c0,0.3,0,0.6,0.1,0.8c0.1,0.2,0.2,0.5,0.4,0.7
		c0.2,0.2,0.4,0.3,0.6,0.4c0.3,0.1,0.6,0.2,0.9,0.2c0.4,0,0.8-0.1,1.1-0.3c0.3-0.2,0.6-0.5,0.8-0.9l0.8,0.6c-0.2,0.5-0.6,0.9-1,1.2
		C464.4,121.1,463.8,121.2,463.2,121.2z M463.2,114.9c-0.3,0-0.5,0-0.8,0.2c-0.2,0.1-0.4,0.2-0.6,0.4c-0.2,0.2-0.3,0.4-0.4,0.7
		c-0.1,0.3-0.2,0.5-0.1,0.8v0.1h3.8v-0.1c0-0.5-0.2-1.1-0.5-1.5C464.2,115.1,463.7,114.9,463.2,114.9z"/>
	<path d="M472.1,114.2h1.1l-3.1,8.5c-0.1,0.2-0.1,0.4-0.2,0.5c-0.1,0.1-0.2,0.2-0.3,0.3c-0.1,0.1-0.3,0.1-0.4,0.2
		c-0.2,0-0.4,0.1-0.6,0.1h-0.5v-1h1.1l0.5-1.5l-2.6-7.2h1.1l1.7,4.7l0.3,1.1h0.1l0.4-1.1L472.1,114.2z"/>
	<path class="st21" d="M548.6,59.9v-9.4h3.7c0.7,0,1.4,0.2,1.9,0.7c0.9,1.2,0.9,2.8,0,3.9c-0.5,0.5-1.2,0.8-1.9,0.7h-2.6v4
		L548.6,59.9z M549.7,54.9h2.6c0.4,0,0.8-0.1,1-0.3c0.3-0.3,0.4-0.6,0.4-1v-0.7c0-0.4-0.1-0.7-0.4-1c-0.3-0.2-0.7-0.4-1-0.3h-2.6
		V54.9z"/>
	<path class="st21" d="M561.5,59.9c-0.3,0-0.6-0.1-0.9-0.3c-0.2-0.2-0.3-0.5-0.3-0.8h-0.1c-0.1,0.4-0.4,0.7-0.8,1
		c-0.4,0.2-0.8,0.3-1.2,0.3c-0.6,0-1.2-0.2-1.7-0.6c-0.4-0.4-0.6-1-0.6-1.5c0-0.6,0.2-1.2,0.7-1.5c0.7-0.4,1.5-0.6,2.2-0.5h1.4v-0.7
		c0-0.4-0.1-0.8-0.4-1.1c-0.3-0.3-0.8-0.4-1.2-0.4c-0.4,0-0.7,0.1-1.1,0.3c-0.3,0.2-0.5,0.5-0.7,0.8l-0.6-0.6c0.2-0.4,0.5-0.7,0.9-1
		c0.5-0.3,1-0.4,1.6-0.4c0.7,0,1.4,0.2,2,0.6c0.5,0.4,0.7,1.1,0.7,1.7V59h0.8v1L561.5,59.9z M558.4,59.2c0.2,0,0.5,0,0.7-0.1
		c0.2-0.1,0.4-0.1,0.6-0.3c0.2-0.1,0.3-0.2,0.4-0.4c0.1-0.1,0.1-0.3,0.1-0.5v-1.1h-1.4c-0.5,0-0.9,0.1-1.3,0.3
		c-0.3,0.2-0.4,0.5-0.4,0.8v0.3c0,0.3,0.1,0.6,0.4,0.8C557.7,59.1,558,59.2,558.4,59.2L558.4,59.2z"/>
	<path class="st21" d="M565.7,60.1c-0.6,0-1.1-0.1-1.6-0.4c-0.4-0.2-0.8-0.6-1.1-1l0.8-0.6c0.2,0.3,0.5,0.6,0.9,0.8
		c0.4,0.2,0.8,0.3,1.2,0.3c0.4,0,0.8-0.1,1.1-0.3c0.5-0.4,0.5-1.1,0.1-1.5c0,0,0,0,0,0c-0.3-0.2-0.6-0.4-0.9-0.4l-0.5-0.1
		c-0.3,0-0.6-0.1-0.9-0.2c-0.3-0.1-0.5-0.2-0.7-0.4c-0.2-0.2-0.4-0.4-0.5-0.6c-0.1-0.3-0.2-0.5-0.2-0.8c0-0.3,0.1-0.6,0.2-0.9
		c0.1-0.2,0.3-0.5,0.5-0.6c0.2-0.2,0.5-0.3,0.8-0.4c0.3-0.1,0.6-0.1,1-0.1c0.5,0,1,0.1,1.4,0.3c0.4,0.2,0.7,0.5,1,0.8l-0.7,0.6
		c-0.2-0.2-0.4-0.4-0.7-0.6c-0.3-0.2-0.7-0.3-1.1-0.3c-0.4,0-0.7,0.1-1,0.3c-0.2,0.2-0.4,0.5-0.3,0.8c0,0.3,0.1,0.6,0.3,0.7
		c0.3,0.2,0.6,0.3,1,0.3l0.5,0.1c0.6,0,1.2,0.3,1.6,0.7c0.3,0.3,0.5,0.8,0.5,1.3c0,0.6-0.2,1.2-0.7,1.6
		C567,59.9,566.4,60.1,565.7,60.1z"/>
	<path class="st21" d="M572.1,60.1c-0.6,0-1.1-0.1-1.6-0.4c-0.4-0.2-0.8-0.6-1.1-1l0.8-0.6c0.2,0.3,0.5,0.6,0.9,0.8
		c0.4,0.2,0.8,0.3,1.2,0.3c0.4,0,0.8-0.1,1.1-0.3c0.5-0.4,0.5-1.1,0.1-1.5c0,0,0,0,0,0c-0.3-0.2-0.6-0.4-0.9-0.4l-0.5-0.1
		c-0.3,0-0.6-0.1-0.9-0.2c-0.3-0.1-0.5-0.2-0.7-0.4c-0.2-0.2-0.4-0.4-0.5-0.6c-0.1-0.3-0.2-0.5-0.2-0.8c0-0.3,0.1-0.6,0.2-0.9
		c0.1-0.2,0.3-0.5,0.5-0.6c0.2-0.2,0.5-0.3,0.8-0.4c0.3-0.1,0.6-0.1,1-0.1c0.5,0,1,0.1,1.4,0.3c0.4,0.2,0.7,0.5,1,0.8l-0.7,0.6
		c-0.2-0.2-0.4-0.4-0.7-0.6c-0.3-0.2-0.7-0.3-1.1-0.3c-0.4,0-0.7,0.1-1,0.3c-0.2,0.2-0.4,0.5-0.3,0.8c0,0.3,0.1,0.6,0.3,0.7
		c0.3,0.2,0.6,0.3,1,0.3l0.5,0.1c0.6,0,1.2,0.3,1.6,0.7c0.3,0.3,0.5,0.8,0.5,1.3c0,0.6-0.2,1.2-0.7,1.6
		C573.5,59.9,572.8,60.1,572.1,60.1z"/>
	<path class="st21" d="M576.6,53h1.1v1.1h0.1c0.1-0.4,0.4-0.7,0.8-1c0.4-0.2,0.8-0.3,1.2-0.3c0.4,0,0.8,0.1,1.2,0.3
		c0.3,0.2,0.7,0.4,0.9,0.7c0.3,0.3,0.5,0.7,0.6,1.1c0.3,1,0.3,2,0,3c-0.1,0.4-0.3,0.8-0.6,1.1c-0.2,0.3-0.5,0.6-0.9,0.7
		c-0.4,0.2-0.8,0.3-1.2,0.3c-0.9,0-1.7-0.5-2-1.3h-0.1v3.8h-1.1V53z M579.4,59.1c0.5,0,1.1-0.2,1.4-0.6c0.4-0.4,0.5-1,0.5-1.5v-1.2
		c0-0.5-0.2-1.1-0.5-1.5c-0.4-0.4-0.9-0.6-1.4-0.6c-0.2,0-0.5,0-0.7,0.1c-0.2,0.1-0.4,0.2-0.6,0.3c-0.2,0.1-0.3,0.3-0.4,0.4
		c-0.1,0.2-0.1,0.3-0.1,0.5v2.6c0,0.2,0,0.4,0.1,0.6c0.1,0.2,0.2,0.3,0.4,0.4c0.2,0.1,0.4,0.2,0.6,0.3
		C579,59.1,579.2,59.1,579.4,59.1L579.4,59.1z"/>
	<path class="st21" d="M584.4,50h1.1v4.1h0.1c0.2-0.4,0.4-0.7,0.7-0.9c0.4-0.2,0.8-0.4,1.2-0.3c0.6,0,1.3,0.2,1.7,0.7
		c0.4,0.5,0.7,1.2,0.6,2v4.4h-1.1v-4.3c0-1.2-0.5-1.9-1.6-1.9c-0.2,0-0.4,0-0.6,0.1c-0.2,0-0.4,0.1-0.5,0.2
		c-0.2,0.1-0.3,0.2-0.4,0.4c-0.1,0.2-0.1,0.4-0.1,0.6v4.8h-1.1L584.4,50z"/>
	<path class="st21" d="M592,59.9V53h1.1v1.3h0.1c0.1-0.3,0.4-0.7,0.7-0.9c0.4-0.3,0.9-0.4,1.3-0.4h0.4v1.1h-0.6
		c-0.5,0-0.9,0.1-1.4,0.3c-0.3,0.2-0.5,0.5-0.5,0.8v4.7L592,59.9z"/>
	<path class="st21" d="M601.9,59.9c-0.3,0-0.6-0.1-0.9-0.3c-0.2-0.2-0.3-0.5-0.3-0.8h-0.1c-0.1,0.4-0.4,0.7-0.8,1
		c-0.4,0.2-0.8,0.3-1.2,0.3c-0.6,0-1.2-0.2-1.7-0.6c-0.4-0.4-0.6-1-0.6-1.5c0-0.6,0.2-1.2,0.7-1.5c0.7-0.4,1.5-0.6,2.2-0.5h1.4v-0.7
		c0-0.4-0.1-0.8-0.4-1.1c-0.3-0.3-0.8-0.4-1.2-0.4c-0.4,0-0.7,0.1-1.1,0.3c-0.3,0.2-0.5,0.5-0.7,0.8l-0.6-0.6c0.2-0.4,0.5-0.7,0.9-1
		c0.5-0.3,1-0.4,1.6-0.4c0.7,0,1.4,0.2,2,0.6c0.5,0.4,0.7,1.1,0.7,1.7V59h0.8v1H601.9z M598.8,59.2c0.2,0,0.5,0,0.7-0.1
		c0.2-0.1,0.4-0.1,0.6-0.3c0.2-0.1,0.3-0.2,0.4-0.4c0.1-0.1,0.1-0.3,0.1-0.5v-1.1h-1.4c-0.5,0-0.9,0.1-1.3,0.3
		c-0.3,0.2-0.4,0.5-0.4,0.8v0.3c0,0.3,0.1,0.6,0.4,0.8C598.1,59.1,598.4,59.2,598.8,59.2L598.8,59.2z"/>
	<path class="st21" d="M606.1,60.1c-0.6,0-1.1-0.1-1.6-0.4c-0.4-0.2-0.8-0.6-1.1-1l0.8-0.6c0.2,0.3,0.5,0.6,0.9,0.8
		c0.4,0.2,0.8,0.3,1.2,0.3c0.4,0,0.8-0.1,1.1-0.3c0.5-0.4,0.5-1.1,0.1-1.5c0,0,0,0,0,0c-0.3-0.2-0.6-0.4-0.9-0.4l-0.5-0.1
		c-0.3,0-0.6-0.1-0.9-0.2c-0.3-0.1-0.5-0.2-0.7-0.4c-0.2-0.2-0.4-0.4-0.5-0.6c-0.1-0.3-0.2-0.5-0.2-0.8c0-0.3,0.1-0.6,0.2-0.9
		c0.1-0.2,0.3-0.5,0.5-0.6c0.2-0.2,0.5-0.3,0.8-0.4c0.3-0.1,0.6-0.1,1-0.1c0.5,0,1,0.1,1.4,0.3c0.4,0.2,0.7,0.5,1,0.8l-0.7,0.6
		c-0.2-0.2-0.4-0.4-0.7-0.6c-0.3-0.2-0.7-0.3-1.1-0.3c-0.4,0-0.7,0.1-1,0.3c-0.2,0.2-0.4,0.5-0.3,0.8c0,0.3,0.1,0.6,0.3,0.7
		c0.3,0.2,0.6,0.3,1,0.3l0.5,0.1c0.6,0,1.2,0.3,1.6,0.7c0.3,0.3,0.5,0.8,0.5,1.3c0,0.6-0.2,1.2-0.7,1.6
		C607.4,59.9,606.8,60.1,606.1,60.1z"/>
	<path class="st21" d="M613.1,60.1c-0.4,0-0.9-0.1-1.3-0.3c-0.4-0.2-0.7-0.4-1-0.7c-0.3-0.3-0.5-0.7-0.6-1.1c-0.3-1-0.3-2,0-3
		c0.1-0.4,0.3-0.8,0.6-1.1c0.3-0.3,0.6-0.6,1-0.7c0.4-0.2,0.8-0.3,1.3-0.3c0.4,0,0.9,0.1,1.2,0.3c0.4,0.2,0.7,0.4,0.9,0.7
		c0.3,0.3,0.5,0.7,0.6,1.1c0.1,0.4,0.2,0.9,0.2,1.3v0.5h-5V57c0,0.3,0,0.6,0.1,0.8c0.1,0.2,0.2,0.5,0.4,0.7c0.2,0.2,0.4,0.3,0.6,0.4
		c0.3,0.1,0.6,0.2,0.9,0.2c0.4,0,0.8-0.1,1.1-0.3c0.3-0.2,0.6-0.5,0.8-0.9l0.8,0.6c-0.2,0.5-0.6,0.9-1,1.2
		C614.3,59.9,613.7,60.1,613.1,60.1z M613.1,53.7c-0.3,0-0.5,0-0.8,0.2c-0.2,0.1-0.4,0.2-0.6,0.4c-0.2,0.2-0.3,0.4-0.4,0.7
		c-0.1,0.3-0.2,0.5-0.1,0.8v0.1h3.8v-0.1c0-0.5-0.2-1.1-0.5-1.5C614.1,53.9,613.6,53.7,613.1,53.7z"/>
</g>
</svg>
