<?xml version="1.0" encoding="utf-8"?>
<!-- Generator: Adobe Illustrator 26.0.1, SVG Export Plug-In . SVG Version: 6.00 Build 0)  -->
<svg version="1.1" xmlns="http://www.w3.org/2000/svg" xmlns:xlink="http://www.w3.org/1999/xlink" x="0px" y="0px"
	 viewBox="0 0 1001.6 399.6" style="enable-background:new 0 0 1001.6 399.6;" xml:space="preserve">
<style type="text/css">
	.st0{display:none;}
	.st1{display:inline;}
	.st2{clip-path:url(#SVGID_00000029006972483050140400000017654895243436170142_);}
	.st3{opacity:0.4;clip-path:url(#SVGID_00000067206200884086433160000001761725526557484721_);fill:#A3A4A3;}
	.st4{clip-path:url(#SVGID_00000163069048910157277420000014202661442481774515_);}
	.st5{opacity:0.4;clip-path:url(#SVGID_00000073001031594710590470000001896373970822602881_);fill:#A3A4A3;}
	.st6{opacity:0.1413;clip-path:url(#SVGID_00000038404616551926002730000004841909345244626621_);enable-background:new    ;}
	.st7{clip-path:url(#SVGID_00000152224831246303924470000012417156924847998123_);}
	.st8{clip-path:url(#SVGID_00000045598500805374268630000010921762817159563649_);}
	.st9{clip-path:url(#SVGID_00000002368309850965264970000009742812513000212877_);}
	.st10{opacity:0.4;clip-path:url(#SVGID_00000055703726694467424280000009879766601144552586_);fill:#A3A4A3;}
	.st11{clip-path:url(#SVGID_00000116946129375987697450000015694153045680401064_);}
	.st12{opacity:0.4;clip-path:url(#SVGID_00000002377747864496912930000010865041480022627775_);fill:#A3A4A3;}
	.st13{opacity:0.1413;clip-path:url(#SVGID_00000139294529157944212140000000978620634786137246_);enable-background:new    ;}
	.st14{clip-path:url(#SVGID_00000116927478117550932270000000741307741697382559_);}
	.st15{clip-path:url(#SVGID_00000003789030919931447430000008703861678425486245_);}
	.st16{clip-path:url(#SVGID_00000182525039988317181980000011445897611664988326_);}
	.st17{opacity:0.4;clip-path:url(#SVGID_00000022545893095988195490000018322512733456124582_);fill:#A3A4A3;}
	.st18{clip-path:url(#SVGID_00000052811305509756532940000005573424844930226870_);}
	.st19{opacity:0.4;clip-path:url(#SVGID_00000013880786853499371130000001692990080623228605_);fill:#A3A4A3;}
	.st20{opacity:0.1413;clip-path:url(#SVGID_00000080896098627623067400000018129512056037893251_);enable-background:new    ;}
	.st21{clip-path:url(#SVGID_00000099655269722775414280000005297483548524034746_);}
	.st22{clip-path:url(#SVGID_00000166665950745619845760000006990107029890319771_);}
	.st23{fill:none;stroke:#6F6F6F;stroke-width:0.75;stroke-miterlimit:10;}
	.st24{fill:#FFFFFF;stroke:#000000;stroke-width:0.75;stroke-linecap:round;stroke-miterlimit:10;}
	.st25{fill:none;stroke:#000000;stroke-width:0.8299;stroke-miterlimit:10;}
	.st26{fill:none;stroke:#000000;stroke-width:0.8299;stroke-miterlimit:10;stroke-dasharray:7.5514,7.5514;}
	.st27{fill:none;stroke:#000000;stroke-width:0.8299;stroke-miterlimit:10;stroke-dasharray:7.7054,7.7054;}
	.st28{fill:none;stroke:#000000;stroke-width:0.8299;stroke-miterlimit:10;stroke-dasharray:7.5524,7.5524;}
	.st29{fill:none;stroke:#FFFFFF;stroke-width:1.0318;stroke-linecap:round;stroke-miterlimit:10;}
	.st30{stroke:#FFFFFF;stroke-width:1.0318;stroke-miterlimit:10;}
	.st31{font-family:'IBMPlexSans-SemiBold';}
	.st32{font-size:14px;}
	.st33{font-family:'IBMPlexSans';}
	.st34{font-size:10px;}
	.st35{fill:#0F62FE;}
	.st36{font-size:12px;}
	.st37{fill:#6F6F6F;}
	.st38{fill:#FFFFFF;stroke:#000000;stroke-width:0.4879;stroke-linecap:round;stroke-linejoin:round;stroke-miterlimit:10;}
	.st39{fill:#002D9C;}
	.st40{fill:#FFFFFF;stroke:#FFFFFF;stroke-width:0.15;stroke-miterlimit:10;}
	.st41{fill:#0F62FE;stroke:#0F62FE;stroke-miterlimit:10;}
	.st42{fill:#FFFFFF;}
	.st43{font-family:'IBMPlexSans-Medium';}
	.st44{font-size:16px;}
	.st45{fill:#0F62FE;stroke:#0F62FE;stroke-width:0.5332;stroke-miterlimit:10;}
	.st46{fill:#FFFFFF;stroke:#0F62FE;stroke-width:0.5332;stroke-miterlimit:10;}
	.st47{fill:none;stroke:#6F6F6F;stroke-width:0.75;stroke-linejoin:round;}
	.st48{fill:none;stroke:#000000;stroke-width:0.75;stroke-linecap:round;stroke-miterlimit:10;}
	.st49{fill:none;stroke:#000000;stroke-width:0.6673;stroke-linecap:round;stroke-miterlimit:10;}
	.st50{fill:#A8A8A8;}
	.st51{fill:#C6C6C6;}
	.st52{fill:#FFFFFF;stroke:#0F62FE;stroke-miterlimit:10;}
	.st53{fill:#EDF5FF;stroke:#000000;stroke-width:0.4171;stroke-miterlimit:10;}
	.st54{fill:#FFFFFF;stroke:#000000;stroke-width:0.2961;stroke-miterlimit:10;}
	.st55{opacity:0.5;fill:#E0E0E0;}
	.st56{opacity:0.5;fill:#198038;}
	.st57{font-size:11.714px;}
	.st58{fill:#525252;}
	.st59{font-size:4.2951px;}
	.st60{opacity:0.5;fill:#FB4B53;}
	.st61{opacity:0.5;fill:#FDD13A;}
	.st62{opacity:0.5;fill:#A8A8A8;}
	.st63{fill:#E0E0E0;}
	.st64{opacity:0.5;fill:#6C0911;}
	.st65{opacity:0.5;fill:#FF7200;}
	.st66{font-size:11.3994px;}
	.st67{font-size:4.1798px;}
	.st68{fill-rule:evenodd;clip-rule:evenodd;fill:#001D6C;}
	.st69{fill:none;stroke:#6F6F6F;stroke-width:0.75;stroke-linejoin:round;stroke-miterlimit:10;}
</style>
<g id="grid" class="st0">
	<g class="st1">
		<defs>
			<rect id="SVGID_1_" x="-61.1" y="-75.3" width="16" height="882"/>
		</defs>
		<clipPath id="SVGID_00000094602810411266105740000002535485889122614940_">
			<use xlink:href="#SVGID_1_"  style="overflow:visible;"/>
		</clipPath>
		<g style="clip-path:url(#SVGID_00000094602810411266105740000002535485889122614940_);">
			<defs>
				<rect id="SVGID_00000034060346024526255410000015525014362816001951_" x="-61.1" y="-75.3" width="1056" height="882"/>
			</defs>
			<clipPath id="SVGID_00000031924181491760618400000005224273094511314365_">
				<use xlink:href="#SVGID_00000034060346024526255410000015525014362816001951_"  style="overflow:visible;"/>
			</clipPath>
		</g>
	</g>
	<g class="st1">
		<defs>
			<rect id="SVGID_00000072998587335715317300000003974783601361202336_" x="978.9" y="-75.3" width="16" height="882"/>
		</defs>
		<clipPath id="SVGID_00000085241610017667163130000003608674305004105632_">
			<use xlink:href="#SVGID_00000072998587335715317300000003974783601361202336_"  style="overflow:visible;"/>
		</clipPath>
		<g style="clip-path:url(#SVGID_00000085241610017667163130000003608674305004105632_);">
			<defs>
				<rect id="SVGID_00000096750906956354144430000010726165636056466314_" x="-61.1" y="-75.3" width="1056" height="882"/>
			</defs>
			<clipPath id="SVGID_00000179605225595705794010000009623108048332007091_">
				<use xlink:href="#SVGID_00000096750906956354144430000010726165636056466314_"  style="overflow:visible;"/>
			</clipPath>
			
				<rect x="973.9" y="-80.3" style="opacity:0.4;clip-path:url(#SVGID_00000179605225595705794010000009623108048332007091_);fill:#A3A4A3;" width="26" height="892"/>
		</g>
	</g>
	<g class="st1">
		<defs>
			<rect id="SVGID_00000028283631655146011060000000559661880539680447_" x="-61.1" y="-75.3" width="1056" height="882"/>
		</defs>
		<clipPath id="SVGID_00000078753883507706347990000000640725414821838240_">
			<use xlink:href="#SVGID_00000028283631655146011060000000559661880539680447_"  style="overflow:visible;"/>
		</clipPath>
		
			<g style="opacity:0.1413;clip-path:url(#SVGID_00000078753883507706347990000000640725414821838240_);enable-background:new    ;">
			<g>
				<defs>
					<rect id="SVGID_00000025422582268656123770000015219862477822022531_" x="-61.1" y="-75.3" width="1056" height="882"/>
				</defs>
				<clipPath id="SVGID_00000101783470952413017390000000817961465191890824_">
					<use xlink:href="#SVGID_00000025422582268656123770000015219862477822022531_"  style="overflow:visible;"/>
				</clipPath>
				<g style="clip-path:url(#SVGID_00000101783470952413017390000000817961465191890824_);">
					<defs>
						<rect id="SVGID_00000048478987623839280860000017274751352709050796_" x="-61.1" y="-75.3" width="1056" height="882"/>
					</defs>
					<clipPath id="SVGID_00000121960022348284944370000013177332211426467989_">
						<use xlink:href="#SVGID_00000048478987623839280860000017274751352709050796_"  style="overflow:visible;"/>
					</clipPath>
					<g style="clip-path:url(#SVGID_00000121960022348284944370000013177332211426467989_);">
						<defs>
							<rect id="SVGID_00000030479434663896944200000015068813540929137330_" x="-61.1" y="-75.3" width="1056" height="882"/>
						</defs>
						<clipPath id="SVGID_00000104666916149732287750000014393467083642910393_">
							<use xlink:href="#SVGID_00000030479434663896944200000015068813540929137330_"  style="overflow:visible;"/>
						</clipPath>
						<g style="clip-path:url(#SVGID_00000104666916149732287750000014393467083642910393_);">
							
								<image style="overflow:visible;" width="1056" height="882" xlink:href="790EFAC0025CBA1E.png"  transform="matrix(1 0 0 1 -61.0892 -75.3045)">
							</image>
						</g>
					</g>
				</g>
			</g>
		</g>
	</g>
</g>
<g id="Graphics">
	<g id="Legend">
	</g>
</g>
<g id="Text">
	<line class="st23" x1="315.7" y1="100.9" x2="58.2" y2="100.9"/>
	<rect x="358.7" y="60.7" class="st24" width="381.1" height="179.5"/>
	<g>
		<g>
			<polyline class="st25" points="984.5,20.5 984.5,16.7 980.7,16.7 			"/>
			<line class="st26" x1="973.1" y1="16.7" x2="342.6" y2="16.7"/>
			<polyline class="st25" points="338.8,16.7 335,16.7 335,20.5 			"/>
			<line class="st27" x1="335" y1="28.2" x2="334.9" y2="332.5"/>
			<polyline class="st25" points="334.9,336.4 334.9,340.2 338.7,340.2 			"/>
			<line class="st28" x1="346.3" y1="340.2" x2="976.9" y2="340.2"/>
			<polyline class="st25" points="980.7,340.2 984.5,340.2 984.5,336.4 			"/>
			<line class="st27" x1="984.5" y1="328.7" x2="984.5" y2="24.3"/>
		</g>
	</g>
	<rect x="375.3" y="111.5" class="st24" width="183.7" height="141.2"/>
	<g>
		<circle cx="37" cy="89.7" r="24.8"/>
		<path class="st29" d="M44.1,81.3c0,3.7-3,6.7-6.7,6.7c-3.7,0-6.7-3-6.7-6.7s3-6.7,6.7-6.7C41.2,74.6,44.1,77.6,44.1,81.3"/>
		<path class="st29" d="M24.5,104.4c1.2-6.1,6.6-10.7,13.1-10.7c6.4,0,11.8,4.5,13,10.6"/>
		<circle class="st29" cx="37.6" cy="89.7" r="19.7"/>
		<path class="st30" d="M25.3,105.7c-0.7,0.5-1.6,0.3-2.1-0.4c-0.5-0.7-0.3-1.6,0.4-2.1c0.7-0.5,1.6-0.3,2.1,0.4
			C26.2,104.3,26,105.2,25.3,105.7z"/>
	</g>
	<text transform="matrix(1 0 0 1 345.0823 41.2739)" class="st31 st32">Security and Compliance Center</text>
	<text transform="matrix(1 0 0 1 24.8656 131.7629)" class="st33 st34">Focal</text>
	<text transform="matrix(1 0 0 1 122.1479 57.1847)"><tspan x="0" y="0" class="st35 st33 st36">Configure your data settings and</tspan><tspan x="0" y="14.4" class="st35 st33 st36">create a scan</tspan></text>
	<g>
		<g>
			<path class="st23" d="M427.5,168.7h-34.6c-2.3,0-4.2-2.6-4.2-5.8v-22.3"/>
			<g>
				<path class="st37" d="M391.6,140.7c0-1.6-1.3-2.8-2.8-2.8c-1.6,0-2.8,1.3-2.8,2.8c0,1.6,1.3,2.8,2.8,2.8
					C390.3,143.5,391.6,142.3,391.6,140.7z"/>
			</g>
		</g>
	</g>
	<path class="st23" d="M485.9,225h-57.3c-3.8,0-6.9-2.7-6.9-6.1l0.1-38.8"/>
	<path class="st38" d="M409.2,152.6h96.7c1,0,1.9,0.8,1.9,1.9l0,29c0,1-0.8,1.9-1.9,1.9h-96.7c-1,0-1.9-0.8-1.9-1.9v-29
		C407.3,153.4,408.2,152.6,409.2,152.6z"/>
	<g>
		<circle class="st39" cx="407.4" cy="168.7" r="11"/>
		<g>
			<polygon class="st40" points="406.7,169.3 405.8,168.4 405.3,168.9 406.7,170.3 409.5,167.5 409,167 			"/>
			<path class="st40" d="M407.4,173.7l-2.2-1.2c-1.3-0.7-2.1-2-2.1-3.5v-4.6c0-0.4,0.3-0.7,0.7-0.7h7.1c0.4,0,0.7,0.3,0.7,0.7v4.6
				c0,1.5-0.8,2.8-2.1,3.5L407.4,173.7z M403.8,164.4v4.6c0,1.2,0.7,2.3,1.7,2.8l1.9,1l1.9-1c1-0.6,1.7-1.6,1.7-2.8v-4.6H403.8z"/>
		</g>
	</g>
	<text transform="matrix(1 0 0 1 382.7152 129.8268)" class="st31 st36">Defined scope</text>
	<text transform="matrix(1 0 0 1 433.821 171.684)" class="st33 st34">IBM Cloud</text>
	<path class="st38" d="M542.3,207.5h-96.7c-1,0-1.9,0.8-1.9,1.9l0,29c0,1,0.8,1.9,1.9,1.9h96.7c1,0,1.9-0.8,1.9-1.9v-29
		C544.1,208.4,543.3,207.5,542.3,207.5z"/>
	<g>
		<circle class="st39" cx="445.4" cy="223.9" r="11"/>
		<g>
			<polygon class="st40" points="444.7,224.6 443.7,223.6 443.2,224.1 444.7,225.6 447.5,222.7 447,222.2 			"/>
			<path class="st40" d="M445.4,228.9l-2.2-1.2c-1.3-0.7-2.1-2-2.1-3.5v-4.6c0-0.4,0.3-0.7,0.7-0.7h7.1c0.4,0,0.7,0.3,0.7,0.7v4.6
				c0,1.5-0.8,2.8-2.1,3.5L445.4,228.9z M441.8,219.6v4.6c0,1.2,0.7,2.3,1.7,2.8l1.9,1l1.9-1c1-0.6,1.7-1.6,1.7-2.8v-4.6H441.8z"/>
		</g>
	</g>
	<text transform="matrix(1 0 0 1 476.8658 226.9026)" class="st33 st34">Account</text>
	<g>
		
			<ellipse transform="matrix(0.2298 -0.9732 0.9732 0.2298 13.9556 140.4991)" class="st41" cx="95.7" cy="61.4" rx="14.7" ry="14.7"/>
	</g>
	<text transform="matrix(1 0 0 1 90.9425 66.1608)" class="st42 st43 st44">2</text>
	<text transform="matrix(1 0 0 1 784.2923 368.474)" class="st35 st33 st36">View or download results</text>
	<g>
		<circle class="st41" cx="762.5" cy="364.8" r="14.7"/>
	</g>
	<text transform="matrix(1 0 0 1 757.702 369.5781)" class="st42 st43 st44">7</text>
	<g>
		
			<ellipse transform="matrix(0.2298 -0.9732 0.9732 0.2298 -316.9177 299.8991)" class="st45" cx="31" cy="350.2" rx="7.8" ry="7.8"/>
	</g>
	<g>
		
			<ellipse transform="matrix(0.7071 -0.7071 0.7071 0.7071 -255.6536 131.5854)" class="st46" cx="31" cy="374.4" rx="7.8" ry="7.8"/>
	</g>
	<text transform="matrix(1 0 0 1 46.6161 353.1909)" class="st33 st34">User action</text>
	<text transform="matrix(1 0 0 1 46.6161 377.4138)" class="st33 st34">System action</text>
	<g>
		<rect x="269" y="256.1" class="st42" width="96.3" height="99.1"/>
		<path d="M365,256.5v98.4h-95.6v-98.4H365 M365.7,255.7h-97.1v99.9h97.1V255.7L365.7,255.7z"/>
	</g>
	<text transform="matrix(1 0 0 1 99.7811 127.131)" class="st35 st33 st36">Create a collector</text>
	<g>
		
			<ellipse transform="matrix(0.1602 -0.9871 0.9871 0.1602 -54.3394 182.5388)" class="st41" cx="80.1" cy="123.2" rx="14.7" ry="14.7"/>
	</g>
	<text transform="matrix(1 0 0 1 75.3045 127.9317)" class="st42 st43 st44">1</text>
	<g>
		<g>
			<path class="st24" d="M129,258.7c0,3.4-9.6,6.2-21.5,6.2s-21.5-2.8-21.5-6.2c0-3.4,9.6-6.2,21.5-6.2S129,255.3,129,258.7z"/>
			<path class="st24" d="M128.6,275.9c-2-2.8-10.7-4.9-21.1-4.9c-11.9,0-21.5,2.8-21.5,6.2c0,3.4,9.6,6.2,21.5,6.2
				s21.5-2.8,21.5-6.2C129,276.8,128.8,276.3,128.6,275.9z"/>
			<line class="st48" x1="85.9" y1="277.2" x2="85.9" y2="258.7"/>
			<line class="st48" x1="129" y1="277.2" x2="129" y2="258.7"/>
		</g>
		<text transform="matrix(1 0 0 1 86.9632 227.3844)"><tspan x="0" y="0" class="st31 st36">Your IT</tspan><tspan x="-6.9" y="14.4" class="st31 st36">resources</tspan></text>
		<rect x="59.9" y="204.7" class="st49" width="95" height="88.4"/>
	</g>
	<path class="st50" d="M334.8,311.7h-12.3v-12.3h12.3V311.7z M325.6,308.7h6.1v-6.1h-6.1V308.7z"/>
	<path class="st51" d="M319.5,316.9v-9.2h-12.3v21.5h21.5v-12.3H319.5z M310.2,310.8h6.1v6.1h-6.1V310.8z M316.4,326.2h-6.1V320h6.1
		V326.2z M325.6,326.2h-6.1V320h6.1V326.2z"/>
	<path class="st50" d="M333.3,336.9h-30.7c-1.7,0-3.1-1.4-3.1-3.1v-30.7c0-1.7,1.4-3.1,3.1-3.1h15.4v3.1h-15.4v30.7h30.7v-15.4h3.1
		v15.4C336.4,335.5,335,336.9,333.3,336.9z"/>
	<g>
		<circle class="st52" cx="185.3" cy="245.3" r="14.7"/>
	</g>
	<text transform="matrix(1 0 0 1 180.4787 250.0321)" class="st35 st43 st44">4</text>
	<text transform="matrix(1 0 0 1 203.9603 250.413)" class="st35 st33 st36">Run scans</text>
	<g>
		<circle class="st52" cx="386.2" cy="318.5" r="14.7"/>
	</g>
	<text transform="matrix(1 0 0 1 381.4049 323.1993)" class="st35 st43 st44">5</text>
	<text transform="matrix(1 0 0 1 407.6049 322.0949)" class="st35 st33 st36">Send results</text>
	<g>
		
			<ellipse transform="matrix(0.1602 -0.9871 0.9871 0.1602 86.0353 647.3942)" class="st52" cx="423.5" cy="273.1" rx="14.7" ry="14.7"/>
	</g>
	<text transform="matrix(1 0 0 1 418.678 277.8642)" class="st35 st43 st44">3</text>
	<text transform="matrix(1 0 0 1 444.8782 276.7601)" class="st35 st33 st36">Initiate scan</text>
	<g>
		<g>
			<path class="st42" d="M855.4,396.4c1.9,0,1.9-3,0-3C853.5,393.4,853.5,396.4,855.4,396.4L855.4,396.4z"/>
		</g>
	</g>
	<g>
		<g>
			<path class="st42" d="M851.4,396.4c1.9,0,1.9-3,0-3C849.5,393.4,849.5,396.4,851.4,396.4L851.4,396.4z"/>
		</g>
	</g>
	<g>
		<g>
			<path class="st42" d="M852.9,395.3c0-0.2,0.1-0.3,0.1-0.5c0-0.2,0-0.4-0.1-0.5c0-0.1,0-0.1,0-0.1c0-0.1-0.1-0.2-0.1-0.2
				c0-0.1-0.1-0.2-0.1-0.2c-0.1-0.1-0.2-0.2-0.2-0.3c-0.1-0.1-0.3-0.2-0.5-0.3c-0.1-0.1-0.2-0.1-0.4-0.1c-0.2,0-0.4,0-0.6,0
				c-0.1,0.1-0.2,0.1-0.4,0.2c-0.1,0.1-0.2,0.2-0.3,0.2c-0.1,0.1-0.2,0.3-0.3,0.5c-0.1,0.2-0.1,0.4-0.1,0.6c0,0.5,0.1,1,0.2,1.5
				c1-0.1,2-0.3,2.9-0.4c0-0.1-0.1-0.2-0.1-0.3c0,0.1,0,0.3,0.1,0.4c0-0.1,0-0.2,0-0.3c0-0.2,0-0.4-0.1-0.6
				c-0.1-0.2-0.2-0.3-0.3-0.5c-0.1-0.1-0.3-0.2-0.5-0.3c-0.2-0.1-0.4-0.1-0.6-0.1c-0.1,0-0.3,0-0.4,0.1c-0.3,0.1-0.5,0.2-0.7,0.4
				c-0.1,0.1-0.2,0.2-0.2,0.3c-0.1,0.2-0.2,0.5-0.2,0.8c0,0.2,0,0.5,0.1,0.7c0,0.1,0,0.2,0.1,0.3c0,0.2,0.1,0.4,0.3,0.5
				c0.1,0.2,0.2,0.3,0.4,0.4c0.1,0.1,0.2,0.1,0.4,0.2c0.2,0.1,0.4,0.1,0.6,0c0.1,0,0.3,0,0.4-0.1c0.2-0.1,0.3-0.2,0.5-0.3
				c0.1-0.1,0.2-0.2,0.2-0.3c0.1-0.2,0.2-0.5,0.2-0.8c0-0.5-0.1-1-0.2-1.5c-0.9,0.3-1.9,0.5-2.8,0.8c0,0,0,0,0,0.1
				c-0.1-0.1-0.1-0.2-0.2-0.4c0,0.1,0,0.1,0.1,0.2c0-0.1,0-0.3-0.1-0.4c0,0.1,0,0.2,0,0.2c0-0.1,0-0.3,0.1-0.4c0,0,0,0,0,0
				c-0.1,0.2-0.1,0.4,0,0.6c0,0.2,0.1,0.4,0.2,0.6c0.1,0.2,0.2,0.3,0.4,0.4c0.1,0.1,0.3,0.2,0.5,0.3c0.1,0,0.3,0,0.4,0.1
				c0.3,0,0.5-0.1,0.8-0.2c0.1-0.1,0.2-0.2,0.3-0.2C852.7,395.8,852.8,395.5,852.9,395.3L852.9,395.3z"/>
		</g>
	</g>
	<rect x="567.9" y="111.5" class="st24" width="183.4" height="141.2"/>
	<polygon class="st53" points="723.2,140.4 590.7,140.4 590.7,240.2 723.2,240.2 	"/>
	<polygon class="st54" points="711.5,164.2 602.4,164.2 602.4,195.5 711.5,195.5 	"/>
	<text transform="matrix(1 0 0 1 644.5754 183.6931)" class="st33 st36">Goal</text>
	<text transform="matrix(1 0 0 1 596.7776 157.0588)" class="st33 st36">Control</text>
	<text transform="matrix(1 0 0 1 573.4482 129.8273)" class="st31 st36">Profile</text>
	<g>
		<path d="M381.5,93.7c-3.4,0-6.2-2.8-6.2-6.2s2.8-6.2,6.2-6.2s6.2,2.8,6.2,6.2S384.9,93.7,381.5,93.7z M381.5,82.9
			c-2.6,0-4.6,2.1-4.6,4.6s2.1,4.6,4.6,4.6c2.6,0,4.6-2.1,4.6-4.6S384,82.9,381.5,82.9z"/>
		<polygon points="382.7,89.8 380.7,87.8 380.7,84.4 382.2,84.4 382.2,87.2 383.8,88.8 		"/>
		<path d="M386.9,75.2c0-0.9-0.7-1.5-1.5-1.5h-3.1v-1.5h-1.5v1.5h-6.2v-1.5H373v1.5h-3.1c-0.9,0-1.5,0.7-1.5,1.5v15.4
			c0,0.9,0.7,1.5,1.5,1.5h3.1v-1.5h-3.1V75.2h3.1v1.5h1.5v-1.5h6.2v1.5h1.5v-1.5h3.1v4.6h1.5V75.2z"/>
	</g>
	<text transform="matrix(1 0 0 1 393.5603 88.2546)" class="st31 st36">Scheduled scan</text>
	<text transform="matrix(1 0 0 1 292.0388 289.6126)" class="st31 st36">Collector</text>
	<rect x="776.2" y="111.5" class="st24" width="183.4" height="141.2"/>
	<path class="st55" d="M869.6,206.5c16.5,0,30.3,12.4,32,28.8h5.6c-0.7-9-4.6-17.5-11-23.9c-14.8-14.8-38.8-14.8-53.6,0
		c-6.4,6.4-10.3,14.9-11,23.9h5.8C839.2,219,853.1,206.5,869.6,206.5z"/>
	<path class="st56" d="M893.8,217.6l4.8-3.6c-0.7-0.9-1.5-1.7-2.3-2.5c-14.8-14.8-38.8-14.8-53.6,0c-6.4,6.4-10.3,14.9-11,23.9h5.8
		c1.9-17.7,17.7-30.5,35.4-28.7C881,207.6,888.5,211.4,893.8,217.6z"/>
	<text transform="matrix(1 0 0 1 858.827 228.5403)" class="st33 st57">812</text>
	<text transform="matrix(1 0 0 1 864.8134 240.2429)" class="st58 st33 st59">Score</text>
	<path class="st60" d="M844.2,155.3c-7.3-13.2-23.9-17.9-37.1-10.6c-13.2,7.3-17.9,23.9-10.6,37.1c3.2,5.8,8.5,10.3,14.8,12.5l2-5.7
		c-11.1-3.9-16.9-16.1-13-27.1c3.9-11.1,16.1-16.9,27.1-13c4.9,1.7,9,5.2,11.5,9.7l5.1-2.8l0,0L844.2,155.3z"/>
	<path class="st61" d="M820.4,189.7c-2.4,0-4.8-0.4-7.1-1.2l-2,5.7c10.9,3.8,23,0.4,30.2-8.5l-4.7-3.8
		C832.9,186.8,826.8,189.7,820.4,189.7z"/>
	<path class="st62" d="M840.9,174.2c-0.8,2.8-2.1,5.4-4,7.6l4.7,3.8c2.3-2.9,4.1-6.2,5.1-9.8L840.9,174.2z"/>
	<path class="st56" d="M844.3,155.3l-5.2,2.9c2.7,4.9,3.4,10.7,1.9,16.1l5.8,1.6C848.6,169,847.7,161.6,844.3,155.3z"/>
	<rect x="909.9" y="139.6" class="st63" width="0.6" height="54.7"/>
	<rect x="910.4" y="147.4" class="st64" width="14.8" height="5.9"/>
	<rect x="910.4" y="159" class="st60" width="33.4" height="5.9"/>
	<rect x="910.4" y="170.5" class="st65" width="7" height="5.9"/>
	<rect x="910.4" y="182.1" class="st61" width="20.5" height="5.9"/>
	<text transform="matrix(1 0 0 1 812.7088 169.1511)" class="st33 st66">74</text>
	<text transform="matrix(1 0 0 1 892.1586 151.7239)" class="st58 st33 st67">Critical</text>
	<text transform="matrix(1 0 0 1 896.7338 163.3118)" class="st58 st33 st67">High</text>
	<text transform="matrix(1 0 0 1 890.1362 174.9016)" class="st58 st33 st67">Medium</text>
	<text transform="matrix(1 0 0 1 897.7338 186.491)" class="st58 st33 st67">L</text>
	<text transform="matrix(1 0 0 1 899.7856 186.491)" class="st58 st33 st67">o</text>
	<text transform="matrix(1 0 0 1 902.1059 186.491)" class="st58 st33 st67">w</text>
	<text transform="matrix(1 0 0 1 811.3299 174.2355)" class="st58 st33 st67">Controls</text>
	<text transform="matrix(1 0 0 1 782.6821 129.8272)" class="st31 st36">Results dashboard</text>
	<rect x="567.8" y="69.9" class="st24" width="183.7" height="34.5"/>
	<text transform="matrix(1 0 0 1 609.6336 91.4045)" class="st31 st36">Credentials</text>
	<rect x="776.1" y="69.9" class="st24" width="183.7" height="34.5"/>
	<text transform="matrix(1 0 0 1 818.6365 91.4045)" class="st31 st36">Data settings</text>
	<path d="M810.6,79.7h-4.3c-0.5-2.3-2.7-3.7-4.9-3.3c-1.6,0.3-2.9,1.6-3.3,3.3h-10.9v1.7h10.9c0.5,2.3,2.7,3.7,4.9,3.3
		c1.6-0.3,2.9-1.6,3.3-3.3h4.3V79.7z M802.3,83c-1.4,0-2.5-1.1-2.5-2.5c0-1.4,1.1-2.5,2.5-2.5c1.4,0,2.5,1.1,2.5,2.5
		C804.8,81.9,803.7,83,802.3,83z"/>
	<path d="M787.3,94.7h4.3c0.5,2.3,2.7,3.7,4.9,3.3c1.6-0.3,2.9-1.6,3.3-3.3h10.9V93h-10.9c-0.5-2.3-2.7-3.7-4.9-3.3
		c-1.6,0.3-2.9,1.6-3.3,3.3h-4.3V94.7z M793.1,93.8c0-1.4,1.1-2.5,2.5-2.5c1.4,0,2.5,1.1,2.5,2.5c0,1.4-1.1,2.5-2.5,2.5
		C794.3,96.3,793.1,95.2,793.1,93.8z"/>
	<g>
		<path class="st68" d="M592.9,83.2c0.2,0.1,0.4,0.3,0.5,0.4c-0.4,0.2-0.7,0.5-1,0.8c-0.1-0.1-0.1-0.1-0.2-0.2
			c-1.3-0.9-3-0.6-3.8,0.5c-0.8,1.2-0.3,2.8,1,3.7c0.7,0.5,1.6,0.6,2.3,0.5c0.2,0.4,0.5,0.8,0.9,1.2c-1,0.3-2.1,0.3-3.2-0.2
			l-3.4,5.2l1.5,1l-1.8,2.7l-1.5-1l-0.4,0.6l-1.3-0.9l5.6-8.5c-1.5-1.4-1.9-3.5-0.9-5C588.4,82.2,591,81.9,592.9,83.2L592.9,83.2z
			 M595.6,83.3c0.7-0.1,1.4,0,2,0.2c0.2-0.7,0.3-1.4,0.2-2.1c-0.3-2.7-2.7-4.7-5.4-4.5c-1.1,0.1-2.1,0.6-2.9,1.3
			c-0.3-0.2-0.6-0.4-1-0.5c1-1,2.3-1.7,3.8-1.9c3.3-0.3,6.2,2.1,6.5,5.4c0.1,0.9,0,1.8-0.3,2.6c0.9,0.6,1.6,1.5,1.7,2.6
			c0.2,1.8-1.1,3.5-3,4.1l0.8,6.2l1.8-0.2l0.4,3.2l-1.8,0.2l0.1,0.7l-1.5,0.2l-1.3-10.1c-2-0.1-3.7-1.4-4-3.2
			C591.6,85.5,593.2,83.6,595.6,83.3L595.6,83.3z M595.7,84.5c0.4-0.1,0.9,0,1.3,0.1c-0.5,0.7-1.2,1.3-2,1.7c0-0.3-0.1-0.7-0.3-1
			c-0.2,0.1-0.4,0.3-0.6,0.5c-0.2,0.3-0.4,0.6-0.5,0.9l0,0l0,0l0,0l0,0l0,0l0,0l0,0l0,0l0,0l0,0l0,0v0l0,0l0,0v0l0,0l0,0l0,0l0,0
			l0,0v0l0,0l0,0c0,0,0,0,0,0.1l0,0l0,0v0l0,0l0,0l0,0l0,0l0,0l0,0v0v0l0,0v0v0v0l0,0l0,0v0v0v0l0,0l0,0l0,0l0,0l0,0v0l0,0l0,0l0,0
			l0,0v0l0,0c0,0,0,0,0,0l0,0l0,0v0l0,0l0,0l0,0l0,0l0,0l0,0v0l0,0l0,0l0,0l0,0l0,0l0,0l0,0l0,0h0l0,0l0,0l0,0l0,0l0,0l0,0l0,0l0,0
			l0,0l0,0l0,0l0,0c0,0,0,0,0,0.1l0,0l0,0l0,0l0,0l0,0l0,0c0.1,0.4,0.4,0.7,0.8,1c0.2-0.4,0.4-0.7,0.5-1.1c1.3-0.4,2.3-1.3,3-2.4
			c0.5,0.4,0.8,0.9,0.9,1.6c0.2,1.4-0.9,2.7-2.5,2.9c-1.6,0.2-3-0.7-3.2-2.1C593.1,86,594.2,84.7,595.7,84.5L595.7,84.5z
			 M591.2,81.3c0.1,0.3,0.1,0.5,0.1,0.8c-0.4-0.1-0.9-0.1-1.3-0.1c0-0.1,0-0.3-0.1-0.4c-0.4-1.5-1.8-2.5-3.1-2.2
			c-1.3,0.3-2.1,1.9-1.7,3.4c0.2,0.8,0.7,1.5,1.4,1.9c-0.1,0.5-0.2,1-0.2,1.4c-0.9-0.4-1.7-1.2-2.2-2.3l-6.1,1.5l0.4,1.7l-3.1,0.8
			l-0.4-1.7l-0.7,0.2l-0.4-1.5l9.9-2.5c-0.2-2,0.9-3.9,2.7-4.3C588.5,77.5,590.6,79,591.2,81.3L591.2,81.3z M591,84.2
			c-0.3,0.6-0.6,1.1-1.1,1.5c0.5,0.4,1,0.6,1.5,0.8c-0.1,0.4-0.1,0.7,0,1.1l0,0l0,0c-0.9-0.2-1.8-0.7-2.5-1.4
			c-0.1,0-0.2,0.1-0.3,0.1l0,0c0-0.1,0-0.3,0-0.4l0,0c0,0,0,0,0,0l0,0v0l0,0l0,0l0,0c0,0,0,0,0,0l0,0l0,0l0,0v0l0,0c0,0,0,0,0,0l0,0
			l0,0l0,0l0,0l0,0c0,0,0,0,0-0.1l0,0l0,0l0,0l0,0l0,0l0,0l0,0l0,0l0,0l0,0l0,0l0,0l0,0l0,0l0,0l0,0l0,0l0,0l0,0l0,0l0,0l0,0l0,0
			l0,0l0,0l0,0l0,0v0l0,0l0,0l0,0l0,0l0,0l0,0l0,0l0,0l0,0l0,0l0,0l0,0l0,0l0,0l0,0l0,0v0c0,0,0,0,0,0l0,0l0,0l0,0l0,0l0,0l0,0l0,0
			l0,0l0,0l0,0l0,0l0,0l0,0l0,0l0,0l0,0l0,0l0,0l0,0l0,0l0,0l0,0l0,0l0,0l0,0l0,0l0,0l0,0l0,0l0,0l0,0l0,0l0,0l0,0l0,0l0,0l0,0l0,0
			l0,0l0,0l0,0l0,0l0,0l0,0l0,0l0,0l0,0l0,0l0,0l0,0l0,0l0,0v0l0,0l0,0l0,0l0,0l0,0l0,0l0,0l0,0l0,0l0,0l0,0l0,0l0,0
			c0.3-0.4,0.8-0.6,1.3-0.7C590.5,84.1,590.7,84.1,591,84.2L591,84.2z M587.1,83.4c-0.1-0.3-0.2-0.7-0.2-1c-0.1-0.9,0-1.8,0.3-2.6
			c0.4,0,0.7,0.1,1,0.2c-0.3,0.7-0.4,1.5-0.3,2.3c0,0.1,0,0.2,0,0.3C587.7,82.8,587.4,83.1,587.1,83.4L587.1,83.4z"/>
	</g>
	<rect x="568.8" y="270.8" class="st24" width="208.2" height="48.7"/>
	<g>
		<path class="st24" d="M635,285.9c0,3.4-9.6,6.2-21.5,6.2s-21.5-2.8-21.5-6.2c0-3.4,9.6-6.2,21.5-6.2S635,282.5,635,285.9z"/>
		<path class="st24" d="M634.6,303.2c-2-2.8-10.7-4.9-21.1-4.9c-11.9,0-21.5,2.8-21.5,6.2c0,3.4,9.6,6.2,21.5,6.2s21.5-2.8,21.5-6.2
			C635,304,634.9,303.6,634.6,303.2z"/>
		<line class="st48" x1="591.9" y1="304.5" x2="591.9" y2="285.9"/>
		<line class="st48" x1="635" y1="304.5" x2="635" y2="285.9"/>
	</g>
	<text transform="matrix(1 0 0 1 648.9926 298.6998)" class="st31 st36">Results storage</text>
	<g>
		<g>
			<line class="st23" x1="315.3" y1="244.2" x2="315.3" y2="100.9"/>
			<g>
				<polygon class="st37" points="319,243.1 315.3,249.6 311.6,243.1 				"/>
			</g>
		</g>
	</g>
	<g>
		<g>
			<line class="st47" x1="326.3" y1="82.1" x2="60.6" y2="82.1"/>
			<g>
				<polygon class="st37" points="325.2,78.4 331.7,82.1 325.2,85.9 				"/>
			</g>
		</g>
	</g>
	<g>
		<g>
			<line class="st23" x1="560.1" y1="298.3" x2="365.7" y2="298.3"/>
			<g>
				<polygon class="st37" points="559,294.6 565.5,298.3 559,302.1 				"/>
			</g>
		</g>
	</g>
	<line class="st69" x1="403.6" y1="290" x2="403.6" y2="252.6"/>
	<g>
		<g>
			<line class="st47" x1="374.1" y1="290" x2="404" y2="290"/>
			<g>
				<polygon class="st37" points="375.2,293.7 368.8,290 375.2,286.2 				"/>
			</g>
		</g>
	</g>
	<g>
		<g>
			<line class="st47" x1="258.9" y1="267.4" x2="163.5" y2="267.4"/>
			<g>
				<polygon class="st37" points="257.8,263.7 264.2,267.4 257.8,271.2 				"/>
			</g>
			<g>
				<polygon class="st37" points="164.6,263.7 158.1,267.4 164.6,271.2 				"/>
			</g>
		</g>
	</g>
	<line class="st69" x1="793.8" y1="298.7" x2="777.2" y2="298.7"/>
	<g>
		<g>
			<line class="st47" x1="793.8" y1="264.1" x2="793.8" y2="299.1"/>
			<g>
				<polygon class="st37" points="790,265.2 793.8,258.7 797.5,265.2 				"/>
			</g>
		</g>
	</g>
	<g>
		<circle class="st52" cx="813.3" cy="282.7" r="14.7"/>
	</g>
	<text transform="matrix(1 0 0 1 808.4788 287.4001)" class="st35 st43 st44">6</text>
	<text transform="matrix(1 0 0 1 834.6788 286.2957)" class="st35 st33 st36">Display results</text>
	<line class="st69" x1="946.4" y1="386.9" x2="226.8" y2="386.9"/>
	<line class="st69" x1="37.6" y1="323.1" x2="37.6" y2="139.7"/>
	<g>
		<g>
			<line class="st47" x1="946" y1="350.3" x2="946" y2="386.9"/>
			<g>
				<polygon class="st37" points="942.2,351.4 946,344.9 949.7,351.4 				"/>
			</g>
		</g>
	</g>
	<line class="st23" x1="226.8" y1="323.1" x2="37.6" y2="323.1"/>
	<line class="st23" x1="226.8" y1="386.9" x2="226.8" y2="323.1"/>
	<polygon class="st54" points="711.5,202.2 602.4,202.2 602.4,233.6 711.5,233.6 	"/>
	<text transform="matrix(1 0 0 1 644.5757 219.9223)" class="st33 st36">Goal</text>
</g>
</svg>
