<?xml version="1.0" encoding="utf-8"?>
<!-- Generator: Adobe Illustrator 26.0.1, SVG Export Plug-In . SVG Version: 6.00 Build 0)  -->
<svg version="1.1" xmlns="http://www.w3.org/2000/svg" xmlns:xlink="http://www.w3.org/1999/xlink" x="0px" y="0px"
	 viewBox="0 0 998 336.4" style="enable-background:new 0 0 998 336.4;" xml:space="preserve">
<style type="text/css">
	.st0{fill:#FFFFFF;stroke:#000000;stroke-width:0.8156;stroke-miterlimit:10;}
	.st1{fill:none;stroke:#646464;stroke-width:0.6759;stroke-miterlimit:10;}
	.st2{fill:#646464;}
	.st3{fill:#FFFFFF;stroke:#000000;stroke-width:0.4506;stroke-miterlimit:10;}
	.st4{fill:#F1F1F1;stroke:#CFD3DA;stroke-width:0.4647;stroke-miterlimit:10;}
	.st5{fill:none;stroke:#646464;stroke-width:0.4506;stroke-miterlimit:10;}
	.st6{fill:#F1F1F1;stroke:#CFD3DA;stroke-width:0.6759;stroke-miterlimit:10;}
	.st7{fill:none;stroke:#000000;stroke-width:0.75;stroke-miterlimit:10;stroke-dasharray:2.2369,2.2369;}
	.st8{fill:none;stroke:#000000;stroke-width:0.7356;stroke-miterlimit:10;stroke-dasharray:2.3006,2.3006;}
	.st9{fill:#F1F1F1;stroke:#CFD3DA;stroke-width:0.4506;stroke-miterlimit:10;}
	.st10{font-family:'IBMPlexSans-SemiBold';}
	.st11{font-size:13px;}
	.st12{font-family:'IBMPlexSans-Medium';}
	.st13{font-family:'IBMPlexSans';}
	.st14{fill:#FFFFFF;}
	.st15{fill:none;stroke:#646464;stroke-width:0.5296;stroke-miterlimit:10;}
	.st16{fill:#F4F4F4;stroke:#CFD3DA;stroke-width:0.5757;stroke-miterlimit:10;}
	.st17{font-size:11px;}
	.st18{fill:#7940F8;}
	.st19{font-family:'IBMPlexMono';}
	.st20{fill:#F1F1F1;stroke:#CFD3DA;stroke-width:0.7534;stroke-miterlimit:10;}
	.st21{font-size:12px;}
	.st22{fill:#F4F4F4;stroke:#CFD3DA;stroke-width:0.562;stroke-miterlimit:10;}
	.st23{fill:#F4F4F4;stroke:#CFD3DA;stroke-width:0.3741;stroke-miterlimit:10;}
	.st24{fill:#D0E2FF;}
	.st25{fill:#001D6C;}
</style>
<g id="Background">
	<g id="Rule_group_1_">
		<polygon class="st0" points="439.4,12.5 145.9,12.5 145.9,317.2 439.4,317.2 		"/>
	</g>
	<path class="st1" d="M189.4,223.8h-19.1c-3.2,0-5.8-3.2-5.8-7.1v-30.8"/>
	<g>
		<g>
			<path class="st1" d="M189.4,92.7h-19.1c-3.2,0-5.8-3.2-5.8-7.1V57.1"/>
			<g>
				<path class="st2" d="M167.1,57.3c0-1.4-1.1-2.5-2.5-2.5s-2.5,1.1-2.5,2.5c0,1.4,1.1,2.5,2.5,2.5S167.1,58.7,167.1,57.3z"/>
			</g>
		</g>
	</g>
	<path class="st1" d="M189.4,280.5h-19.1c-3.2,0-5.8-3.2-5.8-7.1v-30.8"/>
	<g id="Rule_group_5_">
		<polygon class="st3" points="179.8,204.8 418.5,204.8 418.6,237 179.8,237 		"/>
	</g>
	<g id="Rule_group_6_">
		<polygon class="st3" points="179.8,261.5 418.5,261.5 418.6,293.7 179.8,293.7 		"/>
	</g>
	<line class="st1" x1="164.6" y1="251.6" x2="164.6" y2="80.7"/>
	<rect x="158.8" y="22.6" class="st4" width="94.6" height="24.3"/>
	<g id="Rule_group_4_">
		<polygon class="st3" points="179.8,71 418.5,71 418.6,178.4 179.8,178.4 		"/>
	</g>
	<g>
		<g>
			<path class="st5" d="M219.4,116h-19.1c-3.2,0-5.8-1.7-5.8-3.9V97"/>
			<g>
				<path class="st2" d="M196.2,97.1c0-0.9-0.8-1.7-1.7-1.7c-0.9,0-1.7,0.8-1.7,1.7c0,0.9,0.8,1.7,1.7,1.7
					C195.5,98.8,196.2,98.1,196.2,97.1z"/>
			</g>
		</g>
	</g>
	<path class="st5" d="M219.4,151.4h-19.1c-3.2,0-5.8-1.7-5.8-3.9v-16.7"/>
	<rect x="206.2" y="102.4" class="st6" width="200.1" height="24.3"/>
	<rect x="206.2" y="139.6" class="st6" width="200.1" height="24.3"/>
	<line class="st5" x1="194.5" y1="141.1" x2="194.5" y2="105.7"/>
	<g>
		<g>
			<line class="st7" x1="406.4" y1="110" x2="602.2" y2="110"/>
			<g>
				<polygon points="601.1,113.8 607.6,110 601.1,106.3 				"/>
			</g>
		</g>
	</g>
	<g>
		<g>
			<polyline class="st8" points="602.3,272.6 463.5,272.6 463.5,117.8 406.4,117.8 			"/>
			<g>
				<polygon points="601.3,269 607.6,272.6 601.3,276.3 				"/>
			</g>
		</g>
	</g>
	<rect x="494" y="260.8" class="st9" width="50.7" height="24.3"/>
</g>
<g id="Translatable_text">
	<text transform="matrix(1 0 0 1 188.3083 225.3981)"><tspan x="0" y="0" class="st10 st11">IA </tspan><tspan x="17.3" y="0" class="st12 st11">-</tspan><tspan x="22.5" y="0" class="st13 st11"> Identification and Authentication</tspan></text>
	<text transform="matrix(1 0 0 1 188.3083 282.8859)"><tspan x="0" y="0" class="st10 st11">RA</tspan><tspan x="17.4" y="0" class="st13 st11"> </tspan><tspan x="20.4" y="0" class="st12 st11">-</tspan><tspan x="25.6" y="0" class="st13 st11"> Risk Assessment</tspan></text>
	<g id="Rule_group_7_">
		<g>
			<polygon class="st14" points="616.5,238.5 616.5,13 909,13 909,238.5 			"/>
			<path d="M908.5,13.5V238H617l0-224.5H908.5 M909.5,12.5H616l0,226.5h293.6V12.5L909.5,12.5z"/>
		</g>
	</g>
	<g id="Rule_group_10_">
		<g>
			<polygon class="st14" points="616.5,316.7 616.5,252.7 909,252.7 909,316.7 			"/>
			<path d="M908.5,253.2v62.9H617l0-62.9H908.5 M909.5,252.2H616l0,64.9h293.6V252.2L909.5,252.2z"/>
		</g>
	</g>
	<g>
		<g>
			<path class="st15" d="M658.2,92.7h-19.1c-3.2,0-5.8-3.2-5.8-7.1V56.6"/>
			<g>
				<path class="st2" d="M635.3,56.7c0-1.1-0.9-2-2-2s-2,0.9-2,2c0,1.1,0.9,2,2,2S635.3,57.8,635.3,56.7z"/>
			</g>
		</g>
	</g>
	<rect x="650.4" y="73.5" class="st16" width="249.7" height="61.2"/>
	<path class="st1" d="M658,163.4h-19.1c-3.2,0-5.8-3.2-5.8-7.1v-30.8"/>
	<line class="st1" x1="633.3" y1="235.1" x2="633.3" y2="89.4"/>
	<path class="st1" d="M658,229.4H639c-3.2,0-5.8-3.2-5.8-7.1v-30.8"/>
	<text transform="matrix(1 0 0 1 666.2844 106.1696)"><tspan x="0" y="0" class="st13 st17">Check whether IAM users and service </tspan><tspan x="0" y="13.2" class="st13 st17">IDs are attached to access groups </tspan></text>
	<text transform="matrix(1 0 0 1 658.8479 88.55)" class="st18 st19 st17">AC-3</text>
	<rect x="626.1" y="22.5" class="st20" width="248.7" height="24.3"/>
	<text transform="matrix(1 0 0 1 631.1093 38.2582)" class="st18 st19 st21">IBM Cloud for Financial Services</text>
	<rect x="627.1" y="265.8" class="st20" width="248.7" height="24.3"/>
	<text transform="matrix(1 0 0 1 632.1089 281.528)" class="st18 st19 st21">IBM Cloud Best Practices Controls</text>
	<rect x="650.4" y="142.3" class="st22" width="249.7" height="58.3"/>
	<text transform="matrix(1 0 0 1 666.2844 175.0102)"><tspan x="0" y="0" class="st13 st17">Check whether multifactor authentication</tspan><tspan x="0" y="13.2" class="st13 st17">(MFA) is enabled at the account level </tspan></text>
	<text transform="matrix(1 0 0 1 658.8479 157.3906)" class="st18 st19 st17">AC-3</text>
	<rect x="650.4" y="211.8" class="st23" width="249.7" height="25.8"/>
	<text transform="matrix(1 0 0 1 658.8479 226.9149)" class="st18 st19 st17">AC-3</text>
	<text transform="matrix(1 0 0 1 166.4669 38.3849)" class="st18 st19 st21">NIST 800-53</text>
	<polyline class="st24" points="462.3,289.7 499,285.1 461.1,326.2 	"/>
	<g>
		<path class="st25" d="M458.2,327.7h-86.5c-5.6,0-10.2-4.6-10.2-10.2v-18.2c0-5.6,4.6-10.2,10.2-10.2h86.5
			c5.6,0,10.2,4.6,10.2,10.2v18.2C468.4,323.1,463.8,327.7,458.2,327.7z"/>
	</g>
	<text transform="matrix(1 0 0 1 394.3231 312.357)" class="st14 st13 st11">Control</text>
	<polyline class="st24" points="589.2,38.7 632.1,33.3 587.1,75.2 	"/>
	<g>
		<path class="st25" d="M497.5,37.6H584c5.6,0,10.2,4.6,10.2,10.2v18.2c0,5.6-4.6,10.2-10.2,10.2h-86.5c-5.6,0-10.2-4.6-10.2-10.2
			V47.8C487.3,42.2,491.9,37.6,497.5,37.6z"/>
	</g>
	<text transform="matrix(1 0 0 1 521.8571 62.0503)" class="st14 st13 st11">Profile</text>
	<polyline class="st24" points="883.5,156.6 840.5,162 885.6,120.1 	"/>
	<g>
		<path class="st25" d="M968.3,155.7h-86.5c-5.6,0-10.2-4.6-10.2-10.2v-18.2c0-5.6,4.6-10.2,10.2-10.2h86.5
			c5.6,0,10.2,4.6,10.2,10.2v18.2C978.5,151.1,973.9,155.7,968.3,155.7z"/>
	</g>
	<text transform="matrix(1 0 0 1 911.6924 140.3585)" class="st14 st13 st11">Goal</text>
	<text transform="matrix(1 0 0 1 188.3088 90.6369)"><tspan x="0" y="0" class="st10 st11">AC - </tspan><tspan x="28.4" y="0" class="st13 st11">Access Control</tspan></text>
	<text transform="matrix(1 0 0 1 215.1481 117.8478)" class="st18 st19 st17">AC-3</text>
	<text transform="matrix(1 0 0 1 252.8078 117.8483)" class="st19 st17">Access Enforcement</text>
	<text transform="matrix(1 0 0 1 215.1481 154.9831)" class="st18 st19 st17">AC-4</text>
	<text transform="matrix(1 0 0 1 252.8078 154.9831)" class="st19 st17">Information flow ...</text>
	<text transform="matrix(1 0 0 1 503.7483 276.7118)" class="st18 st19 st11">AC-3</text>
	<rect x="494" y="97.5" class="st9" width="50.7" height="24.3"/>
	<text transform="matrix(1 0 0 1 503.7477 113.4805)" class="st18 st19 st11">AC-3</text>
	<polyline class="st24" points="144.1,262.8 187.1,268.2 142.1,226.4 	"/>
	<g>
		<path class="st25" d="M56,223.7h86.5c5.6,0,10.2,4.6,10.2,10.2v18.2c0,5.6-4.6,10.2-10.2,10.2H56c-5.6,0-10.2-4.6-10.2-10.2v-18.2
			C45.8,228.3,50.4,223.7,56,223.7z"/>
	</g>
	<text transform="matrix(1 0 0 1 58.2592 247.0026)" class="st14 st13 st11">Control group</text>
	<polyline class="st24" points="116.9,44.3 159.8,38.9 114.8,80.7 	"/>
	<g>
		<path class="st25" d="M116.7,79.1H30.2c-5.6,0-10.2-4.6-10.2-10.2V50.7c0-5.6,4.6-10.2,10.2-10.2h86.5c5.6,0,10.2,4.6,10.2,10.2
			v18.2C126.8,74.5,122.3,79.1,116.7,79.1z"/>
	</g>
	<text transform="matrix(1 0 0 1 31.7744 63.7403)" class="st14 st13 st11">Control library</text>
</g>
</svg>
