<?xml version="1.0" encoding="utf-8"?>
<!-- Generator: Adobe Illustrator 26.0.1, SVG Export Plug-In . SVG Version: 6.00 Build 0)  -->
<svg version="1.1" xmlns="http://www.w3.org/2000/svg" xmlns:xlink="http://www.w3.org/1999/xlink" x="0px" y="0px"
	 viewBox="0 0 1233.7 602.8" style="enable-background:new 0 0 1233.7 602.8;" xml:space="preserve">
<style type="text/css">
	.st0{fill:#FFFFFF;stroke:#000000;stroke-width:0.8156;stroke-miterlimit:10;}
	.st1{fill:#F1F1F1;stroke:#CFD3DA;stroke-width:0.4647;stroke-miterlimit:10;}
	.st2{fill:none;stroke:#000000;stroke-width:0.5;stroke-miterlimit:10;}
	.st3{fill:#FFFFFF;}
	.st4{fill:#001D6C;stroke:#CFD3DA;stroke-width:0.4647;stroke-miterlimit:10;}
	.st5{fill:#001D6C;stroke:#001D6C;stroke-width:0.5;stroke-miterlimit:10;}
	.st6{fill:#7940F8;}
	.st7{font-family:'IBMPlexMono';}
	.st8{font-size:12px;}
	.st9{font-size:11px;}
	.st10{font-family:'IBMPlexSans';}
	.st11{font-family:'IBMPlexSans-SemiBold';}
	.st12{font-size:13px;}
	.st13{fill:none;}
	.st14{font-family:'IBMPlexSans-LightItalic';}
	.st15{font-size:10px;}
	.st16{fill:#8A3FFC;}
	.st17{font-family:'IBMPlexSans-ExtraLight';}
	.st18{fill:#001D6C;}
	.st19{font-family:'IBMPlexSans-Text';}
	.st20{letter-spacing:30;}
</style>
<g id="Background">
	<path class="st0" d="M482.1,572.5H126c-9.6,0-17.3-7.7-17.3-17.3V56.9c0-9.6,7.7-17.3,17.3-17.3h356.1c9.6,0,17.3,7.7,17.3,17.3
		v498.2C499.4,564.7,491.6,572.5,482.1,572.5z"/>
	<path class="st1" d="M357.2,81.7h-229c-4.9,0-8.8-3.9-8.8-8.8V61.3c0-4.9,3.9-8.8,8.8-8.8h229c4.9,0,8.8,3.9,8.8,8.8v11.6
		C366,77.8,362.1,81.7,357.2,81.7z"/>
	<path class="st0" d="M467.4,445.9H174.2c-7.3,0-13.2-5.9-13.2-13.2V109.9c0-7.3,5.9-13.2,13.2-13.2h293.2c7.3,0,13.2,5.9,13.2,13.2
		v322.7C480.6,439.9,474.7,445.9,467.4,445.9z"/>
	<path class="st1" d="M451.3,159h-266c-4.9,0-8.8-3.9-8.8-8.8v-11.6c0-4.9,3.9-8.8,8.8-8.8h266c4.9,0,8.8,3.9,8.8,8.8v11.6
		C460.2,155.1,456.2,159,451.3,159z"/>
	<path class="st1" d="M452.1,394.5H185.3c-4.9,0-8.8-3.9-8.8-8.8V178.1c0-4.9,3.9-8.8,8.8-8.8h266.7c4.9,0,8.8,3.9,8.8,8.8v207.7
		C460.9,390.6,456.9,394.5,452.1,394.5z"/>
	<path class="st1" d="M451.3,433.5h-266c-4.9,0-8.8-3.9-8.8-8.8v-11.6c0-4.9,3.9-8.8,8.8-8.8h266c4.9,0,8.8,3.9,8.8,8.8v11.6
		C460.2,429.5,456.2,433.5,451.3,433.5z"/>
	<path class="st0" d="M469.7,497.9H168.8c-6,0-10.9-4.9-10.9-10.9v-14.8c0-6,4.9-10.9,10.9-10.9h300.9c6,0,10.9,4.9,10.9,10.9V487
		C480.6,493,475.7,497.9,469.7,497.9z"/>
	<path class="st0" d="M469.7,549.9H168.8c-6,0-10.9-4.9-10.9-10.9v-14.8c0-6,4.9-10.9,10.9-10.9h300.9c6,0,10.9,4.9,10.9,10.9V539
		C480.6,545,475.7,549.9,469.7,549.9z"/>
	<g>
		<g>
			<line class="st2" x1="128.9" y1="92.7" x2="128.9" y2="510.7"/>
			<g>
				<path d="M127.1,92.8c0-1,0.8-1.9,1.9-1.9s1.9,0.8,1.9,1.9c0,1-0.8,1.9-1.9,1.9S127.1,93.9,127.1,92.8z"/>
			</g>
		</g>
	</g>
	<g>
		<g>
			<path class="st2" d="M128.9,458c0,23.7,4.3,22.4,19.6,22.2"/>
			<g>
				<g>
					<path class="st3" d="M148.5,482.1c1,0,1.9-0.9,1.9-1.9s-0.9-1.9-1.9-1.9c-1,0-1.9,0.9-1.9,1.9
						C146.6,481.3,147.4,482.1,148.5,482.1z"/>
					<path d="M148.5,482.3c-1.2,0-2.1-0.9-2.2-2.1c0-1.2,0.9-2.1,2.1-2.2c1.2,0,2.1,0.9,2.2,2.1
						C150.6,481.4,149.7,482.3,148.5,482.3C147.3,482.4,149.7,482.3,148.5,482.3z M148.4,478.6c-0.9,0-1.6,0.7-1.6,1.6
						c0,0.9,0.7,1.6,1.6,1.6c0.9,0,1.6-0.7,1.6-1.6C150.1,479.3,149.3,478.6,148.4,478.6C147.5,478.6,149.3,478.6,148.4,478.6z"/>
				</g>
			</g>
		</g>
	</g>
	<g>
		<g>
			<path class="st2" d="M128.9,90.9c0,23.7,4.3,22.4,19.6,22.2"/>
			<g>
				<g>
					<path class="st3" d="M148.5,115.1c1,0,1.9-0.9,1.9-1.9s-0.9-1.9-1.9-1.9c-1,0-1.9,0.9-1.9,1.9
						C146.6,114.2,147.4,115.1,148.5,115.1z"/>
					<path d="M148.5,115.3c-1.2,0-2.1-0.9-2.2-2.1c0-1.2,0.9-2.1,2.1-2.2c1.2,0,2.1,0.9,2.2,2.1
						C150.6,114.3,149.7,115.3,148.5,115.3C147.3,115.3,149.7,115.3,148.5,115.3z M148.4,111.5c-0.9,0-1.6,0.7-1.6,1.6
						c0,0.9,0.7,1.6,1.6,1.6c0.9,0,1.6-0.7,1.6-1.6C150.1,112.3,149.3,111.5,148.4,111.5C147.5,111.6,149.3,111.5,148.4,111.5z"/>
				</g>
			</g>
		</g>
	</g>
	<g>
		<g>
			<path class="st2" d="M128.9,509.8c0,23.7,4.3,22.4,19.6,22.2"/>
			<g>
				<g>
					<path class="st3" d="M148.5,533.9c1,0,1.9-0.9,1.9-1.9s-0.9-1.9-1.9-1.9c-1,0-1.9,0.9-1.9,1.9
						C146.6,533.1,147.4,533.9,148.5,533.9z"/>
					<path d="M148.5,534.2c-1.2,0-2.1-0.9-2.2-2.1c0-1.2,0.9-2.1,2.1-2.2c1.2,0,2.1,0.9,2.2,2.1
						C150.6,533.2,149.7,534.2,148.5,534.2C147.3,534.2,149.7,534.2,148.5,534.2z M148.4,530.4c-0.9,0-1.6,0.7-1.6,1.6
						c0,0.9,0.7,1.6,1.6,1.6c0.9,0,1.6-0.7,1.6-1.6C150.1,531.1,149.3,530.4,148.4,530.4C147.5,530.4,149.3,530.4,148.4,530.4z"/>
				</g>
			</g>
		</g>
	</g>
	<line class="st2" x1="461.8" y1="178.1" x2="604.7" y2="178.1"/>
	<path class="st1" d="M676.9,192.5H614c-4.9,0-8.8-3.9-8.8-8.8v-11.6c0-4.9,3.9-8.8,8.8-8.8h62.9c4.9,0,8.8,3.9,8.8,8.8v11.6
		C685.7,188.6,681.8,192.5,676.9,192.5z"/>
	<circle class="st2" cx="196" cy="212" r="4.1"/>
	<circle class="st2" cx="196" cy="252.3" r="4.1"/>
	<circle class="st2" cx="196" cy="286.6" r="4.1"/>
</g>
<g id="Translatable_text">
	<g>
		<path class="st4" d="M617.8,164.1h-89.7c-4.9,0-8.8-3.9-8.8-8.8v-18.9c0-4.9,3.9-8.8,8.8-8.8h89.7c4.9,0,8.8,3.9,8.8,8.8v18.9
			C626.6,160.2,622.7,164.1,617.8,164.1z"/>
		<polyline class="st5" points="617.9,131.7 630.7,169.1 630.8,169.4 590,153.8 		"/>
	</g>
	<text transform="matrix(1 0 0 1 127.9324 72.2209)" class="st6 st7 st8">IBM Cloud for Financial Services</text>
	<text transform="matrix(1 0 0 1 184.7197 147.5266)" class="st6 st7 st9">AC-2</text>
	<text transform="matrix(1 0 0 1 222.3794 147.5271)" class="st10 st9">Account Management</text>
	<text transform="matrix(1 0 0 1 172.9002 117.6205)"><tspan x="0" y="0" class="st11 st12">AC - </tspan><tspan x="28.4" y="0" class="st10 st12">Access Control</tspan></text>
	<text transform="matrix(1 0 0 1 184.7197 186.942)" class="st6 st7 st9">AC-3</text>
	<text transform="matrix(1 0 0 1 222.3794 186.9425)" class="st10 st9">Access Enforcement</text>
	<text transform="matrix(1 0 0 1 184.7197 421.9772)" class="st6 st7 st9">AC-4</text>
	<text transform="matrix(1 0 0 1 222.3794 421.9777)" class="st10 st9">Information Flow Enforcement</text>
	<text transform="matrix(1 0 0 1 168.9002 483.5902)"><tspan x="0" y="0" class="st11 st12">AU - </tspan><tspan x="29.1" y="0" class="st10 st12">Audit and Accountability</tspan></text>
	<text transform="matrix(1 0 0 1 168.9002 535.3915)"><tspan x="0" y="0" class="st11 st12">SC - </tspan><tspan x="27.7" y="0" class="st10 st12">System and Communications Protection</tspan></text>
	<rect x="214" y="206.9" class="st13" width="233.3" height="41.2"/>
	<text transform="matrix(1 0 0 1 214.0313 215.3591)"><tspan x="0" y="0" class="st14 st15">Check  whether permissions for service ID creation </tspan><tspan x="0" y="12" class="st14 st15">are limited and configured in IAM settings for the </tspan><tspan x="0" y="24" class="st14 st15">account owner</tspan></text>
	<rect x="214" y="248.2" class="st13" width="233.3" height="29.9"/>
	<text transform="matrix(1 0 0 1 214.0312 256.665)"><tspan x="0" y="0" class="st14 st15">Check whether IAM users are attached to at least one </tspan><tspan x="0" y="12" class="st14 st15">access group</tspan></text>
	<rect x="214" y="281.4" class="st13" width="231.7" height="29.9"/>
	<text transform="matrix(1 0 0 1 214.0312 289.9282)"><tspan x="0" y="0" class="st14 st15">Check whether IAM pollicies for users are attached </tspan><tspan x="0" y="12" class="st14 st15">only to groups or roles</tspan></text>
	<text transform="matrix(1 0 0 1 632.2812 181.72)" class="st6 st7 st9">AC-3</text>
	<rect x="214.6" y="305.3" class="st13" width="204" height="99"/>
	<text transform="matrix(1 0 0 1 214.5808 313.8242)"><tspan x="0" y="0" class="st16 st17 st15">{ </tspan><tspan x="0" y="12" class="st16 st17 st15">    Description: Check whether IAM policies for</tspan><tspan x="0" y="24" class="st16 st17 st15">    users are attached only to groups or roles</tspan><tspan x="0" y="36" class="st16 st17 st15">    Parameters: 1</tspan><tspan x="0" y="48" class="st16 st17 st15">    Type: Automated</tspan><tspan x="0" y="60" class="st16 st17 st15">    Method: IBM Cloud rule</tspan><tspan x="0" y="72" class="st16 st17 st15">}</tspan></text>
	<g>
		<path class="st4" d="M115.7,62.4H26c-4.9,0-8.8-3.9-8.8-8.8V34.7c0-4.9,3.9-8.8,8.8-8.8h89.7c4.9,0,8.8,3.9,8.8,8.8v18.9
			C124.5,58.5,120.6,62.4,115.7,62.4z"/>
		<polyline class="st5" points="115.1,29.4 127.9,66.8 128,67.1 87.2,51.5 		"/>
	</g>
	<text transform="matrix(1 0 0 1 27.415 47.9585)" class="st3 st11 st12">Control library</text>
	<g>
		<path class="st4" d="M153.8,585.8H64.1c-4.9,0-8.8-3.9-8.8-8.8v-18.9c0-4.9,3.9-8.8,8.8-8.8h89.7c4.9,0,8.8,3.9,8.8,8.8V577
			C162.6,581.9,158.7,585.8,153.8,585.8z"/>
		<polyline class="st5" points="154.3,581.5 167.1,544.1 167.2,543.8 126.4,559.4 		"/>
	</g>
	<text transform="matrix(1 0 0 1 81.9987 571.3376)" class="st3 st11 st12">Category</text>
	<g>
		<path class="st4" d="M551.2,301.2h-89.7c-4.9,0-8.8-3.9-8.8-8.8v-18.9c0-4.9,3.9-8.8,8.8-8.8h89.7c4.9,0,8.8,3.9,8.8,8.8v18.9
			C560,297.3,556,301.2,551.2,301.2z"/>
		<polyline class="st5" points="461.5,299.4 448.7,261.9 448.6,261.6 489.4,277.3 		"/>
	</g>
	<text transform="matrix(1 0 0 1 466.995 286.7516)" class="st3 st11 st12">Specification</text>
	<text transform="matrix(1 0 0 1 550.8077 149.6391)" class="st3 st11 st12">Control</text>
	<path class="st0" d="M1138.2,514.4H782.1c-9.6,0-17.3-7.7-17.3-17.3V56.4c0-9.6,7.7-17.3,17.3-17.3h356.1c9.6,0,17.3,7.7,17.3,17.3
		v440.6C1155.5,506.6,1147.8,514.4,1138.2,514.4z"/>
	<path class="st1" d="M1013.3,81.2h-229c-4.9,0-8.8-3.9-8.8-8.8V60.8c0-4.9,3.9-8.8,8.8-8.8h229c4.9,0,8.8,3.9,8.8,8.8v11.6
		C1022.1,77.2,1018.2,81.2,1013.3,81.2z"/>
	<path class="st0" d="M1123.5,445.3H830.3c-7.3,0-13.2-5.9-13.2-13.2V109.4c0-7.3,5.9-13.2,13.2-13.2h293.2
		c7.3,0,13.2,5.9,13.2,13.2v322.7C1136.7,439.4,1130.8,445.3,1123.5,445.3z"/>
	<path class="st1" d="M1108.2,381.7H841.5c-4.9,0-8.8-3.9-8.8-8.8V139.5c0-4.9,3.9-8.8,8.8-8.8h266.7c4.9,0,8.8,3.9,8.8,8.8v233.4
		C1117,377.8,1113,381.7,1108.2,381.7z"/>
	<path class="st1" d="M1107.5,422h-266c-4.9,0-8.8-3.9-8.8-8.8v-11.6c0-4.9,3.9-8.8,8.8-8.8h266c4.9,0,8.8,3.9,8.8,8.8v11.6
		C1116.3,418,1112.3,422,1107.5,422z"/>
	<path class="st0" d="M1125.9,497.3H825c-6,0-10.9-4.9-10.9-10.9v-14.8c0-6,4.9-10.9,10.9-10.9h300.9c6,0,10.9,4.9,10.9,10.9v14.8
		C1136.7,492.5,1131.9,497.3,1125.9,497.3z"/>
	<g>
		<g>
			<line class="st2" x1="785.1" y1="91.2" x2="785.1" y2="456.5"/>
			<g>
				<path d="M783.2,91.3c0-1,0.8-1.9,1.9-1.9s1.9,0.8,1.9,1.9c0,1-0.8,1.9-1.9,1.9S783.2,92.3,783.2,91.3z"/>
			</g>
		</g>
	</g>
	<g>
		<g>
			<path class="st2" d="M785.1,457.5c0,23.7,4.3,22.4,19.6,22.2"/>
			<g>
				<g>
					
						<ellipse transform="matrix(0.6988 -0.7153 0.7153 0.6988 -100.8023 719.9601)" class="st3" cx="804.6" cy="479.7" rx="1.9" ry="1.9"/>
					<path d="M804.6,481.8c-1.2,0-2.1-0.9-2.2-2.1c0-1.2,0.9-2.1,2.1-2.2c1.2,0,2.1,0.9,2.2,2.1
						C806.7,480.8,805.8,481.8,804.6,481.8C803.4,481.8,805.8,481.8,804.6,481.8z M804.6,478.1c-0.9,0-1.6,0.7-1.6,1.6
						s0.7,1.6,1.6,1.6c0.9,0,1.6-0.7,1.6-1.6S805.5,478,804.6,478.1C803.7,478.1,805.5,478,804.6,478.1z"/>
				</g>
			</g>
		</g>
	</g>
	<g>
		<g>
			<path class="st2" d="M785.1,90.4c0,23.7,4.3,22.4,19.6,22.2"/>
			<g>
				<g>
					<path class="st3" d="M804.6,114.5c1,0,1.9-0.9,1.9-1.9c0-1-0.9-1.9-1.9-1.9c-1,0-1.9,0.9-1.9,1.9S803.6,114.5,804.6,114.5z"/>
					<path d="M804.6,114.8c-1.2,0-2.1-0.9-2.2-2.1c0-1.2,0.9-2.1,2.1-2.2c1.2,0,2.1,0.9,2.2,2.1
						C806.7,113.8,805.8,114.8,804.6,114.8C803.4,114.8,805.8,114.8,804.6,114.8z M804.6,111c-0.9,0-1.6,0.7-1.6,1.6
						s0.7,1.6,1.6,1.6c0.9,0,1.6-0.7,1.6-1.6S805.5,111,804.6,111C803.7,111,805.5,111,804.6,111z"/>
				</g>
			</g>
		</g>
	</g>
	<circle class="st2" cx="852.1" cy="173.5" r="4.1"/>
	<circle class="st2" cx="852.1" cy="213.7" r="4.1"/>
	<circle class="st2" cx="852.1" cy="248.1" r="4.1"/>
	<text transform="matrix(1 0 0 1 784.0522 71.6917)" class="st6 st7 st8">My custom profile</text>
	<text transform="matrix(1 0 0 1 829.02 117.0912)"><tspan x="0" y="0" class="st11 st12">AC - </tspan><tspan x="28.4" y="0" class="st10 st12">Access Control</tspan></text>
	<text transform="matrix(1 0 0 1 840.8395 148.4128)" class="st6 st7 st9">AC-3</text>
	<text transform="matrix(1 0 0 1 878.4992 148.4132)" class="st10 st9">Access Enforcement</text>
	<text transform="matrix(1 0 0 1 840.8395 410.448)" class="st6 st7 st9">AC-4</text>
	<text transform="matrix(1 0 0 1 878.4992 410.4485)" class="st10 st9">Information Flow Enforcement</text>
	<text transform="matrix(1 0 0 1 825.02 483.061)"><tspan x="0" y="0" class="st11 st12">SC </tspan><tspan x="19.4" y="0" class="st19 st12">- System and Communications Protection</tspan></text>
	<rect x="870.2" y="168.3" class="st13" width="233.3" height="41.2"/>
	<text transform="matrix(1 0 0 1 870.1511 176.8298)"><tspan x="0" y="0" class="st14 st15">Check  whether permissions for service ID creation </tspan><tspan x="0" y="12" class="st14 st15">are limited and configured in IAM settings for the </tspan><tspan x="0" y="24" class="st14 st15">account owner</tspan></text>
	<rect x="870.2" y="209.6" class="st13" width="233.3" height="29.9"/>
	<text transform="matrix(1 0 0 1 870.1511 218.1358)"><tspan x="0" y="0" class="st14 st15">Check whether IAM users are attached to at least one </tspan><tspan x="0" y="12" class="st14 st15">access group</tspan></text>
	<rect x="870.2" y="242.9" class="st13" width="231.7" height="29.9"/>
	<text transform="matrix(1 0 0 1 870.1511 251.399)"><tspan x="0" y="0" class="st14 st15">Check whether IAM pollicies for users are attached </tspan><tspan x="0" y="12" class="st14 st15">only to groups or roles</tspan></text>
	<rect x="870.7" y="266.8" class="st13" width="204" height="111.5"/>
	<text transform="matrix(1 0 0 1 870.7011 275.295)"><tspan x="0" y="0" class="st16 st17 st15">{ </tspan><tspan x="0" y="12" class="st16 st17 st15">    Description: Check whether IAM policies for</tspan><tspan x="0" y="24" class="st16 st17 st15">    users are attached only to groups or roles</tspan><tspan x="0" y="36" class="st16 st17 st15">    Parameters: 1</tspan><tspan x="0" y="48" class="st16 st17 st15 st20">	</tspan><tspan x="32.4" y="48" class="st16 st17 st15">Property: </tspan><tspan x="0" y="60" class="st16 st17 st15 st20">	</tspan><tspan x="32.4" y="60" class="st16 st17 st15">Value: </tspan><tspan x="0" y="72" class="st16 st17 st15">    Type: Automated</tspan><tspan x="0" y="84" class="st16 st17 st15">    Method: IBM Cloud rule</tspan><tspan x="0" y="96" class="st16 st17 st15">}</tspan></text>
	<g>
		<polyline class="st5" points="857.4,348.6 874.1,312.7 874.2,312.4 832,323.7 		"/>
		<path class="st18" d="M855.3,353.2h-89.7c-4.9,0-8.8-3.9-8.8-8.8v-18.9c0-4.9,3.9-8.8,8.8-8.8h89.7c4.9,0,8.8,3.9,8.8,8.8v18.9
			C864.1,349.2,860.2,353.2,855.3,353.2z"/>
	</g>
	<text transform="matrix(1 0 0 1 773.9467 338.712)" class="st3 st11 st12">Parameters</text>
	<g>
		<path class="st4" d="M1117.9,52.7h-89.7c-4.9,0-8.8-3.9-8.8-8.8V25c0-4.9,3.9-8.8,8.8-8.8h89.7c4.9,0,8.8,3.9,8.8,8.8v18.9
			C1126.7,48.8,1122.8,52.7,1117.9,52.7z"/>
		<polyline class="st5" points="1026.3,21.7 1013.4,59.1 1013.4,59.4 1054.2,43.8 		"/>
	</g>
	<text transform="matrix(1 0 0 1 1053.2598 38.2365)" class="st3 st11 st12">Profile</text>
	<g>
		<path class="st4" d="M1178.8,271.1h-89.7c-4.9,0-8.8-3.9-8.8-8.8v-18.9c0-4.9,3.9-8.8,8.8-8.8h89.7c4.9,0,8.8,3.9,8.8,8.8v18.9
			C1187.6,267.2,1183.7,271.1,1178.8,271.1z"/>
		<polyline class="st5" points="1087.6,240.2 1074.8,277.6 1074.7,277.9 1115.6,262.3 		"/>
	</g>
	<text transform="matrix(1 0 0 1 1097.442 256.6194)" class="st3 st11 st12">Assessment</text>
	<g>
		<g>
			<line class="st2" x1="685.7" y1="178.1" x2="824.1" y2="178.1"/>
			<g>
				<polygon points="823.2,181.2 828.6,178.1 823.2,175 				"/>
			</g>
		</g>
	</g>
</g>
</svg>
