<?xml version="1.0" encoding="utf-8"?>
<!-- Generator: Adobe Illustrator 26.0.1, SVG Export Plug-In . SVG Version: 6.00 Build 0)  -->
<svg version="1.1" xmlns="http://www.w3.org/2000/svg" xmlns:xlink="http://www.w3.org/1999/xlink" x="0px" y="0px"
	 viewBox="0 0 1138 693" style="enable-background:new 0 0 1138 693;" xml:space="preserve">
<style type="text/css">
	.st0{fill:#F4F4F4;}
	.st1{fill:#FFFFFF;}
	.st2{fill:#FFFFFF;stroke:#C6C6C6;stroke-width:0.25;stroke-miterlimit:10;}
	.st3{fill:#E0E0E0;stroke:#C6C6C6;stroke-width:0.25;stroke-miterlimit:10;}
	.st4{fill:#F4F4F4;stroke:#C6C6C6;stroke-width:0.25;stroke-miterlimit:10;}
	.st5{fill:#8D8D8D;}
	.st6{font-family:'IBMPlexSans-Medium';}
	.st7{font-size:8px;}
	.st8{fill:none;stroke:#C6C6C6;stroke-width:0.5;stroke-miterlimit:10;}
	.st9{fill:none;stroke:#198038;stroke-miterlimit:10;}
	.st10{fill:none;stroke:#DA1E28;stroke-miterlimit:10;}
	.st11{fill:none;stroke:#F1C21B;stroke-miterlimit:10;}
	.st12{fill:#198038;stroke:#A8A8A8;stroke-width:0.25;stroke-miterlimit:10;}
	.st13{fill:none;stroke:#A8A8A8;stroke-miterlimit:10;}
	.st14{fill:#E0E0E0;stroke:#A8A8A8;stroke-width:0.25;stroke-miterlimit:10;}
	.st15{fill:none;stroke:#0F62FE;stroke-miterlimit:10;}
	.st16{fill:#F4F4F4;stroke:#198038;stroke-miterlimit:10;}
	.st17{fill:#F4F4F4;stroke:#DA1E28;stroke-miterlimit:10;}
	.st18{fill:#F4F4F4;stroke:#F1C21B;stroke-miterlimit:10;}
	.st19{font-family:'IBMPlexSans';}
	.st20{font-size:34.9722px;}
	.st21{fill:#525252;}
	.st22{font-family:'IBMPlexSans-Bold';}
	.st23{font-size:12px;}
	.st24{font-size:10px;}
	.st25{fill:#198038;}
	.st26{fill:#DA1E28;}
	.st27{fill:#F1C21B;}
	.st28{font-size:10.9926px;}
	.st29{font-size:9.1605px;}
	.st30{font-size:23px;}
	.st31{enable-background:new    ;}
	.st32{fill:#0F62FE;}
	.st33{fill:none;stroke:#0F62FE;stroke-width:0.5;stroke-miterlimit:10;}
	.st34{fill:none;stroke:#525252;stroke-miterlimit:10;}
	.st35{font-family:'IBMPlexSans-SemiBold';}
	.st36{fill:none;stroke:#8D8D8D;stroke-miterlimit:10;}
	.st37{fill:#393939;}
	.st38{font-size:9px;}
	.st39{fill:#C6C6C6;}
	.st40{fill:none;stroke:#8D8D8D;stroke-width:0.5;stroke-miterlimit:10;}
	.st41{font-size:6.79px;}
	.st42{font-size:11px;}
	.st43{fill:#E0E0E0;}
	.st44{fill:none;stroke:#E0E0E0;stroke-width:0.5;stroke-miterlimit:10;}
	.st45{opacity:0.5;fill:#3B95D1;enable-background:new    ;}
	.st46{fill:#3B95D1;}
	.st47{fill:#002D9C;}
</style>
<g id="Layer_1">
	<rect x="150.9" class="st0" width="864.3" height="693"/>
	<rect x="178.2" y="198" class="st1" width="213.9" height="274.3"/>
	<rect x="178.1" y="88.5" class="st2" width="805.1" height="58.2"/>
	<rect x="178.2" y="167.1" class="st2" width="104.7" height="30.9"/>
	<rect x="285" y="167.1" class="st3" width="107.1" height="28.8"/>
	<rect x="392.1" y="167.1" class="st3" width="105" height="28.8"/>
	<rect x="178.3" y="193.8" class="st1" width="104.5" height="6"/>
	<rect x="394.5" y="198" class="st2" width="213.9" height="274.3"/>
	<rect x="610.3" y="198" class="st2" width="372.9" height="274.3"/>
	<rect x="620.8" y="245.5" class="st4" width="349.3" height="19.2"/>
	<rect x="647.5" y="280.1" class="st4" width="323.9" height="123.7"/>
	<text transform="matrix(1 0 0 1 640.5709 403.9306)" class="st5 st6 st7">0</text>
	<text transform="matrix(1 0 0 1 635.7716 384.1917)" class="st5 st6 st7">20</text>
	<text transform="matrix(1 0 0 1 499.4102 402.6302)" class="st5 st6 st7">20</text>
	<text transform="matrix(1 0 0 1 499.4102 402.6302)" class="st5 st6 st7">20</text>
	<text transform="matrix(1 0 0 1 635.7711 364.453)" class="st5 st6 st7">40</text>
	<text transform="matrix(1 0 0 1 635.7715 344.7148)" class="st5 st6 st7">60</text>
	<text transform="matrix(1 0 0 1 635.7712 324.9757)" class="st5 st6 st7">80</text>
	<text transform="matrix(1 0 0 1 630.9709 305.2371)" class="st5 st6 st7">100</text>
	<text transform="matrix(1 0 0 1 630.9712 285.498)" class="st5 st6 st7">120</text>
	<text transform="matrix(1 0 0 1 647.5396 414.2992)" class="st5 st6 st7">Nov 16, 4:30 AM</text>
	<text transform="matrix(1 0 0 1 735.5908 414.2993)" class="st5 st6 st7">Nov 17, 6:23 AM</text>
	<text transform="matrix(1 0 0 1 823.641 414.2984)" class="st5 st6 st7">Nov 18, 7:00 AM</text>
	<text transform="matrix(1 0 0 1 911.8309 414.2985)" class="st5 st6 st7">Nov 18, 8:23 PM</text>
	<line class="st8" x1="680.5" y1="280" x2="680.5" y2="403.8"/>
	<line class="st8" x1="766.8" y1="280" x2="766.8" y2="403.9"/>
	<line class="st8" x1="854.5" y1="280.1" x2="854.5" y2="403.9"/>
	<line class="st8" x1="942" y1="280.1" x2="942" y2="403.8"/>
	<line class="st8" x1="723.6" y1="280" x2="723.6" y2="403.9"/>
	<line class="st8" x1="810.6" y1="280" x2="810.6" y2="403.9"/>
	<line class="st8" x1="898.2" y1="280" x2="898.2" y2="403.9"/>
	<line class="st8" x1="971.4" y1="381.8" x2="647.4" y2="381.8"/>
	<line class="st8" x1="971.5" y1="361.9" x2="647.5" y2="361.9"/>
	<line class="st8" x1="971.5" y1="341.9" x2="647.5" y2="341.9"/>
	<line class="st8" x1="971.5" y1="322.2" x2="647.5" y2="322.2"/>
	<line class="st8" x1="971.5" y1="302.4" x2="647.5" y2="302.4"/>
	<line class="st9" x1="680.5" y1="342.7" x2="766.7" y2="302.4"/>
	<line class="st9" x1="766.7" y1="302.4" x2="854.4" y2="361.9"/>
	<line class="st9" x1="853.9" y1="362.1" x2="943.3" y2="322.6"/>
	<line class="st9" x1="647.4" y1="381.8" x2="680.5" y2="342.7"/>
	<line class="st10" x1="647.4" y1="322.6" x2="766.7" y2="361.9"/>
	<line class="st10" x1="766.4" y1="361.9" x2="854.4" y2="322.6"/>
	<line class="st10" x1="854" y1="322.3" x2="942.5" y2="361.7"/>
	<line class="st11" x1="648.1" y1="394.6" x2="766.7" y2="394.6"/>
	<line class="st11" x1="766.5" y1="394.6" x2="853.9" y2="369.8"/>
	<line class="st11" x1="853.9" y1="369.8" x2="942" y2="394.6"/>
	<path class="st12" d="M328.6,294.5c-11.6-10.1-26.8-16.2-43.5-16.2c-36.7,0-66.4,29.7-66.4,66.4h-17.4c0-46.3,37.5-83.8,83.8-83.8
		c21,0,40.2,7.7,54.9,20.5"/>
	<line class="st13" x1="351.5" y1="344.7" x2="368.9" y2="344.7"/>
	<path class="st14" d="M368.9,344.7c0-25.2-11.2-47.9-28.8-63.2l-12.2,12.2l0.7,0.9c14,12.2,22.9,30.1,22.9,50.2"/>
	<line class="st15" x1="178.2" y1="167.1" x2="282.9" y2="167.1"/>
	<circle class="st16" cx="766.8" cy="302.4" r="1.7"/>
	<circle class="st16" cx="680.5" cy="342.7" r="1.7"/>
	<circle class="st17" cx="766.8" cy="361.8" r="1.7"/>
	<circle class="st18" cx="680.5" cy="394.6" r="1.7"/>
	<circle class="st18" cx="766.8" cy="394.5" r="1.7"/>
	<circle class="st17" cx="854.5" cy="322.6" r="1.7"/>
	<circle class="st16" cx="854.5" cy="361.8" r="1.7"/>
	<circle class="st18" cx="854.5" cy="369.6" r="1.7"/>
	<circle class="st16" cx="942" cy="322.6" r="1.7"/>
	<circle class="st17" cx="942" cy="361.8" r="1.7"/>
	<circle class="st18" cx="942" cy="394.6" r="1.7"/>
	<circle class="st17" cx="680.5" cy="333.5" r="1.7"/>
</g>
<g id="Layer_2">
	<text transform="matrix(1 0 0 1 247.9406 332.4789)" class="st19 st20">64%</text>
	<text transform="matrix(1 0 0 1 186.2048 219.3548)" class="st21 st22 st23">Success rate</text>
	<text transform="matrix(1 0 0 1 257.6313 348.5886)" class="st21 st6 st24">419 / 655</text>
	<g>
		<path class="st25" d="M445.4,384c34.3,30.9,87.2,28.2,118.1-6.1c30.9-34.3,28.2-87.2-6.1-118.1c-15.2-13.7-34.9-21.3-55.3-21.5
			l-0.2,18.4c36,0.3,65,29.8,64.7,65.8s-29.8,65-65.8,64.7c-16-0.1-31.3-6.1-43.2-16.8l-12,13.3l0,0L445.4,384z"/>
		<path class="st26" d="M473.2,243.2c-22.9,8.2-41.7,26.2-50.4,50l17.3,6.3c6.7-18.5,21.5-32.9,40.1-39.3"/>
		<path class="st27" d="M480.2,260.2c7-2.4,14.3-3.6,21.7-3.5l0.2-18.4c-10-0.1-19.8,1.6-28.9,4.9"/>
		<path class="st26" d="M436.3,325.6c-0.5-8.9,0.8-17.7,3.9-26.1l-17.3-6.3c-3.9,10.7-5.6,22.1-5,33.4L436.3,325.6z"/>
		<path class="st26" d="M445.4,384l12.3-13.7c-12.8-11.5-20.5-27.7-21.4-44.9l-18.4,1C419.1,348.6,429,369.2,445.4,384z"/>
	</g>
	<text transform="matrix(1 0 0 1 469.9514 332.4789)" class="st19 st20">390</text>
	<text transform="matrix(1 0 0 1 402.4416 219.3548)" class="st21 st22 st23">Total controls</text>
	<text transform="matrix(1 0 0 1 433.113 431.1234)" class="st21 st6 st24">Compliant</text>
	<rect x="421.9" y="423.6" class="st25" width="8.5" height="8.5"/>
	<text transform="matrix(1 0 0 1 505.5754 431.1234)" class="st21 st6 st24">Non-compliant</text>
	<rect x="494.4" y="423.6" class="st26" width="8.5" height="8.5"/>
	<text transform="matrix(1 0 0 1 461.1438 454.0239)" class="st21 st6 st24">Unable to perform</text>
	<rect x="450" y="446.5" class="st27" width="8.5" height="8.5"/>
	<text transform="matrix(1 0 0 1 480.2175 348.4564)" class="st21 st6 st28">Controls</text>
	<text transform="matrix(1 0 0 1 620.6472 219.3548)" class="st21 st22 st23">Drift</text>
	<text transform="matrix(1 0 0 1 577.8093 372.2982)" class="st5 st6 st29">240</text>
	<text transform="matrix(1 0 0 1 406.5847 283.6869)" class="st5 st6 st29">135</text>
	<text transform="matrix(1 0 0 1 480.8225 234.6058)" class="st5 st6 st29">15</text>
	<text transform="matrix(1 0 0 1 178.1342 65.3237)" class="st21 st19 st30">IBM Cloud Security Best Practices</text>
	<text transform="matrix(1 0 0 1 179.6844 31.4143)" class="st31"><tspan x="0" y="0" class="st32 st6 st23">Security and Compliance </tspan><tspan x="139.4" y="0" class="st21 st6 st23">/</tspan><tspan x="144.4" y="0" class="st32 st6 st23"> Dashboard </tspan><tspan x="209.9" y="0" class="st21 st6 st23">/</tspan></text>
	<text transform="matrix(1 0 0 1 760.9165 60.8555)" class="st32 st6 st23">Scan history</text>
	<text transform="matrix(1 0 0 1 865.4216 60.8555)" class="st32 st6 st23">Download report</text>
	<rect x="859.5" y="40.7" class="st33" width="123.7" height="33.2"/>
	<circle class="st34" cx="272.5" cy="215.7" r="5.9"/>
	<text transform="matrix(1 0 0 1 270.2624 218.3802)" class="st21 st22 st29">?</text>
	<circle class="st34" cx="495" cy="215.7" r="5.9"/>
	<text transform="matrix(1 0 0 1 492.7409 218.3802)" class="st21 st22 st29">?</text>
	<g>
		<circle class="st34" cx="658.5" cy="215.7" r="5.9"/>
		<text transform="matrix(1 0 0 1 656.2985 218.3802)" class="st21 st22 st29">?</text>
	</g>
	<text transform="matrix(1 0 0 1 186.6921 186.681)" class="st21 st22 st23">Overview</text>
	<text transform="matrix(1 0 0 1 293.7778 186.8352)" class="st5 st6 st23">Controls</text>
	<text transform="matrix(1 0 0 1 402.5601 186.9896)" class="st5 st6 st23">Resources</text>
	<text transform="matrix(1 0 0 1 633.7657 454.0238)" class="st21 st6 st24">Compliant</text>
	<rect x="622.6" y="446.5" class="st25" width="8.5" height="8.5"/>
	<text transform="matrix(1 0 0 1 706.2281 454.0238)" class="st21 st6 st24">Non-compliant</text>
	<rect x="695" y="446.5" class="st26" width="8.5" height="8.5"/>
	<text transform="matrix(1 0 0 1 798.3104 454.024)" class="st21 st6 st24">Unable to perform</text>
	<rect x="787.1" y="446.5" class="st27" width="8.5" height="8.5"/>
	<text transform="matrix(1 0 0 1 620.6005 239.89)" class="st5 st6 st7">Timeframe</text>
	<text transform="matrix(1 0 0 1 626.7795 258.3255)" class="st21 st6 st24">1 week</text>
	<text transform="matrix(1 0 0 1 799.6472 432.1233)" class="st21 st35 st24">Date</text>
	<text transform="matrix(6.123234e-17 -1 1 6.123234e-17 622.5765 357.7866)" class="st21 st35 st24">Controls</text>
	<g>
		<line class="st36" x1="956.5" y1="253.4" x2="961.9" y2="258.8"/>
		<line class="st36" x1="966.7" y1="253.4" x2="961.3" y2="258.8"/>
	</g>
	<g>
		<path class="st32" d="M841.5,65.1c-2.5,0-4.5-2-4.5-4.5s2-4.5,4.5-4.5s4.5,2,4.5,4.5S843.9,65.1,841.5,65.1z M841.5,57.3
			c-1.9,0-3.4,1.5-3.4,3.4c0,1.9,1.5,3.4,3.4,3.4s3.4-1.5,3.4-3.4C844.8,58.8,843.3,57.3,841.5,57.3z"/>
		<polygon class="st32" points="842.3,62.3 840.9,60.9 840.9,58.4 842,58.4 842,60.4 843.1,61.6 		"/>
		<path class="st32" d="M845.4,51.7c0-0.6-0.5-1.1-1.1-1.1H842v-1.1h-1.1v1.1h-4.5v-1.1h-1.1v1.1h-2.2c-0.6,0-1.1,0.5-1.1,1.1v11.2
			c0,0.6,0.5,1.1,1.1,1.1h2.2v-1.1h-2.2V51.7h2.2v1.1h1.1v-1.1h4.5v1.1h1.1v-1.1h2.2v3.4h1.1V51.7z"/>
	</g>
	<g>
		<path class="st32" d="M975.7,61v1.8h-9.2V61h-0.9v1.8l0,0c0,0.5,0.4,0.9,0.9,0.9h9.2c0.5,0,0.9-0.4,0.9-0.9l0,0V61H975.7z"/>
		<polygon class="st32" points="975.7,56.4 975.1,55.7 971.5,59.2 971.5,50.8 970.6,50.8 970.6,59.2 967.1,55.7 966.5,56.4 
			971.1,61 		"/>
	</g>
	<text transform="matrix(1 0 0 1 186.6923 113.4812)" class="st5 st6 st7">Profile</text>
	<text transform="matrix(1 0 0 1 344.2036 113.4807)" class="st5 st6 st7">Version</text>
	<text transform="matrix(1 0 0 1 394.4673 113.4809)" class="st5 st6 st7">Scope</text>
	<text transform="matrix(1 0 0 1 461.4834 113.4808)" class="st5 st6 st7">Scan date</text>
	<text transform="matrix(1 0 0 1 581.9951 113.4808)" class="st5 st6 st7">Type</text>
	<text transform="matrix(1 0 0 1 664.403 113.4809)" class="st5 st6 st7">ID</text>
	<text transform="matrix(1 0 0 1 890.9189 113.4809)" class="st5 st6 st7">Billable evaluations</text>
	<text transform="matrix(1 0 0 1 186.6924 126.5982)" class="st37 st6 st38">IBM Cloud Security Best Practices</text>
	<text transform="matrix(1 0 0 1 344.2038 126.5981)" class="st37 st6 st38">1.0.0</text>
	<text transform="matrix(1 0 0 1 394.4674 126.5984)" class="st37 st6 st38">Account A</text>
	<text transform="matrix(1 0 0 1 461.4836 126.5982)" class="st37 st6 st38">11/18/2022, 8:23 PM</text>
	<text transform="matrix(1 0 0 1 581.9952 126.5984)" class="st37 st6 st38">Scheduled</text>
	<text transform="matrix(1 0 0 1 663.9715 126.5984)" class="st37 st6 st38">b108ndba-993s-47sss-jlabsdnkfjb2983r0a</text>
	<text transform="matrix(1 0 0 1 891.6072 126.5984)" class="st37 st6 st38">634</text>
	<rect x="180.4" y="486" class="st1" width="804.9" height="207"/>
	<rect x="188.5" y="523.5" class="st39" width="787.1" height="169.5"/>
	<circle class="st40" cx="970" cy="111.1" r="4.4"/>
	<text transform="matrix(1 0 0 1 968.3389 113.1677)" class="st5 st19 st41">?</text>
	<g>
		<path class="st5" d="M856.4,121.7v6.8h-6.8v-6.8H856.4 M856.4,120.9h-6.8c-0.4,0-0.8,0.3-0.8,0.8v6.8c0,0.4,0.3,0.8,0.8,0.8h6.8
			c0.4,0,0.8-0.3,0.8-0.8v-6.8C857.1,121.3,856.8,120.9,856.4,120.9z"/>
		<path class="st5" d="M847.3,124.7h-0.8v-5.3c0-0.4,0.3-0.8,0.8-0.8h5.3v0.8h-5.3V124.7z"/>
	</g>
	<text transform="matrix(1 0 0 1 187.6163 506.8354)" class="st21 st22 st23">Highest priority resources</text>
	<rect x="188.5" y="553.7" class="st0" width="787.1" height="30.2"/>
	<rect x="188.5" y="585.1" class="st0" width="787.1" height="107.9"/>
	<g>
		<line class="st36" x1="196.1" y1="565.3" x2="201.5" y2="570.7"/>
		<line class="st36" x1="206.3" y1="565.3" x2="200.9" y2="570.7"/>
	</g>
	<text transform="matrix(1 0 0 1 196.1266 542.41)" class="st21 st22 st42">Resource</text>
	<text transform="matrix(1 0 0 1 640.5409 542.4103)" class="st21 st22 st42">Component</text>
	<text transform="matrix(1 0 0 1 824.3295 542.6978)" class="st21 st22 st23">Account</text>
	<text transform="matrix(1 0 0 1 934.7125 542.5541)" class="st21 st22 st42">Failed</text>
	<text transform="matrix(1 0 0 1 217.3555 571.0499)" class="st21 st19 st24">AppID-Testing-Dallas</text>
	<g>
		<line class="st36" x1="206.3" y1="601.9" x2="200.9" y2="596.5"/>
		<line class="st36" x1="196.1" y1="601.9" x2="201.5" y2="596.5"/>
	</g>
	<text transform="matrix(1 0 0 1 217.3557 602.1789)" class="st21 st19 st24">My-Load-Balancer-For-Testing</text>
	<rect x="216.7" y="614.4" class="st43" width="758.9" height="25.8"/>
	<text transform="matrix(1 0 0 1 225.7384 630.2634)" class="st21 st22 st42">Assessment</text>
	<text transform="matrix(1 0 0 1 699.2893 630.3948)" class="st21 st22 st42">Controls</text>
	<text transform="matrix(1 0 0 1 774.974 630.2632)" class="st21 st22 st42">Method</text>
	<text transform="matrix(1 0 0 1 863.3877 630.2632)" class="st21 st22 st42">Type</text>
	<text transform="matrix(1 0 0 1 934.7125 630.2633)" class="st21 st22 st42">Status</text>
	<line class="st44" x1="216.7" y1="668.4" x2="975.7" y2="668.4"/>
	<text transform="matrix(1 0 0 1 225.9582 658.61)" class="st32 st19 st24">Check whether Application Load Balancer for VPC uses HTTPS (SSL &amp; TLS) instead of HTTP</text>
	<text transform="matrix(1 0 0 1 226.5384 683.8191)" class="st32 st19 st24">Check whether Application Load Balancer for VPC has health check configured</text>
	<text transform="matrix(1 0 0 1 699.2888 658.6103)" class="st21 st19 st24">1</text>
	<text transform="matrix(1 0 0 1 699.2895 683.8187)" class="st21 st19 st24">1</text>
	<text transform="matrix(1 0 0 1 774.9733 658.6099)" class="st21 st19 st24">IBM Cloud rule</text>
	<text transform="matrix(1 0 0 1 774.9739 683.8187)" class="st21 st19 st24">IBM Cloud rule</text>
	<text transform="matrix(1 0 0 1 863.3881 658.6104)" class="st21 st19 st24">Automated</text>
	<text transform="matrix(1 0 0 1 863.3875 683.8185)" class="st21 st19 st24">Automated</text>
	<path class="st25" d="M939.4,676.2c-2.6,0-4.6,2.1-4.6,4.6s2.1,4.6,4.6,4.6s4.6-2.1,4.6-4.6S941.9,676.2,939.4,676.2z M938.7,682.7
		L937,681l0.5-0.5l1.1,1.1l2.5-2.5l0.5,0.5L938.7,682.7z"/>
	<path class="st26" d="M939.5,563.2c-2.7,0-4.8,1.8-4.8,4.1c0,0,0,0,0,0.1c0,2.3,2.1,4.1,4.8,4.2c0,0,0,0,0.1,0
		c2.7,0,4.8-1.8,4.8-4.1c0,0,0,0,0-0.1C944.4,565.1,942.3,563.2,939.5,563.2C939.6,563.2,939.6,563.2,939.5,563.2z M941.4,569.5
		l-4.3-3.7l0.5-0.5l4.3,3.7L941.4,569.5z"/>
	<text transform="matrix(1 0 0 1 948.1259 602.179)" class="st21 st19 st24">13</text>
	<text transform="matrix(1 0 0 1 948.126 571.0502)" class="st21 st19 st24">25</text>
	<text transform="matrix(1 0 0 1 824.3289 571.05)" class="st21 st19 st24">Account A</text>
	<text transform="matrix(1 0 0 1 824.3291 602.1791)" class="st21 st19 st24">Account C</text>
	<text transform="matrix(1 0 0 1 656.2882 571.0505)" class="st21 st19 st24">App ID</text>
	<text transform="matrix(1 0 0 1 656.2883 602.1787)" class="st21 st19 st24">Load Balancer for VPC</text>
	<g id="XMLID_00000168087227413678127780000013799631922235614647_">
		<path id="XMLID_00000016762219124178457410000011952690593174224784_" class="st45" d="M651.2,565.9c0-3-2.4-5.3-5.3-5.3
			c-3,0-5.3,2.4-5.3,5.3h1c0-2.4,1.9-4.3,4.3-4.3s4.3,1.9,4.3,4.3H651.2z"/>
		<path id="XMLID_00000044893118190363115840000016638600786344179087_" class="st46" d="M651.2,565.7l0.8,5.2h-1.3v1.6
			c0,0.6-0.7,1-1.3,1h-2.6v2.1h-6.2v-9.8L651.2,565.7z"/>
		<path id="XMLID_00000127752446191429934620000010002347651396574120_" class="st1" d="M644.9,568.6c0-0.5,0.4-0.9,0.9-0.9
			c0.5,0,0.9,0.4,0.9,0.9c0,0.3-0.2,0.6-0.4,0.8l0.3,1.8h-1.5l0.3-1.8C645.1,569.2,644.9,568.9,644.9,568.6z"/>
	</g>
	<g>
		<path class="st47" d="M642.9,604.7h-2.4v-2.4h2.4V604.7z M641.3,603.9h0.8v-0.8h-0.8V603.9z"/>
		<path class="st47" d="M647.2,604.7h-2.4v-2.4h2.4V604.7z M645.6,603.9h0.8v-0.8h-0.8V603.9z"/>
		<path class="st47" d="M651.5,604.7h-2.4v-2.4h2.4V604.7z M650,603.9h0.8v-0.8H650V603.9z"/>
		<path class="st47" d="M646,596.8c-0.9,0-1.6-0.7-1.6-1.6c0-0.9,0.7-1.6,1.6-1.6c0.9,0,1.6,0.7,1.6,1.6
			C647.6,596.1,646.9,596.8,646,596.8z M646,594.4c-0.4,0-0.8,0.4-0.8,0.8c0,0.4,0.4,0.8,0.8,0.8c0.4,0,0.8-0.4,0.8-0.8
			C646.8,594.8,646.5,594.4,646,594.4z"/>
		<path class="st47" d="M650,599.2h-2c-0.9,0-1.6-0.7-1.6-1.6h-0.8c0,0.9-0.7,1.6-1.6,1.6h-2c-0.4,0-0.8,0.4-0.8,0.8v1.6h0.8v-1.6h2
			c0.6,0,1.1-0.2,1.6-0.6v2.2h0.8v-2.2c0.4,0.4,1,0.6,1.6,0.6h2v1.6h0.8v-1.6C650.8,599.5,650.4,599.2,650,599.2z"/>
	</g>
	<path class="st26" d="M939.5,595c-2.7,0-4.8,1.8-4.8,4.1c0,0,0,0,0,0.1c0,2.3,2.1,4.1,4.8,4.2c0,0,0,0,0.1,0c2.7,0,4.8-1.8,4.8-4.1
		c0,0,0,0,0-0.1C944.4,596.9,942.3,595,939.5,595C939.6,595,939.6,595,939.5,595z M941.4,601.2l-4.3-3.7l0.5-0.5l4.3,3.7
		L941.4,601.2z"/>
	<path class="st26" d="M939.5,650.1c-2.7,0-4.8,1.8-4.8,4.1c0,0,0,0,0,0.1c0,2.3,2.1,4.1,4.8,4.2c0,0,0,0,0.1,0
		c2.7,0,4.8-1.8,4.8-4.1c0,0,0,0,0-0.1C944.4,652,942.3,650.1,939.5,650.1C939.6,650.1,939.6,650.1,939.5,650.1z M941.4,656.4
		l-4.3-3.7l0.5-0.5l4.3,3.7L941.4,656.4z"/>
	<g>
		<circle class="st34" cx="344.2" cy="503.4" r="5.9"/>
		<text transform="matrix(1 0 0 1 341.9734 506.0978)" class="st21 st22 st29">?</text>
	</g>
</g>
</svg>
