<?xml version="1.0" encoding="utf-8"?>
<!-- Generator: Adobe Illustrator 26.0.1, SVG Export Plug-In . SVG Version: 6.00 Build 0)  -->
<svg version="1.1" xmlns="http://www.w3.org/2000/svg" xmlns:xlink="http://www.w3.org/1999/xlink" x="0px" y="0px"
	 viewBox="0 0 1380.3 263.7" style="enable-background:new 0 0 1380.3 263.7;" xml:space="preserve">
<style type="text/css">
	.st0{fill:none;stroke:#393939;stroke-width:0.75;stroke-miterlimit:10;}
	.st1{fill:#F2F2F2;}
	.st2{fill:#E0E0E0;stroke:#E0E0E0;stroke-miterlimit:10;}
	.st3{fill:#FFFFFF;stroke:#E0E0E0;stroke-miterlimit:10;}
	.st4{fill:#D92F30;}
	.st5{clip-path:url(#SVGID_00000146460986829611390920000004197342977121636495_);fill:#3BA85B;}
	.st6{clip-path:url(#SVGID_00000059995729804371432150000005216945327524155580_);fill:#3BA85B;}
	.st7{fill:#0F62FE;}
	.st8{fill:none;stroke:#DFE3E6;stroke-width:0.857;stroke-miterlimit:10;}
	.st9{fill:#FFFFFF;stroke:#000000;stroke-width:0.955;stroke-miterlimit:10;}
	.st10{font-family:'IBMPlexSans';}
	.st11{font-size:22px;}
	.st12{font-size:12px;}
	.st13{font-family:'IBMPlexSans-SemiBold';}
	.st14{font-size:18px;}
	.st15{fill:#F2F2F2;stroke:#DFE3E6;stroke-width:0.75;stroke-miterlimit:10;}
	.st16{clip-path:url(#SVGID_00000147201745108765741650000016783135967287541175_);fill:#3BA85B;}
	.st17{clip-path:url(#SVGID_00000031180495882663594850000010133513001477526453_);fill:#3BA85B;}
	.st18{clip-path:url(#SVGID_00000013167011586030649780000005561673805646609835_);fill:#FFFFFF;}
	
		.st19{clip-path:url(#SVGID_00000150099316587114542250000004823588372380649346_);fill:none;stroke:#000000;stroke-width:0.75;stroke-linecap:round;stroke-linejoin:round;}
	
		.st20{clip-path:url(#SVGID_00000097471657930753116160000010599088194584058040_);fill:none;stroke:#000000;stroke-width:0.75;stroke-linecap:round;}
	
		.st21{clip-path:url(#SVGID_00000013169119338495396940000018164505955395655070_);fill:none;stroke:#000000;stroke-width:0.75;stroke-linecap:round;}
	
		.st22{clip-path:url(#SVGID_00000008852861192234213240000008122529126441373610_);fill:none;stroke:#000000;stroke-width:0.75;stroke-linecap:round;}
	.st23{fill:#116DF6;}
	.st24{clip-path:url(#SVGID_00000116213150415791723020000009958663306614558353_);fill:#3BA85B;}
	.st25{clip-path:url(#SVGID_00000132782209124625557350000011402549802947064705_);fill:#3BA85B;}
	.st26{clip-path:url(#SVGID_00000021081180266396790170000006427588949524622730_);fill:#FFFFFF;}
	
		.st27{clip-path:url(#SVGID_00000054248362206189870220000003955995521284062645_);fill:none;stroke:#000000;stroke-width:0.75;stroke-linecap:round;stroke-linejoin:round;}
	
		.st28{clip-path:url(#SVGID_00000177481859029131121440000005470369944667054496_);fill:none;stroke:#000000;stroke-width:0.75;stroke-linecap:round;}
	
		.st29{clip-path:url(#SVGID_00000147930418389566386130000014042387099218170248_);fill:none;stroke:#000000;stroke-width:0.75;stroke-linecap:round;}
	
		.st30{clip-path:url(#SVGID_00000125561138180018868560000010198986029088050855_);fill:none;stroke:#000000;stroke-width:0.75;stroke-linecap:round;}
	.st31{fill:#FFFFFF;stroke:#DFE3E6;stroke-width:0.75;stroke-miterlimit:10;}
	.st32{fill:#393939;}
	.st33{clip-path:url(#SVGID_00000101067309322724096350000017783817951641194633_);fill:#FFFFFF;}
	
		.st34{clip-path:url(#SVGID_00000082338512364961744680000012155259349919590315_);fill:none;stroke:#000000;stroke-width:0.75;stroke-linecap:round;stroke-linejoin:round;}
	
		.st35{clip-path:url(#SVGID_00000105395117064709404220000002716611639036385688_);fill:none;stroke:#000000;stroke-width:0.75;stroke-linecap:round;}
	
		.st36{clip-path:url(#SVGID_00000067221086921219736610000001098291104804129187_);fill:none;stroke:#000000;stroke-width:0.75;stroke-linecap:round;}
	
		.st37{clip-path:url(#SVGID_00000061460310800024783300000013905629931091778483_);fill:none;stroke:#000000;stroke-width:0.75;stroke-linecap:round;}
	.st38{fill:#FFFFFF;}
</style>
<g id="Graphics">
	<g>
		<line class="st0" x1="680.6" y1="164" x2="709.3" y2="135.3"/>
		<line class="st0" x1="680.2" y1="106.7" x2="709.1" y2="135.6"/>
	</g>
	<g>
		<line class="st0" x1="1027.5" y1="164" x2="1056.3" y2="135.3"/>
		<line class="st0" x1="1027.2" y1="106.7" x2="1056.1" y2="135.6"/>
	</g>
	<g>
		<line class="st0" x1="333.6" y1="164" x2="362.4" y2="135.3"/>
		<line class="st0" x1="333.2" y1="106.7" x2="362.2" y2="135.6"/>
	</g>
</g>
<g id="Text">
	<g>
		<g id="History">
			<rect x="1064.1" y="14.5" class="st1" width="305.3" height="227.4"/>
			<rect x="1078.3" y="82.7" class="st2" width="276.7" height="34"/>
			<rect x="1078.3" y="116.2" class="st3" width="276.7" height="34"/>
			<polyline class="st3" points="1355.1,151.1 1355.1,185.1 1078.3,185.1 1078.3,151.1 			"/>
			<polyline class="st3" points="1355.1,186 1355.1,220 1078.3,220 1078.3,186 			"/>
			<rect x="1255.4" y="125.7" class="st1" width="85.2" height="14"/>
			<g>
				<path class="st4" d="M1193.9,125.7c-4.2,0-7.5,3.3-7.5,7.5c0,4.2,3.3,7.5,7.5,7.5c4.2,0,7.5-3.3,7.5-7.5
					C1201.4,129.1,1198.1,125.7,1193.9,125.7 M1196.9,137l-6.7-6.7l0.8-0.8l6.7,6.7L1196.9,137z"/>
			</g>
			<g>
				<defs>
					<path id="SVGID_1_" d="M1196.5,166.1l1.3,1.3l-5.2,5.3l-3.1-3.2l1.3-1.3l1.8,1.8L1196.5,166.1z M1186.4,169.3
						c0,4.1,3.4,7.5,7.5,7.5s7.5-3.4,7.5-7.5c0-4.1-3.4-7.5-7.5-7.5S1186.4,165.2,1186.4,169.3"/>
				</defs>
				<clipPath id="SVGID_00000001655646096598372120000016747031448495315131_">
					<use xlink:href="#SVGID_1_"  style="overflow:visible;"/>
				</clipPath>
				
					<rect x="1186.4" y="161.8" style="clip-path:url(#SVGID_00000001655646096598372120000016747031448495315131_);fill:#3BA85B;" width="15" height="15"/>
				
					<rect x="1181.7" y="157.2" style="clip-path:url(#SVGID_00000001655646096598372120000016747031448495315131_);fill:#3BA85B;" width="24.4" height="24.4"/>
			</g>
			<g>
				<defs>
					<path id="SVGID_00000162335440585136300420000013603714916062252937_" d="M1196.5,199.7l1.3,1.3l-5.2,5.3l-3.1-3.2l1.3-1.3
						l1.8,1.8L1196.5,199.7z M1186.4,203c0,4.1,3.4,7.5,7.5,7.5s7.5-3.4,7.5-7.5c0-4.1-3.4-7.5-7.5-7.5S1186.4,198.9,1186.4,203"/>
				</defs>
				<clipPath id="SVGID_00000060737848699724837190000014583235583034070447_">
					<use xlink:href="#SVGID_00000162335440585136300420000013603714916062252937_"  style="overflow:visible;"/>
				</clipPath>
				
					<rect x="1186.4" y="195.5" style="clip-path:url(#SVGID_00000060737848699724837190000014583235583034070447_);fill:#3BA85B;" width="15" height="15"/>
				
					<rect x="1181.7" y="190.8" style="clip-path:url(#SVGID_00000060737848699724837190000014583235583034070447_);fill:#3BA85B;" width="24.4" height="24.4"/>
			</g>
			<g>
				<polygon class="st7" points="1352.4,40.8 1351.6,40.1 1347.5,44.1 1347.5,33.8 1346.5,33.8 1346.5,44.1 1342.4,40.1 
					1341.6,40.8 1347,46.2 				"/>
				<path class="st7" d="M1352.4,45.7v2.1h-10.7v-2.1h-1.1v2.1c0,0.6,0.5,1.1,1.1,1.1h10.7c0.6,0,1.1-0.5,1.1-1.1v-2.1H1352.4z"/>
			</g>
			<rect x="1255.4" y="161.1" class="st1" width="69.2" height="14"/>
			<rect x="1255.4" y="196" class="st1" width="69.2" height="14"/>
			<rect x="1064.1" y="14.5" class="st8" width="305.3" height="227.4"/>
		</g>
		<g>
			<path class="st9" d="M1080.9,239.3c0,9.3-7.5,16.9-16.9,16.9c-9.3,0-16.9-7.5-16.9-16.9c0-9.3,7.5-16.9,16.9-16.9
				C1073.4,222.5,1080.9,230,1080.9,239.3z"/>
			<text transform="matrix(1 0 0 1 1057.4563 245.9818)" class="st10 st11">4</text>
		</g>
		<text transform="matrix(1 0 0 1 1086.9521 206.2886)" class="st10 st12">08/10/2020</text>
		<text transform="matrix(1 0 0 1 1086.9524 173.257)" class="st10 st12">08/11/2020</text>
		<text transform="matrix(1 0 0 1 1086.952 138.6539)" class="st10 st12">08/12/2020</text>
		<text transform="matrix(1 0 0 1 1255.3984 104.4069)" class="st13 st12">Failure reason</text>
		<text transform="matrix(1 0 0 1 1185.4093 104.4071)" class="st13 st12">Status</text>
		<text transform="matrix(1 0 0 1 1086.9525 104.4071)" class="st13 st12">Scan</text>
		<text transform="matrix(1 0 0 1 1078.3289 48.8805)" class="st10 st14">Resource history</text>
	</g>
	<g>
		<g id="Eval_results">
			<rect x="20.9" y="14.5" class="st15" width="305.3" height="227.4"/>
			<rect x="35.2" y="82.7" class="st2" width="276.7" height="34"/>
			<rect x="35.2" y="116.2" class="st3" width="276.7" height="34"/>
			<polyline class="st3" points="311.9,151.1 311.9,185.1 35.2,185.1 35.2,151.1 			"/>
			<polyline class="st3" points="311.9,186 311.9,220 35.2,220 35.2,186 			"/>
			<g>
				<path class="st4" d="M253.8,125.7c-4.2,0-7.5,3.3-7.5,7.5c0,4.2,3.3,7.5,7.5,7.5c4.2,0,7.5-3.3,7.5-7.5
					C261.3,129.1,257.9,125.7,253.8,125.7 M256.7,137l-6.7-6.7l0.8-0.8l6.7,6.7L256.7,137z"/>
			</g>
			<g>
				<defs>
					<path id="SVGID_00000129173847870244060680000015472645231533934469_" d="M256.4,166.1l1.3,1.3l-5.2,5.3l-3.1-3.2l1.3-1.3
						l1.8,1.8L256.4,166.1z M246.3,169.3c0,4.1,3.4,7.5,7.5,7.5c4.1,0,7.5-3.4,7.5-7.5c0-4.1-3.4-7.5-7.5-7.5
						C249.6,161.8,246.3,165.2,246.3,169.3"/>
				</defs>
				<clipPath id="SVGID_00000098215012860635790920000016232436883267293105_">
					<use xlink:href="#SVGID_00000129173847870244060680000015472645231533934469_"  style="overflow:visible;"/>
				</clipPath>
				
					<rect x="246.3" y="161.8" style="clip-path:url(#SVGID_00000098215012860635790920000016232436883267293105_);fill:#3BA85B;" width="15" height="15"/>
				
					<rect x="241.6" y="157.2" style="clip-path:url(#SVGID_00000098215012860635790920000016232436883267293105_);fill:#3BA85B;" width="24.4" height="24.4"/>
			</g>
			<g>
				<defs>
					<path id="SVGID_00000183949766780636565930000002536882037243249315_" d="M256.4,199.7l1.3,1.3l-5.2,5.3l-3.1-3.2l1.3-1.3
						l1.8,1.8L256.4,199.7z M246.3,203c0,4.1,3.4,7.5,7.5,7.5c4.1,0,7.5-3.4,7.5-7.5c0-4.1-3.4-7.5-7.5-7.5
						C249.6,195.5,246.3,198.9,246.3,203"/>
				</defs>
				<clipPath id="SVGID_00000173134675009466157570000004781014922105532322_">
					<use xlink:href="#SVGID_00000183949766780636565930000002536882037243249315_"  style="overflow:visible;"/>
				</clipPath>
				
					<rect x="246.3" y="195.5" style="clip-path:url(#SVGID_00000173134675009466157570000004781014922105532322_);fill:#3BA85B;" width="15" height="15"/>
				
					<rect x="241.6" y="190.8" style="clip-path:url(#SVGID_00000173134675009466157570000004781014922105532322_);fill:#3BA85B;" width="24.4" height="24.4"/>
			</g>
			<g>
				<polygon class="st7" points="309.2,40.8 308.5,40.1 304.4,44.1 304.4,33.8 303.3,33.8 303.3,44.1 299.2,40.1 298.5,40.8 
					303.9,46.2 				"/>
				<path class="st7" d="M309.2,45.7v2.1h-10.7v-2.1h-1.1v2.1c0,0.6,0.5,1.1,1.1,1.1h10.7c0.6,0,1.1-0.5,1.1-1.1v-2.1H309.2z"/>
			</g>
		</g>
		<g>
			<circle class="st9" cx="20.9" cy="239.3" r="16.9"/>
			<text transform="matrix(1 0 0 1 14.311 245.9827)" class="st10 st11">1</text>
		</g>
		<g>
			<g>
				<g>
					<defs>
						<rect id="SVGID_00000078006683841409207650000006412056672191343272_" x="170.3" y="164.4" width="32" height="32"/>
					</defs>
					<clipPath id="SVGID_00000060750565480855558330000011345348978657686422_">
						<use xlink:href="#SVGID_00000078006683841409207650000006412056672191343272_"  style="overflow:visible;"/>
					</clipPath>
					<path style="clip-path:url(#SVGID_00000060750565480855558330000011345348978657686422_);fill:#FFFFFF;" d="M181.6,184.8
						c-0.3-0.4-0.6-1.1-1.2-2c-0.3-0.5-1.2-1.5-1.5-1.9c-0.2-0.4-0.2-0.6-0.1-1c0.1-0.6,0.7-1.1,1.4-1.1c0.5,0,1,0.4,1.4,0.7
						c0.2,0.2,0.5,0.6,0.7,0.8c0.2,0.2,0.2,0.3,0.4,0.5c0.2,0.3,0.3,0.5,0.2,0.1c-0.1-0.5-0.2-1.3-0.4-2.1c-0.1-0.6-0.2-0.7-0.3-1.1
						c-0.1-0.5-0.2-0.8-0.3-1.3c-0.1-0.3-0.2-1.1-0.3-1.5c-0.1-0.5-0.1-1.4,0.3-1.8c0.3-0.3,0.9-0.4,1.3-0.2c0.5,0.3,0.8,1,0.9,1.3
						c0.2,0.5,0.4,1.2,0.5,2c0.2,1,0.5,2.5,0.5,2.8c0-0.4-0.1-1.1,0-1.5c0.1-0.3,0.3-0.7,0.7-0.8c0.3-0.1,0.6-0.1,0.9-0.1
						c0.3,0.1,0.6,0.3,0.8,0.5c0.4,0.6,0.4,1.9,0.4,1.8c0.1-0.4,0.1-1.2,0.3-1.6c0.1-0.2,0.5-0.4,0.7-0.5c0.3-0.1,0.7-0.1,1,0
						c0.2,0,0.6,0.3,0.7,0.5c0.2,0.3,0.3,1.3,0.4,1.7c0,0.1,0.1-0.4,0.3-0.7c0.4-0.6,1.8-0.8,1.9,0.6c0,0.7,0,0.6,0,1.1s0,0.8,0,1.2
						s-0.1,1.3-0.2,1.7c-0.1,0.3-0.4,1-0.7,1.4c0,0-1.1,1.2-1.2,1.8c-0.1,0.6-0.1,0.6-0.1,1c0,0.4,0.1,0.9,0.1,0.9s-0.8,0.1-1.2,0
						c-0.4-0.1-0.9-0.8-1-1.1c-0.2-0.3-0.5-0.3-0.7,0c-0.2,0.4-0.7,1.1-1.1,1.1c-0.7,0.1-2.1,0-3.1,0c0,0,0.2-1-0.2-1.4
						c-0.3-0.3-0.8-0.8-1.1-1.1L181.6,184.8z"/>
				</g>
				<g>
					<defs>
						<rect id="SVGID_00000053522749493792572540000017421256195204704395_" x="170.3" y="164.4" width="32" height="32"/>
					</defs>
					<clipPath id="SVGID_00000080174333704145711840000005900189045865349531_">
						<use xlink:href="#SVGID_00000053522749493792572540000017421256195204704395_"  style="overflow:visible;"/>
					</clipPath>
					
						<path style="clip-path:url(#SVGID_00000080174333704145711840000005900189045865349531_);fill:none;stroke:#000000;stroke-width:0.75;stroke-linecap:round;stroke-linejoin:round;" d="
						M181.6,184.8c-0.3-0.4-0.6-1.1-1.2-2c-0.3-0.5-1.2-1.5-1.5-1.9c-0.2-0.4-0.2-0.6-0.1-1c0.1-0.6,0.7-1.1,1.4-1.1
						c0.5,0,1,0.4,1.4,0.7c0.2,0.2,0.5,0.6,0.7,0.8c0.2,0.2,0.2,0.3,0.4,0.5c0.2,0.3,0.3,0.5,0.2,0.1c-0.1-0.5-0.2-1.3-0.4-2.1
						c-0.1-0.6-0.2-0.7-0.3-1.1c-0.1-0.5-0.2-0.8-0.3-1.3c-0.1-0.3-0.2-1.1-0.3-1.5c-0.1-0.5-0.1-1.4,0.3-1.8
						c0.3-0.3,0.9-0.4,1.3-0.2c0.5,0.3,0.8,1,0.9,1.3c0.2,0.5,0.4,1.2,0.5,2c0.2,1,0.5,2.5,0.5,2.8c0-0.4-0.1-1.1,0-1.5
						c0.1-0.3,0.3-0.7,0.7-0.8c0.3-0.1,0.6-0.1,0.9-0.1c0.3,0.1,0.6,0.3,0.8,0.5c0.4,0.6,0.4,1.9,0.4,1.8c0.1-0.4,0.1-1.2,0.3-1.6
						c0.1-0.2,0.5-0.4,0.7-0.5c0.3-0.1,0.7-0.1,1,0c0.2,0,0.6,0.3,0.7,0.5c0.2,0.3,0.3,1.3,0.4,1.7c0,0.1,0.1-0.4,0.3-0.7
						c0.4-0.6,1.8-0.8,1.9,0.6c0,0.7,0,0.6,0,1.1s0,0.8,0,1.2s-0.1,1.3-0.2,1.7c-0.1,0.3-0.4,1-0.7,1.4c0,0-1.1,1.2-1.2,1.8
						c-0.1,0.6-0.1,0.6-0.1,1c0,0.4,0.1,0.9,0.1,0.9s-0.8,0.1-1.2,0c-0.4-0.1-0.9-0.8-1-1.1c-0.2-0.3-0.5-0.3-0.7,0
						c-0.2,0.4-0.7,1.1-1.1,1.1c-0.7,0.1-2.1,0-3.1,0c0,0,0.2-1-0.2-1.4c-0.3-0.3-0.8-0.8-1.1-1.1L181.6,184.8z"/>
				</g>
				<g>
					<defs>
						<rect id="SVGID_00000009552084059071385780000000933840891740199835_" x="170.3" y="164.4" width="32" height="32"/>
					</defs>
					<clipPath id="SVGID_00000133511259115531275190000003456689299775617424_">
						<use xlink:href="#SVGID_00000009552084059071385780000000933840891740199835_"  style="overflow:visible;"/>
					</clipPath>
					
						<line style="clip-path:url(#SVGID_00000133511259115531275190000003456689299775617424_);fill:none;stroke:#000000;stroke-width:0.75;stroke-linecap:round;" x1="189.9" y1="185.1" x2="189.9" y2="181.7"/>
				</g>
				<g>
					<defs>
						<rect id="SVGID_00000182509529173035231050000012184666801876754095_" x="170.3" y="164.4" width="32" height="32"/>
					</defs>
					<clipPath id="SVGID_00000057852732727861554720000012001864923501155759_">
						<use xlink:href="#SVGID_00000182509529173035231050000012184666801876754095_"  style="overflow:visible;"/>
					</clipPath>
					
						<line style="clip-path:url(#SVGID_00000057852732727861554720000012001864923501155759_);fill:none;stroke:#000000;stroke-width:0.75;stroke-linecap:round;" x1="187.9" y1="185.1" x2="187.8" y2="181.7"/>
				</g>
				<g>
					<defs>
						<rect id="SVGID_00000179625493343189486480000008860241869315399062_" x="170.3" y="164.4" width="32" height="32"/>
					</defs>
					<clipPath id="SVGID_00000162319434967904384140000003437407002846926006_">
						<use xlink:href="#SVGID_00000179625493343189486480000008860241869315399062_"  style="overflow:visible;"/>
					</clipPath>
					
						<line style="clip-path:url(#SVGID_00000162319434967904384140000003437407002846926006_);fill:none;stroke:#000000;stroke-width:0.75;stroke-linecap:round;" x1="185.9" y1="181.7" x2="185.9" y2="185.1"/>
				</g>
			</g>
		</g>
		<text transform="matrix(1 0 0 1 43.8066 206.2886)" class="st23 st10 st12">Public access rule - prod</text>
		<text transform="matrix(1 0 0 1 43.8068 173.257)" class="st23 st10 st12">Public access rule - stage</text>
		<text transform="matrix(1 0 0 1 43.8064 138.6539)" class="st23 st10 st12">Public access rule - dev</text>
		<text transform="matrix(1 0 0 1 246.2742 104.4072)" class="st13 st12">Status</text>
		<text transform="matrix(1 0 0 1 43.807 104.4071)" class="st13 st12">Rule name</text>
		<text transform="matrix(1 0 0 1 35.1834 48.8805)" class="st10 st14">Evaluation results</text>
	</g>
	<g>
		<g id="Eval_results_1_">
			<rect x="368.8" y="14.5" class="st15" width="305.3" height="227.4"/>
			<rect x="383.1" y="82.7" class="st2" width="276.7" height="34"/>
			<rect x="383.1" y="116.2" class="st3" width="276.7" height="34"/>
			<polyline class="st3" points="659.8,151.1 659.8,185.1 383.1,185.1 383.1,151.1 			"/>
			<polyline class="st3" points="659.8,186 659.8,220 383.1,220 383.1,186 			"/>
			<g>
				<path class="st4" d="M601.7,125.7c-4.2,0-7.5,3.3-7.5,7.5c0,4.2,3.3,7.5,7.5,7.5c4.2,0,7.5-3.3,7.5-7.5
					C609.2,129.1,605.8,125.7,601.7,125.7 M604.6,137l-6.7-6.7l0.8-0.8l6.7,6.7L604.6,137z"/>
			</g>
			<g>
				<defs>
					<path id="SVGID_00000120542530819457830370000001703811744069987228_" d="M604.3,166.1l1.3,1.3l-5.2,5.3l-3.1-3.2l1.3-1.3
						l1.8,1.8L604.3,166.1z M594.2,169.3c0,4.1,3.4,7.5,7.5,7.5c4.1,0,7.5-3.4,7.5-7.5c0-4.1-3.4-7.5-7.5-7.5
						C597.5,161.8,594.2,165.2,594.2,169.3"/>
				</defs>
				<clipPath id="SVGID_00000092436209093995229540000018291735206257515404_">
					<use xlink:href="#SVGID_00000120542530819457830370000001703811744069987228_"  style="overflow:visible;"/>
				</clipPath>
				
					<rect x="594.2" y="161.8" style="clip-path:url(#SVGID_00000092436209093995229540000018291735206257515404_);fill:#3BA85B;" width="15" height="15"/>
				
					<rect x="589.5" y="157.2" style="clip-path:url(#SVGID_00000092436209093995229540000018291735206257515404_);fill:#3BA85B;" width="24.4" height="24.4"/>
			</g>
			<g>
				<defs>
					<path id="SVGID_00000018948456888162922350000000488589545371110587_" d="M604.3,199.7l1.3,1.3l-5.2,5.3l-3.1-3.2l1.3-1.3
						l1.8,1.8L604.3,199.7z M594.2,203c0,4.1,3.4,7.5,7.5,7.5c4.1,0,7.5-3.4,7.5-7.5c0-4.1-3.4-7.5-7.5-7.5
						C597.5,195.5,594.2,198.9,594.2,203"/>
				</defs>
				<clipPath id="SVGID_00000033341706296986256270000014648158332038507162_">
					<use xlink:href="#SVGID_00000018948456888162922350000000488589545371110587_"  style="overflow:visible;"/>
				</clipPath>
				
					<rect x="594.2" y="195.5" style="clip-path:url(#SVGID_00000033341706296986256270000014648158332038507162_);fill:#3BA85B;" width="15" height="15"/>
				
					<rect x="589.5" y="190.8" style="clip-path:url(#SVGID_00000033341706296986256270000014648158332038507162_);fill:#3BA85B;" width="24.4" height="24.4"/>
			</g>
			<g>
				<polygon class="st7" points="657.1,40.8 656.4,40.1 652.3,44.1 652.3,33.8 651.2,33.8 651.2,44.1 647.1,40.1 646.4,40.8 
					651.7,46.2 				"/>
				<path class="st7" d="M657.1,45.7v2.1h-10.7v-2.1h-1.1v2.1c0,0.6,0.5,1.1,1.1,1.1h10.7c0.6,0,1.1-0.5,1.1-1.1v-2.1H657.1z"/>
			</g>
		</g>
		<g>
			<circle class="st9" cx="368.8" cy="239.3" r="16.9"/>
			<text transform="matrix(1 0 0 1 362.2034 245.9828)" class="st10 st11">2</text>
		</g>
		<g>
			<g>
				<g>
					<defs>
						<rect id="SVGID_00000065765151574376663950000006366616305257345957_" x="512" y="133.1" width="32" height="32"/>
					</defs>
					<clipPath id="SVGID_00000099658809392328765390000008342123407820220326_">
						<use xlink:href="#SVGID_00000065765151574376663950000006366616305257345957_"  style="overflow:visible;"/>
					</clipPath>
					<path style="clip-path:url(#SVGID_00000099658809392328765390000008342123407820220326_);fill:#FFFFFF;" d="M523.3,153.5
						c-0.3-0.4-0.6-1.1-1.2-2c-0.3-0.5-1.2-1.5-1.5-1.9c-0.2-0.4-0.2-0.6-0.1-1c0.1-0.6,0.7-1.1,1.4-1.1c0.5,0,1,0.4,1.4,0.7
						c0.2,0.2,0.5,0.6,0.7,0.8c0.2,0.2,0.2,0.3,0.4,0.5c0.2,0.3,0.3,0.5,0.2,0.1c-0.1-0.5-0.2-1.3-0.4-2.1c-0.1-0.6-0.2-0.7-0.3-1.1
						c-0.1-0.5-0.2-0.8-0.3-1.3c-0.1-0.3-0.2-1.1-0.3-1.5c-0.1-0.5-0.1-1.4,0.3-1.8c0.3-0.3,0.9-0.4,1.3-0.2c0.5,0.3,0.8,1,0.9,1.3
						c0.2,0.5,0.4,1.2,0.5,2c0.2,1,0.5,2.5,0.5,2.8c0-0.4-0.1-1.1,0-1.5c0.1-0.3,0.3-0.7,0.7-0.8c0.3-0.1,0.6-0.1,0.9-0.1
						c0.3,0.1,0.6,0.3,0.8,0.5c0.4,0.6,0.4,1.9,0.4,1.8c0.1-0.4,0.1-1.2,0.3-1.6c0.1-0.2,0.5-0.4,0.7-0.5c0.3-0.1,0.7-0.1,1,0
						c0.2,0,0.6,0.3,0.7,0.5c0.2,0.3,0.3,1.3,0.4,1.7c0,0.1,0.1-0.4,0.3-0.7c0.4-0.6,1.8-0.8,1.9,0.6c0,0.7,0,0.6,0,1.1s0,0.8,0,1.2
						s-0.1,1.3-0.2,1.7c-0.1,0.3-0.4,1-0.7,1.4c0,0-1.1,1.2-1.2,1.8c-0.1,0.6-0.1,0.6-0.1,1c0,0.4,0.1,0.9,0.1,0.9s-0.8,0.1-1.2,0
						c-0.4-0.1-0.9-0.8-1-1.1c-0.2-0.3-0.5-0.3-0.7,0c-0.2,0.4-0.7,1.1-1.1,1.1c-0.7,0.1-2.1,0-3.1,0c0,0,0.2-1-0.2-1.4
						c-0.3-0.3-0.8-0.8-1.1-1.1L523.3,153.5z"/>
				</g>
				<g>
					<defs>
						<rect id="SVGID_00000062900862300008704750000011200466505350683293_" x="512" y="133.1" width="32" height="32"/>
					</defs>
					<clipPath id="SVGID_00000153699976098535990710000012933668181693169811_">
						<use xlink:href="#SVGID_00000062900862300008704750000011200466505350683293_"  style="overflow:visible;"/>
					</clipPath>
					
						<path style="clip-path:url(#SVGID_00000153699976098535990710000012933668181693169811_);fill:none;stroke:#000000;stroke-width:0.75;stroke-linecap:round;stroke-linejoin:round;" d="
						M523.3,153.5c-0.3-0.4-0.6-1.1-1.2-2c-0.3-0.5-1.2-1.5-1.5-1.9c-0.2-0.4-0.2-0.6-0.1-1c0.1-0.6,0.7-1.1,1.4-1.1
						c0.5,0,1,0.4,1.4,0.7c0.2,0.2,0.5,0.6,0.7,0.8c0.2,0.2,0.2,0.3,0.4,0.5c0.2,0.3,0.3,0.5,0.2,0.1c-0.1-0.5-0.2-1.3-0.4-2.1
						c-0.1-0.6-0.2-0.7-0.3-1.1c-0.1-0.5-0.2-0.8-0.3-1.3c-0.1-0.3-0.2-1.1-0.3-1.5c-0.1-0.5-0.1-1.4,0.3-1.8
						c0.3-0.3,0.9-0.4,1.3-0.2c0.5,0.3,0.8,1,0.9,1.3c0.2,0.5,0.4,1.2,0.5,2c0.2,1,0.5,2.5,0.5,2.8c0-0.4-0.1-1.1,0-1.5
						c0.1-0.3,0.3-0.7,0.7-0.8c0.3-0.1,0.6-0.1,0.9-0.1c0.3,0.1,0.6,0.3,0.8,0.5c0.4,0.6,0.4,1.9,0.4,1.8c0.1-0.4,0.1-1.2,0.3-1.6
						c0.1-0.2,0.5-0.4,0.7-0.5c0.3-0.1,0.7-0.1,1,0c0.2,0,0.6,0.3,0.7,0.5c0.2,0.3,0.3,1.3,0.4,1.7c0,0.1,0.1-0.4,0.3-0.7
						c0.4-0.6,1.8-0.8,1.9,0.6c0,0.7,0,0.6,0,1.1s0,0.8,0,1.2s-0.1,1.3-0.2,1.7c-0.1,0.3-0.4,1-0.7,1.4c0,0-1.1,1.2-1.2,1.8
						c-0.1,0.6-0.1,0.6-0.1,1c0,0.4,0.1,0.9,0.1,0.9s-0.8,0.1-1.2,0c-0.4-0.1-0.9-0.8-1-1.1c-0.2-0.3-0.5-0.3-0.7,0
						c-0.2,0.4-0.7,1.1-1.1,1.1c-0.7,0.1-2.1,0-3.1,0c0,0,0.2-1-0.2-1.4c-0.3-0.3-0.8-0.8-1.1-1.1L523.3,153.5z"/>
				</g>
				<g>
					<defs>
						<rect id="SVGID_00000075140940123070507130000013592152760674918564_" x="512" y="133.1" width="32" height="32"/>
					</defs>
					<clipPath id="SVGID_00000078755757136132338940000010331460842010584493_">
						<use xlink:href="#SVGID_00000075140940123070507130000013592152760674918564_"  style="overflow:visible;"/>
					</clipPath>
					
						<line style="clip-path:url(#SVGID_00000078755757136132338940000010331460842010584493_);fill:none;stroke:#000000;stroke-width:0.75;stroke-linecap:round;" x1="531.6" y1="153.8" x2="531.6" y2="150.4"/>
				</g>
				<g>
					<defs>
						<rect id="SVGID_00000043440947695513458360000005018324711870440322_" x="512" y="133.1" width="32" height="32"/>
					</defs>
					<clipPath id="SVGID_00000109000104792787558260000015775198531357734291_">
						<use xlink:href="#SVGID_00000043440947695513458360000005018324711870440322_"  style="overflow:visible;"/>
					</clipPath>
					
						<line style="clip-path:url(#SVGID_00000109000104792787558260000015775198531357734291_);fill:none;stroke:#000000;stroke-width:0.75;stroke-linecap:round;" x1="529.6" y1="153.8" x2="529.5" y2="150.4"/>
				</g>
				<g>
					<defs>
						<rect id="SVGID_00000080204749253370410110000006055767964940304798_" x="512" y="133.1" width="32" height="32"/>
					</defs>
					<clipPath id="SVGID_00000054226893455591995190000011546250024606324624_">
						<use xlink:href="#SVGID_00000080204749253370410110000006055767964940304798_"  style="overflow:visible;"/>
					</clipPath>
					
						<line style="clip-path:url(#SVGID_00000054226893455591995190000011546250024606324624_);fill:none;stroke:#000000;stroke-width:0.75;stroke-linecap:round;" x1="527.6" y1="150.4" x2="527.6" y2="153.8"/>
				</g>
			</g>
		</g>
		<text transform="matrix(1 0 0 1 391.699 206.2886)" class="st23 st10 st12">crn:public:iam-groups:global:9246</text>
		<text transform="matrix(1 0 0 1 391.6992 173.257)" class="st23 st10 st12">crn:public:iam-groups:global:7493</text>
		<text transform="matrix(1 0 0 1 391.6988 138.6539)" class="st23 st10 st12">crn:public:iam-groups:global:3218</text>
		<text transform="matrix(1 0 0 1 594.1666 104.4072)" class="st13 st12">Status</text>
		<text transform="matrix(1 0 0 1 391.6994 104.4071)" class="st13 st12">Resource</text>
		<text transform="matrix(1 0 0 1 383.0757 48.8805)" class="st10 st14">Evaluation results</text>
	</g>
	<g>
		<rect x="716.3" y="14.5" class="st31" width="305.3" height="227.4"/>
		<rect x="774" y="204.3" class="st32" width="123.6" height="37.6"/>
		<g>
			<line class="st3" x1="1007.3" y1="150.8" x2="730.6" y2="150.8"/>
			<line class="st3" x1="730.6" y1="116.8" x2="1007.3" y2="116.8"/>
		</g>
		<g>
			<polygon class="st7" points="1006.3,39.5 1005.5,38.7 1001.4,42.8 1001.4,32.5 1000.3,32.5 1000.3,42.8 996.3,38.7 995.5,39.5 
				1000.9,44.9 			"/>
			<path class="st7" d="M1006.3,44.3v2.1h-10.7v-2.1h-1.1v2.1c0,0.6,0.5,1.1,1.1,1.1h10.7c0.6,0,1.1-0.5,1.1-1.1v-2.1H1006.3z"/>
		</g>
		<g>
			<path class="st9" d="M733.5,239.3c0,9.3-7.5,16.9-16.9,16.9c-9.3,0-16.9-7.5-16.9-16.9c0-9.3,7.5-16.9,16.9-16.9
				C725.9,222.5,733.5,230,733.5,239.3z"/>
			<text transform="matrix(1 0 0 1 710.0154 245.9827)" class="st10 st11">3</text>
		</g>
		<g>
			<g>
				<g>
					<defs>
						<rect id="SVGID_00000064349835966516739330000000903014680628121485_" x="855.5" y="214" width="32" height="32"/>
					</defs>
					<clipPath id="SVGID_00000142175618904565726270000001136109453730647463_">
						<use xlink:href="#SVGID_00000064349835966516739330000000903014680628121485_"  style="overflow:visible;"/>
					</clipPath>
					<path style="clip-path:url(#SVGID_00000142175618904565726270000001136109453730647463_);fill:#FFFFFF;" d="M866.8,234.4
						c-0.3-0.4-0.6-1.1-1.2-2c-0.3-0.5-1.2-1.5-1.5-1.9c-0.2-0.4-0.2-0.6-0.1-1c0.1-0.6,0.7-1.1,1.4-1.1c0.5,0,1,0.4,1.4,0.7
						c0.2,0.2,0.5,0.6,0.7,0.8s0.2,0.3,0.4,0.5c0.2,0.3,0.3,0.5,0.2,0.1c-0.1-0.5-0.2-1.3-0.4-2.1c-0.1-0.6-0.2-0.7-0.3-1.1
						c-0.1-0.5-0.2-0.8-0.3-1.3c-0.1-0.3-0.2-1.1-0.3-1.5c-0.1-0.5-0.1-1.4,0.3-1.8c0.3-0.3,0.9-0.4,1.3-0.2c0.5,0.3,0.8,1,0.9,1.3
						c0.2,0.5,0.4,1.2,0.5,2c0.2,1,0.5,2.5,0.5,2.8c0-0.4-0.1-1.1,0-1.5c0.1-0.3,0.3-0.7,0.7-0.8c0.3-0.1,0.6-0.1,0.9-0.1
						c0.3,0.1,0.6,0.3,0.8,0.5c0.4,0.6,0.4,1.9,0.4,1.8c0.1-0.4,0.1-1.2,0.3-1.6c0.1-0.2,0.5-0.4,0.7-0.5c0.3-0.1,0.7-0.1,1,0
						c0.2,0,0.6,0.3,0.7,0.5c0.2,0.3,0.3,1.3,0.4,1.7c0,0.1,0.1-0.4,0.3-0.7c0.4-0.6,1.8-0.8,1.9,0.6c0,0.7,0,0.6,0,1.1s0,0.8,0,1.2
						c0,0.4-0.1,1.3-0.2,1.7c-0.1,0.3-0.4,1-0.7,1.4c0,0-1.1,1.2-1.2,1.8s-0.1,0.6-0.1,1s0.1,0.9,0.1,0.9s-0.8,0.1-1.2,0
						c-0.4-0.1-0.9-0.8-1-1.1c-0.2-0.3-0.5-0.3-0.7,0c-0.2,0.4-0.7,1.1-1.1,1.1c-0.7,0.1-2.1,0-3.1,0c0,0,0.2-1-0.2-1.4
						c-0.3-0.3-0.8-0.8-1.1-1.1L866.8,234.4z"/>
				</g>
				<g>
					<defs>
						<rect id="SVGID_00000053545629651144068190000004342683715999921820_" x="855.5" y="214" width="32" height="32"/>
					</defs>
					<clipPath id="SVGID_00000005971535442416568190000018138402153764736422_">
						<use xlink:href="#SVGID_00000053545629651144068190000004342683715999921820_"  style="overflow:visible;"/>
					</clipPath>
					
						<path style="clip-path:url(#SVGID_00000005971535442416568190000018138402153764736422_);fill:none;stroke:#000000;stroke-width:0.75;stroke-linecap:round;stroke-linejoin:round;" d="
						M866.8,234.4c-0.3-0.4-0.6-1.1-1.2-2c-0.3-0.5-1.2-1.5-1.5-1.9c-0.2-0.4-0.2-0.6-0.1-1c0.1-0.6,0.7-1.1,1.4-1.1
						c0.5,0,1,0.4,1.4,0.7c0.2,0.2,0.5,0.6,0.7,0.8s0.2,0.3,0.4,0.5c0.2,0.3,0.3,0.5,0.2,0.1c-0.1-0.5-0.2-1.3-0.4-2.1
						c-0.1-0.6-0.2-0.7-0.3-1.1c-0.1-0.5-0.2-0.8-0.3-1.3c-0.1-0.3-0.2-1.1-0.3-1.5c-0.1-0.5-0.1-1.4,0.3-1.8
						c0.3-0.3,0.9-0.4,1.3-0.2c0.5,0.3,0.8,1,0.9,1.3c0.2,0.5,0.4,1.2,0.5,2c0.2,1,0.5,2.5,0.5,2.8c0-0.4-0.1-1.1,0-1.5
						c0.1-0.3,0.3-0.7,0.7-0.8c0.3-0.1,0.6-0.1,0.9-0.1c0.3,0.1,0.6,0.3,0.8,0.5c0.4,0.6,0.4,1.9,0.4,1.8c0.1-0.4,0.1-1.2,0.3-1.6
						c0.1-0.2,0.5-0.4,0.7-0.5c0.3-0.1,0.7-0.1,1,0c0.2,0,0.6,0.3,0.7,0.5c0.2,0.3,0.3,1.3,0.4,1.7c0,0.1,0.1-0.4,0.3-0.7
						c0.4-0.6,1.8-0.8,1.9,0.6c0,0.7,0,0.6,0,1.1s0,0.8,0,1.2c0,0.4-0.1,1.3-0.2,1.7c-0.1,0.3-0.4,1-0.7,1.4c0,0-1.1,1.2-1.2,1.8
						s-0.1,0.6-0.1,1s0.1,0.9,0.1,0.9s-0.8,0.1-1.2,0c-0.4-0.1-0.9-0.8-1-1.1c-0.2-0.3-0.5-0.3-0.7,0c-0.2,0.4-0.7,1.1-1.1,1.1
						c-0.7,0.1-2.1,0-3.1,0c0,0,0.2-1-0.2-1.4c-0.3-0.3-0.8-0.8-1.1-1.1L866.8,234.4z"/>
				</g>
				<g>
					<defs>
						<rect id="SVGID_00000072979634805337751610000008195524452881070222_" x="855.5" y="214" width="32" height="32"/>
					</defs>
					<clipPath id="SVGID_00000003815641260553528650000006310323060869675451_">
						<use xlink:href="#SVGID_00000072979634805337751610000008195524452881070222_"  style="overflow:visible;"/>
					</clipPath>
					
						<line style="clip-path:url(#SVGID_00000003815641260553528650000006310323060869675451_);fill:none;stroke:#000000;stroke-width:0.75;stroke-linecap:round;" x1="875.1" y1="234.7" x2="875.1" y2="231.3"/>
				</g>
				<g>
					<defs>
						<rect id="SVGID_00000145777164649924257380000015441900161146890410_" x="855.5" y="214" width="32" height="32"/>
					</defs>
					<clipPath id="SVGID_00000110447982265795492510000015321627864176467372_">
						<use xlink:href="#SVGID_00000145777164649924257380000015441900161146890410_"  style="overflow:visible;"/>
					</clipPath>
					
						<line style="clip-path:url(#SVGID_00000110447982265795492510000015321627864176467372_);fill:none;stroke:#000000;stroke-width:0.75;stroke-linecap:round;" x1="873.1" y1="234.7" x2="873" y2="231.3"/>
				</g>
				<g>
					<defs>
						<rect id="SVGID_00000004522890562176628520000010207957602812256957_" x="855.5" y="214" width="32" height="32"/>
					</defs>
					<clipPath id="SVGID_00000179638738445867837020000015583431458125361569_">
						<use xlink:href="#SVGID_00000004522890562176628520000010207957602812256957_"  style="overflow:visible;"/>
					</clipPath>
					
						<line style="clip-path:url(#SVGID_00000179638738445867837020000015583431458125361569_);fill:none;stroke:#000000;stroke-width:0.75;stroke-linecap:round;" x1="871.1" y1="231.3" x2="871.1" y2="234.7"/>
				</g>
			</g>
		</g>
		<text transform="matrix(1 0 0 1 788.8176 226.5715)" class="st38 st10 st12">View history</text>
		<text transform="matrix(1 0 0 1 946.3586 138.6539)" class="st10 st12">false</text>
		<text transform="matrix(1 0 0 1 888.1736 138.6542)" class="st4 st10 st12">true</text>
		<text transform="matrix(1 0 0 1 741.0494 138.6539)" class="st10 st12">public_access_enabled</text>
		<text transform="matrix(1 0 0 1 946.3588 104.407)" class="st13 st12">Required</text>
		<text transform="matrix(1 0 0 1 888.1741 104.4069)" class="st13 st12">Current</text>
		<text transform="matrix(1 0 0 1 741.0495 104.4071)" class="st13 st12">Property</text>
		<text transform="matrix(1 0 0 1 731.5623 48.8806)" class="st10 st14">Resource details</text>
		<rect x="898" y="204.3" class="st7" width="123.6" height="37.6"/>
		<text transform="matrix(1 0 0 1 912.8176 226.5705)" class="st38 st10 st12">Download report</text>
	</g>
</g>
</svg>
