<?xml version="1.0" encoding="utf-8"?>
<!-- Generator: Adobe Illustrator 26.0.1, SVG Export Plug-In . SVG Version: 6.00 Build 0)  -->
<svg version="1.1" xmlns="http://www.w3.org/2000/svg" xmlns:xlink="http://www.w3.org/1999/xlink" x="0px" y="0px"
	 viewBox="0 0 864.3 693" style="enable-background:new 0 0 864.3 693;" xml:space="preserve">
<style type="text/css">
	.st0{fill:#F4F4F4;}
	.st1{fill:#FFFFFF;}
	.st2{fill:#FFFFFF;stroke:#C6C6C6;stroke-width:0.25;stroke-miterlimit:10;}
	.st3{fill:#E0E0E0;stroke:#C6C6C6;stroke-width:0.25;stroke-miterlimit:10;}
	.st4{fill:#F4F4F4;stroke:#C6C6C6;stroke-width:0.25;stroke-miterlimit:10;}
	.st5{fill:#8D8D8D;}
	.st6{font-family:'IBMPlexSans-Medium';}
	.st7{font-size:8px;}
	.st8{fill:none;stroke:#C6C6C6;stroke-width:0.5;stroke-miterlimit:10;}
	.st9{fill:none;stroke:#198038;stroke-miterlimit:10;}
	.st10{fill:none;stroke:#DA1E28;stroke-miterlimit:10;}
	.st11{fill:none;stroke:#F1C21B;stroke-miterlimit:10;}
	.st12{fill:#198038;stroke:#A8A8A8;stroke-width:0.25;stroke-miterlimit:10;}
	.st13{fill:none;stroke:#A8A8A8;stroke-miterlimit:10;}
	.st14{fill:#E0E0E0;stroke:#A8A8A8;stroke-width:0.25;stroke-miterlimit:10;}
	.st15{fill:none;stroke:#0F62FE;stroke-miterlimit:10;}
	.st16{fill:#F4F4F4;stroke:#198038;stroke-miterlimit:10;}
	.st17{fill:#F4F4F4;stroke:#DA1E28;stroke-miterlimit:10;}
	.st18{fill:#F4F4F4;stroke:#F1C21B;stroke-miterlimit:10;}
	.st19{fill:#198038;}
	.st20{fill:#DA1E28;}
	.st21{fill:#F1C21B;}
	.st22{fill:none;stroke:#8D8D8D;stroke-miterlimit:10;}
	.st23{fill:#C6C6C6;}
	.st24{fill:#E0E0E0;}
	.st25{opacity:0.5;fill:#3B95D1;enable-background:new    ;}
	.st26{fill:#3B95D1;}
	.st27{fill:#002D9C;}
	.st28{fill:none;stroke:#0F62FE;stroke-width:0.5;stroke-miterlimit:10;}
	.st29{fill:none;stroke:#525252;stroke-miterlimit:10;}
	.st30{fill:#0F62FE;}
	.st31{fill:none;stroke:#8D8D8D;stroke-width:0.5;stroke-miterlimit:10;}
	.st32{fill:#525252;}
	.st33{font-family:'IBMPlexSans-Bold';}
	.st34{font-size:9.1605px;}
	.st35{font-family:'IBMPlexSans';}
	.st36{font-size:34.9722px;}
	.st37{font-size:12px;}
	.st38{font-size:10px;}
	.st39{font-size:10.9926px;}
	.st40{font-size:23px;}
	.st41{enable-background:new    ;}
	.st42{font-family:'IBMPlexSans-SemiBold';}
	.st43{fill:#393939;}
	.st44{font-size:9px;}
	.st45{font-size:6.79px;}
	.st46{font-size:11px;}
	.st47{fill:none;stroke:#E0E0E0;stroke-width:0.5;stroke-miterlimit:10;}
	.st48{opacity:0.69;fill:#6F6F6F;stroke:#A8A8A8;stroke-width:0.25;stroke-miterlimit:10;}
	.st49{fill:#FFFFFF;stroke:#A8A8A8;stroke-width:0.25;stroke-miterlimit:10;}
	.st50{font-size:14px;}
	.st51{fill:#F4F4F4;stroke:#6F6F6F;stroke-width:0.5;stroke-miterlimit:10;}
	.st52{fill:#262626;stroke:#000000;stroke-width:0.5;stroke-miterlimit:10;}
	.st53{fill:none;stroke:#6F6F6F;stroke-width:0.5;stroke-miterlimit:10;}
	.st54{fill:#6F6F6F;}
</style>
<g id="Layer_1">
	<rect class="st0" width="864.3" height="693"/>
	<rect x="29.4" y="486" class="st1" width="804.9" height="207"/>
	<rect x="27.2" y="198" class="st1" width="213.9" height="274.3"/>
	<rect x="27.2" y="88.5" class="st2" width="805.1" height="58.2"/>
	<rect x="27.2" y="167.1" class="st2" width="104.7" height="30.9"/>
	<rect x="134" y="167.1" class="st3" width="107.1" height="28.8"/>
	<rect x="241.2" y="167.1" class="st3" width="105" height="28.8"/>
	<rect x="27.4" y="193.8" class="st1" width="104.5" height="6"/>
	<rect x="243.5" y="198" class="st2" width="213.9" height="274.3"/>
	<rect x="459.4" y="198" class="st2" width="372.9" height="274.3"/>
	<rect x="469.9" y="245.5" class="st4" width="349.3" height="19.2"/>
	<rect x="496.6" y="280.1" class="st4" width="323.9" height="123.7"/>
	<text transform="matrix(1 0 0 1 348.4856 402.6302)" class="st5 st6 st7">20</text>
	<text transform="matrix(1 0 0 1 348.4856 402.6302)" class="st5 st6 st7">20</text>
	<line class="st8" x1="529.6" y1="280" x2="529.6" y2="403.8"/>
	<line class="st8" x1="615.9" y1="280" x2="615.9" y2="403.9"/>
	<line class="st8" x1="703.5" y1="280.1" x2="703.5" y2="403.9"/>
	<line class="st8" x1="791.1" y1="280.1" x2="791.1" y2="403.8"/>
	<line class="st8" x1="572.7" y1="280" x2="572.7" y2="403.9"/>
	<line class="st8" x1="659.6" y1="280" x2="659.6" y2="403.9"/>
	<line class="st8" x1="747.3" y1="280" x2="747.3" y2="403.9"/>
	<line class="st8" x1="820.5" y1="381.8" x2="496.5" y2="381.8"/>
	<line class="st8" x1="820.6" y1="361.9" x2="496.6" y2="361.9"/>
	<line class="st8" x1="820.6" y1="341.9" x2="496.6" y2="341.9"/>
	<line class="st8" x1="820.5" y1="322.2" x2="496.6" y2="322.2"/>
	<line class="st8" x1="820.5" y1="302.4" x2="496.6" y2="302.4"/>
	<line class="st9" x1="529.6" y1="342.7" x2="615.8" y2="302.4"/>
	<line class="st9" x1="615.8" y1="302.4" x2="703.5" y2="361.9"/>
	<line class="st9" x1="703" y1="362.1" x2="792.4" y2="322.6"/>
	<line class="st9" x1="496.5" y1="381.8" x2="529.6" y2="342.7"/>
	<line class="st10" x1="496.5" y1="322.6" x2="615.8" y2="361.9"/>
	<line class="st10" x1="615.4" y1="361.9" x2="703.5" y2="322.6"/>
	<line class="st10" x1="703.1" y1="322.3" x2="791.6" y2="361.7"/>
	<line class="st11" x1="497.2" y1="394.6" x2="615.8" y2="394.6"/>
	<line class="st11" x1="615.5" y1="394.6" x2="703" y2="369.8"/>
	<line class="st11" x1="703" y1="369.8" x2="791.1" y2="394.6"/>
	<path class="st12" d="M177.7,294.5c-11.6-10.1-26.8-16.2-43.5-16.2c-36.7,0-66.4,29.7-66.4,66.4H50.4c0-46.3,37.5-83.8,83.8-83.8
		c21,0,40.2,7.7,54.9,20.5"/>
	<line class="st13" x1="200.6" y1="344.7" x2="218" y2="344.7"/>
	<path class="st14" d="M218,344.7c0-25.2-11.2-47.9-28.8-63.2L177,293.6l0.7,0.9c14,12.2,22.9,30.1,22.9,50.2"/>
	<line class="st15" x1="27.2" y1="167.1" x2="132" y2="167.1"/>
	<circle class="st16" cx="615.9" cy="302.4" r="1.7"/>
	<circle class="st16" cx="529.6" cy="342.7" r="1.7"/>
	<circle class="st17" cx="615.9" cy="361.8" r="1.7"/>
	<circle class="st18" cx="529.6" cy="394.6" r="1.7"/>
	<circle class="st18" cx="615.9" cy="394.5" r="1.7"/>
	<circle class="st17" cx="703.5" cy="322.6" r="1.7"/>
	<circle class="st16" cx="703.5" cy="361.8" r="1.7"/>
	<circle class="st18" cx="703.5" cy="369.6" r="1.7"/>
	<circle class="st16" cx="791.1" cy="322.6" r="1.7"/>
	<circle class="st17" cx="791.1" cy="361.8" r="1.7"/>
	<circle class="st18" cx="791.1" cy="394.6" r="1.7"/>
	<circle class="st17" cx="529.6" cy="333.5" r="1.7"/>
	<g>
		<path class="st19" d="M294.5,384c34.3,30.9,87.2,28.2,118.1-6.1s28.2-87.2-6.1-118.1c-15.2-13.7-34.9-21.3-55.3-21.5l-0.2,18.4
			c36,0.3,65,29.8,64.7,65.8c-0.3,36-29.8,65-65.8,64.7c-16-0.1-31.3-6.1-43.2-16.8l-12,13.3l0,0L294.5,384z"/>
		<path class="st20" d="M322.3,243.2c-22.9,8.2-41.7,26.2-50.4,50l17.3,6.3c6.7-18.5,21.5-32.9,40.1-39.3"/>
		<path class="st21" d="M329.3,260.2c7-2.4,14.3-3.6,21.7-3.5l0.2-18.4c-10-0.1-19.8,1.6-28.9,4.9"/>
		<path class="st20" d="M285.4,325.6c-0.5-8.9,0.8-17.7,3.9-26.1l-17.3-6.3c-3.9,10.7-5.6,22.1-5,33.4L285.4,325.6z"/>
		<path class="st20" d="M294.5,384l12.3-13.7c-12.8-11.5-20.5-27.7-21.4-44.9l-18.4,1C268.2,348.6,278.1,369.2,294.5,384z"/>
	</g>
	<rect x="271" y="423.6" class="st19" width="8.5" height="8.5"/>
	<rect x="343.5" y="423.6" class="st20" width="8.5" height="8.5"/>
	<rect x="299" y="446.5" class="st21" width="8.5" height="8.5"/>
	<rect x="471.7" y="446.5" class="st19" width="8.5" height="8.5"/>
	<rect x="636.2" y="446.5" class="st21" width="8.5" height="8.5"/>
	<g>
		<line class="st22" x1="805.6" y1="253.4" x2="811" y2="258.8"/>
		<line class="st22" x1="815.7" y1="253.4" x2="810.3" y2="258.8"/>
	</g>
	<rect x="37.6" y="523.5" class="st23" width="787.1" height="169.5"/>
	<rect x="37.6" y="553.7" class="st0" width="787.1" height="30.2"/>
	<rect x="37.6" y="585.1" class="st0" width="787.1" height="107.9"/>
	<g>
		<line class="st22" x1="45.2" y1="565.3" x2="50.6" y2="570.7"/>
		<line class="st22" x1="55.4" y1="565.3" x2="49.9" y2="570.7"/>
	</g>
	<g>
		<line class="st22" x1="55.4" y1="601.9" x2="49.9" y2="596.5"/>
		<line class="st22" x1="45.2" y1="601.9" x2="50.6" y2="596.5"/>
	</g>
	<rect x="65.8" y="614.4" class="st24" width="758.9" height="25.8"/>
	<path class="st19" d="M788.4,676.2c-2.6,0-4.6,2.1-4.6,4.6s2.1,4.6,4.6,4.6s4.6-2.1,4.6-4.6S791,676.2,788.4,676.2z M787.8,682.7
		l-1.7-1.7l0.5-0.5l1.1,1.1l2.5-2.5l0.5,0.5L787.8,682.7z"/>
	<path class="st20" d="M788.6,563.2c-2.7,0-4.8,1.8-4.8,4.1c0,0,0,0,0,0.1c0,2.3,2.1,4.1,4.8,4.2c0,0,0,0,0.1,0
		c2.7,0,4.8-1.8,4.8-4.1c0,0,0,0,0-0.1C793.5,565.1,791.3,563.2,788.6,563.2C788.7,563.2,788.6,563.2,788.6,563.2z M790.5,569.5
		l-4.3-3.7l0.5-0.5l4.3,3.7L790.5,569.5z"/>
	<g id="XMLID_00000168087227413678127780000013799631922235614647_">
		<path id="XMLID_00000016762219124178457410000011952690593174224784_" class="st25" d="M500.3,565.9c0-3-2.4-5.3-5.3-5.3
			c-3,0-5.3,2.4-5.3,5.3h1c0-2.4,1.9-4.3,4.3-4.3s4.3,1.9,4.3,4.3H500.3z"/>
		<path id="XMLID_00000044893118190363115840000016638600786344179087_" class="st26" d="M500.2,565.7l0.8,5.2h-1.3v1.6
			c0,0.6-0.7,1-1.3,1h-2.6v2.1h-6.2v-9.8L500.2,565.7z"/>
		<path id="XMLID_00000127752446191429934620000010002347651396574120_" class="st1" d="M494,568.6c0-0.5,0.4-0.9,0.9-0.9
			c0.5,0,0.9,0.4,0.9,0.9c0,0.3-0.2,0.6-0.4,0.8l0.3,1.8h-1.5l0.3-1.8C494.2,569.2,494,568.9,494,568.6z"/>
	</g>
	<g>
		<path class="st27" d="M492,604.7h-2.4v-2.4h2.4V604.7z M490.4,603.9h0.8v-0.8h-0.8V603.9z"/>
		<path class="st27" d="M496.3,604.7h-2.4v-2.4h2.4V604.7z M494.7,603.9h0.8v-0.8h-0.8V603.9z"/>
		<path class="st27" d="M500.6,604.7h-2.4v-2.4h2.4V604.7z M499,603.9h0.8v-0.8H499V603.9z"/>
		<path class="st27" d="M495.1,596.8c-0.9,0-1.6-0.7-1.6-1.6c0-0.9,0.7-1.6,1.6-1.6c0.9,0,1.6,0.7,1.6,1.6
			C496.7,596.1,496,596.8,495.1,596.8z M495.1,594.4c-0.4,0-0.8,0.4-0.8,0.8c0,0.4,0.4,0.8,0.8,0.8s0.8-0.4,0.8-0.8
			C495.9,594.8,495.6,594.4,495.1,594.4z"/>
		<path class="st27" d="M499,599.2h-2c-0.9,0-1.6-0.7-1.6-1.6h-0.8c0,0.9-0.7,1.6-1.6,1.6h-2c-0.4,0-0.8,0.4-0.8,0.8v1.6h0.8v-1.6h2
			c0.6,0,1.1-0.2,1.6-0.6v2.2h0.8v-2.2c0.4,0.4,1,0.6,1.6,0.6h2v1.6h0.8v-1.6C499.8,599.5,499.5,599.2,499,599.2z"/>
	</g>
	<path class="st20" d="M788.6,595c-2.7,0-4.8,1.8-4.8,4.1c0,0,0,0,0,0.1c0,2.3,2.1,4.1,4.8,4.2c0,0,0,0,0.1,0c2.7,0,4.8-1.8,4.8-4.1
		c0,0,0,0,0-0.1C793.5,596.9,791.3,595,788.6,595C788.7,595,788.6,595,788.6,595z M790.5,601.2l-4.3-3.7l0.5-0.5l4.3,3.7
		L790.5,601.2z"/>
	<path class="st20" d="M788.6,650.1c-2.7,0-4.8,1.8-4.8,4.1c0,0,0,0,0,0.1c0,2.3,2.1,4.1,4.8,4.2c0,0,0,0,0.1,0
		c2.7,0,4.8-1.8,4.8-4.1c0,0,0,0,0-0.1C793.5,652,791.3,650.1,788.6,650.1C788.7,650.1,788.6,650.1,788.6,650.1z M790.5,656.4
		l-4.3-3.7l0.5-0.5l4.3,3.7L790.5,656.4z"/>
	<rect x="708.6" y="40.7" class="st28" width="123.7" height="33.2"/>
	<circle class="st29" cx="121.6" cy="215.7" r="5.9"/>
	<circle class="st29" cx="344" cy="215.7" r="5.9"/>
	<circle class="st29" cx="507.6" cy="215.7" r="5.9"/>
	<rect x="544.1" y="446.5" class="st20" width="8.5" height="8.5"/>
	<g>
		<path class="st30" d="M690.5,65.1c-2.5,0-4.5-2-4.5-4.5s2-4.5,4.5-4.5s4.5,2,4.5,4.5S693,65.1,690.5,65.1z M690.5,57.3
			c-1.9,0-3.4,1.5-3.4,3.4c0,1.9,1.5,3.4,3.4,3.4c1.9,0,3.4-1.5,3.4-3.4C693.9,58.8,692.4,57.3,690.5,57.3z"/>
		<polygon class="st30" points="691.4,62.3 690,60.9 690,58.4 691.1,58.4 691.1,60.4 692.2,61.6 		"/>
		<path class="st30" d="M694.4,51.7c0-0.6-0.5-1.1-1.1-1.1h-2.2v-1.1H690v1.1h-4.5v-1.1h-1.1v1.1h-2.2c-0.6,0-1.1,0.5-1.1,1.1v11.2
			c0,0.6,0.5,1.1,1.1,1.1h2.2v-1.1h-2.2V51.7h2.2v1.1h1.1v-1.1h4.5v1.1h1.1v-1.1h2.2v3.4h1.1V51.7z"/>
	</g>
	<g>
		<path class="st30" d="M824.8,61v1.8h-9.2V61h-0.9v1.8l0,0c0,0.5,0.4,0.9,0.9,0.9h9.2c0.5,0,0.9-0.4,0.9-0.9l0,0V61H824.8z"/>
		<polygon class="st30" points="824.8,56.4 824.1,55.7 820.6,59.2 820.6,50.8 819.7,50.8 819.7,59.2 816.2,55.7 815.5,56.4 
			820.2,61 		"/>
	</g>
	<circle class="st31" cx="819.1" cy="111.1" r="4.4"/>
	<g>
		<path class="st5" d="M705.4,121.7v6.8h-6.8v-6.8H705.4 M705.4,120.9h-6.8c-0.4,0-0.8,0.3-0.8,0.8v6.8c0,0.4,0.3,0.8,0.8,0.8h6.8
			c0.4,0,0.8-0.3,0.8-0.8v-6.8C706.2,121.3,705.9,120.9,705.4,120.9z"/>
		<path class="st5" d="M696.4,124.7h-0.8v-5.3c0-0.4,0.3-0.8,0.8-0.8h5.3v0.8h-5.3V124.7z"/>
	</g>
	<g>
		<circle class="st29" cx="193.3" cy="503.4" r="5.9"/>
		<text transform="matrix(1 0 0 1 191.0488 506.0978)" class="st32 st33 st34">?</text>
	</g>
</g>
<g id="Layer_2">
	<text transform="matrix(1 0 0 1 505.374 218.3802)" class="st32 st33 st34">?</text>
	<text transform="matrix(1 0 0 1 489.6463 403.9306)" class="st5 st6 st7">0</text>
	<text transform="matrix(1 0 0 1 484.847 384.1917)" class="st5 st6 st7">20</text>
	<text transform="matrix(1 0 0 1 484.8465 364.453)" class="st5 st6 st7">40</text>
	<text transform="matrix(1 0 0 1 484.847 344.7148)" class="st5 st6 st7">60</text>
	<text transform="matrix(1 0 0 1 484.8467 324.9757)" class="st5 st6 st7">80</text>
	<text transform="matrix(1 0 0 1 480.0464 305.2371)" class="st5 st6 st7">100</text>
	<text transform="matrix(1 0 0 1 480.0466 285.498)" class="st5 st6 st7">120</text>
	<text transform="matrix(1 0 0 1 496.6151 414.2992)" class="st5 st6 st7">Nov 16, 4:30 AM</text>
	<text transform="matrix(1 0 0 1 584.6663 414.2993)" class="st5 st6 st7">Nov 17, 6:23 AM</text>
	<text transform="matrix(1 0 0 1 672.7164 414.2984)" class="st5 st6 st7">Nov 18, 7:00 AM</text>
	<text transform="matrix(1 0 0 1 760.9063 414.2985)" class="st5 st6 st7">Nov 18, 8:23 PM</text>
	<text transform="matrix(1 0 0 1 97.0161 332.4789)" class="st35 st36">64%</text>
	<text transform="matrix(1 0 0 1 35.2802 219.3549)" class="st32 st33 st37">Success rate</text>
	<text transform="matrix(1 0 0 1 106.7067 348.5886)" class="st32 st6 st38">419 / 655</text>
	<text transform="matrix(1 0 0 1 319.0268 332.4789)" class="st35 st36">390</text>
	<text transform="matrix(1 0 0 1 251.517 219.3549)" class="st32 st33 st37">Total controls</text>
	<text transform="matrix(1 0 0 1 282.1884 431.1234)" class="st32 st6 st38">Compliant</text>
	<text transform="matrix(1 0 0 1 354.6508 431.1234)" class="st32 st6 st38">Non-compliant</text>
	<text transform="matrix(1 0 0 1 310.2192 454.0239)" class="st32 st6 st38">Unable to perform</text>
	<text transform="matrix(1 0 0 1 329.2929 348.4564)" class="st32 st6 st39">Controls</text>
	<text transform="matrix(1 0 0 1 469.7226 219.3549)" class="st32 st33 st37">Drift</text>
	<text transform="matrix(1 0 0 1 426.8847 372.2982)" class="st5 st6 st34">240</text>
	<text transform="matrix(1 0 0 1 255.6601 283.6869)" class="st5 st6 st34">135</text>
	<text transform="matrix(1 0 0 1 329.8979 234.6058)" class="st5 st6 st34">15</text>
	<text transform="matrix(1 0 0 1 27.2097 65.3237)" class="st32 st35 st40">IBM Cloud Security Best Practices</text>
	<text transform="matrix(1 0 0 1 28.7598 31.4143)" class="st41"><tspan x="0" y="0" class="st30 st6 st37">Security and Compliance </tspan><tspan x="139.4" y="0" class="st32 st6 st37">/</tspan><tspan x="144.4" y="0" class="st30 st6 st37"> Dashboard </tspan><tspan x="209.9" y="0" class="st32 st6 st37">/</tspan></text>
	<text transform="matrix(1 0 0 1 609.9919 60.8555)" class="st30 st6 st37">Scan history</text>
	<text transform="matrix(1 0 0 1 714.497 60.8555)" class="st30 st6 st37">Download report</text>
	<text transform="matrix(1 0 0 1 119.3378 218.3802)" class="st32 st33 st34">?</text>
	<text transform="matrix(1 0 0 1 341.8163 218.3802)" class="st32 st33 st34">?</text>
	<text transform="matrix(1 0 0 1 35.7675 186.681)" class="st32 st33 st37">Overview</text>
	<text transform="matrix(1 0 0 1 142.8532 186.8352)" class="st5 st6 st37">Controls</text>
	<text transform="matrix(1 0 0 1 251.6355 186.9896)" class="st5 st6 st37">Resources</text>
	<text transform="matrix(1 0 0 1 482.8411 454.0238)" class="st32 st6 st38">Compliant</text>
	<text transform="matrix(1 0 0 1 555.3035 454.0238)" class="st32 st6 st38">Non-compliant</text>
	<text transform="matrix(1 0 0 1 647.3859 454.024)" class="st32 st6 st38">Unable to perform</text>
	<text transform="matrix(1 0 0 1 469.676 239.89)" class="st5 st6 st7">Timeframe</text>
	<text transform="matrix(1 0 0 1 475.8549 258.3255)" class="st32 st6 st38">1 week</text>
	<text transform="matrix(1 0 0 1 648.7227 432.1233)" class="st32 st42 st38">Date</text>
	<text transform="matrix(0 -1 1 0 471.652 357.7866)" class="st32 st42 st38">Controls</text>
	<text transform="matrix(1 0 0 1 35.7677 113.4812)" class="st5 st6 st7">Profile</text>
	<text transform="matrix(1 0 0 1 193.2791 113.4807)" class="st5 st6 st7">Version</text>
	<text transform="matrix(1 0 0 1 243.5427 113.4809)" class="st5 st6 st7">Scope</text>
	<text transform="matrix(1 0 0 1 310.5588 113.4808)" class="st5 st6 st7">Scan date</text>
	<text transform="matrix(1 0 0 1 431.0705 113.4808)" class="st5 st6 st7">Type</text>
	<text transform="matrix(1 0 0 1 513.4784 113.4809)" class="st5 st6 st7">ID</text>
	<text transform="matrix(1 0 0 1 739.9944 113.4809)" class="st5 st6 st7">Billable evaluations</text>
	<text transform="matrix(1 0 0 1 35.7678 126.5982)" class="st43 st6 st44">IBM Cloud Security Best Practices</text>
	<text transform="matrix(1 0 0 1 193.2792 126.5981)" class="st43 st6 st44">1.0.0</text>
	<text transform="matrix(1 0 0 1 243.5429 126.5984)" class="st43 st6 st44">Account A</text>
	<text transform="matrix(1 0 0 1 310.559 126.5982)" class="st43 st6 st44">11/18/2022, 8:23 PM</text>
	<text transform="matrix(1 0 0 1 431.0706 126.5984)" class="st43 st6 st44">Scheduled</text>
	<text transform="matrix(1 0 0 1 513.0469 126.5984)" class="st43 st6 st44">b108ndba-993s-47sss-jlabsdnkfjb2983r0a</text>
	<text transform="matrix(1 0 0 1 740.6826 126.5984)" class="st43 st6 st44">634</text>
	<text transform="matrix(1 0 0 1 817.4143 113.1677)" class="st5 st35 st45">?</text>
	<text transform="matrix(1 0 0 1 36.6917 506.8354)" class="st32 st33 st37">Highest priority resources</text>
	<text transform="matrix(1 0 0 1 45.202 542.41)" class="st32 st33 st46">Resource</text>
	<text transform="matrix(1 0 0 1 489.6163 542.4103)" class="st32 st33 st46">Component</text>
	<text transform="matrix(1 0 0 1 673.405 542.6978)" class="st32 st33 st37">Account</text>
	<text transform="matrix(1 0 0 1 783.788 542.5541)" class="st32 st33 st46">Failed</text>
	<text transform="matrix(1 0 0 1 66.4309 571.0499)" class="st32 st35 st38">AppID-Testing-Dallas</text>
	<text transform="matrix(1 0 0 1 66.4311 602.1789)" class="st32 st35 st38">My-Load-Balancer-For-Testing</text>
	<text transform="matrix(1 0 0 1 74.8138 630.2634)" class="st32 st33 st46">Assessment</text>
	<text transform="matrix(1 0 0 1 548.3647 630.3948)" class="st32 st33 st46">Controls</text>
	<text transform="matrix(1 0 0 1 624.0494 630.2632)" class="st32 st33 st46">Method</text>
	<text transform="matrix(1 0 0 1 712.4631 630.2632)" class="st32 st33 st46">Type</text>
	<text transform="matrix(1 0 0 1 783.788 630.2633)" class="st32 st33 st46">Status</text>
	<line class="st47" x1="65.8" y1="668.4" x2="824.7" y2="668.4"/>
	<text transform="matrix(1 0 0 1 75.0336 658.61)" class="st30 st35 st38">Check whether Application Load Balancer for VPC uses HTTPS (SSL &amp; TLS) instead of HTTP</text>
	<text transform="matrix(1 0 0 1 75.6138 683.8191)" class="st30 st35 st38">Check whether Application Load Balancer for VPC has health check configured</text>
	<text transform="matrix(1 0 0 1 548.3642 658.6103)" class="st32 st35 st38">1</text>
	<text transform="matrix(1 0 0 1 548.3649 683.8187)" class="st32 st35 st38">1</text>
	<text transform="matrix(1 0 0 1 624.0487 658.6099)" class="st32 st35 st38">IBM Cloud rule</text>
	<text transform="matrix(1 0 0 1 624.0494 683.8187)" class="st32 st35 st38">IBM Cloud rule</text>
	<text transform="matrix(1 0 0 1 712.4636 658.6104)" class="st32 st35 st38">Automated</text>
	<text transform="matrix(1 0 0 1 712.463 683.8185)" class="st32 st35 st38">Automated</text>
	<text transform="matrix(1 0 0 1 797.2014 602.179)" class="st32 st35 st38">13</text>
	<text transform="matrix(1 0 0 1 797.2015 571.0502)" class="st32 st35 st38">25</text>
	<text transform="matrix(1 0 0 1 673.4042 571.05)" class="st32 st35 st38">Account A</text>
	<text transform="matrix(1 0 0 1 673.4045 602.1791)" class="st32 st35 st38">Account C</text>
	<text transform="matrix(1 0 0 1 505.3637 571.0505)" class="st32 st35 st38">App ID</text>
	<text transform="matrix(1 0 0 1 505.3637 602.1787)" class="st32 st35 st38">Load Balancer for VPC</text>
</g>
<g id="Layer_3">
	<rect y="-3.8" class="st48" width="859.5" height="696.7"/>
	<rect x="243.3" class="st49" width="623" height="693"/>
	<text transform="matrix(1 0 0 1 265.7107 40.7334)" class="st35 st50">Details</text>
	<text transform="matrix(1 0 0 1 265.7107 69.9231)" class="st5 st6 st7">Description</text>
	<text transform="matrix(1 0 0 1 265.7107 103.2473)" class="st5 st6 st7">Type</text>
	<text transform="matrix(1 0 0 1 265.7108 82.0871)" class="st43 st6 st44">Ensure Key Protect Encryption keys that are generated by the service are enabled with automatic rotation</text>
	<text transform="matrix(1 0 0 1 265.7109 117.4616)" class="st43 st6 st44">1.0.0</text>
	<text transform="matrix(1 0 0 1 448.1478 103.2476)" class="st5 st6 st7">Method</text>
	<text transform="matrix(1 0 0 1 448.1475 117.4615)" class="st43 st6 st44">IBM Cloud rule</text>
	<text transform="matrix(1 0 0 1 697.1976 103.2473)" class="st5 st6 st7">Status</text>
	<text transform="matrix(1 0 0 1 448.1475 146.0872)" class="st5 st6 st7">Resource</text>
	<text transform="matrix(1 0 0 1 448.1476 159.0836)" class="st43 st6 st44">p0q8wepr0-lkjadsf92-balsf01983u4</text>
	<text transform="matrix(1 0 0 1 697.1982 146.0875)" class="st5 st6 st7">ID</text>
	<path class="st23" d="M840.5,159.5H699.8c-1.5,0-2.7-1.2-2.7-2.7V156c0-1.5,1.2-2.7,2.7-2.7h140.6c1.5,0,2.7,1.2,2.7,2.7v0.8
		C843.1,158.3,841.9,159.5,840.5,159.5z"/>
	<path class="st20" d="M702,110.6c-2.7,0-4.8,1.8-4.8,4.1c0,0,0,0,0,0.1c0,2.3,2.1,4.1,4.8,4.2c0,0,0,0,0.1,0c2.7,0,4.8-1.8,4.8-4.1
		c0,0,0,0,0-0.1C706.9,112.5,704.7,110.7,702,110.6C702.1,110.6,702.1,110.6,702,110.6z M703.9,116.9l-4.3-3.7l0.5-0.5l4.3,3.7
		L703.9,116.9z"/>
	<text transform="matrix(1 0 0 1 265.7104 146.0874)" class="st5 st6 st7">Component</text>
	<text transform="matrix(1 0 0 1 277.7108 159.0833)" class="st43 st6 st44">Key Protect</text>
	<g>
		<path d="M272.3,155.7v-3.6h-1.5v0.6h0.9v0.6h-0.9v0.6h0.9v1.8c-0.5,0.1-0.9,0.6-0.9,1.2c0,0.7,0.5,1.2,1.2,1.2
			c0.7,0,1.2-0.5,1.2-1.2C273.2,156.3,272.8,155.9,272.3,155.7z M272,157.5c-0.3,0-0.6-0.3-0.6-0.6s0.3-0.6,0.6-0.6
			c0.3,0,0.6,0.3,0.6,0.6S272.3,157.5,272,157.5z"/>
		<path d="M269,160.7l-1.6-0.9c-1-0.6-1.6-1.7-1.6-2.8v-4.2c0-0.3,0.3-0.6,0.6-0.6h3.6v0.6h-3.6v4.2c0,0.9,0.5,1.8,1.3,2.3l1.3,0.8
			l1.3-0.8c0.3-0.2,0.6-0.4,0.8-0.8l0.5,0.3c-0.3,0.4-0.6,0.7-1,0.9L269,160.7z"/>
	</g>
	<path class="st51" d="M839.6,212.5H269.2c-1.9,0-3.5-1.6-3.5-3.5v-15.7c0-1.9,1.6-3.5,3.5-3.5h570.4c1.9,0,3.5,1.6,3.5,3.5V209
		C843.1,210.9,841.5,212.5,839.6,212.5z"/>
	<text transform="matrix(1 0 0 1 274.0437 203.8038)" class="st5 st35 st44">JSON</text>
	<text transform="matrix(1 0 0 1 421.1162 203.8041)" class="st5 st35 st44">Parameters</text>
	<text transform="matrix(1 0 0 1 708.4637 203.9129)" class="st5 st35 st44">Controls</text>
	<path class="st52" d="M697,212.5H556.7c-1.2,0-2.1-0.9-2.1-2.1v-18.5c0-1.2,0.9-2.1,2.1-2.1H697c1.2,0,2.1,0.9,2.1,2.1v18.5
		C699.1,211.5,698.1,212.5,697,212.5z"/>
	<line class="st53" x1="410.2" y1="212.5" x2="410" y2="189.3"/>
	<text transform="matrix(1 0 0 1 562.1056 203.9129)" class="st1 st35 st44">Non-compliant properties*</text>
	<text transform="matrix(1 0 0 1 280.125 242.0086)" class="st32 st33 st44">Property</text>
	<text transform="matrix(1 0 0 1 434.1482 242.0084)" class="st32 st33 st44">Description</text>
	<text transform="matrix(1 0 0 1 569.4013 242.0081)" class="st32 st33 st44">Operator</text>
	<text transform="matrix(1 0 0 1 686.3948 242.0083)" class="st32 st33 st44">Expected value</text>
	<text transform="matrix(1 0 0 1 770.1531 242.0085)" class="st32 st33 st44">Actual value</text>
	<line class="st47" x1="272.6" y1="249.2" x2="834.3" y2="249.2"/>
	<text transform="matrix(1 0 0 1 280.1252 271.4365)" class="st54 st6 st44">rotation.rotation_enabled</text>
	<text transform="matrix(1 0 0 1 280.1251 307.5208)" class="st54 st6 st44">rotation.interval_month</text>
	<text transform="matrix(1 0 0 1 434.1483 271.4368)" class="st54 st6 st44">-</text>
	<text transform="matrix(1 0 0 1 434.1483 307.5202)" class="st54 st6 st44">-</text>
	<text transform="matrix(1 0 0 1 569.402 271.4361)" class="st54 st6 st44">is_true</text>
	<text transform="matrix(1 0 0 1 569.4018 307.52)" class="st54 st6 st44">num_greater_than</text>
	<text transform="matrix(1 0 0 1 686.3943 271.4365)" class="st54 st6 st44">true</text>
	<text transform="matrix(1 0 0 1 770.1539 271.4367)" class="st54 st6 st44">false</text>
	<text transform="matrix(1 0 0 1 770.1533 307.5206)" class="st54 st6 st44">0</text>
	<text transform="matrix(1 0 0 1 686.3947 307.5199)" class="st54 st6 st44">0</text>
	<line class="st47" x1="272.6" y1="285.8" x2="834.3" y2="285.8"/>
	<line class="st47" x1="272.6" y1="322.3" x2="834.3" y2="322.3"/>
</g>
</svg>
