<?xml version="1.0" encoding="UTF-8"?>
<svg xmlns="http://www.w3.org/2000/svg" viewBox="0 0 864 648">
  <defs>
    <style>
      .cls-1, .cls-2, .cls-3, .cls-4, .cls-5, .cls-6, .cls-7, .cls-8, .cls-9, .cls-10, .cls-11, .cls-12, .cls-13, .cls-14, .cls-15, .cls-16, .cls-17, .cls-18 {
        isolation: isolate;
      }

      .cls-1, .cls-3, .cls-19, .cls-6, .cls-17 {
        fill: #8d8d8d;
      }

      .cls-1, .cls-3, .cls-12, .cls-13, .cls-14, .cls-16, .cls-17, .cls-18 {
        font-family: IBMPlexSans-Medium, 'IBM Plex Sans';
        font-weight: 500;
      }

      .cls-1, .cls-5, .cls-13, .cls-16 {
        font-size: 12px;
      }

      .cls-20 {
        letter-spacing: -.006em;
      }

      .cls-21 {
        letter-spacing: -.01em;
      }

      .cls-22 {
        letter-spacing: -.003em;
      }

      .cls-23 {
        letter-spacing: 0em;
      }

      .cls-2 {
        font-family: IBMPlexSans-SemiBold, 'IBM Plex Sans';
        font-weight: 600;
      }

      .cls-2, .cls-4, .cls-24, .cls-5, .cls-8, .cls-10, .cls-12, .cls-14, .cls-15 {
        fill: #525252;
      }

      .cls-2, .cls-9, .cls-10, .cls-14 {
        font-size: 10px;
      }

      .cls-25 {
        letter-spacing: -.01em;
      }

      .cls-26 {
        letter-spacing: -.04em;
      }

      .cls-27 {
        letter-spacing: 0em;
      }

      .cls-28 {
        letter-spacing: 0em;
      }

      .cls-29 {
        letter-spacing: -.02em;
      }

      .cls-30 {
        letter-spacing: -.005em;
      }

      .cls-31 {
        letter-spacing: -.006em;
      }

      .cls-32 {
        letter-spacing: -.006em;
      }

      .cls-3, .cls-4 {
        font-size: 9.1605px;
      }

      .cls-4, .cls-5, .cls-15 {
        font-family: IBMPlexSans-Bold, 'IBM Plex Sans';
        font-weight: 700;
      }

      .cls-33 {
        letter-spacing: -.006em;
      }

      .cls-34 {
        letter-spacing: .004em;
      }

      .cls-35 {
        fill: #002d9c;
      }

      .cls-36 {
        fill: #f1c21b;
      }

      .cls-37, .cls-38, .cls-39, .cls-40, .cls-41 {
        fill: #f4f4f4;
      }

      .cls-42, .cls-43 {
        fill: #fff;
      }

      .cls-44, .cls-45, .cls-46 {
        fill: #e0e0e0;
      }

      .cls-47 {
        fill: #da1e28;
      }

      .cls-48 {
        fill: #c6c6c6;
      }

      .cls-49, .cls-50, .cls-9, .cls-51, .cls-16 {
        fill: #0f62fe;
      }

      .cls-52, .cls-53 {
        fill: #198038;
      }

      .cls-54, .cls-7 {
        fill: #3b95d1;
      }

      .cls-55 {
        letter-spacing: -.03em;
      }

      .cls-56 {
        letter-spacing: -.015em;
      }

      .cls-57 {
        letter-spacing: .01em;
      }

      .cls-58 {
        letter-spacing: 0em;
      }

      .cls-59 {
        letter-spacing: 0em;
      }

      .cls-50, .cls-60 {
        letter-spacing: -.006em;
      }

      .cls-61 {
        letter-spacing: -.006em;
      }

      .cls-62 {
        letter-spacing: -.0069em;
      }

      .cls-63 {
        letter-spacing: -.006em;
      }

      .cls-64 {
        letter-spacing: -.006em;
      }

      .cls-65 {
        letter-spacing: -.007em;
      }

      .cls-43, .cls-38, .cls-45, .cls-46, .cls-53 {
        stroke-width: .25px;
      }

      .cls-43, .cls-38, .cls-45, .cls-46, .cls-53, .cls-39, .cls-40, .cls-41, .cls-66, .cls-67, .cls-68, .cls-69, .cls-70, .cls-71, .cls-72, .cls-73, .cls-74, .cls-75, .cls-76 {
        stroke-miterlimit: 10;
      }

      .cls-43, .cls-38, .cls-45, .cls-75 {
        stroke: #c6c6c6;
      }

      .cls-77 {
        letter-spacing: -.025em;
      }

      .cls-78 {
        letter-spacing: -.0061em;
      }

      .cls-79 {
        letter-spacing: .006em;
      }

      .cls-80 {
        letter-spacing: -.009em;
      }

      .cls-81 {
        letter-spacing: .007em;
      }

      .cls-46, .cls-53, .cls-66 {
        stroke: #a8a8a8;
      }

      .cls-82 {
        letter-spacing: -.0069em;
      }

      .cls-6 {
        font-size: 6.79px;
      }

      .cls-6, .cls-8, .cls-9, .cls-10, .cls-11 {
        font-family: IBMPlexSans, 'IBM Plex Sans';
      }

      .cls-7 {
        opacity: .5;
      }

      .cls-8 {
        font-size: 23px;
      }

      .cls-83 {
        letter-spacing: -.036em;
      }

      .cls-11 {
        font-size: 34.9722px;
      }

      .cls-84 {
        letter-spacing: 0em;
      }

      .cls-85 {
        letter-spacing: 0em;
      }

      .cls-39, .cls-72 {
        stroke: #da1e28;
      }

      .cls-40, .cls-70 {
        stroke: #f1c21b;
      }

      .cls-41, .cls-68 {
        stroke: #198038;
      }

      .cls-86 {
        letter-spacing: -.004em;
      }

      .cls-87 {
        letter-spacing: -.014em;
      }

      .cls-88 {
        letter-spacing: -.004em;
      }

      .cls-89 {
        letter-spacing: .015em;
      }

      .cls-90 {
        letter-spacing: -.004em;
      }

      .cls-91 {
        letter-spacing: -.007em;
      }

      .cls-92 {
        letter-spacing: -.004em;
      }

      .cls-93 {
        letter-spacing: -.008em;
      }

      .cls-94 {
        letter-spacing: -.007em;
      }

      .cls-95 {
        letter-spacing: -.008em;
      }

      .cls-96 {
        letter-spacing: -.007em;
      }

      .cls-97 {
        letter-spacing: -.004em;
      }

      .cls-98 {
        letter-spacing: 0em;
      }

      .cls-99 {
        letter-spacing: -.007em;
      }

      .cls-100 {
        letter-spacing: -.007em;
      }

      .cls-101 {
        letter-spacing: -.008em;
      }

      .cls-66, .cls-67, .cls-68, .cls-69, .cls-70, .cls-71, .cls-72, .cls-73, .cls-74, .cls-75, .cls-76 {
        fill: none;
      }

      .cls-67, .cls-73 {
        stroke: #0f62fe;
      }

      .cls-69, .cls-74 {
        stroke: #8d8d8d;
      }

      .cls-71 {
        stroke: #525252;
      }

      .cls-102 {
        letter-spacing: -.007em;
      }

      .cls-103 {
        letter-spacing: -.0079em;
      }

      .cls-104 {
        letter-spacing: -.05em;
      }

      .cls-105 {
        letter-spacing: .023em;
      }

      .cls-106 {
        letter-spacing: 0em;
      }

      .cls-107 {
        letter-spacing: .009em;
      }

      .cls-51, .cls-108 {
        letter-spacing: -.005em;
      }

      .cls-12 {
        font-size: 10.9926px;
      }

      .cls-109 {
        letter-spacing: 0em;
      }

      .cls-110 {
        letter-spacing: -.005em;
      }

      .cls-111 {
        letter-spacing: -.01em;
      }

      .cls-112 {
        letter-spacing: -.015em;
      }

      .cls-113 {
        letter-spacing: -.01em;
      }

      .cls-114 {
        letter-spacing: -.0649em;
      }

      .cls-115 {
        letter-spacing: -.065em;
      }

      .cls-116 {
        letter-spacing: -.065em;
      }

      .cls-117 {
        letter-spacing: -.032em;
      }

      .cls-15 {
        font-size: 11px;
      }

      .cls-17 {
        font-size: 8px;
      }

      .cls-118 {
        letter-spacing: -.005em;
      }

      .cls-119 {
        letter-spacing: -.005em;
      }

      .cls-18 {
        fill: #393939;
        font-size: 9px;
      }

      .cls-120 {
        letter-spacing: -.005em;
      }

      .cls-121 {
        letter-spacing: -.005em;
      }

      .cls-122 {
        letter-spacing: 0em;
      }

      .cls-73, .cls-74, .cls-75, .cls-76 {
        stroke-width: .5px;
      }

      .cls-76 {
        stroke: #e0e0e0;
      }
    </style>
  </defs>
  <g id="Layer_1" data-name="Layer 1">
    <rect class="cls-37" x="-.1254" width="864.2509" height="648"/>
    <rect class="cls-42" x="29.3199" y="443.4589" width="804.8976" height="202.5411"/>
    <rect class="cls-42" x="27.1245" y="155.4905" width="213.9177" height="274.2698"/>
    <rect class="cls-43" x="27.0841" y="58.0206" width="805.0589" height="58.1775"/>
    <rect class="cls-43" x="27.1245" y="124.5793" width="104.7133" height="30.9113"/>
    <rect class="cls-45" x="133.922" y="124.5793" width="107.1202" height="28.7737"/>
    <rect class="cls-45" x="241.0422" y="124.5793" width="104.9817" height="28.7737"/>
    <rect class="cls-42" x="27.2528" y="151.3485" width="104.4516" height="6.0155"/>
    <rect class="cls-43" x="243.4174" y="155.4905" width="213.9177" height="274.2698"/>
    <rect class="cls-43" x="459.2299" y="155.4905" width="372.8728" height="274.2698"/>
    <rect class="cls-38" x="469.7424" y="202.9972" width="349.3482" height="19.1672"/>
    <rect class="cls-38" x="496.4287" y="237.611" width="323.8507" height="123.661"/>
    <text class="cls-17" transform="translate(348.3601 360.134)"><tspan x="0" y="0">20</tspan></text>
    <text class="cls-17" transform="translate(348.3601 360.134)"><tspan x="0" y="0">20</tspan></text>
    <line class="cls-75" x1="529.475" y1="237.482" x2="529.475" y2="361.272"/>
    <line class="cls-75" x1="615.7673" y1="237.482" x2="615.7673" y2="361.401"/>
    <line class="cls-75" x1="703.4102" y1="237.611" x2="703.4102" y2="361.4344"/>
    <line class="cls-75" x1="790.9996" y1="237.611" x2="790.9996" y2="361.272"/>
    <line class="cls-75" x1="572.5755" y1="237.482" x2="572.5755" y2="361.401"/>
    <line class="cls-75" x1="659.5069" y1="237.482" x2="659.5069" y2="361.401"/>
    <line class="cls-75" x1="747.1687" y1="237.482" x2="747.1687" y2="361.401"/>
    <line class="cls-75" x1="820.3404" y1="339.3356" x2="496.3676" y2="339.3356"/>
    <line class="cls-75" x1="820.4625" y1="319.4507" x2="496.4897" y2="319.4507"/>
    <line class="cls-75" x1="820.4625" y1="299.4415" x2="496.4897" y2="299.4415"/>
    <line class="cls-75" x1="820.4015" y1="279.6546" x2="496.4287" y2="279.6546"/>
    <line class="cls-75" x1="820.4015" y1="259.9501" x2="496.4287" y2="259.9501"/>
    <line class="cls-68" x1="529.475" y1="300.2444" x2="615.676" y2="259.9501"/>
    <line class="cls-68" x1="615.676" y1="259.9501" x2="703.3378" y2="319.4507"/>
    <line class="cls-68" x1="702.8507" y1="319.5669" x2="792.2364" y2="280.0972"/>
    <line class="cls-68" x1="496.3676" y1="339.3356" x2="529.475" y2="300.2444"/>
    <line class="cls-72" x1="496.3676" y1="280.0972" x2="615.676" y2="319.4507"/>
    <line class="cls-72" x1="615.3117" y1="319.4507" x2="703.3378" y2="280.0972"/>
    <line class="cls-72" x1="702.9866" y1="279.8454" x2="791.4782" y2="319.1989"/>
    <line class="cls-70" x1="497.0341" y1="352.1372" x2="615.676" y2="352.1372"/>
    <line class="cls-70" x1="615.4212" y1="352.1372" x2="702.8999" y2="327.2551"/>
    <line class="cls-70" x1="702.8999" y1="327.2551" x2="790.9996" y2="352.1372"/>
    <path class="cls-53" d="M177.5587,252.0474c-11.6473-10.1016-26.8474-16.2149-43.4753-16.2149-36.664,0-66.3861,29.7221-66.3861,66.3861h-17.3766c0-46.2609,37.5019-83.7627,83.7627-83.7627,21.0166,0,40.2254,7.7402,54.9313,20.5254"/>
    <line class="cls-66" x1="200.4694" y1="302.2185" x2="217.8461" y2="302.2185"/>
    <path class="cls-46" d="M217.8461,302.2185c0-25.2443-11.1674-47.8803-28.8315-63.2374l-12.1508,12.1508,.6949,.9154c14.0346,12.1721,22.9108,30.1351,22.9108,50.1712"/>
    <line class="cls-67" x1="27.1245" y1="124.5793" x2="131.8378" y2="124.5793"/>
    <circle class="cls-41" cx="615.7673" cy="259.9501" r="1.7331"/>
    <circle class="cls-41" cx="529.475" cy="300.2444" r="1.7331"/>
    <circle class="cls-39" cx="615.7673" cy="319.2879" r="1.7331"/>
    <circle class="cls-40" cx="529.475" cy="352.1372" r="1.7331"/>
    <circle class="cls-40" cx="615.7673" cy="351.9608" r="1.7331"/>
    <circle class="cls-39" cx="703.4102" cy="280.0972" r="1.7331"/>
    <circle class="cls-41" cx="703.4102" cy="319.2879" r="1.7331"/>
    <circle class="cls-40" cx="703.4102" cy="327.0894" r="1.7331"/>
    <circle class="cls-41" cx="790.9996" cy="280.0972" r="1.7331"/>
    <circle class="cls-39" cx="790.9996" cy="319.2879" r="1.7331"/>
    <circle class="cls-40" cx="790.9996" cy="352.1372" r="1.7331"/>
    <circle class="cls-39" cx="529.475" cy="291.0176" r="1.7331"/>
    <g>
      <path class="cls-52" d="M294.3743,341.5403c34.3098,30.9312,87.1981,28.1922,118.1292-6.1176,30.9312-34.3098,28.1922-87.1981-6.1176-118.1292-15.1893-13.6935-34.869-21.3477-55.3189-21.5157l-.154,18.401c36.0334,.2999,65.0011,29.7538,64.7012,65.7873-.2999,36.0334-29.7538,65.0011-65.7873,64.7012-15.9554-.1328-31.3091-6.1076-43.1575-16.7945l-11.9927,13.2924h0l-.3025,.3751Z"/>
      <path class="cls-47" d="M322.187,200.6633c-22.9297,8.2133-41.6702,26.2463-50.3643,50.0391l17.284,6.319c6.7316-18.4779,21.4566-32.9216,40.0609-39.2956"/>
      <path class="cls-36" d="M329.1676,217.7258c6.9947-2.4076,14.3482-3.6071,21.7455-3.547l.154-18.401c-10.0417-.0833-19.79,1.6295-28.88,4.8855"/>
      <path class="cls-47" d="M285.2323,283.1046c-.5005-8.8676,.818-17.744,3.8744-26.0832l-17.284-6.319c-3.9174,10.6911-5.6048,22.071-4.9583,33.4387l18.3679-1.0365Z"/>
      <path class="cls-47" d="M294.3411,341.5333l12.3285-13.6605c-12.7857-11.5412-20.492-27.6677-21.44-44.8658l-18.3718,1.007c1.2009,22.0514,11.0818,42.7309,27.4834,57.5193Z"/>
    </g>
    <rect class="cls-52" x="270.8743" y="381.1293" width="8.4977" height="8.4977"/>
    <rect class="cls-47" x="343.3368" y="381.1293" width="8.4977" height="8.4977"/>
    <rect class="cls-36" x="298.9051" y="404.0306" width="8.4977" height="8.4977"/>
    <rect class="cls-52" x="471.527" y="404.0297" width="8.4977" height="8.4977"/>
    <rect class="cls-36" x="636.0718" y="404.0307" width="8.4977" height="8.4977"/>
    <g>
      <line class="cls-69" x1="805.4596" y1="210.9391" x2="810.8704" y2="216.3499"/>
      <line class="cls-69" x1="815.6112" y1="210.9391" x2="810.2004" y2="216.3499"/>
    </g>
    <rect class="cls-48" x="37.4901" y="480.961" width="787.1261" height="165.039"/>
    <rect class="cls-37" x="37.4901" y="511.249" width="787.1261" height="30.1894"/>
    <rect class="cls-37" x="37.4901" y="542.5729" width="787.1261" height="105.4271"/>
    <g>
      <line class="cls-69" x1="45.0765" y1="522.8286" x2="50.4873" y2="528.2394"/>
      <line class="cls-69" x1="55.2282" y1="522.8286" x2="49.8174" y2="528.2394"/>
    </g>
    <g>
      <line class="cls-69" x1="55.2282" y1="559.3681" x2="49.8174" y2="553.9573"/>
      <line class="cls-69" x1="45.0765" y1="559.3681" x2="50.4873" y2="553.9573"/>
    </g>
    <rect class="cls-44" x="65.6669" y="571.8922" width="758.9493" height="25.812"/>
    <path class="cls-52" d="M788.3057,633.6597c-2.5641,0-4.6428,2.0787-4.6428,4.6428s2.0787,4.6428,4.6428,4.6428,4.6428-2.0787,4.6428-4.6428-2.0787-4.6428-4.6428-4.6428Zm-.6633,6.4969l-1.6581-1.6581,.5275-.5276,1.1307,1.1306,2.4574-2.4571,.5292,.5259-2.9865,2.9863Z"/>
    <path class="cls-47" d="M788.4963,520.7221c-2.6529-.0141-4.8169,1.8236-4.8334,4.1048-.0001,.0171-.0001,.0341,0,.0512-.0164,2.2811,2.1209,4.1418,4.7738,4.156,.0199,.0001,.0397,.0001,.0596,0,2.6529,.0141,4.8169-1.8236,4.8334-4.1048,.0001-.0171,.0001-.0341,0-.0512,.0164-2.2811-2.1209-4.1418-4.7738-4.156-.0199-.0001-.0397-.0001-.0596,0Zm1.8798,6.234l-4.2965-3.6942,.5371-.4618,4.2963,3.6943-.5369,.4617Z"/>
    <g>
      <path class="cls-7" d="M500.1461,523.3693c0-2.9554-2.411-5.3404-5.3404-5.3404-2.9554,0-5.3145,2.3851-5.3145,5.3404h1.0111c0-2.3591,1.9443-4.2775,4.3035-4.2775s4.2775,1.9184,4.2775,4.2775h1.0629Z"/>
      <path class="cls-54" d="M500.1202,523.2138l.7777,5.159h-1.2962v1.5814c0,.5963-.674,1.0111-1.2703,1.0111h-2.6184v2.074h-6.2219v-9.7994l10.629-.0259Z"/>
      <path class="cls-42" d="M493.8983,526.0655c0-.4926,.4148-.9074,.9074-.9074s.9074,.4148,.9074,.9074c0,.337-.1815,.6222-.4407,.7777l.2852,1.7888h-1.5295l.2852-1.7888c-.2592-.1555-.4148-.4407-.4148-.7777Z"/>
    </g>
    <g>
      <path class="cls-35" d="M491.8483,562.1627h-2.3571v-2.3571h2.3571v2.3571Zm-1.5714-.7857h.7857v-.7857h-.7857v.7857Z"/>
      <path class="cls-35" d="M496.1697,562.1627h-2.3571v-2.3571h2.3571v2.3571Zm-1.5714-.7857h.7857v-.7857h-.7857v.7857Z"/>
      <path class="cls-35" d="M500.4912,562.1627h-2.3571v-2.3571h2.3571v2.3571Zm-1.5714-.7857h.7857v-.7857h-.7857v.7857Z"/>
      <path class="cls-35" d="M494.9912,554.3056c-.8679,0-1.5714-.7036-1.5714-1.5714s.7036-1.5714,1.5714-1.5714,1.5714,.7036,1.5714,1.5714c-.001,.8675-.704,1.5705-1.5714,1.5714Zm0-2.3571c-.4339,0-.7857,.3518-.7857,.7857s.3518,.7857,.7857,.7857,.7857-.3518,.7857-.7857c-.0004-.4338-.352-.7853-.7857-.7857Z"/>
      <path class="cls-35" d="M498.9197,556.6627h-1.9643c-.8675-.001-1.5705-.704-1.5714-1.5714h-.7857c-.001,.8675-.704,1.5705-1.5714,1.5714h-1.9643c-.4337,.0005-.7852,.352-.7857,.7857v1.5714h.7857v-1.5714h1.9643c.5806-.0002,1.1406-.2157,1.5714-.605v2.1764h.7857v-2.1764c.4308,.3893,.9908,.6048,1.5714,.605h1.9643v1.5714h.7857v-1.5714c-.0005-.4337-.352-.7852-.7857-.7857Z"/>
    </g>
    <path class="cls-47" d="M788.4963,552.5093c-2.6529-.0141-4.8169,1.8236-4.8334,4.1048-.0001,.0171-.0001,.0341,0,.0512-.0164,2.2811,2.1209,4.1418,4.7738,4.156,.0199,.0001,.0397,.0001,.0596,0,2.6529,.0141,4.8169-1.8236,4.8334-4.1048,.0001-.0171,.0001-.0341,0-.0512,.0164-2.2811-2.1209-4.1418-4.7738-4.156-.0199-.0001-.0397-.0001-.0596,0Zm1.8798,6.234l-4.2965-3.6942,.5371-.4618,4.2963,3.6943-.5369,.4617Z"/>
    <path class="cls-47" d="M788.4963,607.6314c-2.6529-.0141-4.8169,1.8236-4.8334,4.1048-.0001,.0171-.0001,.0341,0,.0512-.0164,2.2811,2.1209,4.1418,4.7738,4.156,.0199,.0001,.0397,.0001,.0596,0,2.6529,.0141,4.8169-1.8236,4.8334-4.1048,.0001-.0171,.0001-.0341,0-.0512,.0164-2.2811-2.1209-4.1418-4.7738-4.156-.0199-.0001-.0397-.0001-.0596,0Zm1.8798,6.234l-4.2965-3.6942,.5371-.4618,4.2963,3.6943-.5369,.4617Z"/>
    <rect class="cls-73" x="708.4522" y="19.2371" width="123.6908" height="33.1521"/>
    <circle class="cls-71" cx="121.4426" cy="173.1774" r="5.8737"/>
    <circle class="cls-71" cx="343.9215" cy="173.1774" r="5.8737"/>
    <g>
      <circle class="cls-71" cx="507.479" cy="173.1774" r="5.8737"/>
      <text class="cls-4" transform="translate(505.2485 175.884)"><tspan x="0" y="0">?</tspan></text>
    </g>
    <rect class="cls-47" x="543.9895" y="404.03" width="8.4977" height="8.4977"/>
    <g>
      <path class="cls-49" d="M690.4093,43.6395c-2.4699,0-4.4722-2.0023-4.4722-4.4722s2.0023-4.4722,4.4722-4.4722,4.4722,2.0023,4.4722,4.4722-2.0023,4.4722-4.4722,4.4722Zm0-7.8263c-1.8524,0-3.3541,1.5017-3.3541,3.3541s1.5017,3.3541,3.3541,3.3541,3.3541-1.5017,3.3541-3.3541-1.5017-3.3541-3.3541-3.3541Z"/>
      <polygon class="cls-49" points="691.2981 40.8444 689.8503 39.3965 689.8503 36.9313 690.9683 36.9313 690.9683 38.9381 692.0863 40.0562 691.2981 40.8444"/>
      <path class="cls-49" d="M694.3224,30.223c0-.6175-.5006-1.118-1.118-1.118h-2.2361v-1.118h-1.118v1.118h-4.4722v-1.118h-1.118v1.118h-2.2361c-.6175,0-1.118,.5006-1.118,1.118v11.1804c0,.6175,.5006,1.118,1.118,1.118h2.2361v-1.118h-2.2361v-11.1804h2.2361v1.118h1.118v-1.118h4.4722v1.118h1.118v-1.118h2.2361v3.3541h1.118v-3.3541Z"/>
    </g>
    <g>
      <path class="cls-49" d="M824.6537,39.5087v1.8478h-9.2388v-1.8478h-.9239v1.8478h0c0,.5102,.4136,.9239,.9239,.9239h9.2388c.5102,0,.9239-.4136,.9239-.9239h0v-1.8478h-.9239Z"/>
      <polygon class="cls-49" points="824.6537 34.8893 824.0023 34.238 820.4962 37.7395 820.4962 29.346 819.5723 29.346 819.5723 37.7395 816.0662 34.238 815.4148 34.8893 820.0342 39.5087 824.6537 34.8893"/>
    </g>
    <circle class="cls-74" cx="818.9426" cy="80.621" r="4.3537"/>
    <g>
      <path class="cls-19" d="M705.3093,91.174v6.8067h-6.8067v-6.8067h6.8067m0-.7563h-6.8067c-.4177,0-.7563,.3386-.7563,.7563v6.8067c0,.4177,.3386,.7563,.7563,.7563h6.8067c.4177,0,.7563-.3386,.7563-.7563v-6.8067c0-.4177-.3386-.7563-.7563-.7563Z"/>
      <path class="cls-19" d="M696.2337,94.1992h-.7563v-5.2941c0-.4177,.3386-.7563,.7563-.7563h5.2941v.7563h-5.2941v5.2941Z"/>
    </g>
    <g>
      <circle class="cls-71" cx="193.1538" cy="460.895" r="5.8737"/>
      <text class="cls-4" transform="translate(190.9233 463.6016)"><tspan x="0" y="0">?</tspan></text>
    </g>
  </g>
  <g id="Layer_2" data-name="Layer 2">
    <text class="cls-17" transform="translate(489.5208 361.4344)"><tspan x="0" y="0">0</tspan></text>
    <text class="cls-17" transform="translate(484.7216 341.6955)"><tspan x="0" y="0">20</tspan></text>
    <text class="cls-17" transform="translate(484.7211 321.9568)"><tspan x="0" y="0">40</tspan></text>
    <text class="cls-17" transform="translate(484.7215 302.2185)"><tspan x="0" y="0">60</tspan></text>
    <text class="cls-17" transform="translate(484.7213 282.4795)"><tspan x="0" y="0">80</tspan></text>
    <text class="cls-17" transform="translate(479.9209 262.7408)"><tspan x="0" y="0">100</tspan></text>
    <text class="cls-17" transform="translate(479.9211 243.0017)"><tspan x="0" y="0">120</tspan></text>
    <text class="cls-17" transform="translate(496.4896 371.8029)"><tspan x="0" y="0">N</tspan><tspan class="cls-103" x="5.7119" y="0">o</tspan><tspan x="10.1602" y="0">v 16, 4:30 AM</tspan></text>
    <text class="cls-17" transform="translate(584.5408 371.8031)"><tspan x="0" y="0">N</tspan><tspan class="cls-103" x="5.7119" y="0">o</tspan><tspan x="10.1602" y="0">v 17, 6:23 AM</tspan></text>
    <text class="cls-17" transform="translate(672.591 371.8022)"><tspan x="0" y="0">N</tspan><tspan class="cls-103" x="5.7119" y="0">o</tspan><tspan x="10.1602" y="0">v 18, 7:00 AM</tspan></text>
    <text class="cls-17" transform="translate(760.7809 371.8023)"><tspan x="0" y="0">N</tspan><tspan class="cls-103" x="5.7119" y="0">o</tspan><tspan x="10.1602" y="0">v 18, 8:23 PM</tspan></text>
    <text class="cls-11" transform="translate(96.8906 289.9827)"><tspan x="0" y="0">64%</tspan></text>
    <text class="cls-5" transform="translate(35.1548 176.8586)"><tspan x="0" y="0">Su</tspan><tspan class="cls-119" x="14.6396" y="0">cc</tspan><tspan class="cls-85" x="26.9282" y="0">e</tspan><tspan class="cls-65" x="33.6719" y="0">s</tspan><tspan x="39.6362" y="0">s </tspan><tspan class="cls-87" x="48.5161" y="0">r</tspan><tspan class="cls-32" x="53.1958" y="0">a</tspan><tspan class="cls-92" x="59.9517" y="0">t</tspan><tspan class="cls-85" x="64.5" y="0">e</tspan></text>
    <text class="cls-14" transform="translate(106.5812 306.0924)"><tspan x="0" y="0">419 / 655</tspan></text>
    <text class="cls-11" transform="translate(318.9014 289.9827)"><tspan x="0" y="0">390</tspan></text>
    <text class="cls-5" transform="translate(251.3916 176.8586)"><tspan class="cls-115" x="0" y="0">T</tspan><tspan class="cls-32" x="6.228" y="0">o</tspan><tspan x="12.9243" y="0">tal </tspan><tspan class="cls-108" x="30.8159" y="0">c</tspan><tspan x="36.96" y="0">ont</tspan><tspan class="cls-119" x="55.4756" y="0">r</tspan><tspan x="60.2637" y="0">ols</tspan></text>
    <text class="cls-14" transform="translate(282.063 388.6272)"><tspan x="0" y="0">Compliant</tspan></text>
    <text class="cls-14" transform="translate(354.5254 388.6272)"><tspan x="0" y="0">Non</tspan><tspan class="cls-57" x="18.5796" y="0">-</tspan><tspan class="cls-61" x="22.6895" y="0">c</tspan><tspan x="27.7295" y="0">ompliant</tspan></text>
    <text class="cls-14" transform="translate(310.0938 411.5277)"><tspan x="0" y="0">Unable </tspan><tspan class="cls-90" x="34.8394" y="0">t</tspan><tspan x="38.4492" y="0">o pe</tspan><tspan class="cls-79" x="57.9292" y="0">r</tspan><tspan class="cls-90" x="61.8193" y="0">f</tspan><tspan class="cls-58" x="65.1792" y="0">orm</tspan></text>
    <text class="cls-12" transform="translate(329.1675 305.9602)"><tspan x="0" y="0">Cont</tspan><tspan class="cls-120" x="23.5566" y="0">r</tspan><tspan x="27.7119" y="0">ols</tspan></text>
    <text class="cls-5" transform="translate(469.5972 176.8586)"><tspan x="0" y="0">Drift</tspan></text>
    <text class="cls-3" transform="translate(426.7593 329.802)"><tspan x="0" y="0">240</tspan></text>
    <text class="cls-3" transform="translate(255.5347 241.1907)"><tspan x="0" y="0">135</tspan></text>
    <text class="cls-3" transform="translate(329.7725 192.1096)"><tspan x="0" y="0">15</tspan></text>
    <text class="cls-8" transform="translate(27.0842 43.8275)"><tspan x="0" y="0">IBM Cloud Security Be</tspan><tspan class="cls-94" x="231.0088" y="0">s</tspan><tspan x="242.0493" y="0">t </tspan><tspan class="cls-113" x="255.5498" y="0">P</tspan><tspan class="cls-97" x="269.2578" y="0">r</tspan><tspan class="cls-84" x="277.6064" y="0">acti</tspan><tspan class="cls-31" x="315.2803" y="0">c</tspan><tspan x="326.7109" y="0">es</tspan></text>
    <text class="cls-13" transform="translate(28.6344 14.9181)"><tspan class="cls-49" x="0" y="0">Security and Complian</tspan><tspan class="cls-50" x="123.7783" y="0">c</tspan><tspan class="cls-49" x="129.8262" y="0">e </tspan><tspan class="cls-24" x="139.3301" y="0">/</tspan><tspan class="cls-49" x="144.334" y="0" xml:space="preserve"> Dashboa</tspan><tspan class="cls-51" x="195.2974" y="0">r</tspan><tspan class="cls-49" x="199.8335" y="0">d </tspan><tspan class="cls-24" x="209.7695" y="0">/</tspan></text>
    <text class="cls-16" transform="translate(609.8665 39.3593)"><tspan x="0" y="0">Scan hi</tspan><tspan class="cls-100" x="39.8154" y="0">s</tspan><tspan class="cls-92" x="45.6592" y="0">t</tspan><tspan x="49.9912" y="0">o</tspan><tspan class="cls-107" x="56.7593" y="0">r</tspan><tspan x="61.4629" y="0">y</tspan></text>
    <text class="cls-16" transform="translate(714.3716 39.3593)"><tspan x="0" y="0">D</tspan><tspan class="cls-100" x="8.1958" y="0">o</tspan><tspan x="14.8799" y="0">wnload </tspan><tspan class="cls-119" x="58.1396" y="0">r</tspan><tspan x="62.6758" y="0">epo</tspan><tspan class="cls-34" x="83.2192" y="0">r</tspan><tspan x="87.8633" y="0">t</tspan></text>
    <text class="cls-4" transform="translate(119.2124 175.884)"><tspan x="0" y="0">?</tspan></text>
    <text class="cls-4" transform="translate(341.6909 175.884)"><tspan x="0" y="0">?</tspan></text>
    <text class="cls-5" transform="translate(35.6421 144.1847)"><tspan x="0" y="0">O</tspan><tspan class="cls-93" x="8.5679" y="0">v</tspan><tspan x="14.9277" y="0">e</tspan><tspan class="cls-81" x="21.6719" y="0">r</tspan><tspan x="26.6035" y="0">vi</tspan><tspan class="cls-119" x="36.4912" y="0">e</tspan><tspan x="43.1758" y="0">w</tspan></text>
    <text class="cls-1" transform="translate(142.7278 144.3389)"><tspan x="0" y="0">Cont</tspan><tspan class="cls-119" x="25.7153" y="0">r</tspan><tspan x="30.2515" y="0">ols</tspan></text>
    <text class="cls-1" transform="translate(251.51 144.4934)"><tspan class="cls-56" x="0" y="0">R</tspan><tspan x="7.6802" y="0">esou</tspan><tspan class="cls-119" x="34.0078" y="0">r</tspan><tspan class="cls-60" x="38.5439" y="0">c</tspan><tspan x="44.5918" y="0">es</tspan></text>
    <text class="cls-14" transform="translate(482.7157 411.5276)"><tspan x="0" y="0">Compliant</tspan></text>
    <text class="cls-14" transform="translate(555.1781 411.5276)"><tspan x="0" y="0">Non</tspan><tspan class="cls-57" x="18.5796" y="0">-</tspan><tspan class="cls-61" x="22.6895" y="0">c</tspan><tspan x="27.7295" y="0">ompliant</tspan></text>
    <text class="cls-14" transform="translate(647.2604 411.5277)"><tspan x="0" y="0">Unable </tspan><tspan class="cls-90" x="34.8394" y="0">t</tspan><tspan x="38.4492" y="0">o pe</tspan><tspan class="cls-79" x="57.9292" y="0">r</tspan><tspan class="cls-90" x="61.8193" y="0">f</tspan><tspan class="cls-58" x="65.1792" y="0">orm</tspan></text>
    <text class="cls-17" transform="translate(469.5505 197.3938)"><tspan x="0" y="0">Timef</tspan><tspan class="cls-95" x="20.96" y="0">r</tspan><tspan class="cls-106" x="23.96" y="0">ame</tspan></text>
    <text class="cls-14" transform="translate(475.7295 215.8293)"><tspan x="0" y="0">1 </tspan><tspan class="cls-91" x="8.3599" y="0">w</tspan><tspan x="16.2798" y="0">eek</tspan></text>
    <text class="cls-2" transform="translate(648.5972 389.6271)"><tspan x="0" y="0">D</tspan><tspan class="cls-90" x="6.8901" y="0">at</tspan><tspan x="16.1396" y="0">e</tspan></text>
    <text class="cls-2" transform="translate(471.5266 315.2905) rotate(-90)"><tspan x="0" y="0">Cont</tspan><tspan class="cls-118" x="21.6699" y="0">r</tspan><tspan x="25.5498" y="0">ols</tspan></text>
    <text class="cls-17" transform="translate(35.6423 82.985)"><tspan class="cls-21" x="0" y="0">P</tspan><tspan class="cls-108" x="4.936" y="0">r</tspan><tspan class="cls-32" x="7.96" y="0">o</tspan><tspan x="12.4238" y="0">file</tspan></text>
    <text class="cls-17" transform="translate(193.1536 82.9845)"><tspan class="cls-117" x="0" y="0">V</tspan><tspan x="4.7681" y="0">ersion</tspan></text>
    <text class="cls-17" transform="translate(243.4172 82.9846)"><tspan x="0" y="0">S</tspan><tspan class="cls-64" x="4.7842" y="0">c</tspan><tspan class="cls-109" x="8.8159" y="0">ope</tspan></text>
    <text class="cls-17" transform="translate(310.4333 82.9845)"><tspan x="0" y="0">Scan d</tspan><tspan class="cls-22" x="24.5195" y="0">a</tspan><tspan class="cls-86" x="28.8877" y="0">t</tspan><tspan x="31.7754" y="0">e</tspan></text>
    <text class="cls-17" transform="translate(430.9451 82.9845)"><tspan class="cls-83" x="0" y="0">T</tspan><tspan x="4.3281" y="0">ype</tspan></text>
    <text class="cls-17" transform="translate(513.3529 82.9846)"><tspan x="0" y="0">ID</tspan></text>
    <text class="cls-17" transform="translate(739.8689 82.9846)"><tspan x="0" y="0">Bi</tspan><tspan class="cls-32" x="7.3921" y="0">l</tspan><tspan x="9.624" y="0">lable </tspan><tspan class="cls-80" x="29.6475" y="0">ev</tspan><tspan class="cls-106" x="38.0479" y="0">alu</tspan><tspan class="cls-22" x="49.3594" y="0">a</tspan><tspan x="53.7275" y="0">tions</tspan></text>
    <text class="cls-18" transform="translate(35.6423 96.102)"><tspan x="0" y="0">IBM Cloud Security Be</tspan><tspan class="cls-82" x="92.1406" y="0">s</tspan><tspan class="cls-122" x="96.5239" y="0">t </tspan><tspan class="cls-25" x="101.9326" y="0">P</tspan><tspan class="cls-101" x="107.4854" y="0">r</tspan><tspan class="cls-23" x="110.8604" y="0">acti</tspan><tspan class="cls-33" x="126.061" y="0">c</tspan><tspan x="130.5972" y="0">es</tspan></text>
    <text class="cls-18" transform="translate(193.1538 96.1019)"><tspan x="0" y="0">1.0.0</tspan></text>
    <text class="cls-18" transform="translate(243.4174 96.1022)"><tspan x="0" y="0">A</tspan><tspan class="cls-60" x="5.958" y="0">cc</tspan><tspan x="15.0298" y="0">ount A</tspan></text>
    <text class="cls-18" transform="translate(310.4335 96.102)"><tspan x="0" y="0">11/18/2022, 8:23 PM</tspan></text>
    <text class="cls-18" transform="translate(430.9452 96.1022)"><tspan x="0" y="0">Scheduled</tspan></text>
    <text class="cls-18" transform="translate(512.9215 96.1022)"><tspan x="0" y="0">b108ndb</tspan><tspan class="cls-110" x="37.4033" y="0">a</tspan><tspan x="42.2993" y="0">-993</tspan><tspan class="cls-60" x="62.1084" y="0">s</tspan><tspan x="66.5" y="0">-47</tspan><tspan class="cls-33" x="80.9087" y="0">sss</tspan><tspan x="94.0845" y="0">-jlabsdnkfjb2983r0a</tspan></text>
    <text class="cls-18" transform="translate(740.5572 96.1022)"><tspan x="0" y="0">634</tspan></text>
    <text class="cls-6" transform="translate(817.2889 82.6715)"><tspan x="0" y="0">?</tspan></text>
    <text class="cls-5" transform="translate(36.5663 464.3392)"><tspan x="0" y="0">Highe</tspan><tspan class="cls-101" x="32.6396" y="0">s</tspan><tspan class="cls-85" x="38.5918" y="0">t priority </tspan><tspan class="cls-108" x="90.479" y="0">r</tspan><tspan x="95.2666" y="0">esou</tspan><tspan class="cls-119" x="121.9785" y="0">rc</tspan><tspan x="132.9106" y="0">es</tspan></text>
    <text class="cls-15" transform="translate(45.0766 499.9138)"><tspan class="cls-112" x="0" y="0">R</tspan><tspan x="7.249" y="0">esou</tspan><tspan class="cls-121" x="31.7349" y="0">rc</tspan><tspan x="41.7559" y="0">e</tspan></text>
    <text class="cls-15" transform="translate(489.4909 499.9141)"><tspan x="0" y="0">Component</tspan></text>
    <text class="cls-5" transform="translate(673.2795 500.2016)"><tspan x="0" y="0">A</tspan><tspan class="cls-119" x="8.2197" y="0">cc</tspan><tspan x="20.5083" y="0">ount</tspan></text>
    <text class="cls-15" transform="translate(783.6625 500.0579)"><tspan class="cls-26" x="0" y="0">F</tspan><tspan x="5.9951" y="0">ailed</tspan></text>
    <text class="cls-10" transform="translate(66.3055 528.5537)"><tspan x="0" y="0">Ap</tspan><tspan class="cls-118" x="12.21" y="0">p</tspan><tspan class="cls-58" x="17.96" y="0">I</tspan><tspan class="cls-89" x="21.9595" y="0">D</tspan><tspan class="cls-104" x="28.8198" y="0">-</tspan><tspan class="cls-116" x="32.3096" y="0">T</tspan><tspan class="cls-27" x="37.3794" y="0">e</tspan><tspan class="cls-99" x="42.8696" y="0">s</tspan><tspan class="cls-27" x="47.6694" y="0">ting-Da</tspan><tspan class="cls-118" x="80.6792" y="0">l</tspan><tspan class="cls-27" x="83.3491" y="0">las</tspan></text>
    <text class="cls-10" transform="translate(66.3057 559.6827)"><tspan x="0" y="0">M</tspan><tspan class="cls-21" x="8.1201" y="0">y</tspan><tspan class="cls-27" x="13.0098" y="0">-</tspan><tspan class="cls-21" x="17" y="0">L</tspan><tspan x="21.9097" y="0">oad-Balan</tspan><tspan class="cls-20" x="68.249" y="0">c</tspan><tspan x="73.2192" y="0">e</tspan><tspan class="cls-29" x="78.709" y="0">r</tspan><tspan x="82.1792" y="0">-</tspan><tspan class="cls-77" x="86.1689" y="0">F</tspan><tspan x="91.5088" y="0">o</tspan><tspan class="cls-29" x="97.1089" y="0">r</tspan><tspan class="cls-104" x="100.5791" y="0">-</tspan><tspan class="cls-114" x="104.0688" y="0">T</tspan><tspan x="109.1392" y="0">e</tspan><tspan class="cls-91" x="114.6289" y="0">s</tspan><tspan x="119.4292" y="0">ting</tspan></text>
    <text class="cls-15" transform="translate(74.6884 587.7672)"><tspan x="0" y="0">A</tspan><tspan class="cls-102" x="7.5352" y="0">s</tspan><tspan x="13.002" y="0">se</tspan><tspan class="cls-96" x="24.728" y="0">s</tspan><tspan x="30.1953" y="0">sment</tspan></text>
    <text class="cls-15" transform="translate(548.2393 587.8986)"><tspan x="0" y="0">Cont</tspan><tspan class="cls-30" x="24.1338" y="0">r</tspan><tspan x="28.5225" y="0">ols</tspan></text>
    <text class="cls-15" transform="translate(623.924 587.767)"><tspan x="0" y="0">Method</tspan></text>
    <text class="cls-15" transform="translate(712.3377 587.767)"><tspan class="cls-55" x="0" y="0">T</tspan><tspan class="cls-98" x="6.0942" y="0">ype</tspan></text>
    <text class="cls-15" transform="translate(783.6625 587.7671)"><tspan class="cls-121" x="0" y="0">S</tspan><tspan x="6.8091" y="0">t</tspan><tspan class="cls-63" x="11.022" y="0">a</tspan><tspan x="17.2148" y="0">tus</tspan></text>
    <line class="cls-76" x1="65.6669" y1="625.8706" x2="824.6162" y2="625.8706"/>
    <text class="cls-9" transform="translate(74.9082 616.1137)"><tspan x="0" y="0">Check whether Application </tspan><tspan class="cls-111" x="122.8481" y="0">L</tspan><tspan class="cls-58" x="127.7583" y="0">oad Balan</tspan><tspan class="cls-20" x="172.4673" y="0">c</tspan><tspan class="cls-59" x="177.438" y="0">er </tspan><tspan class="cls-90" x="188.9575" y="0">f</tspan><tspan x="192.1577" y="0">or VPC uses H</tspan><tspan class="cls-105" x="254.8462" y="0">T</tspan><tspan x="260.7964" y="0">TPS (</tspan><tspan class="cls-111" x="284.0962" y="0">S</tspan><tspan x="289.8062" y="0">SL &amp; TLS) in</tspan><tspan class="cls-62" x="342.7144" y="0">s</tspan><tspan class="cls-90" x="347.5151" y="0">t</tspan><tspan x="350.9849" y="0">ead </tspan><tspan class="cls-20" x="369.9751" y="0">o</tspan><tspan class="cls-59" x="375.5151" y="0">f H</tspan><tspan class="cls-105" x="388.1841" y="0">T</tspan><tspan x="394.1343" y="0">TP</tspan></text>
    <text class="cls-9" transform="translate(75.4883 641.3229)"><tspan x="0" y="0">Check whether Application </tspan><tspan class="cls-111" x="122.8481" y="0">L</tspan><tspan class="cls-58" x="127.7583" y="0">oad Balan</tspan><tspan class="cls-20" x="172.4673" y="0">c</tspan><tspan class="cls-59" x="177.438" y="0">er </tspan><tspan class="cls-90" x="188.9575" y="0">f</tspan><tspan x="192.1577" y="0">or VPC has hea</tspan><tspan class="cls-118" x="259.2661" y="0">l</tspan><tspan class="cls-28" x="261.936" y="0">th check </tspan><tspan class="cls-78" x="302.3462" y="0">c</tspan><tspan x="307.3159" y="0">onfi</tspan><tspan class="cls-90" x="324.2651" y="0">g</tspan><tspan x="329.5054" y="0">u</tspan><tspan class="cls-118" x="335.1851" y="0">r</tspan><tspan x="338.8052" y="0">ed</tspan></text>
    <text class="cls-10" transform="translate(548.2387 616.1141)"><tspan x="0" y="0">1</tspan></text>
    <text class="cls-10" transform="translate(548.2395 641.3225)"><tspan x="0" y="0">1</tspan></text>
    <text class="cls-10" transform="translate(623.9232 616.1137)"><tspan x="0" y="0">IBM Cloud rule</tspan></text>
    <text class="cls-10" transform="translate(623.9239 641.3225)"><tspan x="0" y="0">IBM Cloud rule</tspan></text>
    <text class="cls-10" transform="translate(712.3381 616.1141)"><tspan x="0" y="0">Au</tspan><tspan class="cls-88" x="12.0898" y="0">t</tspan><tspan class="cls-58" x="15.5601" y="0">oma</tspan><tspan class="cls-88" x="35.2295" y="0">t</tspan><tspan x="38.6997" y="0">ed</tspan></text>
    <text class="cls-10" transform="translate(712.3375 641.3223)"><tspan x="0" y="0">Au</tspan><tspan class="cls-88" x="12.0898" y="0">t</tspan><tspan class="cls-58" x="15.5601" y="0">oma</tspan><tspan class="cls-88" x="35.2295" y="0">t</tspan><tspan x="38.6997" y="0">ed</tspan></text>
    <text class="cls-10" transform="translate(797.0759 559.6827)"><tspan x="0" y="0">13</tspan></text>
    <text class="cls-10" transform="translate(797.076 528.5539)"><tspan x="0" y="0">25</tspan></text>
    <text class="cls-10" transform="translate(673.2788 528.5538)"><tspan x="0" y="0">A</tspan><tspan class="cls-20" x="6.4097" y="0">cc</tspan><tspan x="16.3496" y="0">ount A</tspan></text>
    <text class="cls-10" transform="translate(673.2791 559.6829)"><tspan x="0" y="0">A</tspan><tspan class="cls-20" x="6.4097" y="0">cc</tspan><tspan x="16.3496" y="0">ount C</tspan></text>
    <text class="cls-10" transform="translate(505.2382 528.5542)"><tspan x="0" y="0">App ID</tspan></text>
    <text class="cls-10" transform="translate(505.2383 559.6825)"><tspan class="cls-111" x="0" y="0">L</tspan><tspan class="cls-58" x="4.9102" y="0">oad Balan</tspan><tspan class="cls-61" x="49.6196" y="0">c</tspan><tspan class="cls-27" x="54.5894" y="0">er </tspan><tspan class="cls-90" x="66.1094" y="0">f</tspan><tspan x="69.3091" y="0">or VPC</tspan></text>
  </g>
</svg>