<?xml version="1.0" encoding="UTF-8"?>
<svg xmlns="http://www.w3.org/2000/svg" viewBox="0 0 864 648">
  <defs>
    <style>
      .cls-1, .cls-2, .cls-3, .cls-4, .cls-5, .cls-6, .cls-7, .cls-8, .cls-9, .cls-10, .cls-11, .cls-12, .cls-13, .cls-14, .cls-15, .cls-16, .cls-17, .cls-18, .cls-19 {
        isolation: isolate;
      }

      .cls-1, .cls-3, .cls-20, .cls-7, .cls-18 {
        fill: #8d8d8d;
      }

      .cls-1, .cls-3, .cls-5, .cls-13, .cls-14, .cls-15, .cls-17, .cls-18, .cls-19 {
        font-family: IBMPlexSans-Medium, 'IBM Plex Sans';
        font-weight: 500;
      }

      .cls-1, .cls-6, .cls-14, .cls-17 {
        font-size: 12px;
      }

      .cls-21 {
        letter-spacing: -.006em;
      }

      .cls-22 {
        letter-spacing: -.01em;
      }

      .cls-23 {
        letter-spacing: -.003em;
      }

      .cls-24 {
        letter-spacing: 0em;
      }

      .cls-2 {
        font-family: IBMPlexSans-SemiBold, 'IBM Plex Sans';
        font-weight: 600;
      }

      .cls-2, .cls-4, .cls-25, .cls-6, .cls-9, .cls-11, .cls-13, .cls-15, .cls-16 {
        fill: #525252;
      }

      .cls-2, .cls-10, .cls-11, .cls-15 {
        font-size: 10px;
      }

      .cls-26 {
        letter-spacing: -.04em;
      }

      .cls-27 {
        letter-spacing: 0em;
      }

      .cls-28 {
        letter-spacing: 0em;
      }

      .cls-29 {
        letter-spacing: -.02em;
      }

      .cls-30 {
        letter-spacing: -.02em;
      }

      .cls-31 {
        letter-spacing: -.005em;
      }

      .cls-32 {
        letter-spacing: -.006em;
      }

      .cls-33 {
        letter-spacing: -.006em;
      }

      .cls-3, .cls-4 {
        font-size: 9.1605px;
      }

      .cls-4, .cls-6, .cls-16 {
        font-family: IBMPlexSans-Bold, 'IBM Plex Sans';
        font-weight: 700;
      }

      .cls-34 {
        letter-spacing: -.006em;
      }

      .cls-35 {
        letter-spacing: .004em;
      }

      .cls-36 {
        fill: #002d9c;
      }

      .cls-37 {
        fill: #f1c21b;
      }

      .cls-38, .cls-39, .cls-40, .cls-41, .cls-42 {
        fill: #f4f4f4;
      }

      .cls-43, .cls-44 {
        fill: #fff;
      }

      .cls-45, .cls-46, .cls-47 {
        fill: #e0e0e0;
      }

      .cls-48 {
        fill: #da1e28;
      }

      .cls-49 {
        fill: #c6c6c6;
      }

      .cls-50, .cls-5, .cls-51, .cls-10, .cls-52, .cls-17 {
        fill: #0f62fe;
      }

      .cls-53, .cls-54 {
        fill: #198038;
      }

      .cls-55, .cls-8 {
        fill: #3b95d1;
      }

      .cls-56 {
        letter-spacing: -.03em;
      }

      .cls-5, .cls-19 {
        font-size: 9px;
      }

      .cls-57 {
        letter-spacing: -.015em;
      }

      .cls-58 {
        letter-spacing: .01em;
      }

      .cls-59 {
        letter-spacing: .01em;
      }

      .cls-60 {
        letter-spacing: 0em;
      }

      .cls-61 {
        letter-spacing: 0em;
      }

      .cls-51, .cls-62 {
        letter-spacing: -.006em;
      }

      .cls-63 {
        letter-spacing: -.024em;
      }

      .cls-64 {
        letter-spacing: -.006em;
      }

      .cls-65 {
        letter-spacing: -.0069em;
      }

      .cls-66 {
        letter-spacing: -.006em;
      }

      .cls-67 {
        letter-spacing: -.006em;
      }

      .cls-68 {
        letter-spacing: -.007em;
      }

      .cls-44, .cls-39, .cls-46, .cls-47, .cls-54 {
        stroke-width: .25px;
      }

      .cls-44, .cls-39, .cls-46, .cls-47, .cls-54, .cls-40, .cls-41, .cls-42, .cls-69, .cls-70, .cls-71, .cls-72, .cls-73, .cls-74, .cls-75, .cls-76, .cls-77, .cls-78, .cls-79 {
        stroke-miterlimit: 10;
      }

      .cls-44, .cls-39, .cls-46, .cls-78 {
        stroke: #c6c6c6;
      }

      .cls-80 {
        letter-spacing: -.025em;
      }

      .cls-81 {
        letter-spacing: -.0061em;
      }

      .cls-82 {
        letter-spacing: .006em;
      }

      .cls-83 {
        letter-spacing: -.009em;
      }

      .cls-84 {
        letter-spacing: .007em;
      }

      .cls-47, .cls-54, .cls-69 {
        stroke: #a8a8a8;
      }

      .cls-85 {
        letter-spacing: -.0069em;
      }

      .cls-7 {
        font-size: 6.79px;
      }

      .cls-7, .cls-9, .cls-10, .cls-11, .cls-12 {
        font-family: IBMPlexSans, 'IBM Plex Sans';
      }

      .cls-8 {
        opacity: .5;
      }

      .cls-9 {
        font-size: 23px;
      }

      .cls-86 {
        letter-spacing: -.036em;
      }

      .cls-12 {
        font-size: 34.9722px;
      }

      .cls-87 {
        letter-spacing: 0em;
      }

      .cls-40, .cls-75 {
        stroke: #da1e28;
      }

      .cls-41, .cls-73 {
        stroke: #f1c21b;
      }

      .cls-42, .cls-71 {
        stroke: #198038;
      }

      .cls-88 {
        letter-spacing: -.004em;
      }

      .cls-89 {
        letter-spacing: -.014em;
      }

      .cls-90 {
        letter-spacing: -.004em;
      }

      .cls-91 {
        letter-spacing: .015em;
      }

      .cls-92 {
        letter-spacing: -.004em;
      }

      .cls-93 {
        letter-spacing: -.007em;
      }

      .cls-94 {
        letter-spacing: -.004em;
      }

      .cls-95 {
        letter-spacing: -.008em;
      }

      .cls-96 {
        letter-spacing: -.008em;
      }

      .cls-97 {
        letter-spacing: .009em;
      }

      .cls-98 {
        letter-spacing: -.004em;
      }

      .cls-99 {
        letter-spacing: -.007em;
      }

      .cls-100 {
        letter-spacing: 0em;
      }

      .cls-101 {
        letter-spacing: -.007em;
      }

      .cls-102 {
        letter-spacing: -.007em;
      }

      .cls-103 {
        letter-spacing: -.008em;
      }

      .cls-104 {
        letter-spacing: -.004em;
      }

      .cls-69, .cls-70, .cls-71, .cls-72, .cls-73, .cls-74, .cls-75, .cls-76, .cls-77, .cls-78, .cls-79 {
        fill: none;
      }

      .cls-70, .cls-76 {
        stroke: #0f62fe;
      }

      .cls-72, .cls-77 {
        stroke: #8d8d8d;
      }

      .cls-74 {
        stroke: #525252;
      }

      .cls-105 {
        letter-spacing: -.007em;
      }

      .cls-106 {
        letter-spacing: -.0079em;
      }

      .cls-107 {
        letter-spacing: -.05em;
      }

      .cls-108 {
        letter-spacing: .023em;
      }

      .cls-109 {
        letter-spacing: 0em;
      }

      .cls-110 {
        letter-spacing: .009em;
      }

      .cls-52, .cls-111 {
        letter-spacing: -.005em;
      }

      .cls-13 {
        font-size: 10.9926px;
      }

      .cls-112 {
        letter-spacing: 0em;
      }

      .cls-113 {
        letter-spacing: -.005em;
      }

      .cls-114 {
        letter-spacing: -.005em;
      }

      .cls-115 {
        letter-spacing: -.01em;
      }

      .cls-116 {
        letter-spacing: -.015em;
      }

      .cls-117 {
        letter-spacing: -.0049em;
      }

      .cls-118 {
        letter-spacing: -.0649em;
      }

      .cls-119 {
        letter-spacing: -.065em;
      }

      .cls-120 {
        letter-spacing: -.065em;
      }

      .cls-121 {
        letter-spacing: -.032em;
      }

      .cls-16 {
        font-size: 11px;
      }

      .cls-18 {
        font-size: 8px;
      }

      .cls-122 {
        letter-spacing: -.005em;
      }

      .cls-123 {
        letter-spacing: -.005em;
      }

      .cls-19 {
        fill: #393939;
      }

      .cls-124 {
        letter-spacing: -.005em;
      }

      .cls-125 {
        letter-spacing: -.005em;
      }

      .cls-126 {
        letter-spacing: 0em;
      }

      .cls-76, .cls-77, .cls-78, .cls-79 {
        stroke-width: .5px;
      }

      .cls-79 {
        stroke: #e0e0e0;
      }
    </style>
  </defs>
  <g id="Layer_1" data-name="Layer 1">
    <rect class="cls-38" x="-.1254" width="864.2509" height="648"/>
    <rect class="cls-43" x="30.6489" y="441.4827" width="804.8976" height="202.5411"/>
    <rect class="cls-43" x="28.4535" y="158.5144" width="213.9177" height="274.2698"/>
    <rect class="cls-44" x="27.0841" y="59.9968" width="805.0589" height="57.9974"/>
    <rect class="cls-44" x="28.4535" y="127.6031" width="104.7133" height="30.9113"/>
    <rect class="cls-46" x="135.2509" y="127.6031" width="107.1202" height="28.7737"/>
    <rect class="cls-46" x="242.3712" y="127.6031" width="104.9817" height="28.7737"/>
    <rect class="cls-43" x="28.5818" y="154.3724" width="104.4516" height="6.0155"/>
    <rect class="cls-44" x="244.7464" y="158.5144" width="213.9177" height="274.2698"/>
    <rect class="cls-44" x="460.5589" y="158.5144" width="372.8728" height="274.2698"/>
    <rect class="cls-39" x="471.0714" y="206.021" width="349.3482" height="19.1672"/>
    <rect class="cls-39" x="497.7577" y="240.6348" width="323.8507" height="123.661"/>
    <text class="cls-18" transform="translate(349.6891 363.1579)"><tspan x="0" y="0">20</tspan></text>
    <text class="cls-18" transform="translate(349.6891 363.1579)"><tspan x="0" y="0">20</tspan></text>
    <line class="cls-78" x1="530.804" y1="240.5058" x2="530.804" y2="364.2959"/>
    <line class="cls-78" x1="617.0963" y1="240.5058" x2="617.0963" y2="364.4249"/>
    <line class="cls-78" x1="704.7392" y1="240.6348" x2="704.7392" y2="364.4582"/>
    <line class="cls-78" x1="792.3286" y1="240.6348" x2="792.3286" y2="364.2959"/>
    <line class="cls-78" x1="573.9045" y1="240.5058" x2="573.9045" y2="364.4249"/>
    <line class="cls-78" x1="660.8359" y1="240.5058" x2="660.8359" y2="364.4249"/>
    <line class="cls-78" x1="748.4977" y1="240.5058" x2="748.4977" y2="364.4249"/>
    <line class="cls-78" x1="821.6694" y1="342.3595" x2="497.6966" y2="342.3595"/>
    <line class="cls-78" x1="821.7915" y1="322.4746" x2="497.8187" y2="322.4746"/>
    <line class="cls-78" x1="821.7915" y1="302.4653" x2="497.8187" y2="302.4653"/>
    <line class="cls-78" x1="821.7305" y1="282.6784" x2="497.7577" y2="282.6784"/>
    <line class="cls-78" x1="821.7305" y1="262.9739" x2="497.7577" y2="262.9739"/>
    <line class="cls-71" x1="530.804" y1="303.2682" x2="617.005" y2="262.9739"/>
    <line class="cls-71" x1="617.005" y1="262.9739" x2="704.6668" y2="322.4746"/>
    <line class="cls-71" x1="704.1796" y1="322.5907" x2="793.5654" y2="283.1211"/>
    <line class="cls-71" x1="497.6966" y1="342.3595" x2="530.804" y2="303.2682"/>
    <line class="cls-75" x1="497.6966" y1="283.1211" x2="617.005" y2="322.4746"/>
    <line class="cls-75" x1="616.6407" y1="322.4746" x2="704.6668" y2="283.1211"/>
    <line class="cls-75" x1="704.3156" y1="282.8693" x2="792.8072" y2="322.2228"/>
    <line class="cls-73" x1="498.3631" y1="355.161" x2="617.005" y2="355.161"/>
    <line class="cls-73" x1="616.7502" y1="355.161" x2="704.2289" y2="330.279"/>
    <line class="cls-73" x1="704.2289" y1="330.279" x2="792.3286" y2="355.161"/>
    <path class="cls-54" d="M178.8877,255.0712c-11.6473-10.1016-26.8474-16.2149-43.4753-16.2149-36.664,0-66.3861,29.7221-66.3861,66.3861h-17.3766c0-46.2609,37.5019-83.7627,83.7627-83.7627,21.0166,0,40.2254,7.7402,54.9313,20.5254"/>
    <line class="cls-69" x1="201.7984" y1="305.2424" x2="219.1751" y2="305.2424"/>
    <path class="cls-47" d="M219.1751,305.2424c0-25.2443-11.1674-47.8803-28.8315-63.2374l-12.1508,12.1508,.6949,.9154c14.0346,12.1721,22.9108,30.1351,22.9108,50.1712"/>
    <line class="cls-70" x1="28.4535" y1="127.6031" x2="133.1668" y2="127.6031"/>
    <circle class="cls-42" cx="617.0963" cy="262.9739" r="1.7331"/>
    <circle class="cls-42" cx="530.804" cy="303.2682" r="1.7331"/>
    <circle class="cls-40" cx="617.0963" cy="322.3117" r="1.7331"/>
    <circle class="cls-41" cx="530.804" cy="355.161" r="1.7331"/>
    <circle class="cls-41" cx="617.0963" cy="354.9847" r="1.7331"/>
    <circle class="cls-40" cx="704.7392" cy="283.1211" r="1.7331"/>
    <circle class="cls-42" cx="704.7392" cy="322.3117" r="1.7331"/>
    <circle class="cls-41" cx="704.7392" cy="330.1132" r="1.7331"/>
    <circle class="cls-42" cx="792.3286" cy="283.1211" r="1.7331"/>
    <circle class="cls-40" cx="792.3286" cy="322.3117" r="1.7331"/>
    <circle class="cls-41" cx="792.3286" cy="355.161" r="1.7331"/>
    <circle class="cls-40" cx="530.804" cy="294.0414" r="1.7331"/>
    <g>
      <path class="cls-53" d="M295.7033,344.5642c34.3098,30.9312,87.1981,28.1922,118.1292-6.1176,30.9312-34.3098,28.1922-87.1981-6.1176-118.1292-15.1893-13.6935-34.869-21.3477-55.3189-21.5157l-.154,18.401c36.0334,.2999,65.0011,29.7538,64.7012,65.7873-.2999,36.0334-29.7538,65.0011-65.7873,64.7012-15.9554-.1328-31.3091-6.1076-43.1575-16.7945l-11.9927,13.2924h0l-.3025,.3751Z"/>
      <path class="cls-48" d="M323.516,203.6871c-22.9297,8.2133-41.6702,26.2463-50.3643,50.0391l17.284,6.319c6.7316-18.4779,21.4566-32.9216,40.0609-39.2956"/>
      <path class="cls-37" d="M330.4966,220.7496c6.9947-2.4076,14.3482-3.6071,21.7455-3.547l.154-18.401c-10.0417-.0833-19.79,1.6295-28.88,4.8855"/>
      <path class="cls-48" d="M286.5613,286.1285c-.5005-8.8676,.818-17.744,3.8744-26.0832l-17.284-6.319c-3.9174,10.6911-5.6048,22.071-4.9583,33.4387l18.3679-1.0365Z"/>
      <path class="cls-48" d="M295.6701,344.5571l12.3285-13.6605c-12.7857-11.5412-20.492-27.6677-21.44-44.8658l-18.3718,1.007c1.2009,22.0514,11.0818,42.7309,27.4834,57.5193Z"/>
    </g>
    <rect class="cls-53" x="272.2033" y="384.1531" width="8.4977" height="8.4977"/>
    <rect class="cls-48" x="344.6658" y="384.1531" width="8.4977" height="8.4977"/>
    <rect class="cls-37" x="300.2341" y="407.0545" width="8.4977" height="8.4977"/>
    <rect class="cls-53" x="472.856" y="407.0535" width="8.4977" height="8.4977"/>
    <rect class="cls-37" x="637.4008" y="407.0545" width="8.4977" height="8.4977"/>
    <g>
      <line class="cls-72" x1="806.7886" y1="213.9629" x2="812.1994" y2="219.3737"/>
      <line class="cls-72" x1="816.9402" y1="213.9629" x2="811.5294" y2="219.3737"/>
    </g>
    <rect class="cls-49" x="38.8191" y="478.9848" width="787.1261" height="165.039"/>
    <rect class="cls-38" x="38.8191" y="509.2728" width="787.1261" height="30.1894"/>
    <rect class="cls-38" x="38.8191" y="540.5968" width="787.1261" height="105.4271"/>
    <g>
      <line class="cls-72" x1="46.4055" y1="520.8525" x2="51.8163" y2="526.2633"/>
      <line class="cls-72" x1="56.5572" y1="520.8525" x2="51.1464" y2="526.2633"/>
    </g>
    <g>
      <line class="cls-72" x1="56.5572" y1="557.392" x2="51.1464" y2="551.9811"/>
      <line class="cls-72" x1="46.4055" y1="557.392" x2="51.8163" y2="551.9811"/>
    </g>
    <rect class="cls-45" x="66.9959" y="569.916" width="758.9493" height="25.812"/>
    <path class="cls-53" d="M789.6347,631.6835c-2.5641,0-4.6428,2.0787-4.6428,4.6428s2.0787,4.6428,4.6428,4.6428,4.6428-2.0787,4.6428-4.6428-2.0787-4.6428-4.6428-4.6428Zm-.6633,6.4969l-1.6581-1.6581,.5275-.5276,1.1307,1.1306,2.4574-2.4571,.5292,.5259-2.9865,2.9863Z"/>
    <path class="cls-48" d="M789.8253,518.746c-2.6529-.0141-4.8169,1.8236-4.8334,4.1048-.0001,.0171-.0001,.0341,0,.0512-.0164,2.2811,2.1209,4.1418,4.7738,4.156,.0199,.0001,.0397,.0001,.0596,0,2.6529,.0141,4.8169-1.8236,4.8334-4.1048,.0001-.0171,.0001-.0341,0-.0512,.0164-2.2811-2.1209-4.1418-4.7738-4.156-.0199-.0001-.0397-.0001-.0596,0Zm1.8798,6.234l-4.2965-3.6942,.5371-.4618,4.2963,3.6943-.5369,.4617Z"/>
    <g>
      <path class="cls-8" d="M501.4751,521.3932c0-2.9554-2.411-5.3404-5.3404-5.3404-2.9554,0-5.3145,2.3851-5.3145,5.3404h1.0111c0-2.3591,1.9443-4.2775,4.3035-4.2775s4.2775,1.9184,4.2775,4.2775h1.0629Z"/>
      <path class="cls-55" d="M501.4492,521.2376l.7777,5.159h-1.2962v1.5814c0,.5963-.674,1.0111-1.2703,1.0111h-2.6184v2.074h-6.2219v-9.7994l10.629-.0259Z"/>
      <path class="cls-43" d="M495.2273,524.0893c0-.4926,.4148-.9074,.9074-.9074s.9074,.4148,.9074,.9074c0,.337-.1815,.6222-.4407,.7777l.2852,1.7888h-1.5295l.2852-1.7888c-.2592-.1555-.4148-.4407-.4148-.7777Z"/>
    </g>
    <g>
      <path class="cls-36" d="M493.1773,560.1866h-2.3571v-2.3571h2.3571v2.3571Zm-1.5714-.7857h.7857v-.7857h-.7857v.7857Z"/>
      <path class="cls-36" d="M497.4987,560.1866h-2.3571v-2.3571h2.3571v2.3571Zm-1.5714-.7857h.7857v-.7857h-.7857v.7857Z"/>
      <path class="cls-36" d="M501.8202,560.1866h-2.3571v-2.3571h2.3571v2.3571Zm-1.5714-.7857h.7857v-.7857h-.7857v.7857Z"/>
      <path class="cls-36" d="M496.3202,552.3294c-.8679,0-1.5714-.7036-1.5714-1.5714s.7036-1.5714,1.5714-1.5714,1.5714,.7036,1.5714,1.5714c-.001,.8675-.704,1.5705-1.5714,1.5714Zm0-2.3571c-.4339,0-.7857,.3518-.7857,.7857s.3518,.7857,.7857,.7857,.7857-.3518,.7857-.7857c-.0004-.4338-.352-.7853-.7857-.7857Z"/>
      <path class="cls-36" d="M500.2487,554.6866h-1.9643c-.8675-.001-1.5705-.704-1.5714-1.5714h-.7857c-.001,.8675-.704,1.5705-1.5714,1.5714h-1.9643c-.4337,.0005-.7852,.352-.7857,.7857v1.5714h.7857v-1.5714h1.9643c.5806-.0002,1.1406-.2157,1.5714-.605v2.1764h.7857v-2.1764c.4308,.3893,.9908,.6048,1.5714,.605h1.9643v1.5714h.7857v-1.5714c-.0005-.4337-.352-.7852-.7857-.7857Z"/>
    </g>
    <path class="cls-48" d="M789.8253,550.5331c-2.6529-.0141-4.8169,1.8236-4.8334,4.1048-.0001,.0171-.0001,.0341,0,.0512-.0164,2.2811,2.1209,4.1418,4.7738,4.156,.0199,.0001,.0397,.0001,.0596,0,2.6529,.0141,4.8169-1.8236,4.8334-4.1048,.0001-.0171,.0001-.0341,0-.0512,.0164-2.2811-2.1209-4.1418-4.7738-4.156-.0199-.0001-.0397-.0001-.0596,0Zm1.8798,6.234l-4.2965-3.6942,.5371-.4618,4.2963,3.6943-.5369,.4617Z"/>
    <path class="cls-48" d="M789.8253,605.6552c-2.6529-.0141-4.8169,1.8236-4.8334,4.1048-.0001,.0171-.0001,.0341,0,.0512-.0164,2.2811,2.1209,4.1418,4.7738,4.156,.0199,.0001,.0397,.0001,.0596,0,2.6529,.0141,4.8169-1.8236,4.8334-4.1048,.0001-.0171,.0001-.0341,0-.0512,.0164-2.2811-2.1209-4.1418-4.7738-4.156-.0199-.0001-.0397-.0001-.0596,0Zm1.8798,6.234l-4.2965-3.6942,.5371-.4618,4.2963,3.6943-.5369,.4617Z"/>
    <rect class="cls-76" x="708.4522" y="21.2133" width="123.6908" height="33.1521"/>
    <circle class="cls-74" cx="122.7716" cy="176.2012" r="5.8737"/>
    <circle class="cls-74" cx="345.2505" cy="176.2012" r="5.8737"/>
    <g>
      <circle class="cls-74" cx="508.808" cy="176.2012" r="5.8737"/>
      <text class="cls-4" transform="translate(506.5775 178.9079)"><tspan x="0" y="0">?</tspan></text>
    </g>
    <rect class="cls-48" x="545.3185" y="407.0538" width="8.4977" height="8.4977"/>
    <g>
      <path class="cls-50" d="M690.4093,45.6157c-2.4699,0-4.4722-2.0023-4.4722-4.4722s2.0023-4.4722,4.4722-4.4722,4.4722,2.0023,4.4722,4.4722-2.0023,4.4722-4.4722,4.4722Zm0-7.8263c-1.8524,0-3.3541,1.5017-3.3541,3.3541s1.5017,3.3541,3.3541,3.3541,3.3541-1.5017,3.3541-3.3541-1.5017-3.3541-3.3541-3.3541Z"/>
      <polygon class="cls-50" points="691.2981 42.8206 689.8503 41.3727 689.8503 38.9074 690.9683 38.9074 690.9683 40.9143 692.0863 42.0323 691.2981 42.8206"/>
      <path class="cls-50" d="M694.3224,32.1992c0-.6175-.5006-1.118-1.118-1.118h-2.2361v-1.118h-1.118v1.118h-4.4722v-1.118h-1.118v1.118h-2.2361c-.6175,0-1.118,.5006-1.118,1.118v11.1804c0,.6175,.5006,1.118,1.118,1.118h2.2361v-1.118h-2.2361v-11.1804h2.2361v1.118h1.118v-1.118h4.4722v1.118h1.118v-1.118h2.2361v3.3541h1.118v-3.3541Z"/>
    </g>
    <g>
      <path class="cls-50" d="M824.6537,41.4849v1.8478h-9.2388v-1.8478h-.9239v1.8478h0c0,.5102,.4136,.9239,.9239,.9239h9.2388c.5102,0,.9239-.4136,.9239-.9239h0v-1.8478h-.9239Z"/>
      <polygon class="cls-50" points="824.6537 36.8655 824.0023 36.2141 820.4962 39.7157 820.4962 31.3222 819.5723 31.3222 819.5723 39.7157 816.0662 36.2141 815.4148 36.8655 820.0342 41.4849 824.6537 36.8655"/>
    </g>
    <circle class="cls-77" cx="730.9426" cy="75.5971" r="4.3537"/>
    <g>
      <path class="cls-20" d="M625.3093,86.1501v6.8067h-6.8067v-6.8067h6.8067m0-.7563h-6.8067c-.4177,0-.7563,.3386-.7563,.7563v6.8067c0,.4177,.3386,.7563,.7563,.7563h6.8067c.4177,0,.7563-.3386,.7563-.7563v-6.8067c0-.4177-.3386-.7563-.7563-.7563Z"/>
      <path class="cls-20" d="M616.2337,89.1753h-.7563v-5.2941c0-.4177,.3386-.7563,.7563-.7563h5.2941v.7563h-5.2941v5.2941Z"/>
    </g>
    <g>
      <circle class="cls-74" cx="194.4828" cy="458.9188" r="5.8737"/>
      <text class="cls-4" transform="translate(192.2523 461.6254)"><tspan x="0" y="0">?</tspan></text>
    </g>
  </g>
  <g id="Layer_2" data-name="Layer 2">
    <text class="cls-18" transform="translate(490.8499 364.4582)"><tspan x="0" y="0">0</tspan></text>
    <text class="cls-18" transform="translate(486.0506 344.7194)"><tspan x="0" y="0">20</tspan></text>
    <text class="cls-18" transform="translate(486.0501 324.9806)"><tspan x="0" y="0">40</tspan></text>
    <text class="cls-18" transform="translate(486.0505 305.2424)"><tspan x="0" y="0">60</tspan></text>
    <text class="cls-18" transform="translate(486.0503 285.5033)"><tspan x="0" y="0">80</tspan></text>
    <text class="cls-18" transform="translate(481.2499 265.7647)"><tspan x="0" y="0">100</tspan></text>
    <text class="cls-18" transform="translate(481.2502 246.0256)"><tspan x="0" y="0">120</tspan></text>
    <text class="cls-18" transform="translate(497.8186 374.8268)"><tspan x="0" y="0">N</tspan><tspan class="cls-106" x="5.7119" y="0">o</tspan><tspan x="10.1602" y="0">v 16, 4:30 AM</tspan></text>
    <text class="cls-18" transform="translate(585.8698 374.8269)"><tspan x="0" y="0">N</tspan><tspan class="cls-106" x="5.7119" y="0">o</tspan><tspan x="10.1602" y="0">v 17, 6:23 AM</tspan></text>
    <text class="cls-18" transform="translate(673.92 374.826)"><tspan x="0" y="0">N</tspan><tspan class="cls-106" x="5.7119" y="0">o</tspan><tspan x="10.1602" y="0">v 18, 7:00 AM</tspan></text>
    <text class="cls-18" transform="translate(762.1099 374.8261)"><tspan x="0" y="0">N</tspan><tspan class="cls-106" x="5.7119" y="0">o</tspan><tspan x="10.1602" y="0">v 18, 8:23 PM</tspan></text>
    <text class="cls-12" transform="translate(98.2196 293.0065)"><tspan x="0" y="0">64%</tspan></text>
    <text class="cls-6" transform="translate(36.4838 179.8825)"><tspan x="0" y="0">Su</tspan><tspan class="cls-123" x="14.6396" y="0">cc</tspan><tspan class="cls-87" x="26.9282" y="0">e</tspan><tspan class="cls-68" x="33.6719" y="0">s</tspan><tspan x="39.6362" y="0">s </tspan><tspan class="cls-89" x="48.5161" y="0">r</tspan><tspan class="cls-33" x="53.1958" y="0">a</tspan><tspan class="cls-94" x="59.9517" y="0">t</tspan><tspan class="cls-87" x="64.5" y="0">e</tspan></text>
    <text class="cls-15" transform="translate(107.9102 309.1162)"><tspan x="0" y="0">419 / 655</tspan></text>
    <text class="cls-12" transform="translate(320.2303 293.0065)"><tspan x="0" y="0">390</tspan></text>
    <text class="cls-6" transform="translate(252.7206 179.8825)"><tspan class="cls-119" x="0" y="0">T</tspan><tspan class="cls-33" x="6.228" y="0">o</tspan><tspan x="12.9243" y="0">tal </tspan><tspan class="cls-111" x="30.8159" y="0">c</tspan><tspan x="36.96" y="0">ont</tspan><tspan class="cls-123" x="55.4756" y="0">r</tspan><tspan x="60.2637" y="0">ols</tspan></text>
    <text class="cls-15" transform="translate(283.392 391.651)"><tspan x="0" y="0">Compliant</tspan></text>
    <text class="cls-15" transform="translate(355.8544 391.651)"><tspan x="0" y="0">Non</tspan><tspan class="cls-59" x="18.5796" y="0">-</tspan><tspan class="cls-64" x="22.6895" y="0">c</tspan><tspan x="27.7295" y="0">ompliant</tspan></text>
    <text class="cls-15" transform="translate(311.4227 414.5516)"><tspan x="0" y="0">Unable </tspan><tspan class="cls-92" x="34.8394" y="0">t</tspan><tspan x="38.4492" y="0">o pe</tspan><tspan class="cls-82" x="57.9292" y="0">r</tspan><tspan class="cls-92" x="61.8193" y="0">f</tspan><tspan class="cls-60" x="65.1792" y="0">orm</tspan></text>
    <text class="cls-13" transform="translate(330.4965 308.984)"><tspan x="0" y="0">Cont</tspan><tspan class="cls-124" x="23.5566" y="0">r</tspan><tspan x="27.7119" y="0">ols</tspan></text>
    <text class="cls-6" transform="translate(470.9261 179.8825)"><tspan x="0" y="0">Drift</tspan></text>
    <text class="cls-3" transform="translate(428.0883 332.8258)"><tspan x="0" y="0">240</tspan></text>
    <text class="cls-3" transform="translate(256.8636 244.2145)"><tspan x="0" y="0">135</tspan></text>
    <text class="cls-3" transform="translate(331.1014 195.1334)"><tspan x="0" y="0">15</tspan></text>
    <text class="cls-9" transform="translate(27.0842 45.8036)"><tspan x="0" y="0">IBM Cloud </tspan><tspan class="cls-29" x="113.5723" y="0">F</tspan><tspan class="cls-104" x="125.9692" y="0">r</tspan><tspan x="134.3184" y="0">am</tspan><tspan class="cls-114" x="166.6787" y="0">ew</tspan><tspan x="196.7397" y="0">ork </tspan><tspan class="cls-104" x="235.6094" y="0">f</tspan><tspan x="242.9692" y="0">or Financial Se</tspan><tspan class="cls-58" x="394.0078" y="0">r</tspan><tspan x="402.6787" y="0">vi</tspan><tspan class="cls-32" x="419.7441" y="0">c</tspan><tspan x="431.1748" y="0">es</tspan></text>
    <text class="cls-14" transform="translate(28.6344 16.8942)"><tspan class="cls-50" x="0" y="0">Security and Complian</tspan><tspan class="cls-51" x="123.7783" y="0">c</tspan><tspan class="cls-50" x="129.8262" y="0">e </tspan><tspan class="cls-25" x="139.3301" y="0">/</tspan><tspan class="cls-50" x="144.334" y="0" xml:space="preserve"> Dashboa</tspan><tspan class="cls-52" x="195.2974" y="0">r</tspan><tspan class="cls-50" x="199.8335" y="0">d </tspan><tspan class="cls-25" x="209.7695" y="0">/</tspan></text>
    <text class="cls-17" transform="translate(609.8665 41.3355)"><tspan x="0" y="0">Scan hi</tspan><tspan class="cls-102" x="39.8154" y="0">s</tspan><tspan class="cls-94" x="45.6592" y="0">t</tspan><tspan x="49.9912" y="0">o</tspan><tspan class="cls-110" x="56.7593" y="0">r</tspan><tspan x="61.4629" y="0">y</tspan></text>
    <text class="cls-17" transform="translate(714.3716 41.3354)"><tspan x="0" y="0">D</tspan><tspan class="cls-102" x="8.1958" y="0">o</tspan><tspan x="14.8799" y="0">wnload </tspan><tspan class="cls-123" x="58.1396" y="0">r</tspan><tspan x="62.6758" y="0">epo</tspan><tspan class="cls-35" x="83.2192" y="0">r</tspan><tspan x="87.8633" y="0">t</tspan></text>
    <text class="cls-4" transform="translate(120.5414 178.9079)"><tspan x="0" y="0">?</tspan></text>
    <text class="cls-4" transform="translate(343.0199 178.9079)"><tspan x="0" y="0">?</tspan></text>
    <text class="cls-6" transform="translate(36.9711 147.2086)"><tspan x="0" y="0">O</tspan><tspan class="cls-95" x="8.5679" y="0">v</tspan><tspan x="14.9277" y="0">e</tspan><tspan class="cls-84" x="21.6719" y="0">r</tspan><tspan x="26.6035" y="0">vi</tspan><tspan class="cls-123" x="36.4912" y="0">e</tspan><tspan x="43.1758" y="0">w</tspan></text>
    <text class="cls-1" transform="translate(144.0568 147.3628)"><tspan x="0" y="0">Cont</tspan><tspan class="cls-123" x="25.7153" y="0">r</tspan><tspan x="30.2515" y="0">ols</tspan></text>
    <text class="cls-1" transform="translate(252.8391 147.5172)"><tspan class="cls-57" x="0" y="0">R</tspan><tspan x="7.6802" y="0">esou</tspan><tspan class="cls-123" x="34.0078" y="0">r</tspan><tspan class="cls-62" x="38.5439" y="0">c</tspan><tspan x="44.5918" y="0">es</tspan></text>
    <text class="cls-15" transform="translate(484.0447 414.5514)"><tspan x="0" y="0">Compliant</tspan></text>
    <text class="cls-15" transform="translate(556.5071 414.5514)"><tspan x="0" y="0">Non</tspan><tspan class="cls-59" x="18.5796" y="0">-</tspan><tspan class="cls-64" x="22.6895" y="0">c</tspan><tspan x="27.7295" y="0">ompliant</tspan></text>
    <text class="cls-15" transform="translate(648.5894 414.5516)"><tspan x="0" y="0">Unable </tspan><tspan class="cls-92" x="34.8394" y="0">t</tspan><tspan x="38.4492" y="0">o pe</tspan><tspan class="cls-82" x="57.9292" y="0">r</tspan><tspan class="cls-92" x="61.8193" y="0">f</tspan><tspan class="cls-60" x="65.1792" y="0">orm</tspan></text>
    <text class="cls-18" transform="translate(470.8795 200.4176)"><tspan x="0" y="0">Timef</tspan><tspan class="cls-96" x="20.96" y="0">r</tspan><tspan class="cls-109" x="23.96" y="0">ame</tspan></text>
    <text class="cls-15" transform="translate(477.0585 218.8531)"><tspan x="0" y="0">1 </tspan><tspan class="cls-93" x="8.3599" y="0">w</tspan><tspan x="16.2798" y="0">eek</tspan></text>
    <text class="cls-2" transform="translate(649.9262 392.6509)"><tspan x="0" y="0">D</tspan><tspan class="cls-92" x="6.8901" y="0">at</tspan><tspan x="16.1396" y="0">e</tspan></text>
    <text class="cls-2" transform="translate(472.8555 318.3136) rotate(-90)"><tspan x="0" y="0">Cont</tspan><tspan class="cls-122" x="21.6699" y="0">r</tspan><tspan x="25.5498" y="0">ols</tspan></text>
    <text class="cls-18" transform="translate(35.6423 77.9611)"><tspan class="cls-22" x="0" y="0">P</tspan><tspan class="cls-111" x="4.936" y="0">r</tspan><tspan class="cls-33" x="7.96" y="0">o</tspan><tspan x="12.4238" y="0">file</tspan></text>
    <text class="cls-18" transform="translate(157.1536 77.9607)"><tspan class="cls-121" x="0" y="0">V</tspan><tspan x="4.7681" y="0">ersion</tspan></text>
    <text class="cls-18" transform="translate(201.4172 77.9608)"><tspan x="0" y="0">S</tspan><tspan class="cls-67" x="4.7842" y="0">c</tspan><tspan class="cls-112" x="8.8159" y="0">ope</tspan></text>
    <text class="cls-18" transform="translate(266.4333 77.9607)"><tspan x="0" y="0">Scan d</tspan><tspan class="cls-23" x="24.5195" y="0">a</tspan><tspan class="cls-88" x="28.8877" y="0">t</tspan><tspan x="31.7754" y="0">e</tspan></text>
    <text class="cls-18" transform="translate(370.9451 77.9607)"><tspan class="cls-86" x="0" y="0">T</tspan><tspan x="4.3281" y="0">ype</tspan></text>
    <text class="cls-18" transform="translate(433.3529 77.9608)"><tspan x="0" y="0">ID</tspan></text>
    <text class="cls-18" transform="translate(651.8689 77.9608)"><tspan x="0" y="0">Bi</tspan><tspan class="cls-33" x="7.3921" y="0">l</tspan><tspan x="9.624" y="0">lable </tspan><tspan class="cls-83" x="29.6475" y="0">ev</tspan><tspan class="cls-109" x="38.0479" y="0">alu</tspan><tspan class="cls-23" x="49.3594" y="0">a</tspan><tspan x="53.7275" y="0">tions</tspan></text>
    <text class="cls-19" transform="translate(35.6423 91.0781)"><tspan x="0" y="0">IBM Cloud </tspan><tspan class="cls-63" x="45.1431" y="0">F</tspan><tspan class="cls-103" x="50.0571" y="0">r</tspan><tspan x="53.4321" y="0">am</tspan><tspan class="cls-113" x="66.311" y="0">e</tspan><tspan class="cls-85" x="71.27" y="0">w</tspan><tspan class="cls-126" x="78.3984" y="0">ork </tspan><tspan class="cls-98" x="93.9683" y="0">f</tspan><tspan class="cls-126" x="96.9922" y="0">or</tspan><tspan x="0" y="10.7998">Financial Se</tspan><tspan class="cls-97" x="49.8862" y="10.7998">r</tspan><tspan x="53.4141" y="10.7998">vi</tspan><tspan class="cls-62" x="60.4072" y="10.7998">c</tspan><tspan class="cls-24" x="64.9429" y="10.7998">es</tspan></text>
    <text class="cls-19" transform="translate(157.1538 91.078)"><tspan x="0" y="0">1.0.0</tspan></text>
    <text class="cls-19" transform="translate(201.4174 91.0783)"><tspan x="0" y="0">A</tspan><tspan class="cls-62" x="5.958" y="0">cc</tspan><tspan x="15.0298" y="0">ount A</tspan></text>
    <text class="cls-19" transform="translate(266.4335 91.0781)"><tspan x="0" y="0">09/18/2023, 8:23 PM</tspan></text>
    <text class="cls-19" transform="translate(370.9452 91.0783)"><tspan x="0" y="0">Scheduled</tspan></text>
    <text class="cls-19" transform="translate(432.9215 91.0783)"><tspan x="0" y="0">b108ndb</tspan><tspan class="cls-113" x="37.4033" y="0">a</tspan><tspan x="42.2993" y="0">-993</tspan><tspan class="cls-62" x="62.1084" y="0">s</tspan><tspan x="66.5" y="0">-47</tspan><tspan class="cls-34" x="80.9087" y="0">sss</tspan><tspan x="94.0845" y="0">-jlabsdnkfjb2983r0a</tspan></text>
    <text class="cls-19" transform="translate(652.5572 91.0784)"><tspan x="0" y="0">634</tspan></text>
    <text class="cls-7" transform="translate(729.2889 77.6477)"><tspan x="0" y="0">?</tspan></text>
    <text class="cls-6" transform="translate(37.8953 462.363)"><tspan x="0" y="0">Highe</tspan><tspan class="cls-103" x="32.6396" y="0">s</tspan><tspan class="cls-87" x="38.5918" y="0">t priority </tspan><tspan class="cls-111" x="90.479" y="0">r</tspan><tspan x="95.2666" y="0">esou</tspan><tspan class="cls-123" x="121.9785" y="0">rc</tspan><tspan x="132.9106" y="0">es</tspan></text>
    <text class="cls-16" transform="translate(46.4056 497.9377)"><tspan class="cls-116" x="0" y="0">R</tspan><tspan x="7.249" y="0">esou</tspan><tspan class="cls-125" x="31.7349" y="0">rc</tspan><tspan x="41.7559" y="0">e</tspan></text>
    <text class="cls-16" transform="translate(490.8199 497.938)"><tspan x="0" y="0">Component</tspan></text>
    <text class="cls-6" transform="translate(674.6085 498.2254)"><tspan x="0" y="0">A</tspan><tspan class="cls-123" x="8.2197" y="0">cc</tspan><tspan x="20.5083" y="0">ount</tspan></text>
    <text class="cls-16" transform="translate(784.9915 498.0817)"><tspan class="cls-26" x="0" y="0">F</tspan><tspan x="5.9951" y="0">ailed</tspan></text>
    <text class="cls-11" transform="translate(67.6345 526.5776)"><tspan x="0" y="0">Ap</tspan><tspan class="cls-122" x="12.21" y="0">p</tspan><tspan class="cls-60" x="17.96" y="0">I</tspan><tspan class="cls-91" x="21.9595" y="0">D</tspan><tspan class="cls-107" x="28.8198" y="0">-</tspan><tspan class="cls-120" x="32.3096" y="0">T</tspan><tspan class="cls-27" x="37.3794" y="0">e</tspan><tspan class="cls-101" x="42.8696" y="0">s</tspan><tspan class="cls-27" x="47.6694" y="0">ting-Da</tspan><tspan class="cls-122" x="80.6792" y="0">l</tspan><tspan class="cls-27" x="83.3491" y="0">las</tspan></text>
    <text class="cls-11" transform="translate(67.6346 557.7065)"><tspan x="0" y="0">M</tspan><tspan class="cls-22" x="8.1201" y="0">y</tspan><tspan class="cls-27" x="13.0098" y="0">-</tspan><tspan class="cls-22" x="17" y="0">L</tspan><tspan x="21.9097" y="0">oad-Balan</tspan><tspan class="cls-21" x="68.249" y="0">c</tspan><tspan x="73.2192" y="0">e</tspan><tspan class="cls-30" x="78.709" y="0">r</tspan><tspan x="82.1792" y="0">-</tspan><tspan class="cls-80" x="86.1689" y="0">F</tspan><tspan x="91.5088" y="0">o</tspan><tspan class="cls-30" x="97.1089" y="0">r</tspan><tspan class="cls-107" x="100.5791" y="0">-</tspan><tspan class="cls-118" x="104.0688" y="0">T</tspan><tspan x="109.1392" y="0">e</tspan><tspan class="cls-93" x="114.6289" y="0">s</tspan><tspan x="119.4292" y="0">ting</tspan></text>
    <text class="cls-16" transform="translate(76.0174 585.791)"><tspan x="0" y="0">A</tspan><tspan class="cls-105" x="7.5352" y="0">s</tspan><tspan x="13.002" y="0">se</tspan><tspan class="cls-99" x="24.728" y="0">s</tspan><tspan x="30.1953" y="0">sment</tspan></text>
    <text class="cls-16" transform="translate(549.5683 585.9224)"><tspan x="0" y="0">Cont</tspan><tspan class="cls-31" x="24.1338" y="0">r</tspan><tspan x="28.5225" y="0">ols</tspan></text>
    <text class="cls-16" transform="translate(625.253 585.7909)"><tspan x="0" y="0">Method</tspan></text>
    <text class="cls-16" transform="translate(713.6667 585.7909)"><tspan class="cls-56" x="0" y="0">T</tspan><tspan class="cls-100" x="6.0942" y="0">ype</tspan></text>
    <text class="cls-16" transform="translate(784.9915 585.7909)"><tspan class="cls-125" x="0" y="0">S</tspan><tspan x="6.8091" y="0">t</tspan><tspan class="cls-66" x="11.022" y="0">a</tspan><tspan x="17.2148" y="0">tus</tspan></text>
    <line class="cls-79" x1="66.9959" y1="623.8945" x2="825.9452" y2="623.8945"/>
    <text class="cls-10" transform="translate(76.2372 614.1376)"><tspan x="0" y="0">Check whether Application </tspan><tspan class="cls-115" x="122.8481" y="0">L</tspan><tspan class="cls-60" x="127.7583" y="0">oad Balan</tspan><tspan class="cls-21" x="172.4673" y="0">c</tspan><tspan class="cls-61" x="177.438" y="0">er </tspan><tspan class="cls-92" x="188.9575" y="0">f</tspan><tspan x="192.1577" y="0">or VPC uses H</tspan><tspan class="cls-108" x="254.8462" y="0">T</tspan><tspan x="260.7964" y="0">TPS (</tspan><tspan class="cls-115" x="284.0962" y="0">S</tspan><tspan x="289.8062" y="0">SL &amp; TLS) in</tspan><tspan class="cls-65" x="342.7144" y="0">s</tspan><tspan class="cls-92" x="347.5151" y="0">t</tspan><tspan x="350.9849" y="0">ead </tspan><tspan class="cls-21" x="369.9751" y="0">o</tspan><tspan class="cls-61" x="375.5151" y="0">f H</tspan><tspan class="cls-108" x="388.1841" y="0">T</tspan><tspan x="394.1343" y="0">TP</tspan></text>
    <text class="cls-10" transform="translate(76.8173 639.3467)"><tspan x="0" y="0">Check whether Application </tspan><tspan class="cls-115" x="122.8481" y="0">L</tspan><tspan class="cls-60" x="127.7583" y="0">oad Balan</tspan><tspan class="cls-21" x="172.4673" y="0">c</tspan><tspan class="cls-61" x="177.438" y="0">er </tspan><tspan class="cls-92" x="188.9575" y="0">f</tspan><tspan x="192.1577" y="0">or VPC has hea</tspan><tspan class="cls-122" x="259.2661" y="0">l</tspan><tspan class="cls-28" x="261.936" y="0">th check </tspan><tspan class="cls-81" x="302.3462" y="0">c</tspan><tspan x="307.3159" y="0">onfi</tspan><tspan class="cls-92" x="324.2651" y="0">g</tspan><tspan x="329.5054" y="0">u</tspan><tspan class="cls-122" x="335.1851" y="0">r</tspan><tspan x="338.8052" y="0">ed</tspan></text>
    <text class="cls-11" transform="translate(549.5677 614.1379)"><tspan x="0" y="0">1</tspan></text>
    <text class="cls-11" transform="translate(549.5685 639.3464)"><tspan x="0" y="0">1</tspan></text>
    <text class="cls-11" transform="translate(625.2523 614.1375)"><tspan x="0" y="0">IBM Cloud rule</tspan></text>
    <text class="cls-11" transform="translate(625.2529 639.3463)"><tspan x="0" y="0">IBM Cloud rule</tspan></text>
    <text class="cls-11" transform="translate(713.6671 614.138)"><tspan x="0" y="0">Au</tspan><tspan class="cls-90" x="12.0898" y="0">t</tspan><tspan class="cls-60" x="15.5601" y="0">oma</tspan><tspan class="cls-90" x="35.2295" y="0">t</tspan><tspan x="38.6997" y="0">ed</tspan></text>
    <text class="cls-11" transform="translate(713.6665 639.3461)"><tspan x="0" y="0">Au</tspan><tspan class="cls-90" x="12.0898" y="0">t</tspan><tspan class="cls-60" x="15.5601" y="0">oma</tspan><tspan class="cls-90" x="35.2295" y="0">t</tspan><tspan x="38.6997" y="0">ed</tspan></text>
    <text class="cls-11" transform="translate(798.4049 557.7066)"><tspan x="0" y="0">13</tspan></text>
    <text class="cls-11" transform="translate(798.405 526.5778)"><tspan x="0" y="0">25</tspan></text>
    <text class="cls-11" transform="translate(674.6078 526.5777)"><tspan x="0" y="0">A</tspan><tspan class="cls-21" x="6.4097" y="0">cc</tspan><tspan x="16.3496" y="0">ount A</tspan></text>
    <text class="cls-11" transform="translate(674.6081 557.7068)"><tspan x="0" y="0">A</tspan><tspan class="cls-21" x="6.4097" y="0">cc</tspan><tspan x="16.3496" y="0">ount C</tspan></text>
    <text class="cls-11" transform="translate(506.5672 526.5781)"><tspan x="0" y="0">App ID</tspan></text>
    <text class="cls-11" transform="translate(506.5673 557.7064)"><tspan class="cls-115" x="0" y="0">L</tspan><tspan class="cls-60" x="4.9102" y="0">oad Balan</tspan><tspan class="cls-64" x="49.6196" y="0">c</tspan><tspan class="cls-27" x="54.5894" y="0">er </tspan><tspan class="cls-92" x="66.1094" y="0">f</tspan><tspan x="69.3091" y="0">or VPC</tspan></text>
    <text class="cls-5" transform="translate(765.5118 83.7031)"><tspan x="0" y="0">Mo</tspan><tspan class="cls-117" x="12.4019" y="0">r</tspan><tspan x="15.8042" y="0">e details</tspan></text>
  </g>
</svg>