<?xml version="1.0" encoding="utf-8"?>
<!-- Generator: Adobe Illustrator 24.2.3, SVG Export Plug-In . SVG Version: 6.00 Build 0)  -->
<svg version="1.1" id="Layer_1" xmlns="http://www.w3.org/2000/svg" xmlns:xlink="http://www.w3.org/1999/xlink" x="0px" y="0px"
	 viewBox="0 0 1056 430" style="enable-background:new 0 0 1056 430;" xml:space="preserve">
<style type="text/css">
	.st0{fill:#F0F0F0;}
	.st1{fill:#FFFFFF;}
	.st2{fill:#0530AD;}
	.st3{fill:#A66EFA;}
	.st4{fill:#6F6F6F;}
	.st5{fill:#009C98;}
	.st6{fill:#004548;}
	.st7{fill:#565656;}
	.st8{fill:#0DB5B3;}
	.st9{fill:#0F62FE;}
</style>
<g id="Graphics">
	<g id="_4-tier-hierarchy">
		<rect id="Rectangle" x="160" y="17" class="st0" width="704" height="60"/>
		<rect id="Rectangle-2" x="160" y="92" class="st0" width="704" height="60"/>
		<rect id="Rectangle-3" x="160" y="167" class="st0" width="704" height="60"/>
		<rect id="Rectangle-4" x="160" y="242" class="st0" width="704" height="60"/>
		<g id="Group">
			<path id="Rectangle-5" class="st1" d="M460,29h136c6.6,0,12,5.4,12,12v12c0,6.6-5.4,12-12,12H460c-6.6,0-12-5.4-12-12V41
				C448,34.4,453.4,29,460,29z"/>
			<path id="Rectangle-6" class="st1" d="M460,105h136c6.6,0,12,5.4,12,12v12c0,6.6-5.4,12-12,12H460c-6.6,0-12-5.4-12-12v-12
				C448,110.4,453.4,105,460,105z"/>
			<path id="Rectangle-7" class="st1" d="M332,257h72c6.6,0,12,5.4,12,12v12c0,6.6-5.4,12-12,12h-72c-6.6,0-12-5.4-12-12v-12
				C320,262.4,325.4,257,332,257z"/>
			<path id="Rectangle-8" class="st1" d="M460,257h72c6.6,0,12,5.4,12,12v12c0,6.6-5.4,12-12,12h-72c-6.6,0-12-5.4-12-12v-12
				C448,262.4,453.4,257,460,257z"/>
			<path id="Rectangle-9" class="st1" d="M588,257h72c6.6,0,12,5.4,12,12v12c0,6.6-5.4,12-12,12h-72c-6.6,0-12-5.4-12-12v-12
				C576,262.4,581.4,257,588,257z"/>
			<path id="Rectangle-10" class="st1" d="M748,105h72c6.6,0,12,5.4,12,12v12c0,6.6-5.4,12-12,12h-72c-6.6,0-12-5.4-12-12v-12
				C736,110.4,741.4,105,748,105z"/>
			<path id="Rectangle-11" class="st1" d="M556,181h136c6.6,0,12,5.4,12,12v12c0,6.6-5.4,12-12,12H556c-6.6,0-12-5.4-12-12v-12
				C544,186.4,549.4,181,556,181z"/>
			<path id="Rectangle-12" class="st1" d="M204,105h136c6.6,0,12,5.4,12,12v12c0,6.6-5.4,12-12,12H204c-6.6,0-12-5.4-12-12v-12
				C192,110.4,197.4,105,204,105z"/>
			<path id="Rectangle-13" class="st1" d="M364,181h136c6.6,0,12,5.4,12,12v12c0,6.6-5.4,12-12,12H364c-6.6,0-12-5.4-12-12v-12
				C352,186.4,357.4,181,364,181z"/>
			<path id="Rectangle-14" class="st1" d="M236,181h72c6.6,0,12,5.4,12,12v12c0,6.6-5.4,12-12,12h-72c-6.6,0-12-5.4-12-12v-12
				C224,186.4,229.4,181,236,181z"/>
		</g>
		<path id="Rectangle-15" class="st2" d="M460,29h136c6.6,0,12,5.4,12,12v12c0,6.6-5.4,12-12,12H460c-6.6,0-12-5.4-12-12V41
			C448,34.4,453.4,29,460,29z M460,30c-6.1,0-11,4.9-11,11v12c0,6.1,4.9,11,11,11h136c6.1,0,11-4.9,11-11V41c0-6.1-4.9-11-11-11H460
			z"/>
		<path id="Rectangle-16" class="st3" d="M460,105h136c6.6,0,12,5.4,12,12l0,0v12c0,6.6-5.4,12-12,12H460c-6.6,0-12-5.4-12-12v-12
			C448,110.4,453.4,105,460,105L460,105z M460,106c-6.1,0-11,4.9-11,11v12c0,6.1,4.9,11,11,11h136c6.1,0,11-4.9,11-11v-12
			c0-6.1-4.9-11-11-11H460z"/>
		<path id="Rectangle-17" class="st4" d="M332,257h72c6.6,0,12,5.4,12,12v12c0,6.6-5.4,12-12,12h-72c-6.6,0-12-5.4-12-12v-12
			C320,262.4,325.4,257,332,257z M332,258c-6.1,0-11,4.9-11,11v12c0,6.1,4.9,11,11,11h72c6.1,0,11-4.9,11-11v-12c0-6.1-4.9-11-11-11
			H332z"/>
		<path id="Rectangle-18" class="st5" d="M460,257h72c6.6,0,12,5.4,12,12v12c0,6.6-5.4,12-12,12h-72c-6.6,0-12-5.4-12-12v-12
			C448,262.4,453.4,257,460,257z M460,258c-6.1,0-11,4.9-11,11v12c0,6.1,4.9,11,11,11h72c6.1,0,11-4.9,11-11v-12c0-6.1-4.9-11-11-11
			H460z"/>
		<path id="Rectangle-19" class="st5" d="M588,257h72c6.6,0,12,5.4,12,12v12c0,6.6-5.4,12-12,12h-72c-6.6,0-12-5.4-12-12v-12
			C576,262.4,581.4,257,588,257z M588,258c-6.1,0-11,4.9-11,11v12c0,6.1,4.9,11,11,11h72c6.1,0,11-4.9,11-11v-12c0-6.1-4.9-11-11-11
			H588z"/>
		<path id="Rectangle-20" class="st5" d="M748,105h72c6.6,0,12,5.4,12,12l0,0v12c0,6.6-5.4,12-12,12h-72c-6.6,0-12-5.4-12-12v-12
			C736,110.4,741.4,105,748,105L748,105z M748,106c-6.1,0-11,4.9-11,11v12c0,6.1,4.9,11,11,11h72c6.1,0,11-4.9,11-11v-12
			c0-6.1-4.9-11-11-11H748z"/>
		<path id="Rectangle-21" class="st3" d="M556,181h136c6.6,0,12,5.4,12,12v12c0,6.6-5.4,12-12,12H556c-6.6,0-12-5.4-12-12v-12
			C544,186.4,549.4,181,556,181z M556,182c-6.1,0-11,4.9-11,11l0,0v12c0,6.1,4.9,11,11,11h136c6.1,0,11-4.9,11-11v-12
			c0-6.1-4.9-11-11-11l0,0H556z"/>
		<path id="Rectangle-22" class="st4" d="M204,105h136c6.6,0,12,5.4,12,12l0,0v12c0,6.6-5.4,12-12,12H204c-6.6,0-12-5.4-12-12v-12
			C192,110.4,197.4,105,204,105L204,105z M204,106c-6.1,0-11,4.9-11,11v12c0,6.1,4.9,11,11,11h136c6.1,0,11-4.9,11-11v-12
			c0-6.1-4.9-11-11-11H204z"/>
		<path id="Rectangle-23" class="st3" d="M364,181h136c6.6,0,12,5.4,12,12v12c0,6.6-5.4,12-12,12H364c-6.6,0-12-5.4-12-12v-12
			C352,186.4,357.4,181,364,181z M364,182c-6.1,0-11,4.9-11,11l0,0v12c0,6.1,4.9,11,11,11h136c6.1,0,11-4.9,11-11v-12
			c0-6.1-4.9-11-11-11l0,0H364z"/>
		<path id="Rectangle-24" class="st4" d="M236,181h72c6.6,0,12,5.4,12,12v12c0,6.6-5.4,12-12,12h-72c-6.6,0-12-5.4-12-12v-12
			C224,186.4,229.4,181,236,181z M236,182c-6.1,0-11,4.9-11,11l0,0v12c0,6.1,4.9,11,11,11h72c6.1,0,11-4.9,11-11v-12
			c0-6.1-4.9-11-11-11l0,0H236z"/>
		<polygon id="_1" class="st6" points="129.9,55 129.9,52 134.4,52 134.4,40.9 130.3,43.1 128.9,40.4 134.1,37.5 138.1,37.5 
			138.1,52 142.1,52 142.1,55 		"/>
		<path id="_2" class="st6" d="M141.9,130h-12.6v-3.4l5.5-4.6c0.8-0.6,1.5-1.3,2.1-2.1c0.4-0.6,0.6-1.2,0.6-1.9v-0.2
			c0-0.6-0.2-1.2-0.6-1.7c-0.5-0.4-1.1-0.6-1.8-0.6c-0.7,0-1.4,0.2-1.9,0.7c-0.5,0.5-0.8,1.1-0.9,1.7l-3.3-1.2
			c0.2-0.6,0.5-1.2,0.8-1.7c0.4-0.5,0.8-1,1.3-1.4c0.6-0.4,1.2-0.7,1.9-1c0.8-0.3,1.6-0.4,2.5-0.4c0.9,0,1.7,0.1,2.6,0.4
			c0.7,0.2,1.3,0.6,1.9,1.1c0.5,0.5,0.9,1,1.2,1.7c0.5,1.3,0.5,2.8,0,4.1c-0.2,0.6-0.6,1.2-1,1.7c-0.5,0.6-1,1.1-1.5,1.6
			c-0.6,0.5-1.2,1-1.8,1.5l-3.3,2.6h8.4L141.9,130z"/>
		<path id="_3" class="st6" d="M134.8,194.4c0.7,0.1,1.5-0.1,2.1-0.6c0.4-0.3,0.7-0.8,0.7-1.4v-0.2c0-0.6-0.2-1.1-0.6-1.5
			c-0.5-0.4-1.2-0.6-1.8-0.6c-0.7,0-1.4,0.2-2,0.5c-0.6,0.4-1.2,0.9-1.6,1.5l-2.4-2.2c0.3-0.4,0.7-0.8,1.1-1.2
			c0.8-0.8,1.9-1.3,3-1.5c0.7-0.1,1.4-0.2,2.1-0.2c0.9,0,1.7,0.1,2.6,0.3c0.7,0.2,1.4,0.5,2,0.9c0.5,0.4,1,0.9,1.3,1.5
			c0.3,0.6,0.5,1.2,0.4,1.9c0,0.5-0.1,1-0.3,1.5c-0.2,0.4-0.4,0.8-0.7,1.2c-0.3,0.3-0.7,0.6-1.1,0.8c-0.4,0.2-0.9,0.4-1.3,0.4v0.1
			c1,0.2,1.9,0.6,2.7,1.3c0.7,0.8,1.1,1.8,1.1,2.9c0,0.7-0.2,1.5-0.5,2.1c-0.3,0.6-0.8,1.2-1.4,1.6c-0.6,0.5-1.4,0.8-2.1,1
			c-0.9,0.3-1.9,0.4-2.8,0.4c-0.8,0-1.6-0.1-2.3-0.3c-0.6-0.2-1.2-0.4-1.8-0.7c-0.5-0.3-0.9-0.7-1.3-1.1c-0.4-0.4-0.7-0.8-1-1.3
			l2.8-2.1c0.4,0.7,0.8,1.3,1.4,1.8c0.7,0.5,1.5,0.7,2.3,0.7c0.7,0,1.5-0.2,2.1-0.6c0.5-0.4,0.8-1.1,0.7-1.7v-0.2
			c0-0.6-0.3-1.3-0.8-1.6c-0.7-0.4-1.5-0.6-2.3-0.5h-1.6v-3.1H134.8z"/>
		<path id="_4" class="st6" d="M136.5,280v-3.4h-7.9v-3.2l6.9-10.9h4.5v11.2h2.2v2.9h-2.2v3.4H136.5z M131.7,273.8h4.8v-7.3h-0.2
			L131.7,273.8z"/>
		<path class="st6" d="M141.1,342.5h-8.2l-0.4,5.7h0.2c0.2-0.4,0.4-0.8,0.6-1.2c0.2-0.3,0.5-0.6,0.8-0.9c0.3-0.3,0.7-0.5,1.1-0.6
			c0.5-0.1,1-0.2,1.5-0.2c0.7,0,1.5,0.1,2.2,0.4c0.7,0.3,1.3,0.6,1.8,1.1c0.5,0.5,0.9,1.1,1.2,1.8c0.3,0.8,0.5,1.6,0.4,2.4
			c0,0.9-0.1,1.7-0.5,2.6c-0.3,0.8-0.8,1.5-1.4,2c-0.6,0.6-1.4,1-2.2,1.3c-1,0.3-2,0.5-3,0.5c-0.8,0-1.6-0.1-2.3-0.3
			c-0.6-0.2-1.2-0.4-1.8-0.8c-0.5-0.3-1-0.7-1.4-1.1c-0.4-0.4-0.7-0.9-1-1.3l2.8-2.2c0.4,0.7,0.9,1.3,1.4,1.8
			c0.6,0.5,1.4,0.8,2.2,0.7c0.8,0.1,1.6-0.2,2.1-0.8c0.5-0.6,0.8-1.4,0.7-2.1v-0.2c0-0.7-0.2-1.4-0.7-2c-0.5-0.5-1.3-0.8-2-0.7
			c-0.6,0-1.2,0.1-1.8,0.4c-0.4,0.2-0.7,0.5-1.1,0.8l-3.2-0.4l0.7-10.3h11.1V342.5z"/>
		<path id="Connection-Line" class="st7" d="M526.8,85h246.5c5.7,0,10.2,4.6,10.2,10.2c0,0,0,0,0,0v10.5h0.5V95.2
			c0-5.9-4.8-10.7-10.7-10.8c0,0,0,0,0,0H526.8V85z"/>
		<path id="Connection-Line-2" class="st7" d="M527.8,161.8h86c5.4,0,9.8,4.4,9.8,9.7c0,0,0,0,0,0v10h0.5v-10
			c0-5.7-4.6-10.2-10.2-10.2c0,0,0,0,0,0h-86V161.8z"/>
		<path id="Connection-Line-3" class="st7" d="M401.8,237.2h84c5.4,0,9.7,4.4,9.7,9.7c0,0,0,0,0,0v10h0.5v-10
			c0-5.7-4.6-10.2-10.2-10.2c0,0,0,0,0,0h-84V237.2z"/>
		<path id="Connection-Line-4" class="st7" d="M402.5,237.2h-25c-5.4,0-9.8,4.4-9.8,9.7c0,0,0,0,0,0v10h-0.5v-10
			c0-5.7,4.6-10.3,10.3-10.2c0,0,0,0,0,0h25V237.2z"/>
		<polygon id="Line-2" class="st7" points="433.2,217 433.2,237 433.8,237 433.8,217 		"/>
		<polygon id="Line-2-2" class="st7" points="623.2,217 623.2,257 623.8,257 623.8,217 		"/>
		<path id="Connection-Line-5" class="st7" d="M527.5,85H280c-5.7,0-10.2,4.6-10.2,10.2c0,0,0,0,0,0v10.5h-0.5V95.2
			c0-5.9,4.8-10.7,10.7-10.8c0,0,0,0,0,0h247.5V85z"/>
		<path id="Connection-Line-6" class="st7" d="M528.5,161.8h-85c-5.4,0-9.8,4.4-9.8,9.7c0,0,0,0,0,0v10h-0.5v-10
			c0-5.7,4.6-10.3,10.3-10.2c0,0,0,0,0,0h85V161.8z"/>
		<polygon id="Line-2-3" class="st7" points="527.2,65 527.2,105 527.8,105 527.8,65 		"/>
		<polygon id="Line-2-4" class="st7" points="527.2,141.2 527.2,161.2 527.8,161.2 527.8,141.2 		"/>
		<polygon id="Line-2-5" class="st7" points="270.2,141 270.2,181 270.8,181 270.8,141 		"/>
		<rect id="Rectangle-25" x="159.7" y="318.7" class="st0" width="704" height="60"/>
		<path id="Connection-Line-7" class="st7" d="M496.9,312.5h86c5.4,0,9.8,4.4,9.8,9.7c0,0,0,0,0,0v10h0.5v-10
			c0-5.7-4.6-10.2-10.2-10.2c0,0,0,0,0,0h-86V312.5z"/>
		<path id="Connection-Line-8" class="st7" d="M497.6,312.5h-85c-5.4,0-9.8,4.4-9.8,9.7c0,0,0,0,0,0v10h-0.5v-10
			c0-5.7,4.6-10.3,10.3-10.2c0,0,0,0,0,0h85V312.5z"/>
		<polygon id="Line-2-6" class="st7" points="496.4,292 496.4,312 496.9,312 496.9,292 		"/>
		<path id="Rectangle-26" class="st1" d="M525.1,331.8h136c6.6,0,12,5.4,12,12v12c0,6.6-5.4,12-12,12h-136c-6.6,0-12-5.4-12-12v-12
			C513.1,337.1,518.5,331.8,525.1,331.8z"/>
		<path id="Rectangle-27" class="st3" d="M525.1,331.8h136c6.6,0,12,5.4,12,12v12c0,6.6-5.4,12-12,12h-136c-6.6,0-12-5.4-12-12v-12
			C513.1,337.1,518.5,331.8,525.1,331.8z M525.1,332.8c-6.1,0-11,4.9-11,11l0,0v12c0,6.1,4.9,11,11,11l0,0h136c6.1,0,11-4.9,11-11
			l0,0v-12c0-6.1-4.9-11-11-11l0,0H525.1z"/>
		<path id="Rectangle-28" class="st1" d="M333.1,331.8h136c6.6,0,12,5.4,12,12v12c0,6.6-5.4,12-12,12h-136c-6.6,0-12-5.4-12-12v-12
			C321.1,337.1,326.5,331.8,333.1,331.8z"/>
		<path id="Rectangle-29" class="st4" d="M333.1,331.8h136c6.6,0,12,5.4,12,12v12c0,6.6-5.4,12-12,12h-136c-6.6,0-12-5.4-12-12v-12
			C321.1,337.1,326.5,331.8,333.1,331.8z M333.1,332.8c-6.1,0-11,4.9-11,11l0,0v12c0,6.1,4.9,11,11,11l0,0h136c6.1,0,11-4.9,11-11
			l0,0v-12c0-6.1-4.9-11-11-11l0,0H333.1z"/>
	</g>
	<circle class="st8" cx="166.7" cy="405.4" r="6.8"/>
	<circle class="st8" cx="604.1" cy="34.2" r="6.8"/>
	<circle class="st8" cx="698.2" cy="186.3" r="6.8"/>
	<circle class="st8" cx="825.2" cy="108.8" r="6.8"/>
	<circle class="st8" cx="668.5" cy="262.5" r="6.8"/>
	<circle class="st8" cx="506.3" cy="186.3" r="6.8"/>
	<circle class="st9" cx="274.4" cy="405.4" r="6.8"/>
	<path class="st8" d="M540.6,269.4c-3.8,0-6.8-3-6.8-6.8c0-3.8,3-6.8,6.8-6.8"/>
	<path class="st9" d="M540.6,255.7c3.8,0,6.8,3,6.8,6.8c0,3.8-3,6.8-6.8,6.8"/>
	<circle class="st8" cx="603.3" cy="112.2" r="6.8"/>
	<path class="st8" d="M669,344.3c-3.8,0-6.8-3-6.8-6.8c0-3.8,3-6.8,6.8-6.8"/>
	<path class="st9" d="M669,330.7c3.8,0,6.8,3,6.8,6.8c0,3.8-3,6.8-6.8,6.8"/>
</g>
<g id="Text">
	<path class="st6" d="M186.1,409H185v-8.4h3.1c0.7,0,1.3,0.2,1.8,0.6c0.4,0.5,0.7,1.1,0.6,1.8c0,0.6-0.2,1.1-0.5,1.6
		c-0.4,0.4-0.9,0.7-1.4,0.7l2,3.6h-1.3l-1.9-3.5h-1.2L186.1,409z M188,404.6c0.3,0,0.7-0.1,1-0.3c0.2-0.2,0.4-0.6,0.3-0.9v-0.6
		c0-0.3-0.1-0.6-0.3-0.9c-0.3-0.2-0.6-0.3-1-0.3h-1.8v3L188,404.6z"/>
	<path class="st6" d="M196.1,408L196.1,408c-0.1,0.2-0.2,0.3-0.3,0.5c-0.1,0.1-0.2,0.3-0.4,0.4c-0.2,0.1-0.3,0.2-0.5,0.3
		c-0.2,0.1-0.4,0.1-0.7,0.1c-0.6,0-1.1-0.2-1.5-0.6c-0.4-0.5-0.6-1.1-0.6-1.7v-4h1.1v3.8c0,1.1,0.5,1.6,1.4,1.6c0.2,0,0.4,0,0.5-0.1
		c0.2,0,0.3-0.1,0.5-0.2c0.1-0.1,0.2-0.2,0.3-0.4c0.1-0.2,0.1-0.3,0.1-0.5v-4.2h1.1v6.2h-1.1L196.1,408z"/>
	<path class="st6" d="M199.3,408.1h2.1v-7h-2.1v-0.9h3.2v8h2.1v0.9h-5.3L199.3,408.1z"/>
	<path class="st6" d="M209.3,409.2c-0.4,0-0.8-0.1-1.2-0.2c-0.4-0.1-0.7-0.4-0.9-0.6c-0.3-0.3-0.5-0.6-0.6-1
		c-0.1-0.4-0.2-0.9-0.2-1.3c0-0.5,0.1-0.9,0.2-1.3c0.1-0.4,0.3-0.7,0.6-1c0.2-0.3,0.6-0.5,0.9-0.7c0.7-0.3,1.6-0.3,2.3,0
		c0.3,0.1,0.6,0.4,0.9,0.6c0.2,0.3,0.4,0.6,0.6,1c0.1,0.4,0.2,0.8,0.2,1.2v0.5h-4.5v0.3c0,0.5,0.2,0.9,0.5,1.3
		c0.4,0.3,0.8,0.5,1.3,0.5c0.4,0,0.7-0.1,1.1-0.3c0.3-0.2,0.5-0.4,0.7-0.7l0.8,0.6c-0.2,0.4-0.5,0.8-0.9,1
		C210.3,409,209.8,409.2,209.3,409.2z M209.2,403.6c-0.2,0-0.5,0-0.7,0.1c-0.2,0.1-0.4,0.2-0.5,0.4c-0.2,0.2-0.3,0.3-0.4,0.6
		c-0.1,0.2-0.1,0.5-0.1,0.7v0.1h3.3v-0.1c0-0.5-0.1-0.9-0.4-1.3C210,403.7,209.6,403.5,209.2,403.6L209.2,403.6z"/>
	<path class="st6" d="M225.6,409l-0.7-2.3h-2.8l-0.7,2.3h-1.2l2.5-8.4h1.6l2.5,8.4H225.6z M223.6,401.8h-0.1l-1.1,3.9h2.3
		L223.6,401.8z"/>
	<path class="st6" d="M294.8,409h-1.2v-8.4h3.1c0.7,0,1.3,0.2,1.8,0.6c0.4,0.5,0.7,1.1,0.6,1.8c0,0.6-0.2,1.1-0.5,1.6
		c-0.4,0.4-0.9,0.7-1.4,0.7l2,3.6H298l-1.9-3.5h-1.2V409z M296.6,404.6c0.3,0,0.7-0.1,1-0.3c0.2-0.2,0.4-0.6,0.3-0.9v-0.6
		c0-0.3-0.1-0.6-0.3-0.9c-0.3-0.2-0.6-0.3-1-0.3h-1.8v3L296.6,404.6z"/>
	<path class="st6" d="M304.8,408L304.8,408c-0.1,0.2-0.2,0.3-0.3,0.5c-0.1,0.1-0.2,0.3-0.4,0.4c-0.2,0.1-0.3,0.2-0.5,0.3
		c-0.2,0.1-0.4,0.1-0.7,0.1c-0.6,0-1.1-0.2-1.5-0.6c-0.4-0.5-0.6-1.1-0.6-1.7v-4h1.1v3.8c0,1.1,0.5,1.6,1.4,1.6c0.2,0,0.4,0,0.5-0.1
		c0.2,0,0.3-0.1,0.5-0.2c0.1-0.1,0.2-0.2,0.3-0.4c0.1-0.2,0.1-0.3,0.1-0.5v-4.2h1.1v6.2h-1.1L304.8,408z"/>
	<path class="st6" d="M307.9,408.1h2.1v-7h-2.1v-0.9h3.2v8h2.1v0.9h-5.3V408.1z"/>
	<path class="st6" d="M317.9,409.2c-0.4,0-0.8-0.1-1.2-0.2c-0.4-0.1-0.7-0.4-0.9-0.6c-0.3-0.3-0.5-0.6-0.6-1
		c-0.1-0.4-0.2-0.9-0.2-1.3c0-0.5,0.1-0.9,0.2-1.3c0.1-0.4,0.3-0.7,0.6-1c0.2-0.3,0.6-0.5,0.9-0.7c0.7-0.3,1.6-0.3,2.3,0
		c0.3,0.1,0.6,0.4,0.9,0.6c0.2,0.3,0.4,0.6,0.6,1c0.1,0.4,0.2,0.8,0.2,1.2v0.5h-4.5v0.3c0,0.5,0.2,0.9,0.5,1.3
		c0.4,0.3,0.8,0.5,1.3,0.5c0.4,0,0.7-0.1,1.1-0.3c0.3-0.2,0.5-0.4,0.7-0.7l0.8,0.6c-0.2,0.4-0.5,0.8-0.9,1
		C319,409.1,318.5,409.2,317.9,409.2z M317.8,403.6c-0.2,0-0.5,0-0.7,0.1c-0.2,0.1-0.4,0.2-0.5,0.4c-0.2,0.2-0.3,0.3-0.4,0.6
		c-0.1,0.2-0.1,0.5-0.1,0.7v0.1h3.3v-0.1c0-0.5-0.1-0.9-0.4-1.3C318.7,403.7,318.3,403.6,317.8,403.6z"/>
	<path class="st6" d="M329.6,400.7h2.9c0.6,0,1.3,0.2,1.7,0.6c0.4,0.4,0.6,1,0.6,1.6c0,0.4-0.1,0.8-0.4,1.2c-0.3,0.3-0.6,0.5-1,0.6
		v0c0.4,0.1,0.9,0.3,1.2,0.6c0.3,0.4,0.5,0.9,0.5,1.3c0,0.3-0.1,0.6-0.2,0.9c-0.1,0.3-0.3,0.5-0.5,0.8c-0.2,0.2-0.5,0.4-0.7,0.5
		c-0.3,0.1-0.6,0.2-0.9,0.2h-3.2L329.6,400.7z M332.3,404.3c0.3,0,0.7-0.1,1-0.3c0.2-0.2,0.4-0.5,0.3-0.8v-0.4
		c0-0.3-0.1-0.6-0.3-0.8c-0.3-0.2-0.6-0.3-1-0.3h-1.5v2.7H332.3z M332.5,408.1c0.4,0,0.8-0.1,1.1-0.3c0.3-0.2,0.4-0.6,0.4-0.9v-0.5
		c0-0.3-0.1-0.7-0.4-0.9c-0.3-0.2-0.7-0.3-1.1-0.3h-1.7v2.9L332.5,408.1z"/>
	<path class="st4" d="M353.2,354.2H352v-8.4h3.1c0.7,0,1.3,0.2,1.8,0.6c0.4,0.5,0.7,1.1,0.6,1.8c0,0.6-0.2,1.1-0.5,1.6
		c-0.4,0.4-0.9,0.7-1.4,0.7l2,3.6h-1.3l-1.9-3.5h-1.2V354.2z M355,349.8c0.3,0,0.7-0.1,1-0.3c0.2-0.2,0.4-0.6,0.3-0.9V348
		c0-0.3-0.1-0.6-0.3-0.9c-0.3-0.2-0.6-0.3-1-0.3h-1.8v3H355z"/>
	<path class="st4" d="M361.9,354.4c-0.4,0-0.8-0.1-1.2-0.2c-0.4-0.1-0.7-0.4-0.9-0.6c-0.3-0.3-0.5-0.6-0.6-1
		c-0.1-0.4-0.2-0.9-0.2-1.3c0-0.5,0.1-0.9,0.2-1.3c0.1-0.4,0.3-0.7,0.6-1c0.2-0.3,0.6-0.5,0.9-0.7c0.7-0.3,1.6-0.3,2.3,0
		c0.3,0.1,0.6,0.4,0.9,0.6c0.2,0.3,0.4,0.6,0.6,1c0.1,0.4,0.2,0.8,0.2,1.2v0.5h-4.5v0.3c0,0.5,0.2,0.9,0.5,1.3
		c0.4,0.3,0.8,0.5,1.3,0.5c0.4,0,0.7-0.1,1.1-0.3c0.3-0.2,0.5-0.4,0.7-0.7l0.8,0.6c-0.2,0.4-0.5,0.8-0.9,1
		C363,354.2,362.5,354.4,361.9,354.4z M361.8,348.8c-0.2,0-0.5,0-0.7,0.1c-0.2,0.1-0.4,0.2-0.5,0.4c-0.2,0.2-0.3,0.3-0.4,0.6
		c-0.1,0.2-0.1,0.5-0.1,0.7v0.1h3.3v-0.1c0-0.5-0.1-0.9-0.4-1.3C362.7,348.9,362.3,348.7,361.8,348.8L361.8,348.8z"/>
	<path class="st4" d="M369,354.4c-0.6,0-1.2-0.1-1.7-0.3c-0.5-0.2-0.9-0.5-1.2-0.9l0.7-0.6c0.3,0.3,0.6,0.5,0.9,0.7
		c0.4,0.2,0.8,0.3,1.2,0.2c0.4,0,0.8-0.1,1.1-0.2c0.3-0.1,0.4-0.4,0.4-0.8c0-0.1,0-0.3-0.1-0.4c-0.1-0.1-0.1-0.2-0.2-0.2
		c-0.1-0.1-0.2-0.1-0.3-0.1c-0.1,0-0.3-0.1-0.4-0.1l-1-0.1c-0.2,0-0.5-0.1-0.7-0.1c-0.2-0.1-0.5-0.2-0.7-0.3
		c-0.2-0.1-0.4-0.3-0.5-0.5c-0.1-0.2-0.2-0.5-0.2-0.8c0-0.3,0.1-0.6,0.2-0.8c0.1-0.2,0.3-0.4,0.5-0.6c0.2-0.2,0.5-0.3,0.8-0.4
		c0.3-0.1,0.7-0.1,1-0.1c0.5,0,1,0.1,1.5,0.3c0.4,0.2,0.8,0.4,1.1,0.7l-0.7,0.7c-0.1-0.1-0.2-0.2-0.3-0.3c-0.1-0.1-0.3-0.2-0.4-0.2
		c-0.2-0.1-0.3-0.1-0.5-0.2c-0.2-0.1-0.5-0.1-0.7-0.1c-0.4,0-0.7,0.1-1,0.2c-0.2,0.1-0.4,0.4-0.4,0.7c0,0.2,0.1,0.5,0.3,0.6
		c0.1,0.1,0.2,0.1,0.3,0.1c0.1,0,0.3,0.1,0.4,0.1l1,0.1c0.2,0,0.5,0.1,0.7,0.1c0.2,0.1,0.5,0.2,0.7,0.3c0.2,0.1,0.4,0.3,0.5,0.5
		c0.1,0.2,0.2,0.5,0.2,0.8c0,0.6-0.2,1.1-0.7,1.5C370.4,354.2,369.7,354.4,369,354.4z"/>
	<path class="st4" d="M376.2,354.4c-0.4,0-0.8-0.1-1.2-0.2c-0.3-0.1-0.7-0.4-0.9-0.6c-0.3-0.3-0.5-0.6-0.6-1c-0.3-0.9-0.3-1.8,0-2.7
		c0.1-0.4,0.3-0.7,0.6-1c0.2-0.3,0.6-0.5,0.9-0.6c0.8-0.3,1.6-0.3,2.4,0c0.3,0.1,0.7,0.4,0.9,0.6c0.3,0.3,0.5,0.6,0.6,1
		c0.3,0.9,0.3,1.8,0,2.7c-0.1,0.4-0.3,0.7-0.6,1c-0.2,0.3-0.6,0.5-0.9,0.6C377,354.3,376.6,354.4,376.2,354.4z M376.2,353.4
		c0.5,0,0.9-0.1,1.2-0.5c0.3-0.4,0.5-0.9,0.5-1.4v-0.9c0-0.5-0.1-1-0.5-1.4c-0.7-0.6-1.7-0.6-2.4,0c-0.3,0.4-0.5,0.9-0.5,1.4v0.9
		c0,0.5,0.1,1,0.5,1.4C375.3,353.3,375.7,353.5,376.2,353.4z"/>
	<path class="st4" d="M384.8,353.2L384.8,353.2c-0.1,0.2-0.2,0.3-0.3,0.5c-0.1,0.1-0.2,0.3-0.4,0.4c-0.2,0.1-0.3,0.2-0.5,0.3
		c-0.2,0.1-0.4,0.1-0.7,0.1c-0.6,0-1.1-0.2-1.5-0.6c-0.4-0.5-0.6-1.1-0.6-1.7v-4h1.1v3.8c0,1.1,0.5,1.6,1.4,1.6c0.2,0,0.4,0,0.5-0.1
		c0.2,0,0.3-0.1,0.5-0.2c0.1-0.1,0.2-0.2,0.3-0.4c0.1-0.2,0.1-0.3,0.1-0.5V348h1.1v6.2h-1.1V353.2z"/>
	<path class="st4" d="M387.9,353.3h1.7v-4.3h-1.7V348h2.9v1.6h0.1c0.1-0.5,0.4-0.9,0.7-1.2c0.4-0.3,0.9-0.4,1.4-0.4h0.8v1.1h-1.2
		c-0.5,0-0.9,0.1-1.3,0.5c-0.3,0.3-0.5,0.7-0.5,1.2v2.5h2.3v0.9h-5.2L387.9,353.3z"/>
	<path class="st4" d="M398,354.4c-0.4,0-0.8-0.1-1.2-0.2c-0.3-0.1-0.7-0.4-0.9-0.7c-0.3-0.3-0.4-0.6-0.6-1c-0.3-0.9-0.3-1.8,0-2.7
		c0.1-0.4,0.3-0.7,0.6-1c0.2-0.3,0.6-0.5,0.9-0.7c0.4-0.2,0.8-0.2,1.2-0.2c0.5,0,1,0.1,1.5,0.4c0.4,0.3,0.7,0.6,0.8,1.1l-0.9,0.5
		c-0.1-0.3-0.3-0.5-0.5-0.7c-0.3-0.2-0.6-0.3-0.9-0.3c-0.5,0-0.9,0.2-1.2,0.5c-0.3,0.4-0.5,0.8-0.4,1.3v1c0,0.5,0.1,0.9,0.4,1.3
		c0.3,0.3,0.8,0.5,1.3,0.5c0.4,0,0.7-0.1,1-0.3c0.3-0.2,0.5-0.5,0.6-0.8l0.8,0.5c-0.2,0.4-0.5,0.8-0.9,1.1
		C399.1,354.2,398.6,354.4,398,354.4z"/>
	<path class="st4" d="M405.1,354.4c-0.4,0-0.8-0.1-1.2-0.2c-0.4-0.1-0.7-0.4-0.9-0.6c-0.3-0.3-0.5-0.6-0.6-1
		c-0.1-0.4-0.2-0.9-0.2-1.3c0-0.5,0.1-0.9,0.2-1.3c0.1-0.4,0.3-0.7,0.6-1c0.2-0.3,0.6-0.5,0.9-0.7c0.7-0.3,1.6-0.3,2.3,0
		c0.3,0.1,0.6,0.4,0.9,0.6c0.2,0.3,0.4,0.6,0.6,1c0.1,0.4,0.2,0.8,0.2,1.2v0.5h-4.5v0.3c0,0.5,0.2,0.9,0.5,1.3
		c0.4,0.3,0.8,0.5,1.3,0.5c0.4,0,0.7-0.1,1.1-0.3c0.3-0.2,0.5-0.4,0.7-0.7l0.8,0.6c-0.2,0.4-0.5,0.8-0.9,1
		C406.2,354.2,405.7,354.4,405.1,354.4z M405,348.8c-0.2,0-0.5,0-0.7,0.1c-0.2,0.1-0.4,0.2-0.5,0.4c-0.2,0.2-0.3,0.3-0.4,0.6
		c-0.1,0.2-0.1,0.5-0.1,0.7v0.1h3.3v-0.1c0-0.5-0.1-0.9-0.4-1.3C405.9,348.9,405.5,348.7,405,348.8L405,348.8z"/>
	<path class="st4" d="M422.6,354.9c0,0.6-0.3,1.1-0.8,1.4c-0.7,0.3-1.6,0.5-2.4,0.5c-0.4,0-0.9,0-1.3-0.1c-0.3,0-0.6-0.2-0.9-0.3
		c-0.2-0.1-0.4-0.3-0.5-0.5c-0.1-0.2-0.2-0.4-0.2-0.6c0-0.3,0.1-0.6,0.3-0.8c0.2-0.2,0.5-0.4,0.8-0.4v-0.1c-0.2-0.1-0.3-0.2-0.5-0.3
		c-0.1-0.2-0.2-0.3-0.2-0.5c0-0.3,0.1-0.5,0.3-0.7c0.2-0.2,0.5-0.3,0.8-0.4v-0.1c-0.4-0.2-0.7-0.4-0.9-0.7c-0.2-0.3-0.3-0.7-0.3-1.2
		c0-0.3,0.1-0.6,0.2-0.9c0.1-0.3,0.3-0.5,0.5-0.7c0.2-0.2,0.5-0.3,0.8-0.4c0.3-0.1,0.7-0.2,1-0.2c0.4,0,0.8,0.1,1.2,0.2V348
		c0-0.2,0.1-0.4,0.2-0.6c0.2-0.2,0.4-0.3,0.6-0.2h1.1v0.9h-1.4v0.4c0.2,0.2,0.4,0.4,0.6,0.7c0.3,0.6,0.3,1.2,0,1.8
		c-0.1,0.3-0.3,0.5-0.5,0.7c-0.2,0.2-0.5,0.3-0.8,0.4c-0.3,0.1-0.7,0.2-1,0.2c-0.1,0-0.2,0-0.3,0c-0.1,0-0.2,0-0.3,0
		c-0.1,0-0.2,0.1-0.3,0.1c-0.1,0-0.2,0.1-0.3,0.1c-0.1,0.1-0.1,0.1-0.2,0.2c0,0.1-0.1,0.2-0.1,0.3c0,0.2,0.1,0.3,0.3,0.4
		c0.2,0.1,0.5,0.1,0.7,0.1h1.4c0.6-0.1,1.2,0.1,1.8,0.5C422.4,354,422.6,354.4,422.6,354.9z M421.5,355c0-0.2-0.1-0.4-0.3-0.5
		c-0.3-0.2-0.6-0.2-1-0.2h-2.1c-0.3,0.1-0.6,0.4-0.6,0.8c0,0.3,0.1,0.5,0.3,0.7c0.3,0.2,0.7,0.3,1,0.3h1c0.4,0,0.8-0.1,1.2-0.2
		C421.4,355.5,421.5,355.3,421.5,355L421.5,355z M419.4,351.4c0.4,0,0.7-0.1,1-0.3c0.2-0.2,0.3-0.5,0.3-0.8v-0.3
		c0-0.3-0.1-0.6-0.3-0.8c-0.3-0.2-0.6-0.3-1-0.3c-0.4,0-0.7,0.1-1,0.3c-0.2,0.2-0.3,0.5-0.3,0.8v0.3c0,0.3,0.1,0.6,0.3,0.8
		C418.6,351.3,419,351.4,419.4,351.4L419.4,351.4z"/>
	<path class="st4" d="M423.9,353.3h1.7v-4.3h-1.7V348h2.9v1.6h0.1c0.1-0.5,0.4-0.9,0.7-1.2c0.4-0.3,0.9-0.4,1.4-0.4h0.8v1.1h-1.2
		c-0.5,0-0.9,0.1-1.3,0.5c-0.3,0.3-0.5,0.7-0.5,1.2v2.5h2.3v0.9h-5.2L423.9,353.3z"/>
	<path class="st4" d="M433.8,354.4c-0.4,0-0.8-0.1-1.2-0.2c-0.3-0.1-0.7-0.4-0.9-0.6c-0.3-0.3-0.5-0.6-0.6-1c-0.3-0.9-0.3-1.8,0-2.7
		c0.1-0.4,0.3-0.7,0.6-1c0.2-0.3,0.6-0.5,0.9-0.6c0.8-0.3,1.6-0.3,2.4,0c0.3,0.1,0.7,0.4,0.9,0.6c0.3,0.3,0.5,0.6,0.6,1
		c0.3,0.9,0.3,1.8,0,2.7c-0.1,0.4-0.3,0.7-0.6,1c-0.2,0.3-0.6,0.5-0.9,0.6C434.6,354.3,434.2,354.4,433.8,354.4z M433.8,353.4
		c0.5,0,0.9-0.1,1.2-0.5c0.3-0.4,0.5-0.9,0.5-1.4v-0.9c0-0.5-0.1-1-0.5-1.4c-0.7-0.6-1.7-0.6-2.4,0c-0.3,0.4-0.5,0.9-0.5,1.4v0.9
		c0,0.5,0.1,1,0.5,1.4C432.9,353.3,433.3,353.5,433.8,353.4z"/>
	<path class="st4" d="M442.4,353.2L442.4,353.2c-0.1,0.2-0.2,0.3-0.3,0.5c-0.1,0.1-0.2,0.3-0.4,0.4c-0.2,0.1-0.3,0.2-0.5,0.3
		c-0.2,0.1-0.4,0.1-0.7,0.1c-0.6,0-1.1-0.2-1.5-0.6c-0.4-0.5-0.6-1.1-0.6-1.7v-4h1.1v3.8c0,1.1,0.5,1.6,1.4,1.6c0.2,0,0.4,0,0.5-0.1
		c0.2,0,0.3-0.1,0.5-0.2c0.1-0.1,0.2-0.2,0.3-0.4c0.1-0.2,0.1-0.3,0.1-0.5V348h1.1v6.2h-1.1L442.4,353.2z"/>
	<path class="st4" d="M445.7,348h1.1v1h0.1c0.3-0.8,1.1-1.2,1.9-1.2c0.7,0,1.3,0.3,1.8,0.8c0.9,1.5,0.9,3.3,0,4.8
		c-0.7,0.9-1.9,1.1-2.9,0.5c-0.3-0.2-0.6-0.5-0.7-0.9h-0.1v3.4h-1.1L445.7,348z M448.3,353.4c0.5,0,0.9-0.2,1.2-0.5
		c0.3-0.4,0.5-0.8,0.4-1.3v-1c0-0.5-0.1-0.9-0.4-1.3c-0.3-0.3-0.8-0.5-1.2-0.5c-0.2,0-0.4,0-0.6,0.1c-0.2,0-0.3,0.1-0.5,0.2
		c-0.1,0.1-0.2,0.2-0.3,0.4c-0.1,0.2-0.1,0.3-0.1,0.5v2.2c0,0.2,0,0.4,0.1,0.5c0.1,0.2,0.2,0.3,0.3,0.4c0.1,0.1,0.3,0.2,0.5,0.2
		C447.9,353.4,448.1,353.4,448.3,353.4L448.3,353.4z"/>
	<path class="st4" d="M351,351.5v-0.8h100.8v0.8H351z"/>
	<path class="st6" d="M541.7,354.2h-1.2v-8.4h3.1c0.7,0,1.3,0.2,1.8,0.6c0.4,0.5,0.7,1.2,0.6,1.8c0,0.6-0.2,1.1-0.5,1.6
		c-0.4,0.4-0.9,0.7-1.4,0.7l2,3.6h-1.3l-1.9-3.5h-1.2L541.7,354.2z M543.5,349.8c0.3,0,0.7-0.1,1-0.3c0.2-0.2,0.4-0.6,0.3-0.9V348
		c0-0.3-0.1-0.6-0.3-0.9c-0.3-0.2-0.6-0.3-1-0.3h-1.8v3H543.5z"/>
	<path class="st6" d="M550.4,354.4c-0.4,0-0.8-0.1-1.2-0.2c-0.4-0.1-0.7-0.4-0.9-0.6c-0.3-0.3-0.5-0.6-0.6-1
		c-0.1-0.4-0.2-0.9-0.2-1.3c0-0.5,0.1-0.9,0.2-1.3c0.1-0.4,0.3-0.7,0.6-1c0.3-0.3,0.6-0.5,0.9-0.7c0.7-0.3,1.6-0.3,2.3,0
		c0.3,0.1,0.6,0.4,0.9,0.6c0.2,0.3,0.4,0.6,0.6,1c0.1,0.4,0.2,0.8,0.2,1.2v0.5h-4.5v0.3c0,0.5,0.2,0.9,0.5,1.3
		c0.4,0.3,0.8,0.5,1.3,0.5c0.4,0,0.7-0.1,1.1-0.3c0.3-0.2,0.5-0.4,0.7-0.7l0.8,0.6c-0.2,0.4-0.5,0.8-0.9,1
		C551.5,354.2,551,354.4,550.4,354.4z M550.4,348.8c-0.2,0-0.5,0-0.7,0.1c-0.2,0.1-0.4,0.2-0.5,0.4c-0.2,0.2-0.3,0.3-0.4,0.6
		c-0.1,0.2-0.1,0.5-0.1,0.7v0.1h3.3v-0.1c0-0.5-0.1-0.9-0.4-1.3C551.2,348.9,550.8,348.7,550.4,348.8z"/>
	<path class="st6" d="M557.6,354.4c-0.6,0-1.2-0.1-1.7-0.3c-0.5-0.2-0.9-0.5-1.2-0.9l0.7-0.6c0.3,0.3,0.6,0.5,0.9,0.7
		c0.4,0.2,0.8,0.3,1.2,0.2c0.4,0,0.8-0.1,1.1-0.2c0.3-0.1,0.4-0.4,0.4-0.8c0-0.1,0-0.3-0.1-0.4c-0.1-0.1-0.1-0.2-0.2-0.2
		c-0.1-0.1-0.2-0.1-0.3-0.1c-0.1,0-0.3-0.1-0.4-0.1l-1-0.1c-0.2,0-0.5-0.1-0.7-0.1c-0.2-0.1-0.5-0.2-0.7-0.3
		c-0.2-0.1-0.4-0.3-0.5-0.5c-0.1-0.2-0.2-0.5-0.2-0.8c0-0.3,0.1-0.6,0.2-0.8c0.1-0.2,0.3-0.4,0.5-0.6c0.2-0.2,0.5-0.3,0.8-0.4
		c0.3-0.1,0.7-0.1,1-0.1c0.5,0,1,0.1,1.5,0.3c0.4,0.2,0.8,0.4,1.1,0.7l-0.7,0.7c-0.1-0.1-0.2-0.2-0.3-0.3c-0.1-0.1-0.3-0.2-0.4-0.2
		c-0.2-0.1-0.3-0.1-0.5-0.2c-0.2-0.1-0.5-0.1-0.7-0.1c-0.4,0-0.7,0.1-1,0.2c-0.2,0.1-0.4,0.4-0.4,0.7c0,0.2,0.1,0.5,0.3,0.6
		c0.1,0.1,0.2,0.1,0.3,0.1c0.1,0,0.3,0.1,0.4,0.1l1,0.1c0.2,0,0.5,0.1,0.7,0.1c0.2,0.1,0.5,0.2,0.7,0.3c0.2,0.1,0.4,0.3,0.5,0.5
		c0.1,0.2,0.2,0.5,0.2,0.8c0,0.6-0.2,1.1-0.7,1.5C558.9,354.2,558.3,354.4,557.6,354.4z"/>
	<path class="st6" d="M564.7,354.4c-0.4,0-0.8-0.1-1.2-0.2c-0.3-0.1-0.7-0.4-0.9-0.6c-0.3-0.3-0.5-0.6-0.6-1c-0.3-0.9-0.3-1.8,0-2.7
		c0.1-0.4,0.3-0.7,0.6-1c0.2-0.3,0.6-0.5,0.9-0.6c0.8-0.3,1.6-0.3,2.4,0c0.3,0.1,0.7,0.4,0.9,0.6c0.3,0.3,0.5,0.6,0.6,1
		c0.3,0.9,0.3,1.8,0,2.7c-0.1,0.4-0.3,0.7-0.6,1c-0.2,0.3-0.6,0.5-0.9,0.6C565.5,354.3,565.1,354.4,564.7,354.4z M564.7,353.4
		c0.5,0,0.9-0.1,1.2-0.5c0.3-0.4,0.5-0.9,0.5-1.4v-0.9c0-0.5-0.1-1-0.5-1.4c-0.7-0.6-1.7-0.6-2.4,0c-0.3,0.4-0.5,0.9-0.5,1.4v0.9
		c0,0.5,0.1,1,0.5,1.4C563.8,353.3,564.3,353.5,564.7,353.4z"/>
	<path class="st6" d="M573.3,353.2L573.3,353.2c-0.1,0.2-0.2,0.3-0.3,0.5c-0.1,0.1-0.2,0.3-0.4,0.4c-0.2,0.1-0.3,0.2-0.5,0.3
		c-0.2,0.1-0.4,0.1-0.7,0.1c-0.6,0-1.1-0.2-1.5-0.6c-0.4-0.5-0.6-1.1-0.6-1.7v-4h1.1v3.8c0,1.1,0.5,1.6,1.4,1.6c0.2,0,0.4,0,0.5-0.1
		c0.2,0,0.3-0.1,0.5-0.2c0.1-0.1,0.2-0.2,0.3-0.4c0.1-0.2,0.1-0.3,0.1-0.5V348h1.1v6.2h-1.1L573.3,353.2z"/>
	<path class="st6" d="M576.4,353.3h1.7v-4.3h-1.7V348h2.9v1.6h0.1c0.1-0.5,0.4-0.9,0.7-1.2c0.4-0.3,0.9-0.4,1.3-0.4h0.8v1.1H581
		c-0.5,0-0.9,0.1-1.3,0.5c-0.3,0.3-0.5,0.7-0.5,1.2v2.5h2.3v0.9h-5.2L576.4,353.3z"/>
	<path class="st6" d="M586.5,354.4c-0.4,0-0.8-0.1-1.2-0.2c-0.3-0.1-0.7-0.4-0.9-0.7c-0.3-0.3-0.4-0.6-0.6-1c-0.3-0.9-0.3-1.8,0-2.7
		c0.1-0.4,0.3-0.7,0.6-1c0.2-0.3,0.6-0.5,0.9-0.7c0.4-0.2,0.8-0.2,1.2-0.2c0.5,0,1,0.1,1.5,0.4c0.4,0.3,0.7,0.6,0.8,1.1l-0.9,0.5
		c-0.1-0.3-0.3-0.5-0.5-0.7c-0.3-0.2-0.6-0.3-0.9-0.3c-0.5,0-0.9,0.2-1.2,0.5c-0.3,0.4-0.5,0.8-0.4,1.3v1c0,0.5,0.1,0.9,0.4,1.3
		c0.3,0.3,0.8,0.5,1.3,0.5c0.4,0,0.7-0.1,1-0.3c0.3-0.2,0.5-0.5,0.6-0.8l0.8,0.5c-0.2,0.4-0.5,0.8-0.9,1.1
		C587.6,354.2,587.1,354.4,586.5,354.4z"/>
	<path class="st6" d="M593.6,354.4c-0.4,0-0.8-0.1-1.2-0.2c-0.4-0.1-0.7-0.4-0.9-0.6c-0.3-0.3-0.5-0.6-0.6-1
		c-0.1-0.4-0.2-0.9-0.2-1.3c0-0.5,0.1-0.9,0.2-1.3c0.1-0.4,0.3-0.7,0.6-1c0.2-0.3,0.6-0.5,0.9-0.7c0.7-0.3,1.6-0.3,2.3,0
		c0.3,0.1,0.6,0.4,0.9,0.6c0.2,0.3,0.4,0.6,0.6,1c0.1,0.4,0.2,0.8,0.2,1.2v0.5h-4.5v0.3c0,0.5,0.2,0.9,0.5,1.3
		c0.4,0.3,0.8,0.5,1.3,0.5c0.4,0,0.7-0.1,1.1-0.3c0.3-0.2,0.5-0.4,0.7-0.7l0.8,0.6c-0.2,0.4-0.5,0.8-0.9,1
		C594.7,354.2,594.2,354.4,593.6,354.4z M593.6,348.8c-0.2,0-0.5,0-0.7,0.1c-0.2,0.1-0.4,0.2-0.5,0.4c-0.2,0.2-0.3,0.3-0.4,0.6
		c-0.1,0.2-0.1,0.5-0.1,0.7v0.1h3.3v-0.1c0-0.5-0.1-0.9-0.4-1.3C594.4,348.9,594,348.7,593.6,348.8z"/>
	<path class="st6" d="M611.1,354.9c0,0.6-0.3,1.1-0.8,1.4c-0.7,0.3-1.6,0.5-2.4,0.5c-0.4,0-0.9,0-1.3-0.1c-0.3,0-0.6-0.2-0.9-0.3
		c-0.2-0.1-0.4-0.3-0.5-0.5c-0.1-0.2-0.2-0.4-0.2-0.6c0-0.3,0.1-0.6,0.3-0.8c0.2-0.2,0.5-0.4,0.8-0.4v-0.1c-0.2-0.1-0.3-0.2-0.4-0.3
		c-0.1-0.2-0.2-0.3-0.2-0.5c0-0.3,0.1-0.5,0.3-0.7c0.2-0.2,0.5-0.3,0.8-0.4v-0.1c-0.4-0.2-0.7-0.4-0.9-0.7c-0.2-0.3-0.3-0.8-0.3-1.2
		c0-0.3,0.1-0.6,0.2-0.9c0.1-0.3,0.3-0.5,0.5-0.7c0.2-0.2,0.5-0.3,0.8-0.4c0.3-0.1,0.7-0.2,1-0.2c0.4,0,0.8,0.1,1.2,0.2V348
		c0-0.2,0.1-0.4,0.2-0.6c0.2-0.2,0.4-0.3,0.6-0.2h1.1v0.9h-1.4v0.4c0.2,0.2,0.4,0.4,0.6,0.7c0.3,0.6,0.3,1.2,0,1.8
		c-0.1,0.3-0.3,0.5-0.5,0.7c-0.2,0.2-0.5,0.3-0.8,0.4c-0.3,0.1-0.7,0.2-1,0.2c-0.1,0-0.2,0-0.3,0c-0.1,0-0.2,0-0.3,0
		c-0.1,0-0.2,0.1-0.3,0.1c-0.1,0-0.2,0.1-0.3,0.1c-0.1,0.1-0.1,0.1-0.2,0.2c0,0.1-0.1,0.2-0.1,0.3c0,0.2,0.1,0.3,0.3,0.4
		c0.2,0.1,0.5,0.1,0.7,0.1h1.4c0.6-0.1,1.2,0.1,1.8,0.5C610.9,354,611.1,354.4,611.1,354.9z M610.1,355c0-0.2-0.1-0.4-0.3-0.5
		c-0.3-0.2-0.6-0.2-1-0.2h-2.1c-0.3,0.1-0.6,0.4-0.6,0.8c0,0.3,0.1,0.5,0.3,0.7c0.3,0.2,0.7,0.3,1,0.3h1c0.4,0,0.8-0.1,1.2-0.2
		C609.9,355.5,610.1,355.3,610.1,355L610.1,355z M607.9,351.4c0.4,0,0.7-0.1,1-0.3c0.2-0.2,0.3-0.5,0.3-0.8v-0.3
		c0-0.3-0.1-0.6-0.3-0.8c-0.3-0.2-0.6-0.3-1-0.3c-0.4,0-0.7,0.1-1,0.3c-0.2,0.2-0.3,0.5-0.3,0.8v0.3c0,0.3,0.1,0.6,0.3,0.8
		C607.1,351.3,607.5,351.4,607.9,351.4L607.9,351.4z"/>
	<path class="st6" d="M612.4,353.3h1.7v-4.3h-1.7V348h2.9v1.6h0.1c0.1-0.5,0.4-0.9,0.7-1.2c0.4-0.3,0.9-0.4,1.3-0.4h0.8v1.1H617
		c-0.5,0-0.9,0.1-1.3,0.5c-0.3,0.3-0.5,0.7-0.5,1.2v2.5h2.3v0.9h-5.2L612.4,353.3z"/>
	<path class="st6" d="M622.3,354.4c-0.4,0-0.8-0.1-1.2-0.2c-0.3-0.1-0.7-0.4-0.9-0.6c-0.3-0.3-0.5-0.6-0.6-1c-0.3-0.9-0.3-1.8,0-2.7
		c0.1-0.4,0.3-0.7,0.6-1c0.2-0.3,0.6-0.5,0.9-0.6c0.8-0.3,1.6-0.3,2.4,0c0.3,0.1,0.7,0.4,0.9,0.6c0.3,0.3,0.5,0.6,0.6,1
		c0.3,0.9,0.3,1.8,0,2.7c-0.1,0.4-0.3,0.7-0.6,1c-0.2,0.3-0.6,0.5-0.9,0.6C623.1,354.3,622.7,354.4,622.3,354.4z M622.3,353.4
		c0.5,0,0.9-0.1,1.2-0.5c0.3-0.4,0.5-0.9,0.5-1.4v-0.9c0-0.5-0.1-1-0.5-1.4c-0.7-0.6-1.7-0.6-2.4,0c-0.3,0.4-0.5,0.9-0.5,1.4v0.9
		c0,0.5,0.1,1,0.5,1.4C621.4,353.3,621.9,353.5,622.3,353.4z"/>
	<path class="st6" d="M630.9,353.2L630.9,353.2c-0.1,0.2-0.2,0.3-0.3,0.5c-0.1,0.1-0.2,0.3-0.4,0.4c-0.2,0.1-0.3,0.2-0.5,0.3
		c-0.2,0.1-0.4,0.1-0.7,0.1c-0.6,0-1.1-0.2-1.5-0.6c-0.4-0.5-0.6-1.1-0.6-1.7v-4h1.1v3.8c0,1.1,0.5,1.6,1.4,1.6c0.2,0,0.4,0,0.5-0.1
		c0.2,0,0.3-0.1,0.5-0.2c0.1-0.1,0.2-0.2,0.3-0.4c0.1-0.2,0.1-0.3,0.1-0.5V348h1.1v6.2h-1.1L630.9,353.2z"/>
	<path class="st6" d="M634.2,348h1.1v1h0.1c0.3-0.8,1.1-1.2,1.9-1.2c0.7,0,1.3,0.3,1.8,0.8c0.9,1.5,0.9,3.3,0,4.8
		c-0.7,0.9-1.9,1.1-2.9,0.5c-0.3-0.2-0.6-0.5-0.7-0.9h-0.1v3.4h-1.1L634.2,348z M636.8,353.4c0.5,0,0.9-0.2,1.2-0.5
		c0.3-0.4,0.5-0.8,0.4-1.3v-1c0-0.5-0.1-0.9-0.4-1.3c-0.3-0.3-0.8-0.5-1.2-0.5c-0.2,0-0.4,0-0.6,0.1c-0.2,0-0.3,0.1-0.5,0.2
		c-0.1,0.1-0.2,0.2-0.3,0.4c-0.1,0.2-0.1,0.3-0.1,0.5v2.2c0,0.2,0,0.4,0.1,0.5c0.1,0.2,0.2,0.3,0.3,0.4c0.1,0.1,0.3,0.2,0.5,0.2
		C636.4,353.4,636.6,353.4,636.8,353.4L636.8,353.4z"/>
	<path class="st4" d="M229.7,126.8l-0.7-2.3h-2.8l-0.7,2.3h-1.2l2.5-8.4h1.6l2.5,8.4H229.7z M227.6,119.6h-0.1l-1.1,3.9h2.3
		L227.6,119.6z"/>
	<path class="st4" d="M235,127c-0.4,0-0.8-0.1-1.2-0.2c-0.3-0.1-0.7-0.4-0.9-0.7c-0.3-0.3-0.4-0.6-0.6-1c-0.3-0.9-0.3-1.8,0-2.7
		c0.1-0.4,0.3-0.7,0.6-1c0.2-0.3,0.6-0.5,0.9-0.7c0.4-0.2,0.8-0.2,1.2-0.2c0.5,0,1,0.1,1.5,0.4c0.4,0.3,0.7,0.6,0.8,1.1l-0.9,0.5
		c-0.1-0.3-0.3-0.5-0.5-0.7c-0.3-0.2-0.6-0.3-0.9-0.3c-0.5,0-0.9,0.2-1.2,0.5c-0.3,0.4-0.5,0.8-0.4,1.3v1.1c0,0.5,0.1,0.9,0.4,1.3
		c0.3,0.3,0.8,0.5,1.3,0.5c0.3,0,0.7-0.1,1-0.3c0.3-0.2,0.5-0.5,0.6-0.8l0.8,0.5c-0.2,0.4-0.5,0.8-0.9,1.1
		C236.1,126.8,235.6,127,235,127z"/>
	<path class="st4" d="M242.2,127c-0.4,0-0.8-0.1-1.2-0.2c-0.3-0.1-0.7-0.4-0.9-0.7c-0.3-0.3-0.4-0.6-0.6-1c-0.3-0.9-0.3-1.8,0-2.7
		c0.1-0.4,0.3-0.7,0.6-1c0.2-0.3,0.6-0.5,0.9-0.7c0.4-0.2,0.8-0.2,1.2-0.2c0.5,0,1,0.1,1.5,0.4c0.4,0.3,0.7,0.6,0.8,1.1l-0.9,0.5
		c-0.1-0.3-0.3-0.5-0.5-0.7c-0.3-0.2-0.6-0.3-0.9-0.3c-0.5,0-0.9,0.2-1.2,0.5c-0.3,0.4-0.5,0.8-0.4,1.3v1.1c0,0.5,0.1,0.9,0.4,1.3
		c0.3,0.3,0.8,0.5,1.3,0.5c0.4,0,0.7-0.1,1-0.3c0.3-0.2,0.5-0.5,0.6-0.8l0.8,0.5c-0.2,0.4-0.5,0.8-0.9,1.1
		C243.3,126.8,242.8,127,242.2,127z"/>
	<path class="st4" d="M249.2,127c-0.4,0-0.8-0.1-1.2-0.2c-0.3-0.1-0.7-0.4-0.9-0.6c-0.3-0.3-0.5-0.6-0.6-1c-0.3-0.9-0.3-1.8,0-2.7
		c0.1-0.4,0.3-0.7,0.6-1c0.2-0.3,0.6-0.5,0.9-0.6c0.8-0.3,1.6-0.3,2.4,0c0.3,0.1,0.7,0.4,0.9,0.6c0.3,0.3,0.5,0.6,0.6,1
		c0.3,0.9,0.3,1.8,0,2.7c-0.1,0.4-0.3,0.7-0.6,1c-0.2,0.3-0.6,0.5-0.9,0.6C250,126.9,249.6,127,249.2,127z M249.2,126
		c0.5,0,0.9-0.1,1.2-0.5c0.3-0.4,0.5-0.9,0.5-1.4v-0.9c0-0.5-0.1-1-0.5-1.4c-0.7-0.6-1.7-0.6-2.4,0c-0.3,0.4-0.5,0.9-0.5,1.4v0.9
		c0,0.5,0.1,1,0.5,1.4C248.3,125.9,248.7,126.1,249.2,126z"/>
	<path class="st4" d="M257.8,125.8L257.8,125.8c-0.1,0.2-0.2,0.3-0.3,0.4c-0.1,0.1-0.2,0.3-0.4,0.4c-0.2,0.1-0.3,0.2-0.5,0.3
		c-0.2,0.1-0.4,0.1-0.7,0.1c-0.6,0-1.1-0.2-1.5-0.6c-0.4-0.5-0.6-1.1-0.6-1.7v-4h1.1v3.8c0,1.1,0.5,1.6,1.4,1.6c0.2,0,0.4,0,0.5-0.1
		c0.2,0,0.3-0.1,0.5-0.2c0.1-0.1,0.2-0.2,0.3-0.4c0.1-0.2,0.1-0.3,0.1-0.5v-4.2h1.1v6.2h-1.1V125.8z"/>
	<path class="st4" d="M261.1,126.8v-6.2h1.1v1h0c0.1-0.2,0.1-0.3,0.2-0.4c0.2-0.3,0.5-0.5,0.9-0.6c0.2-0.1,0.4-0.1,0.7-0.1
		c0.6,0,1.1,0.2,1.5,0.6c0.4,0.5,0.6,1.1,0.6,1.7v4h-1.1V123c0-1.1-0.5-1.6-1.4-1.6c-0.2,0-0.4,0-0.5,0.1c-0.2,0-0.3,0.1-0.5,0.2
		c-0.1,0.1-0.2,0.2-0.3,0.4c-0.1,0.2-0.1,0.3-0.1,0.5v4.2L261.1,126.8z"/>
	<path class="st4" d="M271.1,126.8c-0.4,0-0.8-0.1-1.1-0.4c-0.2-0.3-0.4-0.7-0.4-1.1v-3.8h-2v-0.9h1.4c0.2,0,0.3,0,0.5-0.1
		c0.1-0.1,0.2-0.3,0.1-0.5v-1.6h1.1v2.2h2.7v0.9h-2.7v4.3h2.7v0.9L271.1,126.8z"/>
	<path class="st4" d="M288.4,127.5c0,0.6-0.3,1.1-0.8,1.4c-0.7,0.3-1.6,0.5-2.4,0.4c-0.4,0-0.9,0-1.3-0.1c-0.3,0-0.6-0.2-0.9-0.3
		c-0.2-0.1-0.4-0.3-0.5-0.5c-0.1-0.2-0.2-0.4-0.2-0.6c0-0.3,0.1-0.6,0.3-0.8c0.2-0.2,0.5-0.4,0.8-0.4v-0.1c-0.2-0.1-0.3-0.2-0.5-0.3
		c-0.1-0.2-0.2-0.3-0.2-0.5c0-0.3,0.1-0.5,0.3-0.7c0.2-0.2,0.5-0.3,0.8-0.4v-0.1c-0.4-0.2-0.7-0.4-0.9-0.7c-0.2-0.3-0.3-0.7-0.3-1.2
		c0-0.3,0.1-0.6,0.2-0.9c0.1-0.3,0.3-0.5,0.5-0.7c0.2-0.2,0.5-0.3,0.8-0.4c0.3-0.1,0.7-0.2,1-0.2c0.4,0,0.8,0.1,1.2,0.2v-0.2
		c0-0.2,0.1-0.4,0.2-0.6c0.2-0.2,0.4-0.3,0.6-0.2h1.1v0.9h-1.4v0.4c0.2,0.2,0.4,0.4,0.6,0.7c0.3,0.6,0.3,1.2,0,1.8
		c-0.1,0.3-0.3,0.5-0.5,0.7c-0.2,0.2-0.5,0.3-0.8,0.4c-0.3,0.1-0.7,0.2-1,0.2c-0.1,0-0.2,0-0.3,0c-0.1,0-0.2,0-0.3,0
		c-0.1,0-0.2,0.1-0.3,0.1c-0.1,0-0.2,0.1-0.3,0.1c-0.1,0.1-0.1,0.1-0.2,0.2c0,0.1-0.1,0.2-0.1,0.3c0,0.2,0.1,0.3,0.3,0.4
		c0.2,0.1,0.5,0.1,0.7,0.1h1.4c0.6-0.1,1.2,0.1,1.8,0.5C288.2,126.6,288.4,127,288.4,127.5z M287.3,127.6c0-0.2-0.1-0.4-0.3-0.5
		c-0.3-0.2-0.6-0.2-1-0.2h-2.1c-0.3,0.1-0.6,0.4-0.6,0.8c0,0.3,0.1,0.5,0.3,0.7c0.3,0.2,0.7,0.3,1,0.3h1c0.4,0,0.8-0.1,1.2-0.2
		C287.2,128.1,287.3,127.9,287.3,127.6L287.3,127.6z M285.2,124c0.4,0,0.7-0.1,1-0.3c0.2-0.2,0.3-0.5,0.3-0.8v-0.3
		c0-0.3-0.1-0.6-0.3-0.8c-0.3-0.2-0.6-0.3-1-0.3c-0.4,0-0.7,0.1-1,0.3c-0.2,0.2-0.3,0.5-0.3,0.8v0.3c0,0.3,0.1,0.6,0.3,0.8
		C284.4,123.9,284.8,124,285.2,124L285.2,124z"/>
	<path class="st4" d="M289.7,125.9h1.7v-4.3h-1.7v-0.9h2.9v1.6h0.1c0.1-0.5,0.4-0.9,0.7-1.2c0.4-0.3,0.9-0.4,1.4-0.4h0.8v1.1h-1.2
		c-0.5,0-0.9,0.1-1.3,0.5c-0.3,0.3-0.5,0.7-0.5,1.2v2.5h2.3v0.9h-5.2L289.7,125.9z"/>
	<path class="st4" d="M299.6,127c-0.4,0-0.8-0.1-1.2-0.2c-0.3-0.1-0.7-0.4-0.9-0.6c-0.3-0.3-0.5-0.6-0.6-1c-0.3-0.9-0.3-1.8,0-2.7
		c0.1-0.4,0.3-0.7,0.6-1c0.2-0.3,0.6-0.5,0.9-0.6c0.8-0.3,1.6-0.3,2.4,0c0.3,0.1,0.7,0.4,0.9,0.6c0.3,0.3,0.5,0.6,0.6,1
		c0.3,0.9,0.3,1.8,0,2.7c-0.1,0.4-0.3,0.7-0.6,1c-0.2,0.3-0.6,0.5-0.9,0.6C300.4,126.9,300,127,299.6,127z M299.6,126
		c0.5,0,0.9-0.1,1.2-0.5c0.3-0.4,0.5-0.9,0.5-1.4v-0.9c0-0.5-0.1-1-0.5-1.4c-0.7-0.6-1.7-0.6-2.4,0c-0.3,0.4-0.5,0.9-0.5,1.4v0.9
		c0,0.5,0.1,1,0.5,1.4C298.7,125.9,299.1,126.1,299.6,126z"/>
	<path class="st4" d="M308.2,125.8L308.2,125.8c-0.1,0.2-0.2,0.3-0.3,0.4c-0.1,0.1-0.2,0.3-0.4,0.4c-0.2,0.1-0.3,0.2-0.5,0.3
		c-0.2,0.1-0.4,0.1-0.7,0.1c-0.6,0-1.1-0.2-1.5-0.6c-0.4-0.5-0.6-1.1-0.6-1.7v-4h1.1v3.8c0,1.1,0.5,1.6,1.4,1.6c0.2,0,0.4,0,0.5-0.1
		c0.2,0,0.3-0.1,0.5-0.2c0.1-0.1,0.2-0.2,0.3-0.4c0.1-0.2,0.1-0.3,0.1-0.5v-4.2h1.1v6.2h-1.1L308.2,125.8z"/>
	<path class="st4" d="M311.5,120.6h1.1v1h0.1c0.6-1.1,1.9-1.5,2.9-0.9c0.3,0.1,0.5,0.3,0.7,0.6c0.9,1.5,0.9,3.3,0,4.8
		c-0.7,0.9-1.9,1.1-2.9,0.5c-0.3-0.2-0.6-0.5-0.7-0.9h-0.1v3.4h-1.1L311.5,120.6z M314.1,126c0.5,0,0.9-0.2,1.2-0.5
		c0.3-0.4,0.5-0.8,0.4-1.3v-1c0-0.5-0.1-0.9-0.4-1.3c-0.3-0.3-0.8-0.5-1.2-0.5c-0.2,0-0.4,0-0.6,0.1c-0.2,0-0.3,0.1-0.5,0.2
		c-0.1,0.1-0.2,0.2-0.3,0.4c-0.1,0.2-0.1,0.3-0.1,0.5v2.2c0,0.2,0,0.4,0.1,0.5c0.1,0.2,0.2,0.3,0.3,0.4c0.1,0.1,0.3,0.2,0.5,0.2
		C313.7,126,313.9,126,314.1,126L314.1,126z"/>
	<path class="st4" d="M224,124.1v-0.8h93.6v0.8H224z"/>
	<path class="st4" d="M251.3,203l-0.7-2.3h-2.8l-0.7,2.3h-1.2l2.5-8.4h1.6l2.5,8.4H251.3z M249.2,195.8h-0.1l-1.1,3.9h2.3
		L249.2,195.8z"/>
	<path class="st4" d="M256.6,203.1c-0.4,0-0.8-0.1-1.2-0.2c-0.3-0.1-0.7-0.4-0.9-0.7c-0.3-0.3-0.4-0.6-0.6-1c-0.3-0.9-0.3-1.8,0-2.7
		c0.1-0.4,0.3-0.7,0.6-1c0.2-0.3,0.6-0.5,0.9-0.7c0.4-0.2,0.8-0.2,1.2-0.2c0.5,0,1,0.1,1.5,0.4c0.4,0.3,0.7,0.6,0.8,1.1l-0.9,0.5
		c-0.1-0.3-0.3-0.5-0.5-0.7c-0.3-0.2-0.6-0.3-0.9-0.3c-0.5,0-0.9,0.2-1.2,0.5c-0.3,0.4-0.5,0.8-0.4,1.3v1.1c0,0.5,0.1,0.9,0.4,1.3
		c0.3,0.3,0.8,0.5,1.3,0.5c0.4,0,0.7-0.1,1-0.3c0.3-0.2,0.5-0.5,0.6-0.8l0.8,0.5c-0.2,0.4-0.5,0.8-0.9,1.1
		C257.7,203,257.2,203.2,256.6,203.1z"/>
	<path class="st4" d="M263.8,203.1c-0.4,0-0.8-0.1-1.2-0.2c-0.3-0.1-0.7-0.4-0.9-0.7c-0.3-0.3-0.4-0.6-0.6-1c-0.3-0.9-0.3-1.8,0-2.7
		c0.1-0.4,0.3-0.7,0.6-1c0.2-0.3,0.6-0.5,0.9-0.7c0.4-0.2,0.8-0.2,1.2-0.2c0.5,0,1,0.1,1.5,0.4c0.4,0.3,0.7,0.6,0.8,1.1l-0.9,0.5
		c-0.1-0.3-0.3-0.5-0.5-0.7c-0.3-0.2-0.6-0.3-0.9-0.3c-0.5,0-0.9,0.2-1.2,0.5c-0.3,0.4-0.5,0.8-0.4,1.3v1.1c0,0.5,0.1,0.9,0.4,1.3
		c0.3,0.3,0.8,0.5,1.3,0.5c0.4,0,0.7-0.1,1-0.3c0.3-0.2,0.5-0.5,0.6-0.8l0.8,0.5c-0.2,0.4-0.5,0.8-0.9,1.1
		C264.9,203,264.4,203.2,263.8,203.1z"/>
	<path class="st4" d="M270.8,203.1c-0.4,0-0.8-0.1-1.2-0.2c-0.3-0.1-0.7-0.4-0.9-0.6c-0.3-0.3-0.5-0.6-0.6-1c-0.3-0.9-0.3-1.8,0-2.7
		c0.1-0.4,0.3-0.7,0.6-1c0.2-0.3,0.6-0.5,0.9-0.6c0.8-0.3,1.6-0.3,2.4,0c0.3,0.1,0.7,0.4,0.9,0.6c0.3,0.3,0.5,0.6,0.6,1
		c0.3,0.9,0.3,1.8,0,2.7c-0.1,0.4-0.3,0.7-0.6,1c-0.2,0.3-0.6,0.5-0.9,0.6C271.6,203.1,271.2,203.1,270.8,203.1z M270.8,202.2
		c0.5,0,0.9-0.1,1.2-0.5c0.3-0.4,0.5-0.9,0.5-1.4v-0.9c0-0.5-0.1-1-0.5-1.4c-0.7-0.6-1.7-0.6-2.4,0c-0.3,0.4-0.5,0.9-0.5,1.4v0.9
		c0,0.5,0.1,1,0.5,1.4C269.9,202.1,270.4,202.2,270.8,202.2z"/>
	<path class="st4" d="M279.4,202L279.4,202c-0.1,0.2-0.2,0.3-0.3,0.4c-0.1,0.1-0.2,0.3-0.4,0.4c-0.2,0.1-0.3,0.2-0.5,0.3
		c-0.2,0.1-0.4,0.1-0.7,0.1c-0.6,0-1.1-0.2-1.5-0.6c-0.4-0.5-0.6-1.1-0.6-1.7v-4h1.1v3.8c0,1.1,0.5,1.6,1.4,1.6c0.2,0,0.4,0,0.5-0.1
		c0.2,0,0.3-0.1,0.5-0.2c0.1-0.1,0.2-0.2,0.3-0.4c0.1-0.2,0.1-0.3,0.1-0.5v-4.2h1.1v6.2h-1.1L279.4,202z"/>
	<path class="st4" d="M282.7,203v-6.2h1.1v1h0c0.1-0.2,0.1-0.3,0.2-0.4c0.2-0.3,0.5-0.5,0.9-0.6c0.2-0.1,0.4-0.1,0.7-0.1
		c0.6,0,1.1,0.2,1.5,0.6c0.4,0.5,0.6,1.1,0.6,1.7v4h-1.1v-3.8c0-1.1-0.5-1.6-1.4-1.6c-0.2,0-0.4,0-0.5,0.1c-0.2,0-0.3,0.1-0.5,0.2
		c-0.1,0.1-0.2,0.2-0.3,0.4c-0.1,0.2-0.1,0.3-0.1,0.5v4.2H282.7z"/>
	<path class="st4" d="M292.7,203c-0.4,0-0.8-0.1-1.1-0.4c-0.2-0.3-0.4-0.7-0.4-1.1v-3.8h-2v-0.9h1.4c0.2,0,0.3,0,0.5-0.1
		c0.1-0.1,0.2-0.3,0.1-0.5v-1.6h1.1v2.2h2.7v0.9h-2.7v4.3h2.7v0.9H292.7z"/>
	<path class="st4" d="M245.6,200.3v-0.8H296v0.8H245.6z"/>
	<path class="st6" d="M486.8,126.8l-0.7-2.3h-2.8l-0.7,2.3h-1.2l2.5-8.4h1.6l2.5,8.4H486.8z M484.7,119.6h-0.1l-1.1,3.9h2.3
		L484.7,119.6z"/>
	<path class="st6" d="M492.1,127c-0.4,0-0.8-0.1-1.2-0.2c-0.3-0.1-0.7-0.4-0.9-0.7c-0.3-0.3-0.4-0.6-0.6-1c-0.3-0.9-0.3-1.8,0-2.7
		c0.1-0.4,0.3-0.7,0.6-1c0.2-0.3,0.6-0.5,0.9-0.7c0.4-0.2,0.8-0.2,1.2-0.2c0.5,0,1,0.1,1.5,0.4c0.4,0.3,0.7,0.6,0.8,1.1l-0.9,0.5
		c-0.1-0.3-0.3-0.5-0.5-0.7c-0.7-0.4-1.6-0.3-2.2,0.2c-0.3,0.4-0.5,0.8-0.4,1.3v1.1c0,0.5,0.1,0.9,0.4,1.3c0.3,0.3,0.8,0.5,1.3,0.5
		c0.4,0,0.7-0.1,1-0.3c0.3-0.2,0.5-0.5,0.6-0.8l0.8,0.5c-0.2,0.4-0.5,0.8-0.9,1.1C493.2,126.8,492.7,127,492.1,127z"/>
	<path class="st6" d="M499.3,127c-0.4,0-0.8-0.1-1.2-0.2c-0.3-0.1-0.7-0.4-0.9-0.7c-0.3-0.3-0.4-0.6-0.6-1c-0.3-0.9-0.3-1.8,0-2.7
		c0.1-0.4,0.3-0.7,0.6-1c0.2-0.3,0.6-0.5,0.9-0.7c0.4-0.2,0.8-0.2,1.2-0.2c0.5,0,1,0.1,1.5,0.4c0.4,0.3,0.7,0.6,0.8,1.1l-0.9,0.5
		c-0.1-0.3-0.3-0.5-0.5-0.7c-0.7-0.4-1.6-0.3-2.2,0.2c-0.3,0.4-0.5,0.8-0.4,1.3v1.1c0,0.5,0.1,0.9,0.4,1.3c0.3,0.3,0.8,0.5,1.3,0.5
		c0.4,0,0.7-0.1,1-0.3c0.3-0.2,0.5-0.5,0.6-0.8l0.8,0.5c-0.2,0.4-0.5,0.8-0.9,1.1C500.4,126.8,499.9,127,499.3,127z"/>
	<path class="st6" d="M506.3,127c-0.4,0-0.8-0.1-1.2-0.2c-0.3-0.1-0.7-0.4-0.9-0.6c-0.3-0.3-0.5-0.6-0.6-1c-0.3-0.9-0.3-1.8,0-2.7
		c0.1-0.4,0.3-0.7,0.6-1c0.2-0.3,0.6-0.5,0.9-0.6c0.8-0.3,1.6-0.3,2.4,0c0.3,0.1,0.7,0.4,0.9,0.6c0.3,0.3,0.5,0.6,0.6,1
		c0.3,0.9,0.3,1.8,0,2.7c-0.1,0.4-0.3,0.7-0.6,1c-0.2,0.3-0.6,0.5-0.9,0.6C507.1,126.9,506.7,127,506.3,127z M506.3,126
		c0.5,0,0.9-0.1,1.2-0.5c0.3-0.4,0.5-0.9,0.5-1.4v-0.9c0-0.5-0.1-1-0.5-1.4c-0.7-0.6-1.7-0.6-2.4,0c-0.3,0.4-0.5,0.9-0.5,1.4v0.9
		c0,0.5,0.1,1,0.5,1.4C505.4,125.9,505.9,126,506.3,126z"/>
	<path class="st6" d="M514.9,125.8L514.9,125.8c-0.1,0.2-0.2,0.3-0.3,0.4c-0.1,0.1-0.2,0.3-0.4,0.4c-0.2,0.1-0.3,0.2-0.5,0.3
		c-0.2,0.1-0.4,0.1-0.7,0.1c-0.6,0-1.1-0.2-1.5-0.6c-0.4-0.5-0.6-1.1-0.6-1.7v-4h1.1v3.8c0,1.1,0.5,1.6,1.4,1.6c0.2,0,0.4,0,0.5-0.1
		c0.2,0,0.3-0.1,0.5-0.2c0.1-0.1,0.2-0.2,0.3-0.4c0.1-0.2,0.1-0.3,0.1-0.5v-4.2h1.1v6.2h-1.1L514.9,125.8z"/>
	<path class="st6" d="M518.2,126.8v-6.2h1.1v1h0c0.1-0.2,0.1-0.3,0.2-0.4c0.2-0.3,0.5-0.5,0.9-0.6c0.2-0.1,0.4-0.1,0.7-0.1
		c0.6,0,1.1,0.2,1.5,0.6c0.4,0.5,0.6,1.1,0.6,1.7v4h-1.1V123c0-1.1-0.5-1.6-1.4-1.6c-0.2,0-0.4,0-0.5,0.1c-0.2,0-0.3,0.1-0.5,0.2
		c-0.1,0.1-0.2,0.2-0.3,0.4c-0.1,0.2-0.1,0.3-0.1,0.5v4.2L518.2,126.8z"/>
	<path class="st6" d="M528.2,126.8c-0.4,0-0.8-0.1-1.1-0.4c-0.2-0.3-0.4-0.7-0.4-1.1v-3.8h-2v-0.9h1.4c0.2,0,0.3,0,0.5-0.1
		c0.1-0.1,0.2-0.3,0.1-0.5v-1.6h1.1v2.2h2.7v0.9h-2.7v4.3h2.7v0.9L528.2,126.8z"/>
	<path class="st6" d="M545.5,127.5c0,0.6-0.3,1.1-0.8,1.4c-0.7,0.3-1.6,0.5-2.4,0.4c-0.4,0-0.9,0-1.3-0.1c-0.3,0-0.6-0.2-0.9-0.3
		c-0.2-0.1-0.4-0.3-0.5-0.5c-0.1-0.2-0.2-0.4-0.2-0.6c0-0.3,0.1-0.6,0.3-0.8c0.2-0.2,0.5-0.4,0.8-0.4v-0.1c-0.2-0.1-0.3-0.2-0.5-0.3
		c-0.1-0.2-0.2-0.3-0.2-0.5c0-0.3,0.1-0.5,0.3-0.7c0.2-0.2,0.5-0.3,0.8-0.4v-0.1c-0.4-0.2-0.7-0.4-0.9-0.7c-0.2-0.3-0.3-0.7-0.3-1.2
		c0-0.3,0.1-0.6,0.2-0.9c0.1-0.3,0.3-0.5,0.5-0.7c0.2-0.2,0.5-0.3,0.8-0.4c0.3-0.1,0.7-0.2,1-0.2c0.4,0,0.8,0.1,1.2,0.2v-0.2
		c0-0.2,0.1-0.4,0.2-0.6c0.2-0.2,0.4-0.3,0.6-0.2h1.1v0.9H544v0.4c0.2,0.2,0.4,0.4,0.6,0.7c0.3,0.6,0.3,1.2,0,1.8
		c-0.1,0.3-0.3,0.5-0.5,0.7c-0.2,0.2-0.5,0.3-0.8,0.4c-0.3,0.1-0.7,0.2-1,0.2c-0.1,0-0.2,0-0.3,0c-0.1,0-0.2,0-0.3,0
		c-0.1,0-0.2,0.1-0.3,0.1c-0.1,0-0.2,0.1-0.3,0.1c-0.1,0.1-0.1,0.1-0.2,0.2c0,0.1-0.1,0.2-0.1,0.3c0,0.2,0.1,0.3,0.3,0.4
		c0.2,0.1,0.5,0.1,0.7,0.1h1.4c0.6-0.1,1.2,0.1,1.8,0.5C545.3,126.6,545.5,127,545.5,127.5z M544.4,127.6c0-0.2-0.1-0.4-0.3-0.5
		c-0.3-0.2-0.6-0.2-1-0.2H541c-0.3,0.1-0.6,0.4-0.6,0.8c0,0.3,0.1,0.5,0.3,0.7c0.3,0.2,0.7,0.3,1,0.3h1c0.4,0,0.8-0.1,1.2-0.2
		C544.3,128.1,544.4,127.9,544.4,127.6L544.4,127.6z M542.3,124c0.4,0,0.7-0.1,1-0.3c0.2-0.2,0.3-0.5,0.3-0.8v-0.3
		c0-0.3-0.1-0.6-0.3-0.8c-0.3-0.2-0.6-0.3-1-0.3c-0.4,0-0.7,0.1-1,0.3c-0.2,0.2-0.3,0.5-0.3,0.8v0.3c0,0.3,0.1,0.6,0.3,0.8
		C541.5,123.9,541.9,124,542.3,124L542.3,124z"/>
	<path class="st6" d="M546.8,125.9h1.7v-4.3h-1.7v-0.9h2.9v1.6h0.1c0.1-0.5,0.4-0.9,0.7-1.2c0.4-0.3,0.9-0.4,1.3-0.4h0.8v1.1h-1.2
		c-0.5,0-0.9,0.1-1.3,0.5c-0.3,0.3-0.5,0.7-0.5,1.2v2.5h2.3v0.9h-5.2L546.8,125.9z"/>
	<path class="st6" d="M556.7,127c-0.4,0-0.8-0.1-1.2-0.2c-0.3-0.1-0.7-0.4-0.9-0.6c-0.3-0.3-0.5-0.6-0.6-1c-0.3-0.9-0.3-1.8,0-2.7
		c0.1-0.4,0.3-0.7,0.6-1c0.2-0.3,0.6-0.5,0.9-0.6c0.8-0.3,1.6-0.3,2.4,0c0.3,0.1,0.7,0.4,0.9,0.6c0.3,0.3,0.5,0.6,0.6,1
		c0.3,0.9,0.3,1.8,0,2.7c-0.1,0.4-0.3,0.7-0.6,1c-0.2,0.3-0.6,0.5-0.9,0.6C557.5,126.9,557.1,127,556.7,127z M556.7,126
		c0.5,0,0.9-0.1,1.2-0.5c0.3-0.4,0.5-0.9,0.5-1.4v-0.9c0-0.5-0.1-1-0.5-1.4c-0.7-0.6-1.7-0.6-2.4,0c-0.3,0.4-0.5,0.9-0.5,1.4v0.9
		c0,0.5,0.1,1,0.5,1.4C555.8,125.9,556.3,126,556.7,126z"/>
	<path class="st6" d="M565.3,125.8L565.3,125.8c-0.1,0.2-0.2,0.3-0.3,0.4c-0.1,0.1-0.2,0.3-0.4,0.4c-0.2,0.1-0.3,0.2-0.5,0.3
		c-0.2,0.1-0.4,0.1-0.7,0.1c-0.6,0-1.1-0.2-1.5-0.6c-0.4-0.5-0.6-1.1-0.6-1.7v-4h1.1v3.8c0,1.1,0.5,1.6,1.4,1.6c0.2,0,0.4,0,0.5-0.1
		c0.2,0,0.3-0.1,0.5-0.2c0.1-0.1,0.2-0.2,0.3-0.4c0.1-0.2,0.1-0.3,0.1-0.5v-4.2h1.1v6.2h-1.1L565.3,125.8z"/>
	<path class="st6" d="M568.6,120.6h1.1v1h0.1c0.3-0.8,1.1-1.2,1.9-1.2c0.7,0,1.3,0.3,1.8,0.8c0.9,1.5,0.9,3.3,0,4.8
		c-0.7,0.9-1.9,1.1-2.9,0.5c-0.3-0.2-0.6-0.5-0.7-0.9h-0.1v3.4h-1.1L568.6,120.6z M571.2,126c0.5,0,0.9-0.2,1.2-0.5
		c0.3-0.4,0.5-0.8,0.4-1.3v-1c0-0.5-0.1-0.9-0.4-1.3c-0.3-0.3-0.8-0.5-1.2-0.5c-0.2,0-0.4,0-0.6,0.1c-0.2,0-0.3,0.1-0.5,0.2
		c-0.1,0.1-0.2,0.2-0.3,0.4c-0.1,0.2-0.1,0.3-0.1,0.5v2.2c0,0.2,0,0.4,0.1,0.5c0.1,0.2,0.2,0.3,0.3,0.4c0.1,0.1,0.3,0.2,0.5,0.2
		C570.8,126,571,126,571.2,126z"/>
	<path class="st6" d="M494,50.6v-8.4h5.2v1h-4v2.7h3.9v1h-3.9v2.8h4v1L494,50.6z"/>
	<path class="st6" d="M501.3,50.6v-6.2h1.1v1h0c0.1-0.2,0.1-0.3,0.2-0.4c0.2-0.3,0.5-0.5,0.9-0.6c0.2-0.1,0.4-0.1,0.7-0.1
		c0.6,0,1.1,0.2,1.5,0.6c0.4,0.5,0.6,1.1,0.6,1.7v4h-1.1v-3.8c0-1.1-0.5-1.6-1.4-1.6c-0.2,0-0.4,0-0.5,0.1c-0.2,0-0.3,0.1-0.5,0.2
		c-0.1,0.1-0.2,0.2-0.3,0.4c-0.1,0.2-0.1,0.3-0.1,0.5v4.2L501.3,50.6z"/>
	<path class="st6" d="M511.3,50.6c-0.4,0-0.8-0.1-1.1-0.4c-0.2-0.3-0.4-0.7-0.4-1.1v-3.8h-2v-0.9h1.4c0.2,0,0.3,0,0.5-0.1
		c0.1-0.1,0.2-0.3,0.1-0.5v-1.6h1.1v2.2h2.7v0.9h-2.7v4.3h2.7v0.9L511.3,50.6z"/>
	<path class="st6" d="M518.3,50.8c-0.4,0-0.8-0.1-1.2-0.2c-0.4-0.1-0.7-0.4-0.9-0.6c-0.3-0.3-0.5-0.6-0.6-1
		c-0.1-0.4-0.2-0.9-0.2-1.3c0-0.5,0.1-0.9,0.2-1.3c0.1-0.4,0.3-0.7,0.6-1c0.2-0.3,0.6-0.5,0.9-0.7c0.7-0.3,1.6-0.3,2.3,0
		c0.3,0.1,0.6,0.4,0.9,0.6c0.2,0.3,0.4,0.6,0.6,1c0.1,0.4,0.2,0.8,0.2,1.2v0.5h-4.5v0.3c0,0.5,0.2,0.9,0.5,1.3
		c0.4,0.3,0.8,0.5,1.3,0.5c0.4,0,0.7-0.1,1.1-0.3c0.3-0.2,0.5-0.4,0.7-0.7l0.8,0.6c-0.2,0.4-0.5,0.8-0.9,1
		C519.4,50.7,518.8,50.8,518.3,50.8z M518.2,45.2c-0.2,0-0.5,0-0.7,0.1c-0.2,0.1-0.4,0.2-0.5,0.4c-0.2,0.2-0.3,0.3-0.4,0.6
		c-0.1,0.2-0.1,0.5-0.1,0.7v0.1h3.3v-0.1c0-0.5-0.1-0.9-0.4-1.3C519.1,45.3,518.6,45.2,518.2,45.2z"/>
	<path class="st6" d="M522.7,49.7h1.7v-4.3h-1.7v-0.9h2.9V46h0.1c0.1-0.5,0.4-0.9,0.7-1.2c0.4-0.3,0.9-0.4,1.3-0.4h0.8v1.1h-1.2
		c-0.5,0-0.9,0.1-1.3,0.5c-0.3,0.3-0.5,0.7-0.5,1.2v2.5h2.3v0.9h-5.2V49.7z"/>
	<path class="st6" d="M530,44.4h1.1v1h0.1c0.6-1.1,1.9-1.5,2.9-0.9c0.3,0.1,0.5,0.3,0.7,0.6c0.5,0.7,0.7,1.6,0.6,2.4
		c0.1,0.8-0.2,1.7-0.6,2.4c-0.7,1-2,1.2-2.9,0.5c-0.3-0.2-0.6-0.5-0.7-0.9h-0.1V53H530L530,44.4z M532.6,49.8c0.5,0,0.9-0.2,1.2-0.5
		c0.3-0.4,0.5-0.8,0.4-1.3v-1c0-0.5-0.1-0.9-0.4-1.3c-0.3-0.3-0.8-0.5-1.2-0.5c-0.2,0-0.4,0-0.6,0.1c-0.2,0-0.3,0.1-0.5,0.2
		c-0.1,0.1-0.2,0.2-0.3,0.4c-0.1,0.2-0.1,0.3-0.1,0.5v2.2c0,0.2,0,0.4,0.1,0.5c0.1,0.2,0.2,0.3,0.3,0.4c0.1,0.1,0.3,0.2,0.5,0.2
		C532.2,49.8,532.4,49.8,532.6,49.8z"/>
	<path class="st6" d="M537.1,49.7h1.7v-4.3h-1.7v-0.9h2.9V46h0.1c0.1-0.5,0.4-0.9,0.7-1.2c0.4-0.3,0.9-0.4,1.3-0.4h0.8v1.1h-1.2
		c-0.5,0-0.9,0.1-1.3,0.5c-0.3,0.3-0.5,0.7-0.5,1.2v2.5h2.3v0.9h-5.2V49.7z"/>
	<path class="st6" d="M544.6,49.7h2.2v-4.3h-2.2v-0.9h3.3v5.3h2v0.9h-5.3L544.6,49.7z M547.3,43.2c-0.2,0-0.5,0-0.6-0.2
		c-0.1-0.1-0.2-0.3-0.2-0.5v-0.2c0-0.2,0.1-0.3,0.2-0.5c0.4-0.3,0.9-0.3,1.3,0c0.1,0.1,0.2,0.3,0.2,0.5v0.2c0,0.2-0.1,0.3-0.2,0.5
		C547.8,43.1,547.6,43.2,547.3,43.2z"/>
	<path class="st6" d="M554.2,50.8c-0.6,0-1.2-0.1-1.7-0.3c-0.5-0.2-0.9-0.5-1.2-0.9l0.7-0.6c0.3,0.3,0.6,0.5,0.9,0.7
		c0.4,0.2,0.8,0.3,1.2,0.2c0.4,0,0.8-0.1,1.1-0.2c0.3-0.1,0.4-0.4,0.4-0.8c0-0.1,0-0.3-0.1-0.4c-0.1-0.1-0.1-0.2-0.2-0.2
		c-0.1-0.1-0.2-0.1-0.3-0.1c-0.1,0-0.3-0.1-0.4-0.1l-1-0.1c-0.2,0-0.5-0.1-0.7-0.1c-0.2-0.1-0.5-0.2-0.7-0.3
		c-0.2-0.1-0.4-0.3-0.5-0.5c-0.1-0.2-0.2-0.5-0.2-0.8c0-0.3,0.1-0.6,0.2-0.8c0.1-0.2,0.3-0.4,0.5-0.6c0.2-0.2,0.5-0.3,0.8-0.4
		c0.3-0.1,0.7-0.1,1-0.1c0.5,0,1,0.1,1.5,0.3c0.4,0.2,0.8,0.4,1.1,0.7l-0.7,0.7c-0.1-0.1-0.2-0.2-0.3-0.3c-0.1-0.1-0.3-0.2-0.4-0.2
		c-0.2-0.1-0.3-0.1-0.5-0.2c-0.2-0.1-0.5-0.1-0.7-0.1c-0.4,0-0.7,0.1-1,0.2c-0.2,0.1-0.4,0.4-0.4,0.7c0,0.2,0.1,0.5,0.3,0.6
		c0.1,0.1,0.2,0.1,0.3,0.1c0.1,0,0.3,0.1,0.4,0.1l1,0.1c0.2,0,0.5,0.1,0.7,0.1c0.2,0.1,0.5,0.2,0.7,0.3c0.2,0.1,0.4,0.3,0.5,0.5
		c0.1,0.2,0.2,0.5,0.2,0.8c0,0.6-0.2,1.1-0.7,1.5C555.6,50.6,554.9,50.8,554.2,50.8z"/>
	<path class="st6" d="M561.5,50.8c-0.4,0-0.8-0.1-1.2-0.2c-0.4-0.1-0.7-0.4-0.9-0.6c-0.3-0.3-0.5-0.6-0.6-1
		c-0.1-0.4-0.2-0.9-0.2-1.3c0-0.5,0.1-0.9,0.2-1.3c0.1-0.4,0.3-0.7,0.6-1c0.2-0.3,0.6-0.5,0.9-0.7c0.7-0.3,1.6-0.3,2.3,0
		c0.3,0.1,0.6,0.4,0.9,0.6c0.2,0.3,0.4,0.6,0.6,1c0.1,0.4,0.2,0.8,0.2,1.2v0.5h-4.5v0.3c0,0.5,0.2,0.9,0.5,1.3
		c0.4,0.3,0.8,0.5,1.3,0.5c0.4,0,0.7-0.1,1.1-0.3c0.3-0.2,0.5-0.4,0.7-0.7l0.8,0.6c-0.2,0.4-0.5,0.8-0.9,1
		C562.6,50.7,562,50.8,561.5,50.8z M561.4,45.2c-0.2,0-0.5,0-0.7,0.1c-0.2,0.1-0.4,0.2-0.5,0.4c-0.2,0.2-0.3,0.3-0.4,0.6
		c-0.1,0.2-0.1,0.5-0.1,0.7v0.1h3.3v-0.1c0-0.5-0.1-0.9-0.4-1.3C562.3,45.3,561.8,45.2,561.4,45.2L561.4,45.2z"/>
	<path class="st6" d="M476.5,279l-0.7-2.3H473l-0.7,2.3h-1.2l2.5-8.4h1.6l2.5,8.4H476.5z M474.5,271.8h-0.1l-1.1,3.9h2.3
		L474.5,271.8z"/>
	<path class="st6" d="M481.9,279.1c-0.4,0-0.8-0.1-1.2-0.2c-0.3-0.1-0.7-0.4-0.9-0.7c-0.3-0.3-0.4-0.6-0.6-1c-0.3-0.9-0.3-1.8,0-2.7
		c0.1-0.4,0.3-0.7,0.6-1c0.2-0.3,0.6-0.5,0.9-0.7c0.4-0.2,0.8-0.2,1.2-0.2c0.5,0,1,0.1,1.5,0.4c0.4,0.3,0.7,0.6,0.8,1.1l-0.9,0.5
		c-0.1-0.3-0.3-0.5-0.5-0.7c-0.3-0.2-0.6-0.3-0.9-0.3c-0.5,0-0.9,0.2-1.2,0.5c-0.3,0.4-0.5,0.8-0.4,1.3v1c0,0.5,0.1,0.9,0.4,1.3
		c0.3,0.3,0.8,0.5,1.3,0.5c0.4,0,0.7-0.1,1-0.3c0.3-0.2,0.5-0.5,0.6-0.8l0.8,0.5c-0.2,0.4-0.5,0.8-0.9,1.1
		C483,279,482.4,279.2,481.9,279.1z"/>
	<path class="st6" d="M489.1,279.1c-0.4,0-0.8-0.1-1.2-0.2c-0.3-0.1-0.7-0.4-0.9-0.7c-0.3-0.3-0.4-0.6-0.6-1c-0.3-0.9-0.3-1.8,0-2.7
		c0.1-0.4,0.3-0.7,0.6-1c0.2-0.3,0.6-0.5,0.9-0.7c0.4-0.2,0.8-0.2,1.2-0.2c0.5,0,1,0.1,1.5,0.4c0.4,0.3,0.7,0.6,0.8,1.1l-0.9,0.5
		c-0.1-0.3-0.3-0.5-0.5-0.7c-0.3-0.2-0.6-0.3-0.9-0.3c-0.5,0-0.9,0.2-1.2,0.5c-0.3,0.4-0.5,0.8-0.4,1.3v1c0,0.5,0.1,0.9,0.4,1.3
		c0.3,0.3,0.8,0.5,1.3,0.5c0.4,0,0.7-0.1,1-0.3c0.3-0.2,0.5-0.5,0.6-0.8l0.8,0.5c-0.2,0.4-0.5,0.8-0.9,1.1
		C490.2,279,489.6,279.2,489.1,279.1z"/>
	<path class="st6" d="M496.1,279.1c-0.4,0-0.8-0.1-1.2-0.2c-0.3-0.1-0.7-0.4-0.9-0.6c-0.3-0.3-0.5-0.6-0.6-1c-0.3-0.9-0.3-1.8,0-2.7
		c0.1-0.4,0.3-0.7,0.6-1c0.2-0.3,0.6-0.5,0.9-0.6c0.8-0.3,1.6-0.3,2.4,0c0.3,0.1,0.7,0.4,0.9,0.6c0.3,0.3,0.5,0.6,0.6,1
		c0.3,0.9,0.3,1.8,0,2.7c-0.1,0.4-0.3,0.7-0.6,1c-0.2,0.3-0.6,0.5-0.9,0.6C496.9,279.1,496.5,279.2,496.1,279.1z M496.1,278.2
		c0.5,0,0.9-0.1,1.2-0.5c0.3-0.4,0.5-0.9,0.5-1.4v-0.9c0-0.5-0.1-1-0.5-1.4c-0.7-0.6-1.7-0.6-2.4,0c-0.3,0.4-0.5,0.9-0.5,1.4v0.9
		c0,0.5,0.1,1,0.5,1.4C495.2,278.1,495.6,278.2,496.1,278.2L496.1,278.2z"/>
	<path class="st6" d="M504.6,278L504.6,278c-0.1,0.2-0.2,0.3-0.3,0.5c-0.1,0.1-0.2,0.3-0.4,0.4c-0.2,0.1-0.3,0.2-0.5,0.3
		c-0.2,0.1-0.4,0.1-0.7,0.1c-0.6,0-1.1-0.2-1.5-0.6c-0.4-0.5-0.6-1.1-0.6-1.7v-4h1.1v3.8c0,1.1,0.5,1.6,1.4,1.6c0.2,0,0.4,0,0.5-0.1
		c0.2,0,0.3-0.1,0.5-0.2c0.1-0.1,0.2-0.2,0.3-0.4c0.1-0.2,0.1-0.3,0.1-0.5v-4.2h1.1v6.2h-1.1V278z"/>
	<path class="st6" d="M508,279v-6.2h1.1v1h0c0.1-0.2,0.1-0.3,0.2-0.4c0.2-0.3,0.5-0.5,0.9-0.6c0.2-0.1,0.4-0.1,0.7-0.1
		c0.6,0,1.1,0.2,1.5,0.6c0.4,0.5,0.6,1.1,0.6,1.7v4h-1.1v-3.8c0-1.1-0.5-1.6-1.4-1.6c-0.2,0-0.4,0-0.5,0.1c-0.2,0-0.3,0.1-0.5,0.2
		c-0.1,0.1-0.2,0.2-0.3,0.4c-0.1,0.2-0.1,0.3-0.1,0.5v4.2L508,279z"/>
	<path class="st6" d="M518,279c-0.4,0-0.8-0.1-1.1-0.4c-0.2-0.3-0.4-0.7-0.4-1.1v-3.8h-2v-0.9h1.4c0.2,0,0.3,0,0.5-0.1
		c0.1-0.1,0.2-0.3,0.1-0.5v-1.6h1.1v2.2h2.7v0.9h-2.7v4.3h2.7v0.9L518,279z"/>
	<path class="st6" d="M603,279l-0.7-2.3h-2.8l-0.7,2.3h-1.2l2.5-8.4h1.6l2.5,8.4H603z M600.9,271.8h-0.1l-1.1,3.9h2.3L600.9,271.8z"
		/>
	<path class="st6" d="M608.3,279.1c-0.4,0-0.8-0.1-1.2-0.2c-0.3-0.1-0.7-0.4-0.9-0.7c-0.3-0.3-0.4-0.6-0.6-1c-0.3-0.9-0.3-1.8,0-2.7
		c0.1-0.4,0.3-0.7,0.6-1c0.2-0.3,0.6-0.5,0.9-0.7c0.4-0.2,0.8-0.2,1.2-0.2c0.5,0,1,0.1,1.5,0.4c0.4,0.3,0.7,0.6,0.8,1.1l-0.9,0.5
		c-0.1-0.3-0.3-0.5-0.5-0.7c-0.3-0.2-0.6-0.3-0.9-0.3c-0.5,0-0.9,0.2-1.2,0.5c-0.3,0.4-0.5,0.8-0.4,1.3v1c0,0.5,0.1,0.9,0.4,1.3
		c0.3,0.3,0.8,0.5,1.3,0.5c0.4,0,0.7-0.1,1-0.3c0.3-0.2,0.5-0.5,0.6-0.8l0.8,0.5c-0.2,0.4-0.5,0.8-0.9,1.1
		C609.4,279,608.9,279.2,608.3,279.1z"/>
	<path class="st6" d="M615.5,279.1c-0.4,0-0.8-0.1-1.2-0.2c-0.3-0.1-0.7-0.4-0.9-0.7c-0.3-0.3-0.4-0.6-0.6-1c-0.3-0.9-0.3-1.8,0-2.7
		c0.1-0.4,0.3-0.7,0.6-1c0.2-0.3,0.6-0.5,0.9-0.7c0.4-0.2,0.8-0.2,1.2-0.2c0.5,0,1,0.1,1.5,0.4c0.4,0.3,0.7,0.6,0.8,1.1l-0.9,0.5
		c-0.1-0.3-0.3-0.5-0.5-0.7c-0.3-0.2-0.6-0.3-0.9-0.3c-0.5,0-0.9,0.2-1.2,0.5c-0.3,0.4-0.5,0.8-0.4,1.3v1c0,0.5,0.1,0.9,0.4,1.3
		c0.3,0.3,0.8,0.5,1.3,0.5c0.4,0,0.7-0.1,1-0.3c0.3-0.2,0.5-0.5,0.6-0.8l0.8,0.5c-0.2,0.4-0.5,0.8-0.9,1.1
		C616.6,279,616.1,279.2,615.5,279.1z"/>
	<path class="st6" d="M622.5,279.1c-0.4,0-0.8-0.1-1.2-0.2c-0.3-0.1-0.7-0.4-0.9-0.6c-0.3-0.3-0.5-0.6-0.6-1c-0.3-0.9-0.3-1.8,0-2.7
		c0.1-0.4,0.3-0.7,0.6-1c0.2-0.3,0.6-0.5,0.9-0.6c0.8-0.3,1.6-0.3,2.4,0c0.3,0.1,0.7,0.4,0.9,0.6c0.3,0.3,0.5,0.6,0.6,1
		c0.3,0.9,0.3,1.8,0,2.7c-0.1,0.4-0.3,0.7-0.6,1c-0.2,0.3-0.6,0.5-0.9,0.6C623.3,279.1,622.9,279.2,622.5,279.1z M622.5,278.2
		c0.5,0,0.9-0.1,1.2-0.5c0.3-0.4,0.5-0.9,0.5-1.4v-0.9c0-0.5-0.1-1-0.5-1.4c-0.7-0.6-1.7-0.6-2.4,0c-0.3,0.4-0.5,0.9-0.5,1.4v0.9
		c0,0.5,0.1,1,0.5,1.4C621.6,278.1,622,278.2,622.5,278.2L622.5,278.2z"/>
	<path class="st6" d="M631.1,278L631.1,278c-0.1,0.2-0.2,0.3-0.3,0.5c-0.1,0.1-0.2,0.3-0.4,0.4c-0.2,0.1-0.3,0.2-0.5,0.3
		c-0.2,0.1-0.4,0.1-0.7,0.1c-0.6,0-1.1-0.2-1.5-0.6c-0.4-0.5-0.6-1.1-0.6-1.7v-4h1.1v3.8c0,1.1,0.5,1.6,1.4,1.6c0.2,0,0.4,0,0.5-0.1
		c0.2,0,0.3-0.1,0.5-0.2c0.1-0.1,0.2-0.2,0.3-0.4c0.1-0.2,0.1-0.3,0.1-0.5v-4.2h1.1v6.2h-1.1L631.1,278z"/>
	<path class="st6" d="M634.4,279v-6.2h1.1v1h0c0.1-0.2,0.1-0.3,0.2-0.4c0.2-0.3,0.5-0.5,0.9-0.6c0.2-0.1,0.4-0.1,0.7-0.1
		c0.6,0,1.1,0.2,1.5,0.6c0.4,0.5,0.6,1.1,0.6,1.7v4h-1.1v-3.8c0-1.1-0.5-1.6-1.4-1.6c-0.2,0-0.4,0-0.5,0.1c-0.2,0-0.3,0.1-0.5,0.2
		c-0.1,0.1-0.2,0.2-0.3,0.4c-0.1,0.2-0.1,0.3-0.1,0.5v4.2L634.4,279z"/>
	<path class="st6" d="M644.4,279c-0.4,0-0.8-0.1-1.1-0.4c-0.2-0.3-0.4-0.7-0.4-1.1v-3.8h-2v-0.9h1.4c0.2,0,0.3,0,0.5-0.1
		c0.1-0.1,0.2-0.3,0.1-0.5v-1.6h1.1v2.2h2.7v0.9h-2.7v4.3h2.7v0.9L644.4,279z"/>
	<path class="st4" d="M348.8,279.1l-0.7-2.3h-2.8l-0.7,2.3h-1.2l2.5-8.4h1.6l2.5,8.4H348.8z M346.8,272h-0.1l-1.1,3.9h2.3L346.8,272
		z"/>
	<path class="st4" d="M354.2,279.3c-0.4,0-0.8-0.1-1.2-0.2c-0.3-0.1-0.7-0.4-0.9-0.7c-0.3-0.3-0.4-0.6-0.6-1c-0.3-0.9-0.3-1.8,0-2.7
		c0.1-0.4,0.3-0.7,0.6-1c0.2-0.3,0.6-0.5,0.9-0.7c0.4-0.2,0.8-0.2,1.2-0.2c0.5,0,1,0.1,1.5,0.4c0.4,0.3,0.7,0.6,0.8,1.1l-0.9,0.5
		c-0.1-0.3-0.3-0.5-0.5-0.7c-0.3-0.2-0.6-0.3-0.9-0.3c-0.5,0-0.9,0.2-1.2,0.5c-0.3,0.4-0.5,0.8-0.4,1.3v1c0,0.5,0.1,0.9,0.4,1.3
		c0.3,0.3,0.8,0.5,1.3,0.5c0.4,0,0.7-0.1,1-0.3c0.3-0.2,0.5-0.5,0.6-0.8l0.8,0.5c-0.2,0.4-0.5,0.8-0.9,1.1
		C355.2,279.2,354.7,279.3,354.2,279.3z"/>
	<path class="st4" d="M361.4,279.3c-0.4,0-0.8-0.1-1.2-0.2c-0.3-0.1-0.7-0.4-0.9-0.7c-0.3-0.3-0.4-0.6-0.6-1c-0.3-0.9-0.3-1.8,0-2.7
		c0.1-0.4,0.3-0.7,0.6-1c0.2-0.3,0.6-0.5,0.9-0.7c0.4-0.2,0.8-0.2,1.2-0.2c0.5,0,1,0.1,1.5,0.4c0.4,0.3,0.7,0.6,0.8,1.1l-0.9,0.5
		c-0.1-0.3-0.3-0.5-0.5-0.7c-0.3-0.2-0.6-0.3-0.9-0.3c-0.5,0-0.9,0.2-1.2,0.5c-0.3,0.4-0.5,0.8-0.4,1.3v1c0,0.5,0.1,0.9,0.4,1.3
		c0.3,0.3,0.8,0.5,1.3,0.5c0.4,0,0.7-0.1,1-0.3c0.3-0.2,0.5-0.5,0.6-0.8l0.8,0.5c-0.2,0.4-0.5,0.8-0.9,1.1
		C362.4,279.2,361.9,279.3,361.4,279.3z"/>
	<path class="st4" d="M368.3,279.3c-0.4,0-0.8-0.1-1.2-0.2c-0.3-0.1-0.7-0.4-0.9-0.6c-0.3-0.3-0.5-0.6-0.6-1c-0.3-0.9-0.3-1.8,0-2.7
		c0.1-0.4,0.3-0.7,0.6-1c0.2-0.3,0.6-0.5,0.9-0.6c0.8-0.3,1.6-0.3,2.4,0c0.3,0.1,0.7,0.4,0.9,0.6c0.3,0.3,0.5,0.6,0.6,1
		c0.3,0.9,0.3,1.8,0,2.7c-0.1,0.4-0.3,0.7-0.6,1c-0.2,0.3-0.6,0.5-0.9,0.6C369.1,279.2,368.7,279.3,368.3,279.3z M368.3,278.4
		c0.5,0,0.9-0.1,1.2-0.5c0.3-0.4,0.5-0.9,0.5-1.4v-0.9c0-0.5-0.1-1-0.5-1.4c-0.7-0.6-1.7-0.6-2.4,0c-0.3,0.4-0.5,0.9-0.5,1.4v0.9
		c0,0.5,0.1,1,0.5,1.4C367.4,278.2,367.9,278.4,368.3,278.4z"/>
	<path class="st4" d="M376.9,278.1L376.9,278.1c-0.1,0.2-0.2,0.3-0.3,0.5c-0.1,0.1-0.2,0.3-0.4,0.4c-0.2,0.1-0.3,0.2-0.5,0.3
		c-0.2,0.1-0.4,0.1-0.7,0.1c-0.6,0-1.1-0.2-1.5-0.6c-0.4-0.5-0.6-1.1-0.6-1.7v-4h1.1v3.8c0,1.1,0.5,1.6,1.4,1.6c0.2,0,0.4,0,0.5-0.1
		c0.2,0,0.3-0.1,0.5-0.2c0.1-0.1,0.2-0.2,0.3-0.4c0.1-0.2,0.1-0.3,0.1-0.5V273h1.1v6.2h-1.1L376.9,278.1z"/>
	<path class="st4" d="M380.2,279.1V273h1.1v1h0c0.1-0.2,0.1-0.3,0.2-0.4c0.2-0.3,0.5-0.5,0.9-0.6c0.2-0.1,0.4-0.1,0.7-0.1
		c0.6,0,1.1,0.2,1.5,0.6c0.4,0.5,0.6,1.1,0.6,1.7v4h-1.1v-3.8c0-1.1-0.5-1.6-1.4-1.6c-0.2,0-0.4,0-0.5,0.1c-0.2,0-0.3,0.1-0.5,0.2
		c-0.1,0.1-0.2,0.2-0.3,0.4c-0.1,0.2-0.1,0.3-0.1,0.5v4.2L380.2,279.1z"/>
	<path class="st4" d="M390.3,279.1c-0.4,0-0.8-0.1-1.1-0.4c-0.2-0.3-0.4-0.7-0.4-1.1v-3.8h-2V273h1.4c0.2,0,0.3,0,0.5-0.1
		c0.1-0.1,0.2-0.3,0.1-0.5v-1.6h1.1v2.2h2.7v0.9h-2.7v4.3h2.7v0.9L390.3,279.1z"/>
	<path class="st4" d="M343.1,276.5v-0.8h50.4v0.8L343.1,276.5z"/>
	<path class="st6" d="M392.5,203l-0.7-2.3H389l-0.7,2.3h-1.2l2.5-8.4h1.6l2.5,8.4H392.5z M390.5,195.8h-0.1l-1.1,3.9h2.3
		L390.5,195.8z"/>
	<path class="st6" d="M397.9,203.1c-0.4,0-0.8-0.1-1.2-0.2c-0.3-0.1-0.7-0.4-0.9-0.7c-0.3-0.3-0.4-0.6-0.6-1c-0.3-0.9-0.3-1.8,0-2.7
		c0.1-0.4,0.3-0.7,0.6-1c0.2-0.3,0.6-0.5,0.9-0.7c0.4-0.2,0.8-0.2,1.2-0.2c0.5,0,1,0.1,1.5,0.4c0.4,0.3,0.7,0.6,0.8,1.1l-0.9,0.5
		c-0.1-0.3-0.3-0.5-0.5-0.7c-0.3-0.2-0.6-0.3-0.9-0.3c-0.5,0-0.9,0.2-1.2,0.5c-0.3,0.4-0.5,0.8-0.4,1.3v1.1c0,0.5,0.1,0.9,0.4,1.3
		c0.3,0.3,0.8,0.5,1.3,0.5c0.4,0,0.7-0.1,1-0.3c0.3-0.2,0.5-0.5,0.6-0.8l0.8,0.5c-0.2,0.4-0.5,0.8-0.9,1.1
		C399,203,398.4,203.2,397.9,203.1z"/>
	<path class="st6" d="M405.1,203.1c-0.4,0-0.8-0.1-1.2-0.2c-0.3-0.1-0.7-0.4-0.9-0.7c-0.3-0.3-0.4-0.6-0.6-1c-0.3-0.9-0.3-1.8,0-2.7
		c0.1-0.4,0.3-0.7,0.6-1c0.2-0.3,0.6-0.5,0.9-0.7c0.4-0.2,0.8-0.2,1.2-0.2c0.5,0,1,0.1,1.5,0.4c0.4,0.3,0.7,0.6,0.8,1.1l-0.9,0.5
		c-0.1-0.3-0.3-0.5-0.5-0.7c-0.3-0.2-0.6-0.3-0.9-0.3c-0.5,0-0.9,0.2-1.2,0.5c-0.3,0.4-0.5,0.8-0.4,1.3v1.1c0,0.5,0.1,0.9,0.4,1.3
		c0.3,0.3,0.8,0.5,1.3,0.5c0.4,0,0.7-0.1,1-0.3c0.3-0.2,0.5-0.5,0.6-0.8l0.8,0.5c-0.2,0.4-0.5,0.8-0.9,1.1
		C406.2,203,405.6,203.2,405.1,203.1z"/>
	<path class="st6" d="M412.1,203.1c-0.4,0-0.8-0.1-1.2-0.2c-0.3-0.1-0.7-0.4-0.9-0.6c-0.3-0.3-0.5-0.6-0.6-1c-0.3-0.9-0.3-1.8,0-2.7
		c0.1-0.4,0.3-0.7,0.6-1c0.2-0.3,0.6-0.5,0.9-0.6c0.8-0.3,1.6-0.3,2.4,0c0.3,0.1,0.7,0.4,0.9,0.6c0.3,0.3,0.5,0.6,0.6,1
		c0.3,0.9,0.3,1.8,0,2.7c-0.1,0.4-0.3,0.7-0.6,1c-0.2,0.3-0.6,0.5-0.9,0.6C412.9,203.1,412.5,203.1,412.1,203.1z M412.1,202.2
		c0.5,0,0.9-0.1,1.2-0.5c0.3-0.4,0.5-0.9,0.5-1.4v-0.9c0-0.5-0.1-1-0.5-1.4c-0.7-0.6-1.7-0.6-2.4,0c-0.3,0.4-0.5,0.9-0.5,1.4v0.9
		c0,0.5,0.1,1,0.5,1.4C411.2,202.1,411.6,202.2,412.1,202.2z"/>
	<path class="st6" d="M420.7,202L420.7,202c-0.1,0.2-0.2,0.3-0.3,0.4c-0.1,0.1-0.2,0.3-0.4,0.4c-0.2,0.1-0.3,0.2-0.5,0.3
		c-0.2,0.1-0.4,0.1-0.7,0.1c-0.6,0-1.1-0.2-1.5-0.6c-0.4-0.5-0.6-1.1-0.6-1.7v-4h1.1v3.8c0,1.1,0.5,1.6,1.4,1.6c0.2,0,0.4,0,0.5-0.1
		c0.2,0,0.3-0.1,0.5-0.2c0.1-0.1,0.2-0.2,0.3-0.4c0.1-0.2,0.1-0.3,0.1-0.5v-4.2h1.1v6.2h-1.1L420.7,202z"/>
	<path class="st6" d="M424,203v-6.2h1.1v1h0c0.1-0.2,0.1-0.3,0.2-0.4c0.2-0.3,0.5-0.5,0.9-0.6c0.2-0.1,0.4-0.1,0.7-0.1
		c0.6,0,1.1,0.2,1.5,0.6c0.4,0.5,0.6,1.1,0.6,1.7v4h-1.1v-3.8c0-1.1-0.5-1.6-1.4-1.6c-0.2,0-0.4,0-0.5,0.1c-0.2,0-0.3,0.1-0.5,0.2
		c-0.1,0.1-0.2,0.2-0.3,0.4c-0.1,0.2-0.1,0.3-0.1,0.5v4.2H424z"/>
	<path class="st6" d="M434,203c-0.4,0-0.8-0.1-1.1-0.4c-0.2-0.3-0.4-0.7-0.4-1.1v-3.8h-2v-0.9h1.4c0.2,0,0.3,0,0.5-0.1
		c0.1-0.1,0.2-0.3,0.1-0.5v-1.6h1.1v2.2h2.7v0.9h-2.7v4.3h2.7v0.9H434z"/>
	<path class="st6" d="M451.3,203.7c0,0.6-0.3,1.1-0.8,1.4c-0.7,0.3-1.6,0.5-2.4,0.4c-0.4,0-0.9,0-1.3-0.1c-0.3,0-0.6-0.2-0.9-0.3
		c-0.2-0.1-0.4-0.3-0.5-0.5c-0.1-0.2-0.2-0.4-0.2-0.6c0-0.3,0.1-0.6,0.3-0.8c0.2-0.2,0.5-0.4,0.8-0.4v-0.1c-0.2-0.1-0.3-0.2-0.5-0.3
		c-0.1-0.2-0.2-0.3-0.2-0.5c0-0.3,0.1-0.5,0.3-0.7c0.2-0.2,0.5-0.3,0.8-0.4v-0.1c-0.4-0.2-0.7-0.4-0.9-0.7c-0.2-0.3-0.3-0.7-0.3-1.2
		c0-0.3,0.1-0.6,0.2-0.9c0.1-0.3,0.3-0.5,0.5-0.7c0.2-0.2,0.5-0.3,0.8-0.4c0.3-0.1,0.7-0.2,1-0.2c0.4,0,0.8,0.1,1.2,0.2v-0.2
		c0-0.2,0.1-0.4,0.2-0.6c0.2-0.2,0.4-0.3,0.6-0.2h1.1v0.9h-1.4v0.4c0.2,0.2,0.4,0.4,0.6,0.7c0.3,0.6,0.3,1.2,0,1.8
		c-0.1,0.3-0.3,0.5-0.5,0.7c-0.2,0.2-0.5,0.3-0.8,0.4c-0.3,0.1-0.7,0.2-1,0.2c-0.1,0-0.2,0-0.3,0c-0.1,0-0.2,0-0.3,0
		c-0.1,0-0.2,0.1-0.3,0.1c-0.1,0-0.2,0.1-0.3,0.1c-0.1,0.1-0.1,0.1-0.2,0.2c0,0.1-0.1,0.2-0.1,0.3c0,0.2,0.1,0.3,0.3,0.4
		c0.2,0.1,0.5,0.1,0.7,0.1h1.4c0.6-0.1,1.2,0.1,1.8,0.5C451.1,202.8,451.3,203.2,451.3,203.7z M450.2,203.8c0-0.2-0.1-0.4-0.3-0.5
		c-0.3-0.2-0.6-0.2-1-0.2h-2.1c-0.3,0.1-0.6,0.4-0.6,0.8c0,0.3,0.1,0.5,0.3,0.7c0.3,0.2,0.7,0.3,1,0.3h1c0.4,0,0.8-0.1,1.2-0.2
		C450,204.3,450.2,204.1,450.2,203.8L450.2,203.8z M448,200.1c0.4,0,0.7-0.1,1-0.3c0.2-0.2,0.3-0.5,0.3-0.8v-0.3
		c0-0.3-0.1-0.6-0.3-0.8c-0.3-0.2-0.6-0.3-1-0.3c-0.4,0-0.7,0.1-1,0.3c-0.2,0.2-0.3,0.5-0.3,0.8v0.3c0,0.3,0.1,0.6,0.3,0.8
		C447.3,200.1,447.7,200.2,448,200.1L448,200.1z"/>
	<path class="st6" d="M452.6,202.1h1.7v-4.3h-1.7v-0.9h2.9v1.6h0.1c0.1-0.5,0.4-0.9,0.7-1.2c0.4-0.3,0.9-0.4,1.4-0.4h0.8v1.1h-1.2
		c-0.5,0-0.9,0.1-1.3,0.5c-0.3,0.3-0.5,0.7-0.5,1.2v2.5h2.3v0.9h-5.2L452.6,202.1z"/>
	<path class="st6" d="M462.5,203.1c-0.4,0-0.8-0.1-1.2-0.2c-0.3-0.1-0.7-0.4-0.9-0.6c-0.3-0.3-0.5-0.6-0.6-1c-0.3-0.9-0.3-1.8,0-2.7
		c0.1-0.4,0.3-0.7,0.6-1c0.2-0.3,0.6-0.5,0.9-0.6c0.8-0.3,1.6-0.3,2.4,0c0.3,0.1,0.7,0.4,0.9,0.6c0.3,0.3,0.5,0.6,0.6,1
		c0.3,0.9,0.3,1.8,0,2.7c-0.1,0.4-0.3,0.7-0.6,1c-0.2,0.3-0.6,0.5-0.9,0.6C463.3,203.1,462.9,203.1,462.5,203.1z M462.5,202.2
		c0.5,0,0.9-0.1,1.2-0.5c0.3-0.4,0.5-0.9,0.5-1.4v-0.9c0-0.5-0.1-1-0.5-1.4c-0.7-0.6-1.7-0.6-2.4,0c-0.3,0.4-0.5,0.9-0.5,1.4v0.9
		c0,0.5,0.1,1,0.5,1.4C461.6,202.1,462,202.2,462.5,202.2z"/>
	<path class="st6" d="M471.1,202L471.1,202c-0.1,0.2-0.2,0.3-0.3,0.4c-0.1,0.1-0.2,0.3-0.4,0.4c-0.2,0.1-0.3,0.2-0.5,0.3
		c-0.2,0.1-0.4,0.1-0.7,0.1c-0.6,0-1.1-0.2-1.5-0.6c-0.4-0.5-0.6-1.1-0.6-1.7v-4h1.1v3.8c0,1.1,0.5,1.6,1.4,1.6c0.2,0,0.4,0,0.5-0.1
		c0.2,0,0.3-0.1,0.5-0.2c0.1-0.1,0.2-0.2,0.3-0.4c0.1-0.2,0.1-0.3,0.1-0.5v-4.2h1.1v6.2h-1.1L471.1,202z"/>
	<path class="st6" d="M474.3,196.8h1.1v1h0.1c0.6-1.1,1.9-1.5,2.9-0.9c0.3,0.1,0.5,0.3,0.7,0.6c0.9,1.5,0.9,3.3,0,4.8
		c-0.7,0.9-1.9,1.1-2.9,0.5c-0.3-0.2-0.6-0.5-0.7-0.9h-0.1v3.4h-1.1V196.8z M476.9,202.2c0.5,0,0.9-0.2,1.2-0.5
		c0.3-0.4,0.5-0.8,0.4-1.3v-1c0-0.5-0.1-0.9-0.4-1.3c-0.3-0.3-0.8-0.5-1.2-0.5c-0.2,0-0.4,0-0.6,0.1c-0.2,0-0.3,0.1-0.5,0.2
		c-0.1,0.1-0.2,0.2-0.3,0.4c-0.1,0.2-0.1,0.3-0.1,0.5v2.2c0,0.2,0,0.4,0.1,0.5c0.1,0.2,0.2,0.3,0.3,0.4c0.1,0.1,0.3,0.2,0.5,0.2
		C476.6,202.2,476.8,202.2,476.9,202.2L476.9,202.2z"/>
	<path class="st6" d="M581.7,203l-0.7-2.3h-2.8l-0.7,2.3h-1.2l2.5-8.4h1.6l2.5,8.4H581.7z M579.7,195.8h-0.1l-1.1,3.9h2.3
		L579.7,195.8z"/>
	<path class="st6" d="M587.1,203.1c-0.4,0-0.8-0.1-1.2-0.2c-0.3-0.1-0.7-0.4-0.9-0.7c-0.3-0.3-0.4-0.6-0.6-1c-0.3-0.9-0.3-1.8,0-2.7
		c0.1-0.4,0.3-0.7,0.6-1c0.2-0.3,0.6-0.5,0.9-0.7c0.4-0.2,0.8-0.2,1.2-0.2c0.5,0,1,0.1,1.5,0.4c0.4,0.3,0.7,0.6,0.8,1.1l-0.9,0.5
		c-0.1-0.3-0.3-0.5-0.5-0.7c-0.3-0.2-0.6-0.3-0.9-0.3c-0.5,0-0.9,0.2-1.2,0.5c-0.3,0.4-0.5,0.8-0.4,1.3v1.1c0,0.5,0.1,0.9,0.4,1.3
		c0.3,0.3,0.8,0.5,1.3,0.5c0.4,0,0.7-0.1,1-0.3c0.3-0.2,0.5-0.5,0.6-0.8l0.8,0.5c-0.2,0.4-0.5,0.8-0.9,1.1
		C588.1,203,587.6,203.2,587.1,203.1z"/>
	<path class="st6" d="M594.3,203.1c-0.4,0-0.8-0.1-1.2-0.2c-0.3-0.1-0.7-0.4-0.9-0.7c-0.3-0.3-0.4-0.6-0.6-1c-0.3-0.9-0.3-1.8,0-2.7
		c0.1-0.4,0.3-0.7,0.6-1c0.2-0.3,0.6-0.5,0.9-0.7c0.4-0.2,0.8-0.2,1.2-0.2c0.5,0,1,0.1,1.5,0.4c0.4,0.3,0.7,0.6,0.8,1.1l-0.9,0.5
		c-0.1-0.3-0.3-0.5-0.5-0.7c-0.3-0.2-0.6-0.3-0.9-0.3c-0.5,0-0.9,0.2-1.2,0.5c-0.3,0.4-0.5,0.8-0.4,1.3v1.1c0,0.5,0.1,0.9,0.4,1.3
		c0.3,0.3,0.8,0.5,1.3,0.5c0.4,0,0.7-0.1,1-0.3c0.3-0.2,0.5-0.5,0.6-0.8l0.8,0.5c-0.2,0.4-0.5,0.8-0.9,1.1
		C595.3,203,594.8,203.2,594.3,203.1z"/>
	<path class="st6" d="M601.2,203.1c-0.4,0-0.8-0.1-1.2-0.2c-0.3-0.1-0.7-0.4-0.9-0.6c-0.3-0.3-0.5-0.6-0.6-1c-0.3-0.9-0.3-1.8,0-2.7
		c0.1-0.4,0.3-0.7,0.6-1c0.2-0.3,0.6-0.5,0.9-0.6c0.8-0.3,1.6-0.3,2.4,0c0.3,0.1,0.7,0.4,0.9,0.6c0.3,0.3,0.5,0.6,0.6,1
		c0.3,0.9,0.3,1.8,0,2.7c-0.1,0.4-0.3,0.7-0.6,1c-0.2,0.3-0.6,0.5-0.9,0.6C602,203.1,601.6,203.1,601.2,203.1z M601.2,202.2
		c0.5,0,0.9-0.1,1.2-0.5c0.3-0.4,0.5-0.9,0.5-1.4v-0.9c0-0.5-0.1-1-0.5-1.4c-0.7-0.6-1.7-0.6-2.4,0c-0.3,0.4-0.5,0.9-0.5,1.4v0.9
		c0,0.5,0.1,1,0.5,1.4C600.3,202.1,600.8,202.2,601.2,202.2z"/>
	<path class="st6" d="M609.8,202L609.8,202c-0.1,0.2-0.2,0.3-0.3,0.4c-0.1,0.1-0.2,0.3-0.4,0.4c-0.2,0.1-0.3,0.2-0.5,0.3
		c-0.2,0.1-0.4,0.1-0.7,0.1c-0.6,0-1.1-0.2-1.5-0.6c-0.4-0.5-0.6-1.1-0.6-1.7v-4h1.1v3.8c0,1.1,0.5,1.6,1.4,1.6c0.2,0,0.4,0,0.5-0.1
		c0.2,0,0.3-0.1,0.5-0.2c0.1-0.1,0.2-0.2,0.3-0.4c0.1-0.2,0.1-0.3,0.1-0.5v-4.2h1.1v6.2h-1.1L609.8,202z"/>
	<path class="st6" d="M613.1,203v-6.2h1.1v1h0c0.1-0.2,0.1-0.3,0.2-0.4c0.2-0.3,0.5-0.5,0.9-0.6c0.2-0.1,0.4-0.1,0.7-0.1
		c0.6,0,1.1,0.2,1.5,0.6c0.4,0.5,0.6,1.1,0.6,1.7v4h-1.1v-3.8c0-1.1-0.5-1.6-1.4-1.6c-0.2,0-0.4,0-0.5,0.1c-0.2,0-0.3,0.1-0.5,0.2
		c-0.1,0.1-0.2,0.2-0.3,0.4c-0.1,0.2-0.1,0.3-0.1,0.5v4.2H613.1z"/>
	<path class="st6" d="M623.2,203c-0.4,0-0.8-0.1-1.1-0.4c-0.2-0.3-0.4-0.7-0.4-1.1v-3.8h-2v-0.9h1.4c0.2,0,0.3,0,0.5-0.1
		c0.1-0.1,0.2-0.3,0.1-0.5v-1.6h1.1v2.2h2.7v0.9h-2.7v4.3h2.7v0.9H623.2z"/>
	<path class="st6" d="M640.4,203.7c0,0.6-0.3,1.1-0.8,1.4c-0.7,0.3-1.6,0.5-2.4,0.4c-0.4,0-0.9,0-1.3-0.1c-0.3,0-0.6-0.2-0.9-0.3
		c-0.2-0.1-0.4-0.3-0.5-0.5c-0.1-0.2-0.2-0.4-0.2-0.6c0-0.3,0.1-0.6,0.3-0.8c0.2-0.2,0.5-0.4,0.8-0.4v-0.1c-0.2-0.1-0.3-0.2-0.4-0.3
		c-0.1-0.2-0.2-0.3-0.2-0.5c0-0.3,0.1-0.5,0.3-0.7c0.2-0.2,0.5-0.3,0.8-0.4v-0.1c-0.4-0.2-0.7-0.4-0.9-0.7c-0.2-0.3-0.3-0.8-0.3-1.2
		c0-0.3,0.1-0.6,0.2-0.9c0.1-0.3,0.3-0.5,0.5-0.7c0.2-0.2,0.5-0.3,0.8-0.4c0.3-0.1,0.7-0.2,1-0.2c0.4,0,0.8,0.1,1.2,0.2v-0.2
		c0-0.2,0.1-0.4,0.2-0.6c0.2-0.2,0.4-0.3,0.6-0.2h1.1v0.9h-1.4v0.4c0.2,0.2,0.4,0.4,0.6,0.7c0.3,0.6,0.3,1.2,0,1.8
		c-0.1,0.3-0.3,0.5-0.5,0.7c-0.2,0.2-0.5,0.3-0.8,0.4c-0.3,0.1-0.7,0.2-1,0.2c-0.1,0-0.2,0-0.3,0c-0.1,0-0.2,0-0.3,0
		c-0.1,0-0.2,0.1-0.3,0.1c-0.1,0-0.2,0.1-0.3,0.1c-0.1,0.1-0.1,0.1-0.2,0.2c0,0.1-0.1,0.2-0.1,0.3c0,0.2,0.1,0.3,0.3,0.4
		c0.2,0.1,0.5,0.1,0.7,0.1h1.4c0.6-0.1,1.2,0.1,1.8,0.5C640.2,202.8,640.4,203.2,640.4,203.7z M639.4,203.8c0-0.2-0.1-0.4-0.3-0.5
		c-0.3-0.2-0.6-0.2-1-0.2H636c-0.3,0.1-0.6,0.4-0.6,0.8c0,0.3,0.1,0.5,0.3,0.7c0.3,0.2,0.7,0.3,1,0.3h1c0.4,0,0.8-0.1,1.2-0.2
		C639.2,204.3,639.4,204.1,639.4,203.8L639.4,203.8z M637.2,200.1c0.4,0,0.7-0.1,1-0.3c0.2-0.2,0.3-0.5,0.3-0.8v-0.3
		c0-0.3-0.1-0.6-0.3-0.8c-0.3-0.2-0.6-0.3-1-0.3c-0.4,0-0.7,0.1-1,0.3c-0.2,0.2-0.3,0.5-0.3,0.8v0.3c0,0.3,0.1,0.6,0.3,0.8
		C636.5,200.1,636.8,200.2,637.2,200.1L637.2,200.1z"/>
	<path class="st6" d="M641.7,202.1h1.7v-4.3h-1.7v-0.9h2.9v1.6h0.1c0.1-0.5,0.4-0.9,0.7-1.2c0.4-0.3,0.9-0.4,1.3-0.4h0.8v1.1h-1.2
		c-0.5,0-0.9,0.1-1.3,0.5c-0.3,0.3-0.5,0.7-0.5,1.2v2.5h2.3v0.9h-5.2L641.7,202.1z"/>
	<path class="st6" d="M651.6,203.1c-0.4,0-0.8-0.1-1.2-0.2c-0.3-0.1-0.7-0.4-0.9-0.6c-0.3-0.3-0.5-0.6-0.6-1c-0.3-0.9-0.3-1.8,0-2.7
		c0.1-0.4,0.3-0.7,0.6-1c0.2-0.3,0.6-0.5,0.9-0.6c0.8-0.3,1.6-0.3,2.4,0c0.3,0.1,0.7,0.4,0.9,0.6c0.3,0.3,0.5,0.6,0.6,1
		c0.3,0.9,0.3,1.8,0,2.7c-0.1,0.4-0.3,0.7-0.6,1c-0.2,0.3-0.6,0.5-0.9,0.6C652.4,203.1,652,203.1,651.6,203.1z M651.6,202.2
		c0.5,0,0.9-0.1,1.2-0.5c0.3-0.4,0.5-0.9,0.5-1.4v-0.9c0-0.5-0.1-1-0.5-1.4c-0.7-0.6-1.7-0.6-2.4,0c-0.3,0.4-0.5,0.9-0.5,1.4v0.9
		c0,0.5,0.1,1,0.5,1.4C650.7,202.1,651.2,202.2,651.6,202.2z"/>
	<path class="st6" d="M660.2,202L660.2,202c-0.1,0.2-0.2,0.3-0.3,0.4c-0.1,0.1-0.2,0.3-0.4,0.4c-0.2,0.1-0.3,0.2-0.5,0.3
		c-0.2,0.1-0.4,0.1-0.7,0.1c-0.6,0-1.1-0.2-1.5-0.6c-0.4-0.5-0.6-1.1-0.6-1.7v-4h1.1v3.8c0,1.1,0.5,1.6,1.4,1.6c0.2,0,0.4,0,0.5-0.1
		c0.2,0,0.3-0.1,0.5-0.2c0.1-0.1,0.2-0.2,0.3-0.4c0.1-0.2,0.1-0.3,0.1-0.5v-4.2h1.1v6.2h-1.1L660.2,202z"/>
	<path class="st6" d="M663.5,196.8h1.1v1h0.1c0.6-1.1,1.9-1.5,2.9-0.9c0.3,0.1,0.5,0.3,0.7,0.6c0.9,1.5,0.9,3.3,0,4.8
		c-0.7,1-2,1.2-2.9,0.5c-0.3-0.2-0.6-0.5-0.7-0.9h-0.1v3.4h-1.1V196.8z M666.1,202.2c0.5,0,0.9-0.2,1.2-0.5c0.3-0.4,0.5-0.8,0.4-1.3
		v-1c0-0.5-0.1-0.9-0.4-1.3c-0.3-0.3-0.8-0.5-1.2-0.5c-0.2,0-0.4,0-0.6,0.1c-0.2,0-0.3,0.1-0.5,0.2c-0.1,0.1-0.2,0.2-0.3,0.4
		c-0.1,0.2-0.1,0.3-0.1,0.5v2.2c0,0.2,0,0.4,0.1,0.5c0.1,0.2,0.2,0.3,0.3,0.4c0.1,0.1,0.3,0.2,0.5,0.2
		C665.7,202.2,665.9,202.2,666.1,202.2L666.1,202.2z"/>
	<path class="st6" d="M764.9,126.8l-0.7-2.3h-2.8l-0.7,2.3h-1.2l2.5-8.4h1.6l2.5,8.4H764.9z M762.9,119.6h-0.1l-1.1,3.9h2.3
		L762.9,119.6z"/>
	<path class="st6" d="M770.3,127c-0.4,0-0.8-0.1-1.2-0.2c-0.3-0.1-0.7-0.4-0.9-0.7c-0.3-0.3-0.4-0.6-0.6-1c-0.3-0.9-0.3-1.8,0-2.7
		c0.1-0.4,0.3-0.7,0.6-1c0.2-0.3,0.6-0.5,0.9-0.7c0.4-0.2,0.8-0.2,1.2-0.2c0.5,0,1,0.1,1.5,0.4c0.4,0.3,0.7,0.6,0.8,1.1l-0.9,0.5
		c-0.1-0.3-0.3-0.5-0.5-0.7c-0.3-0.2-0.6-0.3-0.9-0.3c-0.5,0-0.9,0.2-1.2,0.5c-0.3,0.4-0.5,0.8-0.4,1.3v1.1c0,0.5,0.1,0.9,0.4,1.3
		c0.3,0.3,0.8,0.5,1.3,0.5c0.4,0,0.7-0.1,1-0.3c0.3-0.2,0.5-0.5,0.6-0.8l0.8,0.5c-0.2,0.4-0.5,0.8-0.9,1.1
		C771.4,126.8,770.8,127,770.3,127z"/>
	<path class="st6" d="M777.5,127c-0.4,0-0.8-0.1-1.2-0.2c-0.3-0.1-0.7-0.4-0.9-0.7c-0.3-0.3-0.4-0.6-0.6-1c-0.3-0.9-0.3-1.8,0-2.7
		c0.1-0.4,0.3-0.7,0.6-1c0.2-0.3,0.6-0.5,0.9-0.7c0.4-0.2,0.8-0.2,1.2-0.2c0.5,0,1,0.1,1.5,0.4c0.4,0.3,0.7,0.6,0.8,1.1l-0.9,0.5
		c-0.1-0.3-0.3-0.5-0.5-0.7c-0.7-0.4-1.6-0.3-2.2,0.2c-0.3,0.4-0.5,0.8-0.4,1.3v1.1c0,0.5,0.1,0.9,0.4,1.3c0.3,0.3,0.8,0.5,1.3,0.5
		c0.4,0,0.7-0.1,1-0.3c0.3-0.2,0.5-0.5,0.6-0.8l0.8,0.5c-0.2,0.4-0.5,0.8-0.9,1.1C778.6,126.8,778,127,777.5,127z"/>
	<path class="st6" d="M784.4,127c-0.4,0-0.8-0.1-1.2-0.2c-0.3-0.1-0.7-0.4-0.9-0.6c-0.3-0.3-0.5-0.6-0.6-1c-0.3-0.9-0.3-1.8,0-2.7
		c0.1-0.4,0.3-0.7,0.6-1c0.2-0.3,0.6-0.5,0.9-0.6c0.8-0.3,1.6-0.3,2.4,0c0.3,0.1,0.7,0.4,0.9,0.6c0.3,0.3,0.5,0.6,0.6,1
		c0.3,0.9,0.3,1.8,0,2.7c-0.1,0.4-0.3,0.7-0.6,1c-0.2,0.3-0.6,0.5-0.9,0.6C785.3,126.9,784.9,127,784.4,127z M784.4,126
		c0.5,0,0.9-0.1,1.2-0.5c0.3-0.4,0.5-0.9,0.5-1.4v-0.9c0-0.5-0.1-1-0.5-1.4c-0.7-0.6-1.7-0.6-2.4,0c-0.3,0.4-0.5,0.9-0.5,1.4v0.9
		c0,0.5,0.1,1,0.5,1.4C783.5,125.9,784,126,784.4,126z"/>
	<path class="st6" d="M793,125.8L793,125.8c-0.1,0.2-0.2,0.3-0.3,0.4c-0.1,0.1-0.2,0.3-0.4,0.4c-0.2,0.1-0.3,0.2-0.5,0.3
		c-0.2,0.1-0.4,0.1-0.7,0.1c-0.6,0-1.1-0.2-1.5-0.6c-0.4-0.5-0.6-1.1-0.6-1.7v-4h1.1v3.8c0,1.1,0.5,1.6,1.4,1.6c0.2,0,0.4,0,0.5-0.1
		c0.2,0,0.3-0.1,0.5-0.2c0.1-0.1,0.2-0.2,0.3-0.4c0.1-0.2,0.1-0.3,0.1-0.5v-4.2h1.1v6.2H793L793,125.8z"/>
	<path class="st6" d="M796.4,126.8v-6.2h1.1v1h0c0.1-0.2,0.1-0.3,0.2-0.4c0.1-0.1,0.2-0.3,0.4-0.4c0.2-0.1,0.3-0.2,0.5-0.3
		c0.2-0.1,0.4-0.1,0.7-0.1c0.6,0,1.1,0.2,1.5,0.6c0.4,0.5,0.6,1.1,0.6,1.7v4h-1.1V123c0-1.1-0.5-1.6-1.4-1.6c-0.2,0-0.4,0-0.5,0.1
		c-0.2,0-0.3,0.1-0.5,0.2c-0.1,0.1-0.2,0.2-0.3,0.4c-0.1,0.2-0.1,0.3-0.1,0.5v4.2L796.4,126.8z"/>
	<path class="st6" d="M806.4,126.8c-0.4,0-0.8-0.1-1.1-0.4c-0.2-0.3-0.4-0.7-0.4-1.1v-3.8h-2v-0.9h1.4c0.2,0,0.3,0,0.5-0.1
		c0.1-0.1,0.2-0.3,0.1-0.5v-1.6h1.1v2.2h2.7v0.9H806v4.3h2.7v0.9L806.4,126.8z"/>
</g>
</svg>
