<?xml version="1.0" encoding="utf-8"?>
<!-- Generator: Adobe Illustrator 26.0.1, SVG Export Plug-In . SVG Version: 6.00 Build 0)  -->
<svg version="1.1" xmlns="http://www.w3.org/2000/svg" xmlns:xlink="http://www.w3.org/1999/xlink" x="0px" y="0px"
	 viewBox="0 0 1056 430" style="enable-background:new 0 0 1056 430;" xml:space="preserve">
<style type="text/css">
	.st0{fill-rule:evenodd;clip-rule:evenodd;fill:#F0F0F0;}
	.st1{fill-rule:evenodd;clip-rule:evenodd;fill:#FFFFFF;}
	.st2{fill:#0530AD;}
	.st3{fill:#A66EFA;}
	.st4{fill:#6F6F6F;}
	.st5{fill:#009C98;}
	.st6{fill:#004548;}
	.st7{fill:#565656;}
	.st8{fill:#0DB5B3;}
	.st9{fill:#0F62FE;}
	.st10{font-family:'IBMPlexMono-Text';}
	.st11{font-size:12px;}
</style>
<g id="Graphics">
	<g id="_x34_-tier-hierarchy">
		<rect id="Rectangle" x="160" y="17" class="st0" width="704" height="60"/>
		<rect id="Rectangle_1_" x="160" y="92" class="st0" width="704" height="60"/>
		<rect id="Rectangle_2_" x="160" y="167" class="st0" width="704" height="60"/>
		<rect id="Rectangle_3_" x="160" y="242" class="st0" width="704" height="60"/>
		<g id="Group" transform="translate(192.000000, 29.000000)">
			<path id="Rectangle_4_" class="st1" d="M268,0h136c6.6,0,12,5.4,12,12v12c0,6.6-5.4,12-12,12H268c-6.6,0-12-5.4-12-12V12
				C256,5.4,261.4,0,268,0z"/>
			<path id="Rectangle_5_" class="st1" d="M268,76h136c6.6,0,12,5.4,12,12v12c0,6.6-5.4,12-12,12H268c-6.6,0-12-5.4-12-12V88
				C256,81.4,261.4,76,268,76z"/>
			<path id="Rectangle_6_" class="st1" d="M140,228h72c6.6,0,12,5.4,12,12v12c0,6.6-5.4,12-12,12h-72c-6.6,0-12-5.4-12-12v-12
				C128,233.4,133.4,228,140,228z"/>
			<path id="Rectangle_7_" class="st1" d="M268,228h72c6.6,0,12,5.4,12,12v12c0,6.6-5.4,12-12,12h-72c-6.6,0-12-5.4-12-12v-12
				C256,233.4,261.4,228,268,228z"/>
			<path id="Rectangle_8_" class="st1" d="M396,228h72c6.6,0,12,5.4,12,12v12c0,6.6-5.4,12-12,12h-72c-6.6,0-12-5.4-12-12v-12
				C384,233.4,389.4,228,396,228z"/>
			<path id="Rectangle_9_" class="st1" d="M556,76h72c6.6,0,12,5.4,12,12v12c0,6.6-5.4,12-12,12h-72c-6.6,0-12-5.4-12-12V88
				C544,81.4,549.4,76,556,76z"/>
			<path id="Rectangle_10_" class="st1" d="M364,152h136c6.6,0,12,5.4,12,12v12c0,6.6-5.4,12-12,12H364c-6.6,0-12-5.4-12-12v-12
				C352,157.4,357.4,152,364,152z"/>
			<path id="Rectangle_11_" class="st1" d="M12,76h136c6.6,0,12,5.4,12,12v12c0,6.6-5.4,12-12,12H12c-6.6,0-12-5.4-12-12V88
				C0,81.4,5.4,76,12,76z"/>
			<path id="Rectangle_12_" class="st1" d="M172,152h136c6.6,0,12,5.4,12,12v12c0,6.6-5.4,12-12,12H172c-6.6,0-12-5.4-12-12v-12
				C160,157.4,165.4,152,172,152z"/>
			<path id="Rectangle_13_" class="st1" d="M44,152h72c6.6,0,12,5.4,12,12v12c0,6.6-5.4,12-12,12H44c-6.6,0-12-5.4-12-12v-12
				C32,157.4,37.4,152,44,152z"/>
		</g>
		<path id="Rectangle_14_" class="st2" d="M460,29h136c6.6,0,12,5.4,12,12v12c0,6.6-5.4,12-12,12H460c-6.6,0-12-5.4-12-12V41
			C448,34.4,453.4,29,460,29z M460,30c-6.1,0-11,4.9-11,11v12c0,6.1,4.9,11,11,11h136c6.1,0,11-4.9,11-11V41c0-6.1-4.9-11-11-11H460
			z"/>
		<path id="Rectangle_15_" class="st3" d="M460,105h136c6.6,0,12,5.4,12,12v12c0,6.6-5.4,12-12,12H460c-6.6,0-12-5.4-12-12v-12
			C448,110.4,453.4,105,460,105z M460,106c-6.1,0-11,4.9-11,11v12c0,6.1,4.9,11,11,11h136c6.1,0,11-4.9,11-11v-12
			c0-6.1-4.9-11-11-11H460z"/>
		<path id="Rectangle_16_" class="st4" d="M332,257h72c6.6,0,12,5.4,12,12v12c0,6.6-5.4,12-12,12h-72c-6.6,0-12-5.4-12-12v-12
			C320,262.4,325.4,257,332,257z M332,258c-6.1,0-11,4.9-11,11v12c0,6.1,4.9,11,11,11h72c6.1,0,11-4.9,11-11v-12c0-6.1-4.9-11-11-11
			H332z"/>
		<path id="Rectangle_17_" class="st5" d="M460,257h72c6.6,0,12,5.4,12,12v12c0,6.6-5.4,12-12,12h-72c-6.6,0-12-5.4-12-12v-12
			C448,262.4,453.4,257,460,257z M460,258c-6.1,0-11,4.9-11,11v12c0,6.1,4.9,11,11,11h72c6.1,0,11-4.9,11-11v-12c0-6.1-4.9-11-11-11
			H460z"/>
		<path id="Rectangle_18_" class="st5" d="M588,257h72c6.6,0,12,5.4,12,12v12c0,6.6-5.4,12-12,12h-72c-6.6,0-12-5.4-12-12v-12
			C576,262.4,581.4,257,588,257z M588,258c-6.1,0-11,4.9-11,11v12c0,6.1,4.9,11,11,11h72c6.1,0,11-4.9,11-11v-12c0-6.1-4.9-11-11-11
			H588z"/>
		<path id="Rectangle_19_" class="st5" d="M748,105h72c6.6,0,12,5.4,12,12v12c0,6.6-5.4,12-12,12h-72c-6.6,0-12-5.4-12-12v-12
			C736,110.4,741.4,105,748,105z M748,106c-6.1,0-11,4.9-11,11v12c0,6.1,4.9,11,11,11h72c6.1,0,11-4.9,11-11v-12c0-6.1-4.9-11-11-11
			H748z"/>
		<path id="Rectangle_20_" class="st3" d="M556,181h136c6.6,0,12,5.4,12,12v12c0,6.6-5.4,12-12,12H556c-6.6,0-12-5.4-12-12v-12
			C544,186.4,549.4,181,556,181z M556,182c-6.1,0-11,4.9-11,11v12c0,6.1,4.9,11,11,11h136c6.1,0,11-4.9,11-11v-12
			c0-6.1-4.9-11-11-11H556z"/>
		<path id="Rectangle_21_" class="st4" d="M204,105h136c6.6,0,12,5.4,12,12v12c0,6.6-5.4,12-12,12H204c-6.6,0-12-5.4-12-12v-12
			C192,110.4,197.4,105,204,105z M204,106c-6.1,0-11,4.9-11,11v12c0,6.1,4.9,11,11,11h136c6.1,0,11-4.9,11-11v-12
			c0-6.1-4.9-11-11-11H204z"/>
		<path id="Rectangle_22_" class="st3" d="M364,181h136c6.6,0,12,5.4,12,12v12c0,6.6-5.4,12-12,12H364c-6.6,0-12-5.4-12-12v-12
			C352,186.4,357.4,181,364,181z M364,182c-6.1,0-11,4.9-11,11v12c0,6.1,4.9,11,11,11h136c6.1,0,11-4.9,11-11v-12
			c0-6.1-4.9-11-11-11H364z"/>
		<path id="Rectangle_23_" class="st4" d="M236,181h72c6.6,0,12,5.4,12,12v12c0,6.6-5.4,12-12,12h-72c-6.6,0-12-5.4-12-12v-12
			C224,186.4,229.4,181,236,181z M236,182c-6.1,0-11,4.9-11,11v12c0,6.1,4.9,11,11,11h72c6.1,0,11-4.9,11-11v-12c0-6.1-4.9-11-11-11
			H236z"/>
		<polygon id="_x31_" class="st6" points="129.9,55 129.9,52 134.4,52 134.4,40.9 130.3,43.1 128.9,40.4 134.1,37.5 138.1,37.5 
			138.1,52 142.1,52 142.1,55 		"/>
		<path id="_x32_" class="st6" d="M141.9,130h-12.6v-3.4l5.5-4.6c0.9-0.8,1.6-1.5,2.1-2.1s0.6-1.2,0.6-1.9v-0.2
			c0-0.7-0.2-1.3-0.6-1.7c-0.4-0.4-1-0.6-1.8-0.6c-0.8,0-1.5,0.2-1.9,0.7c-0.4,0.5-0.8,1.1-0.9,1.7l-3.3-1.2
			c0.2-0.6,0.5-1.2,0.8-1.7c0.4-0.5,0.8-1,1.3-1.4c0.5-0.4,1.2-0.7,1.9-1c0.7-0.2,1.5-0.4,2.5-0.4c0.9,0,1.8,0.1,2.5,0.4
			c0.8,0.3,1.4,0.6,1.9,1.1c0.5,0.5,0.9,1,1.2,1.7c0.3,0.6,0.4,1.3,0.4,2.1c0,0.7-0.1,1.4-0.4,2s-0.6,1.2-1,1.7
			c-0.4,0.5-0.9,1.1-1.5,1.6s-1.2,1-1.8,1.5l-3.3,2.6h8.4V130z"/>
		<path id="_x33_" class="st6" d="M134.8,194.4c1,0,1.7-0.2,2.1-0.6c0.4-0.4,0.7-0.8,0.7-1.3v-0.2c0-0.6-0.2-1.1-0.6-1.5
			s-1-0.6-1.8-0.6c-0.7,0-1.4,0.2-2,0.5c-0.6,0.4-1.2,0.9-1.6,1.5l-2.4-2.2c0.3-0.4,0.7-0.8,1.1-1.2c0.4-0.4,0.8-0.7,1.3-0.9
			c0.5-0.3,1-0.5,1.6-0.6c0.6-0.1,1.3-0.2,2.1-0.2c0.9,0,1.8,0.1,2.6,0.3c0.8,0.2,1.4,0.5,2,0.9c0.5,0.4,1,0.9,1.3,1.5
			c0.3,0.6,0.4,1.2,0.4,1.9c0,0.6-0.1,1.1-0.3,1.5s-0.4,0.8-0.7,1.2c-0.3,0.3-0.7,0.6-1.1,0.8c-0.4,0.2-0.8,0.4-1.3,0.4v0.1
			c1.1,0.2,2,0.6,2.7,1.3s1.1,1.7,1.1,2.9c0,0.8-0.2,1.5-0.5,2.1c-0.3,0.6-0.8,1.2-1.4,1.6c-0.6,0.5-1.3,0.8-2.1,1
			c-0.8,0.2-1.8,0.4-2.8,0.4c-0.9,0-1.7-0.1-2.3-0.3c-0.7-0.2-1.3-0.4-1.8-0.7c-0.5-0.3-1-0.7-1.3-1.1c-0.4-0.4-0.7-0.8-1-1.3
			l2.8-2.1c0.4,0.7,0.9,1.3,1.4,1.8c0.6,0.5,1.3,0.7,2.3,0.7c0.9,0,1.6-0.2,2.1-0.6s0.7-1,0.7-1.7v-0.2c0-0.7-0.3-1.3-0.8-1.6
			c-0.6-0.4-1.3-0.5-2.3-0.5h-1.6v-3.1H134.8z"/>
		<path id="_x34_" class="st6" d="M136.5,280v-3.4h-7.9v-3.2l6.9-10.9h4.5v11.2h2.2v2.9h-2.2v3.4H136.5z M131.6,273.8h4.8v-7.3h-0.2
			L131.6,273.8z"/>
		<g>
			<path class="st6" d="M141.1,342.5h-8.2l-0.4,5.7h0.2c0.2-0.4,0.4-0.8,0.6-1.2c0.2-0.4,0.5-0.7,0.8-0.9c0.3-0.3,0.6-0.4,1.1-0.6
				s0.9-0.2,1.5-0.2c0.8,0,1.5,0.1,2.2,0.4c0.7,0.3,1.3,0.6,1.8,1.1c0.5,0.5,0.9,1.1,1.2,1.8c0.3,0.7,0.4,1.5,0.4,2.4
				c0,0.9-0.2,1.8-0.5,2.6c-0.3,0.8-0.8,1.5-1.4,2c-0.6,0.6-1.3,1-2.2,1.3c-0.9,0.3-1.9,0.5-3,0.5c-0.9,0-1.7-0.1-2.3-0.3
				c-0.7-0.2-1.3-0.4-1.8-0.8c-0.5-0.3-1-0.7-1.4-1.1c-0.4-0.4-0.7-0.9-1-1.3l2.8-2.2c0.4,0.7,0.9,1.3,1.4,1.8
				c0.6,0.5,1.3,0.7,2.2,0.7s1.6-0.3,2.1-0.8c0.5-0.5,0.7-1.2,0.7-2.1v-0.2c0-0.8-0.2-1.5-0.7-2c-0.5-0.5-1.2-0.7-2-0.7
				c-0.7,0-1.3,0.1-1.8,0.4c-0.5,0.3-0.8,0.6-1.1,0.8l-3.2-0.4l0.7-10.3h11.1V342.5z"/>
		</g>
		<path id="Connection-Line" class="st7" d="M526.8,85h246.5c5.7,0,10.2,4.6,10.2,10.2v10.5h0.5V95.2c0-5.9-4.8-10.8-10.7-10.8
			H526.8V85z"/>
		<path id="Connection-Line_1_" class="st7" d="M527.8,161.8h86c5.4,0,9.8,4.4,9.8,9.8v10h0.5v-10c0-5.7-4.6-10.2-10.3-10.2h-86
			V161.8z"/>
		<path id="Connection-Line_2_" class="st7" d="M401.8,237.2h84c5.4,0,9.7,4.4,9.7,9.8v10h0.5v-10c0-5.7-4.6-10.2-10.2-10.2h-84
			V237.2z"/>
		<path id="Connection-Line_3_" class="st7" d="M402.5,237.2h-25c-5.4,0-9.8,4.4-9.8,9.8v10h-0.5v-10c0-5.7,4.6-10.2,10.3-10.2h25
			V237.2z"/>
		<polygon id="Line-2" class="st7" points="433.2,217 433.2,237 433.8,237 433.8,217 		"/>
		<polygon id="Line-2_1_" class="st7" points="623.2,217 623.2,257 623.8,257 623.8,217 		"/>
		<path id="Connection-Line_4_" class="st7" d="M527.5,85H280c-5.7,0-10.2,4.6-10.2,10.2v10.5h-0.5V95.2c0-5.9,4.8-10.8,10.7-10.8
			h247.5V85z"/>
		<path id="Connection-Line_5_" class="st7" d="M528.5,161.8h-85c-5.4,0-9.8,4.4-9.8,9.8v10h-0.5v-10c0-5.7,4.6-10.2,10.3-10.2h85
			V161.8z"/>
		<polygon id="Line-2_2_" class="st7" points="527.2,65 527.2,105 527.8,105 527.8,65 		"/>
		<polygon id="Line-2_3_" class="st7" points="527.2,141.2 527.2,161.2 527.8,161.2 527.8,141.2 		"/>
		<polygon id="Line-2_4_" class="st7" points="270.2,141 270.2,181 270.8,181 270.8,141 		"/>
		<rect id="Rectangle_24_" x="159.7" y="318.7" class="st0" width="704" height="60"/>
		<path id="Connection-Line_7_" class="st7" d="M496.9,312.5h86c5.4,0,9.8,4.4,9.8,9.8v10h0.5v-10c0-5.7-4.6-10.2-10.3-10.2h-86
			V312.5z"/>
		<path id="Connection-Line_6_" class="st7" d="M497.6,312.5h-85c-5.4,0-9.8,4.4-9.8,9.8v10h-0.5v-10c0-5.7,4.6-10.2,10.3-10.2h85
			V312.5z"/>
		<polygon id="Line-2_5_" class="st7" points="496.4,292 496.4,312 496.9,312 496.9,292 		"/>
		<path id="Rectangle_28_" class="st1" d="M525.1,331.8h136c6.6,0,12,5.4,12,12v12c0,6.6-5.4,12-12,12h-136c-6.6,0-12-5.4-12-12v-12
			C513.1,337.1,518.5,331.8,525.1,331.8z"/>
		<path id="Rectangle_26_" class="st3" d="M525.1,331.8h136c6.6,0,12,5.4,12,12v12c0,6.6-5.4,12-12,12h-136c-6.6,0-12-5.4-12-12v-12
			C513.1,337.1,518.5,331.8,525.1,331.8z M525.1,332.8c-6.1,0-11,4.9-11,11v12c0,6.1,4.9,11,11,11h136c6.1,0,11-4.9,11-11v-12
			c0-6.1-4.9-11-11-11H525.1z"/>
		<path id="Rectangle_27_" class="st1" d="M333.1,331.8h136c6.6,0,12,5.4,12,12v12c0,6.6-5.4,12-12,12h-136c-6.6,0-12-5.4-12-12v-12
			C321.1,337.1,326.5,331.8,333.1,331.8z"/>
		<path id="Rectangle_25_" class="st4" d="M333.1,331.8h136c6.6,0,12,5.4,12,12v12c0,6.6-5.4,12-12,12h-136c-6.6,0-12-5.4-12-12v-12
			C321.1,337.1,326.5,331.8,333.1,331.8z M333.1,332.8c-6.1,0-11,4.9-11,11v12c0,6.1,4.9,11,11,11h136c6.1,0,11-4.9,11-11v-12
			c0-6.1-4.9-11-11-11H333.1z"/>
	</g>
	<circle class="st8" cx="166.7" cy="405.4" r="6.8"/>
	<circle class="st8" cx="604.1" cy="34.2" r="6.8"/>
	<circle class="st8" cx="698.2" cy="186.3" r="6.8"/>
	<circle class="st8" cx="825.2" cy="108.8" r="6.8"/>
	<circle class="st8" cx="668.5" cy="262.5" r="6.8"/>
	<circle class="st8" cx="506.3" cy="186.3" r="6.8"/>
	<circle class="st9" cx="274.4" cy="405.4" r="6.8"/>
	<path class="st8" d="M540.6,269.4c-3.8,0-6.8-3-6.8-6.8c0-3.8,3-6.8,6.8-6.8"/>
	<path class="st9" d="M540.6,255.7c3.8,0,6.8,3,6.8,6.8c0,3.8-3,6.8-6.8,6.8"/>
	<circle class="st8" cx="603.3" cy="112.2" r="6.8"/>
	<path class="st8" d="M669,344.3c-3.8,0-6.8-3-6.8-6.8c0-3.8,3-6.8,6.8-6.8"/>
	<path class="st9" d="M669,330.7c3.8,0,6.8,3,6.8,6.8c0,3.8-3,6.8-6.8,6.8"/>
</g>
<g id="Text">
	<text transform="matrix(1 0 0 1 183.931 409.0145)" class="st6 st10 st11">Rule A</text>
	<text transform="matrix(1 0 0 1 292.6017 409.0334)" class="st6 st10 st11">Rule B</text>
	<text transform="matrix(1 0 0 1 350.9998 354.2168)" class="st4 st10 st11" style="text-decoration: line-through;">Resource group</text>
	<text transform="matrix(1 0 0 1 539.516 354.2167)" class="st6 st10 st11">Resource group</text>
	<text transform="matrix(1 0 0 1 224.0002 126.808)" class="st4 st10 st11" style="text-decoration: line-through;">Account group</text>
	<text transform="matrix(1 0 0 1 245.6078 202.9996)" class="st4 st10 st11" style="text-decoration: line-through;">Account</text>
	<text transform="matrix(1 0 0 1 481.1077 126.8074)" class="st6 st10 st11">Account group</text>
	<text transform="matrix(1 0 0 1 492.9483 50.6418)" class="st6 st10 st11">Enterprise</text>
	<text transform="matrix(1 0 0 1 470.8701 279.0008)" class="st6 st10 st11">Account</text>
	<text transform="matrix(1 0 0 1 597.2917 279.0008)" class="st6 st10 st11">Account</text>
	<text transform="matrix(1 0 0 1 343.1256 279.1446)" class="st4 st10 st11" style="text-decoration: line-through;">Account</text>
	<text transform="matrix(1 0 0 1 386.875 202.9997)" class="st6 st10 st11">Account group</text>
	<text transform="matrix(1 0 0 1 576.0339 203)" class="st6 st10 st11">Account group</text>
	<text transform="matrix(1 0 0 1 759.248 126.8073)" class="st6 st10 st11">Account</text>
</g>
</svg>
