<svg xmlns="http://www.w3.org/2000/svg" width="1056" height="429.9827" viewBox="0 0 1056 429.9827"><defs><style>.cls-1{fill:#f0f0f0;}.cls-2{fill:#fff;}.cls-3{fill:#0530ad;}.cls-4{fill:#a66efa;}.cls-5{fill:#6f6f6f;}.cls-6{fill:#009c98;}.cls-7{fill:#004548;}.cls-8{fill:#565656;}.cls-9{fill:#0db5b3;}.cls-10{fill:#0f62fe;}</style></defs><g id="Graphics"><g id="_4-tier-hierarchy" data-name="4-tier-hierarchy"><rect id="Rectangle" class="cls-1" x="160" y="17" width="704" height="60"/><rect id="Rectangle-2" data-name="Rectangle" class="cls-1" x="160" y="92" width="704" height="60"/><rect id="Rectangle-3" data-name="Rectangle" class="cls-1" x="160" y="167" width="704" height="60"/><rect id="Rectangle-4" data-name="Rectangle" class="cls-1" x="160" y="242" width="704" height="60"/><g id="Group"><rect id="Rectangle-5" data-name="Rectangle" class="cls-2" x="448" y="29" width="160" height="36" rx="12"/><rect id="Rectangle-6" data-name="Rectangle" class="cls-2" x="448" y="105" width="160" height="36" rx="12"/><rect id="Rectangle-7" data-name="Rectangle" class="cls-2" x="320" y="257" width="96" height="36" rx="12"/><rect id="Rectangle-8" data-name="Rectangle" class="cls-2" x="448" y="257" width="96" height="36" rx="12"/><rect id="Rectangle-9" data-name="Rectangle" class="cls-2" x="576" y="257" width="96" height="36" rx="12"/><rect id="Rectangle-10" data-name="Rectangle" class="cls-2" x="736" y="105" width="96" height="36" rx="12"/><rect id="Rectangle-11" data-name="Rectangle" class="cls-2" x="544" y="181" width="160" height="36" rx="12"/><rect id="Rectangle-12" data-name="Rectangle" class="cls-2" x="192" y="105" width="160" height="36" rx="12"/><rect id="Rectangle-13" data-name="Rectangle" class="cls-2" x="352" y="181" width="160" height="36" rx="12"/><rect id="Rectangle-14" data-name="Rectangle" class="cls-2" x="224" y="181" width="96" height="36" rx="12"/></g><path id="Rectangle-15" data-name="Rectangle" class="cls-3" d="M460,29H596a12,12,0,0,1,12,12V53a12,12,0,0,1-12,12H460a12,12,0,0,1-12-12V41A12,12,0,0,1,460,29Zm0,1a11,11,0,0,0-11,11V53a11,11,0,0,0,11,11H596a11,11,0,0,0,11-11V41a11,11,0,0,0-11-11Z"/><path id="Rectangle-16" data-name="Rectangle" class="cls-4" d="M460,105H596a12,12,0,0,1,12,12v12a12,12,0,0,1-12,12H460a12,12,0,0,1-12-12V117A12,12,0,0,1,460,105Zm0,1a11,11,0,0,0-11,11v12a11,11,0,0,0,11,11H596a11,11,0,0,0,11-11V117a11,11,0,0,0-11-11Z"/><path id="Rectangle-17" data-name="Rectangle" class="cls-5" d="M332,257h72a12,12,0,0,1,12,12v12a12,12,0,0,1-12,12H332a12,12,0,0,1-12-12V269A12,12,0,0,1,332,257Zm0,1a11,11,0,0,0-11,11v12a11,11,0,0,0,11,11h72a11,11,0,0,0,11-11V269a11,11,0,0,0-11-11Z"/><path id="Rectangle-18" data-name="Rectangle" class="cls-6" d="M460,257h72a12,12,0,0,1,12,12v12a12,12,0,0,1-12,12H460a12,12,0,0,1-12-12V269A12,12,0,0,1,460,257Zm0,1a11,11,0,0,0-11,11v12a11,11,0,0,0,11,11h72a11,11,0,0,0,11-11V269a11,11,0,0,0-11-11Z"/><path id="Rectangle-19" data-name="Rectangle" class="cls-6" d="M588,257h72a12,12,0,0,1,12,12v12a12,12,0,0,1-12,12H588a12,12,0,0,1-12-12V269A12,12,0,0,1,588,257Zm0,1a11,11,0,0,0-11,11v12a11,11,0,0,0,11,11h72a11,11,0,0,0,11-11V269a11,11,0,0,0-11-11Z"/><path id="Rectangle-20" data-name="Rectangle" class="cls-6" d="M748,105h72a12,12,0,0,1,12,12v12a12,12,0,0,1-12,12H748a12,12,0,0,1-12-12V117A12,12,0,0,1,748,105Zm0,1a11,11,0,0,0-11,11v12a11,11,0,0,0,11,11h72a11,11,0,0,0,11-11V117a11,11,0,0,0-11-11Z"/><path id="Rectangle-21" data-name="Rectangle" class="cls-4" d="M556,181H692a12,12,0,0,1,12,12v12a12,12,0,0,1-12,12H556a12,12,0,0,1-12-12V193A12,12,0,0,1,556,181Zm0,1a11,11,0,0,0-11,11v12a11,11,0,0,0,11,11H692a11,11,0,0,0,11-11V193a11,11,0,0,0-11-11Z"/><path id="Rectangle-22" data-name="Rectangle" class="cls-5" d="M204,105H340a12,12,0,0,1,12,12v12a12,12,0,0,1-12,12H204a12,12,0,0,1-12-12V117A12,12,0,0,1,204,105Zm0,1a11,11,0,0,0-11,11v12a11,11,0,0,0,11,11H340a11,11,0,0,0,11-11V117a11,11,0,0,0-11-11Z"/><path id="Rectangle-23" data-name="Rectangle" class="cls-4" d="M364,181H500a12,12,0,0,1,12,12v12a12,12,0,0,1-12,12H364a12,12,0,0,1-12-12V193A12,12,0,0,1,364,181Zm0,1a11,11,0,0,0-11,11v12a11,11,0,0,0,11,11H500a11,11,0,0,0,11-11V193a11,11,0,0,0-11-11Z"/><path id="Rectangle-24" data-name="Rectangle" class="cls-5" d="M236,181h72a12,12,0,0,1,12,12v12a12,12,0,0,1-12,12H236a12,12,0,0,1-12-12V193A12,12,0,0,1,236,181Zm0,1a11,11,0,0,0-11,11v12a11,11,0,0,0,11,11h72a11,11,0,0,0,11-11V193a11,11,0,0,0-11-11Z"/><polygon id="_1" data-name="1" class="cls-7" points="129.9 55 129.9 51.975 134.35 51.975 134.35 40.9 130.3 43.125 128.875 40.425 134.15 37.55 138.1 37.55 138.1 51.975 142.05 51.975 142.05 55 129.9 55"/><path id="_2" data-name="2" class="cls-7" d="M141.875,130h-12.55v-3.425l5.5-4.575a12.2759,12.2759,0,0,0,2.05-2.125,3.2766,3.2766,0,0,0,.625-1.9v-.25a2.0792,2.0792,0,0,0-.65-1.6625,2.5823,2.5823,0,0,0-1.75-.5625,2.501,2.501,0,0,0-1.925.725,4.0739,4.0739,0,0,0-.95,1.725l-3.275-1.25a7.537,7.537,0,0,1,.825-1.7125,5.3743,5.3743,0,0,1,1.3375-1.4125A6.8209,6.8209,0,0,1,133,112.6125a7.7381,7.7381,0,0,1,2.475-.3625,7.5816,7.5816,0,0,1,2.55.4,5.5885,5.5885,0,0,1,1.9,1.1,4.5844,4.5844,0,0,1,1.175,1.6625,5.7055,5.7055,0,0,1,.0375,4.1,6.7205,6.7205,0,0,1-1,1.7125,11.8522,11.8522,0,0,1-1.5,1.55q-.8625.75-1.8375,1.5l-3.325,2.575h8.4Z"/><path id="_3" data-name="3" class="cls-7" d="M134.825,194.45a3.2891,3.2891,0,0,0,2.1125-.55,1.6913,1.6913,0,0,0,.6625-1.35v-.175a1.9158,1.9158,0,0,0-.6375-1.5125A2.6523,2.6523,0,0,0,135.15,190.3a3.98,3.98,0,0,0-2.0125.5375,4.6508,4.6508,0,0,0-1.5875,1.5375l-2.375-2.2a8.7671,8.7671,0,0,1,1.1-1.1875,6.5236,6.5236,0,0,1,2.9625-1.525A9.1218,9.1218,0,0,1,135.3,187.25a9.4665,9.4665,0,0,1,2.575.325,5.8834,5.8834,0,0,1,1.9625.9375A4.3973,4.3973,0,0,1,141.1,189.975a3.9972,3.9972,0,0,1,.45,1.9,3.942,3.942,0,0,1-.275,1.5,3.8508,3.8508,0,0,1-.7375,1.175,3.8124,3.8124,0,0,1-1.075.8125,4.6806,4.6806,0,0,1-1.3125.4375v.15a4.8132,4.8132,0,0,1,2.6625,1.3375,3.8682,3.8682,0,0,1,1.0625,2.8625,4.5858,4.5858,0,0,1-.4875,2.125,4.75,4.75,0,0,1-1.375,1.625,6.4565,6.4565,0,0,1-2.15,1.0375,10.1772,10.1772,0,0,1-2.8125.3625,8.9547,8.9547,0,0,1-2.3375-.275,7.1035,7.1035,0,0,1-1.7875-.7375,5.9161,5.9161,0,0,1-1.3375-1.075A9.7857,9.7857,0,0,1,128.6,201.95l2.775-2.15a5.5835,5.5835,0,0,0,1.4375,1.7625,3.605,3.605,0,0,0,2.3125.6875,3.0863,3.0863,0,0,0,2.075-.625,2.1572,2.1572,0,0,0,.725-1.725v-.175a1.7964,1.7964,0,0,0-.825-1.6125,4.1929,4.1929,0,0,0-2.3-.5375h-1.625V194.45Z"/><path id="_4" data-name="4" class="cls-7" d="M136.475,280v-3.35h-7.85v-3.2l6.95-10.9h4.5v11.2h2.25v2.9h-2.25V280Zm-4.825-6.25h4.825v-7.325h-.225Z"/><path class="cls-7" d="M141.13,342.4743h-8.2417l-.39,5.7461h.2081a7.9333,7.9333,0,0,1,.5849-1.1827,3.741,3.741,0,0,1,.7671-.91,3.1659,3.1659,0,0,1,1.0659-.585,4.7035,4.7035,0,0,1,1.482-.208,6.0341,6.0341,0,0,1,2.184.39,5.1018,5.1018,0,0,1,1.7681,1.1308,5.3816,5.3816,0,0,1,1.1958,1.82,6.3612,6.3612,0,0,1,.4424,2.4307,7.0907,7.0907,0,0,1-.4551,2.5615,5.5386,5.5386,0,0,1-1.352,2.041,6.28,6.28,0,0,1-2.1973,1.3389,8.5132,8.5132,0,0,1-2.9639.4805,8.6584,8.6584,0,0,1-2.34-.2852,7.0071,7.0071,0,0,1-1.794-.7676,6.2892,6.2892,0,0,1-1.352-1.1045,7.9988,7.9988,0,0,1-.9883-1.3261l2.834-2.2364a6.9437,6.9437,0,0,0,1.43,1.8077,3.2421,3.2421,0,0,0,2.2358.74,2.6859,2.6859,0,0,0,2.1191-.8057,3.0937,3.0937,0,0,0,.7149-2.1318v-.208a2.6733,2.6733,0,0,0-.728-1.9766,2.7093,2.7093,0,0,0-2.002-.7275,3.2678,3.2678,0,0,0-1.7549.4287,4.6857,4.6857,0,0,0-1.0527.8457l-3.1982-.4424.6762-10.2705H141.13Z"/><path id="Connection-Line" class="cls-8" d="M526.75,85H773.2566A10.2459,10.2459,0,0,1,783.5,95.25v10.5h.5V95.25A10.7459,10.7459,0,0,0,773.2566,84.5H526.75Z"/><path id="Connection-Line-2" data-name="Connection-Line" class="cls-8" d="M527.75,161.75h85.998a9.75,9.75,0,0,1,9.752,9.75v10h.5v-10a10.25,10.25,0,0,0-10.252-10.25H527.75Z"/><path id="Connection-Line-3" data-name="Connection-Line" class="cls-8" d="M401.75,237.25h84.0071A9.7456,9.7456,0,0,1,495.5,247v10h.5V247a10.2456,10.2456,0,0,0-10.2429-10.25H401.75Z"/><path id="Connection-Line-4" data-name="Connection-Line" class="cls-8" d="M402.5,237.25H377.5062A9.7523,9.7523,0,0,0,367.75,247v10h-.5V247a10.2524,10.2524,0,0,1,10.2562-10.25H402.5Z"/><polygon id="Line-2" class="cls-8" points="433.25 217 433.25 237 433.75 237 433.75 217 433.25 217"/><polygon id="Line-2-2" data-name="Line-2" class="cls-8" points="623.25 217 623.25 257 623.75 257 623.75 217 623.25 217"/><path id="Connection-Line-5" data-name="Connection-Line" class="cls-8" d="M527.5,85H279.9939A10.2461,10.2461,0,0,0,269.75,95.25v10.5h-.5V95.25A10.7461,10.7461,0,0,1,279.9939,84.5H527.5Z"/><path id="Connection-Line-6" data-name="Connection-Line" class="cls-8" d="M528.5,161.75H443.51a9.754,9.754,0,0,0-9.76,9.75v10h-.5v-10a10.254,10.254,0,0,1,10.26-10.25H528.5Z"/><polygon id="Line-2-3" data-name="Line-2" class="cls-8" points="527.25 65 527.25 105 527.75 105 527.75 65 527.25 65"/><polygon id="Line-2-4" data-name="Line-2" class="cls-8" points="527.25 141.25 527.25 161.25 527.75 161.25 527.75 141.25 527.25 141.25"/><polygon id="Line-2-5" data-name="Line-2" class="cls-8" points="270.25 141 270.25 181 270.75 181 270.75 141 270.25 141"/><rect id="Rectangle-25" data-name="Rectangle" class="cls-1" x="159.6875" y="318.7394" width="704" height="60"/><path id="Connection-Line-7" data-name="Connection-Line" class="cls-8" d="M496.858,312.5h85.998a9.75,9.75,0,0,1,9.752,9.75v10h.5v-10A10.25,10.25,0,0,0,582.856,312H496.858Z"/><path id="Connection-Line-8" data-name="Connection-Line" class="cls-8" d="M497.608,312.5h-84.99a9.754,9.754,0,0,0-9.76,9.75v10h-.5v-10a10.254,10.254,0,0,1,10.26-10.25H497.608Z"/><polygon id="Line-2-6" data-name="Line-2" class="cls-8" points="496.358 292 496.358 312 496.858 312 496.858 292 496.358 292"/><rect id="Rectangle-26" data-name="Rectangle" class="cls-2" x="513.108" y="331.75" width="160" height="36" rx="12"/><path id="Rectangle-27" data-name="Rectangle" class="cls-4" d="M525.108,331.75h136a12,12,0,0,1,12,12v12a12,12,0,0,1-12,12h-136a12,12,0,0,1-12-12v-12A12,12,0,0,1,525.108,331.75Zm0,1a11,11,0,0,0-11,11v12a11,11,0,0,0,11,11h136a11,11,0,0,0,11-11v-12a11,11,0,0,0-11-11Z"/><rect id="Rectangle-28" data-name="Rectangle" class="cls-2" x="321.108" y="331.75" width="160" height="36" rx="12"/><path id="Rectangle-29" data-name="Rectangle" class="cls-5" d="M333.108,331.75h136a12,12,0,0,1,12,12v12a12,12,0,0,1-12,12h-136a12,12,0,0,1-12-12v-12A12,12,0,0,1,333.108,331.75Zm0,1a11,11,0,0,0-11,11v12a11,11,0,0,0,11,11h136a11,11,0,0,0,11-11v-12a11,11,0,0,0-11-11Z"/></g><circle class="cls-9" cx="166.7315" cy="405.4447" r="6.8011"/><circle class="cls-9" cx="604.0931" cy="34.2229" r="6.8011"/><circle class="cls-9" cx="698.1989" cy="186.3025" r="6.8011"/><circle class="cls-9" cx="825.1989" cy="108.8052" r="6.8011"/><circle class="cls-9" cx="668.548" cy="262.55" r="6.8011"/><circle class="cls-9" cx="506.3069" cy="186.3025" r="6.8011"/><circle class="cls-10" cx="274.4023" cy="405.4447" r="6.8011"/><path class="cls-9" d="M540.56,269.3511a6.8011,6.8011,0,1,1,0-13.6022"/><path class="cls-10" d="M540.56,255.7489a6.8011,6.8011,0,1,1,0,13.6022"/><circle class="cls-9" cx="603.3422" cy="112.25" r="6.8011"/><path class="cls-9" d="M668.96,344.2651a6.8011,6.8011,0,0,1,0-13.6022"/><path class="cls-10" d="M668.96,330.6629a6.8011,6.8011,0,0,1,0,13.6022"/></g><g id="Text"><path class="cls-7" d="M186.1392,409.0143h-1.1641v-8.376h3.084a2.3779,2.3779,0,0,1,1.8061.6485,2.52,2.52,0,0,1,.6177,1.8115,2.4508,2.4508,0,0,1-.5039,1.6015,2.12,2.12,0,0,1-1.44.7383l2.04,3.5762h-1.2959l-1.9082-3.4922h-1.2358Zm1.8242-4.44a1.3721,1.3721,0,0,0,.9658-.3057,1.1446,1.1446,0,0,0,.33-.8818V402.81a1.1446,1.1446,0,0,0-.33-.8818,1.3721,1.3721,0,0,0-.9658-.3057h-1.8242v2.9512Z"/><path class="cls-7" d="M196.1108,407.9821h-.0478a2.1467,2.1467,0,0,1-.2461.45,1.79,1.79,0,0,1-.36.372,1.6537,1.6537,0,0,1-.498.2578,2.1138,2.1138,0,0,1-.6724.0958,2.0287,2.0287,0,0,1-1.542-.6114,2.4286,2.4286,0,0,1-.5815-1.74v-3.9844h1.1157v3.792q0,1.5967,1.38,1.5967a2.1544,2.1544,0,0,0,.5342-.0664,1.4,1.4,0,0,0,.4619-.21,1.1273,1.1273,0,0,0,.33-.36.9809.9809,0,0,0,.1259-.5039v-4.2481h1.1163v6.1924h-1.1163Z"/><path class="cls-7" d="M199.2671,408.0905h2.1v-7.0323h-2.1v-.9238h3.2158v7.9561h2.1123v.9238h-5.3281Z"/><path class="cls-7" d="M209.251,409.1579a3.2048,3.2048,0,0,1-1.2364-.2276,2.53,2.53,0,0,1-.93-.6484,2.8822,2.8822,0,0,1-.5821-1.0137,4.0958,4.0958,0,0,1-.2041-1.3379,4.0426,4.0426,0,0,1,.21-1.3437,3.03,3.03,0,0,1,.5879-1.0264,2.5467,2.5467,0,0,1,.9062-.6543,3.098,3.098,0,0,1,2.3159-.0059,2.5077,2.5077,0,0,1,.8819.63,2.8635,2.8635,0,0,1,.5639.9668,3.6386,3.6386,0,0,1,.1983,1.23v.4678h-4.5122v.251a1.75,1.75,0,0,0,.48,1.2705,1.769,1.769,0,0,0,1.332.4951,2.0055,2.0055,0,0,0,1.0561-.2686,1.8719,1.8719,0,0,0,.6958-.7461l.7564.59a2.3942,2.3942,0,0,1-.9424.9873A3.0147,3.0147,0,0,1,209.251,409.1579Zm-.0723-5.5918a1.7709,1.7709,0,0,0-.6958.1318,1.7132,1.7132,0,0,0-.5464.3662,1.5975,1.5975,0,0,0-.36.5586,1.9367,1.9367,0,0,0-.126.708v.0957h3.3481v-.1318a1.7584,1.7584,0,0,0-.4438-1.2539A1.536,1.536,0,0,0,209.1787,403.5661Z"/><path class="cls-7" d="M225.5947,409.0143l-.6718-2.3164h-2.82l-.6718,2.3164h-1.188l2.5078-8.376h1.5723l2.5078,8.376Zm-2.0278-7.1758h-.1084l-1.104,3.876h2.3164Z"/><path class="cls-7" d="M294.81,409.0338h-1.1641v-8.3759h3.084a2.3782,2.3782,0,0,1,1.8061.6484,2.52,2.52,0,0,1,.6177,1.8115,2.4505,2.4505,0,0,1-.5039,1.6016,2.12,2.12,0,0,1-1.44.7383l2.04,3.5761h-1.2959l-1.9082-3.4922H294.81Zm1.8242-4.44a1.3721,1.3721,0,0,0,.9658-.3057,1.1446,1.1446,0,0,0,.33-.8818V402.83a1.1446,1.1446,0,0,0-.33-.8818,1.3721,1.3721,0,0,0-.9658-.3057H294.81v2.9512Z"/><path class="cls-7" d="M304.7812,408.0016h-.0478a2.1442,2.1442,0,0,1-.2461.45,1.79,1.79,0,0,1-.36.3721,1.6559,1.6559,0,0,1-.498.2578,2.1168,2.1168,0,0,1-.6724.0957,2.0286,2.0286,0,0,1-1.542-.6113,2.4287,2.4287,0,0,1-.5815-1.74v-3.9844h1.1157v3.792q0,1.5967,1.38,1.5967a2.15,2.15,0,0,0,.5342-.0664,1.3949,1.3949,0,0,0,.4619-.21,1.1273,1.1273,0,0,0,.33-.36.98.98,0,0,0,.1259-.5039v-4.2481h1.1163v6.1924h-1.1163Z"/><path class="cls-7" d="M307.9375,408.11h2.1v-7.0322h-2.1v-.9239h3.2158V408.11h2.1123v.9238h-5.3281Z"/><path class="cls-7" d="M317.9214,409.1774a3.204,3.204,0,0,1-1.2363-.2276,2.5285,2.5285,0,0,1-.93-.6484,2.8822,2.8822,0,0,1-.5821-1.0137,4.0958,4.0958,0,0,1-.2041-1.3379,4.0426,4.0426,0,0,1,.21-1.3437,3.03,3.03,0,0,1,.5879-1.0264,2.5479,2.5479,0,0,1,.9062-.6543,3.0977,3.0977,0,0,1,2.316-.0058,2.5061,2.5061,0,0,1,.8818.63,2.8649,2.8649,0,0,1,.564.9667,3.6411,3.6411,0,0,1,.1982,1.2295v.4678h-4.5122v.251a1.75,1.75,0,0,0,.48,1.2705,1.7686,1.7686,0,0,0,1.332.4951,2.0061,2.0061,0,0,0,1.0562-.2685,1.8733,1.8733,0,0,0,.6958-.7461l.7563.59a2.393,2.393,0,0,1-.9424.9873A3.0137,3.0137,0,0,1,317.9214,409.1774Zm-.0723-5.5918a1.7709,1.7709,0,0,0-.6958.1318,1.7132,1.7132,0,0,0-.5464.3662,1.5989,1.5989,0,0,0-.36.5586,1.9371,1.9371,0,0,0-.126.708v.0957h3.3481v-.1318a1.7584,1.7584,0,0,0-.4438-1.2539A1.536,1.536,0,0,0,317.8491,403.5856Z"/><path class="cls-7" d="M329.6333,400.6579h2.856a2.4172,2.4172,0,0,1,1.7338.5878,2.0835,2.0835,0,0,1,.6182,1.584,1.7792,1.7792,0,0,1-.36,1.1758,2.012,2.012,0,0,1-.96.624v.0362a2.31,2.31,0,0,1,1.17.6357,1.8642,1.8642,0,0,1,.45,1.3447,2.6069,2.6069,0,0,1-.168.9414,2.3064,2.3064,0,0,1-.4741.7627,2.1448,2.1448,0,0,1-.7319.5039,2.3631,2.3631,0,0,1-.93.18h-3.2036Zm2.6758,3.624a1.57,1.57,0,0,0,.9839-.2705,1.0034,1.0034,0,0,0,.3481-.8457v-.4434a1.0054,1.0054,0,0,0-.3481-.8467,1.5758,1.5758,0,0,0-.9839-.2695h-1.5239v2.6758Zm.18,3.8037a1.692,1.692,0,0,0,1.062-.294,1.1036,1.1036,0,0,0,.3779-.93v-.4678a1.0939,1.0939,0,0,0-.3779-.9121,1.6683,1.6683,0,0,0-1.062-.3h-1.7041v2.9033Z"/><path class="cls-5" d="M353.208,354.2164h-1.1641v-8.3759h3.084a2.3784,2.3784,0,0,1,1.8062.6484,2.52,2.52,0,0,1,.6177,1.8115,2.4509,2.4509,0,0,1-.5039,1.6016,2.1206,2.1206,0,0,1-1.44.7383l2.04,3.5761h-1.2958l-1.9083-3.4921H353.208Zm1.8242-4.44a1.3719,1.3719,0,0,0,.9658-.3056,1.1447,1.1447,0,0,0,.33-.8819v-.5762a1.1444,1.1444,0,0,0-.33-.8818,1.372,1.372,0,0,0-.9658-.3057H353.208v2.9512Z"/><path class="cls-5" d="M361.92,354.36a3.2065,3.2065,0,0,1-1.2363-.2275,2.5307,2.5307,0,0,1-.93-.6485,2.8825,2.8825,0,0,1-.582-1.0136,4.0935,4.0935,0,0,1-.2041-1.3379,4.0433,4.0433,0,0,1,.21-1.3438,3.0333,3.0333,0,0,1,.5879-1.0264,2.55,2.55,0,0,1,.9063-.6543,3.0974,3.0974,0,0,1,2.3159-.0058,2.5061,2.5061,0,0,1,.8818.63,2.8611,2.8611,0,0,1,.564.9668,3.6407,3.6407,0,0,1,.1982,1.23v.4677H360.12v.251a1.7509,1.7509,0,0,0,.48,1.27,1.7688,1.7688,0,0,0,1.332.4951,2.0061,2.0061,0,0,0,1.0562-.2685,1.8733,1.8733,0,0,0,.6958-.7461l.7563.59a2.3928,2.3928,0,0,1-.9423.9873A3.0143,3.0143,0,0,1,361.92,354.36Zm-.0722-5.5918a1.7706,1.7706,0,0,0-.6958.1318,1.7121,1.7121,0,0,0-.5464.3662,1.5977,1.5977,0,0,0-.36.5586,1.9377,1.9377,0,0,0-.126.7081v.0957h3.3482v-.1319a1.7584,1.7584,0,0,0-.4439-1.2539A1.5359,1.5359,0,0,0,361.8477,348.7682Z"/><path class="cls-5" d="M369.0479,354.36a4.1276,4.1276,0,0,1-1.7041-.3232,3.2021,3.2021,0,0,1-1.1758-.876l.708-.6367a3.0033,3.0033,0,0,0,.9477.7021,2.93,2.93,0,0,0,1.2481.2461,2.25,2.25,0,0,0,1.11-.24.805.805,0,0,0,.4258-.7559.7461.7461,0,0,0-.084-.3662.6537.6537,0,0,0-.228-.2393,1.1651,1.1651,0,0,0-.33-.1386c-.124-.0313-.2539-.06-.39-.084l-.9717-.1436q-.3486-.0483-.72-.1377a2.2789,2.2789,0,0,1-.6777-.2822,1.5976,1.5976,0,0,1-.5044-.5039,1.4812,1.4812,0,0,1-.1978-.8047,1.739,1.739,0,0,1,.186-.8213,1.6668,1.6668,0,0,1,.5279-.5947,2.4735,2.4735,0,0,1,.8159-.3594,4.22,4.22,0,0,1,1.0381-.12,3.7768,3.7768,0,0,1,1.4761.2637,3.0966,3.0966,0,0,1,1.0561.7207l-.6841.6719a1.9656,1.9656,0,0,0-.2759-.2706,1.9382,1.9382,0,0,0-.396-.246,2.7552,2.7552,0,0,0-.5283-.18,3.0017,3.0017,0,0,0-.6958-.0723,1.95,1.95,0,0,0-1.05.2344.7562.7562,0,0,0-.3662.6777.6713.6713,0,0,0,.312.6123,1.07,1.07,0,0,0,.33.1436c.124.0322.2539.06.39.084l.9717.1445a6.5453,6.5453,0,0,1,.72.1435,2.5175,2.5175,0,0,1,.6778.2823,1.5347,1.5347,0,0,1,.5039.498,1.4741,1.4741,0,0,1,.1982.8037,1.6884,1.6884,0,0,1-.7139,1.4522A3.2731,3.2731,0,0,1,369.0479,354.36Z"/><path class="cls-5" d="M376.2,354.36a2.9957,2.9957,0,0,1-1.2-.2275,2.5238,2.5238,0,0,1-.9-.6485,2.86,2.86,0,0,1-.57-1.0195,4.6554,4.6554,0,0,1,0-2.6885,2.8773,2.8773,0,0,1,.57-1.0195,2.5238,2.5238,0,0,1,.9-.6485,3.263,3.263,0,0,1,2.3941,0,2.5125,2.5125,0,0,1,.9062.6485,2.8835,2.8835,0,0,1,.57,1.0195,4.6667,4.6667,0,0,1,0,2.6885,2.8661,2.8661,0,0,1-.57,1.0195,2.5125,2.5125,0,0,1-.9062.6485A3.0063,3.0063,0,0,1,376.2,354.36Zm0-.9238a1.6407,1.6407,0,0,0,1.2241-.4619,1.9154,1.9154,0,0,0,.4556-1.3975v-.9121a1.9194,1.9194,0,0,0-.4556-1.3985,1.853,1.853,0,0,0-2.4482,0,1.9174,1.9174,0,0,0-.4561,1.3985v.9121a1.9134,1.9134,0,0,0,.4561,1.3975A1.64,1.64,0,0,0,376.2,353.4362Z"/><path class="cls-5" d="M384.78,353.1842h-.0479a2.1372,2.1372,0,0,1-.2461.45,1.79,1.79,0,0,1-.36.3721,1.6577,1.6577,0,0,1-.4981.2578,2.1166,2.1166,0,0,1-.6723.0957,2.0285,2.0285,0,0,1-1.542-.6113,2.4287,2.4287,0,0,1-.5816-1.74v-3.9843h1.1158v3.792q0,1.5966,1.38,1.5966a2.1491,2.1491,0,0,0,.5342-.0664,1.3968,1.3968,0,0,0,.4619-.21,1.1265,1.1265,0,0,0,.33-.36.9794.9794,0,0,0,.126-.5039v-4.248h1.1162v6.1923H384.78Z"/><path class="cls-5" d="M387.9116,353.2926h1.74v-4.3437h-1.74v-.9248h2.856v1.5966h.0718a2.2243,2.2243,0,0,1,.7143-1.1767,2.059,2.059,0,0,1,1.35-.42h.8164v1.0927h-1.2a1.75,1.75,0,0,0-1.2778.4619,1.5917,1.5917,0,0,0-.4741,1.1934v2.52h2.34v.9238h-5.1958Z"/><path class="cls-5" d="M398.0273,354.36a3.0717,3.0717,0,0,1-1.2182-.2275,2.4267,2.4267,0,0,1-.9-.6543,2.9915,2.9915,0,0,1-.564-1.02,4.6059,4.6059,0,0,1,0-2.67,2.9877,2.9877,0,0,1,.564-1.0264,2.4267,2.4267,0,0,1,.9-.6543,3.0551,3.0551,0,0,1,1.206-.2275,2.5414,2.5414,0,0,1,1.4942.4014,2.4058,2.4058,0,0,1,.8457,1.0508l-.876.4794a1.5028,1.5028,0,0,0-.5337-.72,1.5522,1.5522,0,0,0-.93-.2637,1.5694,1.5694,0,0,0-1.2417.4952,1.8457,1.8457,0,0,0-.438,1.2715v1.05a1.8456,1.8456,0,0,0,.438,1.2714,1.5971,1.5971,0,0,0,1.2657.4961,1.6185,1.6185,0,0,0,.9843-.2822,2.0791,2.0791,0,0,0,.6241-.7617l.8037.5273a2.4293,2.4293,0,0,1-.876,1.0508A2.6733,2.6733,0,0,1,398.0273,354.36Z"/><path class="cls-5" d="M405.12,354.36a3.2065,3.2065,0,0,1-1.2363-.2275,2.5307,2.5307,0,0,1-.93-.6485,2.8825,2.8825,0,0,1-.582-1.0136,4.0962,4.0962,0,0,1-.2041-1.3379,4.0433,4.0433,0,0,1,.21-1.3438,3.0333,3.0333,0,0,1,.5879-1.0264,2.55,2.55,0,0,1,.9063-.6543,3.0974,3.0974,0,0,1,2.3159-.0058,2.5061,2.5061,0,0,1,.8818.63,2.8611,2.8611,0,0,1,.564.9668,3.6407,3.6407,0,0,1,.1982,1.23v.4677h-4.5122v.251a1.7509,1.7509,0,0,0,.48,1.27,1.7688,1.7688,0,0,0,1.332.4951,2.0058,2.0058,0,0,0,1.0562-.2685,1.8733,1.8733,0,0,0,.6958-.7461l.7563.59a2.3922,2.3922,0,0,1-.9423.9873A3.0141,3.0141,0,0,1,405.12,354.36Zm-.0722-5.5918a1.7706,1.7706,0,0,0-.6958.1318,1.7121,1.7121,0,0,0-.5464.3662,1.5977,1.5977,0,0,0-.36.5586,1.9377,1.9377,0,0,0-.126.7081v.0957h3.3482v-.1319a1.7584,1.7584,0,0,0-.4439-1.2539A1.5358,1.5358,0,0,0,405.0474,348.7682Z"/><path class="cls-5" d="M422.5786,354.9127a1.499,1.499,0,0,1-.7856,1.3975,4.965,4.965,0,0,1-2.3941.45,7.3164,7.3164,0,0,1-1.32-.1016,2.7193,2.7193,0,0,1-.876-.3008,1.31,1.31,0,0,1-.4917-.4736,1.27,1.27,0,0,1-.1562-.6357,1.0912,1.0912,0,0,1,.27-.7862,1.6058,1.6058,0,0,1,.7739-.414v-.1319a1.0774,1.0774,0,0,1-.45-.33.85.85,0,0,1-.1621-.5342.8358.8358,0,0,1,.312-.7139,2.1929,2.1929,0,0,1,.8042-.3545v-.0595a1.9536,1.9536,0,0,1-.8882-.7383,2.0958,2.0958,0,0,1-.312-1.1582,2.2039,2.2039,0,0,1,.1739-.8819,1.8468,1.8468,0,0,1,.498-.6777,2.3847,2.3847,0,0,1,.7739-.4316,3.0338,3.0338,0,0,1,1.002-.1563,2.8539,2.8539,0,0,1,1.2.2275v-.1552a.9727.9727,0,0,1,.186-.6084.715.715,0,0,1,.606-.2442h1.1279v.9483h-1.416v.36a1.835,1.835,0,0,1,.57.69,2.2853,2.2853,0,0,1,.0181,1.8183,1.9065,1.9065,0,0,1-.5044.6719,2.3713,2.3713,0,0,1-.78.4317,3.0894,3.0894,0,0,1-1.0083.1562c-.1118,0-.2236-.0039-.336-.0117a2.1435,2.1435,0,0,1-.3237-.0479c-.0884.0235-.1763.0518-.2641.084a1.0732,1.0732,0,0,0-.252.1319.7289.7289,0,0,0-.1919.1914.4462.4462,0,0,0-.0723.2519.3553.3553,0,0,0,.2764.3721,2.46,2.46,0,0,0,.708.084h1.3677a2.7561,2.7561,0,0,1,1.77.456A1.5131,1.5131,0,0,1,422.5786,354.9127Zm-1.0439.06a.6505.6505,0,0,0-.2818-.5459,1.7265,1.7265,0,0,0-.99-.21H418.127a.8016.8016,0,0,0-.5523.7676.8575.8575,0,0,0,.3062.66,1.541,1.541,0,0,0,1.038.2763h.96a2.5515,2.5515,0,0,0,1.2241-.24A.7662.7662,0,0,0,421.5347,354.9723Zm-2.1841-3.6123a1.3922,1.3922,0,0,0,1.0083-.3174,1.1321,1.1321,0,0,0,.3237-.8457V349.86a1.1321,1.1321,0,0,0-.3237-.8457,1.3922,1.3922,0,0,0-1.0083-.3174,1.3472,1.3472,0,0,0-.9956.3174,1.1535,1.1535,0,0,0-.312.8457v.3369a1.1535,1.1535,0,0,0,.312.8457A1.3472,1.3472,0,0,0,419.3506,351.36Z"/><path class="cls-5" d="M423.9111,353.2926h1.74v-4.3437h-1.74v-.9248h2.856v1.5966h.0718a2.2243,2.2243,0,0,1,.7143-1.1767,2.059,2.059,0,0,1,1.35-.42h.8164v1.0927h-1.2a1.75,1.75,0,0,0-1.2778.4619,1.5917,1.5917,0,0,0-.4741,1.1934v2.52h2.34v.9238h-5.1958Z"/><path class="cls-5" d="M433.7988,354.36a2.9957,2.9957,0,0,1-1.2-.2275,2.5238,2.5238,0,0,1-.9-.6485,2.86,2.86,0,0,1-.57-1.0195,4.6576,4.6576,0,0,1,0-2.6885,2.8773,2.8773,0,0,1,.57-1.0195,2.5238,2.5238,0,0,1,.9-.6485,3.263,3.263,0,0,1,2.3941,0,2.5125,2.5125,0,0,1,.9062.6485,2.8852,2.8852,0,0,1,.57,1.0195,4.6689,4.6689,0,0,1,0,2.6885,2.8678,2.8678,0,0,1-.57,1.0195,2.5125,2.5125,0,0,1-.9062.6485A3.0059,3.0059,0,0,1,433.7988,354.36Zm0-.9238a1.6406,1.6406,0,0,0,1.2241-.4619,1.915,1.915,0,0,0,.4556-1.3975v-.9121a1.919,1.919,0,0,0-.4556-1.3985,1.853,1.853,0,0,0-2.4482,0,1.9174,1.9174,0,0,0-.456,1.3985v.9121a1.9134,1.9134,0,0,0,.456,1.3975A1.64,1.64,0,0,0,433.7988,353.4362Z"/><path class="cls-5" d="M442.3784,353.1842h-.0478a2.1417,2.1417,0,0,1-.2461.45,1.7879,1.7879,0,0,1-.36.3721,1.6559,1.6559,0,0,1-.498.2578,2.1172,2.1172,0,0,1-.6724.0957,2.0286,2.0286,0,0,1-1.542-.6113,2.4287,2.4287,0,0,1-.5815-1.74v-3.9843h1.1157v3.792q0,1.5966,1.38,1.5966a2.1483,2.1483,0,0,0,.5341-.0664,1.3982,1.3982,0,0,0,.462-.21,1.1262,1.1262,0,0,0,.33-.36.9794.9794,0,0,0,.126-.5039v-4.248h1.1162v6.1923h-1.1162Z"/><path class="cls-5" d="M445.6548,348.0241h1.1157v1.0322h.06a1.9416,1.9416,0,0,1,1.896-1.1758,2.094,2.094,0,0,1,1.7583.84,4.8092,4.8092,0,0,1,0,4.8,2.2967,2.2967,0,0,1-2.91.54,2.0666,2.0666,0,0,1-.7441-.876h-.06v3.4326h-1.1157Zm2.6157,5.3886a1.57,1.57,0,0,0,1.23-.4863,1.854,1.854,0,0,0,.438-1.29v-1.0323a1.8557,1.8557,0,0,0-.438-1.29,1.5727,1.5727,0,0,0-1.23-.4854,2.016,2.016,0,0,0-.57.0782,1.4884,1.4884,0,0,0-.48.2334,1.1559,1.1559,0,0,0-.33.3779,1.0832,1.0832,0,0,0-.12.5225v2.16a1.1142,1.1142,0,0,0,.12.5274,1.0659,1.0659,0,0,0,.33.3779,1.5411,1.5411,0,0,0,.48.2285A2.0526,2.0526,0,0,0,448.2705,353.4127Z"/><path class="cls-5" d="M351,351.528v-.8155H451.7983v.8155Z"/><path class="cls-7" d="M541.7236,354.2164H540.56v-8.3759h3.084a2.38,2.38,0,0,1,1.8066.6484,2.5224,2.5224,0,0,1,.6172,1.8115,2.4509,2.4509,0,0,1-.5039,1.6016,2.12,2.12,0,0,1-1.4395.7383l2.04,3.5761h-1.2959l-1.9082-3.4921h-1.2364Zm1.8243-4.44a1.3714,1.3714,0,0,0,.9658-.3056,1.145,1.145,0,0,0,.33-.8819v-.5762a1.1448,1.1448,0,0,0-.33-.8818,1.3715,1.3715,0,0,0-.9658-.3057h-1.8243v2.9512Z"/><path class="cls-7" d="M550.4355,354.36a3.2065,3.2065,0,0,1-1.2363-.2275,2.5316,2.5316,0,0,1-.93-.6485,2.89,2.89,0,0,1-.582-1.0136,4.11,4.11,0,0,1-.2041-1.3379,4.0535,4.0535,0,0,1,.21-1.3438,3.0315,3.0315,0,0,1,.5878-1.0264,2.5539,2.5539,0,0,1,.9063-.6543,3.0987,3.0987,0,0,1,2.3164-.0058,2.5052,2.5052,0,0,1,.8818.63,2.86,2.86,0,0,1,.5635.9668,3.6283,3.6283,0,0,1,.1983,1.23v.4677h-4.5118v.251a1.7526,1.7526,0,0,0,.4795,1.27,1.77,1.77,0,0,0,1.3321.4951,2.0088,2.0088,0,0,0,1.0566-.2685,1.8721,1.8721,0,0,0,.6953-.7461l.7569.59a2.3962,2.3962,0,0,1-.9424.9873A3.016,3.016,0,0,1,550.4355,354.36Zm-.0722-5.5918a1.7681,1.7681,0,0,0-.6953.1318,1.7088,1.7088,0,0,0-.5469.3662,1.6036,1.6036,0,0,0-.3594.5586,1.9377,1.9377,0,0,0-.126.7081v.0957h3.3477v-.1319a1.7581,1.7581,0,0,0-.4434-1.2539A1.5368,1.5368,0,0,0,550.3633,348.7682Z"/><path class="cls-7" d="M557.5635,354.36a4.1292,4.1292,0,0,1-1.7041-.3232,3.2063,3.2063,0,0,1-1.1758-.876l.708-.6367a3.0052,3.0052,0,0,0,.9482.7021,2.9272,2.9272,0,0,0,1.2481.2461,2.25,2.25,0,0,0,1.11-.24.8059.8059,0,0,0,.4258-.7559.7461.7461,0,0,0-.084-.3662.6551.6551,0,0,0-.2285-.2393,1.1578,1.1578,0,0,0-.33-.1386c-.124-.0313-.2539-.06-.39-.084l-.9717-.1436q-.3486-.0483-.7207-.1377a2.2854,2.2854,0,0,1-.6777-.2822,1.591,1.591,0,0,1-.5039-.5039,1.4812,1.4812,0,0,1-.1983-.8047,1.7379,1.7379,0,0,1,.1866-.8213,1.67,1.67,0,0,1,.5273-.5947,2.4763,2.4763,0,0,1,.8164-.3594,4.2174,4.2174,0,0,1,1.0381-.12,3.7753,3.7753,0,0,1,1.4756.2637,3.0987,3.0987,0,0,1,1.0566.7207l-.6846.6719a1.9586,1.9586,0,0,0-.2753-.2706,1.9315,1.9315,0,0,0-.3965-.246,2.76,2.76,0,0,0-.5283-.18,2.9987,2.9987,0,0,0-.6954-.0723,1.9488,1.9488,0,0,0-1.05.2344.7562.7562,0,0,0-.3662.6777.6723.6723,0,0,0,.3115.6123,1.0756,1.0756,0,0,0,.33.1436c.124.0322.2539.06.3906.084l.9717.1445a6.5667,6.5667,0,0,1,.72.1435,2.5114,2.5114,0,0,1,.6777.2823,1.5338,1.5338,0,0,1,.5039.498,1.47,1.47,0,0,1,.1982.8037,1.6884,1.6884,0,0,1-.7138,1.4522A3.2716,3.2716,0,0,1,557.5635,354.36Z"/><path class="cls-7" d="M564.7158,354.36a2.994,2.994,0,0,1-1.2-.2275,2.5213,2.5213,0,0,1-.9-.6485,2.8592,2.8592,0,0,1-.5693-1.0195,4.6576,4.6576,0,0,1,0-2.6885,2.8765,2.8765,0,0,1,.5693-1.0195,2.5213,2.5213,0,0,1,.9-.6485,3.2617,3.2617,0,0,1,2.3936,0,2.5083,2.5083,0,0,1,.9062.6485,2.8767,2.8767,0,0,1,.57,1.0195,4.678,4.678,0,0,1,0,2.6885,2.8594,2.8594,0,0,1-.57,1.0195,2.5083,2.5083,0,0,1-.9062.6485A3.0034,3.0034,0,0,1,564.7158,354.36Zm0-.9238a1.6392,1.6392,0,0,0,1.2237-.4619,1.9155,1.9155,0,0,0,.456-1.3975v-.9121a1.92,1.92,0,0,0-.456-1.3985,1.8531,1.8531,0,0,0-2.4483,0,1.92,1.92,0,0,0-.456,1.3985v.9121a1.9155,1.9155,0,0,0,.456,1.3975A1.6411,1.6411,0,0,0,564.7158,353.4362Z"/><path class="cls-7" d="M573.2959,353.1842h-.0479a2.16,2.16,0,0,1-.246.45,1.8058,1.8058,0,0,1-.36.3721,1.6453,1.6453,0,0,1-.498.2578,2.1144,2.1144,0,0,1-.6719.0957,2.0277,2.0277,0,0,1-1.542-.6113,2.4289,2.4289,0,0,1-.582-1.74v-3.9843h1.1162v3.792q0,1.5966,1.38,1.5966a2.1548,2.1548,0,0,0,.5341-.0664,1.4014,1.4014,0,0,0,.4619-.21,1.1322,1.1322,0,0,0,.33-.36.9794.9794,0,0,0,.126-.5039v-4.248h1.1162v6.1923h-1.1162Z"/><path class="cls-7" d="M576.4277,353.2926h1.7393v-4.3437h-1.7393v-.9248h2.8555v1.5966h.0723a2.2236,2.2236,0,0,1,.7138-1.1767,2.06,2.06,0,0,1,1.35-.42h.8165v1.0927h-1.2a1.7476,1.7476,0,0,0-1.2774.4619,1.5921,1.5921,0,0,0-.4746,1.1934v2.52h2.34v.9238h-5.1953Z"/><path class="cls-7" d="M586.543,354.36a3.0679,3.0679,0,0,1-1.2178-.2275,2.4252,2.4252,0,0,1-.9-.6543,2.9922,2.9922,0,0,1-.5635-1.02,4.5948,4.5948,0,0,1,0-2.67,2.9885,2.9885,0,0,1,.5635-1.0264,2.4252,2.4252,0,0,1,.9-.6543,3.0537,3.0537,0,0,1,1.206-.2275,2.5412,2.5412,0,0,1,1.4942.4014,2.4093,2.4093,0,0,1,.8457,1.0508l-.876.4794a1.5037,1.5037,0,0,0-.5342-.72,1.5507,1.5507,0,0,0-.93-.2637,1.571,1.571,0,0,0-1.2421.4952,1.8473,1.8473,0,0,0-.4375,1.2715v1.05a1.8473,1.8473,0,0,0,.4375,1.2714,1.5975,1.5975,0,0,0,1.2656.4961,1.6169,1.6169,0,0,0,.9844-.2822,2.08,2.08,0,0,0,.624-.7617l.8037.5273a2.4225,2.4225,0,0,1-.876,1.0508A2.6721,2.6721,0,0,1,586.543,354.36Z"/><path class="cls-7" d="M593.6357,354.36a3.2065,3.2065,0,0,1-1.2363-.2275,2.5307,2.5307,0,0,1-.93-.6485,2.8749,2.8749,0,0,1-.582-1.0136,4.0829,4.0829,0,0,1-.2041-1.3379,4.0279,4.0279,0,0,1,.21-1.3438,3.0315,3.0315,0,0,1,.5878-1.0264,2.546,2.546,0,0,1,.9063-.6543,3.0961,3.0961,0,0,1,2.3154-.0058,2.5065,2.5065,0,0,1,.8819.63,2.8636,2.8636,0,0,1,.5644.9668,3.6531,3.6531,0,0,1,.1983,1.23v.4677H591.835v.251a1.7491,1.7491,0,0,0,.48,1.27,1.7675,1.7675,0,0,0,1.3321.4951,2.0027,2.0027,0,0,0,1.0556-.2685,1.8744,1.8744,0,0,0,.6963-.7461l.7559.59a2.39,2.39,0,0,1-.9424.9873A3.012,3.012,0,0,1,593.6357,354.36Zm-.0722-5.5918a1.7731,1.7731,0,0,0-.6963.1318,1.7154,1.7154,0,0,0-.5459.3662,1.5919,1.5919,0,0,0-.36.5586,1.94,1.94,0,0,0-.1259.7081v.0957h3.3486v-.1319a1.7586,1.7586,0,0,0-.4443-1.2539A1.5349,1.5349,0,0,0,593.5635,348.7682Z"/><path class="cls-7" d="M611.0947,354.9127a1.4985,1.4985,0,0,1-.7861,1.3975,4.9641,4.9641,0,0,1-2.3936.45,7.3125,7.3125,0,0,1-1.32-.1016,2.7092,2.7092,0,0,1-.8759-.3008,1.315,1.315,0,0,1-.4922-.4736,1.2744,1.2744,0,0,1-.1563-.6357,1.0914,1.0914,0,0,1,.27-.7862,1.6016,1.6016,0,0,1,.7735-.414v-.1319a1.0767,1.0767,0,0,1-.4493-.33.8468.8468,0,0,1-.1621-.5342.8353.8353,0,0,1,.3116-.7139,2.195,2.195,0,0,1,.8046-.3545v-.0595a1.9516,1.9516,0,0,1-.8886-.7383,2.0956,2.0956,0,0,1-.3116-1.1582,2.1971,2.1971,0,0,1,.1739-.8819,1.8468,1.8468,0,0,1,.498-.6777,2.3775,2.3775,0,0,1,.7735-.4316,3.037,3.037,0,0,1,1.0019-.1563,2.8523,2.8523,0,0,1,1.2.2275v-.1552a.973.973,0,0,1,.1865-.6084.7141.7141,0,0,1,.6055-.2442h1.1279v.9483H609.57v.36a1.83,1.83,0,0,1,.57.69,2.2826,2.2826,0,0,1,.0186,1.8183,1.9007,1.9007,0,0,1-.5049.6719,2.3688,2.3688,0,0,1-.7793.4317,3.0946,3.0946,0,0,1-1.0088.1562c-.1113,0-.2236-.0039-.3359-.0117a2.1364,2.1364,0,0,1-.3233-.0479c-.0888.0235-.1767.0518-.2646.084a1.0732,1.0732,0,0,0-.252.1319.7282.7282,0,0,0-.1914.1914.4461.4461,0,0,0-.0722.2519.3549.3549,0,0,0,.2763.3721,2.46,2.46,0,0,0,.708.084h1.3672a2.7576,2.7576,0,0,1,1.7705.456A1.5131,1.5131,0,0,1,611.0947,354.9127Zm-1.0439.06a.65.65,0,0,0-.2822-.5459,1.7246,1.7246,0,0,0-.99-.21h-2.1357a.8011.8011,0,0,0-.5518.7676.857.857,0,0,0,.3057.66,1.5411,1.5411,0,0,0,1.0381.2763h.96a2.5518,2.5518,0,0,0,1.2246-.24A.7671.7671,0,0,0,610.0508,354.9723Zm-2.1846-3.6123a1.3934,1.3934,0,0,0,1.0088-.3174,1.1318,1.1318,0,0,0,.3232-.8457V349.86a1.1318,1.1318,0,0,0-.3232-.8457,1.3934,1.3934,0,0,0-1.0088-.3174,1.3466,1.3466,0,0,0-.9951.3174,1.1518,1.1518,0,0,0-.3125.8457v.3369a1.1518,1.1518,0,0,0,.3125.8457A1.3466,1.3466,0,0,0,607.8662,351.36Z"/><path class="cls-7" d="M612.4268,353.2926h1.74v-4.3437h-1.74v-.9248h2.8564v1.5966h.0713a2.2249,2.2249,0,0,1,.7148-1.1767,2.058,2.058,0,0,1,1.35-.42h.8165v1.0927h-1.2a1.7516,1.7516,0,0,0-1.2784.4619,1.5913,1.5913,0,0,0-.4736,1.1934v2.52h2.34v.9238h-5.1962Z"/><path class="cls-7" d="M622.3145,354.36a2.9967,2.9967,0,0,1-1.2-.2275,2.5258,2.5258,0,0,1-.8995-.6485,2.8624,2.8624,0,0,1-.57-1.0195,4.6576,4.6576,0,0,1,0-2.6885,2.88,2.88,0,0,1,.57-1.0195,2.5258,2.5258,0,0,1,.8995-.6485,3.2641,3.2641,0,0,1,2.3945,0,2.516,2.516,0,0,1,.9062.6485,2.8921,2.8921,0,0,1,.5694,1.0195,4.6576,4.6576,0,0,1,0,2.6885,2.8746,2.8746,0,0,1-.5694,1.0195,2.516,2.516,0,0,1-.9062.6485A3.0083,3.0083,0,0,1,622.3145,354.36Zm0-.9238a1.6427,1.6427,0,0,0,1.2246-.4619,1.9153,1.9153,0,0,0,.455-1.3975v-.9121a1.9193,1.9193,0,0,0-.455-1.3985,1.8531,1.8531,0,0,0-2.4483,0,1.9152,1.9152,0,0,0-.456,1.3985v.9121a1.9112,1.9112,0,0,0,.456,1.3975A1.6388,1.6388,0,0,0,622.3145,353.4362Z"/><path class="cls-7" d="M630.8945,353.1842h-.0478a2.1647,2.1647,0,0,1-.2461.45,1.8032,1.8032,0,0,1-.36.3721,1.6441,1.6441,0,0,1-.498.2578,2.1136,2.1136,0,0,1-.6719.0957,2.0279,2.0279,0,0,1-1.542-.6113,2.4289,2.4289,0,0,1-.582-1.74v-3.9843h1.1162v3.792q0,1.5966,1.38,1.5966a2.1556,2.1556,0,0,0,.5342-.0664,1.4023,1.4023,0,0,0,.4619-.21,1.1334,1.1334,0,0,0,.33-.36.98.98,0,0,0,.1259-.5039v-4.248h1.1162v6.1923h-1.1162Z"/><path class="cls-7" d="M634.1709,348.0241h1.1152v1.0322h.0606a1.9415,1.9415,0,0,1,1.8955-1.1758,2.0955,2.0955,0,0,1,1.7588.84,4.8092,4.8092,0,0,1,0,4.8,2.2967,2.2967,0,0,1-2.91.54,2.06,2.06,0,0,1-.7441-.876h-.0606v3.4326h-1.1152Zm2.6152,5.3886a1.5708,1.5708,0,0,0,1.2305-.4863,1.8537,1.8537,0,0,0,.4375-1.29v-1.0323a1.8554,1.8554,0,0,0-.4375-1.29,1.5737,1.5737,0,0,0-1.2305-.4854,2.0125,2.0125,0,0,0-.5693.0782,1.486,1.486,0,0,0-.4805.2334,1.1617,1.1617,0,0,0-.33.3779,1.0843,1.0843,0,0,0-.12.5225v2.16a1.1154,1.1154,0,0,0,.12.5274,1.0708,1.0708,0,0,0,.33.3779,1.5385,1.5385,0,0,0,.4805.2285A2.049,2.049,0,0,0,636.7861,353.4127Z"/><path class="cls-5" d="M229.6641,126.8078l-.6719-2.3165h-2.82l-.6719,2.3165h-1.188l2.5078-8.376h1.5723l2.5078,8.376Zm-2.0279-7.1758h-.1084l-1.104,3.8759H228.74Z"/><path class="cls-5" d="M235.0278,126.9513a3.0717,3.0717,0,0,1-1.2182-.2275,2.4256,2.4256,0,0,1-.9-.6543,2.99,2.99,0,0,1-.564-1.02,4.6037,4.6037,0,0,1,0-2.67,2.9847,2.9847,0,0,1,.564-1.0263,2.4245,2.4245,0,0,1,.9-.6543,3.0533,3.0533,0,0,1,1.206-.2276,2.5414,2.5414,0,0,1,1.4942.4014,2.4065,2.4065,0,0,1,.8457,1.0508l-.876.4795a1.5027,1.5027,0,0,0-.5337-.72,1.5522,1.5522,0,0,0-.93-.2636,1.5693,1.5693,0,0,0-1.2417.4951,1.8454,1.8454,0,0,0-.438,1.2715v1.05a1.8452,1.8452,0,0,0,.438,1.2714,1.5971,1.5971,0,0,0,1.2657.4961,1.6185,1.6185,0,0,0,.9843-.2822,2.0779,2.0779,0,0,0,.624-.7617l.8038.5273a2.4293,2.4293,0,0,1-.876,1.0508A2.6733,2.6733,0,0,1,235.0278,126.9513Z"/><path class="cls-5" d="M242.228,126.9513a3.0717,3.0717,0,0,1-1.2182-.2275,2.4256,2.4256,0,0,1-.9-.6543,2.99,2.99,0,0,1-.564-1.02,4.6037,4.6037,0,0,1,0-2.67,2.9847,2.9847,0,0,1,.564-1.0263,2.4245,2.4245,0,0,1,.9-.6543,3.0533,3.0533,0,0,1,1.206-.2276,2.5414,2.5414,0,0,1,1.4942.4014,2.4065,2.4065,0,0,1,.8457,1.0508l-.876.4795a1.5033,1.5033,0,0,0-.5337-.72,1.5522,1.5522,0,0,0-.93-.2636,1.5693,1.5693,0,0,0-1.2417.4951,1.8454,1.8454,0,0,0-.438,1.2715v1.05a1.8452,1.8452,0,0,0,.438,1.2714,1.597,1.597,0,0,0,1.2656.4961,1.6188,1.6188,0,0,0,.9844-.2822,2.0779,2.0779,0,0,0,.624-.7617l.8038.5273a2.4293,2.4293,0,0,1-.876,1.0508A2.6733,2.6733,0,0,1,242.228,126.9513Z"/><path class="cls-5" d="M249.2,126.9513a2.9957,2.9957,0,0,1-1.2-.2275,2.5238,2.5238,0,0,1-.9-.6485,2.86,2.86,0,0,1-.57-1.0195,4.6554,4.6554,0,0,1,0-2.6885,2.8773,2.8773,0,0,1,.57-1.0195,2.5223,2.5223,0,0,1,.9-.6484,3.2617,3.2617,0,0,1,2.3941,0,2.5111,2.5111,0,0,1,.9062.6484,2.8835,2.8835,0,0,1,.57,1.0195,4.6667,4.6667,0,0,1,0,2.6885,2.8661,2.8661,0,0,1-.57,1.0195,2.5125,2.5125,0,0,1-.9062.6485A3.0063,3.0063,0,0,1,249.2,126.9513Zm0-.9238a1.6407,1.6407,0,0,0,1.2241-.4619,1.9154,1.9154,0,0,0,.4556-1.3975v-.9121a1.9192,1.9192,0,0,0-.4556-1.3984,1.8527,1.8527,0,0,0-2.4482,0,1.9171,1.9171,0,0,0-.4561,1.3984v.9121a1.9134,1.9134,0,0,0,.4561,1.3975A1.64,1.64,0,0,0,249.2,126.0275Z"/><path class="cls-5" d="M257.78,125.7755h-.0479a2.1372,2.1372,0,0,1-.2461.45,1.79,1.79,0,0,1-.36.3721,1.6577,1.6577,0,0,1-.4981.2578,2.1137,2.1137,0,0,1-.6723.0957,2.0285,2.0285,0,0,1-1.542-.6113,2.4287,2.4287,0,0,1-.5816-1.74v-3.9843h1.1158v3.792q0,1.5966,1.38,1.5966a2.1491,2.1491,0,0,0,.5342-.0664,1.3968,1.3968,0,0,0,.4619-.21,1.1255,1.1255,0,0,0,.33-.36.9794.9794,0,0,0,.126-.5039v-4.248h1.1162v6.1924H257.78Z"/><path class="cls-5" d="M261.1035,126.8078v-6.1924H262.22v1.0322h.0479a2.4251,2.4251,0,0,1,.2461-.4434,1.6311,1.6311,0,0,1,.8579-.6367,2.1416,2.1416,0,0,1,.6719-.0957,2.0282,2.0282,0,0,1,1.5419.6123,2.4225,2.4225,0,0,1,.5821,1.7393v3.9844h-1.1162v-3.792q0-1.5953-1.38-1.5957a2.1424,2.1424,0,0,0-.5337.0654,1.3947,1.3947,0,0,0-.4624.21,1.1424,1.1424,0,0,0-.33.36.98.98,0,0,0-.126.5039v4.2481Z"/><path class="cls-5" d="M271.1353,126.8078a1.4015,1.4015,0,0,1-1.1163-.4141,1.58,1.58,0,0,1-.36-1.0742V121.54h-1.98v-.9248h1.44a.657.657,0,0,0,.462-.1319.6356.6356,0,0,0,.1381-.4677v-1.584h1.0562v2.1836h2.748v.9248h-2.748v4.3437h2.748v.9239Z"/><path class="cls-5" d="M288.3789,127.504a1.499,1.499,0,0,1-.7856,1.3975,4.9653,4.9653,0,0,1-2.3941.45,7.3164,7.3164,0,0,1-1.32-.1016,2.7209,2.7209,0,0,1-.876-.3007,1.3113,1.3113,0,0,1-.4917-.4737,1.27,1.27,0,0,1-.1562-.6357,1.0912,1.0912,0,0,1,.27-.7862,1.6058,1.6058,0,0,1,.7739-.414v-.1319a1.0774,1.0774,0,0,1-.45-.33.85.85,0,0,1-.1621-.5342.8359.8359,0,0,1,.312-.7139,2.1929,2.1929,0,0,1,.8042-.3545v-.0595a1.9526,1.9526,0,0,1-.8882-.7383,2.0958,2.0958,0,0,1-.312-1.1582,2.2039,2.2039,0,0,1,.1739-.8819,1.8468,1.8468,0,0,1,.498-.6777,2.3847,2.3847,0,0,1,.7739-.4316,3.0338,3.0338,0,0,1,1.002-.1563,2.8529,2.8529,0,0,1,1.2.2276v-.1553a.9727.9727,0,0,1,.186-.6084.715.715,0,0,1,.606-.2442h1.1279v.9483h-1.416V121a1.835,1.835,0,0,1,.57.6895,2.2864,2.2864,0,0,1,.0181,1.8183,1.9065,1.9065,0,0,1-.5044.6719,2.3723,2.3723,0,0,1-.78.4317,3.0872,3.0872,0,0,1-1.0083.1562q-.1677,0-.336-.0117a2.1435,2.1435,0,0,1-.3237-.0479c-.0884.0235-.1763.0518-.2641.084a1.0732,1.0732,0,0,0-.252.1319.7289.7289,0,0,0-.1919.1914.4462.4462,0,0,0-.0723.2519.3553.3553,0,0,0,.2764.3721,2.46,2.46,0,0,0,.708.084h1.3677a2.7561,2.7561,0,0,1,1.77.456A1.5131,1.5131,0,0,1,288.3789,127.504Zm-1.0439.06a.6505.6505,0,0,0-.2818-.5459,1.7266,1.7266,0,0,0-.99-.21h-2.1358a.8015.8015,0,0,0-.5522.7675.8575.8575,0,0,0,.3062.66,1.54,1.54,0,0,0,1.038.2764h.96a2.5514,2.5514,0,0,0,1.2241-.24A.7662.7662,0,0,0,287.335,127.5636Zm-2.1841-3.6123a1.3922,1.3922,0,0,0,1.0083-.3174,1.1321,1.1321,0,0,0,.3237-.8457v-.3369a1.1321,1.1321,0,0,0-.3237-.8457,1.3922,1.3922,0,0,0-1.0083-.3174,1.3472,1.3472,0,0,0-.9956.3174,1.1535,1.1535,0,0,0-.312.8457v.3369a1.1535,1.1535,0,0,0,.312.8457A1.3472,1.3472,0,0,0,285.1509,123.9513Z"/><path class="cls-5" d="M289.7109,125.8839h1.74V121.54h-1.74v-.9248h2.856v1.5967h.0718a2.2242,2.2242,0,0,1,.7143-1.1768,2.059,2.059,0,0,1,1.35-.42h.8164v1.0927h-1.2a1.7492,1.7492,0,0,0-1.2778.462,1.5913,1.5913,0,0,0-.4741,1.1933v2.52h2.34v.9239h-5.1958Z"/><path class="cls-5" d="M299.5991,126.9513a2.9957,2.9957,0,0,1-1.2-.2275,2.5238,2.5238,0,0,1-.9-.6485,2.86,2.86,0,0,1-.57-1.0195,4.6576,4.6576,0,0,1,0-2.6885,2.8773,2.8773,0,0,1,.57-1.0195,2.5223,2.5223,0,0,1,.9-.6484,3.2617,3.2617,0,0,1,2.3941,0,2.5111,2.5111,0,0,1,.9062.6484,2.8835,2.8835,0,0,1,.57,1.0195,4.6667,4.6667,0,0,1,0,2.6885,2.8661,2.8661,0,0,1-.57,1.0195,2.5125,2.5125,0,0,1-.9062.6485A3.0059,3.0059,0,0,1,299.5991,126.9513Zm0-.9238a1.6407,1.6407,0,0,0,1.2241-.4619,1.915,1.915,0,0,0,.4556-1.3975v-.9121a1.9187,1.9187,0,0,0-.4556-1.3984,1.8527,1.8527,0,0,0-2.4482,0,1.9171,1.9171,0,0,0-.4561,1.3984v.9121a1.9134,1.9134,0,0,0,.4561,1.3975A1.64,1.64,0,0,0,299.5991,126.0275Z"/><path class="cls-5" d="M308.1787,125.7755h-.0478a2.1417,2.1417,0,0,1-.2461.45,1.7879,1.7879,0,0,1-.36.3721,1.6559,1.6559,0,0,1-.498.2578,2.1144,2.1144,0,0,1-.6724.0957,2.0285,2.0285,0,0,1-1.542-.6113,2.4287,2.4287,0,0,1-.5815-1.74v-3.9843h1.1157v3.792q0,1.5966,1.38,1.5966a2.1489,2.1489,0,0,0,.5341-.0664,1.3982,1.3982,0,0,0,.462-.21,1.1252,1.1252,0,0,0,.33-.36.9794.9794,0,0,0,.126-.5039v-4.248h1.1162v6.1924h-1.1162Z"/><path class="cls-5" d="M311.4546,120.6154H312.57v1.0322h.06a2.18,2.18,0,0,1,3.6543-.3359,4.8092,4.8092,0,0,1,0,4.8,2.2967,2.2967,0,0,1-2.91.54,2.0673,2.0673,0,0,1-.7441-.876h-.06v3.4326h-1.1157Zm2.6157,5.3886a1.57,1.57,0,0,0,1.23-.4863,1.854,1.854,0,0,0,.438-1.29v-1.0323a1.8557,1.8557,0,0,0-.438-1.29,1.5726,1.5726,0,0,0-1.23-.4853,2.016,2.016,0,0,0-.57.0781,1.4884,1.4884,0,0,0-.48.2334,1.1569,1.1569,0,0,0-.33.3779,1.0843,1.0843,0,0,0-.12.5225v2.16a1.1154,1.1154,0,0,0,.12.5274,1.0659,1.0659,0,0,0,.33.3779,1.5411,1.5411,0,0,0,.48.2285A2.0526,2.0526,0,0,0,314.07,126.004Z"/><path class="cls-5" d="M224,124.1193v-.8155h93.5986v.8155Z"/><path class="cls-5" d="M251.272,203l-.6719-2.3164h-2.82L247.1079,203H245.92l2.5078-8.3759H250L252.5078,203Zm-2.0279-7.1757h-.1084l-1.104,3.8759h2.3164Z"/><path class="cls-5" d="M256.6357,203.1432a3.0717,3.0717,0,0,1-1.2182-.2275,2.4267,2.4267,0,0,1-.9-.6543,2.99,2.99,0,0,1-.564-1.02,4.6059,4.6059,0,0,1,0-2.67,2.9861,2.9861,0,0,1,.564-1.0264,2.4267,2.4267,0,0,1,.9-.6543,3.0551,3.0551,0,0,1,1.206-.2275,2.5414,2.5414,0,0,1,1.4942.4014,2.4058,2.4058,0,0,1,.8457,1.0508l-.876.48a1.5027,1.5027,0,0,0-.5337-.72,1.5522,1.5522,0,0,0-.93-.2636,1.5693,1.5693,0,0,0-1.2417.4951,1.8457,1.8457,0,0,0-.438,1.2715v1.05a1.8456,1.8456,0,0,0,.438,1.2714,1.5971,1.5971,0,0,0,1.2657.4961,1.6185,1.6185,0,0,0,.9843-.2822,2.0791,2.0791,0,0,0,.6241-.7617l.8037.5273a2.4293,2.4293,0,0,1-.876,1.0508A2.6733,2.6733,0,0,1,256.6357,203.1432Z"/><path class="cls-5" d="M263.8359,203.1432a3.0717,3.0717,0,0,1-1.2182-.2275,2.4267,2.4267,0,0,1-.9-.6543,2.99,2.99,0,0,1-.564-1.02,4.6059,4.6059,0,0,1,0-2.67,2.9861,2.9861,0,0,1,.564-1.0264,2.4267,2.4267,0,0,1,.9-.6543,3.0551,3.0551,0,0,1,1.206-.2275,2.5414,2.5414,0,0,1,1.4942.4014,2.4058,2.4058,0,0,1,.8457,1.0508l-.876.48a1.5027,1.5027,0,0,0-.5337-.72,1.5522,1.5522,0,0,0-.93-.2636,1.5693,1.5693,0,0,0-1.2417.4951,1.8457,1.8457,0,0,0-.438,1.2715v1.05a1.8456,1.8456,0,0,0,.438,1.2714,1.5971,1.5971,0,0,0,1.2657.4961,1.6185,1.6185,0,0,0,.9843-.2822,2.0791,2.0791,0,0,0,.6241-.7617l.8037.5273a2.4293,2.4293,0,0,1-.876,1.0508A2.6733,2.6733,0,0,1,263.8359,203.1432Z"/><path class="cls-5" d="M270.8076,203.1432a2.9957,2.9957,0,0,1-1.2-.2275,2.5238,2.5238,0,0,1-.9-.6485,2.86,2.86,0,0,1-.57-1.0195,4.6576,4.6576,0,0,1,0-2.6885,2.8773,2.8773,0,0,1,.57-1.0195,2.5238,2.5238,0,0,1,.9-.6485,3.263,3.263,0,0,1,2.3941,0,2.5125,2.5125,0,0,1,.9062.6485,2.8835,2.8835,0,0,1,.57,1.0195,4.6667,4.6667,0,0,1,0,2.6885,2.8661,2.8661,0,0,1-.57,1.0195,2.5125,2.5125,0,0,1-.9062.6485A3.0059,3.0059,0,0,1,270.8076,203.1432Zm0-.9238a1.6407,1.6407,0,0,0,1.2241-.4619,1.9154,1.9154,0,0,0,.4556-1.3975v-.9121a1.919,1.919,0,0,0-.4556-1.3984,1.8527,1.8527,0,0,0-2.4482,0,1.917,1.917,0,0,0-.4561,1.3984v.9121a1.9134,1.9134,0,0,0,.4561,1.3975A1.64,1.64,0,0,0,270.8076,202.2194Z"/><path class="cls-5" d="M279.3877,201.9674H279.34a2.1414,2.1414,0,0,1-.246.45,1.79,1.79,0,0,1-.36.3721,1.6565,1.6565,0,0,1-.4981.2578,2.1137,2.1137,0,0,1-.6723.0957,2.0285,2.0285,0,0,1-1.542-.6113,2.4287,2.4287,0,0,1-.5816-1.74v-3.9843h1.1158v3.792q0,1.5966,1.38,1.5966a2.1491,2.1491,0,0,0,.5342-.0664,1.3968,1.3968,0,0,0,.4619-.21,1.1265,1.1265,0,0,0,.33-.36.9794.9794,0,0,0,.126-.5039v-4.248h1.1162V203h-1.1162Z"/><path class="cls-5" d="M282.7114,203v-6.1923h1.1162V197.84h.0479a2.431,2.431,0,0,1,.2461-.4434,1.6311,1.6311,0,0,1,.8579-.6367,2.1416,2.1416,0,0,1,.6719-.0957,2.0286,2.0286,0,0,1,1.542.6123,2.4229,2.4229,0,0,1,.582,1.7393V203h-1.1162v-3.7919q0-1.5952-1.38-1.5957a2.1424,2.1424,0,0,0-.5337.0654,1.3947,1.3947,0,0,0-.4624.21,1.1424,1.1424,0,0,0-.33.36.9794.9794,0,0,0-.126.5039V203Z"/><path class="cls-5" d="M292.7432,203a1.4013,1.4013,0,0,1-1.1162-.414,1.5792,1.5792,0,0,1-.36-1.0742v-3.7793h-1.98v-.9248h1.44a.6568.6568,0,0,0,.4619-.1319.6356.6356,0,0,0,.1381-.4677v-1.584h1.0562v2.1836h2.748v.9248h-2.748v4.3437h2.748V203Z"/><path class="cls-5" d="M245.6079,200.3112v-.8155h50.3994v.8155Z"/><path class="cls-7" d="M486.7715,126.8073l-.6719-2.3164h-2.82l-.6719,2.3164H481.42l2.5078-8.376H485.5l2.5078,8.376Zm-2.0274-7.1758h-.1084l-1.1045,3.876h2.3165Z"/><path class="cls-7" d="M492.1357,126.9508a3.0759,3.0759,0,0,1-1.2187-.2275,2.4278,2.4278,0,0,1-.8994-.6543,2.9919,2.9919,0,0,1-.5645-1.02,4.6174,4.6174,0,0,1,0-2.67,2.9872,2.9872,0,0,1,.5645-1.0263,2.4267,2.4267,0,0,1,.8994-.6543,3.0551,3.0551,0,0,1,1.206-.2276,2.5412,2.5412,0,0,1,1.4942.4014,2.4023,2.4023,0,0,1,.8457,1.0508l-.876.48a1.5022,1.5022,0,0,0-.5332-.72,1.7915,1.7915,0,0,0-2.1719.2315,1.8437,1.8437,0,0,0-.4384,1.2715v1.05a1.8437,1.8437,0,0,0,.4384,1.2715,1.5968,1.5968,0,0,0,1.2657.4961,1.6205,1.6205,0,0,0,.9843-.2823,2.0791,2.0791,0,0,0,.6241-.7617l.8037.5274a2.4365,2.4365,0,0,1-.876,1.0507A2.6744,2.6744,0,0,1,492.1357,126.9508Z"/><path class="cls-7" d="M499.3359,126.9508a3.0759,3.0759,0,0,1-1.2187-.2275,2.4278,2.4278,0,0,1-.8994-.6543,2.9919,2.9919,0,0,1-.5645-1.02,4.6174,4.6174,0,0,1,0-2.67,2.9872,2.9872,0,0,1,.5645-1.0263,2.4267,2.4267,0,0,1,.8994-.6543,3.0551,3.0551,0,0,1,1.206-.2276,2.5412,2.5412,0,0,1,1.4942.4014,2.4023,2.4023,0,0,1,.8457,1.0508l-.876.48a1.5022,1.5022,0,0,0-.5332-.72,1.7915,1.7915,0,0,0-2.1719.2315,1.8437,1.8437,0,0,0-.4384,1.2715v1.05a1.8437,1.8437,0,0,0,.4384,1.2715,1.5967,1.5967,0,0,0,1.2657.4961,1.6205,1.6205,0,0,0,.9843-.2823,2.0791,2.0791,0,0,0,.6241-.7617l.8037.5274a2.4365,2.4365,0,0,1-.876,1.0507A2.6744,2.6744,0,0,1,499.3359,126.9508Z"/><path class="cls-7" d="M506.3076,126.9508a2.994,2.994,0,0,1-1.2-.2275,2.5213,2.5213,0,0,1-.9-.6485,2.8592,2.8592,0,0,1-.5693-1.0195,4.6576,4.6576,0,0,1,0-2.6885,2.8765,2.8765,0,0,1,.5693-1.0195,2.52,2.52,0,0,1,.9-.6484,3.26,3.26,0,0,1,2.3936,0,2.5068,2.5068,0,0,1,.9062.6484,2.8767,2.8767,0,0,1,.57,1.0195,4.678,4.678,0,0,1,0,2.6885,2.8594,2.8594,0,0,1-.57,1.0195,2.5083,2.5083,0,0,1-.9062.6485A3.0034,3.0034,0,0,1,506.3076,126.9508Zm0-.9238a1.6388,1.6388,0,0,0,1.2236-.4619,1.9149,1.9149,0,0,0,.4561-1.3975v-.9121a1.9189,1.9189,0,0,0-.4561-1.3984,1.853,1.853,0,0,0-2.4482,0,1.9193,1.9193,0,0,0-.456,1.3984v.9121a1.9153,1.9153,0,0,0,.456,1.3975A1.6411,1.6411,0,0,0,506.3076,126.027Z"/><path class="cls-7" d="M514.8877,125.775H514.84a2.16,2.16,0,0,1-.246.45,1.8058,1.8058,0,0,1-.36.3721,1.6453,1.6453,0,0,1-.498.2578,2.1116,2.1116,0,0,1-.6719.0957,2.0277,2.0277,0,0,1-1.542-.6113,2.4288,2.4288,0,0,1-.582-1.74v-3.9844h1.1162v3.792q0,1.5966,1.38,1.5967a2.1551,2.1551,0,0,0,.5342-.0665,1.4014,1.4014,0,0,0,.4619-.21,1.1312,1.1312,0,0,0,.33-.36.9794.9794,0,0,0,.126-.5039v-4.248h1.1162v6.1924h-1.1162Z"/><path class="cls-7" d="M518.2109,126.8073v-6.1924h1.1162v1.0322h.0479a2.4924,2.4924,0,0,1,.2461-.4434,1.635,1.635,0,0,1,.8584-.6367,2.1423,2.1423,0,0,1,.6719-.0957,2.03,2.03,0,0,1,1.542.6123,2.4248,2.4248,0,0,1,.582,1.7393v3.9844h-1.1162v-3.792q0-1.5952-1.38-1.5957a2.1482,2.1482,0,0,0-.5342.0654,1.3923,1.3923,0,0,0-.4619.21,1.1426,1.1426,0,0,0-.33.36.98.98,0,0,0-.126.5039v4.2481Z"/><path class="cls-7" d="M528.2432,126.8073a1.4013,1.4013,0,0,1-1.1162-.4141,1.577,1.577,0,0,1-.36-1.0742V121.54h-1.98v-.9248h1.4395a.6559.6559,0,0,0,.4619-.1319.6354.6354,0,0,0,.1386-.4677v-1.584h1.0557v2.1836h2.7481v.9248h-2.7481v4.3437h2.7481v.9239Z"/><path class="cls-7" d="M545.4863,127.5036a1.4994,1.4994,0,0,1-.7851,1.3974,4.9659,4.9659,0,0,1-2.3946.45,7.32,7.32,0,0,1-1.32-.1016,2.7289,2.7289,0,0,1-.8759-.3007,1.3064,1.3064,0,0,1-.4913-.4737,1.2647,1.2647,0,0,1-.1562-.6357,1.0909,1.0909,0,0,1,.2695-.7861,1.6092,1.6092,0,0,1,.7744-.4141v-.1318a1.0808,1.0808,0,0,1-.45-.33.8529.8529,0,0,1-.1621-.5342.8362.8362,0,0,1,.3125-.7139,2.19,2.19,0,0,1,.8037-.3545v-.0595a1.9549,1.9549,0,0,1-.8877-.7383,2.096,2.096,0,0,1-.3125-1.1582,2.212,2.212,0,0,1,.1739-.8818,1.8464,1.8464,0,0,1,.498-.6778,2.3925,2.3925,0,0,1,.7744-.4316,3.03,3.03,0,0,1,1.002-.1563,2.8539,2.8539,0,0,1,1.2.2276v-.1553a.9725.9725,0,0,1,.1855-.6084.7161.7161,0,0,1,.6065-.2441h1.1279v.9482h-1.416V121a1.84,1.84,0,0,1,.57.6895,2.2882,2.2882,0,0,1,.0176,1.8184,1.9105,1.9105,0,0,1-.5039.6718,2.372,2.372,0,0,1-.78.4317,3.0816,3.0816,0,0,1-1.0078.1562c-.1123,0-.2236-.0039-.3359-.0117a2.1624,2.1624,0,0,1-.3243-.0478c-.0879.0234-.1757.0517-.2636.0839a1.0732,1.0732,0,0,0-.252.1319.7311.7311,0,0,0-.1924.1914.4461.4461,0,0,0-.0722.2519.3557.3557,0,0,0,.2763.3721,2.46,2.46,0,0,0,.708.084h1.3682a2.7545,2.7545,0,0,1,1.7695.456A1.5133,1.5133,0,0,1,545.4863,127.5036Zm-1.0439.0595a.6513.6513,0,0,0-.2813-.5459,1.7286,1.7286,0,0,0-.99-.21h-2.1357a.8019.8019,0,0,0-.5528.7675.8581.8581,0,0,0,.3067.66,1.54,1.54,0,0,0,1.038.2764h.96a2.55,2.55,0,0,0,1.2236-.24A.7654.7654,0,0,0,544.4424,127.5631Zm-2.1836-3.6123a1.39,1.39,0,0,0,1.0078-.3174,1.1324,1.1324,0,0,0,.3242-.8457v-.3369a1.1326,1.1326,0,0,0-.3242-.8457,1.3909,1.3909,0,0,0-1.0078-.3174,1.3477,1.3477,0,0,0-.9961.3174,1.1554,1.1554,0,0,0-.3115.8457v.3369a1.1552,1.1552,0,0,0,.3115.8457A1.3473,1.3473,0,0,0,542.2588,123.9508Z"/><path class="cls-7" d="M546.8184,125.8834h1.74V121.54h-1.74v-.9248h2.8564v1.5967h.0713a2.2252,2.2252,0,0,1,.7148-1.1768,2.058,2.058,0,0,1,1.35-.42h.8165v1.0928h-1.2a1.7512,1.7512,0,0,0-1.2784.4619,1.5909,1.5909,0,0,0-.4736,1.1933v2.52h2.34v.9239h-5.1962Z"/><path class="cls-7" d="M556.707,126.9508a2.994,2.994,0,0,1-1.2-.2275,2.5213,2.5213,0,0,1-.9-.6485,2.8592,2.8592,0,0,1-.5693-1.0195,4.6576,4.6576,0,0,1,0-2.6885,2.8765,2.8765,0,0,1,.5693-1.0195,2.52,2.52,0,0,1,.9-.6484,3.26,3.26,0,0,1,2.3936,0,2.5068,2.5068,0,0,1,.9062.6484,2.8784,2.8784,0,0,1,.57,1.0195,4.68,4.68,0,0,1,0,2.6885,2.8611,2.8611,0,0,1-.57,1.0195,2.5083,2.5083,0,0,1-.9062.6485A3.0034,3.0034,0,0,1,556.707,126.9508Zm0-.9238a1.6388,1.6388,0,0,0,1.2237-.4619,1.9153,1.9153,0,0,0,.456-1.3975v-.9121a1.9193,1.9193,0,0,0-.456-1.3984,1.8531,1.8531,0,0,0-2.4483,0,1.9193,1.9193,0,0,0-.456,1.3984v.9121a1.9153,1.9153,0,0,0,.456,1.3975A1.6411,1.6411,0,0,0,556.707,126.027Z"/><path class="cls-7" d="M565.2861,125.775h-.0478a2.1193,2.1193,0,0,1-.2461.45,1.7728,1.7728,0,0,1-.3594.3721,1.6679,1.6679,0,0,1-.498.2578,2.1172,2.1172,0,0,1-.6729.0957,2.0294,2.0294,0,0,1-1.542-.6113,2.4284,2.4284,0,0,1-.581-1.74v-3.9844h1.1152v3.792q0,1.5966,1.38,1.5967a2.1439,2.1439,0,0,0,.5342-.0665,1.394,1.394,0,0,0,.4619-.21,1.121,1.121,0,0,0,.33-.36.98.98,0,0,0,.1259-.5039v-4.248h1.1162v6.1924h-1.1162Z"/><path class="cls-7" d="M568.5625,120.6149h1.1152v1.0322h.0606a1.9415,1.9415,0,0,1,1.8955-1.1758,2.0955,2.0955,0,0,1,1.7588.84,4.8092,4.8092,0,0,1,0,4.8,2.2967,2.2967,0,0,1-2.91.54,2.06,2.06,0,0,1-.7441-.876h-.0606v3.4327h-1.1152Zm2.6152,5.3887a1.5709,1.5709,0,0,0,1.2305-.4864,1.8537,1.8537,0,0,0,.4375-1.29V123.195a1.8555,1.8555,0,0,0-.4375-1.29,1.5736,1.5736,0,0,0-1.2305-.4853,2.0161,2.0161,0,0,0-.5693.0781,1.4881,1.4881,0,0,0-.4805.2334,1.1612,1.1612,0,0,0-.33.3779,1.0835,1.0835,0,0,0-.12.5225v2.16a1.114,1.114,0,0,0,.12.5274,1.07,1.07,0,0,0,.33.3779,1.5385,1.5385,0,0,0,.4805.2285A2.049,2.049,0,0,0,571.1777,126.0036Z"/><path class="cls-7" d="M494.0044,50.6417V42.2658H499.2V43.25h-4.0317v2.6514h3.9v.9844h-3.9v2.7715H499.2v.9843Z"/><path class="cls-7" d="M501.252,50.6417V44.4494h1.1162v1.0322h.0478a2.431,2.431,0,0,1,.2461-.4434,1.6322,1.6322,0,0,1,.8579-.6367,2.1416,2.1416,0,0,1,.6719-.0957,2.0286,2.0286,0,0,1,1.542.6123,2.4225,2.4225,0,0,1,.582,1.7393v3.9843H505.2V46.85q0-1.5951-1.38-1.5957a2.1424,2.1424,0,0,0-.5337.0655,1.3966,1.3966,0,0,0-.4624.21,1.1424,1.1424,0,0,0-.33.36.98.98,0,0,0-.1259.5039v4.248Z"/><path class="cls-7" d="M511.2842,50.6417a1.4016,1.4016,0,0,1-1.1162-.414,1.5792,1.5792,0,0,1-.36-1.0742V45.3742h-1.98v-.9248h1.44a.6568.6568,0,0,0,.4619-.1319.6357.6357,0,0,0,.1382-.4678V42.2658h1.0561v2.1836h2.7481v.9248h-2.7481v4.3437h2.7481v.9238Z"/><path class="cls-7" d="M518.2681,50.7853a3.2067,3.2067,0,0,1-1.2364-.2275,2.53,2.53,0,0,1-.93-.6485,2.8822,2.8822,0,0,1-.5821-1.0137,4.0956,4.0956,0,0,1-.2041-1.3378,4.0407,4.0407,0,0,1,.21-1.3438,3.03,3.03,0,0,1,.5879-1.0264,2.5491,2.5491,0,0,1,.9062-.6543,3.0974,3.0974,0,0,1,2.3159-.0058,2.5065,2.5065,0,0,1,.8819.63,2.8625,2.8625,0,0,1,.5639.9668,3.6382,3.6382,0,0,1,.1983,1.23v.4677h-4.5122v.251a1.75,1.75,0,0,0,.48,1.27,1.7686,1.7686,0,0,0,1.332.4951,2.0055,2.0055,0,0,0,1.0561-.2685,1.8726,1.8726,0,0,0,.6958-.7461l.7564.59a2.393,2.393,0,0,1-.9424.9873A3.0137,3.0137,0,0,1,518.2681,50.7853Zm-.0723-5.5918a1.7706,1.7706,0,0,0-.6958.1318,1.7132,1.7132,0,0,0-.5464.3662,1.5975,1.5975,0,0,0-.36.5586,1.9375,1.9375,0,0,0-.126.708v.0957h3.3481V46.922a1.7584,1.7584,0,0,0-.4438-1.2539A1.536,1.536,0,0,0,518.1958,45.1935Z"/><path class="cls-7" d="M522.66,49.7179h1.74V45.3742h-1.74v-.9248h2.8559V46.046h.0718a2.2243,2.2243,0,0,1,.7143-1.1767,2.0591,2.0591,0,0,1,1.35-.42h.8169v1.0927h-1.2007a1.7494,1.7494,0,0,0-1.2779.4619,1.5917,1.5917,0,0,0-.4741,1.1934v2.52h2.34v.9238H522.66Z"/><path class="cls-7" d="M530.0039,44.4494H531.12v1.0322h.06a2.18,2.18,0,0,1,3.6543-.336,3.8917,3.8917,0,0,1,.6416,2.4,3.8861,3.8861,0,0,1-.6416,2.3994A2.1151,2.1151,0,0,1,531.18,49.61h-.06v3.4326h-1.1162ZM532.62,49.838a1.5688,1.5688,0,0,0,1.23-.4863,1.8542,1.8542,0,0,0,.4385-1.29V47.0294a1.8559,1.8559,0,0,0-.4385-1.29,1.5716,1.5716,0,0,0-1.23-.4854,2.02,2.02,0,0,0-.57.0782,1.4908,1.4908,0,0,0-.48.2334,1.15,1.15,0,0,0-.33.3779,1.0843,1.0843,0,0,0-.12.5225v2.16a1.1154,1.1154,0,0,0,.12.5274,1.061,1.061,0,0,0,.33.3779,1.5459,1.5459,0,0,0,.48.2285A2.0562,2.0562,0,0,0,532.62,49.838Z"/><path class="cls-7" d="M537.06,49.7179h1.74V45.3742h-1.74v-.9248h2.8564V46.046h.0713a2.2249,2.2249,0,0,1,.7148-1.1767,2.0581,2.0581,0,0,1,1.35-.42h.8164v1.0927h-1.2a1.7514,1.7514,0,0,0-1.2784.4619,1.5913,1.5913,0,0,0-.4736,1.1934v2.52h2.34v.9238H537.06Z"/><path class="cls-7" d="M544.5957,49.7179h2.1719V45.3742h-2.1719v-.9248h3.2881v5.2685h2.04v.9238h-5.3281ZM547.332,43.19a.8654.8654,0,0,1-.6357-.1856.6388.6388,0,0,1-.1807-.4619v-.2285a.6594.6594,0,0,1,.1807-.4678,1.1471,1.1471,0,0,1,1.2715,0,.6586.6586,0,0,1,.18.4678v.2285a.638.638,0,0,1-.18.4619A.8689.8689,0,0,1,547.332,43.19Z"/><path class="cls-7" d="M554.1953,50.7853a4.13,4.13,0,0,1-1.7041-.3232,3.2063,3.2063,0,0,1-1.1758-.876l.708-.6367a3.0044,3.0044,0,0,0,.9483.7021,2.9268,2.9268,0,0,0,1.248.2461,2.25,2.25,0,0,0,1.11-.24.8059.8059,0,0,0,.4258-.7559.7469.7469,0,0,0-.084-.3662.6567.6567,0,0,0-.2285-.2393,1.159,1.159,0,0,0-.33-.1386c-.124-.0313-.2539-.06-.39-.084l-.9716-.1436q-.3487-.0483-.7208-.1377a2.2854,2.2854,0,0,1-.6777-.2822,1.591,1.591,0,0,1-.5039-.5039,1.4821,1.4821,0,0,1-.1982-.8047,1.7391,1.7391,0,0,1,.1865-.8213,1.6689,1.6689,0,0,1,.5273-.5947,2.4772,2.4772,0,0,1,.8164-.3594,4.2185,4.2185,0,0,1,1.0381-.12,3.7753,3.7753,0,0,1,1.4756.2637,3.0991,3.0991,0,0,1,1.0567.7207l-.6846.6719a1.9652,1.9652,0,0,0-.2754-.2706,1.929,1.929,0,0,0-.3965-.2461,2.7622,2.7622,0,0,0-.5283-.18,2.9978,2.9978,0,0,0-.6953-.0723,1.9484,1.9484,0,0,0-1.05.2344.756.756,0,0,0-.3662.6777.6718.6718,0,0,0,.3115.6123,1.0746,1.0746,0,0,0,.33.1436c.124.0322.2539.06.3906.0839l.9717.1446a6.57,6.57,0,0,1,.72.1435,2.5114,2.5114,0,0,1,.6777.2823,1.5338,1.5338,0,0,1,.5039.498,1.47,1.47,0,0,1,.1983.8037,1.6884,1.6884,0,0,1-.7139,1.4522A3.2716,3.2716,0,0,1,554.1953,50.7853Z"/><path class="cls-7" d="M561.4678,50.7853a3.2067,3.2067,0,0,1-1.2364-.2275,2.53,2.53,0,0,1-.93-.6485,2.8746,2.8746,0,0,1-.5821-1.0137,4.0823,4.0823,0,0,1-.2041-1.3378,4.03,4.03,0,0,1,.21-1.3438,3.03,3.03,0,0,1,.5879-1.0264,2.5447,2.5447,0,0,1,.9062-.6543,3.0964,3.0964,0,0,1,2.3155-.0058,2.5061,2.5061,0,0,1,.8818.63,2.8636,2.8636,0,0,1,.5644.9668,3.6506,3.6506,0,0,1,.1983,1.23v.4677H559.667v.251a1.7487,1.7487,0,0,0,.4805,1.27,1.7671,1.7671,0,0,0,1.332.4951,2.003,2.003,0,0,0,1.0557-.2685,1.8735,1.8735,0,0,0,.6962-.7461l.7559.59a2.39,2.39,0,0,1-.9424.9873A3.0118,3.0118,0,0,1,561.4678,50.7853Zm-.0723-5.5918a1.7731,1.7731,0,0,0-.6963.1318,1.7165,1.7165,0,0,0-.5459.3662,1.593,1.593,0,0,0-.36.5586,1.9375,1.9375,0,0,0-.126.708v.0957h3.3486V46.922a1.7586,1.7586,0,0,0-.4443-1.2539A1.5349,1.5349,0,0,0,561.3955,45.1935Z"/><path class="cls-7" d="M476.5342,279.0006l-.6719-2.3164h-2.82l-.6719,2.3164h-1.188l2.5078-8.376h1.5723l2.5078,8.376Zm-2.0279-7.1758h-.1084l-1.104,3.876H475.61Z"/><path class="cls-7" d="M481.8979,279.1442a3.07,3.07,0,0,1-1.2182-.2276,2.4245,2.4245,0,0,1-.9-.6543,2.991,2.991,0,0,1-.564-1.0195,4.6059,4.6059,0,0,1,0-2.67,2.9877,2.9877,0,0,1,.564-1.0264,2.4256,2.4256,0,0,1,.9-.6543,3.0551,3.0551,0,0,1,1.206-.2275,2.5412,2.5412,0,0,1,1.4942.4014,2.4055,2.4055,0,0,1,.8457,1.0507l-.876.4795a1.5028,1.5028,0,0,0-.5337-.72,1.5522,1.5522,0,0,0-.93-.2637,1.57,1.57,0,0,0-1.2417.4951,1.846,1.846,0,0,0-.4379,1.2715v1.05a1.8458,1.8458,0,0,0,.4379,1.2715,1.5971,1.5971,0,0,0,1.2657.4961,1.6185,1.6185,0,0,0,.9843-.2822,2.0791,2.0791,0,0,0,.6241-.7617l.8037.5273a2.4293,2.4293,0,0,1-.876,1.0508A2.6733,2.6733,0,0,1,481.8979,279.1442Z"/><path class="cls-7" d="M489.0981,279.1442a3.07,3.07,0,0,1-1.2182-.2276,2.4245,2.4245,0,0,1-.9-.6543,2.991,2.991,0,0,1-.564-1.0195,4.6059,4.6059,0,0,1,0-2.67,2.9877,2.9877,0,0,1,.564-1.0264,2.4256,2.4256,0,0,1,.9-.6543,3.0551,3.0551,0,0,1,1.206-.2275,2.5414,2.5414,0,0,1,1.4942.4014,2.4055,2.4055,0,0,1,.8457,1.0507l-.876.4795a1.5028,1.5028,0,0,0-.5337-.72,1.5522,1.5522,0,0,0-.93-.2637,1.57,1.57,0,0,0-1.2417.4951,1.8461,1.8461,0,0,0-.438,1.2715v1.05a1.8459,1.8459,0,0,0,.438,1.2715,1.5971,1.5971,0,0,0,1.2657.4961,1.6185,1.6185,0,0,0,.9843-.2822,2.0791,2.0791,0,0,0,.6241-.7617l.8037.5273a2.4293,2.4293,0,0,1-.876,1.0508A2.6733,2.6733,0,0,1,489.0981,279.1442Z"/><path class="cls-7" d="M496.07,279.1442a2.994,2.994,0,0,1-1.2-.2276,2.5223,2.5223,0,0,1-.9-.6484,2.86,2.86,0,0,1-.57-1.0195,4.6576,4.6576,0,0,1,0-2.6885,2.8765,2.8765,0,0,1,.57-1.0195,2.5238,2.5238,0,0,1,.9-.6485,3.263,3.263,0,0,1,2.3941,0,2.5125,2.5125,0,0,1,.9062.6485,2.8826,2.8826,0,0,1,.57,1.0195,4.6667,4.6667,0,0,1,0,2.6885,2.8661,2.8661,0,0,1-.57,1.0195,2.5111,2.5111,0,0,1-.9062.6484A3.0042,3.0042,0,0,1,496.07,279.1442Zm0-.9238a1.6408,1.6408,0,0,0,1.2241-.462,1.9146,1.9146,0,0,0,.4556-1.3974v-.9121a1.9188,1.9188,0,0,0-.4556-1.3985,1.853,1.853,0,0,0-2.4482,0,1.9172,1.9172,0,0,0-.4561,1.3985v.9121a1.913,1.913,0,0,0,.4561,1.3974A1.64,1.64,0,0,0,496.07,278.22Z"/><path class="cls-7" d="M504.65,277.9684h-.0478a2.1442,2.1442,0,0,1-.2461.45,1.7929,1.7929,0,0,1-.36.3721,1.6565,1.6565,0,0,1-.4981.2578,2.1161,2.1161,0,0,1-.6723.0957,2.0285,2.0285,0,0,1-1.542-.6113,2.4289,2.4289,0,0,1-.5816-1.74v-3.9844h1.1158V276.6q0,1.5968,1.38,1.5967a2.1489,2.1489,0,0,0,.5341-.0664,1.3969,1.3969,0,0,0,.4619-.21,1.1262,1.1262,0,0,0,.33-.36.98.98,0,0,0,.126-.5039v-4.2481h1.1162v6.1924H504.65Z"/><path class="cls-7" d="M507.9736,279.0006v-6.1924H509.09v1.0323h.0479a2.431,2.431,0,0,1,.2461-.4434,1.6322,1.6322,0,0,1,.8579-.6367,2.1416,2.1416,0,0,1,.6719-.0957,2.0286,2.0286,0,0,1,1.542.6123,2.4224,2.4224,0,0,1,.582,1.7392v3.9844h-1.1162v-3.792q0-1.5951-1.38-1.5957a2.1424,2.1424,0,0,0-.5337.0655,1.3947,1.3947,0,0,0-.4624.21,1.1413,1.1413,0,0,0-.33.36.9794.9794,0,0,0-.126.5039v4.248Z"/><path class="cls-7" d="M518.0054,279.0006a1.4016,1.4016,0,0,1-1.1162-.414,1.5793,1.5793,0,0,1-.36-1.0743V273.733h-1.98v-.9248h1.44a.6568.6568,0,0,0,.4619-.1318.6357.6357,0,0,0,.1382-.4678v-1.584h1.0561v2.1836h2.7481v.9248h-2.7481v4.3438h2.7481v.9238Z"/><path class="cls-7" d="M602.9561,279.0006l-.6719-2.3164h-2.82l-.6719,2.3164h-1.1885l2.5078-8.376h1.5723l2.5078,8.376Zm-2.0284-7.1758h-.1084l-1.1035,3.876h2.3164Z"/><path class="cls-7" d="M608.3193,279.1442a3.0657,3.0657,0,0,1-1.2177-.2276,2.4222,2.4222,0,0,1-.9-.6543,2.9884,2.9884,0,0,1-.5635-1.0195,4.5948,4.5948,0,0,1,0-2.67,2.9852,2.9852,0,0,1,.5635-1.0264,2.4233,2.4233,0,0,1,.9-.6543,3.0534,3.0534,0,0,1,1.206-.2275,2.5414,2.5414,0,0,1,1.4942.4014,2.41,2.41,0,0,1,.8457,1.0507l-.876.4795a1.5044,1.5044,0,0,0-.5342-.72,1.5507,1.5507,0,0,0-.93-.2637,1.5714,1.5714,0,0,0-1.2422.4951,1.8477,1.8477,0,0,0-.4375,1.2715v1.05a1.8475,1.8475,0,0,0,.4375,1.2715,1.5978,1.5978,0,0,0,1.2657.4961,1.6166,1.6166,0,0,0,.9843-.2822,2.0791,2.0791,0,0,0,.6241-.7617l.8037.5273a2.4225,2.4225,0,0,1-.876,1.0508A2.6723,2.6723,0,0,1,608.3193,279.1442Z"/><path class="cls-7" d="M615.52,279.1442a3.0657,3.0657,0,0,1-1.2177-.2276,2.4222,2.4222,0,0,1-.9-.6543,2.9884,2.9884,0,0,1-.5635-1.0195,4.5926,4.5926,0,0,1,0-2.67,2.9852,2.9852,0,0,1,.5635-1.0264,2.4233,2.4233,0,0,1,.9-.6543,3.0534,3.0534,0,0,1,1.206-.2275,2.5414,2.5414,0,0,1,1.4942.4014,2.41,2.41,0,0,1,.8457,1.0507l-.876.4795a1.5044,1.5044,0,0,0-.5342-.72,1.5507,1.5507,0,0,0-.93-.2637,1.5714,1.5714,0,0,0-1.2422.4951,1.8477,1.8477,0,0,0-.4375,1.2715v1.05a1.8475,1.8475,0,0,0,.4375,1.2715,1.5977,1.5977,0,0,0,1.2656.4961,1.6167,1.6167,0,0,0,.9844-.2822,2.0779,2.0779,0,0,0,.624-.7617l.8038.5273a2.4225,2.4225,0,0,1-.876,1.0508A2.6723,2.6723,0,0,1,615.52,279.1442Z"/><path class="cls-7" d="M622.4912,279.1442a2.9957,2.9957,0,0,1-1.2-.2276,2.524,2.524,0,0,1-.8994-.6484,2.8609,2.8609,0,0,1-.57-1.0195,4.6554,4.6554,0,0,1,0-2.6885,2.8774,2.8774,0,0,1,.57-1.0195,2.5254,2.5254,0,0,1,.8994-.6485,3.2641,3.2641,0,0,1,2.3945,0,2.5163,2.5163,0,0,1,.9063.6485,2.89,2.89,0,0,1,.5693,1.0195,4.6554,4.6554,0,0,1,0,2.6885,2.8729,2.8729,0,0,1-.5693,1.0195,2.5149,2.5149,0,0,1-.9063.6484A3.0062,3.0062,0,0,1,622.4912,279.1442Zm0-.9238a1.6427,1.6427,0,0,0,1.2246-.462,1.9149,1.9149,0,0,0,.4551-1.3974v-.9121a1.9192,1.9192,0,0,0-.4551-1.3985,1.853,1.853,0,0,0-2.4482,0,1.9151,1.9151,0,0,0-.4561,1.3985v.9121a1.9108,1.9108,0,0,0,.4561,1.3974A1.6388,1.6388,0,0,0,622.4912,278.22Z"/><path class="cls-7" d="M631.0713,277.9684h-.0479a2.1173,2.1173,0,0,1-.2461.45,1.7772,1.7772,0,0,1-.3593.3721,1.67,1.67,0,0,1-.4981.2578,2.12,2.12,0,0,1-.6728.0957,2.0292,2.0292,0,0,1-1.542-.6113,2.4287,2.4287,0,0,1-.5811-1.74v-3.9844h1.1153V276.6q0,1.5968,1.38,1.5967a2.1438,2.1438,0,0,0,.5342-.0664,1.3923,1.3923,0,0,0,.4619-.21,1.1205,1.1205,0,0,0,.33-.36.98.98,0,0,0,.126-.5039v-4.2481h1.1162v6.1924h-1.1162Z"/><path class="cls-7" d="M634.3955,279.0006v-6.1924h1.1162v1.0323h.0479a2.3669,2.3669,0,0,1,.2461-.4434,1.6272,1.6272,0,0,1,.8574-.6367,2.1438,2.1438,0,0,1,.6719-.0957,2.0271,2.0271,0,0,1,1.542.6123,2.4206,2.4206,0,0,1,.582,1.7392v3.9844h-1.1162v-3.792q0-1.5951-1.38-1.5957a2.1414,2.1414,0,0,0-.5332.0655,1.3973,1.3973,0,0,0-.4629.21,1.14,1.14,0,0,0-.3291.36.9794.9794,0,0,0-.126.5039v4.248Z"/><path class="cls-7" d="M644.4268,279.0006a1.402,1.402,0,0,1-1.1163-.414,1.582,1.582,0,0,1-.3593-1.0743V273.733h-1.9805v-.9248h1.44a.6574.6574,0,0,0,.4619-.1318.6358.6358,0,0,0,.1377-.4678v-1.584h1.0567v2.1836h2.748v.9248h-2.748v4.3438h2.748v.9238Z"/><path class="cls-5" d="M348.79,279.1442l-.6719-2.3164h-2.82l-.6719,2.3164h-1.188l2.5078-8.376h1.5723l2.5078,8.376Zm-2.0279-7.1758h-.1084l-1.104,3.876h2.3164Z"/><path class="cls-5" d="M354.1533,279.2877a3.0717,3.0717,0,0,1-1.2182-.2275,2.4245,2.4245,0,0,1-.9-.6543,2.9893,2.9893,0,0,1-.564-1.0195,4.604,4.604,0,0,1,0-2.67,2.9865,2.9865,0,0,1,.564-1.0263,2.4245,2.4245,0,0,1,.9-.6543,3.0533,3.0533,0,0,1,1.206-.2276,2.5414,2.5414,0,0,1,1.4942.4014,2.4065,2.4065,0,0,1,.8457,1.0508l-.876.4795a1.503,1.503,0,0,0-.5337-.72,1.5525,1.5525,0,0,0-.93-.2637,1.5693,1.5693,0,0,0-1.2417.4951,1.8454,1.8454,0,0,0-.438,1.2715v1.05a1.8454,1.8454,0,0,0,.438,1.2715,1.5973,1.5973,0,0,0,1.2656.4961,1.6188,1.6188,0,0,0,.9844-.2823,2.077,2.077,0,0,0,.624-.7617l.8037.5274a2.4282,2.4282,0,0,1-.8759,1.0507A2.6733,2.6733,0,0,1,354.1533,279.2877Z"/><path class="cls-5" d="M361.3535,279.2877a3.0717,3.0717,0,0,1-1.2182-.2275,2.4245,2.4245,0,0,1-.9-.6543,2.9893,2.9893,0,0,1-.564-1.0195,4.604,4.604,0,0,1,0-2.67,2.9865,2.9865,0,0,1,.564-1.0263,2.4245,2.4245,0,0,1,.9-.6543,3.0533,3.0533,0,0,1,1.206-.2276,2.5408,2.5408,0,0,1,1.4941.4014,2.406,2.406,0,0,1,.8458,1.0508l-.876.4795a1.503,1.503,0,0,0-.5337-.72,1.5525,1.5525,0,0,0-.93-.2637,1.5693,1.5693,0,0,0-1.2417.4951,1.8454,1.8454,0,0,0-.438,1.2715v1.05a1.8454,1.8454,0,0,0,.438,1.2715,1.5973,1.5973,0,0,0,1.2656.4961,1.6188,1.6188,0,0,0,.9844-.2823,2.077,2.077,0,0,0,.624-.7617l.8037.5274a2.4282,2.4282,0,0,1-.8759,1.0507A2.6733,2.6733,0,0,1,361.3535,279.2877Z"/><path class="cls-5" d="M368.3252,279.2877a2.9957,2.9957,0,0,1-1.2-.2275,2.5218,2.5218,0,0,1-.9-.6484,2.86,2.86,0,0,1-.57-1.02,4.6554,4.6554,0,0,1,0-2.6885,2.8773,2.8773,0,0,1,.57-1.02,2.5206,2.5206,0,0,1,.9-.6484,3.2614,3.2614,0,0,1,2.394,0,2.5115,2.5115,0,0,1,.9063.6484,2.8835,2.8835,0,0,1,.57,1.02,4.6667,4.6667,0,0,1,0,2.6885,2.8666,2.8666,0,0,1-.57,1.02,2.5127,2.5127,0,0,1-.9063.6484A3.0054,3.0054,0,0,1,368.3252,279.2877Zm0-.9238a1.6407,1.6407,0,0,0,1.2241-.4619,1.9151,1.9151,0,0,0,.4556-1.3975v-.9121a1.9192,1.9192,0,0,0-.4556-1.3984,1.853,1.853,0,0,0-2.4482,0,1.9171,1.9171,0,0,0-.4561,1.3984v.9121a1.9131,1.9131,0,0,0,.4561,1.3975A1.64,1.64,0,0,0,368.3252,278.3639Z"/><path class="cls-5" d="M376.9053,278.112h-.0479a2.139,2.139,0,0,1-.2461.45,1.79,1.79,0,0,1-.36.3721,1.6554,1.6554,0,0,1-.4981.2578,2.1137,2.1137,0,0,1-.6723.0957,2.0283,2.0283,0,0,1-1.542-.6113,2.4286,2.4286,0,0,1-.5816-1.74v-3.9844h1.1157v3.792q0,1.5966,1.38,1.5967a2.1544,2.1544,0,0,0,.5342-.0664,1.399,1.399,0,0,0,.4619-.21,1.1266,1.1266,0,0,0,.33-.36.9794.9794,0,0,0,.126-.5039v-4.248h1.1162v6.1924h-1.1162Z"/><path class="cls-5" d="M380.229,279.1442v-6.1924h1.1162v1.0322h.0479a2.4243,2.4243,0,0,1,.2461-.4433,1.632,1.632,0,0,1,.8579-.6368,2.1443,2.1443,0,0,1,.6718-.0957,2.0283,2.0283,0,0,1,1.542.6123,2.4228,2.4228,0,0,1,.5821,1.7393v3.9844h-1.1162v-3.792q0-1.5952-1.38-1.5957a2.1471,2.1471,0,0,0-.5337.0654,1.3969,1.3969,0,0,0-.4624.21,1.1409,1.1409,0,0,0-.33.36.98.98,0,0,0-.126.5039v4.2481Z"/><path class="cls-5" d="M390.2607,279.1442a1.4014,1.4014,0,0,1-1.1162-.4141,1.58,1.58,0,0,1-.36-1.0742v-3.7793h-1.98v-.9248h1.44a.6568.6568,0,0,0,.4619-.1318.6359.6359,0,0,0,.1382-.4678v-1.584h1.0562v2.1836h2.748v.9248h-2.748V278.22h2.748v.9238Z"/><path class="cls-5" d="M343.1255,276.4557V275.64h50.3994v.8154Z"/><path class="cls-7" d="M392.5391,203l-.6719-2.3164h-2.82L388.375,203h-1.188l2.5078-8.3759h1.5723L393.7749,203Zm-2.0279-7.1757h-.1084l-1.104,3.8759h2.3164Z"/><path class="cls-7" d="M397.9028,203.1432a3.0717,3.0717,0,0,1-1.2182-.2275,2.4267,2.4267,0,0,1-.9-.6543,2.99,2.99,0,0,1-.564-1.02,4.6037,4.6037,0,0,1,0-2.67,2.9861,2.9861,0,0,1,.564-1.0264,2.4267,2.4267,0,0,1,.9-.6543,3.0551,3.0551,0,0,1,1.206-.2275,2.5414,2.5414,0,0,1,1.4942.4014,2.4065,2.4065,0,0,1,.8457,1.0508l-.876.48a1.5027,1.5027,0,0,0-.5337-.72,1.5522,1.5522,0,0,0-.93-.2636,1.5693,1.5693,0,0,0-1.2417.4951,1.8452,1.8452,0,0,0-.438,1.2715v1.05a1.8452,1.8452,0,0,0,.438,1.2714,1.5971,1.5971,0,0,0,1.2657.4961,1.6185,1.6185,0,0,0,.9843-.2822,2.0779,2.0779,0,0,0,.624-.7617l.8038.5273a2.4293,2.4293,0,0,1-.876,1.0508A2.6733,2.6733,0,0,1,397.9028,203.1432Z"/><path class="cls-7" d="M405.103,203.1432a3.0717,3.0717,0,0,1-1.2182-.2275,2.4267,2.4267,0,0,1-.9-.6543,2.99,2.99,0,0,1-.564-1.02,4.6037,4.6037,0,0,1,0-2.67,2.9861,2.9861,0,0,1,.564-1.0264,2.4267,2.4267,0,0,1,.9-.6543,3.0551,3.0551,0,0,1,1.206-.2275,2.5414,2.5414,0,0,1,1.4942.4014,2.4065,2.4065,0,0,1,.8457,1.0508l-.876.48a1.5033,1.5033,0,0,0-.5337-.72,1.5522,1.5522,0,0,0-.93-.2636,1.5693,1.5693,0,0,0-1.2417.4951,1.8452,1.8452,0,0,0-.438,1.2715v1.05a1.8452,1.8452,0,0,0,.438,1.2714,1.597,1.597,0,0,0,1.2656.4961,1.6188,1.6188,0,0,0,.9844-.2822,2.0779,2.0779,0,0,0,.624-.7617l.8038.5273a2.4293,2.4293,0,0,1-.876,1.0508A2.6733,2.6733,0,0,1,405.103,203.1432Z"/><path class="cls-7" d="M412.0747,203.1432a2.9957,2.9957,0,0,1-1.2-.2275,2.5238,2.5238,0,0,1-.9-.6485,2.86,2.86,0,0,1-.57-1.0195,4.6554,4.6554,0,0,1,0-2.6885,2.8773,2.8773,0,0,1,.57-1.0195,2.5238,2.5238,0,0,1,.9-.6485,3.263,3.263,0,0,1,2.3941,0,2.5125,2.5125,0,0,1,.9062.6485,2.8835,2.8835,0,0,1,.57,1.0195,4.6667,4.6667,0,0,1,0,2.6885,2.8661,2.8661,0,0,1-.57,1.0195,2.5125,2.5125,0,0,1-.9062.6485A3.0063,3.0063,0,0,1,412.0747,203.1432Zm0-.9238a1.6407,1.6407,0,0,0,1.2241-.4619,1.9154,1.9154,0,0,0,.4556-1.3975v-.9121a1.919,1.919,0,0,0-.4556-1.3984,1.8527,1.8527,0,0,0-2.4482,0,1.917,1.917,0,0,0-.4561,1.3984v.9121a1.9134,1.9134,0,0,0,.4561,1.3975A1.64,1.64,0,0,0,412.0747,202.2194Z"/><path class="cls-7" d="M420.6548,201.9674h-.0479a2.1372,2.1372,0,0,1-.2461.45,1.79,1.79,0,0,1-.36.3721,1.6577,1.6577,0,0,1-.4981.2578,2.1137,2.1137,0,0,1-.6723.0957,2.0285,2.0285,0,0,1-1.542-.6113,2.4287,2.4287,0,0,1-.5816-1.74v-3.9843h1.1158v3.792q0,1.5966,1.38,1.5966a2.1491,2.1491,0,0,0,.5342-.0664,1.3968,1.3968,0,0,0,.4619-.21,1.1265,1.1265,0,0,0,.33-.36.9794.9794,0,0,0,.126-.5039v-4.248h1.1162V203h-1.1162Z"/><path class="cls-7" d="M423.9785,203v-6.1923h1.1162V197.84h.0479a2.4251,2.4251,0,0,1,.2461-.4434,1.6311,1.6311,0,0,1,.8579-.6367,2.1416,2.1416,0,0,1,.6719-.0957,2.0282,2.0282,0,0,1,1.5419.6123,2.4225,2.4225,0,0,1,.5821,1.7393V203h-1.1162v-3.7919q0-1.5952-1.38-1.5957a2.1424,2.1424,0,0,0-.5337.0654,1.3947,1.3947,0,0,0-.4624.21,1.1424,1.1424,0,0,0-.33.36.9794.9794,0,0,0-.126.5039V203Z"/><path class="cls-7" d="M434.01,203a1.4015,1.4015,0,0,1-1.1163-.414,1.58,1.58,0,0,1-.36-1.0742v-3.7793h-1.98v-.9248h1.44a.657.657,0,0,0,.462-.1319.6356.6356,0,0,0,.1381-.4677v-1.584H433.65v2.1836h2.748v.9248H433.65v4.3437h2.748V203Z"/><path class="cls-7" d="M451.2539,203.6959a1.499,1.499,0,0,1-.7856,1.3975,4.9653,4.9653,0,0,1-2.3941.45,7.3164,7.3164,0,0,1-1.32-.1016,2.7184,2.7184,0,0,1-.876-.3008,1.31,1.31,0,0,1-.4917-.4736,1.27,1.27,0,0,1-.1562-.6357,1.0912,1.0912,0,0,1,.27-.7862,1.6058,1.6058,0,0,1,.7739-.414V202.7a1.0774,1.0774,0,0,1-.45-.33.85.85,0,0,1-.1621-.5342.8358.8358,0,0,1,.312-.7139,2.1929,2.1929,0,0,1,.8042-.3545v-.06a1.9526,1.9526,0,0,1-.8882-.7383,2.0958,2.0958,0,0,1-.312-1.1582,2.2039,2.2039,0,0,1,.1739-.8819,1.8468,1.8468,0,0,1,.498-.6777,2.3847,2.3847,0,0,1,.7739-.4316,3.0338,3.0338,0,0,1,1.002-.1563,2.8545,2.8545,0,0,1,1.2.2275v-.1552a.9727.9727,0,0,1,.186-.6084.715.715,0,0,1,.606-.2442h1.1279v.9483H449.73v.36a1.835,1.835,0,0,1,.57.6895,2.2864,2.2864,0,0,1,.0181,1.8183,1.9065,1.9065,0,0,1-.5044.6719,2.3723,2.3723,0,0,1-.78.4317,3.0872,3.0872,0,0,1-1.0083.1562q-.1677,0-.336-.0117a2.1435,2.1435,0,0,1-.3237-.0479c-.0884.0235-.1763.0518-.2641.084a1.0732,1.0732,0,0,0-.252.1319.7289.7289,0,0,0-.1919.1914.4462.4462,0,0,0-.0723.2519.3553.3553,0,0,0,.2764.3721,2.46,2.46,0,0,0,.708.084h1.3677a2.7561,2.7561,0,0,1,1.77.456A1.5131,1.5131,0,0,1,451.2539,203.6959Zm-1.0439.06a.6505.6505,0,0,0-.2818-.5459,1.7265,1.7265,0,0,0-.99-.21h-2.1358a.8017.8017,0,0,0-.5522.7676.8575.8575,0,0,0,.3062.66,1.54,1.54,0,0,0,1.038.2763h.96a2.5515,2.5515,0,0,0,1.2241-.24A.7662.7662,0,0,0,450.21,203.7555Zm-2.1841-3.6123a1.3922,1.3922,0,0,0,1.0083-.3174,1.1321,1.1321,0,0,0,.3237-.8457v-.3369a1.1321,1.1321,0,0,0-.3237-.8457,1.3922,1.3922,0,0,0-1.0083-.3174,1.3472,1.3472,0,0,0-.9956.3174,1.1535,1.1535,0,0,0-.312.8457v.3369a1.1535,1.1535,0,0,0,.312.8457A1.3472,1.3472,0,0,0,448.0259,200.1432Z"/><path class="cls-7" d="M452.5859,202.0758h1.74v-4.3437h-1.74v-.9248h2.856v1.5966h.0718a2.2243,2.2243,0,0,1,.7143-1.1767,2.059,2.059,0,0,1,1.35-.42h.8164V197.9h-1.2a1.7492,1.7492,0,0,0-1.2778.462,1.5913,1.5913,0,0,0-.4741,1.1933v2.52h2.34V203h-5.1958Z"/><path class="cls-7" d="M462.4741,203.1432a2.9957,2.9957,0,0,1-1.2-.2275,2.5238,2.5238,0,0,1-.9-.6485,2.86,2.86,0,0,1-.57-1.0195,4.6576,4.6576,0,0,1,0-2.6885,2.8773,2.8773,0,0,1,.57-1.0195,2.5238,2.5238,0,0,1,.9-.6485,3.263,3.263,0,0,1,2.3941,0,2.5125,2.5125,0,0,1,.9062.6485,2.8835,2.8835,0,0,1,.57,1.0195,4.6667,4.6667,0,0,1,0,2.6885,2.8661,2.8661,0,0,1-.57,1.0195,2.5125,2.5125,0,0,1-.9062.6485A3.0059,3.0059,0,0,1,462.4741,203.1432Zm0-.9238a1.6407,1.6407,0,0,0,1.2241-.4619,1.915,1.915,0,0,0,.4556-1.3975v-.9121a1.9186,1.9186,0,0,0-.4556-1.3984,1.8527,1.8527,0,0,0-2.4482,0,1.917,1.917,0,0,0-.4561,1.3984v.9121a1.9134,1.9134,0,0,0,.4561,1.3975A1.64,1.64,0,0,0,462.4741,202.2194Z"/><path class="cls-7" d="M471.0537,201.9674h-.0478a2.1417,2.1417,0,0,1-.2461.45,1.7879,1.7879,0,0,1-.36.3721,1.6559,1.6559,0,0,1-.498.2578,2.1144,2.1144,0,0,1-.6724.0957,2.0285,2.0285,0,0,1-1.542-.6113,2.4287,2.4287,0,0,1-.5815-1.74v-3.9843h1.1157v3.792q0,1.5966,1.38,1.5966a2.1489,2.1489,0,0,0,.5341-.0664,1.3982,1.3982,0,0,0,.462-.21,1.1262,1.1262,0,0,0,.33-.36.9794.9794,0,0,0,.126-.5039v-4.248H472.17V203h-1.1162Z"/><path class="cls-7" d="M474.33,196.8073h1.1157V197.84h.06a2.18,2.18,0,0,1,3.6543-.3359,4.8092,4.8092,0,0,1,0,4.8,2.2967,2.2967,0,0,1-2.91.54,2.0673,2.0673,0,0,1-.7441-.876h-.06V205.4H474.33Zm2.6157,5.3886a1.57,1.57,0,0,0,1.23-.4863,1.854,1.854,0,0,0,.438-1.29v-1.0323a1.8557,1.8557,0,0,0-.438-1.29,1.5726,1.5726,0,0,0-1.23-.4853,2.016,2.016,0,0,0-.57.0781,1.4884,1.4884,0,0,0-.48.2334,1.1559,1.1559,0,0,0-.33.3779,1.0843,1.0843,0,0,0-.12.5225v2.16a1.1154,1.1154,0,0,0,.12.5274,1.0659,1.0659,0,0,0,.33.3779,1.5411,1.5411,0,0,0,.48.2285A2.0526,2.0526,0,0,0,476.9453,202.1959Z"/><path class="cls-7" d="M581.6982,203l-.6718-2.3164h-2.82L577.5342,203h-1.1885l2.5078-8.3759h1.5723L582.9336,203Zm-2.0283-7.1757h-.1084L578.458,199.7h2.3164Z"/><path class="cls-7" d="M587.0615,203.1432a3.0674,3.0674,0,0,1-1.2177-.2275,2.4244,2.4244,0,0,1-.9-.6543,2.9889,2.9889,0,0,1-.5635-1.02,4.5926,4.5926,0,0,1,0-2.67,2.9852,2.9852,0,0,1,.5635-1.0264,2.4244,2.4244,0,0,1,.9-.6543,3.0534,3.0534,0,0,1,1.206-.2275,2.5408,2.5408,0,0,1,1.4941.4014,2.4086,2.4086,0,0,1,.8457,1.0508l-.8759.48a1.5042,1.5042,0,0,0-.5342-.72,1.5506,1.5506,0,0,0-.93-.2636,1.5711,1.5711,0,0,0-1.2422.4951,1.8473,1.8473,0,0,0-.4375,1.2715v1.05a1.8473,1.8473,0,0,0,.4375,1.2714,1.5977,1.5977,0,0,0,1.2656.4961,1.6167,1.6167,0,0,0,.9844-.2822,2.0779,2.0779,0,0,0,.624-.7617l.8038.5273a2.4225,2.4225,0,0,1-.876,1.0508A2.6723,2.6723,0,0,1,587.0615,203.1432Z"/><path class="cls-7" d="M594.2617,203.1432a3.0683,3.0683,0,0,1-1.2178-.2275,2.4249,2.4249,0,0,1-.9-.6543,2.9889,2.9889,0,0,1-.5635-1.02,4.5926,4.5926,0,0,1,0-2.67,2.9852,2.9852,0,0,1,.5635-1.0264,2.4249,2.4249,0,0,1,.9-.6543,3.0542,3.0542,0,0,1,1.2061-.2275,2.5408,2.5408,0,0,1,1.4941.4014,2.4086,2.4086,0,0,1,.8457,1.0508l-.8759.48a1.5042,1.5042,0,0,0-.5342-.72,1.5508,1.5508,0,0,0-.93-.2636,1.5711,1.5711,0,0,0-1.2422.4951,1.8473,1.8473,0,0,0-.4375,1.2715v1.05a1.8473,1.8473,0,0,0,.4375,1.2714,1.5977,1.5977,0,0,0,1.2656.4961,1.6167,1.6167,0,0,0,.9844-.2822,2.0779,2.0779,0,0,0,.624-.7617l.8037.5273a2.4216,2.4216,0,0,1-.8759,1.0508A2.6723,2.6723,0,0,1,594.2617,203.1432Z"/><path class="cls-7" d="M601.2334,203.1432a2.997,2.997,0,0,1-1.2-.2275,2.5245,2.5245,0,0,1-.8994-.6485,2.8594,2.8594,0,0,1-.57-1.0195,4.6554,4.6554,0,0,1,0-2.6885,2.8767,2.8767,0,0,1,.57-1.0195,2.5245,2.5245,0,0,1,.8994-.6485,3.2641,3.2641,0,0,1,2.3945,0,2.5172,2.5172,0,0,1,.9063.6485,2.89,2.89,0,0,1,.5693,1.0195,4.6554,4.6554,0,0,1,0,2.6885,2.8729,2.8729,0,0,1-.5693,1.0195,2.5172,2.5172,0,0,1-.9063.6485A3.0079,3.0079,0,0,1,601.2334,203.1432Zm0-.9238a1.6427,1.6427,0,0,0,1.2246-.4619,1.9153,1.9153,0,0,0,.4551-1.3975v-.9121a1.9189,1.9189,0,0,0-.4551-1.3984,1.8527,1.8527,0,0,0-2.4482,0,1.9148,1.9148,0,0,0-.4561,1.3984v.9121a1.9112,1.9112,0,0,0,.4561,1.3975A1.6388,1.6388,0,0,0,601.2334,202.2194Z"/><path class="cls-7" d="M609.8135,201.9674h-.0479a2.1149,2.1149,0,0,1-.2461.45,1.7748,1.7748,0,0,1-.3593.3721,1.67,1.67,0,0,1-.4981.2578,2.117,2.117,0,0,1-.6728.0957,2.0291,2.0291,0,0,1-1.542-.6113,2.4286,2.4286,0,0,1-.5811-1.74v-3.9843h1.1152v3.792q0,1.5966,1.38,1.5966a2.1438,2.1438,0,0,0,.5342-.0664,1.3922,1.3922,0,0,0,.4619-.21,1.122,1.122,0,0,0,.33-.36.9794.9794,0,0,0,.126-.5039v-4.248H610.93V203h-1.1162Z"/><path class="cls-7" d="M613.1377,203v-6.1923h1.1162V197.84h.0479a2.3669,2.3669,0,0,1,.2461-.4434,1.6272,1.6272,0,0,1,.8574-.6367,2.1436,2.1436,0,0,1,.6718-.0957,2.0269,2.0269,0,0,1,1.542.6123,2.42,2.42,0,0,1,.5821,1.7393V203H617.085v-3.7919q0-1.5952-1.38-1.5957a2.1413,2.1413,0,0,0-.5332.0654,1.3973,1.3973,0,0,0-.4629.21,1.14,1.14,0,0,0-.3291.36.9794.9794,0,0,0-.126.5039V203Z"/><path class="cls-7" d="M623.1689,203a1.4014,1.4014,0,0,1-1.1162-.414,1.5819,1.5819,0,0,1-.3593-1.0742v-3.7793h-1.9805v-.9248h1.44a.6576.6576,0,0,0,.4619-.1319.6357.6357,0,0,0,.1377-.4677v-1.584H622.81v2.1836h2.748v.9248H622.81v4.3437h2.748V203Z"/><path class="cls-7" d="M640.4131,203.6959a1.4985,1.4985,0,0,1-.7861,1.3975,4.9644,4.9644,0,0,1-2.3936.45,7.3117,7.3117,0,0,1-1.32-.1016,2.709,2.709,0,0,1-.876-.3008,1.3157,1.3157,0,0,1-.4922-.4736,1.2754,1.2754,0,0,1-.1562-.6357,1.0914,1.0914,0,0,1,.2705-.7862,1.6017,1.6017,0,0,1,.7734-.414V202.7a1.0757,1.0757,0,0,1-.4492-.33.8468.8468,0,0,1-.1621-.5342.8355.8355,0,0,1,.3115-.7139,2.1955,2.1955,0,0,1,.8047-.3545v-.06a1.9514,1.9514,0,0,1-.8887-.7383,2.0956,2.0956,0,0,1-.3115-1.1582,2.197,2.197,0,0,1,.1738-.8819,1.8471,1.8471,0,0,1,.4981-.6777,2.377,2.377,0,0,1,.7734-.4316,3.038,3.038,0,0,1,1.002-.1563,2.8529,2.8529,0,0,1,1.2.2275v-.1552a.973.973,0,0,1,.1865-.6084.714.714,0,0,1,.6055-.2442h1.1279v.9483h-1.416v.36a1.8313,1.8313,0,0,1,.57.6895,2.2831,2.2831,0,0,1,.0185,1.8183,1.9,1.9,0,0,1-.5048.6719,2.37,2.37,0,0,1-.7793.4317,3.0924,3.0924,0,0,1-1.0088.1562c-.1114,0-.2237-.0039-.336-.0117a2.1369,2.1369,0,0,1-.3232-.0479c-.0889.0235-.1768.0518-.2647.084a1.0746,1.0746,0,0,0-.2519.1319.7252.7252,0,0,0-.1914.1914.4454.4454,0,0,0-.0723.2519.3549.3549,0,0,0,.2764.3721,2.46,2.46,0,0,0,.708.084h1.3672a2.7577,2.7577,0,0,1,1.77.456A1.5134,1.5134,0,0,1,640.4131,203.6959Zm-1.044.06a.65.65,0,0,0-.2822-.5459,1.7245,1.7245,0,0,0-.99-.21h-2.1358a.8012.8012,0,0,0-.5517.7676.8569.8569,0,0,0,.3056.66,1.5406,1.5406,0,0,0,1.0381.2763h.96a2.5523,2.5523,0,0,0,1.2246-.24A.767.767,0,0,0,639.3691,203.7555Zm-2.1845-3.6123a1.3937,1.3937,0,0,0,1.0088-.3174,1.1318,1.1318,0,0,0,.3232-.8457v-.3369a1.1318,1.1318,0,0,0-.3232-.8457,1.3937,1.3937,0,0,0-1.0088-.3174,1.3466,1.3466,0,0,0-.9951.3174,1.1518,1.1518,0,0,0-.3125.8457v.3369a1.1518,1.1518,0,0,0,.3125.8457A1.3466,1.3466,0,0,0,637.1846,200.1432Z"/><path class="cls-7" d="M641.7451,202.0758h1.7393v-4.3437h-1.7393v-.9248h2.8555v1.5966h.0723a2.2236,2.2236,0,0,1,.7138-1.1767,2.06,2.06,0,0,1,1.35-.42h.8164V197.9h-1.2a1.7472,1.7472,0,0,0-1.2773.462,1.5917,1.5917,0,0,0-.4746,1.1933v2.52h2.34V203h-5.1953Z"/><path class="cls-7" d="M651.6328,203.1432a2.9974,2.9974,0,0,1-1.2-.2275,2.5254,2.5254,0,0,1-.8994-.6485,2.8609,2.8609,0,0,1-.57-1.0195,4.6554,4.6554,0,0,1,0-2.6885,2.8782,2.8782,0,0,1,.57-1.0195,2.5254,2.5254,0,0,1,.8994-.6485,3.2641,3.2641,0,0,1,2.3945,0,2.5163,2.5163,0,0,1,.9063.6485,2.89,2.89,0,0,1,.5693,1.0195,4.6554,4.6554,0,0,1,0,2.6885,2.8729,2.8729,0,0,1-.5693,1.0195,2.5163,2.5163,0,0,1-.9063.6485A3.0079,3.0079,0,0,1,651.6328,203.1432Zm0-.9238a1.6427,1.6427,0,0,0,1.2246-.4619,1.9153,1.9153,0,0,0,.4551-1.3975v-.9121a1.9189,1.9189,0,0,0-.4551-1.3984,1.8527,1.8527,0,0,0-2.4482,0,1.9148,1.9148,0,0,0-.4561,1.3984v.9121a1.9112,1.9112,0,0,0,.4561,1.3975A1.6388,1.6388,0,0,0,651.6328,202.2194Z"/><path class="cls-7" d="M660.2129,201.9674h-.0479a2.1554,2.1554,0,0,1-.2461.45,1.8027,1.8027,0,0,1-.36.3721,1.6459,1.6459,0,0,1-.4981.2578,2.1105,2.1105,0,0,1-.6718.0957,2.0277,2.0277,0,0,1-1.542-.6113,2.4289,2.4289,0,0,1-.5821-1.74v-3.9843h1.1163v3.792q0,1.5966,1.38,1.5966a2.155,2.155,0,0,0,.5342-.0664,1.4014,1.4014,0,0,0,.4619-.21,1.1322,1.1322,0,0,0,.33-.36.9794.9794,0,0,0,.126-.5039v-4.248h1.1162V203h-1.1162Z"/><path class="cls-7" d="M663.4883,196.8073h1.1162V197.84h.06a2.18,2.18,0,0,1,3.6543-.3359,4.8092,4.8092,0,0,1,0,4.8,2.1152,2.1152,0,0,1-3.6543-.336h-.06V205.4h-1.1162Zm2.6162,5.3886a1.5688,1.5688,0,0,0,1.2295-.4863,1.8542,1.8542,0,0,0,.4385-1.29v-1.0323a1.8559,1.8559,0,0,0-.4385-1.29,1.5715,1.5715,0,0,0-1.2295-.4853,2.019,2.019,0,0,0-.57.0781,1.49,1.49,0,0,0-.48.2334,1.15,1.15,0,0,0-.33.3779,1.0832,1.0832,0,0,0-.12.5225v2.16a1.1142,1.1142,0,0,0,.12.5274,1.061,1.061,0,0,0,.33.3779,1.5426,1.5426,0,0,0,.48.2285A2.0557,2.0557,0,0,0,666.1045,202.1959Z"/><path class="cls-7" d="M764.9121,126.8073l-.6719-2.3164h-2.82l-.6719,2.3164h-1.1875l2.5079-8.376h1.5722l2.5078,8.376Zm-2.0273-7.1758h-.1094l-1.1035,3.876h2.3164Z"/><path class="cls-7" d="M770.2754,126.9508a3.0748,3.0748,0,0,1-1.2178-.2275,2.4206,2.4206,0,0,1-.8994-.6543,2.9917,2.9917,0,0,1-.5644-1.02,4.6152,4.6152,0,0,1,0-2.67,2.9871,2.9871,0,0,1,.5644-1.0263,2.42,2.42,0,0,1,.8994-.6543,3.0556,3.0556,0,0,1,1.2061-.2276,2.541,2.541,0,0,1,1.4941.4014,2.4023,2.4023,0,0,1,.8457,1.0508l-.876.48a1.5045,1.5045,0,0,0-.5341-.72,1.5517,1.5517,0,0,0-.93-.2636,1.571,1.571,0,0,0-1.2422.4951,1.8475,1.8475,0,0,0-.4375,1.2715v1.05a1.8475,1.8475,0,0,0,.4375,1.2715,1.5993,1.5993,0,0,0,1.2656.4961,1.617,1.617,0,0,0,.9844-.2823,2.0821,2.0821,0,0,0,.625-.7617l.8027.5274a2.4273,2.4273,0,0,1-.875,1.0507A2.6755,2.6755,0,0,1,770.2754,126.9508Z"/><path class="cls-7" d="M777.4766,126.9508a3.07,3.07,0,0,1-1.2188-.2275,2.4322,2.4322,0,0,1-.9-.6543,2.9917,2.9917,0,0,1-.5635-1.02,4.5951,4.5951,0,0,1,0-2.67,2.9871,2.9871,0,0,1,.5635-1.0263,2.4311,2.4311,0,0,1,.9-.6543,3.0521,3.0521,0,0,1,1.2061-.2276,2.541,2.541,0,0,1,1.4941.4014,2.4093,2.4093,0,0,1,.8457,1.0508l-.876.48a1.5022,1.5022,0,0,0-.5332-.72,1.7914,1.7914,0,0,0-2.1718.2315,1.8433,1.8433,0,0,0-.4385,1.2715v1.05a1.8433,1.8433,0,0,0,.4385,1.2715,1.5951,1.5951,0,0,0,1.2656.4961,1.6211,1.6211,0,0,0,.9844-.2823,2.0776,2.0776,0,0,0,.623-.7617l.8047.5274a2.432,2.432,0,0,1-.877,1.0507A2.671,2.671,0,0,1,777.4766,126.9508Z"/><path class="cls-7" d="M784.4473,126.9508a2.9926,2.9926,0,0,1-1.1993-.2275,2.52,2.52,0,0,1-.9-.6485,2.8763,2.8763,0,0,1-.57-1.0195,4.68,4.68,0,0,1,0-2.6885,2.8939,2.8939,0,0,1,.57-1.0195,2.5185,2.5185,0,0,1,.9-.6484,3.26,3.26,0,0,1,2.3936,0,2.5081,2.5081,0,0,1,.9063.6484,2.878,2.878,0,0,1,.5693,1.0195,4.6576,4.6576,0,0,1,0,2.6885,2.8607,2.8607,0,0,1-.5693,1.0195,2.51,2.51,0,0,1-.9063.6485A3.0079,3.0079,0,0,1,784.4473,126.9508Zm0-.9238a1.6427,1.6427,0,0,0,1.2246-.4619,1.9151,1.9151,0,0,0,.4551-1.3975v-.9121a1.9191,1.9191,0,0,0-.4551-1.3984,1.8531,1.8531,0,0,0-2.4483,0,1.9193,1.9193,0,0,0-.456,1.3984v.9121a1.9153,1.9153,0,0,0,.456,1.3975A1.6388,1.6388,0,0,0,784.4473,126.027Z"/><path class="cls-7" d="M793.0273,125.775h-.0468a2.1647,2.1647,0,0,1-.2461.45,1.8032,1.8032,0,0,1-.36.3721,1.6441,1.6441,0,0,1-.498.2578,2.1172,2.1172,0,0,1-.6729.0957,2.0271,2.0271,0,0,1-1.541-.6113,2.4244,2.4244,0,0,1-.582-1.74v-3.9844h1.1152v3.792q0,1.5966,1.3809,1.5967a2.1418,2.1418,0,0,0,.5332-.0665,1.4084,1.4084,0,0,0,.4629-.21,1.1309,1.1309,0,0,0,.33-.36.979.979,0,0,0,.125-.5039v-4.248h1.1172v6.1924h-1.1172Z"/><path class="cls-7" d="M796.3516,126.8073v-6.1924h1.1162v1.0322h.0478a2.4924,2.4924,0,0,1,.2461-.4434,1.6956,1.6956,0,0,1,.3594-.3789,1.7153,1.7153,0,0,1,.498-.2578,2.1471,2.1471,0,0,1,.6719-.0957,2.0308,2.0308,0,0,1,1.543.6123,2.4248,2.4248,0,0,1,.582,1.7393v3.9844h-1.1172v-3.792q0-1.5952-1.3789-1.5957a2.1487,2.1487,0,0,0-.5342.0654,1.385,1.385,0,0,0-.4619.21,1.13,1.13,0,0,0-.33.36.98.98,0,0,0-.126.5039v4.2481Z"/><path class="cls-7" d="M806.3828,126.8073a1.399,1.399,0,0,1-1.1152-.4141,1.577,1.577,0,0,1-.36-1.0742V121.54h-1.98v-.9248h1.44a.6559.6559,0,0,0,.4619-.1319.6355.6355,0,0,0,.1377-.4677v-1.584h1.0566v2.1836h2.7481v.9248h-2.7481v4.3437h2.7481v.9239Z"/></g></svg>