<svg id="Layer_1" data-name="Layer 1" xmlns="http://www.w3.org/2000/svg" width="1246" height="362" viewBox="0 0 1246 362"><defs><style>.cls-1{fill:#fb4b53;}.cls-2{fill:#fdd13a;}.cls-3{fill:#a8a8a8;}.cls-4{fill:#198038;}.cls-5{fill:#e0e0e0;}.cls-6{isolation:isolate;}.cls-7{fill:#525252;}.cls-8{fill:#6c0911;}.cls-9{fill:#ff7200;}</style></defs><path class="cls-1" d="M307,103.79A143.5,143.5,0,1,0,133.74,308.68l10.51-29.77a111.94,111.94,0,1,1,135.18-159.8l26.87-14.88h0Z"/><path class="cls-2" d="M181.51,285.28a111.8378,111.8378,0,0,1-37.26-6.37l-10.51,29.77a143.48,143.48,0,0,0,159.2-44.93l-24.52-19.89A111.67,111.67,0,0,1,181.51,285.28Z"/><path class="cls-3" d="M289.25,203.7a111.74,111.74,0,0,1-20.83,40.16l24.52,19.89a143.1294,143.1294,0,0,0,26.69-51.49Z"/><path class="cls-4" d="M307.05,103.82l-27.62,15.29a112,112,0,0,1,9.77,84.75l30.37,8.61A143.37,143.37,0,0,0,307.05,103.82Z"/><path class="cls-5" d="M1012.93,103.27A165.05,165.05,0,0,1,1177.06,251H1206a193,193,0,0,0-56.13-122.47c-75.79-75.78-198.66-75.78-274.45,0A193.16,193.16,0,0,0,819.19,251H848.8A165,165,0,0,1,1012.93,103.27Z"/><path class="cls-4" d="M1137.14,159.7l24.54-18.24q-5.57-6.66-11.81-12.93c-75.79-75.78-198.66-75.78-274.45,0A193.16,193.16,0,0,0,819.19,251H848.8a165,165,0,0,1,288.34-91.3Z"/><g class="cls-6"><path d="M976,216.66a19.3435,19.3435,0,0,1-6.3-.93,13.2524,13.2524,0,0,1-4.53-2.55,10.4642,10.4642,0,0,1-2.76-3.84,12.2763,12.2763,0,0,1-.93-4.8008,9.6546,9.6546,0,0,1,2.34-6.84,12.6184,12.6184,0,0,1,6.1192-3.54v-.48a10.8987,10.8987,0,0,1-5.25-3.6905,9.8247,9.8247,0,0,1-1.9493-6.1494,9.3791,9.3791,0,0,1,3.4805-7.6509q3.4776-2.8491,9.7793-2.85t9.7793,2.85a9.3791,9.3791,0,0,1,3.4805,7.6509,9.8308,9.8308,0,0,1-1.9493,6.1494,10.9029,10.9029,0,0,1-5.25,3.6905v.48a12.6184,12.6184,0,0,1,6.1192,3.54,9.6546,9.6546,0,0,1,2.34,6.84,12.3106,12.3106,0,0,1-.93,4.8008,10.4976,10.4976,0,0,1-2.76,3.84,13.2619,13.2619,0,0,1-4.53,2.55A19.3435,19.3435,0,0,1,976,216.66Zm0-4.44a10.5163,10.5163,0,0,0,6.7793-1.9424,6.7088,6.7088,0,0,0,2.4-5.5293v-1.2568a6.7067,6.7067,0,0,0-2.4-5.5283,12.7961,12.7961,0,0,0-13.5586,0,6.701,6.701,0,0,0-2.4,5.5283v1.2568a6.703,6.703,0,0,0,2.4,5.5293A10.5144,10.5144,0,0,0,976,212.2207Zm0-20.4q3.9609,0,6-1.6728a5.9693,5.9693,0,0,0,2.04-4.8985v-.8965a5.97,5.97,0,0,0-2.04-4.8989q-2.0406-1.6743-6-1.6738t-6,1.6738a5.967,5.967,0,0,0-2.04,4.8989v.8965a5.9663,5.9663,0,0,0,2.04,4.8985Q972.0391,191.8218,976,191.82Z"/><path d="M999.2793,215.94V211.5h11.7V177.78h-.42L1000,187.62l-2.94-3.18,11.1006-10.38h7.8593V211.5h10.8v4.44Z"/><path d="M1061.9785,215.94H1034.499v-5.16l13.6807-12.6a30.4131,30.4131,0,0,0,4.92-5.7471,11.1129,11.1129,0,0,0,1.9795-6.1074v-.7227a8.2164,8.2164,0,0,0-1.92-5.6567q-1.92-2.1666-5.82-2.167a9.5473,9.5473,0,0,0-3.36.54,7.61,7.61,0,0,0-2.4892,1.5,8.3826,8.3826,0,0,0-1.74,2.2505,13.7576,13.7576,0,0,0-1.11,2.79l-4.5-1.74a17.8492,17.8492,0,0,1,1.65-3.6294,12.1768,12.1768,0,0,1,6.48-5.3222,17.2312,17.2312,0,0,1,10.77.07,10.7853,10.7853,0,0,1,6.51,6.3554,13.3657,13.3657,0,0,1,.87,4.9165,14.5071,14.5071,0,0,1-.69,4.5567,17.7548,17.7548,0,0,1-1.89,3.9873,24.2559,24.2559,0,0,1-2.9092,3.6865q-1.7109,1.7988-3.69,3.5967L1039.959,211.5h22.0195Z"/></g><g class="cls-6"><path class="cls-7" d="M458.208,94.1938a5.555,5.555,0,0,1-4.5542-1.99,9.0886,9.0886,0,0,1-1.6279-5.8633,9.4716,9.4716,0,0,1,1.6279-5.9511A5.4564,5.4564,0,0,1,458.208,78.31a5.3707,5.3707,0,0,1,5.28,3.3437l-1.4956.9024a4.2711,4.2711,0,0,0-1.4082-1.9034,3.8306,3.8306,0,0,0-2.376-.7148,4.0268,4.0268,0,0,0-1.771.376,3.6486,3.6486,0,0,0-1.32,1.07,4.988,4.988,0,0,0-.8252,1.6562,7.519,7.519,0,0,0-.2861,2.1524v2.2959a5.7343,5.7343,0,0,0,1.1,3.73,3.777,3.777,0,0,0,3.102,1.3467,3.9306,3.9306,0,0,0,2.4639-.7588,4.3778,4.3778,0,0,0,1.4521-2.0127l1.4741.9239a5.9054,5.9054,0,0,1-2.09,2.5517A5.7423,5.7423,0,0,1,458.208,94.1938Z"/><path class="cls-7" d="M466.2817,93.93V82.5786h1.76v2.09h.11a3.426,3.426,0,0,1,1.1-1.4522,3.378,3.378,0,0,1,2.1782-.6377h.6821v1.76h-1.0342a3.9729,3.9729,0,0,0-2.2329.539,1.59,1.59,0,0,0-.8032,1.3526v7.7Z"/><path class="cls-7" d="M475.2354,79.9165a1.0748,1.0748,0,0,1-.8252-.2754,1.0142,1.0142,0,0,1-.253-.7148V78.64a1.0159,1.0159,0,0,1,.253-.7148,1.3739,1.3739,0,0,1,1.65,0,1.0159,1.0159,0,0,1,.253.7148v.2862a1.0142,1.0142,0,0,1-.253.7148A1.0754,1.0754,0,0,1,475.2354,79.9165Zm-.88,2.6621h1.76V93.93h-1.76Z"/><path class="cls-7" d="M482.3633,93.93a1.8027,1.8027,0,0,1-1.397-.5156,1.92,1.92,0,0,1-.4731-1.3506V84.14h-1.87V82.5786h1.0557a1.0341,1.0341,0,0,0,.7812-.2314,1.2008,1.2008,0,0,0,.209-.8028V79.4321h1.584v3.1465h2.4859V84.14h-2.4859v8.2286h2.31V93.93Z"/><path class="cls-7" d="M488.4575,79.9165a1.0751,1.0751,0,0,1-.8252-.2754,1.0146,1.0146,0,0,1-.2529-.7148V78.64a1.0163,1.0163,0,0,1,.2529-.7148,1.374,1.374,0,0,1,1.65,0,1.0159,1.0159,0,0,1,.2529.7148v.2862a1.0142,1.0142,0,0,1-.2529.7148A1.0755,1.0755,0,0,1,488.4575,79.9165Zm-.88,2.6621h1.76V93.93h-1.76Z"/><path class="cls-7" d="M497.3018,94.1938a5.2321,5.2321,0,0,1-2.1343-.4179,4.3423,4.3423,0,0,1-1.5947-1.1875,5.2855,5.2855,0,0,1-.99-1.87,9.0771,9.0771,0,0,1,0-4.9278,5.2855,5.2855,0,0,1,.99-1.87,4.3558,4.3558,0,0,1,1.5947-1.1885,5.2321,5.2321,0,0,1,2.1343-.4179,4.5525,4.5525,0,0,1,2.7168.7373,4.4926,4.4926,0,0,1,1.5288,1.9248l-1.4737.748a2.6787,2.6787,0,0,0-1.0122-1.3642,3.0386,3.0386,0,0,0-1.76-.4834,3.51,3.51,0,0,0-1.3863.2529,2.71,2.71,0,0,0-.99.7041,2.9675,2.9675,0,0,0-.5938,1.0781,4.5518,4.5518,0,0,0-.1982,1.375v1.9356a3.6834,3.6834,0,0,0,.8032,2.4531,2.9129,2.9129,0,0,0,2.3653.957,3.192,3.192,0,0,0,3.0795-1.98l1.2764.8584a4.5156,4.5156,0,0,1-1.6391,1.958A4.7921,4.7921,0,0,1,497.3018,94.1938Z"/><path class="cls-7" d="M512.3936,93.93a1.7251,1.7251,0,0,1-1.419-.5283,2.6147,2.6147,0,0,1-.5391-1.3194h-.11a2.9381,2.9381,0,0,1-1.2319,1.584,3.83,3.83,0,0,1-2.0459.5273,3.9788,3.9788,0,0,1-2.8047-.9238,3.2442,3.2442,0,0,1-1.0015-2.5078,2.8646,2.8646,0,0,1,1.1773-2.4639,6.2565,6.2565,0,0,1,3.663-.8584h2.2437v-1.122a2.4544,2.4544,0,0,0-.66-1.8477,2.8178,2.8178,0,0,0-2.0239-.6377,3.0408,3.0408,0,0,0-1.727.4619,3.81,3.81,0,0,0-1.1553,1.2315l-1.0557-.9893a4.0034,4.0034,0,0,1,1.4736-1.5732,4.6441,4.6441,0,0,1,2.5523-.6494,4.6954,4.6954,0,0,1,3.2119,1.01,3.5544,3.5544,0,0,1,1.144,2.8106v6.2344h1.2979V93.93Zm-5.06-1.2324a4.4825,4.4825,0,0,0,1.21-.1534,2.948,2.948,0,0,0,.9458-.44,2.1747,2.1747,0,0,0,.6162-.66,1.5765,1.5765,0,0,0,.22-.8134V88.76h-2.3315a4.2624,4.2624,0,0,0-2.2115.4394,1.4229,1.4229,0,0,0-.6928,1.2764v.4619a1.5377,1.5377,0,0,0,.6049,1.2978A2.6335,2.6335,0,0,0,507.3335,92.6978Z"/><path class="cls-7" d="M517.7612,93.93a1.8,1.8,0,0,1-1.3974-.5166,1.8648,1.8648,0,0,1-.4727-1.31V77.65h1.76V92.3687h1.6719V93.93Z"/></g><g class="cls-6"><path d="M151.5,176.94,167.52,139.38H149.64v7.8h-4.5V135.06h27.48V139.5L156.9,176.94Z"/><path d="M199.5,176.94v-8.22h-20.22v-4.44l17.52-29.22h7.5v29.46h6.06v4.2h-6.06v8.22Zm-15.48-12.42H199.5V138.96h-.3Z"/></g><rect class="cls-5" x="544" y="30" width="3" height="288"/><rect class="cls-8" x="547" y="71" width="78" height="31"/><g class="cls-6"><path class="cls-7" d="M486.49,147.978h-7.7661V154.93H476.876V139.5737h1.8481V146.35H486.49v-6.7764h1.8477V154.93H486.49Z"/><path class="cls-7" d="M493.1338,140.9165a1.0749,1.0749,0,0,1-.8252-.2754,1.0142,1.0142,0,0,1-.2529-.7148V139.64a1.0159,1.0159,0,0,1,.2529-.7148,1.374,1.374,0,0,1,1.65,0,1.0163,1.0163,0,0,1,.2529.7148v.2862a1.0146,1.0146,0,0,1-.2529.7148A1.0758,1.0758,0,0,1,493.1338,140.9165Zm-.88,2.6621h1.76V154.93h-1.76Z"/><path class="cls-7" d="M507.3237,156.1958a2.7863,2.7863,0,0,1-1.375,2.5762,8.2062,8.2062,0,0,1-4.125.8222,7.5765,7.5765,0,0,1-3.8281-.7246,2.3015,2.3015,0,0,1-1.166-2.0664,2.02,2.02,0,0,1,.4844-1.4385,2.8375,2.8375,0,0,1,1.32-.7587v-.2413a1.6325,1.6325,0,0,1-1.0122-1.5771,1.5867,1.5867,0,0,1,.55-1.3037,3.6156,3.6156,0,0,1,1.4077-.668v-.0879a3.6709,3.6709,0,0,1-1.5728-1.39,3.8965,3.8965,0,0,1-.561-2.0967,4.0344,4.0344,0,0,1,.3081-1.5889,3.5678,3.5678,0,0,1,.8687-1.2461,3.9651,3.9651,0,0,1,1.3422-.8056,5.4852,5.4852,0,0,1,3.9048.1533v-.1982a1.8683,1.8683,0,0,1,.3081-1.1036,1.1513,1.1513,0,0,1,1.0122-.4365h1.6939v1.5625H504.728v.7276a3.7123,3.7123,0,0,1,.9566,1.2685,3.9332,3.9332,0,0,1,.3413,1.666,4.04,4.04,0,0,1-.3081,1.5889,3.569,3.569,0,0,1-.8692,1.2461,3.9292,3.9292,0,0,1-1.353.8056,5.13,5.13,0,0,1-1.76.2872,5.608,5.608,0,0,1-1.1-.11,3.6448,3.6448,0,0,0-1.0341.4512.9313.9313,0,0,0-.462.8252.67.67,0,0,0,.4844.6816,3.7347,3.7347,0,0,0,1.2539.1758h2.42a4.7545,4.7545,0,0,1,3.0688.8008A2.716,2.716,0,0,1,507.3237,156.1958Zm-1.65.12a1.3153,1.3153,0,0,0-.5171-1.0888,3.0684,3.0684,0,0,0-1.8369-.4073h-3.7842a1.6084,1.6084,0,0,0-1.0556,1.54,1.69,1.69,0,0,0,.561,1.2763,2.7465,2.7465,0,0,0,1.9028.5284h1.628a4.6831,4.6831,0,0,0,2.2881-.462A1.4991,1.4991,0,0,0,505.6738,156.3159Zm-3.938-6.5556a2.7278,2.7278,0,0,0,1.7818-.5411,2.0322,2.0322,0,0,0,.66-1.6689v-.6182a2.0336,2.0336,0,0,0-.66-1.6689,3.2054,3.2054,0,0,0-3.564,0,2.0349,2.0349,0,0,0-.66,1.6689v.6182a2.0335,2.0335,0,0,0,.66,1.6689A2.7291,2.7291,0,0,0,501.7358,149.76Z"/><path class="cls-7" d="M509.37,138.65h1.76v6.7549h.0879a3.708,3.708,0,0,1,1.1772-1.5244,3.3286,3.3286,0,0,1,2.0352-.5664,3.5632,3.5632,0,0,1,2.7827,1.1328,4.6128,4.6128,0,0,1,1.0229,3.2011V154.93h-1.76v-6.9893q0-3.0645-2.5742-3.0644a3.9574,3.9574,0,0,0-1.023.1318,2.9816,2.9816,0,0,0-.8911.3975,1.9648,1.9648,0,0,0-.627.6718,1.9179,1.9179,0,0,0-.2309.959V154.93h-1.76Z"/></g><rect class="cls-1" x="547" y="132" width="176" height="31"/><g class="cls-6"><path class="cls-7" d="M454.1143,202.9941h-.11l-1.2978,2.5733-3.6739,6.6885-3.6743-6.6885-1.2978-2.5733h-.11V215.93H442.146V200.5732H444.61l4.4,8.2725h.11l4.4219-8.2725h2.376V215.93h-1.8037Z"/><path class="cls-7" d="M464.1021,216.1934a5.097,5.097,0,0,1-2.1011-.418,4.523,4.523,0,0,1-1.606-1.1983,5.5026,5.5026,0,0,1-1.0342-1.87,8.4386,8.4386,0,0,1,0-4.8955,5.481,5.481,0,0,1,1.0342-1.8808,4.5387,4.5387,0,0,1,1.606-1.1993,5.0969,5.0969,0,0,1,2.1011-.4179,4.8168,4.8168,0,0,1,2.0458.417,4.5254,4.5254,0,0,1,1.54,1.1513,5.13,5.13,0,0,1,.979,1.7422,6.8925,6.8925,0,0,1,.3408,2.2149v.833h-8.1621v.5273a3.889,3.889,0,0,0,.231,1.3535,3.2116,3.2116,0,0,0,.66,1.0889,3.0345,3.0345,0,0,0,1.0562.7266,3.6312,3.6312,0,0,0,1.4189.2636,3.4584,3.4584,0,0,0,1.8809-.5058,3.3236,3.3236,0,0,0,1.2431-1.4522l1.2539.9073a4.38,4.38,0,0,1-1.7158,1.8935A5.1766,5.1766,0,0,1,464.1021,216.1934Zm0-10.4053a3.3476,3.3476,0,0,0-1.32.251,2.9737,2.9737,0,0,0-1.0229.7109,3.3276,3.3276,0,0,0-.6709,1.082,3.7407,3.7407,0,0,0-.2422,1.3662v.1534h6.27v-.24a3.4533,3.4533,0,0,0-.8247-2.416A2.8142,2.8142,0,0,0,464.1021,205.7881Z"/><path class="cls-7" d="M479.1719,214.1025h-.0879a3.4643,3.4643,0,0,1-3.3218,2.0909,4.3166,4.3166,0,0,1-1.9141-.418,4.1472,4.1472,0,0,1-1.4633-1.1875,5.4421,5.4421,0,0,1-.9239-1.87,9.6807,9.6807,0,0,1,0-4.9278,5.4421,5.4421,0,0,1,.9239-1.87,4.1609,4.1609,0,0,1,1.4633-1.1885,4.3166,4.3166,0,0,1,1.9141-.4179,3.8648,3.8648,0,0,1,2.0347.5117,3.1993,3.1993,0,0,1,1.2871,1.5791h.0879v-6.7549h1.76v16.28h-1.76Zm-2.9258.5293a4.0726,4.0726,0,0,0,1.1328-.1552,2.8216,2.8216,0,0,0,.9351-.4532,2.2035,2.2035,0,0,0,.6269-.73,2.0463,2.0463,0,0,0,.231-.9843v-4.2451a1.7434,1.7434,0,0,0-.231-.8731,2.1731,2.1731,0,0,0-.6269-.6963,3.1608,3.1608,0,0,0-.9351-.4531,3.8062,3.8062,0,0,0-1.1328-.166,3.0294,3.0294,0,0,0-2.354.9394,3.5122,3.5122,0,0,0-.8579,2.4658v1.9454a3.5139,3.5139,0,0,0,.8579,2.4658A3.0291,3.0291,0,0,0,476.2461,214.6318Z"/><path class="cls-7" d="M485.5518,201.916a1.0748,1.0748,0,0,1-.8252-.2754,1.0142,1.0142,0,0,1-.253-.7148V200.64a1.0159,1.0159,0,0,1,.253-.7148,1.374,1.374,0,0,1,1.65,0,1.0163,1.0163,0,0,1,.2529.7148v.2862a1.0146,1.0146,0,0,1-.2529.7148A1.0758,1.0758,0,0,1,485.5518,201.916Zm-.88,2.6621h1.76V215.93h-1.76Z"/><path class="cls-7" d="M497.168,214.1025H497.08a5.3707,5.3707,0,0,1-.4287.7735,2.89,2.89,0,0,1-.627.6748,2.93,2.93,0,0,1-.9023.4687,3.9365,3.9365,0,0,1-1.232.1739,3.5942,3.5942,0,0,1-2.7939-1.1329,4.5775,4.5775,0,0,1-1.0342-3.2011v-7.2813h1.76v6.9883q0,3.066,2.5962,3.0654a3.9178,3.9178,0,0,0,1.0229-.1328,2.8123,2.8123,0,0,0,.88-.3965,2,2,0,0,0,.6157-.6718,1.9614,1.9614,0,0,0,.2315-.9815v-7.8711h1.76V215.93h-1.76Z"/><path class="cls-7" d="M502.6675,215.93V204.5781h1.76v1.8262h.0879a5.9367,5.9367,0,0,1,.4512-.8164,2.7956,2.7956,0,0,1,.6162-.6641,2.83,2.83,0,0,1,.8467-.4472,3.6023,3.6023,0,0,1,1.144-.1631,4.1425,4.1425,0,0,1,2.0684.5342,3.2311,3.2311,0,0,1,1.4077,1.7558h.044a3.482,3.482,0,0,1,1.1552-1.6025,3.5453,3.5453,0,0,1,2.2989-.6875,3.4011,3.4011,0,0,1,2.7168,1.1328,4.7488,4.7488,0,0,1,.979,3.2012V215.93h-1.76V208.94a3.7215,3.7215,0,0,0-.5942-2.2929,2.2357,2.2357,0,0,0-1.8916-.7715,3.7092,3.7092,0,0,0-1.001.1318,2.7224,2.7224,0,0,0-.8472.3975,1.9349,1.9349,0,0,0-.5942.6718,1.9948,1.9948,0,0,0-.22.959V215.93h-1.76V208.94a3.7216,3.7216,0,0,0-.5938-2.2929,2.1842,2.1842,0,0,0-1.8481-.7715,3.8281,3.8281,0,0,0-1.0117.1318,2.712,2.712,0,0,0-.8584.3975,2.0476,2.0476,0,0,0-.605.6718,1.9179,1.9179,0,0,0-.231.959V215.93Z"/></g><rect class="cls-9" x="547" y="193" width="37" height="31"/><g class="cls-6"><g class="cls-6"><path class="cls-7" d="M482.1357,276.93V261.5732h1.8482v13.7286h6.5342V276.93Z"/></g><g class="cls-6"><path class="cls-7" d="M497.05,277.1934a5.1208,5.1208,0,0,1-2.09-.418,4.501,4.501,0,0,1-1.6167-1.1983,5.64,5.64,0,0,1-1.045-1.87,8.197,8.197,0,0,1,0-4.8955,5.6157,5.6157,0,0,1,1.045-1.8808,4.5164,4.5164,0,0,1,1.6167-1.1993,5.1208,5.1208,0,0,1,2.09-.4179,5.044,5.044,0,0,1,2.0786.4179,4.6457,4.6457,0,0,1,1.6172,1.1993,5.5272,5.5272,0,0,1,1.0561,1.8808,8.1949,8.1949,0,0,1,0,4.8955,5.5505,5.5505,0,0,1-1.0561,1.87,4.6294,4.6294,0,0,1-1.6172,1.1983A5.044,5.044,0,0,1,497.05,277.1934Zm0-1.5616a3.1983,3.1983,0,0,0,2.332-.88,3.5991,3.5991,0,0,0,.9019-2.6846V270.44a3.5978,3.5978,0,0,0-.9019-2.6836,3.53,3.53,0,0,0-4.664,0,3.5959,3.5959,0,0,0-.9024,2.6836v1.6279a3.5972,3.5972,0,0,0,.9024,2.6846A3.1967,3.1967,0,0,0,497.05,275.6318Z"/></g><g class="cls-6"><path class="cls-7" d="M503.7822,265.5781h1.7158l1.21,4.9053,1.21,4.9727h.0439l1.3862-4.9727,1.43-4.9053h1.562l1.4737,4.9053,1.4082,4.9727h.0439l1.166-4.9727,1.232-4.9053h1.65L516.3,276.93h-2.1782l-1.584-5.4561-.99-3.4541h-.0444l-.9678,3.4541-1.584,5.4561h-2.1342Z"/></g></g><rect class="cls-2" x="547" y="254" width="108" height="31"/><g class="cls-6"><path class="cls-7" d="M996.793,251.2637a6.6149,6.6149,0,0,1-3.1905-.7149,6.773,6.773,0,0,1-2.2441-1.9687l1.3643-1.1446a5.9922,5.9922,0,0,0,1.8037,1.64,4.6525,4.6525,0,0,0,2.332.5605,3.6157,3.6157,0,0,0,2.5195-.7919,2.7177,2.7177,0,0,0,.8692-2.1114,2.1631,2.1631,0,0,0-.66-1.6943,4.9722,4.9722,0,0,0-2.1777-.9463l-1.2539-.2861a7.2729,7.2729,0,0,1-3.2237-1.4629,3.4868,3.4868,0,0,1-1.11-2.7608,4.1772,4.1772,0,0,1,.373-1.8037,3.6171,3.6171,0,0,1,1.0459-1.32,4.7307,4.7307,0,0,1,1.6055-.8027,7.261,7.261,0,0,1,2.0566-.2754,6.4666,6.4666,0,0,1,2.9815.6377,5.7415,5.7415,0,0,1,2.1006,1.87l-1.3858,1.0127a4.7845,4.7845,0,0,0-1.54-1.3867,4.5408,4.5408,0,0,0-2.2441-.5059,3.8231,3.8231,0,0,0-2.32.627,2.1878,2.1878,0,0,0-.8476,1.8808,1.9822,1.9822,0,0,0,.7148,1.6612,5.5417,5.5417,0,0,0,2.168.8916l1.2539.2851a6.5274,6.5274,0,0,1,3.2773,1.54,3.764,3.764,0,0,1,1.0127,2.75,4.8615,4.8615,0,0,1-.3632,1.914,3.9275,3.9275,0,0,1-1.045,1.4522,4.8522,4.8522,0,0,1-1.6611.9238A6.8842,6.8842,0,0,1,996.793,251.2637Z"/><path class="cls-7" d="M1009.3105,251.2637a5.2292,5.2292,0,0,1-2.1337-.418,4.3393,4.3393,0,0,1-1.5948-1.1875,5.271,5.271,0,0,1-.99-1.87,9.0767,9.0767,0,0,1,0-4.9277,5.2715,5.2715,0,0,1,.99-1.87,4.3537,4.3537,0,0,1,1.5948-1.1884,5.2276,5.2276,0,0,1,2.1337-.418,4.551,4.551,0,0,1,2.7168.7373,4.4922,4.4922,0,0,1,1.5293,1.9248l-1.4736.748a2.68,2.68,0,0,0-1.0127-1.3642,3.0378,3.0378,0,0,0-1.76-.4834,3.5068,3.5068,0,0,0-1.3857.2529,2.7017,2.7017,0,0,0-.99.7041,2.9675,2.9675,0,0,0-.5938,1.0781,4.5518,4.5518,0,0,0-.1982,1.375v1.9356a3.6858,3.6858,0,0,0,.8027,2.4531,2.9128,2.9128,0,0,0,2.3652.957,3.1927,3.1927,0,0,0,3.08-1.98l1.2764.8584a4.5123,4.5123,0,0,1-1.64,1.958A4.79,4.79,0,0,1,1009.3105,251.2637Z"/><path class="cls-7" d="M1020.3105,251.2637a5.1174,5.1174,0,0,1-2.09-.418,4.5,4.5,0,0,1-1.6172-1.1982,5.6473,5.6473,0,0,1-1.0449-1.87,8.197,8.197,0,0,1,0-4.8955,5.6224,5.6224,0,0,1,1.0449-1.8808,4.5145,4.5145,0,0,1,1.6172-1.1992,5.1158,5.1158,0,0,1,2.09-.418,5.0448,5.0448,0,0,1,2.0791.418,4.6528,4.6528,0,0,1,1.6172,1.1992,5.5265,5.5265,0,0,1,1.0557,1.8808,8.197,8.197,0,0,1,0,4.8955,5.55,5.55,0,0,1-1.0557,1.87,4.6376,4.6376,0,0,1-1.6172,1.1982A5.0464,5.0464,0,0,1,1020.3105,251.2637Zm0-1.5616a3.1985,3.1985,0,0,0,2.3321-.88,3.5974,3.5974,0,0,0,.9023-2.6846V244.51a3.5963,3.5963,0,0,0-.9023-2.6836,3.53,3.53,0,0,0-4.6641,0,3.5963,3.5963,0,0,0-.9023,2.6836v1.6279a3.5974,3.5974,0,0,0,.9023,2.6846A3.1984,3.1984,0,0,0,1020.3105,249.7021Z"/><path class="cls-7" d="M1028.3408,251V239.6484h1.76v2.09h.11a3.4236,3.4236,0,0,1,1.1-1.4522,3.3776,3.3776,0,0,1,2.1778-.6377h.6826v1.76h-1.0342a3.9727,3.9727,0,0,0-2.2334.5391,1.59,1.59,0,0,0-.8027,1.3525V251Z"/><path class="cls-7" d="M1040.5723,251.2637a5.0962,5.0962,0,0,1-2.1006-.418,4.5221,4.5221,0,0,1-1.6065-1.1982,5.51,5.51,0,0,1-1.0341-1.87,8.45,8.45,0,0,1,0-4.8955,5.4875,5.4875,0,0,1,1.0341-1.8808,4.5367,4.5367,0,0,1,1.6065-1.1992,5.0946,5.0946,0,0,1,2.1006-.418,4.8175,4.8175,0,0,1,2.0459.417,4.5212,4.5212,0,0,1,1.54,1.1513,5.1231,5.1231,0,0,1,.9795,1.7422,6.9035,6.9035,0,0,1,.3408,2.2149v.833h-8.1621v.5273a3.9005,3.9005,0,0,0,.2305,1.3535,3.2116,3.2116,0,0,0,.66,1.0889,3.0375,3.0375,0,0,0,1.0567.7266,3.6277,3.6277,0,0,0,1.4189.2636,3.4608,3.4608,0,0,0,1.8809-.5058,3.3268,3.3268,0,0,0,1.2431-1.4522l1.2539.9073a4.3851,4.3851,0,0,1-1.7158,1.8935A5.18,5.18,0,0,1,1040.5723,251.2637Zm0-10.4053a3.3485,3.3485,0,0,0-1.32.251,2.9759,2.9759,0,0,0-1.0225.7109,3.3276,3.3276,0,0,0-.6709,1.082,3.7309,3.7309,0,0,0-.2422,1.3663v.1533h6.27v-.24a3.453,3.453,0,0,0-.8242-2.416A2.8163,2.8163,0,0,0,1040.5723,240.8584Z"/></g><g class="cls-6"><path class="cls-7" d="M141.1978,203.9639a5.5549,5.5549,0,0,1-4.5542-1.99,9.0879,9.0879,0,0,1-1.628-5.8632,9.4711,9.4711,0,0,1,1.628-5.9512,5.4562,5.4562,0,0,1,4.5542-2.0791,5.37,5.37,0,0,1,5.28,3.3437l-1.4956.9024a4.27,4.27,0,0,0-1.4082-1.9033,3.83,3.83,0,0,0-2.3759-.7149,4.0265,4.0265,0,0,0-1.771.376,3.649,3.649,0,0,0-1.32,1.07,4.9928,4.9928,0,0,0-.8252,1.6562,7.52,7.52,0,0,0-.2861,2.1524v2.2959a5.7348,5.7348,0,0,0,1.1,3.73,3.7775,3.7775,0,0,0,3.1021,1.3466,3.93,3.93,0,0,0,2.4638-.7588,4.3775,4.3775,0,0,0,1.4522-2.0126l1.4741.9238a5.9068,5.9068,0,0,1-2.09,2.5517A5.7423,5.7423,0,0,1,141.1978,203.9639Z"/><path class="cls-7" d="M153.5615,203.9639a5.1211,5.1211,0,0,1-2.09-.418,4.5028,4.5028,0,0,1-1.6167-1.1982,5.64,5.64,0,0,1-1.0449-1.87,8.1949,8.1949,0,0,1,0-4.8955,5.6138,5.6138,0,0,1,1.0449-1.8808,4.5159,4.5159,0,0,1,1.6167-1.1992,5.12,5.12,0,0,1,2.09-.418,5.0424,5.0424,0,0,1,2.0786.418,4.6433,4.6433,0,0,1,1.6172,1.1992,5.5274,5.5274,0,0,1,1.0562,1.8808,8.197,8.197,0,0,1,0,4.8955,5.5522,5.5522,0,0,1-1.0562,1.87,4.6294,4.6294,0,0,1-1.6172,1.1982A5.044,5.044,0,0,1,153.5615,203.9639Zm0-1.5616a3.1987,3.1987,0,0,0,2.3321-.88,3.6,3.6,0,0,0,.9018-2.6846V197.21a3.5982,3.5982,0,0,0-.9018-2.6836,3.53,3.53,0,0,0-4.6641,0,3.5959,3.5959,0,0,0-.9024,2.6836v1.6279a3.5972,3.5972,0,0,0,.9024,2.6846A3.1968,3.1968,0,0,0,153.5615,202.4023Z"/><path class="cls-7" d="M161.5913,203.7V192.3486h1.76v1.8262h.0879a3.708,3.708,0,0,1,1.1772-1.5244,3.3286,3.3286,0,0,1,2.0352-.5664,3.5632,3.5632,0,0,1,2.7827,1.1328,4.6131,4.6131,0,0,1,1.0229,3.2012V203.7h-1.76v-6.9893q0-3.0644-2.5743-3.0644a3.9572,3.9572,0,0,0-1.0229.1318,2.98,2.98,0,0,0-.8911.3975,1.9651,1.9651,0,0,0-.627.6719,1.9175,1.9175,0,0,0-.2309.9589V203.7Z"/><path class="cls-7" d="M176.5952,203.7a1.8029,1.8029,0,0,1-1.397-.5156,1.92,1.92,0,0,1-.4731-1.3506V193.91h-1.87v-1.5616h1.0556a1.0343,1.0343,0,0,0,.7813-.2314,1.2012,1.2012,0,0,0,.209-.8027v-2.1124h1.584v3.1465h2.4858V193.91h-2.4858v8.2285h2.31V203.7Z"/><path class="cls-7" d="M181.8091,203.7V192.3486h1.76v2.09h.11a3.4276,3.4276,0,0,1,1.1-1.4522,3.378,3.378,0,0,1,2.1782-.6377h.6822v1.76H186.605a3.9718,3.9718,0,0,0-2.2329.5391A1.5891,1.5891,0,0,0,183.5688,196v7.7Z"/><path class="cls-7" d="M194.0635,203.9639a5.1216,5.1216,0,0,1-2.09-.418,4.5036,4.5036,0,0,1-1.6167-1.1982,5.6413,5.6413,0,0,1-1.0449-1.87,8.197,8.197,0,0,1,0-4.8955,5.6155,5.6155,0,0,1,1.0449-1.8808,4.5167,4.5167,0,0,1,1.6167-1.1992,5.12,5.12,0,0,1,2.09-.418,5.0424,5.0424,0,0,1,2.0786.418,4.6442,4.6442,0,0,1,1.6172,1.1992,5.5272,5.5272,0,0,1,1.0561,1.8808,8.1949,8.1949,0,0,1,0,4.8955,5.552,5.552,0,0,1-1.0561,1.87,4.63,4.63,0,0,1-1.6172,1.1982A5.044,5.044,0,0,1,194.0635,203.9639Zm0-1.5616a3.1984,3.1984,0,0,0,2.332-.88,3.5991,3.5991,0,0,0,.9019-2.6846V197.21a3.5978,3.5978,0,0,0-.9019-2.6836,3.53,3.53,0,0,0-4.6641,0,3.5963,3.5963,0,0,0-.9023,2.6836v1.6279a3.5976,3.5976,0,0,0,.9023,2.6846A3.1971,3.1971,0,0,0,194.0635,202.4023Z"/><path class="cls-7" d="M203.9634,203.7a1.8,1.8,0,0,1-1.3975-.5166,1.8651,1.8651,0,0,1-.4726-1.31V187.42h1.76v14.7188h1.6719V203.7Z"/><path class="cls-7" d="M211.4868,203.9639a5.311,5.311,0,0,1-2.6509-.6045,6.0265,6.0265,0,0,1-1.8369-1.6172l1.2539-1.0117a4.9309,4.9309,0,0,0,1.4742,1.2871,3.838,3.838,0,0,0,1.892.45,2.8052,2.8052,0,0,0,1.7491-.4834,1.7581,1.7581,0,0,0,.1977-2.4971,2.62,2.62,0,0,0-1.5508-.6494l-.9023-.1318a7.5026,7.5026,0,0,1-1.4517-.3409,4.04,4.04,0,0,1-1.1552-.6162,2.6457,2.6457,0,0,1-.77-.957,3.1163,3.1163,0,0,1-.2749-1.3643,3.28,3.28,0,0,1,.3081-1.4629,2.9453,2.9453,0,0,1,.8472-1.0449,3.7048,3.7048,0,0,1,1.2866-.6269,5.972,5.972,0,0,1,1.606-.209,5.0181,5.0181,0,0,1,2.3213.4844,5.2,5.2,0,0,1,1.6391,1.3418l-1.166,1.0556a3.51,3.51,0,0,0-1.1-.957,3.55,3.55,0,0,0-1.8261-.4287,2.5266,2.5266,0,0,0-1.6612.4726,1.5973,1.5973,0,0,0-.56,1.2871,1.3463,1.3463,0,0,0,.56,1.21,4.1772,4.1772,0,0,0,1.6172.5508l.88.1318a4.72,4.72,0,0,1,2.6841,1.0889,2.8626,2.8626,0,0,1,.792,2.1006,3.2157,3.2157,0,0,1-1.1221,2.5967A4.6294,4.6294,0,0,1,211.4868,203.9639Z"/></g></svg>