<?xml version="1.0" encoding="utf-8"?>
<!-- Generator: Adobe Illustrator 26.0.1, SVG Export Plug-In . SVG Version: 6.00 Build 0)  -->
<svg version="1.1" xmlns="http://www.w3.org/2000/svg" xmlns:xlink="http://www.w3.org/1999/xlink" x="0px" y="0px"
	 viewBox="0 0 1246 362" style="enable-background:new 0 0 1246 362;" xml:space="preserve">
<style type="text/css">
	.st0{fill:#FB4B53;}
	.st1{fill:#FDD13A;}
	.st2{fill:#A8A8A8;}
	.st3{fill:#198038;}
	.st4{fill:#E0E0E0;}
	.st5{fill:#6C0911;}
	.st6{fill:#FF7200;}
	.st7{font-family:'IBMPlexSans';}
	.st8{font-size:60px;}
	.st9{fill:#525252;}
	.st10{font-size:22px;}
</style>
<g id="Layer_1">
	<path class="st0" d="M307,103.8C268.6,34.5,181.2,9.4,111.9,47.8S17.6,173.6,56,242.9c17,30.7,44.7,54.1,77.8,65.8l10.5-29.8
		C86,258.3,55.4,194.4,76,136.1s84.5-88.9,142.8-68.3c25.8,9.1,47.4,27.4,60.7,51.3l26.9-14.9l0,0L307,103.8z"/>
	<path class="st1" d="M181.5,285.3c-12.7,0-25.3-2.1-37.3-6.4l-10.5,29.8c57.2,20.2,121,2.2,159.2-44.9l-24.5-19.9
		C247.2,270.1,215.2,285.3,181.5,285.3z"/>
	<path class="st2" d="M289.2,203.7c-4.1,14.7-11.2,28.3-20.8,40.2l24.5,19.9c12.3-15.2,21.4-32.7,26.7-51.5L289.2,203.7z"/>
	<path class="st3" d="M307,103.8l-27.6,15.3c14.3,25.9,17.8,56.3,9.8,84.8l30.4,8.6C329.9,176,325.4,137,307,103.8z"/>
	<path class="st4" d="M1012.9,103.3c84.4,0,155.3,63.7,164.1,147.7h28.9c-3.4-46.2-23.3-89.7-56.1-122.5
		c-75.8-75.8-198.7-75.8-274.5,0c-32.8,32.7-52.8,76.2-56.2,122.5h29.6C857.6,167,928.5,103.3,1012.9,103.3z"/>
	<path class="st3" d="M1137.1,159.7l24.5-18.2c-3.7-4.4-7.6-8.8-11.8-12.9c-75.8-75.8-198.7-75.8-274.5,0
		c-32.8,32.7-52.8,76.2-56.2,122.5h29.6c9.5-90.6,90.7-156.4,181.4-146.8C1071.5,108.5,1109.8,128.4,1137.1,159.7z"/>
	<rect x="544" y="30" class="st4" width="3" height="288"/>
	<rect x="547" y="71" class="st5" width="78" height="31"/>
	<rect x="547" y="132" class="st0" width="176" height="31"/>
	<rect x="547" y="193" class="st6" width="37" height="31"/>
	<rect x="547" y="254" class="st1" width="108" height="31"/>
</g>
<g id="Layer_2">
	<text transform="matrix(1 0 0 1 958 215.94)" class="st7 st8">812</text>
	<text transform="matrix(1 0 0 1 141 176.94)" class="st7 st8">74</text>
	<text transform="matrix(1 0 0 1 450.75 93.93)" class="st9 st7 st10">Critical</text>
	<text transform="matrix(1 0 0 1 474.83 154.93)" class="st9 st7 st10">High</text>
	<text transform="matrix(1 0 0 1 440.1 215.93)" class="st9 st7 st10">Medium</text>
	<text transform="matrix(1 0 0 1 480.09 276.93)" class="st9 st7 st10">Low</text>
	<text transform="matrix(1 0 0 1 990.4347 251.0003)" class="st9 st7 st10">Score</text>
	<text transform="matrix(1 0 0 1 133.7398 203.7004)" class="st9 st7 st10">Controls</text>
</g>
</svg>
