<?xml version="1.0" encoding="utf-8"?>
<!-- Generator: Adobe Illustrator 24.2.3, SVG Export Plug-In . SVG Version: 6.00 Build 0)  -->
<svg version="1.1" id="Layer_1" xmlns="http://www.w3.org/2000/svg" xmlns:xlink="http://www.w3.org/1999/xlink" x="0px" y="0px"
	 viewBox="0 0 1246 362" style="enable-background:new 0 0 1246 362;" xml:space="preserve">
<style type="text/css">
	.st0{fill:#FB4B53;}
	.st1{fill:#FDD13A;}
	.st2{fill:#A8A8A8;}
	.st3{fill:#198038;}
	.st4{fill:#E0E0E0;}
	.st5{fill:#6C0911;}
	.st6{fill:#FF7200;}
	.st7{fill:#525252;}
</style>
<g id="Layer_1_1_">
	<path class="st0" d="M307,103.8C268.6,34.5,181.2,9.4,111.9,47.8S17.6,173.6,56,242.9c17,30.7,44.7,54.1,77.8,65.8l10.5-29.8
		C86,258.3,55.4,194.4,76,136.1s84.5-88.9,142.8-68.3c25.8,9.1,47.4,27.4,60.7,51.3l26.9-14.9l0,0L307,103.8z"/>
	<path class="st1" d="M181.5,285.3c-12.7,0-25.3-2.1-37.3-6.4l-10.5,29.8c57.2,20.2,121,2.2,159.2-44.9l-24.5-19.9
		C247.2,270.1,215.2,285.3,181.5,285.3z"/>
	<path class="st2" d="M289.2,203.7c-4.1,14.7-11.2,28.3-20.8,40.2l24.5,19.9c12.3-15.2,21.4-32.7,26.7-51.5L289.2,203.7z"/>
	<path class="st3" d="M307,103.8l-27.6,15.3c14.3,25.9,17.8,56.3,9.8,84.8l30.4,8.6C329.9,176,325.4,137,307,103.8z"/>
	<path class="st4" d="M1012.9,103.3c84.4,0,155.3,63.7,164.1,147.7h28.9c-3.4-46.2-23.3-89.7-56.1-122.5
		c-75.8-75.8-198.7-75.8-274.5,0c-32.8,32.7-52.8,76.2-56.2,122.5h29.6C857.6,167,928.5,103.3,1012.9,103.3z"/>
	<path class="st3" d="M1137.1,159.7l24.5-18.2c-3.7-4.4-7.6-8.8-11.8-12.9c-75.8-75.8-198.7-75.8-274.5,0
		c-32.8,32.7-52.8,76.2-56.2,122.5h29.6c9.5-90.6,90.7-156.4,181.4-146.8C1071.5,108.5,1109.8,128.4,1137.1,159.7z"/>
	<rect x="544" y="30" class="st4" width="3" height="288"/>
	<rect x="547" y="71" class="st5" width="78" height="31"/>
	<rect x="547" y="132" class="st0" width="176" height="31"/>
	<rect x="547" y="193" class="st6" width="37" height="31"/>
	<rect x="547" y="254" class="st1" width="108" height="31"/>
</g>
<g id="Layer_2_1_">
	<g>
		<path d="M976,216.7c-2.1,0-4.3-0.3-6.3-0.9c-1.7-0.5-3.2-1.4-4.5-2.6c-1.2-1.1-2.1-2.4-2.8-3.8c-0.6-1.5-0.9-3.2-0.9-4.8
			c-0.1-2.5,0.7-4.9,2.3-6.8c1.7-1.7,3.8-3,6.1-3.5v-0.5c-2.1-0.7-3.9-2-5.2-3.7c-1.3-1.8-2-3.9-1.9-6.1c-0.1-3,1.2-5.8,3.5-7.7
			c2.3-1.9,5.6-2.8,9.8-2.9c4.2,0,7.5,0.9,9.8,2.9c2.3,1.9,3.6,4.7,3.5,7.7c0.1,2.2-0.6,4.4-1.9,6.1c-1.3,1.7-3.2,3-5.2,3.7v0.5
			c2.3,0.6,4.5,1.8,6.1,3.5c1.6,1.9,2.5,4.3,2.3,6.8c0,1.6-0.3,3.3-0.9,4.8c-0.6,1.5-1.6,2.8-2.8,3.8c-1.3,1.1-2.9,2-4.5,2.6
			C980.3,216.4,978.1,216.7,976,216.7z M976,212.2c2.4,0.2,4.8-0.5,6.8-1.9c1.6-1.4,2.5-3.4,2.4-5.5v-1.3c0.1-2.1-0.8-4.2-2.4-5.5
			c-4.1-2.6-9.4-2.6-13.6,0c-1.6,1.4-2.5,3.4-2.4,5.5v1.3c-0.1,2.1,0.8,4.2,2.4,5.5C971.2,211.7,973.6,212.4,976,212.2L976,212.2z
			 M976,191.8c2.6,0,4.6-0.6,6-1.7c1.4-1.2,2.2-3,2-4.9v-0.9c0.1-1.9-0.6-3.7-2-4.9c-1.4-1.1-3.4-1.7-6-1.7s-4.6,0.6-6,1.7
			c-1.4,1.2-2.2,3-2,4.9v0.9c-0.1,1.9,0.6,3.7,2,4.9C971.4,191.3,973.4,191.8,976,191.8z"/>
		<path d="M999.3,215.9v-4.4h11.7v-33.7h-0.4l-10.6,9.8l-2.9-3.2l11.1-10.4h7.9v37.4h10.8v4.4H999.3z"/>
		<path d="M1062,215.9h-27.5v-5.2l13.7-12.6c1.9-1.7,3.5-3.6,4.9-5.7c1.2-1.8,1.9-3.9,2-6.1v-0.7c0.1-2.1-0.6-4.1-1.9-5.7
			c-1.3-1.4-3.2-2.2-5.8-2.2c-1.1,0-2.3,0.2-3.4,0.5c-0.9,0.3-1.8,0.8-2.5,1.5c-0.7,0.6-1.3,1.4-1.7,2.3c-0.5,0.9-0.8,1.8-1.1,2.8
			l-4.5-1.7c0.4-1.3,1-2.5,1.7-3.6c1.5-2.5,3.8-4.4,6.5-5.3c3.5-1.1,7.3-1.1,10.8,0.1c3,1.1,5.4,3.4,6.5,6.4
			c0.6,1.6,0.9,3.2,0.9,4.9c0,1.5-0.2,3.1-0.7,4.6c-0.5,1.4-1.1,2.7-1.9,4c-0.8,1.3-1.8,2.6-2.9,3.7c-1.1,1.2-2.4,2.4-3.7,3.6
			l-11.3,10.2h22V215.9z"/>
	</g>
	<g>
		<path d="M151.5,176.9l16-37.6h-17.9v7.8h-4.5v-12.1h27.5v4.4l-15.7,37.4H151.5z"/>
		<path d="M199.5,176.9v-8.2h-20.2v-4.4l17.5-29.2h7.5v29.5h6.1v4.2h-6.1v8.2L199.5,176.9z M184,164.5h15.5V139h-0.3L184,164.5z"/>
	</g>
	<g>
		<path class="st7" d="M458.2,94.2c-1.7,0.1-3.4-0.6-4.6-2c-1.2-1.7-1.8-3.8-1.6-5.9c-0.1-2.1,0.4-4.2,1.6-6
			c1.1-1.4,2.8-2.2,4.6-2.1c2.3-0.1,4.4,1.2,5.3,3.3l-1.5,0.9c-0.3-0.8-0.8-1.4-1.4-1.9c-0.7-0.5-1.5-0.7-2.4-0.7
			c-0.6,0-1.2,0.1-1.8,0.4c-0.5,0.2-1,0.6-1.3,1.1c-0.4,0.5-0.7,1.1-0.8,1.7c-0.2,0.7-0.3,1.4-0.3,2.2v2.3c-0.1,1.3,0.3,2.7,1.1,3.7
			c0.8,0.9,1.9,1.4,3.1,1.3c0.9,0,1.8-0.2,2.5-0.8c0.7-0.5,1.2-1.2,1.5-2l1.5,0.9c-0.4,1-1.2,1.9-2.1,2.6
			C460.5,93.9,459.4,94.2,458.2,94.2z"/>
		<path class="st7" d="M466.3,93.9V82.6h1.8v2.1h0.1c0.2-0.6,0.6-1.1,1.1-1.5c0.6-0.5,1.4-0.7,2.2-0.6h0.7v1.8h-1
			c-0.8,0-1.6,0.1-2.2,0.5c-0.5,0.3-0.8,0.8-0.8,1.4v7.7L466.3,93.9z"/>
		<path class="st7" d="M475.2,79.9c-0.3,0-0.6-0.1-0.8-0.3c-0.2-0.2-0.3-0.5-0.3-0.7v-0.3c0-0.3,0.1-0.5,0.3-0.7
			c0.5-0.4,1.2-0.4,1.6,0c0.2,0.2,0.3,0.5,0.3,0.7v0.3c0,0.3-0.1,0.5-0.3,0.7C475.8,79.8,475.5,79.9,475.2,79.9z M474.4,82.6h1.8
			v11.4h-1.8V82.6z"/>
		<path class="st7" d="M482.4,93.9c-0.5,0-1-0.2-1.4-0.5c-0.3-0.4-0.5-0.9-0.5-1.4v-7.9h-1.9v-1.6h1.1c0.3,0,0.6-0.1,0.8-0.2
			c0.2-0.2,0.2-0.5,0.2-0.8v-2.1h1.6v3.1h2.5v1.6h-2.5v8.2h2.3v1.6H482.4z"/>
		<path class="st7" d="M488.5,79.9c-0.3,0-0.6-0.1-0.8-0.3c-0.2-0.2-0.3-0.5-0.3-0.7v-0.3c0-0.3,0.1-0.5,0.3-0.7
			c0.5-0.4,1.2-0.4,1.6,0c0.2,0.2,0.3,0.5,0.3,0.7v0.3c0,0.3-0.1,0.5-0.3,0.7C489.1,79.8,488.8,79.9,488.5,79.9z M487.6,82.6h1.8
			v11.4h-1.8V82.6z"/>
		<path class="st7" d="M497.3,94.2c-0.7,0-1.5-0.1-2.1-0.4c-0.6-0.3-1.2-0.7-1.6-1.2c-0.5-0.6-0.8-1.2-1-1.9c-0.5-1.6-0.5-3.3,0-4.9
			c0.2-0.7,0.5-1.3,1-1.9c0.4-0.5,1-0.9,1.6-1.2c0.7-0.3,1.4-0.4,2.1-0.4c1,0,1.9,0.2,2.7,0.7c0.7,0.5,1.2,1.2,1.5,1.9l-1.5,0.7
			c-0.2-0.6-0.5-1-1-1.4c-0.5-0.3-1.1-0.5-1.8-0.5c-0.5,0-0.9,0.1-1.4,0.3c-0.4,0.2-0.7,0.4-1,0.7c-0.3,0.3-0.5,0.7-0.6,1.1
			c-0.1,0.4-0.2,0.9-0.2,1.4v1.9c0,0.9,0.2,1.8,0.8,2.5c0.6,0.7,1.5,1,2.4,1c1.3,0.1,2.6-0.7,3.1-2l1.3,0.9c-0.3,0.8-0.9,1.5-1.6,2
			C499.2,94,498.3,94.2,497.3,94.2z"/>
		<path class="st7" d="M512.4,93.9c-0.5,0.1-1.1-0.1-1.4-0.5c-0.3-0.4-0.5-0.8-0.5-1.3h-0.1c-0.2,0.7-0.6,1.2-1.2,1.6
			c-0.6,0.4-1.3,0.5-2,0.5c-1,0.1-2-0.3-2.8-0.9c-0.7-0.7-1-1.6-1-2.5c0-1,0.4-1.9,1.2-2.5c1.1-0.7,2.4-1,3.7-0.9h2.2v-1.1
			c0-0.7-0.2-1.4-0.7-1.8c-0.6-0.5-1.3-0.7-2-0.6c-0.6,0-1.2,0.1-1.7,0.5c-0.5,0.3-0.9,0.7-1.2,1.2l-1.1-1c0.3-0.6,0.8-1.2,1.5-1.6
			c0.8-0.5,1.7-0.7,2.6-0.6c1.2-0.1,2.3,0.3,3.2,1c0.8,0.7,1.2,1.7,1.1,2.8v6.2h1.3v1.6H512.4z M507.3,92.7c0.4,0,0.8,0,1.2-0.2
			c0.3-0.1,0.7-0.2,0.9-0.4c0.2-0.2,0.5-0.4,0.6-0.7c0.1-0.2,0.2-0.5,0.2-0.8v-1.9H508c-0.8-0.1-1.5,0.1-2.2,0.4
			c-0.4,0.3-0.7,0.8-0.7,1.3v0.5c0,0.5,0.2,1,0.6,1.3C506.2,92.6,506.8,92.7,507.3,92.7L507.3,92.7z"/>
		<path class="st7" d="M517.8,93.9c-0.5,0-1-0.2-1.4-0.5c-0.3-0.4-0.5-0.8-0.5-1.3V77.7h1.8v14.7h1.7v1.6H517.8z"/>
	</g>
	<g>
		<path class="st7" d="M486.5,148h-7.8v7h-1.8v-15.4h1.8v6.8h7.8v-6.8h1.8v15.4h-1.8V148z"/>
		<path class="st7" d="M493.1,140.9c-0.3,0-0.6-0.1-0.8-0.3c-0.2-0.2-0.3-0.5-0.3-0.7v-0.3c0-0.3,0.1-0.5,0.3-0.7
			c0.5-0.4,1.2-0.4,1.6,0c0.2,0.2,0.3,0.5,0.3,0.7v0.3c0,0.3-0.1,0.5-0.3,0.7C493.7,140.8,493.4,140.9,493.1,140.9z M492.3,143.6
			h1.8v11.4h-1.8V143.6z"/>
		<path class="st7" d="M507.3,156.2c0.1,1-0.5,2-1.4,2.6c-1.3,0.6-2.7,0.9-4.1,0.8c-1.3,0.1-2.6-0.2-3.8-0.7
			c-0.7-0.4-1.2-1.2-1.2-2.1c0-0.5,0.1-1,0.5-1.4c0.4-0.4,0.8-0.6,1.3-0.8v-0.2c-0.6-0.3-1-0.9-1-1.6c0-0.5,0.2-1,0.5-1.3
			c0.4-0.3,0.9-0.6,1.4-0.7v-0.1c-0.6-0.3-1.2-0.8-1.6-1.4c-0.4-0.6-0.6-1.4-0.6-2.1c0-0.5,0.1-1.1,0.3-1.6c0.2-0.5,0.5-0.9,0.9-1.2
			c0.4-0.4,0.8-0.6,1.3-0.8c1.3-0.4,2.7-0.4,3.9,0.2v-0.2c0-0.4,0.1-0.8,0.3-1.1c0.2-0.3,0.6-0.5,1-0.4h1.7v1.6h-2.2v0.7
			c0.4,0.3,0.7,0.8,1,1.3c0.2,0.5,0.4,1.1,0.3,1.7c0,0.5-0.1,1.1-0.3,1.6c-0.2,0.5-0.5,0.9-0.9,1.2c-0.4,0.4-0.9,0.6-1.4,0.8
			c-0.6,0.2-1.2,0.3-1.8,0.3c-0.4,0-0.7,0-1.1-0.1c-0.4,0.1-0.7,0.2-1,0.5c-0.3,0.2-0.5,0.5-0.5,0.8c0,0.3,0.2,0.6,0.5,0.7
			c0.4,0.1,0.8,0.2,1.3,0.2h2.4c1.1-0.1,2.2,0.2,3.1,0.8C507,154.5,507.4,155.4,507.3,156.2z M505.7,156.3c0-0.4-0.2-0.8-0.5-1.1
			c-0.6-0.3-1.2-0.5-1.8-0.4h-3.8c-0.6,0.2-1.1,0.9-1.1,1.5c0,0.5,0.2,1,0.6,1.3c0.5,0.4,1.2,0.6,1.9,0.5h1.6c0.8,0,1.6-0.1,2.3-0.5
			C505.4,157.4,505.7,156.9,505.7,156.3L505.7,156.3z M501.7,149.8c0.6,0,1.3-0.2,1.8-0.5c0.5-0.4,0.7-1,0.7-1.7v-0.6
			c0.1-0.6-0.2-1.2-0.7-1.7c-1.1-0.7-2.5-0.7-3.6,0c-0.5,0.4-0.7,1-0.7,1.7v0.6c-0.1,0.6,0.2,1.2,0.7,1.7
			C500.5,149.6,501.1,149.8,501.7,149.8L501.7,149.8z"/>
		<path class="st7" d="M509.4,138.6h1.8v6.8h0.1c0.3-0.6,0.7-1.1,1.2-1.5c0.6-0.4,1.3-0.6,2-0.6c1-0.1,2.1,0.4,2.8,1.1
			c0.7,0.9,1.1,2,1,3.2v7.3h-1.8v-7c0-2-0.9-3.1-2.6-3.1c-0.3,0-0.7,0-1,0.1c-0.3,0.1-0.6,0.2-0.9,0.4c-0.3,0.2-0.5,0.4-0.6,0.7
			c-0.2,0.3-0.2,0.6-0.2,1v7.9h-1.8L509.4,138.6z"/>
	</g>
	<g>
		<path class="st7" d="M454.1,203H454l-1.3,2.6l-3.7,6.7l-3.7-6.7l-1.3-2.6H444v12.9h-1.8v-15.4h2.5l4.4,8.3h0.1l4.4-8.3h2.4v15.4
			h-1.8L454.1,203z"/>
		<path class="st7" d="M464.1,216.2c-0.7,0-1.4-0.1-2.1-0.4c-0.6-0.3-1.2-0.7-1.6-1.2c-0.5-0.5-0.8-1.2-1-1.9
			c-0.5-1.6-0.5-3.3,0-4.9c0.2-0.7,0.6-1.3,1-1.9c0.4-0.5,1-0.9,1.6-1.2c0.7-0.3,1.4-0.4,2.1-0.4c0.7,0,1.4,0.1,2,0.4
			c0.6,0.3,1.1,0.7,1.5,1.2c0.4,0.5,0.8,1.1,1,1.7c0.2,0.7,0.3,1.5,0.3,2.2v0.8h-8.2v0.5c0,0.5,0.1,0.9,0.2,1.4
			c0.1,0.4,0.4,0.8,0.7,1.1c0.3,0.3,0.7,0.6,1.1,0.7c0.5,0.2,0.9,0.3,1.4,0.3c0.7,0,1.3-0.2,1.9-0.5c0.5-0.4,1-0.9,1.2-1.5l1.3,0.9
			c-0.4,0.8-1,1.4-1.7,1.9C466,216,465.1,216.2,464.1,216.2z M464.1,205.8c-0.5,0-0.9,0.1-1.3,0.3c-0.4,0.2-0.7,0.4-1,0.7
			c-0.3,0.3-0.5,0.7-0.7,1.1c-0.2,0.4-0.2,0.9-0.2,1.4v0.2h6.3v-0.2c0-0.9-0.3-1.7-0.8-2.4C465.7,206.1,464.9,205.8,464.1,205.8z"/>
		<path class="st7" d="M479.2,214.1L479.2,214.1c-0.7,1.3-2,2.1-3.4,2.1c-0.7,0-1.3-0.1-1.9-0.4c-0.6-0.3-1.1-0.7-1.5-1.2
			c-0.4-0.6-0.7-1.2-0.9-1.9c-0.4-1.6-0.4-3.3,0-4.9c0.2-0.7,0.5-1.3,0.9-1.9c0.4-0.5,0.9-0.9,1.5-1.2c0.6-0.3,1.3-0.4,1.9-0.4
			c0.7,0,1.4,0.2,2,0.5c0.6,0.4,1,0.9,1.3,1.6h0.1v-6.8h1.8v16.3h-1.8V214.1z M476.2,214.6c0.4,0,0.8-0.1,1.1-0.2
			c0.3-0.1,0.7-0.2,0.9-0.5c0.3-0.2,0.5-0.4,0.6-0.7c0.2-0.3,0.2-0.6,0.2-1v-4.2c0-0.3-0.1-0.6-0.2-0.9c-0.2-0.3-0.4-0.5-0.6-0.7
			c-0.3-0.2-0.6-0.4-0.9-0.5c-0.4-0.1-0.7-0.2-1.1-0.2c-0.9,0-1.7,0.3-2.4,0.9c-0.6,0.7-0.9,1.6-0.9,2.5v1.9c0,0.9,0.3,1.8,0.9,2.5
			C474.5,214.3,475.4,214.7,476.2,214.6L476.2,214.6z"/>
		<path class="st7" d="M485.6,201.9c-0.3,0-0.6-0.1-0.8-0.3c-0.2-0.2-0.3-0.5-0.3-0.7v-0.3c0-0.3,0.1-0.5,0.3-0.7
			c0.5-0.4,1.2-0.4,1.6,0c0.2,0.2,0.3,0.5,0.3,0.7v0.3c0,0.3-0.1,0.5-0.3,0.7C486.2,201.8,485.9,201.9,485.6,201.9z M484.7,204.6
			h1.8v11.4h-1.8V204.6z"/>
		<path class="st7" d="M497.2,214.1L497.2,214.1c-0.2,0.3-0.4,0.5-0.5,0.8c-0.2,0.3-0.4,0.5-0.6,0.7c-0.3,0.2-0.6,0.4-0.9,0.5
			c-0.4,0.1-0.8,0.2-1.2,0.2c-1.1,0.1-2.1-0.4-2.8-1.1c-0.7-0.9-1.1-2-1-3.2v-7.3h1.8v7c0,2,0.9,3.1,2.6,3.1c0.3,0,0.7,0,1-0.1
			c0.3-0.1,0.6-0.2,0.9-0.4c0.3-0.2,0.5-0.4,0.6-0.7c0.2-0.3,0.2-0.6,0.2-1v-7.9h1.8v11.4h-1.8L497.2,214.1z"/>
		<path class="st7" d="M502.7,215.9v-11.4h1.8v1.8h0.1c0.1-0.3,0.3-0.6,0.5-0.8c0.2-0.3,0.4-0.5,0.6-0.7c0.3-0.2,0.5-0.3,0.8-0.4
			c0.4-0.1,0.8-0.2,1.1-0.2c0.7,0,1.4,0.2,2.1,0.5c0.7,0.4,1.2,1,1.4,1.8h0c0.2-0.6,0.6-1.2,1.2-1.6c0.7-0.5,1.5-0.7,2.3-0.7
			c1-0.1,2,0.4,2.7,1.1c0.7,0.9,1.1,2.1,1,3.2v7.3h-1.8v-7c0.1-0.8-0.2-1.6-0.6-2.3c-0.5-0.5-1.2-0.8-1.9-0.8c-0.3,0-0.7,0-1,0.1
			c-0.3,0.1-0.6,0.2-0.8,0.4c-0.2,0.2-0.5,0.4-0.6,0.7c-0.2,0.3-0.2,0.6-0.2,1v7.9h-1.8v-7c0.1-0.8-0.2-1.6-0.6-2.3
			c-0.5-0.5-1.1-0.8-1.8-0.8c-0.3,0-0.7,0-1,0.1c-0.3,0.1-0.6,0.2-0.9,0.4c-0.2,0.2-0.5,0.4-0.6,0.7c-0.2,0.3-0.2,0.6-0.2,1v7.9
			H502.7z"/>
	</g>
	<g>
		<g>
			<path class="st7" d="M482.1,276.9v-15.4h1.8v13.7h6.5v1.6H482.1z"/>
		</g>
		<g>
			<path class="st7" d="M497,277.2c-0.7,0-1.4-0.1-2.1-0.4c-0.6-0.3-1.2-0.7-1.6-1.2c-0.5-0.6-0.8-1.2-1-1.9c-0.5-1.6-0.5-3.3,0-4.9
				c0.2-0.7,0.6-1.3,1-1.9c0.4-0.5,1-0.9,1.6-1.2c0.7-0.3,1.4-0.4,2.1-0.4c0.7,0,1.4,0.1,2.1,0.4c0.6,0.3,1.2,0.7,1.6,1.2
				c0.5,0.6,0.8,1.2,1.1,1.9c0.5,1.6,0.5,3.3,0,4.9c-0.2,0.7-0.6,1.3-1.1,1.9c-0.4,0.5-1,0.9-1.6,1.2
				C498.5,277.1,497.8,277.2,497,277.2z M497,275.6c0.9,0,1.7-0.3,2.3-0.9c0.7-0.7,1-1.7,0.9-2.7v-1.6c0.1-1-0.2-1.9-0.9-2.7
				c-1.3-1.2-3.3-1.2-4.7,0c-0.7,0.7-1,1.7-0.9,2.7v1.6c-0.1,1,0.2,2,0.9,2.7C495.3,275.3,496.2,275.7,497,275.6L497,275.6z"/>
		</g>
		<g>
			<path class="st7" d="M503.8,265.6h1.7l1.2,4.9l1.2,5h0l1.4-5l1.4-4.9h1.6l1.5,4.9l1.4,5h0l1.2-5l1.2-4.9h1.7l-3,11.4h-2.2
				l-1.6-5.5l-1-3.5h0l-1,3.5l-1.6,5.5h-2.1L503.8,265.6z"/>
		</g>
	</g>
	<g>
		<path class="st7" d="M996.8,251.3c-1.1,0-2.2-0.2-3.2-0.7c-0.9-0.5-1.7-1.2-2.2-2l1.4-1.1c0.5,0.7,1.1,1.2,1.8,1.6
			c0.7,0.4,1.5,0.6,2.3,0.6c0.9,0.1,1.8-0.2,2.5-0.8c0.6-0.5,0.9-1.3,0.9-2.1c0-0.6-0.2-1.3-0.7-1.7c-0.6-0.5-1.4-0.8-2.2-0.9
			l-1.3-0.3c-1.2-0.2-2.3-0.7-3.2-1.5c-0.8-0.7-1.2-1.7-1.1-2.8c0-0.6,0.1-1.2,0.4-1.8c0.2-0.5,0.6-1,1-1.3c0.5-0.4,1-0.6,1.6-0.8
			c0.7-0.2,1.4-0.3,2.1-0.3c1,0,2.1,0.2,3,0.6c0.8,0.4,1.6,1.1,2.1,1.9l-1.4,1c-0.4-0.6-0.9-1-1.5-1.4c-0.7-0.4-1.5-0.5-2.2-0.5
			c-0.8,0-1.6,0.2-2.3,0.6c-0.6,0.4-0.9,1.2-0.8,1.9c0,0.6,0.2,1.3,0.7,1.7c0.7,0.4,1.4,0.8,2.2,0.9l1.3,0.3
			c1.2,0.2,2.4,0.7,3.3,1.5c0.7,0.7,1.1,1.7,1,2.8c0,0.7-0.1,1.3-0.4,1.9c-0.2,0.6-0.6,1.1-1,1.5c-0.5,0.4-1.1,0.7-1.7,0.9
			C998.3,251.2,997.5,251.3,996.8,251.3z"/>
		<path class="st7" d="M1009.3,251.3c-0.7,0-1.5-0.1-2.1-0.4c-0.6-0.3-1.2-0.7-1.6-1.2c-0.5-0.6-0.8-1.2-1-1.9
			c-0.5-1.6-0.5-3.3,0-4.9c0.2-0.7,0.5-1.3,1-1.9c0.4-0.5,1-0.9,1.6-1.2c0.7-0.3,1.4-0.4,2.1-0.4c1,0,1.9,0.2,2.7,0.7
			c0.7,0.5,1.2,1.2,1.5,1.9l-1.5,0.7c-0.2-0.6-0.5-1-1-1.4c-0.5-0.3-1.1-0.5-1.8-0.5c-0.5,0-0.9,0.1-1.4,0.3c-0.4,0.2-0.7,0.4-1,0.7
			c-0.3,0.3-0.5,0.7-0.6,1.1c-0.1,0.4-0.2,0.9-0.2,1.4v1.9c0,0.9,0.2,1.8,0.8,2.5c0.6,0.7,1.5,1,2.4,1c1.3,0.1,2.6-0.7,3.1-2
			l1.3,0.9c-0.3,0.8-0.9,1.5-1.6,2C1011.2,251,1010.3,251.3,1009.3,251.3z"/>
		<path class="st7" d="M1020.3,251.3c-0.7,0-1.4-0.1-2.1-0.4c-0.6-0.3-1.2-0.7-1.6-1.2c-0.5-0.6-0.8-1.2-1-1.9
			c-0.5-1.6-0.5-3.3,0-4.9c0.2-0.7,0.6-1.3,1-1.9c0.4-0.5,1-0.9,1.6-1.2c0.7-0.3,1.4-0.4,2.1-0.4c0.7,0,1.4,0.1,2.1,0.4
			c0.6,0.3,1.2,0.7,1.6,1.2c0.5,0.6,0.8,1.2,1.1,1.9c0.5,1.6,0.5,3.3,0,4.9c-0.2,0.7-0.6,1.3-1.1,1.9c-0.4,0.5-1,0.9-1.6,1.2
			C1021.7,251.1,1021,251.3,1020.3,251.3z M1020.3,249.7c0.9,0,1.7-0.3,2.3-0.9c0.7-0.7,1-1.7,0.9-2.7v-1.6c0.1-1-0.2-2-0.9-2.7
			c-1.3-1.2-3.3-1.2-4.7,0c-0.7,0.7-1,1.7-0.9,2.7v1.6c-0.1,1,0.2,2,0.9,2.7C1018.6,249.4,1019.4,249.7,1020.3,249.7z"/>
		<path class="st7" d="M1028.3,251v-11.4h1.8v2.1h0.1c0.2-0.6,0.6-1.1,1.1-1.5c0.6-0.5,1.4-0.7,2.2-0.6h0.7v1.8h-1
			c-0.8,0-1.6,0.1-2.2,0.5c-0.5,0.3-0.8,0.8-0.8,1.4v7.7H1028.3z"/>
		<path class="st7" d="M1040.6,251.3c-0.7,0-1.4-0.1-2.1-0.4c-0.6-0.3-1.2-0.7-1.6-1.2c-0.5-0.5-0.8-1.2-1-1.9
			c-0.5-1.6-0.5-3.3,0-4.9c0.2-0.7,0.6-1.3,1-1.9c0.4-0.5,1-0.9,1.6-1.2c0.7-0.3,1.4-0.4,2.1-0.4c0.7,0,1.4,0.1,2,0.4
			c0.6,0.3,1.1,0.7,1.5,1.2c0.4,0.5,0.8,1.1,1,1.7c0.2,0.7,0.3,1.5,0.3,2.2v0.8h-8.2v0.5c0,0.5,0.1,0.9,0.2,1.4
			c0.1,0.4,0.4,0.8,0.7,1.1c0.3,0.3,0.7,0.6,1.1,0.7c0.5,0.2,0.9,0.3,1.4,0.3c0.7,0,1.3-0.2,1.9-0.5c0.5-0.4,1-0.9,1.2-1.5l1.3,0.9
			c-0.4,0.8-1,1.4-1.7,1.9C1042.5,251,1041.5,251.3,1040.6,251.3z M1040.6,240.9c-0.5,0-0.9,0.1-1.3,0.3c-0.4,0.2-0.7,0.4-1,0.7
			c-0.3,0.3-0.5,0.7-0.7,1.1c-0.2,0.4-0.2,0.9-0.2,1.4v0.2h6.3v-0.2c0-0.9-0.3-1.7-0.8-2.4C1042.2,241.2,1041.4,240.8,1040.6,240.9z
			"/>
	</g>
	<g>
		<path class="st7" d="M141.2,204c-1.7,0.1-3.4-0.6-4.6-2c-1.2-1.7-1.8-3.8-1.6-5.9c-0.1-2.1,0.4-4.2,1.6-6c1.1-1.4,2.8-2.2,4.6-2.1
			c2.3-0.1,4.4,1.2,5.3,3.3l-1.5,0.9c-0.3-0.8-0.8-1.4-1.4-1.9c-0.7-0.5-1.5-0.7-2.4-0.7c-0.6,0-1.2,0.1-1.8,0.4
			c-0.5,0.2-1,0.6-1.3,1.1c-0.4,0.5-0.7,1.1-0.8,1.7c-0.2,0.7-0.3,1.4-0.3,2.2v2.3c-0.1,1.3,0.3,2.7,1.1,3.7
			c0.8,0.9,1.9,1.4,3.1,1.3c0.9,0,1.8-0.2,2.5-0.8c0.7-0.5,1.2-1.2,1.5-2l1.5,0.9c-0.4,1-1.2,1.9-2.1,2.6
			C143.5,203.7,142.4,204,141.2,204z"/>
		<path class="st7" d="M153.6,204c-0.7,0-1.4-0.1-2.1-0.4c-0.6-0.3-1.2-0.7-1.6-1.2c-0.5-0.6-0.8-1.2-1-1.9c-0.5-1.6-0.5-3.3,0-4.9
			c0.2-0.7,0.6-1.3,1-1.9c0.4-0.5,1-0.9,1.6-1.2c0.7-0.3,1.4-0.4,2.1-0.4c0.7,0,1.4,0.1,2.1,0.4c0.6,0.3,1.2,0.7,1.6,1.2
			c0.5,0.6,0.8,1.2,1.1,1.9c0.5,1.6,0.5,3.3,0,4.9c-0.2,0.7-0.6,1.3-1.1,1.9c-0.4,0.5-1,0.9-1.6,1.2C155,203.8,154.3,204,153.6,204z
			 M153.6,202.4c0.9,0,1.7-0.3,2.3-0.9c0.7-0.7,1-1.7,0.9-2.7v-1.6c0.1-1-0.2-1.9-0.9-2.7c-1.3-1.2-3.3-1.2-4.7,0
			c-0.7,0.7-1,1.7-0.9,2.7v1.6c-0.1,1,0.2,2,0.9,2.7C151.9,202.1,152.7,202.4,153.6,202.4z"/>
		<path class="st7" d="M161.6,203.7v-11.4h1.8v1.8h0.1c0.3-0.6,0.7-1.1,1.2-1.5c0.6-0.4,1.3-0.6,2-0.6c1-0.1,2.1,0.4,2.8,1.1
			c0.7,0.9,1.1,2,1,3.2v7.3h-1.8v-7c0-2-0.9-3.1-2.6-3.1c-0.3,0-0.7,0-1,0.1c-0.3,0.1-0.6,0.2-0.9,0.4c-0.3,0.2-0.5,0.4-0.6,0.7
			c-0.2,0.3-0.2,0.6-0.2,1v7.9H161.6z"/>
		<path class="st7" d="M176.6,203.7c-0.5,0-1-0.2-1.4-0.5c-0.3-0.4-0.5-0.9-0.5-1.4v-7.9h-1.9v-1.6h1.1c0.3,0,0.6-0.1,0.8-0.2
			c0.2-0.2,0.2-0.5,0.2-0.8v-2.1h1.6v3.1h2.5v1.6h-2.5v8.2h2.3v1.6H176.6z"/>
		<path class="st7" d="M181.8,203.7v-11.4h1.8v2.1h0.1c0.2-0.6,0.6-1.1,1.1-1.5c0.6-0.5,1.4-0.7,2.2-0.6h0.7v1.8h-1
			c-0.8,0-1.6,0.1-2.2,0.5c-0.5,0.3-0.8,0.8-0.8,1.4v7.7H181.8z"/>
		<path class="st7" d="M194.1,204c-0.7,0-1.4-0.1-2.1-0.4c-0.6-0.3-1.2-0.7-1.6-1.2c-0.5-0.6-0.8-1.2-1-1.9c-0.5-1.6-0.5-3.3,0-4.9
			c0.2-0.7,0.6-1.3,1-1.9c0.4-0.5,1-0.9,1.6-1.2c0.7-0.3,1.4-0.4,2.1-0.4c0.7,0,1.4,0.1,2.1,0.4c0.6,0.3,1.2,0.7,1.6,1.2
			c0.5,0.6,0.8,1.2,1.1,1.9c0.5,1.6,0.5,3.3,0,4.9c-0.2,0.7-0.6,1.3-1.1,1.9c-0.4,0.5-1,0.9-1.6,1.2
			C195.5,203.8,194.8,204,194.1,204z M194.1,202.4c0.9,0,1.7-0.3,2.3-0.9c0.7-0.7,1-1.7,0.9-2.7v-1.6c0.1-1-0.2-1.9-0.9-2.7
			c-1.3-1.2-3.3-1.2-4.7,0c-0.7,0.7-1,1.7-0.9,2.7v1.6c-0.1,1,0.2,2,0.9,2.7C192.4,202.1,193.2,202.4,194.1,202.4z"/>
		<path class="st7" d="M204,203.7c-0.5,0-1-0.2-1.4-0.5c-0.3-0.4-0.5-0.8-0.5-1.3v-14.5h1.8v14.7h1.7v1.6H204z"/>
		<path class="st7" d="M211.5,204c-0.9,0-1.8-0.2-2.7-0.6c-0.7-0.4-1.3-1-1.8-1.6l1.3-1c0.4,0.5,0.9,1,1.5,1.3
			c0.6,0.3,1.2,0.5,1.9,0.4c0.6,0,1.2-0.1,1.7-0.5c0.7-0.6,0.8-1.7,0.2-2.5c0,0,0,0,0,0c-0.4-0.4-1-0.6-1.6-0.6l-0.9-0.1
			c-0.5-0.1-1-0.2-1.5-0.3c-0.4-0.1-0.8-0.3-1.2-0.6c-0.3-0.3-0.6-0.6-0.8-1c-0.2-0.4-0.3-0.9-0.3-1.4c0-0.5,0.1-1,0.3-1.5
			c0.2-0.4,0.5-0.8,0.8-1c0.4-0.3,0.8-0.5,1.3-0.6c0.5-0.1,1.1-0.2,1.6-0.2c0.8,0,1.6,0.1,2.3,0.5c0.6,0.3,1.2,0.8,1.6,1.3l-1.2,1.1
			c-0.3-0.4-0.7-0.7-1.1-1c-0.6-0.3-1.2-0.5-1.8-0.4c-0.6,0-1.2,0.1-1.7,0.5c-0.4,0.3-0.6,0.8-0.6,1.3c0,0.5,0.2,0.9,0.6,1.2
			c0.5,0.3,1,0.5,1.6,0.6l0.9,0.1c1,0.1,1.9,0.5,2.7,1.1c0.5,0.6,0.8,1.3,0.8,2.1c0,1-0.4,2-1.1,2.6
			C213.7,203.7,212.6,204,211.5,204z"/>
	</g>
</g>
</svg>
