<?xml version="1.0" encoding="utf-8"?>
<!-- Generator: Adobe Illustrator 26.0.1, SVG Export Plug-In . SVG Version: 6.00 Build 0)  -->
<svg version="1.1" id="Scan_results" xmlns="http://www.w3.org/2000/svg" xmlns:xlink="http://www.w3.org/1999/xlink" x="0px"
	 y="0px" viewBox="0 0 1370 620" style="enable-background:new 0 0 1370 620;" xml:space="preserve">
<style type="text/css">
	.st0{fill-rule:evenodd;clip-rule:evenodd;fill:#171717;}
	.st1{fill:none;}
	.st2{fill-rule:evenodd;clip-rule:evenodd;fill:#C6C6C6;}
	.st3{fill-rule:evenodd;clip-rule:evenodd;fill:#393939;}
	.st4{fill:none;stroke:#3D3D3D;stroke-linecap:square;}
	.st5{fill:#F4F4F4;}
	.st6{fill-rule:evenodd;clip-rule:evenodd;fill:#FFFFFF;}
	.st7{fill-rule:evenodd;clip-rule:evenodd;fill:#525252;}
	.st8{fill-rule:evenodd;clip-rule:evenodd;fill:#F4F4F4;}
	.st9{fill:#161616;}
	.st10{font-family:'IBMPlexSans';}
	.st11{font-size:30px;}
	.st12{fill-rule:evenodd;clip-rule:evenodd;fill:#D8D8D8;}
	.st13{font-family:'IBMPlexSans-Medium';}
	.st14{font-size:14px;}
	.st15{font-size:21px;}
	.st16{font-family:'IBMPlexSans-SemiBold';}
	.st17{font-size:12px;}
	.st18{fill:#525252;}
	.st19{font-size:9px;}
	.st20{enable-background:new    ;}
	.st21{fill:#3A6CFC;}
	.st22{fill-rule:evenodd;clip-rule:evenodd;fill:#114AFC;}
	.st23{fill:#8D8D8D;}
	.st24{fill:#0F62FE;}
	.st25{fill:#E0E0E0;}
	.st26{font-size:11px;}
	.st27{fill:none;stroke:#E0E0E0;stroke-miterlimit:10;}
	.st28{fill-rule:evenodd;clip-rule:evenodd;fill:none;stroke:#F4F4F4;stroke-width:2;stroke-miterlimit:10;}
	.st29{fill:#226F26;}
	.st30{fill:#EBB521;}
	.st31{fill:#C91E1E;}
	.st32{fill:#5C5C5C;}
	.st33{font-size:13px;}
	.st34{fill:#2C9333;}
	.st35{fill:#FDD13A;}
	.st36{fill:#5E090F;}
	.st37{fill:#F86C1B;}
	.st38{font-size:32.9556px;}
	.st39{font-size:38.0274px;}
	.st40{font-size:12.0837px;}
	.st41{fill-rule:evenodd;clip-rule:evenodd;fill:#F4F4F4;stroke:#0F62FE;stroke-miterlimit:10;}
	.st42{fill-rule:evenodd;clip-rule:evenodd;fill:#5F5E61;}
	.st43{fill:#FFFFFF;}
	.st44{fill-rule:evenodd;clip-rule:evenodd;fill:#4979E9;}
	.st45{fill:none;stroke:#F4F4F4;stroke-width:3;stroke-linecap:round;stroke-miterlimit:10;}
	.st46{fill:none;stroke:#0F62FE;stroke-width:2;stroke-linecap:round;stroke-miterlimit:10;}
</style>
<rect id="background_19_" x="30" y="22.4" class="st0" width="1312" height="48"/>
<g id="User" transform="translate(1264.000000, 0.000000)">
	<rect id="background_20_" x="30" y="22.4" class="st1" width="48" height="48"/>
	<g id="Icon_8_" transform="translate(14.000000, 14.000000)">
		<g id="icon-color_1_">
			<path id="path-6_1_" class="st2" d="M40,24.9c1.7,0,3.1,1.4,3.1,3.1s-1.4,3.1-3.1,3.1s-3.1-1.4-3.1-3.1
				C36.9,26.3,38.3,24.9,40,24.9L40,24.9z M40,23.6c-2.4,0-4.4,2-4.4,4.4s2,4.4,4.4,4.4s4.4-2,4.4-4.4S42.4,23.6,40,23.6z
				 M46.2,41.1H45V38c0-1.7-1.4-3.1-3.1-3.1h-3.8c-1.7,0-3.1,1.4-3.1,3.1v3.1h-1.2V38c0-2.4,2-4.4,4.4-4.4h3.8c2.4,0,4.4,2,4.4,4.4
				V41.1z"/>
		</g>
	</g>
</g>
<g id="cost-estimator" transform="translate(1216.000000, 0.000000)">
	<rect id="background_21_" x="30" y="22.4" class="st1" width="48" height="48"/>
	<g id="Icon_9_" transform="translate(14.000000, 14.000000)">
		<path id="Fill_14_" class="st2" d="M47.9,35.1l-1.7-1.7v-2.9c0-3.2-2.4-5.9-5.6-6.2V23h-1.2v1.2c-3.2,0.4-5.6,3-5.6,6.2v2.9
			l-1.7,1.7c-0.1,0.1-0.2,0.3-0.2,0.4v1.9c0,0.2,0.1,0.3,0.2,0.5c0.1,0.1,0.3,0.2,0.5,0.2h4.4c0,1.7,1.4,3.1,3.1,3.1
			s3.1-1.4,3.1-3.1h4.4c0.2,0,0.3-0.1,0.5-0.2c0.1-0.1,0.2-0.3,0.2-0.5v-1.9C48.1,35.4,48.1,35.2,47.9,35.1L47.9,35.1z M40,39.9
			c-1,0-1.9-0.8-1.9-1.9h3.8C41.9,39.1,41,39.9,40,39.9L40,39.9z M46.9,36.8H33.1v-1l1.7-1.7c0.1-0.1,0.2-0.3,0.2-0.4v-3.1
			c0-2.8,2.2-5,5-5s5,2.2,5,5v3.1c0,0.2,0.1,0.3,0.2,0.4l1.7,1.7V36.8z"/>
	</g>
</g>
<g id="terminal" transform="translate(1168.000000, 0.000000)">
	<rect id="background_22_" x="30" y="22.4" class="st1" width="48" height="48"/>
	<g id="Icon_10_" transform="translate(14.000000, 14.000000)">
		<path id="Fill_15_" class="st2" d="M46.2,24.9v15H33.8v-15H46.2L46.2,24.9z M46.2,23.6H33.8c-0.7,0-1.2,0.6-1.2,1.2v15
			c0,0.7,0.6,1.2,1.2,1.2h12.5c0.7,0,1.2-0.6,1.2-1.2v-15C47.5,24.2,46.9,23.6,46.2,23.6z M35.6,36.8h1.2V38h-1.2V36.8z M43.1,36.8
			h1.2V38h-1.2V36.8z M35.6,33.6h1.2v1.2h-1.2V33.6z M43.1,33.6h1.2v1.2h-1.2V33.6z M35.6,30.5h1.2v1.2h-1.2V30.5z M39.4,36.8h1.2
			V38h-1.2V36.8z M39.4,33.6h1.2v1.2h-1.2V33.6z M39.4,30.5h1.2v1.2h-1.2V30.5z M43.1,30.5h1.2v1.2h-1.2V30.5z M35.6,26.8h8.8v1.9
			h-8.8V26.8z"/>
	</g>
</g>
<g id="account-switcher-_x28_placeholder_x29_-copy-2" transform="translate(1120.000000, 0.000000)">
	<rect id="background_23_" x="30" y="22.4" class="st1" width="48" height="48"/>
	<g id="Icon_11_" transform="translate(14.000000, 14.000000)">
		<path id="Fill_16_" class="st2" d="M46.2,24.9H33.8c-0.7,0-1.2,0.6-1.2,1.2v12.5c0,0.7,0.6,1.2,1.2,1.2h12.5
			c0.7,0,1.2-0.6,1.2-1.2V26.2C47.5,25.5,46.9,24.9,46.2,24.9z M46.2,26.2v2.5H33.8v-2.5H46.2z M33.8,38.7v-8.8h12.5v8.8H33.8z
			 M36.7,32.5l1.8,1.8L36.7,36l0.9,0.9l2.6-2.6l-2.6-2.7L36.7,32.5L36.7,32.5z"/>
	</g>
</g>
<g id="Actions-_x2F_-Navigation-_x2F_-chevron--down-_x2F_-20" transform="translate(948.000000, 14.000000)">
	<polygon id="Fill_17_" class="st2" points="40,36 33.8,29.7 34.6,28.8 40,34.2 45.4,28.8 46.2,29.7 	"/>
</g>
<g id="Actions-_x2F_-Navigation-_x2F_-chevron--down-_x2F_-20_1_" transform="translate(1100.000000, 14.000000)">
	<polygon id="Fill_18_" class="st2" points="40,36 33.8,29.7 34.6,28.8 40,34.2 45.4,28.8 46.2,29.7 	"/>
</g>
<rect id="Rectangle-Copy" x="324" y="22.4" class="st3" width="352" height="48"/>
<g id="search" transform="translate(598.000000, 0.000000)">
	<rect id="background_24_" x="30" y="22.4" class="st1" width="48" height="48"/>
	<g id="Icon_12_" transform="translate(14.000000, 14.000000)">
		<path id="Fill_19_" class="st2" d="M48.8,40.3L44,35.5c2.3-2.8,2.1-7-0.7-9.5c-2.7-2.5-6.9-2.4-9.5,0.2s-2.7,6.8-0.2,9.5
			c2.5,2.7,6.6,3,9.5,0.7l4.7,4.7L48.8,40.3z M33.1,31.1c0-3.1,2.5-5.6,5.6-5.6s5.6,2.5,5.6,5.6s-2.5,5.6-5.6,5.6
			S33.1,34.3,33.1,31.1z"/>
	</g>
</g>
<line id="Line" class="st4" x1="179.5" y1="34.4" x2="179.5" y2="58.4"/>
<g id="Group_2_" transform="translate(48.840000, 18.640000)">
	<path id="Cloud" class="st5" d="M65.1,33c1.8,0,2.9-0.9,3.6-2.3l-1.5-0.9c-0.3,0.9-1,1.6-2.1,1.6c-1.4,0-2.3-1-2.3-2.6v-1.5
		c0-1.7,0.9-2.7,2.3-2.7c1.1,0,1.7,0.6,2,1.5l1.6-0.8c-0.7-1.5-1.8-2.3-3.6-2.3c-2.6,0-4.2,1.8-4.2,5.1S62.5,33,65.1,33z M73.1,32.9
		v-1.4h-1v-8.9h-1.8v8.6c0,1.1,0.6,1.8,1.8,1.8H73.1z M77.5,33c2.1,0,3.4-1.5,3.4-3.8c0-2.3-1.3-3.8-3.4-3.8c-2.1,0-3.4,1.5-3.4,3.8
		C74.1,31.5,75.4,33,77.5,33z M77.5,31.6c-0.9,0-1.5-0.6-1.5-1.7v-1.4c0-1.1,0.6-1.7,1.5-1.7c0.9,0,1.5,0.6,1.5,1.7v1.4
		C79,31,78.5,31.6,77.5,31.6z M84.9,33c1.2,0,1.8-0.7,2-1.4H87v1.2h1.8v-7.3H87v4.8c0,0.8-0.7,1.2-1.4,1.2c-0.9,0-1.2-0.5-1.2-1.6
		v-4.4h-1.8v4.6C82.6,32,83.4,33,84.9,33z M93.5,33c1,0,1.7-0.6,2-1.4h0.1v1.2h1.8V22.5h-1.8v4.3h-0.1c-0.3-0.8-1-1.4-2-1.4
		c-1.8,0-2.9,1.4-2.9,3.8C90.6,31.6,91.7,33,93.5,33z M94.1,31.5c-0.9,0-1.6-0.7-1.6-1.7v-1.3c0-1,0.6-1.7,1.6-1.7
		c0.9,0,1.5,0.5,1.5,1.2v2.3C95.6,31.1,94.9,31.5,94.1,31.5z"/>
	<path id="IBM" class="st5" d="M33.9,32.9v-1h-1.4v-7.8h1.4v-1H30v1h1.4v7.8H30v1H33.9z M40.7,32.9c1.4,0,2.5-1.2,2.5-2.8
		c0-1.6-1.2-2.2-1.9-2.3v-0.1c0.6-0.1,1.6-0.6,1.6-2.1c0-1.5-1-2.5-2.6-2.5h-4v9.8H40.7z M40.1,27.3h-2.7v-3.2h2.7
		c0.9,0,1.5,0.5,1.5,1.4V26C41.6,26.8,41,27.3,40.1,27.3z M40.3,31.8h-2.9v-3.5h2.9c1,0,1.6,0.5,1.6,1.5v0.5
		C41.9,31.3,41.3,31.8,40.3,31.8z M46.7,32.9v-8.2h0.1l0.8,1.6l2.3,4.3l2.3-4.3l0.8-1.6h0.1v8.2h1.1v-9.8h-1.5l-2.8,5.3h-0.1
		l-2.8-5.3h-1.5v9.8H46.7z"/>
</g>
<g id="menu">
	<rect id="background_25_" x="30" y="22.4" class="st1" width="48" height="48"/>
	<g id="Icon_13_" transform="translate(14.000000, 14.000000)">
		<path id="Fill_20_" class="st6" d="M32,37.2h16v1.2H32V37.2z M32,33.6h16v1.2H32V33.6z M32,30h16v1.2H32V30z M32,26.4h16v1.2H32
			V26.4z"/>
	</g>
</g>
<rect id="Rectangle_7_" x="1015" y="41.9" class="st7" width="106" height="9"/>
<g id="tile-_x2F_-selectable-_x2F_-01-enabled">
	<rect id="Background_12_" x="28.8" y="70" class="st8" width="1312.3" height="548.9"/>
</g>
<text transform="matrix(1 0 0 1 46 140.241)" class="st9 st10 st11">ibm-cloud-test-scan</text>
<rect id="Rectangle_29_" x="28.8" y="174" class="st12" width="233.6" height="35.5"/>
<text transform="matrix(1 0 0 1 45.9999 197.1118)" class="st9 st13 st14">March 31, 2022 5:32 AM</text>
<text transform="matrix(1 0 0 1 46.0002 232.5376)" class="st9 st13 st14">March 30, 2022 5:32 AM</text>
<text transform="matrix(1 0 0 1 46.0002 267.9634)" class="st9 st13 st14">March 29, 2022 5:32 AM</text>
<rect id="side-panel-background_00000071551706559169883680000014113016544501760648_" x="262.4" y="168.7" class="st6" width="1061.8" height="450.2"/>
<text transform="matrix(1 0 0 1 281.6436 199.8647)" class="st9 st10 st15">March 31, 2022 5:32 AM</text>
<text transform="matrix(1 0 0 1 283.5962 258.553)" class="st9 st16 st17">Control view</text>
<text transform="matrix(1 0 0 1 323.9999 140.4207)" class="st18 st10 st19">ibm-cloud-test-scope  |  CIS IBM Foundations Benchmark 1.0.0                  |  Validation</text>
<text transform="matrix(1 0 0 1 46.0001 94.8445)" class="st20"><tspan x="0" y="0" class="st21 st10 st14">Security and Compliance </tspan><tspan x="162.8" y="0" class="st9 st10 st14"> / </tspan><tspan x="175.3" y="0" class="st21 st10 st14"> Validation results  </tspan><tspan x="298" y="0" class="st9 st10 st14">/</tspan></text>
<rect id="Rectangle_00000000221847749794923730000012606945105891649693_" x="28.8" y="174" class="st22" width="4.4" height="35.5"/>
<rect id="Rectangle_00000042696813953389265690000000397093227576138893_" x="912.9" y="41.9" class="st7" width="60.5" height="9"/>
<rect id="Rectangle_00000024704514746021906530000008836957281564529325_" x="834.4" y="41.9" class="st7" width="57.2" height="9"/>
<rect id="Rectangle_00000046308485878544457730000004405942597744450445_" x="775.7" y="41.9" class="st7" width="33.2" height="9"/>
<rect id="Rectangle_00000148644701179017126570000004994734051075547540_" x="694" y="41.9" class="st7" width="55.2" height="9"/>
<text transform="matrix(1 0 0 1 1278.1267 137.0613)" class="st21 st10 st17">Details</text>
<text transform="matrix(1 0 0 1 462.145 258.5532)" class="st23 st13 st17">Resource view</text>
<text transform="matrix(1 0 0 1 1188.9624 299.6891)" class="st21 st10 st17">Download report</text>
<g>
	<polygon class="st24" points="1298,293.6 1297.4,293.1 1294.3,296.2 1294.3,288.3 1293.4,288.3 1293.4,296.2 1290.3,293.1 
		1289.7,293.6 1293.9,297.7 	"/>
	<path class="st24" d="M1298,297.3v1.6h-8.2v-1.6h-0.8v1.6l0,0c0,0.5,0.4,0.8,0.8,0.8h8.2c0.5,0,0.8-0.4,0.8-0.8l0,0v-1.6H1298z"/>
</g>
<g>
	<text transform="matrix(1 0 0 1 1171.5703 196.844)" class="st25 st10 st26">Remediation script</text>
	<g>
		<polygon class="st25" points="1289.1,193.1 1288.5,192.5 1285.4,195.6 1285.4,187.8 1284.6,187.8 1284.6,195.6 1281.5,192.5 
			1280.9,193.1 1285,197.2 		"/>
		<path class="st25" d="M1289.1,196.8v1.6h-8.2v-1.6h-0.8v1.6l0,0c0,0.5,0.4,0.8,0.8,0.8h8.2c0.5,0,0.8-0.4,0.8-0.8l0,0v-1.6H1289.1
			z"/>
	</g>
</g>
<rect x="1155.8" y="176.6" class="st27" width="149.9" height="33.8"/>
<g id="tile-_x2F_-selectable-_x2F_-01-enabled_00000035499518789425848830000015594498647235439248_">
	
		<rect id="Background_00000105414718736916411220000015017555083751337641_" x="283.6" y="324.7" class="st28" width="282.1" height="294.2"/>
</g>
<g id="tile-_x2F_-selectable-_x2F_-01-enabled_00000088812763334774779650000005949960169577260449_">
	
		<rect id="Background_00000000936449571930226650000013314018761441236398_" x="579.7" y="324.7" class="st28" width="282.1" height="294.2"/>
</g>
<g id="tile-_x2F_-selectable-_x2F_-01-enabled_00000091725809990528689380000008286209483934571455_">
	
		<rect id="Background_00000008130390344357418700000015986874287123082920_" x="875.9" y="324.7" class="st28" width="282.1" height="294.2"/>
</g>
<path class="st2" d="M664.9,147.1h-17c-3.5,0-6.4-2.8-6.4-6.4v-7.3c0-3.5,2.8-6.4,6.4-6.4h17c3.5,0,6.4,2.8,6.4,6.4v7.3
	C671.2,144.2,668.4,147.1,664.9,147.1z"/>
<text transform="matrix(1 0 0 1 650.7499 140.4204)" class="st18 st10 st19">+1</text>
<path class="st29" d="M294.3,291.3c-3.3,0-6,2.7-6,6s2.7,6,6,6s6-2.7,6-6S297.6,291.3,294.3,291.3z M293.4,299.7l-2.2-2.2l0.7-0.6
	l1.5,1.5l3.2-3.2l0.7,0.7L293.4,299.7z"/>
<path id="Compound_Path" class="st30" d="M383.4,291.2c-3.3,0-6,2.7-6,6s2.7,6,6,6c3.3,0,6-2.7,6-6S386.7,291.2,383.4,291.2z
	 M382.9,293.7h0.9v4.7h-0.9V293.7z M383.4,301.1c-0.3,0-0.6-0.3-0.6-0.6s0.3-0.6,0.6-0.6s0.6,0.3,0.6,0.6S383.7,301.1,383.4,301.1z"
	/>
<path class="st31" d="M338.4,291.1c-3.5,0-6.2,2.7-6.2,6.2s2.7,6.2,6.2,6.2s6.2-2.7,6.2-6.2S341.9,291.1,338.4,291.1z M340.8,300.4
	l-5.5-5.5l0.7-0.7l5.5,5.5L340.8,300.4z"/>
<path class="st32" d="M426.1,296.8l-5-5c-0.3-0.3-0.8-0.3-1.2,0l-5,5c-0.3,0.3-0.3,0.8,0,1.2l5,5c0.3,0.3,0.8,0.3,1.2,0l5-5
	C426.4,297.7,426.4,297.1,426.1,296.8C426.1,296.8,426.1,296.8,426.1,296.8z M422.6,298.2h-4.1v-1.7h4.1V298.2z"/>
<text transform="matrix(1 0 0 1 304.8071 301.749)" class="st9 st13 st17">15</text>
<text transform="matrix(1 0 0 1 349.4888 301.7488)" class="st9 st13 st17">33</text>
<text transform="matrix(1 0 0 1 394.1174 301.7488)" class="st9 st13 st17">4</text>
<text transform="matrix(1 0 0 1 431.4852 301.8922)" class="st9 st13 st17">6</text>
<text transform="matrix(1 0 0 1 301.98 352.9594)" class="st9 st16 st33">Controls</text>
<text transform="matrix(1 0 0 1 599.219 352.9594)" class="st9 st16 st33">Failures</text>
<text transform="matrix(1 0 0 1 894.5376 352.9594)" class="st9 st16 st33">Score</text>
<path class="st31" d="M335.4,518.3c24.4,43.9,79.7,59.8,123.6,35.5c43.9-24.4,59.8-79.7,35.5-123.6c-10.8-19.4-28.3-34.3-49.3-41.7
	l-6.7,18.9c36.9,13,56.3,53.6,43.3,90.5s-53.6,56.3-90.5,43.3c-16.4-5.8-30-17.3-38.4-32.5l-17,9.4l0,0L335.4,518.3z"/>
<path class="st34" d="M415,403.3c8,0,16,1.4,23.6,4l6.7-18.9c-36.3-12.8-76.7-1.4-100.9,28.5l15.5,12.6
	C373.3,412.9,393.6,403.3,415,403.3z"/>
<path class="st30" d="M346.7,455c2.6-9.3,7.1-18,13.2-25.5l-15.5-12.6c-7.8,9.6-13.6,20.7-16.9,32.6L346.7,455z"/>
<path class="st32" d="M335.4,518.3l17.5-9.7c-9.1-16.4-11.3-35.7-6.2-53.7l-19.2-5.5C320.9,472.5,323.7,497.3,335.4,518.3z"/>
<path class="st25" d="M1017.1,441.8c46.4,0,85.3,35,90.2,81.1h15.9c-1.9-25.4-12.8-49.3-30.8-67.3c-41.6-41.6-109.1-41.6-150.7,0
	c-18,18-29,41.9-30.9,67.3H927C931.8,476.8,970.7,441.7,1017.1,441.8z"/>
<path class="st35" d="M962.8,439.2c-7.6,4.5-14.7,10-21.2,16.5c-18,18-29,41.9-30.9,67.3H927c3.3-31,21.8-56.7,47.4-70.4"/>
<rect x="600.3" y="384.7" class="st25" width="3.8" height="182.5"/>
<rect x="604.1" y="410.7" class="st36" width="157.9" height="19.6"/>
<rect x="604.1" y="449.3" class="st31" width="177.5" height="19.6"/>
<rect x="604.1" y="488" class="st37" width="225.4" height="19.6"/>
<rect x="604.1" y="526.7" class="st35" width="43.7" height="19.6"/>
<text transform="matrix(1 0 0 1 986.9409 503.6438)" class="st10 st38">350</text>
<text transform="matrix(1 0 0 1 391.945 476.4946)" class="st10 st39">58</text>
<text transform="matrix(1 0 0 1 985.7553 522.9026)" class="st18 st10 st40">Compliance</text>
<text transform="matrix(1 0 0 1 378.0595 493.4555)" class="st18 st10 st17">Total controls</text>
<rect x="769.1" y="591.9" class="st35" width="9.3" height="9.2"/>
<text transform="matrix(1 0 0 1 782.4729 599.2782)" class="st9 st10 st19">Low</text>
<rect x="713" y="591.9" class="st37" width="9.3" height="9.2"/>
<text transform="matrix(1 0 0 1 726.4196 599.2782)" class="st9 st10 st19">Medium</text>
<rect x="672.1" y="591.9" class="st31" width="9.3" height="9.2"/>
<text transform="matrix(1 0 0 1 685.5385 599.2782)" class="st9 st10 st19">High</text>
<rect x="620.8" y="591.9" class="st36" width="9.3" height="9.2"/>
<text transform="matrix(1 0 0 1 634.2301 599.2782)" class="st9 st10 st19">Critical</text>
<rect id="side-panel-background_00000145765952166084147350000003371477867685450398_" x="551.5" y="179.8" class="st41" width="573.6" height="27.5"/>
<path class="st42" d="M1112.3,232.5H554.5c-5.8,0-10.4-4.7-10.4-10.4v-30.4c0-5.8,4.7-10.4,10.4-10.4h557.8
	c5.8,0,10.4,4.7,10.4,10.4v30.4C1122.7,227.9,1118,232.5,1112.3,232.5z"/>
<text transform="matrix(1 0 0 1 575.6764 221.5923)" class="st43 st13 st17">ROKS OCP4 Tailored Profile v1.0</text>
<path class="st44" d="M1112.4,205.5H553.9c-3.5,0-6.4-2.9-6.4-6.4v-8c0-3.5,2.9-6.4,6.4-6.4h558.5c3.5,0,6.4,2.9,6.4,6.4v8
	C1118.8,202.7,1116,205.5,1112.4,205.5z"/>
<text transform="matrix(1 0 0 1 575.6761 198.6577)" class="st43 st13 st17">CIS IBM Foundations Benchmark 1.0.0</text>
<polygon class="st43" points="563.5,197.3 561,194.2 560.5,194.8 563,197.9 563.5,198.5 568.4,192.4 567.9,191.7 "/>
<path d="M1175.1,246.8c-2.8,0-5.1,2.3-5.1,5.2c0,2.9,2.3,5.2,5.1,5.2s5.1-2.3,5.1-5.2C1180.1,249.1,1177.9,246.8,1175.1,246.8z
	 M1179.3,251.6h-3.8v-3.9C1177.5,247.9,1179.1,249.5,1179.3,251.6z M1174.8,256.3c-2.3-0.1-4.1-2.1-4-4.5c0.1-2.2,1.7-3.9,3.9-4.1
	v3.9c0,0.5,0.4,0.9,0.8,0.9h3.8C1179.1,254.8,1177.1,256.5,1174.8,256.3z"/>
<path d="M1261.4,254v-3.4h-3.4v1.3h-2.2v-3.4c0-0.5-0.4-0.9-0.9-0.9h-2.2v-1.3h-3.4v3.4h3.4v-1.3h2.2v7.8c0,0.5,0.4,0.9,0.9,0.9h2.2
	v1.3h3.4v-3.4h-3.4v1.3h-2.2v-3.4h2.2v1.3H1261.4z M1251.9,248.8h-1.7v-1.7h1.7V248.8z M1258.8,255.7h1.7v1.7h-1.7V255.7z
	 M1258.8,251.4h1.7v1.7h-1.7V251.4z"/>
<path d="M1290.8,257.5l2.8-5.2l3.2,2.8c0.2,0.2,0.5,0.3,0.7,0.2c0.3,0,0.5-0.2,0.6-0.5l2.4-4.7l-0.8-0.4l-2.4,4.7l-3.2-2.8
	c-0.2-0.2-0.5-0.3-0.7-0.2c-0.3,0-0.5,0.2-0.6,0.4l-2.3,4.3v-9.9h-0.9v11.2c0,0.5,0.4,0.9,0.9,0.9h11.4v-0.9H1290.8z"/>
<g>
	<rect x="1210.1" y="248.2" width="7.5" height="0.8"/>
	<rect x="1219.3" y="248.2" width="0.8" height="0.8"/>
	<rect x="1210.1" y="250.7" width="7.5" height="0.8"/>
	<rect x="1219.3" y="250.7" width="0.8" height="0.8"/>
	<rect x="1210.1" y="253.2" width="7.5" height="0.8"/>
	<rect x="1219.3" y="253.2" width="0.8" height="0.8"/>
	<rect x="1210.2" y="255.7" width="7.5" height="0.8"/>
	<rect x="1219.3" y="255.7" width="0.8" height="0.8"/>
</g>
<rect x="473.8" y="591.9" class="st32" width="9.3" height="9.2"/>
<text transform="matrix(1 0 0 1 487.1791 599.2777)" class="st9 st10 st19">Not applicable</text>
<rect x="379.2" y="591.9" class="st30" width="9.3" height="9.2"/>
<text transform="matrix(1 0 0 1 392.717 599.278)" class="st9 st10 st19">Unable to perform</text>
<rect x="341.6" y="591.9" class="st31" width="9.3" height="9.2"/>
<text transform="matrix(1 0 0 1 355.7297 599.2782)" class="st9 st10 st19">Fail</text>
<rect x="301.1" y="591.9" class="st34" width="9.3" height="9.2"/>
<text transform="matrix(1 0 0 1 314.4457 599.2782)" class="st9 st10 st19">Pass</text>
<line class="st45" x1="1328.1" y1="269.9" x2="262.4" y2="269.9"/>
<line class="st46" x1="439.3" y1="269.9" x2="262.4" y2="269.9"/>
<line class="st46" x1="1193.1" y1="269.9" x2="1157.1" y2="269.9"/>
</svg>
