<svg id="Scan_results" data-name="Scan results" xmlns="http://www.w3.org/2000/svg" viewBox="0 0 1370 620"><defs><style>.cls-1{fill:#171717;}.cls-104,.cls-105,.cls-2,.cls-5,.cls-51,.cls-52{fill:none;}.cls-3,.cls-53{fill:#c6c6c6;}.cls-3,.cls-7{fill-rule:evenodd;}.cls-4{fill:#393939;}.cls-5{stroke:#3d3d3d;stroke-linecap:square;}.cls-6,.cls-83{fill:#f4f4f4;}.cls-18,.cls-7,.cls-85,.cls-93{fill:#fff;}.cls-24,.cls-71,.cls-73,.cls-8{fill:#525252;}.cls-10,.cls-101,.cls-16,.cls-19,.cls-21,.cls-24,.cls-33,.cls-41,.cls-42,.cls-47,.cls-58,.cls-59,.cls-62,.cls-64,.cls-69,.cls-70,.cls-71,.cls-73,.cls-78,.cls-81,.cls-82,.cls-85,.cls-9,.cls-93,.cls-96,.cls-97,.cls-99{isolation:isolate;}.cls-10{font-size:30px;}.cls-10,.cls-101,.cls-16,.cls-19,.cls-21,.cls-36,.cls-39,.cls-58,.cls-59,.cls-62,.cls-64,.cls-78,.cls-81,.cls-82,.cls-96,.cls-97,.cls-99{fill:#161616;}.cls-10,.cls-101,.cls-19,.cls-24,.cls-33,.cls-41,.cls-47,.cls-69,.cls-70,.cls-71,.cls-73,.cls-78,.cls-81,.cls-82,.cls-96,.cls-97,.cls-99{font-family:IBMPlexSans, IBM Plex Sans;}.cls-11{letter-spacing:0.01em;}.cls-12,.cls-42{letter-spacing:0em;}.cls-13{letter-spacing:-0.01em;}.cls-14{letter-spacing:-0.02em;}.cls-15{fill:#d8d8d8;}.cls-16,.cls-33{font-size:14px;}.cls-16,.cls-42,.cls-58,.cls-85,.cls-93{font-family:IBMPlexSans-Medium, IBM Plex Sans;font-weight:500;}.cls-16,.cls-21,.cls-35,.cls-39{letter-spacing:0.01em;}.cls-17{letter-spacing:0.01em;}.cls-19{font-size:21px;}.cls-20{letter-spacing:0em;}.cls-21,.cls-41,.cls-42,.cls-58,.cls-73,.cls-85,.cls-93{font-size:12px;}.cls-21,.cls-59,.cls-62,.cls-64{font-family:IBMPlexSans-SemiBold, IBM Plex Sans;font-weight:600;}.cls-22{letter-spacing:0.01em;}.cls-23{letter-spacing:0.01em;}.cls-101,.cls-24,.cls-78,.cls-81,.cls-82,.cls-96,.cls-97,.cls-99{font-size:9px;}.cls-24{letter-spacing:0.09em;}.cls-25{letter-spacing:0.1em;}.cls-26{letter-spacing:0.09em;}.cls-27{letter-spacing:0.09em;}.cls-28{letter-spacing:0.09em;}.cls-29{letter-spacing:0.07em;}.cls-30{letter-spacing:0.09em;}.cls-31{letter-spacing:0.07em;}.cls-32{letter-spacing:0.06em;}.cls-33,.cls-41{fill:#3a6cfc;}.cls-33{letter-spacing:0.01em;}.cls-34{letter-spacing:0em;}.cls-37{letter-spacing:-0.02em;}.cls-38{letter-spacing:0.01em;}.cls-40{fill:#114afc;}.cls-41,.cls-43,.cls-58{letter-spacing:0.01em;}.cls-42{fill:#8d8d8d;}.cls-44{letter-spacing:0em;}.cls-45{letter-spacing:0.02em;}.cls-46{fill:#0f62fe;}.cls-47{font-size:11px;letter-spacing:0.03em;}.cls-47,.cls-50{fill:#e0e0e0;}.cls-48{letter-spacing:0.04em;}.cls-49{letter-spacing:0.04em;}.cls-51{stroke:#e0e0e0;}.cls-104,.cls-105,.cls-51,.cls-52,.cls-83{stroke-miterlimit:10;}.cls-104,.cls-52{stroke:#f4f4f4;}.cls-105,.cls-52{stroke-width:2px;}.cls-54{fill:#226f26;}.cls-55{fill:#ebb521;}.cls-56{fill:#c91e1e;}.cls-57{fill:#5c5c5c;}.cls-59,.cls-62,.cls-64{font-size:13px;}.cls-59,.cls-63{letter-spacing:0.01em;}.cls-60{letter-spacing:0.01em;}.cls-61,.cls-64{letter-spacing:0.01em;}.cls-62{letter-spacing:-0.03em;}.cls-65{fill:#2c9333;}.cls-66{fill:#fdd13a;}.cls-67{fill:#5e090f;}.cls-68{fill:#f86c1b;}.cls-69{font-size:32.96px;}.cls-70{font-size:38.03px;}.cls-71{font-size:12.08px;}.cls-72{letter-spacing:-0.01em;}.cls-74{letter-spacing:-0.06em;}.cls-75{letter-spacing:-0.01em;}.cls-76{letter-spacing:0em;}.cls-77{letter-spacing:0em;}.cls-78{letter-spacing:0em;}.cls-79{letter-spacing:0.01em;}.cls-80,.cls-82{letter-spacing:0.01em;}.cls-81{letter-spacing:0.01em;}.cls-105,.cls-83{stroke:#0f62fe;}.cls-84{fill:#5f5e61;}.cls-85{letter-spacing:-0.03em;}.cls-86,.cls-93{letter-spacing:-0.02em;}.cls-87{letter-spacing:-0.03em;}.cls-88{letter-spacing:-0.09em;}.cls-89{letter-spacing:-0.02em;}.cls-90{letter-spacing:-0.03em;}.cls-91{letter-spacing:-0.03em;}.cls-92{fill:#4979e9;}.cls-94{letter-spacing:-0.05em;}.cls-95{letter-spacing:-0.02em;}.cls-96{letter-spacing:0em;}.cls-102,.cls-97{letter-spacing:0em;}.cls-101,.cls-98{letter-spacing:0em;}.cls-99{letter-spacing:-0.03em;}.cls-100{letter-spacing:0.01em;}.cls-103{letter-spacing:0.01em;}.cls-104,.cls-105{stroke-linecap:round;}.cls-104{stroke-width:3px;}</style></defs><rect id="background" class="cls-1" x="30" y="22.4" width="1312" height="48"/><g id="User"><rect id="background-2" data-name="background" class="cls-2" x="1294" y="22.4" width="48" height="48"/><g id="Icon"><g id="icon-color"><path id="path-6" class="cls-3" d="M1318,38.9a3.13,3.13,0,1,1-3.12,3.12A3.12,3.12,0,0,1,1318,38.9Zm0-1.25a4.38,4.38,0,1,0,4.38,4.37A4.38,4.38,0,0,0,1318,37.65Zm6.25,17.5H1323V52a3.12,3.12,0,0,0-3.12-3.12h-3.76A3.12,3.12,0,0,0,1313,52v3.13h-1.25V52a4.37,4.37,0,0,1,4.37-4.37h3.76a4.37,4.37,0,0,1,4.37,4.37Z"/></g></g></g><g id="cost-estimator"><rect id="background-3" data-name="background" class="cls-2" x="1246" y="22.4" width="48" height="48"/><g id="Icon-2" data-name="Icon"><path id="Fill" class="cls-3" d="M1277.94,49.09l-1.69-1.69V44.52a6.3,6.3,0,0,0-5.63-6.25V37h-1.24v1.25a6.36,6.36,0,0,0-5.63,6.25V47.4l-1.69,1.69a.55.55,0,0,0-.18.43V51.4a.58.58,0,0,0,.62.62h4.38a3.12,3.12,0,1,0,6.24,0h4.38a.58.58,0,0,0,.62-.62V49.52a.55.55,0,0,0-.18-.43ZM1270,53.9a1.88,1.88,0,0,1-1.88-1.88h3.76A1.88,1.88,0,0,1,1270,53.9Zm6.88-3.13h-13.76v-1l1.69-1.68a.56.56,0,0,0,.19-.44V44.52a5,5,0,1,1,10,0v3.13a.56.56,0,0,0,.19.44l1.69,1.68Z"/></g></g><g id="terminal"><rect id="background-4" data-name="background" class="cls-2" x="1198" y="22.4" width="48" height="48"/><g id="Icon-3" data-name="Icon"><path id="Fill-2" data-name="Fill" class="cls-3" d="M1228.25,38.9v15h-12.5v-15Zm0-1.25h-12.5a1.25,1.25,0,0,0-1.25,1.25v15a1.25,1.25,0,0,0,1.25,1.25h12.5a1.25,1.25,0,0,0,1.25-1.25v-15A1.25,1.25,0,0,0,1228.25,37.65Zm-10.63,13.12h1.26V52h-1.26Zm7.5,0h1.26V52h-1.26Zm-7.5-3.12h1.26V48.9h-1.26Zm7.5,0h1.26V48.9h-1.26Zm-7.5-3.13h1.26v1.25h-1.26Zm3.76,6.25h1.24V52h-1.24Zm0-3.12h1.24V48.9h-1.24Zm0-3.13h1.24v1.25h-1.24Zm3.74,0h1.26v1.25h-1.26Zm-7.5-3.75h8.76v1.88h-8.76Z"/></g></g><g id="account-switcher-_placeholder_-copy-2" data-name="account-switcher-(placeholder)-copy-2"><rect id="background-5" data-name="background" class="cls-2" x="1150" y="22.4" width="48" height="48"/><g id="Icon-4" data-name="Icon"><path id="Fill-3" data-name="Fill" class="cls-3" d="M1180.25,38.91h-12.5a1.25,1.25,0,0,0-1.25,1.25v12.5a1.25,1.25,0,0,0,1.25,1.25h12.5a1.25,1.25,0,0,0,1.25-1.25V40.16A1.25,1.25,0,0,0,1180.25,38.91Zm0,1.25v2.5h-12.5v-2.5Zm-12.5,12.5V43.91h12.5v8.75Zm3-6.15,1.77,1.77-1.77,1.77.89.88,2.65-2.65-2.65-2.65-.89.88Z"/></g></g><g id="Actions-_-Navigation-_-chevron--down-_-20" data-name="Actions-/-Navigation-/-chevron--down-/-20"><polygon id="Fill-4" data-name="Fill" class="cls-3" points="988 49.96 981.75 43.71 982.63 42.84 988 48.21 993.38 42.84 994.25 43.71 988 49.96"/></g><g id="Actions-_-Navigation-_-chevron--down-_-20-2" data-name="Actions-/-Navigation-/-chevron--down-/-20"><polygon id="Fill-5" data-name="Fill" class="cls-3" points="1140 49.96 1133.75 43.71 1134.63 42.84 1140 48.21 1145.38 42.84 1146.25 43.71 1140 49.96"/></g><rect id="Rectangle-Copy" class="cls-4" x="324" y="22.4" width="352" height="48"/><g id="search"><rect id="background-6" data-name="background" class="cls-2" x="628" y="22.4" width="48" height="48"/><g id="Icon-5" data-name="Icon"><path id="Fill-6" data-name="Fill" class="cls-3" d="M660.75,54.27,656,49.52a6.87,6.87,0,1,0-.91.91l4.75,4.72Zm-15.63-9.12a5.63,5.63,0,1,1,5.63,5.62A5.63,5.63,0,0,1,645.12,45.15Z"/></g></g><line id="Line" class="cls-5" x1="179.5" y1="34.4" x2="179.5" y2="58.4"/><g id="Group"><path id="Cloud" class="cls-6" d="M113.94,51.66a3.75,3.75,0,0,0,3.61-2.31l-1.49-.88A2.19,2.19,0,0,1,113.94,50c-1.37,0-2.25-1-2.25-2.64V45.85c0-1.66.88-2.66,2.25-2.66a1.94,1.94,0,0,1,2,1.46l1.58-.84a3.56,3.56,0,0,0-3.57-2.25c-2.57,0-4.21,1.83-4.21,5.12S111.37,51.66,113.94,51.66Zm8-.16V50.07h-1V41.14h-1.8v8.59A1.59,1.59,0,0,0,121,51.5Zm4.42.16c2.1,0,3.4-1.48,3.4-3.83s-1.3-3.81-3.4-3.81S123,45.49,123,47.83,124.27,51.66,126.36,51.66Zm0-1.44c-.93,0-1.51-.6-1.51-1.71V47.16c0-1.1.58-1.7,1.51-1.7s1.52.6,1.52,1.7v1.35C127.88,49.62,127.3,50.22,126.36,50.22Zm7.4,1.44a2,2,0,0,0,2-1.38h.07V51.5h1.79V44.19h-1.79V49c0,.78-.71,1.16-1.43,1.16s-1.23-.55-1.23-1.55V44.19h-1.79v4.62C131.42,50.63,132.26,51.66,133.76,51.66Zm8.58,0a2.06,2.06,0,0,0,2-1.38h.07V51.5h1.79V41.14h-1.79v4.25h-.07a2,2,0,0,0-2-1.37c-1.83,0-2.85,1.37-2.85,3.81S140.51,51.66,142.34,51.66Zm.58-1.48a1.55,1.55,0,0,1-1.56-1.71V47.21a1.56,1.56,0,0,1,1.56-1.72c.85,0,1.51.46,1.51,1.18V49C144.43,49.75,143.77,50.18,142.92,50.18Z"/><path id="IBM" class="cls-6" d="M82.76,51.5v-1H81.39V42.7h1.37v-1H78.84v1h1.37v7.82H78.84v1Zm6.74,0A2.63,2.63,0,0,0,92,48.67,2.13,2.13,0,0,0,90.1,46.4v-.08a1.9,1.9,0,0,0,1.58-2.08,2.39,2.39,0,0,0-2.6-2.52h-4V51.5ZM88.94,46h-2.7V42.76h2.7a1.3,1.3,0,0,1,1.48,1.36v.47A1.3,1.3,0,0,1,88.94,46Zm.2,4.51h-2.9V47h2.9a1.43,1.43,0,0,1,1.62,1.51V49A1.43,1.43,0,0,1,89.14,50.46Zm6.37,1V43.28h.07l.83,1.62,2.32,4.26,2.34-4.26.83-1.64H102V51.5h1.14V41.72h-1.54L98.76,47H98.7l-2.8-5.27H94.36V51.5Z"/></g><g id="menu"><rect id="background-7" data-name="background" class="cls-2" x="30" y="22.4" width="48" height="48"/><g id="Icon-6" data-name="Icon"><path id="Fill-7" data-name="Fill" class="cls-7" d="M46,51.2H62v1.2H46Zm0-3.6H62v1.2H46ZM46,44H62v1.2H46Zm0-3.6H62v1.2H46Z"/></g></g><rect id="Rectangle" class="cls-8" x="1015" y="41.9" width="106" height="9"/><g id="tile-_-selectable-_-01-enabled" data-name="tile-/-selectable-/-01-enabled"><rect id="Background-8" data-name="Background" class="cls-6" x="28.83" y="70" width="1312.34" height="548.92"/></g><g id="title" class="cls-9"><text class="cls-10" transform="translate(46 140.24)">ibm<tspan class="cls-11" x="51.09" y="0">-</tspan><tspan x="63.36" y="0">cloud-</tspan><tspan class="cls-12" x="149.82" y="0">t</tspan><tspan x="160.23" y="0">e</tspan><tspan class="cls-13" x="176.7" y="0">s</tspan><tspan class="cls-14" x="191.1" y="0">t</tspan><tspan x="201.03" y="0">-scan</tspan></text></g><rect id="Rectangle-2" data-name="Rectangle" class="cls-15" x="28.83" y="173.96" width="233.57" height="35.49"/><g id="text" class="cls-9"><text class="cls-16" transform="translate(46 197.11)">Ma<tspan class="cls-17" x="19.39" y="0">r</tspan><tspan x="24.84" y="0">ch 31, 2022 5:32 AM</tspan></text></g><g id="text-2" data-name="text" class="cls-9"><text class="cls-16" transform="translate(46 232.54)">Ma<tspan class="cls-17" x="19.39" y="0">r</tspan><tspan x="24.84" y="0">ch 30, 2022 5:32 AM</tspan></text></g><g id="text-3" data-name="text" class="cls-9"><text class="cls-16" transform="translate(46 267.96)">Ma<tspan class="cls-17" x="19.39" y="0">r</tspan><tspan x="24.84" y="0">ch 29, 2022 5:32 AM</tspan></text></g><rect id="side-panel-background" class="cls-18" x="262.4" y="168.68" width="1061.85" height="450.25"/><g id="title-2" data-name="title" class="cls-9"><text class="cls-19" transform="translate(281.64 199.86)">Ma<tspan class="cls-20" x="28.27" y="0">r</tspan><tspan x="35.87" y="0">ch 31, 2022 5:32 AM</tspan></text></g><g id="text-4" data-name="text" class="cls-9"><text class="cls-21" transform="translate(283.6 258.55)">Cont<tspan class="cls-22" x="26.53" y="0">r</tspan><tspan x="31.32" y="0">ol vi</tspan><tspan class="cls-23" x="54.69" y="0">e</tspan><tspan x="61.46" y="0">w</tspan></text></g><text class="cls-24" transform="translate(324 140.42)">ibm<tspan class="cls-25" x="17.81" y="0">-</tspan><tspan class="cls-26" x="22.32" y="0">cloud-</tspan><tspan class="cls-27" x="53.23" y="0">t</tspan><tspan class="cls-26" x="57.18" y="0">e</tspan><tspan class="cls-28" x="62.94" y="0">s</tspan><tspan class="cls-29" x="68.09" y="0">t</tspan><tspan x="71.9" y="0">-s</tspan><tspan class="cls-30" x="81.53" y="0">c</tspan><tspan x="86.83" y="0" xml:space="preserve">ope  |  CIS IBM </tspan><tspan class="cls-31" x="162.05" y="0">F</tspan><tspan x="167.69" y="0" xml:space="preserve">oundations Benchmark 1.0.0                  |  </tspan><tspan class="cls-32" x="368.76" y="0">V</tspan><tspan x="374.8" y="0">alidation</tspan></text><text class="cls-33" transform="translate(46 94.84)">Security and Complian<tspan class="cls-34" x="144.35" y="0">c</tspan><tspan class="cls-35" x="151.46" y="0">e </tspan><tspan class="cls-36" x="162.76" y="0" xml:space="preserve"> / </tspan><tspan x="175.19" y="0"> </tspan><tspan class="cls-37" x="178.65" y="0">V</tspan><tspan class="cls-35" x="186.91" y="0">alidation </tspan><tspan class="cls-17" x="246.34" y="0">r</tspan><tspan class="cls-35" x="251.56" y="0">esu</tspan><tspan class="cls-38" x="274.48" y="0">l</tspan><tspan x="278.37" y="0" xml:space="preserve">ts  </tspan><tspan class="cls-39" x="297.33" y="0">/</tspan></text><rect id="Rectangle-3" data-name="Rectangle" class="cls-40" x="28.83" y="173.96" width="4.37" height="35.49"/><rect id="Rectangle-4" data-name="Rectangle" class="cls-8" x="912.88" y="41.9" width="60.54" height="9"/><rect id="Rectangle-5" data-name="Rectangle" class="cls-8" x="834.35" y="41.9" width="57.19" height="9"/><rect id="Rectangle-6" data-name="Rectangle" class="cls-8" x="775.67" y="41.9" width="33.15" height="9"/><rect id="Rectangle-7" data-name="Rectangle" class="cls-8" x="693.97" y="41.9" width="55.16" height="9"/><text class="cls-41" transform="translate(1278.13 137.06)">Details</text><g id="text-5" data-name="text" class="cls-9"><text class="cls-42" transform="translate(462.15 258.55)">R<tspan class="cls-43" x="7.81" y="0">esou</tspan><tspan class="cls-23" x="34.67" y="0">r</tspan><tspan class="cls-44" x="39.34" y="0">c</tspan><tspan class="cls-43" x="45.52" y="0">e vi</tspan><tspan class="cls-22" x="64.87" y="0">e</tspan><tspan class="cls-35" x="71.62" y="0">w</tspan></text></g><g id="Label"><text class="cls-41" transform="translate(1188.96 299.69)">D<tspan class="cls-22" x="8.18" y="0">o</tspan><tspan class="cls-35" x="14.98" y="0">wnload </tspan><tspan class="cls-22" x="58.12" y="0">r</tspan><tspan class="cls-35" x="62.59" y="0">epo</tspan><tspan class="cls-45" x="83.25" y="0">r</tspan><tspan x="87.84" y="0">t</tspan></text></g><polygon class="cls-46" points="1297.96 293.64 1297.38 293.06 1294.26 296.18 1294.26 288.3 1293.44 288.3 1293.44 296.18 1290.32 293.06 1289.74 293.64 1293.85 297.75 1297.96 293.64"/><path class="cls-46" d="M1298,297.34V299h-8.22v-1.64h-.82V299h0a.82.82,0,0,0,.82.82H1298a.82.82,0,0,0,.82-.82h0v-1.64Z"/><g id="Label-2" data-name="Label"><text class="cls-47" transform="translate(1171.57 196.84)">R<tspan class="cls-48" x="7.34" y="0">emediation scri</tspan><tspan class="cls-49" x="90.24" y="0">p</tspan><tspan class="cls-48" x="97.02" y="0">t</tspan></text></g><polygon class="cls-50" points="1289.09 193.11 1288.51 192.53 1285.39 195.65 1285.39 187.77 1284.57 187.77 1284.57 195.65 1281.45 192.53 1280.88 193.11 1284.98 197.22 1289.09 193.11"/><path class="cls-50" d="M1289.09,196.81v1.64h-8.21v-1.64h-.83v1.64h0a.83.83,0,0,0,.83.82h8.21a.82.82,0,0,0,.82-.82h0v-1.64Z"/><rect class="cls-51" x="1155.79" y="176.62" width="149.91" height="33.8"/><g id="tile-_-selectable-_-01-enabled-2" data-name="tile-/-selectable-/-01-enabled"><rect id="Background-9" data-name="Background" class="cls-52" x="283.6" y="324.69" width="282.06" height="294.23"/></g><g id="tile-_-selectable-_-01-enabled-3" data-name="tile-/-selectable-/-01-enabled"><rect id="Background-10" data-name="Background" class="cls-52" x="579.75" y="324.69" width="282.06" height="294.23"/></g><g id="tile-_-selectable-_-01-enabled-4" data-name="tile-/-selectable-/-01-enabled"><rect id="Background-11" data-name="Background" class="cls-52" x="875.9" y="324.69" width="282.06" height="294.23"/></g><rect class="cls-53" x="641.51" y="127.05" width="29.73" height="20.02" rx="6.36"/><text class="cls-24" transform="translate(650.75 140.42)">+1</text><path class="cls-54" d="M294.28,291.27a6,6,0,1,0,6,6A6,6,0,0,0,294.28,291.27Zm-.86,8.39-2.15-2.15.69-.65,1.46,1.47,3.19-3.19.68.69Z"/><path id="Compound_Path" data-name="Compound Path" class="cls-55" d="M383.39,291.16a6,6,0,1,0,6,6A6,6,0,0,0,383.39,291.16Zm-.47,2.58h.95v4.74h-.95Zm.47,7.32a.65.65,0,1,1,.65-.65A.66.66,0,0,1,383.39,301.06Z"/><path class="cls-56" d="M338.42,291.09a6.2,6.2,0,1,0,6.2,6.2A6.17,6.17,0,0,0,338.42,291.09Zm2.4,9.3-5.5-5.49.71-.71,5.49,5.49Z"/><path class="cls-57" d="M426.12,296.82l-5-5a.82.82,0,0,0-1.17,0l-5,5a.82.82,0,0,0,0,1.16l5,5a.82.82,0,0,0,1.17,0l5-5a.82.82,0,0,0,0-1.16Zm-3.49,1.41h-4.14v-1.66h4.14Z"/><g id="text-6" data-name="text" class="cls-9"><text class="cls-58" transform="translate(304.81 301.75)">15</text></g><g id="text-7" data-name="text" class="cls-9"><text class="cls-58" transform="translate(349.49 301.75)">33</text></g><g id="text-8" data-name="text" class="cls-9"><text class="cls-58" transform="translate(394.12 301.75)">4</text></g><g id="text-9" data-name="text" class="cls-9"><text class="cls-58" transform="translate(431.49 301.89)">6</text></g><g id="text-10" data-name="text" class="cls-9"><text class="cls-59" transform="translate(301.98 352.96)">Cont<tspan class="cls-60" x="28.74" y="0">r</tspan><tspan class="cls-61" x="33.93" y="0">ols</tspan></text></g><g id="text-11" data-name="text" class="cls-9"><text class="cls-62" transform="translate(599.22 352.96)">F<tspan class="cls-63" x="7.12" y="0">ailu</tspan><tspan class="cls-60" x="30.02" y="0">r</tspan><tspan class="cls-61" x="35.2" y="0">es</tspan></text></g><g id="text-12" data-name="text" class="cls-9"><text class="cls-64" transform="translate(894.54 352.96)">S<tspan class="cls-60" x="8.09" y="0">c</tspan><tspan x="14.83" y="0">o</tspan><tspan class="cls-60" x="22.29" y="0">r</tspan><tspan x="27.48" y="0">e</tspan></text></g><path class="cls-56" d="M335.42,518.31A90.95,90.95,0,1,0,445.23,388.45l-6.66,18.87A70.95,70.95,0,1,1,352.89,508.6l-17,9.43h0Z"/><path class="cls-65" d="M415,403.28a70.89,70.89,0,0,1,23.61,4l6.66-18.87a91,91,0,0,0-100.9,28.47l15.54,12.61A70.78,70.78,0,0,1,415,403.28Z"/><path class="cls-55" d="M346.67,455a70.9,70.9,0,0,1,13.2-25.45l-15.54-12.61a90.78,90.78,0,0,0-16.91,32.64Z"/><path class="cls-57" d="M335.39,518.29l17.5-9.69a71.06,71.06,0,0,1-6.19-53.72l-19.25-5.45A90.9,90.9,0,0,0,335.39,518.29Z"/><path class="cls-50" d="M1017.11,441.76a90.66,90.66,0,0,1,90.15,81.14h15.9a106.53,106.53,0,0,0-212.46,0H927A90.63,90.63,0,0,1,1017.11,441.76Z"/><path class="cls-66" d="M962.82,439.16A106.62,106.62,0,0,0,910.7,522.9H927a90.56,90.56,0,0,1,47.36-70.42"/><rect class="cls-50" x="600.28" y="384.69" width="3.84" height="182.53"/><rect class="cls-67" x="604.13" y="410.67" width="157.93" height="19.65"/><rect class="cls-56" x="604.13" y="449.33" width="177.46" height="19.65"/><rect class="cls-68" x="604.13" y="487.99" width="225.43" height="19.65"/><rect class="cls-66" x="604.13" y="526.65" width="43.67" height="19.65"/><text class="cls-69" transform="translate(986.94 503.64)">350</text><text class="cls-70" transform="translate(391.94 476.49)">58</text><text class="cls-71" transform="translate(985.76 522.9)">Complian<tspan class="cls-72" x="51.45" y="0">c</tspan><tspan x="57.46" y="0">e</tspan></text><text class="cls-73" transform="translate(378.06 493.46)"><tspan class="cls-74">T</tspan><tspan x="6.08" y="0">otal </tspan><tspan class="cls-75" x="29.52" y="0">c</tspan><tspan class="cls-76" x="35.48" y="0">ont</tspan><tspan class="cls-77" x="53.23" y="0">r</tspan><tspan x="57.58" y="0">ols</tspan></text><rect class="cls-66" x="769.08" y="591.94" width="9.33" height="9.23"/><g id="text-13" data-name="text" class="cls-9"><text class="cls-78" transform="translate(782.47 599.28)">L<tspan class="cls-79" x="4.52" y="0">o</tspan><tspan class="cls-80" x="9.61" y="0">w</tspan></text></g><rect class="cls-68" x="713.03" y="591.94" width="9.33" height="9.23"/><g id="text-14" data-name="text" class="cls-9"><text class="cls-81" transform="translate(726.42 599.28)">Medium</text></g><rect class="cls-56" x="672.15" y="591.94" width="9.33" height="9.23"/><g id="text-15" data-name="text" class="cls-9"><text class="cls-82" transform="translate(685.54 599.28)">High</text></g><rect class="cls-67" x="620.84" y="591.94" width="9.33" height="9.23"/><g id="text-16" data-name="text" class="cls-9"><text class="cls-82" transform="translate(634.23 599.28)">Critical</text></g><rect id="side-panel-background-2" data-name="side-panel-background" class="cls-83" x="551.46" y="179.76" width="573.63" height="27.52"/><rect class="cls-84" x="544.09" y="181.33" width="578.61" height="51.2" rx="10.42"/><g id="text-17" data-name="text" class="cls-9"><text class="cls-85" transform="translate(575.68 221.59)">R<tspan class="cls-86" x="7.48" y="0">O</tspan><tspan class="cls-87" x="15.76" y="0">K</tspan><tspan class="cls-86" x="23.33" y="0">S OCP4 </tspan><tspan class="cls-88" x="65.2" y="0">T</tspan><tspan class="cls-89" x="71.02" y="0">ailo</tspan><tspan class="cls-90" x="89.92" y="0">r</tspan><tspan class="cls-89" x="94.19" y="0">ed </tspan><tspan x="110" y="0">P</tspan><tspan class="cls-90" x="117.14" y="0">r</tspan><tspan class="cls-91" x="121.42" y="0">o</tspan><tspan class="cls-86" x="127.85" y="0">file v1.0</tspan></text></g><rect class="cls-92" x="547.47" y="184.69" width="571.36" height="20.84" rx="6.41"/><g id="text-18" data-name="text" class="cls-9"><text class="cls-93" transform="translate(575.68 198.66)">CIS IBM <tspan class="cls-94" x="46" y="0">F</tspan><tspan x="52.23" y="0">ound</tspan><tspan class="cls-95" x="78.97" y="0">a</tspan><tspan x="85.26" y="0">tions Benchmark 1.0.0</tspan></text></g><polygon class="cls-18" points="563.47 197.27 561 194.2 560.51 194.81 562.98 197.88 563.47 198.48 568.38 192.39 567.89 191.74 563.47 197.27"/><path d="M1175.06,246.8a5.19,5.19,0,1,0,5.08,5.19A5.14,5.14,0,0,0,1175.06,246.8Zm4.23,4.76h-3.81v-3.88A4.29,4.29,0,0,1,1179.29,251.56Zm-4.48,4.76a4.34,4.34,0,0,1-.17-8.64v3.9a.84.84,0,0,0,.84.86h3.81A4.27,4.27,0,0,1,1174.81,256.32Z"/><path d="M1261.42,254v-3.45H1258v1.3h-2.16v-3.45a.85.85,0,0,0-.86-.86h-2.15v-1.3h-3.45v3.45h3.45v-1.29H1255v7.76a.86.86,0,0,0,.86.86H1258v1.3h3.45v-3.45H1258v1.29h-2.16v-3.45H1258V254Zm-9.49-5.17h-1.72v-1.72h1.72Zm6.9,6.9h1.73v1.72h-1.73Zm0-4.31h1.73v1.72h-1.73Z"/><path d="M1290.78,257.45l2.79-5.17,3.19,2.8a.88.88,0,0,0,1.36-.26l2.41-4.73-.8-.39-2.39,4.74-3.19-2.8a.88.88,0,0,0-1.36.21l-2.31,4.31v-9.91h-.87v11.2a.86.86,0,0,0,.87.86h11.36v-.86Z"/><rect x="1210.13" y="248.21" width="7.52" height="0.8"/><rect x="1219.33" y="248.21" width="0.84" height="0.8"/><rect x="1210.13" y="250.74" width="7.52" height="0.8"/><rect x="1219.33" y="250.74" width="0.84" height="0.8"/><rect x="1210.13" y="253.23" width="7.52" height="0.8"/><rect x="1219.33" y="253.23" width="0.84" height="0.8"/><rect x="1210.15" y="255.72" width="7.52" height="0.8"/><rect x="1219.35" y="255.72" width="0.84" height="0.8"/><rect class="cls-57" x="473.8" y="591.94" width="9.33" height="9.23"/><g id="text-19" data-name="text" class="cls-9"><text class="cls-96" transform="translate(487.18 599.28)">Not applicable</text></g><rect class="cls-55" x="379.18" y="591.94" width="9.33" height="9.23"/><g id="text-20" data-name="text" class="cls-9"><text class="cls-97" transform="translate(392.72 599.28)">Unable <tspan class="cls-98" x="30.88" y="0">t</tspan><tspan x="34.02" y="0">o pe</tspan><tspan class="cls-79" x="51.42" y="0">r</tspan><tspan class="cls-98" x="54.77" y="0">f</tspan><tspan x="57.67" y="0">orm</tspan></text></g><rect class="cls-56" x="341.57" y="591.94" width="9.33" height="9.23"/><g id="text-21" data-name="text" class="cls-9"><text class="cls-99" transform="translate(355.73 599.28)">F<tspan class="cls-100" x="4.74" y="0">ail</tspan></text></g><rect class="cls-65" x="301.06" y="591.94" width="9.33" height="9.23"/><g id="text-22" data-name="text" class="cls-9"><text class="cls-101" transform="translate(314.45 599.28)">P<tspan class="cls-100" x="5.44" y="0">a</tspan><tspan class="cls-102" x="10.31" y="0">s</tspan><tspan class="cls-103" x="14.71" y="0">s</tspan></text></g><line class="cls-104" x1="1328.14" y1="269.9" x2="262.4" y2="269.9"/><line class="cls-105" x1="439.3" y1="269.9" x2="262.4" y2="269.9"/><line class="cls-105" x1="1193.06" y1="269.9" x2="1157.05" y2="269.9"/></svg>