<?xml version="1.0" encoding="utf-8"?>
<!-- Generator: Adobe Illustrator 26.0.1, SVG Export Plug-In . SVG Version: 6.00 Build 0)  -->
<svg version="1.1" xmlns="http://www.w3.org/2000/svg" xmlns:xlink="http://www.w3.org/1999/xlink" x="0px" y="0px"
	 viewBox="0 0 971 392.2" style="enable-background:new 0 0 971 392.2;" xml:space="preserve">
<style type="text/css">
	.st0{display:none;}
	.st1{display:inline;}
	.st2{clip-path:url(#SVGID_00000127760721088918782870000006886569006145918870_);}
	.st3{opacity:0.4;clip-path:url(#SVGID_00000182525120025844162060000006495052073431956904_);fill:#A3A4A3;}
	.st4{clip-path:url(#SVGID_00000049937606308995477460000010427933565959683242_);}
	.st5{opacity:0.4;clip-path:url(#SVGID_00000021086485685202930130000005924372780512375229_);fill:#A3A4A3;}
	.st6{opacity:0.1413;clip-path:url(#SVGID_00000127763038520216010420000011018706102246952835_);enable-background:new    ;}
	.st7{clip-path:url(#SVGID_00000165204106584265357740000001343591015761352099_);}
	.st8{clip-path:url(#SVGID_00000036958358881059832590000017063170311891921080_);}
	.st9{clip-path:url(#SVGID_00000167379300327802038650000006565189246192870584_);}
	.st10{opacity:0.4;clip-path:url(#SVGID_00000159467703960122835030000012498308630779187880_);fill:#A3A4A3;}
	.st11{clip-path:url(#SVGID_00000044157057686037508900000018446463825181260727_);}
	.st12{opacity:0.4;clip-path:url(#SVGID_00000017516606554039316370000013305928584321547915_);fill:#A3A4A3;}
	.st13{opacity:0.1413;clip-path:url(#SVGID_00000168801188587603867830000003059638798758010526_);enable-background:new    ;}
	.st14{clip-path:url(#SVGID_00000002348111622630732080000011304478159757864323_);}
	.st15{clip-path:url(#SVGID_00000020361715969352262290000007173203619697068173_);}
	.st16{clip-path:url(#SVGID_00000119826696023127236880000004183093816441767565_);}
	.st17{opacity:0.4;clip-path:url(#SVGID_00000143599314893577058940000010439308969075040658_);fill:#A3A4A3;}
	.st18{clip-path:url(#SVGID_00000128480943736322820810000014483465519599462299_);}
	.st19{opacity:0.4;clip-path:url(#SVGID_00000152251969715494379260000009482267851708808350_);fill:#A3A4A3;}
	.st20{opacity:0.1413;clip-path:url(#SVGID_00000048487929818629303190000002676706853612324226_);enable-background:new    ;}
	.st21{clip-path:url(#SVGID_00000065768359206078503160000006442939966456110213_);}
	.st22{clip-path:url(#SVGID_00000006674475365908707580000010269807924400340134_);}
	.st23{fill:none;stroke:#6F6F6F;stroke-miterlimit:10;}
	.st24{fill:#6F6F6F;}
	.st25{fill:#F6F2FF;}
	.st26{fill:none;stroke:#6F6F6F;stroke-width:0.75;stroke-miterlimit:10;}
	.st27{fill:#78A9FF;}
	.st28{fill:#BE95FF;}
	.st29{font-family:'IBMPlexSans-SemiBold';}
	.st30{font-size:14px;}
	.st31{fill:#D0E2FF;}
	.st32{font-size:11px;}
	.st33{fill:#EDF5FF;stroke:#000000;stroke-width:0.8524;stroke-linecap:round;stroke-miterlimit:10;}
	.st34{fill:#EDF5FF;}
	.st35{fill:#FFFFFF;stroke:#000000;stroke-width:0.8524;stroke-linecap:round;stroke-miterlimit:10;}
	.st36{fill:#001D6C;stroke:#000000;stroke-width:0.8524;stroke-linecap:round;stroke-miterlimit:10;}
	.st37{fill:none;stroke:#6F6F6F;stroke-miterlimit:10;stroke-dasharray:4.8797,4.8797;}
	.st38{fill:#8A3FFC;}
	.st39{fill:#002D9C;}
	.st40{fill:#FFFFFF;stroke:#6F6F6F;stroke-width:0.5362;stroke-miterlimit:10;}
	.st41{fill:#FFFFFF;stroke:#393939;stroke-width:0.5362;stroke-miterlimit:10;}
	.st42{fill:#001D6C;}
	.st43{font-family:'IBMPlexSans';}
	.st44{font-size:10px;}
	.st45{fill:#F6F2FF;stroke:#000000;stroke-width:0.8524;stroke-linecap:round;stroke-miterlimit:10;}
	.st46{fill:#8A3FFC;stroke:#000000;stroke-width:0.8524;stroke-linecap:round;stroke-miterlimit:10;}
	.st47{fill:none;stroke:#6F6F6F;stroke-miterlimit:10;stroke-dasharray:5.2462,5.2462;}
	.st48{fill:#00BAA1;}
	.st49{fill:#8EE9D4;}
	.st50{fill:#0F6FFF;}
	.st51{fill:#FFFFFF;stroke:#6F6F6F;stroke-width:0.5353;stroke-miterlimit:10;}
	.st52{fill:#DEFBE6;}
	.st53{fill:#FFFFFF;stroke:#6F6F6F;stroke-width:0.6238;stroke-miterlimit:10;}
	.st54{fill:#FFFFFF;stroke:#6F6F6F;stroke-width:0.6218;stroke-miterlimit:10;}
	.st55{fill:#FFFFFF;stroke:#393939;stroke-width:0.6189;stroke-miterlimit:10;}
	.st56{clip-path:url(#SVGID_00000043431070321445279370000002866452129305355405_);}
	.st57{clip-path:url(#SVGID_00000109012683560991288710000011055396877728012955_);fill:#8EE9D4;}
	.st58{clip-path:url(#SVGID_00000104696133800471487300000002077355811252937617_);}
	.st59{clip-path:url(#SVGID_00000078735840125661189010000004162484532883062968_);enable-background:new    ;}
	.st60{clip-path:url(#SVGID_00000032632771497981196530000016366007590694631811_);}
	.st61{clip-path:url(#SVGID_00000007391692132696863660000004751356480085178025_);}
	.st62{clip-path:url(#SVGID_00000178193062276233645000000004531701015364772492_);fill:#00BAA1;}
	.st63{clip-path:url(#SVGID_00000074419916725419917900000014576389252318123688_);}
	.st64{clip-path:url(#SVGID_00000101072529231729078090000001358666736031616931_);fill:#8EE9D4;}
	.st65{clip-path:url(#SVGID_00000126322175413031518590000014322006529992698036_);}
	.st66{clip-path:url(#SVGID_00000030485136174443156940000014682410247830158007_);enable-background:new    ;}
	.st67{clip-path:url(#SVGID_00000171704338292918468410000003097957283934267528_);}
	.st68{clip-path:url(#SVGID_00000144318181847292649910000008349761869742499728_);}
	.st69{clip-path:url(#SVGID_00000089550469236196552170000012953225487679360915_);fill:#00BAA1;}
	.st70{clip-path:url(#SVGID_00000094590573449911321010000017489048026833350287_);}
	.st71{clip-path:url(#SVGID_00000147926491259393643530000000564461506730831265_);fill:#8EE9D4;}
	.st72{clip-path:url(#SVGID_00000067951715210202161090000009886810486929451175_);}
	.st73{clip-path:url(#SVGID_00000136382473749595658010000006220800590494071219_);enable-background:new    ;}
	.st74{clip-path:url(#SVGID_00000002361029189235418220000004320306623187675277_);}
	.st75{clip-path:url(#SVGID_00000163051546690019459620000010554225910164844956_);}
	.st76{clip-path:url(#SVGID_00000042726253204644241980000009399464942033386904_);fill:#00BAA1;}
	.st77{font-size:11.7963px;}
</style>
<g id="grid" class="st0">
	<g class="st1">
		<defs>
			<rect id="SVGID_1_" x="-61.1" y="-75.3" width="16" height="882"/>
		</defs>
		<clipPath id="SVGID_00000047771531124114110580000006454775043706715803_">
			<use xlink:href="#SVGID_1_"  style="overflow:visible;"/>
		</clipPath>
		<g style="clip-path:url(#SVGID_00000047771531124114110580000006454775043706715803_);">
			<defs>
				<rect id="SVGID_00000093179258059840071360000001341005833812491141_" x="-61.1" y="-75.3" width="1056" height="882"/>
			</defs>
			<clipPath id="SVGID_00000054965870537752056740000012359083972359952288_">
				<use xlink:href="#SVGID_00000093179258059840071360000001341005833812491141_"  style="overflow:visible;"/>
			</clipPath>
		</g>
	</g>
	<g class="st1">
		<defs>
			<rect id="SVGID_00000011724689197795437360000010284383396587533953_" x="978.9" y="-75.3" width="16" height="882"/>
		</defs>
		<clipPath id="SVGID_00000112610479821779855400000015726456673714778529_">
			<use xlink:href="#SVGID_00000011724689197795437360000010284383396587533953_"  style="overflow:visible;"/>
		</clipPath>
		<g style="clip-path:url(#SVGID_00000112610479821779855400000015726456673714778529_);">
			<defs>
				<rect id="SVGID_00000053543659797701950730000017298893375874967944_" x="-61.1" y="-75.3" width="1056" height="882"/>
			</defs>
			<clipPath id="SVGID_00000012436950914900161420000008891234204321029298_">
				<use xlink:href="#SVGID_00000053543659797701950730000017298893375874967944_"  style="overflow:visible;"/>
			</clipPath>
		</g>
	</g>
	<g class="st1">
		<defs>
			<rect id="SVGID_00000041280128172033105060000017727422357208214146_" x="-61.1" y="-75.3" width="1056" height="882"/>
		</defs>
		<clipPath id="SVGID_00000016784286236554654120000008331219543819970733_">
			<use xlink:href="#SVGID_00000041280128172033105060000017727422357208214146_"  style="overflow:visible;"/>
		</clipPath>
		
			<g style="opacity:0.1413;clip-path:url(#SVGID_00000016784286236554654120000008331219543819970733_);enable-background:new    ;">
			<g>
				<defs>
					<rect id="SVGID_00000089534650256048539730000017094890872267432085_" x="-61.1" y="-75.3" width="1056" height="882"/>
				</defs>
				<clipPath id="SVGID_00000065764066747320533730000007940528036905823678_">
					<use xlink:href="#SVGID_00000089534650256048539730000017094890872267432085_"  style="overflow:visible;"/>
				</clipPath>
				<g style="clip-path:url(#SVGID_00000065764066747320533730000007940528036905823678_);">
					<defs>
						<rect id="SVGID_00000135679339378516926250000003670015026392910739_" x="-61.1" y="-75.3" width="1056" height="882"/>
					</defs>
					<clipPath id="SVGID_00000011740640523119173350000007134516890324060062_">
						<use xlink:href="#SVGID_00000135679339378516926250000003670015026392910739_"  style="overflow:visible;"/>
					</clipPath>
					<g style="clip-path:url(#SVGID_00000011740640523119173350000007134516890324060062_);">
						<defs>
							<rect id="SVGID_00000000206523245134177270000002847870570806836652_" x="-61.1" y="-75.3" width="1056" height="882"/>
						</defs>
						<clipPath id="SVGID_00000091738132085505142780000012055332353169466242_">
							<use xlink:href="#SVGID_00000000206523245134177270000002847870570806836652_"  style="overflow:visible;"/>
						</clipPath>
						<g style="clip-path:url(#SVGID_00000091738132085505142780000012055332353169466242_);">
							
								<image style="overflow:visible;" width="1056" height="882" xlink:href="BECA684352FEE64D.png"  transform="matrix(1 0 0 1 -61.0892 -75.3045)">
							</image>
						</g>
					</g>
				</g>
			</g>
		</g>
	</g>
</g>
<g id="Graphics">
	<g id="Legend">
	</g>
</g>
<g id="Text">
	<line class="st23" x1="619.3" y1="269.9" x2="689.5" y2="269.9"/>
	<g>
		<g>
			<line class="st23" x1="596.3" y1="158.2" x2="596.3" y2="105.3"/>
			<g>
				<polygon class="st24" points="601.3,106.7 596.3,98.1 591.3,106.7 				"/>
			</g>
		</g>
	</g>
	<g>
		<g>
			<line class="st23" x1="596.3" y1="236.9" x2="596.3" y2="195.7"/>
			<g>
				<polygon class="st24" points="601.3,235.5 596.3,244.1 591.3,235.5 				"/>
			</g>
		</g>
	</g>
	<line class="st23" x1="266.4" y1="73.9" x2="511.9" y2="73.9"/>
	<path class="st25" d="M623,94.3H512.7c-2.5,0-4.6-2.1-4.6-4.6V59c0-2.5,2.1-4.6,4.6-4.6H623c2.5,0,4.6,2.1,4.6,4.6v30.6
		C627.6,92.2,625.5,94.3,623,94.3z"/>
	<path class="st25" d="M938.5,120.3H693c-5.3,0-9.6-4.3-9.6-9.6V52.6c0-5.3,4.3-9.6,9.6-9.6h245.5c5.3,0,9.6,4.3,9.6,9.6v58.2
		C948.1,116,943.8,120.3,938.5,120.3z"/>
	<rect y="-0.2" class="st27" width="465.4" height="10.6"/>
	<rect x="465.4" y="-0.3" class="st28" width="505.6" height="10.8"/>
	<text transform="matrix(1 0 0 1 6.0439 25.0154)" class="st29 st30">IBM-managed</text>
	<text transform="matrix(1 0 0 1 467.9172 25.0158)" class="st29 st30">Customer-managed</text>
	<path class="st31" d="M424.1,165H38.8c-5.5,0-10-4.5-10-10V91.6c0-5.5,4.5-10,10-10h385.3c5.5,0,10,4.5,10,10v63.5
		C434.1,160.6,429.6,165,424.1,165z"/>
	<g>
		<text transform="matrix(1 0 0 1 35.8522 77.8371)" class="st29 st32">Control plane</text>
	</g>
	<g>
		<path class="st33" d="M91.1,129.7c-2.3-3.2-12.2-5.6-24-5.6c-13.5,0-24.5,3.1-24.5,7c0,3.9,11,7,24.5,7s24.5-3.1,24.5-7
			C91.6,130.7,91.4,130.2,91.1,129.7z"/>
		<rect x="43.1" y="110.1" class="st34" width="48.1" height="21.3"/>
		<line class="st35" x1="42.7" y1="131.2" x2="42.7" y2="110.1"/>
		<line class="st35" x1="91.6" y1="131.2" x2="91.6" y2="110.1"/>
		<path class="st36" d="M91.6,110.1c0,3.9-11,7-24.5,7s-24.5-3.1-24.5-7c0-3.9,11-7,24.5-7S91.6,106.2,91.6,110.1z"/>
	</g>
	<path class="st31" d="M139.8,357H17.6c-2.7,0-4.9-2.2-4.9-4.9v-30.3c0-2.7,2.2-4.9,4.9-4.9h122.2c2.7,0,4.9,2.2,4.9,4.9v30.3
		C144.7,354.8,142.5,357,139.8,357z"/>
	<text transform="matrix(1 0 0 1 26.8434 340.9577)" class="st29 st32">X-Force Exchange</text>
	<g>
		<path class="st37" d="M433.4,290.1H23.8c-6.4,0-11.7-5.3-11.7-11.7V70.9c0-6.4,5.3-11.7,11.7-11.7h409.6c6.4,0,11.7,5.3,11.7,11.7
			v207.6C445.1,284.9,439.9,290.1,433.4,290.1z"/>
	</g>
	<g>
		<path class="st38" d="M693.5,47.3v-3.4c0-2.5-2-4.5-4.5-4.5c-2.5,0-4.5,2-4.5,4.5v3.4c-1.3,0-2.3,1-2.3,2.3v6.8
			c0,1.3,1,2.3,2.3,2.3h9.1c1.3,0,2.3-1,2.3-2.3v-6.8C695.7,48.3,694.7,47.3,693.5,47.3z M686.7,43.8c0-1.3,1-2.3,2.3-2.3
			c1.3,0,2.3,1,2.3,2.3v3.4h-4.5V43.8z M684.4,56.4v-6.8h9.1l0,6.8H684.4z"/>
		<path class="st39" d="M700.1,36c-0.9-4.6-4.5-8.1-9-9c-6.2-1.2-12.1,2.8-13.3,9c0,0,0,0,0,0c-4.6,0.8-7.7,5.3-6.9,9.9
			c0.7,4.1,4.3,7,8.4,7h0.6v-2.3h-0.6c-3.5,0-6.2-2.8-6.2-6.3c0-3,2.2-5.6,5.1-6.1l1.5-0.3l0.3-1.5c1-4.9,5.7-8.2,10.7-7.2
			c3.7,0.7,6.5,3.6,7.2,7.2l0.3,1.5l1.5,0.3c3.4,0.6,5.7,3.9,5,7.3c-0.5,3-3.1,5.1-6.1,5.1H698v2.3h0.6c4.7,0,8.5-3.8,8.5-8.5
			C707.1,40.3,704.2,36.8,700.1,36z"/>
	</g>
	<line class="st23" x1="266.1" y1="183.4" x2="374.5" y2="183.4"/>
	<text transform="matrix(1 0 0 1 559.358 78.3283)" class="st29 st32">Collector</text>
	<path class="st40" d="M407.5,147.7H112.4c-5,0-9.1-4.1-9.1-9.1V98.2c0-5,4.1-9.1,9.1-9.1h295.1c5,0,9.1,4.1,9.1,9.1v40.5
		C416.6,143.6,412.5,147.7,407.5,147.7z"/>
	<path class="st40" d="M412.7,152H117.6c-5,0-9.1-4.1-9.1-9.1v-40.5c0-5,4.1-9.1,9.1-9.1h295.1c5,0,9.1,4.1,9.1,9.1v40.5
		C421.8,147.9,417.7,152,412.7,152z"/>
	<path class="st41" d="M417.6,156.6H122.5c-5,0-9.1-4.1-9.1-9.1v-40.5c0-5,4.1-9.1,9.1-9.1h295.1c5,0,9.1,4.1,9.1,9.1v40.5
		C426.7,152.6,422.6,156.6,417.6,156.6z"/>
	<g id="apps_1_">
		<path class="st42" d="M152.9,109.1v3.5h-3.5v-3.5H152.9z M154.6,107.3h-7v7h7V107.3z M161.6,109.1v3.5h-3.5v-3.5H161.6z
			 M163.3,107.3h-7v7h7V107.3z M170.3,109.1v3.5h-3.5v-3.5H170.3z M172.1,107.3h-7v7h7V107.3z M152.9,117.8v3.5h-3.5v-3.5H152.9z
			 M154.6,116.1h-7v7h7V116.1z M161.6,117.8v3.5h-3.5v-3.5H161.6z M163.3,116.1h-7v7h7V116.1z M170.3,117.8v3.5h-3.5v-3.5H170.3z
			 M172.1,116.1h-7v7h7V116.1z M152.9,126.5v3.5h-3.5v-3.5H152.9z M154.6,124.8h-7v7h7V124.8z M161.6,126.5v3.5h-3.5v-3.5H161.6z
			 M163.3,124.8h-7v7h7V124.8z M170.3,126.5v3.5h-3.5v-3.5H170.3z M172.1,124.8h-7v7h7V124.8z"/>
	</g>
	<text transform="matrix(1 0 0 1 122.1315 146.238)" class="st43 st44">Security Insights</text>
	<g id="apps_2_">
		<path class="st42" d="M259.1,109.1v3.5h-3.5v-3.5H259.1z M260.8,107.3h-7v7h7V107.3z M267.8,109.1v3.5h-3.5v-3.5H267.8z
			 M269.6,107.3h-7v7h7V107.3z M276.5,109.1v3.5h-3.5v-3.5H276.5z M278.3,107.3h-7v7h7V107.3z M259.1,117.8v3.5h-3.5v-3.5H259.1z
			 M260.8,116.1h-7v7h7V116.1z M267.8,117.8v3.5h-3.5v-3.5H267.8z M269.6,116.1h-7v7h7V116.1z M276.5,117.8v3.5h-3.5v-3.5H276.5z
			 M278.3,116.1h-7v7h7V116.1z M259.1,126.5v3.5h-3.5v-3.5H259.1z M260.8,124.8h-7v7h7V124.8z M267.8,126.5v3.5h-3.5v-3.5H267.8z
			 M269.6,124.8h-7v7h7V124.8z M276.5,126.5v3.5h-3.5v-3.5H276.5z M278.3,124.8h-7v7h7V124.8z"/>
	</g>
	<text transform="matrix(1 0 0 1 218.1139 146.238)" class="st43 st44">Posture Management</text>
	<g id="apps_3_">
		<path class="st42" d="M370.6,109.1v3.5h-3.5v-3.5H370.6z M372.3,107.3h-7v7h7V107.3z M379.3,109.1v3.5h-3.5v-3.5H379.3z
			 M381,107.3h-7v7h7V107.3z M388,109.1v3.5h-3.5v-3.5H388z M389.8,107.3h-7v7h7V107.3z M370.6,117.8v3.5h-3.5v-3.5H370.6z
			 M372.3,116.1h-7v7h7V116.1z M379.3,117.8v3.5h-3.5v-3.5H379.3z M381,116.1h-7v7h7V116.1z M388,117.8v3.5h-3.5v-3.5H388z
			 M389.8,116.1h-7v7h7V116.1z M370.6,126.5v3.5h-3.5v-3.5H370.6z M372.3,124.8h-7v7h7V124.8z M379.3,126.5v3.5h-3.5v-3.5H379.3z
			 M381,124.8h-7v7h7V124.8z M388,126.5v3.5h-3.5v-3.5H388z M389.8,124.8h-7v7h7V124.8z"/>
	</g>
	<g>
		<text transform="matrix(1 0 0 1 335.2213 146.238)" class="st43 st44">Config Governance</text>
	</g>
	<text transform="matrix(1 0 0 1 762.9205 302.1101)" class="st43 st44">Cloud Object Storage</text>
	<g>
		<path class="st45" d="M620.2,277.6c-2.3-3.2-12.2-5.6-24-5.6c-13.5,0-24.5,3.1-24.5,7c0,3.9,11,7,24.5,7s24.5-3.1,24.5-7
			C620.7,278.5,620.6,278,620.2,277.6z"/>
		<rect x="572.2" y="257.9" class="st25" width="48.1" height="21.3"/>
		<line class="st35" x1="571.8" y1="279" x2="571.8" y2="257.9"/>
		<line class="st35" x1="620.7" y1="279" x2="620.7" y2="257.9"/>
		<path class="st46" d="M620.7,257.9c0,3.9-11,7-24.5,7s-24.5-3.1-24.5-7c0-3.9,11-7,24.5-7S620.7,254,620.7,257.9z"/>
	</g>
	<text transform="matrix(1 0 0 1 559.1266 302.1101)" class="st43 st44">Activity Tracker</text>
	<g>
		<path class="st47" d="M899.9,211.1H727.5c-3.6,0-6.5-2.9-6.5-6.5v-43.3c0-3.6,2.9-6.5,6.5-6.5h172.3c3.6,0,6.5,2.9,6.5,6.5v43.3
			C906.4,208.2,903.4,211.1,899.9,211.1z"/>
	</g>
	<g>
		<path class="st45" d="M837.7,275.8c-2.3-3.2-12.2-5.6-24-5.6c-13.5,0-24.5,3.1-24.5,7c0,3.9,11,7,24.5,7s24.5-3.1,24.5-7
			C838.2,276.7,838,276.2,837.7,275.8z"/>
		<rect x="789.6" y="256.1" class="st25" width="48.1" height="21.3"/>
		<line class="st35" x1="789.2" y1="277.2" x2="789.2" y2="256.1"/>
		<line class="st35" x1="838.2" y1="277.2" x2="838.2" y2="256.1"/>
		<path class="st46" d="M838.2,256.1c0,3.9-11,7-24.5,7s-24.5-3.1-24.5-7c0-3.9,11-7,24.5-7S838.2,252.2,838.2,256.1z"/>
	</g>
	<g>
		<g>
			<line class="st23" x1="266.5" y1="183.4" x2="266.5" y2="166.8"/>
			<g>
				<polygon class="st24" points="271.5,168.3 266.5,159.7 261.5,168.3 				"/>
			</g>
		</g>
	</g>
	<line class="st23" x1="170.1" y1="352.9" x2="825.3" y2="352.9"/>
	<path class="st25" d="M892.4,204.9H735c-3,0-5.5-2.5-5.5-5.5v-28.9c0-3,2.5-5.5,5.5-5.5h157.4c3,0,5.5,2.5,5.5,5.5v28.9
		C897.9,202.4,895.4,204.9,892.4,204.9z"/>
	<g id="Activity_Insights_1_">
		<g>
			<path class="st48" d="M743.9,178.6c-0.3,0-0.6,0.3-0.6,0.6s0.3,0.6,0.6,0.6c0.3,0,0.6-0.3,0.6-0.6l0,0
				C744.4,178.9,744.2,178.6,743.9,178.6z"/>
			<rect x="746.3" y="178.6" class="st48" width="10.8" height="1.2"/>
		</g>
		<g>
			<path class="st49" d="M743.9,183.8c-0.3,0-0.6,0.3-0.6,0.6c0,0.3,0.3,0.6,0.6,0.6c0.3,0,0.6-0.3,0.6-0.6l0,0
				C744.4,184.1,744.2,183.8,743.9,183.8z"/>
			<rect x="746.3" y="183.8" class="st49" width="10.8" height="1.2"/>
		</g>
		<path class="st48" d="M764.2,198h-26.1v-26.1h26.1V198z M739.7,196.4h22.9v-22.9h-22.9V196.4z"/>
		<g>
			<circle class="st48" cx="743.9" cy="189.6" r="0.6"/>
			<path class="st48" d="M762,188.9l-1.1-5.5c-0.1-0.3-0.3-0.5-0.6-0.5c0,0,0,0,0,0c-0.3,0-0.5,0.2-0.6,0.4l-2.2,8.4l-1.4-4.9
				c-0.1-0.2-0.3-0.4-0.5-0.4c-0.2,0-0.5,0.1-0.6,0.3L754,189h-2.9v0h-4.8v1.2h5.4v0h2.7c0.2,0,0.4-0.1,0.5-0.3l0.6-1.3l1.5,5.5
				c0.1,0.3,0.3,0.4,0.6,0.4c0,0,0,0,0,0c0.3,0,0.5-0.2,0.6-0.4l2.1-8l0.7,3.5c0.1,0.3,0.3,0.5,0.6,0.5h4.5v-1.2H762z"/>
		</g>
	</g>
	<text transform="matrix(1 0 0 1 774.5748 188.385)" class="st43 st44">Activity Insights agent</text>
	<g id="Containers_logo_light_background_1_">
		<path d="M879.3,150.9c0,0.5,0.3,1,0.8,1.3l12.6,8.7c1.1,0.7,2.8,0.7,3.9,0l12.6-8.7c0.5-0.4,0.8-0.9,0.8-1.3V166
			c0,0.5-0.3,1-0.8,1.3l-12.6,8.7c-1.1,0.7-2.8,0.7-3.9,0l-12.6-8.7c-0.5-0.4-0.8-0.9-0.8-1.3V150.9z"/>
		<path class="st50" d="M879.3,150.9c0,0.5,0.3,1,0.8,1.3l9,6.2l3.7-2.5c1.1-0.7,2.8-0.7,3.9,0l3.7,2.5l9-6.2
			c0.5-0.4,0.8-0.9,0.8-1.3v0c0-0.5-0.3-1-0.8-1.3l-12.6-8.7c-1.1-0.7-2.8-0.7-3.9,0l-12.6,8.7C879.6,149.9,879.3,150.4,879.3,150.9
			v14.9V150.9z"/>
	</g>
	<path class="st31" d="M304.4,276.2H37.2c-4.6,0-8.4-3.8-8.4-8.4v-66.7c0-4.6,3.8-8.4,8.4-8.4h267.1c4.6,0,8.4,3.8,8.4,8.4v66.7
		C312.7,272.4,309,276.2,304.4,276.2z"/>
	<g>
		<text transform="matrix(1 0 0 1 35.8522 188.9885)" class="st29 st32">Data plane</text>
	</g>
	<g>
		<path class="st33" d="M91.1,240.9c-2.3-3.2-12.2-5.6-24-5.6c-13.5,0-24.5,3.1-24.5,7c0,3.9,11,7,24.5,7s24.5-3.1,24.5-7
			C91.6,241.8,91.4,241.3,91.1,240.9z"/>
		<rect x="43.1" y="221.3" class="st34" width="48.1" height="21.3"/>
		<line class="st35" x1="42.7" y1="242.3" x2="42.7" y2="221.3"/>
		<line class="st35" x1="91.6" y1="242.3" x2="91.6" y2="221.3"/>
		<path class="st36" d="M91.6,221.3c0,3.9-11,7-24.5,7s-24.5-3.1-24.5-7s11-7,24.5-7S91.6,217.4,91.6,221.3z"/>
	</g>
	<path class="st40" d="M290.3,258.8H110.5c-3.9,0-7.1-3.2-7.1-7.1v-44.3c0-3.9,3.2-7.1,7.1-7.1h179.8c3.9,0,7.1,3.2,7.1,7.1v44.3
		C297.4,255.6,294.2,258.8,290.3,258.8z"/>
	<path class="st40" d="M295.1,263.2H115.3c-3.9,0-7.1-3.2-7.1-7.1v-44.3c0-3.9,3.2-7.1,7.1-7.1h179.8c3.9,0,7.1,3.2,7.1,7.1V256
		C302.3,259.9,299.1,263.2,295.1,263.2z"/>
	<path class="st41" d="M299.7,267.8H119.9c-3.9,0-7.1-3.2-7.1-7.1v-44.3c0-3.9,3.2-7.1,7.1-7.1h179.8c3.9,0,7.1,3.2,7.1,7.1v44.3
		C306.9,264.6,303.6,267.8,299.7,267.8z"/>
	<text transform="matrix(1 0 0 1 121.3268 258.4037)" class="st43 st44">Network Insights</text>
	<text transform="matrix(1 0 0 1 224.6813 258.4037)" class="st43 st44">Activity Insights</text>
	<path class="st31" d="M427,275.7H322.4c-2.9,0-5.3-2.4-5.3-5.3v-72.8c0-2.9,2.4-5.3,5.3-5.3H427c2.9,0,5.3,2.4,5.3,5.3v72.8
		C432.3,273.3,430,275.7,427,275.7z"/>
	<path class="st40" d="M416.8,258.4h-90.2c-2.8,0-5.1-2.3-5.1-5.1v-48.3c0-2.8,2.3-5.1,5.1-5.1h90.2c2.8,0,5.1,2.3,5.1,5.1v48.3
		C421.9,256.1,419.6,258.4,416.8,258.4z"/>
	<path class="st51" d="M419.3,262.7H330c-2.8,0-5.1-2.3-5.1-5.1v-48.4c0-2.8,2.3-5.1,5.1-5.1h89.3c2.8,0,5.1,2.3,5.1,5.1v48.4
		C424.4,260.4,422.1,262.7,419.3,262.7z"/>
	<path class="st41" d="M421.6,267.3h-88.1c-2.8,0-5.1-2.3-5.1-5.1v-48.4c0-2.8,2.3-5.1,5.1-5.1h88.1c2.8,0,5.1,2.3,5.1,5.1v48.4
		C426.7,265,424.4,267.3,421.6,267.3z"/>
	<text transform="matrix(1 0 0 1 333.7203 258.4037)" class="st43 st44">Managed collectors</text>
	<line class="st23" x1="374.5" y1="192.3" x2="374.5" y2="182.9"/>
	<g>
		<g>
			<line class="st23" x1="159.8" y1="192.8" x2="159.8" y2="166.8"/>
			<g>
				<polygon class="st24" points="164.8,168.3 159.8,159.7 154.9,168.3 				"/>
			</g>
		</g>
	</g>
	<g>
		<g>
			<line class="st23" x1="152.2" y1="337" x2="152.2" y2="279.1"/>
			<g>
				<polygon class="st24" points="157.2,280.5 152.2,271.9 147.2,280.5 				"/>
			</g>
		</g>
	</g>
	<line class="st23" x1="144.7" y1="337.2" x2="152.2" y2="337.2"/>
	<g>
		<g>
			<line class="st23" x1="170.1" y1="352.9" x2="170.1" y2="279.1"/>
			<g>
				<polygon class="st24" points="175.1,280.5 170.1,271.9 165.1,280.5 				"/>
			</g>
		</g>
	</g>
	<line class="st23" x1="260.7" y1="337.2" x2="801.4" y2="337.2"/>
	<g>
		<g>
			<line class="st23" x1="260.7" y1="337.2" x2="260.7" y2="279.1"/>
			<g>
				<polygon class="st24" points="265.7,280.5 260.7,271.9 255.8,280.5 				"/>
			</g>
		</g>
	</g>
	<g>
		<g>
			<line class="st23" x1="266.5" y1="83.8" x2="266.5" y2="73.7"/>
			<g>
				<polygon class="st24" points="271.5,82.3 266.5,90.9 261.5,82.3 				"/>
			</g>
		</g>
	</g>
	<g>
		<path class="st38" d="M533.8,74.7v-6.8h-9.1v15.9h15.9v-9.1H533.8z M527,70.2h4.5v4.5H527V70.2z M531.6,81.6H527V77h4.5V81.6z
			 M538.4,81.6h-4.5V77h4.5V81.6z"/>
		<path class="st38" d="M544.1,89.5h-22.7c-1.3,0-2.3-1-2.3-2.3V64.5c0-1.3,1-2.3,2.3-2.3h11.4v2.3h-11.4v22.7h22.7V75.9h2.3v11.4
			C546.3,88.5,545.3,89.5,544.1,89.5z"/>
		<g>
			<path class="st38" d="M546,68.1v-1.5c0-1.1-0.9-2-2-2s-2,0.9-2,2v1.5c-0.5,0-1,0.4-1,1v3c0,0.5,0.4,1,1,1h4c0.5,0,1-0.4,1-1v-3
				C547,68.6,546.6,68.1,546,68.1z M543.1,66.6c0-0.5,0.4-1,1-1s1,0.4,1,1v1.5h-2V66.6z M542.1,72.1v-3h4l0,3H542.1z"/>
			<path class="st39" d="M548.9,63.2c-0.4-2-1.9-3.6-3.9-3.9c-2.7-0.5-5.3,1.2-5.8,3.9c0,0,0,0,0,0c-2,0.4-3.4,2.3-3,4.3
				c0.3,1.8,1.9,3.1,3.7,3.1h0.3v-1h-0.3c-1.5,0-2.7-1.2-2.7-2.7c0-1.3,0.9-2.5,2.3-2.7l0.7-0.1l0.1-0.7c0.4-2.2,2.5-3.6,4.7-3.2
				c1.6,0.3,2.8,1.6,3.2,3.2l0.1,0.7l0.7,0.1c1.5,0.3,2.5,1.7,2.2,3.2c-0.2,1.3-1.4,2.2-2.7,2.3H548v1h0.3c2.1,0,3.7-1.7,3.7-3.7
				C552,65.1,550.7,63.5,548.9,63.2z"/>
		</g>
	</g>
	<path class="st52" d="M654.6,197.3H488.3c-3.1,0-5.6-2.5-5.6-5.6v-28.6c0-3.1,2.5-5.6,5.6-5.6h166.2c3.1,0,5.6,2.5,5.6,5.6v28.6
		C660.2,194.8,657.7,197.3,654.6,197.3z"/>
	<g>
		<path class="st39" d="M517.4,173.5c-1-5.4-5.7-9.2-11.2-9.2v2.3c4.4,0,8.1,3.1,8.9,7.4l0.3,1.5l1.5,0.3c3.4,0.6,5.7,3.9,5,7.3
			c-0.5,3-3.1,5.1-6.1,5.1h-9.7v2.3h9.7c4.7,0,8.5-3.8,8.5-8.5C524.4,177.8,521.4,174.3,517.4,173.5z"/>
		<rect x="497.1" y="185.9" class="st39" width="6.8" height="2.3"/>
		<rect x="492.6" y="185.9" class="st39" width="2.3" height="2.3"/>
		<rect x="494.9" y="181.4" class="st39" width="9.1" height="2.3"/>
		<rect x="490.3" y="181.4" class="st39" width="2.3" height="2.3"/>
		<rect x="497.1" y="176.8" class="st39" width="6.8" height="2.3"/>
		<rect x="492.6" y="176.8" class="st39" width="2.3" height="2.3"/>
		<rect x="499.4" y="172.3" class="st39" width="4.5" height="2.3"/>
		<rect x="494.9" y="172.3" class="st39" width="2.3" height="2.3"/>
		<rect x="501.7" y="167.7" class="st39" width="2.3" height="2.3"/>
	</g>
	<text transform="matrix(1 0 0 1 528.9469 181.3713)" class="st29 st32">IBM Cloud services</text>
	<path class="st53" d="M792.1,96.7h-84.2c-2.3,0-4.1-1.9-4.1-4.1V59.7c0-2.3,1.9-4.1,4.1-4.1h84.2c2.3,0,4.1,1.9,4.1,4.1v32.8
		C796.2,94.8,794.4,96.7,792.1,96.7z"/>
	<path class="st54" d="M794.4,99.7h-83.1c-2.3,0-4.1-1.8-4.1-4.1V62.7c0-2.3,1.8-4.1,4.1-4.1h83.1c2.3,0,4.1,1.8,4.1,4.1v32.9
		C798.5,97.8,796.6,99.7,794.4,99.7z"/>
	<path class="st55" d="M796.5,102.9h-80.9c-2.2,0-4-1.8-4-4v-33c0-2.2,1.8-4,4-4h80.9c2.2,0,4,1.8,4,4v33
		C800.6,101.1,798.7,102.9,796.5,102.9z"/>
	<g>
		<path class="st38" d="M737.4,67.7h-18.2c-1.3,0-2.3,1-2.3,2.3v25c0,1.3,1,2.3,2.3,2.3h18.2c1.3,0,2.3-1,2.3-2.3V70
			C739.6,68.7,738.6,67.7,737.4,67.7z M737.4,70v6.8h-18.2V70H737.4z M719.2,85.9V79h18.2v6.8H719.2z M719.2,95v-6.8h18.2V95H719.2z
			"/>
		<circle class="st38" cx="722.6" cy="73.4" r="1.1"/>
		<circle class="st38" cx="722.6" cy="82.5" r="1.1"/>
		<circle class="st38" cx="722.6" cy="91.5" r="1.1"/>
	</g>
	<text transform="matrix(1 0 0 1 749.4791 85.8869)" class="st43 st44">VSIs</text>
	<path class="st53" d="M925.4,96.7h-84.2c-2.3,0-4.1-1.9-4.1-4.1V59.7c0-2.3,1.9-4.1,4.1-4.1h84.2c2.3,0,4.1,1.9,4.1,4.1v32.8
		C929.5,94.8,927.6,96.7,925.4,96.7z"/>
	<path class="st54" d="M927.6,99.7h-83.1c-2.3,0-4.1-1.8-4.1-4.1V62.7c0-2.3,1.8-4.1,4.1-4.1h83.1c2.3,0,4.1,1.8,4.1,4.1v32.9
		C931.7,97.8,929.9,99.7,927.6,99.7z"/>
	<path class="st55" d="M929.8,102.9h-80.9c-2.2,0-4-1.8-4-4v-33c0-2.2,1.8-4,4-4h80.9c2.2,0,4,1.8,4,4v33
		C933.8,101.1,932,102.9,929.8,102.9z"/>
	<text transform="matrix(1 0 0 1 882.2965 79.0676)"><tspan x="0" y="0" class="st43 st44">Flow Log</tspan><tspan x="0.2" y="12" class="st43 st44">collector</tspan></text>
	<g>
		<path class="st38" d="M864.6,90.3h-7.7c-0.1-0.3-0.2-0.6-0.4-0.9l10-9.9c0.6,0.3,1.2,0.5,1.9,0.5c2.1,0,3.8-1.7,3.8-3.7
			c0-2.1-1.7-3.7-3.8-3.8c-1.7,0-3.2,1.1-3.7,2.8h-5.8v1.9h5.8c0.1,0.3,0.2,0.6,0.4,0.9l-10,9.9c-0.6-0.3-1.2-0.5-1.9-0.5
			c-2.1,0-3.8,1.7-3.8,3.7s1.7,3.7,3.8,3.8c1.7,0,3.2-1.1,3.7-2.8h7.7V95h7.6v-7.5h-7.6V90.3z M868.4,74.4c1,0,1.9,0.8,1.9,1.9
			s-0.8,1.9-1.9,1.9s-1.9-0.8-1.9-1.9S867.3,74.4,868.4,74.4z M853.2,93.1c-1,0-1.9-0.8-1.9-1.9s0.8-1.9,1.9-1.9s1.9,0.8,1.9,1.9
			S854.3,93.1,853.2,93.1z M866.5,89.3h3.8v3.7h-3.8V89.3z"/>
		<path class="st38" d="M852.3,82.6c-3.5-3.1-3.9-8.4-0.8-11.9c0.2-0.3,0.5-0.5,0.8-0.7l1.2,1.4c-2.7,2.4-3,6.5-0.6,9.2
			c0.2,0.2,0.4,0.4,0.6,0.6L852.3,82.6z"/>
		<path class="st38" d="M854.8,79.8c-2-1.7-2.1-4.7-0.4-6.6c0.1-0.1,0.3-0.3,0.4-0.4l1.2,1.4c-1.2,1-1.3,2.8-0.3,4
			c0.1,0.1,0.2,0.2,0.3,0.2L854.8,79.8z"/>
	</g>
	<g>
		<g>
			<line class="st23" x1="800.6" y1="81.8" x2="825.6" y2="81.8"/>
			<g>
				<polygon class="st24" points="824.1,86.8 832.8,81.8 824.1,76.9 				"/>
			</g>
		</g>
	</g>
	<line class="st23" x1="933.8" y1="81.8" x2="962.2" y2="81.8"/>
	<line class="st23" x1="962.2" y1="269.9" x2="962.2" y2="81.5"/>
	<g>
		<g>
			<line class="st23" x1="849.9" y1="269.9" x2="962.2" y2="269.9"/>
			<g>
				<polygon class="st24" points="851.3,274.9 842.7,269.9 851.3,264.9 				"/>
			</g>
		</g>
	</g>
	<line class="st23" x1="824.8" y1="352.9" x2="824.8" y2="311.3"/>
	<line class="st23" x1="688.9" y1="270.2" x2="688.9" y2="185.6"/>
	<g>
		<g>
			<line class="st23" x1="688.4" y1="185.6" x2="718.8" y2="185.6"/>
			<g>
				<polygon class="st24" points="717.4,190.6 726,185.6 717.4,180.6 				"/>
			</g>
		</g>
	</g>
	<line class="st23" x1="801" y1="337.2" x2="801" y2="311.3"/>
	<g>
		<g>
			<line class="st23" x1="813.7" y1="235.1" x2="813.7" y2="204.9"/>
			<g>
				<polygon class="st24" points="818.7,233.7 813.7,242.3 808.7,233.7 				"/>
			</g>
		</g>
	</g>
	<g>
		<path class="st39" d="M378.7,228.4v-6.8h-9.1v15.9h15.9v-9.1H378.7z M371.9,223.9h4.5v4.5h-4.5V223.9z M376.4,235.2h-4.5v-4.5h4.5
			V235.2z M383.2,235.2h-4.5v-4.5h4.5V235.2z"/>
		<path class="st39" d="M388.9,243.2h-22.7c-1.3,0-2.3-1-2.3-2.3v-22.7c0-1.3,1-2.3,2.3-2.3h11.4v2.3h-11.4v22.7h22.7v-11.4h2.3
			v11.4C391.2,242.2,390.2,243.2,388.9,243.2z"/>
		<g id="Containers_logo_light_background_3_">
			<path d="M381,218.7c0,0.1,0.1,0.3,0.2,0.4l3.7,2.5c0.3,0.2,0.8,0.2,1.1,0l3.7-2.5c0.2-0.1,0.2-0.3,0.2-0.4v4.4
				c0,0.1-0.1,0.3-0.2,0.4l-3.7,2.5c-0.3,0.2-0.8,0.2-1.1,0l-3.7-2.5c-0.2-0.1-0.2-0.3-0.2-0.4V218.7z"/>
			<path class="st50" d="M381,218.7c0,0.1,0.1,0.3,0.2,0.4l2.6,1.8l1.1-0.7c0.3-0.2,0.8-0.2,1.1,0l1.1,0.7l2.6-1.8
				c0.2-0.1,0.2-0.3,0.2-0.4v0c0-0.1-0.1-0.3-0.2-0.4l-3.7-2.5c-0.3-0.2-0.8-0.2-1.1,0l-3.7,2.5C381.1,218.4,381,218.5,381,218.7
				v4.3V218.7z"/>
		</g>
	</g>
	<g id="Activity_Insights_2_">
		<g>
			<path class="st48" d="M252.5,224.3c-0.3,0-0.6,0.3-0.6,0.6c0,0.3,0.3,0.6,0.6,0.6c0.3,0,0.6-0.3,0.6-0.6l0,0
				C253.1,224.6,252.9,224.3,252.5,224.3z"/>
			<rect x="255" y="224.3" class="st48" width="10.8" height="1.2"/>
		</g>
		<g>
			<path class="st49" d="M252.5,229.6c-0.3,0-0.6,0.3-0.6,0.6c0,0.3,0.3,0.6,0.6,0.6c0.3,0,0.6-0.3,0.6-0.6l0,0
				C253.1,229.8,252.9,229.6,252.5,229.6z"/>
			<rect x="255" y="229.6" class="st49" width="10.8" height="1.2"/>
		</g>
		<path class="st48" d="M272.9,243.7h-26.1v-26.1h26.1V243.7z M248.4,242.1h22.9v-22.9h-22.9V242.1z"/>
		<g>
			<circle class="st48" cx="252.5" cy="235.4" r="0.6"/>
			<path class="st48" d="M270.7,234.6l-1.1-5.5c-0.1-0.3-0.3-0.5-0.6-0.5c0,0,0,0,0,0c-0.3,0-0.5,0.2-0.6,0.4l-2.2,8.4l-1.4-4.9
				c-0.1-0.2-0.3-0.4-0.5-0.4c-0.2,0-0.5,0.1-0.6,0.3l-1.1,2.3h-2.9v0H255v1.2h5.4v0h2.7c0.2,0,0.4-0.1,0.5-0.3l0.6-1.3l1.5,5.5
				c0.1,0.3,0.3,0.4,0.6,0.4c0,0,0,0,0,0c0.3,0,0.5-0.2,0.6-0.4l2.1-8l0.7,3.5c0.1,0.3,0.3,0.5,0.6,0.5h4.5v-1.2H270.7z"/>
		</g>
	</g>
	<g id="Network_insights_1_">
		<g>
			<defs>
				<path id="SVGID_00000153678416420177246070000003414314607710453124_" d="M844.4,1161.4c-0.3,0-0.6,0.1-0.9,0.3l-11.2-8.2
					c0.1-0.2,0.1-0.3,0.1-0.5c0-0.8-0.6-1.4-1.4-1.4c-0.8,0-1.4,0.6-1.4,1.4c0,0.4,0.2,0.8,0.4,1l-7.9,14.3c-0.1,0-0.2-0.1-0.4-0.1
					c-0.3,0-0.6,0.1-0.8,0.3l-9.5-8.3c0.1-0.2,0.2-0.4,0.2-0.6c0-0.8-0.6-1.4-1.4-1.4s-1.4,0.6-1.4,1.4s0.6,1.4,1.4,1.4
					c0.3,0,0.6-0.1,0.8-0.3l9.5,8.3c-0.1,0.2-0.2,0.4-0.2,0.6c0,0.8,0.6,1.4,1.4,1.4c0.8,0,1.4-0.6,1.4-1.4c0-0.4-0.2-0.8-0.4-1
					l7.9-14.3c0.1,0,0.2,0.1,0.4,0.1c0.3,0,0.6-0.1,0.9-0.3l11.2,8.2c-0.1,0.2-0.1,0.3-0.1,0.5c0,0.8,0.6,1.4,1.4,1.4
					c0.8,0,1.4-0.6,1.4-1.4C845.8,1162,845.1,1161.4,844.4,1161.4"/>
			</defs>
			
				<use xlink:href="#SVGID_00000153678416420177246070000003414314607710453124_"  style="overflow:visible;fill-rule:evenodd;clip-rule:evenodd;fill:#8EE9D4;"/>
			<clipPath id="SVGID_00000097488852670355637350000002721343261445421216_">
				<use xlink:href="#SVGID_00000153678416420177246070000003414314607710453124_"  style="overflow:visible;"/>
			</clipPath>
			<g style="clip-path:url(#SVGID_00000097488852670355637350000002721343261445421216_);">
				<defs>
					<rect id="SVGID_00000154384710265005184390000003337658280542331580_" x="329.5" y="272.8" width="2429.5" height="2473.4"/>
				</defs>
				<use xlink:href="#SVGID_00000154384710265005184390000003337658280542331580_"  style="overflow:visible;fill:#8EE9D4;"/>
				<clipPath id="SVGID_00000078036702248549282230000005151398140694011023_">
					<use xlink:href="#SVGID_00000154384710265005184390000003337658280542331580_"  style="overflow:visible;"/>
				</clipPath>
			</g>
		</g>
		<g>
			<defs>
				<rect id="SVGID_00000005245733508128980420000009467973455478198195_" x="807" y="1149.3" width="37.9" height="27.9"/>
			</defs>
			<clipPath id="SVGID_00000056404704882115298190000015939016904745442739_">
				<use xlink:href="#SVGID_00000005245733508128980420000009467973455478198195_"  style="overflow:visible;"/>
			</clipPath>
			<g style="clip-path:url(#SVGID_00000056404704882115298190000015939016904745442739_);">
				<defs>
					<rect id="SVGID_00000164479369120042273900000011733535573845599922_" x="329.5" y="272.8" width="2429.5" height="2473.4"/>
				</defs>
				<clipPath id="SVGID_00000040569579973648960790000005214208877009232790_">
					<use xlink:href="#SVGID_00000164479369120042273900000011733535573845599922_"  style="overflow:visible;"/>
				</clipPath>
			</g>
		</g>
	</g>
	<g id="Network_insights_2_">
		<g>
			<defs>
				<path id="SVGID_00000128458912939797252970000014294275668289613956_" d="M942.5,1161.4c-0.3,0-0.6,0.1-0.9,0.3l-11.2-8.2
					c0.1-0.2,0.1-0.3,0.1-0.5c0-0.8-0.6-1.4-1.4-1.4c-0.8,0-1.4,0.6-1.4,1.4c0,0.4,0.2,0.8,0.4,1l-7.9,14.3c-0.1,0-0.2-0.1-0.4-0.1
					c-0.3,0-0.6,0.1-0.8,0.3l-9.5-8.3c0.1-0.2,0.2-0.4,0.2-0.6c0-0.8-0.6-1.4-1.4-1.4s-1.4,0.6-1.4,1.4s0.6,1.4,1.4,1.4
					c0.3,0,0.6-0.1,0.8-0.3l9.5,8.3c-0.1,0.2-0.2,0.4-0.2,0.6c0,0.8,0.6,1.4,1.4,1.4c0.8,0,1.4-0.6,1.4-1.4c0-0.4-0.2-0.8-0.4-1
					l7.9-14.3c0.1,0,0.2,0.1,0.4,0.1c0.3,0,0.6-0.1,0.9-0.3l11.2,8.2c-0.1,0.2-0.1,0.3-0.1,0.5c0,0.8,0.6,1.4,1.4,1.4
					c0.8,0,1.4-0.6,1.4-1.4C943.9,1162,943.3,1161.4,942.5,1161.4"/>
			</defs>
			
				<use xlink:href="#SVGID_00000128458912939797252970000014294275668289613956_"  style="overflow:visible;fill-rule:evenodd;clip-rule:evenodd;fill:#8EE9D4;"/>
			<clipPath id="SVGID_00000163767064608135295640000004224877021682456225_">
				<use xlink:href="#SVGID_00000128458912939797252970000014294275668289613956_"  style="overflow:visible;"/>
			</clipPath>
			<g style="clip-path:url(#SVGID_00000163767064608135295640000004224877021682456225_);">
				<defs>
					<rect id="SVGID_00000048463912151137835310000018075752036127382427_" x="427.6" y="272.8" width="2429.5" height="2473.4"/>
				</defs>
				<use xlink:href="#SVGID_00000048463912151137835310000018075752036127382427_"  style="overflow:visible;fill:#8EE9D4;"/>
				<clipPath id="SVGID_00000077291031211675977470000000792496041126050177_">
					<use xlink:href="#SVGID_00000048463912151137835310000018075752036127382427_"  style="overflow:visible;"/>
				</clipPath>
			</g>
		</g>
		<g>
			<defs>
				<rect id="SVGID_00000016050997367639809920000009098558009989610915_" x="905.1" y="1149.3" width="37.9" height="27.9"/>
			</defs>
			<clipPath id="SVGID_00000146461367039293375060000017507083103249107388_">
				<use xlink:href="#SVGID_00000016050997367639809920000009098558009989610915_"  style="overflow:visible;"/>
			</clipPath>
			<g style="clip-path:url(#SVGID_00000146461367039293375060000017507083103249107388_);">
				<defs>
					<rect id="SVGID_00000118388586581643026620000001679721768452477851_" x="427.6" y="272.8" width="2429.5" height="2473.4"/>
				</defs>
				<clipPath id="SVGID_00000124882937621974442690000004903442635115450045_">
					<use xlink:href="#SVGID_00000118388586581643026620000001679721768452477851_"  style="overflow:visible;"/>
				</clipPath>
			</g>
		</g>
	</g>
	<g id="Network_insights_3_">
		<g>
			<defs>
				<path id="SVGID_00000027586770793303089520000002881572646738800768_" d="M168.2,230.4c-0.1,0-0.3,0.1-0.4,0.2l-4.9-3.6
					c0-0.1,0-0.2,0-0.2c0-0.3-0.3-0.6-0.6-0.6c-0.3,0-0.6,0.3-0.6,0.6c0,0.2,0.1,0.3,0.2,0.4l-3.5,6.3c-0.1,0-0.1,0-0.2,0
					c-0.1,0-0.2,0.1-0.3,0.1l-4.2-3.7c0-0.1,0.1-0.2,0.1-0.3c0-0.3-0.3-0.6-0.6-0.6c-0.3,0-0.6,0.3-0.6,0.6c0,0.3,0.3,0.6,0.6,0.6
					c0.1,0,0.2-0.1,0.3-0.1l4.2,3.7c0,0.1-0.1,0.2-0.1,0.3c0,0.3,0.3,0.6,0.6,0.6c0.3,0,0.6-0.3,0.6-0.6c0-0.2-0.1-0.3-0.2-0.4
					l3.5-6.3c0.1,0,0.1,0,0.2,0c0.1,0,0.3-0.1,0.4-0.2l4.9,3.6c0,0.1,0,0.2,0,0.2c0,0.3,0.3,0.6,0.6,0.6c0.3,0,0.6-0.3,0.6-0.6
					C168.8,230.7,168.5,230.4,168.2,230.4"/>
			</defs>
			
				<use xlink:href="#SVGID_00000027586770793303089520000002881572646738800768_"  style="overflow:visible;fill-rule:evenodd;clip-rule:evenodd;fill:#8EE9D4;"/>
			<clipPath id="SVGID_00000078014948460683801090000013909706956839474570_">
				<use xlink:href="#SVGID_00000027586770793303089520000002881572646738800768_"  style="overflow:visible;"/>
			</clipPath>
			<g style="clip-path:url(#SVGID_00000078014948460683801090000013909706956839474570_);">
				<defs>
					<rect id="SVGID_00000059303515627109957110000018413859369772773516_" x="-58.7" y="-161" width="1070.4" height="1089.7"/>
				</defs>
				<use xlink:href="#SVGID_00000059303515627109957110000018413859369772773516_"  style="overflow:visible;fill:#8EE9D4;"/>
				<clipPath id="SVGID_00000013882870028155678520000010375877737277891769_">
					<use xlink:href="#SVGID_00000059303515627109957110000018413859369772773516_"  style="overflow:visible;"/>
				</clipPath>
				
					<rect x="148.9" y="222.4" style="clip-path:url(#SVGID_00000013882870028155678520000010375877737277891769_);fill:#8EE9D4;" width="23.6" height="16"/>
			</g>
		</g>
		<g>
			<defs>
				<rect id="SVGID_00000138552367595036102750000010628978151783638952_" x="151.7" y="225.1" width="16.7" height="12.3"/>
			</defs>
			<clipPath id="SVGID_00000119817469260213092710000016436522016668927623_">
				<use xlink:href="#SVGID_00000138552367595036102750000010628978151783638952_"  style="overflow:visible;"/>
			</clipPath>
			<g style="clip-path:url(#SVGID_00000119817469260213092710000016436522016668927623_);">
				<defs>
					<rect id="SVGID_00000011021919658803495820000000874492089561705911_" x="-58.7" y="-161" width="1070.4" height="1089.7"/>
				</defs>
				<clipPath id="SVGID_00000062190529958701955120000004855393709821873837_">
					<use xlink:href="#SVGID_00000011021919658803495820000000874492089561705911_"  style="overflow:visible;"/>
				</clipPath>
				<g style="clip-path:url(#SVGID_00000062190529958701955120000004855393709821873837_);enable-background:new    ;">
					<g>
						<defs>
							<rect id="SVGID_00000075131503239369903310000009230525591839285403_" x="151.7" y="224.7" width="17.1" height="12.6"/>
						</defs>
						<clipPath id="SVGID_00000046300979830203801170000011444675604174479264_">
							<use xlink:href="#SVGID_00000075131503239369903310000009230525591839285403_"  style="overflow:visible;"/>
						</clipPath>
						<g style="clip-path:url(#SVGID_00000046300979830203801170000011444675604174479264_);">
							<defs>
								<path id="SVGID_00000088132419412065414850000005492128010767582637_" d="M167,225.1c-0.8,0-1.4,0.6-1.4,1.4
									c0,0.5,0.3,0.9,0.6,1.2l-2.2,4.5c-0.1,0-0.1,0-0.2,0c-0.4,0-0.8,0.2-1,0.5l-3.6-2.4c0.1-0.2,0.1-0.3,0.1-0.5
									c0-0.8-0.6-1.4-1.4-1.4c-0.8,0-1.4,0.6-1.4,1.4c0,0.3,0.1,0.6,0.3,0.9l-3.3,4.2c-0.2-0.1-0.4-0.1-0.6-0.1
									c-0.8,0-1.4,0.6-1.4,1.4c0,0.8,0.6,1.4,1.4,1.4s1.4-0.6,1.4-1.4c0-0.3-0.1-0.6-0.3-0.9l3.3-4.2c0.2,0.1,0.4,0.1,0.6,0.1
									c0.4,0,0.7-0.2,1-0.4l3.6,2.4c0,0.1-0.1,0.3-0.1,0.4c0,0.8,0.6,1.4,1.4,1.4c0.8,0,1.4-0.6,1.4-1.4c0-0.5-0.3-0.9-0.6-1.2
									l2.2-4.5c0.1,0,0.1,0,0.2,0c0.8,0,1.4-0.6,1.4-1.4C168.4,225.7,167.7,225.1,167,225.1"/>
							</defs>
							
								<use xlink:href="#SVGID_00000088132419412065414850000005492128010767582637_"  style="overflow:visible;fill-rule:evenodd;clip-rule:evenodd;fill:#00BAA1;"/>
							<clipPath id="SVGID_00000108281857808236279720000006381288681719546037_">
								<use xlink:href="#SVGID_00000088132419412065414850000005492128010767582637_"  style="overflow:visible;"/>
							</clipPath>
							<g style="clip-path:url(#SVGID_00000108281857808236279720000006381288681719546037_);">
								<defs>
									<rect id="SVGID_00000155835247573638818030000008022119800777629857_" x="151.7" y="224.7" width="17.1" height="12.6"/>
								</defs>
								<use xlink:href="#SVGID_00000155835247573638818030000008022119800777629857_"  style="overflow:visible;fill:#00BAA1;"/>
								<clipPath id="SVGID_00000036228208066108013120000011000741738983105976_">
									<use xlink:href="#SVGID_00000155835247573638818030000008022119800777629857_"  style="overflow:visible;"/>
								</clipPath>
								
									<rect x="148" y="221.4" style="clip-path:url(#SVGID_00000036228208066108013120000011000741738983105976_);fill:#00BAA1;" width="24.1" height="19.7"/>
							</g>
						</g>
					</g>
				</g>
			</g>
		</g>
		<path class="st48" d="M159.8,244.8c-7.8,0-14.1-6.3-14.1-14.1c0-7.8,6.3-14.1,14.1-14.1s14.1,6.3,14.1,14.1
			C174,238.5,167.6,244.8,159.8,244.8z M159.8,218c-7,0-12.6,5.7-12.6,12.6c0,7,5.7,12.6,12.6,12.6c7,0,12.6-5.7,12.6-12.6
			C172.5,223.7,166.8,218,159.8,218z"/>
	</g>
	<text transform="matrix(1 0 0 1 711.5524 47.2595)" class="st29 st77">VPC</text>
	<text transform="matrix(1 0 0 1 56.6832 149.5183)" class="st43 st44">Data</text>
	<text transform="matrix(1 0 0 1 56.6832 261.0534)" class="st43 st44">Data</text>
	<g>
		<g>
			<line class="st23" x1="436.6" y1="121.1" x2="560.6" y2="121.1"/>
			<g>
				<polygon class="st24" points="438.1,126.1 429.4,121.1 438.1,116.1 				"/>
			</g>
		</g>
	</g>
	<g>
		<g>
			<line class="st23" x1="560.1" y1="147.6" x2="560.1" y2="121.2"/>
			<g>
				<polygon class="st24" points="565.1,146.1 560.1,154.8 555.1,146.1 				"/>
			</g>
		</g>
	</g>
	<g>
		<g>
			<line class="st23" x1="436.6" y1="236" x2="560.6" y2="236"/>
			<g>
				<polygon class="st24" points="438.1,241 429.4,236 438.1,231 				"/>
			</g>
		</g>
	</g>
	<line class="st23" x1="560.1" y1="236" x2="560.1" y2="197.3"/>
</g>
</svg>
