<?xml version="1.0" encoding="utf-8"?>
<!-- Generator: Adobe Illustrator 26.0.1, SVG Export Plug-In . SVG Version: 6.00 Build 0)  -->
<svg version="1.1" xmlns="http://www.w3.org/2000/svg" xmlns:xlink="http://www.w3.org/1999/xlink" x="0px" y="0px"
	 viewBox="0 0 770.5 321.4" style="enable-background:new 0 0 770.5 321.4;" xml:space="preserve">
<style type="text/css">
	.st0{display:none;}
	.st1{display:inline;}
	.st2{clip-path:url(#SVGID_00000042701925974127066880000017176083004115511688_);}
	.st3{opacity:0.4;clip-path:url(#SVGID_00000054957375691440652130000017816143061292535197_);fill:#A3A4A3;}
	.st4{clip-path:url(#SVGID_00000178163246971512777650000008769594068998134203_);}
	.st5{opacity:0.4;clip-path:url(#SVGID_00000091694302657199187400000007431843957090966700_);fill:#A3A4A3;}
	.st6{opacity:0.1413;clip-path:url(#SVGID_00000034807584624790743130000012153676357144471691_);enable-background:new    ;}
	.st7{clip-path:url(#SVGID_00000065068320150133549770000001429889698578424962_);}
	.st8{clip-path:url(#SVGID_00000093863398529066497600000005747590480323053446_);}
	.st9{clip-path:url(#SVGID_00000147915046190918641070000009148488374268597402_);}
	.st10{opacity:0.4;clip-path:url(#SVGID_00000042013989784963254870000011600739890361932434_);fill:#A3A4A3;}
	.st11{clip-path:url(#SVGID_00000173150579261335052430000000583064991824499900_);}
	.st12{opacity:0.4;clip-path:url(#SVGID_00000052786275502057985830000007420888805494034613_);fill:#A3A4A3;}
	.st13{opacity:0.1413;clip-path:url(#SVGID_00000000945619503644207400000009759221924199035782_);enable-background:new    ;}
	.st14{clip-path:url(#SVGID_00000038398827459952434260000015221459173581036960_);}
	.st15{clip-path:url(#SVGID_00000031206963333112131500000014442298149589477551_);}
	.st16{clip-path:url(#SVGID_00000177448625981236253700000014512750976464382125_);}
	.st17{opacity:0.4;clip-path:url(#SVGID_00000133526167232375967350000012746064661978255256_);fill:#A3A4A3;}
	.st18{clip-path:url(#SVGID_00000080926875143471623980000003393893485167386758_);}
	.st19{opacity:0.4;clip-path:url(#SVGID_00000152984641331044977470000002268949583736550564_);fill:#A3A4A3;}
	.st20{opacity:0.1413;clip-path:url(#SVGID_00000107578953861256433210000005005355307113897355_);enable-background:new    ;}
	.st21{clip-path:url(#SVGID_00000019654735883355784400000006748075920947540372_);}
	.st22{clip-path:url(#SVGID_00000083774155171901272590000014301831564061239970_);}
	.st23{fill:#F4F4F4;}
	.st24{fill:none;stroke:#6F6F6F;stroke-width:0.75;stroke-linejoin:round;stroke-miterlimit:10;}
	.st25{fill:none;stroke:#6F6F6F;stroke-width:0.75;stroke-linejoin:round;}
	.st26{fill:#6F6F6F;}
	.st27{fill:#FFFFFF;stroke:#8D8D8D;stroke-width:0.75;stroke-linecap:round;stroke-miterlimit:10;}
	.st28{font-family:'IBMPlexSans-SemiBold';}
	.st29{font-size:14px;}
	.st30{fill:#0F62FE;}
	.st31{font-family:'IBMPlexSans';}
	.st32{font-size:12px;}
	.st33{fill:none;stroke:#6F6F6F;stroke-width:0.75;stroke-miterlimit:10;}
	.st34{fill:none;}
	.st35{fill:#002D9C;}
	.st36{fill:#FFFFFF;stroke:#8D8D8D;stroke-width:0.9291;stroke-linecap:round;stroke-miterlimit:10;}
	.st37{fill:#A6C8FF;}
	.st38{fill:#FFFFFF;stroke:#8D8D8D;stroke-width:0.8018;stroke-linecap:round;stroke-miterlimit:10;}
	.st39{fill:#FFFFFF;stroke:#8D8D8D;stroke-width:0.8046;stroke-linecap:round;stroke-miterlimit:10;}
	.st40{opacity:0.5;fill:#FB4B53;}
	.st41{opacity:0.5;fill:#FDD13A;}
	.st42{opacity:0.5;fill:#A8A8A8;}
	.st43{opacity:0.5;fill:#198038;}
	.st44{font-size:3.6146px;}
	.st45{fill:#525252;}
	.st46{font-size:1.3254px;}
	.st47{fill:none;stroke:#6F6F6F;stroke-width:0.8486;stroke-miterlimit:10;}
	.st48{fill:none;stroke:#6F6F6F;stroke-width:0.8486;stroke-miterlimit:10;stroke-dasharray:2.9326,2.9326;}
	.st49{fill:#FFFFFF;stroke:#FFFFFF;stroke-width:0.109;stroke-miterlimit:10;}
	.st50{font-size:10px;}
	.st51{fill:#EDF5FF;stroke:#A6C8FF;stroke-width:0.802;stroke-miterlimit:10;}
	.st52{fill:#FFFFFF;stroke:#8D8D8D;stroke-width:0.9017;stroke-linecap:round;stroke-miterlimit:10;}
	.st53{fill:#0F62FE;stroke:#0F62FE;stroke-miterlimit:10;}
	.st54{fill:#FFFFFF;}
	.st55{font-family:'IBMPlexSans-Medium';}
	.st56{font-size:16px;}
	.st57{fill:#FFFFFF;stroke:#0F62FE;stroke-miterlimit:10;}
	.st58{fill:none;stroke:#6F6F6F;stroke-width:0.7444;stroke-linejoin:round;}
	.st59{fill:#0F62FE;stroke:#0F62FE;stroke-width:0.5332;stroke-miterlimit:10;}
	.st60{fill:#FFFFFF;stroke:#0F62FE;stroke-width:0.5332;stroke-miterlimit:10;}
</style>
<g id="grid" class="st0">
	<g class="st1">
		<defs>
			<rect id="SVGID_1_" x="-62.9" y="-85.7" width="16" height="882"/>
		</defs>
		<clipPath id="SVGID_00000021803745671261181480000013516788635652131749_">
			<use xlink:href="#SVGID_1_"  style="overflow:visible;"/>
		</clipPath>
		<g style="clip-path:url(#SVGID_00000021803745671261181480000013516788635652131749_);">
			<defs>
				<rect id="SVGID_00000044876276804617644720000011195142227919959203_" x="-62.9" y="-85.7" width="1056" height="882"/>
			</defs>
			<clipPath id="SVGID_00000090270540117543315790000004723300814923897490_">
				<use xlink:href="#SVGID_00000044876276804617644720000011195142227919959203_"  style="overflow:visible;"/>
			</clipPath>
		</g>
	</g>
	<g class="st1">
		<defs>
			<rect id="SVGID_00000117663333857618784530000007748588453441995403_" x="977.1" y="-85.7" width="16" height="882"/>
		</defs>
		<clipPath id="SVGID_00000131360387972748818570000002169983131182151087_">
			<use xlink:href="#SVGID_00000117663333857618784530000007748588453441995403_"  style="overflow:visible;"/>
		</clipPath>
		<g style="clip-path:url(#SVGID_00000131360387972748818570000002169983131182151087_);">
			<defs>
				<rect id="SVGID_00000088096108572072510080000013333808014173038271_" x="-62.9" y="-85.7" width="1056" height="882"/>
			</defs>
			<clipPath id="SVGID_00000054983265149723967530000017733560359222149261_">
				<use xlink:href="#SVGID_00000088096108572072510080000013333808014173038271_"  style="overflow:visible;"/>
			</clipPath>
		</g>
	</g>
	<g class="st1">
		<defs>
			<rect id="SVGID_00000142159080582491602930000002815734272949056903_" x="-62.9" y="-85.7" width="1056" height="882"/>
		</defs>
		<clipPath id="SVGID_00000169543442955798529410000013723549426936522389_">
			<use xlink:href="#SVGID_00000142159080582491602930000002815734272949056903_"  style="overflow:visible;"/>
		</clipPath>
		
			<g style="opacity:0.1413;clip-path:url(#SVGID_00000169543442955798529410000013723549426936522389_);enable-background:new    ;">
			<g>
				<defs>
					<rect id="SVGID_00000091717721340346146230000011102848691312735931_" x="-62.9" y="-85.7" width="1056" height="882"/>
				</defs>
				<clipPath id="SVGID_00000078746620990670951630000013566635622701355420_">
					<use xlink:href="#SVGID_00000091717721340346146230000011102848691312735931_"  style="overflow:visible;"/>
				</clipPath>
				<g style="clip-path:url(#SVGID_00000078746620990670951630000013566635622701355420_);">
					<defs>
						<rect id="SVGID_00000103957729076277471170000005234814178235162271_" x="-62.9" y="-85.7" width="1056" height="882"/>
					</defs>
					<clipPath id="SVGID_00000002348572636668769600000005658287713444092824_">
						<use xlink:href="#SVGID_00000103957729076277471170000005234814178235162271_"  style="overflow:visible;"/>
					</clipPath>
					<g style="clip-path:url(#SVGID_00000002348572636668769600000005658287713444092824_);">
						<defs>
							<rect id="SVGID_00000131332236199655730030000008610301959796962207_" x="-62.9" y="-85.7" width="1056" height="882"/>
						</defs>
						<clipPath id="SVGID_00000142892750495560914570000000115291711771127192_">
							<use xlink:href="#SVGID_00000131332236199655730030000008610301959796962207_"  style="overflow:visible;"/>
						</clipPath>
						<g style="clip-path:url(#SVGID_00000142892750495560914570000000115291711771127192_);">
							
								<image style="overflow:visible;" width="1056" height="882" xlink:href="B0AE9CD5AF9FB3A0.png"  transform="matrix(1 0 0 1 -62.9294 -85.6503)">
							</image>
						</g>
					</g>
				</g>
			</g>
		</g>
	</g>
</g>
<g id="Graphics">
	<g id="Legend">
	</g>
</g>
<g id="Text">
	<polygon class="st23" points="735.5,11.8 350.1,11.8 350,278.3 735.5,278.3 	"/>
	<line class="st24" x1="632.4" y1="184.4" x2="597.3" y2="184.4"/>
	<g>
		<g>
			<line class="st25" x1="632" y1="241.2" x2="606.7" y2="241.2"/>
			<g>
				<polygon class="st26" points="607.8,237.4 601.3,241.2 607.8,244.9 				"/>
			</g>
		</g>
	</g>
	<line class="st24" x1="632" y1="184.2" x2="632" y2="241.8"/>
	<rect x="369.6" y="71.5" class="st27" width="321.8" height="98.7"/>
	<text transform="matrix(1 0 0 1 506.4081 43.7267)" class="st28 st29">Security and Compliance Center</text>
	<text transform="matrix(1 0 0 1 159.0457 80.0869)" class="st30 st31 st32">Define your scope</text>
	<text transform="matrix(1 0 0 1 128.5986 44.1234)" class="st30 st31 st32">Register your integration instance</text>
	<g>
		<g>
			<line class="st25" x1="359.4" y1="49.1" x2="85" y2="49.1"/>
			<g>
				<polygon class="st26" points="358.3,45.3 364.8,49.1 358.3,52.8 				"/>
			</g>
		</g>
	</g>
	<rect id="_Transparent_Rectangle__1_" x="451.9" y="206.3" class="st34" width="23.7" height="23.7"/>
	<polygon class="st23" points="239.8,196.2 89.1,196.2 89.1,266.5 239.8,266.5 	"/>
	<text transform="matrix(1 0 0 1 96.8662 216.3833)" class="st28 st29">Tanium</text>
	<rect x="368.4" y="21.7" class="st27" width="125.7" height="40.1"/>
	<text transform="matrix(1 0 0 1 403.7824 45.251)" class="st28 st32">Integration</text>
	<path class="st35" d="M399.3,40.5l-5.1-9.3c-0.1-0.3-0.4-0.4-0.7-0.4h-11.8c-0.3,0-0.6,0.2-0.7,0.4l-5.1,9.3
		c-0.2,0.3-0.2,0.6,0,0.8l5.1,9.3c0.2,0.3,0.4,0.4,0.7,0.4h11.8c0.3,0,0.6-0.2,0.7-0.4l5.1-9.3C399.5,41.1,399.5,40.8,399.3,40.5z
		 M393.5,33.3l3.7,6.7h-8L393.5,33.3z M387.7,39.3l-4.4-6.9h8.7L387.7,39.3z M381.8,33.3l4.3,6.7h-8L381.8,33.3z M378.1,41.8h8
		l-4.3,6.7L378.1,41.8z M387.7,42.5l4.4,6.9h-8.7L387.7,42.5z M393.5,48.5l-4.3-6.7h8L393.5,48.5z"/>
	<g>
		<g>
			<path class="st33" d="M425.4,123.4h-34.6c-2.3,0-4.2-1.8-4.2-4.1v-15"/>
			<g>
				<path class="st26" d="M389.4,104.5c0-1.6-1.3-2.8-2.8-2.8s-2.8,1.3-2.8,2.8c0,1.6,1.3,2.8,2.8,2.8S389.4,106.1,389.4,104.5z"/>
			</g>
		</g>
	</g>
	<text transform="matrix(1 0 0 1 403.7823 91.3276)" class="st28 st32">Scope</text>
	<g>
		<polygon class="st35" points="392.1,96.6 389.8,94.2 388.6,95.5 392.1,99.1 399.3,91.9 398.1,90.6 		"/>
		<circle class="st35" cx="386.8" cy="87.1" r="1.8"/>
		<path class="st35" d="M386.8,92.4c-3,0-5.4-2.4-5.4-5.4s2.4-5.4,5.4-5.4c3,0,5.4,2.4,5.4,5.4C392.1,90,389.7,92.4,386.8,92.4z
			 M386.8,83.5c-2,0-3.6,1.6-3.6,3.6s1.6,3.6,3.6,3.6s3.6-1.6,3.6-3.6C390.3,85.1,388.7,83.5,386.8,83.5z"/>
		<path class="st35" d="M397.5,87.1c0-5.9-4.8-10.8-10.8-10.8S376,81.1,376,87.1s4.8,10.8,10.8,10.8V96c-5,0-9-4-9-9s4-9,9-9
			c5,0,9,4,9,9H397.5z"/>
	</g>
	<rect x="370.5" y="178.7" class="st36" width="226.8" height="79.6"/>
	<rect x="383.8" y="219" class="st27" width="88.2" height="26"/>
	<g>
		<path class="st37" d="M403.4,226.6v-2.4h-14.6v6.1h5.5v11h11.6v-14.6H403.4z M390,229v-3.7h12.2v1.2h-7.9v2.4H390z M404.6,240
			h-9.1v-12.2h9.1V240z"/>
		<rect x="396.7" y="229.6" class="st37" width="1.2" height="1.2"/>
		<rect x="399.1" y="229.6" class="st37" width="4.3" height="1.2"/>
		<rect x="396.7" y="233.3" class="st37" width="1.2" height="1.2"/>
		<rect x="399.1" y="233.3" class="st37" width="4.3" height="1.2"/>
		<rect x="396.7" y="236.9" class="st37" width="1.2" height="1.2"/>
		<rect x="399.1" y="236.9" class="st37" width="4.3" height="1.2"/>
	</g>
	<rect x="449.5" y="185.7" class="st38" width="139.1" height="26"/>
	<g>
		<polygon class="st37" points="468.3,205.3 466.6,203.5 465.7,204.5 468.3,207.2 473.7,201.8 472.8,200.8 		"/>
		<circle class="st37" cx="464.3" cy="198.2" r="1.3"/>
		<path class="st37" d="M464.3,202.2c-2.2,0-4-1.8-4-4s1.8-4,4-4c2.2,0,4,1.8,4,4C468.3,200.4,466.5,202.2,464.3,202.2z
			 M464.3,195.5c-1.5,0-2.7,1.2-2.7,2.7s1.2,2.7,2.7,2.7s2.7-1.2,2.7-2.7C467,196.7,465.8,195.5,464.3,195.5z"/>
		<path class="st37" d="M472.4,198.2c0-4.4-3.6-8.1-8.1-8.1c-4.4,0-8.1,3.6-8.1,8.1s3.6,8.1,8.1,8.1v-1.3c-3.7,0-6.7-3-6.7-6.7
			c0-3.7,3-6.7,6.7-6.7c3.7,0,6.7,3,6.7,6.7H472.4z"/>
	</g>
	<text transform="matrix(1 0 0 1 481.4518 202.5399)" class="st28 st32">Resource Data</text>
	<text transform="matrix(1 0 0 1 414.5235 238.0078)" class="st28 st32">Profile</text>
	<g>
		<path class="st35" d="M390.2,205.2c-3.4,0-6.2-2.8-6.2-6.2c0-3.4,2.8-6.2,6.2-6.2s6.2,2.8,6.2,6.2
			C396.4,202.5,393.6,205.2,390.2,205.2z M390.2,194.4c-2.6,0-4.6,2.1-4.6,4.6c0,2.6,2.1,4.6,4.6,4.6s4.6-2.1,4.6-4.6
			C394.8,196.5,392.8,194.4,390.2,194.4z"/>
		<polygon class="st35" points="391.4,201.4 389.5,199.4 389.5,196 391,196 391,198.7 392.5,200.3 		"/>
		<path class="st35" d="M395.6,186.7c0-0.9-0.7-1.5-1.5-1.5H391v-1.5h-1.5v1.5h-6.2v-1.5h-1.5v1.5h-3.1c-0.9,0-1.5,0.7-1.5,1.5v15.4
			c0,0.9,0.7,1.5,1.5,1.5h3.1v-1.5h-3.1v-15.4h3.1v1.5h1.5v-1.5h6.2v1.5h1.5v-1.5h3.1v4.6h1.5V186.7z"/>
	</g>
	<text transform="matrix(1 0 0 1 400.3153 197.9285)" class="st28 st32">Scan</text>
	<rect x="485.4" y="219" class="st39" width="103.2" height="26"/>
	<g>
		<path class="st40" d="M507.7,227.4c-2.3-4.2-7.6-5.7-11.8-3.4c-4.2,2.3-5.7,7.6-3.4,11.8c1,1.8,2.7,3.3,4.7,4l0.6-1.8
			c-3.5-1.2-5.4-5.1-4.1-8.6s5.1-5.4,8.6-4.1c1.6,0.5,2.9,1.6,3.7,3.1L507.7,227.4L507.7,227.4L507.7,227.4z"/>
		<path class="st41" d="M500.2,238.3c-0.8,0-1.5-0.1-2.2-0.4l-0.6,1.8c3.4,1.2,7.3,0.1,9.6-2.7l-1.5-1.2
			C504.1,237.4,502.2,238.3,500.2,238.3z"/>
		<path class="st42" d="M506.7,233.4c-0.2,0.9-0.7,1.7-1.3,2.4l1.5,1.2c0.7-0.9,1.3-2,1.6-3.1L506.7,233.4z"/>
		<path class="st43" d="M507.7,227.4l-1.7,0.9c0.9,1.6,1.1,3.4,0.6,5.1l1.8,0.5C509.1,231.7,508.8,229.4,507.7,227.4z"/>
		<text transform="matrix(1 0 0 1 497.719 231.7769)" class="st31 st44">74</text>
		<text transform="matrix(1 0 0 1 497.2825 233.3887)" class="st45 st31 st46">Controls</text>
	</g>
	<text transform="matrix(1 0 0 1 517.6136 236.0451)" class="st28 st32">Results</text>
	<g>
		<g>
			<path class="st47" d="M451.3,150.2h-34.6c-2.3,0-4.2-2.3-4.2-5.2v-19.6"/>
			<g>
				<path class="st26" d="M415.8,125.5c0-1.8-1.4-3.2-3.2-3.2s-3.2,1.4-3.2,3.2c0,1.8,1.4,3.2,3.2,3.2S415.8,127.3,415.8,125.5z"/>
			</g>
		</g>
	</g>
	<g>
		<g>
			<path class="st47" d="M593.7,150.2h-34.6c-2.3,0-4.2-2.3-4.2-5.2v-19.6"/>
			<g>
				<path class="st26" d="M558.1,125.5c0-1.8-1.4-3.2-3.2-3.2s-3.2,1.4-3.2,3.2c0,1.8,1.4,3.2,3.2,3.2S558.1,127.3,558.1,125.5z"/>
			</g>
		</g>
	</g>
	<g>
		<g>
			<line class="st47" x1="545.5" y1="120.6" x2="544" y2="120.6"/>
			<path class="st48" d="M541.1,120.6H511c-2.3,0-4.2,2.3-4.2,5.2v19.7"/>
			<line class="st47" x1="506.8" y1="147" x2="506.8" y2="148.5"/>
		</g>
	</g>
	<rect x="401.4" y="110.2" class="st27" width="76.5" height="22.8"/>
	<circle class="st37" cx="401.2" cy="121.6" r="8"/>
	<g>
		<polygon class="st49" points="400.7,122.1 400,121.4 399.6,121.8 400.7,122.8 402.7,120.7 402.4,120.4 		"/>
		<path class="st49" d="M401.2,125.2l-1.6-0.9c-0.9-0.5-1.5-1.5-1.5-2.5v-3.4c0-0.3,0.2-0.5,0.5-0.5h5.2c0.3,0,0.5,0.2,0.5,0.5v3.4
			c0,1.1-0.6,2-1.5,2.5L401.2,125.2z M398.6,118.5v3.4c0,0.9,0.5,1.7,1.2,2.1l1.4,0.7l1.4-0.7c0.8-0.4,1.2-1.2,1.2-2.1v-3.4H398.6z"
			/>
	</g>
	<text transform="matrix(1 0 0 1 411.9179 124.5959)" class="st31 st50">On-premises</text>
	<rect x="449.3" y="138.7" class="st27" width="76.5" height="22.8"/>
	<circle class="st37" cx="447.1" cy="150.1" r="8"/>
	<g>
		<polygon class="st49" points="446.6,150.6 446,149.9 445.6,150.3 446.6,151.3 448.7,149.2 448.3,148.9 		"/>
		<path class="st49" d="M447.1,153.7l-1.6-0.9c-0.9-0.5-1.5-1.5-1.5-2.5V147c0-0.3,0.2-0.5,0.5-0.5h5.2c0.3,0,0.5,0.2,0.5,0.5v3.4
			c0,1.1-0.6,2-1.5,2.5L447.1,153.7z M444.5,147v3.4c0,0.9,0.5,1.7,1.2,2.1l1.4,0.7l1.4-0.7c0.8-0.4,1.2-1.2,1.2-2.1V147H444.5z"/>
	</g>
	<text transform="matrix(1 0 0 1 457.8029 153.1128)" class="st31 st50">Third-party</text>
	<rect x="542.2" y="110.2" class="st27" width="76.5" height="22.8"/>
	<circle class="st37" cx="542.2" cy="121.6" r="8"/>
	<g>
		<polygon class="st49" points="541.7,122.1 541,121.4 540.7,121.8 541.7,122.8 543.8,120.7 543.4,120.4 		"/>
		<path class="st49" d="M542.2,125.2l-1.6-0.9c-0.9-0.5-1.5-1.5-1.5-2.5v-3.4c0-0.3,0.2-0.5,0.5-0.5h5.2c0.3,0,0.5,0.2,0.5,0.5v3.4
			c0,1.1-0.6,2-1.5,2.5L542.2,125.2z M539.6,118.5v3.4c0,0.9,0.5,1.7,1.2,2.1l1.4,0.7l1.4-0.7c0.8-0.4,1.2-1.2,1.2-2.1v-3.4H539.6z"
			/>
	</g>
	<text transform="matrix(1 0 0 1 554.2615 124.5961)" class="st31 st50">Tanium</text>
	<rect x="582.3" y="138.7" class="st27" width="76.5" height="22.8"/>
	<circle class="st37" cx="582.3" cy="150.1" r="8"/>
	<g>
		<polygon class="st49" points="581.8,150.6 581.1,149.9 580.7,150.3 581.8,151.3 583.9,149.2 583.5,148.9 		"/>
		<path class="st49" d="M582.3,153.7l-1.6-0.9c-0.9-0.5-1.5-1.5-1.5-2.5V147c0-0.3,0.2-0.5,0.5-0.5h5.2c0.3,0,0.5,0.2,0.5,0.5v3.4
			c0,1.1-0.6,2-1.5,2.5L582.3,153.7z M579.7,147v3.4c0,0.9,0.5,1.7,1.2,2.1l1.4,0.7l1.4-0.7c0.8-0.4,1.2-1.2,1.2-2.1V147H579.7z"/>
	</g>
	<text transform="matrix(1 0 0 1 593.0878 153.1131)" class="st31 st50">Connection</text>
	<g>
		<g>
			<line class="st25" x1="359.4" y1="84.7" x2="85" y2="84.7"/>
			<g>
				<polygon class="st26" points="358.3,81 364.8,84.7 358.3,88.5 				"/>
			</g>
		</g>
	</g>
	<g>
		<path class="st51" d="M63.6,39.1c-15.4,0-27.8,12.5-27.8,27.8s12.5,27.8,27.8,27.8s27.8-12.5,27.8-27.8S79,39.1,63.6,39.1z
			 M80.3,86.1v-1.2v-0.1c0.1-6-4.6-11-10.6-11.3H57c-6,0.2-10.7,5.3-10.5,11.3c0,0,0,0,0,0.1v1.2c-10.5-9.4-11.4-25.5-2-36
			s25.4-11.4,35.8-2s11.4,25.5,2,36C81.7,84.8,81,85.5,80.3,86.1z"/>
		<path class="st51" d="M63.6,49c-5.5,0-9.9,4.5-9.9,9.9s4.5,9.9,9.9,9.9s9.9-4.5,9.9-9.9S69.1,49,63.6,49z"/>
	</g>
	<rect x="112.7" y="227.3" class="st52" width="120" height="30.9"/>
	<text transform="matrix(1 0 0 1 144.2775 246.2727)" class="st28 st32">Connection</text>
	<g>
		<rect x="127.3" y="239.8" class="st35" width="1.5" height="13.3"/>
		<path class="st35" d="M124.5,244.4c-2.1-1.9-2.3-5.2-0.4-7.3c0.1-0.1,0.3-0.3,0.4-0.4l1,1.1c-1.5,1.4-1.7,3.7-0.3,5.2
			c0.1,0.1,0.2,0.2,0.3,0.3L124.5,244.4z"/>
		<path class="st35" d="M131.4,244.4l-1-1.1c1.5-1.4,1.7-3.7,0.3-5.2c-0.1-0.1-0.2-0.2-0.3-0.3l1-1.1c2.1,1.9,2.3,5.2,0.4,7.3
			C131.7,244.1,131.6,244.3,131.4,244.4z"/>
		<path class="st35" d="M122.4,247.1c-3.6-2.7-4.3-7.8-1.6-11.4c0.5-0.6,1-1.2,1.6-1.6l0.9,1.2c-2.9,2.2-3.5,6.4-1.3,9.3
			c0.4,0.5,0.8,1,1.3,1.3L122.4,247.1z"/>
		<path class="st35" d="M133.6,247.1l-0.9-1.2c2.9-2.2,3.5-6.4,1.3-9.3c-0.4-0.5-0.8-1-1.3-1.3l0.9-1.2c3.6,2.7,4.3,7.8,1.6,11.4
			C134.8,246,134.2,246.6,133.6,247.1z"/>
	</g>
	<line class="st24" x1="76.3" y1="91.6" x2="76.3" y2="235.3"/>
	<g>
		
			<ellipse transform="matrix(0.2298 -0.9732 0.9732 0.2298 26.1893 202.083)" class="st53" cx="140.8" cy="84.5" rx="14.7" ry="14.7"/>
	</g>
	<text transform="matrix(1 0 0 1 136.9662 89.2238)" class="st54 st55 st56">3</text>
	<g>
		
			<ellipse transform="matrix(0.1602 -0.9871 0.9871 0.1602 43.904 149.7626)" class="st53" cx="110" cy="49.1" rx="14.7" ry="14.7"/>
	</g>
	<text transform="matrix(1 0 0 1 106.1643 53.8083)" class="st54 st55 st56">1</text>
	<text transform="matrix(1 0 0 1 95.1907 127.7656)" class="st30 st31 st32">Configure Tanium to push data</text>
	<g>
		<g>
			<line class="st25" x1="103.1" y1="236" x2="76" y2="236"/>
			<g>
				<polygon class="st26" points="102,232.3 108.5,236 102,239.8 				"/>
			</g>
		</g>
	</g>
	<g>
		
			<ellipse transform="matrix(0.1602 -0.9871 0.9871 0.1602 -57.9693 179.146)" class="st53" cx="76.3" cy="123.6" rx="14.7" ry="14.7"/>
	</g>
	<text transform="matrix(1 0 0 1 71.4954 128.3689)" class="st54 st55 st56">2</text>
	<text transform="matrix(1 0 0 1 206.1367 178.9572)" class="st30 st31 st32">Connect backend</text>
	<g>
		<g>
			<line class="st25" x1="188" y1="155.5" x2="188" y2="217.3"/>
			<g>
				<polygon class="st26" points="184.3,216.2 188,222.7 191.7,216.2 				"/>
			</g>
		</g>
	</g>
	<g>
		
			<ellipse transform="matrix(0.1602 -0.9871 0.9871 0.1602 -14.0878 331.8995)" class="st57" cx="188" cy="174.2" rx="14.7" ry="14.7"/>
	</g>
	<text transform="matrix(1 0 0 1 183.2063 178.9573)" class="st30 st55 st56">4</text>
	<g>
		<g>
			<line class="st25" x1="359.4" y1="155.8" x2="188" y2="155.8"/>
			<g>
				<polygon class="st26" points="358.3,152.1 364.8,155.8 358.3,159.5 				"/>
			</g>
		</g>
	</g>
	<g>
		<g>
			<line class="st58" x1="359.5" y1="236" x2="239.8" y2="236"/>
			<g>
				<polygon class="st26" points="358.4,232.3 364.8,236 358.4,239.8 				"/>
			</g>
		</g>
	</g>
	<g>
		
			<ellipse transform="matrix(0.1602 -0.9871 0.9871 0.1602 -15.248 455.371)" class="st57" cx="260" cy="236.6" rx="14.7" ry="14.7"/>
	</g>
	<text transform="matrix(1 0 0 1 255.1879 241.3749)" class="st30 st55 st56">5</text>
	<text transform="matrix(1 0 0 1 277.1668 232.744)" class="st30 st31 st32">Push results</text>
	<line class="st24" x1="51.2" y1="91.3" x2="51.2" y2="294.9"/>
	<line class="st24" x1="519.2" y1="294.9" x2="51.2" y2="294.9"/>
	<g>
		<g>
			<line class="st25" x1="519.2" y1="266.9" x2="519.2" y2="294.9"/>
			<g>
				<polygon class="st26" points="515.4,268 519.2,261.6 522.9,268 				"/>
			</g>
		</g>
	</g>
	<text transform="matrix(1 0 0 1 67.4728 289.4395)" class="st30 st31 st32">View results</text>
	<g>
		
			<ellipse transform="matrix(0.1602 -0.9871 0.9871 0.1602 -248.2635 298.0823)" class="st53" cx="51" cy="294.9" rx="14.7" ry="14.7"/>
	</g>
	<text transform="matrix(1 0 0 1 46.2448 299.669)" class="st54 st55 st56">7</text>
	<g>
		
			<ellipse transform="matrix(0.1602 -0.9871 0.9871 0.1602 320.3527 802.5337)" class="st57" cx="631.8" cy="213" rx="14.7" ry="14.7"/>
	</g>
	<text transform="matrix(1 0 0 1 627.0087 217.7306)" class="st30 st55 st56">6</text>
	<text transform="matrix(1 0 0 1 650.9875 209.4259)"><tspan x="0" y="0" class="st30 st31 st32">Import and </tspan><tspan x="0" y="14.4" class="st30 st31 st32">convert results</tspan></text>
	<g>
		
			<ellipse transform="matrix(0.2298 -0.9732 0.9732 0.2298 138.6154 755.0345)" class="st59" cx="546.3" cy="289.9" rx="7.8" ry="7.8"/>
	</g>
	<g>
		
			<ellipse transform="matrix(0.7071 -0.7071 0.7071 0.7071 -17.7505 537.0327)" class="st60" cx="639.4" cy="289.9" rx="7.8" ry="7.8"/>
	</g>
	<text transform="matrix(1 0 0 1 561.9273 292.9629)" class="st31 st50">User action</text>
	<text transform="matrix(1 0 0 1 654.9859 292.9632)" class="st31 st50">System action</text>
</g>
</svg>
