<?xml version="1.0" encoding="utf-8"?><svg xmlns="http://www.w3.org/2000/svg" viewBox="0 0 1056 752"><defs><style>.cls-1{fill:#f0f0f0;}.cls-10,.cls-11,.cls-13,.cls-2,.cls-20,.cls-21,.cls-22,.cls-24,.cls-3,.cls-5,.cls-6,.cls-7,.cls-9{fill:none;}.cls-2{stroke:#a0a0a0;stroke-dasharray:0 4 0 4 0 4;}.cls-13,.cls-14,.cls-2,.cls-21,.cls-22,.cls-24{stroke-linecap:round;}.cls-13,.cls-14,.cls-2,.cls-20,.cls-21,.cls-3{stroke-linejoin:round;}.cls-11,.cls-3{stroke:#6f6f6f;}.cls-10,.cls-11,.cls-3,.cls-5,.cls-6,.cls-7,.cls-9{stroke-width:0.5px;}.cls-4{fill:#6f6f6f;}.cls-10,.cls-24,.cls-5,.cls-6,.cls-7,.cls-9{stroke:#a56eff;}.cls-10,.cls-11,.cls-16,.cls-22,.cls-23,.cls-24,.cls-5,.cls-6,.cls-7,.cls-9{stroke-miterlimit:10;}.cls-6{stroke-dasharray:3.003 2.002 3.003 2.002;}.cls-7{stroke-dasharray:3.003 2.002 3.003 2.002 3.003 2.002;}.cls-8{fill:#a56eff;}.cls-9{stroke-dasharray:3.0053 2.0035 3.0053 2.0035;}.cls-10{stroke-dasharray:3.0053 2.0035 3.0053 2.0035 3.0053 2.0035;}.cls-12,.cls-14{fill:#757575;}.cls-13,.cls-14,.cls-16,.cls-20,.cls-21,.cls-22,.cls-23{stroke:#fff;}.cls-13,.cls-14,.cls-22,.cls-23{stroke-width:1.0318px;}.cls-15{fill:#009d9a;}.cls-16{fill:#fff;stroke-width:0.25px;fill-rule:evenodd;}.cls-17{fill:#8a3ffc;}.cls-18{fill:#0f62fe;}.cls-19{fill:#002d9c;}.cls-20,.cls-21{stroke-width:0.72px;}.cls-24{stroke-width:0.75px;}.cls-25{fill:#bebebe;}.cls-26{font-size:17.6098px;font-family:IBMPlexSans-Medium, IBM Plex Sans;font-weight:500;}.cls-27{font-size:13.7791px;font-family:IBMPlexSans, IBM Plex Sans;}.cls-28{letter-spacing:-0.008em;}.cls-29{letter-spacing:0em;}.cls-30{letter-spacing:-0.006em;}.cls-31{letter-spacing:0.0001em;}.cls-32{letter-spacing:-0.005em;}.cls-33{letter-spacing:-0.015em;}.cls-34{letter-spacing:-0.005em;}.cls-35{letter-spacing:-0.006em;}.cls-36{font-size:18.3722px;font-family:IBMPlexSans-SemiBold, IBM Plex Sans;font-weight:600;}.cls-37{letter-spacing:-0.005em;}.cls-38{letter-spacing:-0.0001em;}.cls-39{letter-spacing:-0.004em;}.cls-40{letter-spacing:-0.065em;}.cls-41{letter-spacing:-0.004em;}.cls-42{letter-spacing:0em;}.cls-43{letter-spacing:-0.004em;}</style></defs><g id="Graphics"><rect class="cls-1" x="789.1098" y="114.3129" width="146.8902" height="566.7935"/><line class="cls-2" x1="298.6023" y1="0.57" x2="298.6023" y2="751.5331"/><line class="cls-3" x1="452.8238" y1="136.8304" x2="196.7898" y2="136.8304"/><polygon class="cls-4" points="451.365 131.844 460 136.83 451.365 141.817 451.365 131.844"/><line class="cls-2" x1="725.8436" y1="3.1345" x2="725.8436" y2="751.0355"/><line class="cls-3" x1="858.9539" y1="307.4658" x2="858.9539" y2="206.4916"/><polygon class="cls-4" points="861.447 306.736 858.954 311.054 856.461 306.736 861.447 306.736"/><line class="cls-3" x1="859.6299" y1="515.3939" x2="859.6299" y2="503.5087"/><polygon class="cls-4" points="864.616 513.935 859.63 522.57 854.644 513.935 864.616 513.935"/><line class="cls-3" x1="858.9539" y1="456.0906" x2="858.9539" y2="355.1163"/><polygon class="cls-4" points="861.447 455.361 858.954 459.679 856.461 455.361 861.447 455.361"/><path class="cls-5" d="M508.5969,83.7625q.0679-.7512.1812-1.4892"/><path class="cls-6" d="M509.1632,80.3084a24.32,24.32,0,0,1,3.66-8.1774"/><path class="cls-7" d="M513.4089,71.32a24.6947,24.6947,0,0,1,2.1423-2.48A24.2747,24.2747,0,0,1,532.86,61.57H951.6379A24.45,24.45,0,0,1,976,85.9645v477.211A24.45,24.45,0,0,1,951.6379,587.57H926.6773"/><line class="cls-5" x1="925.6762" y1="587.57" x2="924.1762" y2="587.57"/><polygon class="cls-8" points="925.635 582.584 917 587.57 925.635 592.556 925.635 582.584"/><line class="cls-5" x1="805.2096" y1="587.57" x2="803.7096" y2="587.57"/><line class="cls-9" x1="801.7061" y1="587.57" x2="792.6902" y2="587.57"/><path class="cls-10" d="M791.6885,587.57H532.3148c-13.0982,0-23.8148-10.9775-23.8148-24.3945V215.248"/><line class="cls-5" x1="508.5" y1="214.2462" x2="508.5" y2="212.7462"/><polygon class="cls-8" points="513.486 214.205 508.5 205.57 503.514 214.205 513.486 214.205"/><line class="cls-3" x1="798.8238" y1="135.2994" x2="548.9233" y2="135.2994"/><polygon class="cls-4" points="797.365 130.313 806 135.299 797.365 140.286 797.365 130.313"/><line class="cls-11" x1="798.8238" y1="554.7976" x2="192.0813" y2="554.7976"/><polygon class="cls-4" points="797.365 549.811 806 554.798 797.365 559.784 797.365 549.811"/><circle class="cls-12" cx="859.6299" cy="569.5976" r="37.9117" transform="translate(161.1252 1328.2123) rotate(-80.891)"/><line class="cls-13" x1="847.3106" y1="548.5126" x2="860.0942" y2="570.5934"/><line class="cls-13" x1="838.0134" y1="557.8097" x2="860.0942" y2="570.5934"/><line class="cls-13" x1="834.5269" y1="570.5934" x2="860.0942" y2="570.5934"/><line class="cls-13" x1="860.0942" y1="545.2198" x2="860.0942" y2="570.5934"/><line class="cls-13" x1="872.8778" y1="548.7062" x2="860.0942" y2="570.5934"/><line class="cls-13" x1="882.175" y1="557.8097" x2="860.0942" y2="570.5934"/><line class="cls-13" x1="885.6615" y1="570.5934" x2="860.0942" y2="570.5934"/><path class="cls-13" d="M885.6615,570.5934a25.5673,25.5673,0,0,1-51.1346,0"/><path class="cls-13" d="M834.5269,570.5934a25.5673,25.5673,0,0,1,51.1346,0"/><circle class="cls-14" cx="860.0942" cy="570.5934" r="2.3243"/><circle class="cls-14" cx="860.0942" cy="545.0261" r="2.3243"/><circle class="cls-14" cx="847.3106" cy="548.5126" r="2.3243"/><circle class="cls-14" cx="872.8778" cy="548.5126" r="2.3243"/><path class="cls-14" d="M882.175,560.134a2.3243,2.3243,0,1,1,2.3243-2.3243A2.3243,2.3243,0,0,1,882.175,560.134Z"/><circle class="cls-14" cx="838.0134" cy="557.8097" r="2.3243"/><circle class="cls-14" cx="834.5269" cy="570.5934" r="2.3243"/><circle class="cls-14" cx="885.6615" cy="570.5934" r="2.3243"/><circle class="cls-15" cx="859.6299" cy="428.9695" r="37.9116"/><path id="Fill-13" class="cls-16" d="M882.65,418.457H837.2457v26.797H882.65Zm0-1.1166v-3.5357H837.2457V417.34Zm-32.0069,16.6241h-9.3045a.5583.5583,0,0,1,0-1.1166h9.3045a.5583.5583,0,0,1,0,1.1166Zm32.5652,12.406H836.6858a.5579.5579,0,0,1-.5582-.5583V413.2464a.5578.5578,0,0,1,.5582-.5582h46.5226a.5581.5581,0,0,1,.56.5582v32.5658A.5582.5582,0,0,1,883.2084,446.3705Zm-3.1009-30.7978a.7754.7754,0,1,1-.7753-.7754A.7756.7756,0,0,1,880.1075,415.5727Zm-3.1015,0a.7754.7754,0,1,1-.7754-.7754A.7756.7756,0,0,1,877.006,415.5727Zm-3.1015,0a.7754.7754,0,1,1-.7754-.7754A.7756.7756,0,0,1,873.9045,415.5727ZM850.6432,424.66h-9.3045a.5583.5583,0,1,1,0-1.1166h9.3045a.5583.5583,0,1,1,0,1.1166Zm0,4.6522h-9.3045a.5583.5583,0,1,1,0-1.1165h9.3045a.5583.5583,0,1,1,0,1.1165Z"/><circle class="cls-17" cx="859.4305" cy="281.612" r="37.9116"/><path id="Fill-1" class="cls-16" d="M846.8627,298.2826h27.2727a2.6441,2.6441,0,0,0,2.6416-2.64V269.5733H848.0677V295.55a3.6886,3.6886,0,0,1-1.205,2.7327Zm-4.7074-34.6217v31.9812a2.6806,2.6806,0,0,0,.8052,1.9547,2.4669,2.4669,0,0,0,1.7146.6858h.0379c.026,0,.0532,0,.0792-.0012a2.6639,2.6639,0,0,0,2.4229-2.7315V269.1464a.4255.4255,0,0,1,.4257-.4257h23.2238v-2.6949H855.9181a.4278.4278,0,0,1-.2353-.0721l-3.441-2.2928Zm2.53,35.4743a3.3159,3.3159,0,0,1-2.3153-.9247,3.5662,3.5662,0,0,1-1.0678-2.5684V263.234a.4255.4255,0,0,1,.4257-.4257h10.6423a.4152.4152,0,0,1,.2353.0721l3.4422,2.2929H871.29a.4264.4264,0,0,1,.4269.4256v3.1218h5.4855a.4265.4265,0,0,1,.4269.4257v26.4957a3.4978,3.4978,0,0,1-3.4942,3.4931h-29.45Z"/><circle class="cls-18" cx="859.6299" cy="134.2549" r="37.9117" transform="translate(590.9778 961.7898) rotate(-80.891)"/><path id="Fill-21" class="cls-16" d="M844.1907,116.29h20.4339v34.624h-7.4262V141.88a.4255.4255,0,0,0-.4257-.4257h-4.73a.4255.4255,0,0,0-.4257.4257v9.0344h-7.4262Zm21.2853,7.4262H871.72v-3.8787H865.476Zm13.3388,27.1978H865.476V124.568h13.3388Zm-26.3465,0h3.8787v-8.6087h-3.8787Zm-8.7033.8514h35.4755a.4255.4255,0,0,0,.4257-.4257V124.1423a.4254.4254,0,0,0-.4257-.4257h-6.6694v-4.3044a.4255.4255,0,0,0-.4257-.4257H865.476v-3.1218a.4254.4254,0,0,0-.4257-.4257H843.765a.4254.4254,0,0,0-.4257.4257V151.34a.4255.4255,0,0,0,.4257.4257Zm3.1222-28.8061h.8514v-2.365h-.8514Zm0,7.0951h.8514V127.69h-.8514Zm0,7.0951h.8514v-2.365h-.8514Zm9.46-14.19h.8514v-2.365h-.8514Zm0,7.0951h.8514V127.69h-.8514Zm0,7.0951h.8514v-2.365h-.8514Zm-4.73-14.19h.85v-2.365h-.85Zm0,7.0951h.85V127.69h-.85Zm0,7.0951h.85v-2.365h-.85Zm-4.73,7.0939h.8514v-2.365h-.8514Zm14.19-21.2841h.85v-2.365h-.85Zm0,7.0951h.85V127.69h-.85Zm0,7.0951h.85v-2.365h-.85Zm0,7.0939h.85v-2.365h-.85Zm8.2776-14.189h.8514V127.69h-.8514Zm0,7.0951h.8514v-2.365h-.8514Zm0,7.0951h.8514V141.88h-.8514Zm4.73-14.19h.8515V127.69h-.8515Zm0,7.0951h.8515v-2.365h-.8515Zm0,7.0939h.8515v-2.365h-.8515Z"/><circle class="cls-19" cx="509.1431" cy="133.6963" r="37.9116" transform="translate(-13.0542 200.1141) rotate(-21.9616)"/><line class="cls-20" x1="521.3574" y1="145.1406" x2="521.3574" y2="126.7185"/><polyline class="cls-20" points="494.405 151.86 521.357 151.86 521.357 148.032"/><polyline class="cls-21" points="510.17 115.533 494.405 115.533 494.405 151.86"/><polygon class="cls-21" points="521.357 126.718 510.17 126.718 510.17 115.533 521.357 126.718"/><line class="cls-20" x1="498.5067" y1="132.5244" x2="512.834" y2="132.5244"/><line class="cls-20" x1="498.5067" y1="137.2117" x2="526.1519" y2="137.2117"/><line class="cls-20" x1="498.5067" y1="141.8998" x2="507.5069" y2="141.8998"/><line class="cls-20" x1="498.5067" y1="146.5864" x2="520.0391" y2="146.5864"/><polygon class="cls-21" points="512.834 130.394 516.563 132.524 512.834 134.655 512.834 130.394"/><polygon class="cls-21" points="526.152 135.081 529.881 137.212 526.152 139.342 526.152 135.081"/><polygon class="cls-21" points="520.159 144.456 523.888 146.586 520.159 148.717 520.159 144.456"/><polygon class="cls-21" points="507.507 139.768 511.236 141.899 507.507 144.03 507.507 139.768"/><circle cx="158.6251" cy="560.4115" r="37.9117" transform="translate(-385.6773 353.1485) rotate(-53.3496)"/><path class="cls-22" d="M169.5527,547.5529a10.21,10.21,0,1,1-10.21-10.21,10.21,10.21,0,0,1,10.21,10.21"/><path class="cls-22" d="M139.4323,582.9513a20.4252,20.4252,0,0,1,40.0114-.256"/><circle class="cls-22" cx="159.4654" cy="560.4115" r="30.16" transform="translate(-302.9993 205.9871) rotate(-36.6504)"/><path class="cls-23" d="M140.7519,584.864a2.3237,2.3237,0,1,1,.5931-3.2323A2.3238,2.3238,0,0,1,140.7519,584.864Z"/><circle cx="158.6251" cy="138.4903" r="37.9116" transform="translate(-16.6769 255.1551) rotate(-74.7672)"/><path class="cls-22" d="M169.5527,125.6317a10.21,10.21,0,1,1-10.21-10.21,10.21,10.21,0,0,1,10.21,10.21"/><path class="cls-22" d="M139.4323,161.03a20.4252,20.4252,0,0,1,40.0114-.256"/><circle class="cls-22" cx="159.4654" cy="138.4903" r="30.1599" transform="translate(-8.5951 266.4138) rotate(-78.2507)"/><circle class="cls-23" cx="139.4323" cy="161.03" r="2.3238" transform="translate(-59.6046 85.1595) rotate(-28.2452)"/><path class="cls-24" d="M858.5,645.07v47a24,24,0,0,1-24,24h-143a24,24,0,0,1-24-24v-47a24,24,0,0,1,24-24H797.4268"/><polygon class="cls-8" points="795.785 626.68 805.5 621.07 795.785 615.46 795.785 626.68"/><circle class="cls-25" cx="762.2011" cy="715.7557" r="12.6372"/><text class="cls-26" transform="translate(756.8652 721.0309)">4</text><circle class="cls-25" cx="617.8699" cy="586.9286" r="12.6372"/><text class="cls-26" transform="translate(612.5342 592.2028)">3</text><circle class="cls-25" cx="297.928" cy="554.3739" r="12.6372"/><text class="cls-26" transform="translate(292.5918 559.6481)">2</text><circle class="cls-25" cx="297.928" cy="140.2944" r="12.6372"/><text class="cls-26" transform="translate(292.5918 145.5685)">1</text></g><g id="Text"><text class="cls-27" transform="translate(125.5649 617.8591)">D<tspan class="cls-28" x="9.2456" y="0">ev</tspan><tspan class="cls-29" x="23.3691" y="0">eloper</tspan></text><text class="cls-27" transform="translate(834.4619 489.113)">A<tspan class="cls-30" x="8.832" y="0">cc</tspan><tspan class="cls-31" x="22.5283" y="0">ount</tspan></text><text class="cls-27" transform="translate(814.7373 341.756)">A<tspan class="cls-30" x="8.832" y="0">cc</tspan><tspan class="cls-31" x="22.5283" y="0">ount g</tspan><tspan class="cls-32" x="61.2617" y="0">r</tspan><tspan class="cls-31" x="66.249" y="0">oup</tspan></text><text class="cls-27" transform="translate(830.2197 626.6637)"><tspan class="cls-33">R</tspan><tspan x="8.6123" y="0">esou</tspan><tspan class="cls-34" x="38.4297" y="0">r</tspan><tspan class="cls-35" x="43.418" y="0">c</tspan><tspan class="cls-31" x="50.2656" y="0">e</tspan></text><path d="M132.3784,194.4211l.8545-.7163a3.0619,3.0619,0,0,0,2.59,1.3774c1.378,0,2.1221-.7163,2.1221-1.8184,0-.91-.51-1.3642-1.7778-1.6538l-.7852-.1792c-1.75-.3994-2.7143-1.1709-2.7143-2.6455,0-1.7085,1.2949-2.6313,3.1826-2.6313a3.62,3.62,0,0,1,3.1831,1.5708l-.8682.6338a2.7132,2.7132,0,0,0-2.37-1.1851c-1.2261,0-1.9839.5371-1.9839,1.5708,0,.9092.5923,1.3228,1.8052,1.5982l.7852.1792c1.874.4272,2.687,1.2539,2.687,2.687,0,1.7636-1.24,2.8935-3.3072,2.8935A3.9838,3.9838,0,0,1,132.3784,194.4211Z"/><path d="M140.4526,192.382c0-2.26,1.2676-3.72,3.1968-3.72,1.9014,0,3.0728,1.46,3.0728,3.4722v.5234H141.61v.3306a2.0133,2.0133,0,0,0,2.1079,2.1494,2.0607,2.0607,0,0,0,1.9565-1.2261l.7856.5649a2.9842,2.9842,0,0,1-2.811,1.626C141.72,196.1022,140.4526,194.6413,140.4526,192.382Zm1.1578-.6479v.0966h3.9267v-.1518a1.8912,1.8912,0,0,0-1.8877-2.0943A2.0209,2.0209,0,0,0,141.61,191.7341Z"/><path d="M148.0176,192.382c0-2.2739,1.1714-3.72,3.1694-3.72a2.6645,2.6645,0,0,1,2.6592,1.667l-.9233.4683a1.7131,1.7131,0,0,0-1.7359-1.1573,1.9092,1.9092,0,0,0-1.9844,2.1358v1.2124a1.9092,1.9092,0,0,0,1.9844,2.1357,2.0064,2.0064,0,0,0,1.9287-1.24l.7993.5376a2.8034,2.8034,0,0,1-2.728,1.6811C149.189,196.1022,148.0176,194.6554,148.0176,192.382Z"/><path d="M159.8535,194.78h-.0552a1.9758,1.9758,0,0,1-1.9975,1.3227c-1.461,0-2.3975-.9922-2.3975-2.7143v-4.5611h1.1021v4.3677c0,1.2681.5649,1.9155,1.6259,1.9155.8682,0,1.7222-.4272,1.7222-1.3642v-4.919h1.1026v7.11h-1.1026Z"/><path d="M163.2988,195.9367v-7.11h1.1021v1.3091h.0688a2.0425,2.0425,0,0,1,2.0532-1.3091h.4273v1.1026h-.648c-1.185,0-1.9013.51-1.9013,1.1845v4.8228Z"/><path d="M168.2314,186.54v-.1792c0-.372.2066-.62.6748-.62s.6753.2481.6753.62v.1792c0,.3721-.2065.62-.6753.62S168.2314,186.9118,168.2314,186.54Zm.1241,2.2871h1.102v7.11h-1.102Z"/><path d="M173.3711,195.9367a1.0857,1.0857,0,0,1-1.1714-1.1714v-4.9741h-1.1714v-.9644h.6616c.4683,0,.62-.165.62-.6474v-1.3228h.9917v1.97h1.5571v.9644h-1.5571v5.1811h1.4467v.9644Z"/><path d="M181.0181,188.8268h1.0883l-3.1826,8.7632c-.3169.8545-.6064,1.1026-1.6533,1.1026h-.5649v-.9649h1.1157l.5376-1.5156L175.7,188.8268h1.1021l1.7085,4.8365.331,1.1572h.0689l.3857-1.1572Z"/><path d="M143.5464,206.3263h-1.1577v-.9643h1.1577v-1.4331a1.4684,1.4684,0,0,1,1.5566-1.6533h1.0747v.9643h-1.5293v2.1221h1.5293v.9643h-1.5293v6.1456h-1.102Z"/><path d="M147.0459,208.9172c0-2.26,1.3091-3.72,3.21-3.72s3.21,1.46,3.21,3.72-1.3091,3.72-3.21,3.72S147.0459,211.1764,147.0459,208.9172Zm5.2358.51v-1.02a2.0349,2.0349,0,1,0-4.0507,0v1.02a2.0349,2.0349,0,1,0,4.0507,0Z"/><path d="M154.7622,208.9172c0-2.274,1.1714-3.72,3.1694-3.72a2.6644,2.6644,0,0,1,2.6592,1.6669l-.9233.4683a1.713,1.713,0,0,0-1.7359-1.1572,1.9092,1.9092,0,0,0-1.9843,2.1357v1.2124a1.9092,1.9092,0,0,0,1.9843,2.1358,2.0067,2.0067,0,0,0,1.9288-1.24l.7993.5376a2.8035,2.8035,0,0,1-2.7281,1.6812C155.9336,212.6374,154.7622,211.1906,154.7622,208.9172Z"/><path d="M167.3838,212.4719a1.1485,1.1485,0,0,1-1.2266-1.1573h-.0688a2.0087,2.0087,0,0,1-2.0532,1.3228,2.0969,2.0969,0,0,1-2.3833-2.1494c0-1.3369.9643-2.0811,3.0312-2.0811h1.4053v-.7026c0-1.0059-.5513-1.5567-1.6812-1.5567a1.9842,1.9842,0,0,0-1.8047,1.0606l-.6616-.62a2.7024,2.7024,0,0,1,2.5215-1.3916c1.7085,0,2.7285.8955,2.7285,2.3974v3.9131h.8125v.9644Zm-1.2954-2.0669v-1.1709h-1.46c-1.2539,0-1.8188.3857-1.8188,1.0747v.289c0,.7027.5513,1.1026,1.4053,1.1026C165.3032,211.7,166.0884,211.1354,166.0884,210.405Z"/><path d="M170.7456,212.4719a1.0779,1.0779,0,0,1-1.1709-1.1436v-9.0527h1.1021v9.2319h1.0473v.9644Z"/><text class="cls-36" transform="translate(833.7404 26.5109)">S<tspan class="cls-37" x="11.2256" y="0">c</tspan><tspan class="cls-38" x="20.5586" y="0">ope</tspan></text><text class="cls-27" transform="translate(827.8135 194.3996)">En<tspan class="cls-39" x="15.8594" y="0">t</tspan><tspan class="cls-31" x="20.6406" y="0">erprise</tspan></text><text class="cls-27" transform="translate(480.3311 193.841)"><tspan class="cls-40">T</tspan><tspan x="6.9863" y="0">empla</tspan><tspan class="cls-41" x="45.6772" y="0">t</tspan><tspan class="cls-29" x="50.4585" y="0">e</tspan></text><text class="cls-36" transform="translate(370.5654 25.4982)">Security and Complian<tspan class="cls-37" x="192.2798" y="0">c</tspan><tspan class="cls-42" x="201.6128" y="0">e Cen</tspan><tspan class="cls-43" x="249.0498" y="0">t</tspan><tspan x="255.8472" y="0">er</tspan></text></g></svg>