<?xml version="1.0" encoding="UTF-8"?>
<svg xmlns="http://www.w3.org/2000/svg" viewBox="0 0 1100 550">
  <defs>
    <style>
      .cls-1, .cls-2 {
        fill: none;
      }

      .cls-3, .cls-4 {
        font-family: IBMPlexSans-SemiBold, 'IBM Plex Sans';
        font-weight: 600;
      }

      .cls-4, .cls-5, .cls-6 {
        fill: #242b66;
      }

      .cls-4, .cls-6 {
        font-size: 12px;
      }

      .cls-7 {
        letter-spacing: -.023em;
      }

      .cls-8 {
        letter-spacing: -.02em;
      }

      .cls-9 {
        letter-spacing: .008em;
      }

      .cls-10 {
        letter-spacing: -.009em;
      }

      .cls-11 {
        letter-spacing: -.009em;
      }

      .cls-12 {
        letter-spacing: -.006em;
      }

      .cls-13 {
        fill: #eef4fb;
      }

      .cls-14 {
        fill: #fff;
      }

      .cls-15 {
        letter-spacing: -.003em;
      }

      .cls-16 {
        letter-spacing: -.006em;
      }

      .cls-17 {
        letter-spacing: -.006em;
      }

      .cls-18 {
        letter-spacing: -.011em;
      }

      .cls-19 {
        letter-spacing: -.004em;
      }

      .cls-20 {
        letter-spacing: .01em;
      }

      .cls-21 {
        font-family: IBMPlexSans, 'IBM Plex Sans';
      }

      .cls-22 {
        letter-spacing: -.008em;
      }

      .cls-23 {
        letter-spacing: -.004em;
      }

      .cls-24 {
        letter-spacing: -.007em;
      }

      .cls-25 {
        letter-spacing: -.004em;
      }

      .cls-2 {
        stroke: #242b66;
        stroke-miterlimit: 10;
      }

      .cls-26 {
        letter-spacing: -.011em;
      }

      .cls-27 {
        letter-spacing: -.005em;
      }

      .cls-28 {
        letter-spacing: -.015em;
      }

      .cls-29 {
        letter-spacing: -.015em;
      }

      .cls-30 {
        letter-spacing: -.01em;
      }

      .cls-31 {
        letter-spacing: -.005em;
      }

      .cls-32 {
        letter-spacing: -.005em;
      }

      .cls-33 {
        letter-spacing: -.005em;
      }
    </style>
  </defs>
  <g id="Objects">
    <rect class="cls-13" x="24.4086" y="46.4774" width="341.8544" height="68.2471"/>
    <rect class="cls-5" x="24.549" y="46.4452" width="3" height="67.7829"/>
    <g>
      <rect class="cls-5" x="43.1329" y="73.528" width="12" height="2"/>
      <rect class="cls-5" x="43.1329" y="67.528" width="12" height="2"/>
      <path class="cls-5" d="M49.1329,87.528l-6.1758-3.2929c-3.5881-1.9087-5.8286-5.643-5.8242-9.7071v-13c.0012-1.1041,.8959-1.9988,2-2h20c1.1041,.0012,1.9988,.8959,2,2v13c.0044,4.0641-2.2362,7.7983-5.8242,9.7069l-6.1758,3.2931Zm-10-26v13c-.0035,3.3253,1.8298,6.3807,4.7656,7.9423l5.2344,2.791,5.2344-2.791c2.9358-1.5616,4.7691-4.617,4.7656-7.9423v-13h-20Z"/>
    </g>
    <rect class="cls-5" x="26.9651" y="262.4252" width="47.9938" height="47.9938"/>
    <g>
      <path class="cls-14" d="M50.962,278.9221c1.7259,0,3.125,1.3991,3.125,3.125s-1.3991,3.125-3.125,3.125-3.125-1.3991-3.125-3.125c.002-1.7251,1.3999-3.123,3.125-3.125m0-1.25c-2.4162,0-4.375,1.9588-4.375,4.375s1.9588,4.375,4.375,4.375,4.375-1.9588,4.375-4.375-1.9588-4.375-4.375-4.375Z"/>
      <path class="cls-14" d="M57.212,295.1721h-1.25v-3.125c-.002-1.725-1.4-3.123-3.125-3.125h-3.75c-1.725,.002-3.123,1.4-3.125,3.125v3.125h-1.25v-3.125c.0028-2.4151,1.9599-4.3722,4.375-4.375h3.75c2.4151,.0028,4.3722,1.9599,4.375,4.375v3.125Z"/>
      <rect id="_Transparent_Rectangle_" data-name="&amp;lt;Transparent Rectangle&amp;gt;" class="cls-1" x="40.962" y="276.4221" width="20" height="20"/>
    </g>
    <g>
      <line class="cls-2" x1="50.962" y1="262.4252" x2="50.962" y2="134.6619"/>
      <polygon class="cls-5" points="55.9479 136.1209 50.9625 127.4862 45.9762 136.1209 55.9479 136.1209"/>
    </g>
    <line class="cls-2" x1="50.962" y1="377.3211" x2="50.962" y2="441.0336"/>
    <g>
      <line class="cls-2" x1="50.4878" y1="440.539" x2="116.2513" y2="440.539"/>
      <polygon class="cls-5" points="114.7924 445.5249 123.4271 440.5395 114.7924 435.5532 114.7924 445.5249"/>
    </g>
    <line class="cls-2" x1="112.0994" y1="114.9566" x2="112.0994" y2="401.7297"/>
    <rect class="cls-13" x="130.3319" y="169.1729" width="493.9037" height="303.5685"/>
    <rect class="cls-5" x="130.4723" y="169.1408" width="3" height="67.7829"/>
    <rect class="cls-14" x="159.082" y="238.8221" width="451.5779" height="216.0677"/>
    <rect class="cls-5" x="159.082" y="238.79" width="3" height="67.7829"/>
    <rect class="cls-13" x="187.2302" y="306.605" width="411.409" height="132.9252"/>
    <rect class="cls-5" x="187.5505" y="306.5729" width="3" height="67.7829"/>
    <rect class="cls-14" x="207.8857" y="377.3211" width="377.1151" height="47.9616"/>
    <rect class="cls-5" x="208.5178" y="377.7662" width="47.9938" height="47.9938"/>
    <g>
      <line class="cls-2" x1="111.6097" y1="401.7297" x2="193.4586" y2="401.7297"/>
      <polygon class="cls-5" points="191.9996 406.7155 200.6343 401.7301 191.9996 396.7438 191.9996 406.7155"/>
    </g>
    <rect class="cls-13" x="669.3474" y="172.8385" width="411.409" height="191.3308"/>
    <rect class="cls-5" x="669.3474" y="172.8385" width="3" height="67.7829"/>
    <rect class="cls-14" x="690.0029" y="243.5546" width="377.1151" height="47.9616"/>
    <rect class="cls-5" x="690.1363" y="243.5385" width="47.9938" height="47.9938"/>
    <g>
      <line class="cls-2" x1="610.6599" y1="267.9631" x2="675.5758" y2="267.9631"/>
      <polygon class="cls-5" points="674.1168 272.949 682.7515 267.9636 674.1168 262.9773 674.1168 272.949"/>
    </g>
    <rect class="cls-14" x="689.762" y="301.9602" width="377.1151" height="47.9616"/>
    <rect class="cls-5" x="690.1363" y="301.928" width="47.9938" height="47.9938"/>
    <rect class="cls-5" x="805.7714" y="416.5421" width="47.9938" height="47.9938"/>
    <rect class="cls-5" x="922.987" y="416.5421" width="47.9938" height="47.9938"/>
    <g>
      <rect class="cls-5" x="159.5342" y="188.2201" width="7" height="2"/>
      <rect class="cls-5" x="159.5342" y="193.2201" width="7" height="2"/>
      <rect class="cls-5" x="159.5342" y="198.2201" width="7" height="2"/>
      <rect class="cls-5" x="146.5342" y="188.2201" width="7" height="2"/>
      <rect class="cls-5" x="146.5342" y="193.2201" width="7" height="2"/>
      <rect class="cls-5" x="146.5342" y="198.2201" width="7" height="2"/>
      <path class="cls-5" d="M168.5342,183.2201h-24c-1.1041,.0011-1.9989,.8959-2,2v18c.0011,1.1041,.8959,1.9989,2,2h24c1.1041-.0011,1.9989-.8959,2-2v-18c-.0011-1.1041-.8959-1.9989-2-2Zm-24,2h11v18h-11v-18Zm13,18v-18h11v18h-11Z"/>
    </g>
    <g>
      <path class="cls-14" d="M232.301,407.7631c-3.3137,0-6-2.6863-6-6s2.6863-6,6-6,6,2.6863,6,6c.0353,3.2784-2.5937,5.9647-5.8721,6-.0426,.0005-.0853,.0005-.1279,0Zm0-10c-2.1601-.049-3.951,1.6624-4,3.8226-.0013,.0591-.0013,.1183,0,.1774-.049,2.1601,1.6624,3.951,3.8226,4,.0591,.0013,.1183,.0013,.1774,0,2.1601,.049,3.951-1.6624,4-3.8226,.0013-.0591,.0013-.1183,0-.1774,.049-2.1601-1.6624-3.951-3.8226-4-.0591-.0013-.1183-.0013-.1774,0Z"/>
      <path class="cls-14" d="M245.6057,396.8071l-2.3606-4.0878c-.476-.8263-1.4697-1.201-2.3728-.8946l-2.4341,.8233c-.4195-.2825-.8578-.5359-1.312-.7583l-.5037-2.5186c-.1869-.9351-1.0079-1.6081-1.9615-1.608h-4.72c-.9536-.0001-1.7746,.6729-1.9615,1.608l-.5037,2.5186c-.4592,.22-.9025,.4718-1.3267,.7534l-2.4194-.8184c-.9031-.3064-1.8968,.0683-2.3728,.8946l-2.3606,4.0878c-.4765,.8258-.3041,1.873,.4119,2.5025l1.9309,1.6968c-.0171,.2514-.0381,.5014-.0381,.7567,0,.2578,.01,.5127,.0278,.7656l-1.9206,1.688c-.716,.6295-.8884,1.6767-.4119,2.5025l2.3606,4.0879c.476,.8263,1.4697,1.201,2.3728,.8946l2.4341-.8233c.4193,.2827,.8577,.5361,1.312,.7583l.5037,2.5186c.187,.935,1.008,1.608,1.9615,1.6078h4.36v-2h-4.36l-.71-3.5508c-.9821-.3647-1.8937-.8963-2.6948-1.5713l-3.4474,1.1661-2.36-4.0878,2.7253-2.3951c-.1864-1.0341-.1888-2.093-.007-3.1279l-2.7186-2.3892,2.3611-4.0878,3.4267,1.1591c.8067-.6756,1.7252-1.205,2.7141-1.5644l.7106-3.5509h4.72l.71,3.5508c.982,.3647,1.8937,.8963,2.6948,1.5713l3.4468-1.166,2.36,4.0878-2.7978,2.4522,1.3185,1.5039,2.8-2.4536c.7162-.6293,.8887-1.6766,.4124-2.5024Z"/>
      <polygon class="cls-14" points="239.301 411.9431 236.711 409.3531 235.301 410.7631 239.301 414.7631 246.301 407.7631 244.891 406.3531 239.301 411.9431"/>
    </g>
    <g>
      <path class="cls-5" d="M700.6349,201.5883h-12c-1.1046,0-2-.8954-2-2v-3h2v3h12v-3h2v3c0,1.1046-.8954,2-2,2Z"/>
      <rect class="cls-5" x="680.6349" y="192.5883" width="28" height="2"/>
      <path class="cls-5" d="M702.6349,190.5883h-2v-3h-12v3h-2v-3c0-1.1046,.8954-2,2-2h12c1.1046,0,2,.8954,2,2v3Z"/>
      <polygon class="cls-5" points="708.6349 187.5884 706.6349 187.5884 706.6349 181.5884 700.6349 181.5884 700.6349 179.5884 708.6349 179.5884 708.6349 187.5884"/>
      <polygon class="cls-5" points="682.6349 187.5884 680.6349 187.5884 680.6349 179.5884 688.6349 179.5884 688.6349 181.5884 682.6349 181.5884 682.6349 187.5884"/>
      <polygon class="cls-5" points="688.6349 207.5884 680.6349 207.5884 680.6349 199.5884 682.6349 199.5884 682.6349 205.5884 688.6349 205.5884 688.6349 207.5884"/>
      <polygon class="cls-5" points="708.6349 207.5884 700.6349 207.5884 700.6349 205.5884 706.6349 205.5884 706.6349 199.5884 708.6349 199.5884 708.6349 207.5884"/>
    </g>
    <g>
      <polygon class="cls-14" points="825.7683 429.939 824.3683 428.539 821.7683 431.139 819.1683 428.539 817.7683 429.939 820.3683 432.539 817.7683 435.139 819.1683 436.539 821.7683 433.939 824.3683 436.539 825.7683 435.139 823.1683 432.539 825.7683 429.939"/>
      <g>
        <polygon class="cls-14" points="836.7683 433.739 834.1683 431.139 832.7683 432.539 836.7683 436.539 843.7683 429.539 842.3683 428.139 836.7683 433.739"/>
        <polygon class="cls-14" points="825.7683 445.939 824.3683 444.539 821.7683 447.139 819.1683 444.539 817.7683 445.939 820.3683 448.539 817.7683 451.139 819.1683 452.539 821.7683 449.939 824.3683 452.539 825.7683 451.139 823.1683 448.539 825.7683 445.939"/>
        <polygon class="cls-14" points="830.7683 439.539 830.7683 426.539 828.7683 426.539 828.7683 439.539 815.7683 439.539 815.7683 441.539 828.7683 441.539 828.7683 454.539 830.7683 454.539 830.7683 441.539 843.7683 441.539 843.7683 439.539 830.7683 439.539"/>
      </g>
    </g>
    <g>
      <path class="cls-14" d="M958.9839,444.539h-2v2h2v6h-24v-6h10v-2h-10c-1.104,.0013-1.9987,.896-2,2v6c.0013,1.104,.896,1.9987,2,2h24c1.104-.0013,1.9987-.896,2-2v-6c-.0013-1.104-.896-1.9987-2-2Z"/>
      <circle class="cls-14" cx="937.9839" cy="449.539" r="1"/>
      <path class="cls-14" d="M960.9839,432.539h-8v6h-6v8h8v-6h6v-8Zm-8,12h-4v-4h4v4Zm6-6h-4v-4h4v4Z"/>
      <path class="cls-14" d="M948.9839,434.539h-8v-8h8v8Zm-6-2h4v-4h-4v4Z"/>
    </g>
    <line class="cls-2" x1="721.7029" y1="365.285" x2="721.7029" y2="440.539"/>
    <g>
      <line class="cls-2" x1="721.2013" y1="440.539" x2="789.6681" y2="440.539"/>
      <polygon class="cls-5" points="788.2091 445.5249 796.8438 440.5395 788.2091 435.5532 788.2091 445.5249"/>
    </g>
    <g>
      <line class="cls-2" x1="870.2497" y1="440.539" x2="904.8762" y2="440.539"/>
      <polygon class="cls-5" points="871.7087 445.5249 863.074 440.5395 871.7087 435.5532 871.7087 445.5249"/>
      <polygon class="cls-5" points="903.4172 445.5249 912.0519 440.5395 903.4172 435.5532 903.4172 445.5249"/>
    </g>
    <g>
      <polygon class="cls-5" points="193.0505 266.566 191.6365 265.151 189.0505 267.738 186.4645 265.151 185.0505 266.566 187.6365 269.151 185.0505 271.737 186.4645 273.151 189.0505 270.565 191.6365 273.151 193.0505 271.737 190.4645 269.151 193.0505 266.566"/>
      <path class="cls-5" d="M190.0505,250.151c-2.2081,.0025-3.9975,1.7919-4,4,.0037,.7118,.1995,1.4094,.5669,2.019l-10.5479,10.5479c-.6097-.3673-1.3072-.5632-2.019-.5669-2.2091,0-4,1.7909-4,4s1.7909,4,4,4,4-1.7909,4-4c-.0037-.7118-.1995-1.4094-.5669-2.019l10.5479-10.5479c.6097,.3673,1.3072,.5632,2.019,.5669,2.2091,0,4-1.7909,4-4s-1.7909-4-4-4Zm-16,22c-1.1046,0-2-.8954-2-2s.8954-2,2-2,2,.8954,2,2c-.0013,1.104-.896,1.9987-2,2Zm16-16c-1.1046,0-2-.8954-2-2s.8954-2,2-2,2,.8954,2,2c-.0013,1.104-.896,1.9987-2,2Z"/>
      <polygon class="cls-5" points="174.0505 257.331 171.4605 254.741 170.0505 256.151 174.0505 260.151 181.0505 253.151 179.6405 251.741 174.0505 257.331"/>
    </g>
    <path class="cls-14" d="M712.1332,277.3304h-10v-20h24v10h2v-10c0-1.1046-.8954-2-2-2h-24c-1.1046,0-2,.8954-2,2v20c0,1.1046,.8954,2,2,2h10v-2Z"/>
    <path class="cls-14" d="M706.1332,339.9249h-4c-1.1041-.0012-1.9988-.8959-2-2v-24c.0012-1.1041,.8959-1.9988,2-2h4v2h-4v24h4v2Z"/>
    <path class="cls-14" d="M726.1332,339.9249h-4v-2h4v-24h-4v-2h4c1.1041,.0012,1.9988,.8959,2,2v24c-.0012,1.1041-.8959,1.9988-2,2Z"/>
    <g>
      <polygon class="cls-14" points="725.7725 277.2457 725.0621 276.5348 723.7628 277.8345 722.4636 276.5348 721.7532 277.2457 723.0524 278.5444 721.7532 279.8437 722.4636 280.5541 723.7628 279.2548 725.0621 280.5541 725.7725 279.8437 724.4732 278.5444 725.7725 277.2457"/>
      <path class="cls-14" d="M724.2652,268.9986c-1.1094,.0012-2.0084,.9003-2.0097,2.0097,.0018,.3576,.1002,.7081,.2848,1.0144l-5.2994,5.2994c-.3063-.1846-.6568-.283-1.0144-.2848-1.1099,0-2.0097,.8998-2.0097,2.0097s.8998,2.0097,2.0097,2.0097,2.0097-.8998,2.0097-2.0097c-.0018-.3576-.1002-.7081-.2848-1.0144l5.2994-5.2994c.3063,.1846,.6568,.283,1.0144,.2848,1.1099,0,2.0097-.8998,2.0097-2.0097s-.8998-2.0097-2.0097-2.0097Zm-8.0386,11.0531c-.555,0-1.0048-.4499-1.0048-1.0048s.4499-1.0048,1.0048-1.0048,1.0048,.4499,1.0048,1.0048c-.0006,.5547-.4501,1.0042-1.0048,1.0048Zm8.0386-8.0386c-.555,0-1.0048-.4499-1.0048-1.0048s.4499-1.0048,1.0048-1.0048,1.0048,.4499,1.0048,1.0048c-.0006,.5547-.4501,1.0042-1.0048,1.0048Z"/>
      <polygon class="cls-14" points="716.2266 272.6059 714.9254 271.3046 714.217 272.013 716.2266 274.0227 719.7435 270.5058 719.0351 269.7974 716.2266 272.6059"/>
    </g>
    <rect class="cls-14" x="703.6349" y="268.0034" width="6" height="2"/>
    <rect class="cls-14" x="703.6349" y="264.0034" width="10" height="2"/>
    <rect class="cls-14" x="703.6349" y="260.0034" width="17.191" height="2"/>
    <rect class="cls-14" x="703.6349" y="272.0034" width="3" height="2"/>
    <polygon class="cls-14" points="713.8136 326.7515 711.9949 324.9329 711.0049 325.923 713.8136 328.7317 718.7288 323.8165 717.7387 322.8264 713.8136 326.7515"/>
    <path class="cls-14" d="M724.3462,325.2208h-1.44c-.3473-4.0936-3.5946-7.341-7.6882-7.6882v-1.44h-1.4043v1.44c-4.0936,.3473-7.341,3.5946-7.6882,7.6882h-1.44v1.4043h1.44c.3473,4.0936,3.5946,7.341,7.6882,7.6882v1.44h1.4043v-1.44c4.0936-.3473,7.341-3.5946,7.6882-7.6882h1.44v-1.4043Zm-9.1283,7.6882v-2.0708h-1.4043v2.0708c-3.3202-.3384-5.9454-2.9637-6.2839-6.2839h2.0708v-1.4043h-2.0708c.3384-3.3202,2.9637-5.9454,6.2839-6.2839v2.0708h1.4043v-2.0708c3.3202,.3384,5.9454,2.9637,6.2839,6.2839h-2.0708v1.4043h2.0707c-.3384,3.3202-2.9636,5.9454-6.2837,6.2839Z"/>
  </g>
  <g id="Text">
    <text class="cls-6" transform="translate(76.5322 63.3279)"><tspan class="cls-3"><tspan x="0" y="0">Rule</tspan></tspan><tspan class="cls-21"><tspan x="0" y="17.9756">An a</tspan><tspan class="cls-16" x="23.7478" y="17.9756">s</tspan><tspan x="29.5196" y="17.9756">se</tspan><tspan class="cls-12" x="41.9515" y="17.9756">s</tspan><tspan x="47.7238" y="17.9756">sment based on a set </tspan><tspan class="cls-16" x="165.1659" y="17.9756">o</tspan><tspan x="171.8138" y="17.9756">f </tspan><tspan class="cls-12" x="178.5335" y="17.9756">c</tspan><tspan x="184.4978" y="17.9756">onditional </tspan></tspan><tspan class="cls-21"><tspan class="cls-24" x="0" y="35.9521">s</tspan><tspan x="5.7601" y="35.9521">ta</tspan><tspan class="cls-19" x="16.3802" y="35.9521">t</tspan><tspan x="20.5445" y="35.9521">ement</tspan><tspan class="cls-27" x="55.224" y="35.9521">s</tspan><tspan x="61.008" y="35.9521">, defined as a JSON document.</tspan></tspan></text>
    <text class="cls-4" transform="translate(20.7881 327.5076)"><tspan x="0" y="0">Security or </tspan><tspan class="cls-31" x="-1.8779" y="17.998">c</tspan><tspan x="4.2178" y="17.998">omplian</tspan><tspan class="cls-32" x="49.4331" y="17.998">c</tspan><tspan x="55.5293" y="17.998">e </tspan><tspan class="cls-23" x="16.5239" y="35.9951">f</tspan><tspan x="20.6758" y="35.9951">ocal</tspan></text>
    <text class="cls-6" transform="translate(182.4558 186.0237)"><tspan class="cls-3"><tspan x="0" y="0">Cont</tspan><tspan class="cls-27" x="26.0038" y="0">r</tspan><tspan x="30.6595" y="0">ol Lib</tspan><tspan class="cls-18" x="60.5389" y="0">r</tspan><tspan x="65.123" y="0">a</tspan><tspan class="cls-9" x="71.8309" y="0">r</tspan><tspan x="76.6427" y="0">y</tspan></tspan><tspan class="cls-21"><tspan x="0" y="17.9756">A g</tspan><tspan class="cls-27" x="16.8595" y="17.9756">r</tspan><tspan x="21.2032" y="17.9756">ouping </tspan><tspan class="cls-12" x="60.6833" y="17.9756">o</tspan><tspan x="67.3317" y="17.9756">f similar </tspan><tspan class="cls-16" x="113.2783" y="17.9756">c</tspan><tspan x="119.2422" y="17.9756">ont</tspan><tspan class="cls-27" x="136.9905" y="17.9756">r</tspan><tspan x="141.3342" y="17.9756">ol</tspan><tspan class="cls-33" x="151.3181" y="17.9756">s</tspan><tspan x="157.1026" y="17.9756">.</tspan></tspan></text>
    <text class="cls-6" transform="translate(208.5176 255.6726)"><tspan class="cls-3"><tspan x="0" y="0">Cont</tspan><tspan class="cls-27" x="26.0038" y="0">r</tspan><tspan x="30.6595" y="0">ol</tspan></tspan><tspan class="cls-21"><tspan x="0" y="17.9756">A sa</tspan><tspan class="cls-19" x="22.7756" y="17.9756">f</tspan><tspan x="26.6157" y="17.9756">e</tspan><tspan class="cls-25" x="33.2036" y="17.9756">g</tspan><tspan x="39.4913" y="17.9756">ua</tspan><tspan class="cls-12" x="52.7155" y="17.9756">r</tspan><tspan x="57.0475" y="17.9756">d designed </tspan><tspan class="cls-25" x="118.7624" y="17.9756">t</tspan><tspan x="122.9262" y="17.9756">o meet a specific </tspan><tspan class="cls-33" x="216.5133" y="17.9756">r</tspan><tspan x="220.8575" y="17.9756">e</tspan><tspan class="cls-25" x="227.4454" y="17.9756">g</tspan><tspan x="233.7331" y="17.9756">ula</tspan><tspan class="cls-19" x="250.2206" y="17.9756">t</tspan><tspan x="254.3849" y="17.9756">o</tspan><tspan class="cls-20" x="261.105" y="17.9756">r</tspan><tspan x="265.6286" y="17.9756">y </tspan></tspan><tspan class="cls-21"><tspan x="0" y="35.9521">or o</tspan><tspan class="cls-7" x="20.6757" y="35.9521">r</tspan><tspan class="cls-15" x="24.8034" y="35.9521">g</tspan><tspan x="31.1032" y="35.9521">anizational demand.</tspan></tspan></text>
    <text class="cls-6" transform="translate(234.0337 323.4556)"><tspan class="cls-3"><tspan x="0" y="0">Specific</tspan><tspan class="cls-19" x="44.3401" y="0">a</tspan><tspan x="51.0002" y="0">tion</tspan></tspan><tspan class="cls-21"><tspan x="0" y="17.9756">A </tspan><tspan class="cls-16" x="10.5236" y="17.9756">c</tspan><tspan x="16.4875" y="17.9756">onditional </tspan><tspan class="cls-24" x="73.2346" y="17.9756">s</tspan><tspan x="78.9947" y="17.9756">ta</tspan><tspan class="cls-19" x="89.6149" y="17.9756">t</tspan><tspan x="93.7791" y="17.9756">ement that can be </tspan><tspan class="cls-22" x="194.2423" y="17.9756">e</tspan><tspan class="cls-10" x="200.7342" y="17.9756">v</tspan><tspan x="206.5304" y="17.9756">alua</tspan><tspan class="cls-19" x="229.4259" y="17.9756">t</tspan><tspan x="233.5902" y="17.9756">ed </tspan><tspan class="cls-25" x="249.97" y="17.9756">t</tspan><tspan x="254.1338" y="17.9756">o </tspan></tspan><tspan class="cls-21"><tspan x="0" y="35.9521">p</tspan><tspan class="cls-27" x="6.96" y="35.9521">r</tspan><tspan class="cls-22" x="11.3037" y="35.9521">ov</tspan><tspan x="23.7361" y="35.9521">e </tspan><tspan class="cls-16" x="33.1559" y="35.9521">c</tspan><tspan x="39.1197" y="35.9521">omplian</tspan><tspan class="cls-12" x="82.7631" y="35.9521">c</tspan><tspan x="88.7275" y="35.9521">e </tspan><tspan class="cls-25" x="98.1472" y="35.9521">t</tspan><tspan x="102.311" y="35.9521">o a </tspan><tspan class="cls-12" x="121.1027" y="35.9521">c</tspan><tspan x="127.0671" y="35.9521">ont</tspan><tspan class="cls-27" x="144.8154" y="35.9521">r</tspan><tspan x="149.1592" y="35.9521">o</tspan><tspan class="cls-20" x="155.8793" y="35.9521">l</tspan><tspan x="159.263" y="35.9521">.</tspan></tspan></text>
    <text class="cls-6" transform="translate(263.9714 392.2388)"><tspan class="cls-3"><tspan x="0" y="0">A</tspan><tspan class="cls-24" x="8.0638" y="0">s</tspan><tspan x="13.9677" y="0">se</tspan><tspan class="cls-24" x="26.6517" y="0">s</tspan><tspan x="32.5557" y="0">sment</tspan></tspan><tspan class="cls-21"><tspan x="0" y="17.9756">A </tspan><tspan class="cls-16" x="10.5236" y="17.9756">c</tspan><tspan x="16.4875" y="17.9756">onditional check that is used </tspan><tspan class="cls-19" x="173.0605" y="17.9756">t</tspan><tspan x="177.2248" y="17.9756">o </tspan><tspan class="cls-22" x="186.7767" y="17.9756">v</tspan><tspan x="192.5846" y="17.9756">eri</tspan><tspan class="cls-20" x="206.5762" y="17.9756">f</tspan><tspan x="210.584" y="17.9756">y a specification.</tspan></tspan></text>
    <text class="cls-6" transform="translate(718.1509 189.6899)"><tspan class="cls-3"><tspan class="cls-28" x="0" y="0">A</tspan><tspan class="cls-16" x="7.8839" y="0">t</tspan><tspan x="12.2998" y="0">tachment</tspan></tspan><tspan class="cls-21"><tspan x="0" y="17.9756">A defined scan that is c</tspan><tspan class="cls-27" x="124.1988" y="17.9756">r</tspan><tspan x="128.5425" y="17.9756">ea</tspan><tspan class="cls-19" x="141.5385" y="17.9756">t</tspan><tspan x="145.7028" y="17.9756">ed </tspan><tspan class="cls-27" x="162.0825" y="17.9756">b</tspan><tspan x="168.9826" y="17.9756">y ta</tspan><tspan class="cls-7" x="188.4222" y="17.9756">r</tspan><tspan class="cls-12" x="192.55" y="17.9756">g</tspan><tspan x="198.8142" y="17.9756">eting a s</tspan><tspan class="cls-16" x="243.6813" y="17.9756">c</tspan><tspan x="249.6452" y="17.9756">ope and selecting </tspan></tspan><tspan class="cls-21"><tspan x="0" y="35.9521">a p</tspan><tspan class="cls-27" x="16.1998" y="35.9521">r</tspan><tspan class="cls-12" x="20.5435" y="35.9521">o</tspan><tspan x="27.192" y="35.9521">fil</tspan><tspan class="cls-8" x="37.2597" y="35.9521">e</tspan><tspan x="43.6078" y="35.9521">.</tspan></tspan></text>
    <text class="cls-6" transform="translate(745.8477 258.4722)"><tspan class="cls-3"><tspan class="cls-30" x="0" y="0">P</tspan><tspan class="cls-27" x="7.5719" y="0">r</tspan><tspan class="cls-12" x="12.2276" y="0">o</tspan><tspan x="18.9117" y="0">file</tspan></tspan><tspan class="cls-21"><tspan x="0" y="17.9756">A g</tspan><tspan class="cls-27" x="16.8595" y="17.9756">r</tspan><tspan x="21.2032" y="17.9756">ouping </tspan><tspan class="cls-12" x="60.6833" y="17.9756">o</tspan><tspan x="67.3317" y="17.9756">f similar </tspan><tspan class="cls-16" x="113.2783" y="17.9756">c</tspan><tspan x="119.2422" y="17.9756">ont</tspan><tspan class="cls-27" x="136.9905" y="17.9756">r</tspan><tspan x="141.3342" y="17.9756">ols</tspan></tspan></text>
    <text class="cls-6" transform="translate(745.8477 316.8779)"><tspan class="cls-3"><tspan x="0" y="0">S</tspan><tspan class="cls-27" x="7.332" y="0">c</tspan><tspan x="13.428" y="0">ope</tspan></tspan><tspan class="cls-21"><tspan x="0" y="17.9756">The g</tspan><tspan class="cls-27" x="29.4357" y="17.9756">r</tspan><tspan x="33.7794" y="17.9756">ouping </tspan><tspan class="cls-12" x="73.2595" y="17.9756">o</tspan><tspan x="79.9079" y="17.9756">f </tspan><tspan class="cls-27" x="86.6275" y="17.9756">r</tspan><tspan x="90.9713" y="17.9756">esoru</tspan><tspan class="cls-16" x="121.3426" y="17.9756">c</tspan><tspan x="127.3065" y="17.9756">es </tspan><tspan class="cls-33" x="142.5702" y="17.9756">y</tspan><tspan x="148.4985" y="17.9756">ou </tspan><tspan class="cls-11" x="164.8665" y="17.9756">w</tspan><tspan x="173.9742" y="17.9756">ant </tspan><tspan class="cls-19" x="194.2418" y="17.9756">t</tspan><tspan x="198.4061" y="17.9756">o </tspan><tspan class="cls-22" x="207.958" y="17.9756">e</tspan><tspan class="cls-10" x="214.4499" y="17.9756">v</tspan><tspan x="220.2461" y="17.9756">alu</tspan><tspan class="cls-19" x="236.7336" y="17.9756">t</tspan><tspan class="cls-8" x="240.8978" y="17.9756">e</tspan><tspan x="247.2459" y="17.9756">.</tspan></tspan></text>
    <text class="cls-4" transform="translate(809.033 481.3621)"><tspan class="cls-29" x="0" y="0">R</tspan><tspan x="7.7876" y="0">esu</tspan><tspan class="cls-32" x="27.5273" y="0">l</tspan><tspan x="30.9956" y="0">ts</tspan></text>
    <text class="cls-4" transform="translate(925.5168 481.3621)"><tspan class="cls-23" x="0" y="0">St</tspan><tspan x="11.7241" y="0">o</tspan><tspan class="cls-26" x="18.48" y="0">r</tspan><tspan x="23.064" y="0">a</tspan><tspan class="cls-17" x="29.772" y="0">g</tspan><tspan x="36.2397" y="0">e</tspan></text>
    <g>
      <rect class="cls-5" x="216.0786" y="334.4423" width="10" height="2"/>
      <rect class="cls-5" x="216.0786" y="338.4423" width="10" height="2"/>
      <rect class="cls-5" x="216.0786" y="342.4423" width="10" height="2"/>
      <path class="cls-5" d="M212.0786,334.4423c-2.1601,.049-3.951-1.6624-4-3.8226-.0013-.0591-.0013-.1183,0-.1774-.049-2.1601,1.6624-3.951,3.8226-4,.0591-.0013,.1183-.0013,.1774,0,2.1601-.049,3.951,1.6624,4,3.8226,.0013,.0591,.0013,.1183,0,.1774h2c0-3.3137-2.6863-6-6-6s-6,2.6863-6,6,2.6863,6,6,6v-2Z"/>
      <path class="cls-5" d="M225.3833,325.4862l-2.3606-4.0878c-.476-.8263-1.4697-1.201-2.3728-.8946l-2.4341,.8233c-.4195-.2825-.8578-.5359-1.312-.7583l-.5037-2.5186c-.1869-.935-1.008-1.608-1.9615-1.6079h-4.72c-.9534,0-1.7742,.673-1.9611,1.6079l-.5037,2.5186c-.4593,.22-.9028,.4718-1.3271,.7535l-2.4194-.8185c-.9031-.3064-1.8968,.0683-2.3728,.8946l-2.3606,4.0878c-.4765,.8258-.3041,1.873,.4119,2.5025l1.9309,1.6968c-.0171,.2514-.0381,.5014-.0381,.7568,0,.2578,.01,.5127,.0278,.7656l-1.9206,1.688c-.716,.6295-.8884,1.6767-.4119,2.5025l2.3606,4.0878c.476,.8263,1.4697,1.201,2.3728,.8946l2.4341-.8233c.4193,.2827,.8577,.5361,1.312,.7583l.5037,2.5186c.1869,.935,1.008,1.608,1.9615,1.6079h2.36v-2h-2.36l-.71-3.5508c-.9821-.3647-1.8937-.8963-2.6948-1.5713l-3.4468,1.166-2.36-4.0878,2.7244-2.3951c-.1864-1.0341-.1888-2.093-.007-3.1279l-2.7183-2.3892,2.3611-4.0878,3.4267,1.1591c.8067-.6756,1.7252-1.205,2.7141-1.5644l.7106-3.5508h4.72l.71,3.5508c.982,.3647,1.8937,.8963,2.6948,1.5713l3.4468-1.166,2.36,4.0878-2.7978,2.4522,1.3185,1.5039,2.8-2.4536c.7162-.6293,.8888-1.6766,.4124-2.5025Z"/>
    </g>
  </g>
</svg>