<?xml version="1.0" encoding="UTF-8"?>
<svg id="Text" xmlns="http://www.w3.org/2000/svg" viewBox="0 0 1080 270">
  <defs>
    <style>
      .cls-1 {
        fill: #fff;
      }

      .cls-1, .cls-2 {
        font-family: IBMPlexSans-SemiBold, 'IBM Plex Sans';
        font-size: 12px;
        font-weight: 600;
      }

      .cls-2, .cls-3 {
        fill: #001d6c;
      }

      .cls-4 {
        fill: none;
        opacity: .5;
        stroke: #001d6c;
        stroke-miterlimit: 10;
      }

      .cls-5 {
        fill: #0043ce;
      }

      .cls-6 {
        fill: #78a9ff;
      }

      .cls-7 {
        letter-spacing: -.034em;
      }

      .cls-8 {
        letter-spacing: -.015em;
      }

      .cls-9 {
        letter-spacing: .0081em;
      }

      .cls-10 {
        letter-spacing: 0em;
      }

      .cls-11 {
        letter-spacing: -.004em;
      }

      .cls-12 {
        letter-spacing: -.007em;
      }

      .cls-13 {
        letter-spacing: -.008em;
      }

      .cls-14 {
        letter-spacing: -.0081em;
      }

      .cls-15 {
        letter-spacing: -.005em;
      }
    </style>
  </defs>
  <text class="cls-2" transform="translate(9.2555 35.1372)"><tspan x="0" y="0">Janua</tspan><tspan class="cls-9" x="34.0674" y="0">r</tspan><tspan class="cls-10" x="38.8799" y="0">y</tspan></text>
  <text class="cls-2" transform="translate(145.4343 35.4251)"><tspan x="0" y="0">April</tspan></text>
  <text class="cls-2" transform="translate(388.1509 36.517)"><tspan x="0" y="0">Oc</tspan><tspan class="cls-11" x="14.6992" y="0">t</tspan><tspan x="19.1396" y="0">ober</tspan></text>
  <text class="cls-2" transform="translate(272.6288 35.3893)"><tspan x="0" y="0">Ju</tspan><tspan class="cls-12" x="13.5957" y="0">l</tspan><tspan x="17.04" y="0">y</tspan></text>
  <line class="cls-4" x1="158.8326" y1="44.0939" x2="158.8326" y2="238.8972"/>
  <line class="cls-4" x1="284.3889" y1="44.0939" x2="284.3889" y2="238.8972"/>
  <line class="cls-4" x1="410.5961" y1="44.0939" x2="410.5961" y2="238.8972"/>
  <line class="cls-4" x1="537.4727" y1="44.0939" x2="537.4727" y2="238.8972"/>
  <line class="cls-4" x1="663.2072" y1="44.0939" x2="663.2072" y2="238.8972"/>
  <line class="cls-4" x1="31.9356" y1="44.0219" x2="31.9356" y2="238.8251"/>
  <rect class="cls-3" x="31.9536" y="65.393" width="126.3439" height="25.2199"/>
  <rect class="cls-3" x="159.3006" y="126.2457" width="378.3993" height="25.2199"/>
  <text class="cls-2" transform="translate(514.7928 35.1372)"><tspan x="0" y="0">Janua</tspan><tspan class="cls-9" x="34.0674" y="0">r</tspan><tspan class="cls-10" x="38.8799" y="0">y</tspan></text>
  <text class="cls-2" transform="translate(649.8093 35.4248)"><tspan x="0" y="0">April</tspan></text>
  <text class="cls-2" transform="translate(892.3767 36.5171)"><tspan x="0" y="0">Oc</tspan><tspan class="cls-11" x="14.6992" y="0">t</tspan><tspan x="19.1396" y="0">ober</tspan></text>
  <text class="cls-2" transform="translate(776.9357 35.389)"><tspan x="0" y="0">Ju</tspan><tspan class="cls-12" x="13.5957" y="0">l</tspan><tspan x="17.04" y="0">y</tspan></text>
  <line class="cls-4" x1="914.8221" y1="44.9542" x2="914.8221" y2="239.7574"/>
  <line class="cls-4" x1="788.696" y1="44.9542" x2="788.696" y2="239.7574"/>
  <rect class="cls-5" x="159.3275" y="65.393" width="503.3652" height="25.2199"/>
  <text class="cls-1" transform="translate(36.7574 81.7353)"><tspan class="cls-7" x="0" y="0">V</tspan><tspan class="cls-10" x="7.248" y="0">ersion 1.0.0 (Acti</tspan><tspan class="cls-14" x="102.2744" y="0">v</tspan><tspan x="108.4658" y="0">e)</tspan></text>
  <text class="cls-1" transform="translate(378.7235 81.2429)"><tspan x="0" y="0">Dep</tspan><tspan class="cls-15" x="22.1641" y="0">r</tspan><tspan class="cls-10" x="26.8203" y="0">ec</tspan><tspan class="cls-11" x="39.6719" y="0">at</tspan><tspan x="50.7715" y="0">ed</tspan></text>
  <rect class="cls-5" x="537.393" y="126.2457" width="502.8085" height="25.2199"/>
  <text class="cls-1" transform="translate(756.4158 142.0955)"><tspan x="0" y="0">Dep</tspan><tspan class="cls-15" x="22.1641" y="0">r</tspan><tspan class="cls-10" x="26.8203" y="0">ec</tspan><tspan class="cls-11" x="39.6719" y="0">at</tspan><tspan x="50.7715" y="0">ed</tspan></text>
  <text class="cls-1" transform="translate(289.1014 142.588)"><tspan class="cls-7" x="0" y="0">V</tspan><tspan class="cls-10" x="7.248" y="0">ersion 1.1.0 (Acti</tspan><tspan class="cls-14" x="102.2744" y="0">v</tspan><tspan x="108.4658" y="0">e)</tspan></text>
  <rect class="cls-3" x="537.5268" y="181.131" width="542.2974" height="25.2199"/>
  <text class="cls-1" transform="translate(749.2771 197.5226)"><tspan class="cls-7" x="0" y="0">V</tspan><tspan class="cls-10" x="7.248" y="0">ersion 1.2.0 (Acti</tspan><tspan class="cls-14" x="102.2744" y="0">v</tspan><tspan x="108.4658" y="0">e)</tspan></text>
  <rect class="cls-6" x="663.728" y="65.393" width="124.4752" height="25.2199"/>
  <text class="cls-1" transform="translate(695.4509 82.3711)"><tspan class="cls-8" x="0" y="0">R</tspan><tspan class="cls-10" x="7.7881" y="0">em</tspan><tspan class="cls-13" x="25.1396" y="0">ov</tspan><tspan x="37.9912" y="0">ed</tspan></text>
  <rect class="cls-6" x="1041.2072" y="126.2457" width="38.438" height="25.2199"/>
  <text class="cls-2" transform="translate(1017.9214 35.1371)"><tspan x="0" y="0">Janua</tspan><tspan class="cls-9" x="34.0674" y="0">r</tspan><tspan class="cls-10" x="38.8799" y="0">y</tspan></text>
  <line class="cls-4" x1="1040.64" y1="44.9542" x2="1040.64" y2="239.7574"/>
</svg>