<?xml version="1.0" encoding="UTF-8"?>
<svg id="Text" xmlns="http://www.w3.org/2000/svg" viewBox="0 0 775 387.5">
  <defs>
    <style>
      .cls-1, .cls-2, .cls-3, .cls-4 {
        fill: none;
      }

      .cls-5 {
        letter-spacing: -.01em;
      }

      .cls-6 {
        font-family: IBMPlexSans-SemiBold, 'IBM Plex Sans';
        font-weight: 600;
      }

      .cls-7 {
        letter-spacing: -.023em;
      }

      .cls-8 {
        letter-spacing: -.02em;
      }

      .cls-9 {
        letter-spacing: -.005em;
      }

      .cls-10, .cls-11, .cls-12, .cls-13 {
        fill: #001d6c;
      }

      .cls-10, .cls-14 {
        font-family: IBMPlexSans, 'IBM Plex Sans';
      }

      .cls-10, .cls-12, .cls-13 {
        font-size: 12px;
      }

      .cls-15 {
        letter-spacing: .004em;
      }

      .cls-16 {
        letter-spacing: -.0059em;
      }

      .cls-17 {
        fill: #eef4fb;
      }

      .cls-18 {
        fill: #fff;
      }

      .cls-19 {
        fill: #242b66;
      }

      .cls-20 {
        letter-spacing: -.009em;
      }

      .cls-21 {
        letter-spacing: -.015em;
      }

      .cls-2 {
        stroke-dasharray: 0 0 4 4;
      }

      .cls-2, .cls-3 {
        stroke: #242b66;
      }

      .cls-2, .cls-3, .cls-4 {
        stroke-miterlimit: 10;
      }

      .cls-22 {
        letter-spacing: -.006em;
      }

      .cls-23 {
        letter-spacing: -.009em;
      }

      .cls-24 {
        letter-spacing: -.0069em;
      }

      .cls-25 {
        letter-spacing: 0em;
      }

      .cls-26 {
        letter-spacing: 0em;
      }

      .cls-27 {
        letter-spacing: .0099em;
      }

      .cls-28 {
        letter-spacing: -.004em;
      }

      .cls-29 {
        letter-spacing: -.007em;
      }

      .cls-30 {
        letter-spacing: -.008em;
      }

      .cls-4 {
        stroke: #001d6c;
      }

      .cls-31 {
        letter-spacing: -.011em;
      }

      .cls-32 {
        letter-spacing: -.0151em;
      }

      .cls-33 {
        letter-spacing: -.0099em;
      }

      .cls-34 {
        letter-spacing: -.0041em;
      }

      .cls-35 {
        letter-spacing: -.005em;
      }

      .cls-36 {
        letter-spacing: -.017em;
      }

      .cls-13 {
        font-family: IBMPlexMono-Text, 'IBM Plex Mono';
      }
    </style>
  </defs>
  <rect class="cls-11" x="20.2906" y="103.9081" width="47.9938" height="47.9938"/>
  <path class="cls-18" d="M44.2875,120.405c1.7259,0,3.125,1.3991,3.125,3.125s-1.3991,3.125-3.125,3.125-3.125-1.3991-3.125-3.125c.002-1.7251,1.3999-3.123,3.125-3.125m0-1.25c-2.4162,0-4.375,1.9588-4.375,4.375s1.9588,4.375,4.375,4.375,4.375-1.9588,4.375-4.375-1.9588-4.375-4.375-4.375Z"/>
  <path class="cls-18" d="M50.5375,136.655h-1.25v-3.125c-.002-1.725-1.4-3.123-3.125-3.125h-3.75c-1.725,.002-3.123,1.4-3.125,3.125v3.125h-1.25v-3.125c.0028-2.4151,1.9599-4.3722,4.375-4.375h3.75c2.4151,.0028,4.3722,1.9599,4.375,4.375v3.125Z"/>
  <rect id="_Transparent_Rectangle_" data-name=" Transparent Rectangle " class="cls-1" x="34.2875" y="117.905" width="20" height="20"/>
  <rect class="cls-17" x="207.8327" y="163.1674" width="417.6104" height="191.3308"/>
  <rect class="cls-11" x="207.8327" y="163.1674" width="3" height="52.8159"/>
  <rect class="cls-18" x="228.8514" y="233.8835" width="377.1151" height="47.9616"/>
  <rect class="cls-11" x="228.9848" y="233.8674" width="47.9938" height="47.9938"/>
  <rect class="cls-18" x="228.6105" y="292.2891" width="377.1152" height="47.9616"/>
  <rect class="cls-11" x="228.9848" y="292.2569" width="47.9938" height="47.9938"/>
  <g>
    <path class="cls-11" d="M239.0894,191.9172h-12c-1.1046,0-2-.8954-2-2v-3h2v3h12v-3h2v3c0,1.1046-.8954,2-2,2Z"/>
    <rect class="cls-11" x="219.0894" y="182.9172" width="28" height="2"/>
    <path class="cls-11" d="M241.0894,180.9172h-2v-3h-12v3h-2v-3c0-1.1046,.8954-2,2-2h12c1.1046,0,2,.8954,2,2v3Z"/>
    <polygon class="cls-11" points="247.0894 177.9173 245.0894 177.9173 245.0894 171.9173 239.0894 171.9173 239.0894 169.9173 247.0894 169.9173 247.0894 177.9173"/>
    <polygon class="cls-11" points="221.0894 177.9173 219.0894 177.9173 219.0894 169.9173 227.0894 169.9173 227.0894 171.9173 221.0894 171.9173 221.0894 177.9173"/>
    <polygon class="cls-11" points="227.0894 197.9173 219.0894 197.9173 219.0894 189.9173 221.0894 189.9173 221.0894 195.9173 227.0894 195.9173 227.0894 197.9173"/>
    <polygon class="cls-11" points="247.0894 197.9173 239.0894 197.9173 239.0894 195.9173 245.0894 195.9173 245.0894 189.9173 247.0894 189.9173 247.0894 197.9173"/>
  </g>
  <g>
    <path class="cls-18" d="M250.9817,267.6593h-10v-20h24v10h2v-10c0-1.1046-.8954-2-2-2h-24c-1.1046,0-2,.8954-2,2v20c0,1.1046,.8954,2,2,2h10v-2Z"/>
    <g>
      <polygon class="cls-18" points="264.621 267.5746 263.9106 266.8637 262.6113 268.1634 261.3121 266.8637 260.6017 267.5746 261.9009 268.8733 260.6017 270.1726 261.3121 270.883 262.6113 269.5837 263.9106 270.883 264.621 270.1726 263.3217 268.8733 264.621 267.5746"/>
      <path class="cls-18" d="M263.1137,259.3275c-1.1094,.0012-2.0084,.9003-2.0097,2.0097,.0018,.3576,.1002,.7081,.2848,1.0144l-5.2994,5.2994c-.3063-.1846-.6568-.283-1.0144-.2848-1.1099,0-2.0097,.8998-2.0097,2.0097s.8998,2.0097,2.0097,2.0097,2.0097-.8998,2.0097-2.0097c-.0018-.3576-.1002-.7081-.2848-1.0144l5.2994-5.2994c.3063,.1846,.6568,.283,1.0144,.2848,1.1099,0,2.0097-.8998,2.0097-2.0097s-.8998-2.0097-2.0097-2.0097Zm-8.0386,11.0531c-.555,0-1.0048-.4499-1.0048-1.0048s.4499-1.0048,1.0048-1.0048,1.0048,.4499,1.0048,1.0048c-.0006,.5547-.4501,1.0042-1.0048,1.0048Zm8.0386-8.0386c-.555,0-1.0048-.4499-1.0048-1.0048s.4499-1.0048,1.0048-1.0048,1.0048,.4499,1.0048,1.0048c-.0006,.5547-.4501,1.0042-1.0048,1.0048Z"/>
      <polygon class="cls-18" points="255.0751 262.9348 253.7739 261.6335 253.0655 262.3419 255.0751 264.3516 258.592 260.8347 257.8836 260.1263 255.0751 262.9348"/>
    </g>
    <rect class="cls-18" x="242.4834" y="258.3323" width="6" height="2"/>
    <rect class="cls-18" x="242.4834" y="254.3323" width="10" height="2"/>
    <rect class="cls-18" x="242.4834" y="250.3323" width="17.191" height="2"/>
    <rect class="cls-18" x="242.4834" y="262.3323" width="3" height="2"/>
  </g>
  <g>
    <path class="cls-18" d="M244.9817,330.2538h-4c-1.1041-.0012-1.9988-.8959-2-2v-24c.0012-1.1041,.8959-1.9988,2-2h4v2h-4v24h4v2Z"/>
    <path class="cls-18" d="M264.9817,330.2538h-4v-2h4v-24h-4v-2h4c1.1041,.0012,1.9988,.8959,2,2v24c-.0012,1.1041-.8959,1.9988-2,2Z"/>
    <polygon class="cls-18" points="252.6621 317.0804 250.8434 315.2618 249.8534 316.2519 252.6621 319.0606 257.5773 314.1454 256.5872 313.1553 252.6621 317.0804"/>
    <path class="cls-18" d="M263.1947,315.5497h-1.44c-.3473-4.0936-3.5946-7.341-7.6882-7.6882v-1.44h-1.4043v1.44c-4.0936,.3473-7.341,3.5946-7.6882,7.6882h-1.44v1.4043h1.44c.3473,4.0936,3.5946,7.341,7.6882,7.6882v1.44h1.4043v-1.44c4.0936-.3473,7.341-3.5946,7.6882-7.6882h1.44v-1.4043Zm-9.1283,7.6882v-2.0708h-1.4043v2.0708c-3.3202-.3384-5.9454-2.9637-6.2839-6.2839h2.0708v-1.4043h-2.0708c.3384-3.3202,2.9637-5.9454,6.2839-6.2839v2.0708h1.4043v-2.0708c3.3202,.3384,5.9454,2.9637,6.2839,6.2839h-2.0708v1.4043h2.0707c-.3384,3.3202-2.9636,5.9454-6.2837,6.2839h0Z"/>
  </g>
  <rect class="cls-17" x="207.8327" y="93.1938" width="416.9953" height="52.8159"/>
  <g>
    <rect class="cls-11" x="227.0894" y="119.6018" width="12" height="2"/>
    <rect class="cls-11" x="227.0894" y="113.6018" width="12" height="2"/>
    <path class="cls-11" d="M233.0894,133.6018l-6.1758-3.2929c-3.5881-1.9087-5.8286-5.643-5.8242-9.7071v-13c.0012-1.1041,.8959-1.9988,2-2h20c1.1041,.0012,1.9988,.8959,2,2v13c.0044,4.0641-2.2362,7.7983-5.8242,9.7069l-6.1758,3.2931Zm-10-26v13c-.0035,3.3253,1.8298,6.3807,4.7656,7.9423l5.2344,2.791,5.2344-2.791c2.9358-1.5616,4.7691-4.617,4.7656-7.9423v-13h-20Z"/>
  </g>
  <text class="cls-12" transform="translate(287.361 312.2002)"><tspan class="cls-6"><tspan x="0" y="0">S</tspan><tspan class="cls-9" x="7.332" y="0">c</tspan><tspan x="13.4277" y="0">ope</tspan></tspan><tspan class="cls-14"><tspan x="0" y="14.3999">The g</tspan><tspan class="cls-9" x="29.4355" y="14.3999">r</tspan><tspan class="cls-25" x="33.7793" y="14.3999">ouping </tspan><tspan class="cls-16" x="73.2588" y="14.3999">o</tspan><tspan x="79.9072" y="14.3999">f </tspan><tspan class="cls-9" x="86.627" y="14.3999">r</tspan><tspan x="90.9707" y="14.3999">esou</tspan><tspan class="cls-35" x="116.9385" y="14.3999">r</tspan><tspan class="cls-22" x="121.2832" y="14.3999">c</tspan><tspan x="127.2471" y="14.3999">es that </tspan><tspan class="cls-9" x="166.9902" y="14.3999">y</tspan><tspan class="cls-25" x="172.918" y="14.3999">ou </tspan><tspan class="cls-20" x="189.2861" y="14.3999">w</tspan><tspan class="cls-26" x="198.3945" y="14.3999">ant </tspan><tspan class="cls-28" x="218.6621" y="14.3999">t</tspan><tspan x="222.8262" y="14.3999">o </tspan><tspan class="cls-30" x="232.3779" y="14.3999">e</tspan><tspan class="cls-23" x="238.8701" y="14.3999">v</tspan><tspan x="244.666" y="14.3999">alua</tspan><tspan class="cls-28" x="267.5615" y="14.3999">t</tspan><tspan class="cls-8" x="271.7256" y="14.3999">e</tspan><tspan class="cls-25" x="278.0732" y="14.3999">.</tspan></tspan></text>
  <text class="cls-12" transform="translate(289.524 254.9538)"><tspan class="cls-6"><tspan class="cls-33" x="0" y="0">P</tspan><tspan class="cls-9" x="7.5723" y="0">r</tspan><tspan class="cls-16" x="12.2275" y="0">o</tspan><tspan class="cls-26" x="18.9121" y="0">file</tspan></tspan><tspan class="cls-14"><tspan x="0" y="14.3999">A g</tspan><tspan class="cls-35" x="16.8594" y="14.3999">r</tspan><tspan x="21.2041" y="14.3999">ouping </tspan><tspan class="cls-22" x="60.6836" y="14.3999">o</tspan><tspan x="67.3311" y="14.3999">f similar </tspan><tspan class="cls-22" x="113.2783" y="14.3999">c</tspan><tspan class="cls-25" x="119.2422" y="14.3999">ont</tspan><tspan class="cls-9" x="136.9902" y="14.3999">r</tspan><tspan class="cls-25" x="141.334" y="14.3999">ol</tspan><tspan class="cls-35" x="151.3184" y="14.3999">s</tspan><tspan x="157.1025" y="14.3999">.</tspan></tspan></text>
  <text class="cls-12" transform="translate(256.8135 179.4198)"><tspan class="cls-6"><tspan class="cls-32" x="0" y="0">A</tspan><tspan class="cls-22" x="7.8838" y="0">t</tspan><tspan x="12.2998" y="0">tachment</tspan></tspan><tspan class="cls-14"><tspan x="0" y="14.3999">Sta</tspan><tspan class="cls-15" x="17.5918" y="14.3999">r</tspan><tspan x="22.0439" y="14.3999">t scanning </tspan><tspan class="cls-9" x="79.9912" y="14.3999">y</tspan><tspan x="85.9189" y="14.3999">our </tspan><tspan class="cls-35" x="106.6904" y="14.3999">r</tspan><tspan x="111.0352" y="14.3999">esou</tspan><tspan class="cls-9" x="137.0029" y="14.3999">r</tspan><tspan class="cls-22" x="141.3467" y="14.3999">c</tspan><tspan x="147.3105" y="14.3999">es </tspan><tspan class="cls-35" x="162.5742" y="14.3999">b</tspan><tspan class="cls-26" x="169.4746" y="14.3999">y selecting the IBM Cloud </tspan></tspan><tspan class="cls-14"><tspan class="cls-33" x="0" y="28.7998">K</tspan><tspan class="cls-26" x="7.4883" y="28.7998">uberne</tspan><tspan class="cls-28" x="45.6592" y="28.7998">t</tspan><tspan x="49.8232" y="28.7998">es Se</tspan><tspan class="cls-27" x="78.6475" y="28.7998">r</tspan><tspan x="83.1709" y="28.7998">vi</tspan><tspan class="cls-22" x="92.0752" y="28.7998">c</tspan><tspan x="98.0391" y="28.7998">e p</tspan><tspan class="cls-35" x="114.418" y="28.7998">r</tspan><tspan class="cls-22" x="118.7627" y="28.7998">o</tspan><tspan x="125.4102" y="28.7998">file and ta</tspan><tspan class="cls-7" x="178.5332" y="28.7998">r</tspan><tspan class="cls-16" x="182.6611" y="28.7998">g</tspan><tspan x="188.9258" y="28.7998">eting </tspan><tspan class="cls-35" x="218.709" y="28.7998">y</tspan><tspan x="224.6377" y="28.7998">our </tspan><tspan class="cls-9" x="245.4092" y="28.7998">r</tspan><tspan x="249.7529" y="28.7998">esou</tspan><tspan class="cls-9" x="275.7207" y="28.7998">r</tspan><tspan class="cls-22" x="280.0645" y="28.7998">c</tspan><tspan x="286.0283" y="28.7998">e</tspan><tspan class="cls-35" x="292.6162" y="28.7998">s</tspan><tspan class="cls-25" x="298.4004" y="28.7998">. </tspan></tspan></text>
  <rect class="cls-11" x="207.8327" y="93.1938" width="3" height="52.8159"/>
  <text class="cls-12" transform="translate(256.4305 113.6018)"><tspan class="cls-6"><tspan x="0" y="0">In</tspan><tspan class="cls-28" x="12.1318" y="0">t</tspan><tspan class="cls-26" x="16.5723" y="0">eg</tspan><tspan class="cls-31" x="29.8076" y="0">r</tspan><tspan class="cls-28" x="34.3916" y="0">a</tspan><tspan x="41.0518" y="0">tion</tspan></tspan><tspan class="cls-14"><tspan class="cls-21" x="0" y="14.3999">R</tspan><tspan x="7.5" y="14.3999">egi</tspan><tspan class="cls-29" x="23.4238" y="14.3999">s</tspan><tspan class="cls-28" x="29.1836" y="14.3999">t</tspan><tspan x="33.3477" y="14.3999">er </tspan><tspan class="cls-9" x="47.1719" y="14.3999">y</tspan><tspan class="cls-25" x="53.0996" y="14.3999">our in</tspan><tspan class="cls-29" x="83.6875" y="14.3999">s</tspan><tspan x="89.4473" y="14.3999">tan</tspan><tspan class="cls-22" x="106.8838" y="14.3999">c</tspan><tspan x="112.8477" y="14.3999">e </tspan><tspan class="cls-22" x="122.2676" y="14.3999">o</tspan><tspan x="128.915" y="14.3999">f </tspan><tspan class="cls-32" x="135.6348" y="14.3999">W</tspan><tspan class="cls-25" x="146.1465" y="14.3999">orkload </tspan><tspan class="cls-5" x="189.7783" y="14.3999">P</tspan><tspan class="cls-35" x="196.9297" y="14.3999">r</tspan><tspan x="201.2744" y="14.3999">o</tspan><tspan class="cls-28" x="207.9941" y="14.3999">t</tspan><tspan x="212.1582" y="14.3999">ection.</tspan></tspan></text>
  <rect class="cls-11" x="710.4712" y="159.1193" width="47.9938" height="47.9938"/>
  <g>
    <polygon class="cls-18" points="730.4681 172.5162 729.0681 171.1162 726.4681 173.7162 723.868 171.1162 722.4681 172.5162 725.0681 175.1162 722.4681 177.7162 723.868 179.1162 726.4681 176.5162 729.0681 179.1162 730.4681 177.7162 727.868 175.1162 730.4681 172.5162"/>
    <g>
      <polygon class="cls-18" points="741.4681 176.3162 738.868 173.7162 737.4681 175.1162 741.4681 179.1162 748.4681 172.1162 747.0681 170.7162 741.4681 176.3162"/>
      <polygon class="cls-18" points="730.4681 188.5162 729.0681 187.1162 726.4681 189.7162 723.868 187.1162 722.4681 188.5162 725.0681 191.1162 722.4681 193.7162 723.868 195.1162 726.4681 192.5162 729.0681 195.1162 730.4681 193.7162 727.868 191.1162 730.4681 188.5162"/>
      <polygon class="cls-18" points="735.4681 182.1162 735.4681 169.1162 733.4681 169.1162 733.4681 182.1162 720.4681 182.1162 720.4681 184.1162 733.4681 184.1162 733.4681 197.1162 735.4681 197.1162 735.4681 184.1162 748.4681 184.1162 748.4681 182.1162 735.4681 182.1162"/>
    </g>
  </g>
  <line class="cls-4" x1="44.2875" y1="210.8882" x2="44.2875" y2="363.077"/>
  <line class="cls-3" x1="734.5778" y1="363.077" x2="44.6696" y2="363.077"/>
  <g>
    <line class="cls-3" x1="734.468" y1="234.6205" x2="734.468" y2="363.077"/>
    <polygon class="cls-19" points="729.4817 236.0795 734.468 227.4443 739.4543 236.0795 729.4817 236.0795"/>
  </g>
  <rect class="cls-17" x="207.8327" y="22.3725" width="416.9953" height="52.8159"/>
  <rect class="cls-11" x="207.8327" y="22.3725" width="3" height="52.8159"/>
  <text class="cls-12" transform="translate(256.5983 42.7805)"><tspan class="cls-6"><tspan class="cls-28" x="0" y="0">St</tspan><tspan x="11.7236" y="0">o</tspan><tspan class="cls-31" x="18.4795" y="0">r</tspan><tspan x="23.0635" y="0">a</tspan><tspan class="cls-22" x="29.7715" y="0">g</tspan><tspan x="36.2393" y="0">e</tspan></tspan><tspan class="cls-14"><tspan class="cls-21" x="0" y="14.3999">R</tspan><tspan x="7.5" y="14.3999">egi</tspan><tspan class="cls-29" x="23.4238" y="14.3999">s</tspan><tspan class="cls-28" x="29.1836" y="14.3999">t</tspan><tspan x="33.3477" y="14.3999">er a Cloud Object S</tspan><tspan class="cls-28" x="135.5508" y="14.3999">t</tspan><tspan x="139.7148" y="14.3999">o</tspan><tspan class="cls-34" x="146.4346" y="14.3999">r</tspan><tspan x="150.79" y="14.3999">a</tspan><tspan class="cls-22" x="157.1982" y="14.3999">g</tspan><tspan x="163.4619" y="14.3999">e buc</tspan><tspan class="cls-36" x="192.6934" y="14.3999">k</tspan><tspan x="198.8135" y="14.3999">et </tspan><tspan class="cls-28" x="212.4453" y="14.3999">t</tspan><tspan x="216.6094" y="14.3999">o </tspan><tspan class="cls-24" x="226.1611" y="14.3999">s</tspan><tspan class="cls-28" x="231.9219" y="14.3999">t</tspan><tspan x="236.0859" y="14.3999">o</tspan><tspan class="cls-9" x="242.8057" y="14.3999">r</tspan><tspan x="247.1494" y="14.3999">e </tspan><tspan class="cls-9" x="256.5693" y="14.3999">r</tspan><tspan x="260.9131" y="14.3999">esu</tspan><tspan class="cls-35" x="280.1611" y="14.3999">l</tspan><tspan x="283.3652" y="14.3999">t</tspan><tspan class="cls-35" x="287.5771" y="14.3999">s</tspan><tspan x="293.3613" y="14.3999">.</tspan></tspan></text>
  <g>
    <path class="cls-11" d="M245.0894,52.7804h-2v2h2v6h-24v-6h10v-2h-10c-1.104,.0013-1.9987,.896-2,2v6c.0013,1.104,.896,1.9987,2,2h24c1.104-.0013,1.9987-.896,2-2v-6c-.0013-1.104-.896-1.9987-2-2Z"/>
    <circle class="cls-11" cx="224.0894" cy="57.7804" r="1"/>
    <path class="cls-11" d="M247.0894,40.7804h-8v6h-6v8h8v-6h6v-8Zm-8,12h-4v-4h4v4Zm6-6h-4v-4h4v4Z"/>
    <path class="cls-11" d="M235.0894,42.7804h-8v-8h8v8Zm-6-2h4v-4h-4v4Z"/>
  </g>
  <g>
    <line class="cls-2" x1="636.4543" y1="47.2198" x2="735.0779" y2="47.2198"/>
    <polygon class="cls-19" points="637.9133 52.2062 629.2783 47.2198 637.9133 42.2335 637.9133 52.2062"/>
  </g>
  <g>
    <circle class="cls-18" cx="44.2876" cy="236.1777" r="9.3584"/>
    <path class="cls-11" d="M44.2876,227.3192c4.8845,0,8.8584,3.9738,8.8584,8.8584s-3.9739,8.8584-8.8584,8.8584-8.8584-3.9738-8.8584-8.8584,3.9739-8.8584,8.8584-8.8584m0-1c-5.4448,0-9.8584,4.4138-9.8584,9.8584s4.4136,9.8584,9.8584,9.8584,9.8584-4.4138,9.8584-9.8584-4.4138-9.8584-9.8584-9.8584h0Z"/>
  </g>
  <text class="cls-13" transform="translate(40.7117 240.3656)"><tspan x="0" y="0">4</tspan></text>
  <text class="cls-10" transform="translate(631.106 175.777)"><tspan x="0" y="0">E</tspan><tspan class="cls-23" x="6.9961" y="0">v</tspan><tspan x="12.792" y="0">aluation</tspan></text>
  <g>
    <line class="cls-2" x1="734.468" y1="145.5785" x2="734.468" y2="46.5346"/>
    <polygon class="cls-19" points="739.4543 144.1195 734.468 152.7548 729.4817 144.1195 739.4543 144.1195"/>
  </g>
  <g>
    <line class="cls-2" x1="625.4353" y1="183.1162" x2="696.3745" y2="183.1162"/>
    <polygon class="cls-19" points="694.9155 188.1025 703.5505 183.1162 694.9155 178.1298 694.9155 188.1025"/>
  </g>
  <g>
    <line class="cls-3" x1="124.116" y1="184.1022" x2="195.9219" y2="184.1022"/>
    <polygon class="cls-19" points="194.4629 189.0885 203.0981 184.1022 194.4629 179.1159 194.4629 189.0885"/>
  </g>
  <line class="cls-4" x1="124.4943" y1="184.6013" x2="124.4943" y2="137.3011"/>
  <g>
    <circle class="cls-18" cx="124.4946" cy="162.2222" r="9.3584"/>
    <path class="cls-11" d="M124.4944,153.3639c4.8845,0,8.8584,3.9739,8.8584,8.8584s-3.9739,8.8584-8.8584,8.8584-8.8584-3.9738-8.8584-8.8584,3.9739-8.8584,8.8584-8.8584m0-1c-5.4446,0-9.8584,4.4138-9.8584,9.8584s4.4138,9.8584,9.8584,9.8584,9.8584-4.4138,9.8584-9.8584-4.4138-9.8584-9.8584-9.8584h0Z"/>
  </g>
  <text class="cls-13" transform="translate(121.0869 166.4103)"><tspan x="0" y="0">3</tspan></text>
  <line class="cls-4" x1="68.3031" y1="137.8031" x2="124.6125" y2="137.8031"/>
  <g>
    <line class="cls-3" x1="68.1121" y1="118.4958" x2="195.9219" y2="118.4958"/>
    <polygon class="cls-19" points="194.4629 123.4821 203.0981 118.4958 194.4629 113.5094 194.4629 123.4821"/>
  </g>
  <g>
    <circle class="cls-18" cx="93.3315" cy="118.3135" r="9.3584"/>
    <path class="cls-11" d="M93.332,109.4551c4.8845,0,8.8584,3.9739,8.8584,8.8584s-3.9739,8.8584-8.8584,8.8584-8.8584-3.9739-8.8584-8.8584,3.9739-8.8584,8.8584-8.8584m0-1c-5.4446,0-9.8584,4.4138-9.8584,9.8584s4.4138,9.8584,9.8584,9.8584,9.8584-4.4138,9.8584-9.8584-4.4138-9.8584-9.8584-9.8584h0Z"/>
  </g>
  <text class="cls-13" transform="translate(89.684 122.5015)"><tspan x="0" y="0">2</tspan></text>
  <g>
    <line class="cls-4" x1="44.0642" y1="46.3635" x2="195.9221" y2="46.3635"/>
    <polygon class="cls-11" points="194.4631 51.3498 203.0981 46.3635 194.4631 41.3771 194.4631 51.3498"/>
  </g>
  <line class="cls-4" x1="44.4654" y1="104.338" x2="44.4654" y2="45.8646"/>
  <g>
    <circle class="cls-18" cx="44.2876" cy="80.8047" r="9.3584"/>
    <path class="cls-11" d="M44.2876,71.9463c4.8845,0,8.8584,3.9739,8.8584,8.8584s-3.9739,8.8584-8.8584,8.8584-8.8584-3.9739-8.8584-8.8584,3.9739-8.8584,8.8584-8.8584m0-1c-5.4448,0-9.8584,4.4138-9.8584,9.8584s4.4136,9.8584,9.8584,9.8584,9.8584-4.4138,9.8584-9.8584-4.4138-9.8584-9.8584-9.8584h0Z"/>
  </g>
  <text class="cls-13" transform="translate(40.6393 84.9927)"><tspan x="0" y="0">1</tspan></text>
</svg>